<?xml version="1.0" encoding="utf-8"?>
<!-- Generator: Adobe Illustrator 25.3.0, SVG Export Plug-In . SVG Version: 6.00 Build 0)  -->
<svg version="1.1" id="Calque_1" xmlns="http://www.w3.org/2000/svg" xmlns:xlink="http://www.w3.org/1999/xlink" x="0px" y="0px" viewBox="0 0 32 32" style="enable-background:new 0 0 32 32;" xml:space="preserve">
	<style type="text/css">
	.st0{fill:#1B4568;}
	.st1{fill:#266DD3;}
	@media (prefers-color-scheme: dark) {
        .st0, .st1{fill:#FFF}
    }
</style>
	<g>
		<path class="st0" d="M0,17.6v-4.3h3v0.9H1.1V15h1.8v0.9H1.1v1.7H0z" />
		<path class="st0" d="M6.4,17.6l-0.4-0.9H4.2l-0.4,0.9H2.7l2-4.3h0.9l2,4.3H6.4z M4.5,15.9h1.2l-0.6-1.4L4.5,15.9z" />
		<path class="st0" d="M7.5,16.8l0.5,0c0.2,0,0.3,0,0.3-0.1c0.1-0.1,0.1-0.2,0.1-0.3v-3h1.1v3c0,0.4-0.1,0.7-0.3,1
		c-0.2,0.2-0.6,0.3-1,0.4l-0.6,0L7.5,16.8z" />
		<path class="st0" d="M13.1,13.4h1v4.3h-0.8l-2-2.4v2.4h-1v-4.3h0.8l2,2.4V13.4z" />
		<path class="st0" d="M18.8,13.4L17,15.7v1.9h-1.1v-1.9l-1.8-2.4h1.3l1.1,1.5l1.1-1.5C17.6,13.4,18.8,13.4,18.8,13.4z" />
		<path class="st0" d="M21.5,17.4c-0.3-0.2-0.6-0.4-0.8-0.8c-0.2-0.3-0.3-0.7-0.3-1.2c0-0.4,0.1-0.8,0.3-1.1c0.2-0.3,0.4-0.6,0.8-0.8
		c0.3-0.2,0.7-0.3,1.2-0.3c0.3,0,0.5,0,0.8,0.1c0.3,0.1,0.5,0.2,0.6,0.3l-0.3,0.8c-0.4-0.2-0.7-0.4-1.1-0.4c-0.3,0-0.6,0.1-0.8,0.3
		c-0.2,0.2-0.3,0.5-0.3,1s0.1,0.8,0.3,1c0.2,0.2,0.4,0.3,0.8,0.3c0.4,0,0.7-0.1,1.1-0.4l0.3,0.8c-0.2,0.1-0.4,0.3-0.6,0.3
		c-0.3,0.1-0.5,0.1-0.8,0.1C22.2,17.7,21.8,17.6,21.5,17.4z" />
		<path class="st0" d="M25.2,17.6c-0.3-0.1-0.6-0.2-0.8-0.3l0.3-0.8c0.2,0.1,0.4,0.2,0.7,0.3c0.2,0.1,0.5,0.1,0.7,0.1
		c0.2,0,0.4,0,0.6-0.1c0.1-0.1,0.2-0.2,0.2-0.3c0-0.1-0.1-0.2-0.2-0.3c-0.1-0.1-0.3-0.1-0.7-0.2c-0.4-0.1-0.7-0.2-0.9-0.3
		c-0.2-0.1-0.4-0.3-0.5-0.4c-0.1-0.2-0.1-0.4-0.1-0.6c0-0.3,0.1-0.5,0.2-0.7c0.1-0.2,0.4-0.4,0.6-0.5c0.3-0.1,0.6-0.2,0.9-0.2
		c0.3,0,0.6,0,0.9,0.1c0.3,0.1,0.5,0.2,0.7,0.3l-0.3,0.8c-0.4-0.3-0.8-0.4-1.2-0.4c-0.2,0-0.4,0-0.5,0.1c-0.1,0.1-0.2,0.2-0.2,0.3
		c0,0.1,0,0.1,0.1,0.2s0.1,0.1,0.2,0.1c0.1,0,0.3,0.1,0.5,0.1c0.4,0.1,0.7,0.2,0.9,0.3c0.2,0.1,0.4,0.3,0.5,0.4
		c0.1,0.2,0.1,0.3,0.1,0.6c0,0.4-0.2,0.7-0.5,1c-0.3,0.2-0.8,0.4-1.4,0.4C25.8,17.7,25.5,17.7,25.2,17.6z" />
		<path class="st0" d="M29.2,17.6c-0.3-0.1-0.6-0.2-0.8-0.3l0.3-0.8c0.2,0.1,0.4,0.2,0.7,0.3c0.2,0.1,0.5,0.1,0.7,0.1
		c0.2,0,0.4,0,0.6-0.1c0.1-0.1,0.2-0.2,0.2-0.3c0-0.1-0.1-0.2-0.2-0.3s-0.3-0.1-0.7-0.2c-0.4-0.1-0.7-0.2-0.9-0.3
		c-0.2-0.1-0.4-0.3-0.5-0.4c-0.1-0.2-0.1-0.4-0.1-0.6c0-0.3,0.1-0.5,0.2-0.7c0.1-0.2,0.4-0.4,0.6-0.5c0.3-0.1,0.6-0.2,0.9-0.2
		c0.3,0,0.6,0,0.9,0.1s0.5,0.2,0.7,0.3l-0.3,0.8c-0.4-0.3-0.8-0.4-1.2-0.4c-0.2,0-0.4,0-0.5,0.1c-0.1,0.1-0.2,0.2-0.2,0.3
		c0,0.1,0,0.1,0.1,0.2c0,0,0.1,0.1,0.2,0.1c0.1,0,0.3,0.1,0.5,0.1c0.4,0.1,0.7,0.2,0.9,0.3c0.2,0.1,0.4,0.3,0.5,0.4s0.1,0.3,0.1,0.6
		c0,0.4-0.2,0.7-0.5,1c-0.3,0.2-0.8,0.4-1.4,0.4C29.8,17.7,29.5,17.7,29.2,17.6z" />
	</g>
	<rect x="20.5" y="18.4" class="st1" width="11.5" height="0.3" />
</svg>