<?xml version="1.0" encoding="utf-8"?>
<!-- Generator: Adobe Illustrator 22.1.0, SVG Export Plug-In . SVG Version: 6.00 Build 0)  -->
<svg version="1.1" id="Layer_1" xmlns="http://www.w3.org/2000/svg" xmlns:xlink="http://www.w3.org/1999/xlink" x="0px" y="0px"
	 viewBox="0 0 196.8 150" style="enable-background:new 0 0 196.8 150;" xml:space="preserve">
<style type="text/css">
	.st0{fill:#FBA919;}
	.st1{fill:#E78724;}
	.st2{fill:#FDC168;}
	.st3{fill:#FFFFFF;}
	.st4{fill:#C9C9C9;}
	.st5{fill:#463014;}
</style>
<g>
	<path class="st0" d="M53.2,39c0,0,2.4,9.3,2.7,12.3c0.3,3.1-6.2,9.9-6.2,13.4c0,3.4,1.4,9.6,8.9,12.7s8.6,11,8.6,15.8
		s-2.7,14-2.7,14s-1.7,22.9,7.5,27.1c9.2,4.1,7.2,4.1,9.2,4.1c2.1,0,17.1,6.2,26,3.8s11.3-5.1,11.3-5.1s8.9,0.7,11.6-7.2
		c2.7-7.9,4.5-24.3,3.4-31.9c-1-7.5-2.4-17.5,3.8-20.9c6.2-3.4,12.7-7.5,11.6-11c-1-3.4-6.5-8.2-6.5-8.2s-1.4-8.6-0.3-10.6
		c1-2.1,7.2-7.2,3.8-11c-3.4-3.8-9.6-3.8-9.6-3.8l-7.9,0.7c0,0-13.4-12-30.8-11.3c-17.5,0.7-28.4,11.3-28.4,11.3s-5.8-2.1-11,0
		C53.2,35.3,52.1,33.2,53.2,39z"/>
	<path class="st1" d="M84.5,90c0,0-6.8,10.4-11.8,17.7c-0.8,1.1,5,1.2,5,1.2L84.5,90L84.5,90z M87.7,68.5c0,0-2,5.1-3.2,7.8
		c-1.2,2.9-5.9,4.4-5.9,4.4s2.4-2.5,2.4-8.9c0-2.7,3.5-3.7,3.5-3.7L87.7,68.5L87.7,68.5z"/>
	<path class="st1" d="M85.6,71.4c0,0-4.2,5-12,2.2c-7.8-2.8-8.6-12.8-8.6-15.6s14.8,2.8,16.8,4C83.8,63.2,87.6,68,85.6,71.4
		L85.6,71.4z M56.2,18.1c0,0,7.2-1.4,12,2.4s6.2,6.8,6.2,6.8l-8.1,6.4c0,0-3.9-1.8-5.1-7C60,21.5,60.8,19.1,56.2,18.1L56.2,18.1z"/>
	<path class="st1" d="M83.5,57c-3.1-4.4-8.2-6.3-12.2-6.6c-6.9-0.5-10.2,1.9-10.2,1.9s11.4,0.5,14.6,4.8c6.1,8,15,8.7,16.4,6.9
		c-1.6,0.1-3.5-0.7-5.4-2.6C85.5,60.3,84.5,58.4,83.5,57z M64.4,72.5c0,0-12.6-4.3-10.2-8.7c2.4-4.4,0.5-6.8,0.5-6.8
		s-7,5.2-5.3,10.8c1.1,3.4,3,5.9,13.1,10.7c4.9,9,1,25.3,1.2,25.4c0.4,0.1,6.8-3.2,6.4-18.4C70,80.8,69.6,74.4,64.4,72.5L64.4,72.5z
		 M80.9,25.9c-5.3,2.7-12.5,6.4-12.5,6.4l2.9,1.4c-0.3,0.4-0.4,0.7-0.4,0.7l2.9,1.3c0,0,7.1,5.2,11.5,8.5
		c-1.5-4.5-5.7-11.5-5.7-11.5S78.3,29.5,80.9,25.9L80.9,25.9z M98.4,135.4c-16.2,0-21.7-8.2-21.7-8.2l2.5,6.2c1,2.7,11.2,11,19.2,11
		"/>
	<path class="st1" d="M78.5,121.6c0,0,1.5,9.1,7.5,9.1c5.1,0,6.6-7.7,6.6-9.3L78.5,121.6L78.5,121.6z M68.5,107.8
		c0.5-1.5,2.4-7.4,3-12.8c0.7-6.5,0.5-15.9,0.5-15.9s-1.6,6.2-3,7.2c-1.4,1-4,7.8-4,7.8s-1.4,10.1-2,13.5
		C64.7,107.9,66.3,106.9,68.5,107.8L68.5,107.8z M54.1,67.8c0,0,3.4-1.2,4.4-8.6c1-7.4-1.2-13.8-1.2-13.8s0.2,10.2-1,12.2
		c-1.2,2-2.2,2.6-3.6,5.2C51.3,65.4,53.3,67,54.1,67.8L54.1,67.8z"/>
	<path class="st2" d="M58.1,19.9l-0.7-0.4C55.4,19.5,58.1,19.9,58.1,19.9z"/>
	<path class="st0" d="M83.6,23.7c0,0-3.2-0.5-4.8-2.9c-1.6-2.4-6.1-7.2-13.3-7.2c-7.2-0.1-14.3,1.9-14.3,1.9l6.2,3.9
		c0.7,0,1.8,0,3.7,0.1c7.8,0.3,9,8,9,8l27.5-3.8"/>
	<path class="st3" d="M86.3,66.4c0,0-3.7,3.7-9.4,2.5c-5.7-1.2-9.2-3.7-9.4-8.1s1.2-6.1,1.2-6.1s6.4,2,9.4,4.7
		C81.1,62,83.4,66.3,86.3,66.4L86.3,66.4z"/>
	<path class="st4" d="M81.8,65.1c0,0-3.2,1.5-6.8,0.3c-4.7-1.6-5-6.5-5-6.5S67,67.4,75.1,69c6.5,1.3,10.4-2.5,10.4-2.5L81.8,65.1
		L81.8,65.1z"/>
	<path class="st5" d="M84.1,21.9c-0.4-7.3,5.6-13.1,7.7-13.4c0.1,1.2-0.1,6.1,2,7.5c0.6-3.9,2.6-8.3,10.7-11.1
		c-1.7,4.6-0.2,8.4,0.5,10.2c5.5-5,9.2-4.2,9.2-4.2s-3.8,6.6-2.3,10.9C100.8,21.1,84.1,23.1,84.1,21.9L84.1,21.9z M60.7,33.1
		c-2.6-2.2-0.7-4.2-0.9-6.7c-0.1-1.3-0.2-2.6-0.7-3.3c-2.4-3.8-8.1-5-8.2-5l-2.7-0.5l1.8-2.1c0.2-0.3,7.5-7.2,18.8-3.6
		c7.9,2.5,13.7,11.2,14,11.5l-3.9,1.9c0-0.1-4.7-8.2-11.4-10.4c-5.5-1.8-10.5-0.1-12.7,1c2.3,0.9,5.3,2.6,7.1,5.4
		c0.9,1.3,1,3.1,1.1,4.7c0.2,2.2,0.3,4.2,2,5.6L60.7,33.1z M53.6,64.9c0,0,3.3-4.1,4.3-12.1c0.4-3.2-0.3-9.4-1.4-11.8
		c0.2,5.9-1.3,11.8-1.3,11.8S54.2,63.8,53.6,64.9L53.6,64.9z"/>
	<path class="st5" d="M71.1,28.9c0,0-1.1-4.6-4-7c-4.2-3.3-9.2-1.6-9.3-1.5l-0.7-2.3c0.3-0.1,6-1.9,11.4,1.8c5.4,3.8,6,7.2,6.1,7.6
		L71.1,28.9L71.1,28.9z M64.1,62c0,0-1.7-2.5-1.4-5.2c0.2-1.4,0.8-2.7,1.9-3.2c2.1-0.9,3,1.4,3,1.4S64.6,55.7,64.1,62L64.1,62z"/>
	<path class="st5" d="M83.2,65.8c0.1,0.1,0.1,0.2,0.1,0.2s-5.4,4.1-11-0.1c-3-2.2-2.7-7.7-1.8-10c2.4,0.5,4.4,1.5,6.1,2.6
		c-2.1-1.9-4-3.3-4-3.3l-2.4-0.7L65.5,53c-0.1,0.4-1.8,8.4,3.2,13.9c2.2,2.4,12.5,7.9,17.3-1.4L83.2,65.8L83.2,65.8z"/>
	<path class="st5" d="M82.7,66.4c3.1,4.6,10.8,2,10.6-2.9c0,0-5.2,2.8-9.7-2.4c-2.7-3.1-11.2-11.5-22.7-8.7
		C68.8,54.1,79.4,61.4,82.7,66.4L82.7,66.4z"/>
	<path class="st5" d="M59.8,79.5c0.7,0.4,3.3,3.1,3.3,7.1c0,2-0.2,12.1-1.2,18.3c1.5,1,2.5,1.2,4,2.2c0.7-7.2,1.3-17.5,1-21.7
		c-0.3-4.8-2.8-8-5.2-9.4c-0.7-0.4-1.5-0.9-2.3-1.3c-4.1-2.2-8.3-4.5-8.3-8.3c0-3,1.2-4,2.4-5l0.1-0.1c0.8-0.7,1.8-1.4,2.3-2.7
		c1.5-3.4,1.8-12.1,0-14.3c-0.9-1.1-3.2-4.8-2.6-7.3c0.3-1,0.9-1.7,1.8-2.1c1-0.5,2.4-0.8,4.1-0.8c3.4,0,7.1,1,9,1.6
		C75.3,38,83.6,44.3,86,46.1c0.1,0.1,0.1,0.1,0.1,0.1l1.5,1l-1-1.6c-0.1-0.1-6.1-10-16.8-13.6c-2.1-0.7-6.2-1.9-10.2-1.9
		c-2.4,0-4.5,0.4-6.1,1.2c-1.9,1-3.3,2.6-3.8,4.7c-1.4,5,3.1,10.5,3.2,10.7c0.5,0.9,0.7,7.6-0.5,10.3c-0.2,0.4-0.6,0.7-1.2,1.2
		c-0.2,0.1-0.4,0.3-0.6,0.4c-1.7,1.3-4.2,3.2-4.2,7.6c0,6,6.1,9.3,11,12C58.3,78.7,59.1,79.1,59.8,79.5z"/>
	<path class="st5" d="M60.7,33.1c-2.6-2.2-0.7-4.2-0.9-6.7c-0.1-1.3-0.2-2.6-0.7-3.3c-2.4-3.8-8.1-5-8.2-5l-2.7-0.5l1.8-2.1
		c0.2-0.3,7.5-7.2,18.8-3.6c7.9,2.5,13.7,11.2,14,11.5l-3.9,1.9c0-0.1-4.7-8.2-11.4-10.4c-5.5-1.8-10.5-0.1-12.7,1
		c2.3,0.9,5.3,2.6,7.1,5.4c0.9,1.3,1,3.1,1.1,4.7c0.2,2.2,0.3,4.2,2,5.6L60.7,33.1z"/>
	<path class="st5" d="M60.6,33.5l-0.2-0.1c-2-1.6-1.6-3.2-1.3-4.8c0.2-0.7,0.3-1.5,0.3-2.2c-0.1-1.3-0.2-2.5-0.6-3.1
		c-2.3-3.6-7.9-4.8-7.9-4.8l-3.4-0.7l2.2-2.6c0,0,4.7-4.8,12.7-4.8c2.2,0,4.4,0.4,6.6,1.1c8.2,2.7,14.1,11.6,14.2,11.7l0.2,0.4
		l-4.7,2.2l-0.2-0.3c-0.5-0.9-4.9-8.2-11.2-10.2c-1.5-0.5-3.2-0.8-4.8-0.8c-3,0-5.4,0.8-6.7,1.4c2.2,1,4.8,2.6,6.5,5.3
		c0.9,1.4,1,3.2,1.2,4.9c0.2,2.1,0.3,4.1,1.8,5.3l0.6,0.5L60.6,33.5L60.6,33.5z"/>
	<path class="st5" d="M71.1,28.9c0,0-1.1-4.6-4-7c-4.2-3.3-9.2-1.6-9.3-1.5l-0.7-2.3c0.3-0.1,6-1.9,11.4,1.8c5.4,3.8,6,7.2,6.1,7.6
		L71.1,28.9L71.1,28.9z"/>
	<path class="st5" d="M70.9,29.4L70.8,29c0,0-1.1-4.5-3.9-6.8c-1.6-1.3-3.5-1.9-5.8-1.9c-1.7,0-3,0.4-3.1,0.5l-0.4,0.1l-1-3l0.4-0.1
		c0.2-0.1,1.7-0.5,3.9-0.5c2.9,0,5.6,0.8,7.9,2.4c5.5,3.9,6.2,7.5,6.2,7.9l0,0.3L70.9,29.4L70.9,29.4z M61.1,19.5
		c2.4,0,4.5,0.7,6.3,2.1c2.5,2,3.7,5.5,4,6.8l2.7-1.1c-0.3-1-1.3-3.8-5.9-7c-2.2-1.5-4.6-2.3-7.4-2.3c-1.5,0-2.7,0.2-3.3,0.4
		l0.5,1.5C58.7,19.7,59.8,19.5,61.1,19.5z M85.7,128.5c-1.2,0-2.4-0.4-3.2-1.1c-0.6-0.5-2.8-2.5-3.8-5c-0.3-0.9-0.3-1.6,0.2-2.2
		c0.4-0.4,1.1-0.8,2.6-0.8h1.1c1.3,0,3.4,0,5.2,0h1.8c1.1,0,2,0.3,2.4,0.7c0.6,0.6,0.4,1.4,0.2,1.8c-0.3,0.7-1.5,3.1-3.6,5.3
		C88,128.1,86.9,128.5,85.7,128.5L85.7,128.5z M86.9,66.7l-4.3-0.3c0,0,1.1,1.9,1.8,4.4c0.8,2.8-0.7,6.9-0.7,6.9
		S89.4,71.3,86.9,66.7z M81.6,139.7c-15.1-1.2-20.5-15.5-20.5-18.5h4h-2h2c0,1.3,4,13.5,16.8,14.5L81.6,139.7L81.6,139.7z"/>
	<path class="st3" d="M77.4,114.1c-0.2-1.4-0.3-2.7,0-3.9c-1.1-0.9-3.2-1.2-4.8-1.7c-1.3-0.8-7.8,0.8-12.5-4.9
		c-5.9-7.1-4.6-11.4-4.6-11.4c-1.5,1.7-3,1-5.3,8.9c-2.3,7.8,1.1,13.3,7.4,18.8c3,2.6,7.2,3.7,10.8,4.1c-1.2-1.2,2.1-1.3,4.3-2.2
		c-0.2-1.8,0.1-3.6,1.5-5c0.8-0.9,1.9-1.4,3-1.8c0.1-0.1,0.1-0.3,0.2-0.4C77.4,114.3,77.4,114.2,77.4,114.1z"/>
	<path class="st4" d="M72.8,121.7c-0.1-0.4-0.2-0.8-0.3-1.2c-0.1-0.4-0.6-1.7,0-0.3c-0.2-0.4-0.3-0.7-0.4-1.1
		c-10.2,0-19.1-7-17.4-21.8c-1.3-1.8-3.2,3.6-3.2,3.6s-5.1,14.9,8.1,20.6c4.4,1.9,8.3,3.3,9.2,2.7c1.9,0.4,3.6-1,4.3-1.8
		C73,122.2,72.9,121.9,72.8,121.7L72.8,121.7z"/>
	<path class="st5" d="M77.2,111.9c0-1.2,0.3-2.4,0.9-3.7c0-0.1,0.1-0.2,0.1-0.2c-3.9,0-8.5-0.4-12.3-2c-4.2-1.7-9.5-7.5-10.5-14.3
		c0,0-8,6.2-5.6,19.4c2.2,12.4,12.6,16.4,24.4,17.1c0-0.1-1.3-2.8-0.9-4.5c-6.7,0.5-14.2-2.1-17.9-8.1c-3.3-5.5-2.4-14.8-1-16.2
		C57.7,110,69.7,112.1,77.2,111.9z"/>
	<path class="st5" d="M78.4,104.4c-2.1,6.2-6.5,11.3-6.5,11.3s6-0.3,6.3-1.3c0.2-0.8,5.4-12.9,7.4-27
		C83.8,90.5,78.6,103.9,78.4,104.4L78.4,104.4z"/>
	<path class="st1" d="M112.3,90c0,0,6.8,10.4,11.8,17.7c0.8,1.1-5,1.2-5,1.2L112.3,90L112.3,90z M109.1,68.5c0,0,2,5.1,3.2,7.8
		c1.2,2.9,5.9,4.4,5.9,4.4s-2.4-2.5-2.4-8.9c0-2.7-3.5-3.7-3.5-3.7L109.1,68.5L109.1,68.5z"/>
	<path class="st1" d="M111.1,71.4c0,0,4.2,5,12,2.2c7.8-2.8,8.6-12.8,8.6-15.6s-14.8,2.8-16.8,4C112.9,63.2,109.1,68,111.1,71.4
		L111.1,71.4z M140.5,18.1c0,0-7.2-1.4-12,2.4c-4.8,3.8-6.2,6.8-6.2,6.8l8.1,6.4c0,0,3.9-1.8,5.1-7
		C136.7,21.5,135.9,19.1,140.5,18.1L140.5,18.1z"/>
	<path class="st1" d="M113.2,57c3.1-4.4,8.2-6.3,12.3-6.6c6.9-0.5,10.2,1.9,10.2,1.9s-11.4,0.5-14.6,4.8c-6.1,8-15,8.7-16.4,6.9
		c1.6,0.1,3.5-0.7,5.4-2.6C111.3,60.3,112.2,58.4,113.2,57z M132.4,72.5c0,0,12.6-4.3,10.2-8.7c-2.4-4.4-0.5-6.8-0.5-6.8
		s7,5.2,5.2,10.8c-1.1,3.4-3,5.9-13.1,10.7c-4.9,9-1,25.3-1.2,25.4c-0.4,0.1-6.8-3.2-6.4-18.4C126.8,80.8,127.1,74.4,132.4,72.5z
		 M115.9,25.9c5.3,2.7,12.5,6.4,12.5,6.4l-2.8,1.4c0.3,0.4,0.4,0.7,0.4,0.7l-2.9,1.3c0,0-7.1,5.2-11.5,8.5
		c1.5-4.5,5.7-11.5,5.7-11.5S118.5,29.5,115.9,25.9z M98.3,135.4c16.2,0,21.7-8.2,21.7-8.2l-2.5,6.2c-1,2.7-11.2,11-19.2,11"/>
	<path class="st1" d="M118.3,121.6c0,0-1.5,9.1-7.5,9.1c-5.1,0-6.6-7.7-6.6-9.3L118.3,121.6z M128.3,107.8c-0.5-1.5-2.4-7.4-3-12.8
		c-0.7-6.5-0.4-15.9-0.4-15.9s1.6,6.2,3,7.2c1.4,1,4,7.8,4,7.8s1.4,10.1,2,13.5C132,107.9,130.5,106.9,128.3,107.8L128.3,107.8z
		 M142.7,67.8c0,0-3.4-1.2-4.4-8.6c-1-7.4,1.2-13.8,1.2-13.8s-0.2,10.2,1,12.2c1.2,2,2.2,2.6,3.6,5.2
		C145.5,65.4,143.5,67,142.7,67.8z"/>
	<path class="st2" d="M138.7,19.9l0.7-0.4C141.4,19.5,138.7,19.9,138.7,19.9z"/>
	<path class="st0" d="M113.1,23.7c0,0,3.2-0.5,4.8-2.9c1.6-2.4,6.1-7.2,13.3-7.2c7.2-0.1,14.3,1.9,14.3,1.9l-6.2,3.9
		c-0.7,0-1.8,0-3.7,0.1c-7.8,0.3-9,8-9,8l-27.5-3.8"/>
	<path class="st3" d="M110.5,66.4c0,0,3.7,3.7,9.4,2.5c5.7-1.2,9.2-3.7,9.4-8.1s-1.2-6.1-1.2-6.1s-6.4,2-9.4,4.7
		C115.7,62,113.4,66.3,110.5,66.4z"/>
	<path class="st4" d="M115,65.1c0,0,3.2,1.5,6.8,0.3c4.7-1.6,5-6.5,5-6.5s2.9,8.5-5.2,10.1c-6.5,1.3-10.4-2.5-10.4-2.5L115,65.1
		L115,65.1z"/>
	<path class="st5" d="M136.1,33.1c2.6-2.2,0.7-4.2,0.9-6.7c0.1-1.3,0.2-2.6,0.7-3.3c2.4-3.8,8.1-5,8.2-5l2.7-0.5l-1.8-2.1
		c-0.2-0.3-7.5-7.2-18.8-3.6c-7.9,2.5-13.7,11.2-14,11.5l4,1.9c0-0.1,4.7-8.2,11.5-10.4c5.5-1.8,10.5-0.1,12.7,1
		c-2.3,0.9-5.3,2.6-7.1,5.4c-0.9,1.3-1,3.1-1.1,4.7c-0.2,2.2-0.4,4.2-2,5.6L136.1,33.1L136.1,33.1z M143.1,64.9
		c0,0-3.3-4.1-4.3-12.1c-0.4-3.2,0.3-9.4,1.4-11.8c-0.2,5.9,1.3,11.8,1.3,11.8S142.5,63.8,143.1,64.9z"/>
	<path class="st5" d="M125.6,28.9c0,0,1.1-4.6,4-7c4.2-3.3,9.2-1.6,9.3-1.5l0.7-2.3c-0.3-0.1-6-1.9-11.4,1.8c-5.4,3.8-6,7.2-6.1,7.6
		L125.6,28.9z M132.7,62c0,0,1.7-2.5,1.4-5.2c-0.2-1.4-0.8-2.7-1.9-3.2c-2.1-0.9-3,1.4-3,1.4S132.2,55.7,132.7,62L132.7,62z"/>
	<path class="st5" d="M113.6,65.8c-0.1,0.1-0.1,0.2-0.1,0.2s5.4,4.1,11-0.1c3-2.2,2.7-7.7,1.8-10c-2.4,0.5-4.4,1.5-6.1,2.6
		c2.1-1.9,4-3.3,4-3.3l2.4-0.7l4.7-1.6c0.1,0.4,1.8,8.4-3.2,13.9c-2.2,2.4-12.5,7.9-17.3-1.4L113.6,65.8L113.6,65.8z"/>
	<path class="st5" d="M114.1,66.4c-3.1,4.6-10.8,2-10.6-2.9c0,0,5.2,2.8,9.7-2.4c2.7-3.1,11.2-11.5,22.7-8.7
		C127.9,54.1,117.4,61.4,114.1,66.4L114.1,66.4z"/>
	<path class="st5" d="M137,79.5c-0.7,0.4-3.3,3.1-3.3,7.1c0,2,0.2,12.1,1.2,18.3c-1.5,1-2.5,1.2-4,2.2c-0.7-7.2-1.3-17.5-1-21.7
		c0.3-4.8,2.8-8,5.2-9.4c0.7-0.4,1.5-0.9,2.3-1.3c4.1-2.2,8.3-4.5,8.3-8.3c0-3-1.2-4-2.4-5l-0.1-0.1c-0.8-0.7-1.8-1.4-2.3-2.7
		c-1.5-3.4-1.8-12.1,0-14.3c0.9-1.1,3.2-4.8,2.6-7.3c-0.3-1-0.9-1.7-1.8-2.1c-1-0.5-2.4-0.8-4.1-0.8c-3.4,0-7.1,1-9,1.6
		c-6.9,2.2-15.1,8.4-17.5,10.3c-0.1,0.1-0.1,0.1-0.1,0.1l-1.5,1l1-1.6c0.1-0.1,6.1-10,16.8-13.6c2.1-0.7,6.2-1.9,10.2-1.9
		c2.4,0,4.4,0.4,6.1,1.2c2,1,3.3,2.6,3.9,4.6c1.4,5-3.1,10.5-3.2,10.7c-0.5,0.9-0.7,7.6,0.5,10.3c0.2,0.4,0.6,0.7,1.2,1.2
		c0.2,0.1,0.4,0.3,0.6,0.4c1.7,1.3,4.2,3.2,4.2,7.6c0,6-6.1,9.3-11,12C138.4,78.7,137.7,79.1,137,79.5L137,79.5z"/>
	<path class="st5" d="M129.7,32.3c-1-1.7-3.5-4.8-9.2-7.6c-6.4-3.1-13.8-4.7-22-4.7l0,0h0l0,0c-8.2,0-15.7,1.6-22.1,4.7
		c-5.7,2.8-8.2,6-9.2,7.6l-0.4,0.6l4.9,1.1l0.2-0.2l0.1-0.2c0.1-0.3,0.7-2.1,6.2-4.8c5.9-2.9,12.7-4.3,20.3-4.3s14.5,1.5,20.3,4.3
		c5.5,2.7,6.1,4.4,6.2,4.8l0.1,0.2l0.2,0.2l4.9-1.1L129.7,32.3L129.7,32.3z"/>
	<path class="st5" d="M136.1,33.1c2.6-2.2,0.7-4.2,0.9-6.7c0.1-1.3,0.2-2.6,0.7-3.3c2.4-3.8,8.1-5,8.2-5l2.7-0.5l-1.8-2.1
		c-0.2-0.3-7.5-7.2-18.8-3.6c-7.9,2.5-13.7,11.2-14,11.5l4,1.9c0-0.1,4.7-8.2,11.5-10.4c5.5-1.8,10.5-0.1,12.7,1
		c-2.3,0.9-5.3,2.6-7.1,5.4c-0.9,1.3-1,3.1-1.1,4.7c-0.2,2.2-0.4,4.2-2,5.6L136.1,33.1L136.1,33.1z"/>
	<path class="st5" d="M131,31.8l0.6-0.5c1.5-1.2,1.6-3.2,1.8-5.3c0.1-1.7,0.3-3.4,1.2-4.9c1.7-2.6,4.3-4.3,6.5-5.2
		c-1.3-0.5-3.7-1.4-6.7-1.4c-1.7,0-3.3,0.3-4.8,0.8c-6.3,2-10.7,9.4-11.2,10.2l-0.2,0.3l-4.7-2.2l0.2-0.4c0.1-0.1,5.9-9,14.2-11.7
		c2.2-0.7,4.4-1.1,6.6-1.1c7.9,0,12.6,4.7,12.7,4.8l2.2,2.6l-3.3,0.7c-0.1,0-5.6,1.2-7.9,4.8c-0.4,0.6-0.5,1.8-0.6,3.1
		c-0.1,0.8,0.1,1.5,0.3,2.2c0.3,1.5,0.7,3.1-1.3,4.8l-0.2,0.1L131,31.8L131,31.8z"/>
	<path class="st5" d="M125.6,28.9c0,0,1.1-4.6,4-7c4.2-3.3,9.2-1.6,9.3-1.5l0.7-2.3c-0.3-0.1-6-1.9-11.4,1.8c-5.4,3.8-6,7.2-6.1,7.6
		L125.6,28.9z"/>
	<path class="st5" d="M121.7,27.8l0-0.3c0.1-0.4,0.7-4,6.2-7.9c2.3-1.6,5-2.4,7.9-2.4c2.2,0,3.7,0.5,3.9,0.5l0.4,0.1l-1,3l-0.4-0.1
		c-0.1,0-1.4-0.5-3.2-0.5c-2.2,0-4.1,0.6-5.8,1.9c-2.8,2.2-3.9,6.7-3.9,6.8l-0.1,0.5L121.7,27.8L121.7,27.8z M138.7,19.9l0.5-1.5
		c-0.6-0.1-1.8-0.4-3.3-0.4c-2.7,0-5.2,0.8-7.4,2.3c-4.5,3.2-5.6,6-5.9,7l2.7,1.1c0.3-1.3,1.5-4.8,4-6.8c1.7-1.4,3.9-2.1,6.3-2.1
		C137,19.5,138.1,19.7,138.7,19.9L138.7,19.9z M108.1,127.3c-2.1-2.2-3.3-4.6-3.6-5.3c-0.2-0.4-0.4-1.2,0.2-1.8
		c0.5-0.5,1.3-0.7,2.4-0.7h1.8c1.8,0,4,0,5.2,0h1.1c1.5,0,2.2,0.4,2.6,0.8c0.5,0.5,0.6,1.2,0.2,2.2c-1,2.4-3.1,4.4-3.8,5
		c-0.8,0.7-2,1.1-3.2,1.1C109.9,128.5,108.8,128.1,108.1,127.3L108.1,127.3z M109.8,66.7l4.3-0.3c0,0-1.1,1.9-1.8,4.4
		c-0.8,2.8,0.7,6.9,0.7,6.9S107.4,71.3,109.8,66.7z"/>
	<path class="st1" d="M98.4,51.5c-2.7,0-6.2-0.1-8.9-2c0,0,3.5,6.1,8.9,6.1v-0.8v0.8c5.4,0,8.9-6.1,8.9-6.1
		C104.6,51.4,101.1,51.5,98.4,51.5z"/>
	<path class="st5" d="M105.9,51.5c-2.7,1.7-5.2,2.2-7.5,2.3c-2.3-0.1-4.7-0.6-7.5-2.3c0,0,4,4.8,7.4,4.9l0,0h0h0l0,0
		C101.9,56.3,105.9,51.5,105.9,51.5z M115.1,139.7l-0.3-3.9c12.8-1,16.8-13.2,16.8-14.5h4C135.6,124.3,130.3,138.6,115.1,139.7z"/>
	<path class="st3" d="M119.4,114.1c0.2-1.4,0.3-2.7,0-3.9c1.1-0.9,3.2-1.2,4.8-1.7c1.3-0.8,7.8,0.8,12.5-4.9
		c5.9-7.1,4.6-11.4,4.6-11.4c1.5,1.7,3,1,5.3,8.9c2.3,7.8-1.1,13.3-7.4,18.8c-3,2.6-7.2,3.7-10.8,4.1c1.2-1.2-2.1-1.3-4.3-2.2
		c0.2-1.8-0.1-3.6-1.5-5c-0.8-0.9-1.9-1.4-3-1.8c-0.1-0.1-0.1-0.3-0.2-0.4C119.3,114.3,119.4,114.2,119.4,114.1L119.4,114.1z"/>
	<path class="st4" d="M124,121.7c0.1-0.4,0.2-0.8,0.3-1.2c0.1-0.4,0.6-1.7,0-0.3c0.2-0.4,0.3-0.7,0.3-1.1c10.2,0,19.1-7,17.4-21.8
		c1.3-1.8,3.2,3.6,3.2,3.6s5.1,14.9-8.1,20.6c-4.4,1.9-8.3,3.3-9.2,2.7c-1.9,0.4-3.6-1-4.3-1.8C123.8,122.2,123.9,121.9,124,121.7
		L124,121.7z"/>
	<path class="st5" d="M119.6,111.9c0-1.2-0.3-2.4-0.9-3.7c0-0.1-0.1-0.2-0.1-0.2c3.9,0,8.5-0.4,12.3-2c4.2-1.7,9.5-7.5,10.5-14.3
		c0,0,8,6.2,5.6,19.4c-2.2,12.4-12.6,16.4-24.4,17.1c0-0.1,1.3-2.8,0.9-4.5c6.7,0.5,14.2-2.1,17.8-8.1c3.3-5.5,2.4-14.8,1-16.2
		C139.1,110,127.1,112.1,119.6,111.9L119.6,111.9z"/>
	<path class="st5" d="M124.4,115.1c-1.4-1.5-4-3.3-10-3.3l-16,0h0c-4.6,0-16,0-16,0c-6,0-8.6,1.8-10,3.3c-2.1,2.2-2.4,5.3-1,9.2
		c3.8,10.3,9.1,20.7,26.9,20.8l0,0h0h0l0,0c17.8,0,23.1-10.5,26.9-20.8C126.8,120.4,126.4,117.3,124.4,115.1L124.4,115.1z
		 M121.6,123.5c-1.8,5.2-6.7,17.7-23.2,17.7c-16.6,0-21.4-12.5-23.2-17.7c-1-2.9-0.9-5,0.2-6.3c0.8-0.9,2.6-2,6.7-2h4.3
		c3.2,0,7.2,0,11.9,0c4.7,0,8.7,0,11.9,0h4.3c4.1,0,6,1.1,6.7,2C122.5,118.5,122.6,120.6,121.6,123.5L121.6,123.5z"/>
	<path class="st5" d="M118.4,104.4c2.1,6.2,6.5,11.3,6.5,11.3s-6-0.3-6.3-1.3c-0.2-0.8-5.4-12.9-7.4-27
		C113,90.5,118.2,103.9,118.4,104.4L118.4,104.4z"/>
</g>
</svg>
