<?xml version="1.0" encoding="utf-8"?>
<!-- Generator: Adobe Illustrator 22.1.0, SVG Export Plug-In . SVG Version: 6.00 Build 0)  -->
<svg version="1.1" id="Calque_1" xmlns="http://www.w3.org/2000/svg" xmlns:xlink="http://www.w3.org/1999/xlink" x="0px" y="0px"
	 viewBox="0 0 1000 644.7" style="enable-background:new 0 0 1000 644.7;" xml:space="preserve">
<style type="text/css">
	.st0{fill-rule:evenodd;clip-rule:evenodd;fill:#1B4568;}
</style>
<path class="st0" d="M963.8,644.7H826.9c-20,0-36.2-16.3-36.2-36.2V294.2c0-20,16.3-36.2,36.2-36.2h136.9c20,0,36.2,16.3,36.2,36.2
	v314.3C1000,628.4,983.7,644.7,963.8,644.7z M923.3,612.8h40.4c2.4,0,4.3-1.9,4.3-4.3V294.2c0-2.4-1.9-4.3-4.3-4.3H826.9
	c-2.4,0-4.3,1.9-4.3,4.3v314.3c0,2.4,1.9,4.3,4.3,4.3h40.5c-3.4-5.2-5.4-11.4-5.4-18.1c0-18.4,15-33.4,33.4-33.4s33.4,15,33.4,33.4
	C928.7,601.3,926.7,607.5,923.3,612.8z M895.3,593.2c-0.8,0-1.4,0.6-1.4,1.4c0,0.8,0.6,1.4,1.4,1.4s1.4-0.6,1.4-1.4
	C896.7,593.9,896.1,593.2,895.3,593.2z M530.5,558.8l8,27.9c3.9,13.6,1.2,28.6-7.4,39.9c-8.5,11.3-22.1,18.1-36.3,18.1h-88.7
	c-14.2,0-27.8-6.8-36.3-18.1c-8.5-11.3-11.3-26.3-7.4-39.9l8-27.9H78.5C35.2,558.8,0,523.6,0,480.3V78.5C0,35.2,35.2,0,78.5,0h743.9
	c43.3,0,78.5,35.2,78.5,78.5v156.9h-74c-0.1,0-0.2,0-0.4,0V78.5c0-2.3-1.9-4.1-4.1-4.1H78.5c-2.3,0-4.1,1.9-4.1,4.1v315.3h693.7
	v74.4H74.4v12.1c0,2.3,1.8,4.1,4.1,4.1h689.6v74.4H530.5z M444.5,570.3h11.9l-3.3-11.5h-5.2L444.5,570.3z"/>
</svg>
