<?xml version="1.0" encoding="utf-8"?>
<!-- Generator: Adobe Illustrator 22.1.0, SVG Export Plug-In . SVG Version: 6.00 Build 0)  -->
<svg version="1.1" id="Calque_1" xmlns="http://www.w3.org/2000/svg" xmlns:xlink="http://www.w3.org/1999/xlink" x="0px" y="0px"
	 viewBox="0 0 1000 817.3" style="enable-background:new 0 0 1000 817.3;" xml:space="preserve">
<style type="text/css">
	.st0{fill-rule:evenodd;clip-rule:evenodd;fill:#1B4568;}
</style>
<path class="st0" d="M764.9,603.1c28,0,48.1-15.2,60.3-45.5c12.2-30.3,18.4-80.1,18.4-149.5c0-68.2-6.1-117.3-18.4-147.3
	c-12.2-30-32.3-45-60.3-45c-28,0-48.1,15-60.3,45c-12.2,30-18.4,79.1-18.4,147.3c0,69.3,6.1,119.2,18.4,149.5
	C716.8,588,736.9,603.1,764.9,603.1z M764.9,724.7c-76.3,0-134.6-27.1-174.8-81.3c-40.2-54.2-60.3-132.6-60.3-235.1
	c0-100.8,20.3-178.3,60.8-232.5c40.5-54.2,98.6-81.3,174.4-81.3c75.8,0,133.9,27.1,174.4,81.3c40.5,54.2,60.8,131.7,60.8,232.5
	c0,102.6-20.1,180.9-60.3,235.1C899.5,697.6,841.2,724.7,764.9,724.7z M489.5,532.3c0,47.2-16.2,87.4-48.5,120.6
	c-32.3,33.2-75.9,55.1-130.7,65.6v98.8H187.9V722c-37.3-2.9-72.1-9.8-104.5-20.5C51.1,690.7,23.3,676.9,0,660l49.8-113.6
	c56.5,36.7,117.7,55.1,183.6,55.1c64.1,0,96.2-20.4,96.2-61.2c0-17.5-8.7-30.4-26.2-38.9c-17.5-8.4-46.3-17.6-86.5-27.5
	c-43.1-11.1-78.7-22.4-106.6-34.1c-28-11.7-52.3-29.7-73-54.2c-20.7-24.5-31-57.4-31-98.8c0-46,16.3-86,49-119.8
	s75.8-56.2,129.4-67.3V0h122.4v96.2c33.8,4.7,65.3,12.4,94.4,23.2c29.1,10.8,52.7,23.7,70.8,38.9l-49.8,113.6
	c-28-18.1-56.5-31.9-85.7-41.5c-29.1-9.6-56.8-14.4-83-14.4c-26.8,0-48.2,5.2-64.2,15.7c-16,10.5-24,25.3-24,44.6
	c0,13.4,5.1,24.6,15.3,33.7c10.2,9,22.9,16,38,21c15.2,5,36.7,10.9,64.7,17.9c42,9.9,76.9,20.4,104.9,31.5
	c28,11.1,51.9,28.8,71.7,53.3C479.6,458,489.5,491,489.5,532.3z"/>
</svg>
