<?xml version="1.0" encoding="UTF-8"?>
<svg width="100px" height="100px" viewBox="0 0 100 100" version="1.1" xmlns="http://www.w3.org/2000/svg" xmlns:xlink="http://www.w3.org/1999/xlink">
    <!-- Generator: Sketch 57.1 (83088) - https://sketch.com -->
    <title>solid/address-card-solid</title>
    <desc>Created with Sketch.</desc>
    <g id="solid/address-card" stroke="none" stroke-width="1" fill="none" fill-rule="evenodd">
        <path d="M92,11.5 L8.04999996,11.5 C3.60639193,11.5055097 0.00550969972,15.1063919 -4.9999997e-08,19.55 L-4.9999997e-08,79.64 C0.0329311273,84.0640695 3.62581117,87.6346335 8.04999996,87.64 L92,87.64 C96.4046752,87.6073311 99.9673312,84.0446752 100,79.64 L100,19.55 C99.9946335,15.1258112 96.4240695,11.5329311 92,11.5 Z M28.68,32.31 C33.2363492,32.31 36.93,36.0036508 36.93,40.56 C36.93,45.1163492 33.2363492,48.81 28.68,48.81 C24.1236508,48.81 20.43,45.1163492 20.43,40.56 C20.43,36.0036508 24.1236508,32.31 28.68,32.31 Z M28.68,66.88 C22.17,66.88 16.89,65.57 16.88,62.74 C16.88,55.74 22.11,49.99 28.62,49.9598819 C35.13,49.93 40.42,55.62 40.4502262,62.66 C40.49,65.5 35.22,66.86 28.71,66.88 L28.68,66.88 Z M82.55,62.5 L54.76,62.5 C53.4455623,62.5 52.38,61.4344377 52.38,60.12 C52.38,58.8055623 53.4455623,57.74 54.76,57.74 L82.55,57.74 C83.8644377,57.74 84.93,58.8055623 84.93,60.12 C84.93,61.4344377 83.8644377,62.5 82.55,62.5 Z M82.55,52.03 L54.76,52.03 C53.5026628,51.9485418 52.5245154,50.9049731 52.5245154,49.645 C52.5245154,48.3850269 53.5026628,47.3414582 54.76,47.26 L82.55,47.26 C83.8073372,47.3414582 84.7854847,48.3850269 84.7854847,49.645 C84.7854847,50.9049731 83.8073372,51.9485418 82.55,52.03 L82.55,52.03 Z M82.55,41.55 L54.76,41.55 C53.4455623,41.55 52.38,40.4844377 52.38,39.17 C52.38,37.8555623 53.4455623,36.79 54.76,36.79 L82.55,36.79 C83.8644377,36.79 84.93,37.8555623 84.93,39.17 C84.93,40.4844377 83.8644377,41.55 82.55,41.55 L82.55,41.55 Z" id="address-card" fill="#000000"></path>
    </g>
</svg>