<svg width="100" height="100" viewBox="0 0 100 100" fill="none" xmlns="http://www.w3.org/2000/svg">
<path fill-rule="evenodd" clip-rule="evenodd" d="M36.1642 49.4706C39.6919 46.4456 40.9632 41.544 39.3504 37.1857C37.7377 32.8274 33.5819 29.9341 28.9348 29.9341C24.2877 29.9341 20.1319 32.8274 18.5192 37.1857C16.9064 41.544 18.1777 46.4456 21.7054 49.4706C20.5202 50.1897 19.4429 51.073 18.5054 52.0942C15.7934 55.0745 14.3097 58.9707 14.3525 63C14.3525 65.6353 16.2583 70.0589 28.776 70.0589H28.9642C32.0525 70.1171 35.1325 69.7207 38.1054 68.8824C42.8113 67.3295 43.529 64.5059 43.529 63C43.5433 58.9677 42.03 55.0795 39.2936 52.1177C38.3807 51.092 37.3271 50.2008 36.1642 49.4706ZM28.9289 35.8589C31.8073 35.8589 34.1407 38.1923 34.1407 41.0706C34.1407 43.949 31.8073 46.2824 28.9289 46.2824C26.0506 46.2824 23.7172 43.949 23.7172 41.0706C23.7236 38.1949 26.0532 35.8653 28.9289 35.8589ZM28.9289 64.0942C23.6583 64.0942 20.9407 63.1883 20.223 62.6236C20.2595 60.1808 21.1837 57.8348 22.823 56.0236C24.3633 54.2901 26.5631 53.2863 28.8819 53.2589C31.1893 53.2776 33.383 54.2635 34.9289 55.9765C36.6163 57.7812 37.5832 60.142 37.6466 62.6118C36.9172 63.1765 34.1878 64.1177 28.9525 64.1412L28.9289 64.0942Z" fill="black"/>
<path d="M54.7058 47.0586H82.1646C83.789 47.0586 85.1058 48.3754 85.1058 49.9998C85.1058 51.6241 83.789 52.9409 82.1646 52.9409H54.7058C53.0815 52.9409 51.7646 51.6241 51.7646 49.9998C51.7646 48.3754 53.0815 47.0586 54.7058 47.0586Z" fill="black"/>
<path d="M82.1646 36.7061H54.7058C53.0815 36.7061 51.7646 38.0229 51.7646 39.6472C51.7646 41.2716 53.0815 42.5884 54.7058 42.5884H82.1646C83.789 42.5884 85.1058 41.2716 85.1058 39.6472C85.1058 38.0229 83.789 36.7061 82.1646 36.7061Z" fill="black"/>
<path d="M54.7058 57.4116H82.1646C83.789 57.4116 85.1058 58.7284 85.1058 60.3528C85.1058 61.9772 83.789 63.294 82.1646 63.294H54.7058C53.0815 63.294 51.7646 61.9772 51.7646 60.3528C51.7646 58.7284 53.0815 57.4116 54.7058 57.4116Z" fill="black"/>
<path fill-rule="evenodd" clip-rule="evenodd" d="M90.0471 11.7646H9.95294C4.45608 11.7646 0 16.2207 0 21.7176V78.2823C0 83.7792 4.45608 88.2352 9.95294 88.2352H90.0471C95.5439 88.2352 100 83.7792 100 78.2823V21.7176C100 16.2207 95.5439 11.7646 90.0471 11.7646ZM94.1176 78.2823C94.1176 80.5304 92.2952 82.3529 90.0471 82.3529H9.95294C7.70482 82.3529 5.88235 80.5304 5.88235 78.2823V21.7176C5.88235 19.4695 7.70482 17.647 9.95294 17.647H90.0471C92.2952 17.647 94.1176 19.4695 94.1176 21.7176V78.2823Z" fill="black"/>
</svg>
