<svg width="100" height="100" viewBox="0 0 100 100" fill="none" xmlns="http://www.w3.org/2000/svg">
<path d="M90.0471 11H9.95294C4.45608 11 0 15.5006 0 21.0525V78.1828C0 83.7346 4.45608 88.2353 9.95294 88.2353H90.0471C95.5439 88.2353 100 83.7346 100 78.1828V21.0525C100 15.5006 95.5439 11 90.0471 11ZM28.9294 32.3882C33.4322 32.3882 37.0824 36.0749 37.0824 40.6227C37.0824 45.1705 33.4322 48.8572 28.9294 48.8572C24.4267 48.8572 20.7765 45.1705 20.7765 40.6227C20.7765 36.0749 24.4267 32.3882 28.9294 32.3882ZM28.9294 66.847C22.5059 66.847 17.2824 65.54 17.2706 62.712C17.2706 55.6895 22.4471 49.986 28.8706 49.9622C35.2941 49.9385 40.5412 55.6063 40.5649 62.6288C40.6 65.4687 35.3882 66.847 28.9529 66.847H28.9294ZM82.1647 63.0447H54.7059C53.0815 63.0447 51.7647 61.7147 51.7647 60.0741C51.7647 58.4335 53.0815 57.1035 54.7059 57.1035H82.1647C83.7891 57.1035 85.1059 58.4335 85.1059 60.0741C85.1059 61.7147 83.7891 63.0447 82.1647 63.0447ZM82.1647 52.5882H54.7059C53.0815 52.5882 51.7647 51.2583 51.7647 49.6176C51.7647 47.977 53.0815 46.6471 54.7059 46.6471H82.1647C83.7891 46.6471 85.1059 47.977 85.1059 49.6176C85.1059 51.2583 83.7891 52.5882 82.1647 52.5882ZM82.1647 42.1318H54.7059C53.0815 42.1318 51.7647 40.8018 51.7647 39.1612C51.7647 37.5206 53.0815 36.1906 54.7059 36.1906H82.1647C83.7891 36.1906 85.1059 37.5206 85.1059 39.1612C85.1059 40.8018 83.7891 42.1318 82.1647 42.1318Z" fill="black"/>
</svg>
