<?xml version="1.0" encoding="UTF-8"?>
<svg width="100px" height="100px" viewBox="0 0 100 100" version="1.1" xmlns="http://www.w3.org/2000/svg" xmlns:xlink="http://www.w3.org/1999/xlink">
    <!-- Generator: Sketch 57.1 (83088) - https://sketch.com -->
    <title>bold/address-card-bold</title>
    <desc>Created with Sketch.</desc>
    <g id="bold/address-card" stroke="none" stroke-width="1" fill="none" fill-rule="evenodd">
        <path d="M90,11 C95.42924,11 99.8479317,15.3266708 99.9961582,20.7200951 L100,21 L100,78.31 C100,83.7392399 95.6733293,88.1579318 90.2799048,88.3061582 L90,88.31 L9.99999995,88.31 C4.57076004,88.31 0.152068232,83.9833292 0.00384174754,78.5899049 L-4.9999997e-08,78.31 L-4.9999997e-08,21 C-4.9999997e-08,15.5707601 4.32667074,11.1520682 9.72009511,11.0038418 L9.99999995,11 L90,11 Z M90,20.0899995 L9.99999996,20.0899995 C9.76216098,20.0899995 9.53458832,20.1868792 9.37023144,20.3587927 C9.23326737,20.502054 9.1501554,20.6868379 9.13258424,20.8819459 L9.12999996,21 L9.12999996,78.31 C9.12999996,78.7535272 9.46189207,79.1195367 9.89086901,79.1732215 L9.99999996,79.18 L90,79.18 C90.4435272,79.18 90.8095368,78.8481079 90.8632215,78.419131 L90.87,78.31 L90.87,20.96 C90.87,20.4795122 90.4804878,20.0899995 90,20.0899995 Z M38.1412625,31.9523894 C42.9191911,36.4333958 43.39567,43.8547835 39.23,48.91 C43.1838123,52.1413319 45.4690817,56.9837515 45.450287,62.09 C45.4697865,65.2456989 43.4736328,70.5641265 30.1291795,70.6781364 L29.69,70.68 L29.51,70.68 C16.0776087,70.68 13.9161436,65.4945912 13.87065,62.3044376 L13.87065,61.8053058 C13.9367351,56.812738 16.1959972,52.0931762 20.06,48.91 C15.89433,43.8547835 16.3708089,36.4333958 21.1487375,31.9523894 C25.9266661,27.471383 33.3633339,27.471383 38.1412625,31.9523894 Z M54.3222731,55.0849805 L54.55,55.09 L81.07,55.09 C83.4973148,55.2038882 85.4067514,57.205015 85.4067514,59.635 C85.4067514,62.0649851 83.4973148,64.0661119 81.07,64.18 L54.55,64.18 C52.8753666,64.2585728 51.2931948,63.4098953 50.43237,61.9713018 C49.5715451,60.5327084 49.5715451,58.7372916 50.43237,57.2986982 C51.2931948,55.8601047 52.8753666,55.0114272 54.55,55.09 L54.3222731,55.0849805 Z M29.62,54.53 L29.3913782,54.5350872 C26.2037479,54.667431 23.5774418,57.3530233 23.05,60.84 C25.0069193,61.3540164 27.0218435,61.6094977 29.0433891,61.6006049 L29.65,61.59 L29.66,61.59 C31.8776014,61.6516175 34.0919845,61.3819818 36.23,60.79 C35.62,57.23 32.91,54.53 29.62,54.53 Z M54.3222731,45.0850013 L54.55,45.09 L81.07,45.09 C83.4973148,45.2038882 85.4067514,47.205015 85.4067514,49.635 C85.4067514,51.9935149 83.6079828,53.9480275 81.2827955,54.1650905 L81.07,54.18 L54.55,54.18 C52.8753666,54.2585728 51.2931948,53.4098953 50.43237,51.9713018 C49.5715451,50.5327084 49.5715451,48.7372916 50.43237,47.2986982 C51.214938,45.9908859 52.5936606,45.1706075 54.0960467,45.0913073 L54.3222731,45.0850013 Z M29.65,37.68 C27.8170529,37.6854551 26.3309676,39.1670776 26.3199698,41 C26.3159526,42.3477619 27.1247099,43.5650664 28.3687198,44.0836395 C29.6127297,44.6022125 31.0466591,44.3197855 32.001107,43.3682038 C32.9555549,42.4166221 33.2422933,40.9835485 32.727464,39.7379846 C32.2126347,38.4924208 30.997768,37.68 29.65,37.68 Z M54.55,35.09 L81.07,35.09 C83.4973148,35.2038881 85.4067514,37.2050149 85.4067514,39.635 C85.4067514,41.9935149 83.6079828,43.9480275 81.2827955,44.1650905 L81.07,44.18 L54.55,44.18 C52.8753666,44.2585728 51.2931948,43.4098953 50.43237,41.9713018 C49.5715451,40.5327084 49.5715451,38.7372916 50.43237,37.2986982 C51.214938,35.9908859 52.5936606,35.1706075 54.0960467,35.0913073 L54.3222731,35.0850013 L54.55,35.09 Z" id="Shape" fill="#000000"></path>
    </g>
</svg>