<?xml version="1.0" encoding="UTF-8"?>
<svg width="100px" height="100px" viewBox="0 0 100 100" version="1.1" xmlns="http://www.w3.org/2000/svg" xmlns:xlink="http://www.w3.org/1999/xlink">
    <!-- Generator: Sketch 57.1 (83088) - https://sketch.com -->
    <title>regular/address-card-regular</title>
    <desc>Created with Sketch.</desc>
    <g id="regular/address-card" stroke="none" stroke-width="1" fill="none" fill-rule="evenodd">
        <path d="M92,11.5 C96.3405965,11.5323098 99.8595914,14.9914981 99.9959068,19.3004804 L100,19.55 L100,79.64 C99.9679475,83.9615681 96.5378584,87.4725915 92.2484039,87.6343989 L92,87.64 L8.04999996,87.64 C3.70928643,87.6347348 0.168807451,84.1975386 0.00564766093,79.8894893 L-4.9999997e-08,79.64 L-4.9999997e-08,19.55 C0.00540574218,15.1902336 3.47178953,11.6416921 7.79939349,11.5041332 L8.04999996,11.5 L92,11.5 Z M92,16.26 L8.04999996,16.26 C6.29783957,16.2653015 4.86726462,17.63564 4.76574544,19.3635449 L4.75999995,19.55 L4.75999995,79.64 C4.76530154,81.3921604 6.13563997,82.8227354 7.86354494,82.9242545 L8.04999996,82.93 L92,82.93 C93.7521604,82.9246985 95.1827354,81.55436 95.2842546,79.826455 L95.29,79.64 L95.29,19.55 C95.2845091,17.7352624 93.8147376,16.2654909 92,16.26 Z M28.68,29.9114885 C33.2847754,29.9114885 37.3659556,32.8763054 38.7893787,37.2555546 C40.2128018,41.6348038 38.6547615,46.4325827 34.93,49.14 C36.3693263,49.8880132 37.6684655,50.8792835 38.77,52.07 C41.436753,54.9584534 42.9121534,58.7487678 42.9001481,62.68 C42.9001481,64.11 42.25,66.66 37.82,68.11 C35.0870415,68.8975229 32.2580336,69.2968076 29.4160379,69.2970361 L28.76,69.29 L28.57,69.29 C25.5712635,69.3637988 22.5783018,68.9896786 19.69,68.18 C15.25,66.78 14.57,64.19 14.57,62.78 C14.514782,58.8559744 15.9434089,55.0558268 18.57,52.14 C19.6762741,50.9273047 20.9817498,49.9126862 22.43,49.14 C18.7052385,46.4325827 17.1471981,41.6348038 18.5706212,37.2555546 C19.9940443,32.8763054 24.0752246,29.9114885 28.68,29.9114885 Z M28.66,52.33 C26.1417685,52.3574389 23.7521908,53.446912 22.08,55.33 C20.2495626,57.356248 19.2529283,59.9996506 19.29,62.73 C19.59,63.23 22.45,64.5 28.7,64.5 C35,64.5 37.79,63.17 38.12,62.56 C38.1012305,59.8610031 37.0780856,57.2657088 35.25,55.28 C33.5562499,53.4270384 31.1702625,52.358956 28.66,52.33 Z M82.55,57.69 C83.8644377,57.69 84.93,58.7555623 84.93,60.07 C84.93,61.3844377 83.8644377,62.45 82.55,62.45 L54.76,62.45 C53.9097079,62.45 53.1240055,61.9963746 52.6988594,61.2600001 C52.2737133,60.5236255 52.2737133,59.6163746 52.6988594,58.88 C53.1240055,58.1436254 53.9097079,57.69 54.76,57.69 L82.55,57.69 Z M82.55,47.21 C83.8073372,47.2914582 84.7854847,48.3350269 84.7854847,49.595 C84.7854847,50.8001916 83.8905444,51.8073876 82.7123598,51.9639801 L82.55,51.98 L54.76,51.98 C53.5026628,51.8985418 52.5245154,50.8549731 52.5245154,49.595 C52.5245154,48.3898084 53.4194556,47.3826124 54.5976403,47.2260199 L54.76,47.21 L82.55,47.21 Z M28.68,34.69 C25.4403714,34.6955049 22.8155049,37.3203715 22.81,40.56 C22.81,43.8019115 25.4380885,46.43 28.68,46.43 C31.9219115,46.43 34.55,43.8019115 34.55,40.56 C34.55,37.3180885 31.9219115,34.69 28.68,34.69 Z M54.76,36.74 L82.55,36.74 C83.8644377,36.74 84.93,37.8055623 84.93,39.12 C84.93,40.3796695 83.9513847,41.4107711 82.7129494,41.4945093 L82.55,41.5 L54.76,41.5 C53.9097079,41.5 53.1240055,41.0463746 52.6988595,40.31 C52.2737134,39.5736254 52.2737134,38.6663745 52.6988595,37.93 C53.0956625,37.242717 53.80655,36.80174 54.5908905,36.7459977 L54.76,36.74 L82.55,36.74 L54.76,36.74 Z" id="Shape" fill="#000000"></path>
    </g>
</svg>