<svg width="100" height="100" viewBox="0 0 100 100" fill="none" xmlns="http://www.w3.org/2000/svg">
<path fill-rule="evenodd" clip-rule="evenodd" d="M58.095 43.361H61.028V31.336H58.095V43.361ZM75.638 33.419L77.581 38.208H73.625L75.638 33.419ZM68.332 31.319C64.255 31.319 62.433 33.401 62.433 37.444C62.433 41.297 64.203 43.344 68.159 43.344H71.49L72.602 40.689H78.553L79.698 43.344H85.546V34.338L90.96 43.344H95.055V31.371H92.122V39.718L87.072 31.371H82.683V42.72L77.842 31.371H73.538L69.46 40.828H68.177C65.868 40.828 65.383 39.423 65.383 37.375C65.383 33.245 68.106 33.904 71.126 33.956V31.319H68.332ZM67.604 35.778C67.552 35.813 67.36 36.16 67.36 37.098C67.36 38.139 67.517 38.434 67.552 38.468C67.586 38.485 67.742 38.555 68.142 38.555L69.408 35.622C69.218 35.622 69.044 35.605 68.87 35.605C67.898 35.605 67.655 35.727 67.604 35.778ZM77.373 54.536V52.055H67.795L67.777 64.08H77.355L77.373 61.599L70.675 61.546V59.151H77.251V56.705H70.692V54.536H77.373ZM84.695 61.494H79.108L79.091 64.063H84.678C87.246 64.063 89.225 63.091 89.225 60.245C89.225 54.484 81.78 58.302 81.78 55.682C81.78 54.71 82.631 54.57 83.377 54.57H88.651V52.037H82.891C80.67 52.037 78.813 53.183 78.813 55.629C78.813 61.355 86.223 57.798 86.223 60.384C86.205 61.32 85.407 61.494 84.695 61.494ZM94.586 54.588H99.81V52.055H94.101C91.879 52.055 89.971 53.2 89.971 55.647C89.971 61.373 97.38 57.867 97.38 60.401C97.38 61.286 96.634 61.512 95.922 61.512H90.369L90.353 64.08H95.905C97.362 64.08 98.959 63.768 99.81 62.535V58.059C97.987 55.664 92.99 57.833 92.99 55.716C92.99 54.71 93.788 54.588 94.586 54.588ZM88.287 65.78V64.999C86.413 65.971 87.61 65.78 61.097 65.78C61.097 61.407 61.114 61.633 61.097 61.407C60.802 61.39 60.541 61.39 59.466 61.39C59.466 64.496 59.448 62.57 59.448 65.78H52.577C52.577 63.681 52.594 63.125 52.594 60.713C50.859 61.755 48.638 61.824 46.643 61.789C46.643 64.34 46.625 63.23 46.625 65.78H38.14C37.255 64.791 37.671 65.242 35.468 62.761C34.913 63.368 33.247 65.173 32.674 65.78H18.445V49.765H32.865C33.732 50.736 33.351 50.302 35.554 52.749C36.11 52.142 37.671 50.424 38.279 49.765H48.343C50.043 49.765 51.466 50.094 52.56 50.736V49.765C61.981 49.765 63.717 49.522 65.695 50.649V49.765H79.265V50.667C81.242 49.469 82.665 49.765 90.525 49.765V50.632C92.313 49.608 93.406 49.73 99.948 49.765V19.329C99.948 14.73 96.217 11 91.619 11H8.329C3.73 11 0 14.73 0 19.329V38.381C1.631 34.581 3.418 30.399 4.008 29.028H10.897C11.643 30.781 11.175 29.671 12.459 32.689V29.028H20.441C20.944 30.105 22.367 33.193 22.853 34.234C23.859 31.874 24.605 30.087 25.039 29.028H42.912C42.912 29.011 44.907 29.028 44.924 29.028C52.508 29.063 54.226 28.89 56.1 29.948V29.028H63.022V30.643C64.342 29.584 66.129 29.028 68.35 29.028H73.139C73.139 29.115 73.469 29.08 73.538 29.08H79.16C79.889 30.781 79.611 30.122 80.688 32.655V29.08H88.2C89.051 30.469 88.027 28.769 90.144 32.273V29.08H97.067V45.045H89.849C88.912 43.482 89.606 44.663 87.559 41.244V45.045H78.396C77.286 42.477 78.379 44.992 77.251 42.39H73.954C73.226 44.125 73.573 43.292 72.844 45.045H68.193C66.06 45.045 64.324 44.523 63.04 43.5V45.045H51.501C51.449 42.633 51.483 40.741 51.483 40.741C51.171 40.689 50.894 40.706 49.783 40.706V45.062H26.271V43.084C25.837 44.056 25.803 44.107 25.386 45.062H20.267C19.573 43.518 19.764 43.951 19.382 43.084V45.062H10.203C9.474 43.31 9.821 44.143 9.092 42.407H5.761C5.032 44.143 5.379 43.31 4.65 45.062H0.035V80.408C0.035 85.006 3.766 88.737 8.364 88.737H91.671C96.27 88.737 100 85.006 100 80.408V64.722C97.796 66.162 94.326 65.78 88.287 65.78ZM5.449 38.208L7.392 33.419L9.388 38.208H5.449ZM31.165 43.361V31.336H26.375L22.957 39.492L19.191 31.336H14.489V42.736L9.613 31.336H5.362L0.208 43.361H3.314L4.425 40.706H10.411L11.522 43.361H17.387V33.956L21.551 43.361H24.084L28.249 33.956V43.361H31.165ZM61.148 57.243H57.557V54.536H61.201C62.086 54.536 63.058 54.71 63.058 55.82C63.058 57.018 62.12 57.243 61.148 57.243ZM66.216 55.3C66.216 52.454 63.769 52.055 61.513 52.055H54.677L54.659 64.08H57.539L57.557 59.689H60.61C62.52 59.689 63.179 60.037 63.179 62.084L63.161 64.08H66.042L66.06 61.686C66.06 60.141 65.747 59.064 64.15 58.492C65.486 57.954 66.198 56.618 66.216 55.3ZM42.929 33.87V31.336H33.299V43.361H42.929V40.88H36.179V38.485H42.738V36.039H36.179V33.87H42.929ZM48.412 57.59H44.733V54.536H48.464C49.436 54.536 50.234 54.936 50.234 55.993C50.234 57.105 49.436 57.59 48.412 57.59ZM41.853 62.969L37.463 58.093L41.853 53.339V62.969ZM30.436 61.546H23.391V59.151H29.689V56.705H23.391V54.536H30.626L33.732 58.041L30.436 61.546ZM48.447 52.055H39.302L35.659 56.011L32.102 52.055H20.562L20.545 64.08H31.893L35.589 60.089L39.129 64.08H44.716L44.734 60.037C48.013 60.037 53.288 60.835 53.288 55.993C53.288 52.992 51.154 52.055 48.447 52.055ZM51.345 36.524H47.753V33.87H51.396C52.282 33.87 53.254 34.043 53.254 35.153C53.254 36.299 52.334 36.524 51.345 36.524ZM56.446 34.563C56.446 31.718 54 31.371 51.691 31.371L44.907 31.319V43.344H47.753V38.988H50.876C54.069 38.988 53.393 40.775 53.444 43.344H56.325V41.001C56.325 39.405 56.064 38.381 54.416 37.809C55.7 37.288 56.464 35.952 56.446 34.563Z" fill="black"/>
</svg>
