<?xml version="1.0" encoding="UTF-8"?>
<svg width="100px" height="100px" viewBox="0 0 100 100" version="1.1" xmlns="http://www.w3.org/2000/svg" xmlns:xlink="http://www.w3.org/1999/xlink">
    <!-- Generator: Sketch 57.1 (83088) - https://sketch.com -->
    <title>brand/american-express-brand</title>
    <desc>Created with Sketch.</desc>
    <g id="brand/american-express" stroke="none" stroke-width="1" fill="none" fill-rule="evenodd">
        <path d="M63.0293,69.5094 L96.3573,69.5094 C98.1773,69.4934 99.7523,68.4294 99.7523,68.4294 L99.7523,99.7514 L0.0003,99.7514 L0.0003,48.9884 L4.6203,48.9884 L5.6063,46.5204 L8.2553,46.5204 L9.2483,48.9884 L46.8283,48.9884 L46.8283,46.5204 L48.8343,48.9884 L58.9403,48.9884 L58.9403,47.2504 C58.9403,47.2504 60.6553,48.9884 63.3383,48.9884 L70.0413,48.9884 L71.0183,46.5204 L73.6753,46.5204 L74.6703,48.9884 L84.5533,48.9884 L84.5533,46.2114 L86.3283,48.9884 L93.1173,48.9884 L93.1173,33.3274 L86.3283,33.3274 L86.3283,36.0964 L84.4763,33.3274 L77.7493,33.3274 L77.7493,38.1884 L75.6643,33.3684 L63.9553,33.3274 C60.8383,33.3274 58.9403,35.1024 58.9403,35.1024 L58.9403,33.3274 L22.8553,33.3274 L21.6303,36.8574 L20.3673,33.3274 L12.3283,33.3274 L12.3283,38.2104 L10.2063,33.3274 L3.7393,33.3274 L0.0003,42.0454 L0.0003,-0.0006 L99.7523,-0.0006 L99.7523,53.8494 L39.5633,53.8494 L37.7253,56.1674 L35.9463,53.8494 L19.3643,53.8494 L19.3643,69.5094 L35.8423,69.5094 L37.6463,67.1414 L39.4223,69.5094 L49.3743,69.5094 L49.3743,65.8834 L51.6113,65.8834 C53.5523,65.8834 54.4513,65.2954 54.4513,65.2954 L54.4513,69.5094 L61.0233,69.5094 L61.0233,67.0404 L63.0293,69.5094 Z M6.9287,37.987 L5.2747,42.091 L8.5777,42.091 L6.9287,37.987 Z M9.6437,44.636 L4.2337,44.636 L3.3027,46.985 L0.0197,46.985 L5.0627,35.258 L8.8867,35.258 L13.9257,46.985 L10.5697,46.985 L9.6437,44.636 Z M28.9302,46.983 L25.9982,46.983 L25.9982,38.342 L22.8912,46.983 L20.3202,46.983 L17.2042,38.342 L17.2042,46.983 L14.2722,46.983 L14.2722,35.256 L18.9382,35.274 L21.6522,42.834 L24.3012,35.256 L28.9302,35.256 L28.9302,46.983 Z M40.5024,37.8795 L33.8984,37.8795 L33.8984,39.8855 L40.3484,39.8855 L40.3484,42.3545 L33.8984,42.3545 L33.8984,44.4375 L40.5024,44.4375 L40.5024,46.9835 L30.9364,46.9835 L30.9364,35.2565 L40.5024,35.2565 L40.5024,37.8795 Z M48.5259,40.3502 C49.1129,40.3502 49.8709,39.8952 49.8709,39.1162 C49.8709,38.5102 49.2859,37.8812 48.4829,37.8812 L45.1309,37.8812 L45.1309,40.3502 L48.5259,40.3502 Z M52.8219,39.0622 C52.8219,41.1722 51.1889,42.5312 49.6059,42.6642 L53.4629,46.9852 L49.8809,46.9852 L46.3659,42.8192 L45.1309,42.8192 L45.1309,46.9852 L42.1999,46.9852 L42.1999,35.2582 L48.7239,35.2582 C50.8849,35.2582 52.8219,36.5952 52.8219,39.0622 Z M54.019,46.9826 L54.019,35.2556 L57.012,35.2556 L57.012,46.9826 L54.019,46.9826 Z M58.4395,41.1676 C58.4395,37.7326 60.3165,35.2566 64.2635,35.2566 L67.5035,35.2566 L67.5035,38.0336 L64.1455,38.0336 C62.5435,38.0336 61.4095,39.2846 61.4095,41.1966 C61.4095,43.4676 62.7055,44.4216 64.5725,44.4216 L65.3435,44.4216 L64.1095,46.9826 L63.4635,46.9826 C60.3365,46.9826 58.4395,44.5206 58.4395,41.1676 Z M72.3545,37.987 L70.7015,42.091 L74.0035,42.091 L72.3545,37.987 Z M68.7285,46.985 L65.4455,46.985 L70.4885,35.258 L74.3125,35.258 L79.3505,46.985 L75.9955,46.985 L75.0695,44.636 L69.6595,44.636 L68.7285,46.985 Z M87.5049,46.983 L82.6249,39.422 L82.6249,46.983 L79.6929,46.983 L79.6929,35.256 L83.4209,35.256 L88.1799,42.624 L88.1799,35.256 L91.1109,35.256 L91.1109,46.983 L87.5049,46.983 Z M30.936,58.401 L24.332,58.401 L24.332,60.406 L30.782,60.406 L30.782,62.875 L24.332,62.875 L24.332,64.958 L30.936,64.958 L30.936,67.504 L21.37,67.504 L21.37,55.778 L30.936,55.778 L30.936,58.401 Z M77.8105,58.401 L71.2065,58.401 L71.2065,60.406 L77.6255,60.406 L77.6255,62.875 L71.2065,62.875 L71.2065,64.958 L77.8105,64.958 L77.8105,67.504 L68.2455,67.504 L68.2455,55.778 L77.8105,55.778 L77.8105,58.401 Z M40.5796,55.778 L44.1286,55.778 L39.4226,61.64 L44.0886,67.504 L40.3956,67.504 L37.6386,63.892 L34.9476,67.504 L31.3076,67.504 L35.9656,61.714 L31.1966,55.778 L34.8906,55.778 L37.7296,59.447 L40.5796,55.778 Z M52.1416,59.7819 C52.1416,58.9489 51.5386,58.4309 50.6956,58.4309 L47.4456,58.4309 L47.4456,61.1319 L50.6856,61.1319 C51.5416,61.1319 52.1416,60.5639 52.1416,59.7819 Z M44.4366,55.7799 L50.9126,55.7799 C53.5696,55.7799 55.1216,57.4919 55.1216,59.7229 C55.1216,62.4179 53.1426,63.8029 50.5316,63.8029 L47.4456,63.8029 L47.4456,67.5059 L44.4366,67.5059 L44.4366,55.7799 Z M62.7207,60.8688 C63.3087,60.8688 64.0667,60.4138 64.0667,59.6348 C64.0667,59.0288 63.4817,58.4008 62.6777,58.4008 L59.3257,58.4008 L59.3257,60.8688 L62.7207,60.8688 Z M67.0167,59.5818 C67.0167,61.6908 65.3837,63.0508 63.8007,63.1828 L67.6577,67.5038 L64.0757,67.5038 L60.5607,63.3378 L59.3257,63.3378 L59.3257,67.5038 L56.3947,67.5038 L56.3947,55.7778 L62.9187,55.7778 C65.0797,55.7778 67.0167,57.1138 67.0167,59.5818 Z M85.0361,64.9577 C85.9041,64.9577 86.2791,64.4887 86.2791,63.9747 C86.2791,63.4807 85.9051,62.9827 85.0361,62.9827 L82.3851,62.9827 C80.0801,62.9827 78.7971,61.5787 78.7971,59.4717 C78.7971,57.5907 79.9721,55.7777 83.3961,55.7777 L89.1051,55.7777 L87.8711,58.4157 L82.9331,58.4157 C81.9891,58.4157 81.6991,58.9107 81.6991,59.3847 C81.6991,59.8707 82.0581,60.4057 82.7791,60.4057 L85.5571,60.4057 C88.1261,60.4057 89.2401,61.8637 89.2401,63.7717 C89.2401,65.8237 87.9981,67.5037 85.4171,67.5037 L79.1691,67.5037 L79.1691,64.9577 L85.0361,64.9577 Z M93.6934,58.4157 C92.7494,58.4157 92.4594,58.9107 92.4594,59.3847 C92.4594,59.8707 92.8184,60.4057 93.5394,60.4057 L96.3164,60.4057 C98.8844,60.4057 100.0004,61.8637 100.0004,63.7717 C100.0004,65.8237 98.7574,67.5037 96.1764,67.5037 L89.9284,67.5037 L89.9284,64.9577 L95.7964,64.9577 C96.6644,64.9577 97.0394,64.4887 97.0394,63.9747 C97.0394,63.4807 96.6654,62.9827 95.7964,62.9827 L93.1444,62.9827 C90.8394,62.9827 89.5564,61.5787 89.5564,59.4717 C89.5564,57.5907 90.7314,55.7777 94.1564,55.7777 L99.8654,55.7777 L98.6304,58.4157 L93.6934,58.4157 Z" id="Shape" fill="#000000"></path>
    </g>
</svg>