<svg width="100" height="100" viewBox="0 0 100 100" fill="none" xmlns="http://www.w3.org/2000/svg">
<path fill-rule="evenodd" clip-rule="evenodd" d="M63.0292 69.5095H96.3572C98.1772 69.4935 99.7522 68.4295 99.7522 68.4295V99.7515H0.000244141V48.9885H4.62024L5.60624 46.5205H8.25524L9.24824 48.9885H46.8282V46.5205L48.8342 48.9885H58.9402V47.2505C58.9402 47.2505 60.6552 48.9885 63.3382 48.9885H70.0412L71.0182 46.5205H73.6752L74.6702 48.9885H84.5532V46.2115L86.3282 48.9885H93.1172V33.3275H86.3282V36.0965L84.4762 33.3275H77.7492V38.1885L75.6642 33.3685L63.9552 33.3275C60.8382 33.3275 58.9402 35.1025 58.9402 35.1025V33.3275H22.8552L21.6302 36.8575L20.3672 33.3275H12.3282V38.2105L10.2062 33.3275H3.73924L0.000244141 42.0455V-0.000488281H99.7522V53.8495H39.5632L37.7252 56.1675L35.9462 53.8495H19.3642V69.5095H35.8422L37.6462 67.1415L39.4222 69.5095H49.3742V65.8835H51.6112C53.5522 65.8835 54.4512 65.2955 54.4512 65.2955V69.5095H61.0232V67.0405L63.0292 69.5095ZM6.92864 37.9871L5.27464 42.0911H8.57764L6.92864 37.9871ZM9.64364 44.6361H4.23364L3.30264 46.9851H0.0196441L5.06264 35.2581H8.88664L13.9256 46.9851H10.5696L9.64364 44.6361ZM28.9301 46.9831H25.9981V38.3421L22.8911 46.9831H20.3201L17.2041 38.3421V46.9831H14.2721V35.2561L18.9381 35.2741L21.6521 42.8341L24.3011 35.2561H28.9301V46.9831ZM40.5023 37.8796H33.8983V39.8856H40.3483V42.3546H33.8983V44.4376H40.5023V46.9836H30.9363V35.2566H40.5023V37.8796ZM48.5258 40.3503C49.1128 40.3503 49.8708 39.8953 49.8708 39.1163C49.8708 38.5103 49.2858 37.8813 48.4828 37.8813H45.1308V40.3503H48.5258ZM52.8218 39.0623C52.8218 41.1723 51.1888 42.5313 49.6058 42.6643L53.4628 46.9853H49.8808L46.3658 42.8193H45.1308V46.9853H42.1998V35.2583H48.7238C50.8848 35.2583 52.8218 36.5953 52.8218 39.0623ZM54.0189 46.9827V35.2557H57.0119V46.9827H54.0189ZM58.4394 41.1677C58.4394 37.7327 60.3164 35.2567 64.2634 35.2567H67.5034V38.0337H64.1454C62.5434 38.0337 61.4094 39.2847 61.4094 41.1967C61.4094 43.4677 62.7054 44.4217 64.5724 44.4217H65.3434L64.1094 46.9827H63.4634C60.3364 46.9827 58.4394 44.5207 58.4394 41.1677ZM72.3544 37.9871L70.7014 42.0911H74.0034L72.3544 37.9871ZM68.7284 46.9851H65.4454L70.4884 35.2581H74.3124L79.3504 46.9851H75.9954L75.0694 44.6361H69.6594L68.7284 46.9851ZM87.5048 46.9831L82.6248 39.4221V46.9831H79.6928V35.2561H83.4208L88.1798 42.6241V35.2561H91.1108V46.9831H87.5048ZM30.9359 58.4011H24.3319V60.4061H30.7819V62.8751H24.3319V64.9581H30.9359V67.5041H21.3699V55.7781H30.9359V58.4011ZM77.8104 58.4011H71.2064V60.4061H77.6254V62.8751H71.2064V64.9581H77.8104V67.5041H68.2454V55.7781H77.8104V58.4011ZM40.5795 55.7781H44.1285L39.4225 61.6401L44.0885 67.5041H40.3955L37.6385 63.8921L34.9475 67.5041H31.3075L35.9655 61.7141L31.1965 55.7781H34.8905L37.7295 59.4471L40.5795 55.7781ZM52.1415 59.782C52.1415 58.949 51.5385 58.431 50.6955 58.431H47.4455V61.132H50.6855C51.5415 61.132 52.1415 60.564 52.1415 59.782ZM44.4365 55.78H50.9125C53.5695 55.78 55.1215 57.492 55.1215 59.723C55.1215 62.418 53.1425 63.803 50.5315 63.803H47.4455V67.506H44.4365V55.78ZM62.7206 60.8689C63.3086 60.8689 64.0666 60.4139 64.0666 59.6349C64.0666 59.0289 63.4816 58.4009 62.6776 58.4009H59.3256V60.8689H62.7206ZM67.0166 59.5819C67.0166 61.6909 65.3836 63.0509 63.8006 63.1829L67.6576 67.5039H64.0756L60.5606 63.3379H59.3256V67.5039H56.3946V55.7779H62.9186C65.0796 55.7779 67.0166 57.1139 67.0166 59.5819ZM85.036 64.9578C85.904 64.9578 86.279 64.4888 86.279 63.9748C86.279 63.4808 85.905 62.9828 85.036 62.9828H82.385C80.08 62.9828 78.797 61.5788 78.797 59.4718C78.797 57.5908 79.972 55.7778 83.396 55.7778H89.105L87.871 58.4158H82.933C81.989 58.4158 81.699 58.9108 81.699 59.3848C81.699 59.8708 82.058 60.4058 82.779 60.4058H85.557C88.126 60.4058 89.24 61.8638 89.24 63.7718C89.24 65.8238 87.998 67.5038 85.417 67.5038H79.169V64.9578H85.036ZM93.6933 58.4158C92.7493 58.4158 92.4593 58.9108 92.4593 59.3848C92.4593 59.8708 92.8183 60.4058 93.5393 60.4058H96.3163C98.8843 60.4058 100 61.8638 100 63.7718C100 65.8238 98.7573 67.5038 96.1763 67.5038H89.9283V64.9578H95.7963C96.6643 64.9578 97.0393 64.4888 97.0393 63.9748C97.0393 63.4808 96.6653 62.9828 95.7963 62.9828H93.1443C90.8393 62.9828 89.5563 61.5788 89.5563 59.4718C89.5563 57.5908 90.7313 55.7778 94.1563 55.7778H99.8653L98.6303 58.4158H93.6933Z" fill="black"/>
</svg>
