<svg width="100" height="100" viewBox="0 0 100 100" fill="none" xmlns="http://www.w3.org/2000/svg">
<path fill-rule="evenodd" clip-rule="evenodd" d="M89.583 42.232H85.851L81.527 56.225H81.458L77.136 42.232H73.264L79.496 59.472L79.167 60.513C78.611 62.285 77.691 62.979 76.059 62.979C75.764 62.979 75.208 62.944 74.982 62.926V65.774C75.191 65.843 76.111 65.861 76.389 65.861C79.982 65.861 81.667 64.489 83.143 60.339L89.583 42.232ZM71.84 47.631C71.84 44.211 69.098 42.006 64.896 42.006C60.989 42.006 58.107 44.246 58.004 47.301H61.319C61.598 45.843 62.951 44.888 64.792 44.888C67.049 44.888 68.299 45.93 68.299 47.875V49.176L63.715 49.455C59.444 49.714 57.136 51.468 57.136 54.506C57.136 57.58 59.514 59.611 62.934 59.611C65.243 59.611 67.379 58.448 68.351 56.589H68.42V59.437H71.823V47.631H71.84ZM56.215 43.517C56.215 38.899 53.004 35.739 48.42 35.739H39.531V59.419H43.212V51.33H48.299C52.951 51.33 56.215 48.135 56.215 43.517ZM32.708 52.788C32.674 52.753 29.306 51.468 29.271 47.58C29.236 44.333 31.927 42.77 32.049 42.683C30.521 40.426 28.16 40.183 27.344 40.131C25.226 40.01 23.42 41.33 22.413 41.33C21.389 41.33 19.861 40.183 18.194 40.218C16.024 40.253 13.993 41.486 12.899 43.448C10.625 47.371 12.309 53.17 14.514 56.364C15.59 57.944 16.893 59.68 18.594 59.611C20.208 59.542 20.851 58.569 22.795 58.569C24.757 58.569 25.312 59.611 27.014 59.593C28.785 59.558 29.878 58.013 30.972 56.433C32.17 54.628 32.674 52.892 32.708 52.788ZM22.187 39.854C23.646 39.975 25.104 39.125 26.024 38.048C26.927 36.937 27.518 35.444 27.361 33.933C26.076 33.986 24.479 34.784 23.559 35.895C22.726 36.85 22.014 38.395 22.187 39.854ZM100 19.333V80.444C100 85.045 96.268 88.777 91.667 88.777H8.333C3.732 88.777 0 85.045 0 80.444V19.333C0 14.732 3.732 11 8.333 11H91.667C96.268 11 100 14.732 100 19.333ZM60.712 54.402C60.712 55.843 61.962 56.781 63.924 56.781C66.424 56.781 68.299 55.201 68.299 52.979V51.642L64.219 51.902C61.91 52.058 60.712 52.909 60.712 54.402ZM52.465 43.534C52.465 46.52 50.643 48.239 47.431 48.239H43.212V38.83H47.448C50.643 38.83 52.465 40.531 52.465 43.535V43.534Z" fill="black"/>
</svg>
