<?xml version="1.0" encoding="UTF-8"?>
<svg width="100px" height="100px" viewBox="0 0 100 100" version="1.1" xmlns="http://www.w3.org/2000/svg" xmlns:xlink="http://www.w3.org/1999/xlink">
    <!-- Generator: Sketch 57.1 (83088) - https://sketch.com -->
    <title>brand/apple-brand</title>
    <desc>Created with Sketch.</desc>
    <g id="brand/apple" stroke="none" stroke-width="1" fill="none" fill-rule="evenodd">
        <path d="M89.4666,77.9305 C87.9536,81.4235 86.1636,84.6405 84.0906,87.5965 C81.2636,91.6275 78.9476,94.4175 77.1646,95.9665 C74.3996,98.5095 71.4366,99.8125 68.2636,99.8865 C65.9866,99.8865 63.2386,99.2385 60.0416,97.9235 C56.8336,96.6155 53.8856,95.9665 51.1906,95.9665 C48.3626,95.9665 45.3306,96.6155 42.0876,97.9235 C38.8396,99.2385 36.2236,99.9235 34.2226,99.9915 C31.1796,100.1205 28.1476,98.7825 25.1206,95.9665 C23.1886,94.2825 20.7716,91.3935 17.8766,87.3005 C14.7706,82.9305 12.2166,77.8625 10.2166,72.0845 C8.0736,65.8445 6.9996,59.8015 6.9996,53.9515 C6.9996,47.2485 8.4476,41.4695 11.3486,36.6255 C13.6286,32.7355 16.6606,29.6655 20.4566,27.4125 C24.2516,25.1595 28.3526,24.0115 32.7696,23.9385 C35.1866,23.9385 38.3556,24.6855 42.2936,26.1555 C46.2206,27.6285 48.7416,28.3765 49.8476,28.3765 C50.6736,28.3765 53.4756,27.5015 58.2236,25.7595 C62.7146,24.1435 66.5046,23.4745 69.6096,23.7385 C78.0226,24.4165 84.3436,27.7345 88.5466,33.7085 C81.0226,38.2685 77.3006,44.6535 77.3746,52.8455 C77.4426,59.2265 79.7566,64.5355 84.3066,68.7515 C86.3676,70.7085 88.6706,72.2205 91.2326,73.2945 C90.6766,74.9065 90.0896,76.4495 89.4666,77.9305 M70.1706,2.0005 C70.1706,7.0015 68.3436,11.6715 64.7016,15.9925 C60.3076,21.1315 54.9906,24.1005 49.2266,23.6315 C49.1536,23.0325 49.1106,22.4005 49.1106,21.7375 C49.1106,16.9365 51.2006,11.7975 54.9116,7.5965 C56.7656,5.4695 59.1216,3.7015 61.9806,2.2895 C64.8316,0.9005 67.5296,0.1315 70.0666,-0.0005 C70.1406,0.6685 70.1706,1.3365 70.1706,2.0005" id="Fill-1" fill="#000000"></path>
    </g>
</svg>