<svg width="100" height="100" viewBox="0 0 100 100" fill="none" xmlns="http://www.w3.org/2000/svg">
<path fill-rule="evenodd" clip-rule="evenodd" d="M18.2905 34.2945C17.1095 35.6795 15.2395 36.7775 13.3675 36.6145C13.1235 34.7415 14.0595 32.7475 15.1175 31.5265C16.2955 30.1005 18.3315 29.0825 19.9985 29.0005C20.2035 30.9555 19.4295 32.8685 18.2905 34.2945ZM19.978 36.981C21.033 37.063 24.077 37.387 26.024 40.268C25.862 40.391 22.413 42.38 22.454 46.562C22.494 51.555 26.835 53.221 26.876 53.261C26.835 53.384 26.187 55.618 24.604 57.93C23.225 59.961 21.804 61.951 19.532 61.992C17.34 62.032 16.609 60.692 14.095 60.692C11.579 60.692 10.767 61.951 8.69704 62.032C6.50604 62.113 4.84304 59.878 3.46304 57.849C0.622041 53.749 -1.52796 46.279 1.39304 41.243C2.81404 38.726 5.41104 37.143 8.21004 37.102C10.361 37.063 12.349 38.524 13.648 38.524C14.947 38.524 17.259 36.819 19.978 36.981ZM40.397 47.4058H45.822C49.938 47.4058 52.28 45.1898 52.28 41.3478C52.28 37.5078 49.938 35.3118 45.843 35.3118H40.397V47.4058ZM47.088 31.3228C52.998 31.3228 57.113 35.3958 57.113 41.3278C57.113 47.2798 52.914 51.3748 46.94 51.3748H40.397V61.7798H35.669V31.3228H47.088ZM72.6387 53.5064V51.7964L67.3837 52.1344C64.4287 52.3234 62.8877 53.4214 62.8877 55.3424C62.8877 57.1994 64.4927 58.4024 67.0037 58.4024C70.2117 58.4024 72.6387 56.3554 72.6387 53.5064ZM58.2857 55.4694C58.2857 51.5644 61.2627 49.3264 66.7497 48.9894L72.6387 48.6304V46.9424C72.6387 44.4724 71.0137 43.1214 68.1217 43.1214C65.7377 43.1214 64.0057 44.3454 63.6477 46.2244H59.3837C59.5107 42.2774 63.2257 39.4064 68.2487 39.4064C73.6527 39.4064 77.1767 42.2354 77.1767 46.6254V61.7794H72.8077V58.1284H72.7017C71.4567 60.5134 68.7127 62.0124 65.7377 62.0124C61.3467 62.0124 58.2857 59.3954 58.2857 55.4694ZM81.1934 69.9273V66.2763C81.4894 66.3183 82.2074 66.3603 82.5874 66.3603C84.6754 66.3603 85.8584 65.4743 86.5764 63.1943L86.9984 61.8433L78.9984 39.6813H83.9374L89.5094 57.6633H89.6154L95.1874 39.6813H100L91.7054 62.9623C89.8054 68.3023 87.6304 70.0543 83.0304 70.0543C82.6714 70.0543 81.5094 70.0123 81.1934 69.9273Z" fill="black"/>
</svg>
