<?xml version="1.0" encoding="UTF-8"?>
<svg width="100px" height="100px" viewBox="0 0 100 100" version="1.1" xmlns="http://www.w3.org/2000/svg" xmlns:xlink="http://www.w3.org/1999/xlink">
    <!-- Generator: Sketch 57.1 (83088) - https://sketch.com -->
    <title>brand/apple-pay-brand</title>
    <desc>Created with Sketch.</desc>
    <g id="brand/apple-pay" stroke="none" stroke-width="1" fill="none" fill-rule="evenodd">
        <path d="M18.2905,34.2944 C17.1095,35.6794 15.2395,36.7774 13.3675,36.6144 C13.1235,34.7414 14.0595,32.7474 15.1175,31.5264 C16.2955,30.1004 18.3315,29.0824 19.9985,29.0004 C20.2035,30.9554 19.4295,32.8684 18.2905,34.2944 Z M19.978,36.9809 C21.033,37.0629 24.077,37.3869 26.024,40.2679 C25.862,40.3909 22.413,42.3799 22.454,46.5619 C22.494,51.5549 26.835,53.2209 26.876,53.2609 C26.835,53.3839 26.187,55.6179 24.604,57.9299 C23.225,59.9609 21.804,61.9509 19.532,61.9919 C17.34,62.0319 16.609,60.6919 14.095,60.6919 C11.579,60.6919 10.767,61.9509 8.697,62.0319 C6.506,62.1129 4.843,59.8779 3.463,57.8489 C0.622,53.7489 -1.528,46.2789 1.393,41.2429 C2.814,38.7259 5.411,37.1429 8.21,37.1019 C10.361,37.0629 12.349,38.5239 13.648,38.5239 C14.947,38.5239 17.259,36.8189 19.978,36.9809 Z M40.397,47.4057 L45.822,47.4057 C49.938,47.4057 52.28,45.1897 52.28,41.3477 C52.28,37.5077 49.938,35.3117 45.843,35.3117 L40.397,35.3117 L40.397,47.4057 Z M47.088,31.3227 C52.998,31.3227 57.113,35.3957 57.113,41.3277 C57.113,47.2797 52.914,51.3747 46.94,51.3747 L40.397,51.3747 L40.397,61.7797 L35.669,61.7797 L35.669,31.3227 L47.088,31.3227 Z M72.6387,53.5063 L72.6387,51.7963 L67.3837,52.1343 C64.4287,52.3233 62.8877,53.4213 62.8877,55.3423 C62.8877,57.1993 64.4927,58.4023 67.0037,58.4023 C70.2117,58.4023 72.6387,56.3553 72.6387,53.5063 Z M58.2857,55.4693 C58.2857,51.5643 61.2627,49.3263 66.7497,48.9893 L72.6387,48.6303 L72.6387,46.9423 C72.6387,44.4723 71.0137,43.1213 68.1217,43.1213 C65.7377,43.1213 64.0057,44.3453 63.6477,46.2243 L59.3837,46.2243 C59.5107,42.2773 63.2257,39.4063 68.2487,39.4063 C73.6527,39.4063 77.1767,42.2353 77.1767,46.6253 L77.1767,61.7793 L72.8077,61.7793 L72.8077,58.1283 L72.7017,58.1283 C71.4567,60.5133 68.7127,62.0123 65.7377,62.0123 C61.3467,62.0123 58.2857,59.3953 58.2857,55.4693 Z M81.1934,69.9272 L81.1934,66.2762 C81.4894,66.3182 82.2074,66.3602 82.5874,66.3602 C84.6754,66.3602 85.8584,65.4742 86.5764,63.1942 L86.9984,61.8432 L78.9984,39.6812 L83.9374,39.6812 L89.5094,57.6632 L89.6154,57.6632 L95.1874,39.6812 L100.0004,39.6812 L91.7054,62.9622 C89.8054,68.3022 87.6304,70.0542 83.0304,70.0542 C82.6714,70.0542 81.5094,70.0122 81.1934,69.9272 Z" id="Shape" fill="#000000"></path>
    </g>
</svg>