<svg width="100" height="100" viewBox="0 0 100 100" fill="none" xmlns="http://www.w3.org/2000/svg">
<g clip-path="url(#clip0)">
<path d="M87.5412 60.7294C86.9894 60.1762 86.2402 59.8653 85.4588 59.8653C84.6775 59.8653 83.9283 60.1762 83.3765 60.7294L52.7882 91.3765V2.94118C52.7882 1.31681 51.4714 0 49.8471 0C48.2227 0 46.9059 1.31681 46.9059 2.94118V91.3765L16.3176 60.7294C15.1676 59.5469 13.2767 59.5205 12.0941 60.6706C10.9116 61.8206 10.8852 63.7116 12.0353 64.8941L45.2941 98.1412C47.7863 100.621 51.8137 100.621 54.3059 98.1412L87.5412 64.8941C88.6804 63.7396 88.6804 61.8839 87.5412 60.7294Z" fill="black"/>
</g>
<defs>
<clipPath id="clip0">
<rect width="100" height="100" fill="white"/>
</clipPath>
</defs>
</svg>
