<svg width="100" height="100" viewBox="0 0 100 100" fill="none" xmlns="http://www.w3.org/2000/svg">
<g clip-path="url(#clip0)">
<path d="M97.0588 46.847H8.62353L39.2706 16.2588C40.025 15.5169 40.3264 14.4289 40.0612 13.4046C39.796 12.3803 39.0044 11.5753 37.9847 11.2928C36.965 11.0104 35.8721 11.2934 35.1176 12.0352L1.87059 45.2941C0.716105 46.4351 0.0460953 47.9774 -1.607e-06 49.5999C-0.004776 49.6626 -0.004776 49.7256 -1.607e-06 49.7882C-0.00636747 49.8586 -0.00636747 49.9295 -1.607e-06 49.9999C0.0368247 51.6233 0.698438 53.1699 1.84706 54.3176L35.1176 87.5411C35.6667 88.0906 36.4115 88.3999 37.1882 88.3999C37.9681 88.3975 38.7158 88.0891 39.2706 87.5411C39.8238 86.9893 40.1347 86.2401 40.1347 85.4588C40.1347 84.6774 39.8238 83.9282 39.2706 83.3764L8.62353 52.7882H97.0588C98.6832 52.7882 100 51.4714 100 49.847C100 48.2226 98.6832 46.9058 97.0588 46.9058V46.847Z" fill="black"/>
</g>
<defs>
<clipPath id="clip0">
<rect width="100" height="100" fill="white"/>
</clipPath>
</defs>
</svg>
