<svg width="100" height="100" viewBox="0 0 100 100" fill="none" xmlns="http://www.w3.org/2000/svg">
<path d="M91.6667 41.4792H27.1979L44.5521 24.125C47.8083 20.8717 47.8106 15.5947 44.5573 12.3386C41.304 9.08238 36.027 9.08005 32.7708 12.3333L3.33333 41.7708C1.39589 43.6807 0.212357 46.2253 0 48.9375C0 49.2292 0 49.5209 0 49.8125C0 50.1042 0 50.3959 0 50.6771C0.226015 53.3766 1.40802 55.9068 3.33333 57.8125L32.7708 87.2917C34.8438 89.5361 37.9787 90.4661 40.9403 89.7153C43.9018 88.9645 46.2151 86.6533 46.9685 83.6925C47.7219 80.7316 46.7946 77.5958 44.5521 75.5209L27.1979 58.1459H91.6667C96.269 58.1459 100 54.4149 100 49.8125C100 45.2101 96.269 41.4792 91.6667 41.4792Z" fill="black"/>
</svg>
