<svg width="100" height="100" viewBox="0 0 100 100" fill="none" xmlns="http://www.w3.org/2000/svg">
<path d="M99.9881 49.0276C99.777 46.3184 98.5932 43.7769 96.6552 41.8722L67.2212 12.4382C63.9654 9.18525 58.689 9.18758 55.4361 12.4434C52.1832 15.6992 52.1855 20.9755 55.4413 24.2284L72.7934 41.5805H8.33234C3.73052 41.5805 0 45.311 0 49.9129C0 54.5147 3.73052 58.2452 8.33234 58.2452H72.7934L55.4413 75.6181C52.4053 78.9052 52.5075 84.0034 55.673 87.1661C58.8385 90.3288 63.9368 90.4266 67.2212 87.3876L96.6552 57.9119C98.5849 56.014 99.7678 53.4855 99.9881 50.7878C100.004 50.4963 100.004 50.2043 99.9881 49.9129C100.004 49.618 100.004 49.3224 99.9881 49.0276Z" fill="black"/>
</svg>
