<svg width="100" height="100" viewBox="0 0 100 100" fill="none" xmlns="http://www.w3.org/2000/svg">
<g clip-path="url(#clip0)">
<path d="M87.5412 35.1177L54.2941 1.87064C53.1001 0.673746 51.4789 0.00109863 49.7883 0.00109863C48.0976 0.00109863 46.4764 0.673746 45.2824 1.87064L12.0353 35.1177C10.9222 36.2733 10.9407 38.1078 12.0769 39.2408C13.213 40.3737 15.0476 40.387 16.2 39.2706L46.8471 8.62358V97.0589C46.8471 98.6832 48.1639 100 49.7883 100C51.4126 100 52.7294 98.6832 52.7294 97.0589V8.62358L83.3765 39.2706C84.1139 40.0362 85.2069 40.3443 86.2356 40.0766C87.2643 39.8089 88.0684 39.007 88.3391 37.9791C88.6097 36.9512 88.3047 35.8573 87.5412 35.1177Z" fill="black"/>
</g>
<defs>
<clipPath id="clip0">
<rect width="100" height="100" fill="white"/>
</clipPath>
</defs>
</svg>
