<svg width="100" height="100" viewBox="0 0 100 100" fill="none" xmlns="http://www.w3.org/2000/svg">
<path d="M75.5208 55.4479L58.1458 72.8021V8.33333C58.1458 3.73096 54.4149 0 49.8125 0C45.2101 0 41.4792 3.73096 41.4792 8.33333V72.8021L24.125 55.4479C20.8717 52.1917 15.5947 52.1894 12.3385 55.4427C9.08236 58.696 9.08003 63.973 12.3333 67.2292L41.7708 96.6667C43.6834 98.6002 46.2265 99.7831 48.9375 100C49.2188 100 49.5208 100 49.8125 100C50.1042 100 50.3958 100 50.6875 100C53.3838 99.7734 55.9106 98.5913 57.8125 96.6667L87.2917 67.2292C90.331 63.9444 90.2332 58.8455 87.0702 55.6796C83.9071 52.5138 78.8083 52.4115 75.5208 55.4479Z" fill="black"/>
</svg>
