<?xml version="1.0" encoding="UTF-8"?>
<svg width="100px" height="100px" viewBox="0 0 100 100" version="1.1" xmlns="http://www.w3.org/2000/svg" xmlns:xlink="http://www.w3.org/1999/xlink">
    <!-- Generator: Sketch 57.1 (83088) - https://sketch.com -->
    <title>bold/arrow-location-bold</title>
    <desc>Created with Sketch.</desc>
    <g id="bold/arrow-location" stroke="none" stroke-width="1" fill="none" fill-rule="evenodd">
        <path d="M57.4257426,99.5049505 C57.1145767,99.5049505 56.8037393,99.4847235 56.4950495,99.4455446 C53.284947,99.068575 50.731677,96.5762908 50.2772277,93.3762377 L44.6336634,55.8613861 L7.11881184,50.2574257 C3.92695747,49.7825722 1.44274522,47.2388085 1.04362303,44.0366028 C0.644500847,40.8343971 2.42830099,37.7586693 5.40594055,36.5148515 L90.029703,1.05940589 C92.7204773,-0.0667340244 95.8250151,0.544878091 97.8875933,2.60745625 C99.9501714,4.6700344 100.561784,7.77457222 99.4356436,10.4653465 L63.980198,95.089109 C62.8902738,97.751798 60.3028503,99.4949867 57.4257426,99.5049505 Z M14.8514851,42.3168317 L47.2772277,47.1584158 C50.4094704,47.6155854 52.8695631,50.0756781 53.3267327,53.2079208 L58.1782178,85.6435644 L89.4257426,11.0693069 L14.8514851,42.3168317 Z" id="arrow-location" fill="#000000"></path>
    </g>
</svg>