<svg width="100" height="100" viewBox="0 0 100 100" fill="none" xmlns="http://www.w3.org/2000/svg">
<path d="M98.1294 45.2942L64.8941 12.0353C64.1502 11.2914 63.0658 11.0008 62.0496 11.2731C61.0333 11.5454 60.2395 12.3392 59.9672 13.3555C59.6949 14.3718 59.9855 15.4561 60.7294 16.2L91.3765 46.8471H2.94118C1.31681 46.8471 0 48.1639 0 49.7883C0 51.4126 1.31681 52.7295 2.94118 52.7295H91.3765L60.7294 83.3765C60.1762 83.9283 59.8653 84.6775 59.8653 85.4589C59.8653 86.2402 60.1762 86.9894 60.7294 87.5412C61.8813 88.6869 63.7422 88.6869 64.8941 87.5412L98.1294 54.2942C99.3263 53.1001 99.999 51.4789 99.999 49.7883C99.999 48.0976 99.3263 46.4764 98.1294 45.2824V45.2942Z" fill="black"/>
</svg>
