<svg width="100" height="100" viewBox="0 0 100 100" fill="none" xmlns="http://www.w3.org/2000/svg">
<g clip-path="url(#clip0)">
<path d="M87.4279 32.7438L57.9369 3.29447C56.0301 1.38287 53.5011 0.218224 50.809 0.0118991C50.5175 -0.00396636 50.2252 -0.00396636 49.9337 0.0118991C49.6419 0.0118991 49.3397 0.0118991 49.0583 0.0118991C46.3532 0.214847 43.81 1.37925 41.8888 3.29447L12.4394 32.7438C9.18482 36.0013 9.18715 41.2804 12.4446 44.535C15.7021 47.7896 20.9812 47.7873 24.2358 44.5298L41.597 27.1686V91.6633C41.597 96.2675 45.3294 100 49.9337 100C54.5379 100 58.2704 96.2675 58.2704 91.6633V27.1686L75.6523 44.5298C77.7281 46.7732 80.8652 47.7009 83.8272 46.9472C86.7893 46.1935 89.1014 43.8793 89.8525 40.9165C90.6036 37.9538 89.6732 34.8176 87.4279 32.7438Z" fill="black"/>
</g>
<defs>
<clipPath id="clip0">
<rect width="100" height="100" fill="white"/>
</clipPath>
</defs>
</svg>
