<svg width="100" height="100" viewBox="0 0 100 100" fill="none" xmlns="http://www.w3.org/2000/svg">
<path d="M88.8728 0.893582C90.3437 -0.160241 92.2839 -0.292316 93.884 0.552444C95.4793 1.37285 96.4693 3.02896 96.4367 4.82255V95.1888C96.4388 96.982 95.441 98.6268 93.8496 99.4535C92.2582 100.28 90.3387 100.151 88.8728 99.1177L25.0095 53.9346C23.7337 53.0329 22.9751 51.5679 22.9751 50.0056C22.9751 48.4434 23.7337 46.9784 25.0095 46.0767L88.8728 0.893582Z" fill="black"/>
<path d="M7.55242 0.0113613H17.0337C19.5479 0.0113613 21.5861 2.04955 21.5861 4.56379V95.4476C21.5861 97.9618 19.5479 100 17.0337 100H7.55242C5.03819 100 3 97.9618 3 95.4476V4.56379C3 2.04955 5.03819 0.0113613 7.55242 0.0113613Z" fill="black"/>
</svg>
