<?xml version="1.0" encoding="UTF-8"?>
<svg width="100px" height="100px" viewBox="0 0 100 100" version="1.1" xmlns="http://www.w3.org/2000/svg" xmlns:xlink="http://www.w3.org/1999/xlink">
    <!-- Generator: Sketch 57.1 (83088) - https://sketch.com -->
    <title>regular/backward-regular</title>
    <desc>Created with Sketch.</desc>
    <g id="regular/backward" stroke="none" stroke-width="1" fill="none" fill-rule="evenodd">
        <path d="M16.6732673,0.989533481 C19.0152429,0.995558126 20.9108911,2.89564171 20.9108911,5.23762372 L20.9108911,95.7524753 C20.9108911,98.0944573 19.0152429,99.9945409 16.6732673,100 L7.71287124,100 C5.3670281,100 3.46534649,98.0983184 3.46534649,95.7524753 L3.46534649,5.23762372 C3.46534649,4.10248013 3.9195644,3.01453501 4.72686903,2.21653112 C5.53417366,1.41852724 6.62730971,0.976868847 7.7623762,0.989533481 L16.6732673,0.989533481 Z M89.2970297,1.76237619 C90.5863052,0.85519256 92.2732339,0.740695141 93.6732674,1.46534649 C95.0801184,2.18711188 95.9635982,3.6366308 95.9604134,5.21782174 L95.9604134,95.7722773 C95.9566424,97.3493419 95.0754111,98.7932162 93.6745426,99.517588 C92.2736741,100.24196 90.5860763,100.126395 89.2970297,99.2178218 L25.2475247,53.970297 C24.1198769,53.1766223 23.448923,51.8839027 23.448923,50.5049505 C23.448923,49.1259983 24.1198769,47.8332787 25.2475247,47.039604 L89.2970297,1.76237619 Z M16.1980198,5.70297025 L8.17821778,5.70297025 L8.17821778,95.2871288 L16.1980198,95.2871288 L16.1980198,5.70297025 Z M91.2475248,6.16831679 L28.5544554,50.4950495 L91.2475248,94.8217822 L91.2475248,6.16831679 Z" id="Shape" fill="#000000"></path>
    </g>
</svg>