<?xml version="1.0" encoding="UTF-8"?>
<svg width="100px" height="100px" viewBox="0 0 100 100" version="1.1" xmlns="http://www.w3.org/2000/svg" xmlns:xlink="http://www.w3.org/1999/xlink">
    <!-- Generator: Sketch 57.1 (83088) - https://sketch.com -->
    <title>regular/battery-charging-regular</title>
    <desc>Created with Sketch.</desc>
    <g id="regular/battery-charging" stroke="none" stroke-width="1" fill="none" fill-rule="evenodd">
        <path d="M54.7840675,0.233461465 C56.6443615,0.845064984 57.7546317,2.74989286 57.37,4.66999995 L50,41.69 L50.1,41.8 L68.53,41.8 C70.192263,41.8043855 71.7374785,42.6563148 72.6284681,44.0596234 C73.5194577,45.462932 73.6331421,47.22377 72.93,48.73 L49.93,97.73 C49.3213871,99.0949742 47.9743938,99.9812567 46.48,100 C46.0622178,99.9962383 45.6474514,99.9287966 45.25,99.8 C43.3757027,99.209356 42.2553299,97.2930427 42.66,95.37 L50,58.31 L49.9,58.2 L31.47,58.2 C29.807737,58.1956145 28.2625215,57.3436852 27.3715319,55.9403766 C26.4805423,54.537068 26.3668579,52.77623 27.07,51.27 L50.07,2.26999995 C50.8997885,0.496245783 52.9237734,-0.378142053 54.7840675,0.233461465 Z M51.24,10.89 L31.38,53.29 L31.38,53.39 C31.405201,53.4025032 31.4347989,53.4025032 31.46,53.39 L49.91,53.39 C51.366122,53.3888751 52.7460275,54.0407086 53.6699966,55.1661302 C54.5939658,56.2915517 54.9646334,57.7719677 54.68,59.2 L48.76,89.11 L68.62,46.71 C68.6402225,46.6797338 68.6402225,46.6402662 68.62,46.61 C68.594799,46.5974968 68.5652011,46.5974968 68.54,46.61 L50.09,46.61 C48.633878,46.6111249 47.2539725,45.9592914 46.3300034,44.8338698 C45.4060342,43.7084483 45.0353666,42.2280323 45.32,40.8 L51.24,10.89 Z M29.23,29.72 L27,34.48 L4.75999995,34.48 L4.75999995,65.48 L41.3,65.48 L40.36,70.24 L3.56999995,70.24 C1.66415161,70.2346838 0.108794407,68.7406341 0.00524983761,66.8593758 L-0.000439654644,66.67 L-0.000439654644,33.33 C-0.0106868221,32.3762656 0.360714013,31.4579122 1.03138069,30.7797311 C1.65045762,30.1537177 2.47700675,29.7804552 3.35068997,29.7267344 L3.56999995,29.72 L29.23,29.72 Z M59.64,29.76 L92.14,29.76 C94.0480548,29.76 95.6064927,31.2568877 95.7050515,33.140401 L95.71,33.33 L95.71,42.24 L96.43,42.24 C98.3380548,42.24 99.8964927,43.7368877 99.9950515,45.620401 L100,45.81 L100,54.19 C100,56.0846667 98.5235132,57.6368869 96.6546825,57.7531409 L96.46,57.76 L95.74,57.76 L95.74,66.67 C95.7346838,68.5758484 94.2406341,70.1312056 92.3593758,70.2345468 L92.17,70.24 L70.77,70.24 L73,65.48 L91,65.48 L91,55.62 C91.0048475,54.2515122 92.0554851,53.1258924 93.4004065,53.0092675 L93.57,53 L95.24,53 L95.24,47 L93.57,47 C92.2018597,46.9687881 91.0966903,45.8966593 91.0059984,44.5497406 L91,44.38 L91,34.52 L58.7,34.52 L59.64,29.76 L92.14,29.76 L59.64,29.76 Z" id="Shape" fill="#000000"></path>
    </g>
</svg>