<svg width="100" height="100" viewBox="0 0 100 100" fill="none" xmlns="http://www.w3.org/2000/svg">
<g clip-path="url(#clip0)">
<path d="M77.5976 37.8915C79.0273 37.8796 80.3196 38.7411 80.8585 40.0654C81.399 41.3743 81.0892 42.8804 80.0759 43.8697L37.4128 86.5871C36.8369 87.1661 36.0556 87.4943 35.2389 87.5002C34.2092 87.4962 33.2477 86.9843 32.6695 86.1323C32.0913 85.2802 31.9709 84.1976 32.3476 83.2393L43.1628 56.3154H22.402C21.226 56.3257 20.1234 55.7448 19.467 54.769C18.8106 53.7931 18.6882 52.5529 19.1411 51.4675L34.5867 14.1306C35.1281 12.8083 36.4188 11.9478 37.8476 11.9566H68.2824C69.5964 11.9749 70.7894 12.7277 71.3716 13.9058C71.9537 15.0839 71.827 16.4888 71.0433 17.5436L55.8259 37.8915H77.5976Z" fill="black"/>
<path d="M37.5109 60.1197H22.3696C19.9271 60.1234 17.645 58.9042 16.2901 56.872C14.9353 54.8397 14.6877 52.2642 15.6304 50.011L25.2283 26.9023H7.6087C3.40653 26.9023 0 30.3089 0 34.511V64.9458C0 69.148 3.40653 72.5545 7.6087 72.5545H32.5326L37.5109 60.1197Z" fill="black"/>
<path d="M96.087 39.2502V34.511C96.087 30.3089 92.6805 26.9023 88.4783 26.9023H68.8262L63.3914 34.098H77.6305C80.5837 34.0995 83.2453 35.8792 84.3753 38.6076C85.5052 41.336 84.881 44.4764 82.7936 46.5654L56.8262 72.5545H88.4783C92.6805 72.5545 96.087 69.148 96.087 64.9458V60.2067C98.5026 58.8644 100 56.318 100 53.5545V45.9458C100.016 43.1668 98.5163 40.6 96.087 39.2502Z" fill="black"/>
</g>
<defs>
<clipPath id="clip0">
<rect width="100" height="100" fill="white"/>
</clipPath>
</defs>
</svg>
