<?xml version="1.0" encoding="UTF-8"?>
<svg width="100px" height="100px" viewBox="0 0 100 100" version="1.1" xmlns="http://www.w3.org/2000/svg" xmlns:xlink="http://www.w3.org/1999/xlink">
    <!-- Generator: Sketch 57.1 (83088) - https://sketch.com -->
    <title>solid/battery-empty-solid</title>
    <desc>Created with Sketch.</desc>
    <g id="solid/battery-empty" stroke="none" stroke-width="1" fill="none" fill-rule="evenodd">
        <path d="M96.43,41.98 L95.71,41.98 L95.71,33.07 C95.71,31.0983434 94.1116566,29.5 92.14,29.5 L3.56999995,29.5 C1.59834339,29.5 -4.9999997e-08,31.0983434 -4.9999997e-08,33.07 L-4.9999997e-08,66.4 C-4.9999997e-08,68.3732808 1.59672691,69.9744881 3.56999995,69.98 L92.14,69.98 C94.1132731,69.9744881 95.7100077,68.3732808 95.71,66.4 L95.71,57.5 L96.43,57.5 C97.3768229,57.5 98.2848664,57.1238761 98.9543713,56.4543712 C99.6238761,55.7848663 100,54.8768229 100,53.93 L100,45.55 C100,43.5783434 98.4016566,41.98 96.43,41.98 Z M91,65.21 L4.75999995,65.21 L4.75999995,34.26 L91,34.26 L91,65.26 L91,65.21 Z" id="battery-empty" fill="#000000"></path>
    </g>
</svg>