<svg width="100" height="100" viewBox="0 0 100 100" fill="none" xmlns="http://www.w3.org/2000/svg">
<path d="M91.6471 70.5883H4.11765C1.84353 70.5883 0 68.7447 0 66.4706V33.5295C0 31.2553 1.84353 29.4118 4.11765 29.4118H91.6471C93.9212 29.4118 95.7647 31.2553 95.7647 33.5295V41.7647H95.8824C96.9744 41.7647 98.0218 42.1986 98.794 42.9708C99.5662 43.743 100 44.7903 100 45.8824V54.1177C100 56.3918 98.1565 58.2353 95.8824 58.2353H95.7647V66.4706C95.7647 68.7447 93.9212 70.5883 91.6471 70.5883ZM5.88235 64.7059H89.8824V55.553C89.8824 53.7987 91.3045 52.3765 93.0588 52.3765H94.1176V47.6706H93.0588C92.2164 47.6706 91.4084 47.336 90.8127 46.7403C90.217 46.1446 89.8824 45.3366 89.8824 44.4942V35.2942H5.88235V64.7059Z" fill="black"/>
</svg>
