<svg width="100" height="100" viewBox="0 0 100 100" fill="none" xmlns="http://www.w3.org/2000/svg">
<g clip-path="url(#clip0)">
<path d="M96.087 39.5217V34.7826C96.087 30.5804 92.6804 27.1739 88.4783 27.1739H7.6087C3.40653 27.1739 0 30.5804 0 34.7826V65.2174C0 69.4195 3.40653 72.8261 7.6087 72.8261H88.4783C92.6804 72.8261 96.087 69.4195 96.087 65.2174V60.4782C98.5026 59.136 100 56.5895 100 53.8261V46.2174C100.016 43.4383 98.5162 40.8715 96.087 39.5217ZM83.0435 55.1304V59.7826H48.0109V40.2174H83.0435V44.8695C83.0435 46.8443 83.9097 48.7196 85.413 50C83.9097 51.2804 83.0435 53.1557 83.0435 55.1304Z" fill="black"/>
</g>
<defs>
<clipPath id="clip0">
<rect width="100" height="100" fill="white"/>
</clipPath>
</defs>
</svg>
