<svg width="100" height="100" viewBox="0 0 100 100" fill="none" xmlns="http://www.w3.org/2000/svg">
<path d="M88.4783 72.8261H7.6087C3.40653 72.8261 0 69.4195 0 65.2174V34.7826C0 30.5804 3.40653 27.1739 7.6087 27.1739H88.4783C92.6804 27.1739 96.087 30.5804 96.087 34.7826V39.5217C98.5026 40.864 100 43.4104 100 46.1739V53.7826C100 56.546 98.5026 59.0925 96.087 60.4348V65.2174C96.087 69.4195 92.6804 72.8261 88.4783 72.8261ZM13.0435 59.7826H83.0435V55.1304C83.0435 53.1557 83.9097 51.2804 85.413 50C83.9097 48.7196 83.0435 46.8443 83.0435 44.8695V40.2174H13.0435V59.7826Z" fill="black"/>
</svg>
