<svg width="100" height="100" viewBox="0 0 100 100" fill="none" xmlns="http://www.w3.org/2000/svg">
<g clip-path="url(#clip0)">
<path fill-rule="evenodd" clip-rule="evenodd" d="M32.1647 89.9998C32.7133 90.3738 33.3596 90.5783 34.0235 90.588C34.9156 90.588 35.7708 90.2322 36.4 89.5998L82.5764 43.3645C83.6531 42.2814 83.974 40.6577 83.3905 39.2464C82.807 37.8351 81.433 36.9122 79.9059 36.9057H56.3529L72.8235 14.8822C73.6763 13.7437 73.8195 12.2236 73.1943 10.946C72.5691 9.66832 71.281 8.84856 69.8588 8.82325H36.9176C35.3712 8.8137 33.9741 9.74507 33.3882 11.1763L16.5647 51.5645C16.0796 52.738 16.2147 54.0764 16.9245 55.1293C17.6343 56.1821 18.8244 56.8094 20.0941 56.7998H42.5647L30.8941 85.941C30.2956 87.4238 30.8275 89.1229 32.1647 89.9998ZM46.2941 50.9527H23.2353L38.2823 14.7057H65.6L48.6235 37.4116C47.8628 38.4314 47.7424 39.7932 48.3124 40.9307C48.8824 42.0682 50.0453 42.7869 51.3176 42.788H74.847L40.9294 76.7292L49.4117 55.5527C49.826 54.5188 49.6998 53.3466 49.0749 52.4246C48.45 51.5025 47.4079 50.951 46.2941 50.9527Z" fill="black"/>
<path d="M95.8824 41.4471H95.7647V33.2118C95.7647 30.9377 93.9212 29.0942 91.6471 29.0942H67.2941L64.5412 32.7648H79.9059C81.9442 32.7628 83.9027 33.5563 85.3647 34.9765H89.8824V44.1177C89.8824 45.872 91.3045 47.2942 93.0588 47.2942H94.1177V52.0001H93.0588C92.2164 52.0001 91.4084 52.3347 90.8127 52.9304C90.217 53.5261 89.8824 54.3341 89.8824 55.1765V64.3295H67.3765L61.4941 70.2118H91.6471C93.9212 70.2118 95.7647 68.3683 95.7647 66.0942V57.8589H95.8824C98.1565 57.8589 100 56.0154 100 53.7412V45.5059C99.9679 43.2548 98.1337 41.4469 95.8824 41.4471Z" fill="black"/>
<path d="M35.0941 64.4117H5.88235V35H19.0353L21.4706 29.1176H4.11765C1.84353 29.1176 0 30.9611 0 33.2353V66.1764C0 68.4506 1.84353 70.2941 4.11765 70.2941H32.7412L35.0941 64.4117Z" fill="black"/>
</g>
<defs>
<clipPath id="clip0">
<rect width="100" height="100" fill="white"/>
</clipPath>
</defs>
</svg>
