<?xml version="1.0" encoding="UTF-8"?>
<svg width="100px" height="100px" viewBox="0 0 100 100" version="1.1" xmlns="http://www.w3.org/2000/svg" xmlns:xlink="http://www.w3.org/1999/xlink">
    <!-- Generator: Sketch 57.1 (83088) - https://sketch.com -->
    <title>brand/behance-brand</title>
    <desc>Created with Sketch.</desc>
    <g id="brand/behance" stroke="none" stroke-width="1" fill="none" fill-rule="evenodd">
        <path d="M27.9966,70.0339 C29.3326,70.0339 30.6006,69.9159 31.7946,69.6489 C33.0056,69.3849 34.0796,68.9649 34.9856,68.3449 C35.8916,67.7479 36.6416,66.9299 37.1866,65.8889 C37.7336,64.8589 37.9966,63.5199 37.9966,61.9029 C37.9966,58.7319 37.1046,56.4819 35.3296,55.1149 C33.5526,53.7659 31.1836,53.0969 28.2676,53.0969 L13.5446,53.0969 L13.5446,70.0339 L27.9966,70.0339 Z M27.2486,43.8509 C29.6476,43.8509 31.6346,43.2819 33.2086,42.1269 C34.7666,40.9899 35.5216,39.1099 35.5216,36.5329 C35.5216,35.1009 35.2706,33.9189 34.7666,33.0009 C34.2446,32.0829 33.5526,31.3639 32.6796,30.8609 C31.8126,30.3379 30.8336,29.9759 29.6986,29.7809 C28.5826,29.5629 27.4126,29.4779 26.2146,29.4779 L13.5446,29.4779 L13.5446,43.8509 L27.2486,43.8509 Z M28.9996,18.9999 C31.9426,18.9999 34.5976,19.2549 37.0246,19.7799 C39.4376,20.2929 41.4976,21.1459 43.2376,22.3179 C44.9516,23.4889 46.2916,25.0469 47.2526,27.0099 C48.1896,28.9429 48.6596,31.3639 48.6596,34.2259 C48.6596,37.3229 47.9566,39.9099 46.5526,41.9769 C45.1356,44.0419 43.0556,45.7349 40.2746,47.0509 C44.0616,48.1379 46.8646,50.0549 48.7236,52.7789 C50.5916,55.5219 51.5066,58.8049 51.5066,62.6519 C51.5066,65.7709 50.9086,68.4579 49.7156,70.7159 C48.5116,73.0019 46.8716,74.8549 44.8506,76.2859 C42.8136,77.7279 40.4736,78.7869 37.8526,79.4749 C35.2616,80.1649 32.5696,80.5109 29.8146,80.5109 L-0.0004,80.5109 L-0.0004,18.9999 L28.9996,18.9999 Z M84.8682,46.4294 C83.4152,44.8214 80.9512,43.9504 77.9472,43.9504 C75.9922,43.9504 74.3752,44.2794 73.0802,44.9504 C71.8132,45.6114 70.7762,46.4344 69.9822,47.4044 C69.1932,48.3894 68.6542,49.4294 68.3422,50.5404 C68.0272,51.6244 67.8412,52.6084 67.7832,53.4774 L87.6872,53.4774 C87.3952,50.3574 86.3272,48.0514 84.8682,46.4294 Z M70.8122,69.8294 C72.6442,71.6194 75.2922,72.5194 78.7222,72.5194 C81.1902,72.5194 83.3232,71.8954 85.1122,70.6534 C86.8842,69.4104 87.9632,68.0824 88.3812,66.7034 L99.1532,66.7034 C97.4222,72.0664 94.7952,75.8934 91.2112,78.1974 C87.6692,80.5104 83.3482,81.6634 78.3142,81.6634 C74.8062,81.6634 71.6492,81.0964 68.8142,79.9774 C65.9812,78.8444 63.6132,77.2564 61.6222,75.1884 C59.6812,73.1094 58.1742,70.6534 57.0992,67.7664 C56.0362,64.8954 55.5002,61.7164 55.5002,58.2724 C55.5002,54.9424 56.0562,51.8304 57.1442,48.9554 C58.2562,46.0714 59.7912,43.5804 61.8092,41.4924 C63.8332,39.3934 66.2322,37.7364 69.0262,36.5264 C71.8202,35.3204 74.9022,34.7134 78.3142,34.7134 C82.0832,34.7134 85.3832,35.4394 88.2122,36.9154 C91.0312,38.3724 93.3422,40.3464 95.1572,42.8184 C96.9722,45.2844 98.2642,48.1064 99.0712,51.2714 C99.8722,54.4304 100.1522,57.7314 99.9222,61.1864 L67.7832,61.1864 C67.7832,64.7074 68.9732,68.0404 70.8122,69.8294 Z M65.281,29.1958 L65.281,23.1268 L90.215,23.1268 L90.215,29.1958 L65.281,29.1958 Z" id="Shape" fill="#000000"></path>
    </g>
</svg>