<?xml version="1.0" encoding="UTF-8"?>
<svg width="100px" height="100px" viewBox="0 0 100 100" version="1.1" xmlns="http://www.w3.org/2000/svg" xmlns:xlink="http://www.w3.org/1999/xlink">
    <!-- Generator: Sketch 57.1 (83088) - https://sketch.com -->
    <title>brand/behance-square-brand</title>
    <desc>Created with Sketch.</desc>
    <g id="brand/behance-square" stroke="none" stroke-width="1" fill="none" fill-rule="evenodd">
        <path d="M38.2461,44.2567 C37.1441,45.0657 35.7531,45.4637 34.0741,45.4637 L24.4811,45.4637 L24.4811,35.4027 L33.3501,35.4027 C34.1891,35.4027 35.0081,35.4617 35.7881,35.6137 C36.5841,35.7507 37.2681,36.0037 37.8751,36.3697 C38.4871,36.7227 38.9711,37.2257 39.3361,37.8677 C39.6891,38.5107 39.8651,39.3387 39.8651,40.3407 C39.8651,42.1447 39.3361,43.4607 38.2461,44.2567 Z M39.731,53.3475 C40.973,54.3055 41.597,55.8795 41.597,58.0995 C41.597,59.2315 41.414,60.1685 41.031,60.8905 C40.649,61.6185 40.124,62.1915 39.49,62.6085 C38.856,63.0425 38.104,63.3365 37.256,63.5225 C36.421,63.7085 35.533,63.7915 34.598,63.7915 L24.481,63.7915 L24.481,51.9345 L34.788,51.9345 C36.828,51.9345 38.487,52.4045 39.731,53.3475 Z M84.9453,57.5985 C85.1063,55.1795 84.9103,52.8695 84.3493,50.6575 C83.7853,48.4425 82.8813,46.4665 81.6103,44.7405 C80.3393,43.0105 78.7213,41.6275 76.7483,40.6085 C74.7683,39.5755 72.4583,39.0675 69.8203,39.0675 C67.4313,39.0675 65.2743,39.4925 63.3183,40.3355 C61.3623,41.1825 59.6823,42.3425 58.2663,43.8125 C56.8533,45.2745 55.7793,47.0175 55.0023,49.0365 C54.2403,51.0495 53.8503,53.2275 53.8503,55.5585 C53.8503,57.9695 54.2253,60.1945 54.9693,62.2035 C55.7213,64.2245 56.7773,65.9445 58.1353,67.3995 C59.5293,68.8475 61.1873,69.9585 63.1703,70.7515 C65.1553,71.5355 67.3643,71.9325 69.8203,71.9325 C73.3433,71.9325 76.3683,71.1245 78.8473,69.5055 C81.3563,67.8925 83.1953,65.2135 84.4073,61.4605 L76.8663,61.4605 C76.5743,62.4255 75.8193,63.3555 74.5783,64.2245 C73.3263,65.0945 71.8343,65.5315 70.1063,65.5315 C67.7053,65.5315 65.8503,64.9015 64.5683,63.6485 C63.2823,62.3965 62.4483,60.0625 62.4483,57.5985 L84.9453,57.5985 Z M49.8013,64.2685 C50.6363,62.6875 51.0543,60.8075 51.0543,58.6235 C51.0543,55.9305 50.4143,53.6325 49.1063,51.7125 C47.8053,49.8055 45.8423,48.4645 43.1923,47.7025 C45.1383,46.7825 46.5943,45.5965 47.5863,44.1525 C48.5703,42.7035 49.0623,40.8935 49.0623,38.7265 C49.0623,36.7225 48.7333,35.0275 48.0763,33.6745 C47.4043,32.3005 46.4663,31.2095 45.2663,30.3895 C44.0483,29.5705 42.6063,28.9725 40.9173,28.6145 C39.2183,28.2455 37.3603,28.0675 35.3003,28.0675 L15.0003,28.0675 L15.0003,71.1245 L35.8703,71.1245 C37.7993,71.1245 39.6833,70.8825 41.4963,70.4005 C43.3313,69.9175 44.9693,69.1775 46.3953,68.1675 C47.8103,67.1655 48.9583,65.8695 49.8013,64.2685 Z M60.6973,35.2045 L78.1503,35.2045 L78.1503,30.9555 L60.6973,30.9555 L60.6973,35.2045 Z M94.4803,-0.0005 C97.5283,-0.0005 100.0003,2.4715 100.0003,5.5205 L100.0003,94.4805 C100.0003,97.5285 97.5283,99.9995 94.4803,99.9995 L5.5203,99.9995 C2.4713,99.9995 0.0003,97.5285 0.0003,94.4805 L0.0003,5.5205 C0.0003,2.4715 2.4713,-0.0005 5.5203,-0.0005 L94.4803,-0.0005 Z M69.5635,45.5331 C71.6665,45.5331 73.3905,46.1421 74.4075,47.2681 C75.4295,48.4041 76.1765,50.0181 76.3805,52.2021 L62.4485,52.2021 C62.4885,51.5931 62.6195,50.9051 62.8395,50.1461 C63.0585,49.3681 63.4355,48.6401 63.9875,47.9501 C64.5425,47.2711 65.2695,46.6951 66.1565,46.2321 C67.0625,45.7621 68.1945,45.5331 69.5635,45.5331 Z" id="Shape" fill="#000000"></path>
    </g>
</svg>