<svg width="100" height="100" viewBox="0 0 100 100" fill="none" xmlns="http://www.w3.org/2000/svg">
<path fill-rule="evenodd" clip-rule="evenodd" d="M27.9966 70.034C29.3326 70.034 30.6006 69.916 31.7946 69.649C33.0056 69.385 34.0796 68.965 34.9856 68.345C35.8916 67.748 36.6416 66.93 37.1866 65.889C37.7336 64.859 37.9966 63.52 37.9966 61.903C37.9966 58.732 37.1046 56.482 35.3296 55.115C33.5526 53.766 31.1836 53.097 28.2676 53.097H13.5446V70.034H27.9966ZM27.2486 43.851C29.6476 43.851 31.6346 43.282 33.2086 42.127C34.7666 40.99 35.5216 39.11 35.5216 36.533C35.5216 35.101 35.2706 33.919 34.7666 33.001C34.2446 32.083 33.5526 31.364 32.6796 30.861C31.8126 30.338 30.8336 29.976 29.6986 29.781C28.5826 29.563 27.4126 29.478 26.2146 29.478H13.5446V43.851H27.2486ZM28.9996 19C31.9426 19 34.5976 19.255 37.0246 19.78C39.4376 20.293 41.4976 21.146 43.2376 22.318C44.9516 23.489 46.2916 25.047 47.2526 27.01C48.1896 28.943 48.6596 31.364 48.6596 34.226C48.6596 37.323 47.9566 39.91 46.5526 41.977C45.1356 44.042 43.0556 45.735 40.2746 47.051C44.0616 48.138 46.8646 50.055 48.7236 52.779C50.5916 55.522 51.5066 58.805 51.5066 62.652C51.5066 65.771 50.9086 68.458 49.7156 70.716C48.5116 73.002 46.8716 74.855 44.8506 76.286C42.8136 77.728 40.4736 78.787 37.8526 79.475C35.2616 80.165 32.5696 80.511 29.8146 80.511H-0.000427246V19H28.9996ZM84.8682 46.4295C83.4152 44.8215 80.9512 43.9505 77.9472 43.9505C75.9922 43.9505 74.3752 44.2795 73.0802 44.9505C71.8132 45.6115 70.7762 46.4345 69.9822 47.4045C69.1932 48.3895 68.6542 49.4295 68.3422 50.5405C68.0272 51.6245 67.8412 52.6085 67.7832 53.4775H87.6872C87.3952 50.3575 86.3272 48.0515 84.8682 46.4295ZM70.8122 69.8295C72.6442 71.6195 75.2922 72.5195 78.7222 72.5195C81.1902 72.5195 83.3232 71.8955 85.1122 70.6535C86.8842 69.4105 87.9632 68.0825 88.3812 66.7035H99.1532C97.4222 72.0665 94.7952 75.8935 91.2112 78.1975C87.6692 80.5105 83.3482 81.6635 78.3142 81.6635C74.8062 81.6635 71.6492 81.0965 68.8142 79.9775C65.9812 78.8445 63.6132 77.2565 61.6222 75.1885C59.6812 73.1095 58.1742 70.6535 57.0992 67.7665C56.0362 64.8955 55.5002 61.7165 55.5002 58.2725C55.5002 54.9425 56.0562 51.8305 57.1442 48.9555C58.2562 46.0715 59.7912 43.5805 61.8092 41.4925C63.8332 39.3935 66.2322 37.7365 69.0262 36.5265C71.8202 35.3205 74.9022 34.7135 78.3142 34.7135C82.0832 34.7135 85.3832 35.4395 88.2122 36.9155C91.0312 38.3725 93.3422 40.3465 95.1572 42.8185C96.9722 45.2845 98.2642 48.1065 99.0712 51.2715C99.8722 54.4305 100.152 57.7315 99.9222 61.1865H67.7832C67.7832 64.7075 68.9732 68.0405 70.8122 69.8295ZM65.281 29.1959V23.1269H90.215V29.1959H65.281Z" fill="black"/>
</svg>
