<svg width="100" height="100" viewBox="0 0 100 100" fill="none" xmlns="http://www.w3.org/2000/svg">
<path fill-rule="evenodd" clip-rule="evenodd" d="M38.2461 44.2567C37.1441 45.0657 35.7531 45.4637 34.0741 45.4637H24.4811V35.4027H33.3501C34.1891 35.4027 35.0081 35.4617 35.7881 35.6137C36.5841 35.7507 37.2681 36.0037 37.8751 36.3697C38.4871 36.7227 38.9711 37.2257 39.3361 37.8677C39.6891 38.5107 39.8651 39.3387 39.8651 40.3407C39.8651 42.1447 39.3361 43.4607 38.2461 44.2567ZM39.731 53.3475C40.973 54.3055 41.597 55.8795 41.597 58.0995C41.597 59.2315 41.414 60.1685 41.031 60.8905C40.649 61.6185 40.124 62.1915 39.49 62.6085C38.856 63.0425 38.104 63.3365 37.256 63.5225C36.421 63.7085 35.533 63.7915 34.598 63.7915H24.481V51.9345H34.788C36.828 51.9345 38.487 52.4045 39.731 53.3475ZM84.9453 57.5985C85.1063 55.1795 84.9103 52.8695 84.3493 50.6575C83.7853 48.4425 82.8813 46.4665 81.6103 44.7405C80.3393 43.0105 78.7213 41.6275 76.7483 40.6085C74.7683 39.5755 72.4583 39.0675 69.8203 39.0675C67.4313 39.0675 65.2743 39.4925 63.3183 40.3355C61.3623 41.1825 59.6823 42.3425 58.2663 43.8125C56.8533 45.2745 55.7793 47.0175 55.0023 49.0365C54.2403 51.0495 53.8503 53.2275 53.8503 55.5585C53.8503 57.9695 54.2253 60.1945 54.9693 62.2035C55.7213 64.2245 56.7773 65.9445 58.1353 67.3995C59.5293 68.8475 61.1873 69.9585 63.1703 70.7515C65.1553 71.5355 67.3643 71.9325 69.8203 71.9325C73.3433 71.9325 76.3683 71.1245 78.8473 69.5055C81.3563 67.8925 83.1953 65.2135 84.4073 61.4605H76.8663C76.5743 62.4255 75.8193 63.3555 74.5783 64.2245C73.3263 65.0945 71.8343 65.5315 70.1063 65.5315C67.7053 65.5315 65.8503 64.9015 64.5683 63.6485C63.2823 62.3965 62.4483 60.0625 62.4483 57.5985H84.9453ZM49.8013 64.2685C50.6363 62.6875 51.0543 60.8075 51.0543 58.6235C51.0543 55.9305 50.4143 53.6325 49.1063 51.7125C47.8053 49.8055 45.8423 48.4645 43.1923 47.7025C45.1383 46.7825 46.5943 45.5965 47.5863 44.1525C48.5703 42.7035 49.0623 40.8935 49.0623 38.7265C49.0623 36.7225 48.7333 35.0275 48.0763 33.6745C47.4043 32.3005 46.4663 31.2095 45.2663 30.3895C44.0483 29.5705 42.6063 28.9725 40.9173 28.6145C39.2183 28.2455 37.3603 28.0675 35.3003 28.0675H15.0003V71.1245H35.8703C37.7993 71.1245 39.6833 70.8825 41.4963 70.4005C43.3313 69.9175 44.9693 69.1775 46.3953 68.1675C47.8103 67.1655 48.9583 65.8695 49.8013 64.2685ZM60.6973 35.2045H78.1503V30.9555H60.6973V35.2045ZM94.4803 -0.000488281C97.5283 -0.000488281 100 2.47151 100 5.52051V94.4805C100 97.5285 97.5283 99.9995 94.4803 99.9995H5.52031C2.47131 99.9995 0.000305176 97.5285 0.000305176 94.4805V5.52051C0.000305176 2.47151 2.47131 -0.000488281 5.52031 -0.000488281H94.4803ZM69.5635 45.5331C71.6665 45.5331 73.3905 46.1421 74.4075 47.2681C75.4295 48.4041 76.1765 50.0181 76.3805 52.2021H62.4485C62.4885 51.5931 62.6195 50.9051 62.8395 50.1461C63.0585 49.3681 63.4355 48.6401 63.9875 47.9501C64.5425 47.2711 65.2695 46.6951 66.1565 46.2321C67.0625 45.7621 68.1945 45.5331 69.5635 45.5331Z" fill="black"/>
</svg>
