<svg width="100" height="100" viewBox="0 0 100 100" fill="none" xmlns="http://www.w3.org/2000/svg">
<path d="M93.5993 76.0206L92.8116 75.2447C89.0023 71.2356 83.2297 65.1807 83.2297 47.0279C83.2657 31.3121 72.7057 17.5458 57.5171 13.5088V7.95948C57.5171 3.56358 53.9536 0 49.5577 0C45.1618 0 41.5982 3.56358 41.5982 7.95948V13.5088C26.4307 17.5673 15.8951 31.3269 15.9327 47.0279C15.9327 65.1454 10.1718 71.2003 6.3625 75.2447L5.57478 76.0794C3.94642 77.7857 3.02621 80.0463 3 82.4047C3 87.5993 7.21102 91.8103 12.4056 91.8103H38.8588C40.1717 96.6445 44.5601 100 49.5694 100C54.5787 100 58.9671 96.6445 60.28 91.8103H86.7332C91.9278 91.8103 96.1388 87.5993 96.1388 82.4047C96.1418 80.0298 95.2328 77.7445 93.5993 76.0206ZM49.5577 94.0559C47.8101 94.044 46.1832 93.1623 45.2193 91.7045H53.896C52.9292 93.1591 51.3042 94.0398 49.5577 94.0559ZM86.7215 85.826H12.4056C10.4576 85.826 8.87844 84.2468 8.87844 82.2989C8.87358 81.4225 9.21106 80.5788 9.81905 79.9475L10.5597 79.1715C14.757 74.8332 21.8112 67.4733 21.8112 47.0279C21.803 33.2242 31.5773 21.3502 45.1253 18.7054L47.4767 18.2116V7.95948C47.4767 6.81018 48.4084 5.87849 49.5577 5.87849C50.707 5.87849 51.6386 6.81018 51.6386 7.95948V18.2116L53.99 18.7054C67.5592 21.3262 77.3596 33.2079 77.3512 47.0279C77.3512 67.4968 84.4053 74.8567 88.5556 79.2656L89.2963 80.0415C89.9042 80.6728 90.2417 81.5165 90.2369 82.3929C90.186 84.2995 88.6287 85.8203 86.7215 85.826Z" fill="black"/>
</svg>
