<?xml version="1.0" encoding="UTF-8"?>
<svg width="100px" height="100px" viewBox="0 0 100 100" version="1.1" xmlns="http://www.w3.org/2000/svg" xmlns:xlink="http://www.w3.org/1999/xlink">
    <!-- Generator: Sketch 57.1 (83088) - https://sketch.com -->
    <title>bold/bell-bold</title>
    <desc>Created with Sketch.</desc>
    <g id="bold/bell" stroke="none" stroke-width="1" fill="none" fill-rule="evenodd">
        <path d="M93.52,74 L92.75,73.18 C89.25,69.52 84,64 84,47.14 C84.0298767,31.6624376 73.9183269,17.9921422 59.11,13.49 L59.11,9.39999996 C58.944497,4.32509945 54.7825985,0.296716431 49.705,0.296716431 C44.6274015,0.296716431 40.465503,4.32509945 40.3,9.39999996 L40.3,13.49 C25.507515,18.006572 15.4147777,31.6733974 15.45,47.14 C15.45,64 10.16,69.52 6.65999996,73.2 L5.88999996,74 C4.01699602,75.9910102 2.98213106,78.626514 2.99977234,81.36 C3.04924552,87.2849846 7.85485051,92.0683001 13.78,92.09 L38.12,92.09 C39.98582,96.8592605 44.583757,99.9977407 49.705,99.9977407 C54.826243,99.9977407 59.42418,96.8592605 61.29,92.09 L85.63,92.09 C91.5551495,92.0683001 96.3607545,87.2849846 96.4102277,81.36 C96.4278689,78.626514 95.393004,75.9910102 93.52,74 Z M85.63,83.0000306 L13.78,83.0000306 C13.3292182,83.0027153 12.896257,82.824156 12.5784421,82.5044605 C12.2606271,82.184765 12.0846252,81.7507579 12.0898804,81.3 C12.0931849,80.8901377 12.2585805,80.4982221 12.55,80.21 C12.77,79.97 13,79.72 13.25,79.47 C17.47,75 24.54,67.6 24.54,47.14 C24.5524694,34.5979462 33.4549143,23.8252751 45.77,21.45 L49.39,20.7 L49.39,9.39999996 C49.4172923,9.24742667 49.5500049,9.1363471 49.705,9.1363471 C49.8599951,9.1363471 49.9927077,9.24742667 50.02,9.39999996 L50.02,20.7 L53.64,21.45 C65.9550857,23.8252751 74.8575306,34.5979462 74.87,47.14 C74.87,67.6 81.94,75.03 86.16,79.47 C86.41,79.72 86.64,79.97 86.86,80.21 C87.1514195,80.4982221 87.3168151,80.8901377 87.3201196,81.3 C87.3253748,81.7507579 87.1493729,82.184765 86.8315579,82.5044605 C86.513743,82.824156 86.0807818,83.0027153 85.63,83.0000306 L85.63,83.0000306 Z" id="bell" fill="#000000"></path>
    </g>
</svg>