<svg width="100" height="100" viewBox="0 0 100 100" fill="none" xmlns="http://www.w3.org/2000/svg">
<g clip-path="url(#clip0)">
<path d="M0.497142 95.9667C1.50729 98.4062 3.88672 99.9977 6.52717 100C8.25918 99.9985 9.91969 99.3092 11.1436 98.0838L98.2467 10.9856C100.645 8.41179 100.574 4.40092 98.0866 1.91329C95.5988 -0.574339 91.5878 -0.645106 89.0138 1.75322L1.91071 88.8514C0.0447869 90.7196 -0.513003 93.5272 0.497142 95.9667Z" fill="black"/>
<path d="M65.2022 19.4342C62.7645 18.0265 60.1602 16.9292 57.4501 16.168V11.0183C57.4501 6.9476 54.1499 3.64763 50.079 3.64763C46.008 3.64763 42.7079 6.9476 42.7079 11.0183V16.168C28.6518 19.9025 18.8717 32.632 18.8852 47.175C18.8852 63.8956 13.5861 69.5212 10.0583 73.2664L9.29298 74.0774C8.46474 74.9574 7.82718 75.9989 7.42026 77.1367L65.2022 19.4342Z" fill="black"/>
<path d="M90.1354 73.2717L90.1233 73.2591C86.5955 69.5464 81.2618 63.9331 81.2618 47.1423C81.2624 43.3652 80.5991 39.6173 79.3019 36.0699L26.7788 88.6119H40.16C41.3759 93.0885 45.4399 96.1958 50.0789 96.1958C54.7179 96.1958 58.7819 93.0885 59.9977 88.6119H84.4955C89.306 88.6119 93.2058 84.7124 93.2058 79.9021C93.2144 77.7059 92.3805 75.59 90.8758 73.9903L90.1354 73.2717Z" fill="black"/>
</g>
<defs>
<clipPath id="clip0">
<rect width="100" height="100" fill="white"/>
</clipPath>
</defs>
</svg>
