<svg width="100" height="100" viewBox="0 0 100 100" fill="none" xmlns="http://www.w3.org/2000/svg">
<g clip-path="url(#clip0)">
<path d="M0.85443 99.0838C1.40635 99.6358 2.15595 99.9448 2.9368 99.9421C3.71764 99.9448 4.46724 99.6358 5.01916 99.0838L99.1374 5.0205C99.8814 4.27698 100.172 3.19327 99.8996 2.1776C99.6273 1.16193 98.8335 0.368596 97.8172 0.0964476C96.801 -0.175701 95.7166 0.114678 94.9727 0.858201L0.85443 94.9215C-0.28481 96.0753 -0.28481 97.9299 0.85443 99.0838Z" fill="black"/>
<path d="M45.5607 18.7069L47.9136 18.213V7.96015C47.9136 6.81076 48.8459 5.879 49.996 5.879C51.146 5.879 52.0783 6.81076 52.0783 7.96015V18.213L54.4313 18.7069C58.6565 19.5703 62.6453 21.3349 66.1255 23.8804L70.3255 19.6828C66.6468 16.8449 62.4514 14.7484 57.9725 13.5099V7.96015C57.9725 3.5639 54.4066 4.3666e-05 50.0077 4.3666e-05C45.6089 4.3666e-05 42.043 3.5639 42.043 7.96015V13.5099C26.8375 17.5419 16.2607 31.3092 16.2899 47.0317C16.2899 65.0894 10.564 71.1649 6.75203 75.2096L6.71336 75.2507L5.87806 76.0267C3.4167 78.6662 2.72248 82.4983 4.10158 85.8328L13.5134 76.4265C17.4781 71.7233 22.1723 63.7632 22.1723 47.0317C22.1696 33.2086 31.9803 21.3272 45.5607 18.7069Z" fill="black"/>
<path fill-rule="evenodd" clip-rule="evenodd" d="M94.1139 76.0266L93.2786 75.2506L93.2656 75.2369C89.4537 71.2273 83.6903 65.1651 83.6903 47.0316C83.7095 41.243 82.2734 35.5424 79.5138 30.453L75.1256 34.8269C76.9028 38.6499 77.8185 42.8162 77.8079 47.0316C77.8079 67.3705 84.7763 74.7674 88.9393 79.1863L89.0198 79.2718L89.7609 80.0478C90.3693 80.6791 90.707 81.5229 90.7021 82.3994C90.7021 84.3475 89.1219 85.9268 87.1727 85.9268H24.0429L18.1605 91.8057H39.3371C40.6509 96.6403 45.0422 99.9961 50.0548 99.9961C55.0674 99.9961 59.4588 96.6403 60.7725 91.8057H87.2433C92.4413 91.8057 96.6551 87.5944 96.6551 82.3994C96.6551 80.0284 95.7456 77.7477 94.1139 76.0266ZM49.996 94.0632C48.2472 94.0514 46.6193 93.1696 45.6548 91.7117H54.3372C53.3726 93.1696 51.7447 94.0514 49.996 94.0632Z" fill="black"/>
</g>
<defs>
<clipPath id="clip0">
<rect width="100" height="100" fill="white"/>
</clipPath>
</defs>
</svg>
