<?xml version="1.0" encoding="UTF-8"?>
<svg width="100px" height="100px" viewBox="0 0 100 100" version="1.1" xmlns="http://www.w3.org/2000/svg" xmlns:xlink="http://www.w3.org/1999/xlink">
    <!-- Generator: Sketch 57.1 (83088) - https://sketch.com -->
    <title>solid/bell-slash-solid</title>
    <desc>Created with Sketch.</desc>
    <g id="solid/bell-slash" stroke="none" stroke-width="1" fill="none" fill-rule="evenodd">
        <path d="M95.7418633,1.00282863 C97.3413469,1.40970521 98.5902948,2.65865313 98.9971714,4.25813665 C99.4040479,5.85762017 98.9037096,7.55155149 97.6930694,8.67326729 L7.68316827,98.6831684 C6.84152954,99.5280383 5.69749258,100.002047 4.50495045,100.000013 C2.68557385,99.9981396 1.04590701,98.9020803 0.348607404,97.2216315 C-0.348692199,95.5411828 0.0332698147,93.6062517 1.31683163,92.3168317 L91.3267327,2.30693065 C92.4484485,1.09629042 94.1423798,0.595952053 95.7418633,1.00282863 Z M25.990099,89.9207921 L79.2772278,36.6336634 C80.541835,40.1734853 81.1882202,43.9044341 81.1881188,47.6633663 C81.1881188,65.0290642 86.6625227,70.9905615 90.3746363,74.8932579 L90.4950495,75.019802 L91.2277228,75.8118812 C92.6918775,77.3558103 93.500969,79.406928 93.4855975,81.5346535 C93.4479216,86.0800604 89.8285576,89.7658961 85.3157822,89.9160849 L85.059406,89.9207921 L59.3168317,89.9207921 C58.2803642,94.5062812 54.2061179,97.7623984 49.5049505,97.7623984 C44.8978064,97.7623984 40.8927574,94.6352234 39.7588834,90.1943108 L39.6930693,89.9207921 L25.990099,89.9207921 L79.2772278,36.6336634 L25.990099,89.9207921 Z M49.5049505,3.23762372 C53.3241853,3.23762372 56.4350448,6.27053955 56.5604279,10.0592704 L56.5643564,10.2970297 L56.5643564,16.0396039 C59.1969065,16.7331369 61.7361055,17.7393127 64.1279203,19.0360985 L64.7227723,19.3663366 L6.48514847,77.5841584 C6.772564,77.0487134 7.11624442,76.5458458 7.51015183,76.0839991 L7.75247521,75.8118812 L8.49504946,75.019802 C12.2079208,71.1188119 17.8217821,65.2178218 17.8217821,47.6633663 C17.799023,32.8694271 27.7503031,19.9409829 42.0120566,16.151628 L42.4455445,16.0396039 L42.4455445,10.2970297 C42.4455445,6.39822742 45.6061482,3.23762372 49.5049505,3.23762372 Z" id="Shape" fill="#000000"></path>
    </g>
</svg>