<svg width="100" height="100" viewBox="0 0 100 100" fill="none" xmlns="http://www.w3.org/2000/svg">
<path d="M93.5993 76.0206L92.8116 75.2447C89.0023 71.2356 83.2297 65.1807 83.2297 47.0279C83.2657 31.3121 72.7057 17.5458 57.5171 13.5088V7.95948C57.5171 3.56358 53.9536 0 49.5577 0C45.1618 0 41.5982 3.56358 41.5982 7.95948V13.5088C26.4307 17.5673 15.8951 31.3269 15.9327 47.0279C15.9327 65.1454 10.1718 71.2003 6.3625 75.2447L5.57478 76.0794C3.94642 77.7857 3.02621 80.0463 3 82.4047C3 87.5993 7.21102 91.8103 12.4056 91.8103H38.8588C40.1717 96.6445 44.5601 100 49.5694 100C54.5787 100 58.9671 96.6445 60.28 91.8103H86.7332C91.9278 91.8103 96.1388 87.5993 96.1388 82.4047C96.1418 80.0298 95.2328 77.7445 93.5993 76.0206Z" fill="black"/>
</svg>
