<?xml version="1.0" encoding="UTF-8"?>
<svg width="100px" height="100px" viewBox="0 0 100 100" version="1.1" xmlns="http://www.w3.org/2000/svg" xmlns:xlink="http://www.w3.org/1999/xlink">
    <!-- Generator: Sketch 57.1 (83088) - https://sketch.com -->
    <title>regular/bell-slash-regular</title>
    <desc>Created with Sketch.</desc>
    <g id="regular/bell-slash" stroke="none" stroke-width="1" fill="none" fill-rule="evenodd">
        <path d="M75.8333334,36.8431372 L79.4215687,33.2549019 C81.3620251,37.5981 82.3642459,42.3018562 82.3627451,47.0588235 C82.3627451,65.0827658 88.0547206,71.2620238 91.9070973,75.3601012 L92.0294118,75.4901961 L92.8039216,76.3039216 C94.3102347,77.9154466 95.1478202,80.0391988 95.1470599,82.2450981 C95.0844424,86.9545978 91.3388985,90.7678394 86.6626902,90.9449019 L86.4019608,90.9509804 L59.6960784,90.9509804 C58.6066241,95.6990453 54.3812545,99.0646969 49.5098039,99.0646969 C44.733872,99.0646969 40.5789329,95.8297377 39.3912132,91.2286689 L39.3235294,90.9509804 L21.8137255,90.9509804 L26.4803921,86.2745098 L86.4019608,86.2745098 C87.4929154,86.2825919 88.5409687,85.8500838 89.3087114,85.074959 C90.0764541,84.2998341 90.4989134,83.2476901 90.4803922,82.1568628 C90.4813543,81.2185835 90.1459873,80.3137957 89.5395672,79.6045236 L89.382353,79.4313726 L88.6470589,78.6470589 C84.5490196,74.3431373 77.6862745,67.127451 77.6862745,47.0588235 C77.6836551,43.7754868 77.1276052,40.5175694 76.0429039,37.4216837 L75.8333334,36.8431372 L79.4215687,33.2549019 L75.8333334,36.8431372 Z M96.8527119,0.951430916 C97.6938444,1.15921482 98.3505891,1.81595952 98.558373,2.65709206 C98.7661569,3.49822461 98.4907638,4.38523411 97.8431373,4.96078427 L4.47058819,98.3333334 C4.03666828,98.7749744 3.44266183,99.022477 2.82352936,99.0196568 C2.2043969,99.022477 1.61039045,98.7749744 1.17647054,98.3333334 C0.738225716,97.89726 0.491838976,97.3045128 0.491838976,96.6862746 C0.491838976,96.0680363 0.738225716,95.4752891 1.17647054,95.0392157 L94.5490197,1.66666662 C95.1245698,1.01904009 96.0115793,0.743647016 96.8527119,0.951430916 Z M54.8039216,90.9019608 L44.2156863,90.9019608 C45.1425383,92.9981158 47.2178797,94.350931 49.5098039,94.3529412 C51.8017281,94.350931 53.8770695,92.9981158 54.8039216,90.9019608 Z M49.5098039,0.980392108 C53.4735841,0.980392108 56.7018728,4.12940522 56.8294188,8.0621802 L56.8333333,8.30392153 L56.8333333,14.2156862 C60.3520492,15.1369187 63.7046717,16.599604 66.7714878,18.5501393 L67.3431373,18.9215686 L63.9509804,22.3137255 C61.0774814,20.5414619 57.9300492,19.2611389 54.6384421,18.5239937 L54.0196078,18.3921568 L52.1666667,18.0098039 L52.1666667,8.30392153 C52.1666667,6.83657675 50.9771487,5.64705878 49.5098039,5.64705878 C48.0988955,5.64705878 46.9448535,6.74683501 46.8581682,8.13589734 L46.8529412,8.30392153 L46.8529412,18.0098039 L45,18.3921568 C31.2595816,21.0463524 21.3330049,33.0742052 21.3333333,47.0686274 C21.3333333,57.0669587 19.6241401,63.8535093 17.4006303,68.7334522 L17.2549019,69.0490196 L3.87254897,82.4117647 C3.8682235,82.3366636 3.8682235,82.2613757 3.87254897,82.1862745 C3.87182573,80.0906703 4.62771043,78.0692037 5.99477592,76.4906148 L6.21568623,76.2450981 L6.99019604,75.4313726 C10.8431372,71.382353 16.6568627,65.2647059 16.6568627,47.0588235 C16.6370531,31.7184335 26.9511696,18.31169 41.7368606,14.3713993 L42.1862745,14.2549019 L42.1862745,8.30392153 C42.1862745,4.25924791 45.4651303,0.980392108 49.5098039,0.980392108 Z" id="Shape" fill="#000000"></path>
    </g>
</svg>