<?xml version="1.0" encoding="UTF-8"?>
<svg width="100px" height="100px" viewBox="0 0 100 100" version="1.1" xmlns="http://www.w3.org/2000/svg" xmlns:xlink="http://www.w3.org/1999/xlink">
    <!-- Generator: Sketch 57.1 (83088) - https://sketch.com -->
    <title>bold/bell-slash-bold</title>
    <desc>Created with Sketch.</desc>
    <g id="bold/bell-slash" stroke="none" stroke-width="1" fill="none" fill-rule="evenodd">
        <path d="M73.5294118,41.6960784 L80.6764706,34.5490196 C82.2559043,38.5782241 83.0640478,42.8683686 83.0588236,47.1960784 C83.0588236,63.5030501 88.1209005,69.0147592 91.5516508,72.6241414 L91.6666667,72.7450981 L92.4607844,73.5294118 C94.3005461,75.4791748 95.3156911,78.0644575 95.2947812,80.7450981 C95.2518438,86.4608689 90.6899784,91.0945811 85.0103856,91.2601658 L84.7254902,91.2647059 L60.8627451,91.2647059 C59.0378937,95.942386 54.530837,99.0219836 49.5098039,99.0219836 C44.5933757,99.0219836 40.1697312,96.0693659 38.2743888,91.5549667 L38.1568627,91.2647059 L24.0196078,91.2647059 L32.9117647,82.3529412 L84.7254902,82.3529412 C85.1614518,82.3477906 85.5773534,82.1689677 85.8810111,81.8561083 C86.1846689,81.5432488 86.3509999,81.1221957 86.3431373,80.6862745 C86.3475107,80.334961 86.2260223,79.9954507 86.0034604,79.7277865 L85.9019608,79.6176471 L85.2156863,78.8921569 C81.0686275,74.5392157 74.1470588,67.254902 74.1470588,47.1960784 C74.142521,45.5513245 73.9783748,43.9113808 73.6572056,42.2992702 L73.5294118,41.6960784 L80.6764706,34.5490196 L73.5294118,41.6960784 Z M95.2934137,0.99299698 C96.877216,1.39588457 98.1139193,2.6325879 98.5168069,4.21639021 C98.9196945,5.80019252 98.4242614,7.47751667 97.2254902,8.58823525 L8.09803917,97.7156863 C7.2646518,98.5522732 6.13183089,99.0216351 4.95098035,99.0196209 C3.14944077,99.0177657 1.5258491,97.932452 0.835385763,96.2684783 C0.14492243,94.6045045 0.523139718,92.6885433 1.7941176,91.4117647 L90.9215687,2.28431368 C92.0322872,1.08554247 93.7096114,0.590109386 95.2934137,0.99299698 Z M49.4705882,0.980392382 C54.4709784,0.980392382 58.5412057,4.9628934 58.6824818,9.92910725 L58.6862745,10.1960784 L58.6862745,14.2058823 C61.0652731,14.9500729 63.3587632,15.9421427 65.5291014,17.1653396 L66.1764706,17.5392157 L59.6176471,24.127451 C57.825097,23.2669836 55.9446058,22.6049698 54.0096877,22.1527559 L53.3627451,22.0098039 L49.8137255,21.2745098 L49.8137255,10.1960784 C49.8137255,10.0282271 49.6776552,9.89215682 49.5098039,9.89215682 C49.3659314,9.89215682 49.2454082,9.99212685 49.2139091,10.126392 L49.2058824,10.1960784 L49.2058824,21.2745098 L45.6568627,22.0098039 C33.5832493,24.338505 24.8553622,34.8999473 24.8431372,47.1960784 C24.8809623,51.2095875 24.546676,55.2172954 23.8449322,59.1678123 L23.6764706,60.0784314 L3.75490191,80 C3.90110893,77.6977566 4.80743541,75.5126701 6.32640211,73.785077 L6.55882349,73.5294118 L7.35294113,72.7450981 C10.745098,69.1372549 15.9215686,63.7254902 15.9215686,47.1960784 C15.8803078,32.1913056 25.5655109,18.9098732 39.8215082,14.3416394 L40.2549019,14.2058823 L40.2549019,10.1960784 C40.2549019,5.10639551 44.3809053,0.980392382 49.4705882,0.980392382 Z" id="Shape" fill="#000000"></path>
    </g>
</svg>