<?xml version="1.0" encoding="UTF-8"?>
<svg width="100px" height="100px" viewBox="0 0 100 100" version="1.1" xmlns="http://www.w3.org/2000/svg" xmlns:xlink="http://www.w3.org/1999/xlink">
    <!-- Generator: Sketch 57.1 (83088) - https://sketch.com -->
    <title>regular/bell-regular</title>
    <desc>Created with Sketch.</desc>
    <g id="regular/bell" stroke="none" stroke-width="1" fill="none" fill-rule="evenodd">
        <path d="M93.2673268,76.019802 L92.4950495,75.2475248 C88.6138614,71.1089109 82.7227723,64.9306931 82.7227723,46.5346535 C82.7418404,30.8830136 72.1090788,17.2257313 56.9306931,13.4059406 L56.9306931,7.39603956 C56.9306931,3.31131967 53.6193734,-4.9999997e-08 49.5346535,-4.9999997e-08 C45.4499336,-4.9999997e-08 42.1386139,3.31131967 42.1386139,7.39603956 L42.1386139,13.4059406 C26.956296,17.2218919 16.3187042,30.8801353 16.3366336,46.5346535 C16.3366336,64.9306931 10.5049505,71.1089109 6.61386134,75.2475248 L5.83168312,76.069307 C4.31786559,77.6816022 3.47217214,79.8082205 3.46534649,82.019802 C3.52965296,86.8601946 7.44654671,90.7639002 12.2871287,90.8118812 L39.2673267,90.8118812 C40.3586949,95.6123494 44.6265405,99.0188216 49.549505,99.0188216 C54.4724694,99.0188216 58.740315,95.6123494 59.8316832,90.8118812 L86.8118812,90.8118812 C91.6524632,90.7639002 95.5693569,86.8601946 95.6337657,82.019802 C95.6444788,79.7901661 94.7971901,77.6418105 93.2673268,76.019802 Z M49.5544554,94.2970297 C47.2398389,94.2949996 45.1439496,92.9287903 44.2079208,90.8118812 L54.8910891,90.8118812 C53.9585408,92.9272315 51.8662387,94.2936329 49.5544554,94.2970297 L49.5544554,94.2970297 Z M86.8118812,86.1387279 L12.2871287,86.1387279 C11.1974846,86.1438939 10.1508005,85.7140491 9.37936791,84.9444754 C8.60793529,84.1749016 8.17556659,83.1292576 8.17821778,82.039604 C8.15629126,80.9857493 8.55538601,79.9666323 9.28712867,79.2079208 L10.0297029,78.4158416 C14.1683168,74.0990099 21.0891089,66.8118812 21.0891089,46.5346535 C21.097431,32.406806 31.1194168,20.2674992 44.990099,17.5841584 L46.8712871,17.1980198 L46.8712871,7.39603956 C46.810719,6.4003427 47.3075251,5.45323639 48.1611405,4.93707592 C49.0147558,4.42091545 50.0842541,4.42091545 50.9378694,4.93707592 C51.7914848,5.45323639 52.2882909,6.4003427 52.2277228,7.39603956 L52.2277228,17.1980198 L54.1089109,17.5841584 C67.9795931,20.2674992 78.0015789,32.406806 78.009901,46.5346535 C78.009901,66.8019802 84.9405941,74.0891089 89.079208,78.4356436 L89.8217822,79.2277228 C90.535957,79.9649061 90.9308243,80.953853 90.9215644,81.9801981 C90.9421997,83.0809002 90.5177969,84.1435234 89.7440111,84.9266319 C88.9702253,85.7097405 87.9127608,86.1468384 86.8118812,86.1387279 Z" id="bell" fill="#000000"></path>
    </g>
</svg>