<?xml version="1.0" encoding="UTF-8"?>
<svg width="100px" height="100px" viewBox="0 0 100 100" version="1.1" xmlns="http://www.w3.org/2000/svg" xmlns:xlink="http://www.w3.org/1999/xlink">
    <!-- Generator: Sketch 57.1 (83088) - https://sketch.com -->
    <title>solid/bell-solid</title>
    <desc>Created with Sketch.</desc>
    <g id="solid/bell" stroke="none" stroke-width="1" fill="none" fill-rule="evenodd">
        <path d="M93.2673268,76.019802 L92.4950495,75.2475248 C88.6138614,71.1089109 82.7227723,64.9306931 82.7227723,46.5346535 C82.7418404,30.8830136 72.1090788,17.2257313 56.9306931,13.4059406 L56.9306931,7.39603956 C56.9306931,3.31131967 53.6193734,-4.9999997e-08 49.5346535,-4.9999997e-08 C45.4499336,-4.9999997e-08 42.1386139,3.31131967 42.1386139,7.39603956 L42.1386139,13.4059406 C26.956296,17.2218919 16.3187042,30.8801353 16.3366336,46.5346535 C16.3366336,64.9306931 10.5049505,71.1089109 6.61386134,75.2475248 L5.83168312,76.069307 C4.31786559,77.6816022 3.47217214,79.8082205 3.46534649,82.019802 C3.52965296,86.8601946 7.44654671,90.7639002 12.2871287,90.8118812 L39.2673267,90.8118812 C40.3586949,95.6123494 44.6265405,99.0188216 49.549505,99.0188216 C54.4724694,99.0188216 58.740315,95.6123494 59.8316832,90.8118812 L86.8118812,90.8118812 C91.6524632,90.7639002 95.5693569,86.8601946 95.6337657,82.019802 C95.6444788,79.7901661 94.7971901,77.6418105 93.2673268,76.019802 Z" id="bell" fill="#000000"></path>
    </g>
</svg>