<svg width="100" height="100" viewBox="0 0 100 100" fill="none" xmlns="http://www.w3.org/2000/svg">
<path fill-rule="evenodd" clip-rule="evenodd" d="M53.9456 24.7295L62.1886 32.9765L53.9516 41.2165L53.9456 24.7295ZM53.9456 75.2705L62.1886 67.0255L53.9516 58.7845L53.9456 75.2705ZM45.1806 49.9985L27.3256 32.0865L32.5016 26.9105L46.7246 41.1485V7.02749L72.5916 32.9085L55.5116 49.9985L72.5946 67.0915L46.7256 92.9725V58.8495L32.4996 73.0895L27.3246 67.9105L45.1806 49.9985ZM49.8956 100C71.7356 100 86.7836 89.6265 86.7836 49.9985C86.7836 10.3715 71.7356 0.000488281 49.8956 0.000488281C28.0566 0.000488281 12.9996 10.3735 12.9996 49.9985C12.9996 89.6265 28.0546 100 49.8956 100Z" fill="black"/>
</svg>
