<?xml version="1.0" encoding="UTF-8"?>
<svg width="100px" height="100px" viewBox="0 0 100 100" version="1.1" xmlns="http://www.w3.org/2000/svg" xmlns:xlink="http://www.w3.org/1999/xlink">
    <!-- Generator: Sketch 57.1 (83088) - https://sketch.com -->
    <title>brand/bluetooth-alt-brand</title>
    <desc>Created with Sketch.</desc>
    <g id="brand/bluetooth-alt" stroke="none" stroke-width="1" fill="none" fill-rule="evenodd">
        <path d="M53.9456,24.7293 L62.1886,32.9763 L53.9516,41.2163 L53.9456,24.7293 Z M53.9456,75.2703 L62.1886,67.0253 L53.9516,58.7843 L53.9456,75.2703 Z M45.1806,49.9983 L27.3256,32.0863 L32.5016,26.9103 L46.7246,41.1483 L46.7246,7.0273 L72.5916,32.9083 L55.5116,49.9983 L72.5946,67.0913 L46.7256,92.9723 L46.7256,58.8493 L32.4996,73.0893 L27.3246,67.9103 L45.1806,49.9983 Z M49.8956,100.0003 C71.7356,100.0003 86.7836,89.6263 86.7836,49.9983 C86.7836,10.3713 71.7356,0.0003 49.8956,0.0003 C28.0566,0.0003 12.9996,10.3733 12.9996,49.9983 C12.9996,89.6263 28.0546,100.0003 49.8956,100.0003 L49.8956,100.0003 Z" id="Fill-1" fill="#000000"></path>
    </g>
</svg>