<svg width="100" height="100" viewBox="0 0 100 100" fill="none" xmlns="http://www.w3.org/2000/svg">
<path d="M95.8006 16.9922C93.4925 14.6742 90.4565 13.2211 87.2029 12.8772C86.5796 6.94634 82.3585 2.01562 76.593 0.483465C70.8275 -1.04869 64.7142 1.13574 61.2267 5.97424C57.7393 10.8127 57.6017 17.3009 60.8807 22.2829L22.2913 60.8695C17.3075 57.5916 10.8168 57.7292 5.9765 61.2153C1.13617 64.7014 -1.04909 70.8124 0.483648 76.5758C2.01639 82.3391 6.94897 86.5586 12.8821 87.1817C13.5238 93.0938 17.7428 97.9997 23.4939 99.5211C29.245 101.042 35.3393 98.8648 38.8224 94.0438C42.3055 89.2228 42.4573 82.7551 39.2043 77.7761L77.7937 39.213C83.9668 43.2113 92.1629 41.9101 96.7928 36.1966C101.423 30.4831 100.995 22.1985 95.8006 16.9922Z" fill="black"/>
</svg>
