<svg width="100" height="100" viewBox="0 0 100 100" fill="none" xmlns="http://www.w3.org/2000/svg">
<path d="M27.1053 99.9999C19.7847 99.9715 13.6522 94.4529 12.8561 87.1775C9.59566 86.8319 6.55392 85.3737 4.24301 83.0484C-0.996329 77.8426 -1.43787 69.5148 3.22163 63.7844C7.88113 58.0541 16.1257 56.7857 22.2928 60.8504L60.8987 22.2538C57.1645 16.5578 57.9407 9.02374 62.7578 4.2083C66.6732 0.298401 72.4844 -1.02039 77.7046 0.816266C82.9248 2.65292 86.629 7.3196 87.2322 12.8193C90.4884 13.1675 93.5256 14.6255 95.8335 16.9484C101.006 22.1687 101.412 30.4466 96.7757 36.1481C92.1397 41.8495 83.9514 43.1423 77.7837 39.1464L39.1895 77.7312C42.0898 82.1591 42.3241 87.8214 39.7996 92.4736C37.275 97.1258 32.3993 100.017 27.1053 99.9999ZM19.1747 80.8604L18.7276 84.5777C18.2448 88.5214 20.5612 92.2728 24.304 93.6085C28.0467 94.9443 32.2156 93.5074 34.3399 90.1495C36.4642 86.7916 35.9762 82.4101 33.1651 79.6017L31.0824 77.5195L77.5719 31.0412L79.6545 33.1234C83.003 36.2727 88.2483 36.1926 91.4991 32.9426C94.7499 29.6926 94.8299 24.4486 91.6799 21.1009C89.8155 19.27 87.2103 18.4018 84.62 18.7482L80.9018 19.1952L81.3489 15.4661C81.8267 11.5229 79.507 7.77523 75.764 6.44322C72.0211 5.1112 67.8546 6.55063 65.7327 9.90878C63.6109 13.2669 64.1005 17.6469 66.9114 20.4539L68.9941 22.5243L22.5046 68.9555L20.4337 66.8734C17.6258 64.047 13.2319 63.5477 9.86122 65.672C6.49051 67.7963 5.04618 71.975 6.38592 75.7266C7.72566 79.4783 11.4905 81.7976 15.4447 81.3074L19.1747 80.8604Z" fill="black"/>
</svg>
