<?xml version="1.0" encoding="UTF-8"?>
<svg width="100px" height="100px" viewBox="0 0 100 100" version="1.1" xmlns="http://www.w3.org/2000/svg" xmlns:xlink="http://www.w3.org/1999/xlink">
    <!-- Generator: Sketch 57.1 (83088) - https://sketch.com -->
    <title>solid/book-solid</title>
    <desc>Created with Sketch.</desc>
    <g id="solid/book" stroke="none" stroke-width="1" fill="none" fill-rule="evenodd">
        <path d="M83.79,82.45 L83.79,5.67999996 C83.7844957,2.54530536 81.2446946,0.00550425525 78.11,-4.9999997e-08 L26.11,-4.9999997e-08 C20.2483593,0.0329517749 15.5108947,4.78827674 15.5,10.65 L15.5,89 C15.5384287,95.078646 20.4712422,99.9891391 26.55,100.000014 L79.24,100.000014 C81.3506747,100.005152 83.1852167,98.5519398 83.6633144,96.4961197 C84.1414121,94.4402995 83.1363576,92.3267157 81.24,91.4 L81.24,86.51 C82.7918999,85.7505809 83.7797823,84.1777171 83.79,82.45 Z M37.89,27.58 L61.39,27.58 C63.0646334,27.5014272 64.6468052,28.3501047 65.5076301,29.7886982 C66.3684549,31.2272916 66.3684549,33.0227083 65.5076301,34.4613018 C64.6468052,35.8998953 63.0646334,36.7485728 61.39,36.67 L37.89,36.67 C35.4626853,36.5561118 33.5532487,34.554985 33.5532487,32.125 C33.5532487,29.6950149 35.4626853,27.6938881 37.89,27.58 L37.89,27.58 Z M37.89,40.95 L61.39,40.95 C63.0646334,40.8714272 64.6468052,41.7201047 65.5076301,43.1586982 C66.3684549,44.5972916 66.3684549,46.3927084 65.5076301,47.8313018 C64.6468052,49.2698953 63.0646334,50.1185728 61.39,50.04 L37.89,50.04 C35.4626853,49.9261118 33.5532487,47.924985 33.5532487,45.495 C33.5532487,43.0650149 35.4626853,41.0638881 37.89,40.95 L37.89,40.95 Z M72.16,90.95 L26.55,90.95 C25.6178704,90.7607231 24.9479949,89.9411527 24.9479949,88.99 C24.9479949,88.0388474 25.6178704,87.219277 26.55,87.03 L72.16,87.03 L72.16,90.95 Z" id="book" fill="#000000"></path>
    </g>
</svg>