<svg width="100" height="100" viewBox="0 0 100 100" fill="none" xmlns="http://www.w3.org/2000/svg">
<path d="M97.0588 6.4707C72.9412 6.4707 55.7176 18.9884 50 23.8119C44.2824 18.9884 27.0588 6.4707 2.94118 6.4707H0V74.7884H2.94118C29.7529 74.7884 47.7647 92.1178 47.9412 92.3531L48.0941 92.4707C48.1828 92.5554 48.2772 92.634 48.3765 92.706L48.6235 92.8354C48.7059 92.8894 48.7924 92.9366 48.8824 92.9766L49.1882 93.0707L49.4235 93.1413C49.8114 93.2229 50.2121 93.2229 50.6 93.1413L50.8706 93.0589H51.0118H51.1176C51.2214 93.0198 51.3201 92.9684 51.4118 92.906L51.6 92.8119C51.7059 92.7413 51.7882 92.6589 51.8824 92.5883L52.0235 92.4707C52.2 92.2942 70.2118 74.9648 97.0235 74.9648H100V6.4707H97.0588ZM5.88235 12.4236C27.8118 13.4589 43.3176 25.7884 47.0588 29.0589V83.9295C35.1276 74.9578 20.7902 69.7513 5.88235 68.9766V12.4236ZM94.1176 68.9766C79.2098 69.7513 64.8724 74.9578 52.9412 83.9295V29.0589C56.6941 25.7766 72.1882 13.4589 94.1176 12.4236V68.9766Z" fill="black"/>
</svg>
