<svg width="100" height="100" viewBox="0 0 100 100" fill="none" xmlns="http://www.w3.org/2000/svg">
<g clip-path="url(#clip0)">
<path d="M61.6348 34.4351H37.3054C35.6811 34.4351 34.3643 33.1183 34.3643 31.4939C34.3643 29.8695 35.6811 28.5527 37.3054 28.5527H61.6348C63.2592 28.5527 64.576 29.8695 64.576 31.4939C64.576 33.1183 63.2592 34.4351 61.6348 34.4351Z" fill="black"/>
<path d="M37.3054 48.2354H61.6348C63.2592 48.2354 64.576 46.9186 64.576 45.2942C64.576 43.6698 63.2592 42.353 61.6348 42.353H37.3054C35.6811 42.353 34.3643 43.6698 34.3643 45.2942C34.3643 46.9186 35.6811 48.2354 37.3054 48.2354Z" fill="black"/>
<path fill-rule="evenodd" clip-rule="evenodd" d="M83.0475 83.5882V4.11765C83.0475 1.84353 81.204 0 78.9299 0H25.1416C20.0308 0.00648171 15.8893 4.148 15.8828 9.25882V90.3294C15.8893 95.6676 20.2152 99.9935 25.5534 100H80.1063C81.7307 100.088 83.1186 98.842 83.2063 97.2176C83.2941 95.5933 82.0484 94.2054 80.424 94.1176V86.4706C81.901 86.3103 83.0265 85.0737 83.0475 83.5882ZM25.1416 5.88235H77.1652V80.6471H25.5534C24.2513 80.6488 22.9629 80.9129 21.7652 81.4235V9.25882C21.7716 7.39673 23.2795 5.88881 25.1416 5.88235ZM21.7652 90.3294C21.7652 88.2353 23.4593 86.5359 25.5534 86.5294H74.5416V94.1176H25.5534C23.4639 94.1112 21.7716 92.4189 21.7652 90.3294Z" fill="black"/>
</g>
<defs>
<clipPath id="clip0">
<rect width="100" height="100" fill="white"/>
</clipPath>
</defs>
</svg>
