<?xml version="1.0" encoding="UTF-8"?>
<svg width="100px" height="100px" viewBox="0 0 100 100" version="1.1" xmlns="http://www.w3.org/2000/svg" xmlns:xlink="http://www.w3.org/1999/xlink">
    <!-- Generator: Sketch 57.1 (83088) - https://sketch.com -->
    <title>regular/bookmark-regular</title>
    <desc>Created with Sketch.</desc>
    <g id="regular/bookmark" stroke="none" stroke-width="1" fill="none" fill-rule="evenodd">
        <path d="M84.39,100 L49.94,77.1 L15.5,100 L15.5,5.54999996 C15.5055038,2.48710227 17.9871023,0.0055038226 21.05,-4.9999997e-08 L78.83,-4.9999997e-08 C81.8968022,-4.9999997e-08 84.3844842,2.48320271 84.39,5.54999996 L84.39,100 Z M49.94,71.49 L79.72,91.29 L79.72,5.54999996 C79.72,5.31486646 79.6259297,5.0895061 79.4587286,4.9241836 C79.2915274,4.75886109 79.0651183,4.66732798 78.83,4.66994173 L21.05,4.66994173 C20.8157898,4.66729205 20.5903816,4.75913626 20.4247589,4.92475891 C20.2591363,5.09038157 20.1672921,5.3157898 20.1699417,5.54999996 L20.1699417,91.29 L49.94,71.49 Z" id="bookmark" fill="#000000"></path>
    </g>
</svg>