<?xml version="1.0" encoding="UTF-8"?>
<svg width="100px" height="100px" viewBox="0 0 100 100" version="1.1" xmlns="http://www.w3.org/2000/svg" xmlns:xlink="http://www.w3.org/1999/xlink">
    <!-- Generator: Sketch 57.1 (83088) - https://sketch.com -->
    <title>bold/book-bold</title>
    <desc>Created with Sketch.</desc>
    <g id="bold/book" stroke="none" stroke-width="1" fill="none" fill-rule="evenodd">
        <path d="M26.11,-5.00000255e-08 L78.11,-5.00000255e-08 C81.1717947,0.00537624815 83.6660437,2.42854571 83.7855285,5.46228994 L83.79,5.67999996 L83.79,82.45 C83.7802266,84.1025989 82.8759546,85.6135174 81.4391892,86.4063864 L81.24,86.51 L81.24,91.4 C83.1363576,92.3267157 84.1414121,94.4402995 83.6633144,96.4961197 C83.2017028,98.4810495 81.4755819,99.9042143 79.4573164,99.9953782 L79.24,100.000014 L26.55,100.000014 C20.5677304,99.9893117 15.6953147,95.2333002 15.5055144,89.2885614 L15.5,88.9999999 L15.5,10.65 C15.5107161,4.88437057 20.0943028,0.189161408 25.8226448,0.00541194277 L26.11,-5.00000255e-08 L78.11,-5.00000255e-08 L26.11,-5.00000255e-08 Z M72.16,86.99 L26.55,86.99 C25.6178704,87.179277 24.9479949,87.9988474 24.9479949,88.95 C24.9479949,89.8452025 25.5413794,90.6238477 26.3883118,90.8701569 L26.55,90.91 L72.16,90.91 L72.16,86.99 Z M74.7,9.08999996 L26.11,9.08999996 C25.2963004,9.08999996 24.6281074,9.71298744 24.5563752,10.5080082 L24.55,10.65 L24.55,78.1 C25.0773115,77.9987448 25.6113685,77.9377773 26.1475437,77.917537 L26.55,77.91 L74.7,77.91 L74.7,9.08999996 Z M61.39,40.91 C63.0646334,40.8314272 64.6468052,41.6801047 65.5076301,43.1186982 C66.3684549,44.5572916 66.3684549,46.3527084 65.5076301,47.7913018 C64.6468052,49.2298953 63.0646334,50.0785728 61.39,50 L37.89,50 C35.4626853,49.8861118 33.5532487,47.884985 33.5532487,45.455 C33.5532487,43.0250149 35.4626853,41.0238881 37.89,40.91 L61.39,40.91 Z M65.5076301,29.7886982 C66.3684549,31.2272916 66.3684549,33.0227083 65.5076301,34.4613018 C64.6859336,35.8345047 63.2069768,36.6702014 61.6177269,36.6749987 L61.39,36.67 L37.89,36.67 C35.4626853,36.5561118 33.5532487,34.554985 33.5532487,32.125 C33.5532487,29.7664851 35.3520172,27.8119725 37.6772045,27.5949095 L37.89,27.58 L61.39,27.58 C63.0646334,27.5014272 64.6468052,28.3501047 65.5076301,29.7886982 Z" id="Shape" fill="#000000"></path>
    </g>
</svg>