<svg width="100" height="100" viewBox="0 0 100 100" fill="none" xmlns="http://www.w3.org/2000/svg">
<g clip-path="url(#clip0)">
<path d="M81.4471 86.2C81.6011 86.1069 81.7467 86.0006 81.8824 85.8824C82.0006 85.7898 82.1108 85.6875 82.2118 85.5765L82.2941 85.4706C82.379 85.3738 82.4576 85.2716 82.5294 85.1647L82.6353 84.9765L82.7765 84.6941C82.7765 84.6 82.8353 84.4941 82.8706 84.3882C82.8773 84.3139 82.8773 84.2391 82.8706 84.1647C82.9076 83.9787 82.9273 83.7896 82.9294 83.6V4.11765C82.9303 1.8887 81.1575 0.0636841 78.9294 0H25.1412C20.0304 0.00648171 15.8888 4.148 15.8824 9.25882V90.3294C15.8888 95.6676 20.2147 99.9935 25.5529 100H80.1059C81.7302 100.088 83.1182 98.842 83.2059 97.2176C83.2936 95.5933 82.0479 94.2054 80.4235 94.1176V86.4706C80.7785 86.4444 81.1255 86.3526 81.4471 86.2ZM37.3059 28.5529H61.6353C63.2597 28.5529 64.5765 29.8698 64.5765 31.4941C64.5765 33.1185 63.2597 34.4353 61.6353 34.4353H37.3059C35.6815 34.4353 34.3647 33.1185 34.3647 31.4941C34.3647 29.8698 35.6815 28.5529 37.3059 28.5529ZM37.3059 42.4H61.6353C63.2597 42.4 64.5765 43.7168 64.5765 45.3412C64.5765 46.9655 63.2597 48.2824 61.6353 48.2824H37.3059C35.6815 48.2824 34.3647 46.9655 34.3647 45.3412C34.3647 43.7168 35.6815 42.4 37.3059 42.4ZM74.5412 94.1176H25.5529C23.4608 94.1176 21.7647 92.4216 21.7647 90.3294C21.7647 88.2372 23.4608 86.5412 25.5529 86.5412H74.5412V94.1176Z" fill="black"/>
</g>
<defs>
<clipPath id="clip0">
<rect width="100" height="100" fill="white"/>
</clipPath>
</defs>
</svg>
