<?xml version="1.0" encoding="UTF-8"?>
<svg width="100px" height="100px" viewBox="0 0 100 100" version="1.1" xmlns="http://www.w3.org/2000/svg" xmlns:xlink="http://www.w3.org/1999/xlink">
    <!-- Generator: Sketch 57.1 (83088) - https://sketch.com -->
    <title>regular/box-open-regular</title>
    <desc>Created with Sketch.</desc>
    <g id="regular/box-open" stroke="none" stroke-width="1" fill="none" fill-rule="evenodd">
        <path d="M89.23,26.68 L89.16,26.6 L89.16,26.6 L89,26.41 L89,26.41 C88.9583064,26.3616015 88.9113501,26.3179992 88.86,26.28 L88.86,26.28 L88.79,26.23 L88.69,26.14 L88.69,26.14 L88.48,26 L88.48,26 L88.39,25.94 L51.1,6.26999996 L51.1,6.26999996 L51,6.20999996 C50.9,6.20999996 50.8,6.11999996 50.7,6.08999996 L50.5,6.08999996 L50.25,6.08999996 L49.8,6.08999996 C49.7400955,6.08521359 49.6799045,6.08521359 49.62,6.08999996 L49.35,6.08999996 L49.1,6.17999996 L48.91,6.25999996 L11.62,25.91 L11.54,25.97 L11.54,25.97 L11.34,26.11 L11.34,26.11 L11.27,26.17 L11.18,26.24 L11.18,26.24 L11.02,26.39 L10.87,26.57 L10.87,26.57 L10.8,26.65 L-4.9999997e-08,42.84 L10.38,48.3 L10.38,72.82 L50,93.7 L89.62,72.82 L89.62,48.3 L100,42.84 L89.23,26.68 Z M6.74999996,41.12 L13.48,31 L46.63,48.48 L39.89,58.59 L6.74999996,41.12 Z M47.67,87.2 L15,70 L15,50.76 L41.4,64.67 L47.63,55.33 L47.67,87.2 Z M17.71,28 L50,11 L82.29,28 L50,45 L17.71,28 Z M85,70 L52.33,87.2 L52.33,55.33 L58.56,64.67 L85,50.76 L85,70 Z M60.11,58.59 L53.37,48.48 L86.52,31 L93.25,41.1 L60.11,58.59 Z" id="box-open" fill="#000000"></path>
    </g>
</svg>