<svg width="100" height="100" viewBox="0 0 100 100" fill="none" xmlns="http://www.w3.org/2000/svg">
<path fill-rule="evenodd" clip-rule="evenodd" d="M89.0532 27.5229L100 43.8915L58.2302 65.8998L50 53.5545L41.7698 65.8998L0 43.8915L10.9468 27.5229L11.0156 27.4427C11.0743 27.3611 11.1394 27.2845 11.2105 27.2134C11.2696 27.1429 11.3348 27.0777 11.4053 27.0185C11.4225 27.0013 11.4397 26.982 11.4569 26.9627C11.5085 26.9046 11.5601 26.8466 11.6116 26.8466C11.6923 26.7789 11.7808 26.7211 11.8753 26.6747C11.9069 26.6478 11.9415 26.6248 11.9784 26.6059L48.6589 7.27989L48.8652 7.19965L49.1632 7.07356C49.2687 7.04399 49.3759 7.02102 49.4842 7.00478C49.5605 6.99841 49.6371 6.99841 49.7134 7.00478H50.8253L51.1463 7.13087L51.3297 7.21111L87.9986 26.583L88.1133 26.6517C88.2017 26.7024 88.286 26.7599 88.3654 26.8237L88.5832 26.9956C88.6501 27.0549 88.7115 27.1201 88.7666 27.1905C88.8413 27.2614 88.9103 27.338 88.9729 27.4197C88.9969 27.4562 89.0237 27.4907 89.0532 27.5229ZM50 12.9883L16.403 30.6866L50 48.3505L52.5447 47.0094L83.597 30.6866L50 12.9883Z" fill="black"/>
<path d="M47.1343 65.0862L43.0995 71.1385L10.4654 53.9445V73.5112L47.1343 92.8372V65.0862Z" fill="black"/>
<path d="M56.9006 71.1385L52.8657 65.0862V92.8372L89.5347 73.5112V53.9445L56.9006 71.1385Z" fill="black"/>
</svg>
