<?xml version="1.0" encoding="UTF-8"?>
<svg width="100px" height="100px" viewBox="0 0 100 100" version="1.1" xmlns="http://www.w3.org/2000/svg" xmlns:xlink="http://www.w3.org/1999/xlink">
    <!-- Generator: Sketch 57.1 (83088) - https://sketch.com -->
    <title>bold/box-bold</title>
    <desc>Created with Sketch.</desc>
    <g id="bold/box" stroke="none" stroke-width="1" fill="none" fill-rule="evenodd">
        <path d="M92.61,22.46 L92.61,22.46 L50,-4.9999997e-08 L27.62,11.79 L27.62,11.79 L7.36999996,22.46 L7.36999996,22.46 L4.99999995,23.71 L4.99999995,76.29 L50,100 L95,76.29 L95,23.71 L92.61,22.46 Z M50,10.15 L80.85,26.42 L70.23,32 L39.38,15.75 L50,10.15 Z M45.5,87.48 L14,70.87 L14,33.87 L45.49,50.47 L45.5,87.48 Z M19.13,26.42 L29.74,20.83 L60.6,37.09 L50,42.68 L19.13,26.42 Z M86,70.87 L54.48,87.48 L54.48,50.48 L86,33.86 L86,70.87 Z" id="box" fill="#000000"></path>
    </g>
</svg>