<svg width="100" height="100" viewBox="0 0 100 100" fill="none" xmlns="http://www.w3.org/2000/svg">
<path d="M89.0532 26.523L88.9729 26.4313C88.9286 26.3526 88.8703 26.2827 88.801 26.2249L88.5947 26.0301L88.3884 25.8467L88.1476 25.6977L88.033 25.6174L51.3297 6.21118L51.1921 6.15386C51.074 6.09443 50.9514 6.0446 50.8253 6.00485H50.5731H50.2751H49.7134H49.4727C49.3735 5.99838 49.2739 5.99838 49.1747 6.00485C49.0681 6.03788 48.9645 6.08007 48.8652 6.13094L48.6589 6.21118L11.9784 25.5372L11.8753 25.6059L11.6231 25.7779L11.4168 25.9384L11.2219 26.1447C11.1591 26.2086 11.1016 26.2777 11.05 26.351L10.9468 26.523L0 42.8916L10.4654 48.4051V72.4766L50 93.3501L89.5346 72.511V48.4395L100 42.926L89.0532 26.523ZM8.29895 40.7825L14.2824 31.8072L45.8505 48.451L39.867 57.4721L8.29895 40.7825ZM47.1343 85.3606L16.1852 69.0493V51.4313L41.7698 64.8998L47.1343 56.876V85.3606ZM19.4865 28.0704L50.0115 12.0227L80.5365 28.0704L50.0115 44.1181L19.4865 28.0704ZM83.8033 69.0493L52.8542 85.3606V56.8531L58.2187 64.8769L83.8033 51.4313V69.0493ZM60.133 57.4721L54.1495 48.4968L85.7176 31.8072L91.701 40.7825L60.133 57.4721Z" fill="black"/>
</svg>
