<svg width="100" height="100" viewBox="0 0 100 100" fill="none" xmlns="http://www.w3.org/2000/svg">
<path d="M7.05859 100H33.5292C35.1535 100 36.4704 98.6832 36.4704 97.0588C36.4704 95.4345 35.1535 94.1176 33.5292 94.1176H12.9409V5.88235H33.5292C35.1535 5.88235 36.4704 4.56554 36.4704 2.94118C36.4704 1.31681 35.1535 0 33.5292 0H7.05859V100Z" fill="black"/>
<path d="M66.4705 100H92.9411V0H66.4705C64.8461 0 63.5293 1.31681 63.5293 2.94118C63.5293 4.56554 64.8461 5.88235 66.4705 5.88235H87.0587V94.1176H66.4705C64.8461 94.1176 63.5293 95.4345 63.5293 97.0588C63.5293 98.6832 64.8461 100 66.4705 100Z" fill="black"/>
</svg>
