<svg width="100" height="100" viewBox="0 0 100 100" fill="none" xmlns="http://www.w3.org/2000/svg">
<path d="M6.25 100H35.4167C40.019 100 43.75 96.269 43.75 91.6667C43.75 87.0643 40.019 83.3333 35.4167 83.3333H22.9167V16.6667H35.4167C40.019 16.6667 43.75 12.9357 43.75 8.33333C43.75 3.73096 40.019 0 35.4167 0H6.25V100Z" fill="black"/>
<path d="M64.5833 100H93.75V0H64.5833C59.981 0 56.25 3.73096 56.25 8.33333C56.25 12.9357 59.981 16.6667 64.5833 16.6667H77.0833V83.3333H64.5833C59.981 83.3333 56.25 87.0643 56.25 91.6667C56.25 96.269 59.981 100 64.5833 100Z" fill="black"/>
</svg>
