<?xml version="1.0" encoding="UTF-8"?>
<svg width="100px" height="100px" viewBox="0 0 100 100" version="1.1" xmlns="http://www.w3.org/2000/svg" xmlns:xlink="http://www.w3.org/1999/xlink">
    <!-- Generator: Sketch 57.1 (83088) - https://sketch.com -->
    <title>solid/brackets-solid</title>
    <desc>Created with Sketch.</desc>
    <g id="solid/brackets" stroke="none" stroke-width="1" fill="none" fill-rule="evenodd">
        <path d="M93.5,-5.00000041e-08 L93.5,99.9999999 L64.33,99.9999999 C59.8390244,99.8444203 56.2787473,96.1586697 56.2787473,91.665 C56.2787473,87.1713304 59.8390244,83.4855798 64.33,83.33 L76.83,83.33 L76.83,16.67 L64.33,16.67 C59.8390244,16.5144202 56.2787473,12.8286696 56.2787473,8.33499996 C56.2787473,3.84133031 59.8390244,0.15557968 64.33,-5.00000041e-08 L93.5,-5.00000041e-08 Z M35.17,-5.00000041e-08 C39.6609756,0.15557968 43.2212527,3.84133031 43.2212527,8.33499996 C43.2212527,12.8286696 39.6609756,16.5144202 35.17,16.67 L22.67,16.67 L22.67,83.33 L35.17,83.33 C39.6609756,83.4855798 43.2212527,87.1713304 43.2212527,91.665 C43.2212527,96.1586697 39.6609756,99.8444203 35.17,99.9999999 L5.99999996,99.9999999 L5.99999996,-5.00000041e-08 L35.17,-5.00000041e-08 Z" id="Shape" fill="#000000"></path>
    </g>
</svg>