<svg width="100" height="100" viewBox="0 0 100 100" fill="none" xmlns="http://www.w3.org/2000/svg">
<path fill-rule="evenodd" clip-rule="evenodd" d="M5.29412 15.2939H94.7059C97.6271 15.3004 99.9935 17.6669 100 20.5881V27.3881H0V20.5881C0.00646996 17.6669 2.37294 15.3004 5.29412 15.2939ZM8.59106 24.7709C8.78108 25.0732 9.12752 25.2399 9.48235 25.1998C9.83719 25.2399 10.1836 25.0732 10.3736 24.7709C10.5637 24.4685 10.5637 24.0841 10.3736 23.7817C10.1836 23.4794 9.83719 23.3127 9.48235 23.3528C9.12752 23.3127 8.78108 23.4794 8.59106 23.7817C8.40103 24.0841 8.40103 24.4685 8.59106 24.7709ZM12.3354 24.6399C12.486 24.9878 12.8328 25.2094 13.2118 25.1998C13.714 25.1934 14.1177 24.7844 14.1176 24.2822C14.1223 23.9031 13.8963 23.5592 13.5465 23.4131C13.1967 23.267 12.7932 23.348 12.5269 23.6178C12.2606 23.8876 12.1848 24.2921 12.3354 24.6399ZM16.0814 24.6233C16.2246 24.9721 16.5642 25.1998 16.9412 25.1998C17.1866 25.203 17.423 25.1077 17.5977 24.9352C17.7723 24.7628 17.8706 24.5276 17.8706 24.2822C17.8754 23.9052 17.652 23.5627 17.3051 23.4152C16.9582 23.2676 16.5565 23.3442 16.2883 23.6091C16.02 23.8739 15.9383 24.2746 16.0814 24.6233Z" fill="black"/>
<path fill-rule="evenodd" clip-rule="evenodd" d="M0 78.7411V33.2705H100V78.7411C99.9935 81.6623 97.6271 84.0287 94.7059 84.0352H5.29412C2.37294 84.0287 0.00646996 81.6623 0 78.7411ZM63.8055 69.523C64.9417 68.39 64.9602 66.5555 63.8471 65.3999L54.1176 55.7058L63.8941 46.0234C65.0072 44.8678 64.9887 43.0333 63.8526 41.9004C62.7164 40.7674 60.8819 40.7541 59.7294 41.8705L50.0471 51.5529L40.3647 41.8705C39.6273 41.105 38.5342 40.7968 37.5056 41.0645C36.4769 41.3323 35.6728 42.1342 35.4021 43.1621C35.1315 44.19 35.4365 45.2839 36.2 46.0234L45.8824 55.7058L36.1529 65.3999C35.3895 66.1395 35.0844 67.2334 35.3551 68.2613C35.6257 69.2892 36.4299 70.0911 37.4585 70.3588C38.4872 70.6265 39.5803 70.3184 40.3176 69.5529L50 59.8705L59.6824 69.5529C60.8348 70.6692 62.6694 70.6559 63.8055 69.523Z" fill="black"/>
</svg>
