<?xml version="1.0" encoding="UTF-8"?>
<svg width="100px" height="100px" viewBox="0 0 100 100" version="1.1" xmlns="http://www.w3.org/2000/svg" xmlns:xlink="http://www.w3.org/1999/xlink">
    <!-- Generator: Sketch 57.1 (83088) - https://sketch.com -->
    <title>bold/browser-window-minus-bold</title>
    <desc>Created with Sketch.</desc>
    <g id="bold/browser-window-minus" stroke="none" stroke-width="1" fill="none" fill-rule="evenodd">
        <path d="M93.64,15 C97.073938,15.0053865 99.8705162,17.727431 99.9956385,21.1320373 L99.9999999,21.36 L99.9999999,78.45 C99.9946135,81.883938 97.2725691,84.6805161 93.8679627,84.8056386 L93.64,84.81 L6.35999996,84.81 C2.92606198,84.8046135 0.129483847,82.082569 0.00436141151,78.6779627 L-5.0000061e-08,78.45 L-5.0000061e-08,21.36 C0.00538652931,17.926062 2.72743094,15.1294839 6.13203732,15.0043614 L6.35999996,15 L93.64,15 Z M90.91,35.77 L9.08999996,35.77 L9.08999996,75.72 L90.91,75.72 L90.91,35.77 Z M65,51.43 C67.5128956,51.43 69.55,53.4671044 69.55,55.98 C69.55,58.4928956 67.5128956,60.53 65,60.53 L35,60.53 C32.4871044,60.53 30.45,58.4928956 30.45,55.98 C30.45,53.4671044 32.4871044,51.43 35,51.43 L65,51.43 Z M90.91,24.09 L9.08999996,24.09 L9.08999996,26.72 L90.91,26.72 L90.91,24.09 Z M11.5099414,24.7472246 C11.7665341,25.0067003 11.8410463,25.395435 11.6985871,25.7314006 C11.5561279,26.0673662 11.2248986,26.2840547 10.86,26.28 C10.3668533,26.2745202 9.96996952,25.8731771 9.96999996,25.38 C9.97002249,25.0150788 10.1903982,24.6862912 10.5279345,24.5475946 C10.8654707,24.408898 11.2533487,24.4877488 11.5099414,24.7472246 Z M14.47,24.49 C14.9615334,24.49 15.36,24.8884665 15.36,25.38 C15.36,25.8715334 14.9615334,26.27 14.47,26.27 C13.9784665,26.27 13.58,25.8715334 13.58,25.38 C13.58,24.8884665 13.9784665,24.49 14.47,24.49 Z M18.07,24.49 C18.5615334,24.49 18.96,24.8884665 18.96,25.38 C18.96,25.8715334 18.5615334,26.27 18.07,26.27 C17.5784665,26.27 17.18,25.8715334 17.18,25.38 C17.18,24.8884665 17.5784665,24.49 18.07,24.49 Z" id="Shape" fill="#000000"></path>
    </g>
</svg>