<?xml version="1.0" encoding="UTF-8"?>
<svg width="100px" height="100px" viewBox="0 0 100 100" version="1.1" xmlns="http://www.w3.org/2000/svg" xmlns:xlink="http://www.w3.org/1999/xlink">
    <!-- Generator: Sketch 57.1 (83088) - https://sketch.com -->
    <title>regular/browser-window-plus-regular</title>
    <desc>Created with Sketch.</desc>
    <g id="regular/browser-window-plus" stroke="none" stroke-width="1" fill="none" fill-rule="evenodd">
        <path d="M95.71,15.5 C98.0096163,15.5 99.8866296,17.3093776 99.9950529,19.5821456 L99.9999999,19.79 L99.9999999,79.59 C99.9946485,81.885825 98.1866339,83.7569863 95.9175164,83.8650686 L95.71,83.87 L4.28999995,83.87 C1.99416877,83.87 0.118787114,82.066363 0.00541514093,79.7975043 L-5.00000539e-08,79.59 L-5.00000539e-08,19.79 C-5.00000539e-08,17.4903837 1.80937762,15.6133703 4.08214558,15.504947 L4.28999995,15.5 L95.71,15.5 Z M95.24,32.5 L4.75999995,32.5 L4.75999995,79.11 L95.24,79.11 L95.24,32.5 Z M50,40.2900001 C51.3144377,40.2900001 52.3799999,41.3555623 52.38,42.67 L52.38,53.67 L63.33,53.67 C64.6444377,53.67 65.71,54.7355623 65.71,56.05 C65.71,57.3644377 64.6444377,58.43 63.33,58.43 L52.38,58.43 L52.38,69.43 C52.38,70.7444377 51.3144377,71.81 50,71.81 C48.6855623,71.81 47.62,70.7444377 47.62,69.43 L47.62,58.43 L36.67,58.43 C35.3555623,58.43 34.29,57.3644377 34.29,56.05 C34.29,54.7355623 35.3555623,53.67 36.67,53.67 L47.62,53.67 L47.62,42.67 C47.6200001,41.3555623 48.6855623,40.2900001 50,40.2900001 Z M95.24,20.26 L4.75999995,20.26 L4.75999995,27.73 L95.24,27.73 L95.24,20.26 Z M12.78,23.06 C13.2991476,23.06 13.72,23.4808523 13.72,24 C13.72,24.5191476 13.2991476,24.94 12.78,24.94 C12.2608523,24.94 11.84,24.5191476 11.84,24 C11.84,23.4808523 12.2608523,23.06 12.78,23.06 Z M16.55,23.06 C17.0691476,23.06 17.49,23.4808523 17.49,24 C17.49,24.5191476 17.0691476,24.94 16.55,24.94 C16.0308523,24.94 15.61,24.5191476 15.61,24 C15.61,23.4808523 16.0308523,23.06 16.55,23.06 Z M9.66106325,23.3217747 C9.93197875,23.5898081 10.0142511,23.9948913 9.86936235,24.3473745 C9.72447364,24.6998577 9.38109984,24.9299784 8.99999996,24.93 C8.48473259,24.9300291 8.06548152,24.5152382 8.05999996,24 C8.0559457,23.6189217 8.28238095,23.2731064 8.63329439,23.1244562 C8.98420783,22.975806 9.39014775,23.0537413 9.66106325,23.3217747 Z" id="Shape" fill="#000000"></path>
    </g>
</svg>