<svg width="100" height="100" viewBox="0 0 100 100" fill="none" xmlns="http://www.w3.org/2000/svg">
<path d="M14.1175 13.5293H95.1763C97.8376 13.5358 99.9934 15.6915 99.9998 18.3528V24.4234H94.0116C92.524 20.9766 89.1304 18.7435 85.3763 18.7411H9.29395V18.3528C9.30041 15.6915 11.4562 13.5358 14.1175 13.5293Z" fill="black"/>
<path d="M95.1763 76.0468H94.7881V30.3057H99.9998V71.1763C100.009 72.4627 99.5056 73.6999 98.6003 74.614C97.695 75.5281 96.4628 76.0437 95.1763 76.0468Z" fill="black"/>
<path d="M0 39.6353V80.0823C0.00646996 83.0035 2.37294 85.37 5.29412 85.3764H85.3765C88.2976 85.37 90.6641 83.0035 90.6706 80.0823V39.6353H0Z" fill="black"/>
<path fill-rule="evenodd" clip-rule="evenodd" d="M5.29412 22.8589H85.3765C88.2976 22.8654 90.6641 25.2318 90.6706 28.153V33.753H0V28.153C0.00646996 25.2318 2.37294 22.8654 5.29412 22.8589ZM8 31.2471C8 31.7084 8.37397 32.0824 8.83529 32.0824C9.29661 32.0824 9.67059 31.7084 9.67059 31.2471C9.67059 30.7858 9.29661 30.4118 8.83529 30.4118C8.37397 30.4118 8 30.7858 8 31.2471ZM11.42 31.575C11.553 31.8867 11.8611 32.0872 12.2 32.0824C12.6567 32.076 13.0236 31.7039 13.0235 31.2471C13.0235 30.9082 12.8187 30.6029 12.5051 30.4743C12.1915 30.3458 11.8314 30.4194 11.5934 30.6608C11.3555 30.9021 11.287 31.2633 11.42 31.575ZM14.7176 31.2471C14.7176 31.7084 15.0916 32.0824 15.5529 32.0824C15.7754 32.0856 15.9898 31.9986 16.1471 31.8413C16.3045 31.6839 16.3914 31.4696 16.3882 31.2471C16.3882 30.7858 16.0143 30.4118 15.5529 30.4118C15.0916 30.4118 14.7176 30.7858 14.7176 31.2471Z" fill="black"/>
</svg>
