<svg width="100" height="100" viewBox="0 0 100 100" fill="none" xmlns="http://www.w3.org/2000/svg">
<g clip-path="url(#clip0)">
<path d="M95.1763 13.5293H14.1175C11.4562 13.5358 9.30041 15.6915 9.29395 18.3528V18.7411H85.3763C86.5852 18.7323 87.7842 18.9601 88.9057 19.4117H94.1175V24.4234H94.0116C94.5288 25.5984 94.7933 26.869 94.7881 28.1528V76.047H95.1763C96.4628 76.0439 97.695 75.5282 98.6003 74.6141C99.5056 73.7 100.009 72.4628 100 71.1764V18.3528C99.9934 15.6915 97.8376 13.5358 95.1763 13.5293Z" fill="black"/>
<path d="M9.83496 31.2471C9.83496 31.7994 9.38725 32.2471 8.83496 32.2471C8.28268 32.2471 7.83496 31.7994 7.83496 31.2471C7.83496 30.6948 8.28268 30.2471 8.83496 30.2471C9.38725 30.2471 9.83496 30.6948 9.83496 31.2471Z" fill="black"/>
<path d="M12.2002 32.2471C12.7525 32.2471 13.2002 31.7994 13.2002 31.2471C13.2002 30.6948 12.7525 30.2471 12.2002 30.2471C11.6479 30.2471 11.2002 30.6948 11.2002 31.2471C11.2002 31.7994 11.6479 32.2471 12.2002 32.2471Z" fill="black"/>
<path d="M16.4002 31.2469C16.4002 31.7082 16.0262 32.0822 15.5649 32.0822C15.3424 32.0854 15.128 31.9984 14.9707 31.8411C14.8134 31.6837 14.7264 31.4694 14.7296 31.2469C14.7296 30.7856 15.1036 30.4116 15.5649 30.4116C16.0262 30.4116 16.4002 30.7856 16.4002 31.2469Z" fill="black"/>
<path fill-rule="evenodd" clip-rule="evenodd" d="M85.3765 22.8589H5.29412C2.37294 22.8654 0.00646996 25.2318 0 28.153V80.0824C0.00646996 83.0036 2.37294 85.3701 5.29412 85.3765H85.3765C88.2976 85.3701 90.6641 83.0036 90.6706 80.0824V28.153C90.6641 25.2318 88.2976 22.8654 85.3765 22.8589ZM84.7882 28.7412V33.753H5.88235V28.7412H84.7882ZM5.88235 79.4942V39.6354H84.7882V79.4942H5.88235Z" fill="black"/>
</g>
<defs>
<clipPath id="clip0">
<rect width="100" height="100" fill="white"/>
</clipPath>
</defs>
</svg>
