<svg width="100" height="100" viewBox="0 0 100 100" fill="none" xmlns="http://www.w3.org/2000/svg">
<path d="M9.48242 25.2823C10.0347 25.2823 10.4824 24.8346 10.4824 24.2823C10.4824 23.73 10.0347 23.2823 9.48242 23.2823C8.93014 23.2823 8.48242 23.73 8.48242 24.2823C8.48242 24.8346 8.93014 25.2823 9.48242 25.2823Z" fill="black"/>
<path d="M14.2119 24.2823C14.2119 24.8346 13.7642 25.2823 13.2119 25.2823C12.6596 25.2823 12.2119 24.8346 12.2119 24.2823C12.2119 23.73 12.6596 23.2823 13.2119 23.2823C13.7642 23.2823 14.2119 23.73 14.2119 24.2823Z" fill="black"/>
<path d="M16.9414 25.2823C17.4937 25.2823 17.9414 24.8346 17.9414 24.2823C17.9414 23.73 17.4937 23.2823 16.9414 23.2823C16.3891 23.2823 15.9414 23.73 15.9414 24.2823C15.9414 24.8346 16.3891 25.2823 16.9414 25.2823Z" fill="black"/>
<path d="M38.2351 52.7647H61.7645C63.3889 52.7647 64.7057 54.0815 64.7057 55.7059C64.7057 57.3302 63.3889 58.6471 61.7645 58.6471H38.2351C36.6108 58.6471 35.2939 57.3302 35.2939 55.7059C35.2939 54.0815 36.6108 52.7647 38.2351 52.7647Z" fill="black"/>
<path fill-rule="evenodd" clip-rule="evenodd" d="M94.7059 15.294H5.29412C2.37294 15.3005 0.00646996 17.6669 0 20.5881V78.7411C0.00646996 81.6622 2.37294 84.0287 5.29412 84.0352H94.7059C97.6271 84.0287 99.9935 81.6622 100 78.7411V20.5881C99.9935 17.6669 97.6271 15.3005 94.7059 15.294ZM94.1176 21.1764V27.3881H5.88235V21.1764H94.1176ZM5.88235 78.1528V33.2705H94.1176V78.1528H5.88235Z" fill="black"/>
</svg>
