<svg width="100" height="100" viewBox="0 0 100 100" fill="none" xmlns="http://www.w3.org/2000/svg">
<path d="M9.48222 25.2002C9.8592 25.2002 10.1988 24.9724 10.342 24.6237C10.4851 24.275 10.4034 23.8743 10.1351 23.6094C9.86689 23.3446 9.46522 23.268 9.11832 23.4156C8.77143 23.5631 8.54804 23.9056 8.55281 24.2826C8.55925 24.7913 8.97348 25.2003 9.48222 25.2002Z" fill="black"/>
<path d="M14.0798 24.6319C13.9329 24.9802 13.5897 25.2049 13.2117 25.2001C12.7049 25.2001 12.294 24.7893 12.294 24.2825C12.2893 23.9045 12.5139 23.5613 12.8623 23.4144C13.2106 23.2675 13.6132 23.3463 13.8806 23.6136C14.1479 23.8809 14.2266 24.2835 14.0798 24.6319Z" fill="black"/>
<path d="M16.9412 25.2001C17.3192 25.2049 17.6624 24.9802 17.8093 24.6319C17.9561 24.2835 17.8774 23.8809 17.61 23.6136C17.3427 23.3463 16.9401 23.2675 16.5918 23.4144C16.2434 23.5613 16.0188 23.9045 16.0235 24.2825C16.0235 24.7893 16.4344 25.2001 16.9412 25.2001Z" fill="black"/>
<path d="M52.941 52.7648H61.7645C63.3889 52.7648 64.7057 54.0816 64.7057 55.7059C64.7057 57.3303 63.3889 58.6471 61.7645 58.6471H52.941V67.4706C52.941 69.095 51.6242 70.4118 49.9998 70.4118C48.3755 70.4118 47.0587 69.095 47.0587 67.4706V58.6471H38.2351C36.6108 58.6471 35.2939 57.3303 35.2939 55.7059C35.2939 54.0816 36.6108 52.7648 38.2351 52.7648H47.0587V43.9412C47.0587 42.3169 48.3755 41.0001 49.9998 41.0001C51.6242 41.0001 52.941 42.3169 52.941 43.9412V52.7648Z" fill="black"/>
<path fill-rule="evenodd" clip-rule="evenodd" d="M94.7059 15.294H5.29412C2.37294 15.3005 0.00646996 17.6669 0 20.5881V78.7411C0.00646996 81.6622 2.37294 84.0287 5.29412 84.0352H94.7059C97.6271 84.0287 99.9935 81.6622 100 78.7411V20.5881C99.9935 17.6669 97.6271 15.3005 94.7059 15.294ZM94.1176 21.1764V27.3881H5.88235V21.1764H94.1176ZM5.88235 78.1528V33.2705H94.1176V78.1528H5.88235Z" fill="black"/>
</svg>
