<svg width="100" height="100" viewBox="0 0 100 100" fill="none" xmlns="http://www.w3.org/2000/svg">
<path d="M9.48242 25.2823C10.0347 25.2823 10.4824 24.8346 10.4824 24.2823C10.4824 23.73 10.0347 23.2823 9.48242 23.2823C8.93014 23.2823 8.48242 23.73 8.48242 24.2823C8.48242 24.8346 8.93014 25.2823 9.48242 25.2823Z" fill="black"/>
<path d="M14.2119 24.2823C14.2119 24.8346 13.7642 25.2823 13.2119 25.2823C12.6596 25.2823 12.2119 24.8346 12.2119 24.2823C12.2119 23.73 12.6596 23.2823 13.2119 23.2823C13.7642 23.2823 14.2119 23.73 14.2119 24.2823Z" fill="black"/>
<path d="M16.9414 25.2823C17.4937 25.2823 17.9414 24.8346 17.9414 24.2823C17.9414 23.73 17.4937 23.2823 16.9414 23.2823C16.3891 23.2823 15.9414 23.73 15.9414 24.2823C15.9414 24.8346 16.3891 25.2823 16.9414 25.2823Z" fill="black"/>
<path d="M61.7644 41.0066C62.5458 41.0066 63.295 41.3175 63.8468 41.8706C64.9782 43.0314 64.9571 44.8887 63.7997 46.0236L54.1174 55.7059L63.8939 65.4C64.6573 66.1396 64.9623 67.2335 64.6917 68.2614C64.4211 69.2893 63.6169 70.0912 62.5883 70.3589C61.5596 70.6267 60.4665 70.3185 59.7291 69.553L50.0468 59.8706L40.3644 69.553C39.212 70.6693 37.3774 70.6561 36.2413 69.5231C35.1051 68.3902 35.0866 66.5557 36.1997 65.4L45.8821 55.7059L36.1527 46.0236C35.3892 45.284 35.0842 44.1901 35.3548 43.1622C35.6254 42.1343 36.4296 41.3324 37.4583 41.0647C38.4869 40.797 39.58 41.1051 40.3174 41.8706L49.9997 51.553L59.6821 41.8706C60.2339 41.3175 60.9831 41.0066 61.7644 41.0066Z" fill="black"/>
<path fill-rule="evenodd" clip-rule="evenodd" d="M94.7059 15.294H5.29412C2.37294 15.3005 0.00646996 17.6669 0 20.5881V78.7411C0.00646996 81.6622 2.37294 84.0287 5.29412 84.0352H94.7059C97.6271 84.0287 99.9935 81.6622 100 78.7411V20.5881C99.9935 17.6669 97.6271 15.3005 94.7059 15.294ZM94.1176 21.1764V27.3881H5.88235V21.1764H94.1176ZM5.88235 78.1528V33.2705H94.1176V78.1528H5.88235Z" fill="black"/>
</svg>
