<?xml version="1.0" encoding="UTF-8"?>
<svg width="100px" height="100px" viewBox="0 0 100 100" version="1.1" xmlns="http://www.w3.org/2000/svg" xmlns:xlink="http://www.w3.org/1999/xlink">
    <!-- Generator: Sketch 57.1 (83088) - https://sketch.com -->
    <title>regular/browser-window-cross-regular</title>
    <desc>Created with Sketch.</desc>
    <g id="regular/browser-window-cross" stroke="none" stroke-width="1" fill="none" fill-rule="evenodd">
        <path d="M95.71,15.5 C98.0096163,15.5 99.8866296,17.3093776 99.9950529,19.5821456 L99.9999999,19.79 L99.9999999,79.59 C99.9946485,81.885825 98.1866339,83.7569863 95.9175164,83.8650686 L95.71,83.87 L4.28999995,83.87 C1.99416877,83.87 0.118787114,82.066363 0.00541514093,79.7975043 L-5.00000539e-08,79.59 L-5.00000539e-08,19.79 C-5.00000539e-08,17.4903837 1.80937762,15.6133703 4.08214558,15.504947 L4.28999995,15.5 L95.71,15.5 Z M95.24,32.5 L4.75999995,32.5 L4.75999995,79.11 L95.24,79.11 L95.24,32.5 Z M59.46,43.22 C60.3905998,42.2894002 61.8994002,42.2894002 62.83,43.22 C63.7605998,44.1505998 63.7605998,45.6594002 62.83,46.59 L53.37,56.05 L62.83,65.51 C63.277614,65.9565051 63.5291743,66.5627619 63.5291743,67.195 C63.5291743,67.8272382 63.277614,68.4334949 62.83,68.88 C62.3799452,69.3254535 61.77322,69.5767597 61.14,69.58 C60.5093766,69.5784552 59.9051454,69.3266921 59.46,68.88 L50,59.42 L40.54,68.88 C40.0948546,69.3266921 39.4906234,69.5784552 38.86,69.58 C38.22678,69.5767597 37.6200548,69.3254535 37.17,68.88 C36.7193126,68.4331 36.4657983,67.8246958 36.4657983,67.19 C36.4657983,66.5553042 36.7193126,65.9469001 37.17,65.5 L46.63,56.05 L37.17,46.59 C36.2394002,45.6594002 36.2394002,44.1505998 37.17,43.22 C38.1005998,42.2894002 39.6094002,42.2894002 40.54,43.22 L50,52.68 L59.46,43.22 Z M95.24,20.26 L4.75999995,20.26 L4.75999995,27.73 L95.24,27.73 L95.24,20.26 Z M12.78,23.06 C13.2991476,23.06 13.72,23.4808523 13.72,24 C13.72,24.5191476 13.2991476,24.94 12.78,24.94 C12.2608523,24.94 11.84,24.5191476 11.84,24 C11.84,23.4808523 12.2608523,23.06 12.78,23.06 Z M16.55,23.06 C17.0691476,23.06 17.49,23.4808523 17.49,24 C17.49,24.5191476 17.0691476,24.94 16.55,24.94 C16.0308523,24.94 15.61,24.5191476 15.61,24 C15.61,23.4808523 16.0308523,23.06 16.55,23.06 Z M9.66106325,23.3217747 C9.93197875,23.5898081 10.0142511,23.9948913 9.86936235,24.3473745 C9.72447364,24.6998577 9.38109984,24.9299784 8.99999996,24.93 C8.48473259,24.9300291 8.06548152,24.5152382 8.05999996,24 C8.0559457,23.6189217 8.28238095,23.2731064 8.63329439,23.1244562 C8.98420783,22.975806 9.39014775,23.0537413 9.66106325,23.3217747 Z" id="Shape" fill="#000000"></path>
    </g>
</svg>