<?xml version="1.0" encoding="UTF-8"?>
<svg width="100px" height="100px" viewBox="0 0 100 100" version="1.1" xmlns="http://www.w3.org/2000/svg" xmlns:xlink="http://www.w3.org/1999/xlink">
    <!-- Generator: Sketch 57.1 (83088) - https://sketch.com -->
    <title>solid/browser-windows-solid</title>
    <desc>Created with Sketch.</desc>
    <g id="solid/browser-windows" stroke="none" stroke-width="1" fill="none" fill-rule="evenodd">
        <path d="M82.76,44.5 L82.76,82.31 C82.76,84.6058312 80.956363,86.4812129 78.6875043,86.5945848 L78.48,86.6 L4.28999995,86.6 C1.99259784,86.5946634 0.118680171,84.7881594 0.00540978159,82.5176509 L-4.99996844e-08,82.31 L-4.99996844e-08,44.5 L82.76,44.5 Z M100,27.25 L100,65.25 C99.9946694,67.448894 98.2672546,69.2427804 96.0949208,69.3544941 L95.89,69.36 L94.67,69.36 L94.67,34.02 C94.6634594,31.8475872 94.220336,29.7002678 93.3687293,27.7051494 L93.18,27.28 L100,27.25 Z M78.48,29.74 C80.8437788,29.74 82.76,31.6562213 82.76,34.02 L82.76,39.76 L-4.99996915e-08,39.76 L-4.99996915e-08,34.02 C0.00551370716,31.6546046 1.92459813,29.74 4.28999995,29.74 L78.48,29.74 Z M14,36.36 C13.5747407,36.36 13.23,36.7047407 13.23,37.13 C13.23,37.5552592 13.5747407,37.9 14,37.9 C14.4252592,37.9 14.77,37.5552592 14.77,37.13 C14.77,36.7047407 14.4252592,36.36 14,36.36 Z M7.80999996,36.36 L7.79999996,36.36 C7.38090305,36.3707169 7.04523775,36.7107988 7.03999996,37.13 C7.03999996,37.5552592 7.3847407,37.9 7.80999996,37.9 C8.23525922,37.9 8.57999996,37.5552592 8.57999996,37.13 C8.57999996,36.7047407 8.23525922,36.36 7.80999996,36.36 Z M10.9,36.36 L10.89,36.36 C10.4725712,36.3708459 10.1398591,36.7124303 10.1399999,37.13 C10.1400263,37.4423403 10.3287312,37.7237221 10.6176901,37.8422938 C10.9066489,37.9608654 11.2386094,37.8931338 11.4580191,37.6708371 C11.6774288,37.4485404 11.7408155,37.115723 11.6184769,36.8283387 C11.4961384,36.5409544 11.2123139,36.3559436 10.9,36.36 Z M95.89,12.5 C98.088894,12.5053306 99.8827804,14.2327454 99.9944941,16.4050792 L100,16.61 L100,22.5 L89.85,22.5 C86.9224998,19.6003374 83.0003981,17.9346626 78.8914842,17.8347588 L78.48,17.83 L17.24,17.83 L17.24,16.61 C17.2453306,14.411106 18.9727454,12.6172196 21.1450792,12.5055059 L21.35,12.5 L95.89,12.5 Z" id="Shape" fill="#000000"></path>
    </g>
</svg>