<svg width="100" height="100" viewBox="0 0 100 100" fill="none" xmlns="http://www.w3.org/2000/svg">
<path d="M0 44.8119C0 31.2354 16.3647 20.5884 37.2471 20.5884C58.1294 20.5884 74.4941 31.1766 74.4941 44.8237C74.4941 58.4707 58.1294 69.059 37.2471 69.059C35.5412 69.059 33.7529 68.9766 32.0118 68.8237C28.8941 74.706 22.1529 78.2354 13.0941 78.5648H12.9412C11.2625 78.6371 9.76567 77.516 9.36287 75.8848C8.96007 74.2536 9.76303 72.5646 11.2824 71.8472C14.0694 70.4436 16.4114 68.2929 18.0471 65.6354C6.83529 61.2825 0 53.5178 0 44.8119Z" fill="black"/>
<path d="M69.4114 20.9648C87.0585 22.9413 99.9996 32.7178 99.9996 44.8119C99.9996 53.5295 93.1643 61.306 81.9643 65.6237C83.5966 68.284 85.9395 70.4354 88.729 71.8354C90.2511 72.5534 91.0545 74.2461 90.6484 75.8793C90.2422 77.5124 88.7395 78.6317 87.0585 78.5531H86.882C78.1644 78.1884 71.5996 74.8942 68.3408 69.4119C77.6467 63.4119 83.3173 54.706 83.3173 44.8119C83.3173 35.3531 78.0232 26.9413 69.4114 20.9648Z" fill="black"/>
</svg>
