<?xml version="1.0" encoding="UTF-8"?>
<svg width="100px" height="100px" viewBox="0 0 100 100" version="1.1" xmlns="http://www.w3.org/2000/svg" xmlns:xlink="http://www.w3.org/1999/xlink">
    <!-- Generator: Sketch 57.1 (83088) - https://sketch.com -->
    <title>regular/bubble-message-slash-regular</title>
    <desc>Created with Sketch.</desc>
    <g id="regular/bubble-message-slash" stroke="none" stroke-width="1" fill="none" fill-rule="evenodd">
        <path d="M97.3166001,0.960851024 C98.1660607,1.17069219 98.8293078,1.83393932 99.039149,2.6833999 C99.2489901,3.53286049 98.9708704,4.42865227 98.3168317,5.00990095 L4.01980193,99.3069307 C3.58158579,99.7529444 2.98169809,100.002898 2.3564356,100.000049 C1.73117311,100.002898 1.1312854,99.7529444 0.693069258,99.3069307 C0.250485377,98.8665398 0.00165916375,98.2679238 0.00165916375,97.6435644 C0.00165916375,97.019205 0.250485377,96.420589 0.693069258,95.9801981 L94.9900991,1.68316827 C95.5713477,1.02912959 96.4671395,0.751009859 97.3166001,0.960851024 Z M85.4257426,27.9108911 L88.6732674,24.6633663 C95.1485149,30 99.009901,36.6930693 99.009901,43.960396 C99.009901,61.3861386 76.8019802,75.5643565 49.5049505,75.5643565 C46.7732715,75.5669957 44.0433716,75.4248822 41.3267327,75.1386139 C39.4499646,79.1352546 35.3956734,84.3543646 26.6875401,86.9876656 L26.2079208,87.1287129 L42.8316832,70.5445545 C45.0495049,70.7425743 47.2970297,70.8514852 49.5445545,70.8514852 C74.2376238,70.8514852 94.3366337,58.8118812 94.3366337,43.960396 C94.3366337,38.0811451 91.134019,32.6282777 85.7854795,28.2042925 L85.4257426,27.9108911 L88.6732674,24.6633663 L85.4257426,27.9108911 Z M49.5049505,12.3465346 C56.516711,12.3189826 63.4942594,13.3017918 70.2228035,15.2633492 L71.0990099,15.5247524 L67.3267327,19.2970297 C61.5054445,17.7964257 55.5165215,17.0444831 49.5049505,17.0594059 C24.8118812,17.0594059 4.71287124,29.1089109 4.71287124,43.960396 C4.71287124,51.9890798 10.9894587,59.6621223 21.2318137,64.7444681 L21.6930693,64.970297 L18.1683168,68.4950495 C6.76237619,62.5940594 -4.99998833e-08,53.7029703 -4.99998833e-08,43.960396 C-4.99998833e-08,26.5247525 22.2079208,12.3465346 49.5049505,12.3465346 Z" id="Shape" fill="#000000"></path>
    </g>
</svg>