<?xml version="1.0" encoding="UTF-8"?>
<svg width="100px" height="100px" viewBox="0 0 100 100" version="1.1" xmlns="http://www.w3.org/2000/svg" xmlns:xlink="http://www.w3.org/1999/xlink">
    <!-- Generator: Sketch 57.1 (83088) - https://sketch.com -->
    <title>regular/bubble-message-plus-regular</title>
    <desc>Created with Sketch.</desc>
    <g id="regular/bubble-message-plus" stroke="none" stroke-width="1" fill="none" fill-rule="evenodd">
        <path d="M50,11 C77.57,11 100,25.36 100,42.97 C100,60.58 77.57,74.9 50,74.9 C47.2410043,74.9026656 44.4838054,74.759131 41.74,74.47 C39.21,79.92 32.76,87.41 16.42,88.1100847 L16.28,88.1100847 C14.7857301,88.1176181 13.4800572,87.102316 13.1193143,85.6522246 C12.7585715,84.2021332 13.4363354,82.6934065 14.76,82 C17.93,80.27 23.26,76.71 25.7,70.93 C9.77999996,65.27 -4.99996133e-08,54.71 -4.99996133e-08,42.93 C-4.99996133e-08,25.32 22.43,11 50,11 Z M50,15.76 C25.06,15.76 4.75999995,28 4.75999995,42.93 C4.75999995,53 14.44,62.44 29.41,67.12 L31.59,67.79 L31,70 C29.5560643,74.9992101 26.5579291,79.4088506 22.44,82.59 C28.55,81.38 35.43,78.36 38,71.07 L38.61,69.25 L40.53,69.49 C43.6704173,69.8951889 46.8335512,70.0989388 50,70.1 C74.94,70.1 95.24,57.86 95.24,42.93 C95.24,28 74.94,15.76 50,15.76 Z M50,27.6200001 C51.3144377,27.6200001 52.3799999,28.6855623 52.38,30 L52.38,40.55 L62.9,40.55 C63.7502921,40.55 64.5359945,41.0036254 64.9611406,41.74 C65.3862866,42.4763745 65.3862866,43.3836254 64.9611406,44.1200001 C64.5359945,44.8563746 63.7502921,45.31 62.9,45.31 L52.38,45.31 L52.38,55.83 C52.38,57.1444377 51.3144377,58.21 50,58.21 C48.6855623,58.21 47.62,57.1444377 47.62,55.83 L47.62,45.31 L37.1,45.31 C35.7855623,45.31 34.72,44.2444377 34.72,42.93 C34.72,41.6155623 35.7855623,40.55 37.1,40.55 L47.62,40.55 L47.62,30 C47.6200001,28.6855623 48.6855623,27.6200001 50,27.6200001 Z" id="Shape" fill="#000000"></path>
    </g>
</svg>