<svg width="100" height="100" viewBox="0 0 100 100" fill="none" xmlns="http://www.w3.org/2000/svg">
<g clip-path="url(#clip0)">
<path d="M0.859307 99.1411C1.41122 99.6934 2.16082 100.003 2.94166 99.9999C3.7225 100.003 4.4721 99.6934 5.02401 99.1411L99.1417 5.02341C99.8856 4.27945 100.176 3.19512 99.9039 2.17886C99.6315 1.1626 98.8378 0.368811 97.8215 0.0965056C96.8052 -0.1758 95.7209 0.114747 94.977 0.8587L0.859307 94.9763C-0.279925 96.1309 -0.279925 97.9865 0.859307 99.1411Z" fill="black"/>
<path d="M20.5294 69.4942L24.9882 65.0236C13.2353 60.1295 5.88235 52.0001 5.88235 43.5295C5.88235 28.9883 25.6706 17.2119 50 17.2119C56.7698 17.1805 63.5078 18.1397 70 20.0589L74.5765 15.4825C66.6873 12.6829 58.371 11.2777 50 11.3295C22.4353 11.3295 0 25.753 0 43.5295C0 54.0001 7.69412 63.5295 20.5294 69.4942Z" fill="black"/>
<path d="M87.6348 22.353L83.5289 26.4471C90.1172 31.0354 94.1172 37.0354 94.1172 43.4707C94.1172 57.953 74.3289 69.7295 49.9995 69.7295C46.9354 69.7335 43.8743 69.5409 40.8348 69.153L36.4701 73.5766C35.1425 75.8121 33.2733 77.6773 31.0348 79.0001L21.8701 88.1648C28.6348 87.1177 37.976 84.0589 42.2584 75.2236C44.8348 75.4707 47.4466 75.6001 50.0583 75.6001C77.5642 75.6118 99.9995 61.1766 99.9995 43.5295C99.9995 35.3883 95.2936 28.0001 87.6348 22.353Z" fill="black"/>
</g>
<defs>
<clipPath id="clip0">
<rect width="100" height="100" fill="white"/>
</clipPath>
</defs>
</svg>
