<?xml version="1.0" encoding="UTF-8"?>
<svg width="100px" height="100px" viewBox="0 0 100 100" version="1.1" xmlns="http://www.w3.org/2000/svg" xmlns:xlink="http://www.w3.org/1999/xlink">
    <!-- Generator: Sketch 57.1 (83088) - https://sketch.com -->
    <title>solid/bubbles-message-solid</title>
    <desc>Created with Sketch.</desc>
    <g id="solid/bubbles-message" stroke="none" stroke-width="1" fill="none" fill-rule="evenodd">
        <path d="M75.4,22.35 C89.87,25.59 100,34.35 100,44.92 C100,53.63 93,61.43 81.5,65.66 C83.1746555,68.7436482 85.758451,71.2366616 88.9,72.8 C90.1407507,73.4353072 90.78044,74.8415425 90.4440435,76.194286 C90.107647,77.5470294 88.8838019,78.4898461 87.49,78.4706056 L87.35,78.4706056 C79.81,78.15 73.91,75.64 70.41,71.41 C80.09,64.92 86.09,55.52 86.09,44.92 C86.09,36.29 82.11,28.47 75.4,22.35 Z M37.09,21 C57.9,21 74.19,31.5 74.19,44.92 C74.19,58.34 57.9,68.84 37.09,68.84 C35.21,68.84 33.32,68.75 31.46,68.57 C28.48,74.47 21.75,78.08 12.65,78.4706056 L12.51,78.4706056 C11.1161981,78.4898461 9.89235301,77.5470294 9.5559565,76.194286 C9.21955998,74.8415425 9.8592493,73.4353072 11.1,72.8 C14.241549,71.2366616 16.8253445,68.7436482 18.5,65.66 C6.99999995,61.43 -4.99991728e-08,53.63 -4.99991728e-08,44.92 C-4.99991728e-08,31.51 16.29,21 37.09,21 Z" id="Shape" fill="#000000"></path>
    </g>
</svg>