<svg width="100" height="100" viewBox="0 0 100 100" fill="none" xmlns="http://www.w3.org/2000/svg">
<g clip-path="url(#clip0)">
<path fill-rule="evenodd" clip-rule="evenodd" d="M9.35127 75.8911C9.75741 77.5242 11.2601 78.6434 12.9412 78.5648H13.1059C22.1529 78.2237 28.8941 74.6943 32.0235 68.8119C33.7176 68.9649 35.4941 69.0472 37.2471 69.0472C58.1294 69.0472 74.4941 58.3884 74.4941 44.8119C74.4941 31.2354 58.1294 20.5884 37.2471 20.5884C16.3647 20.5884 0 31.2354 0 44.8119C0 53.5296 6.83529 61.306 18.0353 65.6354C16.4031 68.2957 14.0601 70.4472 11.2706 71.8472C9.74854 72.5652 8.94512 74.2579 9.35127 75.8911ZM5.88235 44.8119C5.88235 34.8707 20.2471 26.4707 37.2471 26.4707C54.2471 26.4707 68.6235 34.859 68.6235 44.8119C68.6235 54.7649 54.2588 63.1648 37.2588 63.1648C35.0285 63.1667 32.8004 63.0252 30.5882 62.7413L28.2353 62.4354L27.3765 64.6825C26.3758 67.3874 24.3151 69.5671 21.6706 70.7178C23.0796 68.9098 24.1118 66.8376 24.7059 64.6237L25.4824 61.8943L22.7882 61.059C12.5176 57.8707 5.88235 51.4943 5.88235 44.8119Z" fill="black"/>
<path d="M62.753 20.5884C83.6354 20.5884 100 31.2354 100 44.8119C100 53.5296 93.1648 61.306 81.9648 65.6354C83.6004 68.2929 85.9425 70.4436 88.7295 71.8472C90.2516 72.5652 91.055 74.2579 90.6488 75.8911C90.2427 77.5242 88.74 78.6434 87.0589 78.5648H86.906C77.8589 78.2237 71.1178 74.6943 67.9883 68.8119C66.2942 68.9649 64.5178 69.0472 62.7648 69.0472C61.5883 69.0472 60.4119 69.0119 59.2354 68.9413C62.9583 67.3996 66.4253 65.3011 69.5177 62.7178L71.7648 62.4354L72.6236 64.6825C73.6243 67.3874 75.685 69.5671 78.3295 70.7178C76.9205 68.9098 75.8883 66.8376 75.2942 64.6237L74.5177 61.8943L77.2119 61.059C87.4825 57.8707 94.1178 51.4943 94.1178 44.8119C94.1178 36.2354 83.4119 28.8237 69.5177 26.9296C66.4216 24.3422 62.9507 22.2398 59.2236 20.6943C60.4001 20.5884 61.5766 20.5884 62.753 20.5884Z" fill="black"/>
</g>
<defs>
<clipPath id="clip0">
<rect width="100" height="100" fill="white"/>
</clipPath>
</defs>
</svg>
