<?xml version="1.0" encoding="UTF-8"?>
<svg width="100px" height="100px" viewBox="0 0 100 100" version="1.1" xmlns="http://www.w3.org/2000/svg" xmlns:xlink="http://www.w3.org/1999/xlink">
    <!-- Generator: Sketch 57.1 (83088) - https://sketch.com -->
    <title>solid/bubble-message-check-solid</title>
    <desc>Created with Sketch.</desc>
    <g id="solid/bubble-message-check" stroke="none" stroke-width="1" fill="none" fill-rule="evenodd">
        <path d="M50,11 C22.43,11 -4.9999997e-08,25.32 -4.9999997e-08,42.93 C-4.9999997e-08,54.71 9.77999996,65.27 25.7,70.93 C23.26,76.71 17.93,80.27 14.76,82 C13.4363354,82.6934065 12.7585715,84.2021332 13.1193143,85.6522246 C13.4800572,87.102316 14.7857301,88.1176181 16.28,88.1100426 L16.42,88.1100426 C32.77,87.41 39.21,79.92 41.74,74.47 C44.4838054,74.759131 47.2410043,74.9026656 50,74.9 C77.57,74.9 100,60.58 100,42.97 C100,25.36 77.57,11 50,11 Z M69,32.24 L44.73,56.55 C43.2190155,58.0593258 40.7709845,58.0593258 39.26,56.55 L31,48.26 C30.0694002,47.3294002 30.0694002,45.8205998 31,44.89 C31.9305998,43.9594002 33.4394002,43.9594002 34.37,44.89 L42,52.55 L65.66,28.88 C66.6084655,28.104441 67.9907561,28.1756527 68.8545029,29.0445715 C69.7182496,29.9134904 69.7812076,31.2961816 69,32.24 Z" id="bubble-message-check" fill="#000000"></path>
    </g>
</svg>