<?xml version="1.0" encoding="UTF-8"?>
<svg width="100px" height="100px" viewBox="0 0 100 100" version="1.1" xmlns="http://www.w3.org/2000/svg" xmlns:xlink="http://www.w3.org/1999/xlink">
    <!-- Generator: Sketch 57.1 (83088) - https://sketch.com -->
    <title>bold/bubble-message-slash-bold</title>
    <desc>Created with Sketch.</desc>
    <g id="bold/bubble-message-slash" stroke="none" stroke-width="1" fill="none" fill-rule="evenodd">
        <path d="M95.7418633,1.00282863 C97.3413469,1.40970521 98.5902948,2.65865313 98.9971714,4.25813665 C99.4040479,5.85762017 98.9037096,7.55155149 97.6930694,8.67326729 L7.68316827,98.6831684 C6.84152954,99.5280383 5.69749258,100.002047 4.50495045,100.000013 C2.68557385,99.9981396 1.04590701,98.9020803 0.348607404,97.2216315 C-0.348692199,95.5411828 0.0332698147,93.6062517 1.31683163,92.3168317 L91.3267327,2.30693065 C92.4484485,1.09629042 94.1423798,0.595952053 95.7418633,1.00282863 Z M83.8613862,32.0495049 L90.2772278,25.6336633 C95.7920793,30.8712871 99.009901,37.2673267 99.009901,44.2475247 C99.009901,62.4356436 77.2277228,76.6831683 49.5049505,76.6831683 C47.3366337,76.6831683 45.1584158,76.5841584 43.009901,76.4059406 C40.1910891,81.4257426 35.3674938,85.1278466 29.0254868,87.2185941 L28.5346534,87.3762377 L48.2574257,67.6831683 L49.5049505,67.6831683 C71.4653466,67.6831683 90.009901,56.9504951 90.009901,44.2475247 C90.009901,39.948232 87.8702849,35.8638351 84.1900919,32.3573882 L83.8613862,32.0495049 L90.2772278,25.6336633 L83.8613862,32.0495049 Z M68.6815385,14.2356515 L69.5742574,14.4752475 L62.059406,21.990099 C57.9223963,21.1911141 53.7184076,20.7899448 49.5049505,20.7920792 C27.5445544,20.7920792 8.99999995,31.5544554 8.99999995,44.2475247 C8.99999995,50.6908877 13.9371951,56.9141819 22.0996871,61.3371936 L22.5247524,61.5643564 L15.8910891,68.1980198 C5.86138609,62.1881188 -4.99992723e-08,53.6237624 -4.99992723e-08,44.2475247 C-4.99992723e-08,26.0693069 21.7821782,11.8217821 49.5049505,11.8217821 C55.9764269,11.7859319 62.4233905,12.5977961 68.6815385,14.2356515 L68.6815385,14.2356515 Z" id="Shape" fill="#000000"></path>
    </g>
</svg>