<svg width="100" height="100" viewBox="0 0 100 100" fill="none" xmlns="http://www.w3.org/2000/svg">
<path d="M53.047 49.4468L53.2234 27.4351H46.7764L46.9528 49.4468H53.047Z" fill="black"/>
<path d="M46.8285 54.4583C47.3621 53.1794 48.6141 52.3483 49.9998 52.353C51.886 52.3596 53.4116 53.8904 53.4116 55.7766C53.4116 57.1624 52.5762 58.4114 51.2955 58.9406C50.0147 59.4698 48.5413 59.1748 47.5631 58.1932C46.5849 57.2116 46.2949 55.7372 46.8285 54.4583Z" fill="black"/>
<path fill-rule="evenodd" clip-rule="evenodd" d="M16.6706 88.5174C14.9291 88.5121 13.4141 87.3236 12.9944 85.6334C12.5746 83.9432 13.3575 82.184 14.8941 81.3645C17.8588 79.7998 22.7529 76.541 25.1882 71.2822C9.57647 65.5998 0 55.0704 0 43.3174C0 25.5998 22.4353 11.1763 50 11.1763C77.5647 11.1763 100 25.5998 100 43.3174C100 61.0351 77.5765 75.4586 50 75.4586C47.3882 75.4586 44.7765 75.3292 42.2 75.0704C36.7059 86.4704 22.8235 88.2586 16.8471 88.5174H16.6706ZM50 17.0586C25.6706 17.0586 5.88235 28.8233 5.88235 43.3174C5.88235 52.9645 15.2941 62.141 29.8471 66.6351L32.5412 67.4704L31.7647 70.1998C30.5561 74.503 28.1681 78.3824 24.8706 81.3998C30.0941 79.9645 35.3882 76.988 37.5176 70.9292L38.3059 68.6822L40.6588 68.988C43.7374 69.3799 46.8377 69.5763 49.9412 69.5763C74.2706 69.5763 94.0588 57.8116 94.0588 43.3174C94.0588 28.8233 74.3294 17.0586 50 17.0586Z" fill="black"/>
</svg>
