<?xml version="1.0" encoding="UTF-8"?>
<svg width="100px" height="100px" viewBox="0 0 100 100" version="1.1" xmlns="http://www.w3.org/2000/svg" xmlns:xlink="http://www.w3.org/1999/xlink">
    <!-- Generator: Sketch 57.1 (83088) - https://sketch.com -->
    <title>bold/bubble-message-check-bold</title>
    <desc>Created with Sketch.</desc>
    <g id="bold/bubble-message-check" stroke="none" stroke-width="1" fill="none" fill-rule="evenodd">
        <path d="M50,10.5 C78,10.5 100,24.89 100,43.25 C100,61.61 78,76 50,76 C47.81,76 45.61,75.91 43.44,75.73 C39.11,83.5 30.07,88.09 18.05,88.61 L17.81,88.61 C15.3458794,88.6082817 13.1991389,86.9297448 12.6031713,84.5387793 C12.0072036,82.1478138 13.114965,79.6580658 15.29,78.5 C18.6403708,76.7976865 21.5032723,74.2720017 23.61,71.16 C8.91999996,65.27 -4.99996062e-08,54.87 -4.99996062e-08,43.25 C-4.99996062e-08,24.89 22,10.5 50,10.5 Z M50,19.59 C27.82,19.59 9.08999996,30.43 9.08999996,43.25 C9.08999996,51.81 17.7,60.01 31.03,64.15 L35.2,65.44 L34.08,69.66 C33.5259248,71.7384066 32.6809027,73.7280803 31.57,75.57 C33.7991844,74.0664671 35.4855802,71.8857224 36.38,69.35 L37.6,65.88 L41.25,66.35 C44.1516888,66.7236044 47.0743585,66.9106553 50,66.91 C72.18,66.91 90.91,56.08 90.91,43.25 C90.91,30.42 72.18,19.59 50,19.59 Z M67.819282,26.8828569 C69.4347603,27.2938023 70.6961977,28.5552397 71.1071431,30.170718 C71.5180884,31.7861964 71.0127466,33.497067 69.79,34.63 L46.59,57.83 C45.4750229,58.9642802 43.9505221,59.6021919 42.36,59.6000112 C40.7790287,59.5986266 39.2624894,58.9733237 38.14,57.86 L30.23,49.94 C28.4516431,48.1644045 28.4494045,45.2833569 30.225,43.505 C32.0005955,41.7266431 34.8816431,41.7244045 36.66,43.5 L42.36,49.2 L63.36,28.2 C64.492933,26.9772533 66.2038036,26.4719116 67.819282,26.8828569 Z" id="Shape" fill="#000000"></path>
    </g>
</svg>