<?xml version="1.0" encoding="UTF-8"?>
<svg width="100px" height="100px" viewBox="0 0 100 100" version="1.1" xmlns="http://www.w3.org/2000/svg" xmlns:xlink="http://www.w3.org/1999/xlink">
    <!-- Generator: Sketch 57.1 (83088) - https://sketch.com -->
    <title>solid/bubble-message-dots-solid</title>
    <desc>Created with Sketch.</desc>
    <g id="solid/bubble-message-dots" stroke="none" stroke-width="1" fill="none" fill-rule="evenodd">
        <path d="M50,11 C22.43,11 -4.9999997e-08,25.32 -4.9999997e-08,42.93 C-4.9999997e-08,54.71 9.77999996,65.27 25.7,70.93 C23.26,76.71 17.93,80.27 14.76,82 C13.4363354,82.6934065 12.7585715,84.2021332 13.1193143,85.6522246 C13.4800572,87.102316 14.7857301,88.1176181 16.28,88.1100426 L16.42,88.1100426 C32.77,87.41 39.21,79.92 41.74,74.47 C44.4838054,74.759131 47.2410043,74.9026656 50,74.9 C77.57,74.9 100,60.58 100,42.97 C100,25.36 77.57,11 50,11 Z M37.62,47.69 C35.6947597,47.69 33.959091,46.5302632 33.2223334,44.7515731 C32.4855758,42.972883 32.8928212,40.9255222 34.2541717,39.5641717 C35.6155222,38.2028212 37.662883,37.7955759 39.4415731,38.5323334 C41.2202632,39.269091 42.38,41.0047597 42.38,42.93 C42.38,45.5588754 40.2488754,47.69 37.62,47.69 Z M50,47.69 C47.3711246,47.69 45.24,45.5588754 45.24,42.93 C45.24,40.3011246 47.3711246,38.17 50,38.17 C52.6288754,38.17 54.76,40.3011246 54.76,42.93 C54.76,45.5588754 52.6288754,47.69 50,47.69 Z M62.38,47.69 C59.7511246,47.69 57.62,45.5588754 57.62,42.93 C57.62,40.3011246 59.7511246,38.17 62.38,38.17 C65.0088754,38.17 67.14,40.3011246 67.14,42.93 C67.14,45.5588754 65.0088754,47.69 62.38,47.69 Z" id="bubble-message-dots" fill="#000000"></path>
    </g>
</svg>