<svg width="100" height="100" viewBox="0 0 100 100" fill="none" xmlns="http://www.w3.org/2000/svg">
<path d="M42.3529 56.7292C43.1894 57.5707 44.3311 58.0376 45.5176 58.0233L45.7882 58.0116C47.0531 57.9371 48.2242 57.3194 48.9999 56.3174L66.9058 33.3645C67.9064 32.0845 67.6799 30.2357 66.3999 29.2351C65.1199 28.2345 63.2711 28.461 62.2705 29.741L45.3764 51.3645L37.494 43.4821C36.344 42.3321 34.4794 42.3321 33.3293 43.4821C32.1793 44.6322 32.1793 46.4968 33.3293 47.6469L42.3529 56.7292Z" fill="black"/>
<path fill-rule="evenodd" clip-rule="evenodd" d="M12.9944 85.6334C13.4141 87.3236 14.9291 88.5121 16.6706 88.5174H16.8471C22.8235 88.2586 36.7059 86.4704 42.2 75.0704C44.7765 75.3292 47.3882 75.4586 50 75.4586C77.5647 75.4586 100 61.0351 100 43.3174C100 25.5998 77.5647 11.1763 50 11.1763C22.4353 11.1763 0 25.5998 0 43.3174C0 55.0704 9.57647 65.5998 25.1882 71.2822C22.7529 76.541 17.8588 79.7998 14.8941 81.3645C13.3575 82.184 12.5746 83.9432 12.9944 85.6334ZM5.88235 43.3174C5.88235 28.8233 25.6706 17.0586 50 17.0586C74.3294 17.0586 94.0588 28.8233 94.0588 43.3174C94.0588 57.8116 74.2706 69.5763 49.9412 69.5763C46.8377 69.5763 43.7374 69.3799 40.6588 68.988L38.3059 68.6822L37.5176 70.9292C35.3882 76.988 30.0941 79.9645 24.8706 81.3998C28.1681 78.3824 30.5561 74.503 31.7647 70.1998L32.5412 67.4704L29.8471 66.6351C15.2941 62.141 5.88235 52.9645 5.88235 43.3174Z" fill="black"/>
</svg>
