<?xml version="1.0" encoding="UTF-8"?>
<svg width="100px" height="100px" viewBox="0 0 100 100" version="1.1" xmlns="http://www.w3.org/2000/svg" xmlns:xlink="http://www.w3.org/1999/xlink">
    <!-- Generator: Sketch 57.1 (83088) - https://sketch.com -->
    <title>regular/bubble-message-lines-regular</title>
    <desc>Created with Sketch.</desc>
    <g id="regular/bubble-message-lines" stroke="none" stroke-width="1" fill="none" fill-rule="evenodd">
        <path d="M50,11 C77.57,11 100,25.36 100,42.97 C100,60.58 77.57,74.9 50,74.9 C47.2410043,74.9026656 44.4838054,74.759131 41.74,74.47 C39.2375,79.8607609 32.8997542,87.247415 16.9493283,88.0848198 L16.42,88.1100847 L16.28,88.1100847 C14.7857301,88.1176181 13.4800572,87.102316 13.1193143,85.6522246 C12.7585715,84.2021332 13.4363354,82.6934065 14.76,82 C17.93,80.27 23.26,76.71 25.7,70.93 C9.77999996,65.27 -4.99996133e-08,54.71 -4.99996133e-08,42.93 C-4.99996133e-08,25.32 22.43,11 50,11 Z M50,15.76 C25.06,15.76 4.75999995,28 4.75999995,42.93 C4.75999995,52.8905435 14.2307088,62.2347082 28.9237284,66.9657095 L29.41,67.12 L31.59,67.79 L31,70 C29.5560643,74.9992101 26.5579291,79.4088506 22.44,82.59 C28.442807,81.4012281 35.1888335,78.4654078 37.8607846,71.4497548 L38,71.07 L38.61,69.25 L40.53,69.49 C43.6704173,69.8951889 46.8335512,70.0989388 50,70.1 C74.94,70.1 95.24,57.86 95.24,42.93 C95.24,28 74.94,15.76 50,15.76 Z M37.1,48.88 L54.4,48.88 C55.2502921,48.88 56.0359945,49.3336254 56.4611406,50.07 C56.8862866,50.8063745 56.8862866,51.7136255 56.4611406,52.45 C56.0643375,53.137283 55.35345,53.57826 54.5691095,53.6340023 L54.4,53.64 L37.1,53.64 C35.7855623,53.64 34.7200001,52.5744377 34.7200001,51.26 C34.7200001,50.0003306 35.6986154,48.9692289 36.9370506,48.8854907 L37.1,48.88 L54.4,48.88 L37.1,48.88 Z M50,40.55 C50.8502921,40.55 51.6359945,41.0036254 52.0611405,41.74 C52.4862866,42.4763745 52.4862866,43.3836254 52.0611405,44.12 C51.6643375,44.807283 50.95345,45.2482599 50.1691095,45.3040023 L50,45.31 L37.1,45.31 C35.7855623,45.31 34.72,44.2444377 34.72,42.93 C34.72,41.6703305 35.6986154,40.6392289 36.9370506,40.5554907 L37.1,40.55 L50,40.55 Z M62.9,32.22 C64.2144377,32.22 65.28,33.2855623 65.28,34.6 C65.28,35.9144377 64.2144377,36.98 62.9,36.98 L37.1,36.98 C35.7855623,36.98 34.7200001,35.9144377 34.7200001,34.6 C34.7200001,33.2855623 35.7855623,32.22 37.1,32.22 L62.9,32.22 Z" id="Shape" fill="#000000"></path>
    </g>
</svg>