<svg width="100" height="100" viewBox="0 0 100 100" fill="none" xmlns="http://www.w3.org/2000/svg">
<path d="M0.497142 95.9667C1.50729 98.4062 3.88672 99.9977 6.52717 100C8.25918 99.9985 9.91969 99.3092 11.1436 98.0838L98.2467 10.9856C100.645 8.41179 100.574 4.40092 98.0866 1.91329C95.5988 -0.574339 91.5878 -0.645106 89.0138 1.75322L1.91071 88.8514C0.0447869 90.7196 -0.513003 93.5272 0.497142 95.9667Z" fill="black"/>
<path d="M18.7541 65.8464L68.1198 16.4835C62.2366 14.9047 56.1699 14.1139 50.0786 14.1315C24.5683 14.1315 3.80506 27.4796 3.80506 43.8759C3.80506 52.455 9.3361 60.3265 18.7541 65.8464Z" fill="black"/>
<path d="M88.2847 27.1204L32.5932 82.798C37.0318 80.9309 40.6655 77.552 42.8496 73.2607C45.234 73.5002 47.662 73.62 50.0791 73.62C75.5894 73.62 96.3526 60.2831 96.3526 43.8759C96.3526 37.6593 93.3693 31.889 88.2847 27.1204Z" fill="black"/>
</svg>
