<svg width="100" height="100" viewBox="0 0 100 100" fill="none" xmlns="http://www.w3.org/2000/svg">
<path d="M16.6706 88.5177C14.9291 88.5123 13.4141 87.3238 12.9944 85.6336C12.5746 83.9435 13.3575 82.1843 14.8941 81.3647C17.8588 79.8 22.7529 76.5412 25.1882 71.2824C9.57647 65.6 0 55.0706 0 43.3177C0 25.6 22.4353 11.1765 50 11.1765C77.5647 11.1765 100 25.6 100 43.3177C100 61.0353 77.5647 75.4589 50 75.4589C47.3882 75.4589 44.7765 75.3295 42.2 75.0706C36.7059 86.4706 22.8235 88.2589 16.8471 88.5177H16.6706ZM50 17.0589C25.6706 17.0589 5.88235 28.8236 5.88235 43.3177C5.88235 52.9648 15.2941 62.1412 29.8471 66.6353L32.5412 67.4706L31.7647 70.2C30.5561 74.5032 28.1681 78.3827 24.8706 81.4C30.0941 79.9647 35.3882 76.9883 37.5176 70.9295L38.3059 68.6824L40.6588 68.9883C43.7374 69.3801 46.8377 69.5766 49.9412 69.5765C74.2706 69.5765 94.0588 57.8118 94.0588 43.3177C94.0588 28.8236 74.3294 17.0589 50 17.0589Z" fill="black"/>
</svg>
