<?xml version="1.0" encoding="UTF-8"?>
<svg width="100px" height="100px" viewBox="0 0 100 100" version="1.1" xmlns="http://www.w3.org/2000/svg" xmlns:xlink="http://www.w3.org/1999/xlink">
    <!-- Generator: Sketch 57.1 (83088) - https://sketch.com -->
    <title>bold/bubbles-message-bold</title>
    <desc>Created with Sketch.</desc>
    <g id="bold/bubbles-message" stroke="none" stroke-width="1" fill="none" fill-rule="evenodd">
        <path d="M65.63,20.1 C85.15,21.18 100,31.77 100,45.11 C100,53.7 93.78,61.4 83.46,66 C84.7861066,67.5385083 86.3952232,68.8081487 88.2,69.74 C90.2895055,70.8478816 91.355847,73.2365207 90.7855807,75.5317835 C90.2153144,77.8270463 88.1550442,79.4388673 85.79,79.44 L85.56,79.44 C76.69,79.11 69.93,75.72 66.43,70.11 L65.64,70.11 C70.8054985,67.2831628 75.1790584,63.2052995 78.36,58.25 C86.06,55.22 90.91,50.24 90.91,45.11 C90.91,39.72 85.87,34.86 78.35,31.94 C75.1654885,26.9928481 70.792379,22.9222807 65.63,20.1 Z M37.68,20 C58.81,20 75.36,31 75.36,45.11 C75.36,59.22 58.81,70.21 37.68,70.21 C36.31,70.21 34.93,70.21 33.57,70.07 C30.07,75.68 23.31,79.07 14.44,79.4 L14.21,79.41 C11.8449558,79.4088673 9.78468563,77.7970463 9.21441931,75.5017835 C8.64415298,73.2065207 9.71049445,70.8178816 11.8,69.71 C13.6022056,68.787037 15.2111403,67.5277231 16.54,66 C6.21999996,61.4 -4.99993362e-08,53.7 -4.99993362e-08,45.11 C-4.99993362e-08,31 16.55,20 37.68,20 Z M37.68,29.12 C22.18,29.12 9.08999996,36.46 9.08999996,45.12 C9.08999996,50.8 15.03,56.32 24.22,59.12 L27.8,60.24 L27.81,60.25 L31.46,60.73 C33.5230156,60.9912369 35.6005107,61.1214978 37.68,61.1200253 C53.18,61.1200253 66.27,53.79 66.27,45.12 C66.27,36.45 53.18,29.12 37.68,29.12 Z" id="Shape" fill="#000000"></path>
    </g>
</svg>