<?xml version="1.0" encoding="UTF-8"?>
<svg width="100px" height="100px" viewBox="0 0 100 100" version="1.1" xmlns="http://www.w3.org/2000/svg" xmlns:xlink="http://www.w3.org/1999/xlink">
    <!-- Generator: Sketch 57.1 (83088) - https://sketch.com -->
    <title>regular/bubble-message-check-regular</title>
    <desc>Created with Sketch.</desc>
    <g id="regular/bubble-message-check" stroke="none" stroke-width="1" fill="none" fill-rule="evenodd">
        <path d="M50,11 C77.57,11 100,25.32 100,42.93 C100,60.54 77.57,74.86 50,74.86 C47.2410043,74.8626656 44.4838054,74.719131 41.74,74.43 C39.21,79.88 32.74,87.37 16.42,88.07 L16.28,88.07 C14.8150572,88.0443723 13.5496211,87.0388122 13.193715,85.6175294 C12.8378089,84.1962466 13.4800158,82.71299 14.76,82 C17.93,80.31 23.26,76.75 25.7,70.92 C9.77999996,65.27 -4.99996062e-08,54.71 -4.99996062e-08,42.93 C-4.99996062e-08,25.32 22.43,11 50,11 Z M50,15.76 C25.06,15.76 4.75999995,28 4.75999995,42.93 C4.75999995,52.93 14.44,62.44 29.43,67.1 L31.61,67.77 L31,70 C29.5492003,75.0118437 26.5362688,79.429642 22.4,82.61 C28.51,81.4 35.4,78.38 37.96,71.09 L38.59,69.27 L40.51,69.51 C43.6574662,69.9093548 46.8273061,70.106426 50,70.1 C74.94,70.1 95.24,57.91 95.24,42.93 C95.24,27.95 74.94,15.76 50,15.76 Z M68.8545029,29.0445715 C69.7182496,29.9134904 69.7812076,31.2961816 69,32.24 L44.73,56.55 C44.0071304,57.2756952 43.0242889,57.6825124 42,57.6800478 C40.9754911,57.6836281 39.9922368,57.27664 39.27,56.55 L31,48.26 C30.0694002,47.3294002 30.0694002,45.8205998 31,44.89 C31.9305998,43.9594002 33.4394002,43.9594002 34.37,44.89 L42,52.55 L65.66,28.88 C66.6084655,28.104441 67.9907561,28.1756527 68.8545029,29.0445715 Z" id="Shape" fill="#000000"></path>
    </g>
</svg>