<?xml version="1.0" encoding="UTF-8"?>
<svg width="100px" height="100px" viewBox="0 0 100 100" version="1.1" xmlns="http://www.w3.org/2000/svg" xmlns:xlink="http://www.w3.org/1999/xlink">
    <!-- Generator: Sketch 57.1 (83088) - https://sketch.com -->
    <title>solid/bubble-message-lines-solid</title>
    <desc>Created with Sketch.</desc>
    <g id="solid/bubble-message-lines" stroke="none" stroke-width="1" fill="none" fill-rule="evenodd">
        <path d="M50,11 C22.43,11 -4.9999997e-08,25.32 -4.9999997e-08,42.93 C-4.9999997e-08,54.71 9.77999996,65.27 25.7,70.93 C23.26,76.71 17.93,80.27 14.76,82 C13.4363354,82.6934065 12.7585715,84.2021332 13.1193143,85.6522246 C13.4800572,87.102316 14.7857301,88.1176181 16.28,88.1100426 L16.42,88.1100426 C32.77,87.41 39.21,79.92 41.74,74.47 C44.4838054,74.759131 47.2410043,74.9026656 50,74.9 C77.57,74.9 100,60.58 100,42.97 C100,25.36 77.57,11 50,11 Z M54.4,53.64 L37.1,53.64 C35.7855623,53.64 34.7200001,52.5744377 34.7200001,51.26 C34.7200001,49.9455623 35.7855623,48.88 37.1,48.88 L54.4,48.88 C55.2502921,48.88 56.0359945,49.3336254 56.4611406,50.07 C56.8862866,50.8063745 56.8862866,51.7136255 56.4611406,52.45 C56.0359945,53.1863746 55.2502921,53.64 54.4,53.64 Z M34.7199788,42.93 C34.7173275,42.2979693 34.9672185,41.6910529 35.4141357,41.2441357 C35.8610529,40.7972185 36.4679693,40.5473275 37.1,40.5499788 L50,40.5499788 C51.3144377,40.5499788 52.38,41.6155623 52.38,42.93 C52.38,44.2444377 51.3144377,45.31 50,45.31 L37.1,45.31 C35.7855623,45.31 34.7199788,44.2444377 34.7199788,42.93 Z M62.9,37 L37.1,37 C35.7855623,37 34.72,35.9344377 34.72,34.62 C34.72,33.3055623 35.7855623,32.24 37.1,32.24 L62.9,32.24 C64.2144377,32.24 65.28,33.3055623 65.28,34.62 C65.28,35.9344377 64.2144377,37 62.9,37 L62.9,37 Z" id="bubble-message-lines" fill="#000000"></path>
    </g>
</svg>