<?xml version="1.0" encoding="UTF-8"?>
<svg width="100px" height="100px" viewBox="0 0 100 100" version="1.1" xmlns="http://www.w3.org/2000/svg" xmlns:xlink="http://www.w3.org/1999/xlink">
    <!-- Generator: Sketch 57.1 (83088) - https://sketch.com -->
    <title>solid/bubble-message-exclamation-solid</title>
    <desc>Created with Sketch.</desc>
    <g id="solid/bubble-message-exclamation" stroke="none" stroke-width="1" fill="none" fill-rule="evenodd">
        <path d="M50,11 C22.43,11 -4.9999997e-08,25.32 -4.9999997e-08,42.93 C-4.9999997e-08,54.71 9.77999996,65.27 25.7,70.93 C23.26,76.71 17.93,80.27 14.76,82 C13.4363354,82.6934065 12.7585715,84.2021332 13.1193143,85.6522246 C13.4800572,87.102316 14.7857301,88.1176181 16.28,88.1100426 L16.42,88.1100426 C32.77,87.41 39.21,79.92 41.74,74.47 C44.4838054,74.759131 47.2410043,74.9026656 50,74.9 C77.57,74.9 100,60.58 100,42.97 C100,25.36 77.57,11 50,11 Z M47.62,26.19 C47.62,24.8755623 48.6855623,23.81 50,23.81 C51.3144377,23.81 52.38,24.8755623 52.38,26.19 L52.38,54.53 C52.38,55.8444377 51.3144377,56.91 50,56.91 C48.6855623,56.91 47.62,55.8444377 47.62,54.53 L47.62,26.19 Z M50,62.39 C48.6868666,62.39 47.6218547,61.3264515 47.620021,60.0133193 C47.6181919,58.7001872 48.6802331,57.6336837 49.9933613,57.6299998 C51.3064896,57.6263349 52.3744826,58.6868782 52.380021,60 C52.3826595,60.6329461 52.1330847,61.2408806 51.6864596,61.6893823 C51.2398344,62.1378841 50.6329517,62.39 50,62.39 L50,62.39 Z" id="bubble-message-exclamation" fill="#000000"></path>
    </g>
</svg>