<svg width="100" height="100" viewBox="0 0 100 100" fill="none" xmlns="http://www.w3.org/2000/svg">
<path d="M50 11.1765C22.4353 11.1765 0 25.6 0 43.3177C0 55.0824 9.56471 65.6 25.1882 71.2706C22.7529 76.5412 17.8588 79.8 14.8941 81.3647C13.3556 82.1853 12.5729 83.9477 12.9958 85.6393C13.4187 87.331 14.9387 88.5177 16.6824 88.5177H16.8471C29.1647 87.9883 38.2471 83.1295 42.1882 75.0706C44.7647 75.3295 47.3882 75.4589 50 75.4589C77.5647 75.4589 100 61.0471 100 43.3177C100 25.5883 77.5647 11.1765 50 11.1765ZM54.0118 53.8589H38.2353C36.6109 53.8589 35.2941 52.5421 35.2941 50.9177C35.2941 49.2933 36.6109 47.9765 38.2353 47.9765H54.0118C55.6361 47.9765 56.9529 49.2933 56.9529 50.9177C56.9529 52.5421 55.6361 53.8589 54.0118 53.8589ZM35.2941 43.3177C35.2941 41.6933 36.6109 40.3765 38.2353 40.3765H50C51.6244 40.3765 52.9412 41.6933 52.9412 43.3177C52.9412 44.9421 51.6244 46.2589 50 46.2589H38.2353C36.6109 46.2589 35.2941 44.9421 35.2941 43.3177ZM61.7647 38.6118H38.2353C36.6109 38.6118 35.2941 37.295 35.2941 35.6706C35.2941 34.0463 36.6109 32.7295 38.2353 32.7295H61.7647C63.3891 32.7295 64.7059 34.0463 64.7059 35.6706C64.7059 37.295 63.3891 38.6118 61.7647 38.6118Z" fill="black"/>
</svg>
