<svg width="100" height="100" viewBox="0 0 100 100" fill="none" xmlns="http://www.w3.org/2000/svg">
<path d="M50 11.1765C22.4353 11.1765 0 25.6 0 43.3177C0 55.0824 9.56471 65.6 25.1882 71.2706C22.7529 76.5412 17.8588 79.8 14.8941 81.3647C13.3556 82.1853 12.5729 83.9477 12.9958 85.6393C13.4187 87.331 14.9387 88.5177 16.6824 88.5177H16.8471C29.1647 87.9883 38.2471 83.1295 42.1882 75.0706C44.7647 75.3295 47.3882 75.4589 50 75.4589C77.5647 75.4589 100 61.0471 100 43.3177C100 25.5883 77.5647 11.1765 50 11.1765ZM41.6 46.6824C40.238 46.6872 39.0075 45.8704 38.483 44.6135C37.9585 43.3566 38.2435 41.9074 39.2049 40.9427C40.1662 39.9779 41.6144 39.6879 42.8731 40.208C44.1319 40.7281 44.9529 41.9557 44.9529 43.3177C44.9529 45.1714 43.4537 46.6759 41.6 46.6824ZM50 46.6824C48.1417 46.6824 46.6353 45.176 46.6353 43.3177C46.6353 41.4594 48.1417 39.953 50 39.953C51.8583 39.953 53.3647 41.4594 53.3647 43.3177C53.3647 45.176 51.8583 46.6824 50 46.6824ZM58.4 46.6824C56.5417 46.6824 55.0353 45.176 55.0353 43.3177C55.0353 41.4594 56.5417 39.953 58.4 39.953C60.2583 39.953 61.7647 41.4594 61.7647 43.3177C61.7678 44.211 61.4144 45.0687 60.7827 45.7004C60.151 46.3321 59.2933 46.6855 58.4 46.6824Z" fill="black"/>
</svg>
