<svg width="100" height="100" viewBox="0 0 100 100" fill="none" xmlns="http://www.w3.org/2000/svg">
<path d="M50 11C22.4353 11 0 25.5678 0 43.4626C0 55.3449 9.56471 65.9678 25.1882 71.6951C22.7529 77.0183 17.8588 80.3098 14.8941 81.8901C13.3556 82.7189 12.5729 84.4989 12.9958 86.2074C13.4187 87.916 14.9387 89.1146 16.6824 89.1146H16.8471C29.1647 88.5799 38.2471 83.6725 42.1882 75.5331C44.7647 75.7945 47.3882 75.9252 50 75.9252C77.5647 75.9252 100 61.3693 100 43.4626C100 25.5559 77.5647 11 50 11ZM53.2235 27.4214L53.0471 49.6533H46.9529L46.7765 27.4214H53.2235ZM50 59.5038C48.6132 59.5086 47.3605 58.6679 46.8276 57.3747C46.2947 56.0816 46.5868 54.5914 47.5675 53.601C48.5481 52.6106 50.0235 52.3155 51.3038 52.8537C52.5842 53.392 53.4165 54.6572 53.4118 56.0579C53.4118 56.9718 53.0523 57.8483 52.4125 58.4945C51.7727 59.1407 50.9049 59.5038 50 59.5038Z" fill="black"/>
</svg>
