<?xml version="1.0" encoding="UTF-8"?>
<svg width="100px" height="100px" viewBox="0 0 100 100" version="1.1" xmlns="http://www.w3.org/2000/svg" xmlns:xlink="http://www.w3.org/1999/xlink">
    <!-- Generator: Sketch 57.1 (83088) - https://sketch.com -->
    <title>regular/bubble-message-edit-regular</title>
    <desc>Created with Sketch.</desc>
    <g id="regular/bubble-message-edit" stroke="none" stroke-width="1" fill="none" fill-rule="evenodd">
        <path d="M50,11 C77.57,11 100,25.36 100,42.97 C100,60.58 77.57,74.9 50,74.9 C47.2410043,74.9026656 44.4838054,74.759131 41.74,74.47 C39.21,79.92 32.76,87.41 16.42,88.1100847 L16.28,88.1100847 C14.7857301,88.1176181 13.4800572,87.102316 13.1193143,85.6522246 C12.7585715,84.2021332 13.4363354,82.6934065 14.76,82 C17.93,80.27 23.26,76.71 25.7,70.93 C9.77999996,65.27 -4.99996133e-08,54.71 -4.99996133e-08,42.93 C-4.99996133e-08,25.32 22.43,11 50,11 Z M50,15.76 C25.06,15.76 4.75999995,28 4.75999995,42.93 C4.75999995,53 14.44,62.44 29.41,67.12 L31.59,67.79 L31,70 C29.5560643,74.9992101 26.5579291,79.4088506 22.44,82.59 C28.55,81.38 35.43,78.36 38,71.07 L38.61,69.25 L40.53,69.49 C43.6704173,69.8951889 46.8335512,70.0989388 50,70.1 C74.94,70.1 95.24,57.86 95.24,42.93 C95.24,28 74.94,15.76 50,15.76 Z M45.91,35.36 L42.91,38.36 C42.479267,38.7933695 42.1234101,39.2942706 41.8561711,39.8422071 L41.73,40.12 L35.73,40.12 L35.73,57.19 L52.83,57.19 L52.83,51.19 C53.376508,50.9419156 53.8803183,50.6102014 54.323528,50.207316 L54.54,50 L57.54,47 L57.54,57.71 C57.54,60.0096162 55.7306223,61.8866297 53.4578544,61.995053 L53.25,62 L35.25,62 C34.1069394,61.9894946 33.0153413,61.5232295 32.2174331,60.7046695 C31.4765184,59.9445782 31.0457383,58.9390972 31.0029511,57.8842207 L31,57.64 L31,39.64 C31.0052126,37.3613387 32.7871221,35.4979597 35.0376774,35.3671475 L35.25,35.36 L45.91,35.36 Z M63.9269211,24.619028 L64.07,24.75 L68.17,28.81 C69.2614329,29.928689 69.3050902,31.6870576 68.300972,32.856921 L68.17,33 L52.86,48.34 C52.5404948,48.661005 52.1563654,48.9089439 51.7341554,49.0679698 L51.52,49.14 L45.7,50.92 C45.4171788,51.0023199 45.1245315,51.0460488 44.83,51.05 C43.8968972,51.033586 43.0245775,50.5838595 42.469974,49.8332829 C41.954985,49.136319 41.7684167,48.2536683 41.9512353,47.4131213 L42,47.22 L43.78,41.39 C43.9112523,40.9568487 44.1318114,40.5569402 44.4265305,40.2156454 L44.58,40.05 L59.88,24.75 C60.998689,23.6585671 62.7570577,23.6149098 63.9269211,24.619028 L63.9269211,24.619028 Z M60.16,31.21 L50,41.34 L51.58,42.89 L61.7,32.76 L60.16,31.21 Z" id="Shape" fill="#000000"></path>
    </g>
</svg>