<?xml version="1.0" encoding="UTF-8"?>
<svg width="100px" height="100px" viewBox="0 0 100 100" version="1.1" xmlns="http://www.w3.org/2000/svg" xmlns:xlink="http://www.w3.org/1999/xlink">
    <!-- Generator: Sketch 57.1 (83088) - https://sketch.com -->
    <title>solid/bubble-message-slash-solid</title>
    <desc>Created with Sketch.</desc>
    <g id="solid/bubble-message-slash" stroke="none" stroke-width="1" fill="none" fill-rule="evenodd">
        <path d="M95.7418633,1.00282863 C97.3413469,1.40970521 98.5902948,2.65865313 98.9971714,4.25813665 C99.4040479,5.85762017 98.9037096,7.55155149 97.6930694,8.67326729 L7.68316827,98.6831684 C6.84152954,99.5280383 5.69749258,100.002047 4.50495045,100.000013 C2.68557385,99.9981396 1.04590701,98.9020803 0.348607404,97.2216315 C-0.348692199,95.5411828 0.0332698147,93.6062517 1.31683163,92.3168317 L91.3267327,2.30693065 C92.4484485,1.09629042 94.1423798,0.595952053 95.7418633,1.00282863 Z M34.0396039,85.049505 L91.8613862,27.2376237 C96.4059406,32.1485148 99.009901,37.970297 99.009901,44.2475247 C99.009901,62.4356436 77.2277228,76.6831683 49.5049505,76.6831683 C47.3366337,76.6831683 45.1584158,76.5841584 43.009901,76.4059406 C40.9777946,79.9355963 38.0240717,82.8421782 34.4690698,84.8170165 L34.0396039,85.049505 L91.8613862,27.2376237 L34.0396039,85.049505 Z M49.5049505,11.8214491 C55.0654666,11.809984 60.6090145,12.415728 66.0337786,13.6271496 L67.049505,13.8613861 L13.950495,66.9603961 C5.10891085,61.039604 -4.99997626e-08,53 -4.99997626e-08,44.2475247 C-4.99997626e-08,26.0693069 21.7821782,11.8214491 49.5049505,11.8214491 Z" id="Shape" fill="#000000"></path>
    </g>
</svg>