<svg width="100" height="100" viewBox="0 0 100 100" fill="none" xmlns="http://www.w3.org/2000/svg">
<g clip-path="url(#clip0)">
<path d="M88.9462 26.2862C88.4135 29.7191 85.4606 32.253 81.9866 32.2582H80.9168C89.8094 47.7573 85.8515 67.4456 71.6604 78.3043C57.4693 89.1631 37.431 87.8361 24.7958 75.2008C12.1605 62.5655 10.8335 42.5273 21.6923 28.3362C32.551 14.145 52.2393 10.1872 67.7384 19.0798V18.01C67.7436 14.536 70.2775 11.5831 73.7104 11.0504C73.9435 9.56034 74.648 8.18419 75.7207 7.12394C54.0681 -5.86642 26.1281 -0.673467 10.5891 19.2293C-4.94987 39.1321 -3.21019 67.4973 14.6445 85.3521C32.4993 103.207 60.8644 104.946 80.7672 89.4074C100.67 73.8684 105.863 45.9285 92.8726 24.2759C91.8124 25.3485 90.4362 26.0531 88.9462 26.2862Z" fill="black"/>
<path d="M61.8077 66.9406C70.0143 61.1907 72.9065 50.3778 68.6664 41.2987L75.4379 34.5272C83.2561 47.391 80.2307 64.068 68.392 73.3658C56.5533 82.6635 39.6345 81.6502 28.9902 71.0059C18.3459 60.3616 17.3326 43.4427 26.6303 31.604C35.9281 19.7654 52.605 16.7399 65.4688 24.5582L58.6974 31.3296C49.6183 27.0895 38.8053 29.9818 33.0555 38.1883C27.3056 46.3949 28.2795 57.5455 35.365 64.631C42.4505 71.7165 53.6011 72.6905 61.8077 66.9406Z" fill="black"/>
<path d="M63.7415 47.2826C63.6447 47.0359 63.5307 46.7963 63.4006 46.5655L64.1294 45.8484C64.5255 47.1841 64.7274 48.5698 64.729 49.963C64.729 58.0788 58.1498 64.6579 50.034 64.6579C41.9182 64.6579 35.3391 58.0788 35.3391 49.963C35.3391 41.8472 41.9182 35.268 50.034 35.268C51.3877 35.3085 52.7291 35.538 54.0193 35.9499L53.2904 36.6787C53.0596 36.5486 52.82 36.4347 52.5733 36.3378H52.4793C52.0988 36.1823 51.7054 36.0604 51.3037 35.9734H51.2331C50.3782 35.8166 49.5018 35.8166 48.6468 35.9734H48.5763C48.1746 36.0604 47.7812 36.1823 47.4007 36.3378H47.3066C46.8971 36.501 46.5036 36.7017 46.1311 36.9374H46.0605C45.2771 37.4575 44.6056 38.129 44.0855 38.9124V38.9829C43.8436 39.3537 43.6388 39.7475 43.4742 40.1585V40.2408C43.3239 40.6231 43.2021 41.0161 43.1098 41.4164V41.4752C43.0248 41.905 42.9815 42.342 42.9804 42.7801V49.916C42.9804 53.8115 46.1384 56.9695 50.034 56.9695H57.2992C57.7373 56.9685 58.1743 56.9252 58.6041 56.8402H58.6629C59.0632 56.7479 59.4562 56.6261 59.8385 56.4758H59.9208C60.3318 56.3112 60.7256 56.1064 61.0964 55.8645H61.1669C61.9482 55.3417 62.6192 54.6707 63.1419 53.8895V53.8189C63.3776 53.4464 63.5783 53.0529 63.7415 52.6433V52.5611C63.8984 52.1609 64.0203 51.7479 64.1059 51.3267C64.1004 51.3035 64.1004 51.2793 64.1059 51.2561C64.2627 50.4012 64.2627 49.5248 64.1059 48.6698C64.1004 48.6466 64.1004 48.6225 64.1059 48.5993C64.0203 48.1781 63.8984 47.7651 63.7415 47.3649V47.2826Z" fill="black"/>
<path d="M93.4017 10.5101H93.7427C95.3658 10.5101 96.6817 11.8259 96.6817 13.4491C96.6817 15.0723 95.3658 16.3881 93.7427 16.3881H87.8647C89.4878 16.3881 90.8037 17.7039 90.8037 19.3271C90.8037 20.9502 89.4878 22.2661 87.8647 22.2661H81.9867C83.6098 22.2661 84.9257 23.5819 84.9257 25.2051C84.9257 26.8282 83.6098 28.1441 81.9867 28.1441H76.0147L57.7811 46.4011L59.2977 47.9176C59.4289 48.0582 59.5507 48.2075 59.6621 48.3643C59.7057 48.4323 59.745 48.503 59.7797 48.5759C59.7925 48.6049 59.8027 48.6329 59.8127 48.6604C59.8393 48.7332 59.8642 48.8015 59.9325 48.8698C60.0265 48.9639 60.0265 49.0697 60.0265 49.1637C60.057 49.2479 60.0806 49.3344 60.0971 49.4224C60.1829 49.8095 60.1829 50.2108 60.0971 50.598C60.0806 50.6859 60.057 50.7724 60.0265 50.8566C59.9702 50.9129 59.9645 50.9735 59.9588 51.0332C59.9551 51.0732 59.9513 51.1128 59.9325 51.1505C59.9165 51.1825 59.8937 51.2144 59.8706 51.2468C59.8258 51.3098 59.7797 51.3745 59.7797 51.4444C59.745 51.5174 59.7057 51.588 59.6621 51.656C59.4471 51.9767 59.1716 52.2522 58.8509 52.4672L58.6393 52.5847L58.3454 52.7376L58.0515 52.8316C57.9674 52.8621 57.8809 52.8856 57.7929 52.9021C57.6013 52.9201 57.4085 52.9201 57.2169 52.9021H50.034C48.4246 52.8828 47.1301 51.5726 47.1302 49.9631V42.7802C47.1123 42.5886 47.1123 42.3958 47.1302 42.2042C47.1467 42.1162 47.1703 42.0297 47.2008 41.9456C47.2575 41.8889 47.2629 41.8322 47.2686 41.7729C47.2723 41.7339 47.2761 41.6937 47.2948 41.6517C47.3418 41.5459 47.4006 41.4283 47.4476 41.3578C47.4594 41.3401 47.4726 41.3225 47.4858 41.3049C47.5255 41.252 47.5652 41.1991 47.5652 41.1462C47.7802 40.8255 48.0557 40.55 48.3764 40.335L48.588 40.2174L48.8819 40.0646L49.1758 39.9706C49.2599 39.9401 49.3464 39.9165 49.4344 39.9C49.8216 39.8142 50.2228 39.8142 50.61 39.9C50.698 39.9165 50.7845 39.9401 50.8686 39.9706L51.1978 40.0646L51.4917 40.2174L51.7033 40.335C51.8601 40.4464 52.0094 40.5682 52.15 40.6994L52.9729 41.5224L53.6313 42.216L71.853 23.9824V18.0104C71.853 16.3873 73.1689 15.0714 74.792 15.0714C76.4152 15.0714 77.731 16.3873 77.731 18.0104V12.1324C77.731 10.5093 79.0469 9.19344 80.67 9.19344C82.2932 9.19344 83.609 10.5093 83.609 12.1324V6.25444C83.609 4.63128 84.9248 3.31545 86.548 3.31545C88.1712 3.31545 89.487 4.63128 89.487 6.25444V6.58361C90.6127 6.02995 91.9661 6.25518 92.8518 7.14358C93.7376 8.03199 93.9588 9.38604 93.4017 10.5101Z" fill="black"/>
</g>
<defs>
<clipPath id="clip0">
<rect width="100" height="100" fill="white"/>
</clipPath>
</defs>
</svg>
