<svg width="100" height="100" viewBox="0 0 100 100" fill="none" xmlns="http://www.w3.org/2000/svg">
<path d="M64.7057 49.9998C64.7057 58.1217 58.1217 64.7057 49.9998 64.7057C41.878 64.7057 35.2939 58.1217 35.2939 49.9998C35.2939 41.878 41.878 35.2939 49.9998 35.2939C58.1217 35.2939 64.7057 41.878 64.7057 49.9998Z" fill="black"/>
<path fill-rule="evenodd" clip-rule="evenodd" d="M50 20.2471C33.5679 20.2471 20.2471 33.5679 20.2471 50C20.2471 66.4321 33.5679 79.753 50 79.753C66.4321 79.753 79.753 66.4321 79.753 50C79.74 33.5733 66.4267 20.26 50 20.2471ZM50 70.5882C38.6294 70.5882 29.4118 61.3706 29.4118 50C29.4118 38.6294 38.6294 29.4118 50 29.4118C61.3706 29.4118 70.5882 38.6294 70.5882 50C70.5753 61.3652 61.3652 70.5753 50 70.5882Z" fill="black"/>
<path fill-rule="evenodd" clip-rule="evenodd" d="M50 0C22.3858 0 0 22.3858 0 50C0 77.6142 22.3858 100 50 100C77.6142 100 100 77.6142 100 50C99.9676 22.3992 77.6008 0.0324144 50 0ZM50 85.6353C30.3192 85.6353 14.3647 69.6808 14.3647 50C14.3647 30.3192 30.3192 14.3647 50 14.3647C69.6808 14.3647 85.6353 30.3192 85.6353 50C85.6158 69.6728 69.6728 85.6158 50 85.6353Z" fill="black"/>
</svg>
