<?xml version="1.0" encoding="UTF-8"?>
<svg width="100px" height="100px" viewBox="0 0 100 100" version="1.1" xmlns="http://www.w3.org/2000/svg" xmlns:xlink="http://www.w3.org/1999/xlink">
    <!-- Generator: Sketch 57.1 (83088) - https://sketch.com -->
    <title>regular/bullseye-arrow-regular</title>
    <desc>Created with Sketch.</desc>
    <g id="regular/bullseye-arrow" stroke="none" stroke-width="1" fill="none" fill-rule="evenodd">
        <path d="M73.7128713,5.80198015 C72.5236474,6.87848163 71.6304893,8.24208177 71.1188119,9.7623762 C51.4858654,-0.437521397 27.3477866,5.20627796 14.2726822,23.0537468 C1.19757771,40.9012156 3.09363426,65.6176937 18.7379703,81.2620297 C34.3823063,96.9063657 59.0987844,98.8024223 76.9462532,85.7273178 C94.793722,72.6522134 100.437521,48.5141346 90.2376238,28.8811881 C91.7590935,28.3719321 93.1232685,27.4783974 94.1980198,26.2871287 C105.700806,47.933232 99.6304559,74.7379476 79.9240824,89.3162443 C60.217709,103.894541 32.8099208,101.85614 15.4768904,84.5231096 C-1.8561401,67.1900792 -3.89454109,39.782291 10.6837557,20.0759176 C25.2620524,0.369544135 52.066768,-5.7008065 73.7128713,5.80198015 Z M50.4950495,14.386073 C56.3367131,14.3780996 62.0829704,15.8414483 67.2050511,18.6367756 L67.7326733,18.930693 L64.2574258,22.4059406 C50.9124949,15.6192624 34.6138242,19.5421569 25.8184415,31.6577428 C17.0230588,43.7733287 18.3415652,60.4855192 28.928023,71.071977 C39.5144808,81.6584348 56.2266713,82.9769412 68.3422572,74.1815585 C80.3366872,65.4741296 84.3014604,49.4127281 77.7944494,36.1437978 L77.5940594,35.7425742 L81.069307,32.2673267 C84.0558816,37.5208495 85.6221765,43.4618503 85.613927,49.5049505 C85.613927,68.9005347 69.8906338,84.6237624 50.4950495,84.6237624 C31.0994653,84.6237624 15.3762376,68.9005347 15.3762376,49.5049505 C15.3762376,30.1093662 31.0994653,14.386073 50.4950495,14.386073 Z M55.9496269,30.1987611 L56.3168317,30.3069307 L53.3465347,33.2772277 L53.2376238,33.2772277 L52.7821782,33.1584158 L52.3366337,33.0495049 L51.8118812,32.970297 L51.4257426,32.970297 C50.9305106,32.9227709 50.4325483,32.9132657 49.9362241,32.9417814 L49.5643564,32.970297 L49.1782178,32.970297 L48.6534653,33.0495049 L48.2079208,33.1584158 L47.7524752,33.2772277 L47.3267327,33.4257426 L46.8811881,33.5940594 L46.6881188,33.6794554 L46.4950495,33.7722772 L46.0495049,33.990099 C45.9207921,34.0495049 45.8217822,34.1089109 45.6831683,34.1980198 C45.5445545,34.2871287 45.3960396,34.3663366 45.2574257,34.4653465 C45.1256878,34.5488485 44.9999669,34.6414849 44.8811881,34.7425742 C44.7623762,34.8316832 44.6336634,34.9108911 44.5148515,35.009901 C44.369637,35.1287129 44.2288229,35.2519252 44.0924092,35.3795379 L43.8910891,35.5742574 L43.8316832,35.6336634 L43.7979321,35.664847 L43.7722772,35.7029703 L43.6732673,35.8019802 C37.6687386,38.7486644 34.2706209,45.2507894 35.2795946,51.8628455 C36.2885682,58.4749015 41.4712737,63.6676268 48.0813687,64.6893693 C54.6914637,65.7111118 61.2001398,62.3255589 64.1584159,56.3267327 C64.183944,56.3061908 64.2071809,56.2829539 64.2277228,56.2574257 L64.2807343,56.2167675 L64.3267327,56.1683168 L64.4158416,56.0792079 C64.6039604,55.8811881 64.8514852,55.6039604 64.9504951,55.4851485 C65.049505,55.3663366 65.1386139,55.2277228 65.2277228,55.1089109 C65.3168317,54.990099 65.4158416,54.8712871 65.4950495,54.7425743 C65.5934459,54.6032674 65.6827407,54.4577499 65.7623763,54.3069307 C65.8316832,54.1881188 65.8910891,54.0990099 65.970297,53.9504951 C66.049505,53.8019802 66.1287129,53.6336634 66.1881188,53.5049505 C66.2475248,53.3762376 66.2970297,53.2673267 66.3663367,53.1188119 C66.4125413,53.019802 66.4455446,52.9207921 66.4800147,52.8217822 L66.5346535,52.6732673 L66.6831683,52.2475248 L66.8019802,51.7920792 C66.8316832,51.6435644 66.8316832,51.5148515 66.9108911,51.3465347 C66.9742574,51.2118812 66.9869307,51.0392079 66.9894654,50.9096238 L66.990099,50.8217822 L66.990099,50.4356436 C67.0495067,49.8166035 67.0495067,49.1932974 66.990099,48.5742574 C66.990099,48.4669967 67.0451045,48.3941144 67.0176018,48.2696645 L66.954297,48.0803168 C66.9203961,47.9358416 66.9346535,47.790099 66.9108911,47.6633663 C66.8886139,47.5445545 66.8384901,47.4368812 66.8148206,47.3278156 L66.8019802,47.2178218 L66.6831683,46.7623762 L66.6873527,46.7079208 L66.6831683,46.6534653 L69.6633664,43.6732673 C72.3342358,52.4808227 68.6687935,61.9759576 60.7726195,66.7042779 C52.8764456,71.4325982 42.7756447,70.1808489 36.2725304,63.668086 C29.7694161,57.1553232 28.5326434,47.0526776 33.2726652,39.1635224 C37.9468533,31.3839389 47.2502596,27.7252504 55.9496269,30.1987611 L55.9496269,30.1987611 Z M87.1089109,3.32673263 C88.4103344,3.32673263 89.4653466,4.3817448 89.4653466,5.68316827 L89.4653466,7.19801976 L89.6831684,6.98019798 C90.2792005,6.38416573 91.1479364,6.15138862 91.9621316,6.36955154 C92.7763267,6.58771446 93.4122855,7.22367327 93.6304485,8.03786842 C93.8486114,8.85206358 93.6158343,9.72079946 93.019802,10.3168316 L92.8019802,10.5346534 L94.3168317,10.5346534 L94.3168317,10.5643564 C95.6182552,10.5643564 96.6732674,11.6193686 96.6732674,12.920792 C96.6732674,14.2222155 95.6182552,15.2772277 94.3168317,15.2772277 L92.8118812,15.2772277 C93.0212733,15.6349243 93.133881,16.0409947 93.1386139,16.4554455 C93.1386139,17.756869 92.0836017,18.8118812 90.7821783,18.8118812 L89.2673268,18.8118812 C89.4760173,19.159033 89.5887711,19.5553798 89.5940594,19.960396 C89.5967055,20.586169 89.3492886,21.1870763 88.9067963,21.6295685 C88.464304,22.0720608 87.8633968,22.3194777 87.2376238,22.3168317 L81.009901,22.3168317 L57.4257426,45.9009901 L58.5445545,47.009901 L59.3663366,47.8316832 C59.473621,47.9468475 59.5728646,48.069248 59.6633663,48.1980198 L59.7524753,48.3663366 L59.8811881,48.6039604 C59.9088377,48.6817706 59.9319784,48.7611102 59.9504951,48.8415842 C59.9761592,48.9056883 59.9960404,48.9719588 60.009901,49.039604 C60.0692324,49.3469982 60.0692324,49.6629028 60.009901,49.970297 C59.9946615,50.0375873 59.9748127,50.10375 59.9504951,50.1683168 C59.9319784,50.2487908 59.9088377,50.3281304 59.8811881,50.4059406 L59.7524753,50.6435644 L59.6633663,50.8118812 C59.4896242,51.0697237 59.2677435,51.2916044 59.009901,51.4653465 L58.8316832,51.5643564 C58.7578573,51.6078286 58.6818498,51.6474847 58.6039604,51.6831683 L58.3663366,51.7524752 L58.1584158,51.8118812 C58.0085494,51.8430131 57.8560256,51.8595918 57.7029703,51.8614278 L50.4950495,51.8614278 C49.8692765,51.8640322 49.2683693,51.6166153 48.825877,51.174123 C48.3833847,50.7316307 48.1359678,50.1307235 48.1385722,49.5049505 L48.1385722,42.2574257 C48.1404082,42.1043705 48.1569869,41.9518466 48.1881188,41.8019802 C48.2033351,41.7314443 48.22318,41.6619871 48.2475248,41.5940594 C48.2660414,41.5135854 48.2891821,41.4342459 48.3168317,41.3564356 L48.4356436,41.1287129 C48.4752475,41.0693069 48.5346535,41.009901 48.5346535,40.950495 C48.7083956,40.6926525 48.9302763,40.4707719 49.1881188,40.2970297 L49.3663366,40.2079208 C49.4388113,40.159208 49.5149461,40.1161753 49.5940594,40.0792079 L49.8316832,40.009901 C49.89625,39.9855833 49.9624127,39.9657345 50.029703,39.950495 C50.3370972,39.8911636 50.6530018,39.8911636 50.960396,39.950495 C51.0276863,39.9657345 51.093849,39.9855833 51.1584158,40.009901 L51.3960396,40.0792079 C51.4751529,40.1161753 51.5512877,40.159208 51.6237624,40.2079208 L51.8019802,40.2970297 C51.930752,40.3875314 52.0531525,40.4867751 52.1683168,40.5940594 L52.990099,41.4653465 L54.0990099,42.5742574 L77.6534654,18.990099 L77.6534654,12.7623762 C77.6508194,12.1366032 77.8982362,11.535696 78.3407285,11.0932037 C78.7832208,10.6507114 79.384128,10.4032945 80.009901,10.4059406 C80.4250138,10.4059104 80.8323079,10.5188575 81.1881188,10.7326732 L81.1881188,9.21782174 C81.1880688,8.58767557 81.4404086,7.98376123 81.8887711,7.54097998 C82.3371337,7.09819872 82.9441614,6.85344307 83.5742575,6.8613861 C83.9887083,6.86611896 84.3947787,6.97872673 84.7524753,7.18811877 L84.7524753,5.68316827 C84.7524753,4.3817448 85.8074875,3.32673263 87.1089109,3.32673263 Z" id="Shape" fill="#000000"></path>
    </g>
</svg>