<?xml version="1.0" encoding="UTF-8"?>
<svg width="100px" height="100px" viewBox="0 0 100 100" version="1.1" xmlns="http://www.w3.org/2000/svg" xmlns:xlink="http://www.w3.org/1999/xlink">
    <!-- Generator: Sketch 57.1 (83088) - https://sketch.com -->
    <title>solid/bullseye-arrow-solid</title>
    <desc>Created with Sketch.</desc>
    <g id="solid/bullseye-arrow" stroke="none" stroke-width="1" fill="none" fill-rule="evenodd">
        <path d="M69.2079208,3.68316827 C67.1435629,6.1230965 65.9773254,9.19195939 65.8956699,12.3793527 L65.8910891,12.7623762 L65.8910891,14.1584158 L63.2178218,16.8316831 C47.7161397,10.8081612 30.1144751,16.4735699 21.0367475,30.408412 C11.9590198,44.3432541 13.8901062,62.733098 25.6644518,74.4782991 C37.4387973,86.2235003 55.8333706,88.109005 69.7456724,78.9967703 C83.5188513,69.975658 89.1664788,52.6203472 83.3961777,37.2474074 L83.2178218,36.7821782 L85.9009901,34.1089109 L87.2376238,34.1089109 C90.5615253,34.1145366 93.7793064,32.9390114 96.3168317,30.7920792 C105.230445,52.6136574 97.5216138,77.6936679 77.8902401,90.741386 C58.2588663,103.789104 32.1503766,101.185303 15.4825366,84.5174634 C-1.18530347,67.8496234 -3.7891041,41.7411337 9.25861402,22.1097599 C22.3063321,2.4783862 47.3863426,-5.23044543 69.2079208,3.68316827 Z M50.4950495,19.0989978 C53.3385217,19.0982458 56.1668033,19.4983008 58.8965884,20.2864768 L59.5247525,20.4752475 L51.7821782,28.2178218 C51.5,28.180693 51.2233911,28.1714109 50.9439975,28.1690903 L50.3267327,28.1683168 C49.9174917,28.1683168 49.5115512,28.1881188 49.1089109,28.2277228 C48.9306931,28.2425742 48.7636139,28.2908416 48.5951423,28.314047 L48.4257426,28.3267327 L47.7326733,28.4257426 C47.4851485,28.4752475 47.2079208,28.5643564 47,28.6138614 C46.8613861,28.6468647 46.7271727,28.6754675 46.5944261,28.7084708 L46.3960396,28.7623762 L45.6930693,29.009901 L45.0891089,29.2277228 L44.4554455,29.5247525 L44.0352035,29.7183718 C43.9658966,29.7513751 43.8976898,29.7854785 43.8316832,29.8217822 L43.5346535,29.9962871 L43.2376238,30.1782178 L42.6435643,30.5346534 C42.4257426,30.6831683 42.1683168,30.8811881 42.009901,31 C41.9042904,31.0792079 41.7942794,31.1540154 41.6886689,31.2332233 L41.5346535,31.3564356 L40.9306931,31.9009901 C33.3915456,35.971763 29.2744138,44.3852351 30.6861,52.8360977 C32.0977862,61.2869603 38.7259563,67.9054684 47.1788693,69.3048251 C55.6317822,70.7041818 64.0392394,66.5747808 68.0990099,59.029703 C68.2772277,58.8316832 68.5148515,58.5841584 68.6435644,58.4257426 C68.7722772,58.2673267 68.8613862,58.1485149 69.009901,57.9405941 C69.1584159,57.7326733 69.3366337,57.5148515 69.4653466,57.3168317 C69.5940594,57.1188119 69.7128713,56.9108911 69.8316832,56.7128713 C69.9504951,56.5148515 70.069307,56.3366337 70.1782178,56.1287129 C70.2871287,55.9207921 70.3762376,55.7029703 70.4752475,55.4950495 C70.5742574,55.2871287 70.6732673,55.0891089 70.7623763,54.8811881 C70.8514852,54.6732673 70.9207921,54.4752475 71,54.2475248 C71.0792079,54.019802 71.1782178,53.7920792 71.2376238,53.5742574 C71.2970297,53.3564356 71.3366337,53.1782178 71.3960396,52.9405941 C71.4554456,52.7029703 71.5346535,52.4653465 71.5742574,52.2277228 C71.6138614,51.990099 71.6534654,51.7029703 71.6831683,51.4950495 C71.7128713,51.2871287 71.7722772,51.0792079 71.7722772,50.8613861 C71.8041274,50.5610217 71.8250271,50.2596472 71.8349458,49.9578618 L71.8415842,49.5049505 L71.8415842,49.4653465 C71.8415842,49.1881188 71.8327833,48.9108911 71.8151815,48.6336634 L71.7821782,48.2178218 L79.5247525,40.4752475 C83.4356197,53.0290886 78.8395695,66.6748264 68.1306357,74.304541 C57.4217018,81.9342557 43.0231912,81.8214316 32.4351351,74.0248377 C21.8470789,66.2282438 17.4654309,52.5121585 21.5725449,40.0211448 C25.679659,27.530131 37.346143,19.0907598 50.4950495,19.0989978 Z M36.3465346,43.6237624 L36.3465346,49.5049505 C36.3465346,57.2147727 42.5132465,63.4842822 50.1832897,63.6500985 L50.4950495,63.6534654 L56.3762376,63.6534654 C50.6469336,66.0406754 44.0433451,64.7343192 39.654513,60.345487 C35.2656808,55.9566549 33.9593246,49.3530664 36.3465346,43.6237624 Z M86.7530077,0.99751204 C88.8094105,0.840725525 90.7280451,2.04201934 91.4851486,3.96039599 C93.9741506,4.02291071 95.9770893,6.02584941 96.039604,8.51485144 C97.8253896,9.22547909 99.0007392,10.9493251 99.0100033,12.8712871 C99.0201123,15.0686965 97.5072968,16.9802705 95.3663367,17.4752475 C94.9636508,19.233924 93.5903597,20.6072151 91.8316832,21.009901 C91.3421398,23.1530268 89.4359507,24.6730483 87.2376238,24.6732673 L81.990099,24.6732673 L60.7623762,45.9009901 L61.029703,46.1683168 C61.2488478,46.3910727 61.4476575,46.6329579 61.6237624,46.8910891 C61.7029703,47.009901 61.7524753,47.1287129 61.8217822,47.2574257 C61.9074667,47.4007371 61.9835416,47.5495792 62.049505,47.7029703 C62.112686,47.8611124 62.1656011,48.0231649 62.2079208,48.1881188 C62.2546352,48.3170458 62.291053,48.4494741 62.3168317,48.5841584 C62.445666,49.19126 62.445666,49.818641 62.3168317,50.4257426 C62.291053,50.5604269 62.2546352,50.6928552 62.2079208,50.8217822 C62.1656011,50.9867361 62.112686,51.1487886 62.049505,51.3069307 C61.9835416,51.4603217 61.9074667,51.6091639 61.8217822,51.7524752 C61.7524753,51.8811881 61.7029703,52 61.6237624,52.1188119 C61.2762781,52.634497 60.8325168,53.0782583 60.3168317,53.4257426 C60.1980198,53.5049505 60.1089109,53.5445545 59.960396,53.6237624 C59.8118812,53.7029703 59.6633663,53.8019802 59.5049505,53.8613861 C59.3465347,53.9207921 59.1683168,53.970297 59.029703,54.009901 C58.8910891,54.049505 58.7623762,54.1287129 58.6237624,54.1287129 C58.3203882,54.1877982 58.0120446,54.2181499 57.7029703,54.2181499 L50.4950495,54.2181499 C49.2382705,54.2283833 48.0293338,53.7365165 47.1369149,52.8515344 C46.2444959,51.9665523 45.7425743,50.7617739 45.7425743,49.5049505 L45.7425743,42.2970297 C45.7425743,41.9879554 45.7725978,41.6796118 45.8316832,41.3762376 C45.8613861,41.2376238 45.9009901,41.1386139 45.950495,40.980198 C46,40.8217822 46.029703,40.6534653 46.0990099,40.4950495 C46.1683168,40.3366337 46.2673267,40.1683168 46.3366337,40.0495049 C46.4059406,39.9306931 46.4554455,39.8019802 46.5346535,39.6831683 C46.8937765,39.1637139 47.3512474,38.719698 47.8811881,38.3762376 C47.990099,38.3069307 48.1188119,38.2475247 48.2376238,38.1881188 C48.3819804,38.0953693 48.534414,38.0158387 48.6930693,37.950495 C48.8464599,37.8861484 49.0055813,37.8364229 49.1683168,37.8019802 C49.3003701,37.7519854 49.4360872,37.7122634 49.5742574,37.6831683 C50.181359,37.554334 50.80874,37.554334 51.4158416,37.6831683 C51.5540119,37.7122634 51.6897289,37.7519854 51.8217822,37.8019802 C51.9845177,37.8364229 52.1436392,37.8861484 52.2970297,37.950495 C52.455685,38.0158387 52.6081186,38.0953693 52.7524753,38.1881188 C52.8712871,38.2475247 53,38.3069307 53.1089109,38.3762376 C53.3670421,38.5523425 53.6089273,38.7511522 53.8316832,38.970297 L54.0990099,39.2376238 L75.3267327,18.0198019 L75.3267327,12.7722772 C75.3269517,10.5739503 76.8469732,8.66776116 78.990099,8.17821778 C79.3927849,6.41954127 80.766076,5.04625014 82.5247525,4.64356431 C82.9822694,2.63258124 84.6966048,1.15429856 86.7530077,0.99751204 Z" id="Shape" fill="#000000"></path>
    </g>
</svg>