<?xml version="1.0" encoding="UTF-8"?>
<svg width="100px" height="100px" viewBox="0 0 100 100" version="1.1" xmlns="http://www.w3.org/2000/svg" xmlns:xlink="http://www.w3.org/1999/xlink">
    <!-- Generator: Sketch 57.1 (83088) - https://sketch.com -->
    <title>solid/bullseye-solid</title>
    <desc>Created with Sketch.</desc>
    <g id="solid/bullseye" stroke="none" stroke-width="1" fill="none" fill-rule="evenodd">
        <path d="M50,-5.00000041e-08 C77.6005315,0.0330611134 99.9669389,22.3994685 100,49.9999999 C100,77.6142375 77.6142375,99.9999999 50,99.9999999 C22.3857625,99.9999999 -4.99996062e-08,77.6142375 -4.99996062e-08,49.9999999 C-4.99996062e-08,22.3857625 22.3857625,-5.00000041e-08 50,-5.00000041e-08 Z M50,14.53 C30.4104599,14.53 14.53,30.4104599 14.53,50 C14.53,69.5895401 30.4104599,85.47 50,85.47 C69.580402,85.4479562 85.4479562,69.580402 85.47,50 C85.47,30.4104599 69.5895401,14.53 50,14.53 Z M50,19.29 C66.9515285,19.3120364 80.6879636,33.0484715 80.71,50 C80.71,66.9606647 66.9606647,80.71 50,80.71 C33.0393353,80.71 19.29,66.9606647 19.29,50 C19.29,33.0393353 33.0393353,19.29 50,19.29 Z M50,29.76 C38.8217567,29.76 29.76,38.8217567 29.76,50 C29.76,61.1782433 38.8217567,70.24 50,70.24 C61.1736735,70.2289752 70.2289752,61.1736735 70.24,50 C70.24,38.8217567 61.1782433,29.76 50,29.76 Z M50,34.52 C58.5493679,34.52 65.48,41.4506321 65.48,50 C65.48,58.5493679 58.5493679,65.48 50,65.48 C41.4506321,65.48 34.52,58.5493679 34.52,50 C34.52,41.4506321 41.4506321,34.52 50,34.52 Z" id="Shape" fill="#000000"></path>
    </g>
</svg>