<svg width="100" height="100" viewBox="0 0 100 100" fill="none" xmlns="http://www.w3.org/2000/svg">
<path d="M91.6667 31.8333H8.33333C3.73096 31.8333 0 28.0651 0 23.4167C0 18.7683 3.73096 15 8.33333 15H91.6667C96.269 15 100 18.7683 100 23.4167C100 28.0651 96.269 31.8333 91.6667 31.8333Z" fill="black"/>
<path d="M91.6667 58.7665H8.33333C3.73096 58.7665 0 54.9982 0 50.3498C0 45.7014 3.73096 41.9332 8.33333 41.9332H91.6667C96.269 41.9332 100 45.7014 100 50.3498C100 54.9982 96.269 58.7665 91.6667 58.7665Z" fill="black"/>
<path d="M8.33333 85.6997H91.6667C96.269 85.6997 100 81.9314 100 77.283C100 72.6346 96.269 68.8663 91.6667 68.8663H8.33333C3.73096 68.8663 0 72.6346 0 77.283C0 81.9314 3.73096 85.6997 8.33333 85.6997Z" fill="black"/>
</svg>
