<?xml version="1.0" encoding="UTF-8"?>
<svg width="100px" height="100px" viewBox="0 0 100 100" version="1.1" xmlns="http://www.w3.org/2000/svg" xmlns:xlink="http://www.w3.org/1999/xlink">
    <!-- Generator: Sketch 57.1 (83088) - https://sketch.com -->
    <title>bold/burger-alt-bold</title>
    <desc>Created with Sketch.</desc>
    <g id="bold/burger-alt" stroke="none" stroke-width="1" fill="none" fill-rule="evenodd">
        <path d="M98.5957158,76.3614688 C99.4396617,77.7718546 99.4396617,79.5320671 98.5957158,80.9424528 C97.7517698,82.3528385 96.200621,83.1848753 94.5588236,83.1078432 L50,83.1078432 C48.3582026,83.1848753 46.8070537,82.3528385 45.9631078,80.9424528 C45.1191619,79.5320671 45.1191619,77.7718546 45.9631078,76.3614688 C46.8070537,74.9510831 48.3582026,74.1190463 50,74.1960785 L94.5588236,74.1960785 C96.200621,74.1190463 97.7517698,74.9510831 98.5957158,76.3614688 Z M98.5957158,47.841861 C99.4396617,49.2522467 99.4396617,51.0124592 98.5957158,52.4228449 C97.7517698,53.8332307 96.200621,54.6652675 94.5588236,54.5882353 L5.44117643,54.5882353 C3.79937902,54.6652675 2.24823016,53.8332307 1.40428423,52.4228449 C0.560338289,51.0124592 0.560338289,49.2522467 1.40428423,47.841861 C2.24823016,46.4314752 3.79937902,45.5994384 5.44117643,45.6764706 L94.5588236,45.6764706 C96.200621,45.5994384 97.7517698,46.4314752 98.5957158,47.841861 Z M54.0368922,19.3222531 C54.8808381,20.7326388 54.8808381,22.4928513 54.0368922,23.9032371 C53.1929463,25.3136228 51.6417974,26.1456596 50,26.0686274 L5.44117643,26.0686274 C3.79937902,26.1456596 2.24823016,25.3136228 1.40428423,23.9032371 C0.560338289,22.4928513 0.560338289,20.7326388 1.40428423,19.3222531 C2.24823016,17.9118673 3.79937902,17.0798306 5.44117643,17.1568627 L50,17.1568627 C51.6417974,17.0798306 53.1929463,17.9118673 54.0368922,19.3222531 Z" id="Shape" fill="#000000"></path>
    </g>
</svg>