<svg width="100" height="100" viewBox="0 0 100 100" fill="none" xmlns="http://www.w3.org/2000/svg">
<path d="M97.0588 22.3531H2.94118C1.31681 22.3531 0 21.0362 0 19.4119C0 17.7875 1.31681 16.4707 2.94118 16.4707H97.0588C98.6832 16.4707 100 17.7875 100 19.4119C100 21.0362 98.6832 22.3531 97.0588 22.3531Z" fill="black"/>
<path d="M97.0588 52.4707H2.94118C1.31681 52.4707 0 51.1539 0 49.5296C0 47.9052 1.31681 46.5884 2.94118 46.5884H97.0588C98.6832 46.5884 100 47.9052 100 49.5296C100 51.1539 98.6832 52.4707 97.0588 52.4707Z" fill="black"/>
<path d="M2.94118 82.5884H97.0588C98.6832 82.5884 100 81.2716 100 79.6472C100 78.0229 98.6832 76.7061 97.0588 76.7061H2.94118C1.31681 76.7061 0 78.0229 0 79.6472C0 81.2716 1.31681 82.5884 2.94118 82.5884Z" fill="black"/>
</svg>
