<svg width="100" height="100" viewBox="0 0 100 100" fill="none" xmlns="http://www.w3.org/2000/svg">
<g clip-path="url(#clip0)">
<path d="M50 31.2502H8.33333C3.73096 31.2502 0 27.5192 0 22.9168C0 18.3145 3.73096 14.5835 8.33333 14.5835H50C54.6024 14.5835 58.3333 18.3145 58.3333 22.9168C58.3333 27.5192 54.6024 31.2502 50 31.2502Z" fill="black"/>
<path d="M8.33333 57.9167C3.73096 57.9167 0 54.1857 0 49.5833C0 44.981 3.73096 41.25 8.33333 41.25H91.6667C96.269 41.25 100 44.981 100 49.5833C100 54.1857 96.269 57.9167 91.6667 57.9167H8.33333Z" fill="black"/>
<path d="M50.0003 84.5832H91.667C96.2694 84.5832 100 80.8522 100 76.2498C100 71.6475 96.2694 67.9165 91.667 67.9165H50.0003C45.3979 67.9165 41.667 71.6475 41.667 76.2498C41.667 80.8522 45.3979 84.5832 50.0003 84.5832Z" fill="black"/>
</g>
<defs>
<clipPath id="clip0">
<rect width="100" height="100" fill="white"/>
</clipPath>
</defs>
</svg>
