<svg width="100" height="100" viewBox="0 0 100 100" fill="none" xmlns="http://www.w3.org/2000/svg">
<path d="M50 22.3531H2.94118C1.31681 22.3531 0 21.0362 0 19.4119C0 17.7875 1.31681 16.4707 2.94118 16.4707H50C51.6244 16.4707 52.9412 17.7875 52.9412 19.4119C52.9412 21.0362 51.6244 22.3531 50 22.3531Z" fill="black"/>
<path d="M2.94118 52.4707C1.31681 52.4707 0 51.1539 0 49.5296C0 47.9052 1.31681 46.5884 2.94118 46.5884H97.0588C98.6832 46.5884 100 47.9052 100 49.5296C100 51.1539 98.6832 52.4707 97.0588 52.4707H2.94118Z" fill="black"/>
<path d="M49.9998 82.5884H97.0586C98.683 82.5884 99.9998 81.2716 99.9998 79.6472C99.9998 78.0229 98.683 76.7061 97.0586 76.7061H49.9998C48.3754 76.7061 47.0586 78.0229 47.0586 79.6472C47.0586 81.2716 48.3754 82.5884 49.9998 82.5884Z" fill="black"/>
</svg>
