<?xml version="1.0" encoding="UTF-8"?>
<svg width="100px" height="100px" viewBox="0 0 100 100" version="1.1" xmlns="http://www.w3.org/2000/svg" xmlns:xlink="http://www.w3.org/1999/xlink">
    <!-- Generator: Sketch 57.1 (83088) - https://sketch.com -->
    <title>regular/burger-regular</title>
    <desc>Created with Sketch.</desc>
    <g id="regular/burger" stroke="none" stroke-width="1" fill="none" fill-rule="evenodd">
        <path d="M97.62,77.95 C98.9344378,77.95 100,79.0155623 100,80.33 C100,81.6444377 98.9344378,82.71 97.62,82.71 L2.37999995,82.71 C1.0655623,82.71 9.1859178e-08,81.6444377 9.1859178e-08,80.33 C9.1859178e-08,79.0155624 1.0655623,77.95 2.37999995,77.95 L97.62,77.95 Z M97.62,47.48 C98.9344378,47.48 99.9999998,48.5455623 99.9999998,49.86 C99.9999998,51.1744377 98.9344378,52.24 97.62,52.24 L2.37999995,52.24 C1.52970782,52.24 0.74400548,51.7863746 0.318859406,51.05 C-0.106286669,50.3136255 -0.106286669,49.4063745 0.318859406,48.67 C0.74400548,47.9336254 1.52970782,47.48 2.37999995,47.48 L97.62,47.48 Z M97.62,17 C98.9344378,17 99.9999999,18.0655623 99.9999999,19.38 C99.9999999,20.6944377 98.9344378,21.76 97.62,21.76 L2.37999995,21.76 C1.06556225,21.76 -5.00000255e-08,20.6944377 -5.00000255e-08,19.38 C-5.00000255e-08,18.0655623 1.06556225,17 2.37999995,17 L97.62,17 Z" id="Shape" fill="#000000"></path>
    </g>
</svg>