<svg width="100" height="100" viewBox="0 0 100 100" fill="none" xmlns="http://www.w3.org/2000/svg">
<path d="M27.0822 78.0942H32.1881C32.6299 78.0942 32.9881 78.4524 32.9881 78.8942V84.0001C32.9881 84.4419 32.6299 84.8001 32.1881 84.8001H27.0822C26.6404 84.8001 26.2822 84.4419 26.2822 84.0001V78.8942C26.2822 78.4524 26.6404 78.0942 27.0822 78.0942Z" fill="black"/>
<path d="M32.1881 64.6704H27.0822C26.6404 64.6704 26.2822 65.0286 26.2822 65.4704V70.5763C26.2822 71.0181 26.6404 71.3763 27.0822 71.3763H32.1881C32.6299 71.3763 32.9881 71.0181 32.9881 70.5763V65.4704C32.9881 65.0286 32.6299 64.6704 32.1881 64.6704Z" fill="black"/>
<path d="M27.0822 51.2471H32.1881C32.6299 51.2471 32.9881 51.6052 32.9881 52.0471V57.153C32.9881 57.5948 32.6299 57.953 32.1881 57.953H27.0822C26.6404 57.953 26.2822 57.5948 26.2822 57.153V52.0471C26.2822 51.6052 26.6404 51.2471 27.0822 51.2471Z" fill="black"/>
<path d="M32.1881 37.8237H27.0822C26.6404 37.8237 26.2822 38.1819 26.2822 38.6237V43.7296C26.2822 44.1714 26.6404 44.5296 27.0822 44.5296H32.1881C32.6299 44.5296 32.9881 44.1714 32.9881 43.7296V38.6237C32.9881 38.1819 32.6299 37.8237 32.1881 37.8237Z" fill="black"/>
<path d="M40.506 78.0942H45.6119C46.0538 78.0942 46.4119 78.4524 46.4119 78.8942V84.0001C46.4119 84.4419 46.0538 84.8001 45.6119 84.8001H40.506C40.0642 84.8001 39.706 84.4419 39.706 84.0001V78.8942C39.706 78.4524 40.0642 78.0942 40.506 78.0942Z" fill="black"/>
<path d="M45.6119 64.6704H40.506C40.0642 64.6704 39.706 65.0286 39.706 65.4704V70.5763C39.706 71.0181 40.0642 71.3763 40.506 71.3763H45.6119C46.0538 71.3763 46.4119 71.0181 46.4119 70.5763V65.4704C46.4119 65.0286 46.0538 64.6704 45.6119 64.6704Z" fill="black"/>
<path d="M40.506 51.2471H45.6119C46.0538 51.2471 46.4119 51.6052 46.4119 52.0471V57.153C46.4119 57.5948 46.0538 57.953 45.6119 57.953H40.506C40.0642 57.953 39.706 57.5948 39.706 57.153V52.0471C39.706 51.6052 40.0642 51.2471 40.506 51.2471Z" fill="black"/>
<path d="M45.6119 37.8237H40.506C40.0642 37.8237 39.706 38.1819 39.706 38.6237V43.7296C39.706 44.1714 40.0642 44.5296 40.506 44.5296H45.6119C46.0538 44.5296 46.4119 44.1714 46.4119 43.7296V38.6237C46.4119 38.1819 46.0538 37.8237 45.6119 37.8237Z" fill="black"/>
<path d="M53.9299 78.0942H59.0358C59.4776 78.0942 59.8358 78.4524 59.8358 78.8942V84.0001C59.8358 84.4419 59.4776 84.8001 59.0358 84.8001H53.9299C53.488 84.8001 53.1299 84.4419 53.1299 84.0001V78.8942C53.1299 78.4524 53.488 78.0942 53.9299 78.0942Z" fill="black"/>
<path d="M59.0358 64.6704H53.9299C53.488 64.6704 53.1299 65.0286 53.1299 65.4704V70.5763C53.1299 71.0181 53.488 71.3763 53.9299 71.3763H59.0358C59.4776 71.3763 59.8358 71.0181 59.8358 70.5763V65.4704C59.8358 65.0286 59.4776 64.6704 59.0358 64.6704Z" fill="black"/>
<path d="M53.9299 51.2471H59.0358C59.4776 51.2471 59.8358 51.6052 59.8358 52.0471V57.153C59.8358 57.5948 59.4776 57.953 59.0358 57.953H53.9299C53.488 57.953 53.1299 57.5948 53.1299 57.153V52.0471C53.1299 51.6052 53.488 51.2471 53.9299 51.2471Z" fill="black"/>
<path d="M59.0358 37.8237H53.9299C53.488 37.8237 53.1299 38.1819 53.1299 38.6237V43.7296C53.1299 44.1714 53.488 44.5296 53.9299 44.5296H59.0358C59.4776 44.5296 59.8358 44.1714 59.8358 43.7296V38.6237C59.8358 38.1819 59.4776 37.8237 59.0358 37.8237Z" fill="black"/>
<path d="M67.341 37.8237H72.4469C72.8887 37.8237 73.2469 38.1819 73.2469 38.6237V84.0002C73.2469 84.442 72.8887 84.8002 72.4469 84.8002H67.341C66.8992 84.8002 66.541 84.442 66.541 84.0002V38.6237C66.541 38.1819 66.8992 37.8237 67.341 37.8237Z" fill="black"/>
<path fill-rule="evenodd" clip-rule="evenodd" d="M19.5296 0H80.0119C82.6732 0.00646729 84.829 2.16225 84.8354 4.82353V95.1765C84.829 97.8377 82.6732 99.9935 80.0119 100H19.5296C16.8683 99.9935 14.7125 97.8377 14.7061 95.1765V4.82353C14.7125 2.16225 16.8683 0.00646729 19.5296 0ZM78.9531 22.6353V5.88235H20.5884V22.6353H78.9531ZM20.5884 28.5176V94.1176H78.9531V28.5176H20.5884Z" fill="black"/>
</svg>
