<svg width="100" height="100" viewBox="0 0 100 100" fill="none" xmlns="http://www.w3.org/2000/svg">
<path d="M84.8355 4.82353V22.6353H14.7061V4.82353C14.7125 2.16225 16.8683 0.00646729 19.5296 0H80.0119C82.6732 0.00646729 84.829 2.16225 84.8355 4.82353Z" fill="black"/>
<path fill-rule="evenodd" clip-rule="evenodd" d="M14.7061 95.1764V28.5176H84.8355V95.1764C84.829 97.8377 82.6732 99.9935 80.0119 99.9999H19.5296C16.8683 99.9935 14.7125 97.8377 14.7061 95.1764ZM32.0472 84.7529C32.567 84.7529 32.9884 84.3315 32.9884 83.8117V78.9882C32.9884 78.4684 32.567 78.047 32.0472 78.047H27.2237C26.7039 78.047 26.2825 78.4684 26.2825 78.9882V83.8117C26.2825 84.3315 26.7039 84.7529 27.2237 84.7529H32.0472ZM27.2237 71.3411H32.0472C32.567 71.3411 32.9884 70.9197 32.9884 70.3999V65.6117C32.9884 65.0919 32.567 64.6705 32.0472 64.6705H27.2237C26.9741 64.6705 26.7347 64.7697 26.5582 64.9462C26.3817 65.1227 26.2825 65.3621 26.2825 65.6117V70.3999C26.2825 70.6496 26.3817 70.8889 26.5582 71.0654C26.7347 71.242 26.9741 71.3411 27.2237 71.3411ZM32.0472 57.9176C32.567 57.9176 32.9884 57.4962 32.9884 56.9764V52.1882C32.9884 51.6684 32.567 51.247 32.0472 51.247H27.2237C26.9741 51.247 26.7347 51.3461 26.5582 51.5227C26.3817 51.6992 26.2825 51.9386 26.2825 52.1882V56.9764C26.2825 57.4962 26.7039 57.9176 27.2237 57.9176H32.0472ZM32.0472 44.494C32.567 44.494 32.9884 44.0727 32.9884 43.5529V38.8235C32.9884 38.3037 32.567 37.8823 32.0472 37.8823H27.2237C26.9741 37.8823 26.7347 37.9814 26.5582 38.1579C26.3817 38.3345 26.2825 38.5738 26.2825 38.8235V43.5529C26.2825 43.8025 26.3817 44.0419 26.5582 44.2184C26.7347 44.3949 26.9741 44.494 27.2237 44.494H32.0472ZM45.5296 84.7999C46.0494 84.7999 46.4708 84.3786 46.4708 83.8588V79.0352C46.4708 78.5154 46.0494 78.094 45.5296 78.094H40.7061C40.1863 78.094 39.7649 78.5154 39.7649 79.0352V83.8588C39.7617 84.1093 39.8598 84.3506 40.037 84.5278C40.2142 84.705 40.4555 84.8031 40.7061 84.7999H45.5296ZM45.5296 71.3882C46.0494 71.3882 46.4708 70.9668 46.4708 70.447V65.6117C46.4708 65.0919 46.0494 64.6705 45.5296 64.6705H40.7061C40.1863 64.6705 39.7649 65.0919 39.7649 65.6117V70.447C39.7649 70.9668 40.1863 71.3882 40.7061 71.3882H45.5296ZM45.5296 57.9646C46.0494 57.9646 46.4708 57.5433 46.4708 57.0235V52.1882C46.4708 51.6684 46.0494 51.247 45.5296 51.247H40.7061C40.1863 51.247 39.7649 51.6684 39.7649 52.1882V57.0235C39.7649 57.5433 40.1863 57.9646 40.7061 57.9646H45.5296ZM45.5296 44.5411C46.0494 44.5411 46.4708 44.1197 46.4708 43.5999V38.8235C46.4708 38.3037 46.0494 37.8823 45.5296 37.8823H40.7061C40.1863 37.8823 39.7649 38.3037 39.7649 38.8235V43.5999C39.7649 44.1197 40.1863 44.5411 40.7061 44.5411H45.5296ZM58.8943 84.7999C59.4141 84.7999 59.8355 84.3786 59.8355 83.8588V79.0352C59.8355 78.5154 59.4141 78.094 58.8943 78.094H54.0708C53.551 78.094 53.1296 78.5154 53.1296 79.0352V83.8588C53.1264 84.1093 53.2245 84.3506 53.4017 84.5278C53.5789 84.705 53.8202 84.8031 54.0708 84.7999H58.8943ZM58.8943 71.3882C59.4141 71.3882 59.8355 70.9668 59.8355 70.447V65.6117C59.8355 65.0919 59.4141 64.6705 58.8943 64.6705H54.0708C53.551 64.6705 53.1296 65.0919 53.1296 65.6117V70.447C53.1296 70.9668 53.551 71.3882 54.0708 71.3882H58.8943ZM58.8943 57.9646C59.4141 57.9646 59.8355 57.5433 59.8355 57.0235V52.1882C59.8355 51.6684 59.4141 51.247 58.8943 51.247H54.0708C53.551 51.247 53.1296 51.6684 53.1296 52.1882V57.0235C53.1296 57.5433 53.551 57.9646 54.0708 57.9646H58.8943ZM58.8943 44.5411C59.4141 44.5411 59.8355 44.1197 59.8355 43.5999V38.8235C59.8355 38.3037 59.4141 37.8823 58.8943 37.8823H54.0708C53.551 37.8823 53.1296 38.3037 53.1296 38.8235V43.5999C53.1296 44.1197 53.551 44.5411 54.0708 44.5411H58.8943ZM72.3178 84.7999C72.8376 84.7999 73.259 84.3786 73.259 83.8588L73.2943 38.8235C73.2943 38.3037 72.8729 37.8823 72.3531 37.8823H67.4825C66.9627 37.8823 66.5414 38.3037 66.5414 38.8235V83.8588C66.5414 84.3786 66.9627 84.7999 67.4825 84.7999H72.3178Z" fill="black"/>
</svg>
