<?xml version="1.0" encoding="UTF-8"?>
<svg width="100px" height="100px" viewBox="0 0 100 100" version="1.1" xmlns="http://www.w3.org/2000/svg" xmlns:xlink="http://www.w3.org/1999/xlink">
    <!-- Generator: Sketch 57.1 (83088) - https://sketch.com -->
    <title>regular/calendar-regular</title>
    <desc>Created with Sketch.</desc>
    <g id="regular/calendar" stroke="none" stroke-width="1" fill="none" fill-rule="evenodd">
        <path d="M95.24,5.50999996 L92.38,5.50999996 L92.38,5.23999996 C92.38,2.34602786 90.0339721,-4.9999997e-08 87.14,-4.9999997e-08 C84.2460279,-4.9999997e-08 81.9,2.34602786 81.9,5.23999996 L81.9,5.50999996 L67.62,5.50999996 L67.62,5.23999996 C67.62,2.34602786 65.2739721,-4.9999997e-08 62.38,-4.9999997e-08 C59.4860279,-4.9999997e-08 57.14,2.34602786 57.14,5.23999996 L57.14,5.50999996 L42.86,5.50999996 L42.86,5.23999996 C42.86,2.34602786 40.5139721,-4.9999997e-08 37.62,-4.9999997e-08 C34.7260279,-4.9999997e-08 32.38,2.34602786 32.38,5.23999996 L32.38,5.50999996 L18.1,5.50999996 L18.1,5.23999996 C18.1,2.34602786 15.7539721,-4.9999997e-08 12.86,-4.9999997e-08 C9.96602787,-4.9999997e-08 7.61999996,2.34602786 7.61999996,5.23999996 L7.61999996,5.50999996 L4.75999995,5.50999996 C2.13112454,5.50999996 -4.9999997e-08,7.64112455 -4.9999997e-08,10.27 L-4.9999997e-08,96.43 C-4.9999997e-08,98.4016566 1.59834339,100 3.56999995,100 L96.43,100 C98.4016566,100 100,98.4016566 100,96.43 L100,10.27 C100,7.64112455 97.8688755,5.50999996 95.24,5.50999996 Z M86.67,5.23999995 C86.67,4.96385758 86.8938577,4.73999995 87.17,4.73999995 C87.4461424,4.73999995 87.67,4.96385758 87.67,5.23999995 L87.67,10.53 C87.67,10.8061423 87.4461424,11.03 87.17,11.03 C86.8938577,11.03 86.67,10.8061423 86.67,10.53 L86.67,5.23999995 Z M61.9,5.23999995 C61.9,4.96385758 62.1238576,4.73999995 62.4,4.73999995 C62.6761424,4.73999995 62.9,4.96385758 62.9,5.23999995 L62.9,10.53 C62.9,10.8061423 62.6761424,11.03 62.4,11.03 C62.1238576,11.03 61.9,10.8061423 61.9,10.53 L61.9,5.23999995 Z M37.14,5.23999995 C37.14,4.96385758 37.3638576,4.73999995 37.64,4.73999995 C37.9161424,4.73999995 38.14,4.96385758 38.14,5.23999995 L38.14,10.53 C38.14,10.8061423 37.9161424,11.03 37.64,11.03 C37.3638576,11.03 37.14,10.8061423 37.14,10.53 L37.14,5.23999995 Z M12.38,5.23999996 C12.3529189,5.05384576 12.4370736,4.86903053 12.5952685,4.76724084 C12.7534634,4.66545116 12.9565365,4.66545116 13.1147314,4.76724084 C13.2729263,4.86903053 13.357081,5.05384576 13.33,5.23999996 L13.33,10.53 C13.357081,10.7161542 13.2729263,10.9009694 13.1147314,11.0027591 C12.9565365,11.1045488 12.7534634,11.1045488 12.5952685,11.0027591 C12.4370736,10.9009694 12.3529189,10.7161542 12.38,10.53 L12.38,5.23999996 Z M95.24,95.24 L4.75999995,95.24 L4.75999995,26.65 L95.24,26.65 L95.24,95.24 Z M95.24,21.89 L4.75999995,21.89 L4.75999995,10.27 L7.61999996,10.27 L7.61999996,10.53 C7.61999996,13.4239721 9.96602787,15.77 12.86,15.77 C15.7539721,15.77 18.1,13.4239721 18.1,10.53 L18.1,10.27 L32.38,10.27 L32.38,10.53 C32.38,13.4239721 34.7260279,15.77 37.62,15.77 C40.5139721,15.77 42.86,13.4239721 42.86,10.53 L42.86,10.27 L57.14,10.27 L57.14,10.53 C57.14,13.4239721 59.4860279,15.77 62.38,15.77 C65.2739721,15.77 67.62,13.4239721 67.62,10.53 L67.62,10.27 L81.9,10.27 L81.9,10.53 C81.9,13.4239721 84.2460279,15.77 87.14,15.77 C90.0339721,15.77 92.38,13.4239721 92.38,10.53 L92.38,10.27 L95.24,10.27 L95.24,21.89 Z" id="calendar" fill="#000000"></path>
    </g>
</svg>