<?xml version="1.0" encoding="UTF-8"?>
<svg width="100px" height="100px" viewBox="0 0 100 100" version="1.1" xmlns="http://www.w3.org/2000/svg" xmlns:xlink="http://www.w3.org/1999/xlink">
    <!-- Generator: Sketch 57.1 (83088) - https://sketch.com -->
    <title>solid/calendar-check-solid</title>
    <desc>Created with Sketch.</desc>
    <g id="solid/calendar-check" stroke="none" stroke-width="1" fill="none" fill-rule="evenodd">
        <path d="M100,26.65 L100,96.43 C100,98.4016566 98.4016566,100 96.43,100 L3.56999995,100 C1.59834339,100 -4.99996062e-08,98.4016566 -4.99996062e-08,96.43 L-4.99996062e-08,26.65 L100,26.65 Z M82.8378262,37.1005919 C81.9845105,36.2395886 80.620391,36.1575165 79.67,36.91 L35.74,80.83 C35.6835225,80.8880365 35.605981,80.9207753 35.525,80.9207753 C35.4440189,80.9207753 35.3664775,80.8880365 35.31,80.83 L20.31,65.83 C19.3737122,64.9369322 17.8954641,64.9554906 16.9818915,65.8717821 C16.068319,66.7880736 16.0541537,68.2663703 16.95,69.2 L31.95,84.2 C33.9288016,86.1732591 37.1311983,86.1732591 39.11,84.2 L83,40.27 C83.7609768,39.3263958 83.691142,37.9615952 82.8378262,37.1005919 Z M87.14,-5.0000029e-08 C90.0339721,-5.0000029e-08 92.38,2.34602786 92.38,5.23999996 L92.38,5.50999996 L95.24,5.50999996 C97.8688755,5.50999996 100,7.64112455 100,10.27 L100,21.89 L-4.99996062e-08,21.89 L-4.99996062e-08,10.27 C-4.99996062e-08,7.64112455 2.13112454,5.50999996 4.75999995,5.50999996 L7.61999996,5.50999996 L7.61999996,5.23999996 C7.61999996,2.34602786 9.96602787,-5.0000029e-08 12.86,-5.0000029e-08 C15.7539721,-5.0000029e-08 18.1,2.34602786 18.1,5.23999996 L18.1,5.50999996 L32.38,5.50999996 L32.38,5.23999996 C32.38,2.34602786 34.7260279,-5.0000029e-08 37.62,-5.0000029e-08 C40.5139721,-5.0000029e-08 42.86,2.34602786 42.86,5.23999996 L42.86,5.50999996 L57.14,5.50999996 L57.14,5.23999996 C57.14,2.34602786 59.4860279,-5.0000029e-08 62.38,-5.0000029e-08 C65.2739721,-5.0000029e-08 67.62,2.34602786 67.62,5.23999996 L67.62,5.50999996 L81.9,5.50999996 L81.9,5.23999996 C81.9,2.34602786 84.2460279,-5.0000029e-08 87.14,-5.0000029e-08 Z" id="Shape" fill="#000000"></path>
    </g>
</svg>