<svg width="100" height="100" viewBox="0 0 100 100" fill="none" xmlns="http://www.w3.org/2000/svg">
<path d="M94.7059 5.37713H92.4353C92.2415 2.35334 89.734 0 86.7059 0C83.6777 0 81.1702 2.35334 80.9765 5.37713H67.9647C67.771 2.35334 65.2634 0 62.2353 0C59.2072 0 56.6996 2.35334 56.5059 5.37713H43.5294C43.3357 2.35334 40.8281 0 37.8 0C34.7719 0 32.2643 2.35334 32.0706 5.37713H19.0235C18.8298 2.35334 16.3223 0 13.2941 0C10.266 0 7.75846 2.35334 7.56471 5.37713H5.29412C2.37294 5.3836 0.00646996 7.75153 0 10.6745V95.8798C0 98.1553 1.84353 100 4.11765 100H95.8824C98.1565 100 100 98.1553 100 95.8798V10.6745C99.9935 7.75153 97.6271 5.3836 94.7059 5.37713ZM7.56471 11.2631C7.75846 14.2869 10.266 16.6402 13.2941 16.6402C16.3223 16.6402 18.8298 14.2869 19.0235 11.2631H32.0353C32.229 14.2869 34.7366 16.6402 37.7647 16.6402C40.7928 16.6402 43.3004 14.2869 43.4941 11.2631H56.4706C56.6643 14.2869 59.1719 16.6402 62.2 16.6402C65.2281 16.6402 67.7357 14.2869 67.9294 11.2631H80.9765C81.1702 14.2869 83.6777 16.6402 86.7059 16.6402C89.734 16.6402 92.2415 14.2869 92.4353 11.2631H94.1176V21.5871H5.88235V11.2631H7.56471ZM5.88235 94.114V27.4731H94.1176V94.114H5.88235Z" fill="black"/>
</svg>
