<svg width="100" height="100" viewBox="0 0 100 100" fill="none" xmlns="http://www.w3.org/2000/svg">
<path d="M100 10.6745V20.9514H0V10.6745C0.00646996 7.75154 2.37294 5.38361 5.29412 5.37713H7.56471C7.75846 2.35334 10.266 0 13.2941 0C16.3223 0 18.8298 2.35334 19.0235 5.37713H32.0706C32.2643 2.35334 34.7719 0 37.8 0C40.8281 0 43.3357 2.35334 43.5294 5.37713H56.5059C56.6996 2.35334 59.2072 0 62.2353 0C65.2634 0 67.771 2.35334 67.9647 5.37713H80.9765C81.1702 2.35334 83.6777 0 86.7059 0C89.734 0 92.2415 2.35334 92.4353 5.37713H94.7059C97.6271 5.38361 99.9935 7.75154 100 10.6745Z" fill="black"/>
<path fill-rule="evenodd" clip-rule="evenodd" d="M0 95.8798V26.8373H100V95.8798C100 98.1553 98.1565 100 95.8824 100H4.11765C1.84353 100 0 98.1553 0 95.8798ZM32.3529 63.7306H67.6471C69.2714 63.7306 70.5882 62.413 70.5882 60.7876C70.5882 59.1623 69.2714 57.8446 67.6471 57.8446H32.3529C30.7286 57.8446 29.4118 59.1623 29.4118 60.7876C29.4118 62.413 30.7286 63.7306 32.3529 63.7306Z" fill="black"/>
</svg>
