<?xml version="1.0" encoding="UTF-8"?>
<svg width="100px" height="100px" viewBox="0 0 100 100" version="1.1" xmlns="http://www.w3.org/2000/svg" xmlns:xlink="http://www.w3.org/1999/xlink">
    <!-- Generator: Sketch 57.1 (83088) - https://sketch.com -->
    <title>bold/calendar-days-bold</title>
    <desc>Created with Sketch.</desc>
    <g id="bold/calendar-days" stroke="none" stroke-width="1" fill="none" fill-rule="evenodd">
        <path d="M61.6831683,0.916349375 C64.8313819,0.916349375 67.6020566,2.96295419 68.5399752,5.94718702 L68.6138614,6.19801976 L78.1584159,6.19801976 C79.0296648,3.09098258 81.8622289,0.943446027 85.0891089,0.943446027 C88.228776,0.943446027 90.9951534,2.97646822 91.9448932,5.94822391 L92.019802,6.19801976 L92.7524753,6.19801976 C96.3986369,6.19801584 99.3705913,9.0881483 99.500528,12.7037853 L99.5049505,12.940594 L99.5049505,94.3762377 C99.4996305,97.4059991 97.1031692,99.8744709 94.1018504,99.9953693 L93.8811882,100 L6.11881184,100 C3.08905044,99.99468 0.62057862,97.5982187 0.499680165,94.5968999 L0.495049455,94.3762377 L0.495049455,12.940594 C0.500395733,9.29443638 3.39488598,6.32672601 7.01070971,6.20209481 L7.24752471,6.19801976 L7.95049501,6.19801976 C8.82174398,3.09098258 11.654308,0.943446027 14.8811881,0.943446027 C18.0208551,0.943446027 20.7872326,2.97646822 21.7369723,5.94822391 L21.8118812,6.19801976 L31.3465346,6.19801976 C32.2047044,3.07823363 35.0415638,0.916349375 38.2772277,0.916349375 C41.4254412,0.916349375 44.1961159,2.96295419 45.1340346,5.94718702 L45.2079208,6.19801976 L54.7524753,6.19801976 C55.610645,3.07823363 58.4475044,0.916349375 61.6831683,0.916349375 Z M90.5049505,30.6930693 L9.49504946,30.6930693 L9.49504946,91 L90.5049505,91 L90.5049505,30.6930693 Z M86.9009901,79.019802 C87.7377465,79.019802 88.5400877,79.3528742 89.1308342,79.9454784 C89.7215807,80.5380826 90.0521363,81.3414656 90.049536,82.1782179 L90.049536,87.3960396 C90.049536,89.1349164 88.6398669,90.5445545 86.9009901,90.5445545 L81.6831683,90.5445545 C79.9442916,90.5445545 78.5346535,89.1349164 78.5346535,87.3960396 L78.5346535,82.1782179 C78.5346535,80.4377322 79.9426913,79.0252581 81.6831683,79.019802 L86.9009901,79.019802 Z M67.970297,79.019802 L73.1881188,79.019802 C74.8685795,79.0250699 76.2391323,80.3419932 76.3316551,81.9993819 L76.3366337,82.1782179 L76.3366337,87.3960396 C76.3366337,89.0749551 75.0225359,90.4469466 73.3667839,90.5395704 L73.1881188,90.5445545 L67.970297,90.5445545 C66.3025921,90.5288207 64.947853,89.2186193 64.8564058,87.5735363 L64.8514852,87.3960396 L64.8514852,82.1782179 C64.8513539,80.5088435 66.1472229,79.1389498 67.7927011,79.0269455 L67.970297,79.019802 L73.1881188,79.019802 L67.970297,79.019802 Z M59.4653465,79.019802 C61.1495416,79.019802 62.5258475,80.3380322 62.6187626,81.998991 L62.6237624,82.1782179 L62.6237624,87.3960396 C62.6237624,88.232796 62.2906902,89.0351372 61.698086,89.6258837 C61.1548654,90.1674013 60.4345322,90.4902863 59.6737367,90.5383252 L59.4653465,90.5445701 L54.2475248,90.5445701 C52.5686093,90.5445701 51.1966178,89.2304577 51.103994,87.5747047 L51.0990099,87.3960396 L51.0990099,82.1782179 C51.0990099,80.497749 52.4116159,79.1230601 54.0687054,79.0253413 L54.2475248,79.019802 L59.4653465,79.019802 Z M45.7524752,79.019802 C47.4329359,79.0250699 48.8034888,80.3419932 48.8960115,81.9993819 L48.9009901,82.1782179 L48.9009901,87.3960396 C48.9009901,89.0749551 47.5868923,90.4469611 45.9311403,90.5395859 L45.7524752,90.5445855 L40.5346535,90.5445855 C39.6979012,90.5471858 38.8945182,90.2166302 38.301914,89.6258837 C37.7586935,89.0843661 37.433552,88.3650501 37.3831341,87.6044092 L37.3762376,87.3960396 L37.3762376,82.1782179 C37.3762376,80.4940228 38.6944678,79.1177169 40.3554266,79.0248018 L40.5346535,79.019802 L45.7524752,79.019802 Z M31.990099,79.019802 C33.6742941,79.019802 35.0506,80.3380322 35.143515,81.998991 L35.1485148,82.1782179 L35.1485148,87.3960396 C35.1485148,89.0638188 33.8512829,90.4309874 32.2071448,90.5379591 L32.029703,90.5445545 L26.8118812,90.5445545 C25.1329657,90.5445545 23.7609742,89.2304567 23.6683504,87.5747047 L23.6633663,87.3960396 L23.6633663,82.1782179 C23.6633663,80.497749 24.9759723,79.1230601 26.6330618,79.0253413 L26.8118812,79.019802 L31.990099,79.019802 Z M18.3168317,79.019802 C19.9972923,79.0250699 21.3678452,80.3419932 21.4603679,81.9993819 L21.4653465,82.1782179 L21.4653465,87.3960396 C21.4653465,89.0749551 20.1512487,90.4469466 18.4954967,90.5395704 L18.3168317,90.5445545 L13.0990099,90.5445545 C11.4200944,90.5445545 10.0480884,89.2304567 9.95546361,87.5747047 L9.95046401,87.3960396 L9.95046401,82.1782179 C9.9478637,81.3414656 10.2784193,80.5380826 10.8691658,79.9454784 C11.4106834,79.4022579 12.1299994,79.0771164 12.8906403,79.0266985 L13.0990099,79.019802 L18.3168317,79.019802 Z M85.5544555,83.5247525 L83.029703,83.5247525 L83.029703,86.049505 L85.5544555,86.049505 L85.5544555,83.5247525 Z M71.8316832,83.5247525 L69.3168317,83.5247525 L69.3168317,86.049505 L71.8316832,86.049505 L71.8316832,83.5247525 Z M58.1188119,83.5247525 L55.5940594,83.5247525 L55.5940594,86.049505 L58.1188119,86.049505 L58.1188119,83.5247525 Z M44.4059406,83.5247525 L41.8811881,83.5247525 L41.8811881,86.049505 L44.4059406,86.049505 L44.4059406,83.5247525 Z M30.7326732,83.5247525 L28.2178218,83.5247525 L28.2178218,86.049505 L30.7326732,86.049505 L30.7326732,83.5247525 Z M16.970297,83.5247525 L14.4455445,83.5247525 L14.4455445,86.049505 L16.970297,86.049505 L16.970297,83.5247525 Z M86.9009901,63.059406 C88.5799056,63.059406 89.9518971,64.3735038 90.0445209,66.0292558 L90.049505,66.2079208 L90.049505,71.4356436 C90.049505,73.1145591 88.7354072,74.4865505 87.0796552,74.5791743 L86.9009901,74.5841584 L81.6831683,74.5841584 C80.0064315,74.5789104 78.6374787,73.2675952 78.5401696,71.6140723 L78.5346535,71.4356436 L78.5346535,66.2079208 C78.5399015,64.531184 79.8512168,63.1622312 81.5047396,63.064922 L81.6831683,63.059406 L86.9009901,63.059406 Z M73.1881188,63.059406 C74.8648557,63.064654 76.2338085,64.3759692 76.3311176,66.0294921 L76.3366337,66.2079208 L76.3366337,71.4356436 C76.3313856,73.1123804 75.0200704,74.4813332 73.3665476,74.5786424 L73.1881188,74.5841584 L67.970297,74.5841584 C66.3047705,74.5632802 64.9529184,73.2558123 64.856922,71.6129091 L64.8514852,71.4356436 L64.8514852,66.2079208 C64.8565758,64.5422712 66.1511715,63.178087 67.793091,63.0665228 L67.970297,63.059406 L73.1881188,63.059406 Z M59.4653465,63.059406 C61.1458154,63.059406 62.5205043,64.3720119 62.6182231,66.0291014 L62.6237624,66.2079208 L62.6237624,71.4356436 C62.6184945,73.1161042 61.3015712,74.4866571 59.6441825,74.5791798 L59.4653465,74.5841584 L54.2475248,74.5841584 C52.5707879,74.5789104 51.2018351,73.2675952 51.104526,71.6140723 L51.0990099,71.4356436 L51.0990099,66.2079208 C51.1042579,64.531184 52.4155732,63.1622312 54.069096,63.064922 L54.2475248,63.059406 L59.4653465,63.059406 Z M45.7524752,63.059406 C47.4292121,63.064654 48.7981649,64.3759692 48.895474,66.0294921 L48.9009901,66.2079208 L48.9009901,71.4356436 C48.8957421,73.1123804 47.5844268,74.4813332 45.930904,74.5786424 L45.7524752,74.5841584 L40.5346535,74.5841584 C38.8541846,74.5841584 37.4794957,73.2715525 37.3817769,71.614463 L37.3762376,71.4356436 L37.3762376,66.2079208 C37.3815055,64.5274602 38.6984288,63.1569073 40.3558175,63.0643846 L40.5346535,63.059406 L45.7524752,63.059406 Z M31.990099,63.059406 C33.6705679,63.059406 35.0452567,64.3720119 35.1429756,66.0291014 L35.1485148,66.2079208 L35.1485148,71.4356436 C35.1434242,73.1012932 33.8488285,74.4654774 32.206909,74.5770416 L32.029703,74.5841584 L26.8118812,74.5841584 C25.1351443,74.5789104 23.7661915,73.2675952 23.6688824,71.6140723 L23.6633663,71.4356436 L23.6633663,66.2079208 C23.6686144,64.531184 24.9799296,63.1622312 26.6334524,63.064922 L26.8118812,63.059406 L31.990099,63.059406 Z M18.3168317,63.059406 C19.9935685,63.064654 21.3625213,64.3759692 21.4598304,66.0294921 L21.4653465,66.2079208 L21.4653465,71.4356436 C21.4600985,73.1123804 20.1487832,74.4813332 18.4952604,74.5786424 L18.3168317,74.5841584 L13.0990099,74.5841584 C11.4200944,74.5841584 10.0481029,73.2700606 9.95547915,71.6143086 L9.95049501,71.4356436 L9.95049501,66.2079208 C9.95049501,64.5290053 11.2645928,63.1570139 12.9203448,63.0643901 L13.0990099,63.059406 L18.3168317,63.059406 Z M58.1188119,67.5643565 L55.5940594,67.5643565 L55.5940594,70.0792079 L58.1188119,70.0792079 L58.1188119,67.5643565 Z M85.5544555,67.5643565 L83.029703,67.5643565 L83.029703,70.0792079 L85.5544555,70.0792079 L85.5544555,67.5643565 Z M30.7326732,67.5643565 L28.2178218,67.5643565 L28.2178218,70.0792079 L30.7326732,70.0792079 L30.7326732,67.5643565 Z M71.8316832,67.5643565 L69.3168317,67.5643565 L69.3168317,70.0792079 L71.8316832,70.0792079 L71.8316832,67.5643565 Z M16.970297,67.5643565 L14.4455445,67.5643565 L14.4455445,70.0792079 L16.970297,70.0792079 L16.970297,67.5643565 Z M44.4059406,67.5643565 L41.8811881,67.5643565 L41.8811881,70.0792079 L44.4059406,70.0792079 L44.4059406,67.5643565 Z M31.990099,47.0989789 C32.8268512,47.0963786 33.6302342,47.4269342 34.2228384,48.0176807 C34.7660589,48.5591983 35.0912547,49.2785143 35.1416816,50.0391552 L35.1486431,50.2475248 L35.1486431,55.4455446 C35.1591275,57.1207707 33.8592372,58.49943 32.2079298,58.6072199 L32.029703,58.6138614 L26.8118812,58.6138614 C25.9734008,58.6138614 25.1695482,58.2794435 24.5785146,57.6846927 C24.0367337,57.1395045 23.7148078,56.416864 23.6689298,55.6543794 L23.663304,55.4455446 L23.663304,50.2475248 C23.663304,48.5686093 24.9774599,47.1966033 26.6332159,47.1039785 L26.8118812,47.0989789 L31.990099,47.0989789 Z M86.9009901,47.0990099 C88.5799056,47.0990099 89.9519552,48.4131077 90.044583,50.0688597 L90.0496283,50.2475248 L90.0496283,55.4455446 C90.0547785,56.2840083 89.7253904,57.0899419 89.1343567,57.6846927 C88.5925759,58.229881 87.871968,58.5563172 87.1097857,58.6069372 L86.9009901,58.6138614 L81.6831683,58.6138614 C80.844688,58.6138614 80.0408353,58.2794435 79.4498017,57.6846927 C78.9080209,57.1395045 78.586095,56.416864 78.540217,55.6543794 L78.5345911,55.4455446 L78.5345911,50.2475248 C78.5345911,48.5686093 79.8487471,47.1966178 81.5045031,47.103994 L81.6831683,47.0990099 L86.9009901,47.0990099 Z M59.4653465,47.0989789 C60.3020988,47.0963786 61.1054818,47.4269342 61.698086,48.0176807 C62.2413065,48.5591983 62.5665005,49.2785143 62.6169272,50.0391552 L62.6238859,50.2475248 L62.6238859,55.4455446 C62.6290509,56.2857271 62.2983076,57.0931721 61.7051275,57.6882117 C61.1613791,58.2336646 60.4384618,58.5591575 59.6745875,58.6075827 L59.4653465,58.6138772 L54.2475248,58.6138772 C53.4090444,58.6138772 52.6051918,58.2794435 52.0141581,57.6846927 C51.4723773,57.1395045 51.1504514,56.416864 51.1045734,55.6543794 L51.0989475,55.4455446 L51.0989475,50.2475248 C51.0989475,48.5686093 52.4131035,47.1966033 54.0688595,47.1039785 L54.2475248,47.0989789 L59.4653465,47.0989789 Z M73.1881188,47.0990099 C74.8670343,47.0990099 76.2390839,48.4131077 76.3317117,50.0688597 L76.336757,50.2475248 L76.336757,55.4455446 C76.3419072,56.2840083 76.0125191,57.0899419 75.4214854,57.6846927 C74.8797046,58.229881 74.1590967,58.5563172 73.3969144,58.6069372 L73.1881188,58.6138614 L67.970297,58.6138614 C66.2951116,58.5980907 64.9370926,57.2766539 64.8552613,55.6238539 L64.8514207,55.4455446 L64.8514207,50.2475248 C64.8514207,48.5797456 66.1487127,47.212577 67.792855,47.1056053 L67.970297,47.0990099 L73.1881188,47.0990099 Z M18.3168317,47.0990099 C19.9957471,47.0990099 21.3677967,48.4131077 21.4604245,50.0688597 L21.4654698,50.2475248 L21.4654698,55.4455446 C21.47062,56.2840083 21.1412319,57.0899419 20.5501983,57.6846927 C20.0084175,58.229881 19.2878095,58.5563172 18.5256272,58.6069372 L18.3168317,58.6138614 L13.0990099,58.6138614 C12.2605295,58.6138614 11.4566769,58.2794435 10.8656433,57.6846927 C10.3238624,57.1395045 10.0019365,56.416864 9.95605847,55.6543794 L9.95043265,55.4455446 L9.95043265,50.2475248 C9.95043265,48.5686093 11.2645886,47.1966178 12.9203446,47.103994 L13.0990099,47.0990099 L18.3168317,47.0990099 Z M45.7524752,47.0989943 C47.4313907,47.0989943 48.8034403,48.4131067 48.8960681,50.0688597 L48.9011134,50.2475248 L48.9011134,55.4455446 C48.9062636,56.2840083 48.5768755,57.0899419 47.9858419,57.6846927 C47.444061,58.229881 46.7234531,58.5563305 45.9612708,58.6069527 L45.7524752,58.6138928 L40.5346535,58.6138928 C39.6944585,58.6165202 38.8880526,58.2832513 38.2948725,57.6882117 C37.7511241,57.1427587 37.4278955,56.4188262 37.3818255,55.6548042 L37.3761752,55.4455446 L37.3761752,50.2475248 C37.3761752,49.4107684 37.7093098,48.6084272 38.301914,48.0176807 C38.8451346,47.4761631 39.5654678,47.1532781 40.3262633,47.1052392 L40.5346535,47.0989943 L45.7524752,47.0989943 Z M58.1188119,51.5940594 L55.5940594,51.5940594 L55.5940594,54.1188119 L58.1188119,54.1188119 L58.1188119,51.5940594 Z M16.970297,51.5940594 L14.4455445,51.5940594 L14.4455445,54.1188119 L16.970297,54.1188119 L16.970297,51.5940594 Z M44.4059406,51.5940594 L41.8811881,51.5940594 L41.8811881,54.1188119 L44.4059406,54.1188119 L44.4059406,51.5940594 Z M85.5544555,51.5940594 L83.029703,51.5940594 L83.029703,54.1188119 L85.5544555,54.1188119 L85.5544555,51.5940594 Z M71.8316832,51.5940594 L69.3168317,51.5940594 L69.3168317,54.1188119 L71.8316832,54.1188119 L71.8316832,51.5940594 Z M30.7326732,51.5940594 L28.2178218,51.5940594 L28.2178218,54.1188119 L30.7326732,54.1188119 L30.7326732,51.5940594 Z M18.3168317,31.1287129 C19.9935685,31.1339609 21.3625213,32.4452761 21.4598304,34.098799 L21.4653465,34.2772277 L21.4653465,39.5049505 C21.4600985,41.1816873 20.1487832,42.5506401 18.4952604,42.6479493 L18.3168317,42.6534653 L13.0990099,42.6534653 C11.4200944,42.6534653 10.0481029,41.3393675 9.95547915,39.6836155 L9.95049501,39.5049505 L9.95049501,34.2772277 C9.95049501,32.5983122 11.2645928,31.2263208 12.9203448,31.133697 L13.0990099,31.1287129 L18.3168317,31.1287129 Z M31.990099,31.1287129 C33.6705679,31.1287129 35.0452567,32.4413188 35.1429756,34.0984083 L35.1485148,34.2772277 L35.1485148,39.5049505 C35.1434242,41.1706001 33.8488285,42.5347843 32.206909,42.6463485 L32.029703,42.6534653 L26.8118812,42.6534653 C25.1351443,42.6482173 23.7661915,41.3369021 23.6688824,39.6833792 L23.6633663,39.5049505 L23.6633663,34.2772277 C23.6686144,32.6004909 24.9799296,31.2315381 26.6334524,31.1342289 L26.8118812,31.1287129 L31.990099,31.1287129 Z M59.4653465,31.1287129 C61.1458154,31.1287129 62.5205043,32.4413188 62.6182231,34.0984083 L62.6237624,34.2772277 L62.6237624,39.5049505 C62.6184945,41.1854111 61.3015712,42.555964 59.6441825,42.6484867 L59.4653465,42.6534653 L54.2475248,42.6534653 C52.5707879,42.6482173 51.2018351,41.3369021 51.104526,39.6833792 L51.0990099,39.5049505 L51.0990099,34.2772277 C51.1042579,32.6004909 52.4155732,31.2315381 54.069096,31.1342289 L54.2475248,31.1287129 L59.4653465,31.1287129 Z M45.7524752,31.1287129 C47.4292121,31.1339609 48.7981649,32.4452761 48.895474,34.098799 L48.9009901,34.2772277 L48.9009901,39.5049505 C48.8957421,41.1816873 47.5844268,42.5506401 45.930904,42.6479493 L45.7524752,42.6534653 L40.5346535,42.6534653 C38.8541846,42.6534653 37.4794957,41.3408594 37.3817769,39.6837699 L37.3762376,39.5049505 L37.3762376,34.2772277 C37.3815055,32.5967671 38.6984288,31.2262142 40.3558175,31.1336915 L40.5346535,31.1287129 L45.7524752,31.1287129 Z M73.1881188,31.1287129 C74.8648557,31.1339609 76.2338085,32.4452761 76.3311176,34.098799 L76.3366337,34.2772277 L76.3366337,39.5049505 C76.3313856,41.1816873 75.0200704,42.5506401 73.3665476,42.6479493 L73.1881188,42.6534653 L67.970297,42.6534653 C66.3047705,42.6325871 64.9529184,41.3251192 64.856922,39.682216 L64.8514852,39.5049505 L64.8514852,34.2772277 C64.8565758,32.6115781 66.1511715,31.2473939 67.793091,31.1358296 L67.970297,31.1287129 L73.1881188,31.1287129 Z M86.9009901,31.1287129 C88.5799056,31.1287129 89.9518971,32.4428107 90.0445209,34.0985627 L90.049505,34.2772277 L90.049505,39.5049505 C90.049505,41.183866 88.7354072,42.5558574 87.0796552,42.6484812 L86.9009901,42.6534653 L81.6831683,42.6534653 C80.0064315,42.6482173 78.6374787,41.3369021 78.5401696,39.6833792 L78.5346535,39.5049505 L78.5346535,34.2772277 C78.5399015,32.6004909 79.8512168,31.2315381 81.5047396,31.1342289 L81.6831683,31.1287129 L86.9009901,31.1287129 Z M85.5544555,35.6435643 L83.029703,35.6435643 L83.029703,38.1584158 L85.5544555,38.1584158 L85.5544555,35.6435643 Z M71.8316832,35.6435643 L69.3168317,35.6435643 L69.3168317,38.1584158 L71.8316832,38.1584158 L71.8316832,35.6435643 Z M16.970297,35.6435643 L14.4455445,35.6435643 L14.4455445,38.1584158 L16.970297,38.1584158 L16.970297,35.6435643 Z M30.7326732,35.6435643 L28.2178218,35.6435643 L28.2178218,38.1584158 L30.7326732,38.1584158 L30.7326732,35.6435643 Z M44.4059406,35.6435643 L41.8811881,35.6435643 L41.8811881,38.1584158 L44.4059406,38.1584158 L44.4059406,35.6435643 Z M58.1188119,35.6435643 L55.5940594,35.6435643 L55.5940594,38.1584158 L58.1188119,38.1584158 L58.1188119,35.6435643 Z M31.3861386,15.1980198 L21.8118812,15.1980198 C21.0836833,17.7247497 19.0338985,19.6521966 16.4671897,20.2237226 C13.9889881,20.7755408 11.4108226,19.9782948 9.67748806,18.1413715 L9.49504946,17.940594 L9.49504946,21.6930693 L90.5049505,21.6930693 L90.5841585,17.940594 C88.8526675,19.919628 86.178727,20.7952486 83.6120182,20.2237226 C81.1338166,19.6719044 79.1375037,17.8560648 78.3473389,15.4572368 L78.2673268,15.1980198 L68.6930693,15.1980198 C67.8218204,18.3050569 64.9892563,20.4525935 61.7623762,20.4525935 C58.6227092,20.4525935 55.8563317,18.4195713 54.906592,15.4478156 L54.8316832,15.1980198 L45.2475247,15.1980198 C44.3762758,18.3050569 41.5437117,20.4525935 38.3168317,20.4525935 C35.0899516,20.4525935 32.2573876,18.3050569 31.3861386,15.1980198 Z" id="Shape" fill="#000000"></path>
    </g>
</svg>