<svg width="100" height="100" viewBox="0 0 100 100" fill="none" xmlns="http://www.w3.org/2000/svg">
<path d="M41.1768 76.5854C42.0754 77.4901 43.3022 77.9913 44.5768 77.9745H44.8592C46.2153 77.8847 47.469 77.221 48.3062 76.1498L69.965 48.3563C70.6685 47.5328 70.8631 46.3892 70.4714 45.3793C70.0798 44.3693 69.1653 43.6563 68.0908 43.5232C67.0164 43.3901 65.9557 43.8584 65.3298 44.7423L44.4121 71.5117L34.3886 61.4702C33.2385 60.3194 31.3739 60.3194 30.2239 61.4702C29.0738 62.621 29.0738 64.4867 30.2239 65.6375L41.1768 76.5854Z" fill="black"/>
<path fill-rule="evenodd" clip-rule="evenodd" d="M92.4353 5.37713H94.7059C97.6271 5.3836 99.9935 7.75153 100 10.6745V95.8798C100 98.1553 98.1565 100 95.8824 100H4.11765C1.84353 100 0 98.1553 0 95.8798V10.6745C0.00646996 7.75153 2.37294 5.3836 5.29412 5.37713H7.56471C7.75846 2.35334 10.266 0 13.2941 0C16.3223 0 18.8298 2.35334 19.0235 5.37713H32.0706C32.2643 2.35334 34.7719 0 37.8 0C40.8281 0 43.3357 2.35334 43.5294 5.37713H56.5059C56.6996 2.35334 59.2072 0 62.2353 0C65.2634 0 67.771 2.35334 67.9647 5.37713H80.9765C81.1702 2.35334 83.6777 0 86.7059 0C89.734 0 92.2415 2.35334 92.4353 5.37713ZM13.2941 16.6402C10.266 16.6402 7.75846 14.2869 7.56471 11.2631H5.88235V21.5871H94.1176V11.2631H92.4353C92.2415 14.2869 89.734 16.6402 86.7059 16.6402C83.6777 16.6402 81.1702 14.2869 80.9765 11.2631H67.9294C67.7357 14.2869 65.2281 16.6402 62.2 16.6402C59.1719 16.6402 56.6643 14.2869 56.4706 11.2631H43.4941C43.3004 14.2869 40.7928 16.6402 37.7647 16.6402C34.7366 16.6402 32.229 14.2869 32.0353 11.2631H19.0235C18.8298 14.2869 16.3223 16.6402 13.2941 16.6402ZM5.88235 27.4731V94.114H94.1176V27.4731H5.88235Z" fill="black"/>
</svg>
