<svg width="100" height="100" viewBox="0 0 100 100" fill="none" xmlns="http://www.w3.org/2000/svg">
<path d="M100 10.6745V21.5871H0V10.6745C0.00646996 7.75154 2.37294 5.38361 5.29412 5.37714H7.56471C7.75846 2.35334 10.266 0 13.2941 0C16.3223 0 18.8298 2.35334 19.0235 5.37714H32.0706C32.2643 2.35334 34.7719 0 37.8 0C40.8281 0 43.3357 2.35334 43.5294 5.37714H56.5059C56.6996 2.35334 59.2072 0 62.2353 0C65.2634 0 67.771 2.35334 67.9647 5.37714H80.9765C81.1702 2.35334 83.6777 0 86.7059 0C89.734 0 92.2415 2.35334 92.4353 5.37714H94.7059C97.6271 5.38361 99.9935 7.75154 100 10.6745Z" fill="black"/>
<path fill-rule="evenodd" clip-rule="evenodd" d="M0 95.8798V27.473H100V95.8798C100 98.1553 98.1565 100 95.8824 100H4.11765C1.84353 100 0 98.1553 0 95.8798ZM16.6353 89.523C17.285 89.523 17.8118 88.9959 17.8118 88.3458V83.3545C17.8118 82.7043 17.285 82.1773 16.6353 82.1773H11.6471C10.9973 82.1773 10.4706 82.7043 10.4706 83.3545V88.3458C10.4706 88.9959 10.9973 89.523 11.6471 89.523H16.6353ZM16.6353 64.4605C17.285 64.4605 17.8118 63.9334 17.8118 63.2833V58.292C17.8118 57.6418 17.285 57.1148 16.6353 57.1148H11.6471C10.9973 57.1148 10.4706 57.6418 10.4706 58.292V63.2833C10.4706 63.9334 10.9973 64.4605 11.6471 64.4605H16.6353ZM16.6353 39.4097C17.285 39.4097 17.8118 38.8827 17.8118 38.2325V33.2412C17.8118 32.5911 17.285 32.064 16.6353 32.064H11.6471C10.9973 32.064 10.4706 32.5911 10.4706 33.2412V38.2325C10.4706 38.8827 10.9973 39.4097 11.6471 39.4097H16.6353ZM34.5647 89.523C35.2145 89.523 35.7412 88.9959 35.7412 88.3458V83.3545C35.7412 82.7043 35.2145 82.1773 34.5647 82.1773H29.5765C28.9267 82.1773 28.4 82.7043 28.4 83.3545V88.3458C28.4 88.9959 28.9267 89.523 29.5765 89.523H34.5647ZM34.5647 64.4605C35.2145 64.4605 35.7412 63.9334 35.7412 63.2833V58.292C35.7412 57.6418 35.2145 57.1148 34.5647 57.1148H29.5765C28.9267 57.1148 28.4 57.6418 28.4 58.292V63.2833C28.4 63.9334 28.9267 64.4605 29.5765 64.4605H34.5647ZM34.5647 39.4097C35.2145 39.4097 35.7412 38.8827 35.7412 38.2325V33.2412C35.7412 32.5911 35.2145 32.064 34.5647 32.064H29.5765C28.9267 32.064 28.4 32.5911 28.4 33.2412V38.2325C28.4 38.8827 28.9267 39.4097 29.5765 39.4097H34.5647ZM52.4941 89.523C53.1439 89.523 53.6706 88.9959 53.6706 88.3458V83.3545C53.6706 82.7043 53.1439 82.1773 52.4941 82.1773H47.5059C46.8561 82.1773 46.3294 82.7043 46.3294 83.3545V88.3458C46.3294 88.9959 46.8561 89.523 47.5059 89.523H52.4941ZM52.4941 64.4605C53.1439 64.4605 53.6706 63.9334 53.6706 63.2833V58.292C53.6706 57.6418 53.1439 57.1148 52.4941 57.1148H47.5059C46.8561 57.1148 46.3294 57.6418 46.3294 58.292V63.2833C46.3294 63.9334 46.8561 64.4605 47.5059 64.4605H52.4941ZM52.4941 39.4097C53.1439 39.4097 53.6706 38.8827 53.6706 38.2325V33.2412C53.6706 32.5911 53.1439 32.064 52.4941 32.064H47.5059C46.8561 32.064 46.3294 32.5911 46.3294 33.2412V38.2325C46.3294 38.8827 46.8561 39.4097 47.5059 39.4097H52.4941ZM70.4235 89.523C71.0733 89.523 71.6 88.9959 71.6 88.3458V83.3545C71.6 82.7043 71.0733 82.1773 70.4235 82.1773H65.4353C64.7855 82.1773 64.2588 82.7043 64.2588 83.3545V88.3458C64.2588 88.9959 64.7855 89.523 65.4353 89.523H70.4235ZM70.4235 64.4605C71.0733 64.4605 71.6 63.9334 71.6 63.2833V58.292C71.6 57.6418 71.0733 57.1148 70.4235 57.1148H65.4353C64.7855 57.1148 64.2588 57.6418 64.2588 58.292V63.2833C64.2588 63.9334 64.7855 64.4605 65.4353 64.4605H70.4235ZM70.4235 39.4097C71.0733 39.4097 71.6 38.8827 71.6 38.2325V33.2412C71.6 32.5911 71.0733 32.064 70.4235 32.064H65.4353C64.7855 32.064 64.2588 32.5911 64.2588 33.2412V38.2325C64.2588 38.8827 64.7855 39.4097 65.4353 39.4097H70.4235ZM88.3529 89.523C89.0027 89.523 89.5294 88.9959 89.5294 88.3458V83.3545C89.5294 82.7043 89.0027 82.1773 88.3529 82.1773H83.3647C82.715 82.1773 82.1882 82.7043 82.1882 83.3545V88.3458C82.1882 88.9959 82.715 89.523 83.3647 89.523H88.3529ZM88.3529 64.4605C89.0027 64.4605 89.5294 63.9334 89.5294 63.2833V58.292C89.5294 57.6418 89.0027 57.1148 88.3529 57.1148H83.3647C82.715 57.1148 82.1882 57.6418 82.1882 58.292V63.2833C82.1882 63.9334 82.715 64.4605 83.3647 64.4605H88.3529ZM88.3529 39.4097C89.0027 39.4097 89.5294 38.8827 89.5294 38.2325V33.2412C89.5294 32.5911 89.0027 32.064 88.3529 32.064H83.3647C82.715 32.064 82.1882 32.5911 82.1882 33.2412V38.2325C82.1882 38.8827 82.715 39.4097 83.3647 39.4097H88.3529Z" fill="black"/>
</svg>
