<svg width="100" height="100" viewBox="0 0 100 100" fill="none" xmlns="http://www.w3.org/2000/svg">
<path d="M52.9415 57.8447H67.6474C69.2718 57.8447 70.5886 59.1623 70.5886 60.7877C70.5886 62.4131 69.2718 63.7307 67.6474 63.7307H52.9415V78.4456C52.9415 80.071 51.6247 81.3886 50.0003 81.3886C48.376 81.3886 47.0592 80.071 47.0592 78.4456V63.7307H32.3533C30.7289 63.7307 29.4121 62.4131 29.4121 60.7877C29.4121 59.1623 30.7289 57.8447 32.3533 57.8447H47.0592V43.1298C47.0592 41.5044 48.376 40.1868 50.0003 40.1868C51.6247 40.1868 52.9415 41.5044 52.9415 43.1298V57.8447Z" fill="black"/>
<path fill-rule="evenodd" clip-rule="evenodd" d="M92.4353 5.37713H94.7059C97.6271 5.3836 99.9935 7.75153 100 10.6745V95.8798C100 98.1553 98.1565 100 95.8824 100H4.11765C1.84353 100 0 98.1553 0 95.8798V10.6745C0.00646996 7.75153 2.37294 5.3836 5.29412 5.37713H7.56471C7.75846 2.35334 10.266 0 13.2941 0C16.3223 0 18.8298 2.35334 19.0235 5.37713H32.0706C32.2643 2.35334 34.7719 0 37.8 0C40.8281 0 43.3357 2.35334 43.5294 5.37713H56.5059C56.6996 2.35334 59.2072 0 62.2353 0C65.2634 0 67.771 2.35334 67.9647 5.37713H80.9765C81.1702 2.35334 83.6777 0 86.7059 0C89.734 0 92.2415 2.35334 92.4353 5.37713ZM13.2941 16.6402C10.266 16.6402 7.75846 14.2869 7.56471 11.2631H5.88235V20.9514H94.1176V11.2631H92.4353C92.2415 14.2869 89.734 16.6402 86.7059 16.6402C83.6777 16.6402 81.1702 14.2869 80.9765 11.2631H67.9294C67.7357 14.2869 65.2281 16.6402 62.2 16.6402C59.1719 16.6402 56.6643 14.2869 56.4706 11.2631H43.4941C43.3004 14.2869 40.7928 16.6402 37.7647 16.6402C34.7366 16.6402 32.229 14.2869 32.0353 11.2631H19.0235C18.8298 14.2869 16.3223 16.6402 13.2941 16.6402ZM5.88235 26.8374V94.114H94.1176V26.8374H5.88235Z" fill="black"/>
</svg>
