<?xml version="1.0" encoding="UTF-8"?>
<svg width="100px" height="100px" viewBox="0 0 100 100" version="1.1" xmlns="http://www.w3.org/2000/svg" xmlns:xlink="http://www.w3.org/1999/xlink">
    <!-- Generator: Sketch 57.1 (83088) - https://sketch.com -->
    <title>bold/camera-bold</title>
    <desc>Created with Sketch.</desc>
    <g id="bold/camera" stroke="none" stroke-width="1" fill="none" fill-rule="evenodd">
        <path d="M92.75,88.42 L7.24999996,88.42 C3.24821935,88.4144917 0.00550825872,85.1717806 -4.9999997e-08,81.17 L-4.9999997e-08,30.44 C0.00550825872,26.4382194 3.24821935,23.1955083 7.24999996,23.19 L30.48,23.19 L30.48,18.75 C30.4855083,14.7482194 33.7282194,11.5055083 37.73,11.5 L62.27,11.5 C66.2717806,11.5055083 69.5144917,14.7482194 69.52,18.75 L69.52,23.19 L92.75,23.19 C96.7517806,23.1955083 99.9944917,26.4382194 100,30.44 L100,81.17 C99.9944917,85.1717806 96.7517806,88.4144917 92.75,88.42 Z M9.08999996,79.33 L90.91,79.33 L90.91,32.33 L67.67,32.33 C63.6721138,32.3245084 60.4310097,29.0878748 60.42,25.09 L60.42,20.59 L39.58,20.59 L39.58,25.04 C39.5689903,29.0378748 36.3278862,32.2745084 32.33,32.28 L9.08999996,32.28 L9.08999996,79.33 Z M50,69.8202909 C46.0449653,69.8447451 42.2436813,68.2896744 39.44,65.5 C34.8878353,60.8808679 33.7600987,53.8856901 36.63,48.07 C37.9636888,45.1852376 40.2675944,42.8600978 43.14,41.5 C48.9520165,38.5706231 55.9879477,39.7034793 60.5867525,44.309104 C65.1855574,48.9147286 66.3079862,55.9523308 63.37,61.76 L63.37,61.76 C62.0230141,64.6185634 59.7206307,66.9174101 56.86,68.26 C54.7162932,69.2793475 52.3737071,69.8120638 50,69.8202909 L50,69.8202909 Z M50,49.05 C48.960467,49.0672915 47.9370093,49.3095098 47,49.76 C46.0620064,50.197992 45.307992,50.9520064 44.87,51.89 C43.6017797,54.2243204 44.0195758,57.1147166 45.8969089,58.9943588 C47.774242,60.8740011 50.6641224,61.2953499 53,60.03 C53.9399994,59.594876 54.694876,58.8399994 55.13,57.9 L55.13,57.9 C56.4026479,55.558979 55.9968134,52.6613205 54.13,50.76 C53.0416016,49.6543885 51.5513957,49.0373783 50,49.05 L50,49.05 Z" id="camera" fill="#000000"></path>
    </g>
</svg>