<svg width="100" height="100" viewBox="0 0 100 100" fill="none" xmlns="http://www.w3.org/2000/svg">
<path fill-rule="evenodd" clip-rule="evenodd" d="M40.3175 64.6116C42.8857 67.185 46.3759 68.6252 50.0116 68.6117C52.2065 68.6058 54.3726 68.1115 56.3528 67.1645C58.9416 65.9526 61.0232 63.871 62.2351 61.2822C64.9484 55.9475 63.9205 49.4727 59.6884 45.2406C55.4564 41.0085 48.9816 39.9806 43.6469 42.6939C41.0581 43.9058 38.9764 45.9875 37.7645 48.5763C35.1013 53.9177 36.1272 60.3613 40.3175 64.6116ZM46.1763 48.0116C47.3728 47.4333 48.6827 47.1279 50.0116 47.1175H49.9763C52.0645 47.1016 54.0739 47.9138 55.5645 49.3763C58.0237 51.8783 58.5848 55.6825 56.9528 58.788C56.3167 60.1301 55.236 61.2108 53.8939 61.8469C50.8006 63.4975 46.9917 62.9311 44.5125 60.4519C42.0332 57.9726 41.4669 54.1637 43.1175 51.0704C43.7536 49.7284 44.8343 48.6477 46.1763 48.0116Z" fill="black"/>
<path fill-rule="evenodd" clip-rule="evenodd" d="M5.74118 87.8705H94.2588C97.4269 87.8641 99.9935 85.2974 100 82.1294V29.6117C99.9938 26.4664 97.4627 23.9091 94.3176 23.8705H68.4353V17.5058C68.4353 14.3396 65.8721 11.7711 62.7059 11.7646H37.3059C34.1608 11.8032 31.6297 14.3605 31.6235 17.5058V23.8705H5.74118C2.5731 23.877 0.00647209 26.4436 0 29.6117V82.1294C0.00647209 85.2974 2.5731 87.8641 5.74118 87.8705ZM94.1176 81.9882H5.88235V29.7529H31.7647C34.9098 29.7143 37.4409 27.157 37.4471 24.0117V17.647H62.4941V24.0117C62.5006 27.1798 65.0672 29.7464 68.2353 29.7529H94.1176V81.9882Z" fill="black"/>
</svg>
