<?xml version="1.0" encoding="UTF-8"?>
<svg width="100px" height="100px" viewBox="0 0 100 100" version="1.1" xmlns="http://www.w3.org/2000/svg" xmlns:xlink="http://www.w3.org/1999/xlink">
    <!-- Generator: Sketch 57.1 (83088) - https://sketch.com -->
    <title>solid/camera-solid</title>
    <desc>Created with Sketch.</desc>
    <g id="solid/camera" stroke="none" stroke-width="1" fill="none" fill-rule="evenodd">
        <path d="M94.79,24.25 L68.51,24.25 C68.2614719,24.25 68.06,24.0485281 68.06,23.8 L68.06,17.21 C68.06,14.3325964 65.7274036,12 62.85,12 L37.15,12 C35.7682221,12 34.4430382,12.5489091 33.4659737,13.5259736 C32.4889091,14.5030382 31.94,15.8282221 31.94,17.21 L31.94,23.8 C31.94,24.0485281 31.7385281,24.25 31.49,24.25 L5.20999996,24.25 C2.33487876,24.2555026 0.00550258941,26.5848788 -4.9999997e-08,29.46 L-4.9999997e-08,82.61 C0.00550258941,85.4851212 2.33487876,87.8144974 5.20999996,87.82 L94.79,87.82 C97.6651212,87.8144974 99.9944974,85.4851212 100,82.61 L100,29.46 C99.9944974,26.5848788 97.6651212,24.2555026 94.79,24.25 Z M59.69,60.25 C58.7569091,62.2379291 57.1579291,63.8369091 55.17,64.77 C45.3,69.4 35.68,59.77 40.31,49.92 C41.2425949,47.9293097 42.8413755,46.3269919 44.83,45.39 C54.7,40.77 64.32,50.38 59.69,60.25 L59.69,60.25 Z" id="camera" fill="#000000"></path>
    </g>
</svg>