<svg width="100" height="100" viewBox="0 0 100 100" fill="none" xmlns="http://www.w3.org/2000/svg">
<g clip-path="url(#clip0)">
<path d="M49.9761 87.4595C47.9966 87.4576 46.1407 86.4967 44.9964 84.8814L1.12123 22.6062C-0.190506 20.756 -0.364655 18.3299 0.669377 16.3113C1.70341 14.2927 3.77408 13.0165 6.04204 13H93.9102C96.1849 13.0031 98.2689 14.272 99.3158 16.2916C100.363 18.3111 100.198 20.7455 98.8898 22.6062L54.9558 84.8814C53.8115 86.4967 51.9556 87.4576 49.9761 87.4595ZM6.04204 18.8861C5.95468 18.8618 5.86309 18.9076 5.83014 18.9921C5.78305 19.0549 5.78305 19.1412 5.83014 19.204L49.776 81.4792C49.776 81.4792 50.0703 81.4792 50.1056 81.4792L94.1221 19.204C94.1221 19.204 94.1927 19.1098 94.1221 18.9921C94.1086 18.9495 94.0785 18.9142 94.0386 18.8942C93.9986 18.8742 93.9523 18.8713 93.9102 18.8861H6.04204Z" fill="black"/>
</g>
<defs>
<clipPath id="clip0">
<rect width="100" height="100" fill="white"/>
</clipPath>
</defs>
</svg>
