<?xml version="1.0" encoding="UTF-8"?>
<svg width="100px" height="100px" viewBox="0 0 100 100" version="1.1" xmlns="http://www.w3.org/2000/svg" xmlns:xlink="http://www.w3.org/1999/xlink">
    <!-- Generator: Sketch 57.1 (83088) - https://sketch.com -->
    <title>regular/caret-down-regular</title>
    <desc>Created with Sketch.</desc>
    <g id="regular/caret-down" stroke="none" stroke-width="1" fill="none" fill-rule="evenodd">
        <path d="M50,85.8922795 C48.2250566,85.8931709 46.5607657,85.0299343 45.5392157,83.5784314 L1.96078427,21.8333333 C0.781519499,20.1656128 0.63355663,17.9785654 1.57744705,16.1672046 C2.52133747,14.3558437 4.3986698,13.2241668 6.44117643,13.2352128 L93.5588236,13.2352128 C95.6013302,13.2241668 97.4786625,14.3558437 98.422553,16.1672046 C99.3664434,17.9785654 99.2184805,20.1656128 98.0392157,21.8333333 L54.4803922,83.5980392 C53.4505492,85.0477975 51.7782671,85.9040646 50,85.8922795 Z M6.44117643,17.9019608 C6.14314028,17.8912853 5.86817414,18.0616869 5.74509799,18.3333333 C5.58390932,18.5806281 5.58390932,18.899764 5.74509799,19.1470588 L49.3529412,80.882353 C49.5019199,81.0917467 49.7430167,81.2161037 50,81.2161037 C50.2569833,81.2161037 50.4980801,81.0917467 50.6470588,80.882353 L94.2058824,19.117647 C94.3670711,18.8703523 94.3670711,18.5512163 94.2058824,18.3039215 C94.0828063,18.0322751 93.8078401,17.8618736 93.509804,17.8720749 L6.44117643,17.9019608 Z" id="caret-down" fill="#000000"></path>
    </g>
</svg>