<svg width="100" height="100" viewBox="0 0 100 100" fill="none" xmlns="http://www.w3.org/2000/svg">
<g clip-path="url(#clip0)">
<path d="M81.3561 100C80.0849 99.9861 78.85 99.5744 77.8247 98.8229L15.578 54.9512C13.9613 53.8084 13 51.9518 13 49.972C13 47.9921 13.9613 46.1355 15.578 44.9927L77.8482 1.12104C79.7069 -0.196629 82.1459 -0.365736 84.1687 0.682819C86.1914 1.73137 87.459 3.82194 87.4536 6.1003V93.9025C87.4592 96.177 86.1911 98.2632 84.1694 99.3055C83.3006 99.7584 82.3359 99.9966 81.3561 100ZM81.2737 5.82956L18.9682 49.8072C18.9119 49.8423 18.8801 49.9059 18.8858 49.972C18.8851 50.037 18.9155 50.0985 18.9682 50.1368L81.2737 94.1143C81.3402 94.1634 81.4309 94.1634 81.4973 94.1143C81.5696 94.0875 81.6136 94.0142 81.6033 93.9378V6.04145C81.6136 5.99452 81.6044 5.9454 81.5778 5.90542C81.5511 5.86543 81.5093 5.83804 81.462 5.82956C81.4023 5.80184 81.3334 5.80184 81.2737 5.82956Z" fill="black"/>
</g>
<defs>
<clipPath id="clip0">
<rect width="100" height="100" fill="white"/>
</clipPath>
</defs>
</svg>
