<?xml version="1.0" encoding="UTF-8"?>
<svg width="100px" height="100px" viewBox="0 0 100 100" version="1.1" xmlns="http://www.w3.org/2000/svg" xmlns:xlink="http://www.w3.org/1999/xlink">
    <!-- Generator: Sketch 57.1 (83088) - https://sketch.com -->
    <title>regular/caret-up-regular</title>
    <desc>Created with Sketch.</desc>
    <g id="regular/caret-up" stroke="none" stroke-width="1" fill="none" fill-rule="evenodd">
        <path d="M50,13.2351715 C51.7749434,13.2342801 53.4392343,14.0975167 54.4607843,15.5490196 L98.0392157,77.2941177 C99.2164038,78.9589582 99.3660186,81.1415921 98.4270165,82.9514928 C97.4880144,84.7613935 95.6174144,85.8959114 93.5784314,85.8922382 L6.44117643,85.8922382 C4.3986698,85.9032842 2.52133747,84.7716073 1.57744705,82.9602464 C0.63355663,81.1488856 0.781519499,78.9618382 1.96078427,77.2941177 L45.5196078,15.5294117 C46.5494508,14.0796534 48.2217329,13.2233864 50,13.2351715 Z M93.5294118,81.2254902 C93.827448,81.2361656 94.1024141,81.0657641 94.2254902,80.7941177 C94.3866789,80.5468229 94.3866789,80.2276869 94.2254902,79.9803922 L50.6470588,18.2352941 C50.4980801,18.0259003 50.2569833,17.9015434 50,17.9015434 C49.7430167,17.9015434 49.5019199,18.0259003 49.3529412,18.2352941 L5.7941176,80 C5.63292893,80.2472948 5.63292893,80.5664308 5.7941176,80.8137255 C5.91719375,81.0853719 6.19215989,81.2557735 6.49019603,81.2455722 L93.5294118,81.2254902 Z" id="caret-up" fill="#000000"></path>
    </g>
</svg>