<svg width="100" height="100" viewBox="0 0 100 100" fill="none" xmlns="http://www.w3.org/2000/svg">
<g clip-path="url(#clip0)">
<path d="M19.0976 100C18.1178 99.9966 17.1531 99.7584 16.2842 99.3055C14.2626 98.2632 12.9945 96.177 13 93.9025V6.04154C13.0165 3.77377 14.2926 1.70327 16.311 0.669322C18.3295 -0.364625 20.7554 -0.19049 22.6054 1.12114L84.8755 45.0516C86.4923 46.1944 87.4536 48.051 87.4536 50.0309C87.4536 52.0107 86.4923 53.8673 84.8755 55.0101L22.6054 98.8817C21.5796 99.6077 20.3543 99.9984 19.0976 100ZM19.0976 5.82966H18.9916C18.9071 5.86261 18.8613 5.95419 18.8857 6.04154V93.9025C18.8754 93.9789 18.9194 94.0522 18.9916 94.079C19.0581 94.1281 19.1488 94.1281 19.2153 94.079L81.4736 50.1368C81.5344 50.1048 81.5711 50.0406 81.5678 49.972C81.5744 49.9027 81.5367 49.8367 81.4736 49.8072L19.2153 5.82966C19.1768 5.81854 19.136 5.81854 19.0976 5.82966Z" fill="black"/>
</g>
<defs>
<clipPath id="clip0">
<rect width="100" height="100" fill="white"/>
</clipPath>
</defs>
</svg>
