<svg width="100" height="100" viewBox="0 0 100 100" fill="none" xmlns="http://www.w3.org/2000/svg">
<g clip-path="url(#clip0)">
<path d="M91.4353 65.6941L99.9176 25.1059C100.162 23.9212 99.8598 22.6896 99.0956 21.7521C98.3314 20.8145 97.186 20.2705 95.9765 20.2706H17.3176L16.1412 13.8941C15.7962 11.9909 14.1459 10.6025 12.2118 10.5882H2.94118C1.31681 10.5882 0 11.905 0 13.5294C0 15.1538 1.31681 16.4706 2.94118 16.4706H10.6588L11.9765 23.8L21.2588 75.2941C18.3512 77.8133 17.7146 82.0762 19.7593 85.3349C21.804 88.5937 25.9193 89.8749 29.4525 88.3528C32.9857 86.8307 34.8814 82.9597 33.9176 79.2353H79.1294C78.2989 82.4909 79.6531 85.9117 82.4869 87.7166C85.3208 89.5216 88.9933 89.3024 91.5925 87.1733C94.1916 85.0442 95.1294 81.4867 93.9176 78.3529C94.7458 77.508 94.9871 76.2492 94.5301 75.1579C94.073 74.0667 93.0066 73.3555 91.8235 73.3529H26.8824L26.0824 68.8941H87.4941C89.3983 68.8909 91.0411 67.5571 91.4353 65.6941ZM28.2353 81.1765C28.2353 82.2226 27.3873 83.0706 26.3412 83.0706C25.2951 83.0706 24.4471 82.2226 24.4471 81.1765C24.4471 80.1304 25.2951 79.2823 26.3412 79.2823C27.3873 79.2823 28.2353 80.1304 28.2353 81.1765ZM86.6235 83.0706C85.584 83.0448 84.7596 82.1856 84.7767 81.1459C84.7938 80.1061 85.646 79.2746 86.6859 79.283C87.7258 79.2914 88.5644 80.1366 88.5647 81.1765C88.5392 82.2041 87.6986 83.0238 86.6706 83.0235L86.6235 83.0706ZM24.9765 63.0706L18.3765 26.1529H93.6706L85.9765 63.0118L24.9765 63.0706Z" fill="black"/>
</g>
<defs>
<clipPath id="clip0">
<rect width="100" height="100" fill="white"/>
</clipPath>
</defs>
</svg>
