<?xml version="1.0" encoding="UTF-8"?>
<svg width="100px" height="100px" viewBox="0 0 100 100" version="1.1" xmlns="http://www.w3.org/2000/svg" xmlns:xlink="http://www.w3.org/1999/xlink">
    <!-- Generator: Sketch 57.1 (83088) - https://sketch.com -->
    <title>regular/cart-minus-regular</title>
    <desc>Created with Sketch.</desc>
    <g id="regular/cart-minus" stroke="none" stroke-width="1" fill="none" fill-rule="evenodd">
        <path d="M11.6435643,10.8910798 C13.3118241,10.8883688 14.7423871,12.0811998 15.0396039,13.7227722 L16.2772277,20.6039604 L95.5643565,20.6039604 C96.6007606,20.6066557 97.5812271,21.0744072 98.2354279,21.8782492 C98.8896287,22.6820913 99.1484731,23.7371294 98.9405941,24.7524752 L90.4356436,65.3960396 C90.0923568,66.9831282 88.6930687,68.1190209 87.069307,68.1287129 L24.8613861,68.1287129 L25.8514851,73.7722773 L91.4059406,73.7722773 C92.4202363,73.7765121 93.3180191,74.4293284 93.6347245,75.3929214 C93.9514299,76.3565143 93.6159898,77.4146556 92.8019802,78.019802 C94.150575,80.9880562 93.3388313,84.491982 90.8223792,86.5648328 C88.3059272,88.6376835 84.7113972,88.7632916 82.0563917,86.8711535 C79.4013861,84.9790154 78.3470371,81.5402988 79.4851485,78.4851485 L32.6039604,78.4851485 C33.8781729,81.9337858 32.3486891,85.7884125 29.0566264,87.4251898 C25.7645637,89.061967 21.7681169,87.954772 19.7876617,84.8572708 C17.8072065,81.7597696 18.4793368,77.6676175 21.3465346,75.3663367 L10.5841584,15.6039604 L2.3564356,15.6039604 C1.05501214,15.6039603 -1.45341019e-08,14.5489482 -1.45341019e-08,13.2475247 C-1.45341019e-08,11.9461013 1.05501214,10.8910798 2.3564356,10.8910798 L11.6435643,10.8910798 Z M86.2376238,78.4851092 C85.5768024,78.4851092 84.94319,78.7483294 84.4768486,79.2165287 C84.0105072,79.6847281 83.7498425,80.3193819 83.7524361,80.9801981 C83.7524361,81.9902507 84.3614594,82.9006564 85.2950116,83.2862553 C86.2285638,83.6718542 87.3025015,83.4565674 88.0152952,82.7409339 C88.7280889,82.0253003 88.939104,80.9505151 88.5497961,80.0185035 C88.1604883,79.0864918 87.2476685,78.4811404 86.2376238,78.4851092 Z M25.847,78.4850798 L25.6539193,78.4929576 C25.0644989,78.539757 24.50834,78.7948103 24.0872187,79.2159316 C23.6193061,79.6838442 23.3564356,80.3184698 23.3564356,80.9801981 C23.3564356,81.9902507 23.9654197,82.9006564 24.8989719,83.2862553 C25.8325242,83.6718542 26.9064618,83.4565674 27.6192555,82.7409339 C28.3320493,82.0253003 28.5430643,80.9505151 28.1537565,80.0185035 C27.7644487,79.0864918 26.8516288,78.4811404 25.8415841,78.4850798 L25.847,78.4850798 Z M94,25.3069307 L17.1188118,25.3069307 L23.990099,63.4158416 L86.079208,63.4158416 L94,25.3069307 Z M66.9306931,42 C67.7725665,42 68.5504896,42.449134 68.9714263,43.1782178 C69.392363,43.9073015 69.392363,44.8055697 68.9714263,45.5346535 C68.5504896,46.2637372 67.7725665,46.7128713 66.9306931,46.7128713 L44.019802,46.7128713 C43.1779286,46.7128713 42.4000055,46.2637372 41.9790688,45.5346535 C41.5581321,44.8055697 41.5581321,43.9073015 41.9790688,43.1782178 C42.4000055,42.449134 43.1779286,42 44.019802,42 L66.9306931,42 Z" id="Shape" fill="#000000"></path>
    </g>
</svg>