<svg width="100" height="100" viewBox="0 0 100 100" fill="none" xmlns="http://www.w3.org/2000/svg">
<g clip-path="url(#clip0)">
<path d="M91.4235 65.6941L99.9176 25.1176C100.161 23.9318 99.8595 22.6993 99.0958 21.7601C98.3321 20.8208 97.187 20.2741 95.9765 20.2706H17.3176L16.1412 13.8941C15.7962 11.9909 14.1459 10.6025 12.2118 10.5882H2.94118C1.31681 10.5882 0 11.905 0 13.5294C0 15.1538 1.31681 16.4706 2.94118 16.4706H10.6588L21.2471 75.2941C18.354 77.8151 17.7284 82.0678 19.7729 85.3152C21.8173 88.5625 25.9225 89.8368 29.4465 88.3179C32.9704 86.799 34.8629 82.9396 33.9059 79.2235H79.1294C78.2989 82.4791 79.6531 85.8999 82.4869 87.7048C85.3208 89.5098 88.9933 89.2907 91.5925 87.1616C94.1916 85.0324 95.1294 81.4749 93.9176 78.3412C94.7458 77.4963 94.9871 76.2374 94.5301 75.1461C94.073 74.0549 93.0066 73.3437 91.8235 73.3412H26.8824L26.0824 68.8823H87.4941C89.3935 68.8838 91.0336 67.5531 91.4235 65.6941ZM67.7294 47.5176H58.9059V56.3412C58.9059 57.9655 57.5891 59.2823 55.9647 59.2823C54.3403 59.2823 53.0235 57.9655 53.0235 56.3412V47.5176H44.2C42.5756 47.5176 41.2588 46.2008 41.2588 44.5765C41.2588 42.9521 42.5756 41.6353 44.2 41.6353H53.0235V32.8118C53.0235 31.1874 54.3403 29.8706 55.9647 29.8706C57.5891 29.8706 58.9059 31.1874 58.9059 32.8118V41.6353H67.7294C69.3538 41.6353 70.6706 42.9521 70.6706 44.5765C70.6706 46.2008 69.3538 47.5176 67.7294 47.5176Z" fill="black"/>
</g>
<defs>
<clipPath id="clip0">
<rect width="100" height="100" fill="white"/>
</clipPath>
</defs>
</svg>
