<?xml version="1.0" encoding="UTF-8"?>
<svg width="100px" height="100px" viewBox="0 0 100 100" version="1.1" xmlns="http://www.w3.org/2000/svg" xmlns:xlink="http://www.w3.org/1999/xlink">
    <!-- Generator: Sketch 57.1 (83088) - https://sketch.com -->
    <title>regular/cart-regular</title>
    <desc>Created with Sketch.</desc>
    <g id="regular/cart" stroke="none" stroke-width="1" fill="none" fill-rule="evenodd">
        <path d="M90.4356436,65.3960396 L98.9405941,24.7524752 C99.1484731,23.7371294 98.8896287,22.6820913 98.2354279,21.8782492 C97.5812271,21.0744072 96.6007606,20.6066557 95.5643565,20.6039604 L16.2772277,20.6039604 L15.0396039,13.7227722 C14.7423871,12.0811998 13.3118241,10.8883688 11.6435643,10.8910844 L2.3564356,10.8910844 C1.05501214,10.8910844 -1.45352317e-08,11.9461013 -1.45352317e-08,13.2475247 C-1.45352317e-08,14.5489482 1.05501214,15.6039603 2.3564356,15.6039604 L10.5841584,15.6039604 L21.3465346,75.3663367 C18.4793368,77.6676175 17.8072065,81.7597696 19.7876617,84.8572708 C21.7681169,87.954772 25.7645637,89.061967 29.0566264,87.4251898 C32.3486891,85.7884125 33.8781729,81.9337858 32.6039604,78.4851485 L79.4851485,78.4851485 C78.3470371,81.5402988 79.4013861,84.9790154 82.0563917,86.8711535 C84.7113972,88.7632916 88.3059272,88.6376835 90.8223792,86.5648328 C93.3388313,84.491982 94.150575,80.9880562 92.8019802,78.019802 C93.6159898,77.4146556 93.9514299,76.3565143 93.6347245,75.3929214 C93.3180191,74.4293284 92.4202363,73.7765121 91.4059406,73.7722773 L25.8514851,73.7722773 L24.8613861,68.1287129 L87.069307,68.1287129 C88.6930687,68.1190209 90.0923568,66.9831282 90.4356436,65.3960396 L90.4356436,65.3960396 Z M86.2376238,78.4851288 C87.2476685,78.4811404 88.1604883,79.0864918 88.5497961,80.0185035 C88.939104,80.9505151 88.7280889,82.0253003 88.0152952,82.7409339 C87.3025015,83.4565674 86.2285638,83.6718542 85.2950116,83.2862553 C84.3614594,82.9006564 83.7524555,81.9902507 83.7524555,80.9801981 C83.7498425,80.3193819 84.0105072,79.6847281 84.4768486,79.2165287 C84.94319,78.7483294 85.5768024,78.4851288 86.2376238,78.4851288 Z M25.8415841,78.4851288 C26.8516288,78.4811404 27.7644487,79.0864918 28.1537565,80.0185035 C28.5430643,80.9505151 28.3320493,82.0253003 27.6192555,82.7409339 C26.9064618,83.4565674 25.8325242,83.6718542 24.8989719,83.2862553 C23.9654197,82.9006564 23.3564356,81.9902507 23.3564356,80.9801981 C23.3564356,80.3184698 23.6193061,79.6838442 24.0872187,79.2159316 C24.5551312,78.7480191 25.1897569,78.4851288 25.8514851,78.4851288 L25.8415841,78.4851288 Z M23.990099,63.4158416 L17.1188118,25.3069307 L94,25.3069307 L86.079208,63.4158416 L23.990099,63.4158416 Z" id="cart" fill="#000000"></path>
    </g>
</svg>