<svg width="100" height="100" viewBox="0 0 100 100" fill="none" xmlns="http://www.w3.org/2000/svg">
<path d="M64.8733 45.2525C65.6527 45.2525 66.3999 45.5631 66.9497 46.1155C67.5021 46.6653 67.8127 47.4125 67.8127 48.1919C67.8127 48.9713 67.5021 49.7185 66.9497 50.2683L58.6443 58.5854C57.1548 60.0581 54.7576 60.0581 53.2681 58.5854L44.9627 50.2683C43.9228 49.1049 43.9724 47.332 45.0757 46.2286C46.1791 45.1253 47.952 45.0756 49.1154 46.1155L53.021 50.0094V33.2222C53.021 31.5979 54.3378 30.2811 55.9621 30.2811C57.5863 30.2811 58.9031 31.5979 58.9031 33.2222V50.0094L62.797 46.1155C63.3467 45.5631 64.0939 45.2525 64.8733 45.2525Z" fill="black"/>
<path fill-rule="evenodd" clip-rule="evenodd" d="M99.912 25.5286L91.4184 66.1028C91.0334 67.9663 89.3921 69.3029 87.4892 69.3026H26.0809L26.8808 73.7612H91.8184C93.0014 73.7637 94.0678 74.4749 94.5248 75.566C94.9818 76.6572 94.7405 77.9161 93.9124 78.7609C95.1241 81.8944 94.1863 85.4518 91.5873 87.5808C88.9883 89.7098 85.316 89.9289 82.4823 88.1241C79.6486 86.3192 78.2945 82.8986 79.125 79.6432H33.904C34.8677 83.3674 32.9721 87.2381 29.4391 88.7602C25.9061 90.2822 21.791 89.0011 19.7464 85.7425C17.7018 82.4839 18.3384 78.2212 21.2459 75.7022L10.6582 16.882H2.94101C1.31674 16.882 0 15.5653 0 13.941C0 12.3167 1.31674 11 2.94101 11H12.2111C14.1451 11.0142 15.7954 12.4026 16.1403 14.3057L17.3167 20.6818H95.9711C97.1846 20.6766 98.3353 21.221 99.1009 22.1625C99.8665 23.1041 100.165 24.3416 99.912 25.5286ZM26.3397 83.4783C27.3857 83.4783 28.2337 82.6303 28.2337 81.5843C28.2337 80.5382 27.3857 79.6903 26.3397 79.6903C25.2937 79.6903 24.4457 80.5382 24.4457 81.5843C24.4457 82.6303 25.2937 83.4783 26.3397 83.4783ZM84.772 81.5537C84.7548 82.5934 85.5791 83.4525 86.6187 83.4783L86.6657 83.4312C87.6936 83.4315 88.5342 82.6119 88.5597 81.5843C88.5594 80.5444 87.7208 79.6993 86.681 79.6909C85.6412 79.6825 84.7891 80.514 84.772 81.5537ZM18.3754 26.5638L24.9751 63.4794L85.9716 63.4206L93.6653 26.5638H18.3754Z" fill="black"/>
</svg>
