<svg width="100" height="100" viewBox="0 0 100 100" fill="none" xmlns="http://www.w3.org/2000/svg">
<g clip-path="url(#clip0)">
<path d="M91.4235 65.6941L99.9176 25.1176C100.161 23.9318 99.8595 22.6993 99.0958 21.7601C98.3321 20.8208 97.187 20.2741 95.9765 20.2706H17.3176L16.1412 13.8941C15.7962 11.9909 14.1459 10.6025 12.2118 10.5882H2.94118C1.31681 10.5882 0 11.905 0 13.5294C0 15.1538 1.31681 16.4706 2.94118 16.4706H10.6588L21.2471 75.2941C18.354 77.8151 17.7284 82.0678 19.7729 85.3152C21.8173 88.5625 25.9225 89.8368 29.4465 88.3179C32.9704 86.799 34.8629 82.9396 33.9059 79.2235H79.1294C78.2989 82.4791 79.6531 85.8999 82.4869 87.7048C85.3208 89.5098 88.9933 89.2907 91.5925 87.1616C94.1916 85.0324 95.1294 81.4749 93.9176 78.3412C94.7458 77.4963 94.9871 76.2374 94.5301 75.1461C94.073 74.0549 93.0066 73.3437 91.8235 73.3412H26.8824L26.0824 68.8823H87.4941C89.3935 68.8838 91.0336 67.5531 91.4235 65.6941ZM48.9059 32.2235C51.8297 32.2235 54.2 34.5938 54.2 37.5176C54.2 40.4415 51.8297 42.8118 48.9059 42.8118C45.982 42.8118 43.6118 40.4415 43.6118 37.5176C43.6182 34.5965 45.9847 32.23 48.9059 32.2235ZM63.0235 56.9294C60.0997 56.9294 57.7294 54.5591 57.7294 51.6353C57.7294 48.7114 60.0997 46.3412 63.0235 46.3412C65.9474 46.3412 68.3177 48.7114 68.3177 51.6353C68.3208 53.0403 67.764 54.3887 66.7705 55.3823C65.777 56.3758 64.4286 56.9325 63.0235 56.9294ZM69.8 34.8941L46.2706 58.4235C45.7245 58.9774 44.9778 59.2872 44.2 59.2824C43.0139 59.2797 41.9455 58.565 41.4904 57.4697C41.0353 56.3744 41.2826 55.1129 42.1176 54.2706L65.6471 30.7412C66.8105 29.7012 68.5835 29.7508 69.6869 30.8542C70.7904 31.9576 70.84 33.7307 69.8 34.8941Z" fill="black"/>
</g>
<defs>
<clipPath id="clip0">
<rect width="100" height="100" fill="white"/>
</clipPath>
</defs>
</svg>
