<?xml version="1.0" encoding="UTF-8"?>
<svg width="100px" height="100px" viewBox="0 0 100 100" version="1.1" xmlns="http://www.w3.org/2000/svg" xmlns:xlink="http://www.w3.org/1999/xlink">
    <!-- Generator: Sketch 57.1 (83088) - https://sketch.com -->
    <title>solid/cart-arrow-solid</title>
    <desc>Created with Sketch.</desc>
    <g id="solid/cart-arrow" stroke="none" stroke-width="1" fill="none" fill-rule="evenodd">
        <path d="M90.6336634,66.4257426 L98.9405941,26.7326732 C99.1499948,25.740468 98.8995884,24.7067808 98.2593331,23.9204011 C97.6190778,23.1340215 96.6576179,22.6792604 95.6435644,22.6831683 L20.5346534,22.6831683 L19.2574257,15.5445544 C18.7690246,12.8495751 16.4220455,10.8902853 13.6831683,10.8910888 L4.60396035,10.8910888 C2.06126323,10.8910888 -4.9999997e-08,12.9523524 -4.9999997e-08,15.4950495 C-4.9999997e-08,18.0377466 2.06126323,20.0990099 4.60396035,20.0990099 L10.7128712,20.0990099 L20.940594,76.8613862 C21.0329067,77.3326958 21.1894839,77.7891017 21.4059406,78.2178218 C19.9805264,80.7896899 20.3064462,83.9769981 22.2228925,86.2071426 C24.1393388,88.4372871 27.2413388,89.2390061 29.9983793,88.2167349 C32.7554199,87.1944638 34.5848985,84.5642233 34.5841584,81.6237624 L34.5841584,81.5049505 L79.5049505,81.5049505 L79.5049505,81.6237624 C79.408285,84.1999479 80.7275393,86.6229096 82.9438627,87.9397188 C85.160186,89.256528 87.919022,89.256528 90.1353453,87.9397188 C92.3516687,86.6229096 93.670923,84.1999479 93.5742575,81.6237624 C93.5742575,81.4356436 93.5742575,81.2376238 93.5742575,81.049505 C95.5191862,80.1253791 96.5637708,77.9765834 96.089116,75.8762361 C95.6144612,73.7758887 93.7473714,72.2850985 91.5940594,72.2871287 L29.4851485,72.2871287 L28.9009901,69.0792079 L87.3168317,69.0792079 C88.9113511,69.0919112 90.2960404,67.9841597 90.6336634,66.4257426 L90.6336634,66.4257426 Z M65.1782178,50.049505 L58.5940594,56.6336634 C58.1112928,57.0867231 57.4909998,57.3655065 56.8316832,57.4257426 C56.7163936,57.4358693 56.6004381,57.4358693 56.4851485,57.4257426 C56.3764527,57.4354231 56.2671116,57.4354231 56.1584158,57.4257426 C55.490646,57.3567588 54.8659379,57.0635997 54.3861386,56.5940594 L47.8019802,50.009901 C46.9859435,49.0974161 47.0247206,47.7064259 47.8903257,46.8408208 C48.7559309,45.9752156 50.1469211,45.9364385 51.0594059,46.7524752 L54.1881188,49.8811881 L54.1881188,36.5643564 C54.2677025,35.3515207 55.274655,34.4084767 56.490099,34.4084767 C57.705543,34.4084767 58.7124956,35.3515207 58.7920792,36.5643564 L58.7920792,49.9207921 L61.9207921,46.7920792 C62.8332769,45.9760425 64.2242672,46.0148196 65.0898723,46.8804247 C65.9554774,47.7460299 65.9942546,49.1370201 65.1782178,50.049505 L65.1782178,50.049505 Z" id="cart-arrow" fill="#000000"></path>
    </g>
</svg>