<svg width="100" height="100" viewBox="0 0 100 100" fill="none" xmlns="http://www.w3.org/2000/svg">
<g clip-path="url(#clip0)">
<path d="M58.9058 41.6353H67.7294C69.3537 41.6353 70.6705 42.9521 70.6705 44.5765C70.6705 46.2009 69.3537 47.5177 67.7294 47.5177H58.9058V56.3412C58.9058 57.9656 57.589 59.2824 55.9647 59.2824C54.3403 59.2824 53.0235 57.9656 53.0235 56.3412V47.5177H44.2C42.5756 47.5177 41.2588 46.2009 41.2588 44.5765C41.2588 42.9521 42.5756 41.6353 44.2 41.6353H53.0235V32.8118C53.0235 31.1874 54.3403 29.8706 55.9647 29.8706C57.589 29.8706 58.9058 31.1874 58.9058 32.8118V41.6353Z" fill="black"/>
<path fill-rule="evenodd" clip-rule="evenodd" d="M99.9176 25.106L91.4353 65.6943C91.0411 67.5572 89.3983 68.8911 87.4941 68.8943H26.0824L26.8824 73.3531H91.8235C93.0066 73.3556 94.073 74.0668 94.5301 75.1581C94.9871 76.2493 94.7458 77.5082 93.9176 78.3531C95.1294 81.4868 94.1916 85.0444 91.5925 87.1735C88.9933 89.3026 85.3208 89.5217 82.4869 87.7168C79.6531 85.9118 78.2989 82.491 79.1294 79.2354H33.9176C34.8814 82.9599 32.9857 86.8308 29.4525 88.3529C25.9193 89.8751 21.804 88.5938 19.7593 85.3351C17.7146 82.0763 18.3512 77.8134 21.2588 75.2943L10.6588 16.4707H2.94118C1.31681 16.4707 0 15.1539 0 13.5296C0 11.9052 1.31681 10.5884 2.94118 10.5884H12.2118C14.1459 10.6026 15.7962 11.9911 16.1412 13.8943L17.3176 20.2707H95.9765C97.186 20.2706 98.3314 20.8146 99.0956 21.7522C99.8598 22.6898 100.162 23.9214 99.9176 25.106ZM26.3412 83.0707C27.3873 83.0707 28.2353 82.2227 28.2353 81.1766C28.2353 80.1305 27.3873 79.2825 26.3412 79.2825C25.2951 79.2825 24.4471 80.1305 24.4471 81.1766C24.4471 82.2227 25.2951 83.0707 26.3412 83.0707ZM84.7767 81.146C84.7596 82.1858 85.584 83.0449 86.6235 83.0707L86.6706 83.0237C87.6986 83.024 88.5392 82.2043 88.5647 81.1766C88.5644 80.1367 87.7258 79.2915 86.6859 79.2831C85.646 79.2747 84.7938 80.1063 84.7767 81.146ZM18.3765 26.1531L24.9765 63.0707L85.9765 63.0119L93.6706 26.1531H18.3765Z" fill="black"/>
</g>
<defs>
<clipPath id="clip0">
<rect width="100" height="100" fill="white"/>
</clipPath>
</defs>
</svg>
