<svg width="100" height="100" viewBox="0 0 100 100" fill="none" xmlns="http://www.w3.org/2000/svg">
<path d="M44.1975 47.5155H67.7256C69.3499 47.5155 70.6666 46.1988 70.6666 44.5745C70.6666 42.9502 69.3499 41.6335 67.7256 41.6335H44.1975C42.5732 41.6335 41.2565 42.9502 41.2565 44.5745C41.2565 46.1988 42.5732 47.5155 44.1975 47.5155Z" fill="black"/>
<path fill-rule="evenodd" clip-rule="evenodd" d="M99.912 25.117L91.4184 65.6912C91.0334 67.5547 89.3921 68.8913 87.4892 68.891H26.0809L26.8808 73.3496H91.8184C93.0014 73.3521 94.0678 74.0632 94.5248 75.1544C94.9818 76.2456 94.7405 77.5044 93.9124 78.3493C95.1241 81.4828 94.1863 85.0402 91.5873 87.1692C88.9883 89.2982 85.316 89.5173 82.4823 87.7124C79.6486 85.9076 78.2945 82.487 79.125 79.2316H33.904C34.8677 82.9558 32.9721 86.8265 29.4391 88.3486C25.9061 89.8706 21.791 88.5894 19.7464 85.3309C17.7018 82.0723 18.3384 77.8096 21.2459 75.2906L10.6582 16.4704H2.94101C1.31674 16.4704 0 15.1537 0 13.5294C0 11.9051 1.31674 10.5884 2.94101 10.5884H12.2111C14.1451 10.6026 15.7954 11.991 16.1403 13.8941L17.3167 20.2702H95.9711C97.1846 20.2649 98.3353 20.8093 99.1009 21.7509C99.8665 22.6925 100.165 23.93 99.912 25.117ZM26.3397 83.0667C27.3857 83.0667 28.2337 82.2187 28.2337 81.1727C28.2337 80.1266 27.3857 79.2786 26.3397 79.2786C25.2937 79.2786 24.4457 80.1266 24.4457 81.1727C24.4457 82.2187 25.2937 83.0667 26.3397 83.0667ZM84.772 81.1421C84.7548 82.1818 85.5791 83.0408 86.6187 83.0667L86.6657 83.0196C87.6936 83.0199 88.5342 82.2003 88.5597 81.1727C88.5594 80.1328 87.7208 79.2877 86.681 79.2793C85.6412 79.2709 84.7891 80.1024 84.772 81.1421ZM18.3754 26.1522L24.9751 63.0678L85.9716 63.009L93.6653 26.1522H18.3754Z" fill="black"/>
</svg>
