<svg width="100" height="100" viewBox="0 0 100 100" fill="none" xmlns="http://www.w3.org/2000/svg">
<path d="M94.9287 33.3759L93.1369 23L33.2121 33.3759H94.9287Z" fill="black"/>
<path d="M95.0814 63.508L100 62.6649L95.0814 34.2541V63.508Z" fill="black"/>
<path fill-rule="evenodd" clip-rule="evenodd" d="M0 77.7135V37.4747H90.9823V77.7135H0ZM30.1346 66.76C30.562 65.6037 30.2192 64.3035 29.2774 63.5081L27.5207 61.9037V53.2845L29.2774 51.6801C30.2031 51.0381 30.6783 49.9219 30.4995 48.8096C30.3207 47.6974 29.5196 46.7864 28.4393 46.4668C27.3591 46.1473 26.1913 46.4759 25.4362 47.3119L23.094 49.4316C22.2148 50.2139 21.712 51.3347 21.7121 52.5116V62.7235C21.7105 63.8982 22.2087 65.0181 23.0823 65.8035L25.4245 67.9232C25.9563 68.4068 26.6497 68.6741 27.3685 68.6727C28.6012 68.681 29.7072 67.9163 30.1346 66.76ZM48.0149 68.5673C49.8607 68.6336 51.6829 68.1351 53.2379 67.1385L53.9757 66.6232L52.3245 63.4262L51.4462 64.0468C51.0076 64.3526 50.5206 64.5823 50.0057 64.7261C48.8524 65.0474 47.6296 65.0189 46.4924 64.6441C45.9382 64.4487 45.4258 64.1507 44.9817 63.7658C44.5138 63.3723 44.1176 62.9008 43.8106 62.3722C43.6765 62.1405 43.5628 61.8976 43.471 61.6461H49.186L50.2751 58.3787H42.9206V56.9617H50.6147L51.7038 53.5772H43.5764C43.8852 52.7383 44.3819 51.9811 45.0286 51.3639C45.9195 50.5639 47.0878 50.1436 48.2842 50.1928C49.3105 50.1565 50.3282 50.3907 51.2354 50.872L52.1723 51.4224L53.5776 47.9794L52.8164 47.593C52.1623 47.2714 51.4695 47.0352 50.7552 46.8903C48.9452 46.4857 47.0593 46.5788 45.2979 47.1597C44.334 47.5019 43.4409 48.0179 42.663 48.6821C41.8659 49.3706 41.1925 50.1905 40.6721 51.1062C40.2112 51.8584 39.8454 52.6648 39.583 53.507H38.1074L36.9363 56.868H39.1028V58.285H38.1308L36.9012 61.6461H39.5479C39.7476 62.3676 40.0224 63.0663 40.3676 63.7306C40.8224 64.6453 41.4282 65.4767 42.1594 66.1899C42.8917 66.9064 43.7439 67.489 44.6772 67.9114C45.7327 68.3577 46.869 68.581 48.0149 68.5673ZM67.9235 65.7566C68.8113 64.9786 69.323 63.8572 69.3288 62.6767V52.5116C69.3215 51.3314 68.8101 50.2106 67.9235 49.4316L65.5813 47.3119C64.375 46.235 62.5242 46.3399 61.4473 47.5461C60.3704 48.7524 60.4753 50.6032 61.6815 51.6801L63.485 53.2845V61.9037L61.6815 63.5081C60.4753 64.585 60.3704 66.4358 61.4473 67.6421C62.5242 68.8483 64.375 68.9532 65.5813 67.8763L67.9235 65.7566Z" fill="black"/>
</svg>
