<?xml version="1.0" encoding="UTF-8"?>
<svg width="100px" height="100px" viewBox="0 0 100 100" version="1.1" xmlns="http://www.w3.org/2000/svg" xmlns:xlink="http://www.w3.org/1999/xlink">
    <!-- Generator: Sketch 57.1 (83088) - https://sketch.com -->
    <title>bold/cash-bold</title>
    <desc>Created with Sketch.</desc>
    <g id="bold/cash" stroke="none" stroke-width="1" fill="none" fill-rule="evenodd">
        <path d="M91.05,35.71 L91.05,77.87 L-4.99996844e-08,77.87 L-4.99996844e-08,35.71 L91.05,35.71 Z M82,44.77 L64.5,44.77 C64.975578,44.935093 65.4183637,45.1810863 65.8090739,45.4965386 L66,45.66 L68.3,47.66 C69.4367374,48.6767282 70.1131105,50.1056603 70.1838357,51.6216373 L70.19,51.89 L70.19,61.69 C70.1895444,63.2120578 69.5763213,64.6657673 68.4955485,65.7268852 L68.3,65.91 L66,67.96 C65.621571,68.2995009 65.1876549,68.570416 64.7178201,68.7612876 L64.48,68.85 L82,68.85 L82,44.77 Z M61.57,44.77 L29.57,44.77 C31.0996201,45.2723021 32.2420864,46.5567478 32.5626005,48.1345045 C32.8678521,49.6371298 32.3828572,51.1857005 31.2886738,52.2448631 L31.12,52.4 L29.96,53.4 L29.96,60.14 L31.12,61.14 C32.3259216,62.2037385 32.8709125,63.8311566 32.5488028,65.4066032 C32.2420317,66.9070285 31.1933878,68.1421114 29.7754187,68.6926117 L29.56,68.77 L61.56,68.77 C60.0333313,68.2649563 58.8933068,66.9820498 58.5711972,65.4066032 C58.2644261,63.9061779 58.7441407,62.3586128 59.8322439,61.2957307 L60,61.14 L61.16,60.14 L61.16,53.36 L60,52.36 C58.809209,51.2952863 58.2754077,49.6770762 58.5989761,48.1128185 C58.9225446,46.5485608 60.0545284,45.2749203 61.57,44.77 Z M26.56,44.73 L8.99999996,44.73 L8.99999996,68.77 L26.57,68.77 C26.0917766,68.6050884 25.6461786,68.3591591 25.2524517,68.0435555 L25.06,67.88 L22.76,65.88 C21.6262285,64.8611091 20.9506093,63.4333756 20.8767568,61.9182221 L20.87,61.65 L20.87,51.85 C20.8677297,50.3226534 21.4847732,48.8637862 22.5730833,47.8029984 L22.77,47.62 L25.06,45.62 C25.4949519,45.2253314 26.005159,44.9226085 26.56,44.73 Z M46.5,47.79 C47.9100977,47.7743647 49.2961792,48.1555372 50.5,48.89 C50.7477496,48.4263282 51.2343749,48.1405324 51.76,48.15 C52.1805203,48.1467902 52.582003,48.3250626 52.8616272,48.6391611 C53.1412515,48.9532596 53.2718587,49.3726772 53.22,49.79 L53.22,52.85 C53.2750003,53.2689215 53.145821,53.6911269 52.8658312,54.0075537 C52.5858414,54.3239805 52.1825013,54.5035951 51.76,54.5 C51.3639118,54.5032196 50.9839872,54.3431412 50.709635,54.0574366 C50.4352829,53.7717319 50.290732,53.3856324 50.31,52.99 C50.1947162,52.3464934 49.7835962,51.7946296 49.2,51.5 C48.4125148,50.9760972 47.4857927,50.7008677 46.54,50.71 C45.7865176,50.6932334 45.0428713,50.8834685 44.39,51.26 C43.7232217,51.6665484 43.1587134,52.2207929 42.74,52.88 C42.4539258,53.3373677 42.2413436,53.8367673 42.11,54.36 L48.75,54.36 C49.1208598,54.3172538 49.4923405,54.4347633 49.7711489,54.6830174 C50.0499573,54.9312714 50.2096057,55.286685 50.21,55.66 C50.2196396,56.1388856 49.9504013,56.579812 49.52,56.79 C49.7218828,57.0230811 49.8320693,57.3216509 49.83,57.63 C49.8296057,58.003315 49.6699573,58.3587286 49.3911489,58.6069826 C49.1123405,58.8552367 48.7408598,58.9727462 48.37,58.93 L42.11,58.93 C42.3357431,59.8831307 42.8364665,60.748965 43.55,61.42 C44.4558558,62.3631611 45.7124086,62.8882336 47.02,62.87 C48.6153322,62.8062671 50.0917212,62.0090171 51.02,60.71 C51.3031707,60.3374971 51.7421261,60.116175 52.21,60.11 C52.588748,60.0873282 52.9595527,60.2250883 53.2316255,60.4895507 C53.5036984,60.7540132 53.6519202,61.1207614 53.64,61.5 C53.5917319,62.0199168 53.3657,62.507298 53,62.88 C52.5807162,63.4053045 52.0969046,63.8756769 51.56,64.28 C50.921397,64.7724152 50.204813,65.1543681 49.44,65.41 C48.6700237,65.6687555 47.86226,65.7971866 47.05,65.79 C45.6511621,65.8209896 44.2696854,65.4756204 43.05,64.79 C41.8902402,64.1198893 40.9091767,63.1799894 40.19,62.05 C39.5865148,61.1203035 39.2097384,60.0619041 39.09,58.96 L38.84,58.96 C38.4725912,59.0001457 38.1056102,58.8807722 37.8321316,58.6321553 C37.558653,58.3835383 37.4049481,58.0295611 37.41,57.66 C37.3979794,57.2751504 37.5639908,56.9062362 37.86,56.66 C37.5614892,56.415673 37.3948915,56.0454557 37.41,55.66 C37.4049481,55.2904389 37.558653,54.9364617 37.8321316,54.6878447 C38.1056102,54.4392278 38.4725912,54.3198543 38.84,54.36 L39.13,54.36 C39.357374,52.6935469 40.1311113,51.1495893 41.33,49.97 C42.6788774,48.5613402 44.5497474,47.7724627 46.5,47.79 Z M97.82,50.45 L100,63.05 L97.82,63.42 L97.82,50.45 Z M92.81,21.5 L94.1,28.94 L49.84,28.94 L92.81,21.5 Z" id="Shape" fill="#000000"></path>
    </g>
</svg>