<?xml version="1.0" encoding="UTF-8"?>
<svg width="100px" height="100px" viewBox="0 0 100 100" version="1.1" xmlns="http://www.w3.org/2000/svg" xmlns:xlink="http://www.w3.org/1999/xlink">
    <!-- Generator: Sketch 57.1 (83088) - https://sketch.com -->
    <title>bold/chart-bar-bold</title>
    <desc>Created with Sketch.</desc>
    <g id="bold/chart-bar" stroke="none" stroke-width="1" fill="none" fill-rule="evenodd">
        <path d="M94.5588236,77.3137255 L87.3039216,77.3137255 L87.3039216,36.2843137 C87.3039266,33.3317904 84.9133027,30.9367801 81.9607843,30.9313725 L70.754902,30.9313725 C67.800792,30.9367682 65.4073564,33.3302038 65.4019608,36.2843137 L65.4019608,77.3137255 L60.9509804,77.3137255 L60.9509804,60.2352941 C60.9455848,57.2811842 58.5521492,54.8877486 55.5980392,54.8823529 L44.4019608,54.8823529 C41.4478508,54.8877486 39.0544152,57.2811842 39.0490196,60.2352941 L39.0490196,77.3137255 L34.5980392,77.3137255 L34.5980392,50.8431373 C34.5926316,47.8906189 32.1976214,45.499995 29.245098,45.5 L18.0392157,45.5 C15.1172876,45.5320679 12.7609776,47.9014686 12.745098,50.8235294 L12.745098,77.2941177 L9.89215682,77.2941177 L9.89215682,18.6764706 C9.96918897,17.0346731 9.13715219,15.4835243 7.72676645,14.6395784 C6.31638071,13.7956324 4.55616823,13.7956324 3.14578248,14.6395784 C1.73539674,15.4835243 0.903359955,17.0346731 0.980392108,18.6764706 L0.980392108,86.2254902 L94.5588236,86.2254902 C96.200621,86.3025224 97.7517698,85.4704856 98.5957158,84.0600999 C99.4396617,82.6497141 99.4396617,80.8895016 98.5957158,79.4791159 C97.7517698,78.0687301 96.200621,77.2366934 94.5588236,77.3137255 Z M74.3235294,39.8431372 L78.4313726,39.8431372 L78.4313726,77.3137255 L74.3235294,77.3137255 L74.3235294,39.8431372 Z M47.9607843,63.8039216 L52.0392157,63.8039216 L52.0392157,77.3137255 L47.9607843,77.3137255 L47.9607843,63.8039216 Z M21.5686274,54.4117647 L25.6372549,54.4117647 L25.6372549,77.3137255 L21.5686274,77.3137255 L21.5686274,54.4117647 Z" id="chart-bar" fill="#000000"></path>
    </g>
</svg>