<svg width="100" height="100" viewBox="0 0 100 100" fill="none" xmlns="http://www.w3.org/2000/svg">
<path d="M97.0471 71.9765H87.6353V26.8824C87.6353 25.8507 87.2246 24.8614 86.494 24.133C85.7634 23.4046 84.7729 22.9969 83.7412 23H71.9059C69.7617 23 68.0235 24.7382 68.0235 26.8824V71.9765H59.7882V52.1765C59.7882 50.0323 58.05 48.2942 55.9059 48.2942H44.0706C41.9264 48.2942 40.1882 50.0323 40.1882 52.1765V71.9765H31.9529V42.2471C31.9529 41.2174 31.5439 40.2299 30.8158 39.5019C30.0877 38.7738 29.1003 38.3647 28.0706 38.3647H16.2353C14.0911 38.3647 12.3529 40.1029 12.3529 42.2471V71.9765H2.94118C1.31681 71.9765 0 73.2933 0 74.9177C0 76.542 1.31681 77.8589 2.94118 77.8589H97.0588C98.6832 77.8589 100 76.542 100 74.9177C100 73.2933 98.6832 71.9765 97.0588 71.9765H97.0471ZM73.9059 28.8824H81.7412V71.9765H73.9059V28.8824ZM46.0706 54.1765H53.9059V71.9765H46.0706V54.1765ZM18.2353 44.2471H26.0706V71.9765H18.2353V44.2471Z" fill="black"/>
</svg>
