<?xml version="1.0" encoding="UTF-8"?>
<svg width="100px" height="100px" viewBox="0 0 100 100" version="1.1" xmlns="http://www.w3.org/2000/svg" xmlns:xlink="http://www.w3.org/1999/xlink">
    <!-- Generator: Sketch 57.1 (83088) - https://sketch.com -->
    <title>solid/check-circle-full-solid</title>
    <desc>Created with Sketch.</desc>
    <g id="solid/check-circle-full" stroke="none" stroke-width="1" fill="none" fill-rule="evenodd">
        <path d="M50,-4.9999997e-08 C22.3857625,-4.9999997e-08 -4.9999997e-08,22.3857625 -4.9999997e-08,50 C-4.9999997e-08,77.6142375 22.3857625,100 50,100 C77.6142375,100 100,77.6142375 100,50 C99.9669389,22.3994685 77.6005315,0.0330611134 50,-4.9999997e-08 Z M74.73,38.14 L44.8,68.06 C43.5641217,69.2959665 41.8878582,69.9903326 40.14,69.9903326 C38.3921418,69.9903326 36.7158782,69.2959665 35.48,68.06 L25.27,57.86 C23.9498047,56.683114 23.3891483,54.8723665 23.8133214,53.1553769 C24.2374944,51.4383872 25.5768612,50.0970303 27.2932192,49.6703083 C29.0095772,49.2435864 30.821155,49.8015536 32,51.12 L40.13,59.25 L68,31.4 C69.1859936,30.1113327 70.982805,29.5762299 72.6805875,30.0060889 C74.3783701,30.4359478 75.7040522,31.7616299 76.1339111,33.4594125 C76.5637701,35.157195 76.0286673,36.9540064 74.74,38.14 L74.73,38.14 Z" id="check-circle-full" fill="#000000"></path>
    </g>
</svg>