<svg width="100" height="100" viewBox="0 0 100 100" fill="none" xmlns="http://www.w3.org/2000/svg">
<path d="M41.1769 65.7882C42.0755 66.6923 43.3023 67.1932 44.5769 67.1764L44.8593 67.1646C46.216 67.0868 47.4728 66.4262 48.3063 65.3529L69.9651 37.5764C70.9658 36.2964 70.7393 34.4476 69.4593 33.447C68.1793 32.4464 66.3305 32.6729 65.3298 33.9529L44.424 60.7176L34.3887 50.6823C33.6513 49.9167 32.5582 49.6086 31.5296 49.8763C30.5009 50.1441 29.6967 50.946 29.4261 51.9739C29.1555 53.0018 29.4605 54.0957 30.224 54.8352L41.1769 65.7882Z" fill="black"/>
<path fill-rule="evenodd" clip-rule="evenodd" d="M0 50C0 77.6142 22.3858 100 50 100C77.6008 99.9676 99.9676 77.6008 100 50C100 22.3858 77.6142 0 50 0C22.3858 0 0 22.3858 0 50ZM5.88235 50C5.88235 25.6345 25.6345 5.88235 50 5.88235C74.3548 5.90829 94.0917 25.6452 94.1176 50C94.1176 74.3655 74.3655 94.1176 50 94.1176C25.6345 94.1176 5.88235 74.3655 5.88235 50Z" fill="black"/>
</svg>
