<?xml version="1.0" encoding="UTF-8"?>
<svg width="100px" height="100px" viewBox="0 0 100 100" version="1.1" xmlns="http://www.w3.org/2000/svg" xmlns:xlink="http://www.w3.org/1999/xlink">
    <!-- Generator: Sketch 57.1 (83088) - https://sketch.com -->
    <title>solid/check-circle-solid</title>
    <desc>Created with Sketch.</desc>
    <g id="solid/check-circle" stroke="none" stroke-width="1" fill="none" fill-rule="evenodd">
        <path d="M50,-5.00000041e-08 C77.6142375,-5.00000041e-08 100,22.3857625 100,49.9999999 C99.9669389,77.6005315 77.6005315,99.9669389 50,99.9999999 C22.3857625,99.9999999 -4.99996062e-08,77.6142375 -4.99996062e-08,49.9999999 C-4.99996062e-08,22.3857625 22.3857625,-5.00000041e-08 50,-5.00000041e-08 Z M50,16.67 C31.5923493,16.67 16.67,31.5923493 16.67,50 C16.67,68.4076507 31.5923493,83.33 50,83.33 C68.4076507,83.33 83.33,68.4076507 83.33,50 C83.3079593,31.6014866 68.3985134,16.6920407 50,16.67 Z M70.8502199,28.6266102 C73.7256326,29.3983824 75.9708879,31.6455437 76.74022,34.5216103 C77.509552,37.3976768 76.6860808,40.4657057 74.58,42.57 L48.4,68.75 C46.5378351,70.6176892 44.007403,71.6651369 41.37,71.6600375 C38.7425523,71.6593637 36.2235739,70.6121884 34.37,68.75 L25.44,59.82 C23.3285603,57.7192783 22.4982313,54.6516918 23.2617898,51.7727706 C24.0253484,48.8938494 26.2667917,46.6409702 29.1417898,45.8627706 C32.016788,45.0845711 35.0885603,45.8992783 37.2,48 L41.37,52.17 L62.8,30.78 C64.9060806,28.6757056 67.9748071,27.854838 70.8502199,28.6266102 Z" id="Shape" fill="#000000"></path>
    </g>
</svg>