<svg width="100" height="100" viewBox="0 0 100 100" fill="none" xmlns="http://www.w3.org/2000/svg">
<g clip-path="url(#clip0)">
<path d="M35.4446 90.9067C33.398 90.9133 31.4335 90.1021 29.9877 88.6535L0.860456 59.538C0.118357 58.7959 -0.171466 57.7143 0.100162 56.7005C0.371789 55.6868 1.1636 54.895 2.17733 54.6234C3.19105 54.3517 4.27268 54.6416 5.01478 55.3837L34.1303 84.4992C34.5013 84.879 35.0206 85.0764 35.5503 85.039C36.0827 85.0176 36.5777 84.7594 36.8998 84.3349L94.5089 10.4958C95.0704 9.49731 96.1617 8.91696 97.3035 9.00966C98.4453 9.10236 99.4287 9.85115 99.8218 10.9271C100.215 12.0031 99.9457 13.2095 99.1326 14.0164L41.5236 87.9494C40.1674 89.6976 38.1228 90.7756 35.9141 90.9067H35.4446Z" fill="black"/>
</g>
<defs>
<clipPath id="clip0">
<rect width="100" height="100" fill="white"/>
</clipPath>
</defs>
</svg>
