<svg width="100" height="100" viewBox="0 0 100 100" fill="none" xmlns="http://www.w3.org/2000/svg">
<path d="M50 0C22.3858 0 0 22.3858 0 50C0 77.6142 22.3858 100 50 100C77.6142 100 100 77.6142 100 50C99.9676 22.3992 77.6008 0.0324144 50 0ZM73.2118 40.1059L51.5529 67.8824C49.9937 69.8832 47.6497 71.1173 45.1176 71.2706H44.5765C42.2242 71.2696 39.9687 70.3344 38.3059 68.6706L27.3647 57.7294C24.6446 54.968 24.66 50.5299 27.3992 47.7874C30.1384 45.045 34.5766 45.0243 37.3412 47.7412L44.0824 54.4824L62.0824 31.4C64.5034 28.406 68.8772 27.9046 71.913 30.2729C74.9488 32.6413 75.5267 37.0056 73.2118 40.0824V40.1059Z" fill="black"/>
</svg>
