<?xml version="1.0" encoding="UTF-8"?>
<svg width="100px" height="100px" viewBox="0 0 100 100" version="1.1" xmlns="http://www.w3.org/2000/svg" xmlns:xlink="http://www.w3.org/1999/xlink">
    <!-- Generator: Sketch 57.1 (83088) - https://sketch.com -->
    <title>bold/check-circle-bold</title>
    <desc>Created with Sketch.</desc>
    <g id="bold/check-circle" stroke="none" stroke-width="1" fill="none" fill-rule="evenodd">
        <path d="M50,-5.00000041e-08 C77.6142375,-5.00000041e-08 100,22.3857625 100,49.9999999 C99.9669389,77.6005315 77.6005315,99.9669389 50,99.9999999 C22.3857625,99.9999999 -4.99996062e-08,77.6142375 -4.99996062e-08,49.9999999 C-4.99996062e-08,22.3857625 22.3857625,-5.00000041e-08 50,-5.00000041e-08 Z M50,9.08999996 C27.4060309,9.08999996 9.08999996,27.4060309 9.08999996,50 C9.08999996,72.5939691 27.4060309,90.91 50,90.91 C72.5939691,90.91 90.91,72.5939691 90.91,50 C90.8605027,27.4265651 72.5734349,9.13949725 50,9.08999996 Z M73.4797594,32.3702406 C75.208951,34.0994322 75.2620561,36.8861838 73.6,38.68 L45,67.24 C43.8305065,68.4114032 42.2452489,69.0728259 40.59,69.0800264 C38.9208851,69.0834263 37.3192938,68.4211953 36.14,67.24 L26.4,57.5 C25.1772533,56.3670671 24.6719116,54.6561964 25.0828569,53.0407181 C25.4938023,51.4252397 26.7552397,50.1638023 28.370718,49.752857 C29.9861964,49.3419116 31.697067,49.8472534 32.83,51.07 L40.59,58.83 L67.17,32.25 C68.9638162,30.5879439 71.7505678,30.641049 73.4797594,32.3702406 Z" id="Shape" fill="#000000"></path>
    </g>
</svg>