<?xml version="1.0" encoding="UTF-8"?>
<svg width="100px" height="100px" viewBox="0 0 100 100" version="1.1" xmlns="http://www.w3.org/2000/svg" xmlns:xlink="http://www.w3.org/1999/xlink">
    <!-- Generator: Sketch 57.1 (83088) - https://sketch.com -->
    <title>regular/check-regular</title>
    <desc>Created with Sketch.</desc>
    <g id="regular/check" stroke="none" stroke-width="1" fill="none" fill-rule="evenodd">
        <path d="M27.7227723,86.3069921 C26.0253677,86.3113116 24.3964966,85.6376647 23.1980198,84.4356436 L0.693069258,61.8811881 C-0.193907259,60.9568023 -0.179882209,59.4931422 0.724645073,58.5859229 C1.62917236,57.6787036 3.0927843,57.6603289 4.01980193,58.5445545 L26.5544554,81.0990099 C26.8686468,81.4158416 27.2963696,81.5940594 27.7425742,81.5940594 C28.1887789,81.5940594 28.6165016,81.4158416 28.930693,81.0990099 L94.9900991,15.0495049 C95.5713477,14.3954662 96.4671395,14.1173465 97.3166001,14.3271877 C98.1660607,14.5370288 98.8293078,15.200276 99.039149,16.0497366 C99.2489901,16.8991971 98.9708704,17.7949889 98.3168317,18.3762376 L32.2673267,84.4356436 C31.0627646,85.6406815 29.4266005,86.3143962 27.7227723,86.3069921 L27.7227723,86.3069921 Z" id="check" fill="#000000"></path>
    </g>
</svg>