<?xml version="1.0" encoding="UTF-8"?>
<svg width="100px" height="100px" viewBox="0 0 100 100" version="1.1" xmlns="http://www.w3.org/2000/svg" xmlns:xlink="http://www.w3.org/1999/xlink">
    <!-- Generator: Sketch 57.1 (83088) - https://sketch.com -->
    <title>regular/check-circle-regular</title>
    <desc>Created with Sketch.</desc>
    <g id="regular/check-circle" stroke="none" stroke-width="1" fill="none" fill-rule="evenodd">
        <path d="M50,-4.9999997e-08 C77.6142375,-4.9999997e-08 100,22.3857625 100,50 C99.9669389,77.6005315 77.6005315,99.9669389 50,100 C22.3857625,100 -4.99996062e-08,77.6142375 -4.99996062e-08,50 C-4.99996062e-08,22.3857625 22.3857625,-4.9999997e-08 50,-4.9999997e-08 Z M50,4.75999995 C25.0146379,4.75999995 4.75999995,25.0146379 4.75999995,50 C4.75999995,74.9853621 25.0146379,95.24 50,95.24 C74.9853621,95.24 95.24,74.9853621 95.24,50 C95.2069468,25.0283418 74.9716582,4.79305315 50,4.75999995 Z M72.0835921,32.2441988 C72.9809495,32.4510122 73.6784729,33.1569395 73.874525,34.0567092 C74.0705771,34.956479 73.7299716,35.8886057 73,36.45 L43.12,66.38 C42.3298366,67.1700895 41.2574041,67.6127378 40.14,67.6102145 C39.015674,67.6180832 37.9350506,67.1750276 37.14,66.38 L27,56.17 C26.1629573,55.2281341 26.2050837,53.7970779 27.0960808,52.9060808 C27.9870779,52.0150837 29.4181341,51.9729573 30.36,52.81 L40.18,62.62 L69.68,33.09 C70.2500959,32.3668038 71.1862347,32.0373855 72.0835921,32.2441988 Z" id="Shape" fill="#000000"></path>
    </g>
</svg>