<svg width="100" height="100" viewBox="0 0 100 100" fill="none" xmlns="http://www.w3.org/2000/svg">
<g clip-path="url(#clip0)">
<path d="M97.0685 75.1061C96.2859 75.1044 95.5362 74.791 94.9852 74.2351L51.1057 30.3557C50.4864 29.7423 49.4887 29.7423 48.8694 30.3557L4.98991 74.2351C3.8369 75.352 2.0015 75.3387 0.864802 74.2052C-0.271894 73.0717 -0.290386 71.2364 0.823241 70.0802L44.6909 26.2008C46.0935 24.792 47.9996 24 49.9875 24C51.9755 24 53.8816 24.792 55.2842 26.2008L99.1518 70.0802C99.9837 70.926 100.229 72.1873 99.7747 73.2832C99.3205 74.379 98.2548 75.0969 97.0685 75.1061Z" fill="black"/>
</g>
<defs>
<clipPath id="clip0">
<rect width="100" height="100" fill="white"/>
</clipPath>
</defs>
</svg>
