<?xml version="1.0" encoding="UTF-8"?>
<svg width="100px" height="100px" viewBox="0 0 100 100" version="1.1" xmlns="http://www.w3.org/2000/svg" xmlns:xlink="http://www.w3.org/1999/xlink">
    <!-- Generator: Sketch 57.1 (83088) - https://sketch.com -->
    <title>bold/chevron-left-bold</title>
    <desc>Created with Sketch.</desc>
    <g id="bold/chevron-left" stroke="none" stroke-width="1" fill="none" fill-rule="evenodd">
        <path d="M23.5294041,50 C23.5263353,47.6826757 24.4472626,45.4597477 26.0882353,43.8235294 L67.6470588,2.28431368 C68.7396487,1.01202519 70.4535063,0.460041397 72.0832443,0.855547121 C73.7129822,1.25105285 74.9831856,2.52721024 75.3710655,4.15877996 C75.7589454,5.79034968 75.1989527,7.50160722 73.9215687,8.58823525 L32.5098039,50 L73.9215687,91.4117647 C75.1989527,92.4983928 75.7589454,94.2096503 75.3710655,95.84122 C74.9831856,97.4727898 73.7129822,98.7489472 72.0832443,99.1444529 C70.4535063,99.5399586 68.7396487,98.9879748 67.6470588,97.7156863 L26.0882353,56.1764706 C24.4472626,54.5402523 23.5263353,52.3173243 23.5294041,50 Z" id="chevron-left" fill="#000000"></path>
    </g>
</svg>