<svg width="100" height="100" viewBox="0 0 100 100" fill="none" xmlns="http://www.w3.org/2000/svg">
<g clip-path="url(#clip0)">
<path d="M72.1464 99.9999C71.3683 100.005 70.6213 99.6949 70.0751 99.1408L26.2005 55.278C24.7919 53.8755 24 51.9697 24 49.982C24 47.9942 24.7919 46.0884 26.2005 44.6859L70.0751 0.823149C71.2311 -0.290354 73.0663 -0.271864 74.1996 0.864705C75.333 2.00127 75.3463 3.83647 74.2295 4.98935L30.3549 48.8639C29.7417 49.4831 29.7417 50.4808 30.3549 51.1L74.2295 94.9746C75.0732 95.8161 75.326 97.0835 74.8696 98.1843C74.4133 99.2852 73.3381 100.002 72.1464 99.9999Z" fill="black"/>
</g>
<defs>
<clipPath id="clip0">
<rect width="100" height="100" fill="white"/>
</clipPath>
</defs>
</svg>
