<?xml version="1.0" encoding="UTF-8"?>
<svg width="100px" height="100px" viewBox="0 0 100 100" version="1.1" xmlns="http://www.w3.org/2000/svg" xmlns:xlink="http://www.w3.org/1999/xlink">
    <!-- Generator: Sketch 57.1 (83088) - https://sketch.com -->
    <title>regular/chevron-up-regular</title>
    <desc>Created with Sketch.</desc>
    <g id="regular/chevron-up" stroke="none" stroke-width="1" fill="none" fill-rule="evenodd">
        <path d="M49.5049505,24.752444 C51.3257907,24.7470157 53.0756398,25.4583365 54.3762376,26.7326732 L98.3168317,70.7128713 C98.9708704,71.29412 99.2489901,72.1899118 99.039149,73.0393723 C98.8293078,73.8888329 98.1660607,74.5520801 97.3166001,74.7619212 C96.4671395,74.9717624 95.5713477,74.6936427 94.9900991,74.039604 L51.039604,30.0990099 C50.190249,29.2557749 48.819652,29.2557749 47.970297,30.0990099 L4.01980193,74.039604 C3.08726147,74.8683591 1.67037415,74.8266498 0.788198773,73.9444745 C-0.0939766041,73.0622991 -0.135685872,71.6454118 0.693069258,70.7128713 L44.6336634,26.7326732 C45.9342612,25.4583365 47.6841103,24.7470157 49.5049505,24.752444 Z" id="chevron-up" fill="#000000"></path>
    </g>
</svg>