<?xml version="1.0" encoding="UTF-8"?>
<svg width="100px" height="100px" viewBox="0 0 100 100" version="1.1" xmlns="http://www.w3.org/2000/svg" xmlns:xlink="http://www.w3.org/1999/xlink">
    <!-- Generator: Sketch 57.1 (83088) - https://sketch.com -->
    <title>bold/chevron-up-bold</title>
    <desc>Created with Sketch.</desc>
    <g id="bold/chevron-up" stroke="none" stroke-width="1" fill="none" fill-rule="evenodd">
        <path d="M50,23.5294041 C52.3173243,23.5263353 54.5402523,24.4472626 56.1764706,26.0882353 L97.7156863,67.6470588 C98.9144575,68.7577774 99.4098906,70.4351016 99.007003,72.0189039 C98.6041154,73.6027062 97.3674121,74.8394095 95.7836098,75.2422971 C94.1998075,75.6451847 92.5224833,75.1497516 91.4117647,73.9509804 L50,32.5098039 L8.58823525,73.9215687 C7.50160722,75.1989527 5.79034968,75.7589454 4.15877996,75.3710655 C2.52721024,74.9831856 1.25105285,73.7129822 0.855547121,72.0832443 C0.460041397,70.4535063 1.01202519,68.7396487 2.28431368,67.6470588 L43.8235294,26.0882353 C45.4597477,24.4472626 47.6826757,23.5263353 50,23.5294041 Z" id="chevron-up" fill="#000000"></path>
    </g>
</svg>