<?xml version="1.0" encoding="UTF-8"?>
<svg width="100px" height="100px" viewBox="0 0 100 100" version="1.1" xmlns="http://www.w3.org/2000/svg" xmlns:xlink="http://www.w3.org/1999/xlink">
    <!-- Generator: Sketch 57.1 (83088) - https://sketch.com -->
    <title>regular/chevron-right-regular</title>
    <desc>Created with Sketch.</desc>
    <g id="regular/chevron-right" stroke="none" stroke-width="1" fill="none" fill-rule="evenodd">
        <path d="M75.227754,49.5049505 C75.2331823,51.3257907 74.5218616,53.0756398 73.2475248,54.3762376 L29.2673267,98.3168317 C28.686078,98.9708704 27.7902863,99.2489901 26.9408257,99.039149 C26.0913651,98.8293078 25.428118,98.1660607 25.2182768,97.3166001 C25.0084356,96.4671395 25.2865554,95.5713477 25.940594,94.9900991 L69.8811881,51.039604 C70.2911474,50.6341574 70.5218432,50.0815383 70.5218432,49.5049505 C70.5218432,48.9283627 70.2911474,48.3757436 69.8811881,47.970297 L25.940594,4.01980193 C25.1118389,3.08726147 25.1535482,1.67037415 26.0357236,0.788198773 C26.9178989,-0.0939766041 28.3347862,-0.135685872 29.2673267,0.693069258 L73.2178218,44.6336634 C74.5030356,45.9294562 75.2252673,47.6798895 75.227754,49.5049505 Z" id="chevron-right" fill="#000000"></path>
    </g>
</svg>