<?xml version="1.0" encoding="UTF-8"?>
<svg width="100px" height="100px" viewBox="0 0 100 100" version="1.1" xmlns="http://www.w3.org/2000/svg" xmlns:xlink="http://www.w3.org/1999/xlink">
    <!-- Generator: Sketch 57.1 (83088) - https://sketch.com -->
    <title>bold/clipboard-list-bold</title>
    <desc>Created with Sketch.</desc>
    <g id="bold/clipboard-list" stroke="none" stroke-width="1" fill="none" fill-rule="evenodd">
        <path d="M53.23,-3.15164482e-05 C56.6655325,0.00536725233 59.4648934,2.72588268 59.5952837,6.13193637 L59.6,6.35999996 L59.6,6.89999996 L78.26,6.89999996 C81.6977535,6.90539675 84.4959515,9.63326465 84.6159876,13.0417797 L84.62,13.27 L84.62,93.64 C84.6146135,97.073938 81.892569,99.8705162 78.4879627,99.9956386 L78.26,100 L21.36,100 C17.926062,99.9946135 15.1294839,97.2725691 15.0043614,93.8679627 L15,93.64 L15,13.27 C15,9.83224226 17.7234642,7.02975783 21.1317863,6.90437063 L21.36,6.89999996 L40,6.89999996 L40,6.35999996 C40.0026465,4.66883351 40.6776856,3.04813224 41.8763327,1.85511255 C43.0044712,0.732270485 44.5092688,0.0750250326 46.0923314,0.00598960508 L46.39,-3.15164482e-05 L53.23,-3.15164482e-05 Z M75.53,21.22 L24.09,21.22 L24.09,90.9 L75.53,90.9 L75.53,21.22 Z M34.0022731,60.3749805 L34.23,60.38 L65.4,60.38 C67.8273147,60.4938882 69.7367513,62.495015 69.7367513,64.925 C69.7367513,67.3549851 67.8273147,69.3561119 65.4,69.47 L34.23,69.47 C32.5553666,69.5485728 30.9731948,68.6998953 30.1123699,67.2613018 C29.2515451,65.8227084 29.2515451,64.0272916 30.1123699,62.5886982 C30.9731948,61.1501047 32.5553666,60.3014272 34.23,60.38 L34.0022731,60.3749805 Z M34.23,48.91 L65.4,48.91 C67.8273147,49.0238882 69.7367513,51.025015 69.7367513,53.455 C69.7367513,55.8135149 67.9379828,57.7680275 65.6127955,57.9850905 L65.4,58 L34.23,58 C32.5553666,58.0785728 30.9731948,57.2298953 30.1123699,55.7913018 C29.2515451,54.3527084 29.2515451,52.5572916 30.1123699,51.1186982 C30.894938,49.8108859 32.2736606,48.9906075 33.7760467,48.9113073 L34.0022731,48.9050013 L34.23,48.91 Z M34.0022731,37.4250013 L34.23,37.43 L65.4,37.43 C67.8273147,37.5438881 69.7367513,39.5450149 69.7367513,41.975 C69.7367513,44.3335149 67.9379828,46.2880275 65.6127955,46.5050905 L65.4,46.52 L34.23,46.52 C32.5553666,46.5985728 30.9731948,45.7498953 30.1123699,44.3113018 C29.2515451,42.8727084 29.2515451,41.0772916 30.1123699,39.6386982 C30.894938,38.3308859 32.2736606,37.5106075 33.7760467,37.4313073 L34.0022731,37.4250013 Z" id="Shape" fill="#000000"></path>
    </g>
</svg>