<?xml version="1.0" encoding="UTF-8"?>
<svg width="100px" height="100px" viewBox="0 0 100 100" version="1.1" xmlns="http://www.w3.org/2000/svg" xmlns:xlink="http://www.w3.org/1999/xlink">
    <!-- Generator: Sketch 57.1 (83088) - https://sketch.com -->
    <title>bold/clipboard-bold</title>
    <desc>Created with Sketch.</desc>
    <g id="bold/clipboard" stroke="none" stroke-width="1" fill="none" fill-rule="evenodd">
        <path d="M78.26,6.89999996 L59.6,6.89999996 L59.6,6.35999996 C59.5889953,2.84813528 56.7418776,0.00548722497 53.23,-3.15164482e-05 L46.39,-3.15164482e-05 C44.6988398,-0.00531191211 43.0749799,0.662092856 41.8763327,1.85511255 C40.6776856,3.04813224 40.0026465,4.66883351 40,6.35999996 L40,6.89999996 L21.36,6.89999996 C17.845852,6.90551668 15,9.75584765 15,13.27 L15,93.64 C15.0055062,97.1502477 17.8497523,99.9944938 21.36,100 L78.26,100 C81.7702477,99.9944938 84.6144938,97.1502477 84.62,93.64 L84.62,13.27 C84.62,9.75584765 81.774148,6.90551668 78.26,6.89999996 Z M75.53,90.9 L24.09,90.9 L24.09,21.22 L75.53,21.22 L75.53,90.9 Z" id="clipboard" fill="#000000"></path>
    </g>
</svg>