<svg width="100" height="100" viewBox="0 0 100 100" fill="none" xmlns="http://www.w3.org/2000/svg">
<g clip-path="url(#clip0)">
<path d="M83.8469 12.4473V12.5532H15.2939V12.4473C15.3069 9.53262 17.6734 7.17667 20.5881 7.1767H41.1763V4.82376C41.1762 3.53628 41.6909 2.30221 42.6057 1.39626C43.5205 0.49031 44.7595 -0.0123309 46.0469 0.000229878H53.1057C55.7579 0.00661221 57.9099 2.14814 57.9292 4.80023V7.15317H78.5528C81.4766 7.15317 83.8469 9.52343 83.8469 12.4473Z" fill="black"/>
<path fill-rule="evenodd" clip-rule="evenodd" d="M15.2939 94.7056V18.4351H83.8469V94.7056C83.8404 97.6268 81.4739 99.9933 78.5528 99.9998H20.5881C17.6669 99.9933 15.3004 97.6268 15.2939 94.7056ZM47.8822 71.6233L69.541 43.8586H69.5998C70.2471 43.018 70.3968 41.8959 69.9924 40.915C69.588 39.9341 68.6911 39.2435 67.6395 39.1032C66.5878 38.963 65.5412 39.3944 64.8939 40.2351L44.0351 67.0468L33.9998 57.0233C32.8364 55.9833 31.0634 56.0329 29.9599 57.1364C28.8565 58.2398 28.8069 60.0128 29.8469 61.1762L40.7881 72.0468C41.6732 72.9435 42.881 73.4479 44.141 73.4468H44.4351C45.7938 73.3661 47.0509 72.701 47.8822 71.6233Z" fill="black"/>
</g>
<defs>
<clipPath id="clip0">
<rect width="100" height="100" fill="white"/>
</clipPath>
</defs>
</svg>
