<svg width="100" height="100" viewBox="0 0 100 100" fill="none" xmlns="http://www.w3.org/2000/svg">
<g clip-path="url(#clip0)">
<path d="M78.553 7.1529H57.9294V4.79996C57.9101 2.14788 55.758 0.00634557 53.1059 -0.000266645H46.0471C44.7597 -0.0125975 43.5206 0.490044 42.6059 1.396C41.6911 2.30195 41.1764 3.53602 41.1765 4.82349V7.17643H20.5882C17.6735 7.17641 15.3071 9.53235 15.2941 12.447V94.7058C15.3006 97.627 17.6671 99.9935 20.5882 100H78.553C81.4741 99.9935 83.8406 97.627 83.8471 94.7058V12.447C83.8471 9.52316 81.4768 7.1529 78.553 7.1529ZM47.0588 5.88232H52.0118V7.1529H47.0588V5.88232ZM21.1765 94.1176V18.4353H77.9647V94.1176H21.1765Z" fill="black"/>
</g>
<defs>
<clipPath id="clip0">
<rect width="100" height="100" fill="white"/>
</clipPath>
</defs>
</svg>
