<svg width="100" height="100" viewBox="0 0 100 100" fill="none" xmlns="http://www.w3.org/2000/svg">
<g clip-path="url(#clip0)">
<path d="M40.7882 72.0704C41.6811 72.9541 42.8849 73.4525 44.1411 73.4586L44.4353 73.4469C45.7939 73.3661 47.0511 72.701 47.8823 71.6233L69.6 43.8586C70.2472 43.018 70.3969 41.8959 69.9925 40.915C69.5882 39.9342 68.6912 39.2435 67.6396 39.1033C66.588 38.963 65.5414 39.3945 64.8941 40.2351L44.0353 67.0469L34 57.0233C32.8366 55.9833 31.0635 56.033 29.9601 57.1364C28.8567 58.2398 28.8071 60.0129 29.847 61.1763L40.7882 72.0704Z" fill="black"/>
<path fill-rule="evenodd" clip-rule="evenodd" d="M57.9292 7.15271H78.5528C81.4766 7.15271 83.8469 9.52296 83.8469 12.4468V94.7056C83.8404 97.6268 81.4739 99.9933 78.5528 99.9998H20.5881C17.6669 99.9933 15.3004 97.6268 15.2939 94.7056V12.4468C15.3069 9.53216 17.6734 7.17621 20.5881 7.17624H41.1763V4.8233C41.1794 3.5368 41.695 2.30457 42.6091 1.39931C43.5232 0.494038 44.7604 -0.00962784 46.0469 -0.000362681H53.1057C55.7579 0.00614875 57.9099 2.14768 57.9292 4.79977V7.15271ZM52.0116 5.88212H47.0587V7.15271H52.0116V5.88212ZM21.1763 18.4351V94.1174H77.9645V18.4351H21.1763Z" fill="black"/>
</g>
<defs>
<clipPath id="clip0">
<rect width="100" height="100" fill="white"/>
</clipPath>
</defs>
</svg>
