<?xml version="1.0" encoding="UTF-8"?>
<svg width="100px" height="100px" viewBox="0 0 100 100" version="1.1" xmlns="http://www.w3.org/2000/svg" xmlns:xlink="http://www.w3.org/1999/xlink">
    <!-- Generator: Sketch 57.1 (83088) - https://sketch.com -->
    <title>solid/clipboard-check-solid</title>
    <desc>Created with Sketch.</desc>
    <g id="solid/clipboard-check" stroke="none" stroke-width="1" fill="none" fill-rule="evenodd">
        <path d="M83.68,17.47 L83.68,95.71 C83.68,98.0793016 81.7593016,100 79.39,100 L19.79,100 C17.4206984,100 15.5,98.0793016 15.5,95.71 L15.5,17.47 L83.68,17.47 Z M69.87,38.6900001 C68.9394002,37.7594003 67.4305998,37.7594002 66.5,38.69 L41.02,64.15 L32.7,55.84 C31.7581341,55.0029573 30.3270779,55.0450837 29.4360808,55.9360808 C28.5450837,56.8270779 28.5029573,58.2581341 29.34,59.2 L38.22,68.06 C39.7777888,69.5976867 42.2822112,69.5976867 43.84,68.06 L69.84,42.06 L69.87,42.06 C70.8005998,41.1294002 70.8005997,39.6205998 69.87,38.6900001 Z M53.17,-0.000207090863 C54.3138888,-0.00798389303 55.4138127,0.440150505 56.2264286,1.24525962 C57.0390446,2.05036874 57.4973676,3.14608629 57.5,4.28999995 L57.5,7.22999996 L79.39,7.22999996 C81.7570204,7.23549828 83.6745017,9.1529796 83.68,11.52 L83.68,12.71 L15.5,12.71 L15.5,11.52 C15.5054983,9.1529796 17.4229796,7.23549828 19.79,7.22999996 L41.72,7.22999996 L41.72,4.28999995 C41.72,1.92069838 43.6406984,-0.000207090863 46.01,-0.000207090863 L53.17,-0.000207090863 Z" id="Shape" fill="#000000"></path>
    </g>
</svg>