<svg width="100" height="100" viewBox="0 0 100 100" fill="none" xmlns="http://www.w3.org/2000/svg">
<g clip-path="url(#clip0)">
<path d="M83.8469 12.4473V12.5532H15.2939V12.4473C15.3069 9.53262 17.6734 7.17667 20.5881 7.1767H41.1763V4.82376C41.1762 3.53628 41.6909 2.30221 42.6057 1.39626C43.5205 0.49031 44.7595 -0.0123309 46.0469 0.000229878H53.1057C55.7579 0.00661221 57.9099 2.14814 57.9292 4.80023V7.15317H78.5528C81.4766 7.15317 83.8469 9.52343 83.8469 12.4473Z" fill="black"/>
<path fill-rule="evenodd" clip-rule="evenodd" d="M15.2939 94.7056V18.4351H83.8469V94.7056C83.8404 97.6268 81.4739 99.9933 78.5528 99.9998H20.5881C17.6669 99.9933 15.3004 97.6268 15.2939 94.7056ZM31.9175 72.2115H67.2116C68.836 72.2115 70.1528 70.8947 70.1528 69.2704C70.1528 67.646 68.836 66.3292 67.2116 66.3292H31.9175C30.2931 66.3292 28.9763 67.646 28.9763 69.2704C28.9763 70.8947 30.2931 72.2115 31.9175 72.2115ZM31.9175 59.2704H67.2116C68.836 59.2704 70.1528 57.9535 70.1528 56.3292C70.1528 54.7048 68.836 53.388 67.2116 53.388H31.9175C30.2931 53.388 28.9763 54.7048 28.9763 56.3292C28.9763 57.9535 30.2931 59.2704 31.9175 59.2704ZM31.9175 46.2704H67.2116C68.836 46.2704 70.1528 44.9535 70.1528 43.3292C70.1528 41.7048 68.836 40.388 67.2116 40.388H31.9175C30.2931 40.388 28.9763 41.7048 28.9763 43.3292C28.9763 44.9535 30.2931 46.2704 31.9175 46.2704Z" fill="black"/>
</g>
<defs>
<clipPath id="clip0">
<rect width="100" height="100" fill="white"/>
</clipPath>
</defs>
</svg>
