<?xml version="1.0" encoding="UTF-8"?>
<svg width="100px" height="100px" viewBox="0 0 100 100" version="1.1" xmlns="http://www.w3.org/2000/svg" xmlns:xlink="http://www.w3.org/1999/xlink">
    <!-- Generator: Sketch 57.1 (83088) - https://sketch.com -->
    <title>solid/clipboard-list-solid</title>
    <desc>Created with Sketch.</desc>
    <g id="solid/clipboard-list" stroke="none" stroke-width="1" fill="none" fill-rule="evenodd">
        <path d="M83.68,17.47 L83.68,95.71 C83.68,98.0793016 81.7593016,100 79.39,100 L19.79,100 C17.4206984,100 15.5,98.0793016 15.5,95.71 L15.5,17.47 L83.68,17.47 Z M65.92,63.24 L33.26,63.24 C31.9455623,63.24 30.88,64.3055623 30.88,65.62 C30.88,66.9344377 31.9455623,68 33.26,68 L65.92,68 C67.2344377,68 68.3,66.9344377 68.3,65.62 C68.3,64.3055623 67.2344377,63.24 65.92,63.24 Z M65.92,51.24 L33.26,51.24 C31.9455623,51.24 30.88,52.3055623 30.88,53.62 C30.88,54.9344377 31.9455623,56 33.26,56 L65.92,56 C67.2344377,56 68.3,54.9344377 68.3,53.62 C68.3,52.3055623 67.2344377,51.24 65.92,51.24 Z M65.92,39.24 L33.26,39.24 C31.9455623,39.24 30.88,40.3055623 30.88,41.62 C30.88,42.9344377 31.9455623,44 33.26,44 L65.92,44 C67.2344377,44 68.3,42.9344377 68.3,41.62 C68.3,40.3055623 67.2344377,39.24 65.92,39.24 Z M53.17,-0.000207090863 C54.3138888,-0.00798389303 55.4138127,0.440150505 56.2264286,1.24525962 C57.0390446,2.05036874 57.4973676,3.14608629 57.5,4.28999995 L57.5,7.22999996 L79.39,7.22999996 C81.7570204,7.23549828 83.6745017,9.1529796 83.68,11.52 L83.68,12.71 L15.5,12.71 L15.5,11.52 C15.5054983,9.1529796 17.4229796,7.23549828 19.79,7.22999996 L41.72,7.22999996 L41.72,4.28999995 C41.72,1.92069838 43.6406984,-0.000207090863 46.01,-0.000207090863 L53.17,-0.000207090863 Z" id="Shape" fill="#000000"></path>
    </g>
</svg>