<?xml version="1.0" encoding="UTF-8"?>
<svg width="100px" height="100px" viewBox="0 0 100 100" version="1.1" xmlns="http://www.w3.org/2000/svg" xmlns:xlink="http://www.w3.org/1999/xlink">
    <!-- Generator: Sketch 57.1 (83088) - https://sketch.com -->
    <title>regular/clipboard-regular</title>
    <desc>Created with Sketch.</desc>
    <g id="regular/clipboard" stroke="none" stroke-width="1" fill="none" fill-rule="evenodd">
        <path d="M79.39,7.22999996 L57.5,7.22999996 L57.5,4.28999995 C57.4973676,3.14608629 57.0390446,2.05036874 56.2264286,1.24525962 C55.4138127,0.440150505 54.3138888,-0.00798389303 53.17,-0.000104927784 L46.01,-0.000104927784 C43.6406984,-0.000104927784 41.72,1.92069838 41.72,4.28999995 L41.72,7.22999996 L19.79,7.22999996 C17.4229796,7.23549828 15.5054983,9.1529796 15.5,11.52 L15.5,95.71 C15.5,98.0793016 17.4206984,100 19.79,100 L79.39,100 C81.7593016,100 83.68,98.0793016 83.68,95.71 L83.68,11.52 C83.6745017,9.1529796 81.7570204,7.23549828 79.39,7.22999996 Z M46.5,4.75999995 L52.71,4.75999995 L52.71,7.22999996 L46.5,7.22999996 L46.5,4.75999995 Z M78.92,95.24 L20.26,95.24 L20.26,17.47 L78.92,17.47 L78.92,95.24 Z M78.92,12.71 L20.26,12.71 L20.26,12 L78.92,12 L78.92,12.71 Z" id="clipboard" fill="#000000"></path>
    </g>
</svg>