<?xml version="1.0" encoding="UTF-8"?>
<svg width="100px" height="100px" viewBox="0 0 100 100" version="1.1" xmlns="http://www.w3.org/2000/svg" xmlns:xlink="http://www.w3.org/1999/xlink">
    <!-- Generator: Sketch 57.1 (83088) - https://sketch.com -->
    <title>regular/clipboard-check-regular</title>
    <desc>Created with Sketch.</desc>
    <g id="regular/clipboard-check" stroke="none" stroke-width="1" fill="none" fill-rule="evenodd">
        <path d="M53.17,-0.000207090863 C54.3138888,-0.00798389303 55.4138127,0.440150505 56.2264286,1.24525962 C57.0390446,2.05036874 57.4973676,3.14608629 57.5,4.28999995 L57.5,7.22999996 L79.39,7.22999996 C81.7570204,7.23549828 83.6745017,9.1529796 83.68,11.52 L83.68,95.71 C83.68,98.0793016 81.7593016,100 79.39,100 L19.79,100 C17.4206984,100 15.5,98.0793016 15.5,95.71 L15.5,11.52 C15.5054983,9.1529796 17.4229796,7.23549828 19.79,7.22999996 L41.72,7.22999996 L41.72,4.28999995 C41.72,1.92069838 43.6406984,-0.000207090863 46.01,-0.000207090863 L53.17,-0.000207090863 Z M78.92,17.47 L20.26,17.47 L20.26,95.24 L78.92,95.24 L78.92,17.47 Z M66.5,38.69 C67.4505552,37.8925097 68.8543016,37.9590916 69.7251067,38.8429719 C70.5959118,39.7268521 70.6415672,41.1314349 69.83,42.07 L43.83,68.07 C42.2722112,69.6076867 39.7677888,69.6076867 38.21,68.07 L29.34,59.2 C28.5029573,58.2581341 28.5450837,56.8270779 29.4360808,55.9360808 C30.3270779,55.0450837 31.7581341,55.0029573 32.7,55.84 L41.02,64.15 L66.5,38.69 Z M78.92,12 L20.26,12 L20.26,12.72 L78.92,12.72 L78.92,12 Z M52.71,4.75999995 L46.5,4.75999995 L46.5,7.22999996 L52.71,7.22999996 L52.71,4.75999995 Z" id="Shape" fill="#000000"></path>
    </g>
</svg>