<svg width="100" height="100" viewBox="0 0 100 100" fill="none" xmlns="http://www.w3.org/2000/svg">
<g clip-path="url(#clip0)">
<path d="M83.0167 12.4473V12.5532H15.1425V12.4473C15.1553 9.53262 17.4984 7.17667 20.3842 7.1767H40.7686V4.82376C40.7685 3.53628 41.2781 2.30221 42.1838 1.39626C43.0896 0.49031 44.3163 -0.0123309 45.591 0.000229878H52.5799C55.2058 0.00661221 57.3365 2.14814 57.3557 4.80023V7.15317H77.775C80.6699 7.15317 83.0167 9.52343 83.0167 12.4473Z" fill="black"/>
<path d="M15.1425 94.7056V18.4351H83.0167V94.7056C83.0103 97.6268 80.6673 99.9933 77.775 99.9998H20.3842C17.492 99.9933 15.1489 97.6268 15.1425 94.7056Z" fill="black"/>
</g>
<defs>
<clipPath id="clip0">
<rect width="100" height="100" fill="white"/>
</clipPath>
</defs>
</svg>
