<svg width="100" height="100" viewBox="0 0 100 100" fill="none" xmlns="http://www.w3.org/2000/svg">
<path d="M33.625 52.7498L50.7396 59.1769L71.875 47.1352C74.5514 45.7162 76.2468 42.9566 76.3032 39.9279C76.3596 36.8991 74.768 34.0784 72.1463 32.5607C69.5246 31.0431 66.2859 31.0676 63.6875 32.6248L49.2917 40.8019L39.4792 37.1248C35.1645 35.5082 30.3562 37.6955 28.7396 42.0102C27.123 46.3249 29.3103 51.1332 33.625 52.7498Z" fill="black"/>
<path fill-rule="evenodd" clip-rule="evenodd" d="M0 50C0 77.6142 22.3858 100 50 100C77.6023 99.9713 99.9713 77.6023 100 50C100 22.3858 77.6142 0 50 0C22.3858 0 0 22.3858 0 50ZM16.6667 50C16.6667 31.5905 31.5905 16.6667 50 16.6667C58.8405 16.6667 67.319 20.1786 73.5702 26.4298C79.8214 32.681 83.3333 41.1595 83.3333 50C83.3333 68.4095 68.4095 83.3333 50 83.3333C31.5905 83.3333 16.6667 68.4095 16.6667 50Z" fill="black"/>
</svg>
