<?xml version="1.0" encoding="UTF-8"?>
<svg width="100px" height="100px" viewBox="0 0 100 100" version="1.1" xmlns="http://www.w3.org/2000/svg" xmlns:xlink="http://www.w3.org/1999/xlink">
    <!-- Generator: Sketch 57.1 (83088) - https://sketch.com -->
    <title>solid/clock-solid</title>
    <desc>Created with Sketch.</desc>
    <g id="solid/clock" stroke="none" stroke-width="1" fill="none" fill-rule="evenodd">
        <path d="M50,-5.00000041e-08 C77.6142375,-5.00000041e-08 100,22.3857625 100,49.9999999 C99.9669389,77.6005315 77.6005315,99.9669389 50,99.9999999 C22.3857625,99.9999999 -4.99996062e-08,77.6142375 -4.99996062e-08,49.9999999 C-4.99996062e-08,22.3857625 22.3857625,-5.00000041e-08 50,-5.00000041e-08 Z M50,16.67 C31.5923493,16.67 16.67,31.5923493 16.67,50 C16.67,68.4076507 31.5923493,83.33 50,83.33 C68.4076507,83.33 83.33,68.4076507 83.33,50 C83.3079593,31.6014866 68.3985134,16.6920407 50,16.67 Z M78.365,32.875 C80.6404132,36.876303 79.241303,41.9645868 75.24,44.24 L51.07,58 L31.7,50.7 C27.392179,49.0818056 25.2118058,44.277821 26.8300001,39.97 C28.4481944,35.662179 33.252179,33.4818057 37.56,35.1 L49.62,39.62 L67,29.75 C71.001303,27.4745868 76.0895869,28.873697 78.365,32.875 Z" id="Shape" fill="#000000"></path>
    </g>
</svg>