<svg width="100" height="100" viewBox="0 0 100 100" fill="none" xmlns="http://www.w3.org/2000/svg">
<path d="M50 0C22.3858 0 0 22.3858 0 50C0 77.6142 22.3858 100 50 100C77.6142 100 100 77.6142 100 50C99.9676 22.3992 77.6008 0.0324144 50 0ZM73.6 44.7059L50.5882 57.7647L32.3294 50.9059C29.9609 50.019 28.2455 47.936 27.8293 45.4414C27.4132 42.9468 28.3594 40.4197 30.3117 38.812C32.264 37.2043 34.9257 36.7602 37.2941 37.6471L49.4118 42.2353L66.6353 32.4471C69.9936 30.7603 74.0846 32.0005 75.941 35.268C77.7974 38.5355 76.7682 42.6847 73.6 44.7059Z" fill="black"/>
</svg>
