<?xml version="1.0" encoding="UTF-8"?>
<svg width="100px" height="100px" viewBox="0 0 100 100" version="1.1" xmlns="http://www.w3.org/2000/svg" xmlns:xlink="http://www.w3.org/1999/xlink">
    <!-- Generator: Sketch 57.1 (83088) - https://sketch.com -->
    <title>regular/clock-regular</title>
    <desc>Created with Sketch.</desc>
    <g id="regular/clock" stroke="none" stroke-width="1" fill="none" fill-rule="evenodd">
        <path d="M50,-4.9999997e-08 C77.6142375,-4.9999997e-08 100,22.3857625 100,50 C99.9669389,77.6005315 77.6005315,99.9669389 50,100 C22.3857625,100 -4.99996062e-08,77.6142375 -4.99996062e-08,50 C-4.99996062e-08,22.3857625 22.3857625,-4.9999997e-08 50,-4.9999997e-08 Z M50,4.75999995 C25.0146379,4.75999995 4.75999995,25.0146379 4.75999995,50 C4.75999995,74.9853621 25.0146379,95.24 50,95.24 C74.9853621,95.24 95.24,74.9853621 95.24,50 C95.2069468,25.0283418 74.9716582,4.79305315 50,4.75999995 Z M76.245,33.965 C76.8939346,35.1082294 76.4932295,36.5610654 75.35,37.21 L50.6,51.25 L31.6,44.11 C30.368405,43.6488422 29.7438422,42.276595 30.205,41.045 C30.6661577,39.813405 32.038405,39.1888422 33.27,39.65 L50.19,46 L73,33.07 C74.1432295,32.4210654 75.5960654,32.8217706 76.245,33.965 Z" id="Shape" fill="#000000"></path>
    </g>
</svg>