<?xml version="1.0" encoding="UTF-8"?>
<svg width="100px" height="100px" viewBox="0 0 100 100" version="1.1" xmlns="http://www.w3.org/2000/svg" xmlns:xlink="http://www.w3.org/1999/xlink">
    <!-- Generator: Sketch 57.1 (83088) - https://sketch.com -->
    <title>bold/clock-bold</title>
    <desc>Created with Sketch.</desc>
    <g id="bold/clock" stroke="none" stroke-width="1" fill="none" fill-rule="evenodd">
        <path d="M50,-5.00000041e-08 C77.6142375,-5.00000041e-08 100,22.3857625 100,49.9999999 C99.9669389,77.6005315 77.6005315,99.9669389 50,99.9999999 C22.3857625,99.9999999 -4.99996062e-08,77.6142375 -4.99996062e-08,49.9999999 C-4.99996062e-08,22.3857625 22.3857625,-5.00000041e-08 50,-5.00000041e-08 Z M50,9.08999996 C27.4060309,9.08999996 9.08999996,27.4060309 9.08999996,50 C9.08999996,72.5939691 27.4060309,90.91 50,90.91 C72.5939691,90.91 90.91,72.5939691 90.91,50 C90.8605027,27.4265651 72.5734349,9.13949725 50,9.08999996 Z M76.8675904,33.6394841 C78.0805983,35.7764312 77.3777674,38.4904285 75.28,39.77 L50.77,53.69 L31.63,46.51 C29.3869427,45.555747 28.2943855,43.0033112 29.1523412,40.7216853 C30.0102969,38.4400594 32.5139374,37.2398954 34.83,38 L50,43.68 L70.79,31.86 C72.9640154,30.7147542 75.6545825,31.502537 76.8675904,33.6394841 Z" id="Shape" fill="#000000"></path>
    </g>
</svg>