<svg width="100" height="100" viewBox="0 0 100 100" fill="none" xmlns="http://www.w3.org/2000/svg">
<path d="M33.7768 47.0586L50.2709 53.2351L71.565 41.1762C72.9847 40.3738 73.4851 38.5724 72.6827 37.1527C71.8802 35.733 70.0788 35.2326 68.6591 36.0351L49.765 46.7645L35.8474 41.5527C34.327 40.9809 32.6309 41.75 32.0592 43.2704C31.4874 44.7908 32.2564 46.4868 33.7768 47.0586Z" fill="black"/>
<path fill-rule="evenodd" clip-rule="evenodd" d="M0 50C0 77.6142 22.3858 100 50 100C77.6008 99.9676 99.9676 77.6008 100 50C100 22.3858 77.6142 0 50 0C22.3858 0 0 22.3858 0 50ZM5.88235 50C5.88235 25.6345 25.6345 5.88235 50 5.88235C74.3548 5.90829 94.0917 25.6452 94.1176 50C94.1176 74.3655 74.3655 94.1176 50 94.1176C25.6345 94.1176 5.88235 74.3655 5.88235 50Z" fill="black"/>
</svg>
