<svg width="100" height="100" viewBox="0 0 100 100" fill="none" xmlns="http://www.w3.org/2000/svg">
<g clip-path="url(#clip0)">
<path d="M61.78 50.0001L97.5579 14.2326C99.6641 12.1265 100.487 9.05664 99.7157 6.17955C98.9448 3.30245 96.6975 1.05519 93.8204 0.284272C90.9434 -0.486643 87.8735 0.335914 85.7673 2.44209L49.9999 38.22L14.2325 2.44209C10.9766 -0.813778 5.69777 -0.813778 2.4419 2.44209C-0.813968 5.69796 -0.813968 10.9768 2.4419 14.2326L38.2198 50.0001L2.4419 85.7675C-0.813968 89.0234 -0.813968 94.3022 2.4419 97.5581C5.69777 100.814 10.9766 100.814 14.2325 97.5581L49.9999 61.7802L85.7673 97.5581C89.0232 100.814 94.302 100.814 97.5579 97.5581C100.814 94.3022 100.814 89.0234 97.5579 85.7675L61.78 50.0001Z" fill="black"/>
</g>
<defs>
<clipPath id="clip0">
<rect width="100" height="100" fill="white"/>
</clipPath>
</defs>
</svg>
