<svg width="100" height="100" viewBox="0 0 100 100" fill="none" xmlns="http://www.w3.org/2000/svg">
<g clip-path="url(#clip0)">
<path d="M54.1137 50.0017L99.1339 5.02704C100.284 3.87703 100.284 2.01251 99.1339 0.862503C97.9839 -0.287501 96.1194 -0.287501 94.9695 0.862503L49.9963 45.8842L5.02321 0.862503C3.87324 -0.287501 2.00878 -0.287501 0.858813 0.862503C-0.291154 2.01251 -0.291154 3.87703 0.858813 5.02704L45.879 50.0017L0.858813 94.9763C-0.280336 96.1307 -0.280336 97.9864 0.858813 99.1408C2.01061 100.286 3.87141 100.286 5.02321 99.1408L49.9963 54.1191L94.9695 99.1408C96.1213 100.286 97.9821 100.286 99.1339 99.1408C100.273 97.9864 100.273 96.1307 99.1339 94.9763L54.1137 50.0017Z" fill="black"/>
</g>
<defs>
<clipPath id="clip0">
<rect width="100" height="100" fill="white"/>
</clipPath>
</defs>
</svg>
