<svg width="100" height="100" viewBox="0 0 100 100" fill="none" xmlns="http://www.w3.org/2000/svg">
<path d="M69.7296 34.4354L54.1178 50.0002L69.7296 65.5649C70.8688 66.7194 70.8688 68.5751 69.7296 69.7296C68.5777 70.8752 66.7167 70.8752 65.5649 69.7296L50.0002 54.1178L34.4354 69.7296C33.2836 70.8752 31.4226 70.8752 30.2707 69.7296C29.1315 68.5751 29.1315 66.7194 30.2707 65.5649L45.8825 50.0002L30.2707 34.4354C29.1207 33.2854 29.1207 31.4208 30.2707 30.2707C31.4208 29.1207 33.2854 29.1207 34.4354 30.2707L50.0002 45.8825L65.5649 30.2707C66.7149 29.1207 68.5795 29.1207 69.7296 30.2707C70.8796 31.4208 70.8796 33.2854 69.7296 34.4354Z" fill="black"/>
<path fill-rule="evenodd" clip-rule="evenodd" d="M0 50C0 77.6142 22.3858 100 50 100C77.6008 99.9676 99.9676 77.6008 100 50C100 22.3858 77.6142 0 50 0C22.3858 0 0 22.3858 0 50ZM5.88235 50C5.88235 25.6345 25.6345 5.88235 50 5.88235C74.3548 5.90829 94.0917 25.6452 94.1176 50C94.1176 74.3655 74.3655 94.1176 50 94.1176C25.6345 94.1176 5.88235 74.3655 5.88235 50Z" fill="black"/>
</svg>
