<svg width="100" height="100" viewBox="0 0 100 100" fill="none" xmlns="http://www.w3.org/2000/svg">
<path d="M71.5209 40.2709L61.7813 50.0001L71.5209 59.7292C74.7771 62.9854 74.7771 68.2647 71.5209 71.5209C68.2647 74.7771 62.9854 74.7771 59.7292 71.5209L50.0001 61.7813L40.2709 71.5209C37.0147 74.7771 31.7354 74.7771 28.4792 71.5209C25.2231 68.2647 25.2231 62.9854 28.4792 59.7292L38.2188 50.0001L28.4792 40.2709C25.2231 37.0147 25.2231 31.7354 28.4792 28.4792C31.7354 25.2231 37.0147 25.2231 40.2709 28.4792L50.0001 38.2188L59.7292 28.4792C62.9854 25.2231 68.2647 25.2231 71.5209 28.4792C74.7771 31.7354 74.7771 37.0147 71.5209 40.2709Z" fill="black"/>
<path fill-rule="evenodd" clip-rule="evenodd" d="M0 50C0 77.6142 22.3858 100 50 100C77.6023 99.9713 99.9713 77.6023 100 50C100 22.3858 77.6142 0 50 0C22.3858 0 0 22.3858 0 50ZM16.6667 50C16.6667 31.5905 31.5905 16.6667 50 16.6667C58.8405 16.6667 67.319 20.1786 73.5702 26.4298C79.8214 32.681 83.3333 41.1595 83.3333 50C83.3333 68.4095 68.4095 83.3333 50 83.3333C31.5905 83.3333 16.6667 68.4095 16.6667 50Z" fill="black"/>
</svg>
