<svg width="100" height="100" viewBox="0 0 100 100" fill="none" xmlns="http://www.w3.org/2000/svg">
<path d="M50 0C22.3858 0 0 22.3858 0 50C0 77.6142 22.3858 100 50 100C77.6142 100 100 77.6142 100 50C99.9676 22.3992 77.6008 0.0324144 50 0ZM72.6353 62.6588C74.5238 64.4185 75.3012 67.0688 74.6625 69.5698C74.0237 72.0708 72.0708 74.0237 69.5698 74.6625C67.0688 75.3012 64.4185 74.5238 62.6588 72.6353L50 60L37.3412 72.6353C34.5599 75.2269 30.2258 75.1504 27.5377 72.4623C24.8496 69.7742 24.7731 65.4401 27.3647 62.6588L40 50L27.3647 37.3412C24.7731 34.5599 24.8496 30.2258 27.5377 27.5377C30.2258 24.8496 34.5599 24.7731 37.3412 27.3647L50 40L62.6588 27.3647C65.4401 24.7731 69.7742 24.8496 72.4623 27.5377C75.1504 30.2258 75.2269 34.5599 72.6353 37.3412L60 50L72.6353 62.6588Z" fill="black"/>
</svg>
