<?xml version="1.0" encoding="UTF-8"?>
<svg width="100px" height="100px" viewBox="0 0 100 100" version="1.1" xmlns="http://www.w3.org/2000/svg" xmlns:xlink="http://www.w3.org/1999/xlink">
    <!-- Generator: Sketch 57.1 (83088) - https://sketch.com -->
    <title>bold/cloud-bold</title>
    <desc>Created with Sketch.</desc>
    <g id="bold/cloud" stroke="none" stroke-width="1" fill="none" fill-rule="evenodd">
        <path d="M87.54,81.7600522 L87.54,81.7600522 L14.44,81.5 C10.9210072,81.4811399 7.61626681,79.8065405 5.51999996,76.98 C-0.757108501,68.4855398 -1.75915324,57.194825 2.92387077,47.7276591 C7.60689478,38.2604931 17.1891961,32.2054261 27.75,32.04 C33.3144234,22.8899517 43.5829643,17.683038 54.2526992,18.6011611 C64.9224341,19.5192841 74.1505102,26.4038677 78.07,36.37 C78.1166504,36.4768299 78.2147783,36.5523129 78.33,36.57 L78.33,36.57 C86.4076654,38.4972483 93.2264124,43.8845337 96.9702788,51.2971194 C100.714145,58.7097052 101.003031,67.3950203 97.76,75.04 C96.0103268,79.127755 91.9864495,81.7735921 87.54,81.7600522 L87.54,81.7600522 Z M28.21,41.13 C17.6581211,41.1299942 9.10103749,49.6781269 9.08990446,60.23 C9.07701087,64.3150707 10.3893378,68.2941582 12.83,71.57 C13.2074444,72.1001448 13.8192269,72.4134968 14.47,72.41 L87.53,72.66 L87.53,72.66 C88.3255602,72.6777934 89.0559802,72.2222627 89.39,71.5 C91.5965409,66.3194941 91.4060451,60.4295354 88.8693651,55.402437 C86.3326851,50.3753386 81.708051,46.7228514 76.23,45.42 C73.2220566,44.7080012 70.7509027,42.5728047 69.61,39.7 C66.9298339,32.8908441 60.5949088,28.2115158 53.2987202,27.6515807 C46.0025317,27.0916456 39.0277787,30.7495425 35.34,37.07 C33.8484552,39.5839804 31.1431476,41.1266137 28.22,41.13 L28.21,41.13 Z" id="cloud" fill="#000000"></path>
    </g>
</svg>