<svg width="100" height="100" viewBox="0 0 100 100" fill="none" xmlns="http://www.w3.org/2000/svg">
<g clip-path="url(#clip0)">
<path d="M78.9441 37.6652C78.2624 37.5151 77.7013 37.0335 77.4495 36.3825C73.3552 25.8664 63.2085 18.9569 51.9236 19.0002C42.1812 19.0316 33.179 24.2038 28.2454 32.6048C28.0761 32.8742 27.7748 33.0315 27.4569 33.0167C17.0979 33.0074 7.61704 38.8344 2.94653 48.0808C-1.72397 57.3273 -0.787531 68.4161 5.36748 76.7484C7.20845 79.2262 10.1067 80.6949 13.1935 80.7144L88.8531 80.9851C92.7495 81.001 96.2769 78.6833 97.809 75.1008C100.972 67.6678 100.699 59.2189 97.064 52.0051C93.4288 44.7914 86.8001 39.5455 78.9441 37.6652ZM41.5674 46.8211C42.7222 45.6815 44.5785 45.6815 45.7334 46.8211L47.075 48.1745V38.2183C47.075 36.5935 48.3922 35.2762 50.0171 35.2762C51.642 35.2762 52.9593 36.5935 52.9593 38.2183V48.1745L54.3009 46.8211C55.4513 45.6707 57.3165 45.6707 58.4669 46.8211C59.6173 47.9715 59.6173 49.8367 58.4669 50.9872L52.5827 56.8714C51.9751 57.4774 51.1677 57.8413 50.3113 57.8953H50.076H49.8406C48.9801 57.8441 48.168 57.48 47.5575 56.8714L41.6733 50.9872C40.5038 49.8615 40.4566 48.0048 41.5674 46.8211ZM60.3028 64.6974H39.7315C38.1066 64.6974 36.7893 63.3802 36.7893 61.7553C36.7893 60.1304 38.1066 58.8132 39.7315 58.8132H60.3028C61.9277 58.8132 63.2449 60.1304 63.2449 61.7553C63.2449 63.3802 61.9277 64.6974 60.3028 64.6974Z" fill="black"/>
</g>
<defs>
<clipPath id="clip0">
<rect width="100" height="100" fill="white"/>
</clipPath>
</defs>
</svg>
