<svg width="100" height="100" viewBox="0 0 100 100" fill="none" xmlns="http://www.w3.org/2000/svg">
<g clip-path="url(#clip0)">
<path d="M88.8545 80.9861L13.1937 80.7153C10.1073 80.6941 7.20979 79.2257 5.36758 76.7493C-0.781247 68.4254 -1.72257 57.3497 2.93333 48.1075C7.58922 38.8654 17.0499 33.0299 27.3985 33.0169C27.7164 33.0318 28.0177 32.8744 28.187 32.605C33.125 24.1967 42.1381 19.0233 51.8891 19.0002C63.1742 18.9569 73.3211 25.8665 77.4154 36.3827C77.6672 37.0337 78.2283 37.5153 78.91 37.6655C86.7701 39.5419 93.4052 44.7843 97.049 51.9971C100.693 59.2099 100.976 67.6614 97.8223 75.1017C96.2835 78.684 92.7533 81.0004 88.8545 80.9861ZM51.8891 24.8846C44.23 24.9035 37.1506 28.9668 33.2711 35.5707C32.0428 37.6497 29.8014 38.9183 27.3868 38.9012C19.2543 38.9043 11.8163 43.4856 8.15445 50.7471C4.49264 58.0085 5.23087 66.713 10.0633 73.254C10.7955 74.2426 11.9517 74.8273 13.182 74.831L88.8428 75.1017C90.3878 75.1048 91.7821 74.1753 92.3734 72.7479C94.8665 66.9047 94.6542 60.2592 91.7931 54.587C88.9321 48.9149 83.714 44.7943 77.5331 43.3263C74.978 42.7248 72.8803 40.9086 71.9194 38.4658C68.6767 30.2457 60.7256 24.8548 51.8891 24.8846Z" fill="black"/>
</g>
<defs>
<clipPath id="clip0">
<rect width="100" height="100" fill="white"/>
</clipPath>
</defs>
</svg>
