<?xml version="1.0" encoding="UTF-8"?>
<svg width="100px" height="100px" viewBox="0 0 100 100" version="1.1" xmlns="http://www.w3.org/2000/svg" xmlns:xlink="http://www.w3.org/1999/xlink">
    <!-- Generator: Sketch 57.1 (83088) - https://sketch.com -->
    <title>regular/cloud-download-regular</title>
    <desc>Created with Sketch.</desc>
    <g id="regular/cloud-download" stroke="none" stroke-width="1" fill="none" fill-rule="evenodd">
        <path d="M51.92,18.9995721 C63.0928256,18.9555865 73.1388725,25.7973937 77.19,36.21 C77.502432,36.9873694 78.1493684,37.5773644 78.9440694,37.820197 L79.13,37.87 L79.09,37.92 C86.8575384,39.7770379 93.4146503,44.9574928 97.0186193,52.0845293 C100.622588,59.2115658 100.908366,67.5632818 97.8,74.92 C96.3810091,78.2331392 93.1666684,80.4072158 89.5814759,80.5065744 L89.29,80.5100655 L12.75,80.24 C9.81545232,80.2219302 7.06002358,78.8256982 5.30999996,76.47 C-0.776236623,68.2249004 -1.70332109,57.256023 2.91271915,48.1063718 C7.46186025,39.0893243 16.6311963,33.3523687 26.7049928,33.1838161 L27.15,33.18 L27.2956805,33.1771941 C27.7775698,33.144314 28.2174864,32.8788074 28.47,32.46 C33.3569912,24.1427301 42.2732885,19.0248895 51.92,18.9995721 Z M51.92,23.759747 C43.9515347,23.7720711 36.5838097,27.9979578 32.55,34.87 C31.461103,36.7009822 29.5220036,37.8500086 27.4048678,37.9349403 L27.15,37.94 L26.7350866,37.9442711 C18.4490538,38.1059864 10.9140686,42.8348469 7.17270042,50.2552271 C3.36897609,57.7992804 4.13356093,66.8417357 9.14999996,73.64 C9.95476104,74.7204582 11.1922351,75.3872786 12.528395,75.4711474 L12.78,75.48 L89.32,75.7402176 L89.5431656,75.7368437 C91.2467682,75.6686939 92.7721394,74.6342166 93.46,73.06 C96.034916,66.9833778 95.8017163,60.0809306 92.8225415,54.1919538 C89.9081314,48.4309983 84.6554815,44.2124691 78.4173225,42.6033941 L78,42.5 L77.7282722,42.429934 C75.4799659,41.8054411 73.6412798,40.1719875 72.76,38 C69.4358319,29.393048 61.1465244,23.728953 51.92,23.759747 Z M37.42,62.76 L62.58,62.76 C63.8944377,62.76 64.96,63.8255623 64.96,65.14 C64.96,66.3996695 63.9813846,67.4307711 62.7429494,67.5145093 L62.58,67.52 L37.42,67.52 C36.1055623,67.52 35.04,66.4544377 35.04,65.14 C35.04,63.8803305 36.0186154,62.8492289 37.2570506,62.7654907 L37.42,62.76 L62.58,62.76 L37.42,62.76 Z M48.85,34.2988594 C49.5863745,33.8737133 50.4936255,33.8737133 51.23,34.2988594 C51.9663746,34.7240055 52.4200001,35.5097078 52.42,36.36 L52.42,51.46 L56.14,47.74 C56.7419925,47.1380075 57.6194157,46.9029026 58.4417528,47.1232472 C59.2640899,47.3435917 59.9064083,47.9859101 60.1267528,48.8082472 C60.3470974,49.6305843 60.1119925,50.5080075 59.51,51.11 L52.25,58.36 C51.781865,58.8284518 51.1752039,59.1335358 50.52,59.23 C50.1905951,59.3023738 49.8494049,59.3023738 49.52,59.23 C48.8647961,59.1335358 48.258135,58.8284518 47.79,58.36 L40.53,51.11 C39.5994002,50.1794002 39.5994003,48.6705998 40.5300001,47.7400001 C41.4605998,46.8094003 42.9694002,46.8094003 43.9,47.74 L47.66,51.46 L47.66,36.36 C47.6599999,35.5097078 48.1136254,34.7240055 48.85,34.2988594 Z" id="Shape" fill="#000000"></path>
    </g>
</svg>