<svg width="100" height="100" viewBox="0 0 100 100" fill="none" xmlns="http://www.w3.org/2000/svg">
<g clip-path="url(#clip0)">
<path d="M60.2694 58.8144H39.6974C38.0725 58.8144 36.7552 60.1317 36.7552 61.7566C36.7552 63.3815 38.0725 64.6988 39.6974 64.6988H60.2694C61.8943 64.6988 63.2116 63.3815 63.2116 61.7566C63.2116 60.1317 61.8943 58.8144 60.2694 58.8144Z" fill="black"/>
<path d="M49.9835 57.9672C49.0376 57.9695 48.1303 57.5921 47.465 56.9197L41.5335 50.9882C40.383 49.8377 40.383 47.9725 41.5335 46.822C42.6839 45.6716 44.5492 45.6716 45.6997 46.822L47.0413 48.1754V38.219C47.0413 36.594 48.3586 35.2768 49.9835 35.2768C51.6085 35.2768 52.9258 36.594 52.9258 38.219V48.1637L54.1732 46.8809C55.3237 45.7304 57.189 45.7304 58.3394 46.8809C59.4899 48.0313 59.4899 49.8966 58.3394 51.047L52.455 56.9315C51.7993 57.5881 50.9114 57.9601 49.9835 57.9672Z" fill="black"/>
<path fill-rule="evenodd" clip-rule="evenodd" d="M88.856 80.9871L13.194 80.7164C10.1075 80.6951 7.20991 79.2267 5.36767 76.7503C-0.78126 68.4263 -1.7226 57.3503 2.93338 48.108C7.58935 38.8657 17.0502 33.0301 27.399 33.0171C27.7169 33.032 28.0181 32.8746 28.1875 32.6052C33.1255 24.1968 42.1389 19.0233 51.89 19.0002C63.1753 18.9569 73.3223 25.8666 77.4167 36.383C77.6685 37.034 78.2297 37.5157 78.9113 37.6658C86.7741 39.5378 93.4119 44.7803 97.0546 51.9954C100.697 59.2105 100.974 67.6644 97.8121 75.1026C96.2801 78.6853 92.7525 81.003 88.856 80.9871ZM51.89 24.8847C44.2308 24.9036 37.1512 28.967 33.2717 35.571C32.0434 37.65 29.8019 38.9187 27.3872 38.9016C19.2546 38.9046 11.8165 43.486 8.15458 50.7476C4.49271 58.0091 5.23096 66.7138 10.0634 73.2549C10.7957 74.2436 11.9519 74.8282 13.1822 74.8319L88.8443 75.1026C90.3893 75.1058 91.7836 74.1763 92.3749 72.7488C94.8681 66.9056 94.6557 60.2599 91.7947 54.5876C88.9336 48.9154 83.7154 44.7947 77.5344 43.3267C74.9792 42.7252 72.8815 40.9089 71.9206 38.4661C68.6778 30.2459 60.7267 24.8549 51.89 24.8847Z" fill="black"/>
</g>
<defs>
<clipPath id="clip0">
<rect width="100" height="100" fill="white"/>
</clipPath>
</defs>
</svg>
