<svg width="100" height="100" viewBox="0 0 100 100" fill="none" xmlns="http://www.w3.org/2000/svg">
<g clip-path="url(#clip0)">
<path d="M78.9441 37.6652C78.2624 37.5151 77.7013 37.0335 77.4495 36.3825C73.3552 25.8664 63.2085 18.9569 51.9236 19.0002C42.1812 19.0316 33.179 24.2038 28.2454 32.6048C28.0761 32.8742 27.7748 33.0315 27.4569 33.0167C17.0979 33.0074 7.61704 38.8344 2.94653 48.0808C-1.72397 57.3273 -0.787531 68.4161 5.36748 76.7484C7.20845 79.2262 10.1067 80.6949 13.1935 80.7144L88.8531 80.9851C92.7495 81.001 96.2769 78.6833 97.809 75.1008C100.972 67.6678 100.699 59.2189 97.064 52.0051C93.4288 44.7914 86.8001 39.5455 78.9441 37.6652Z" fill="black"/>
</g>
<defs>
<clipPath id="clip0">
<rect width="100" height="100" fill="white"/>
</clipPath>
</defs>
</svg>
