<?xml version="1.0" encoding="UTF-8"?>
<svg width="100px" height="100px" viewBox="0 0 100 100" version="1.1" xmlns="http://www.w3.org/2000/svg" xmlns:xlink="http://www.w3.org/1999/xlink">
    <!-- Generator: Sketch 57.1 (83088) - https://sketch.com -->
    <title>solid/cloud-download-solid</title>
    <desc>Created with Sketch.</desc>
    <g id="solid/cloud-download" stroke="none" stroke-width="1" fill="none" fill-rule="evenodd">
        <path d="M79.13,37.87 L79.13,37.87 C78.2508764,37.6670241 77.5264652,37.0471671 77.19,36.21 C73.1388725,25.7973937 63.0928256,18.9555865 51.92,18.999785 C42.2732885,19.0248895 33.3569912,24.1427301 28.47,32.46 C28.192235,32.9206882 27.6877125,33.1958823 27.15,33.18 L27.15,33.18 C16.9018818,33.1843441 7.52875939,38.9567207 2.91271915,48.1063718 C-1.70332109,57.256023 -0.776236623,68.2249004 5.30999996,76.47 C7.06002358,78.8256982 9.81545232,80.2219302 12.75,80.24 L89.29,80.5101087 L89.29,80.5101087 C92.9952377,80.5279265 96.3512397,78.3260426 97.81,74.92 C100.918366,67.5632818 100.632588,59.2115658 97.0286193,52.0845293 C93.4246503,44.9574928 86.8675384,39.7770379 79.1,37.92 L79.13,37.87 Z M40.53,47.74 C40.9765051,47.292386 41.5827619,47.0408257 42.215,47.0408257 C42.8472381,47.0408257 43.4534949,47.292386 43.9,47.74 L47.62,51.46 L47.62,36.36 C47.62,35.0455623 48.6855623,33.98 50,33.98 C51.3144377,33.98 52.38,35.0455623 52.38,36.36 L52.38,51.46 L56.1,47.74 C57.0305998,46.8094003 58.5394002,46.8094003 59.4699999,47.7400001 C60.4005997,48.6705998 60.4005998,50.1794002 59.47,51.11 L52.21,58.36 C51.7406123,58.8267157 51.1345572,59.1314949 50.48,59.23 C50.1505951,59.3023738 49.8094049,59.3023738 49.48,59.23 C48.8254428,59.1314949 48.2193877,58.8267157 47.75,58.36 L40.49,51.11 C40.0476443,50.6582034 39.8032515,50.0489522 39.8105881,49.4167004 C39.8182604,48.7844485 40.0770453,48.1811697 40.53,47.74 L40.53,47.74 Z M62.53,67.52 L37.42,67.52 C36.1055623,67.52 35.04,66.4544377 35.04,65.14 C35.04,63.8255623 36.1055623,62.76 37.42,62.76 L62.58,62.76 C63.8944377,62.76 64.96,63.8255623 64.96,65.14 C64.96,66.4544377 63.8944377,67.52 62.58,67.52 L62.53,67.52 Z" id="cloud-download" fill="#000000"></path>
    </g>
</svg>