<svg width="100" height="100" viewBox="0 0 100 100" fill="none" xmlns="http://www.w3.org/2000/svg">
<path d="M34.0283 79.9046C35.5861 82.1325 38.1328 83.4605 40.8513 83.4626C44.3599 83.4611 47.4918 81.2621 48.6847 77.9625L66.9558 27.691C68.2074 24.8477 67.7734 21.5442 65.8301 19.1205C63.8867 16.6969 60.7565 15.5554 57.7091 16.1591C54.6618 16.7628 52.2032 19.0115 51.3306 21.993L33.0283 72.2749C32.0972 74.829 32.4704 77.6767 34.0283 79.9046Z" fill="black"/>
<path d="M25.3505 76.0248C23.1396 76.0265 21.0187 75.1497 19.4546 73.5873L2.94392 57.1287C1.05913 55.247 0 52.693 0 50.0297C0 47.3663 1.05913 44.8123 2.94392 42.9306L19.4546 26.3783C22.7108 23.1192 27.9925 23.1169 31.2516 26.3731C34.5107 29.6293 34.513 34.911 31.2568 38.1701L19.4233 49.9828L31.2568 61.8059C33.6341 64.189 34.3443 67.7683 33.0569 70.8785C31.7696 73.9887 28.7374 76.0191 25.3713 76.0248H25.3505Z" fill="black"/>
<path d="M74.6738 76.0248C71.3019 76.0317 68.2583 74.006 66.9629 70.8929C65.6675 67.7799 66.3757 64.193 68.757 61.8059L80.5905 49.9828L68.757 38.1701C65.5008 34.911 65.5031 29.6293 68.7622 26.3731C72.0213 23.1169 77.303 23.1192 80.5593 26.3783L97.0699 42.889C100.977 46.8113 100.977 53.1543 97.0699 57.0766L80.5593 73.5873C78.9976 75.1471 76.881 76.0238 74.6738 76.0248Z" fill="black"/>
</svg>
