<?xml version="1.0" encoding="UTF-8"?>
<svg width="100px" height="100px" viewBox="0 0 100 100" version="1.1" xmlns="http://www.w3.org/2000/svg" xmlns:xlink="http://www.w3.org/1999/xlink">
    <!-- Generator: Sketch 57.1 (83088) - https://sketch.com -->
    <title>brand/codepen-alt-brand</title>
    <desc>Created with Sketch.</desc>
    <g id="brand/codepen-alt" stroke="none" stroke-width="1" fill="none" fill-rule="evenodd">
        <path d="M72.927,44.83025 L54.297,32.37025 L54.297,12.32625 L87.967,34.77125 L72.927,44.83025 Z M80.656,50.00025 L91.407,42.80925 L91.407,57.19025 L80.656,50.00025 Z M54.297,67.63025 L72.927,55.17125 L87.967,65.22825 L54.297,87.67425 L54.297,67.63025 Z M27.073,55.17125 L45.704,67.63025 L45.704,87.67425 L12.035,65.22825 L27.073,55.17125 Z M19.344,50.00025 L8.594,57.19025 L8.594,42.80925 L19.344,50.00025 Z M45.704,32.37025 L27.073,44.83025 L12.035,34.77125 L45.704,12.32625 L45.704,32.37025 Z M50,60.16525 L34.802,50.00025 L50,39.83425 L65.199,50.00025 L50,60.16525 Z M99.928,34.01825 C99.906,33.89725 99.885,33.77625 99.853,33.65825 C99.833,33.58725 99.808,33.51925 99.785,33.44925 C99.751,33.34425 99.717,33.23925 99.675,33.13625 C99.645,33.06525 99.613,32.99625 99.579,32.92725 C99.533,32.83025 99.486,32.73425 99.432,32.64225 C99.394,32.57325 99.352,32.50825 99.31,32.44225 C99.252,32.35325 99.193,32.26725 99.128,32.18225 C99.081,32.11825 99.032,32.05825 98.981,31.99725 C98.914,31.91625 98.842,31.83925 98.768,31.76425 C98.711,31.70625 98.655,31.64925 98.596,31.59625 C98.518,31.52425 98.437,31.45825 98.353,31.39225 C98.288,31.34225 98.225,31.29125 98.157,31.24425 C98.134,31.22725 98.112,31.20725 98.087,31.19025 L52.383,0.72225 C50.941,-0.24075 49.06,-0.24075 47.617,0.72225 L1.914,31.19025 C1.889,31.20725 1.868,31.22725 1.843,31.24425 C1.776,31.29125 1.713,31.34225 1.648,31.39225 C1.565,31.45825 1.482,31.52425 1.405,31.59625 C1.346,31.64925 1.289,31.70625 1.234,31.76425 C1.159,31.83925 1.088,31.91625 1.02,31.99725 C0.968,32.05825 0.92,32.11825 0.872,32.18225 C0.808,32.26725 0.749,32.35325 0.691,32.44225 C0.649,32.50825 0.607,32.57325 0.569,32.64225 C0.514,32.73425 0.467,32.83025 0.423,32.92725 C0.389,32.99625 0.355,33.06525 0.326,33.13625 C0.284,33.23925 0.249,33.34425 0.215,33.44925 C0.192,33.51925 0.167,33.58725 0.149,33.65825 C0.117,33.77625 0.095,33.89725 0.074,34.01825 C0.062,34.08025 0.048,34.14225 0.038,34.20425 C0.015,34.39025 0,34.57625 0,34.76625 L0,65.23425 C0,65.42325 0.015,65.61025 0.038,65.79625 C0.048,65.85825 0.062,65.91925 0.074,65.98125 C0.095,66.10125 0.117,66.22325 0.149,66.34225 C0.167,66.41225 0.192,66.48025 0.215,66.55125 C0.249,66.65525 0.284,66.76125 0.326,66.86425 C0.355,66.93525 0.389,67.00425 0.423,67.07225 C0.467,67.17025 0.514,67.26525 0.569,67.35925 C0.607,67.42625 0.649,67.49225 0.691,67.55725 C0.749,67.64525 0.808,67.73225 0.872,67.81825 C0.92,67.88325 0.968,67.94325 1.02,68.00425 C1.088,68.08425 1.159,68.16125 1.234,68.23625 C1.289,68.29325 1.346,68.35125 1.405,68.40325 C1.482,68.47525 1.565,68.54325 1.648,68.60825 C1.713,68.65825 1.776,68.70925 1.843,68.75625 C1.868,68.77225 1.889,68.79325 1.914,68.80925 L47.617,99.27725 C48.339,99.75925 49.169,100.00125 50,100.00125 C50.831,100.00125 51.662,99.75925 52.383,99.27725 L98.087,68.80925 C98.112,68.79325 98.134,68.77225 98.157,68.75625 C98.225,68.70925 98.288,68.65825 98.353,68.60825 C98.437,68.54325 98.518,68.47525 98.596,68.40325 C98.655,68.35125 98.711,68.29325 98.768,68.23625 C98.842,68.16125 98.914,68.08425 98.981,68.00425 C99.032,67.94325 99.081,67.88325 99.128,67.81825 C99.193,67.73225 99.252,67.64525 99.31,67.55725 C99.352,67.49225 99.394,67.42625 99.432,67.35925 C99.486,67.26525 99.533,67.17025 99.579,67.07225 C99.613,67.00425 99.645,66.93525 99.675,66.86425 C99.717,66.76125 99.751,66.65525 99.785,66.55125 C99.808,66.48025 99.833,66.41225 99.853,66.34225 C99.885,66.22325 99.906,66.10125 99.928,65.98125 C99.939,65.91925 99.954,65.85825 99.962,65.79625 C99.986,65.61025 100,65.42325 100,65.23425 L100,34.76625 C100,34.57625 99.986,34.39025 99.962,34.20425 C99.954,34.14225 99.939,34.08025 99.928,34.01825 L99.928,34.01825 Z" id="Fill-1" fill="#000000"></path>
    </g>
</svg>