<svg width="100" height="100" viewBox="0 0 100 100" fill="none" xmlns="http://www.w3.org/2000/svg">
<g clip-path="url(#clip0)">
<path d="M76.5429 34.7041C76.5296 28.8463 72.2134 23.8885 66.4132 23.0687C60.613 22.249 55.0918 25.8164 53.4557 31.4411C51.8195 37.0659 54.5657 43.0382 59.9006 45.4575C59.1704 51.3465 54.8832 53.9848 47.7928 57.8126C45.2757 59.1085 42.8373 60.5518 40.4904 62.1352V22.5728C45.6021 20.3418 48.4483 14.8314 47.3088 9.37166C46.1693 3.91195 41.3566 0 35.7792 0C30.2018 0 25.3891 3.91195 24.2496 9.37166C23.1101 14.8314 25.9563 20.3418 31.068 22.5728V77.4584C25.9842 79.7169 23.1738 85.2243 24.3282 90.6661C25.4826 96.1079 30.287 100 35.8499 100C41.4127 100 46.2171 96.1079 47.3715 90.6661C48.5259 85.2243 45.7155 79.7169 40.6317 77.4584C41.3973 72.17 45.4961 69.6849 52.2449 66.0454C59.5001 62.1351 68.4279 57.3062 69.3348 45.5046C73.6843 43.6736 76.5209 39.4232 76.5429 34.7041Z" fill="black"/>
</g>
<defs>
<clipPath id="clip0">
<rect width="100" height="100" fill="white"/>
</clipPath>
</defs>
</svg>
