<?xml version="1.0" encoding="UTF-8"?>
<svg width="100px" height="100px" viewBox="0 0 100 100" version="1.1" xmlns="http://www.w3.org/2000/svg" xmlns:xlink="http://www.w3.org/1999/xlink">
    <!-- Generator: Sketch 57.1 (83088) - https://sketch.com -->
    <title>regular/code-regular</title>
    <desc>Created with Sketch.</desc>
    <g id="regular/code" stroke="none" stroke-width="1" fill="none" fill-rule="evenodd">
        <path d="M64.885,8.64499996 C66.1221179,9.09511203 66.7601121,10.4628821 66.31,11.7 L38.17,88.99 C37.8311667,89.9349008 36.933808,90.5638531 35.93,90.5600351 C35.6532138,90.5587192 35.3788903,90.5079185 35.12,90.41 C33.908562,89.963685 33.2772126,88.6298484 33.7,87.41 L61.83,10.07 C62.2801121,8.83288212 63.6478822,8.19488789 64.885,8.64499996 Z M29.1477808,19.9684221 C29.983179,20.184348 30.6362795,20.8355105 30.8546871,21.6702634 C31.0730946,22.5050162 30.8225967,23.3925993 30.2,23.99 L4.82999995,49.36 C4.78481087,49.4050324 4.7594107,49.4662036 4.7594107,49.53 C4.7594107,49.5937964 4.78481087,49.6549676 4.82999995,49.7 L30.2,75.07 C30.6470097,75.5147949 30.8983242,76.119397 30.8983242,76.75 C30.8983242,77.380603 30.6470097,77.9852052 30.2,78.43 C29.7574017,78.8804738 29.1515151,79.1329266 28.52,79.1300499 C27.8859105,79.1311118 27.2775923,78.8791457 26.83,78.43 L1.45999995,53.06 C-0.485254499,51.1086513 -0.485254499,47.9513487 1.45999995,46 L26.83,20.63 C27.4255478,20.0056307 28.3123825,19.7524962 29.1477808,19.9684221 Z M73.17,20.63 L98.54,46 C100.485254,47.9513487 100.485254,51.1086513 98.54,53.06 L73.17,78.43 C72.7224077,78.8791457 72.1140895,79.1311118 71.48,79.1300073 C70.5191886,79.127652 69.6540252,78.547813 69.2866561,77.6600044 C68.9192871,76.7721958 69.1217753,75.7505699 69.8,75.07 L95.17,49.7 C95.2589293,49.6041117 95.2589293,49.4558883 95.17,49.36 L69.8,23.99 C69.1774033,23.3925993 68.9269054,22.5050162 69.1453129,21.6702634 C69.3637205,20.8355105 70.016821,20.184348 70.8522192,19.9684221 C71.6876175,19.7524962 72.5744522,20.0056307 73.17,20.63 Z" id="Shape" fill="#000000"></path>
    </g>
</svg>