<?xml version="1.0" encoding="UTF-8"?>
<svg width="100px" height="100px" viewBox="0 0 100 100" version="1.1" xmlns="http://www.w3.org/2000/svg" xmlns:xlink="http://www.w3.org/1999/xlink">
    <!-- Generator: Sketch 57.1 (83088) - https://sketch.com -->
    <title>bold/code-branch-bold</title>
    <desc>Created with Sketch.</desc>
    <g id="bold/code-branch" stroke="none" stroke-width="1" fill="none" fill-rule="evenodd">
        <path d="M63.8613862,22.9108911 C57.6740343,22.9079617 52.347497,27.2790324 51.1428617,33.3479851 C49.9382264,39.4169377 53.1914889,45.4910254 58.9108911,47.8514851 C57.6435644,52.3366337 53.7227723,54.6732673 47.6633663,57.9405941 C45.2697578,59.1754527 42.9550792,60.5576464 40.7326733,62.0792079 L40.7326733,26.0891089 C46.6240527,23.9097435 50.1069776,17.8219328 48.9999689,11.6386879 C47.8929601,5.45544305 42.5142324,0.954166131 36.2326733,0.954166131 C29.9511141,0.954166131 24.5723864,5.45544305 23.4653777,11.6386879 C22.3583689,17.8219328 25.8412938,23.9097435 31.7326732,26.0891089 L31.7326732,74.8910891 C25.9048121,77.0572944 22.438762,83.0593998 23.4755811,89.1897682 C24.5124001,95.3201367 29.7594691,99.8486067 35.9755539,99.9778392 C42.1916386,100.107072 47.6223863,95.8005938 48.9131004,89.7186148 C50.2038144,83.6366358 46.9902192,77.4956604 41.2574257,75.0891089 C42.5544554,71.1287129 46.2673267,68.9306931 51.9504951,65.8613862 C58.4950495,62.3762376 66.4455446,58.049505 68.0693069,48.1188119 C74.0701444,46.0725604 77.7072343,39.9826487 76.6633309,33.7290528 C75.6194274,27.475457 70.201497,22.8970863 63.8613862,22.9108911 Z M36.2277228,91 C34.0404564,91 32.2673267,89.2268703 32.2673267,87.039604 C32.2673267,84.8523377 34.0404564,83.079208 36.2277228,83.079208 C38.4149891,83.079208 40.1881188,84.8523377 40.1881188,87.039604 C40.1881188,89.2268703 38.4149891,91 36.2277228,91 Z M36.2277228,17.9108911 C34.0404564,17.9108911 32.2673267,16.1377614 32.2673267,13.950495 C32.2673267,11.7632287 34.0404564,9.99009897 36.2277228,9.99009897 C38.4149891,9.99009897 40.1881188,11.7632287 40.1881188,13.950495 C40.1881188,16.1377614 38.4149891,17.9108911 36.2277228,17.9108911 L36.2277228,17.9108911 Z M63.8613862,39.8316832 C61.6741198,39.8316832 59.9009901,38.0585535 59.9009901,35.8712871 C59.9009901,33.6840208 61.6741198,31.9108911 63.8613862,31.9108911 C66.0486525,31.9108911 67.8217822,33.6840208 67.8217822,35.8712871 C67.8217822,38.0585535 66.0486525,39.8316832 63.8613862,39.8316832 Z" id="code-branch" fill="#000000"></path>
    </g>
</svg>