<svg width="100" height="101" viewBox="0 0 100 101" fill="none" xmlns="http://www.w3.org/2000/svg">
<path fill-rule="evenodd" clip-rule="evenodd" d="M72.927 44.8303L54.297 32.3703V12.3263L87.967 34.7712L72.927 44.8303ZM80.656 50.0003L91.407 42.8092V57.1903L80.656 50.0003ZM54.297 67.6302L72.927 55.1712L87.967 65.2282L54.297 87.6742V67.6302ZM27.073 55.1712L45.704 67.6302V87.6742L12.035 65.2282L27.073 55.1712ZM19.344 50.0003L8.594 57.1903V42.8092L19.344 50.0003ZM45.704 32.3703L27.073 44.8303L12.035 34.7712L45.704 12.3263V32.3703ZM50 60.1653L34.802 50.0003L50 39.8343L65.199 50.0003L50 60.1653ZM99.928 34.0182C99.906 33.8973 99.885 33.7762 99.853 33.6582C99.833 33.5872 99.808 33.5192 99.785 33.4492C99.751 33.3442 99.717 33.2393 99.675 33.1362C99.645 33.0653 99.613 32.9963 99.579 32.9272C99.533 32.8302 99.486 32.7342 99.432 32.6423C99.394 32.5732 99.352 32.5083 99.31 32.4422C99.252 32.3532 99.193 32.2673 99.128 32.1823C99.081 32.1183 99.032 32.0583 98.981 31.9972C98.914 31.9163 98.842 31.8393 98.768 31.7642C98.711 31.7062 98.655 31.6493 98.596 31.5963C98.518 31.5243 98.437 31.4583 98.353 31.3923C98.288 31.3423 98.225 31.2913 98.157 31.2442C98.134 31.2272 98.112 31.2073 98.087 31.1903L52.383 0.72225C50.941 -0.24075 49.06 -0.24075 47.617 0.72225L1.914 31.1903C1.889 31.2073 1.868 31.2272 1.843 31.2442C1.776 31.2913 1.713 31.3423 1.648 31.3923C1.565 31.4583 1.482 31.5243 1.405 31.5963C1.346 31.6493 1.289 31.7062 1.234 31.7642C1.159 31.8393 1.088 31.9163 1.02 31.9972C0.968 32.0583 0.92 32.1183 0.872 32.1823C0.808 32.2673 0.749 32.3532 0.691 32.4422C0.649 32.5083 0.607 32.5732 0.569 32.6423C0.514 32.7342 0.467 32.8302 0.423 32.9272C0.389 32.9963 0.355 33.0653 0.326 33.1362C0.284 33.2393 0.249 33.3442 0.215 33.4492C0.192 33.5192 0.167 33.5872 0.149 33.6582C0.117 33.7762 0.095 33.8973 0.074 34.0182C0.062 34.0802 0.048 34.1423 0.038 34.2043C0.015 34.3903 0 34.5763 0 34.7663V65.2343C0 65.4233 0.015 65.6103 0.038 65.7962C0.048 65.8582 0.062 65.9193 0.074 65.9812C0.095 66.1012 0.117 66.2232 0.149 66.3422C0.167 66.4122 0.192 66.4802 0.215 66.5512C0.249 66.6552 0.284 66.7613 0.326 66.8643C0.355 66.9352 0.389 67.0042 0.423 67.0723C0.467 67.1702 0.514 67.2653 0.569 67.3593C0.607 67.4263 0.649 67.4922 0.691 67.5573C0.749 67.6452 0.808 67.7323 0.872 67.8183C0.92 67.8833 0.968 67.9433 1.02 68.0042C1.088 68.0843 1.159 68.1613 1.234 68.2363C1.289 68.2933 1.346 68.3512 1.405 68.4033C1.482 68.4753 1.565 68.5433 1.648 68.6083C1.713 68.6583 1.776 68.7093 1.843 68.7562C1.868 68.7722 1.889 68.7933 1.914 68.8092L47.617 99.2773C48.339 99.7593 49.169 100.001 50 100.001C50.831 100.001 51.662 99.7593 52.383 99.2773L98.087 68.8092C98.112 68.7933 98.134 68.7722 98.157 68.7562C98.225 68.7093 98.288 68.6583 98.353 68.6083C98.437 68.5433 98.518 68.4753 98.596 68.4033C98.655 68.3512 98.711 68.2933 98.768 68.2363C98.842 68.1613 98.914 68.0843 98.981 68.0042C99.032 67.9433 99.081 67.8833 99.128 67.8183C99.193 67.7323 99.252 67.6452 99.31 67.5573C99.352 67.4922 99.394 67.4263 99.432 67.3593C99.486 67.2653 99.533 67.1702 99.579 67.0723C99.613 67.0042 99.645 66.9352 99.675 66.8643C99.717 66.7613 99.751 66.6552 99.785 66.5512C99.808 66.4802 99.833 66.4122 99.853 66.3422C99.885 66.2232 99.906 66.1012 99.928 65.9812C99.939 65.9193 99.954 65.8582 99.962 65.7962C99.986 65.6103 100 65.4233 100 65.2343V34.7663C100 34.5763 99.986 34.3903 99.962 34.2043C99.954 34.1423 99.939 34.0802 99.928 34.0182Z" fill="black"/>
</svg>
