<?xml version="1.0" encoding="UTF-8"?>
<svg width="100px" height="100px" viewBox="0 0 100 100" version="1.1" xmlns="http://www.w3.org/2000/svg" xmlns:xlink="http://www.w3.org/1999/xlink">
    <!-- Generator: Sketch 57.1 (83088) - https://sketch.com -->
    <title>bold/code-bold</title>
    <desc>Created with Sketch.</desc>
    <g id="bold/code" stroke="none" stroke-width="1" fill="none" fill-rule="evenodd">
        <path d="M64.6862745,9.58823538 C66.99829,10.4274916 68.1921973,12.9821021 67.3529412,15.2941176 L41.0294118,87.6372549 C40.3814682,89.3958083 38.7074543,90.5652712 36.8333333,90.5686735 C36.3079359,90.5703425 35.7865303,90.477353 35.2941176,90.2941177 C34.1834195,89.8916625 33.278278,89.0641622 32.7780924,87.9939122 C32.2779068,86.9236622 32.2237135,85.6984681 32.627451,84.5882353 L58.9803922,12.2549019 C59.8196485,9.94288642 62.374259,8.74897916 64.6862745,9.58823538 Z M32.9311366,21.4316085 C34.6264225,23.1268943 34.6784864,25.8590037 33.0490196,27.617647 L10.7254902,49.9411765 L33.0490196,72.2647059 C34.3411622,73.5386497 34.7328616,75.4683474 34.0397018,77.1452776 C33.3465419,78.8222078 31.7066709,79.9121549 29.8921568,79.9021016 C28.7121636,79.8996804 27.5809259,79.4309744 26.745098,78.5980392 L2.99999995,54.8235294 C1.68257604,53.5327229 0.940175917,51.7659621 0.940175917,49.9215686 C0.940175917,48.0771752 1.68257604,46.3104144 2.99999995,45.0196078 L26.745098,21.3137255 C28.5037414,19.6842587 31.2358507,19.7363226 32.9311366,21.4316085 Z M73.254902,21.3137255 L97,45.0588235 C98.317424,46.3496301 99.0598241,48.1163908 99.0598241,49.9607843 C99.0598241,51.8051778 98.317424,53.5719386 97,54.8627451 L73.254902,78.5686275 C72.4251266,79.4141763 71.2925023,79.8940421 70.1078432,79.9019608 C68.3063036,79.9001186 66.6827119,78.8148049 65.9922486,77.1508312 C65.3017852,75.4868574 65.6800025,73.5708962 66.9509804,72.2941177 L89.2745098,49.9411765 L66.9509804,27.617647 C65.7522092,26.5069285 65.2567761,24.8296043 65.6596637,23.245802 C66.0625513,21.6619997 67.2992546,20.4252964 68.8830569,20.0224088 C70.4668593,19.6195212 72.1441834,20.1149543 73.254902,21.3137255 Z" id="Shape" fill="#000000"></path>
    </g>
</svg>