<?xml version="1.0" encoding="UTF-8"?>
<svg width="100px" height="100px" viewBox="0 0 100 100" version="1.1" xmlns="http://www.w3.org/2000/svg" xmlns:xlink="http://www.w3.org/1999/xlink">
    <!-- Generator: Sketch 57.1 (83088) - https://sketch.com -->
    <title>solid/code-branch-solid</title>
    <desc>Created with Sketch.</desc>
    <g id="solid/code-branch" stroke="none" stroke-width="1" fill="none" fill-rule="evenodd">
        <path d="M76.8316832,35.8712871 C76.8283563,29.3682907 72.0064533,23.8745873 65.5588167,23.0278547 C59.11118,22.1811222 53.0343229,26.2435516 51.3520606,32.5251889 C49.6697983,38.8068262 52.903044,45.3625602 58.9108911,47.8514851 C57.6435644,52.3366337 53.7227723,54.6732673 47.6633663,57.9405941 C45.2697578,59.1754527 42.9550792,60.5576464 40.7326733,62.0792079 L40.7326733,26.0891089 C46.6240527,23.9097435 50.1069776,17.8219328 48.9999689,11.6386879 C47.8929601,5.45544305 42.5142324,0.954166131 36.2326733,0.954166131 C29.9511141,0.954166131 24.5723864,5.45544305 23.4653777,11.6386879 C22.3583689,17.8219328 25.8412938,23.9097435 31.7326732,26.0891089 L31.7326732,74.9009901 C25.9128308,77.0730514 22.4574606,83.0741076 23.5006324,89.1978491 C24.5438041,95.3215905 29.7911769,99.8401453 36.0019232,99.9628107 C42.2126696,100.085476 47.6343681,95.7776412 48.9185262,89.6998657 C50.2026842,83.6220902 46.9869643,77.4892765 41.2574257,75.0891089 C42.5544554,71.1287129 46.2673267,68.9306931 51.9504951,65.8613862 C58.4950495,62.3762376 66.4455446,58.049505 68.0693069,48.1188119 C73.3037169,46.3235274 76.8226288,41.405003 76.8316832,35.8712871 Z" id="code-branch" fill="#000000"></path>
    </g>
</svg>