<?xml version="1.0" encoding="UTF-8"?>
<svg width="100px" height="100px" viewBox="0 0 100 100" version="1.1" xmlns="http://www.w3.org/2000/svg" xmlns:xlink="http://www.w3.org/1999/xlink">
    <!-- Generator: Sketch 57.1 (83088) - https://sketch.com -->
    <title>regular/cog-regular</title>
    <desc>Created with Sketch.</desc>
    <g id="regular/cog" stroke="none" stroke-width="1" fill="none" fill-rule="evenodd">
        <path d="M41.5841584,99.5050096 C40.9971604,99.4951761 40.4129267,99.4221468 39.8415841,99.2871288 L39.3960396,99.1881189 L30.940594,96.6237624 C27.6887215,95.6470173 25.4784941,92.6327035 25.5247525,89.2376238 L24.7920792,83.4356436 C24.5725402,81.8928691 23.1980612,80.7820481 21.6435643,80.8910891 L15.8415841,81.4059406 C12.5098006,82.1698184 9.08173706,80.5920145 7.49504946,77.5643565 L3.36633659,69.8019802 C1.76262236,66.8247365 2.33287294,63.1443958 4.76237619,60.7920792 L8.41584154,56.2178218 C9.30883969,54.9816004 9.12056116,53.2699774 7.98019798,52.2574257 L3.50495045,48.4653465 C0.695205958,46.6191532 -0.604340661,43.1723557 0.287128663,39.9306931 L2.86138609,31.4455445 C3.81271902,28.1715183 6.84896002,25.9481932 10.2574257,26.0297029 L16.0891089,25.2970297 C17.6159168,25.0637925 18.7091952,23.6993466 18.6039604,22.1584158 L18.0891089,16.3366336 C17.3282116,13.0052898 18.9106767,9.58000549 21.940594,7.99999996 L29.7029703,3.8514851 C32.6829482,2.25373776 36.3613514,2.82773035 38.7128713,5.2574257 L43.3069307,8.90099006 C44.5499004,9.82709705 46.2960354,9.64170494 47.3168317,8.47524748 L51.0693069,3.99999995 C52.9141794,1.19443826 56.3554696,-0.10453889 59.5940594,0.782178169 L68.0891089,3.3564356 C71.3409815,4.3331807 73.5512089,7.34749453 73.5049505,10.7425742 L74.2574258,16.5445544 C74.4769648,18.0873289 75.8514437,19.1981499 77.4059406,19.0891089 L83.1683169,18.5742574 C86.5001004,17.8103796 89.9281639,19.3881835 91.5148515,22.4158416 L95.6930694,30.1980198 C97.2967836,33.1752635 96.726533,36.8556042 94.2970297,39.2079208 L90.6435644,43.7623762 C89.7505663,44.9985976 89.9388448,46.7102206 91.079208,47.7227723 L95.5247525,51.4455446 C98.4316446,53.3113082 99.7132137,56.9037702 98.6435644,60.1881188 L96.1089109,68.5346535 C95.2244875,71.7751548 92.279817,74.0221899 88.9207921,74.019802 L88.8118812,74.019802 L82.8712872,74.7524753 C82.1757079,74.816281 81.5342827,75.154811 81.0891089,75.6930693 L80.8613862,75.9405941 C80.512241,76.4839088 80.3585878,77.1299507 80.4257426,77.7722773 L80.9702971,83.6633664 C81.6331395,86.9348196 80.1247683,90.2628133 77.2277228,91.9207921 L69.3069307,96.1287129 C66.3515759,97.6762754 62.7313477,97.1050838 60.3960396,94.7227723 L55.8118812,91.079208 C54.5646306,90.1492805 52.8111512,90.3393128 51.7920792,91.5148515 L48.0594059,95.9702971 C46.6500404,98.1810681 44.2059353,99.5152356 41.5841584,99.5050096 Z M40.6633663,94.6435644 L40.7920792,94.6435644 C41.0514122,94.7098332 41.3167954,94.7496407 41.5841584,94.7623763 C42.5986024,94.741102 43.5320021,94.2034638 44.0594059,93.3366337 L44.2673267,93.039604 L48.1188119,88.4356436 C50.7717383,85.329684 55.3911886,84.8425103 58.6336634,87.3267327 L63.5841584,91.2871288 C64.4605422,92.2570125 65.8827869,92.5096748 67.039604,91.9009901 L74.8811881,87.7227723 C76.0014822,87.0390833 76.5564441,85.7135628 76.2574258,84.4356436 L76.2574258,84.1287129 L75.7227723,78.1881188 C75.5581972,76.3817565 76.0464626,74.5762282 77.0990099,73.0990099 L77.5049505,72.6534654 C78.7443933,71.1662688 80.5266608,70.2359251 82.4554456,70.069307 L88.6039604,69.3069307 L88.8019802,69.3069307 C90.0614266,69.3589947 91.1919505,68.5397745 91.5346535,67.3267327 L91.5346535,67.1881188 L94.1089109,58.7425743 C94.5375556,57.4830297 94.0512427,56.0935642 92.9306931,55.3762376 L92.6039604,55.1386139 L88,51.2871287 C84.951488,48.6368548 84.4836371,44.0753081 86.9306931,40.8613861 L90.8910891,35.8613861 C91.8561156,34.9864774 92.1084411,33.5701987 91.5049505,32.4158416 L87.3168317,24.5841584 C86.675378,23.4158239 85.3122123,22.8451009 84.029703,23.2079208 L83.7227723,23.2079208 L77.7227723,23.7425742 C73.6418205,24.0556084 70.0302594,21.1184955 69.5049505,17.0594059 L68.7326733,10.9009901 L68.7326733,10.6930693 C68.7503882,9.39628373 67.9247077,8.23792618 66.6930693,7.83168313 L58.1980198,5.2574257 C56.924011,4.95970512 55.6052261,5.53064247 54.9504951,6.66336629 L54.7623762,6.91089105 L50.9108911,11.5148514 C48.2579647,14.620811 43.6385144,15.1079847 40.3960396,12.6237623 L35.4455445,8.61386134 C34.5673733,7.6472092 33.1474811,7.39496475 31.990099,7.99999996 L24.1485148,12.1881188 C22.981736,12.8259983 22.4107548,14.1856728 22.7722772,15.4653465 L22.8217822,15.7722772 L23.3564356,21.7623762 C23.6703229,25.8365976 20.7442073,29.4453285 16.6930693,29.980198 L10.5049505,30.7524752 L10.3069307,30.7524752 C9.00917697,30.6685437 7.82424168,31.4885681 7.44554451,32.7326733 L4.86138609,41.2475247 C4.52549894,42.5289821 5.07882452,43.8779656 6.21782174,44.5544554 L6.46534649,44.7425743 L11.0693069,48.5940594 C14.1787242,51.2410012 14.6664337,55.8611775 12.1782178,59.0990099 L8.21782174,64.0990099 C7.24291051,64.9677708 6.98559232,66.3891475 7.59405936,67.5445545 L11.7821782,75.3762376 C12.4203816,76.4977622 13.7302845,77.0533556 14.980198,76.7326733 L15.2871287,76.6831683 L21.2871287,76.1584159 C25.3663161,75.8398182 28.9795586,78.7739452 29.5049505,82.8316832 L30.2772277,89 L30.2772277,89.1980198 C30.2595128,90.4948054 31.0851933,91.6531629 32.3168317,92.059406 L40.6633663,94.6435644 Z M49.5742574,73.7227723 C42.0832276,73.7176178 35.0332134,70.1804002 30.5510762,64.1782339 C26.068939,58.1760676 24.6795194,50.4117825 26.8019802,43.2277228 L26.8019802,43.2277228 C29.2009705,35.0609612 35.7849155,28.801132 44.0622834,26.8171134 C52.3396512,24.8330947 61.0459965,27.4279642 66.886617,33.6197571 C72.7272375,39.8115501 74.8099239,48.6544124 72.3465347,56.8019802 C70.5765706,62.8379854 66.4611436,67.9127277 60.9207921,70.8910891 C57.4596847,72.7637749 53.5886996,73.7502298 49.6534653,73.7623763 L49.5742574,73.7227723 Z M49.6336634,30.9504947 C46.4789393,30.9730884 43.3768755,31.7613455 40.5940594,33.2475247 C36.1471692,35.6540508 32.8332911,39.7225391 31.3762376,44.5643564 L31.3762376,44.5643564 C29.2027178,51.9421079 31.67659,59.9032536 37.6487268,64.7497974 C43.6208636,69.5963412 51.9207605,70.3783882 58.6930693,66.7326733 C63.1365201,64.353618 66.4394349,60.2909615 67.8613862,55.4554456 C69.6155904,49.7044127 68.5395786,43.4622702 64.9611212,38.6304741 C61.3826637,33.798678 55.7254922,30.9493701 49.7128713,30.9504947 L49.6336634,30.9504947 Z" id="cog" fill="#000000"></path>
    </g>
</svg>