<svg width="100" height="100" viewBox="0 0 100 100" fill="none" xmlns="http://www.w3.org/2000/svg">
<g clip-path="url(#clip0)">
<path d="M96.2864 50.9958L91.8741 47.3131C90.9449 46.5088 90.7912 45.125 91.5211 44.1363L95.145 39.583C97.739 37.0545 98.3439 33.1134 96.6276 29.9234L92.4977 22.1933C90.7986 18.9339 87.1168 17.2284 83.5319 18.04L77.7547 18.5577C76.5337 18.6245 75.4649 17.745 75.2956 16.534L74.5778 10.7688C74.5788 7.12569 72.1861 3.91483 68.6948 2.87395L60.2349 0.297262C56.7611 -0.653349 53.0688 0.725886 51.0691 3.72109L47.351 8.15676C46.5454 9.09291 45.1532 9.24703 44.1624 8.50974L39.6089 4.89766C37.0764 2.30181 33.1309 1.69704 29.9371 3.41518L22.2185 7.54495C18.9714 9.23226 17.2629 12.8905 18.0533 16.4634L18.571 22.2168C18.6712 23.4518 17.7964 24.5529 16.5708 24.7347L10.7818 25.4524C7.15045 25.4384 3.93844 27.8043 2.87499 31.2764L0.298203 39.783C-0.654515 43.2534 0.725762 46.9435 3.72215 48.9368L8.22858 52.6547C9.16476 53.4603 9.31888 54.8525 8.58156 55.8432L4.89876 60.3848C2.30282 62.9172 1.69803 66.8626 3.41623 70.0562L7.54614 77.7746C9.24019 81.0139 12.8952 82.716 16.4649 81.9278L22.2421 81.4219C23.4767 81.3289 24.5722 82.2084 24.7482 83.4339L25.4777 89.1991C25.469 92.826 27.834 96.0317 31.302 97.0939L39.7383 99.6588L40.2325 99.7765C40.85 99.9191 41.4813 99.994 42.1151 100C44.8963 99.982 47.4807 98.5615 48.9865 96.2232L52.6928 91.764C53.4984 90.8279 54.8906 90.6737 55.8814 91.411L60.4349 95.0349C62.9683 97.6211 66.9066 98.2207 70.0949 96.5056L77.99 92.2934C81.0718 90.5378 82.6836 87.0064 81.9905 83.528L81.4728 77.7393C81.4227 77.2466 81.5342 76.7511 81.7905 76.3274L82.014 76.092C82.3434 75.6533 82.8351 75.365 83.3789 75.292L89.262 74.5625H89.3443C92.9546 74.5664 96.123 72.1589 97.0865 68.6796L99.6162 60.3613C100.728 56.8461 99.3674 53.0205 96.2864 50.9958ZM60.282 68.7738C52.6735 72.8924 43.3327 72.0194 36.6191 66.5624C29.9056 61.1053 27.143 52.1401 29.6207 43.851C32.0984 35.5619 39.3279 29.5832 47.9351 28.7054C56.5422 27.8276 64.8299 32.2236 68.9301 39.8419C74.4815 50.2243 70.6206 63.1407 60.282 68.7738Z" fill="black"/>
</g>
<defs>
<clipPath id="clip0">
<rect width="100" height="100" fill="white"/>
</clipPath>
</defs>
</svg>
