<svg width="100" height="100" viewBox="0 0 100 100" fill="none" xmlns="http://www.w3.org/2000/svg">
<g clip-path="url(#clip0)">
<path d="M42.1197 100C41.4855 99.9889 40.8544 99.91 40.2369 99.7647L39.7662 99.6588L31.329 97.0939C27.8606 96.0318 25.4953 92.8261 25.5041 89.1993L24.7863 83.4342C24.6156 82.1991 23.5111 81.3115 22.2681 81.4105L16.4667 81.9282C12.889 82.728 9.22019 81.0242 7.52345 77.775L3.41661 70.0568C1.69822 66.8632 2.30308 62.9179 4.89931 60.3855L8.52368 55.844C9.27546 54.8681 9.14717 53.4776 8.22949 52.6556L3.72256 48.9377C0.725843 46.9444 -0.654588 43.2544 0.298237 39.7841L2.87531 31.3012C3.89884 27.8415 7.08041 25.4701 10.6889 25.4773H10.783L16.5726 24.7596C17.7984 24.5778 18.6732 23.4767 18.5731 22.2418L18.0553 16.4649C17.2632 12.8887 18.9716 9.22639 22.221 7.53486L29.9522 3.40517C33.1427 1.68895 37.0843 2.29379 39.6133 4.88763L44.1673 8.49964C45.1582 9.23692 46.5506 9.0828 47.3562 8.14667L51.0748 3.71107C53.078 0.72034 56.77 -0.653885 60.2416 0.299077L68.7259 2.87572C72.2176 3.91658 74.6106 7.12738 74.6096 10.7704L75.3275 16.5355C75.4981 17.7705 76.6026 18.6582 77.8457 18.5591L83.5411 18.0415C87.1184 17.2459 90.7847 18.9485 92.4844 22.1947L96.6148 29.9246C98.3313 33.1146 97.7263 37.0556 95.1321 39.5841L91.5077 44.1374C90.7777 45.126 90.9315 46.5098 91.8607 47.3141L96.2735 50.9967C99.3759 53.0271 100.739 56.8798 99.6037 60.4091L97.0737 68.7273C96.1066 72.2041 92.9401 74.6099 89.3307 74.61H89.2483L83.3646 75.3395C82.8302 75.3897 82.3383 75.6525 81.9996 76.069L81.776 76.3043C81.5198 76.728 81.4082 77.2235 81.4583 77.7161L81.9996 83.5283C82.7315 87.0335 81.1142 90.61 77.9987 92.376L70.1027 96.588C66.9122 98.3042 62.9706 97.6994 60.4416 95.1055L55.8876 91.4582C54.8967 90.721 53.5043 90.8751 52.6987 91.8112L48.9919 96.2233C47.4859 98.5616 44.9013 99.982 42.1197 100ZM41.3548 93.9878H41.4372C41.6598 94.0514 41.8887 94.0909 42.1197 94.1055C42.9344 94.08 43.6778 93.6349 44.0849 92.9289L44.3555 92.5642L48.2388 88.0109C51.0888 84.6709 56.0583 84.1533 59.5355 86.8344L64.5956 90.8935C65.284 91.6731 66.4159 91.8819 67.3374 91.3994L75.1745 87.2109C76.0604 86.6587 76.4959 85.6033 76.2571 84.5872L76.1865 84.1989L75.6569 78.222C75.4777 76.2795 76.004 74.3374 77.1396 72.7511L77.575 72.2452C78.9154 70.6727 80.8138 69.6815 82.8704 69.4803L89.0483 68.7155H89.2954C90.2557 68.7486 91.123 68.145 91.4253 67.2331V67.0566L93.9906 58.6325C94.3468 57.6364 93.9718 56.5262 93.0845 55.9499L92.6727 55.6558L88.0834 51.8202C84.7355 48.9696 84.2175 43.9923 86.9066 40.5136L90.9782 35.4544C91.7599 34.7714 91.965 33.6385 91.4724 32.7248L87.295 24.9008C86.7594 23.9887 85.6811 23.5459 84.659 23.8183L84.2707 23.8772L78.2929 24.4184C73.8843 24.7935 69.9668 21.6195 69.4202 17.2296L68.6435 11.041V10.7821C68.6598 9.76808 68.0243 8.85772 67.0667 8.52317L58.5706 5.94652C57.5449 5.70287 56.4793 6.14996 55.9347 7.05248L55.6994 7.37015L51.8514 11.9587C49.0014 15.2988 44.032 15.8163 40.5547 13.1352L35.4947 9.06438C34.8062 8.2848 33.6743 8.07595 32.7528 8.55846L24.9157 12.747C23.9853 13.2606 23.5355 14.3506 23.8331 15.3707L23.9037 15.759L24.4333 21.7358C24.7961 26.1269 21.6382 30.0257 17.2669 30.5835L11.0419 31.36H10.7948C9.76635 31.2953 8.8294 31.9491 8.53545 32.9366L5.94661 41.4431C5.67837 42.4705 6.13155 43.5502 7.05275 44.0785L7.37047 44.3138L11.9598 48.1612C15.3004 51.0107 15.818 55.9793 13.1365 59.4561L9.06498 64.5152C8.28325 65.1982 8.07813 66.3311 8.57075 67.2448L12.7482 75.0689C13.263 76.0045 14.3602 76.4551 15.3841 76.1513H15.7724L21.7503 75.6101C26.1257 75.2525 30.0127 78.3885 30.5876 82.74L31.3643 88.9287V89.1875C31.3481 90.2016 31.9835 91.1119 32.9411 91.4465L41.3548 93.9878ZM50.1569 74.2571C42.4851 74.2653 35.259 70.6542 30.6607 64.5141C26.0624 58.374 24.631 50.4248 26.7985 43.0667C29.2789 34.7439 36.0118 28.3765 44.4609 26.3629C52.91 24.3492 61.7918 26.9954 67.7605 33.3045C73.7292 39.6136 75.878 48.6273 73.3976 56.95C71.5704 63.1395 67.3295 68.3337 61.6302 71.3628C58.102 73.2562 54.1612 74.2503 50.1569 74.2571ZM32.4469 44.7021C30.3234 51.8464 32.711 59.5663 38.4972 64.2651C44.2835 68.9639 52.3302 69.7172 58.8883 66.1742C63.1886 63.8862 66.3866 59.9636 67.761 55.2911C69.1753 50.6107 68.6671 45.5598 66.3489 41.2548C62.7849 34.7099 55.6345 30.9494 48.2212 31.7212C40.8079 32.493 34.5858 37.6458 32.4469 44.7845V44.7021Z" fill="black"/>
</g>
<defs>
<clipPath id="clip0">
<rect width="100" height="100" fill="white"/>
</clipPath>
</defs>
</svg>
