<svg width="100" height="100" viewBox="0 0 100 100" fill="none" xmlns="http://www.w3.org/2000/svg">
<path fill-rule="evenodd" clip-rule="evenodd" d="M73.7262 39.1943C70.1034 39.2023 66.6898 37.4981 64.519 34.5976C62.3483 31.6972 61.6758 27.9416 62.705 24.468C63.5714 21.548 65.5649 19.0931 68.245 17.646C70.9182 16.1852 74.0635 15.8504 76.9843 16.7158C79.9052 17.5812 82.3604 19.5754 83.8063 22.2567C85.2654 24.9398 85.5915 28.0948 84.712 31.0196C83.8584 33.9433 81.8608 36.3989 79.172 37.8298C77.498 38.7293 75.6265 39.1982 73.7262 39.1943ZM68.3391 26.1265C67.9294 27.559 68.0939 29.0947 68.7978 30.4079C70.2781 33.1171 73.6719 34.1168 76.3844 32.6427C77.6888 31.9494 78.6564 30.7568 79.0662 29.3376C79.4968 27.9135 79.3417 26.3764 78.6351 25.0671C77.9286 23.7578 76.729 22.7844 75.3023 22.3626C73.8698 21.9529 72.334 22.1174 71.0209 22.8213C69.7186 23.5233 68.7463 24.7112 68.3156 26.1265H68.3391Z" fill="black"/>
<path fill-rule="evenodd" clip-rule="evenodd" d="M70.5151 49.5097C70.147 49.5044 69.7804 49.4611 69.4212 49.3803L69.0683 49.298L65.6926 48.2746C63.6296 47.6247 62.2102 45.7323 62.164 43.5698L61.9993 42.1818L60.5761 42.3112C58.3945 42.7267 56.199 41.66 55.1772 39.6883L53.4952 36.5713C52.4494 34.6427 52.7833 32.2575 54.3186 30.6902L55.189 29.6081L54.1304 28.7259C52.3593 27.4826 51.5593 25.2613 52.1308 23.1742L53.1659 19.7514C53.8064 17.6817 55.7046 16.2581 57.8708 16.2228L59.2587 16.0463L59.1411 14.6349C58.6881 12.4328 59.768 10.2005 61.7758 9.18898L64.8222 7.5658C66.7494 6.51201 69.1396 6.84663 70.7033 8.38916L71.7972 9.25956L72.7146 8.17744C73.9484 6.41511 76.1546 5.61542 78.2311 6.17787L81.6539 7.16589C83.7169 7.8158 85.1362 9.70827 85.1825 11.8708L85.3589 13.2587L86.7704 13.1293C88.9525 12.7098 91.1503 13.7776 92.1692 15.7523L93.8512 18.9281C94.8971 20.8567 94.5631 23.2419 93.0279 24.8091L92.1575 25.903L93.2161 26.7734C95.0531 28.0368 95.8462 30.354 95.1686 32.4781L94.1806 35.7479C93.5824 37.8641 91.6742 39.3429 89.4757 39.3942L88.076 39.5706L88.1936 40.9351C88.5828 43.0458 87.5973 45.1723 85.7353 46.2398L82.5243 47.9571C80.5971 49.0109 78.2069 48.6762 76.6432 47.1337L75.5493 46.2633L74.6554 47.3337C73.711 48.6888 72.1668 49.5004 70.5151 49.5097ZM67.9509 42.8052L70.1858 43.4874L71.5854 41.8172C73.333 39.7657 76.3783 39.4354 78.5251 41.0644L80.2777 42.4524L82.3596 41.335L82.1596 39.1707C82.0625 37.982 82.3828 36.7966 83.0653 35.8185L83.3829 35.4304C84.21 34.4895 85.3601 33.8934 86.6057 33.7601L88.7229 33.5014L89.4169 31.1489L87.7702 29.7728C85.7168 28.0248 85.3911 24.9752 87.0292 22.8331L88.4171 21.0923L87.3115 19.0339L85.1355 19.2221C82.4348 19.432 80.0443 17.4865 79.7013 14.7995L79.4308 12.6353L77.1842 11.9531L75.761 13.6704C74.0134 15.7219 70.9682 16.0522 68.8213 14.4231L67.0688 13.047L65.0104 14.1409L65.2104 16.3051C65.4091 19.0004 63.4774 21.3855 60.7995 21.751L58.6118 22.0215L57.9296 24.2681L59.5998 25.656C61.657 27.4006 61.9878 30.4506 60.3526 32.5957L58.9529 34.3365L60.0115 36.3831L62.1875 36.1949C64.8881 35.985 67.2786 37.9305 67.6216 40.6175L67.9509 42.8052Z" fill="black"/>
<path fill-rule="evenodd" clip-rule="evenodd" d="M28.677 69.6699C24.0772 69.6752 19.7445 67.5103 16.9869 63.8288C14.2293 60.1474 13.3699 55.3808 14.6682 50.9681C16.9646 43.2508 25.0823 38.8562 32.7996 41.1526C40.5169 43.4489 44.9115 51.5666 42.6151 59.2839C41.5183 62.996 38.9752 66.1113 35.5578 67.9291C33.4426 69.0671 31.079 69.6651 28.677 69.6699ZM28.677 46.4161C27.216 46.4238 25.7788 46.7871 24.4897 47.4747C22.4669 48.573 20.9583 50.4239 20.2906 52.6265C19.301 55.9959 20.433 59.6299 23.161 61.8411C25.8891 64.0523 29.6787 64.4076 32.7702 62.742C34.8012 61.6654 36.3081 59.8104 36.9458 57.6019C37.6186 55.3951 37.3815 53.0109 36.2871 50.9798C35.1845 48.9536 33.3302 47.4414 31.1235 46.769C30.3366 46.5373 29.5208 46.4185 28.7005 46.4161H28.677Z" fill="black"/>
<path fill-rule="evenodd" clip-rule="evenodd" d="M24.3015 83.6788C23.8657 83.678 23.4315 83.6267 23.0076 83.5257L22.6312 83.4316L18.0322 82.0437C15.6113 81.3102 13.9453 79.092 13.9155 76.5625L13.5273 73.5161L10.6103 73.822C8.07526 74.364 5.49153 73.1396 4.30578 70.8344L2.07097 66.6706C0.868036 64.4379 1.26941 61.6808 3.05899 59.8838L4.91741 57.5314L2.56498 55.6024C0.488707 54.1846 -0.45666 51.6037 0.212549 49.1802L1.61225 44.5342C2.34183 42.1005 4.57625 40.4294 7.11694 40.4174L10.1398 40.0998L9.86928 37.1005C9.35656 34.5785 10.5815 32.0229 12.8686 30.843L17.0442 28.62C19.2715 27.4199 22.0214 27.8162 23.8192 29.5962L26.1716 31.4664L28.1006 29.114C29.5184 27.0377 32.0993 26.0923 34.5228 26.7616L39.2276 28.173C41.6591 28.9082 43.3312 31.1376 43.3562 33.6777L43.7325 36.7241L46.6849 36.3948C49.2073 35.8785 51.7663 37.0979 52.9541 39.3824L55.1771 43.5462C56.3651 45.7914 55.9396 48.55 54.1303 50.3329L52.2601 52.6854L54.542 54.5908C56.6935 56.0325 57.6487 58.7118 56.8944 61.1894L55.53 65.6708C54.8435 68.1293 52.6131 69.8369 50.0606 69.8581L47.073 70.2227L47.3318 73.1633C47.7864 75.6106 46.6511 78.0791 44.4971 79.3267L40.1686 81.6791C37.9384 82.885 35.1817 82.4885 33.3818 80.7028L31.0294 78.8326L29.1122 81.1851C28.0194 82.7605 26.2187 83.6939 24.3015 83.6788ZM24.1721 77.7976H24.3838L24.5014 77.6094V77.4565L26.5951 74.9511C28.6201 72.6121 32.1111 72.2419 34.5816 74.1043L37.4751 76.4567L41.6389 74.2101V74.0102L41.533 73.869L41.1919 70.5991C41.0697 69.2258 41.4408 67.8538 42.2388 66.7294L42.5799 66.3177C43.5286 65.2193 44.8639 64.5285 46.3085 64.3887L49.7665 63.9535H49.8724L51.2486 59.4251L50.9545 59.2134L48.4609 57.1197C46.0844 55.1158 45.7061 51.5964 47.6023 49.1332L49.9547 46.2397L47.7787 42.17H47.3788L44.1207 42.464C41.0156 42.6903 38.2722 40.4574 37.8632 37.371L37.428 33.9012V33.6424L32.8761 32.3486L32.7702 32.5132V32.7014L30.606 35.2656C28.5798 37.6118 25.0803 37.9823 22.6077 36.1125L19.726 33.76L15.6327 35.936L15.6916 36.3242L15.9738 39.5823C16.2012 42.6794 13.9813 45.4196 10.9044 45.8398L7.37571 46.2867H7.25808L5.90544 50.8505L6.07011 50.9563H6.2583L8.74012 53.0382C11.0829 55.0599 11.4583 58.5513 9.59875 61.0247L7.24632 63.9182L9.43408 68.035H9.834L13.0921 67.7409C16.2016 67.5082 18.9522 69.7427 19.3613 72.8339L19.7965 76.3626V76.5625L24.1721 77.7976Z" fill="black"/>
<path fill-rule="evenodd" clip-rule="evenodd" d="M69.1065 79.0233C71.2773 81.9238 74.6909 83.628 78.3137 83.62C80.2135 83.6031 82.0799 83.1183 83.7478 82.2085C86.4373 80.7727 88.4345 78.3134 89.2878 75.3864C90.5204 71.4351 89.5282 67.1262 86.6915 64.1119C83.8549 61.0976 79.6141 59.8458 75.5953 60.8364C71.5764 61.8271 68.4033 64.9064 67.2925 68.8937C66.2633 72.3672 66.9358 76.1229 69.1065 79.0233ZM75.6084 67.247C76.4383 66.7942 77.3682 66.5557 78.3137 66.5531L78.3372 66.5295C80.1013 66.5389 81.7575 67.3808 82.8044 68.8008C83.8514 70.2207 84.1663 72.0517 83.6537 73.7397C83.2459 75.1529 82.2883 76.3435 80.9954 77.0449C78.2784 78.5033 74.8937 77.501 73.4089 74.7983C72.7057 73.4892 72.5411 71.9573 72.9501 70.5287C73.3716 69.1285 74.3262 67.95 75.6084 67.247Z" fill="black"/>
<path fill-rule="evenodd" clip-rule="evenodd" d="M73.9852 93.7472C74.3514 93.8336 74.7264 93.8767 75.1026 93.8767C76.7851 93.8913 78.3643 93.0664 79.3134 91.677L80.2074 90.6184L81.3013 91.4771C82.8693 93.0091 85.2498 93.3471 87.1823 92.3122L90.3816 90.5949C92.2427 89.5258 93.2313 87.4026 92.8517 85.2902L92.7223 83.914L94.122 83.7376C96.3219 83.6901 98.232 82.2097 98.8269 80.0913L99.7561 76.8332C100.442 74.7091 99.6471 72.3869 97.8036 71.1285L96.745 70.2464L97.6154 69.1525C99.1507 67.5852 99.4846 65.2 98.4387 63.2714L96.8156 60.2368C95.7995 58.2591 93.5994 57.1902 91.4167 57.6138L90.0053 57.7432L89.7935 56.32C89.7509 54.1562 88.3301 52.2619 86.2649 51.6151L82.8539 50.58C80.7691 50.0024 78.5464 50.7982 77.3021 52.5678L76.3964 53.65L75.3026 52.7796C73.73 51.255 71.3522 50.9221 69.4215 51.9562L66.3868 53.5911C64.4032 54.6014 63.332 56.8062 63.7639 58.99L63.8933 60.4014L62.4936 60.5661C60.3087 60.6021 58.4017 62.0562 57.7887 64.1536L56.7419 67.5646C56.1667 69.6518 56.9674 71.8752 58.7414 73.1163L59.8236 74.022L58.9532 75.1159C57.4106 76.6796 57.076 79.0698 58.1298 80.997L59.7647 84.0434C60.7678 86.0281 62.9709 87.1008 65.1518 86.6664L66.575 86.537L66.7515 87.9367C66.7941 90.1004 68.2149 91.9947 70.2801 92.6415L73.6559 93.6648L73.9852 93.7472ZM74.785 87.8308L72.5385 87.1486L72.2562 85.0079C71.9074 82.3191 69.5134 80.3749 66.8103 80.5853L64.6343 80.7853L63.5404 78.7269L64.9401 76.9861C66.5753 74.841 66.2445 71.791 64.1873 70.0464L62.5171 68.6467L63.1993 66.4119L65.3871 66.1296C68.0662 65.7754 70.0022 63.3902 69.7979 60.6955L69.5979 58.5195L71.6563 57.4256L73.4089 58.7665C75.554 60.4017 78.6039 60.0709 80.3485 58.0137L81.7482 56.3435L83.9948 57.0257L84.2653 59.2017C84.6141 61.8904 87.0081 63.8346 89.7112 63.6243L91.8402 63.4714L92.9458 65.5297L91.5932 67.2705C89.9517 69.4139 90.2831 72.4686 92.3459 74.2102L93.9926 75.6099L93.2869 77.9623L91.1815 78.2211C89.9401 78.3397 88.7911 78.9289 87.9704 79.8678L87.6293 80.2677C86.9454 81.2448 86.6288 82.4321 86.7354 83.6199L86.9236 85.7019L84.8652 86.7957L83.1126 85.4078C80.9713 83.774 77.9252 84.105 76.1847 86.1606L74.785 87.8308Z" fill="black"/>
</svg>
