<?xml version="1.0" encoding="UTF-8"?>
<svg width="100px" height="100px" viewBox="0 0 100 100" version="1.1" xmlns="http://www.w3.org/2000/svg" xmlns:xlink="http://www.w3.org/1999/xlink">
    <!-- Generator: Sketch 57.1 (83088) - https://sketch.com -->
    <title>regular/cogs-regular</title>
    <desc>Created with Sketch.</desc>
    <g id="regular/cogs" stroke="none" stroke-width="1" fill="none" fill-rule="evenodd">
        <path d="M83,51.11 L86.45,52.11 C88.3349586,52.6753075 89.6321385,54.4021782 89.65,56.37 L89.91,58.37 L91.91,58.18 C93.865428,57.7877335 95.8441508,58.7383365 96.76,60.51 L98.41,63.61 C99.3456056,65.3371839 99.0410495,67.4731377 97.66,68.87 L96.4,70.45 L98,71.8 C99.6655544,72.9165184 100.391421,75.0003277 99.78,76.91 L98.78,80.24 C98.2435792,82.1435955 96.5175932,83.4665801 94.54,83.49 L92.54,83.74 L92.72,85.74 C93.0770723,87.6414652 92.1899044,89.5603169 90.51,90.52 L87.29,92.24 C85.5520756,93.1813181 83.4026293,92.872513 82,91.48 L80.42,90.22 L79.13,91.76 C78.2935254,93.0033573 76.8984678,93.7551176 75.4,93.77 C75.0632844,93.766642 74.7279503,93.7264019 74.4,93.65 L74.1,93.58 L70.69,92.58 C68.8050414,92.0146925 67.5078615,90.2878218 67.49,88.32 L67.23,86.32 L65.23,86.5 C63.2741302,86.8957965 61.2933696,85.9442146 60.38,84.17 L58.7,81 C57.7677692,79.2722126 58.0720222,77.1383851 59.45,75.74 L60.71,74.16 L59.15,72.86 C57.541852,71.7500789 56.8149745,69.74213 57.34,67.86 L58.34,64.41 C58.9025084,62.5230911 60.6310849,61.2246299 62.6,61.21 L64.6,60.96 L64.41,58.96 C64.0158867,57.0017321 64.9719081,55.0202348 66.75,54.11 L69.84,52.46 C71.5723857,51.525331 73.7122937,51.8339325 75.11,53.22 L76.69,54.48 L78,52.91 C79.1087108,51.3004993 81.1198103,50.5765035 83,51.11 Z M81.94,55.76 L81.83,55.89 L80.28,57.75 C78.7046008,59.6249846 75.9260226,59.9125763 74,58.4 L72,56.76 L69.2,58.24 L69.2,58.41 L69.41,60.82 C69.6010713,63.2329062 67.8696185,65.3730522 65.47,65.69 L62.87,66.01 L62,69 L62.14,69.11 L64,70.69 C65.8396433,72.2534115 66.1299406,74.9848454 64.66,76.9 L63,79 L64.49,81.77 L64.66,81.77 L67.07,81.55 C69.5051011,81.356009 71.6571597,83.1236136 71.94,85.55 L72.25,88 L75.25,88.92 L76.92,86.92 C78.4859505,85.0851676 81.2133743,84.7952965 83.13,86.26 L85.19,87.9 L88,86.45 L88,86.29 L87.79,83.87 C87.6952118,82.8055435 87.9823426,81.7420962 88.6,80.87 L88.88,80.53 C89.6171845,79.6647971 90.6593531,79.1168528 91.79,79 L94.26,78.69 L95.19,75.61 L93.19,73.96 C91.3423395,72.4020243 91.0471728,69.6662248 92.52,67.75 L94.16,65.69 L92.72,63 L92.55,63 L90.13,63.21 C87.71531,63.3954576 85.5768576,61.6609839 85.26,59.26 L84.94,56.67 L81.94,55.76 Z M34.17,27 L38.85,28.42 C41.0659686,29.079228 42.5916995,31.1081255 42.61,33.42 L43,36.59 C43.0498846,36.8619472 43.2939007,37.0545914 43.57,37.04 L46.7,36.76 C48.9993437,36.2725155 51.3409099,37.3818939 52.42,39.47 L54.68,43.7 C55.7819595,45.7403559 55.4117949,48.2623565 53.77,49.9 L51.77,52.37 C51.6176932,52.5922858 51.6564171,52.8934714 51.86,53.07 L54.24,55.07 C56.2097808,56.3701239 57.0724177,58.8231197 56.35,61.07 L55,65.64 C54.3735302,67.8856711 52.331402,69.4417728 50,69.45 L46.87,69.84 C46.7539398,69.8317546 46.6402594,69.8757599 46.56,69.96 L46.46,70.08 C46.4358278,70.1615805 46.4358278,70.2484196 46.46,70.33 L46.74,73.48 C47.1749403,75.7183274 46.1378723,77.9854061 44.16,79.12 L39.79,81.46 C37.7493855,82.5509654 35.2351243,82.1772788 33.6,80.54 L31.13,78.54 C30.9045767,78.3863457 30.5999549,78.4249597 30.42,78.63 L28.42,81.03 C27.4465743,82.5264627 25.7851889,83.4323312 24,83.44 C23.6028536,83.4347182 23.2073566,83.3877949 22.82,83.3 L22.49,83.22 L17.84,81.81 C15.6279899,81.1471587 14.1069648,79.1191253 14.09,76.81 L13.7,73.68 C13.645652,73.406527 13.3984006,73.2146941 13.12,73.23 L9.99999996,73.48 C7.70065624,73.9674845 5.35909007,72.8581061 4.27999995,70.77 L1.99999995,66.54 C0.897150062,64.4981076 1.27174492,61.973664 2.91999995,60.34 L4.91999995,57.87 C5.07230676,57.6477142 5.0335829,57.3465286 4.82999995,57.17 L2.41999995,55.17 C0.485355753,53.8970697 -0.410635646,51.5239033 0.19999995,49.29 L1.61999995,44.6 C2.25530131,42.4579298 4.1747796,40.9628013 6.38984173,40.8560592 L6.61999996,40.85 L9.76999996,40.46 C10.0339422,40.4015032 10.2162353,40.1598588 10.2,39.89 L9.99999996,36.76 C9.51023523,34.4630769 10.6208672,32.122963 12.71,31.05 L16.95,28.78 C18.9906145,27.6890346 21.5048757,28.0627212 23.14,29.7 L25.61,31.7 C25.8354232,31.8536543 26.1400451,31.8150403 26.32,31.61 L28.32,29.2 C29.5984371,27.2905408 31.9501431,26.4061386 34.17,27 Z M84.9571762,63.3495574 C88.8367039,66.066148 90.5418956,70.9609496 89.19,75.5 C88.3612655,78.293047 86.4440907,80.6354599 83.87,82 C82.2686059,82.8764349 80.4754678,83.3436126 78.65,83.36 L78.6,83.36 C73.863949,83.3394822 69.6727064,80.2898515 68.1960131,75.789854 C66.7193197,71.2898566 68.2887267,66.3498441 72.0917767,63.5271838 C75.8948266,60.7045235 81.0776484,60.6329668 84.9571762,63.3495574 Z M32.22,31.88 L32.03,32.14 L29.91,34.67 C28.0775699,36.8179352 24.886383,37.1603184 22.64,35.45 L19.77,33.1 C19.6247054,32.9293169 19.3835735,32.8761861 19.18,32.97 L14.85,35.28 C14.6470836,35.4100882 14.5601634,35.6625706 14.64,35.89 L14.64,36.2 L15,39.5 C15.2157754,42.3191897 13.1926309,44.816303 10.39,45.19 L6.89999996,45.62 L6.69999996,45.62 C6.48926461,45.5942519 6.2892003,45.7192921 6.21999996,45.92 L4.76999995,50.64 C4.72854151,50.8734786 4.84139307,51.1072426 5.04999996,51.22 L5.30999996,51.41 L7.83999996,53.53 C9.99272799,55.3598974 10.3355394,58.5550753 8.61999996,60.8 L6.28999996,63.68 C6.12230873,63.827078 6.06965043,64.0660656 6.15999996,64.27 L8.46999996,68.59 C8.60240768,68.7899426 8.85257316,68.8760652 9.07999996,68.8 L9.39999996,68.8 L12.7,68.51 C15.5241996,68.2894807 18.0258599,70.3207058 18.39,73.13 L18.83,76.61 L18.83,76.81 C18.8368766,77.0206979 18.9657366,77.2081305 19.16,77.29 L23.77,78.63 C23.8499278,78.6348044 23.9300721,78.6348044 24.01,78.63 C24.1823626,78.6200492 24.3390758,78.5267675 24.43,78.38 L24.64,78.07 L26.76,75.54 C28.6035639,73.4261721 31.7715646,73.1067466 34,74.81 L36.89,77.14 C37.0333784,77.313843 37.2768372,77.3674865 37.48,77.27 L41.81,75 C41.999404,74.8596542 42.0828734,74.6171955 42.02,74.39 L42,74 L41.71,70.7 C41.6119443,69.4479691 41.966818,68.2023621 42.71,67.19 L43.02,66.83 C43.8869538,65.8076409 45.1241509,65.1710598 46.46,65.06 L49.86,64.63 L50,64.63 C50.1674262,64.6300851 50.3227988,64.5429249 50.41,64.4 L50.41,64.26 L51.83,59.61 C51.9139719,59.398536 51.8536053,59.1570697 51.68,59.01 L51.34,58.78 L48.81,56.66 C46.6781702,54.8435619 46.323667,51.6836696 48,49.44 L50.33,46.56 C50.5041584,46.4313876 50.5732703,46.2037247 50.5,46 L48.19,41.67 C48.05542,41.4728843 47.8073985,41.3874999 47.58,41.46 L47.26,41.51 L43.97,41.81 C41.1419211,42.0253045 38.6389222,39.9921668 38.27,37.18 L37.83,33.7 L37.83,33.5 C37.8231233,33.2893021 37.6942634,33.1018695 37.5,33.02 L32.81,31.59 C32.573162,31.560734 32.3414956,31.674604 32.22,31.88 Z M78.6,66.09 C77.5532439,66.0969188 76.523796,66.3577123 75.6,66.85 C74.2374412,67.5987365 73.2029635,68.8229643 72.6900183,70.2834489 L72.6,70.56 C71.8815991,72.9904153 72.6969836,75.6143214 74.6663491,77.2095074 C76.6357145,78.8046934 79.371744,79.0574328 81.6,77.85 C83.0592424,77.0683175 84.1410196,75.7305197 84.6,74.14 C85.1689333,72.2502552 84.8057603,70.2025923 83.6216423,68.6237683 C82.4375243,67.0449444 80.5734564,66.1229526 78.6,66.14 L78.6,66.09 Z M38.7961913,45.1968351 C42.2961036,48.9421545 43.4985416,54.2865841 41.94,59.17 C40.1906258,65.0557535 34.8420404,69.1219042 28.7282408,69.2565967 L28.4152912,69.2592732 L28.0581154,69.2560429 C23.7270423,69.1527555 19.6724125,67.0718557 17.0636313,63.5960328 C14.4569797,60.1230473 13.5907437,55.6530267 14.6972423,51.4684536 L14.8,51.1 C16.1628955,46.1584093 20.0900962,42.3392628 25.0677791,41.1147317 C30.0454619,39.8902006 35.296279,41.4515158 38.7961913,45.1968351 Z M28.43,45.73 C26.8525551,45.7328713 25.300123,46.1244139 23.91,46.87 C21.8153475,48.0023779 20.2308938,49.8838004 19.4687959,52.131291 L19.37,52.44 C18.2935419,56.0830213 19.5155884,60.0158713 22.4671142,62.4072854 C25.41864,64.7986996 29.5194215,65.1785635 32.86,63.37 C35.0487954,62.2021109 36.6745789,60.201424 37.37,57.82 C38.0908866,55.4317073 37.8317536,52.8547171 36.6497913,50.6577681 C35.467829,48.4608192 33.4602052,46.82452 31.07,46.11 C30.2123337,45.8594219 29.3235203,45.7314866 28.43,45.73 Z M78.42,6.18999996 L81.87,7.23999996 C83.7510888,7.81084699 85.0457403,9.53435176 85.07,11.5 L85.32,13.5 L87.32,13.32 C89.2763116,12.9206496 91.2591287,13.8732195 92.17,15.65 L93.83,18.74 C94.7648058,20.4656629 94.4646447,22.5992407 93.09,24 L91.83,25.58 L93.37,26.86 C95.0395165,27.987446 95.7613679,30.0836697 95.14,32 L94.14,35.32 C93.6112226,37.2260009 91.887822,38.554201 89.91,38.58 L87.91,38.83 L88.09,40.83 C88.4426563,42.7284192 87.5613977,44.6431537 85.89,45.61 L82.63,47.3 C80.8994961,48.2263044 78.7675246,47.9182629 77.37,46.54 L75.78,45.28 L74.49,46.83 C73.6528992,48.0764727 72.251471,48.8258995 70.75,48.83 C70.413274,48.8268031 70.0779223,48.7865609 69.75,48.71 L69.45,48.64 L66.03,47.64 C64.1508309,47.0664121 62.8574268,45.344568 62.83,43.38 L62.58,41.38 L60.58,41.56 C58.6232468,41.9629282 56.6383543,41.0093613 55.73,39.23 L54.07,36.14 C53.135331,34.4076143 53.4439325,32.2677063 54.83,30.87 L56.09,29.29 L54.53,27.99 C52.9155805,26.8847534 52.1838208,24.8744245 52.71,22.99 L53.76,19.54 C54.3037715,17.6443253 56.0279868,16.3308311 58,16.31 L60,16.06 L59.82,14.06 C59.4242035,12.1041302 60.3757854,10.1233696 62.15,9.20999996 L65.25,7.54999996 C66.9805039,6.62369551 69.1124754,6.93173702 70.51,8.30999996 L72.1,9.56999996 L73.42,7.99999996 C74.5299212,6.39185193 76.53787,5.66497444 78.42,6.18999996 Z M77.29,10.72 L77.18,10.86 L75.6,12.79 C74.042967,14.6314988 71.3144941,14.9263499 69.4,13.46 L67.33,11.82 L64.55,13.3 L64.55,13.47 L64.77,15.89 C64.9477996,18.318039 63.1869078,20.4575226 60.77,20.75 L58.17,21.08 L57.26,24.08 L57.39,24.19 L59.25,25.75 C61.1430701,27.2910021 61.4747332,30.0548614 60,32 L58.35,34 L59.83,36.77 L60,36.77 L62.42,36.56 C64.8534299,36.3713249 67.0022698,38.1362858 67.29,40.56 L67.61,43.1 L70.61,44.02 L72.28,42.02 C73.8395892,40.1833196 76.5640381,39.8889034 78.48,41.35 L80.57,43 L83.35,41.52 L83.35,41.35 L83.13,38.93 C83.0369711,37.8656985 83.3239408,36.8028477 83.94,35.93 L84.22,35.6 C84.9702003,34.7399655 86.0233707,34.2026337 87.16,34.1 L89.63,33.79 L90.57,30.71 L88.57,29.06 C86.7333197,27.5004108 86.4389034,24.7759619 87.9,22.86 L89.54,20.8 L88.07,18 L87.9,18 L85.48,18.22 C83.0498909,18.3981702 80.9073898,16.6384157 80.61,14.22 L80.29,11.64 L77.29,10.72 Z M80.3070455,18.4072527 C84.1918591,21.1255245 85.8977617,26.0271746 84.54,30.57 C83.7176581,33.376377 81.8001954,35.7335587 79.22,37.11 C77.6153113,37.9721536 75.8216283,38.4222925 74,38.4200173 C69.25861,38.4197117 65.0509293,35.3813404 63.559239,30.8807139 C62.0675486,26.3800874 63.6275532,21.430071 67.4301685,18.5979523 C71.2327839,15.7658337 76.4222318,15.6889808 80.3070455,18.4072527 Z M74,21.15 C72.9518271,21.1555311 71.9212697,21.4200408 71,21.92 C69.5522053,22.7106646 68.4743322,24.0400414 68,25.62 C67.5397648,27.2155215 67.7228436,28.9278474 68.51,30.39 C70.1614956,33.4267165 73.9591907,34.5539475 77,32.91 C80.033251,31.2662063 81.1647535,27.4781327 79.53,24.44 C78.7346633,22.9881219 77.3974175,21.9096979 75.81,21.44 C75.2245417,21.2534557 74.6144328,21.1557034 74,21.15 Z" id="Shape" fill="#000000"></path>
    </g>
</svg>