<?xml version="1.0" encoding="UTF-8"?>
<svg width="100px" height="100px" viewBox="0 0 100 100" version="1.1" xmlns="http://www.w3.org/2000/svg" xmlns:xlink="http://www.w3.org/1999/xlink">
    <!-- Generator: Sketch 57.1 (83088) - https://sketch.com -->
    <title>solid/cogs-solid</title>
    <desc>Created with Sketch.</desc>
    <g id="solid/cogs" stroke="none" stroke-width="1" fill="none" fill-rule="evenodd">
        <path d="M78.09,52.98 C79.2037942,51.3768812 81.2081139,50.6513175 83.09,51.17 L86.54,52.17 C88.4249586,52.7353075 89.7221385,54.4621782 89.74,56.43 L90,58.43 L92,58.25 C93.9501804,57.8568819 95.923811,58.8089645 96.83,60.58 L98.48,63.67 C99.4156056,65.3971839 99.1110495,67.5331377 97.73,68.93 L96.47,70.51 L98,71.8 C99.6492815,72.919576 100.365457,74.9907894 99.76,76.89 L98.76,80.22 C98.2235792,82.1235955 96.4975932,83.4465801 94.52,83.47 L92.52,83.73 L92.7,85.73 C93.0570723,87.6314652 92.1699044,89.5503169 90.49,90.51 L87.27,92.23 C85.5391405,93.163865 83.4016099,92.8596623 82,91.48 L80.4,90.16 L79.11,91.7 C78.2692729,92.942456 76.8701438,93.6906533 75.37,93.7 C75.0332844,93.696642 74.6979503,93.6564019 74.37,93.58 L74.07,93.51 L70.66,92.51 C68.7750414,91.9446925 67.4778615,90.2178218 67.46,88.25 L67.2,86.25 L65.2,86.43 C63.2445721,86.8222665 61.2658492,85.8716636 60.35,84.1 L58.7,81 C57.8055708,79.2673895 58.1374149,77.1549186 59.52,75.78 L60.78,74.2 L59.22,72.9 C57.611852,71.7900789 56.8849745,69.78213 57.41,67.9 L58.41,64.46 C58.9660548,62.5671705 60.6972255,61.2626968 62.67,61.25 L64.67,61 L64.48,59 C64.1073497,57.0473002 65.0690553,55.0831387 66.84,54.18 L69.93,52.53 C71.6629836,51.5987057 73.8007666,51.9070008 75.2,53.29 L76.78,54.55 L78.09,52.98 Z M33.9304885,26.9424808 L34.16,27 L38.85,28.43 C40.9902181,29.0699625 42.4860703,30.9855919 42.602867,33.1999074 L42.61,33.43 L43,36.55 C43.040626,36.7939474 43.2400959,36.9749652 43.4788565,36.9986693 L43.57,37 L46.73,36.76 C48.9518824,36.2956823 51.2101233,37.3150167 52.3374609,39.2649823 L52.45,39.47 L54.71,43.7 C55.7739609,45.6699988 55.465573,48.0889981 53.9652965,49.7274899 L53.8,49.9 L51.8,52.37 C51.6667315,52.5645001 51.6797209,52.8194078 51.8214353,52.9983561 L51.89,53.07 L54.27,55.07 C56.1748247,56.3307301 57.0409436,58.66979 56.4376672,60.8545873 L56.37,61.08 L54.99,65.64 C54.3844126,67.8108154 52.4559709,69.3372665 50.2221342,69.4440495 L49.99,69.45 L46.77,69.85 C46.7047152,69.8568149 46.6426955,69.8803744 46.5897313,69.9179093 L46.54,69.96 L46.45,70.08 C46.4333318,70.1365756 46.4277757,70.1955556 46.4333318,70.2537341 L46.45,70.34 L46.73,73.48 C47.1499423,75.6411437 46.1976439,77.8290901 44.3512297,78.9986361 L44.15,79.12 L39.78,81.46 C37.8097515,82.5133459 35.3979584,82.2013087 33.7622313,80.704858 L33.59,80.54 L31.12,78.54 C30.9189417,78.4153942 30.6651083,78.4320299 30.4831957,78.5723443 L30.41,78.64 L28.41,81.03 C27.4373098,82.5132394 25.7837304,83.4076755 24.01,83.41 C23.7143838,83.41 23.4195711,83.3833486 23.1290126,83.330949 L22.84,83.27 L22.5,83.19 L17.85,81.78 C15.7117236,81.1392534 14.2191343,79.2228106 14.1066799,77.0099354 L14.1,76.78 L13.71,73.65 C13.6652914,73.4047073 13.4628677,73.2242539 13.2219259,73.2011202 L13.13,73.2 L9.99999996,73.48 C7.77371233,73.9589281 5.50351503,72.9419365 4.37285168,70.9856972 L4.25999995,70.78 L1.99999995,66.54 C0.908796442,64.5798271 1.19820343,62.1507402 2.695015,60.5034472 L2.85999995,60.33 L4.85999995,57.85 C4.99326841,57.6554999 4.98027901,57.4005922 4.83856467,57.221644 L4.76999995,57.15 L2.35999995,55.15 C0.521922662,53.9075841 -0.351953536,51.6659013 0.141841521,49.5195514 L0.19999995,49.29 L1.69999995,44.6 C2.33803217,42.459831 4.2559868,40.9659769 6.46995335,40.8563705 L6.69999996,40.85 L9.84999996,40.46 C10.0868147,40.4114546 10.2586936,40.2131008 10.279463,39.979169 L10.28,39.89 L9.99999996,36.76 C9.50409312,34.5317088 10.5198565,32.2508569 12.4835057,31.1225596 L12.69,31.01 L16.93,28.74 C18.9002485,27.6866541 21.3120416,27.9986913 22.9477686,29.495142 L23.12,29.66 L25.59,31.66 C25.7872453,31.7944475 26.0451271,31.7816896 26.2270713,31.6390384 L26.3,31.57 L28.3,29.16 C29.546256,27.3268288 31.7846172,26.4543949 33.9304885,26.9424808 Z M86.24,68.3 C84.5828401,65.2157485 81.2298325,63.4346628 77.7464852,63.7883259 C74.2631378,64.141989 71.3365282,66.560642 70.3330806,69.9150241 C69.329633,73.2694062 70.4472736,76.8978777 73.16418,79.1063175 C75.8810863,81.3147574 79.6613584,81.6675588 82.74,80 C86.9214241,77.7226797 88.483933,72.4994357 86.24,68.3 Z M27.2131479,43.4038721 C22.4763556,43.887397 18.4974816,47.1771845 17.1324522,51.7387294 C15.7674228,56.3002743 17.285162,61.2349079 20.9777278,64.2408944 C24.6702937,67.2468809 29.8102147,67.7320117 34,65.47 C39.7028216,62.372408 41.8338818,55.2510033 38.77,49.53 C36.5114565,45.3383441 31.9499402,42.9203472 27.2131479,43.4038721 Z M78.18231,6.11460245 L78.4,6.16999996 L81.89,7.22999996 C83.7039071,7.78045959 84.9725172,9.4027145 85.0825707,11.2803628 L85.09,11.49 L85.34,13.49 L87.34,13.31 C89.2260173,12.9283391 91.1351793,13.7995338 92.0881044,15.4530773 L92.19,15.64 L93.85,18.73 C94.7487203,20.3957554 94.497967,22.4382881 93.2451398,23.8354978 L93.09,24 L91.83,25.58 L93.37,26.86 C94.9272515,27.9567814 95.6236012,29.9059105 95.1320124,31.7301238 L95.07,31.94 L94.07,35.26 C93.5601075,37.0979295 91.9393983,38.3985925 90.0508932,38.5122851 L89.84,38.52 L87.84,38.77 L88.02,40.77 C88.3590926,42.5954031 87.5573615,44.4358906 86.0093218,45.4342891 L85.82,45.55 L82.59,47.27 C80.9266227,48.1639053 78.8895692,47.9132028 77.4942882,46.6646114 L77.33,46.51 L75.74,45.25 L74.45,46.8 C73.6128992,48.0464727 72.211471,48.7958995 70.71,48.8 C70.4574633,48.7974815 70.2057037,48.7742168 69.9572534,48.7305098 L69.71,48.68 L69.42,48.61 L66,47.61 C64.2019171,47.0646498 62.9379153,45.4653723 62.8097173,43.6056893 L62.8,43.39 L62.55,41.39 L60.55,41.57 C58.6690371,41.9519943 56.7640548,41.0847056 55.8118321,39.436342 L55.71,39.25 L54.05,36.15 C53.1495767,34.4877794 53.4005996,32.4468173 54.6547024,31.0539655 L54.81,30.89 L56.07,29.31 L54.51,28 C52.9576736,26.9372628 52.2214157,25.0377263 52.6348482,23.2179337 L52.69,23 L53.76,19.45 C54.3024188,17.6304807 55.9291024,16.3581276 57.8100066,16.2564484 L58.02,16.25 L60.02,16 L59.84,14 C59.4724019,12.1235126 60.3420611,10.2302992 61.9843657,9.28148815 L62.17,9.17999996 L65.27,7.51999996 C66.9339461,6.6293226 68.9690715,6.87986747 70.3655524,8.12572846 L70.53,8.27999996 L72.1,9.53999996 L73.4,7.97999996 C74.4653496,6.43126542 76.3644858,5.69904436 78.18231,6.11460245 L78.18231,6.11460245 Z M73.1064852,18.7883259 C69.6231378,19.1419889 66.6965282,21.560642 65.6930806,24.9150241 C64.689633,28.2694062 65.8072736,31.8978777 68.52418,34.1063175 C71.2410863,36.3147573 75.0213584,36.6675588 78.1,35 C82.2860091,32.7264 83.8498078,27.4988443 81.6,23.3 C79.9428401,20.2157484 76.5898325,18.4346628 73.1064852,18.7883259 Z" id="Shape" fill="#000000"></path>
    </g>
</svg>