<svg width="100" height="100" viewBox="0 0 100 100" fill="none" xmlns="http://www.w3.org/2000/svg">
<g clip-path="url(#clip0)">
<path fill-rule="evenodd" clip-rule="evenodd" d="M92.1122 25.8367L93.1589 26.7188C94.9816 27.9925 95.7554 30.3093 95.0642 32.4228L94.0763 35.6923C93.4715 37.8038 91.5675 39.2794 89.3719 39.3382L88.0782 39.5029L88.1958 40.8789C88.5633 42.995 87.5541 45.1124 85.679 46.1595L82.4682 47.8766C80.5398 48.9224 78.1549 48.5885 76.5878 47.0534L75.494 46.1831L74.6002 47.2416C73.6644 48.6243 72.1064 49.4561 70.4368 49.4644C70.0687 49.4592 69.7022 49.4158 69.343 49.335L68.9902 49.2527L65.6148 48.2295C63.5607 47.5674 62.147 45.6824 62.0866 43.5251L61.9219 42.1373L60.4988 42.2667C58.3175 42.6821 56.1222 41.6156 55.1006 39.644L53.4776 36.5979C52.4318 34.6695 52.7657 32.2846 54.3008 30.7175L55.1711 29.6237L54.0891 28.7299C52.2981 27.475 51.5 25.2224 52.1015 23.1199L53.1365 19.7092C53.7769 17.6398 55.6749 16.2163 57.8409 16.181L59.2287 16.0046L59.111 14.5932C58.6792 12.4097 59.7503 10.2051 61.7337 9.19498L64.7563 7.52493C66.6833 6.47124 69.0732 6.80583 70.6367 8.34819L71.7305 9.26555L72.6479 8.18354C73.8889 6.40973 76.112 5.60903 78.199 6.18418L81.6685 7.25443C83.7313 7.90427 85.1505 9.79654 85.1968 11.9588L85.3732 13.3466L86.7845 13.2172C88.9664 12.7977 91.1639 13.8654 92.1827 15.8399L93.8058 18.8742C94.8515 20.8026 94.5176 23.1876 92.9825 24.7547L92.1122 25.8367ZM69.0606 35.1537C71.7184 36.7578 75.0374 36.7929 77.7286 35.2454C79.7212 34.1593 81.2002 32.3257 81.84 30.1483C82.4797 27.971 82.2276 25.6287 81.1393 23.6374C78.8925 19.5201 73.7391 17.9951 69.6135 20.2267C66.8443 21.6297 65.0547 24.4251 64.9398 27.5273C64.8249 30.6296 66.4027 33.5497 69.0606 35.1537Z" fill="black"/>
<path fill-rule="evenodd" clip-rule="evenodd" d="M54.548 54.5804L52.2664 52.6751L54.1363 50.3229C55.9218 48.5233 56.3183 45.7668 55.1125 43.5368L52.9132 39.3852C51.7276 37.0802 49.1441 35.856 46.6094 36.398L43.6574 36.7273L43.281 33.6812C43.256 31.1414 41.5842 28.9122 39.1529 28.1771L34.4486 26.7658C32.0253 26.0966 29.4448 27.0419 28.0271 29.118L26.0983 31.4701L23.7461 29.6002C21.9465 27.8147 19.19 27.4182 16.9601 28.624L12.785 30.8468C10.4951 32.0237 9.26906 34.5814 9.78592 37.1036L10.1035 40.1027L7.11619 40.479C4.57577 40.491 2.34159 42.1619 1.61208 44.5953L0.212527 49.1821C-0.456612 51.6053 0.488655 54.1859 2.56471 55.6036L4.91689 57.5441L3.05867 59.8963C1.27092 61.6987 0.870009 64.4573 2.07075 66.6941L4.30533 70.8575C5.49742 73.1356 8.05679 74.3456 10.5739 73.8212L13.5141 73.4919L13.8787 76.5615C13.8983 79.0994 15.5662 81.3296 17.995 82.0656L22.5936 83.4534L22.9817 83.5475C23.4025 83.6427 23.8322 83.6939 24.2636 83.7004C26.1946 83.6801 27.9925 82.713 29.0738 81.113L31.0026 78.7608L33.3548 80.619C35.1498 82.4121 37.9091 82.8138 40.1409 81.6069L44.4689 79.2548C46.6227 78.0074 47.7579 75.5391 47.3032 73.092L47.0327 70.2224L50.0083 69.846C52.5591 69.8209 54.7872 68.115 55.4771 65.6591L56.8414 61.1782C57.6074 58.714 56.6773 56.0382 54.548 54.5804ZM34.0957 65.3416C29.9529 67.586 24.8657 67.1122 21.2085 64.1415C17.5512 61.1707 16.045 56.2886 17.3927 51.7737C18.7405 47.2588 22.6765 44.0012 27.3637 43.5213C32.051 43.0414 36.5654 45.4338 38.8001 49.582C41.8309 55.2352 39.7296 62.2748 34.0957 65.3416Z" fill="black"/>
<path fill-rule="evenodd" clip-rule="evenodd" d="M97.7575 71.1163L96.699 70.2342L97.5693 69.1405C99.1044 67.5734 99.4383 65.1884 98.3926 63.26L96.7696 60.2257C95.7536 58.2482 93.5538 57.1794 91.3713 57.603L89.96 57.7206L89.7836 56.3328C89.7409 54.1693 88.3203 52.2752 86.2553 51.6285L82.8447 50.5817C80.7579 50.0139 78.5389 50.8131 77.2935 52.5811L76.3879 53.6631L75.2589 52.781C73.6882 51.2531 71.3083 50.9199 69.3784 51.9578L66.3206 53.5808C64.3461 54.5996 63.2784 56.7971 63.6979 58.979L63.8273 60.3903L62.4277 60.5667C60.2431 60.6027 58.3363 62.0566 57.7233 64.1538L56.6766 67.5645C56.1015 69.6515 56.9022 71.8747 58.676 73.1157L59.758 74.0212L58.8877 75.1033C57.3526 76.6704 57.0187 79.0553 58.0644 80.9837L59.6992 84.0298C60.7109 86.0054 62.9066 87.0744 65.0857 86.6525L66.5087 86.5231L66.6852 87.9226C66.7278 90.0861 68.1484 91.9803 70.2134 92.627L73.5888 93.6502L73.9416 93.7325C74.2998 93.8192 74.667 93.8626 75.0354 93.8619C76.7018 93.8523 78.2576 93.0261 79.1988 91.6509L80.0926 90.5806L81.1864 91.4509C82.7535 92.986 85.1384 93.3199 87.0668 92.2742L90.2658 90.5689C92.1313 89.4983 93.1205 87.369 92.7356 85.2529L92.6062 83.8886L94.0763 83.724C96.2727 83.6781 98.1816 82.2034 98.7807 80.0899L99.7686 76.8203C100.438 74.6834 99.6195 72.3606 97.7575 71.1163ZM82.3154 79.6312C79.2763 81.2736 75.547 80.9229 72.8673 78.7428C70.1876 76.5626 69.0857 72.9826 70.0756 69.6729C71.0654 66.3632 73.9521 63.9761 77.3887 63.6252C80.8254 63.2744 84.1348 65.0289 85.7731 68.0702C88.0004 72.2186 86.4546 77.3869 82.3154 79.6312Z" fill="black"/>
</g>
<defs>
<clipPath id="clip0">
<rect width="100" height="100" fill="white"/>
</clipPath>
</defs>
</svg>
