<?xml version="1.0" encoding="UTF-8"?>
<svg width="100px" height="100px" viewBox="0 0 100 100" version="1.1" xmlns="http://www.w3.org/2000/svg" xmlns:xlink="http://www.w3.org/1999/xlink">
    <!-- Generator: Sketch 57.1 (83088) - https://sketch.com -->
    <title>regular/color-palette-regular</title>
    <desc>Created with Sketch.</desc>
    <g id="regular/color-palette" stroke="none" stroke-width="1" fill="none" fill-rule="evenodd">
        <path d="M50,-4.9999997e-08 C77.3408292,-4.9999997e-08 99.5049505,22.1641213 99.5049505,49.5049505 C99.5049505,76.8457797 77.3408292,99.0110655 50,99.0110655 C47.2811428,99.0393546 44.6650517,97.9722979 42.7424165,96.0496627 C40.8197814,94.1270276 39.7527247,91.5109364 39.7821782,88.7920792 C39.7436909,86.2005108 40.7500158,83.702541 42.5742574,81.8613862 C43.4957524,80.9058972 44.001268,79.6243083 43.980198,78.2970297 C44.0129943,76.8272173 43.4435479,75.4078754 42.4039749,74.3683024 C41.4293751,73.3937027 40.1209942,72.8323002 38.7501655,72.7929552 L29.0396039,72.7920792 C13.2916414,72.7702941 0.527763125,60.0152703 0.495049455,44.2673267 C0.495049455,19.8613861 22.7029703,-4.9999997e-08 50,-4.9999997e-08 Z M50,4.71287124 C25.3069307,4.71287124 5.20792075,22.4554455 5.20792075,44.3168317 C5.24607567,57.4564532 15.8999372,68.0926099 29.0396039,68.1089109 L38.4752475,68.1089109 C41.1941047,68.0794574 43.8101958,69.1465141 45.732831,71.0691492 C47.6554661,72.9917844 48.7225228,75.6078755 48.6930693,78.3267327 C48.7282044,80.917676 47.7223822,83.4143977 45.9009901,85.2574258 C44.9729078,86.2086651 44.4662648,87.4931121 44.4950495,88.8217822 C44.4704527,90.2864926 45.0435193,91.6980356 46.0821703,92.7310824 C47.1208213,93.7641292 48.5354441,94.3295506 50,94.2970297 C74.737982,94.2970294 94.7920786,74.2429325 94.7920786,49.5049505 C94.7920786,24.7669685 74.737982,4.71287124 50,4.71287124 Z M74.8052294,33.940662 C80.4432071,33.9479353 85.0098587,38.5204334 85.009901,44.1584158 C85.0395666,46.8842305 83.9671097,49.5064944 82.0358288,51.4303187 C80.1045479,53.3541429 77.4781548,54.4164477 74.7524753,54.3762376 C69.1145352,54.354385 64.5597372,49.7700791 64.5742221,44.1321155 C64.5888458,38.4941519 69.1672517,33.9334233 74.8052294,33.940662 Z M30.5049505,31.5346534 C36.1480976,31.5346534 40.7227723,36.1093281 40.7227723,41.7524752 C40.7522258,44.4713324 39.6851691,47.0874235 37.7625339,49.0100587 C35.8398988,50.9326938 33.2238076,51.9997506 30.5049505,51.970297 C24.8618033,51.970297 20.2871287,47.3956224 20.2871287,41.7524752 C20.2871287,36.1093281 24.8618033,31.5346534 30.5049505,31.5346534 Z M74.7524753,38.6138614 C71.7225972,38.6357386 69.2799957,41.1019694 69.2872557,44.1319176 C69.2945806,47.1618659 71.7490252,49.6163105 74.7789735,49.6236354 C77.8089217,49.6308954 80.2751525,47.1882939 80.2970297,44.1584158 C80.3413477,42.6747659 79.7714345,41.2385904 78.7218676,40.1890235 C77.6723007,39.1394566 76.2361252,38.5695434 74.7524753,38.6138614 Z M30.5049505,36.2475247 C27.4646503,36.2475247 25,38.712175 25,41.7524752 C25,44.7927754 27.4646503,47.2574257 30.5049505,47.2574257 C33.5452507,47.2574257 36.009901,44.7927754 36.009901,41.7524752 C36.0426972,40.2826628 35.4732509,38.8633209 34.4336778,37.8237479 C33.3941048,36.7841748 31.9747629,36.2147285 30.5049505,36.2475247 Z M50,12.980198 C55.6431472,12.980198 60.2178218,17.5548726 60.2178218,23.1980198 C60.2472753,25.9168769 59.1802186,28.5329681 57.2575835,30.4556032 C55.3349483,32.3782384 52.7188572,33.4452951 50,33.4158416 C44.3568528,33.4158416 39.7821782,28.8411669 39.7821782,23.1980198 C39.7821782,17.5548726 44.3568528,12.980198 50,12.980198 Z M50.274918,17.6939453 L50,17.6930693 C48.5301876,17.660273 47.1108457,18.2297194 46.0712727,19.2692924 C45.0316996,20.3088655 44.4622532,21.7282073 44.4950495,23.1980198 C44.4950495,26.23832 46.9596998,28.7029703 50,28.7029703 C53.0403002,28.7029703 55.5049505,26.23832 55.5049505,23.1980198 C55.5377468,21.7282073 54.9683004,20.3088655 53.9287273,19.2692924 C52.9541276,18.2946927 51.6457467,17.7332902 50.274918,17.6939453 Z" id="Shape" fill="#000000"></path>
    </g>
</svg>