<?xml version="1.0" encoding="UTF-8"?>
<svg width="100px" height="100px" viewBox="0 0 100 100" version="1.1" xmlns="http://www.w3.org/2000/svg" xmlns:xlink="http://www.w3.org/1999/xlink">
    <!-- Generator: Sketch 57.1 (83088) - https://sketch.com -->
    <title>solid/color-palette-solid</title>
    <desc>Created with Sketch.</desc>
    <g id="solid/color-palette" stroke="none" stroke-width="1" fill="none" fill-rule="evenodd">
        <path d="M50,-4.9999997e-08 C22.7029703,-4.9999997e-08 0.495049455,19.8613861 0.495049455,44.2673267 C0.511410737,60.0268705 13.2800668,72.7999555 29.0396039,72.8217822 L38.4752475,72.8217822 C39.94506,72.7889859 41.3644018,73.3584323 42.4039749,74.3980054 C43.4435479,75.4375784 44.0129943,76.8569203 43.980198,78.3267327 C44.001268,79.6540112 43.4957524,80.9356002 42.5742574,81.8910891 C40.7500158,83.732244 39.7436909,86.2302137 39.7821782,88.8217822 C39.7607558,91.5355138 40.831358,94.1438944 42.753107,96.0600569 C44.674856,97.9762194 47.2863423,99.0392236 50,99.010492 C77.3408288,99.010492 99.5049495,76.8457793 99.5049495,49.5049505 C99.5049495,22.1641217 77.3408288,-4.9999997e-08 50,-4.9999997e-08 Z M30.5049505,49.6138614 C26.1632268,49.6138614 22.6435643,46.0941989 22.6435643,41.7524752 C22.6435643,37.4107516 26.1632268,33.8910891 30.5049505,33.8910891 C34.8466742,33.8910891 38.3663366,37.4107516 38.3663366,41.7524752 C38.4043141,43.8488563 37.5882644,45.8705722 36.1056559,47.3531807 C34.6230474,48.8357891 32.6013315,49.6518389 30.5049505,49.6138614 L30.5049505,49.6138614 Z M50,31.0594059 C47.903619,31.0973834 45.881903,30.2813337 44.3992946,28.7987252 C42.9166861,27.3161167 42.1006364,25.2944008 42.1386139,23.1980198 C42.1386139,18.8562961 45.6582763,15.3366336 50,15.3366336 C54.3417237,15.3366336 57.8613861,18.8562961 57.8613861,23.1980198 C57.8993636,25.2944008 57.0833139,27.3161167 55.6007054,28.7987252 C54.118097,30.2813337 52.096381,31.0973834 50,31.0594059 L50,31.0594059 Z M74.7524753,52.019802 C70.4186358,51.9870516 66.928802,48.4530194 66.9504929,44.1191109 C66.9723869,39.7852025 70.497584,36.2864443 74.8315337,36.2972536 C79.1654834,36.3081131 82.6731436,39.8244526 82.6732674,44.1584158 C82.7117921,46.2653356 81.8876811,48.2964961 80.3920167,49.780943 C78.8963522,51.26539 76.8590453,52.0741868 74.7524753,52.019802 L74.7524753,52.019802 Z" id="color-palette" fill="#000000"></path>
    </g>
</svg>