<?xml version="1.0" encoding="UTF-8"?>
<svg width="100px" height="100px" viewBox="0 0 100 100" version="1.1" xmlns="http://www.w3.org/2000/svg" xmlns:xlink="http://www.w3.org/1999/xlink">
    <!-- Generator: Sketch 57.1 (83088) - https://sketch.com -->
    <title>bold/color-palette-bold</title>
    <desc>Created with Sketch.</desc>
    <g id="bold/color-palette" stroke="none" stroke-width="1" fill="none" fill-rule="evenodd">
        <path d="M50,-5.00000255e-08 C77.3408292,-5.00000255e-08 99.5049505,22.1641213 99.5049505,49.5049505 C99.5049505,76.8457797 77.3408292,99.0110809 50,99.0110809 C46.8076739,99.0419872 43.7367488,97.7880112 41.4793193,95.5305817 C39.2218899,93.2731522 37.9679139,90.2022271 38,87.009901 C37.9690225,83.9502596 39.1633724,81.0053848 41.3168317,78.8316832 C41.7787944,78.3400785 42.0248072,77.6840445 42,77.009901 C42.0279564,76.2138878 41.724002,75.4420287 41.1607886,74.8788154 C40.6445097,74.3625364 39.9529105,74.064107 39.2280963,74.0394876 L30,74.039604 C13.7216265,74.017816 0.527766218,60.8328107 0.495049455,44.5544554 C0.495049455,19.970297 22.7029703,-5.00000255e-08 50,-5.00000255e-08 Z M50,8.99999996 C27.6633663,8.99999996 9.49504946,24.930693 9.49504946,44.5544554 C9.53320414,55.8551645 18.6992317,64.9990626 30,65.009901 L39,65.009901 C42.1906179,64.9804915 45.2589733,66.2356494 47.5142453,68.4927838 C49.7695173,70.7499181 51.0221421,73.8193085 50.990099,77.009901 C51.0131262,80.0544354 49.823217,82.9828946 47.6831683,85.1485149 C47.221925,85.6546801 46.9860754,86.3264939 47.029703,87.009901 C47.0017465,87.8059143 47.3057009,88.5777733 47.8689143,89.1409867 C48.4321277,89.7042001 49.2039868,90.0081545 50,89.9801981 C71.9350459,89.3860374 89.408184,71.4331906 89.408184,49.490099 C89.408184,27.5470075 71.9350459,9.59416061 50,8.99999996 Z M78.2090589,33.3215626 C82.7011239,35.1724721 85.6355389,39.5474995 85.6435644,44.4059406 C85.6836053,47.599921 84.4358837,50.6754895 82.1818828,52.9388045 C79.9278819,55.2021194 76.8574848,56.4625131 73.6633664,56.4356436 C68.8049335,56.4476529 64.4178427,53.5313041 62.548425,49.0469098 C60.6790073,44.5625156 61.6955549,39.3935421 65.1239056,35.9510247 C68.5522562,32.5085073 73.7169939,31.4706531 78.2090589,33.3215626 Z M35.9867042,31.0052069 C40.4753942,32.8666503 43.400044,37.2495597 43.3960396,42.1089109 C43.4281257,45.301237 42.1741497,48.3721621 39.9167203,50.6295916 C37.6592908,52.887021 34.5883657,54.140997 31.3960396,54.1089109 C26.5366884,54.1129153 22.153779,51.1882655 20.2923356,46.6995755 C18.4308921,42.2108855 19.4577789,37.0428129 22.8938602,33.6067315 C26.3299416,30.1706502 31.4980142,29.1437634 35.9867042,31.0052069 Z M73.6633664,41.3960396 L73.6633664,41.4257426 C72.0229166,41.4257426 70.6930693,42.7555898 70.6930693,44.3960396 C70.6930693,46.0364894 72.0229166,47.3663366 73.6633664,47.3663366 C75.3038161,47.3663366 76.6336634,46.0364894 76.6336634,44.3960396 C76.6670964,43.5958099 76.3659216,42.8177759 75.8024047,42.2486239 C75.2388878,41.6794719 74.4638891,41.3705705 73.6633664,41.3960396 Z M31.3960396,39.0990099 C29.7555898,39.0990099 28.4257426,40.4288572 28.4257426,42.0693069 C28.4257426,43.7097567 29.7555898,45.039604 31.3960396,45.039604 C33.0364893,45.039604 34.3663366,43.7097567 34.3663366,42.0693069 C34.3913345,41.274135 34.086428,40.5040169 33.5238788,39.9414677 C32.9613296,39.3789185 32.1912115,39.074012 31.3960396,39.0990099 Z M50,12.3960396 C56.627417,12.3960396 62,17.7686226 62,24.3960396 C62.0347657,27.5900732 60.7819731,30.6635693 58.524248,32.9231571 C56.266523,35.182745 53.1940612,36.438072 50,36.4059406 C46.8059388,36.438072 43.733477,35.182745 41.475752,32.9231571 C39.2180269,30.6635693 37.9652343,27.5900732 38,24.3960396 C38,17.7686226 43.372583,12.3960396 50,12.3960396 Z M50,21.3960396 C49.2039868,21.3680831 48.4321277,21.6720375 47.8689143,22.2352509 C47.3057009,22.7984643 47.0017465,23.5703234 47.029703,24.3663366 C47.029703,26.0231909 48.3728487,27.3663366 50.029703,27.3663366 C51.6865572,27.3663366 53.029703,26.0231909 53.029703,24.3663366 C53.0588011,23.5595226 52.7468859,22.7777361 52.1703874,22.2125414 C51.5938889,21.6473468 50.8060797,21.3509722 50,21.3960396 Z" id="Shape" fill="#000000"></path>
    </g>
</svg>