<svg width="100" height="100" viewBox="0 0 100 100" fill="none" xmlns="http://www.w3.org/2000/svg">
<g clip-path="url(#clip0)">
<path d="M50 0C22.4353 0 0 20.0824 0 44.7765C0.0194472 60.8301 13.0287 73.8394 29.0824 73.8588H38.4941C39.8227 73.8002 41.1141 74.3065 42.0488 75.2525C42.9836 76.1984 43.4744 77.4957 43.4 78.8235C43.4432 79.9857 43.0196 81.1169 42.2235 81.9647C40.3036 83.9083 39.2404 86.5388 39.2706 89.2706C39.2548 92.121 40.3802 94.8592 42.3958 96.8748C44.4113 98.8904 47.1496 100.016 50 100C77.6142 100 100 77.6142 100 50C100 22.3858 77.6142 0 50 0ZM30.5882 50.1059C26.2544 50.1059 22.7412 46.5926 22.7412 42.2588C22.7412 37.925 26.2544 34.4118 30.5882 34.4118C34.922 34.4118 38.4353 37.925 38.4353 42.2588C38.474 44.3516 37.6597 46.3701 36.1796 47.8502C34.6995 49.3303 32.681 50.1446 30.5882 50.1059ZM50 31.5882C47.9072 31.6269 45.8887 30.8126 44.4086 29.3326C42.9285 27.8525 42.1142 25.834 42.1529 23.7412C42.1529 19.4074 45.6662 15.8941 50 15.8941C54.3338 15.8941 57.8471 19.4074 57.8471 23.7412C57.8858 25.834 57.0715 27.8525 55.5914 29.3326C54.1113 30.8126 52.0928 31.6269 50 31.5882ZM74.7059 52.5059C71.531 52.4915 68.6776 50.5655 67.477 47.6264C66.2764 44.6873 66.9651 41.3143 69.2218 39.0811C71.4786 36.848 74.8586 36.1947 77.7849 37.4262C80.7113 38.6576 82.6072 41.5311 82.5882 44.7059C82.6108 46.7896 81.7897 48.7939 80.3118 50.2629C78.8339 51.732 76.8247 52.5409 74.7412 52.5059H74.7059Z" fill="black"/>
</g>
<defs>
<clipPath id="clip0">
<rect width="100" height="100" fill="white"/>
</clipPath>
</defs>
</svg>
