<svg width="100" height="100" viewBox="0 0 100 100" fill="none" xmlns="http://www.w3.org/2000/svg">
<g clip-path="url(#clip0)">
<path fill-rule="evenodd" clip-rule="evenodd" d="M19.7998 42.2589C19.7998 48.2171 24.6299 53.0472 30.588 53.0472C33.4589 53.079 36.2215 51.9526 38.2516 49.9225C40.2817 47.8924 41.4081 45.1298 41.3763 42.2589C41.3763 36.3008 36.5462 31.4707 30.588 31.4707C24.6299 31.4707 19.7998 36.3008 19.7998 42.2589ZM25.6822 42.2589C25.6822 39.5495 27.8786 37.3531 30.588 37.3531C33.2975 37.3531 35.4939 39.5495 35.4939 42.2589C35.4939 44.9684 33.2975 47.1648 30.588 47.1648C27.8786 47.1648 25.6822 44.9684 25.6822 42.2589Z" fill="black"/>
<path fill-rule="evenodd" clip-rule="evenodd" d="M50.0001 34.5296C44.042 34.5296 39.2119 29.6995 39.2119 23.7414C39.2119 17.7832 44.042 12.9531 50.0001 12.9531C55.9583 12.9531 60.7884 17.7832 60.7884 23.7414C60.8202 26.6122 59.6938 29.3748 57.6637 31.4049C55.6336 33.435 52.871 34.5614 50.0001 34.5296ZM50.0001 18.8237C48.6844 18.7666 47.405 19.2635 46.4726 20.1936C45.5403 21.1237 45.0403 22.402 45.0943 23.7178C45.0943 26.4273 47.2907 28.6237 50.0001 28.6237C52.7096 28.6237 54.906 26.4273 54.906 23.7178C54.9599 22.402 54.46 21.1237 53.5277 20.1936C52.5953 19.2635 51.3159 18.7666 50.0001 18.8237Z" fill="black"/>
<path fill-rule="evenodd" clip-rule="evenodd" d="M64.7701 48.7762C66.4371 52.8133 70.3739 55.4469 74.7416 55.4469C77.6042 55.4785 80.3595 54.3586 82.3882 52.3387C84.4169 50.3188 85.5489 47.5685 85.5298 44.7057C85.5489 40.3381 82.9325 36.3899 78.9028 34.7052C74.873 33.0205 70.2251 33.9319 67.1299 37.0136C64.0348 40.0952 63.1031 44.7391 64.7701 48.7762ZM71.1914 41.1425C72.1258 40.1992 73.4151 39.6945 74.7416 39.7528V39.7998C77.451 39.7998 79.6475 41.9963 79.6475 44.7057C79.6475 47.4152 77.451 49.6116 74.7416 49.6116C73.4317 49.6408 72.1668 49.1334 71.2404 48.2069C70.3139 47.2805 69.8065 46.0156 69.8357 44.7057C69.7647 43.3799 70.2571 42.0858 71.1914 41.1425Z" fill="black"/>
<path fill-rule="evenodd" clip-rule="evenodd" d="M42.3365 96.8753C44.3666 98.9054 47.1291 100.032 50 100.001C77.6142 100.001 100 77.6142 100 50C100 22.3858 77.6142 0 50 0C22.4353 0 0 20.0824 0 44.7765C0.0193475 60.8072 12.9928 73.807 29.0235 73.8588H38.4353C39.7532 73.8015 41.0346 74.3 41.9673 75.2327C42.9 76.1655 43.3985 77.4469 43.3412 78.7647C43.3844 79.9269 42.9607 81.058 42.1647 81.9059C40.2448 83.8495 39.1816 86.48 39.2118 89.2118C39.1799 92.0826 40.3063 94.8452 42.3365 96.8753ZM5.88235 44.7765C5.88235 23.3294 25.6706 5.88235 50 5.88235C74.3655 5.88235 94.1176 25.6345 94.1176 50C94.1176 74.3655 74.3655 94.1176 50 94.1176C48.6927 94.1739 47.4211 93.6833 46.4903 92.7637C45.5595 91.8441 45.0537 90.5784 45.0941 89.2706C45.0612 88.0991 45.5073 86.9647 46.3294 86.1294C48.2493 84.1858 49.3125 81.5553 49.2824 78.8235C49.3302 75.9425 48.2109 73.1647 46.179 71.1217C44.1471 69.0787 41.3753 67.9443 38.4941 67.9765H29.0824C16.2774 67.957 5.90179 57.5814 5.88235 44.7765Z" fill="black"/>
</g>
<defs>
<clipPath id="clip0">
<rect width="100" height="100" fill="white"/>
</clipPath>
</defs>
</svg>
