<svg width="100" height="100" viewBox="0 0 100 100" fill="none" xmlns="http://www.w3.org/2000/svg">
<path d="M32.3409 0H78.6115C82.7607 0.00647807 86.1226 3.36845 86.1291 7.51765V80.6C86.1226 84.7492 82.7607 88.1112 78.6115 88.1176H78.3527V19.4C78.3462 12.9813 73.1478 7.77767 66.7291 7.76471H24.8232V7.51765C24.8297 3.36845 28.1917 0.00647807 32.3409 0Z" fill="black"/>
<path d="M19.3314 11.8823H67.8455C71.3746 11.8823 74.2355 14.7432 74.2355 18.2723V93.61C74.2355 97.1391 71.3746 100 67.8455 100H19.3314C15.8023 100 12.9414 97.1391 12.9414 93.61V18.2723C12.9414 14.7432 15.8023 11.8823 19.3314 11.8823Z" fill="black"/>
</svg>
