<svg width="100" height="100" viewBox="0 0 100 100" fill="none" xmlns="http://www.w3.org/2000/svg">
<path fill-rule="evenodd" clip-rule="evenodd" d="M24.894 76.8353H30.8705C33.1446 76.8353 34.9881 74.9917 34.9881 72.7176V66.7529C34.9881 64.4788 33.1446 62.6353 30.8705 62.6353H24.894C22.6199 62.6353 20.7764 64.4788 20.7764 66.7529V72.7176C20.7764 74.9917 22.6199 76.8353 24.894 76.8353ZM26.6587 68.5176H29.1058V70.9529H26.6587V68.5176Z" fill="black"/>
<path fill-rule="evenodd" clip-rule="evenodd" d="M75.1058 76.8353H42.6352C40.3611 76.8353 38.5176 74.9917 38.5176 72.7176V66.7529C38.5176 64.4788 40.3611 62.6353 42.6352 62.6353H75.1058C77.3799 62.6353 79.2235 64.4788 79.2235 66.7529V72.7176C79.2235 74.9917 77.3799 76.8353 75.1058 76.8353ZM73.3411 68.5176H44.3999V70.9529H73.3411V68.5176Z" fill="black"/>
<path fill-rule="evenodd" clip-rule="evenodd" d="M94.7059 10H5.29412C2.37294 10.0065 0.00646996 12.3729 0 15.2941V83.7882C0 86.7121 2.37026 89.0824 5.29412 89.0824H94.7059C97.6297 89.0824 100 86.7121 100 83.7882V15.2941C99.9935 12.3729 97.6271 10.0065 94.7059 10ZM5.88235 30.6118H94.1176V37.4471H5.88235V30.6118ZM94.1176 83.2H5.88235V43.3294H94.1176V83.2ZM5.88235 24.7294V15.8824H94.1176V24.7294H5.88235Z" fill="black"/>
</svg>
