<?xml version="1.0" encoding="UTF-8"?>
<svg width="100px" height="100px" viewBox="0 0 100 100" version="1.1" xmlns="http://www.w3.org/2000/svg" xmlns:xlink="http://www.w3.org/1999/xlink">
    <!-- Generator: Sketch 57.1 (83088) - https://sketch.com -->
    <title>solid/credit-card-solid</title>
    <desc>Created with Sketch.</desc>
    <g id="solid/credit-card" stroke="none" stroke-width="1" fill="none" fill-rule="evenodd">
        <path d="M100,40.66 L100,85.05 C100,87.4193016 98.0793016,89.34 95.71,89.34 L4.28999995,89.34 C1.92069838,89.34 -4.99995991e-08,87.4193016 -4.99995991e-08,85.05 L-4.99995991e-08,40.66 L100,40.66 Z M33.63,66.09 L27.11,66.09 C26.5773331,66.1166663 26.1593329,66.5566665 26.1599984,67.09 L26.1599984,73.66 C26.1593329,74.1933335 26.5773331,74.6333337 27.11,74.66 L33.63,74.66 C34.1626668,74.6333337 34.580667,74.1933335 34.5800016,73.66 L34.5800016,67.09 C34.580667,66.5566665 34.1626668,66.1166663 33.63,66.09 Z M72.89,66.09 L39.56,66.09 C39.0077152,66.09 38.56,66.5377153 38.56,67.09 L38.56,73.66 C38.56,74.2122848 39.0077152,74.66 39.56,74.66 L72.84,74.66 C73.3922848,74.66 73.84,74.2122848 73.84,73.66 L73.89,67.09 C73.89,66.5377153 73.4422848,66.09 72.89,66.09 Z M95.71,10.5 C98.0754019,10.5 99.9944863,12.4146046 100,14.78 L100,27.78 L-4.99996062e-08,27.79 L-4.99996062e-08,14.79 C-4.99996062e-08,12.4206984 1.92069838,10.5 4.28999995,10.5 L95.71,10.5 Z" id="Shape" fill="#000000"></path>
    </g>
</svg>