<?xml version="1.0" encoding="UTF-8"?>
<svg width="100px" height="100px" viewBox="0 0 100 100" version="1.1" xmlns="http://www.w3.org/2000/svg" xmlns:xlink="http://www.w3.org/1999/xlink">
    <!-- Generator: Sketch 57.1 (83088) - https://sketch.com -->
    <title>regular/crop-regular</title>
    <desc>Created with Sketch.</desc>
    <g id="regular/crop" stroke="none" stroke-width="1" fill="none" fill-rule="evenodd">
        <path d="M97.62,81.49 L86.25,81.49 L86.25,18 C86.2282988,15.6618377 84.3381623,13.7717012 82,13.75 L18.51,13.75 L18.51,2.37999995 C18.51,1.06556225 17.4444377,-4.9999997e-08 16.13,-4.9999997e-08 C14.8155623,-4.9999997e-08 13.75,1.06556225 13.75,2.37999995 L13.75,13.75 L2.37999995,13.75 C1.06556227,13.75 2.09295337e-08,14.8155623 2.09295337e-08,16.13 C2.09295337e-08,17.4444376 1.06556227,18.5099999 2.37999995,18.51 L13.75,18.51 L13.75,82 C13.7717012,84.3381623 15.6618377,86.2282988 18,86.25 L81.49,86.25 L81.49,97.62 C81.49,98.9344378 82.5555623,100 83.87,100 C85.1844377,100 86.25,98.9344378 86.25,97.62 L86.25,86.25 L97.62,86.25 C98.9344378,86.25 100,85.1844377 100,83.87 C100,82.5555623 98.9344378,81.49 97.62,81.49 Z M81.49,81.49 L18.49,81.49 L18.49,18.49 L81.49,18.49 L81.49,81.49 Z" id="crop" fill="#000000"></path>
    </g>
</svg>