<?xml version="1.0" encoding="UTF-8"?>
<svg width="100px" height="100px" viewBox="0 0 100 100" version="1.1" xmlns="http://www.w3.org/2000/svg" xmlns:xlink="http://www.w3.org/1999/xlink">
    <!-- Generator: Sketch 57.1 (83088) - https://sketch.com -->
    <title>bold/crop-bold</title>
    <desc>Created with Sketch.</desc>
    <g id="bold/crop" stroke="none" stroke-width="1" fill="none" fill-rule="evenodd">
        <path d="M94.5588236,77.2352941 L86.1470589,77.2352941 L86.1470589,20.0882353 C86.1470589,16.6445774 83.3554226,13.8529411 79.9117647,13.8529411 L22.7647059,13.8529411 L22.7647059,5.44117643 C22.841738,3.79937902 22.0097012,2.24823016 20.5993155,1.40428423 C19.1889297,0.560338289 17.4287173,0.560338289 16.0183315,1.40428423 C14.6079458,2.24823016 13.775909,3.79937902 13.8529411,5.44117643 L13.8529411,13.8529411 L5.44117643,13.8529411 C3.79937902,13.775909 2.24823016,14.6079458 1.40428423,16.0183315 C0.560338289,17.4287173 0.560338289,19.1889297 1.40428423,20.5993155 C2.24823016,22.0097012 3.79937902,22.841738 5.44117643,22.7647059 L13.8529411,22.7647059 L13.8529411,79.9117647 C13.8529411,83.3554226 16.6445774,86.1470589 20.0882353,86.1470589 L77.2352941,86.1470589 L77.2352941,94.5588236 C77.158262,96.200621 77.9902988,97.7517698 79.4006845,98.5957158 C80.8110703,99.4396617 82.5712827,99.4396617 83.9816685,98.5957158 C85.3920542,97.7517698 86.224091,96.200621 86.1470589,94.5588236 L86.1470589,86.1470589 L94.5588236,86.1470589 C96.200621,86.224091 97.7517698,85.3920542 98.5957158,83.9816685 C99.4396617,82.5712827 99.4396617,80.8110703 98.5957158,79.4006845 C97.7517698,77.9902988 96.200621,77.158262 94.5588236,77.2352941 L94.5588236,77.2352941 Z M77.2352941,77.2352941 L22.7647059,77.2352941 L22.7647059,22.7647059 L77.2352941,22.7647059 L77.2352941,77.2352941 Z" id="crop" fill="#000000"></path>
    </g>
</svg>