<svg width="100" height="100" viewBox="0 0 100 100" fill="none" xmlns="http://www.w3.org/2000/svg">
<g clip-path="url(#clip0)">
<path d="M49.9998 22.0471C48.3754 22.0471 47.0586 20.7302 47.0586 19.1059V2.94118C47.0586 1.31681 48.3754 0 49.9998 0C51.6241 0 52.9409 1.31681 52.9409 2.94118V19.1059C52.9409 20.7302 51.6241 22.0471 49.9998 22.0471Z" fill="black"/>
<path d="M84.8238 40.6708C85.1619 41.9581 86.3282 42.8534 87.6591 42.8475C87.9171 42.8501 88.1742 42.8185 88.4238 42.7532C89.9885 42.3284 90.9181 40.7214 90.5062 39.1532C86.5952 24.5668 75.1465 13.2079 60.5297 9.41199C59.5035 9.12295 58.4013 9.41182 57.6488 10.167C56.8963 10.9222 56.6114 12.0254 56.9041 13.0505C57.1968 14.0756 58.0213 14.8621 59.0591 15.1061C71.6189 18.3758 81.4563 28.1369 84.8238 40.6708Z" fill="black"/>
<path d="M57.1956 88.033C57.3883 89.489 58.6255 90.5796 60.0941 90.5882C60.3475 90.5898 60.6001 90.5621 60.8471 90.5058C75.3144 86.6149 86.615 75.3143 90.5059 60.847C90.8941 59.2895 89.9618 57.7083 88.411 57.2941C86.8601 56.8799 85.2636 57.7857 84.8236 59.3293C81.4766 71.7613 71.7629 81.4704 59.3294 84.8117C57.9136 85.2021 57.0028 86.5771 57.1956 88.033Z" fill="black"/>
<path d="M12.3411 42.8473C12.0832 42.85 11.826 42.8183 11.5764 42.753C10.0117 42.3282 9.08215 40.7212 9.49408 39.153C13.385 24.6858 24.6856 13.3852 39.1529 9.49421C40.7104 9.10602 42.2916 10.0383 42.7057 11.5892C43.1199 13.14 42.2142 14.7365 40.6705 15.1766C28.2341 18.5199 18.5198 28.2342 15.1764 40.6707C14.8384 41.9579 13.672 42.8532 12.3411 42.8473Z" fill="black"/>
<path d="M39.4711 90.5884C39.7136 90.6486 39.9624 90.6802 40.2122 90.6825C41.6911 90.6782 42.9368 89.5764 43.1217 88.1091C43.3066 86.6418 42.3732 85.2654 40.9417 84.8943C28.3818 81.6246 18.5444 71.8635 15.177 59.3296C14.92 58.2986 14.127 57.4864 13.1024 57.2048C12.0779 56.9233 10.9812 57.2162 10.2335 57.9711C9.48574 58.726 9.2033 59.8254 9.4946 60.8472C13.41 75.4311 24.8568 86.7881 39.4711 90.5884Z" fill="black"/>
<path d="M47.0586 97.059C47.0586 98.6834 48.3754 100 49.9998 100C51.6241 100 52.9409 98.6834 52.9409 97.059V80.8943C52.9409 79.2699 51.6241 77.9531 49.9998 77.9531C48.3754 77.9531 47.0586 79.2699 47.0586 80.8943V97.059Z" fill="black"/>
<path d="M19.1059 52.9409H2.94118C1.31681 52.9409 0 51.6241 0 49.9998C0 48.3754 1.31681 47.0586 2.94118 47.0586H19.1059C20.7302 47.0586 22.0471 48.3754 22.0471 49.9998C22.0471 51.6241 20.7302 52.9409 19.1059 52.9409Z" fill="black"/>
<path d="M80.8943 52.9409H97.059C98.6834 52.9409 100 51.6241 100 49.9998C100 48.3754 98.6834 47.0586 97.059 47.0586H80.8943C79.2699 47.0586 77.9531 48.3754 77.9531 49.9998C77.9531 51.6241 79.2699 52.9409 80.8943 52.9409Z" fill="black"/>
</g>
<defs>
<clipPath id="clip0">
<rect width="100" height="100" fill="white"/>
</clipPath>
</defs>
</svg>
