<?xml version="1.0" encoding="UTF-8"?>
<svg width="100px" height="100px" viewBox="0 0 100 100" version="1.1" xmlns="http://www.w3.org/2000/svg" xmlns:xlink="http://www.w3.org/1999/xlink">
    <!-- Generator: Sketch 57.1 (83088) - https://sketch.com -->
    <title>solid/crosshair-solid</title>
    <desc>Created with Sketch.</desc>
    <g id="solid/crosshair" stroke="none" stroke-width="1" fill="none" fill-rule="evenodd">
        <path d="M99.0196079,50 C99.0196079,45.4896745 95.3632667,41.8333333 90.8529412,41.8333333 L90.8529412,41.8333333 C90.9216174,40.9240234 90.8387911,40.009621 90.6078432,39.127451 C86.6807761,24.5099691 75.2006647,13.1309546 60.5490196,9.33333329 C59.7714245,9.13350949 58.9689359,9.04764651 58.1666667,9.07843133 C58.1477157,4.56810587 54.4760117,0.927127435 49.9656863,0.946004738 C45.4553608,0.96502933 41.8143824,4.63673332 41.8333333,9.14705878 L41.8333333,9.14705878 C40.9240652,9.08314475 40.0104356,9.16590105 39.127451,9.39215682 C24.6343278,13.3059503 13.3159972,24.6317493 9.41176467,39.127451 C9.18550889,40.0104356 9.10275259,40.9240652 9.16666663,41.8333333 L9.16666663,41.8333333 C4.65634126,41.8333335 1.00000019,45.4896746 1.00000019,50 C1.00000019,54.5103254 4.65634126,58.1666665 9.16666663,58.1666667 L9.16666663,58.1666667 C9.10136711,59.0765179 9.18750442,59.9908987 9.42156859,60.872549 C13.3379187,75.4856815 24.8074934,86.8653869 39.4509804,90.6666667 C40.1233432,90.8413855 40.8151116,90.9303271 41.5098039,90.9313726 L41.8333333,90.9313726 C41.8495771,95.441698 45.5190864,99.0848709 50.0294118,99.0686814 C54.5397371,99.0523836 58.1829102,95.3828744 58.1666667,90.8725491 L58.1666667,90.8725491 C58.3627451,90.8725491 58.5588235,90.8725491 58.754902,90.8725491 C59.4703849,90.8738467 60.1827456,90.7782057 60.872549,90.5882353 C75.3679975,86.6905717 86.6905717,75.3679975 90.5882353,60.872549 C90.8191833,59.990379 90.9020096,59.0759766 90.8333334,58.1666667 L90.8333334,58.1666667 C93.0026634,58.1718752 95.0849278,57.3137609 96.6207183,55.7816489 C98.1565089,54.2495369 99.0196079,52.1693362 99.0196079,50 Z M74.4411765,57.8431373 C71.9129093,65.770179 65.7015515,71.9815368 57.7745098,74.5098039 C56.7289059,71.0696294 53.5563494,68.7180348 49.9607843,68.7180348 C46.3652192,68.7180348 43.1926627,71.0696294 42.1470588,74.5098039 C34.2191389,71.9829787 28.0072173,65.7710571 25.4803921,57.8431373 C28.9205666,56.7975333 31.2721612,53.6249768 31.2721612,50.0294118 C31.2721612,46.4338467 28.9205666,43.2612902 25.4803921,42.2156863 C28.0086593,34.2886446 34.2200171,28.0772868 42.1470588,25.5490196 C43.1926627,28.9891941 46.3652192,31.3407887 49.9607843,31.3407887 C53.5563494,31.3407887 56.7289059,28.9891941 57.7745098,25.5490196 C65.7024297,28.0758448 71.9143513,34.2877664 74.4411765,42.2156863 C71.001002,43.2612902 68.6494074,46.4338467 68.6494074,50.0294118 C68.6494074,53.6249768 71.001002,56.7975333 74.4411765,57.8431373 L74.4411765,57.8431373 Z" id="crosshair" fill="#000000"></path>
    </g>
</svg>