<?xml version="1.0" encoding="UTF-8"?>
<svg width="100px" height="100px" viewBox="0 0 100 100" version="1.1" xmlns="http://www.w3.org/2000/svg" xmlns:xlink="http://www.w3.org/1999/xlink">
    <!-- Generator: Sketch 57.1 (83088) - https://sketch.com -->
    <title>bold/cross-bold</title>
    <desc>Created with Sketch.</desc>
    <g id="bold/cross" stroke="none" stroke-width="1" fill="none" fill-rule="evenodd">
        <path d="M55.8712871,50.4950495 L97.6930694,8.67326729 C98.9037096,7.55155149 99.4040479,5.85762017 98.9971714,4.25813665 C98.5902948,2.65865313 97.3413469,1.40970521 95.7418633,1.00282863 C94.1423798,0.595952053 92.4484485,1.09629042 91.3267327,2.30693065 L49.5049505,44.1287129 L7.68316827,2.30693065 C5.9071126,0.661330528 3.14795268,0.7139099 1.43588179,2.4259808 C-0.276189111,4.13805169 -0.328768483,6.89721161 1.31683163,8.67326729 L43.1386139,50.4950495 L1.31683163,92.3168317 C-0.328768483,94.0928874 -0.276189111,96.8520473 1.43588179,98.5641182 C3.14795268,100.276189 5.9071126,100.328768 7.68316827,98.6831684 L49.5049505,56.8613861 L91.3267327,98.6831684 C93.1027884,100.328768 95.8619483,100.276189 97.5740192,98.5641182 C99.2860901,96.8520473 99.3386695,94.0928874 97.6930694,92.3168317 L55.8712871,50.4950495 Z" id="cross" fill="#000000"></path>
    </g>
</svg>