<?xml version="1.0" encoding="UTF-8"?>
<svg width="100px" height="100px" viewBox="0 0 100 100" version="1.1" xmlns="http://www.w3.org/2000/svg" xmlns:xlink="http://www.w3.org/1999/xlink">
    <!-- Generator: Sketch 57.1 (83088) - https://sketch.com -->
    <title>brand/css-brand</title>
    <desc>Created with Sketch.</desc>
    <g id="brand/css" stroke="none" stroke-width="1" fill="none" fill-rule="evenodd">
        <path d="M31.6734,0.0001 L42.4154,0.0001 L42.4154,4.4921 L36.1654,4.4921 L36.1654,8.9841 L42.4154,8.9841 L42.4154,13.4771 L31.6734,13.4771 L31.6734,0.0001 Z M44.5641,0.0001 L55.3061,0.0001 L55.3061,3.9061 L49.0561,3.9061 L49.0561,4.6871 L55.3061,4.6871 L55.3061,13.6721 L44.5641,13.6721 L44.5641,9.5701 L50.8141,9.5701 L50.8141,8.7891 L44.5641,8.7891 L44.5641,0.0001 Z M57.4548,0.0001 L68.1968,0.0001 L68.1968,3.9061 L61.9468,3.9061 L61.9468,4.6871 L68.1968,4.6871 L68.1968,13.6721 L57.4548,13.6721 L57.4548,9.5701 L63.7048,9.5701 L63.7048,8.7891 L57.4548,8.7891 L57.4548,0.0001 Z M15,19.6525 L85.846,19.6525 L79.392,91.9565 L50.38,100.0005 L21.448,91.9685 L15,19.6525 Z M28.183,34.4345 L28.99,43.3035 L62.89,43.3035 L62.083,52.3865 L29.781,52.3865 L30.575,61.2555 L61.314,61.2555 L60.284,72.7575 L50.393,75.4275 L50.393,75.4285 L50.384,75.4305 L40.507,72.7635 L39.875,65.6905 L30.972,65.6905 L32.214,79.6155 L50.383,84.6605 L50.423,84.6485 L50.423,84.6455 L68.574,79.6155 L68.708,78.1185 L70.793,54.7675 L71.009,52.3865 L72.61,34.4345 L28.183,34.4345 Z" id="Shape" fill="#000000"></path>
    </g>
</svg>