<svg width="100" height="100" viewBox="0 0 100 100" fill="none" xmlns="http://www.w3.org/2000/svg">
<path fill-rule="evenodd" clip-rule="evenodd" d="M31.6734 0H42.4154V4.492H36.1654V8.984H42.4154V13.477H31.6734V0ZM44.5641 0H55.3061V3.906H49.0561V4.687H55.3061V13.672H44.5641V9.57H50.8141V8.789H44.5641V0ZM57.4548 0H68.1968V3.906H61.9468V4.687H68.1968V13.672H57.4548V9.57H63.7048V8.789H57.4548V0ZM15 19.6524H85.846L79.392 91.9564L50.38 100L21.448 91.9684L15 19.6524ZM28.183 34.4344L28.99 43.3034H62.89L62.083 52.3864H29.781L30.575 61.2554H61.314L60.284 72.7574L50.393 75.4274V75.4284L50.384 75.4304L40.507 72.7634L39.875 65.6904H30.972L32.214 79.6154L50.383 84.6604L50.423 84.6484V84.6454L68.574 79.6154L68.708 78.1184L70.793 54.7674L71.009 52.3864L72.61 34.4344H28.183Z" fill="black"/>
</svg>
