<svg width="100" height="100" viewBox="0 0 100 100" fill="none" xmlns="http://www.w3.org/2000/svg">
<path d="M88.2104 55.405C88.1167 55.5195 88.0125 55.6341 87.9084 55.7382C87.8369 55.8893 87.7496 56.0324 87.648 56.1652C87.5707 56.2503 87.4876 56.3239 87.4031 56.3988C87.3737 56.4247 87.3443 56.4508 87.3148 56.4776L87.0753 56.6859L86.6899 56.9671L86.4504 57.1441L86.0026 57.4045L85.7839 57.5399C85.6507 57.6139 85.5121 57.6774 85.3721 57.7416C85.3151 57.7677 85.2579 57.794 85.2007 57.8211C85.1593 57.8269 85.1172 57.8269 85.0758 57.8211C84.8342 57.9273 84.5874 58.0211 84.3363 58.1022H84.1489C83.9607 58.164 83.7696 58.2161 83.5761 58.2585H83.2741C83.1374 58.2937 82.9981 58.3181 82.8575 58.3314V81.2425C82.868 91.2708 74.9839 99.5311 64.966 99.9879C64.6816 100.004 64.3965 100.004 64.1121 99.9879H59.1966C54.5954 99.9879 50.8653 96.2579 50.8653 91.6566C50.8653 87.0554 54.5954 83.3253 59.1966 83.3253H64.1121C65.2624 83.3253 66.1949 82.3928 66.1949 81.2425V57.2899C66.1988 54.7464 66.8282 52.2429 68.0278 50C66.8282 47.7572 66.1988 45.2537 66.1949 42.7101V18.7576C66.1949 17.6073 65.2624 16.6748 64.1121 16.6748H59.1966C54.5954 16.6748 50.8653 12.9447 50.8653 8.34347C50.8653 3.74222 54.5954 0.0121612 59.1966 0.0121612H64.1121C64.4 -0.00405373 64.6886 -0.00405373 64.9765 0.0121612C75.0026 0.458201 82.8987 8.72161 82.8888 18.7576V41.9187C83.0293 41.9319 83.1686 41.9563 83.3053 41.9916H83.6074C83.8008 42.0339 83.992 42.0861 84.1801 42.1478H84.3676C84.6279 42.2311 84.8675 42.3248 85.1174 42.429H85.232C85.4313 42.5121 85.626 42.606 85.8152 42.7101L86.0339 42.7518L86.4817 43.0226L86.7212 43.1996L87.1065 43.4808L87.346 43.6891C87.3755 43.7159 87.405 43.742 87.4343 43.7679C87.5189 43.8428 87.6019 43.9164 87.6793 44.0015C87.7608 44.0726 87.8373 44.1491 87.9084 44.2306C88.0125 44.3347 88.1167 44.4493 88.2104 44.5639L88.4187 44.8138C88.5124 44.9284 88.5957 45.0533 88.679 45.1783C88.7508 45.2617 88.8137 45.3525 88.8665 45.4491L89.106 45.8344L89.2622 46.1572C89.3351 46.2926 89.3976 46.428 89.4601 46.5634L89.5955 46.8758L89.7725 47.334L89.8767 47.6464L90.0016 48.1151C90.0381 48.1672 90.0381 48.1984 90.0381 48.2387C90.0381 48.2791 90.0381 48.3286 90.0745 48.4171C90.1474 48.5941 90.1474 48.7816 90.1474 48.9586C90.1451 49.0423 90.1382 49.1257 90.1266 49.2086C90.1822 49.7556 90.1822 50.3069 90.1266 50.854C90.1316 50.9407 90.1316 51.0276 90.1266 51.1144C90.0902 51.2029 90.0902 51.3122 90.0902 51.4125C90.0902 51.5127 90.0902 51.6038 90.0537 51.6559C89.9808 51.76 89.9808 51.8538 89.9808 51.9579L89.8558 52.4265L89.7517 52.739L89.5955 53.1659L89.4601 53.4784C89.3976 53.6138 89.3351 53.7491 89.2622 53.8845L89.106 54.1657L88.8665 54.5198C88.8137 54.6163 88.7508 54.7071 88.679 54.7906C88.5957 54.9155 88.5124 55.0405 88.4187 55.155L88.2104 55.405Z" fill="black"/>
<path d="M33.9109 18.7578V42.7104C33.9231 45.2495 33.3116 47.7527 32.1301 50.0002C33.3296 52.2431 33.9591 54.7466 33.9629 57.2901V81.2427C33.9629 82.393 34.8955 83.3255 36.0458 83.3255H40.9717C45.5729 83.3255 49.303 87.0556 49.303 91.6568C49.303 96.2581 45.5729 99.9881 40.9717 99.9881H36.0458C35.7613 100.004 35.4762 100.004 35.1918 99.9881C25.1657 99.5421 17.2696 91.2787 17.2795 81.2427V58.1233C17.1389 58.11 16.9996 58.0856 16.8629 58.0504H16.5609C16.3675 58.008 16.1763 57.9559 15.9881 57.8942H15.8007C15.5403 57.8109 15.3008 57.7171 15.0509 57.613H14.9363C14.8791 57.5859 14.8219 57.5597 14.7649 57.5335C14.6249 57.4693 14.4864 57.4058 14.3531 57.3318L14.1344 57.1964L13.6866 56.9361L13.4471 56.759L13.0618 56.4778L12.8222 56.2696C12.7928 56.2428 12.7633 56.2167 12.734 56.1907C12.6494 56.1158 12.5663 56.0422 12.489 55.9571C12.4075 55.8861 12.3309 55.8095 12.2599 55.728C12.1557 55.6239 12.0516 55.5093 11.9579 55.3948L11.7496 55.1448C11.6903 55.0724 11.6352 54.9958 11.579 54.9177C11.5463 54.8723 11.5133 54.8263 11.4788 54.7803C11.4138 54.6941 11.3547 54.6037 11.3018 54.5096L11.0622 54.1242L10.906 53.8431C10.8331 53.7077 10.7707 53.5723 10.7082 53.437L10.5728 53.1245L10.4166 52.7183L10.3124 52.4059C10.2604 52.2497 10.2083 52.0414 10.1875 51.9373C10.1812 51.9062 10.1787 51.8825 10.1763 51.8599C10.1707 51.8068 10.1657 51.7595 10.1146 51.6353C10.0417 51.4582 10.0417 51.2708 10.0417 51.0937C10.0367 51.007 10.0367 50.9201 10.0417 50.8334C9.98611 50.2863 9.98611 49.735 10.0417 49.1879C10.0367 49.1012 10.0367 49.0143 10.0417 48.9276C10.0781 48.8391 10.0781 48.7297 10.0781 48.6295C10.0781 48.5293 10.0781 48.4381 10.1146 48.3861C10.1579 48.3242 10.1608 48.2843 10.1647 48.2294C10.1674 48.1919 10.1706 48.1474 10.1875 48.084C10.2013 48.032 10.2141 47.9799 10.2268 47.9278C10.2523 47.8237 10.2777 47.7196 10.3124 47.6154L10.4166 47.303L10.5728 46.876L10.7082 46.5219C10.7706 46.3866 10.8331 46.2511 10.906 46.1158L11.0622 45.8346L11.3226 45.4805C11.3755 45.3864 11.4347 45.296 11.4996 45.2097C11.5341 45.1638 11.5672 45.1178 11.5999 45.0724C11.6561 44.9943 11.7112 44.9177 11.7704 44.8452L11.9787 44.5953C12.0724 44.4808 12.1766 44.3662 12.2807 44.2621C12.3518 44.1806 12.4283 44.104 12.5098 44.0329C12.5872 43.9479 12.6702 43.8743 12.7548 43.7994C12.7841 43.7734 12.8136 43.7473 12.8431 43.7205L13.0826 43.5122L13.4367 43.2311L13.6762 43.054L14.124 42.7832L14.3219 42.4604C14.5111 42.3563 14.7058 42.2624 14.9051 42.1792H15.0196C15.2696 42.0751 15.5091 41.9814 15.7694 41.898H15.9569C16.1451 41.8363 16.3362 41.7842 16.5297 41.7418H16.8317C16.9684 41.7066 17.1077 41.6822 17.2482 41.6689V18.7578C17.2391 8.71023 25.1534 0.442178 35.1918 0.012368C35.4762 -0.00345831 35.7613 -0.00345831 36.0458 0.012368H40.9196C45.5209 0.012368 49.2509 3.74242 49.2509 8.34368C49.2509 12.9449 45.5209 16.675 40.9196 16.675H35.9937C34.8434 16.675 33.9109 17.6075 33.9109 18.7578Z" fill="black"/>
</svg>
