<?xml version="1.0" encoding="UTF-8"?>
<svg width="100px" height="100px" viewBox="0 0 100 100" version="1.1" xmlns="http://www.w3.org/2000/svg" xmlns:xlink="http://www.w3.org/1999/xlink">
    <!-- Generator: Sketch 57.1 (83088) - https://sketch.com -->
    <title>regular/curly-brackets-regular</title>
    <desc>Created with Sketch.</desc>
    <g id="regular/curly-brackets" stroke="none" stroke-width="1" fill="none" fill-rule="evenodd">
        <path d="M39.8,-4.9999997e-08 C41.1144377,-4.9999997e-08 42.18,1.06556225 42.18,2.37999995 C42.18,3.69443766 41.1144377,4.75999995 39.8,4.75999995 L34.18,4.75999995 C28.9079654,4.76551176 24.6355118,9.03796535 24.63,14.31 L24.63,41.63 C24.635383,44.882325 23.1639824,47.9612308 20.63,50 C23.1639824,52.0387692 24.635383,55.117675 24.63,58.37 L24.63,85.69 C24.6355118,90.9620347 28.9079654,95.2344882 34.18,95.24 L39.8,95.24 C41.1144377,95.24 42.18,96.3055623 42.18,97.62 C42.18,98.9344378 41.1144377,100 39.8,100 L34.18,100 C26.2813728,99.9889838 19.8810162,93.5886272 19.87,85.69 L19.87,58.39 C19.87,55.0762915 17.1837085,52.39 13.87,52.39 C12.5555623,52.39 11.49,51.3244377 11.49,50.01 C11.49,48.6955623 12.5555623,47.63 13.87,47.63 C17.1837085,47.63 19.87,44.9437085 19.87,41.63 L19.87,14.31 C19.8810162,6.41137276 26.2813728,0.0110161825 34.18,-4.9999997e-08 L39.8,-4.9999997e-08 Z M66.27,-4.9999997e-08 C74.1647217,0.0165200009 80.5589988,6.41526866 80.57,14.31 L80.57,41.62 C80.57,44.9337085 83.2562915,47.62 86.57,47.62 L86.59,47.61 C87.4402922,47.6099999 88.2259945,48.0636254 88.6511406,48.8 C89.0762867,49.5363745 89.0762867,50.4436255 88.6511406,51.18 C88.2259945,51.9163746 87.4402922,52.3700001 86.59,52.37 C83.2762915,52.37 80.59,55.0562915 80.59,58.37 L80.59,85.69 C80.5789726,93.5925264 74.1725322,99.9944931 66.27,100 L60.65,100 C59.3355623,100 58.27,98.9344378 58.27,97.62 C58.27,96.3055623 59.3355623,95.24 60.65,95.24 L66.27,95.24 C71.5420346,95.2344882 75.8144882,90.9620347 75.82,85.69 L75.82,58.37 C75.8189719,55.1186599 77.2895195,52.0415391 79.82,50 C77.2895195,47.9584609 75.8189719,44.8813401 75.82,41.63 L75.82,14.31 C75.8144882,9.03796535 71.5420346,4.76551176 66.27,4.75999995 L60.65,4.75999995 C59.3355623,4.75999995 58.27,3.69443766 58.27,2.37999995 C58.27,1.06556225 59.3355623,-4.9999997e-08 60.65,-4.9999997e-08 L66.27,-4.9999997e-08 Z" id="Shape" fill="#000000"></path>
    </g>
</svg>