<svg width="100" height="100" viewBox="0 0 100 100" fill="none" xmlns="http://www.w3.org/2000/svg">
<g clip-path="url(#clip0)">
<path d="M81.5732 45.5104C82.5803 46.5109 83.945 47.0682 85.3645 47.0588C86.9889 47.0588 88.3057 48.3756 88.3057 50C88.3057 51.6244 86.9889 52.9412 85.3645 52.9412C82.4302 52.9216 80.0321 55.2776 79.9998 58.2118V85.2706C79.9934 93.389 73.424 99.9741 65.3057 100H59.741C58.1166 100 56.7998 98.6832 56.7998 97.0588C56.7998 95.4345 58.1166 94.1176 59.741 94.1176H65.3057C70.1597 94.0984 74.0917 90.1716 74.1174 85.3176V58.2588C74.1274 55.1195 75.46 52.1297 77.788 50.0235C75.46 47.9174 74.1274 44.9276 74.1174 41.7882V14.7294C74.1111 9.85973 70.1753 5.90822 65.3057 5.88235H59.741C58.1166 5.88235 56.7998 4.56554 56.7998 2.94118C56.7998 1.31681 58.1166 0 59.741 0H65.3057C73.424 0.0259141 79.9934 6.61102 79.9998 14.7294V41.7294C79.9998 43.149 80.5661 44.5099 81.5732 45.5104Z" fill="black"/>
<path d="M24.7055 14.7294V41.7295C24.6989 44.8729 23.366 47.8676 21.035 49.9765C23.363 52.0827 24.6956 55.0724 24.7055 58.2118V85.2706C24.7055 87.6231 25.6425 89.8788 27.3092 91.539C28.976 93.1991 31.2354 94.1271 33.5879 94.1177H39.1526C40.777 94.1177 42.0938 95.4345 42.0938 97.0589C42.0938 98.6832 40.777 100 39.1526 100H33.5879C25.4649 100.013 18.8621 93.4524 18.8232 85.3295V58.2706C18.8232 55.341 16.4586 52.9606 13.5291 52.9412C11.9047 52.9412 10.5879 51.6244 10.5879 50C10.5879 48.3757 11.9047 47.0589 13.5291 47.0589C16.4358 47.0398 18.7912 44.6949 18.8232 41.7883V14.7294C18.8263 10.8178 20.384 7.06778 23.1533 4.30514C25.9225 1.5425 29.6763 -0.00620738 33.5879 1.87e-05H39.1526C40.777 1.87e-05 42.0938 1.31685 42.0938 2.94121C42.0938 4.56558 40.777 5.88239 39.1526 5.88239H33.5879C31.2363 5.87614 28.9788 6.80511 27.3127 8.46459C25.6466 10.1241 24.7087 12.3779 24.7055 14.7294Z" fill="black"/>
</g>
<defs>
<clipPath id="clip0">
<rect width="100" height="100" fill="white"/>
</clipPath>
</defs>
</svg>
