<?xml version="1.0" encoding="UTF-8"?>
<svg width="100px" height="100px" viewBox="0 0 100 100" version="1.1" xmlns="http://www.w3.org/2000/svg" xmlns:xlink="http://www.w3.org/1999/xlink">
    <!-- Generator: Sketch 57.1 (83088) - https://sketch.com -->
    <title>bold/dashboard-bold</title>
    <desc>Created with Sketch.</desc>
    <g id="bold/dashboard" stroke="none" stroke-width="1" fill="none" fill-rule="evenodd">
        <path d="M49.09,50.91 L49.09,100 L-4.99994783e-08,100 L-4.99994783e-08,50.91 L49.09,50.91 Z M100,50.91 L100,100 L50.91,100 L50.91,50.91 L100,50.91 Z M40,60 L9.08999996,60 L9.08999996,90.91 L40,90.91 L40,60 Z M90.91,60 L60,60 L60,90.91 L90.91,90.91 L90.91,60 Z M49.09,-5.00000183e-08 L49.09,49.09 L-4.99994783e-08,49.09 L-4.99994783e-08,-5.00000183e-08 L49.09,-5.00000183e-08 Z M100,-5.00000183e-08 L100,49.09 L50.91,49.09 L50.91,-5.00000183e-08 L100,-5.00000183e-08 Z M40,9.08999996 L9.08999996,9.08999996 L9.08999996,40 L40,40 L40,9.08999996 Z M90.91,9.08999996 L60,9.08999996 L60,40 L90.91,40 L90.91,9.08999996 Z" id="Shape" fill="#000000"></path>
    </g>
</svg>