<?xml version="1.0" encoding="UTF-8"?>
<svg width="100px" height="100px" viewBox="0 0 100 100" version="1.1" xmlns="http://www.w3.org/2000/svg" xmlns:xlink="http://www.w3.org/1999/xlink">
    <!-- Generator: Sketch 57.1 (83088) - https://sketch.com -->
    <title>solid/desktop-solid</title>
    <desc>Created with Sketch.</desc>
    <g id="solid/desktop" stroke="none" stroke-width="1" fill="none" fill-rule="evenodd">
        <path d="M100,64.64 L100,67.94 C100,71.8833131 96.8033132,75.08 92.86,75.08 L56.69,75.08 L58.31,80.73 C58.5989303,81.7350975 58.3989017,82.8175435 57.7698491,83.653004 C57.1407964,84.4884646 56.1558019,84.98 55.11,84.98 L44.89,84.98 C43.8441981,84.98 42.8592036,84.4884646 42.2301509,83.653004 C41.6010983,82.8175435 41.4010697,81.7350975 41.69,80.73 L43.31,75.08 L7.13999996,75.08 C3.19668684,75.08 -4.99996062e-08,71.8833131 -4.99996062e-08,67.94 L-4.99996062e-08,64.64 L100,64.64 Z M92.86,14.5 C96.8033132,14.5 100,17.6966869 100,21.64 L100,59.87 L-4.99996062e-08,59.87 L-4.99996062e-08,21.64 C-4.99996062e-08,17.6966869 3.19668684,14.5 7.13999996,14.5 L92.86,14.5 Z" id="Shape" fill="#000000"></path>
    </g>
</svg>