<?xml version="1.0" encoding="UTF-8"?>
<svg width="100px" height="100px" viewBox="0 0 100 100" version="1.1" xmlns="http://www.w3.org/2000/svg" xmlns:xlink="http://www.w3.org/1999/xlink">
    <!-- Generator: Sketch 57.1 (83088) - https://sketch.com -->
    <title>bold/desktop-bold</title>
    <desc>Created with Sketch.</desc>
    <g id="bold/desktop" stroke="none" stroke-width="1" fill="none" fill-rule="evenodd">
        <path d="M90.91,14 L9.08999996,14 C4.07201618,14.0055112 0.00551119472,18.0720162 -4.9999997e-08,23.09 L-4.9999997e-08,67.28 C0.00551119472,72.2979838 4.07201618,76.3644888 9.08999996,76.37 L40.6,76.37 L39.88,78.86 C39.3946111,80.5110534 39.7160304,82.2943192 40.7473248,83.6720026 C41.7786193,85.049686 43.399076,85.8600003 45.12,85.8600003 L54.88,85.8600003 C56.600924,85.8600003 58.2213807,85.049686 59.2526752,83.6720026 C60.2839696,82.2943192 60.6053889,80.5110534 60.12,78.86 L59.4,76.37 L90.91,76.37 C95.9279838,76.3644888 99.9944888,72.2979838 100,67.28 L100,23.09 C99.9944888,18.0720162 95.9279838,14.0055112 90.91,14 Z M9.08999996,23.09 L90.91,23.09 L90.91,57.31 L9.08999996,57.31 L9.08999996,23.09 Z M50,76.73 L50,76.56 L50,76.73 Z M9.08999996,67.28 L9.08999996,66.4 L90.91,66.4 L90.91,67.28 L9.08999996,67.28 Z" id="desktop" fill="#000000"></path>
    </g>
</svg>