<svg width="100" height="100" viewBox="0 0 100 100" fill="none" xmlns="http://www.w3.org/2000/svg">
<path d="M91.1765 14.1176H8.82353C3.95043 14.1176 0 18.068 0 22.9411V66.3412C0.00648093 71.2116 3.95312 75.1582 8.82353 75.1647H42.6118L41.1765 80C40.8352 81.1717 41.0665 82.4357 41.8006 83.4106C42.5347 84.3855 43.6855 84.9571 44.9059 84.9529H55C56.2368 84.9874 57.4156 84.4285 58.1716 83.449C58.9277 82.4696 59.17 81.1878 58.8235 80L57.4353 75.1764H91.1765C96.0469 75.17 99.9935 71.2233 100 66.3529V22.9411C100 18.068 96.0496 14.1176 91.1765 14.1176ZM8.82353 20H91.1765C92.8008 20 94.1176 21.3168 94.1176 22.9411V58.9529H5.88235V22.9411C5.88235 21.3168 7.19916 20 8.82353 20ZM52.3529 79.0588H47.6118L48.7882 75.1647H51.3294L52.3529 79.0588ZM91.1765 69.2823H8.82353C7.19916 69.2823 5.88235 67.9655 5.88235 66.3412V64.8353H94.1176V66.3412C94.1176 67.9655 92.8008 69.2823 91.1765 69.2823Z" fill="black"/>
</svg>
