<svg width="100" height="100" viewBox="0 0 100 100" fill="none" xmlns="http://www.w3.org/2000/svg">
<path d="M100 22.9412V58.953H0V22.9412C0 18.0681 3.95043 14.1177 8.82353 14.1177H91.1765C96.0496 14.1177 100 18.0681 100 22.9412Z" fill="black"/>
<path d="M0 66.3413V64.8354H100V66.3531C99.9935 71.2235 96.0469 75.1701 91.1765 75.1766H57.4353L58.8235 80.0002C59.17 81.188 58.9277 82.4698 58.1716 83.4492C57.4156 84.4286 56.2368 84.9876 55 84.9531H44.9059C43.6855 84.9573 42.5347 84.3857 41.8006 83.4108C41.0665 82.4359 40.8352 81.1718 41.1765 80.0002L42.6118 75.1649H8.82353C3.95312 75.1584 0.00648093 71.2117 0 66.3413Z" fill="black"/>
</svg>
