<?xml version="1.0" encoding="UTF-8"?>
<svg width="100px" height="100px" viewBox="0 0 100 100" version="1.1" xmlns="http://www.w3.org/2000/svg" xmlns:xlink="http://www.w3.org/1999/xlink">
    <!-- Generator: Sketch 57.1 (83088) - https://sketch.com -->
    <title>brand/diners-club-card-brand</title>
    <desc>Created with Sketch.</desc>
    <g id="brand/diners-club-card" stroke="none" stroke-width="1" fill="none" fill-rule="evenodd">
        <path d="M57.2393,83.2218 L41.5623,83.2218 C23.1253,83.2218 7.9163,68.3778 7.9163,50.2008 C7.9163,30.3058 23.1253,16.5558 41.5623,16.5558 L57.2393,16.5558 C75.4683,16.5558 92.0833,30.3058 92.0833,50.2008 C92.0833,68.3778 75.4683,83.2218 57.2393,83.2218 L57.2393,83.2218 Z M91.6673,10.9998 L8.3333,10.9998 C3.7323,10.9998 0.0003,14.7328 0.0003,19.3328 L0.0003,80.4448 C0.0003,85.0448 3.7323,88.7778 8.3333,88.7778 L91.6673,88.7778 C96.2673,88.7778 100.0003,85.0448 100.0003,80.4448 L100.0003,19.3328 C100.0003,14.7328 96.2673,10.9998 91.6673,10.9998 L91.6673,10.9998 Z M48.5413,67.9088 L48.5413,31.7638 C55.7813,34.5758 60.9373,41.6078 60.9373,49.8368 C60.9373,58.0668 55.7813,65.0968 48.5413,67.9098 L48.5413,67.9088 Z M34.6873,67.8578 C27.4473,65.0968 22.2913,58.0658 22.2913,49.8368 C22.2913,41.6078 27.4473,34.5758 34.6873,31.7638 L34.6873,67.8578 Z M41.6143,19.3158 C24.7913,19.3158 11.0933,32.9618 11.0933,49.8368 C11.0933,66.6598 24.7913,80.3578 41.6143,80.3578 C58.4893,80.3578 72.1353,66.6598 72.1353,49.8368 C72.1353,32.9618 58.4893,19.3158 41.6143,19.3158 L41.6143,19.3158 Z" id="Fill-1" fill="#000000"></path>
    </g>
</svg>