<svg width="100" height="100" viewBox="0 0 100 100" fill="none" xmlns="http://www.w3.org/2000/svg">
<path fill-rule="evenodd" clip-rule="evenodd" d="M5.57914 49.9327C5.58514 46.7317 7.58414 44.0007 10.4041 42.9167V56.9487C7.58414 55.8637 5.58514 53.1347 5.57914 49.9327ZM15.7852 42.916C18.6052 43.998 20.6082 46.73 20.6132 49.933C20.6082 53.137 18.6052 55.866 15.7852 56.951V42.916ZM13.0952 61.794C19.6462 61.792 24.9532 56.483 24.9542 49.933C24.9532 43.381 19.6462 38.073 13.0952 38.07C6.54624 38.073 1.23924 43.381 1.23824 49.933C1.23924 56.483 6.54624 61.792 13.0952 61.794ZM19.1612 37C26.2432 36.997 32.7082 42.34 32.7082 50.068C32.7082 57.137 26.2432 62.946 19.1612 62.9122H13.0662C5.89924 62.946 0.000244141 57.138 0.000244141 50.068C0.000244141 42.341 5.89924 36.997 13.0662 37H19.1612ZM38.1973 41.5537V48.9667C38.1973 50.0167 38.9473 50.1387 39.6143 50.1387C42.5583 50.1387 43.5253 47.9167 43.5253 45.8857C43.5253 43.3387 41.8893 41.4987 39.2603 41.4987C38.7013 41.4987 38.4443 41.5387 38.1973 41.5537ZM39.4113 50.5747C38.7163 50.5747 38.0753 50.5477 37.4353 50.5477C36.8223 50.5477 36.2223 50.5617 35.6093 50.5747V50.2207C36.4263 50.1387 36.8223 50.1117 36.8613 49.1847V42.5747C36.8613 41.3487 36.2223 41.4297 35.6093 41.4157V41.0627C36.1403 41.0877 36.6853 41.0877 37.2173 41.0877C37.7893 41.0877 38.5663 41.0627 39.5743 41.0627C43.1033 41.0627 45.0243 43.4187 45.0243 45.8317C45.0243 47.1817 44.2343 50.5747 39.4113 50.5747ZM46.96 42.2481C46.606 42.2481 46.293 41.9211 46.293 41.5671C46.293 41.2261 46.62 40.9111 46.96 40.9111C47.313 40.9111 47.628 41.1991 47.628 41.5671C47.628 41.9351 47.327 42.2481 46.96 42.2481ZM48.4175 50.5752C47.9535 50.5752 47.4765 50.5482 46.9875 50.5482C46.4965 50.5482 46.0055 50.5612 45.5025 50.5752V50.2212H45.7605C46.1415 50.2212 46.4145 50.2212 46.4145 49.7692V46.0772C46.4145 45.4782 46.2105 45.3952 45.7065 45.1242V44.9062C46.3465 44.7142 47.1105 44.4562 47.1635 44.4152C47.2595 44.3602 47.3405 44.3462 47.4095 44.3462C47.4765 44.3462 47.5045 44.4292 47.5045 44.5382V49.7692C47.5045 50.2212 47.8045 50.2212 48.1865 50.2212H48.4175V50.5752ZM55.6533 50.2207V50.5747C55.1743 50.5747 54.6983 50.5477 54.2093 50.5477C53.7173 50.5477 53.2273 50.5617 52.7373 50.5747V50.2207H52.9823C53.3643 50.2207 53.6353 50.2207 53.6353 49.7707V46.2417C53.6353 45.4637 53.1613 45.0827 52.3823 45.0827C51.9473 45.0827 51.2523 45.4367 50.8003 45.7377V49.7697C50.8003 50.2207 51.1023 50.2207 51.4843 50.2207H51.7283V50.5747C51.2523 50.5747 50.7753 50.5477 50.2843 50.5477C49.7943 50.5477 49.3023 50.5617 48.8123 50.5747V50.2207H49.0583C49.4403 50.2207 49.7123 50.2207 49.7123 49.7697V46.1587C49.7123 45.6557 49.5613 45.5197 48.9223 45.2597V45.0017C49.5073 44.8107 50.0663 44.6337 50.7203 44.3467C50.7603 44.3467 50.8003 44.3737 50.8003 44.4827V45.3687C51.5793 44.8107 52.2473 44.3467 53.1613 44.3467C54.3173 44.3467 54.7263 45.1917 54.7263 46.2537V49.7707C54.7263 50.2207 55.0263 50.2207 55.4083 50.2207H55.6533ZM58.2959 44.7832C57.4659 44.7832 56.8939 45.3952 56.7309 46.3772H59.1019C59.4419 46.3772 59.4819 46.2002 59.4819 46.0372C59.4819 45.3422 59.0599 44.7832 58.2959 44.7832ZM58.2019 50.7792C56.0349 50.7792 55.5989 48.6792 55.5989 47.8082C55.5989 45.1372 57.3979 44.3462 58.3509 44.3462C59.4549 44.3462 60.6409 45.0412 60.6539 46.4852C60.6539 46.5682 60.6539 46.6492 60.6409 46.7322L60.5179 46.8132H56.6899C56.6609 46.9362 56.6609 47.1402 56.6899 47.6042C56.7699 48.8982 57.6039 49.9612 58.6919 49.9612C59.4419 49.9612 60.0279 49.5532 60.5319 49.0492L60.7229 49.2402C60.0949 50.0712 59.3179 50.7792 58.2019 50.7792ZM64.4961 50.5752C63.7461 50.5612 63.1771 50.5482 62.5891 50.5482C62.0311 50.5482 61.4581 50.5612 60.9681 50.5752V50.2212H61.3361C61.7161 50.2212 61.9881 50.2212 61.9881 49.7692V45.9412C61.9881 45.5192 61.4851 45.4362 61.2801 45.3282V45.1242C62.2751 44.7012 62.8201 44.3462 62.9441 44.3462C63.0251 44.3462 63.0651 44.3882 63.0651 44.5242V45.7502H63.0941C63.4341 45.2202 64.0071 44.3462 64.8381 44.3462C65.1791 44.3462 65.6141 44.5782 65.6141 45.0682C65.6141 45.4362 65.3551 45.7642 64.9751 45.7642C64.5501 45.7642 64.5501 45.4362 64.0741 45.4362C63.8421 45.4362 63.0801 45.7502 63.0801 46.5682V49.7692C63.0801 50.2212 63.3511 50.2212 63.7331 50.2212H64.4961V50.5752ZM67.9307 50.3438C68.7337 50.3438 69.0337 49.8528 69.0337 49.3758C69.0337 47.7678 66.0637 48.2848 66.0637 46.0918C66.0637 45.3278 66.6777 44.3468 68.1757 44.3468C68.6117 44.3468 69.1977 44.4698 69.7277 44.7428L69.8247 46.1318H69.5107C69.3747 45.2738 68.8987 44.7828 68.0257 44.7828C67.4807 44.7828 66.9627 45.0968 66.9627 45.6828C66.9627 47.2788 70.1237 46.7858 70.1237 48.9258C70.1237 49.8238 69.4017 50.7798 67.7807 50.7798C67.2347 50.7798 66.5947 50.5888 66.1187 50.3168L65.9677 48.7488L66.2137 48.6798C66.3917 49.5798 66.9357 50.3438 67.9307 50.3438ZM82.1289 50.0567C81.5569 50.4107 80.0169 50.7797 79.1159 50.7797C75.9289 50.7797 73.9129 48.7217 73.9129 45.6557C73.9129 42.8617 76.4059 40.8567 79.0759 40.8567C80.1799 40.8567 81.2419 41.2127 82.2919 41.5807L82.4279 43.5297H82.0879C81.8289 41.9347 80.6969 41.2937 79.1719 41.2937C77.6049 41.2937 75.3279 42.3427 75.3279 45.6137C75.3279 48.3687 77.2919 50.3427 79.3899 50.3427C80.7379 50.3427 81.8569 49.4167 82.1289 47.9857L82.4409 48.0667L82.1289 50.0567ZM85.834 50.5752C85.373 50.5752 84.896 50.5482 84.404 50.5482C83.915 50.5482 83.424 50.5612 82.919 50.5752V50.2212H83.178C83.56 50.2212 83.833 50.2212 83.833 49.7692V42.1802C83.833 41.2942 83.628 41.2662 83.11 41.1172V40.8992C83.655 40.7222 84.228 40.4762 84.514 40.3122C84.662 40.2312 84.772 40.1622 84.813 40.1622C84.896 40.1622 84.923 40.2442 84.923 40.3542V49.7692C84.923 50.2212 85.223 50.2212 85.605 50.2212H85.834V50.5752ZM86.6523 45.669C86.6523 45.315 86.5973 44.974 85.8363 44.905V44.647C86.3273 44.633 87.4153 44.552 87.5923 44.552C87.7443 44.552 87.7443 44.647 87.7443 44.946V48.462C87.7443 48.871 87.7443 50.043 88.9283 50.043C89.3913 50.043 90.0053 49.689 90.5763 49.213V45.545C90.5763 45.273 89.9233 45.124 89.4333 44.987V44.742C90.6583 44.66 91.4233 44.552 91.5573 44.552C91.6683 44.552 91.6683 44.647 91.6683 44.797V49.824C91.6683 50.071 91.8173 50.084 92.0483 50.084C92.2133 50.084 92.4163 50.071 92.5933 50.071V50.357C92.0073 50.412 90.8903 50.698 90.6313 50.779L90.5623 50.738V49.636C89.7463 50.303 89.1183 50.779 88.1503 50.779C87.4153 50.779 86.6523 50.303 86.6523 49.158V45.669ZM94.3799 45.7246V49.0346C94.3799 49.5526 94.8689 50.4256 95.7819 50.4256C97.2399 50.4256 97.8539 48.9946 97.8539 47.7806C97.8539 46.3086 96.7369 45.0826 95.6739 45.0826C95.1689 45.0826 94.7469 45.4106 94.3799 45.7246ZM93.2889 42.1806C93.2889 41.2936 93.0839 41.2666 92.5669 41.1176V40.8996C93.1129 40.7226 93.6839 40.4766 93.9699 40.3126C94.1199 40.2316 94.229 40.1626 94.271 40.1626C94.353 40.1626 94.3789 40.2446 94.3789 40.3546V45.3286H94.38C94.924 44.8646 95.659 44.3466 96.41 44.3466C97.9899 44.3466 98.9429 45.7246 98.9429 47.2086C98.9429 48.9946 97.6359 50.7796 95.687 50.7796C94.6789 50.7796 94.1479 50.4526 93.7929 50.3026L93.3849 50.6156L93.0999 50.4656C93.2199 49.6626 93.2889 48.8706 93.2889 48.0396V42.1806ZM36.6924 53.542C37.0614 53.542 37.5044 53.513 37.8554 53.513H37.8884V53.8H37.7524C37.4834 53.805 37.2364 53.829 37.2354 54.191V58.076C37.2364 58.438 37.4834 58.461 37.7524 58.467H37.8884V58.754H37.8554C37.4974 58.754 37.0534 58.724 36.6844 58.724C36.3214 58.724 35.8854 58.754 35.5934 58.754H35.5624V58.467H35.6974C35.9664 58.461 36.2114 58.438 36.2134 58.076V54.191C36.2114 53.829 35.9664 53.805 35.6974 53.8H35.5624V53.513H35.5934C35.8854 53.513 36.3294 53.542 36.6924 53.542ZM43.1929 53.542C43.4949 53.542 43.7989 53.514 44.1049 53.514H44.1379V53.8H43.9949C43.6889 53.809 43.3749 53.835 43.3659 54.71V58.084C43.3659 58.343 43.3739 58.603 43.4099 58.827L43.4169 58.865H43.3789L43.0719 58.854L39.3099 54.66V57.632C39.3189 58.276 39.4169 58.46 39.9749 58.467H40.1339V58.754H40.1009C39.7799 58.754 39.4609 58.724 39.1449 58.724C38.8129 58.724 38.4719 58.754 38.1359 58.754H38.1039V58.467H38.2399C38.7309 58.464 38.8699 58.149 38.8759 57.559V54.436C38.8749 54.04 38.5509 53.801 38.2339 53.8H38.1039V53.514H38.1359C38.4199 53.514 38.7099 53.542 38.9879 53.542C39.2089 53.542 39.4229 53.514 39.6729 53.524L42.9319 57.193V54.466C42.9279 53.876 42.5349 53.805 42.3179 53.8H42.1219V53.514H42.1549C42.5059 53.514 42.8469 53.542 43.1929 53.542ZM49.2578 53.2784L49.2918 53.2854L49.5008 53.3184L49.4958 53.3504C49.4658 53.5494 49.4368 53.7494 49.4158 53.9484C49.4008 54.1454 49.4008 54.3464 49.4008 54.5464V54.5694L49.3798 54.5784L49.1168 54.6734L49.1148 54.6304C49.0958 54.3514 49.0668 53.9484 48.5978 53.9484H47.4148V57.8614C47.4208 58.4214 47.6428 58.4594 47.9958 58.4664H48.1698V58.7544H48.1388C47.8468 58.7544 47.3278 58.7234 46.9298 58.7234C46.4858 58.7234 45.9668 58.7544 45.6758 58.7544H45.6448V58.4664H45.8168C46.2258 58.4574 46.3898 58.4524 46.3998 57.8774V53.9484H45.2158V53.9164V53.9484C44.6678 53.9584 44.6788 54.0504 44.5578 54.5984L44.5528 54.6244H44.2678L44.2718 54.5864C44.3008 54.3784 44.3388 54.1714 44.3608 53.9554C44.3918 53.7494 44.4058 53.5444 44.4058 53.3314V53.2994H44.6408L44.6468 53.3214C44.6968 53.5084 44.8348 53.5094 45.0228 53.5124H48.8848C49.0918 53.5094 49.2418 53.5074 49.2548 53.3124L49.2578 53.2784ZM53.6885 57.4522L53.7195 57.4582L53.9575 57.5192L53.9505 57.5502C53.8545 57.9422 53.7655 58.3352 53.6995 58.7272L53.6935 58.7542H53.6675C53.1915 58.7542 52.3385 58.7232 51.6735 58.7232C51.0055 58.7232 50.1245 58.7542 49.7015 58.7542H49.6695V58.4672H49.8055C50.0735 58.4632 50.3175 58.4382 50.3215 58.0762V54.1912C50.3175 53.8302 50.0735 53.8062 49.8055 53.8002H49.6695V53.5142H49.7015C50.1535 53.5142 50.9245 53.5422 51.5465 53.5422C52.1695 53.5422 52.9395 53.5142 53.4445 53.5142H53.4775L53.4755 53.5472C53.4705 53.6582 53.4685 53.7902 53.4685 53.9302C53.4685 54.1862 53.4755 54.4672 53.4915 54.6782L53.4925 54.7052L53.4665 54.7122L53.2075 54.7802L53.2055 54.7422C53.1615 54.2612 53.0965 53.9112 52.3345 53.9042H51.3345V55.7812H52.1855C52.6115 55.7772 52.6885 55.5582 52.7385 55.1592L52.7415 55.1302H53.0255V55.1632C53.0105 55.4522 53.0015 55.7412 53.0015 56.0302C53.0015 56.3102 53.0105 56.5922 53.0255 56.8742V56.9002L52.9995 56.9072L52.7415 56.9582L52.7385 56.9232C52.6875 56.4712 52.6845 56.2232 52.1915 56.2182L51.3345 56.2172V57.9132C51.3345 58.3632 51.7235 58.3602 52.2075 58.3632C53.0995 58.3582 53.4585 58.3152 53.6815 57.4822L53.6885 57.4522ZM56.2314 56.0196C56.9654 56.0126 57.3354 55.7576 57.3424 54.8966C57.3384 54.2486 56.9364 53.8466 56.2914 53.8436C56.0894 53.8436 55.9964 53.8626 55.9014 53.8716V56.0196H56.2314ZM58.6314 58.0366C58.8384 58.3436 58.9674 58.4206 59.3284 58.4666L59.3554 58.4706V58.7536H59.3244C59.0754 58.7536 58.8394 58.7236 58.5954 58.7236C58.3704 58.7236 58.1324 58.7536 57.8754 58.7416C57.3054 57.9956 56.8184 57.1996 56.3394 56.3516H55.9014V57.9056C55.9094 58.4626 56.1324 58.4586 56.4764 58.4666H56.6424V58.7536H56.6094C56.1854 58.7536 55.7554 58.7236 55.3344 58.7236C54.9804 58.7236 54.6324 58.7536 54.2594 58.7536H54.2274V58.4666H54.3934C54.6604 58.4646 54.8854 58.3486 54.8864 58.0996V54.3326C54.8804 53.8046 54.6244 53.8086 54.3934 53.8006H54.2274V53.5126H54.2594C54.5004 53.5126 54.9584 53.5416 55.4094 53.5416C55.8514 53.5416 56.2084 53.5126 56.6034 53.5126C57.5374 53.5156 58.3984 53.7736 58.4004 54.8496C58.4004 55.5196 57.9584 55.9376 57.3854 56.1706L58.6314 58.0366ZM65.5459 53.7998H65.4029C65.0979 53.8078 64.7819 53.8348 64.7749 54.7098V58.0838C64.7749 58.3428 64.7809 58.6008 64.8189 58.8278L64.8229 58.8638H64.7869L64.4829 58.8548L60.7189 54.6598V57.6308C60.7279 58.2768 60.8259 58.4588 61.3849 58.4668H61.5419V58.7538H61.5099C61.1889 58.7538 60.8709 58.7238 60.5529 58.7238C60.2219 58.7238 59.8799 58.7538 59.5459 58.7538H59.5129V58.4668H59.6489C60.1389 58.4648 60.2779 58.1498 60.2829 57.5568V54.4348C60.2829 54.0398 59.9589 53.8008 59.6429 53.7998H59.5129V53.5128H59.5459C59.8289 53.5128 60.1189 53.5418 60.3989 53.5418C60.6159 53.5418 60.8309 53.5128 61.0799 53.5238L64.3389 57.1938V54.4648C64.3369 53.8758 63.9419 53.8028 63.7269 53.7998H63.5309V53.5128H63.5639C63.9139 53.5128 64.2559 53.5418 64.6019 53.5418C64.9039 53.5418 65.2079 53.5128 65.5139 53.5128H65.5459V53.7998ZM67.1289 56.4424H68.4259L67.7809 54.4554L67.1289 56.4424ZM70.1539 58.1894C70.2399 58.3864 70.3769 58.4644 70.6149 58.4654H70.6909V58.7554L70.6559 58.7544C70.3229 58.7384 69.9889 58.7234 69.6359 58.7234C69.2729 58.7234 68.9029 58.7384 68.5239 58.7544L68.4899 58.7554V58.4654H68.6049C68.7759 58.4654 69.0309 58.4264 69.0309 58.2844C69.0329 58.2004 68.9669 57.9964 68.8849 57.7604L68.6029 56.9214H66.9669L66.7359 57.6714C66.6619 57.9234 66.5729 58.1204 66.5729 58.2404C66.5759 58.4214 66.8529 58.4654 67.0989 58.4654H67.2129V58.7554L67.1799 58.7544C66.8829 58.7384 66.5799 58.7234 66.2839 58.7234C66.0189 58.7234 65.7509 58.7384 65.4849 58.7544L65.4509 58.7554V58.4654H65.5269C65.8039 58.4644 66.0339 58.3074 66.1409 58.0054L67.3279 54.6024C67.4259 54.3284 67.5589 53.9584 67.6229 53.6634C67.8559 53.5844 68.1529 53.4344 68.2959 53.3444C68.3159 53.3384 68.3379 53.3274 68.3679 53.3274C68.3859 53.3274 68.4259 53.3314 68.4489 53.3714C68.4709 53.4314 68.4939 53.4984 68.5169 53.5574L69.8819 57.4354C69.9699 57.6964 70.0579 57.9694 70.1539 58.1894ZM75.0244 53.2784L75.0594 53.2854L75.2694 53.3184L75.2634 53.3504C75.2334 53.5494 75.2054 53.7494 75.1824 53.9484C75.1684 54.1454 75.1684 54.3464 75.1684 54.5474V54.5694L75.1464 54.5784L74.8834 54.6744L74.8824 54.6304C74.8634 54.3514 74.8344 53.9484 74.3654 53.9484H73.1814V57.8614C73.1894 58.4214 73.4114 58.4594 73.7634 58.4664H73.9374V58.7544H73.9054C73.6144 58.7544 73.0954 58.7234 72.6974 58.7234C72.2534 58.7234 71.7344 58.7544 71.4445 58.7544H71.4114V58.4664H71.5854C71.9934 58.4574 72.1574 58.4524 72.1684 57.8774L72.1674 53.9484H70.9844V53.9164V53.9484C70.4344 53.9584 70.4474 54.0504 70.3264 54.5984L70.3204 54.6244H70.0344L70.0394 54.5874C70.0704 54.3784 70.1064 54.1714 70.1284 53.9574C70.1594 53.7494 70.1724 53.5444 70.1724 53.3314V53.2994H70.4074L70.4144 53.3214C70.4654 53.5084 70.6004 53.5094 70.7915 53.5124L70.8284 53.5134H74.6554C74.8594 53.5094 75.0084 53.5074 75.0224 53.3134L75.0244 53.2784ZM76.6025 53.542C76.9715 53.542 77.4165 53.514 77.7675 53.514H77.7985V53.8H77.6645C77.3925 53.805 77.1495 53.83 77.1465 54.191V58.076C77.1495 58.439 77.3925 58.463 77.6645 58.467H77.7985V58.754H77.7675C77.4095 58.754 76.9655 58.724 76.5955 58.724C76.2335 58.724 75.7955 58.754 75.5055 58.754H75.4735V58.467H75.6105C75.8775 58.463 76.1235 58.439 76.1245 58.076V54.191C76.1235 53.83 75.8775 53.805 75.6105 53.8H75.4735V53.514H75.5055C75.7955 53.514 76.2415 53.542 76.6025 53.542ZM80.8369 58.4746C82.2459 58.4726 82.4899 57.2386 82.4939 56.1566C82.4939 55.0816 81.9149 53.7946 80.7099 53.7926C79.4389 53.7946 79.0619 54.9226 79.0599 55.9106C79.0609 57.2316 79.6619 58.4716 80.8369 58.4746ZM80.7239 53.4026C82.3159 53.4036 83.5939 54.3936 83.5969 55.9926C83.5949 57.7156 82.3559 58.8616 80.7629 58.8646C79.1769 58.8616 77.9589 57.7836 77.9559 56.1706C77.9589 54.6116 79.1669 53.4046 80.7239 53.4026V53.4346V53.4026ZM89.75 53.7998H89.605C89.301 53.8088 88.985 53.8368 88.979 54.7098V58.0838C88.979 58.3438 88.984 58.6018 89.021 58.8288L89.027 58.8638H88.991L88.685 58.8538L84.923 54.6598V57.6318C84.931 58.2768 85.029 58.4588 85.586 58.4658H85.746V58.7538H85.714C85.393 58.7538 85.074 58.7238 84.758 58.7238C84.425 58.7238 84.085 58.7538 83.748 58.7538H83.717V58.4658H83.853C84.342 58.4638 84.482 58.1498 84.488 57.5588V54.4348C84.487 54.0398 84.164 53.8008 83.845 53.7998H83.717V53.5138H83.748C84.032 53.5138 84.321 53.5418 84.601 53.5418C84.821 53.5418 85.035 53.5138 85.286 53.5248L88.543 57.1938V54.4658C88.541 53.8758 88.146 53.8048 87.93 53.7998H87.734V53.5138H87.768C88.117 53.5138 88.459 53.5418 88.804 53.5418C89.108 53.5418 89.41 53.5138 89.718 53.5138H89.75V53.7998ZM91.333 56.4424H92.629L91.984 54.4564L91.333 56.4424ZM94.357 58.1904C94.444 58.3864 94.58 58.4644 94.816 58.4664H94.894V58.7554L94.859 58.7544C94.526 58.7404 94.193 58.7234 93.839 58.7234C93.478 58.7234 93.106 58.7404 92.728 58.7544L92.694 58.7554V58.4664H92.808C92.979 58.4664 93.235 58.4264 93.236 58.2844C93.237 58.2004 93.171 57.9984 93.088 57.7604L92.807 56.9214H91.17L90.94 57.6714C90.866 57.9244 90.778 58.1194 90.779 58.2394C90.779 58.4214 91.057 58.4664 91.303 58.4664H91.415V58.7554L91.383 58.7544C91.086 58.7404 90.782 58.7234 90.487 58.7234C90.222 58.7234 89.955 58.7404 89.687 58.7544L89.655 58.7554V58.4664H89.73C90.007 58.4654 90.238 58.3064 90.346 58.0054L91.533 54.6024C91.627 54.3284 91.761 53.9584 91.827 53.6644C92.06 53.5834 92.357 53.4344 92.501 53.3444C92.52 53.3384 92.541 53.3294 92.571 53.3294C92.591 53.3274 92.629 53.3314 92.652 53.3724C92.675 53.4304 92.696 53.4974 92.721 53.5574L94.084 57.4354C94.173 57.6964 94.262 57.9694 94.357 58.1904ZM99.0694 57.4287H99.3484L99.3413 57.4677C99.2573 57.8917 99.1563 58.3067 99.0663 58.7287L99.0603 58.7537H99.0353C98.3823 58.7537 97.7293 58.7237 97.0793 58.7237C96.4253 58.7237 95.7733 58.7537 95.1203 58.7537H95.0893V58.4667H95.2234C95.4923 58.4607 95.7463 58.4427 95.7494 58.0017V54.1907C95.7463 53.8297 95.4933 53.8047 95.2234 53.7997H95.0893V53.5137H95.1203C95.5144 53.5137 95.9003 53.5417 96.2924 53.5417C96.6684 53.5417 97.0393 53.5137 97.4203 53.5137H97.4503V53.7997H97.2333C96.9464 53.8077 96.7673 53.7947 96.7613 54.1687V57.9947C96.7634 58.2717 96.9444 58.3457 97.1753 58.3777C97.3064 58.3877 97.4444 58.3937 97.5873 58.3937C97.7683 58.3937 97.9573 58.3847 98.1483 58.3647C98.4513 58.3277 98.7113 58.1547 98.8393 57.9777C98.9533 57.8197 99.0183 57.6157 99.0623 57.4527L99.0694 57.4287ZM99.2197 54.752C99.5687 54.752 99.8367 54.453 99.8367 54.118C99.8367 53.782 99.5727 53.481 99.2197 53.481C98.8677 53.481 98.5997 53.782 98.5997 54.118C98.5997 54.453 98.8677 54.752 99.2197 54.752ZM99.2197 53.335C99.6657 53.335 99.9997 53.679 99.9997 54.118C99.9997 54.557 99.6657 54.898 99.2197 54.898C98.7727 54.898 98.4387 54.557 98.4387 54.118C98.4387 53.679 98.7727 53.335 99.2197 53.335ZM99.1855 54.1182C99.2875 54.1182 99.3335 54.0422 99.3335 53.9192C99.3335 53.7952 99.2605 53.7512 99.1805 53.7512H99.0935V54.1182H99.1855ZM99.4415 54.3202C99.5005 54.4012 99.5685 54.4772 99.6135 54.5052V54.5302H99.4605C99.3875 54.5302 99.3245 54.3762 99.1805 54.1702H99.0935V54.4302C99.0935 54.4812 99.1125 54.4772 99.2075 54.4912V54.5302H98.8315V54.4912C98.9265 54.4772 98.9445 54.4812 98.9445 54.4222V53.8442C98.9445 53.7632 98.9355 53.7342 98.8335 53.7382V53.6992H99.2345C99.3725 53.6992 99.4975 53.7642 99.4975 53.9062C99.4975 54.0222 99.4205 54.1082 99.3125 54.1412L99.4415 54.3202Z" fill="black"/>
</svg>
