<svg width="100" height="100" viewBox="0 0 100 100" fill="none" xmlns="http://www.w3.org/2000/svg">
<path fill-rule="evenodd" clip-rule="evenodd" d="M49.9998 32.9414C59.4212 32.9414 67.0587 40.5789 67.0587 50.0002C67.0064 57.5661 61.9702 64.1909 54.694 66.2651C47.4179 68.3394 39.6455 65.366 35.6116 58.9649C35.5275 59.3924 35.3464 59.7949 35.0822 60.1414L30.5646 66.0943C30.0079 66.8335 29.1369 67.269 28.2116 67.2708C27.5704 67.2666 26.9476 67.0562 26.4351 66.6708C25.8139 66.1995 25.4062 65.4999 25.3024 64.727C25.1987 63.9541 25.4073 63.1717 25.8822 62.5532L30.341 56.5885C31.1861 55.4784 32.6948 55.1147 33.9528 55.7179C33.2851 53.8855 32.9427 51.9505 32.941 50.0002C32.941 40.5789 40.5785 32.9414 49.9998 32.9414ZM39.6741 54.2773C41.404 58.4536 45.4794 61.1767 49.9998 61.1767C56.1698 61.1702 61.1698 56.1701 61.1763 50.0002C61.1763 45.4798 58.4533 41.4044 54.2769 39.6745C50.1005 37.9446 45.2933 38.9008 42.0969 42.0973C38.9004 45.2937 37.9442 50.1009 39.6741 54.2773Z" fill="black"/>
<path d="M37.9651 35.4233C37.4406 35.4229 36.9255 35.2849 36.471 35.0233C35.7976 34.6263 35.31 33.9777 35.1157 33.2206C34.9215 32.4634 35.0366 31.6601 35.4357 30.988L39.2239 24.541C40.0491 23.1407 41.8531 22.6746 43.2533 23.4998C44.6535 24.325 45.1197 26.129 44.2945 27.5292L40.5062 33.9762C39.9743 34.8736 39.0083 35.4237 37.9651 35.4233Z" fill="black"/>
<path d="M72.6706 43.9414L67.9647 49.7296C67.4698 50.3332 67.2351 51.1088 67.3123 51.8855C67.3895 52.6623 67.7724 53.3764 68.3765 53.8708C69.6316 54.8935 71.4774 54.7095 72.5059 53.459L77.2118 47.6708C78.2416 46.4135 78.0573 44.5594 76.8 43.5296C75.5427 42.4997 73.6887 42.6841 72.6588 43.9414H72.6706Z" fill="black"/>
<path d="M31.6975 48.6828C31.1666 49.5684 30.2087 50.1091 29.1762 50.1061C28.0892 50.1087 27.0893 49.5115 26.5762 48.5531L23.0468 41.9414C22.5091 41.0107 22.5219 39.8608 23.0802 38.9423C23.6385 38.0238 24.6533 37.483 25.7271 37.5319C26.8008 37.5807 27.7624 38.2113 28.2351 39.1767L31.7645 45.7884C32.2538 46.6976 32.2283 47.7973 31.6975 48.6828Z" fill="black"/>
<path d="M65.071 60.8939L59.3651 65.7292C58.129 66.7793 57.9763 68.632 59.024 69.8703C59.5247 70.4696 60.2449 70.8431 61.0232 70.9072C61.8015 70.9713 62.573 70.7207 63.1651 70.2115L68.871 65.3762C69.7275 64.7142 70.1511 63.6353 69.9738 62.5674C69.7965 61.4995 69.0469 60.6154 68.0225 60.2657C66.998 59.916 65.8643 60.1573 65.071 60.8939Z" fill="black"/>
<path d="M66.3945 35.3545C65.3713 35.6343 64.2767 35.3414 63.5299 34.588L58.1652 29.4116C56.9891 28.268 56.9628 26.3876 58.1064 25.2116C59.2499 24.0355 61.1303 24.0092 62.3064 25.1527L67.6475 30.388C68.4155 31.1198 68.73 32.2084 68.4705 33.2369C68.211 34.2655 67.4178 35.0746 66.3945 35.3545Z" fill="black"/>
<path fill-rule="evenodd" clip-rule="evenodd" d="M85.7998 56.2353C88.4835 54.6775 90.1352 51.809 90.1352 48.7059C90.1352 45.6028 88.4835 42.7342 85.7998 41.1765C85.1512 40.8046 84.6775 40.1898 84.4832 39.4679C84.289 38.746 84.3902 37.9765 84.7645 37.3294C86.3127 34.6381 86.3104 31.3259 84.7585 28.6367C83.2066 25.9475 80.3399 24.2884 77.235 24.2823C75.6821 24.2823 74.4233 23.0235 74.4233 21.4706C74.4173 18.3657 72.7581 15.499 70.0689 13.9471C67.3797 12.3952 64.0675 12.3929 61.3762 13.9412C60.0367 14.7198 58.3199 14.2736 57.5292 12.9412C55.989 10.2391 53.1099 8.57907 49.9997 8.5998C46.8903 8.58156 44.0123 10.2409 42.4703 12.9412C41.6873 14.2808 39.9729 14.7422 38.6233 13.9765C35.932 12.4282 32.6198 12.4305 29.9306 13.9824C27.2414 15.5343 25.5822 18.401 25.5762 21.5059C25.5762 23.0588 24.3173 24.3176 22.7645 24.3176C19.681 24.3515 16.8455 26.014 15.3101 28.6882C13.7747 31.3625 13.7685 34.6494 15.2939 37.3294C15.6634 37.9837 15.7557 38.7586 15.5502 39.4814C15.3446 40.2042 14.8583 40.8146 14.1997 41.1765C11.516 42.7342 9.86426 45.6028 9.86426 48.7059C9.86426 51.809 11.516 54.6775 14.1997 56.2353C14.8583 56.5972 15.3446 57.2076 15.5502 57.9303C15.7557 58.6531 15.6634 59.4281 15.2939 60.0823C13.7438 62.772 13.7454 66.084 15.2981 68.7721C16.8508 71.4602 19.719 73.1165 22.8233 73.1176C24.3781 73.1241 25.6351 74.3864 25.635 75.9412C25.632 79.0385 27.2749 81.9041 29.9492 83.4666C32.6235 85.029 35.9266 85.0529 38.6233 83.5294C39.269 83.1541 40.0374 83.0511 40.7591 83.2432C41.4808 83.4352 42.0965 83.9064 42.4703 84.5529C44.0234 87.243 46.8936 88.9001 49.9997 88.9001C53.1059 88.9001 55.9761 87.243 57.5292 84.5529C57.903 83.9064 58.5187 83.4352 59.2404 83.2432C59.9621 83.0511 60.7305 83.1541 61.3762 83.5294C64.0694 85.0787 67.384 85.0753 70.074 83.5205C72.764 81.9657 74.4215 79.0952 74.4233 75.9882C74.4297 74.438 75.6848 73.1829 77.235 73.1765C80.3393 73.1753 83.2075 71.519 84.7602 68.8309C86.3129 66.1428 86.3145 62.8308 84.7645 60.1412C84.3712 59.4889 84.2593 58.7051 84.4544 57.9689C84.6496 57.2326 85.135 56.6071 85.7998 56.2353ZM82.8586 51.1412C78.7001 53.5444 77.2734 58.8614 79.6703 63.0235C80.1696 63.8932 80.168 64.9629 79.666 65.831C79.1641 66.6991 78.2378 67.2342 77.235 67.2353C72.4315 67.2418 68.5409 71.1376 68.5409 75.9412C68.535 76.9445 67.9971 77.8693 67.1278 78.3705C66.2586 78.8717 65.1887 78.874 64.3174 78.3765C60.1583 75.9776 54.8423 77.3987 52.435 81.5529C51.9328 82.4231 51.0045 82.9592 49.9997 82.9592C48.995 82.9592 48.0667 82.4231 47.5645 81.5529C47.3783 81.2394 47.174 80.9369 46.9527 80.6471C47.0858 80.6579 47.2196 80.6579 47.3527 80.6471C48.7198 80.6459 49.9074 79.7066 50.2233 78.3765L51.9174 71.0941C52.2265 70.0481 51.9313 68.9169 51.1505 68.1553C50.3697 67.3937 49.2315 67.1267 48.1935 67.4617C47.1555 67.7967 46.3881 68.6786 46.1997 69.7529L44.4939 77.0353C44.3877 77.484 44.3877 77.9513 44.4939 78.4C43.8013 77.982 43.0525 77.6651 42.2703 77.4588C41.528 77.274 40.7647 77.1869 39.9997 77.2C38.4741 77.2012 36.9761 77.6072 35.6586 78.3765C34.7854 78.875 33.713 78.8716 32.8431 78.3676C31.9731 77.8635 31.4368 76.9349 31.435 75.9294C31.4286 71.1305 27.5399 67.2418 22.7409 67.2353C21.7382 67.2342 20.8119 66.6991 20.3099 65.831C19.808 64.9629 19.8063 63.8932 20.3056 63.0235C22.7025 58.8614 21.2759 53.5444 17.1174 51.1412C16.2534 50.6343 15.7227 49.7076 15.7227 48.7059C15.7227 47.7042 16.2534 46.7775 17.1174 46.2706C19.1169 45.1187 20.5765 43.219 21.1745 40.9903C21.7725 38.7615 21.4599 36.3864 20.3056 34.3882C19.8081 33.5169 19.8104 32.447 20.3116 31.5778C20.8128 30.7086 21.7376 30.1706 22.7409 30.1647C27.5399 30.1582 31.4286 26.2695 31.435 21.4706C31.441 20.4672 31.9789 19.5424 32.8481 19.0412C33.7173 18.54 34.7872 18.5378 35.6586 19.0353C37.6567 20.1896 40.0318 20.5022 42.2606 19.9042C44.4894 19.3061 46.389 17.8466 47.5409 15.8471C48.0478 14.9831 48.9745 14.4524 49.9762 14.4524C50.9779 14.4524 51.9046 14.9831 52.4115 15.8471C54.819 20 60.1308 21.4253 64.2939 19.0353C65.1652 18.5378 66.2351 18.54 67.1043 19.0412C67.9735 19.5424 68.5115 20.4672 68.5174 21.4706C68.5239 26.2695 72.4126 30.1582 77.2115 30.1647C78.2149 30.1706 79.1397 30.7086 79.6409 31.5778C80.1421 32.447 80.1443 33.5169 79.6468 34.3882C77.2499 38.5504 78.6765 43.8674 82.835 46.2706C83.699 46.7775 84.2297 47.7042 84.2297 48.7059C84.2297 49.7076 83.699 50.6343 82.835 51.1412H82.8586Z" fill="black"/>
<path fill-rule="evenodd" clip-rule="evenodd" d="M0 50C0 22.3858 22.3858 0 50 0C77.6008 0.0324144 99.9676 22.3992 100 50C100 77.6142 77.6142 100 50 100C22.3858 100 0 77.6142 0 50ZM5.88235 50C5.88235 74.3655 25.6345 94.1176 50 94.1176C74.3548 94.0917 94.0917 74.3548 94.1176 50C94.1176 25.6345 74.3655 5.88235 50 5.88235C25.6345 5.88235 5.88235 25.6345 5.88235 50Z" fill="black"/>
</svg>
