<svg width="100" height="100" viewBox="0 0 100 100" fill="none" xmlns="http://www.w3.org/2000/svg">
<path fill-rule="evenodd" clip-rule="evenodd" d="M88.7767 48.7444C88.7767 51.7458 87.177 54.5197 84.5792 56.0229C83.3016 56.7696 82.8569 58.4017 83.5792 59.6933C85.0764 62.2912 85.0749 65.4904 83.5751 68.0868C82.0754 70.6833 79.305 72.2831 76.3065 72.2842C74.8091 72.2904 73.5968 73.5028 73.5906 75.0001C73.5888 78.0012 71.9879 80.7738 69.3896 82.2756C66.7913 83.7774 63.5897 83.7807 60.9883 82.2842C59.6886 81.536 58.0285 81.9777 57.2724 83.2729C55.7723 85.8712 53 87.4719 49.9997 87.4719C46.9994 87.4719 44.2271 85.8712 42.727 83.2729C41.9708 81.9777 40.3108 81.536 39.0111 82.2842C36.4097 83.7807 33.208 83.7774 30.6098 82.2756C28.0115 80.7738 26.4105 78.0012 26.4088 75.0001C26.378 73.5205 25.1728 72.3355 23.6929 72.3297C20.6944 72.3285 17.924 70.7287 16.4243 68.1323C14.9245 65.5358 14.9229 62.3367 16.4201 59.7388C16.7803 59.1123 16.8784 58.369 16.6929 57.6706C16.5067 56.9729 16.0481 56.3793 15.4201 56.0229C12.8223 54.5197 11.2227 51.7458 11.2227 48.7444C11.2227 45.7431 12.8223 42.9692 15.4201 41.466C16.0458 41.1091 16.5032 40.5173 16.6909 39.8218C16.8786 39.1264 16.7812 38.3848 16.4201 37.7615C14.9171 35.1629 14.9156 31.9596 16.4161 29.3595C17.9166 26.7594 20.6909 25.158 23.6929 25.1592C25.1928 25.1592 26.4088 23.9433 26.4088 22.4433C26.4146 19.4443 28.0172 16.6753 30.6147 15.1763C33.2122 13.6773 36.4115 13.6751 39.0111 15.1706C40.3147 15.9102 41.9707 15.4646 42.727 14.1706C44.2134 11.558 46.9938 9.95055 49.9997 9.96593C53.0056 9.95055 55.7859 11.558 57.2724 14.1706C58.0287 15.4646 59.6847 15.9102 60.9883 15.1706C63.5879 13.6751 66.7872 13.6773 69.3847 15.1763C71.9822 16.6753 73.5848 19.4443 73.5906 22.4433C73.5906 23.9433 74.8066 25.1592 76.3065 25.1592C79.3085 25.158 82.0828 26.7594 83.5833 29.3595C85.0838 31.9596 85.0823 35.1629 83.5792 37.7615C83.2182 38.3848 83.1208 39.1264 83.3085 39.8218C83.4962 40.5173 83.9536 41.1091 84.5792 41.466C87.177 42.9692 88.7767 45.7431 88.7767 48.7444ZM59.852 25.1996C59.0973 25.1996 58.3736 25.4999 57.8406 26.0342C56.7434 27.1562 56.7586 28.9537 57.8747 30.0569L63.0338 35.1138C63.5677 35.6293 64.2803 35.9184 65.0224 35.9206C65.7847 35.9242 66.5153 35.6163 67.0452 35.0683C67.5788 34.5373 67.8788 33.8155 67.8788 33.0626C67.8788 32.3098 67.5788 31.588 67.0452 31.0569L61.8633 26.0342C61.3303 25.4999 60.6067 25.1996 59.852 25.1996ZM39.5452 25.4092L35.8861 31.6365C35.0899 32.9895 35.5369 34.7316 36.8861 35.5342C37.3251 35.7869 37.8227 35.9202 38.3292 35.9206C39.3369 35.9209 40.2699 35.3896 40.7838 34.5229L44.4429 28.2956C44.9585 27.4207 44.9682 26.3372 44.4683 25.4532C43.9684 24.5692 43.0349 24.0191 42.0194 24.0099C41.0039 24.001 40.0607 24.5343 39.5452 25.4092ZM24.0092 39.3192C23.4699 40.2064 23.4576 41.3171 23.977 42.216L27.3861 48.6024C28.152 49.9281 29.8307 50.4084 31.1819 49.6884C32.5331 48.9683 33.0707 47.307 32.3974 45.9319L28.9883 39.5456C28.5318 38.6131 27.603 38.004 26.5658 37.9569C25.5287 37.9097 24.5485 38.4321 24.0092 39.3192ZM31.1701 65.5569L35.5338 59.8069L35.5565 59.7842C36.4979 58.529 36.2435 56.7483 34.9883 55.8069C33.7331 54.8656 31.9525 55.1199 31.0111 56.3751L26.6474 62.1365C26.1887 62.734 25.9872 63.4897 26.0874 64.2362C26.1877 64.9827 26.5814 65.6585 27.1815 66.1138C27.6765 66.486 28.2781 66.6892 28.8974 66.6933C29.7912 66.6915 30.6325 66.2709 31.1701 65.5569ZM50.2156 77.4888L51.852 70.4547C52.0995 69.4594 51.7913 68.4079 51.0457 67.7037C50.3001 66.9995 49.2327 66.7518 48.2532 67.0557C47.2736 67.3597 46.5339 68.168 46.3179 69.1706L44.6815 76.2047C44.3265 77.7293 45.2717 79.2538 46.7952 79.6138C47.0082 79.6584 47.2252 79.6812 47.4429 79.6819C48.7634 79.6809 49.9105 78.7735 50.2156 77.4888ZM37.4013 55.2185C39.512 60.3141 44.4843 63.6365 49.9997 63.6365C53.6163 63.6365 57.0847 62.1998 59.6421 59.6425C62.1994 57.0852 63.6361 53.6167 63.6361 50.0001C63.6361 44.4847 60.3137 39.5124 55.2181 37.4018C50.1225 35.2911 44.2573 36.4578 40.3573 40.3578C36.4574 44.2577 35.2907 50.123 37.4013 55.2185ZM62.6702 69.5229L68.1815 64.8524C69.1379 63.8081 69.1792 62.2189 68.2782 61.1263C67.3773 60.0338 65.8094 59.7715 64.602 60.5115L59.0906 65.1933C58.1324 65.7682 57.6003 66.8515 57.7308 67.9613C57.8614 69.0711 58.6304 70.0013 59.6959 70.3381C60.7614 70.675 61.9254 70.3559 62.6702 69.5229ZM71.7042 53.3979L76.2497 47.8069L76.2952 47.7274C77.112 46.4986 76.8521 44.849 75.697 43.9308C74.5419 43.0127 72.8762 43.1317 71.8633 44.2047L67.3179 49.7956C66.6182 50.5728 66.4021 51.6715 66.7552 52.6558C67.1084 53.6401 67.9738 54.3508 69.008 54.5059C70.0422 54.6609 71.0779 54.2353 71.7042 53.3979Z" fill="black"/>
<path fill-rule="evenodd" clip-rule="evenodd" d="M0 50C0 77.6142 22.3858 100 50 100C77.6013 99.9687 99.9687 77.6013 100 50C100 22.3858 77.6142 0 50 0C22.3858 0 0 22.3858 0 50ZM9.09091 50C9.09091 27.4065 27.4065 9.09091 50 9.09091C60.8498 9.09091 71.2551 13.401 78.9271 21.0729C86.599 28.7448 90.9091 39.1502 90.9091 50C90.9091 72.5935 72.5935 90.9091 50 90.9091C27.4065 90.9091 9.09091 72.5935 9.09091 50Z" fill="black"/>
</svg>
