<?xml version="1.0" encoding="UTF-8"?>
<svg width="100px" height="100px" viewBox="0 0 100 100" version="1.1" xmlns="http://www.w3.org/2000/svg" xmlns:xlink="http://www.w3.org/1999/xlink">
    <!-- Generator: Sketch 57.1 (83088) - https://sketch.com -->
    <title>bold/double-chevron-left-bold</title>
    <desc>Created with Sketch.</desc>
    <g id="bold/double-chevron-left" stroke="none" stroke-width="1" fill="none" fill-rule="evenodd">
        <path d="M64.0043701,2.4264053 C65.6879177,4.11784457 65.7378885,6.83606025 64.1176471,8.58823525 L22.7156862,50 L64.1176471,91.4117647 C65.3226621,92.5156368 65.8258567,94.1910809 65.4284452,95.7762178 C65.0310337,97.3613546 63.7969335,98.6012396 62.2136725,99.0060597 C60.6304115,99.4108797 58.9526325,98.9155259 57.8431373,97.7156863 L16.2843137,56.1764706 C14.6414973,54.5414869 13.720237,52.3177553 13.7254457,50 C13.720237,47.6822447 14.6414973,45.4585131 16.2843137,43.8235294 L57.8431373,2.28431368 C59.6028702,0.672284051 62.3208225,0.734966027 64.0043701,2.4264053 Z M81.9404725,0.99299698 C83.5242748,1.39588457 84.7609782,2.6325879 85.1638658,4.21639021 C85.5667533,5.80019252 85.0713203,7.47751667 83.8725491,8.58823525 L42.4607843,50 L83.8725491,91.4117647 C85.0713203,92.5224833 85.5667533,94.1998075 85.1638658,95.7836098 C84.7609782,97.3674121 83.5242748,98.6041154 81.9404725,99.007003 C80.3566702,99.4098906 78.6793461,98.9144575 77.5686275,97.7156863 L36.0294118,56.1764706 C34.3947826,54.5368102 33.4779581,52.3152738 33.4803825,50 C33.4779581,47.6847262 34.3947826,45.4631898 36.0294118,43.8235294 L77.5686275,2.28431368 C78.6793461,1.08554247 80.3566702,0.590109386 81.9404725,0.99299698 Z" id="Shape" fill="#000000"></path>
    </g>
</svg>