<?xml version="1.0" encoding="UTF-8"?>
<svg width="100px" height="100px" viewBox="0 0 100 100" version="1.1" xmlns="http://www.w3.org/2000/svg" xmlns:xlink="http://www.w3.org/1999/xlink">
    <!-- Generator: Sketch 57.1 (83088) - https://sketch.com -->
    <title>bold/double-chevron-down-bold</title>
    <desc>Created with Sketch.</desc>
    <g id="bold/double-chevron-down" stroke="none" stroke-width="1" fill="none" fill-rule="evenodd">
        <path d="M95.6707342,34.4561666 C97.2233439,34.8708924 98.4367608,36.0824222 98.8539026,37.6343845 C99.2710443,39.1863467 98.8285372,40.8429615 97.6930694,41.980198 L55.7425743,83.9306931 C54.0914026,85.589775 51.8456539,86.5201567 49.5049505,86.5148965 C47.1642471,86.5201567 44.9184983,85.589775 43.2673267,83.9306931 L1.31683163,41.980198 C0.181363768,40.8429615 -0.261143353,39.1863467 0.155998419,37.6343845 C0.573140192,36.0824222 1.7865571,34.8708924 3.33916674,34.4561666 C4.89177638,34.0414409 6.54770041,34.4865259 7.68316827,35.6237624 L49.5049505,77.4356436 L91.3267327,35.6237624 C92.4622006,34.4865259 94.1181246,34.0414409 95.6707342,34.4561666 Z M95.7418633,14.3691653 C97.3413469,14.7760419 98.5902948,16.0249898 98.9971714,17.6244733 C99.4040479,19.2239568 98.9037096,20.9178881 97.6930694,22.0396039 L55.7425743,63.990099 C54.0866796,65.6409126 51.8431478,66.5668146 49.5049505,66.5643662 C47.1667532,66.5668146 44.9232214,65.6409126 43.2673267,63.990099 L1.31683163,22.0396039 C-0.328768483,20.2635483 -0.276189111,17.5043883 1.43588179,15.7923174 C3.14795268,14.0802465 5.9071126,14.0276672 7.68316827,15.6732673 L49.5049505,57.4950495 L91.3267327,15.6732673 C92.4484485,14.4626271 94.1423798,13.9622887 95.7418633,14.3691653 Z" id="Shape" fill="#000000"></path>
    </g>
</svg>