<?xml version="1.0" encoding="UTF-8"?>
<svg width="100px" height="100px" viewBox="0 0 100 100" version="1.1" xmlns="http://www.w3.org/2000/svg" xmlns:xlink="http://www.w3.org/1999/xlink">
    <!-- Generator: Sketch 57.1 (83088) - https://sketch.com -->
    <title>solid/double-chevron-down-solid</title>
    <desc>Created with Sketch.</desc>
    <g id="solid/double-chevron-down" stroke="none" stroke-width="1" fill="none" fill-rule="evenodd">
        <path d="M97.3986399,37.0613601 C100.591885,40.2546049 100.663413,45.4093822 97.56,48.69 L58.72,87.5 C56.4129055,89.8232334 53.2741561,91.13 50,91.13 C46.7258439,91.13 43.5870945,89.8232334 41.28,87.5 L2.43999995,48.69 C-0.663412855,45.4093822 -0.591884668,40.2546049 2.60136008,37.0613601 C5.79460483,33.8681154 10.9493822,33.7965872 14.23,36.9 L50,72.68 L85.77,36.9 C89.0506178,33.7965872 94.2053952,33.8681154 97.3986399,37.0613601 Z M97.3986399,11.1013601 C100.591885,14.2946048 100.663413,19.4493822 97.56,22.73 L58.72,61.56 C56.4115032,63.8787178 53.2719318,65.1784716 50,65.1700819 C46.7280682,65.1784716 43.5884968,63.8787178 41.28,61.56 L2.43999995,22.73 C-0.663412855,19.4493822 -0.591884668,14.2946048 2.60136008,11.1013601 C5.79460483,7.90811534 10.9493822,7.83658715 14.23,10.94 L50,46.71 L85.77,10.94 C89.0506178,7.83658715 94.2053952,7.90811534 97.3986399,11.1013601 Z" id="Shape" fill="#000000"></path>
    </g>
</svg>