<svg width="100" height="100" viewBox="0 0 100 100" fill="none" xmlns="http://www.w3.org/2000/svg">
<g clip-path="url(#clip0)">
<path d="M94.9766 64.3174C95.5285 64.8698 96.2781 65.179 97.059 65.1763C98.2451 65.1737 99.3135 64.4589 99.7686 63.3636C100.224 62.2683 99.9763 61.0069 99.1413 60.1645L55.2943 16.3057C53.8923 14.8976 51.9872 14.106 50.0002 14.106C48.0131 14.106 46.108 14.8976 44.706 16.3057L0.858986 60.1645C-0.254117 61.3201 -0.235633 63.1546 0.900528 64.2876C2.03669 65.4205 3.87123 65.4338 5.02369 64.3174L48.8825 20.4586C49.5015 19.8456 50.4988 19.8456 51.1178 20.4586L94.9766 64.3174Z" fill="black"/>
<path d="M94.9763 85.1764C95.5283 85.7287 96.2779 86.0379 97.0587 86.0352C97.8395 86.0379 98.5891 85.7287 99.1411 85.1764C100.28 84.0219 100.28 82.1662 99.1411 81.0117L55.294 37.1528C52.3685 34.2329 47.6312 34.2329 44.7058 37.1528L0.8587 81.0117C0.114747 81.7556 -0.1758 82.84 0.0965056 83.8562C0.368811 84.8725 1.1626 85.6663 2.17886 85.9386C3.19512 86.2109 4.27945 85.9203 5.02341 85.1764L48.8822 41.3176C49.1765 41.0172 49.5794 40.8479 49.9999 40.8479C50.4204 40.8479 50.8232 41.0172 51.1175 41.3176L94.9763 85.1764Z" fill="black"/>
</g>
<defs>
<clipPath id="clip0">
<rect width="100" height="100" fill="white"/>
</clipPath>
</defs>
</svg>
