<svg width="100" height="100" viewBox="0 0 100 100" fill="none" xmlns="http://www.w3.org/2000/svg">
<g clip-path="url(#clip0)">
<path d="M14.3879 99.141C14.9398 99.6933 15.6894 100.003 16.4703 99.9998C17.2511 100.003 18.0007 99.6933 18.5526 99.141L62.4115 55.2939C65.3314 52.3684 65.3314 47.6312 62.4115 44.7057L18.5526 0.858633C17.4026 -0.291419 15.538 -0.291419 14.3879 0.858633C13.2379 2.00868 13.2379 3.87329 14.3879 5.02334L58.235 48.8822C58.5354 49.1765 58.7046 49.5793 58.7046 49.9998C58.7046 50.4203 58.5354 50.8232 58.235 51.1175L14.3879 94.9763C13.2487 96.1308 13.2487 97.9865 14.3879 99.141Z" fill="black"/>
<path d="M34.6071 98.185C35.0632 99.2854 36.1381 100.002 37.3293 100C38.1112 100.008 38.8628 99.6979 39.4117 99.1411L83.2705 55.294C86.1905 52.3685 86.1905 47.6312 83.2705 44.7058L39.4117 0.8587C38.6677 0.114747 37.5834 -0.1758 36.5671 0.0965056C35.5509 0.368811 34.7571 1.1626 34.4848 2.17886C34.2125 3.19512 34.503 4.27945 35.247 5.02341L79.1058 48.8822C79.7189 49.5012 79.7189 50.4985 79.1058 51.1175L35.247 94.9763C34.4036 95.8176 34.1509 97.0845 34.6071 98.185Z" fill="black"/>
</g>
<defs>
<clipPath id="clip0">
<rect width="100" height="100" fill="white"/>
</clipPath>
</defs>
</svg>
