<?xml version="1.0" encoding="UTF-8"?>
<svg width="100px" height="100px" viewBox="0 0 100 100" version="1.1" xmlns="http://www.w3.org/2000/svg" xmlns:xlink="http://www.w3.org/1999/xlink">
    <!-- Generator: Sketch 57.1 (83088) - https://sketch.com -->
    <title>bold/double-chevron-right-bold</title>
    <desc>Created with Sketch.</desc>
    <g id="bold/double-chevron-right" stroke="none" stroke-width="1" fill="none" fill-rule="evenodd">
        <path d="M41.4,1.32999995 L83.77,43.7 C85.4456728,45.3676833 86.3853582,47.6358896 86.3800454,50 C86.3853582,52.3641104 85.4456728,54.6323167 83.77,56.3 L41.4,98.67 C40.2513911,99.8168227 38.5782102,100.263755 37.0107282,99.8424417 C35.4432463,99.4211286 34.2196012,98.1955775 33.8007282,96.6274417 C33.3818551,95.0593059 33.831391,93.3868226 34.98,92.24 L77.21,50 L34.98,7.75999996 C33.8313911,6.61317742 33.3818552,4.94069413 33.8007282,3.37255837 C34.2196013,1.80442261 35.4432464,0.578871513 37.0107283,0.157558328 C38.5782102,-0.263754857 40.2513911,0.183177366 41.4,1.32999995 Z M21.26,1.32999995 L63.63,43.7 C65.2973217,45.3724536 66.2324828,47.6384207 66.2300099,50 C66.2324828,52.3615793 65.2973217,54.6275464 63.63,56.3 L21.26,98.67 C19.4661837,100.332056 16.6794322,100.278951 14.9502406,98.5497594 C13.221049,96.8205678 13.1679438,94.0338163 14.83,92.24 L57.07,50 L14.83,7.75999996 C13.1679438,5.96618373 13.221049,3.17943221 14.9502406,1.4502406 C16.6794322,-0.278951001 19.4661837,-0.332056168 21.26,1.32999995 Z" id="Shape" fill="#000000"></path>
    </g>
</svg>