<svg width="100" height="100" viewBox="0 0 100 100" fill="none" xmlns="http://www.w3.org/2000/svg">
<g clip-path="url(#clip0)">
<path d="M78.0938 97.5627C79.6579 99.1251 81.7788 100.002 83.9896 100C87.3622 100.003 90.4038 97.9725 91.6948 94.8568C92.9858 91.7411 92.2715 88.1545 89.8854 85.7711L54.1042 50.0002L89.8854 14.2294C93.1416 10.9732 93.1416 5.69392 89.8854 2.43774C86.6292 -0.818439 81.3499 -0.818439 78.0938 2.43774L39.2604 41.2711C34.4457 46.0906 34.4457 53.8995 39.2604 58.719L78.0938 97.5627Z" fill="black"/>
<path d="M49.2186 97.5627C50.7802 99.1225 52.8969 99.9991 55.104 100C58.4766 100.003 61.5183 97.9724 62.8092 94.8568C64.1002 91.7411 63.386 88.1544 60.9999 85.771L25.229 50.0002L60.9999 14.2293C63.1063 12.1248 63.9299 9.05642 63.1605 6.17998C62.3911 3.30355 60.1456 1.05607 57.2699 0.284151C54.3941 -0.487767 51.325 0.333148 49.2186 2.43767L10.3749 41.271C5.57165 46.0953 5.57165 53.8946 10.3749 58.7189L49.2186 97.5627Z" fill="black"/>
</g>
<defs>
<clipPath id="clip0">
<rect width="100" height="100" fill="white"/>
</clipPath>
</defs>
</svg>
