<svg width="100" height="100" viewBox="0 0 100 100" fill="none" xmlns="http://www.w3.org/2000/svg">
<path d="M44.7062 62.8825C46.1092 64.2874 48.0145 65.0749 50 65.0706C51.9854 65.0749 53.8907 64.2874 55.2937 62.8825L99.1375 19.0269C99.8814 18.283 100.172 17.1988 99.8996 16.1826C99.6273 15.1664 98.8336 14.3727 97.8174 14.1004C96.8012 13.8281 95.717 14.1186 94.9731 14.8625L51.1175 58.7063C50.8232 59.0067 50.4205 59.1759 50 59.1759C49.5795 59.1759 49.1767 59.0067 48.8824 58.7063L5.02687 14.8625C3.8769 13.7126 2.01244 13.7126 0.862474 14.8625C-0.287491 16.0125 -0.287491 17.877 0.862474 19.0269L44.7062 62.8825Z" fill="black"/>
<path d="M44.7061 83.7396C46.1132 85.1369 48.0168 85.9195 49.9998 85.9159C51.9828 85.9195 53.8864 85.1369 55.2935 83.7396L99.1373 39.8841C100.287 38.7341 100.287 36.8696 99.1373 35.7197C97.9873 34.5697 96.1229 34.5697 94.9729 35.7197L51.1174 79.5752C50.4984 80.1882 49.5012 80.1882 48.8822 79.5752L5.0267 35.7314C3.87433 34.6151 2.03993 34.6284 0.903849 35.7613C-0.232227 36.8942 -0.250709 38.7285 0.862311 39.8841L44.7061 83.7396Z" fill="black"/>
</svg>
