<svg width="100" height="100" viewBox="0 0 100 100" fill="none" xmlns="http://www.w3.org/2000/svg">
<g clip-path="url(#clip0)">
<path d="M81.0117 99.1411C81.5636 99.6934 82.3132 100.003 83.094 99.9999C83.8749 100.003 84.6245 99.6934 85.1764 99.1411C86.3156 97.9865 86.3156 96.1309 85.1764 94.9763L41.3176 51.1175C41.0172 50.8232 40.8479 50.4204 40.8479 49.9999C40.8479 49.5794 41.0172 49.1765 41.3176 48.8822L85.1764 5.02341C85.9203 4.27945 86.2109 3.19512 85.9386 2.17886C85.6663 1.1626 84.8725 0.368811 83.8562 0.0965056C82.84 -0.1758 81.7556 0.114747 81.0117 0.8587L37.1528 44.7058C34.2329 47.6312 34.2329 52.3685 37.1528 55.294L81.0117 99.1411Z" fill="black"/>
<path d="M60.165 99.1413C60.7169 99.6937 61.4665 100.003 62.2473 100C63.4364 99.9975 64.507 99.2792 64.9601 98.1798C65.4132 97.0804 65.1598 95.8164 64.3179 94.9766L20.4591 51.1178C19.846 50.4988 19.846 49.5015 20.4591 48.8825L64.3179 5.02369C65.4343 3.87123 65.421 2.03669 64.2881 0.900528C63.1551 -0.235633 61.3206 -0.254117 60.165 0.858986L16.3062 44.706C14.898 46.108 14.1064 48.0131 14.1064 50.0002C14.1064 51.9872 14.898 53.8923 16.3062 55.2943L60.165 99.1413Z" fill="black"/>
</g>
<defs>
<clipPath id="clip0">
<rect width="100" height="100" fill="white"/>
</clipPath>
</defs>
</svg>
