<?xml version="1.0" encoding="UTF-8"?>
<svg width="100px" height="100px" viewBox="0 0 100 100" version="1.1" xmlns="http://www.w3.org/2000/svg" xmlns:xlink="http://www.w3.org/1999/xlink">
    <!-- Generator: Sketch 57.1 (83088) - https://sketch.com -->
    <title>bold/double-chevron-up-bold</title>
    <desc>Created with Sketch.</desc>
    <g id="bold/double-chevron-up" stroke="none" stroke-width="1" fill="none" fill-rule="evenodd">
        <path d="M50,33.4803825 C52.3152738,33.4779581 54.5368102,34.3947826 56.1764706,36.0294118 L97.7156863,77.5686275 C98.9144575,78.6793461 99.4098906,80.3566702 99.007003,81.9404725 C98.6041154,83.5242748 97.3674121,84.7609782 95.7836098,85.1638658 C94.1998075,85.5667533 92.5224833,85.0713203 91.4117647,83.8725491 L50,42.4607843 L8.58823525,83.8725491 C7.47751667,85.0713203 5.80019252,85.5667533 4.21639021,85.1638658 C2.6325879,84.7609782 1.39588457,83.5242748 0.99299698,81.9404725 C0.590109386,80.3566702 1.08554247,78.6793461 2.28431368,77.5686275 L43.8235294,36.0294118 C45.4631898,34.3947826 47.6847262,33.4779581 50,33.4803825 Z M50,13.7254457 C52.3177553,13.720237 54.5414869,14.6414973 56.1764706,16.2843137 L97.7156863,57.8431373 C98.8400222,58.9692244 99.2781911,60.6095979 98.865139,62.1463449 C98.4520868,63.6830919 97.2505661,64.882744 95.7131781,65.2934038 C94.1757901,65.7040636 92.5361006,65.2633421 91.4117647,64.1372549 L50,22.7156862 L8.58823525,64.1176471 C6.83606025,65.7378885 4.11784457,65.6879177 2.4264053,64.0043701 C0.734966027,62.3208225 0.672284051,59.6028702 2.28431368,57.8431373 L43.8235294,16.2843137 C45.4585131,14.6414973 47.6822447,13.720237 50,13.7254457 Z" id="Shape" fill="#000000"></path>
    </g>
</svg>