<svg width="100" height="100" viewBox="0 0 100 100" fill="none" xmlns="http://www.w3.org/2000/svg">
<g clip-path="url(#clip0)">
<path d="M85.7661 61.2212C87.3301 62.7834 89.4507 63.6602 91.6613 63.6584C95.0289 63.6569 98.0645 61.6284 99.3543 58.5176C100.644 55.4068 99.9348 51.8254 97.5564 49.4413L58.7275 10.602C53.9038 5.79933 46.1053 5.79933 41.2816 10.602L2.44231 49.4413C0.338033 51.5475 -0.482789 54.6162 0.289042 57.4916C1.06087 60.3671 3.30809 62.6123 6.1842 63.3816C9.06031 64.1509 12.1284 63.3274 14.2326 61.2212L49.9994 25.4545L85.7661 61.2212Z" fill="black"/>
<path d="M85.7657 90.1033C87.3296 91.6655 89.4503 92.5423 91.6608 92.5405C95.033 92.5432 98.0743 90.513 99.3651 87.3977C100.656 84.2824 99.9418 80.6961 97.556 78.313L58.7271 39.4841C53.9081 34.67 46.1001 34.67 41.2812 39.4841L2.44185 78.313C-0.813952 81.5688 -0.813952 86.8475 2.44185 90.1033C5.69766 93.3591 10.9764 93.3591 14.2322 90.1033L49.9989 54.3261L85.7657 90.1033Z" fill="black"/>
</g>
<defs>
<clipPath id="clip0">
<rect width="100" height="100" fill="white"/>
</clipPath>
</defs>
</svg>
