<?xml version="1.0" encoding="UTF-8"?>
<svg width="100px" height="100px" viewBox="0 0 100 100" version="1.1" xmlns="http://www.w3.org/2000/svg" xmlns:xlink="http://www.w3.org/1999/xlink">
    <!-- Generator: Sketch 57.1 (83088) - https://sketch.com -->
    <title>regular/double-chevron-down-regular</title>
    <desc>Created with Sketch.</desc>
    <g id="regular/double-chevron-down" stroke="none" stroke-width="1" fill="none" fill-rule="evenodd">
        <path d="M97.3134673,35.9267773 C98.1318525,36.1409024 98.7702471,36.781197 98.9819392,37.6002149 C99.1936312,38.4192328 98.9454602,39.2886786 98.3333334,39.872549 L54.8235294,83.382353 C53.5446849,84.6613423 51.8086545,85.3776312 50,85.3728916 C48.1955679,85.3854389 46.4601298,84.6799763 45.1764706,83.4117647 L1.66666662,39.872549 C1.05453984,39.2886786 0.806368756,38.4192328 1.01806082,37.6002149 C1.22975288,36.781197 1.86814755,36.1409024 2.6865327,35.9267773 C3.50491786,35.7126523 4.37509738,35.9582385 4.96078427,36.5686274 L48.4803922,80.0784314 C48.8818638,80.4843714 49.429065,80.7128056 50,80.7128056 C50.570935,80.7128056 51.1181362,80.4843714 51.5196078,80.0784314 L95.0392157,36.5686274 C95.6249026,35.9582385 96.4950821,35.7126523 97.3134673,35.9267773 Z M97.3429079,15.1671172 C98.1840405,15.3749011 98.8407852,16.0316458 99.0485691,16.8727784 C99.256353,17.7139109 98.9809599,18.6009204 98.3333334,19.1764706 L54.8235294,62.6960784 C53.5469149,63.979586 51.8102827,64.699653 50,64.6964799 C48.1953602,64.7100519 46.4595225,64.0044268 45.1764706,62.7352941 L1.66666662,19.1764706 C0.846036539,18.2530726 0.887336893,16.8500764 1.76086349,15.9765498 C2.63439009,15.1030232 4.03738635,15.0617228 4.96078427,15.8823529 L48.4803922,59.3921569 C49.3298669,60.2063698 50.6701331,60.2063698 51.5196078,59.3921569 L95.0392157,15.8823529 C95.6147659,15.2347264 96.5017754,14.9593333 97.3429079,15.1671172 Z" id="Shape" fill="#000000"></path>
    </g>
</svg>