<svg width="100" height="100" viewBox="0 0 100 100" fill="none" xmlns="http://www.w3.org/2000/svg">
<g clip-path="url(#clip0)">
<path d="M41.282 60.0623C43.5916 62.3773 46.7298 63.6746 49.9999 63.6662C53.2727 63.6728 56.4135 62.376 58.7282 60.0623L97.5579 21.2326C99.6641 19.1265 100.487 16.0566 99.7157 13.1795C98.9448 10.3025 96.6975 8.05519 93.8205 7.28427C90.9434 6.51336 87.8735 7.33591 85.7674 9.44209L49.9999 45.22L14.2325 9.44209C10.9766 6.18622 5.69777 6.18622 2.4419 9.44209C-0.813968 12.698 -0.813968 17.9768 2.4419 21.2326L41.282 60.0623Z" fill="black"/>
<path d="M41.2822 88.9342C43.5908 91.2521 46.7288 92.553 50.0002 92.5485C53.2743 92.5512 56.4148 91.2507 58.7285 88.9342L97.5582 50.1045C100.811 46.8487 100.809 41.5722 97.553 38.3192C94.2971 35.0662 89.0206 35.0685 85.7676 38.3244L50.0002 74.0919L14.2327 38.3244C10.9797 35.0685 5.70325 35.0662 2.44738 38.3192C-0.808495 41.5722 -0.810827 46.8487 2.44217 50.1045L41.2822 88.9342Z" fill="black"/>
</g>
<defs>
<clipPath id="clip0">
<rect width="100" height="100" fill="white"/>
</clipPath>
</defs>
</svg>
