<?xml version="1.0" encoding="UTF-8"?>
<svg width="100px" height="100px" viewBox="0 0 100 100" version="1.1" xmlns="http://www.w3.org/2000/svg" xmlns:xlink="http://www.w3.org/1999/xlink">
    <!-- Generator: Sketch 57.1 (83088) - https://sketch.com -->
    <title>solid/double-chevron-right-solid</title>
    <desc>Created with Sketch.</desc>
    <g id="solid/double-chevron-right" stroke="none" stroke-width="1" fill="none" fill-rule="evenodd">
        <path d="M48.69,2.43999995 L87.5,41.28 C89.8232334,43.5870945 91.13,46.7258439 91.13,50 C91.13,53.2741561 89.8232334,56.4129055 87.5,58.72 L48.69,97.56 C45.4093822,100.663413 40.2546049,100.591885 37.0613601,97.3986399 C33.8681154,94.2053952 33.7965872,89.0506178 36.9,85.77 L72.68,50 L36.9,14.23 C33.7965872,10.9493822 33.8681154,5.79460483 37.0613601,2.60136008 C40.2546049,-0.591884668 45.4093822,-0.663412855 48.69,2.43999995 Z M22.73,2.43999995 L61.56,41.28 C63.8787178,43.5884968 65.1784716,46.7280682 65.1700819,50 C65.1784716,53.2719318 63.8787178,56.4115032 61.56,58.72 L22.73,97.56 C19.4493822,100.663413 14.2946048,100.591885 11.1013601,97.3986399 C7.90811534,94.2053952 7.83658715,89.0506178 10.94,85.77 L46.71,50 L10.94,14.23 C7.83658715,10.9493822 7.90811534,5.79460483 11.1013601,2.60136008 C14.2946048,-0.591884668 19.4493822,-0.663412855 22.73,2.43999995 Z" id="Shape" fill="#000000"></path>
    </g>
</svg>