<svg width="100" height="100" viewBox="0 0 100 100" fill="none" xmlns="http://www.w3.org/2000/svg">
<g clip-path="url(#clip0)">
<path d="M7.92011 94.8568C9.21109 97.9725 12.2527 100.003 15.6253 100C17.8361 100.002 19.957 99.1251 21.5211 97.5627L60.3545 58.719C65.1691 53.8995 65.1691 46.0906 60.3545 41.2711L21.5211 2.43774C18.2649 -0.818439 12.9856 -0.818439 9.72946 2.43774C6.47328 5.69392 6.47328 10.9732 9.72946 14.2294L45.5107 50.0002L9.72946 85.7711C7.34337 88.1545 6.62912 91.7411 7.92011 94.8568Z" fill="black"/>
<path d="M36.8049 94.8566C38.0959 97.9722 41.1375 100.003 44.5101 100C46.7173 99.999 48.8339 99.1223 50.3955 97.5625L89.2392 58.7187C94.0425 53.8945 94.0425 46.0951 89.2392 41.2708L50.3955 2.43748C47.1393 -0.815827 41.8623 -0.813495 38.609 2.44268C35.3557 5.69886 35.358 10.9758 38.6142 14.2291L74.3851 50L38.6142 85.7708C36.2281 88.1542 35.5139 91.7409 36.8049 94.8566Z" fill="black"/>
</g>
<defs>
<clipPath id="clip0">
<rect width="100" height="100" fill="white"/>
</clipPath>
</defs>
</svg>
