<?xml version="1.0" encoding="UTF-8"?>
<svg width="100px" height="100px" viewBox="0 0 100 100" version="1.1" xmlns="http://www.w3.org/2000/svg" xmlns:xlink="http://www.w3.org/1999/xlink">
    <!-- Generator: Sketch 57.1 (83088) - https://sketch.com -->
    <title>solid/download-solid</title>
    <desc>Created with Sketch.</desc>
    <g id="solid/download" stroke="none" stroke-width="1" fill="none" fill-rule="evenodd">
        <path d="M90.39,83.33 C94.8809756,83.4855798 98.4412528,87.1713304 98.4412528,91.665 C98.4412528,96.1586697 94.8809756,99.8444203 90.39,100 L9.32999996,100 C4.83902436,99.8444203 1.27874725,96.1586697 1.27874725,91.665 C1.27874725,87.1713304 4.83902436,83.4855798 9.32999996,83.33 L90.39,83.33 Z M45.6949999,1.11600813 C48.2723109,-0.372003108 51.4476891,-0.372003108 54.0250001,1.11600813 C56.6023111,2.60401937 58.1900001,5.35397753 58.19,8.32999996 L58.19,55.39 L69.05,44.53 C72.3057186,41.2770428 77.5820429,41.2792814 80.835,44.535 C84.0879572,47.7907186 84.0857186,53.0670428 80.83,56.32 L57.46,79.69 C55.4453998,81.7076135 52.7112064,82.8413506 49.86,82.8413506 C47.0087936,82.8413506 44.2746002,81.7076135 42.26,79.69 L18.89,56.32 C15.6342814,53.0670428 15.6320428,47.7907186 18.885,44.535 C22.1379571,41.2792814 27.4142814,41.2770428 30.67,44.53 L41.53,55.39 L41.53,8.32999996 C41.5299999,5.35397753 43.1176889,2.60401937 45.6949999,1.11600813 Z" id="Shape" fill="#000000"></path>
    </g>
</svg>