<?xml version="1.0" encoding="UTF-8"?>
<svg width="100px" height="100px" viewBox="0 0 100 100" version="1.1" xmlns="http://www.w3.org/2000/svg" xmlns:xlink="http://www.w3.org/1999/xlink">
    <!-- Generator: Sketch 57.1 (83088) - https://sketch.com -->
    <title>regular/download-regular</title>
    <desc>Created with Sketch.</desc>
    <g id="regular/download" stroke="none" stroke-width="1" fill="none" fill-rule="evenodd">
        <path d="M96,95.24 C97.3144378,95.24 98.38,96.3055623 98.38,97.62 C98.38,98.9344378 97.3144378,100 96,100 L3.37999995,100 C2.06556225,100 0.999999951,98.9344378 0.999999951,97.62 C0.999999951,96.3055623 2.06556225,95.24 3.37999995,95.24 L96,95.24 Z M48.51,0.338859371 C49.2463745,-0.0862867128 50.1536255,-0.0862867128 50.89,0.338859371 C51.6263746,0.764005455 52.0800001,1.54970781 52.08,2.39999995 L52.08,73.4 L76.68,48.8 C77.2819925,48.1980074 78.1594158,47.9629026 78.9817529,48.1832471 C79.80409,48.4035917 80.4464084,49.0459101 80.6667529,49.8682472 C80.8870975,50.6905843 80.6519958,51.5680075 80.05,52.17 L53.33,78.89 C52.4796634,79.7236265 51.3662628,80.2361442 50.18,80.34 C50.0203397,80.3547439 49.8596603,80.3547439 49.7,80.34 C49.5403889,80.355776 49.3796111,80.355776 49.22,80.34 C48.0337372,80.2361442 46.9203366,79.7236265 46.07,78.89 L19.35,52.17 C18.7480074,51.5680075 18.5129026,50.6905843 18.7332472,49.8682472 C18.9535917,49.0459101 19.5959101,48.4035917 20.4182472,48.1832472 C21.2405842,47.9629026 22.1180075,48.1980075 22.72,48.8 L47.32,73.4 L47.32,2.39999995 C47.3199999,1.54970781 47.7736254,0.764005455 48.51,0.338859371 Z" id="Shape" fill="#000000"></path>
    </g>
</svg>