<svg width="100" height="100" viewBox="0 0 100 100" fill="none" xmlns="http://www.w3.org/2000/svg">
<g clip-path="url(#clip0)">
<path d="M69.0942 44.5312C72.3481 41.2795 77.6215 41.2795 80.8754 44.5312C82.4402 46.0943 83.3195 48.2153 83.3195 50.4271C83.3195 52.6388 82.4402 54.7598 80.8754 56.3229L57.5004 79.6979C55.7083 81.506 53.3292 82.6143 50.7921 82.8229C50.4971 82.8384 50.2016 82.8384 49.9067 82.8229C49.6117 82.8388 49.3162 82.8388 49.0212 82.8229C46.4841 82.6143 44.105 81.506 42.3129 79.6979L18.9275 56.3229C15.6713 53.0667 15.6713 47.7874 18.9275 44.5312C22.1837 41.2751 27.463 41.2751 30.7192 44.5312L41.5733 55.3854V8.33333C41.5733 3.73096 45.3043 0 49.9067 0C54.509 0 58.24 3.73096 58.24 8.33333V55.3854L69.0942 44.5312Z" fill="black"/>
<path d="M9.37533 100H90.4274C95.0298 100 98.7607 96.2692 98.7607 91.6668C98.7607 87.0645 95.0298 83.3335 90.4274 83.3335H9.37533C4.77295 83.3335 1.04199 87.0645 1.04199 91.6668C1.04199 96.2692 4.77295 100 9.37533 100Z" fill="black"/>
</g>
<defs>
<clipPath id="clip0">
<rect width="100" height="100" fill="white"/>
</clipPath>
</defs>
</svg>
