<svg width="100" height="100" viewBox="0 0 100 100" fill="none" xmlns="http://www.w3.org/2000/svg">
<g clip-path="url(#clip0)">
<path d="M46.9531 71.7059V2.94118C46.9531 1.31681 48.2699 0 49.8943 0C51.5187 0 52.8355 1.31681 52.8355 2.94118V71.7063L76.1416 48.4002C76.8811 47.6368 77.975 47.3317 79.0029 47.6024C80.0308 47.873 80.8327 48.6772 81.1005 49.7058C81.3682 50.7345 81.06 51.8276 80.2945 52.5649L53.8945 78.9649C52.836 80.0297 51.3958 80.6269 49.8945 80.6238C48.3894 80.6288 46.9448 80.0314 45.8827 78.9649L19.4827 52.5649C18.7388 51.821 18.4482 50.7367 18.7205 49.7204C18.9928 48.7041 19.7866 47.9104 20.8029 47.638C21.8191 47.3657 22.9035 47.6563 23.6474 48.4002L46.9531 71.7059Z" fill="black"/>
<path d="M95.6591 100H4.11793C2.49357 100 1.17676 98.6832 1.17676 97.0589C1.17676 95.4345 2.49357 94.1177 4.11793 94.1177H95.6591C97.2835 94.1177 98.6003 95.4345 98.6003 97.0589C98.6003 98.6832 97.2835 100 95.6591 100Z" fill="black"/>
</g>
<defs>
<clipPath id="clip0">
<rect width="100" height="100" fill="white"/>
</clipPath>
</defs>
</svg>
