<svg width="100" height="100" viewBox="0 0 100 100" fill="none" xmlns="http://www.w3.org/2000/svg">
<path fill-rule="evenodd" clip-rule="evenodd" d="M30.5518 46.8341C31.6958 46.8341 32.6248 45.9041 32.6248 44.7611C32.6248 43.6171 31.6958 42.6881 30.5518 42.6881C29.4088 42.6881 28.4788 43.6171 28.4788 44.7611C28.4788 45.9041 29.4088 46.8341 30.5518 46.8341ZM87.3918 55.2331C86.8577 52.5091 88.2467 50.7241 89.6787 50.5311C90.1808 50.4571 90.9068 50.7771 91.0468 51.3871C91.2818 52.5291 91.0148 54.2291 87.7978 56.3771C87.8088 56.3881 87.5098 55.8321 87.3918 55.2331ZM80.3388 39.4721C82.0168 39.3001 81.9428 46.6201 78.5868 51.2361C78.1488 49.5691 77.4868 40.0481 80.3388 39.4721ZM65.6777 49.1741C65.4528 47.4651 65.4428 39.8241 67.2698 40.0371C68.2848 40.4331 66.6288 47.6461 65.6777 49.1741ZM52.3948 49.0671C52.1698 47.3571 52.1588 39.7171 53.9878 39.9311C55.0018 40.3371 53.3458 47.5391 52.3948 49.0671ZM39.0048 49.0671C38.7808 47.3571 38.7698 39.7171 40.5968 39.9311C41.6128 40.3371 39.9558 47.5391 39.0048 49.0671ZM10.5688 52.0701C10.4838 51.9321 10.5048 52.0171 10.4078 51.8891C10.0448 50.8841 9.32876 48.6401 9.24376 46.0861C9.14776 43.2011 9.62876 39.8131 11.0498 39.8131C12.0108 39.8131 13.0368 46.6741 10.5688 52.0701ZM5.65276 59.0591C3.63376 59.0591 2.34076 57.1881 2.34076 55.1801C2.34076 53.1711 3.52676 51.3011 5.54676 51.3011C6.45476 51.3011 6.95676 51.3971 7.67276 52.0171C7.80076 52.5201 8.16376 53.6841 8.34576 54.2181C8.58076 54.9241 8.86976 55.5321 9.14776 56.1851C8.73076 57.8731 7.40576 59.0591 5.65276 59.0591ZM98.9438 53.9191C98.6338 53.6941 98.3878 53.6621 98.1848 54.0901C94.7008 61.6241 88.8338 57.8621 89.4218 58.1931C90.7258 57.5951 94.1458 54.8591 93.6328 51.0651C93.3228 48.7471 91.3348 47.7211 89.2188 48.0951C85.5318 48.7361 84.1868 52.7111 84.8698 56.2281C84.9878 56.8361 85.2008 57.3281 85.4258 57.8191C81.2688 61.2071 79.6128 54.7951 79.4198 54.0251C79.4088 53.9831 82.6367 51.3011 83.5338 44.8991C84.4748 38.1991 82.3368 36.9711 80.1468 37.0141C76.0968 37.0881 75.0068 45.5411 76.4708 52.5831C76.3528 52.6151 75.7768 52.9361 74.8578 52.9681C74.1948 50.8841 71.3628 49.0571 70.6248 49.7621C68.7768 51.5251 71.0738 54.9661 72.6978 55.2331C71.7258 61.2291 65.6348 59.7431 66.7678 52.2301C68.7438 48.5551 70.2618 43.0721 69.9848 39.7711C69.8878 38.6051 69.0228 37.0351 67.0668 37.1091C63.3048 37.2591 62.8998 45.7121 63.3368 51.7181C63.3168 51.5681 63.1028 52.4441 61.5638 52.8831C61.1998 50.8621 57.9408 48.8211 57.1708 49.8051C55.7388 51.6321 58.2298 54.8921 59.4048 55.1161C58.4328 61.1101 52.3408 59.6251 53.4738 52.1131C55.4618 48.4371 56.9688 42.9661 56.7008 39.6631C56.6058 38.4991 55.7388 36.9281 53.7828 37.0031C50.0218 37.1521 49.6158 45.6051 50.0538 51.6101C50.0328 51.4611 49.8188 52.3691 48.2168 52.7971C48.1628 50.1681 44.8928 48.9721 44.1018 49.8051C42.7018 51.3011 44.4228 54.3681 46.0148 55.1161C45.0428 61.1101 38.9508 59.6251 40.0838 52.1131C42.0608 48.4371 43.5788 42.9551 43.3008 39.6531C43.2158 38.4991 42.3498 36.9281 40.3938 37.0031C36.6328 37.1521 36.3328 46.0321 36.7718 52.0381C35.5318 57.3501 31.3748 63.9751 31.9198 50.6911C31.9728 49.7621 32.0268 49.4091 31.5668 49.0571C31.2148 48.7901 30.4238 48.9181 29.9958 48.9291C29.4728 48.9501 29.3338 49.2601 29.2268 49.7201C28.9598 50.9161 28.9058 52.0811 28.8638 53.6731C28.8428 54.4211 28.7778 54.7631 28.4888 55.7781C28.2008 56.7941 26.5768 58.6431 25.6788 58.3321C24.4398 57.9051 24.8448 54.4101 25.0808 52.0061C25.2728 50.1041 24.6538 49.2601 23.0718 48.9501C22.1418 48.7581 21.5758 48.7901 20.6138 48.4801C19.6948 48.1911 19.4918 46.4601 17.5468 47.0371C16.4778 47.3571 17.1618 49.6121 16.9058 51.2901C15.6448 59.5291 13.0268 59.7541 11.8078 55.7571C17.2798 42.3351 13.3798 37.0461 11.1028 37.0461C8.73076 37.0461 6.01576 38.6811 7.15976 49.1531C6.60376 48.9921 6.43276 48.9071 5.81376 48.9071C2.36176 48.8971 -0.000244141 51.6961 -0.000244141 55.1471C-0.000244141 58.6001 2.36176 61.3991 5.82376 61.3991C7.86476 61.3991 9.29676 60.4701 10.3868 59.0381C11.0928 60.0531 11.9578 61.4211 13.5398 61.3561C18.2408 61.1751 19.6098 51.5251 19.7698 50.9801C20.2718 51.0551 20.7528 51.2051 21.2118 51.2791C21.9818 51.3971 22.0458 51.7071 22.0248 52.4771C21.8218 59.0381 23.0288 61.3351 25.7758 61.3351C27.3028 61.3351 28.6718 59.8281 29.6118 58.7601C30.3168 60.2131 31.4278 61.2921 32.9348 61.3351C36.5688 61.4211 37.9688 55.6291 37.8398 56.3881C37.7438 56.9861 39.0148 61.2921 42.7668 61.3131C47.4038 61.3351 48.2698 56.2381 48.3658 55.3831C48.3868 55.2331 48.3768 55.2121 48.3658 55.3831V55.4371C49.8408 55.1581 50.5988 54.3791 50.5988 54.3791C50.5988 54.3791 51.7848 61.3991 56.1558 61.3241C60.6978 61.2391 61.5638 56.6331 61.6698 55.7351C61.6918 55.5431 61.6808 55.5221 61.6698 55.7351V55.7571C63.4228 55.1161 63.8818 54.4851 63.8818 54.4851C63.8818 54.4851 64.8228 61.3671 69.4398 61.4321C73.5538 61.4851 75.0808 57.2641 75.0918 55.5011C75.7868 55.5111 77.0698 55.0841 77.0368 55.0631C77.0368 55.0631 78.5438 61.0791 82.7538 61.3891C84.7318 61.5381 86.2168 60.2771 87.0608 59.7001C89.0478 61.3131 95.6628 63.3651 99.8418 56.2801C100.44 55.2761 99.1678 54.0681 98.9438 53.9191Z" fill="black"/>
</svg>
