<svg width="100" height="100" viewBox="0 0 100 100" fill="none" xmlns="http://www.w3.org/2000/svg">
<path fill-rule="evenodd" clip-rule="evenodd" d="M73.8066 85.412C73.3726 82.809 71.0956 70.336 65.5096 54.989C78.9046 52.874 90.6186 56.345 92.0816 56.833C90.2386 68.709 83.4056 78.959 73.8066 85.412ZM49.9996 92.733C40.1306 92.733 31.0196 89.371 23.8066 83.731C24.5666 82.158 33.2436 65.456 57.3216 57.05C57.4296 56.996 57.4836 56.996 57.5916 56.941C63.6116 72.506 66.0516 85.575 66.7026 89.316C61.5506 91.54 55.9106 92.733 49.9996 92.733ZM7.26663 50.055V48.753C9.11063 48.807 29.8266 49.078 51.1386 42.679C52.3856 45.065 53.5246 47.506 54.6096 49.946C54.0676 50.108 53.4706 50.271 52.9286 50.433C30.9106 57.538 19.1976 76.952 18.2216 78.579C11.4426 71.041 7.26663 61.009 7.26663 50.055ZM31.8326 11.389C32.9716 12.907 40.5636 23.481 47.6676 36.063C27.7116 41.378 10.0866 41.269 8.18863 41.269C10.9546 28.037 19.9026 17.028 31.8326 11.389ZM49.9996 7.375C60.8456 7.375 70.7706 11.442 78.3076 18.113C77.5486 19.197 71.0956 27.82 55.9106 33.515C48.9156 20.662 41.1606 10.141 39.9676 8.515C43.1666 7.755 46.5296 7.375 49.9996 7.375ZM83.0266 23.048C88.9916 30.314 92.5706 39.588 92.6786 49.62C91.2686 49.349 77.1686 46.475 62.9606 48.265C62.6356 47.559 62.3646 46.801 62.0386 46.041C61.1716 43.98 60.1956 41.865 59.2186 39.859C74.9456 33.46 82.1046 24.241 83.0266 23.048ZM49.9996 0C22.3966 0 -0.000366211 22.397 -0.000366211 50C-0.000366211 77.603 22.3966 100 49.9996 100C77.5486 100 99.9996 77.603 99.9996 50C99.9996 22.397 77.5486 0 49.9996 0Z" fill="black"/>
</svg>
