<?xml version="1.0" encoding="UTF-8"?>
<svg width="100px" height="100px" viewBox="0 0 100 100" version="1.1" xmlns="http://www.w3.org/2000/svg" xmlns:xlink="http://www.w3.org/1999/xlink">
    <!-- Generator: Sketch 57.1 (83088) - https://sketch.com -->
    <title>brand/dribbble-square-brand</title>
    <desc>Created with Sketch.</desc>
    <g id="brand/dribbble-square" stroke="none" stroke-width="1" fill="none" fill-rule="evenodd">
        <path d="M52.0498,50.3036 C36.6378,55.2766 28.4378,68.8656 27.7548,70.0056 C23.0098,64.7286 20.0868,57.7056 20.0868,50.0376 L20.0868,49.1266 C21.3778,49.1646 35.8788,49.3546 50.7978,44.8746 C51.6698,46.5456 52.4678,48.2536 53.2268,49.9616 C52.8468,50.0756 52.4298,50.1906 52.0498,50.3036 Z M55.125,54.9344 C55.2,54.8974 55.238,54.8974 55.314,54.8594 C59.528,65.7534 61.236,74.9024 61.692,77.5214 C58.086,79.0784 54.138,79.9134 50,79.9134 C43.091,79.9134 36.714,77.5594 31.665,73.6124 C32.196,72.5104 38.27,60.8194 55.125,54.9344 Z M48.3677,40.244 C34.3977,43.964 22.0607,43.8892249 20.7317,43.8892249 C22.6677,34.626 28.9317,26.92 37.2837,22.972 C38.0797,24.035 43.3947,31.437 48.3677,40.244 Z M69.8154,27.6786 C69.2844,28.4386 64.7664,34.4736 54.1374,38.4596 C49.2404,29.4626 43.8124,22.0986 42.9774,20.9596 C45.2164,20.4286 47.5704,20.1626 50.0004,20.1626 C57.5914,20.1626 64.5394,23.0096 69.8154,27.6786 Z M56.4531,42.9012 C67.4621,38.4222 72.4731,31.9682 73.1181,31.1332 C77.2941,36.2202 79.8001,42.7122 79.8751,49.7342 C78.8891,49.5452 69.0181,47.5322 59.0721,48.7852 C58.8451,48.2922 58.6551,47.7602 58.4281,47.2282 C57.8201,45.7862 57.1371,44.3052 56.4531,42.9012 Z M60.8564,53.4921 C70.2334,52.0121 78.4324,54.4411 79.4584,54.7831 C78.1674,63.0961 73.3834,70.2711 66.6654,74.7891 C66.3614,72.9671 64.7664,64.2351 60.8564,53.4921 Z M50,84.9999 C69.284,84.9999 85,69.3219 85,49.9999 C85,30.6779 69.284,14.9999 50,14.9999 C30.678,14.9999 15,30.6779 15,49.9999 C15,69.3219 30.678,84.9999 50,84.9999 Z M94.48,-0.0001 C97.528,-0.0001 100,2.4719 100,5.5209 L100,94.4799 C100,97.5279 97.528,99.9999 94.48,99.9999 L5.52,99.9999 C2.471,99.9999 0,97.5279 0,94.4799 L0,5.5209 C0,2.4719 2.471,-0.0001 5.52,-0.0001 L94.48,-0.0001 Z" id="Shape" fill="#000000"></path>
    </g>
</svg>