<?xml version="1.0" encoding="UTF-8"?>
<svg width="100px" height="100px" viewBox="0 0 100 100" version="1.1" xmlns="http://www.w3.org/2000/svg" xmlns:xlink="http://www.w3.org/1999/xlink">
    <!-- Generator: Sketch 57.1 (83088) - https://sketch.com -->
    <title>brand/dribbble-brand</title>
    <desc>Created with Sketch.</desc>
    <g id="brand/dribbble" stroke="none" stroke-width="1" fill="none" fill-rule="evenodd">
        <path d="M73.8066,85.4119 C73.3726,82.8089 71.0956,70.3359 65.5096,54.9889 C78.9046,52.8739 90.6186,56.3449 92.0816,56.8329 C90.2386,68.7089 83.4056,78.9589 73.8066,85.4119 M49.9996,92.7329 C40.1306,92.7329 31.0196,89.3709 23.8066,83.7309 C24.5666,82.1579 33.2436,65.4559 57.3216,57.0499 C57.4296,56.9959 57.4836,56.9959 57.5916,56.9409 C63.6116,72.5059 66.0516,85.5749 66.7026,89.3159 C61.5506,91.5399 55.9106,92.7329 49.9996,92.7329 M7.2666,50.0549 L7.2666,48.7529 C9.1106,48.8069 29.8266,49.0779 51.1386,42.6789 C52.3856,45.0649 53.5246,47.5059 54.6096,49.9459 C54.0676,50.1079 53.4706,50.2709 52.9286,50.4329 C30.9106,57.5379 19.1976,76.9519 18.2216,78.5789 C11.4426,71.0409 7.2666,61.0089 7.2666,50.0549 M31.8326,11.3889 C32.9716,12.9069 40.5636,23.4809 47.6676,36.0629 C27.7116,41.3779 10.0866,41.2690692 8.1886,41.2690692 C10.9546,28.0369 19.9026,17.0279 31.8326,11.3889 M49.9996,7.3749 C60.8456,7.3749 70.7706,11.4419 78.3076,18.1129 C77.5486,19.1969 71.0956,27.8199 55.9106,33.5149 C48.9156,20.6619 41.1606,10.1409 39.9676,8.5149 C43.1666,7.7549 46.5296,7.3749 49.9996,7.3749 M83.0266,23.0479 C88.9916,30.3139 92.5706,39.5879 92.6786,49.6199 C91.2686,49.3489 77.1686,46.4749 62.9606,48.2649 C62.6356,47.5589 62.3646,46.8009 62.0386,46.0409 C61.1716,43.9799 60.1956,41.8649 59.2186,39.8589 C74.9456,33.4599 82.1046,24.2409 83.0266,23.0479 M49.9996,-0.0001 C22.3966,-0.0001 -0.0004,22.3969 -0.0004,49.9999 C-0.0004,77.6029 22.3966,99.9999 49.9996,99.9999 C77.5486,99.9999 99.9996,77.6029 99.9996,49.9999 C99.9996,22.3969 77.5486,-0.0001 49.9996,-0.0001" id="Fill-1" fill="#000000"></path>
    </g>
</svg>