<?xml version="1.0" encoding="UTF-8"?>
<svg width="100px" height="100px" viewBox="0 0 100 100" version="1.1" xmlns="http://www.w3.org/2000/svg" xmlns:xlink="http://www.w3.org/1999/xlink">
    <!-- Generator: Sketch 57.1 (83088) - https://sketch.com -->
    <title>brand/dribbble-alt-brand</title>
    <desc>Created with Sketch.</desc>
    <g id="brand/dribbble-alt" stroke="none" stroke-width="1" fill="none" fill-rule="evenodd">
        <path d="M30.5518,46.8339 C31.6958,46.8339 32.6248,45.9039 32.6248,44.7609 C32.6248,43.6169 31.6958,42.6879 30.5518,42.6879 C29.4088,42.6879 28.4788,43.6169 28.4788,44.7609 C28.4788,45.9039 29.4088,46.8339 30.5518,46.8339 M87.3918,55.2329 C86.8578,52.5089 88.2468,50.7239 89.6788,50.5309 C90.1808,50.4569 90.9068,50.7769 91.0468,51.3869 C91.2818,52.5289 91.0148,54.2289 87.7978,56.3769 C87.8088,56.3879 87.5098,55.8319 87.3918,55.2329 M80.3388,39.4719 C82.0168,39.2999 81.9428,46.6199 78.5868,51.2359 C78.1488,49.5689 77.4868,40.0479 80.3388,39.4719 M65.6778,49.1739 C65.4528,47.4649 65.4428,39.8239 67.2698,40.0369 C68.2848,40.4329 66.6288,47.6459 65.6778,49.1739 M52.3948,49.0669 C52.1698,47.3569 52.1588,39.7169 53.9878,39.9309 C55.0018,40.3369 53.3458,47.5389 52.3948,49.0669 M39.0048,49.0669 C38.7808,47.3569 38.7698,39.7169 40.5968,39.9309 C41.6128,40.3369 39.9558,47.5389 39.0048,49.0669 M10.5688,52.0699 C10.4838,51.9319 10.5048,52.0169 10.4078,51.8889 C10.0448,50.8839 9.3288,48.6399 9.2438,46.0859 C9.1478,43.2009 9.6288,39.8129 11.0498,39.8129 C12.0108,39.8129 13.0368,46.6739 10.5688,52.0699 M5.6528,59.0589 C3.6338,59.0589 2.3408,57.1879 2.3408,55.1799 C2.3408,53.1709 3.5268,51.3009 5.5468,51.3009 C6.4548,51.3009 6.9568,51.3969 7.6728,52.0169 C7.8008,52.5199 8.1638,53.6839 8.3458,54.2179 C8.5808,54.9239 8.8698,55.5319 9.1478,56.1849 C8.7308,57.8729 7.4058,59.0589 5.6528,59.0589 M98.9438,53.9189 C98.6338,53.6939 98.3878,53.6619 98.1848,54.0899 C94.7008,61.6239 88.8338,57.8619 89.4218,58.1929 C90.7258,57.5949 94.1458,54.8589 93.6328,51.0649 C93.3228,48.7469 91.3348,47.7209 89.2188,48.0949 C85.5318,48.7359 84.1868,52.7109 84.8698,56.2279 C84.9878,56.8359 85.2008,57.3279 85.4258,57.8189 C81.2688,61.2069 79.6128,54.7949 79.4198,54.0249 C79.4088,53.9829 82.6368,51.3009 83.5338,44.8989 C84.4748,38.1989 82.3368,36.9709 80.1468,37.0139 C76.0968,37.0879 75.0068,45.5409 76.4708,52.5829 C76.3528,52.6149 75.7768,52.9359 74.8578,52.9679 C74.1948,50.8839 71.3628,49.0569 70.6248,49.7619 C68.7768,51.5249 71.0738,54.9659 72.6978,55.2329 C71.7258,61.2289 65.6348,59.7429 66.7678,52.2299 C68.7438,48.5549 70.2618,43.0719 69.9848,39.7709 C69.8878,38.6049 69.0228,37.0349 67.0668,37.1089 C63.3048,37.2589 62.8998,45.7119 63.3368,51.7179 C63.3168,51.5679 63.1028,52.4439 61.5638,52.8829 C61.1998,50.8619 57.9408,48.8209 57.1708,49.8049 C55.7388,51.6319 58.2298,54.8919 59.4048,55.1159 C58.4328,61.1099 52.3408,59.6249 53.4738,52.1129 C55.4618,48.4369 56.9688,42.9659 56.7008,39.6629 C56.6058,38.4989 55.7388,36.9279 53.7828,37.0029 C50.0218,37.1519 49.6158,45.6049 50.0538,51.6099 C50.0328,51.4609 49.8188,52.3689 48.2168,52.7969 C48.1628,50.1679 44.8928,48.9719 44.1018,49.8049 C42.7018,51.3009 44.4228,54.3679 46.0148,55.1159 C45.0428,61.1099 38.9508,59.6249 40.0838,52.1129 C42.0608,48.4369 43.5788,42.9549 43.3008,39.6529 C43.2158,38.4989 42.3498,36.9279 40.3938,37.0029 C36.6328,37.1519 36.3328,46.0319 36.7718,52.0379 C35.5318,57.3499 31.3748,63.9749 31.9198,50.6909 C31.9728,49.7619 32.0268,49.4089 31.5668,49.0569 C31.2148,48.7899 30.4238,48.9179 29.9958,48.9289 C29.4728,48.9499 29.3338,49.2599 29.2268,49.7199 C28.9598,50.9159 28.9058,52.0809 28.8638,53.6729 C28.8428,54.4209 28.7778,54.7629 28.4888,55.7779 C28.2008,56.7939 26.5768,58.6429 25.6788,58.3319 C24.4398,57.9049 24.8448,54.4099 25.0808,52.0059 C25.2728,50.1039 24.6538,49.2599 23.0718,48.9499 C22.1418,48.7579 21.5758,48.7899 20.6138,48.4799 C19.6948,48.1909 19.4918,46.4599 17.5468,47.0369 C16.4778,47.3569 17.1618,49.6119 16.9058,51.2899 C15.6448,59.5289 13.0268,59.7539 11.8078,55.7569 C17.2798,42.3349 13.3798,37.0459 11.1028,37.0459 C8.7308,37.0459 6.0158,38.6809 7.1598,49.1529 C6.6038,48.9919 6.4328,48.9069 5.8138,48.9069 C2.3618,48.8969 -0.0002,51.6959 -0.0002,55.1469 C-0.0002,58.5999 2.3618,61.3989 5.8238,61.3989 C7.8648,61.3989 9.2968,60.4699 10.3868,59.0379 C11.0928,60.0529 11.9578,61.4209 13.5398,61.3559 C18.2408,61.1749 19.6098,51.5249 19.7698,50.9799 C20.2718,51.0549 20.7528,51.2049 21.2118,51.2789 C21.9818,51.3969 22.0458,51.7069 22.0248,52.4769 C21.8218,59.0379 23.0288,61.3349 25.7758,61.3349 C27.3028,61.3349 28.6718,59.8279 29.6118,58.7599 C30.3168,60.2129 31.4278,61.2919 32.9348,61.3349 C36.5688,61.4209 37.9688,55.6289 37.8398,56.3879 C37.7438,56.9859 39.0148,61.2919 42.7668,61.3129 C47.4038,61.3349 48.2698,56.2379 48.3658,55.3829 C48.3868,55.2329 48.3768,55.2119 48.3658,55.3829 L48.3658,55.4369 C49.8408,55.1579 50.5988,54.3789 50.5988,54.3789 C50.5988,54.3789 51.7848,61.3989 56.1558,61.3239 C60.6978,61.2389 61.5638,56.6329 61.6698,55.7349 C61.6918,55.5429 61.6808,55.5219 61.6698,55.7349 L61.6698,55.7569 C63.4228,55.1159 63.8818,54.4849 63.8818,54.4849 C63.8818,54.4849 64.8228,61.3669 69.4398,61.4319 C73.5538,61.4849 75.0808,57.2639 75.0918,55.5009 C75.7868,55.5109 77.0698,55.0839 77.0368,55.0629 C77.0368,55.0629 78.5438,61.0789 82.7538,61.3889 C84.7318,61.5379 86.2168,60.2769 87.0608,59.6999 C89.0478,61.3129 95.6628,63.3649 99.8418,56.2799 C100.4398,55.2759 99.1678,54.0679 98.9438,53.9189" id="Fill-1" fill="#000000"></path>
    </g>
</svg>