<svg width="100" height="100" viewBox="0 0 100 100" fill="none" xmlns="http://www.w3.org/2000/svg">
<path fill-rule="evenodd" clip-rule="evenodd" d="M17.37 40L23.17 43.701L17.37 47.4L23.17 51.1L17.37 54.801L11.6 51.081L17.4 47.38L11.6 43.701L17.37 40ZM5.8 40L11.6 43.701L5.8 47.4L11.6 51.1L5.8 54.801L0 51.081L5.8 47.38L0 43.701L5.8 40ZM5.77 55.99L11.57 52.29L17.37 55.99L11.57 59.69L5.77 55.99ZM27.7202 43.7005H32.4102C35.4002 43.7005 37.8702 45.4295 37.8702 49.3805V50.2105C37.8702 54.1895 35.5602 55.9795 32.5002 55.9795H27.7202V43.7005ZM30.3402 45.9295V53.7405H32.3502C34.0502 53.7405 35.1902 52.6305 35.1902 50.1605V49.5105C35.1902 47.0405 33.9902 45.9295 32.2602 45.9295H30.3402ZM39.2602 46.0505H41.3602L41.7002 48.3605C42.1002 46.7905 43.1202 45.9505 44.9702 45.9505H45.6202V48.5995H44.5402C42.4102 48.5995 41.8902 49.3405 41.8902 51.4395V56.0105H39.3002V46.0505H39.2602ZM46.1402 51.2295V50.9505C46.1402 47.6205 48.2702 45.8005 51.1702 45.8005C54.1302 45.8005 56.2002 47.6205 56.2002 50.9505V51.2295C56.2002 54.5005 54.1902 56.2605 51.1702 56.2605C47.9602 56.2295 46.1402 54.5105 46.1402 51.2295ZM53.5502 51.2005V50.9505C53.5502 49.0995 52.6202 47.9905 51.1392 47.9905C49.6902 47.9905 48.7302 49.0105 48.7302 50.9505V51.2005C48.7302 52.9905 49.6602 54.0105 51.1392 54.0105C52.6202 53.9795 53.5502 52.9905 53.5502 51.2005ZM57.5592 46.0505H59.7202L59.9702 47.9295C60.4902 46.6705 61.5992 45.8005 63.2402 45.8005C65.7692 45.8005 67.4402 47.6205 67.4402 50.9905V51.2695C67.4402 54.5405 65.5902 56.2695 63.2402 56.2695C61.6702 56.2695 60.5902 55.5595 60.0592 54.4205V59.4505H57.5302L57.5592 46.0505ZM64.8092 51.2005V50.9795C64.8092 49.0005 63.7902 48.0195 62.4292 48.0195C60.9802 48.0195 60.0192 49.1305 60.0192 50.9795V51.1705C60.0192 52.9295 60.9502 54.0405 62.4002 54.0405C63.8892 54.0105 64.8092 53.0595 64.8092 51.2005ZM71.2692 54.1705L71.0502 55.9905H68.8302V42.7205H71.3602V47.8095C71.9202 46.5105 73.0302 45.8005 74.5992 45.8005C76.9802 45.8305 78.7402 47.4705 78.7402 50.7695V51.0805C78.7402 54.3805 77.0702 56.2695 74.5402 56.2695C72.8702 56.2295 71.7902 55.4605 71.2692 54.1705ZM76.0802 51.0805V50.8305C76.0802 49.0105 75.0902 47.9905 73.7002 47.9905C72.2802 47.9905 71.2902 49.1305 71.2902 50.8605V51.0805C71.2902 52.9295 72.2502 54.0105 73.6702 54.0105C75.1902 54.0105 76.0802 53.0595 76.0802 51.0805ZM79.8492 51.2295V50.9505C79.8492 47.6205 81.9802 45.8005 84.8802 45.8005C87.8402 45.8005 89.9102 47.6205 89.9102 50.9505V51.2295C89.9102 54.5005 87.8702 56.2605 84.8802 56.2605C81.6702 56.2295 79.8492 54.5105 79.8492 51.2295ZM87.2802 51.2005V50.9505C87.2802 49.0995 86.3492 47.9905 84.8702 47.9905C83.4202 47.9905 82.4602 49.0105 82.4602 50.9505V51.2005C82.4602 52.9905 83.3892 54.0105 84.8702 54.0105C86.3602 53.9795 87.2802 52.9905 87.2802 51.2005ZM93.3002 50.8305L89.8092 46.0505H92.8002L94.8092 49.0405L96.8492 46.0505H99.8092L96.2692 50.8005L100 55.9905H97.0702L94.7902 52.6895L92.5702 55.9905H89.5102L93.3002 50.8305Z" fill="black"/>
</svg>
