<?xml version="1.0" encoding="UTF-8"?>
<svg width="100px" height="100px" viewBox="0 0 100 100" version="1.1" xmlns="http://www.w3.org/2000/svg" xmlns:xlink="http://www.w3.org/1999/xlink">
    <!-- Generator: Sketch 57.1 (83088) - https://sketch.com -->
    <title>brand/dropbox-brand</title>
    <desc>Created with Sketch.</desc>
    <g id="brand/dropbox" stroke="none" stroke-width="1" fill="none" fill-rule="evenodd">
        <path d="M17.37,39.9998 L23.17,43.7008 L17.37,47.3998 L23.17,51.0998 L17.37,54.8008 L11.6,51.0808 L17.4,47.3798 L11.6,43.7008 L17.37,39.9998 Z M5.8,39.9998 L11.6,43.7008 L5.8,47.3998 L11.6,51.0998 L5.8,54.8008 L3.55271368e-14,51.0808 L5.8,47.3798 L3.55271368e-14,43.7008 L5.8,39.9998 Z M5.77,55.9898 L11.57,52.2898 L17.37,55.9898 L11.57,59.6898 L5.77,55.9898 Z M27.7202,43.7003 L32.4102,43.7003 C35.4002,43.7003 37.8702,45.4293 37.8702,49.3803 L37.8702,50.2103 C37.8702,54.1893 35.5602,55.9793 32.5002,55.9793 L27.7202,55.9793 L27.7202,43.7003 Z M30.3402,45.9293 L30.3402,53.7403 L32.3502,53.7403 C34.0502,53.7403 35.1902,52.6303 35.1902,50.1603 L35.1902,49.5103 C35.1902,47.0403 33.9902,45.9293 32.2602,45.9293 L30.3402,45.9293 Z M39.2602,46.0503 L41.3602,46.0503 L41.7002,48.3603 C42.1002,46.7903 43.1202,45.9503 44.9702,45.9503 L45.6202,45.9503 L45.6202,48.5993 L44.5402,48.5993 C42.4102,48.5993 41.8902,49.3403 41.8902,51.4393 L41.8902,56.0103 L39.3002,56.0103 L39.3002,46.0503 L39.2602,46.0503 Z M46.1402,51.2293 L46.1402,50.9503 C46.1402,47.6203 48.2702,45.8003 51.1702,45.8003 C54.1302,45.8003 56.2002,47.6203 56.2002,50.9503 L56.2002,51.2293 C56.2002,54.5003 54.1902,56.2603 51.1702,56.2603 C47.9602,56.2293 46.1402,54.5103 46.1402,51.2293 Z M53.5502,51.2003 L53.5502,50.9503 C53.5502,49.0993 52.6202,47.9903 51.1392,47.9903 C49.6902,47.9903 48.7302,49.0103 48.7302,50.9503 L48.7302,51.2003 C48.7302,52.9903 49.6602,54.0103 51.1392,54.0103 C52.6202,53.9793 53.5502,52.9903 53.5502,51.2003 Z M57.5592,46.0503 L59.7202,46.0503 L59.9702,47.9293 C60.4902,46.6703 61.5992,45.8003 63.2402,45.8003 C65.7692,45.8003 67.4402,47.6203 67.4402,50.9903 L67.4402,51.2693 C67.4402,54.5403 65.5902,56.2693 63.2402,56.2693 C61.6702,56.2693 60.5902,55.5593 60.0592,54.4203 L60.0592,59.4503 L57.5302,59.4503 L57.5592,46.0503 Z M64.8092,51.2003 L64.8092,50.9793 C64.8092,49.0003 63.7902,48.0193 62.4292,48.0193 C60.9802,48.0193 60.0192,49.1303 60.0192,50.9793 L60.0192,51.1703 C60.0192,52.9293 60.9502,54.0403 62.4002,54.0403 C63.8892,54.0103 64.8092,53.0593 64.8092,51.2003 Z M71.2692,54.1703 L71.0502,55.9903 L68.8302,55.9903 L68.8302,42.7203 L71.3602,42.7203 L71.3602,47.8093 C71.9202,46.5103 73.0302,45.8003 74.5992,45.8003 C76.9802,45.8303 78.7402,47.4703 78.7402,50.7693 L78.7402,51.0803 C78.7402,54.3803 77.0702,56.2693 74.5402,56.2693 C72.8702,56.2293 71.7902,55.4603 71.2692,54.1703 Z M76.0802,51.0803 L76.0802,50.8303 C76.0802,49.0103 75.0902,47.9903 73.7002,47.9903 C72.2802,47.9903 71.2902,49.1303 71.2902,50.8603 L71.2902,51.0803 C71.2902,52.9293 72.2502,54.0103 73.6702,54.0103 C75.1902,54.0103 76.0802,53.0593 76.0802,51.0803 Z M79.8492,51.2293 L79.8492,50.9503 C79.8492,47.6203 81.9802,45.8003 84.8802,45.8003 C87.8402,45.8003 89.9102,47.6203 89.9102,50.9503 L89.9102,51.2293 C89.9102,54.5003 87.8702,56.2603 84.8802,56.2603 C81.6702,56.2293 79.8492,54.5103 79.8492,51.2293 Z M87.2802,51.2003 L87.2802,50.9503 C87.2802,49.0993 86.3492,47.9903 84.8702,47.9903 C83.4202,47.9903 82.4602,49.0103 82.4602,50.9503 L82.4602,51.2003 C82.4602,52.9903 83.3892,54.0103 84.8702,54.0103 C86.3602,53.9793 87.2802,52.9903 87.2802,51.2003 Z M93.3002,50.8303 L89.8092,46.0503 L92.8002,46.0503 L94.8092,49.0403 L96.8492,46.0503 L99.8092,46.0503 L96.2692,50.8003 L100.0002,55.9903 L97.0702,55.9903 L94.7902,52.6893 L92.5702,55.9903 L89.5102,55.9903 L93.3002,50.8303 Z" id="Shape" fill="#000000"></path>
    </g>
</svg>