<?xml version="1.0" encoding="UTF-8"?>
<svg width="100px" height="100px" viewBox="0 0 100 100" version="1.1" xmlns="http://www.w3.org/2000/svg" xmlns:xlink="http://www.w3.org/1999/xlink">
    <!-- Generator: Sketch 57.1 (83088) - https://sketch.com -->
    <title>brand/edge-brand</title>
    <desc>Created with Sketch.</desc>
    <g id="brand/edge" stroke="none" stroke-width="1" fill="none" fill-rule="evenodd">
        <path d="M32.1071,59.3748 C32.1071,61.7808 32.4661,63.9688 33.2011,65.9368 C33.9831,67.8748 34.9991,69.6088 36.2961,71.1248 C37.5941,72.6408 39.1101,73.9378 40.8921,75.0308 C42.6121,76.1248 44.4871,77.0308 46.4881,77.7338 C48.4741,78.4528 50.5521,78.9838 52.6631,79.3278 C54.8041,79.6718 56.8831,79.8438 58.9941,79.8438 C61.6521,79.8438 64.1221,79.6408 66.4661,79.2188 C68.8111,78.7808 71.0931,78.2028 73.3441,77.4688 C75.5951,76.7338 77.7681,75.8588 79.9411,74.8588 C82.1291,73.8588 84.3491,72.7658 86.6311,71.5468 L86.6311,92.7338 C84.0841,93.9838 81.5831,95.0308 79.0821,95.9378 C76.5811,96.8128 74.0791,97.5778 71.5311,98.1878 C68.9831,98.8128 66.4041,99.2808 63.7621,99.5628 C61.1201,99.8438 58.4161,99.9998 55.6021,99.9998 C51.8501,99.9998 48.2241,99.5628 44.7381,98.7028 C41.2521,97.8438 37.9841,96.6088 34.9201,94.9838 C31.8571,93.3588 29.0591,91.3908 26.5111,89.0778 C23.9471,86.7658 21.7741,84.1558 19.9451,81.2658 C18.1161,78.3748 16.7101,75.2028 15.6931,71.7968 C14.7091,68.3908 14.2081,64.7658 14.2081,60.9218 C14.2081,56.8118 14.7711,52.9058 15.8971,49.1718 C17.0381,45.4218 18.6481,42.0158 20.7741,38.8908 C22.8841,35.7658 25.4631,32.9838 28.5111,30.5628 C31.5601,28.1408 34.9831,26.1558 38.7971,24.6248 C36.7181,26.7028 35.0931,29.1558 33.9521,32.0158 C32.7791,34.8588 32.0451,37.7188 31.7161,40.5778 L67.3261,40.5778 C67.3261,36.9838 66.9661,33.8588 66.2321,31.1718 C65.4971,28.4838 64.3251,26.2498 62.6831,24.4838 C61.0571,22.7028 58.9621,21.3588 56.3831,20.4838 C53.8041,19.5938 50.6941,19.1408 47.0511,19.1408 C42.7531,19.1408 38.4541,19.7658 34.1551,21.0618 C29.8561,22.3118 25.7761,24.1088 21.8991,26.3748 C18.0231,28.6718 14.4581,31.3748 11.2071,34.4688 C7.9551,37.5938 5.2201,40.9528 3.0001,44.5938 C3.4691,40.3748 4.4071,36.3128 5.7041,32.4528 C7.0021,28.5938 8.7211,24.9998 10.7851,21.6718 C12.8481,18.3908 15.2711,15.3908 18.0381,12.7028 C20.8051,10.0158 23.8691,7.7028 27.2611,5.8278 C30.6531,3.9528 34.2491,2.4368 38.1561,1.4218 C42.0651,0.5308 46.2231,-0.0002 50.6001,-0.0002 C53.1641,-0.0002 55.7111,0.2338 58.2591,0.6868 C60.8071,1.1558 63.2931,1.7808 65.7161,2.5938 C70.5311,4.2498 74.8301,6.5618 78.6131,9.4998 C82.3951,12.4688 85.5691,15.8438 88.1481,19.7028 C90.7271,23.5618 92.6811,27.8278 94.0261,32.4688 C95.3701,37.1088 96.0581,41.9378 96.0581,46.9528 L96.0581,59.3748 L32.1071,59.3748 Z" id="Fill-1" fill="#000000"></path>
    </g>
</svg>