<?xml version="1.0" encoding="UTF-8"?>
<svg width="100px" height="100px" viewBox="0 0 100 100" version="1.1" xmlns="http://www.w3.org/2000/svg" xmlns:xlink="http://www.w3.org/1999/xlink">
    <!-- Generator: Sketch 57.1 (83088) - https://sketch.com -->
    <title>bold/edit-bold</title>
    <desc>Created with Sketch.</desc>
    <g id="bold/edit" stroke="none" stroke-width="1" fill="none" fill-rule="evenodd">
        <path d="M39.3069307,31.960396 L31.950495,39.3069307 C31.4489923,39.8245752 30.9888371,40.3807341 30.5742574,40.970297 L9.49504946,40.970297 L9.49504946,91 L59.5742574,91 L59.5742574,69.8217822 C60.1288093,69.4237359 60.6518144,68.9834848 61.1386139,68.5049505 L68.5544555,61.0693069 L68.5544555,91.3366337 C68.5544555,96.1174149 64.6817682,99.9945363 59.9009901,100 L9.14851481,100 C4.36773673,99.9945363 0.495049455,96.1174149 0.495049455,91.3366337 L0.495049455,40.5940594 C0.51680415,35.8271349 4.38155299,31.9712299 9.14851481,31.960396 L39.3069307,31.960396 Z M78.049505,2.76237619 C80.4220726,0.397044368 84.2610958,0.397044368 86.6336634,2.76237619 L97.7227723,13.8613861 L97.9173833,14.0639902 C98.9278139,15.1660893 99.4958981,16.6070943 99.5049796,18.1089109 C99.5085065,19.7266227 98.8629324,21.2781404 97.7128713,22.4158416 L93.9108911,26.2178218 L56.3366337,63.7326733 C55.5492222,64.5178274 54.579848,65.0960506 53.5148515,65.4158416 L37.7821782,70.2178218 C35.6340482,70.8778163 33.2970562,70.2968525 31.7080226,68.7078189 C30.1189891,67.1187854 29.5380253,64.7817934 30.1980198,62.6336634 L35.029703,46.9108911 C35.3571738,45.8470481 35.9381912,44.8786858 36.7227723,44.0891089 L78.049505,2.76237619 Z M42.3069307,53.8910891 L40.4356436,60.009901 L46.5544554,58.1386139 L42.3069307,53.8910891 Z M77.4455446,16.1188118 L47.4158416,46.2871287 L54.2574257,53.1188118 L84.3762377,23.0495049 L77.4455446,16.1188118 Z" id="Shape" fill="#000000"></path>
    </g>
</svg>