<?xml version="1.0" encoding="UTF-8"?>
<svg width="100px" height="100px" viewBox="0 0 100 100" version="1.1" xmlns="http://www.w3.org/2000/svg" xmlns:xlink="http://www.w3.org/1999/xlink">
    <!-- Generator: Sketch 57.1 (83088) - https://sketch.com -->
    <title>regular/edit-regular</title>
    <desc>Created with Sketch.</desc>
    <g id="regular/edit" stroke="none" stroke-width="1" fill="none" fill-rule="evenodd">
        <path d="M39.67,32.8 L34.9,37.56 L6.77999996,37.56 C5.72563816,37.56 4.86183483,38.3758778 4.78548569,39.4107376 L4.77999995,39.56 L4.77999995,93.22 C4.77999995,94.2743618 5.59587775,95.1381652 6.63073761,95.2145143 L6.77999996,95.22 L60.51,95.22 C61.5643618,95.22 62.4281651,94.4041223 62.5045143,93.3692624 L62.51,93.22 L62.51,65 L67.28,60.22 L67.28,93.22 C67.2746099,96.8825857 64.3698703,99.8651379 60.7378778,99.9955602 L60.4999999,100 L6.77999996,100 C3.11741435,99.9946099 0.134862064,97.0898703 0.00443977351,93.4578779 L-5.00001818e-08,93.22 L-5.00001818e-08,39.56 C0.0161446747,35.905061 2.91804018,32.9343035 6.54261244,32.8044207 L6.77999996,32.8 L39.67,32.8 Z M86.958193,1.02801307 L87.12,1.17999995 L98.81,12.87 C99.5746913,13.6248118 100.003557,14.6555323 100.000044,15.73 C99.9938383,16.746978 99.6007101,17.7203051 98.9057057,18.4548237 L94.74,22.62 L55.01,62.32 C54.5132189,62.8151586 53.9155208,63.1956763 53.258909,63.4363513 L53.01,63.52 L36.36,68.59 C34.9325915,69.0366957 33.3752247,68.6497287 32.3229002,67.586881 C31.323192,66.5771757 30.9379711,65.1177615 31.2970921,63.7543913 L31.36,63.54 L36.43,46.91 C36.6353205,46.239316 36.9836339,45.6222954 37.4497385,45.1009414 L37.63,44.91 L81.39,1.17999995 C82.9235511,-0.339868894 85.3641707,-0.390531189 86.958193,1.02801307 Z M79,10.27 L41,48.27 L36.3,63.65 L51.67,59 L89.73,20.94 L79,10.27 Z M42.1700001,47.1800001 C43.1005998,46.2494003 44.6094002,46.2494003 45.54,47.18 L52.78,54.41 C53.227614,54.8565051 53.4791743,55.4627619 53.4791743,56.095 C53.4791743,56.7272381 53.227614,57.3334949 52.78,57.78 C52.3352052,58.2270097 51.730603,58.4783242 51.1,58.4783242 C50.469397,58.4783242 49.8647948,58.2270097 49.42,57.78 L42.17,50.55 C41.2394003,49.6194002 41.2394003,48.1105998 42.1700001,47.1800001 Z M84.25,5.04999996 L82.41,6.89999996 L93.1,17.57 L94.94,15.73 L84.25,5.04999996 Z" id="Shape" fill="#000000"></path>
    </g>
</svg>