<svg width="100" height="100" viewBox="0 0 100 100" fill="none" xmlns="http://www.w3.org/2000/svg">
<g clip-path="url(#clip0)">
<path fill-rule="evenodd" clip-rule="evenodd" d="M87.0586 1.29427L98.6586 12.8368C100.447 14.6321 100.447 17.5363 98.6586 19.3317L55.4351 62.5367C54.8119 63.1526 54.049 63.6088 53.2115 63.8662L36.7409 68.8786C36.3056 69.0083 35.854 69.0756 35.3998 69.0786C33.9581 69.0694 32.6041 68.3848 31.7421 67.2291C30.88 66.0733 30.6096 64.5803 31.0115 63.1956L36.0351 46.7231C36.2858 45.8825 36.7428 45.1181 37.3645 44.4993L76.6233 5.27121L80.5762 1.29427C82.3925 -0.431424 85.2423 -0.431424 87.0586 1.29427ZM93.5762 16.0842L83.8468 6.36545L82.8586 7.3538L92.588 17.0726L93.5762 16.0842ZM41.8233 50.9118C41.5469 50.6308 41.3273 50.2993 41.1762 49.9352L37.3527 62.5485L49.9527 58.7009C49.5884 58.557 49.2594 58.3363 48.988 58.0538L41.8233 50.9118ZM53.1645 53.9004C53.6289 54.3703 53.9194 54.9846 53.988 55.6418L88.4233 21.226L78.7056 11.5072L44.2703 45.923C44.9267 45.9943 45.54 46.2844 46.0115 46.7466L53.1645 53.9004Z" fill="black"/>
<path d="M61.7767 91.5755V61.9956L67.6591 56.1243V91.6225C67.6591 96.2493 63.9088 100 59.2826 100H8.37673C6.14698 100 4.00923 99.1109 2.43697 97.5297C0.864721 95.9484 -0.0122647 93.8055 0.000129611 91.5755V40.7225C0.000129611 36.0958 3.75054 32.3451 8.37673 32.3451H43.6709L37.7885 38.2281H8.37673C6.99927 38.2281 5.88261 39.3449 5.88261 40.7225V91.5755C5.86998 92.2452 6.12716 92.8918 6.59628 93.3698C7.06539 93.8478 7.70702 94.1171 8.37673 94.117H59.2826C59.9523 94.1171 60.594 93.8478 61.0631 93.3698C61.5322 92.8918 61.7894 92.2452 61.7767 91.5755Z" fill="black"/>
</g>
<defs>
<clipPath id="clip0">
<rect width="100" height="100" fill="white"/>
</clipPath>
</defs>
</svg>
