<svg width="100" height="100" viewBox="0 0 100 100" fill="none" xmlns="http://www.w3.org/2000/svg">
<g clip-path="url(#clip0)">
<path d="M79.8689 46.4613C82.0801 41.123 88.2003 38.5879 93.5387 40.7991C98.877 43.0104 101.412 49.1305 99.2009 54.4689C96.9896 59.8073 90.8695 62.3423 85.5311 60.1311C80.1927 57.9199 77.6577 51.7997 79.8689 46.4613Z" fill="black"/>
<path d="M49.9985 60.9118C55.7698 60.9118 60.4483 56.2332 60.4483 50.4619C60.4483 44.6906 55.7698 40.0121 49.9985 40.0121C44.2271 40.0121 39.5486 44.6906 39.5486 50.4619C39.5486 56.2332 44.2271 60.9118 49.9985 60.9118Z" fill="black"/>
<path d="M12.1258 60.7801C17.8225 59.8554 21.691 54.4877 20.7663 48.7909C19.8416 43.0942 14.4739 39.2257 8.77712 40.1504C3.08037 41.0751 -0.788127 46.4428 0.136585 52.1396C1.0613 57.8363 6.42905 61.7048 12.1258 60.7801Z" fill="black"/>
</g>
<defs>
<clipPath id="clip0">
<rect width="100" height="100" fill="white"/>
</clipPath>
</defs>
</svg>
