<?xml version="1.0" encoding="UTF-8"?>
<svg width="100px" height="100px" viewBox="0 0 100 100" version="1.1" xmlns="http://www.w3.org/2000/svg" xmlns:xlink="http://www.w3.org/1999/xlink">
    <!-- Generator: Sketch 57.1 (83088) - https://sketch.com -->
    <title>solid/ellipsis-vertical-solid</title>
    <desc>Created with Sketch.</desc>
    <g id="solid/ellipsis-vertical" stroke="none" stroke-width="1" fill="none" fill-rule="evenodd">
        <path d="M49.84,75.32 C56.6551938,75.32 62.18,80.8448062 62.18,87.66 C62.18,94.4751939 56.6551938,100 49.84,100 C43.0248062,100 37.5,94.4751939 37.5,87.66 C37.5,80.8448062 43.0248062,75.32 49.84,75.32 Z M49.84,37.66 C56.6506275,37.6710115 62.1689885,43.1893725 62.18,50 C62.18,56.8151938 56.6551938,62.34 49.84,62.34 C43.0248062,62.34 37.5,56.8151938 37.5,50 C37.5,43.1848062 43.0248062,37.66 49.84,37.66 Z M49.84,-4.99999953e-08 C56.6551938,-4.99999953e-08 62.18,5.52480614 62.18,12.34 C62.18,19.1551938 56.6551938,24.68 49.84,24.68 C43.0293725,24.6689884 37.5110115,19.1506274 37.5,12.34 C37.5,5.52480614 43.0248062,-4.99999953e-08 49.84,-4.99999953e-08 Z" id="Shape" fill="#000000"></path>
    </g>
</svg>