<svg width="100" height="100" viewBox="0 0 100 100" fill="none" xmlns="http://www.w3.org/2000/svg">
<g clip-path="url(#clip0)">
<path d="M49.825 20.9C55.5964 20.9 60.275 16.2214 60.275 10.45C60.275 4.67862 55.5964 0 49.825 0C44.0536 0 39.375 4.67862 39.375 10.45C39.375 16.2214 44.0536 20.9 49.825 20.9Z" fill="black"/>
<path d="M49.825 60.4498C55.5964 60.4498 60.275 55.7712 60.275 49.9998C60.275 44.2284 55.5964 39.5498 49.825 39.5498C44.0536 39.5498 39.375 44.2284 39.375 49.9998C39.375 55.7712 44.0536 60.4498 49.825 60.4498Z" fill="black"/>
<path d="M60.275 89.5501C60.275 95.3215 55.5964 100 49.825 100C44.0536 100 39.375 95.3215 39.375 89.5501C39.375 83.7787 44.0536 79.1001 49.825 79.1001C55.5964 79.1001 60.275 83.7787 60.275 89.5501Z" fill="black"/>
</g>
<defs>
<clipPath id="clip0">
<rect width="100" height="100" fill="white"/>
</clipPath>
</defs>
</svg>
