<svg width="100" height="100" viewBox="0 0 100 100" fill="none" xmlns="http://www.w3.org/2000/svg">
<g clip-path="url(#clip0)">
<path d="M86.1411 89.0353L61.3882 37.6471C61.1538 37.1547 61.0332 36.6159 61.0353 36.0706V8.1647L62.2117 6.84705C63.3373 5.67247 63.6502 3.93808 63.0059 2.44425C62.3617 0.950412 60.8856 -0.0124501 59.2588 -0.000127241H40.6235C39.0076 -0.00194538 37.5444 0.954852 36.8983 2.436C36.2523 3.91715 36.5463 5.64044 37.647 6.82352L38.8235 8.09411V35.2941C38.823 35.8354 38.7025 36.3698 38.4706 36.8588L13.6823 89.0706C12.5633 91.44 12.7334 94.2171 14.1331 96.4323C15.5328 98.6475 17.9678 99.9933 20.5882 100H79.2588C81.8875 99.9974 84.3306 98.6448 85.7281 96.4184C87.1256 94.1919 87.2816 91.4037 86.1411 89.0353Z" fill="black"/>
</g>
<defs>
<clipPath id="clip0">
<rect width="100" height="100" fill="white"/>
</clipPath>
</defs>
</svg>
