<svg width="100" height="100" viewBox="0 0 100 100" fill="none" xmlns="http://www.w3.org/2000/svg">
<g clip-path="url(#clip0)">
<path d="M41.4795 70.2939C39.601 70.2939 38.0782 71.832 38.0782 73.7292C38.0782 75.6265 39.601 77.1645 41.4795 77.1645C43.3579 77.1645 44.8807 75.6265 44.8807 73.7292C44.8744 71.8347 43.3553 70.3004 41.4795 70.2939Z" fill="black"/>
<path d="M58.1245 77.9058C56.2461 77.9058 54.7233 79.4438 54.7233 81.3411C54.7233 83.2384 56.2461 84.7764 58.1245 84.7764C60.003 84.7764 61.5258 83.2384 61.5258 81.3411C61.5289 80.429 61.1716 79.5534 60.533 78.9085C59.8945 78.2636 59.0276 77.9027 58.1245 77.9058Z" fill="black"/>
<path fill-rule="evenodd" clip-rule="evenodd" d="M60.7807 37.6473L85.2886 89.0355C86.4178 91.404 86.2633 94.1921 84.8797 96.4186C83.496 98.6451 81.0771 99.9976 78.4744 100H20.3847C17.7903 99.9936 15.3793 98.6477 13.9935 96.4325C12.6076 94.2173 12.4393 91.4402 13.5472 89.0708L38.09 36.8591C38.3196 36.37 38.439 35.8356 38.4394 35.2944V8.09435L37.2746 6.82377C36.1848 5.64069 35.8937 3.91739 36.5334 2.43624C37.173 0.955096 38.6217 -0.00170124 40.2216 0.000116899H58.6724C60.2831 -0.0122059 61.7446 0.950656 62.3825 2.44449C63.0203 3.93832 62.7106 5.67271 61.5961 6.84729L60.4313 8.16494V36.0708C60.4292 36.6161 60.5487 37.1549 60.7807 37.6473ZM35.0964 61.1061L20.3964 92.3532H78.4744L63.5763 61.1061H50.6118C50.6118 63.0034 49.089 64.5414 47.2106 64.5414C45.3321 64.5414 43.8093 63.0034 43.8093 61.1061H35.0964Z" fill="black"/>
</g>
<defs>
<clipPath id="clip0">
<rect width="100" height="100" fill="white"/>
</clipPath>
</defs>
</svg>
