<?xml version="1.0" encoding="UTF-8"?>
<svg width="100px" height="100px" viewBox="0 0 100 100" version="1.1" xmlns="http://www.w3.org/2000/svg" xmlns:xlink="http://www.w3.org/1999/xlink">
    <!-- Generator: Sketch 57.1 (83088) - https://sketch.com -->
    <title>solid/erlenmeyer-solid</title>
    <desc>Created with Sketch.</desc>
    <g id="solid/erlenmeyer" stroke="none" stroke-width="1" fill="none" fill-rule="evenodd">
        <path d="M85.94,89.76 L60.94,37.76 C60.659109,37.1800516 60.5121544,36.5443875 60.51,35.9 L60.51,7.55999996 C60.5106049,7.43762579 60.5569789,7.31990711 60.64,7.22999996 L61.84,5.89999996 C62.7992673,4.88177636 63.0600864,3.39014554 62.5032556,2.10682463 C61.9464249,0.823503718 60.6789097,-0.00498543509 59.28,-2.24250076e-05 L40.42,-2.24250076e-05 C39.0210903,-0.00498543509 37.7535751,0.823503718 37.1967444,2.10682463 C36.6399136,3.39014554 36.9007327,4.88177636 37.86,5.89999996 L39.1,7.22999996 C39.1802433,7.32089592 39.2231146,7.438792 39.22,7.55999996 L39.22,35.1 C39.2211137,35.7361095 39.0810824,36.3645429 38.81,36.94 L13.7,89.79 C12.6461966,92.0027438 12.8009503,94.6013443 14.1099237,96.6733783 C15.4188972,98.7454123 17.6991359,100.001272 20.15,100.000001 L79.51,100.000001 C81.9657765,100.000001 84.2488748,98.7366746 85.5548124,96.6569233 C86.86075,94.5771719 87.0062337,91.9722352 85.94,89.76 Z" id="erlenmeyer" fill="#000000"></path>
    </g>
</svg>