<?xml version="1.0" encoding="UTF-8"?>
<svg width="100px" height="100px" viewBox="0 0 100 100" version="1.1" xmlns="http://www.w3.org/2000/svg" xmlns:xlink="http://www.w3.org/1999/xlink">
    <!-- Generator: Sketch 57.1 (83088) - https://sketch.com -->
    <title>regular/erlenmeyer-filled-regular</title>
    <desc>Created with Sketch.</desc>
    <g id="regular/erlenmeyer-filled" stroke="none" stroke-width="1" fill="none" fill-rule="evenodd">
        <path d="M59.28,-4.46001725e-05 C60.6789097,-0.00498543509 61.9464249,0.823503718 62.5032556,2.10682463 C63.0600864,3.39014554 62.7992673,4.88177636 61.84,5.89999996 L60.6,7.22999996 C60.5169789,7.31990711 60.4706049,7.43762579 60.47,7.55999996 L60.47,35.88 C60.4721544,36.5243875 60.619109,37.1600516 60.9,37.74 L85.9,89.74 C86.972517,91.9476173 86.835986,94.5513618 85.5384665,96.6347029 C84.2409471,98.7180439 81.9643317,99.9889289 79.51,100.000002 L20.15,100.000002 C17.6991359,100.001272 15.4188972,98.7454123 14.1099237,96.6733783 C12.8009503,94.6013443 12.6461966,92.0027438 13.7,89.79 L38.81,36.94 C39.08014,36.3642207 39.2201237,35.736001 39.22,35.1 L39.22,7.55999996 C39.2231146,7.438792 39.1802433,7.32089592 39.1,7.22999996 L37.86,5.89999996 C36.9007327,4.88177636 36.6399136,3.39014554 37.1967444,2.10682463 C37.7535751,0.823503718 39.0210903,-0.00498543509 40.42,-4.46001725e-05 L59.28,-4.46001725e-05 Z M56.56,4.75999995 L43.18,4.75999995 C43.7108952,5.59778998 43.9950793,6.56817454 44,7.55999996 L44,35.1 C43.993627,36.4496177 43.6897464,37.781229 43.11,39 L18,91.84 C17.6502782,92.5772782 17.7026593,93.4423237 18.1387884,94.1320162 C18.5749175,94.8217087 19.3339826,95.24 20.15,95.24 L79.51,95.24 C80.3276685,95.2343082 81.0856754,94.8109907 81.5194136,94.1178202 C81.9531519,93.4246498 82.0024127,92.5578479 81.65,91.82 L56.65,39.82 C56.0592802,38.5939979 55.7516988,37.2508924 55.75,35.89 L55.75,7.55999996 C55.7469862,6.56845388 56.0280732,5.59679535 56.56,4.75999995 Z M44,61.24 C44,63.1729966 45.5670034,64.74 47.5,64.74 C49.4329966,64.74 51,63.1729966 51,61.24 L64.28,61.24 L79.51,92.86 L20.17,92.86 L35.17,61.24 L44,61.24 Z M58.71,78.23 C56.7880491,78.23 55.23,79.7880491 55.23,81.71 C55.23,83.631951 56.7880491,85.19 58.71,85.19 C60.6319509,85.19 62.19,83.631951 62.19,81.71 C62.19,79.7880491 60.6319509,78.23 58.71,78.23 Z M41.71,70.5399712 L41.7,70.5399712 C40.7796976,70.537344 39.8960337,70.9003875 39.2434063,71.5492642 C38.5907789,72.1981409 38.2226483,73.0796976 38.2198852,74 C38.2119114,75.4084089 39.0535558,76.6828257 40.35205,77.2283473 C41.6505442,77.7738689 43.149828,77.4829197 44.1500295,76.4913159 C45.150231,75.4997122 45.4541126,74.002996 44.9198211,72.6998407 C44.3855297,71.3966854 43.1184263,70.5440705 41.71,70.5399712 Z" id="Shape" fill="#000000"></path>
    </g>
</svg>