<?xml version="1.0" encoding="UTF-8"?>
<svg width="100px" height="100px" viewBox="0 0 100 100" version="1.1" xmlns="http://www.w3.org/2000/svg" xmlns:xlink="http://www.w3.org/1999/xlink">
    <!-- Generator: Sketch 57.1 (83088) - https://sketch.com -->
    <title>solid/erlenmeyer-filled-solid</title>
    <desc>Created with Sketch.</desc>
    <g id="solid/erlenmeyer-filled" stroke="none" stroke-width="1" fill="none" fill-rule="evenodd">
        <path d="M59.28,-4.46001725e-05 C60.6789097,-0.00498543509 61.9464249,0.823503718 62.5032556,2.10682463 C63.0600864,3.39014554 62.7992673,4.88177636 61.84,5.89999996 L60.64,7.22999996 C60.5569789,7.31990711 60.5106049,7.43762579 60.51,7.55999996 L60.51,35.9 C60.5121544,36.5443875 60.659109,37.1800516 60.94,37.76 L85.94,89.76 C87.0062337,91.9722352 86.86075,94.5771719 85.5548124,96.6569233 C84.2488748,98.7366746 81.9657765,100.000002 79.51,100.000002 L20.15,100.000002 C17.6991359,100.001272 15.4188972,98.7454123 14.1099237,96.6733783 C12.8009503,94.6013443 12.6461966,92.0027438 13.7,89.79 L38.81,36.94 C39.0810824,36.3645429 39.2211137,35.7361095 39.22,35.1 L39.22,7.55999996 C39.2231146,7.438792 39.1802433,7.32089592 39.1,7.22999996 L37.86,5.89999996 C36.9007327,4.88177636 36.6399136,3.39014554 37.1967444,2.10682463 C37.7535751,0.823503718 39.0210903,-0.00498543509 40.42,-4.46001725e-05 L59.28,-4.46001725e-05 Z M44.06,61.24 L35.15,61.24 L20.15,92.86 L79.51,92.86 L64.28,61.24 L51.06,61.24 C51.06,63.1729966 49.4929966,64.74 47.56,64.74 C45.6270034,64.74 44.06,63.1729966 44.06,61.24 Z M58.71,78.23 C60.6319509,78.23 62.19,79.7880491 62.19,81.71 C62.19,83.631951 60.6319509,85.19 58.71,85.19 C56.7880491,85.19 55.23,83.631951 55.23,81.71 C55.23,79.7880491 56.7880491,78.23 58.71,78.23 Z M41.7,70.5399715 C43.6102657,70.5454578 45.1590292,72.089758 45.1701148,74 C45.1780991,75.4102294 44.3342951,76.6859227 43.0333391,77.2302809 C41.7323831,77.7746391 40.2315163,77.4800249 39.2328792,76.4842657 C38.2342421,75.4885065 37.9352976,73.9884962 38.475899,72.6859746 C39.0165004,71.383453 40.2897531,70.5359708 41.7,70.5399715 Z" id="Shape" fill="#000000"></path>
    </g>
</svg>