<?xml version="1.0" encoding="UTF-8"?>
<svg width="100px" height="100px" viewBox="0 0 100 100" version="1.1" xmlns="http://www.w3.org/2000/svg" xmlns:xlink="http://www.w3.org/1999/xlink">
    <!-- Generator: Sketch 57.1 (83088) - https://sketch.com -->
    <title>bold/eye-slash-bold</title>
    <desc>Created with Sketch.</desc>
    <g id="bold/eye-slash" stroke="none" stroke-width="1" fill="none" fill-rule="evenodd">
        <path d="M96.6044619,2.87078566 C98.2861125,4.55243631 98.3297116,7.26517698 96.7029703,8.99999996 L8.58415837,97.059406 C7.76306197,97.8901906 6.64332348,98.356437 5.47524748,98.356437 C3.69548039,98.3551418 2.09127182,97.2831985 1.40905325,95.6393766 C0.726834683,93.9955547 1.10059914,92.1027136 2.3564356,90.8415842 L90.4752476,2.77227718 C92.2100705,1.14553596 94.9228112,1.18913502 96.6044619,2.87078566 Z M82.5643565,32.4356435 C87.6895536,36.5980359 92.3415172,41.3098029 96.4371624,46.4858193 L97.079208,47.3069307 L99.059406,49.9207921 L97.079208,52.5346535 C96.2178218,53.6930693 75.7425743,81.009901 49.5049505,81.009901 C45.2412237,80.9712429 41.0103149,80.2770742 36.9603213,78.9530548 L36.2475247,78.7128713 L43.3762376,71.5742574 C45.380607,71.9811417 47.420111,72.1900665 49.4653465,72.1980198 C67.029703,72.1980198 82.3564357,56.3168317 87.8217822,49.9207921 C84.5496837,46.1064556 80.9533193,42.5836621 77.0733678,39.3917692 L76.2376238,38.7128713 L82.5643565,32.4356435 Z M47.6633663,67.3267327 L66.9108911,48.0792079 C66.9789492,48.690682 67.0120063,49.3055458 67.010082,49.9207921 C66.9989883,59.5839855 59.1681439,67.4148299 49.5049505,67.4257426 C49.0371287,67.4257426 48.5748762,67.4034654 48.1181931,67.3672649 L47.6633663,67.3267327 L66.9108911,48.0792079 L47.6633663,67.3267327 Z M49.5049505,18.8316831 C53.7796951,18.8572519 58.0234162,19.5417907 62.0868125,20.8598416 L62.8019802,21.0990099 L55.6336634,28.2673267 C53.6303749,27.8522568 51.5903815,27.6399648 49.5445545,27.6336633 C31.980198,27.6336633 16.6534653,43.5148515 11.1881188,49.9108911 C14.4577506,53.7275501 18.0541623,57.2507032 21.9360822,60.4404195 L22.7722772,61.1188119 L16.4455445,67.4059406 C11.3559076,63.2469629 6.73220511,58.550005 2.65470936,53.397592 L1.98019797,52.5346535 L-4.99999437e-08,49.9207921 L1.98019797,47.3069307 C2.79207916,46.1386139 23.2673267,18.8316831 49.5049505,18.8316831 Z M49.5049505,32.4156605 C49.9663852,32.4142389 50.4276048,32.4324566 50.8873405,32.4703716 L51.3465347,32.5148515 L32.0990099,51.7623762 C32.0309518,51.1509022 31.9978946,50.5360384 31.999819,49.9207921 C32.0109127,40.2575987 39.8417571,32.4267543 49.5049505,32.4156605 Z" id="Shape" fill="#000000"></path>
    </g>
</svg>