<svg width="100" height="100" viewBox="0 0 100 100" fill="none" xmlns="http://www.w3.org/2000/svg">
<g clip-path="url(#clip0)">
<path d="M0.923681 98.1851C1.37338 99.2855 2.43305 100.002 3.60742 100C4.37721 100.003 5.11621 99.6935 5.66031 99.1412L98.4463 5.02712C99.1797 4.2832 99.4662 3.1989 99.1977 2.18268C98.9293 1.16646 98.1467 0.372703 97.1448 0.100408C96.1429 -0.171887 95.074 0.118648 94.3405 0.862573L1.55453 94.9766C0.723074 95.8179 0.473983 97.0847 0.923681 98.1851Z" fill="black"/>
<path d="M15.3329 66.5189C16.9218 67.8718 18.534 69.1306 20.1462 70.307L24.3563 66.0836C18.0195 61.4835 12.2897 56.0789 7.3069 50.0019C12.2246 43.9668 29.7379 24.4264 50 24.4264C54.4161 24.4723 58.7882 25.321 62.9089 26.9322L67.351 22.4147C61.8711 19.9399 55.9517 18.623 49.9537 18.5443C38.7845 18.5443 26.7572 23.7088 15.2865 33.4849C10.1097 37.8801 5.41259 42.8258 1.27581 48.2373L0 50.0019L1.27581 51.7665C5.42714 57.1804 10.1399 62.1262 15.3329 66.5189Z" fill="black"/>
<path d="M79.8538 29.6972C81.4621 30.8658 83.0666 32.1285 84.6671 33.4853C89.8601 37.878 94.5729 42.8238 98.7242 48.2377L100 50.0141L98.7242 51.767C94.587 57.1995 89.8859 62.1651 84.7019 66.5782C73.2312 76.3543 61.2039 81.5188 50.0347 81.5188C44.0369 81.4384 38.1178 80.1216 32.6374 77.6483L37.1143 73.072C41.2271 74.6827 45.5915 75.5314 50 75.5778C70.2621 75.5778 87.7638 56.0374 92.6815 50.0023C87.7179 43.9278 82.0077 38.5233 75.6901 33.9206L79.8538 29.6972Z" fill="black"/>
<path d="M39.144 51.0255C39.1261 50.6846 39.1261 50.343 39.144 50.002C39.1504 43.8973 44.0278 38.9501 50.0463 38.9436H51.0554L55.7991 34.1203C49.6811 31.7999 42.7908 33.3182 38.1735 38.0042C33.5562 42.6901 32.063 49.6799 34.3539 55.8842L39.144 51.0255Z" fill="black"/>
<path d="M60.8559 48.9787V50.0022C60.8495 56.1069 55.9721 61.0541 49.9535 61.0606C49.6135 61.0784 49.2729 61.0784 48.9329 61.0606L44.1892 65.8839C50.3085 68.2109 57.204 66.6956 61.8251 62.0084C66.4462 57.3211 67.9401 50.3269 65.646 44.12L60.8559 48.9787Z" fill="black"/>
</g>
<defs>
<clipPath id="clip0">
<rect width="100" height="100" fill="white"/>
</clipPath>
</defs>
</svg>
