<?xml version="1.0" encoding="UTF-8"?>
<svg width="100px" height="100px" viewBox="0 0 100 100" version="1.1" xmlns="http://www.w3.org/2000/svg" xmlns:xlink="http://www.w3.org/1999/xlink">
    <!-- Generator: Sketch 57.1 (83088) - https://sketch.com -->
    <title>bold/eye-bold</title>
    <desc>Created with Sketch.</desc>
    <g id="bold/eye" stroke="none" stroke-width="1" fill="none" fill-rule="evenodd">
        <path d="M49.5049505,18.8118812 C75.7425743,18.8118812 96.2178218,46.1188119 97.079208,47.2871287 L99.059406,49.9009901 L97.079208,52.5148515 C96.2178218,53.6831683 75.7425743,80.990099 49.5049505,80.990099 C23.2673267,80.990099 2.79207916,53.6831683 1.98019797,52.4752475 L-4.99999331e-08,49.9009901 L1.98019797,47.2871287 C2.79207916,46.1188119 23.2673267,18.8118812 49.5049505,18.8118812 Z M49.5049505,27.6138614 C32.029703,27.6138614 16.6138614,43.5049505 11.1485148,49.9009901 C16.6237623,56.2871287 32.029703,72.1881188 49.5049505,72.1881188 C66.980198,72.1881188 82.3960396,56.3465347 87.8613862,49.9108911 C82.3762377,43.5643564 66.980198,27.6138614 49.5049505,27.6138614 Z M49.5049505,32.3960396 C59.1726677,32.3960396 67.009901,40.2332729 67.009901,49.9009901 C66.9989883,59.5641835 59.1681439,67.3950279 49.5049505,67.4059406 C39.8372333,67.4059406 32,59.5687073 32,49.9009901 C32,40.2332729 39.8372333,32.3960396 49.5049505,32.3960396 Z M49.5049505,41.1980198 C44.6984327,41.1980198 40.8019802,45.0944723 40.8019802,49.9009901 C40.8019802,54.7075079 44.6984327,58.6039604 49.5049505,58.6039604 C54.3114683,58.6039604 58.2079208,54.7075079 58.2079208,49.9009901 C58.1970319,45.0989899 54.3069507,41.2089087 49.5049505,41.1980198 Z" id="Shape" fill="#000000"></path>
    </g>
</svg>