<svg width="100" height="100" viewBox="0 0 100 100" fill="none" xmlns="http://www.w3.org/2000/svg">
<path fill-rule="evenodd" clip-rule="evenodd" d="M34.5509 56.418C37.1414 62.6628 43.2392 66.7319 50 66.7272C59.2232 66.7144 66.6951 59.2373 66.7015 50.0141C66.7015 43.2533 62.6282 37.1583 56.3816 34.5722C50.1349 31.986 42.9454 33.418 38.1664 38.2003C33.3874 42.9826 31.9604 50.1731 34.5509 56.418ZM39.9075 45.8438C41.5997 41.7645 45.5837 39.1071 50 39.1118C56.0186 39.1182 60.896 43.9956 60.9024 50.0141C60.9071 54.4305 58.2497 58.4144 54.1704 60.1067C50.0911 61.7989 45.394 60.8659 42.2711 57.743C39.1483 54.6202 38.2153 49.9231 39.9075 45.8438Z" fill="black"/>
<path fill-rule="evenodd" clip-rule="evenodd" d="M15.3329 66.2976C26.8035 75.9357 38.8309 81.039 50 81.039C61.1691 81.039 73.1501 75.9357 84.6671 66.2976C89.8639 61.9667 94.577 57.0864 98.7242 51.7418L100 50.0137L98.7242 48.2971C94.577 42.9526 89.8639 38.0723 84.6671 33.7414C73.1501 24.0916 61.1691 19 50 19C38.8309 19 26.8499 24.0916 15.3329 33.7414C10.1361 38.0723 5.42301 42.9526 1.27581 48.2971L0 50.0137L1.27581 51.7418C5.42301 57.0864 10.1361 61.9667 15.3329 66.2976ZM50 75.2399C29.7379 75.2399 12.2245 55.9636 7.30689 50.0137C12.2245 44.0754 29.7379 24.7991 50 24.7991C70.2621 24.7991 87.7639 44.0754 92.6815 50.0137C87.7639 55.9636 70.2621 75.2399 50 75.2399Z" fill="black"/>
</svg>
