<svg width="100" height="100" viewBox="0 0 100 100" fill="none" xmlns="http://www.w3.org/2000/svg">
<path d="M98.7242 48.2627C94.577 42.9182 89.8639 38.0379 84.6671 33.7069C73.1501 24.0572 61.1691 18.9656 50 18.9656C38.8309 18.9656 26.8035 24.0572 15.3329 33.7069C10.1361 38.0379 5.42301 42.9182 1.27581 48.2627L0 49.9793L1.27581 51.7074C5.42301 57.0519 10.1361 61.9322 15.3329 66.2632C26.8499 75.9013 38.8309 81.0045 50 81.0045C61.1691 81.0045 73.1965 75.9013 84.6671 66.2632C89.8639 61.9322 94.577 57.0519 98.7242 51.7074L100 49.9793L98.7242 48.2627ZM50.0116 63.7928C44.4214 63.8068 39.3738 60.4502 37.2248 55.2896C35.0758 50.129 36.249 44.1819 40.1969 40.224C44.1448 36.2662 50.0889 35.0779 55.2549 37.214C60.421 39.35 63.7903 44.3891 63.7903 49.9793C63.7903 57.5992 57.6199 63.78 50 63.7928H50.0116Z" fill="black"/>
</svg>
