<svg width="100" height="100" viewBox="0 0 100 100" fill="none" xmlns="http://www.w3.org/2000/svg">
<path fill-rule="evenodd" clip-rule="evenodd" d="M94.4814 0H5.5194C2.4704 0 0.000396729 2.471 0.000396729 5.52V94.48C0.000396729 97.528 2.4704 100 5.5194 100H53.4134V61.274H40.3814V46.183H53.4134V35.053C53.4134 22.137 61.3014 15.104 72.8244 15.104C78.3434 15.104 83.0864 15.515 84.4694 15.698V29.196L76.4774 29.2C70.2114 29.2 68.9984 32.178 68.9984 36.547V46.183H83.9434L81.9974 61.274H68.9984V100H94.4814C97.5284 100 100 97.529 100 94.48V5.52C100 2.471 97.5294 0 94.4814 0Z" fill="black"/>
</svg>
