<svg width="100" height="100" viewBox="0 0 100 100" fill="none" xmlns="http://www.w3.org/2000/svg">
<path fill-rule="evenodd" clip-rule="evenodd" d="M97.4225 32.8903L93.8849 36.4278C102.207 47.6519 102.018 63.0491 93.4227 74.0654C84.8276 85.0817 69.9388 89.01 57.0277 83.6679C44.1167 78.3257 36.3562 65.0259 38.0577 51.1572C39.7592 37.2886 50.5045 26.2592 64.3241 24.1966V23.2486H60.2662C57.7123 23.2486 55.6419 21.1782 55.6419 18.6243C55.6419 16.0704 57.7123 14 60.2662 14H77.6074C80.1613 14 82.2316 16.0704 82.2316 18.6243C82.2316 21.1782 80.1613 23.2486 77.6074 23.2486H73.5611V24.1966C78.5463 24.947 83.2728 26.9035 87.3299 29.896L90.8791 26.3469C92.0479 25.178 93.7516 24.7215 95.3483 25.1494C96.945 25.5772 98.1922 26.8243 98.62 28.421C99.0478 30.0177 98.5913 31.7214 97.4225 32.8903ZM69.1796 58.1042L86.3241 48.3701C87.7128 47.5816 88.1994 45.8166 87.4109 44.4279C86.6223 43.0392 84.8573 42.5526 83.4686 43.3412L68.6825 51.7343L57.8847 47.6764C56.9162 47.313 55.8273 47.4938 55.0283 48.1509C54.2292 48.8079 53.8414 49.8414 54.0109 50.8619C54.1804 51.8824 54.8815 52.735 55.85 53.0984L69.1796 58.1042Z" fill="black"/>
<path d="M4.6243 59.5379H25.318C27.872 59.5379 29.9423 57.4675 29.9423 54.9136C29.9423 52.3596 27.872 50.2893 25.318 50.2893H4.6243C2.07037 50.2893 0 52.3596 0 54.9136C0 57.4675 2.07037 59.5379 4.6243 59.5379Z" fill="black"/>
<path d="M11.5607 47.9772C9.00675 47.9772 6.93638 45.9069 6.93638 43.3529C6.93638 40.799 9.00675 38.7286 11.5607 38.7286H32.2544C34.8083 38.7286 36.8787 40.799 36.8787 43.3529C36.8787 45.9069 34.8083 47.9772 32.2544 47.9772H11.5607Z" fill="black"/>
<path d="M11.5607 71.0985H32.2544C34.8083 71.0985 36.8787 69.0281 36.8787 66.4742C36.8787 63.9203 34.8083 61.8499 32.2544 61.8499H11.5607C9.00675 61.8499 6.93638 63.9203 6.93638 66.4742C6.93638 69.0281 9.00675 71.0985 11.5607 71.0985Z" fill="black"/>
</svg>
