<svg width="100" height="100" viewBox="0 0 100 100" fill="none" xmlns="http://www.w3.org/2000/svg">
<g clip-path="url(#clip0)">
<path d="M98.2118 46.2707L53.7412 14.8942C52.4486 13.9792 50.7536 13.8618 49.3472 14.5897C47.9409 15.3177 47.0581 16.7694 47.0588 18.353V43.3766L6.68235 14.8942C5.38982 13.9792 3.69481 13.8618 2.28842 14.5897C0.882037 15.3177 0 16.7694 0 18.353V81.106C0 82.6853 0.879734 84.133 2.28235 84.8589C2.88628 85.1712 3.55542 85.3365 4.23529 85.3413C5.11179 85.3426 5.967 85.0713 6.68235 84.5648L47.0588 56.0707V81.106C47.0581 82.6853 47.9386 84.133 49.3412 84.8589C49.9451 85.1712 50.6142 85.3365 51.2941 85.3413C52.1706 85.3426 53.0258 85.0713 53.7412 84.5648L98.2118 53.1883C99.335 52.3946 100.003 51.1049 100.003 49.7295C100.003 48.3541 99.335 47.0644 98.2118 46.2707ZM5.88235 77.9295V21.5295L45.8824 49.7648L5.88235 77.9295ZM52.9412 77.9295V49.6942V21.5295L92.9412 49.7648L52.9412 77.9295Z" fill="black"/>
</g>
<defs>
<clipPath id="clip0">
<rect width="100" height="100" fill="white"/>
</clipPath>
</defs>
</svg>
