<svg width="100" height="100" viewBox="0 0 100 100" fill="none" xmlns="http://www.w3.org/2000/svg">
<g clip-path="url(#clip0)">
<path d="M97.7179 14.6001C96.313 13.8611 94.6119 13.9748 93.3179 14.8942L52.9414 43.3883V18.353C52.9422 16.7694 52.0594 15.3177 50.653 14.5897C49.2466 13.8618 47.5516 13.9792 46.2591 14.8942L1.80023 46.2707C0.672188 47.0612 0.000488281 48.3521 0.000488281 49.7295C0.000488281 51.1069 0.672188 52.3978 1.80023 53.1883L46.2591 84.5648C46.9744 85.0713 47.8296 85.3426 48.7061 85.3413C49.3867 85.3425 50.0573 85.1769 50.6591 84.8589C52.0617 84.133 52.9421 82.6853 52.9414 81.106V56.0707L93.3179 84.5648C94.0339 85.0699 94.8887 85.3413 95.7649 85.3413C98.1013 85.3348 99.9938 83.4424 100 81.106V18.353C100.006 16.7722 99.1243 15.3219 97.7179 14.6001Z" fill="black"/>
</g>
<defs>
<clipPath id="clip0">
<rect width="100" height="100" fill="white"/>
</clipPath>
</defs>
</svg>
