<?xml version="1.0" encoding="UTF-8"?>
<svg width="100px" height="100px" viewBox="0 0 100 100" version="1.1" xmlns="http://www.w3.org/2000/svg" xmlns:xlink="http://www.w3.org/1999/xlink">
    <!-- Generator: Sketch 57.1 (83088) - https://sketch.com -->
    <title>bold/fast-forward-bold</title>
    <desc>Created with Sketch.</desc>
    <g id="bold/fast-forward" stroke="none" stroke-width="1" fill="none" fill-rule="evenodd">
        <path d="M96.5742575,44.9207921 L96.5742575,44.9207921 L53.9999951,14.9108911 C52.2483482,13.7043357 49.973263,13.5647954 48.0872895,14.5482403 C46.2013159,15.5316853 45.0133927,17.4770187 44.9999951,19.6039604 L44.9999951,40.2772277 L9.04950491,14.9108911 C7.29670374,13.6762562 5.00210463,13.5208562 3.09884284,14.507887 C1.19558106,15.4949177 -4.94517197e-06,17.459984 -4.94517197e-06,19.6039604 L-4.94517197e-06,79.6138614 C-0.00279626157,81.7592333 1.19253274,83.7266151 3.09788615,84.712646 C5.00323956,85.6986768 7.29969012,85.53831 9.04950491,84.2970297 L44.9999951,58.9306931 L44.9999951,79.6138614 C44.9972038,81.7592333 46.1925328,83.7266151 48.0978862,84.712646 C50.0032396,85.6986768 52.2996902,85.53831 54.049505,84.2970297 L96.6237624,54.2970297 C98.1494017,53.2233638 99.0571805,51.4744761 99.0571805,49.6089109 C99.0571805,47.7433457 98.1494017,45.994458 96.6237624,44.9207921 L96.5742575,44.9207921 Z M8.99999996,73.3168317 L8.99999996,25.9009901 L42.5742574,49.6039604 L8.99999996,73.3168317 Z M54.009901,73.3168317 L54.009901,25.9009901 L87.6138614,49.6039604 L54.009901,73.3168317 Z" id="fast-forward" fill="#000000"></path>
    </g>
</svg>