<?xml version="1.0" encoding="UTF-8"?>
<svg width="100px" height="100px" viewBox="0 0 100 100" version="1.1" xmlns="http://www.w3.org/2000/svg" xmlns:xlink="http://www.w3.org/1999/xlink">
    <!-- Generator: Sketch 57.1 (83088) - https://sketch.com -->
    <title>solid/fast-forward-solid</title>
    <desc>Created with Sketch.</desc>
    <g id="solid/fast-forward" stroke="none" stroke-width="1" fill="none" fill-rule="evenodd">
        <path d="M98.44,46.92 L53.44,15.18 C52.3158964,14.385362 50.8429237,14.2825254 49.619307,14.9132556 C48.3956903,15.5439859 47.6249075,16.8033975 47.62,18.18 L47.62,44.67 L5.81999996,15.18 C4.69442912,14.3843372 3.21923081,14.282356 1.99488123,14.9155677 C0.770531639,15.5487795 0.00118415118,16.8115996 -9.04896415e-06,18.19 L-9.04896415e-06,81.69 C-0.00305165307,83.0698642 0.770219105,84.3341619 1.99999095,84.96 C3.22333449,85.6035236 4.70485945,85.5029501 5.82999996,84.7 L47.63,55.21 L47.63,81.69 C47.6349075,83.0666025 48.4056903,84.3260141 49.629307,84.9567444 C50.8529237,85.5874746 52.3258964,85.484638 53.45,84.69 L98.45,52.95 C99.4135502,52.2544322 99.9843593,51.1383785 99.9843593,49.95 C99.9843593,48.7616215 99.4135502,47.6455678 98.45,46.95 L98.44,46.92 Z" id="fast-forward" fill="#000000"></path>
    </g>
</svg>