<?xml version="1.0" encoding="UTF-8"?>
<svg width="100px" height="100px" viewBox="0 0 100 100" version="1.1" xmlns="http://www.w3.org/2000/svg" xmlns:xlink="http://www.w3.org/1999/xlink">
    <!-- Generator: Sketch 57.1 (83088) - https://sketch.com -->
    <title>bold/fast-bold</title>
    <desc>Created with Sketch.</desc>
    <g id="bold/fast" stroke="none" stroke-width="1" fill="none" fill-rule="evenodd">
        <path d="M76.5247525,13.8613861 C78.9280344,13.9741467 80.8185657,15.9554603 80.8185657,18.3613861 C80.8185657,20.6944051 79.040876,22.628156 76.7417818,22.8460278 L76.5247525,22.8613861 L76.3762377,22.8613861 C80.0762581,23.8596494 83.564197,25.5165695 86.6734457,27.7509782 L87.1881188,28.1287128 L89.4356436,25.8811881 C90.5711115,24.7439516 92.2270355,24.2988666 93.7796451,24.7135924 C95.3322548,25.1283181 96.5456717,26.3398479 96.9628135,27.8918102 C97.3590981,29.3661744 96.9795497,30.9349874 95.9670824,32.0632209 L95.8019802,32.2376237 L93.5643565,34.4851485 C102.017131,45.6989929 102.154216,61.1182815 93.9021548,72.48064 C85.6500937,83.8429984 70.944814,88.482826 57.6660906,83.9138866 C44.3873672,79.3449472 35.6503787,66.6391106 36.1368113,52.6047568 C36.6182802,38.7136107 46.0240978,26.7465207 59.3682231,22.9753986 L59.7821782,22.8613861 L59.6336634,22.8613861 C57.2303815,22.7486256 55.3398502,20.7673119 55.3398502,18.3613861 C55.3398502,16.0283672 57.1175398,14.0946162 59.4166341,13.8767444 L59.6336634,13.8613861 L76.5247525,13.8613861 Z M68.0792079,30.7623762 C55.420404,30.7623762 45.1584158,41.0243644 45.1584158,53.6831683 C45.1584158,66.3419723 55.420404,76.6039604 68.0792079,76.6039604 C80.7334866,76.5930421 90.9890818,66.337447 91,53.6831683 C91,41.0243644 80.7380119,30.7623762 68.0792079,30.7623762 Z M32.3663366,58.6534654 C34.0243894,58.5756705 35.5908962,59.4159453 36.443198,60.8402952 C37.2954999,62.2646452 37.2954999,64.0422855 36.443198,65.4666355 C35.5908962,66.8909854 34.0243894,67.7312602 32.3663366,67.6534654 L12.2277227,67.6534654 C9.82444082,67.5407048 7.93390954,65.5593911 7.93390954,63.1534654 C7.93390954,60.7475396 9.82444082,58.7662259 12.2277227,58.6534654 L32.3663366,58.6534654 Z M85.8844559,40.9215573 C87.2707974,41.7345312 88.1181134,43.2253545 88.1074335,44.8324485 C88.0968662,46.3630141 87.3095806,47.7775842 86.0276477,48.5948253 L85.8316832,48.7128713 L68.4653466,58.6138614 L54.7524753,53.4653465 C52.5502399,52.5148159 51.482303,50.0026301 52.3259615,47.7572818 C53.1440547,45.5799743 55.4801258,44.3975 57.7028888,44.9978737 L57.9108911,45.0594059 L67.6930693,48.7326733 L81.3861386,40.950495 L81.3861386,40.8910891 C82.7833655,40.096969 84.4981143,40.1085834 85.8844559,40.9215573 Z M5.26957726,49.1831696 L5.49504946,49.1881188 L25.6237624,49.1881188 C28.1079164,49.1881128 30.1232532,51.1990203 30.1287129,53.6831696 C30.1287129,56.1000976 28.2253848,58.0724808 25.8358311,58.1832154 L25.6237624,58.1881188 L5.49504946,58.1881188 C3.83699663,58.2659137 2.27048987,57.4256389 1.41818803,56.0012889 C0.565886194,54.576939 0.565886194,52.7992987 1.41818803,51.3749487 C2.19300788,50.0800851 3.55807974,49.2679283 5.04559078,49.1894132 L5.26957726,49.1831696 Z M36.443198,41.8997012 C37.2954999,43.3240511 37.2954999,45.1016914 36.443198,46.5260414 C35.6296372,47.8856482 34.1653235,48.7130708 32.5918088,48.7178205 L32.3663366,48.7128713 L12.2277227,48.7128713 C9.82444082,48.6001107 7.93390954,46.6187971 7.93390954,44.2128713 C7.93390954,41.8798523 9.71159919,39.9461014 12.0106934,39.7282296 L12.2277227,39.7128713 L32.3663366,39.7128713 C34.0243894,39.6350764 35.5908962,40.4753512 36.443198,41.8997012 Z" id="Shape" fill="#000000"></path>
    </g>
</svg>