<svg width="100" height="100" viewBox="0 0 100 100" fill="none" xmlns="http://www.w3.org/2000/svg">
<g clip-path="url(#clip0)">
<path d="M98.2 46.2707L53.7412 14.8942C52.4486 13.9792 50.7536 13.8618 49.3472 14.5897C47.9409 15.3177 47.0581 16.7694 47.0588 18.353V43.3883L6.68235 14.8942C5.38982 13.9792 3.69481 13.8618 2.28842 14.5897C0.882037 15.3177 0 16.7694 0 18.353V81.106C0 82.6853 0.879734 84.133 2.28235 84.8589C2.88628 85.1712 3.55542 85.3365 4.23529 85.3413C5.11179 85.3426 5.967 85.0713 6.68235 84.5648L47.0588 56.0707V81.106C47.0581 82.6853 47.9386 84.133 49.3412 84.8589C49.9451 85.1712 50.6142 85.3365 51.2941 85.3413C52.1706 85.3426 53.0258 85.0713 53.7412 84.5648L98.2 53.1883C99.328 52.3978 99.9997 51.1069 99.9997 49.7295C99.9997 48.3521 99.328 47.0612 98.2 46.2707Z" fill="black"/>
</g>
<defs>
<clipPath id="clip0">
<rect width="100" height="100" fill="white"/>
</clipPath>
</defs>
</svg>
