<?xml version="1.0" encoding="UTF-8"?>
<svg width="100px" height="100px" viewBox="0 0 100 100" version="1.1" xmlns="http://www.w3.org/2000/svg" xmlns:xlink="http://www.w3.org/1999/xlink">
    <!-- Generator: Sketch 57.1 (83088) - https://sketch.com -->
    <title>solid/fast-solid</title>
    <desc>Created with Sketch.</desc>
    <g id="solid/fast" stroke="none" stroke-width="1" fill="none" fill-rule="evenodd">
        <path d="M78.07,14 C80.6381241,14 82.72,16.0818759 82.72,18.65 C82.72,21.1467873 80.7521775,23.183965 78.2828506,23.295215 L78.07,23.3 L74,23.3 L74,24.84 C78.6703722,25.5640103 83.1063709,27.3616436 86.9603398,30.0883455 L87.42,30.42 L91.42,26.42 C93.2370169,24.6029833 96.1829831,24.6029833 97.9999999,26.4200001 C99.7602349,28.1802351 99.8152423,30.9999627 98.1650221,32.8264161 L98,33 L94,37 C102.168385,48.1013229 101.937257,63.2857047 93.4347789,74.1332734 C84.9323004,84.9808421 70.2427219,88.8324849 57.5115424,83.5524323 C44.7803629,78.2723797 37.1284333,65.1549545 38.7988151,51.4738833 C40.4521522,37.9324148 50.8373659,27.1243528 64.2637865,24.9058678 L64.68,24.84 L64.68,23.3 L60.61,23.3 C58.0418759,23.3 55.96,21.2181241 55.96,18.65 C55.96,16.1532127 57.9278225,14.1160349 60.3971494,14.0047849 L60.61,14 L78.07,14 Z M32.43,60.3 C34.9981241,60.3 37.08,62.3818759 37.08,64.95 C37.08,67.5181241 34.9981241,69.6 32.43,69.6 L11.62,69.6 C9.05187587,69.6 6.96999996,67.5181241 6.96999996,64.95 C6.96999996,62.3818759 9.05187587,60.3 11.62,60.3 L32.43,60.3 Z M25.46,50.51 C28.0281241,50.51 30.11,52.5918759 30.11,55.16 C30.11,57.6567873 28.1421775,59.693965 25.6728505,59.8052151 L25.46,59.81 L4.64999995,59.81 C2.08187592,59.81 8.8580828e-08,57.728124 8.8580828e-08,55.16 C8.8580828e-08,52.6632127 1.96782254,50.626035 4.43714939,50.514785 L4.64999995,50.51 L25.46,50.51 Z M84.386825,43.9001458 L84.24,44 L69.13,52.6 L58,48.42 C56.8216236,48.0626869 55.5686533,48.6839631 55.1397779,49.8382202 C54.7303969,50.9400111 55.2068212,52.1642989 56.2301294,52.7071694 L56.38,52.78 L69.53,57.72 L86.53,48.06 L86.53,48 C87.3508898,47.6485301 87.8971994,46.8571196 87.9347964,45.9649438 C87.9723934,45.072768 87.4946039,44.2382011 86.7061944,43.818914 C85.9703455,43.4275794 85.0858278,43.4628361 84.386825,43.9001458 Z M11.62,40.72 L32.43,40.72 C34.9981241,40.72 37.08,42.8018759 37.08,45.37 C37.08,47.8667873 35.1121775,49.903965 32.6428505,50.015215 L32.43,50.02 L11.62,50.02 C9.95871493,50.02 8.42362424,49.1337151 7.59298171,47.695 C6.76233919,46.256285 6.76233919,44.483715 7.59298171,43.045 C8.38586776,41.6716811 9.82061671,40.8017127 11.3942976,40.7254621 L11.62,40.72 L32.43,40.72 L11.62,40.72 Z" id="Shape" fill="#000000"></path>
    </g>
</svg>