<svg width="100" height="100" viewBox="0 0 100 100" fill="none" xmlns="http://www.w3.org/2000/svg">
<g clip-path="url(#clip0)">
<path d="M97.7262 14.6001C96.3212 13.8611 94.62 13.9748 93.3258 14.8943L52.9458 43.3792V18.3534C52.9465 16.7697 52.0636 15.3178 50.6571 14.5898C49.2506 13.8618 47.5555 13.9792 46.2628 14.8943L1.80001 46.2736C0.676699 47.0674 0.00878906 48.3572 0.00878906 49.7327C0.00878906 51.1082 0.676699 52.398 1.80001 53.1918L46.2746 84.5711C46.99 85.0776 47.8453 85.349 48.7219 85.3476C49.4018 85.3428 50.071 85.1776 50.675 84.8652C52.0732 84.1361 52.9488 82.6888 52.9458 81.112V56.0744L93.3258 84.5711C94.0413 85.0776 94.8966 85.349 95.7731 85.3476C96.4531 85.3428 97.1223 85.1776 97.7262 84.8652C99.129 84.1393 100.009 82.6914 100.009 81.112V18.3534C100.009 16.774 99.129 15.3261 97.7262 14.6001ZM47.0629 77.9352L7.05931 49.6974L47.0629 21.4596V77.9352ZM94.1259 77.9352L54.1223 49.6974L94.1259 21.4596V77.9352Z" fill="black"/>
</g>
<defs>
<clipPath id="clip0">
<rect width="100" height="100" fill="white"/>
</clipPath>
</defs>
</svg>
