<?xml version="1.0" encoding="UTF-8"?>
<svg width="100px" height="100px" viewBox="0 0 100 100" version="1.1" xmlns="http://www.w3.org/2000/svg" xmlns:xlink="http://www.w3.org/1999/xlink">
    <!-- Generator: Sketch 57.1 (83088) - https://sketch.com -->
    <title>solid/fast-backward-solid</title>
    <desc>Created with Sketch.</desc>
    <g id="solid/fast-backward" stroke="none" stroke-width="1" fill="none" fill-rule="evenodd">
        <path d="M98,14.92 C96.7761685,14.2788335 95.2959516,14.3793182 94.17,15.18 L52.38,44.67 L52.38,18.19 C52.3750925,16.8133975 51.6043097,15.5539859 50.380693,14.9232556 C49.1570763,14.2925254 47.6841036,14.395362 46.56,15.19 L1.55999995,46.93 C0.596449784,47.6255678 0.0256407328,48.7416215 0.0256407328,49.93 C0.0256407328,51.1183785 0.596449784,52.2344322 1.55999995,52.93 L46.56,84.67 C47.6841036,85.464638 49.1570763,85.5674746 50.380693,84.9367444 C51.6043097,84.3060141 52.3750925,83.0466025 52.38,81.67 L52.38,55.21 L94.18,84.7 C95.3041037,85.494638 96.7770763,85.5974746 98.000693,84.9667444 C99.2243097,84.3360141 99.9950926,83.0766025 100.000009,81.7 L100.000009,18.19 C100.003052,16.8101358 99.2297809,15.5458381 98,14.92 Z" id="fast-backward" fill="#000000"></path>
    </g>
</svg>