<svg width="100" height="100" viewBox="0 0 100 100" fill="none" xmlns="http://www.w3.org/2000/svg">
<g clip-path="url(#clip0)">
<path d="M76.1364 62.1259C88.0321 50.2241 90.2174 31.7189 81.4212 17.3735C72.6249 3.02816 55.1411 -3.4164 39.1387 1.78819C23.1364 6.99278 12.7886 22.4893 14.114 39.2645C15.4394 56.0396 28.0923 69.7189 44.7134 72.3459V80.3462H38.9329C36.3789 80.3462 34.3084 82.4166 34.3084 84.9706C34.3084 87.5246 36.3789 89.595 38.9329 89.595H44.7134V95.3756C44.7134 97.9296 46.7838 100 49.3378 100C51.8918 100 53.9623 97.9296 53.9623 95.3756V89.595H59.7428C62.2968 89.595 64.3672 87.5246 64.3672 84.9706C64.3672 82.4166 62.2968 80.3462 59.7428 80.3462H53.9623V72.6118C62.3527 71.818 70.1992 68.1074 76.1364 62.1259Z" fill="black"/>
</g>
<defs>
<clipPath id="clip0">
<rect width="100" height="100" fill="white"/>
</clipPath>
</defs>
</svg>
