<svg width="100" height="100" viewBox="0 0 100 100" fill="none" xmlns="http://www.w3.org/2000/svg">
<g clip-path="url(#clip0)">
<path fill-rule="evenodd" clip-rule="evenodd" d="M45.8044 73.8139C37.4239 72.8989 29.5594 69.1464 23.555 63.1149C9.35359 48.5484 9.50127 25.2715 23.8864 10.8864C38.2715 -3.49873 61.5484 -3.64641 76.1149 10.555C86.7758 21.1773 89.9764 37.1812 84.2208 51.0866C78.7041 64.415 66.0033 73.2922 51.706 73.9888V83.4753H59.3654C60.9951 83.4753 62.3162 84.7964 62.3162 86.4261C62.3162 88.0558 60.9951 89.3769 59.3654 89.3769H51.706V97.0492C51.706 98.6789 50.3849 100 48.7552 100C47.1255 100 45.8044 98.6789 45.8044 97.0492V89.3769H38.1317C36.502 89.3769 35.1808 88.0558 35.1808 86.4261C35.1808 84.7964 36.502 83.4753 38.1317 83.4753H45.8044V73.8139ZM67.1974 62.8278C54.8013 71.1133 38.2788 69.4891 27.7334 58.9484C21.8717 53.0838 18.5774 45.1325 18.5741 36.8409C18.575 21.9307 29.1076 9.09736 43.7312 6.18839C58.3548 3.27942 72.997 11.105 78.704 24.8797C84.411 38.6544 79.5934 54.5422 67.1974 62.8278Z" fill="black"/>
</g>
<defs>
<clipPath id="clip0">
<rect width="100" height="100" fill="white"/>
</clipPath>
</defs>
</svg>
