<?xml version="1.0" encoding="UTF-8"?>
<svg width="100px" height="100px" viewBox="0 0 100 100" version="1.1" xmlns="http://www.w3.org/2000/svg" xmlns:xlink="http://www.w3.org/1999/xlink">
    <!-- Generator: Sketch 57.1 (83088) - https://sketch.com -->
    <title>solid/file-solid</title>
    <desc>Created with Sketch.</desc>
    <g id="solid/file" stroke="none" stroke-width="1" fill="none" fill-rule="evenodd">
        <path d="M59.47,-4.9999997e-08 L59.47,13.33 L31.3,13.33 C30.0426628,13.4114582 29.0645154,14.4550269 29.0645154,15.715 C29.0645154,16.9749731 30.0426628,18.0185417 31.3,18.1 L59.47,18.1 L59.47,21.43 L80.9,21.43 L80.9,94.76 C80.9,97.6500714 78.5600661,99.9944846 75.67,100 L24.24,100 C21.3483103,99.9944973 19.0055027,97.6516898 19,94.76 L19,5.23999996 C19.0055027,2.34831025 21.3483103,0.00550270463 24.24,-4.9999997e-08 L59.47,-4.9999997e-08 Z M68.6,81.9 L31.3,81.9 C30.0426628,81.9814583 29.0645154,83.0250269 29.0645154,84.285 C29.0645154,85.5449731 30.0426628,86.5885418 31.3,86.67 L68.6,86.67 C69.8573372,86.5885418 70.8354846,85.5449731 70.8354846,84.285 C70.8354846,83.0250269 69.8573372,81.9814583 68.6,81.9 Z M68.6,70.48 L31.3,70.48 C29.9855623,70.48 28.92,71.5455623 28.92,72.86 C28.92,74.1744377 29.9855623,75.24 31.3,75.24 L68.6,75.24 C69.9144377,75.24 70.98,74.1744377 70.98,72.86 C70.98,71.5455623 69.9144377,70.48 68.6,70.48 Z M68.6,59.05 L31.3,59.05 C29.9855623,59.05 28.92,60.1155623 28.92,61.43 C28.92,62.7444377 29.9855623,63.81 31.3,63.81 L68.6,63.81 C69.9144377,63.81 70.98,62.7444377 70.98,61.43 C70.98,60.1155623 69.9144377,59.05 68.6,59.05 Z M68.6,47.62 L31.3,47.62 C29.9855623,47.62 28.92,48.6855623 28.92,50 C28.92,51.3144377 29.9855623,52.38 31.3,52.38 L68.6,52.38 C69.9144377,52.38 70.9799999,51.3144377 70.9799999,50 C70.9799999,48.6855623 69.9144377,47.62 68.6,47.62 Z M68.6,36.24 L31.3,36.24 C30.4497079,36.24 29.6640055,36.6936254 29.2388594,37.43 C28.8137134,38.1663745 28.8137134,39.0736254 29.2388594,39.81 C29.6640055,40.5463746 30.4497079,41 31.3,41 L68.6,41 C69.9144377,41 70.9799999,39.9344377 70.9799999,38.62 C70.9799999,37.3055623 69.9144377,36.24 68.6,36.24 Z M68.6,24.81 L31.3,24.81 C29.9855623,24.81 28.92,25.8755623 28.92,27.19 C28.92,28.5044377 29.9855623,29.57 31.3,29.57 L68.6,29.57 C69.9144377,29.57 70.98,28.5044377 70.98,27.19 C70.98,25.8755623 69.9144377,24.81 68.6,24.81 Z M64.23,1.39999995 L79.51,16.67 L64.23,16.67 L64.23,1.39999995 Z" id="Shape" fill="#000000"></path>
    </g>
</svg>