<?xml version="1.0" encoding="UTF-8"?>
<svg width="100px" height="100px" viewBox="0 0 100 100" version="1.1" xmlns="http://www.w3.org/2000/svg" xmlns:xlink="http://www.w3.org/1999/xlink">
    <!-- Generator: Sketch 57.1 (83088) - https://sketch.com -->
    <title>regular/file-regular</title>
    <desc>Created with Sketch.</desc>
    <g id="regular/file" stroke="none" stroke-width="1" fill="none" fill-rule="evenodd">
        <path d="M62.1634158,0.039833594 L62.32,0.04999995 L62.4259878,0.0765425389 L62.53,0.10999995 L62.76,0.17999995 L63,0.29999995 C63.06,0.33999995 63.12,0.39999995 63.17,0.39999995 C63.2592184,0.457542588 63.3440959,0.521429895 63.423986,0.591137904 L63.54,0.699999951 L80.24,17.32 C80.316277,17.3957386 80.3878212,17.4760296 80.4542475,17.5604131 L80.55,17.69 L80.63,17.85 C80.6830815,17.9278907 80.7267207,18.0118122 80.76,18.1 C80.7879244,18.1751936 80.8113,18.251999 80.83,18.33 C80.9,18.4 80.9,18.47 80.9,18.55 C80.9098926,18.6497553 80.9131901,18.75 80.9098926,18.8500815 L80.9,19 L80.9,94.76 C80.9000052,97.5778196 78.6756006,99.8769229 75.8856955,99.995229 L75.67,100 L24.24,100 C21.4206025,99.9946349 19.1229862,97.7673693 19.0047672,94.9758197 L19,94.76 L19,5.23999996 C19.0319802,2.44149995 21.2494501,0.174244846 24.0201416,0.0549277802 L24.24,0.04999995 L61.85,0.04999995 L62.0065842,0.039833594 L62.1634158,0.039833594 Z M59.47,4.75999995 L24.24,4.75999995 C24.0063423,4.76472175 23.8130139,4.93261275 23.7692059,5.15448201 L23.76,5.23999996 L23.76,94.76 C23.7647218,94.9936578 23.9326128,95.1869861 24.154482,95.2307941 L24.24,95.24 L75.67,95.24 C75.902163,95.2351623 76.0929498,95.0660776 76.1324807,94.8450857 L76.14,94.76 L76.14,21.43 L59.47,21.43 L59.47,18.1 L31.3,18.1 C30.0426628,18.0185417 29.0645154,16.9749731 29.0645154,15.715 C29.0645154,14.5098083 29.9594556,13.5026124 31.1376402,13.3460199 L31.3,13.33 L59.47,13.33 L59.47,4.75999995 Z M68.6,81.9 C69.8573372,81.9814583 70.8354846,83.0250269 70.8354846,84.285 C70.8354846,85.5449731 69.8573372,86.5885418 68.6,86.67 L31.3,86.67 C30.0426628,86.5885418 29.0645154,85.5449731 29.0645154,84.285 C29.0645154,83.0250269 30.0426628,81.9814583 31.3,81.9 L68.6,81.9 Z M31.3,70.48 L68.6,70.48 C69.9144377,70.48 70.98,71.5455623 70.98,72.86 C70.98,74.1196695 70.0013846,75.1507711 68.7629494,75.2345093 L68.6,75.24 L31.3,75.24 C29.9855623,75.24 28.92,74.1744377 28.92,72.86 C28.92,71.6003306 29.8986154,70.569229 31.1370506,70.4854907 L31.3,70.48 L68.6,70.48 L31.3,70.48 Z M68.6,59.05 C69.9144377,59.05 70.98,60.1155623 70.98,61.43 C70.98,62.6896695 70.0013846,63.7207711 68.7629494,63.8045093 L68.6,63.81 L31.3,63.81 C29.9855623,63.81 28.92,62.7444377 28.92,61.43 C28.92,60.1703305 29.8986154,59.1392289 31.1370506,59.0554907 L31.3,59.05 L68.6,59.05 Z M68.6,47.62 C69.9144377,47.62 70.98,48.6855623 70.98,50 C70.98,51.2596695 70.0013846,52.2907711 68.7629494,52.3745093 L68.6,52.38 L31.3,52.38 C29.9855623,52.38 28.92,51.3144377 28.92,50 C28.92,48.7403305 29.8986154,47.7092289 31.1370506,47.6254907 L31.3,47.62 L68.6,47.62 Z M68.6,36.19 C69.9144377,36.19 70.9799999,37.2555623 70.9799999,38.57 C70.9799999,39.8296694 70.0013846,40.8607711 68.7629494,40.9445093 L68.6,40.95 L31.3,40.95 C30.4497079,40.95 29.6640055,40.4963746 29.2388594,39.76 C28.8137134,39.0236254 28.8137134,38.1163745 29.2388594,37.38 C29.6356624,36.692717 30.34655,36.25174 31.1308904,36.1959977 L31.3,36.19 L68.6,36.19 Z M68.6,24.76 C69.9144377,24.76 70.98,25.8255623 70.98,27.14 C70.98,28.3996694 70.0013846,29.430771 68.7629494,29.5145093 L68.6,29.52 L31.3,29.52 C29.9855623,29.52 28.92,28.4544377 28.92,27.14 C28.9252505,25.8825118 29.9011433,24.8544424 31.1373392,24.766131 L31.3,24.76 L68.6,24.76 Z M64.23,8.12999996 L64.23,16.67 L72.78,16.67 L64.23,8.12999996 Z" id="Shape" fill="#000000"></path>
    </g>
</svg>