<?xml version="1.0" encoding="UTF-8"?>
<svg width="100px" height="100px" viewBox="0 0 100 100" version="1.1" xmlns="http://www.w3.org/2000/svg" xmlns:xlink="http://www.w3.org/1999/xlink">
    <!-- Generator: Sketch 57.1 (83088) - https://sketch.com -->
    <title>bold/files-bold</title>
    <desc>Created with Sketch.</desc>
    <g id="bold/files" stroke="none" stroke-width="1" fill="none" fill-rule="evenodd">
        <path d="M83.5,17.84 C83.4753148,17.7101679 83.4384863,17.5829422 83.39,17.46 C83.3505698,17.3001543 83.3004573,17.1431349 83.24,16.99 C83.1767143,16.8417443 83.1032039,16.698065 83.02,16.56 C82.95,16.44 82.9,16.32 82.83,16.21 C82.6622222,15.9594188 82.4713924,15.7250664 82.26,15.51 L68.08,1.32999995 C67.8684522,1.11870704 67.637427,0.927860115 67.39,0.759999951 C67.2634602,0.692770482 67.1332566,0.632676493 67,0.579999951 C66.8727689,0.49317819 66.7390402,0.416284151 66.6,0.34999995 C66.4534617,0.29285831 66.3030919,0.246076601 66.15,0.20999995 C66.02,0.20999995 65.89,0.11999995 65.76,0.0899999501 C65.467,0.0309034552 65.1688994,-4.9999997e-08 64.87,-4.9999997e-08 L32.87,-4.9999997e-08 C29.0040067,-4.9999997e-08 25.87,3.1340067 25.87,6.99999995 L25.87,9.88999996 L23,9.88999996 C19.1340067,9.88999996 16,13.0240067 16,16.89 L16,93 C16,96.8659933 19.1340067,100 23,100 L66.73,100 C70.5959933,100 73.73,96.8659933 73.73,93 L73.73,90.11 L76.65,90.11 C78.5065155,90.11 80.2869928,89.3725022 81.5997475,88.0597475 C82.9125022,86.7469929 83.65,84.9665155 83.65,83.11 L83.65,18.73 C83.6305695,18.4289841 83.5803063,18.1307559 83.5,17.84 Z M35,9.08999996 L60.32,9.08999996 L60.32,11.34 L38.88,11.34 C37.2821171,11.350091 35.807744,12.2012755 35,13.58 L35,9.08999996 Z M35,18.2 C35.8124066,19.5824971 37.2964721,20.4310781 38.9,20.43 L60.32,20.43 L60.32,21.06 L38.88,21.06 C37.2821171,21.070091 35.807744,21.9212755 35,23.3 L35,18.2 Z M64.61,90.91 L25.09,90.91 L25.09,19 L25.89,19 L25.89,83.13 C25.89,86.9959933 29.0240067,90.13 32.89,90.13 L64.61,90.13 L64.61,90.91 Z M74.5,81 L35,81 L35,76.53 C35.8113716,77.9148496 37.2949695,78.7669673 38.9,78.77 L70.61,78.77 C72.2114579,78.7634326 73.6904397,77.9117824 74.5,76.53 L74.5,81 Z M74.5,71.89 C73.6894025,70.5105781 72.2099585,69.6624649 70.61,69.66 L38.88,69.66 C37.2795266,69.6701615 35.8037615,70.5259532 35,71.91 L35,66.81 C35.8187347,68.1709932 37.2917232,69.0023965 38.88,69 L70.61,69 C72.2099585,68.9975351 73.6894025,68.149422 74.5,66.77 L74.5,71.89 Z M74.5,62.17 C73.6730729,60.815092 72.1972989,59.9918453 70.61,60 L38.88,60 C37.2922438,59.999589 35.8201654,60.8304786 35,62.19 L35,57.09 C35.8124066,58.4724971 37.2964721,59.3210781 38.9,59.32 L70.61,59.32 C72.2099585,59.3175351 73.6894025,58.4694219 74.5,57.09 L74.5,62.17 Z M74.5,52.45 C73.6904397,51.0682177 72.2114579,50.2165675 70.61,50.21 L38.88,50.21 C37.2780294,50.2242549 35.8027218,51.0835836 35,52.47 L35,47.36 C35.808401,48.7478421 37.2938814,49.6010412 38.9,49.6 L70.61,49.6 C72.2125473,49.5974846 73.6933974,48.7447586 74.5,47.36 L74.5,52.45 Z M74.5,42.73 C73.6933974,41.3452414 72.2125473,40.4925154 70.61,40.49 L38.88,40.49 C37.2769194,40.5002051 35.7997468,41.36062 35,42.75 L35,37.64 C35.8113716,39.0248495 37.2949695,39.8769673 38.9,39.88 L70.61,39.88 C72.2114579,39.8734325 73.6904397,39.0217823 74.5,37.64 L74.5,42.73 Z M74.5,33 C73.6894025,31.620578 72.2099585,30.7724649 70.61,30.77 L38.88,30.77 C37.2836132,30.7759967 35.8087833,31.6236438 35,33 L35,27.9 C35.8113716,29.2848495 37.2949695,30.1369673 38.9,30.14 L70.61,30.14 C72.2114579,30.1334325 73.6904397,29.2817823 74.5,27.9 L74.5,33 Z" id="files" fill="#000000"></path>
    </g>
</svg>