<?xml version="1.0" encoding="UTF-8"?>
<svg width="100px" height="100px" viewBox="0 0 100 100" version="1.1" xmlns="http://www.w3.org/2000/svg" xmlns:xlink="http://www.w3.org/1999/xlink">
    <!-- Generator: Sketch 57.1 (83088) - https://sketch.com -->
    <title>bold/file-bold</title>
    <desc>Created with Sketch.</desc>
    <g id="bold/file" stroke="none" stroke-width="1" fill="none" fill-rule="evenodd">
        <path d="M61.18,-5.00000112e-08 C61.4789263,-5.00000112e-08 61.7770789,0.0303826136 62.07,0.0899999501 C62.2,0.11999995 62.33,0.20999995 62.46,0.20999995 C62.616002,0.247400098 62.7696128,0.294151209 62.92,0.34999995 C63.0706662,0.418759266 63.2175431,0.495535813 63.36,0.579999951 C63.47,0.639999951 63.59,0.689999951 63.7,0.759999951 C63.8649514,0.871906727 64.022613,0.99402984 64.1720737,1.12561647 L64.39,1.32999995 L80.3,17.24 C80.514312,17.452436 80.7053896,17.6870927 80.87,17.94 C80.9430407,18.0511294 81.0065983,18.1682093 81.06,18.29 C81.1464322,18.427892 81.2232802,18.5715642 81.29,18.72 C81.3471793,18.8733413 81.3939521,19.0303642 81.43,19.19 C81.47,19.31 81.55,19.44 81.55,19.57 C81.5900591,19.7652328 81.6167068,19.962844 81.6300208,20.16147 L81.6400015,20.46 L81.6400015,92.73 C81.6292104,96.6641545 78.5033387,99.8642 74.5999355,99.9957968 L74.36,99.9999999 L25.27,99.9999999 C21.3374302,99.9946019 18.1358794,96.8715945 18.004206,92.9698363 L18,92.73 L18,7.26999996 C18.0053981,3.3374302 21.1284055,0.135879378 25.0301637,0.00420595937 L25.27,-5.00000112e-08 L61.18,-5.00000112e-08 Z M56.63,9.08999996 L27.09,9.08999996 L27.09,90.91 L72.55,90.91 L72.55,25 L70.86,25 C71.6922368,25.8486004 72.1558361,26.9914266 72.15,28.18 C72.15,30.6210986 70.2276387,32.6132056 67.8141895,32.7250476 L67.6,32.73 L32,32.73 C30.3253666,32.8085728 28.7431948,31.9598953 27.8823699,30.5213018 C27.0215451,29.0827083 27.0215451,27.2872916 27.8823699,25.8486982 C28.7040664,24.4754953 30.1830232,23.6397985 31.7722731,23.6350012 L32,23.64 L56.63,23.64 L56.63,21.82 L32,21.82 C30.3253666,21.8985728 28.7431948,21.0498952 27.8823699,19.6113018 C27.0215451,18.1727083 27.0215451,16.3772916 27.8823699,14.9386981 C28.7040664,13.5654953 30.1830232,12.7297985 31.7722731,12.7250012 L32,12.73 L56.63,12.73 L56.63,9.08999996 Z M67.6,78.18 C69.2746334,78.1014272 70.8568052,78.9501048 71.7176301,80.3886982 C72.5784549,81.8272917 72.5784549,83.6227084 71.7176301,85.0613019 C70.8568052,86.4998953 69.2746334,87.3485728 67.6,87.27 L32,87.27 C30.3253666,87.3485728 28.7431948,86.4998953 27.8823699,85.0613019 C27.0215451,83.6227084 27.0215451,81.8272917 27.8823699,80.3886982 C28.7431948,78.9501048 30.3253666,78.1014272 32,78.18 L67.6,78.18 Z M71.7176301,69.4786982 C72.5784549,70.9172917 72.5784549,72.7127084 71.7176301,74.1513018 C70.8959336,75.5245047 69.4169768,76.3602015 67.8277269,76.3650195 L67.6,76.36 L32,76.36 C30.3253666,76.4385728 28.7431948,75.5898953 27.8823699,74.1513018 C27.0215451,72.7127084 27.0215451,70.9172917 27.8823699,69.4786982 C28.7040664,68.1054954 30.1830232,67.2697986 31.7722731,67.2649805 L32,67.27 L67.6,67.27 C69.2746334,67.1914272 70.8568052,68.0401047 71.7176301,69.4786982 Z M71.7176301,58.5686982 C72.5784549,60.0072916 72.5784549,61.8027084 71.7176301,63.2413018 C70.8959336,64.6145047 69.4169768,65.4502015 67.8277269,65.4550195 L67.6,65.45 L32,65.45 C30.3253666,65.5285728 28.7431948,64.6798953 27.8823699,63.2413018 C27.0215451,61.8027084 27.0215451,60.0072916 27.8823699,58.5686982 C28.7040664,57.1954953 30.1830232,56.3597985 31.7722731,56.3549805 L32,56.36 L67.6,56.36 C69.2746334,56.2814272 70.8568052,57.1301047 71.7176301,58.5686982 Z M67.6,45.45 C70.1128956,45.45 72.15,47.4871044 72.15,50 C72.15,52.4410986 70.2276387,54.4332056 67.8141895,54.5450476 L67.6,54.55 L32,54.55 C29.4871044,54.55 27.45,52.5128956 27.45,50 C27.45,47.5589014 29.3723613,45.5667944 31.7858105,45.4549524 L32,45.45 L67.6,45.45 Z M71.7176301,36.7586982 C72.5784549,38.1972916 72.5784549,39.9927084 71.7176301,41.4313018 C70.8959336,42.8045047 69.4169768,43.6402015 67.8277269,43.6450195 L67.6,43.64 L32,43.64 C30.3253666,43.7185728 28.7431948,42.8698953 27.8823699,41.4313018 C27.0215451,39.9927084 27.0215451,38.1972916 27.8823699,36.7586982 C28.7040664,35.3854953 30.1830232,34.5497985 31.7722731,34.5449805 L32,34.55 L67.6,34.55 C69.2746334,34.4714272 70.8568052,35.3201047 71.7176301,36.7586982 Z M65.72,15.52 L65.72,15.91 L66.12,15.91 L65.72,15.52 Z" id="Shape" fill="#000000"></path>
    </g>
</svg>