<svg width="100" height="100" viewBox="0 0 100 100" fill="none" xmlns="http://www.w3.org/2000/svg">
<path fill-rule="evenodd" clip-rule="evenodd" d="M62.6004 0V20.4941H83.0945V83.8824C83.0881 86.888 80.6531 89.3229 77.6475 89.3294H32.5887C29.583 89.3229 27.1481 86.888 27.1416 83.8824V5.44706C27.1481 2.44142 29.583 0.00647073 32.5887 0H62.6004ZM38.824 62.6235H71.4592C73.0836 62.6235 74.4004 61.3067 74.4004 59.6824C74.4004 58.058 73.0836 56.7412 71.4592 56.7412H38.824C37.1996 56.7412 35.8828 58.058 35.8828 59.6824C35.8828 61.3067 37.1996 62.6235 38.824 62.6235ZM38.824 52.6118H71.4592C72.51 52.6118 73.481 52.0512 74.0064 51.1412C74.5318 50.2312 74.5318 49.11 74.0064 48.2C73.481 47.29 72.51 46.7294 71.4592 46.7294H38.824C37.1996 46.7294 35.8828 48.0462 35.8828 49.6706C35.8828 51.295 37.1996 52.6118 38.824 52.6118ZM38.824 42.6H71.4592C73.0836 42.6 74.4004 41.2832 74.4004 39.6588C74.4004 38.0345 73.0836 36.7176 71.4592 36.7176H38.824C37.1996 36.7176 35.8828 38.0345 35.8828 39.6588C35.8828 41.2832 37.1996 42.6 38.824 42.6ZM38.824 32.5882H71.4592C73.0836 32.5882 74.4004 31.2714 74.4004 29.6471C74.4004 28.0227 73.0836 26.7059 71.4592 26.7059H38.824C37.1996 26.7059 35.8828 28.0227 35.8828 29.6471C35.8828 31.2714 37.1996 32.5882 38.824 32.5882Z" fill="black"/>
<path d="M68.4941 1.72949V14.6001H81.3647L68.4941 1.72949Z" fill="black"/>
<path d="M32.5883 93.4469C27.3086 93.4404 23.0301 89.1619 23.0236 83.8822V10.6704H21.9178C18.9121 10.6769 16.4772 13.1118 16.4707 16.1175V94.5528C16.4772 97.5584 18.9121 99.9934 21.9178 99.9998H66.9766C69.9822 99.9934 72.4172 97.5584 72.4236 94.5528V93.4469H32.5883Z" fill="black"/>
</svg>
