<svg width="100" height="100" viewBox="0 0 100 100" fill="none" xmlns="http://www.w3.org/2000/svg">
<path d="M38.824 32.5884H71.4593C73.0837 32.5884 74.4005 31.2716 74.4005 29.6472C74.4005 28.0229 73.0837 26.7061 71.4593 26.7061H38.824C37.1996 26.7061 35.8828 28.0229 35.8828 29.6472C35.8828 31.2716 37.1996 32.5884 38.824 32.5884Z" fill="black"/>
<path d="M71.4593 42.6001H38.824C37.1996 42.6001 35.8828 41.2833 35.8828 39.659C35.8828 38.0346 37.1996 36.7178 38.824 36.7178H71.4593C73.0837 36.7178 74.4005 38.0346 74.4005 39.659C74.4005 41.2833 73.0837 42.6001 71.4593 42.6001Z" fill="black"/>
<path d="M38.824 52.6118H71.4593C72.5101 52.6118 73.481 52.0513 74.0064 51.1413C74.5318 50.2313 74.5318 49.1101 74.0064 48.2001C73.481 47.2901 72.5101 46.7295 71.4593 46.7295H38.824C37.1996 46.7295 35.8828 48.0463 35.8828 49.6707C35.8828 51.295 37.1996 52.6118 38.824 52.6118Z" fill="black"/>
<path d="M38.824 62.6236H71.4593C73.0837 62.6236 74.4005 61.3068 74.4005 59.6824C74.4005 58.058 73.0837 56.7412 71.4593 56.7412H38.824C37.1996 56.7412 35.8828 58.058 35.8828 59.6824C35.8828 61.3068 37.1996 62.6236 38.824 62.6236Z" fill="black"/>
<path fill-rule="evenodd" clip-rule="evenodd" d="M72.4236 89.3294H77.6475C80.6531 89.3229 83.0881 86.888 83.0945 83.8824V17.5647C83.0945 17.4933 83.092 17.4224 83.087 17.3523C83.0506 16.8117 82.8681 16.3112 82.5787 15.8898C82.4786 15.7415 82.3642 15.601 82.2357 15.4705L67.624 0.8587L67.5967 0.837943C67.0665 0.319526 66.3409 0 65.5408 0H32.5887C29.583 0.00647073 27.1481 2.44142 27.1416 5.44706V10.6704L21.9178 10.6704C18.9121 10.6769 16.4772 13.1118 16.4707 16.1175V94.5528C16.4772 97.5584 18.9121 99.9934 21.9178 99.9998H66.9766C69.9822 99.9934 72.4172 97.5584 72.4236 94.5528V89.3294ZM66.5413 89.3294H32.5887C29.583 89.3229 27.1481 86.888 27.1416 83.8824V16.5528H22.3531V94.1175H66.5413V89.3294ZM68.482 9.99554L73.0796 14.6118H68.482V9.99554ZM62.5996 5.88235H33.024V83.4471H77.2122V20.4941H62.5996V5.88235Z" fill="black"/>
</svg>
