<?xml version="1.0" encoding="UTF-8"?>
<svg width="100px" height="100px" viewBox="0 0 100 100" version="1.1" xmlns="http://www.w3.org/2000/svg" xmlns:xlink="http://www.w3.org/1999/xlink">
    <!-- Generator: Sketch 57.1 (83088) - https://sketch.com -->
    <title>solid/files-solid</title>
    <desc>Created with Sketch.</desc>
    <g id="solid/files" stroke="none" stroke-width="1" fill="none" fill-rule="evenodd">
        <path d="M23.35,17.37 L23.35,77.91 C23.3554419,85.6674192 29.5589564,91.9742934 37.2763163,92.1463954 L37.59,92.15 L66.98,92.15 L66.98,95.28 C66.98,97.8105815 64.9883144,99.8767952 62.4857244,99.9946999 L62.27,100 L20.22,100 C17.687845,99.9946523 15.6231041,98.0001005 15.5052954,95.4958627 L15.5,95.28 L15.5,22.09 C15.5,19.5556266 17.4974456,17.4877817 20.0039452,17.374857 L20.22,17.37 L23.35,17.37 Z M65.96,-4.9999997e-08 L65.96,10.9 L43.36,10.9 C42.5097079,10.8999999 41.7240055,11.3536254 41.2988595,12.0899999 C40.8737134,12.8263745 40.8737134,13.7336254 41.2988595,14.47 C41.7240055,15.2063746 42.5097079,15.66 43.36,15.66 L65.96,15.66 L65.96,18.39 L84.35,18.39 L84.35,77.91 C84.35,80.5128838 82.242878,82.6244854 79.64,82.63 L37.59,82.63 C34.9854978,82.6244995 32.8755005,80.5145022 32.87,77.91 L32.87,4.71999995 C32.8755005,2.11549774 34.9854978,0.00550050105 37.59,-4.9999997e-08 L65.96,-4.9999997e-08 Z M73.86,66.97 L43.36,66.97 C42.0455623,66.97 40.98,68.0355623 40.98,69.35 C40.98,70.6644377 42.0455623,71.73 43.36,71.73 L73.86,71.73 C75.1744377,71.73 76.24,70.6644377 76.24,69.35 C76.24,68.0355623 75.1744377,66.97 73.86,66.97 Z M73.86,57.62 L43.36,57.62 C42.0455623,57.62 40.98,58.6855623 40.98,60 C40.98,61.3144377 42.0455623,62.38 43.36,62.38 L73.86,62.38 C75.1744377,62.38 76.24,61.3144377 76.24,60 C76.24,58.6855623 75.1744377,57.62 73.86,57.62 Z M73.86,48.28 L43.36,48.28 C42.0455623,48.28 40.98,49.3455623 40.98,50.66 C40.98,51.9744377 42.0455623,53.04 43.36,53.04 L73.86,53.04 C74.7102922,53.04 75.4959945,52.5863746 75.9211406,51.85 C76.3462867,51.1136255 76.3462867,50.2063745 75.9211406,49.47 C75.4959945,48.7336254 74.7102922,48.28 73.86,48.28 Z M73.86,38.93 L43.36,38.93 C42.1026628,39.0114582 41.1245154,40.0550269 41.1245154,41.315 C41.1245154,42.5749731 42.1026628,43.6185417 43.36,43.7 L73.86,43.7 C75.1173372,43.6185417 76.0954847,42.5749731 76.0954847,41.315 C76.0954847,40.0550269 75.1173372,39.0114582 73.86,38.93 Z M73.86,29.59 L43.36,29.59 C42.5097079,29.59 41.7240055,30.0436254 41.2988594,30.78 C40.8737134,31.5163745 40.8737134,32.4236254 41.2988594,33.16 C41.7240055,33.8963746 42.5097079,34.35 43.36,34.35 L73.86,34.35 C75.1744377,34.35 76.24,33.2844377 76.24,31.97 C76.24,30.6555623 75.1744377,29.59 73.86,29.59 Z M73.86,20.25 L43.36,20.25 C42.0455623,20.25 40.98,21.3155623 40.98,22.63 C40.98,23.9444377 42.0455623,25.01 43.36,25.01 L73.86,25.01 C75.1744377,25.01 76.24,23.9444377 76.24,22.63 C76.24,21.3155623 75.1744377,20.25 73.86,20.25 Z M70.72,1.39999995 L82.96,13.63 L70.72,13.63 L70.72,1.39999995 Z" id="Shape" fill="#000000"></path>
    </g>
</svg>