<?xml version="1.0" encoding="UTF-8"?>
<svg width="100px" height="100px" viewBox="0 0 100 100" version="1.1" xmlns="http://www.w3.org/2000/svg" xmlns:xlink="http://www.w3.org/1999/xlink">
    <!-- Generator: Sketch 57.1 (83088) - https://sketch.com -->
    <title>bold/filter-bold</title>
    <desc>Created with Sketch.</desc>
    <g id="bold/filter" stroke="none" stroke-width="1" fill="none" fill-rule="evenodd">
        <path d="M58.17,100 C56.592233,100 55.0538897,99.5070475 53.77,98.59 L37.17,86.81 C35.1740326,85.3720562 33.993797,83.0599858 34,80.6 L34,51.86 L9.22999996,27.13 C7.79555789,25.7039899 6.99236469,23.7626395 6.99994601,21.74 L6.99994601,7.60999996 C6.99994601,3.40711301 10.407113,-4.9999997e-08 14.61,-4.9999997e-08 L84.94,-4.9999997e-08 C89.142887,-4.9999997e-08 92.5500707,3.40711301 92.5500707,7.60999996 L92.5500707,21.74 C92.5587218,23.7579509 91.7592488,25.6954124 90.33,27.12 L65.79,51.66 L65.79,92.38 C65.79,94.4009497 64.9871809,96.3391265 63.5581537,97.7681537 C62.1291265,99.1971809 60.1909497,100 58.17,100 Z M43.06,79.83 L56.7,89.52 L56.7,47.9 L83.46,21.13 L83.46,9.12999996 L16.09,9.12999996 L16.09,21.13 L43.09,48.13 L43.06,79.83 Z" id="filter" fill="#000000"></path>
    </g>
</svg>