<svg width="100" height="100" viewBox="0 0 100 100" fill="none" xmlns="http://www.w3.org/2000/svg">
<path d="M58.2704 100C57.0009 99.9807 55.7683 99.5698 54.741 98.8235L37.5528 86.6706C35.9397 85.5207 34.9803 83.6633 34.9763 81.6824V51.2L8.84691 25.0706C7.69675 23.9241 7.05286 22.3652 7.05863 20.7412V6.11765C7.05863 2.73896 9.79764 0 13.1763 0H85.9881C89.3668 0 92.1058 2.73896 92.1058 6.11765V20.7412C92.1124 22.3677 91.4636 23.9283 90.3057 25.0706L64.4234 50.9529V93.8824C64.4234 97.261 61.6844 100 58.3057 100H58.2704ZM13.1763 5.88235C13.0464 5.88235 12.9407 5.9877 12.9407 6.11765V20.7412C12.9373 20.8041 12.9634 20.8652 13.0116 20.9059L40.8587 48.7647V81.7059C40.8604 81.7795 40.8949 81.8485 40.9528 81.8941L58.141 94.1176C58.2135 94.1746 58.3156 94.1746 58.3881 94.1176C58.4686 94.086 58.5172 94.0034 58.5057 93.9176V48.5529L86.1528 20.9059C86.201 20.8652 86.2271 20.8041 86.2237 20.7412V6.11765C86.2237 5.9877 86.118 5.88235 85.9881 5.88235H13.1763Z" fill="black"/>
</svg>
