<svg width="100" height="100" viewBox="0 0 100 100" fill="none" xmlns="http://www.w3.org/2000/svg">
<path d="M73.8531 4.19926C67.0734 6.79301 59.5748 6.79301 52.7951 4.19926C44.5624 1.04741 35.5925 0.35026 26.9717 2.19226C24.9875 1.12914 22.6545 0.924773 20.5156 1.6267C18.3768 2.32864 16.6186 3.87566 15.6502 5.90778L14.7959 6.17538V91.7662C14.7959 96.3136 18.4823 100 23.0297 100C27.5772 100 31.2636 96.3136 31.2636 91.7662V52.429C36.5429 51.4804 41.9811 51.9929 46.9902 53.9111C57.5113 57.9349 69.1472 57.9349 79.6683 53.9111L84.9997 51.8526V0L73.8531 4.19926Z" fill="black"/>
</svg>
