<svg width="100" height="100" viewBox="0 0 100 100" fill="none" xmlns="http://www.w3.org/2000/svg">
<g clip-path="url(#clip0)">
<path fill-rule="evenodd" clip-rule="evenodd" d="M48.6119 47.7528C53.8481 49.7389 59.4 50.7632 65.0002 50.7763C70.6028 50.7708 76.1585 49.7545 81.4003 47.7763L83.3062 47.0586V1.52905L79.3179 3.03494C70.0998 6.5686 59.9006 6.5686 50.6825 3.03494C41.3626 -0.539542 31.1656 -0.956567 21.641 1.78386C21.189 0.740935 20.1503 0.0113626 18.9412 0.0113626C17.3168 0.0113626 16 1.32818 16 2.95255V97.0706C16.0065 98.6904 17.3214 100 18.9412 100C20.561 100 21.8759 98.6904 21.8824 97.0706V47.0753C30.5852 44.2279 40.0261 44.4537 48.6119 47.7528ZM21.8824 40.941V7.87025C30.604 5.01737 40.0414 5.24998 48.6119 8.52908C57.8223 12.0647 67.9291 12.5269 77.4238 9.84673V42.9057C68.6978 45.7566 59.2575 45.524 50.6825 42.2469C45.4488 40.2505 39.8957 39.222 34.2942 39.2116C30.0971 39.215 25.9205 39.7969 21.8824 40.941Z" fill="black"/>
</g>
<defs>
<clipPath id="clip0">
<rect width="100" height="100" fill="white"/>
</clipPath>
</defs>
</svg>
