<svg width="100" height="100" viewBox="0 0 100 100" fill="none" xmlns="http://www.w3.org/2000/svg">
<path d="M74.0572 4.19926C67.2775 6.79301 59.7789 6.79301 52.9992 4.19926C44.7665 1.04741 35.7966 0.35026 27.1758 2.19226C25.1916 1.12914 22.8586 0.924773 20.7197 1.6267C18.5809 2.32864 16.8227 3.87566 15.8543 5.90778L15 6.17538V91.7662C15 96.3136 18.6864 100 23.2338 100C27.7813 100 31.4677 96.3136 31.4677 91.7662V52.429C36.747 51.4804 42.1852 51.9929 47.1943 53.9111C57.7154 57.9349 69.3513 57.9349 79.8724 53.9111L85.2038 51.8526V0L74.0572 4.19926ZM68.7361 39.9753C63.4543 40.9275 58.0128 40.4186 52.9992 38.5035C46.1466 35.8729 38.7598 34.9372 31.4677 35.776V18.1247C36.747 17.1762 42.1852 17.6887 47.1943 19.6068C54.054 22.2233 61.4415 23.1552 68.7361 22.324V39.9753Z" fill="black"/>
</svg>
