<svg width="100" height="100" viewBox="0 0 100 100" fill="none" xmlns="http://www.w3.org/2000/svg">
<g clip-path="url(#clip0)">
<path d="M48.6119 47.7528C53.8481 49.7389 59.4 50.7632 65.0002 50.7763C70.6028 50.7708 76.1585 49.7545 81.4003 47.7763L83.3062 47.0586V1.52905L79.3179 3.03494C70.0998 6.5686 59.9006 6.5686 50.6825 3.03494C41.3626 -0.539542 31.1656 -0.956567 21.641 1.78386C21.189 0.740935 20.1503 0.0113626 18.9412 0.0113626C17.3168 0.0113626 16 1.32818 16 2.95255V97.0706C16.0065 98.6904 17.3214 100 18.9412 100C20.561 100 21.8759 98.6904 21.8824 97.0706V47.0753C30.5852 44.2279 40.0261 44.4537 48.6119 47.7528Z" fill="black"/>
</g>
<defs>
<clipPath id="clip0">
<rect width="100" height="100" fill="white"/>
</clipPath>
</defs>
</svg>
