<svg width="100" height="100" viewBox="0 0 100 100" fill="none" xmlns="http://www.w3.org/2000/svg">
<path d="M38.2358 70.9645C37.0501 70.9553 35.9849 70.2378 35.5308 69.1424C35.0768 68.0471 35.322 66.7864 36.1534 65.941L45.8413 56.2531L36.1527 46.5645C35.3892 45.825 35.0842 44.731 35.3548 43.7032C35.6254 42.6753 36.4296 41.8734 37.4583 41.6056C38.4869 41.3379 39.58 41.646 40.3174 42.4116L50.0001 52.0943L59.6828 42.4116C60.4202 41.646 61.5133 41.3379 62.5419 41.6056C63.5706 41.8734 64.3748 42.6753 64.6454 43.7032C64.916 44.731 64.611 45.825 63.8475 46.5645L54.1589 56.2531L63.8468 65.941C64.6783 66.7864 64.9234 68.0471 64.4694 69.1424C64.0154 70.2378 62.9501 70.9553 61.7644 70.9645C60.9822 70.9628 60.2328 70.6495 59.6821 70.0939L50.0001 60.412L40.3181 70.0939C39.7674 70.6495 39.018 70.9628 38.2358 70.9645Z" fill="black"/>
<path fill-rule="evenodd" clip-rule="evenodd" d="M94.7059 86.9885H5.29412C2.37294 86.982 0.00646996 84.6155 0 81.6944V18.2355C0.00646996 15.3143 2.37294 12.9479 5.29412 12.9414H26.4706C27.9639 12.9414 29.3872 13.5745 30.3882 14.6826L40.2353 25.5179H94.7059C97.6271 25.5243 99.9935 27.8908 100 30.812V81.6944C99.9935 84.6155 97.6271 86.982 94.7059 86.9885ZM5.88235 81.1061H94.1176V31.4002H40C38.5047 31.4045 37.0774 30.7763 36.0706 29.6708L26.2471 18.8238H5.88235V81.1061Z" fill="black"/>
</svg>
