<svg width="100" height="100" viewBox="0 0 100 100" fill="none" xmlns="http://www.w3.org/2000/svg">
<g clip-path="url(#clip0)">
<path fill-rule="evenodd" clip-rule="evenodd" d="M4.90658 81.7939H5.9655C5.97808 81.7939 5.99064 81.7938 6.00319 81.7937H80.2423C82.1786 81.791 83.9314 80.6472 84.7133 78.8758L99.5853 45.3316C100.251 43.8142 100.108 42.0634 99.2051 40.6741C98.3018 39.2848 96.7596 38.4438 95.1025 38.4368H84.4667V34.4132C84.4667 31.7035 82.2701 29.5068 79.5604 29.5068H34.321L26.2497 20.6119C25.3197 19.5855 23.9991 19 22.6141 19H4.90658C3.5992 19 2.34588 19.5217 1.42474 20.4495C0.503605 21.3773 -0.00915468 22.6343 0.000123763 23.9416V76.8876C0.000123763 79.5973 2.19689 81.7939 4.90658 81.7939ZM78.5838 38.4368V35.3897H33.8739C32.4895 35.3867 31.1701 34.8018 30.2383 33.7778L22.1787 24.8829H5.88314V64.9382L16.3307 41.3547C17.1215 39.5856 18.8755 38.4438 20.8134 38.4368H78.5838ZM79.607 75.9108H7.45926L21.4605 44.3197H93.5965L79.607 75.9108Z" fill="black"/>
</g>
<defs>
<clipPath id="clip0">
<rect width="100" height="100" fill="white"/>
</clipPath>
</defs>
</svg>
