<svg width="100" height="100" viewBox="0 0 100 100" fill="none" xmlns="http://www.w3.org/2000/svg">
<path d="M94.7059 25.5176H40.2706L30.4235 14.6823C29.4225 13.5743 27.9992 12.9412 26.5059 12.9412H5.29412C2.37294 12.9476 0.00646996 15.3141 0 18.2353V81.6941C0.00646996 84.6153 2.37294 86.9818 5.29412 86.9882H94.7059C97.6271 86.9818 99.9935 84.6153 100 81.6941V30.8118C99.9935 27.8906 97.6271 25.5241 94.7059 25.5176ZM63.8471 65.9412C64.6105 66.6807 64.9156 67.7747 64.6449 68.8025C64.3743 69.8304 63.5701 70.6323 62.5415 70.9001C61.5128 71.1678 60.4197 70.8597 59.6824 70.0941L50 60.4118L40.3176 70.0941C39.5803 70.8597 38.4872 71.1678 37.4585 70.9001C36.4299 70.6323 35.6257 69.8304 35.3551 68.8025C35.0844 67.7747 35.3895 66.6807 36.1529 65.9412L45.8824 56.2588L36.2 46.5647C35.4365 45.8251 35.1315 44.7312 35.4021 43.7033C35.6728 42.6754 36.4769 41.8735 37.5056 41.6058C38.5342 41.3381 39.6273 41.6462 40.3647 42.4118L50.0471 52.0941L59.7294 42.4118C60.4668 41.6462 61.5599 41.3381 62.5885 41.6058C63.6172 41.8735 64.4214 42.6754 64.692 43.7033C64.9626 44.7312 64.6576 45.8251 63.8941 46.5647L54.1176 56.2588L63.8471 65.9412Z" fill="black"/>
</svg>
