<?xml version="1.0" encoding="UTF-8"?>
<svg width="100px" height="100px" viewBox="0 0 100 100" version="1.1" xmlns="http://www.w3.org/2000/svg" xmlns:xlink="http://www.w3.org/1999/xlink">
    <!-- Generator: Sketch 57.1 (83088) - https://sketch.com -->
    <title>solid/folder-cross-solid</title>
    <desc>Created with Sketch.</desc>
    <g id="solid/folder-cross" stroke="none" stroke-width="1" fill="none" fill-rule="evenodd">
        <path d="M95.24,25.73 L39.89,25.73 L29.75,14.56 C28.8487122,13.5674949 27.5706657,13.001088 26.23,13 L4.75999995,13 C2.1334064,13.0055007 0.00550068757,15.1334064 -4.9999997e-08,17.76 L-4.9999997e-08,82 C0.00550068757,84.6265936 2.1334064,86.7544993 4.75999995,86.76 L95.24,86.76 C97.8665936,86.7544993 99.9944993,84.6265936 100,82 L100,30.49 C99.9944993,27.8634064 97.8665936,25.7355007 95.24,25.73 Z M61,63.83 C61.6225967,64.4274006 61.8730947,65.3149838 61.6546871,66.1497366 C61.4362796,66.9844895 60.783179,67.635652 59.9477808,67.8515779 C59.1123826,68.0675038 58.2255478,67.8143693 57.63,67.19 L50,59.6 L42.41,67.19 C41.8097938,67.7991378 40.9302092,68.0417982 40.1025773,67.8265733 C39.2749454,67.6113484 38.6250031,66.9709361 38.3975773,66.1465733 C38.1701516,65.3222106 38.3997938,64.4391378 39,63.83 L46.59,56.23 L39,48.64 C38.3980075,48.0380075 38.1629026,47.1605843 38.3832472,46.3382472 C38.6035917,45.5159101 39.2459101,44.8735917 40.0682472,44.6532472 C40.8905843,44.4329026 41.7680075,44.6680075 42.37,45.27 L50,52.87 L57.59,45.27 C58.1919925,44.6608622 59.0732277,44.4191548 59.9017528,44.6359267 C60.7302779,44.8526986 61.3802202,45.495017 61.6067528,46.3209267 C61.8332854,47.1468364 61.6019925,48.0308622 61,48.64 L53.41,56.23 L61,63.83 Z" id="folder-cross" fill="#000000"></path>
    </g>
</svg>