<svg width="100" height="100" viewBox="0 0 100 100" fill="none" xmlns="http://www.w3.org/2000/svg">
<path d="M94.7059 25.5176H40.2706L30.4235 14.6706C29.4177 13.5705 27.9964 12.9431 26.5059 12.9412H5.29412C2.37294 12.9476 0.00646996 15.3141 0 18.2353V81.6941C0.00646996 84.6153 2.37294 86.9818 5.29412 86.9882H94.7059C97.6271 86.9818 99.9935 84.6153 100 81.6941V30.8118C99.9935 27.8906 97.6271 25.5241 94.7059 25.5176ZM61.7647 59.2H38.2353C36.6109 59.2 35.2941 57.8832 35.2941 56.2588C35.2941 54.6344 36.6109 53.3176 38.2353 53.3176H61.7647C63.3891 53.3176 64.7059 54.6344 64.7059 56.2588C64.7059 57.8832 63.3891 59.2 61.7647 59.2Z" fill="black"/>
</svg>
