<?xml version="1.0" encoding="UTF-8"?>
<svg width="100px" height="100px" viewBox="0 0 100 100" version="1.1" xmlns="http://www.w3.org/2000/svg" xmlns:xlink="http://www.w3.org/1999/xlink">
    <!-- Generator: Sketch 57.1 (83088) - https://sketch.com -->
    <title>regular/folder-open-regular</title>
    <desc>Created with Sketch.</desc>
    <g id="regular/folder-open" stroke="none" stroke-width="1" fill="none" fill-rule="evenodd">
        <path d="M99.29,40.16 C98.4899722,38.9137945 97.1109027,38.1602046 95.63,38.16 L84.27,38.16 L84.27,33.5 C84.27,31.0865156 82.3134844,29.13 79.9,29.13 L33.9,29.13 L25.55,19.93 C24.7170466,19.0101597 23.5308926,18.4898529 22.29,18.4998543 L4.36999995,18.4998543 C1.9565156,18.4998543 -4.9999997e-08,20.4565156 -4.9999997e-08,22.87 L-4.9999997e-08,76.5 C0.00551387334,78.9095782 1.96041545,80.8600007 4.36999995,80.8600007 L80.6,80.8600007 C82.3274075,80.8609714 83.8940506,79.84657 84.6,78.27 L99.6,44.33 C100.215332,42.9782263 100.098446,41.4059293 99.29,40.16 Z M4.75999995,67.21 L4.75999995,23.26 L22.11,23.26 L30.46,32.5 C31.2859617,33.4120387 32.4595429,33.9316118 33.69,33.93 L79.51,33.93 L79.51,38.21 L20.51,38.21 C18.7787132,38.2056285 17.2088647,39.22603 16.51,40.81 L4.75999995,67.21 Z M80.34,76.08 L5.99999996,76.08 L20.73,42.93 L95,42.93 L80.34,76.08 Z" id="folder-open" fill="#000000"></path>
    </g>
</svg>