<?xml version="1.0" encoding="UTF-8"?>
<svg width="100px" height="100px" viewBox="0 0 100 100" version="1.1" xmlns="http://www.w3.org/2000/svg" xmlns:xlink="http://www.w3.org/1999/xlink">
    <!-- Generator: Sketch 57.1 (83088) - https://sketch.com -->
    <title>bold/folder-bold</title>
    <desc>Created with Sketch.</desc>
    <g id="bold/folder" stroke="none" stroke-width="1" fill="none" fill-rule="evenodd">
        <path d="M93.18,87.43 L6.81999996,87.43 C3.05570156,87.4244926 0.00550734494,84.3742984 -4.9999997e-08,80.61 L-4.9999997e-08,19.32 C0.00550734494,15.5557016 3.05570156,12.5055074 6.81999996,12.4999977 L27.31,12.4999977 C29.2344647,12.4984277 31.0694768,13.3123737 32.36,14.74 L41.36,24.65 L93.18,24.65 C94.9931658,24.6526469 96.7308695,25.3761501 98.0101559,26.6610638 C99.2894422,27.9459776 100.005311,29.6868401 100.000029,31.4999977 L100.000029,80.61 C99.9944927,84.3742984 96.9442984,87.4244926 93.18,87.43 Z M9.08999996,78.34 L90.91,78.34 L90.91,33.74 L40.35,33.74 C38.4263311,33.737817 36.5927727,32.9245159 35.3,31.5 L35.3,31.5 L26.3,21.58 L9.08999996,21.58 L9.08999996,78.34 Z" id="folder" fill="#000000"></path>
    </g>
</svg>