<?xml version="1.0" encoding="UTF-8"?>
<svg width="100px" height="100px" viewBox="0 0 100 100" version="1.1" xmlns="http://www.w3.org/2000/svg" xmlns:xlink="http://www.w3.org/1999/xlink">
    <!-- Generator: Sketch 57.1 (83088) - https://sketch.com -->
    <title>bold/folder-cross-bold</title>
    <desc>Created with Sketch.</desc>
    <g id="bold/folder-cross" stroke="none" stroke-width="1" fill="none" fill-rule="evenodd">
        <path d="M27.31,12.5 C29.2309815,12.5012553 31.0618125,13.314958 32.35,14.74 L41.35,24.65 L93.18,24.65 C94.9931658,24.6526469 96.7308695,25.3761501 98.0101559,26.6610638 C99.2894422,27.9459776 100.005311,29.6868401 100.000058,31.5 L100.000058,80.61 C99.9944927,84.3742984 96.9442984,87.4244926 93.18,87.43 L6.81999996,87.43 C3.05570156,87.4244926 0.00550734494,84.3742984 -5.00001107e-08,80.61 L-5.00001107e-08,19.32 C0.00550734494,15.5557016 3.05570156,12.5055074 6.81999996,12.5 L27.31,12.5 Z M26.3,21.59 L9.08999996,21.59 L9.08999996,78.34 L90.91,78.34 L90.91,33.74 L40.35,33.74 C38.4278706,33.7403789 36.5945527,32.9308148 35.3,31.51 L26.3,21.59 Z M38.0502406,44.0902406 C39.7794322,42.361049 42.5661838,42.3079439 44.36,43.97 L50,49.61 L55.64,44 C57.4338162,42.3379439 60.2205678,42.391049 61.9497594,44.1202406 C63.678951,45.8494323 63.7320561,48.6361838 62.07,50.43 L56.43,56.07 L62.07,61.71 C63.7320561,63.5038162 63.678951,66.2905678 61.9497594,68.0197594 C60.2205678,69.748951 57.4338162,69.8020561 55.64,68.14 L50,62.5 L44.36,68.11 C42.5661838,69.7720561 39.7794322,69.718951 38.0502406,67.9897594 C36.321049,66.2605678 36.2679439,63.4738162 37.93,61.68 L43.57,56.04 L37.93,50.4 C36.2679439,48.6061838 36.321049,45.8194323 38.0502406,44.0902406 Z" id="Shape" fill="#000000"></path>
    </g>
</svg>