<?xml version="1.0" encoding="UTF-8"?>
<svg width="100px" height="100px" viewBox="0 0 100 100" version="1.1" xmlns="http://www.w3.org/2000/svg" xmlns:xlink="http://www.w3.org/1999/xlink">
    <!-- Generator: Sketch 57.1 (83088) - https://sketch.com -->
    <title>regular/folder-tree-regular</title>
    <desc>Created with Sketch.</desc>
    <g id="regular/folder-tree" stroke="none" stroke-width="1" fill="none" fill-rule="evenodd">
        <path d="M42.21,49.19 L83.5,49.19 C84.4254882,49.1980016 85.3158229,48.8359489 85.973077,48.1843283 C86.6303311,47.5327078 87,46.6455227 87,45.72 L87,22.23 C86.9945075,20.3158516 85.4441484,18.7654925 83.53,18.76 L58.81,18.76 L54.57,14.09 C53.904425,13.3818665 52.9717278,12.9862868 52,13 L42.21,13 C40.2935719,13 38.74,14.5535719 38.74,16.47 L38.74,28.69 L17.74,28.69 L17.74,2.37999995 C17.6273652,1.15517538 16.5999926,0.217944897 15.37,0.217944897 C14.1400074,0.217944897 13.1126347,1.15517538 13,2.37999995 L13,78.28 C13,81.5937085 15.6862915,84.28 19,84.28 L38.74,84.28 L38.74,96.53 C38.74,98.4464281 40.2935719,100.000058 42.21,100.000058 L83.5,100.000058 C84.4246833,100.005318 85.3134629,99.642398 85.9701318,98.9913577 C86.6268006,98.3403174 86.9973582,97.4546948 87,96.53 L87,73 C87,71.0835719 85.4464281,69.53 83.53,69.53 L58.81,69.53 L54.57,64.9 C53.9132906,64.1733889 52.979403,63.7591352 52,63.76 L42.21,63.76 C40.2935719,63.76 38.74,65.3135719 38.74,67.23 L38.74,79.5 L19,79.5 C18.3262126,79.5 17.78,78.9537874 17.78,78.28 L17.78,33.45 L38.78,33.45 L38.78,45.72 C38.7798737,47.6209152 40.3092111,49.1680874 42.21,49.19 Z M43.5,17.71 L51.43,17.71 L55.67,22.38 L55.67,22.38 C56.3267094,23.1066111 57.260597,23.5208648 58.24,23.52 L82.24,23.52 L82.24,44.43 L43.5,44.43 L43.5,17.71 Z M43.5,68.52 L51.43,68.52 L55.67,73.19 L55.67,73.19 C56.3267094,73.9166111 57.260597,74.3308648 58.24,74.33 L82.24,74.33 L82.24,95.24 L43.5,95.24 L43.5,68.52 Z" id="folder-tree" fill="#000000"></path>
    </g>
</svg>