<?xml version="1.0" encoding="UTF-8"?>
<svg width="100px" height="100px" viewBox="0 0 100 100" version="1.1" xmlns="http://www.w3.org/2000/svg" xmlns:xlink="http://www.w3.org/1999/xlink">
    <!-- Generator: Sketch 57.1 (83088) - https://sketch.com -->
    <title>regular/folder-minus-regular</title>
    <desc>Created with Sketch.</desc>
    <g id="regular/folder-minus" stroke="none" stroke-width="1" fill="none" fill-rule="evenodd">
        <path d="M26.23,13 C27.5706657,13.001088 28.8487122,13.5674949 29.75,14.56 L39.89,25.73 L95.24,25.73 C97.8665936,25.7355007 99.9944993,27.8634064 99.9999999,30.49 L99.9999999,82 C99.9835351,84.6187798 97.8588259,86.7345616 95.24,86.74 L4.75999995,86.74 C2.1411741,86.7345616 0.0164649414,84.6187798 -5.0000061e-08,82 L-5.0000061e-08,17.76 C0.00550068757,15.1334064 2.1334064,13.0055007 4.75999995,13 L26.23,13 Z M26.24,17.74 L4.75999995,17.74 L4.75999995,82 L95.24,82 L95.24,30.49 L39.89,30.49 C38.5466397,30.4880025 37.2658562,29.9219906 36.36,28.93 L26.24,17.74 Z M63.12,53.85 C64.4344377,53.85 65.5,54.9155623 65.5,56.23 C65.5,57.5444377 64.4344377,58.61 63.12,58.61 L36.88,58.61 C35.5655623,58.61 34.5,57.5444377 34.5,56.23 C34.5,54.9155623 35.5655623,53.85 36.88,53.85 L63.12,53.85 Z" id="Shape" fill="#000000"></path>
    </g>
</svg>