<?xml version="1.0" encoding="UTF-8"?>
<svg width="100px" height="100px" viewBox="0 0 100 100" version="1.1" xmlns="http://www.w3.org/2000/svg" xmlns:xlink="http://www.w3.org/1999/xlink">
    <!-- Generator: Sketch 57.1 (83088) - https://sketch.com -->
    <title>bold/folder-open-bold</title>
    <desc>Created with Sketch.</desc>
    <g id="bold/folder-open" stroke="none" stroke-width="1" fill="none" fill-rule="evenodd">
        <path d="M98.019802,39.3069307 C96.8460204,37.4946129 94.8324904,36.4020865 92.6732674,36.4059406 L84.1584159,36.4059406 L84.1584159,34.2475247 C84.1584201,30.7244207 81.305278,27.8668483 77.7821782,27.8613861 L35.2574257,27.8613861 L28.0396039,19.940594 C26.8334914,18.6014153 25.1190518,17.8322537 23.3168317,17.8217821 L6.37623758,17.8217821 C2.85699953,17.8272341 0.00545191651,20.6787817 -4.9999997e-08,24.1980198 L-4.9999997e-08,74.8613862 C-4.9999997e-08,78.3844902 2.85313781,81.2420626 6.37623758,81.2475248 L78.4158416,81.2475248 C80.9403445,81.2442601 83.225983,79.7541325 84.2475248,77.4455446 L98.4554456,45.3762376 C99.352774,43.4108655 99.188627,41.1239981 98.019802,39.3069307 Z M22.1485148,26.8217822 L29.3663366,34.7425742 C30.0227624,35.4665272 30.840105,36.0261186 31.7524752,36.3762376 L21.5940594,36.3762376 C19.0703132,36.3820403 16.7859349,37.8713463 15.7623762,40.1782178 L8.99999996,55.4455446 L8.99999996,26.8217822 L22.1485148,26.8217822 Z M76.7128713,72.2772277 L11.4158415,72.2772277 L23.2970297,45.4554455 L88.6039604,45.4554455 L76.7128713,72.2772277 Z" id="folder-open" fill="#000000"></path>
    </g>
</svg>