<?xml version="1.0" encoding="UTF-8"?>
<svg width="100px" height="100px" viewBox="0 0 100 100" version="1.1" xmlns="http://www.w3.org/2000/svg" xmlns:xlink="http://www.w3.org/1999/xlink">
    <!-- Generator: Sketch 57.1 (83088) - https://sketch.com -->
    <title>regular/forward-regular</title>
    <desc>Created with Sketch.</desc>
    <g id="regular/forward" stroke="none" stroke-width="1" fill="none" fill-rule="evenodd">
        <path d="M6.17310678,1.44839408 C7.5602963,0.72796381 9.23366052,0.842450409 10.5098039,1.74509799 L73.9215687,46.5588235 C75.0381611,47.3447171 75.702537,48.624763 75.702537,49.9901961 C75.702537,51.3556291 75.0381611,52.6356751 73.9215687,53.4215686 L10.5098039,98.2450981 C9.23664332,99.1543828 7.56141156,99.2738262 6.17212265,98.554373 C4.78283374,97.8349198 3.91365976,96.3978378 3.92146226,94.8333334 L3.92146226,5.16666662 C3.91713548,3.60356237 4.78591726,2.16882436 6.17310678,1.44839408 Z M91.3039216,0.980032227 C93.6076004,1.00724333 95.4607844,2.88243924 95.4607844,5.18627446 L95.4607844,94.8137255 C95.4607844,97.1365702 93.5777467,99.0196079 91.254902,99.0196079 L82.4313726,99.0196079 C80.1123575,99.0142022 78.2352941,97.1327469 78.2352941,94.8137255 L78.2352941,5.18627446 C78.2352941,4.06397719 78.683743,2.98820835 79.4810009,2.19831537 C80.2782589,1.40842238 81.3581437,0.969927797 82.4803922,0.980032227 L91.3039216,0.980032227 Z M90.8431373,5.64705878 L82.9019608,5.64705878 L82.9019608,94.3529412 L90.8431373,94.3529412 L90.8431373,5.64705878 Z M8.58823525,6.14705878 L8.58823525,93.8921569 L70.6666667,50 L8.58823525,6.14705878 Z" id="Shape" fill="#000000"></path>
    </g>
</svg>