<svg width="100" height="100" viewBox="0 0 100 100" fill="none" xmlns="http://www.w3.org/2000/svg">
<path fill-rule="evenodd" clip-rule="evenodd" d="M50 0.999512C77.613 0.999512 100 23.3845 100 50.9995C100 73.0835 85.691 91.8185 65.835 98.4375C63.301 98.9295 62.401 97.3695 62.401 96.0395C62.401 94.3925 62.459 89.0075 62.459 82.3175C62.459 77.6525 60.86 74.6095 59.067 73.0595C70.201 71.8205 81.898 67.5925 81.898 48.3885C81.898 42.9295 79.959 38.4695 76.753 34.9675C77.271 33.7075 78.983 28.6225 76.262 21.7345C76.262 21.7345 72.069 20.3925 62.525 26.8605C58.529 25.7525 54.249 25.1975 50 25.1785C45.751 25.1975 41.474 25.7525 37.485 26.8605C27.931 20.3925 23.732 21.7345 23.732 21.7345C21.017 28.6225 22.729 33.7075 23.248 34.9675C20.049 38.4695 18.095 42.9295 18.095 48.3885C18.095 67.5465 29.77 71.8345 40.876 73.0985C39.446 74.3475 38.15 76.5535 37.702 79.7845C34.848 81.0625 27.61 83.2715 23.151 75.6285C23.151 75.6285 20.507 70.8275 15.487 70.4755C15.487 70.4755 10.608 70.4115 15.145 73.5155C15.145 73.5155 18.422 75.0525 20.696 80.8305C20.696 80.8305 23.631 89.7555 37.542 86.7295C37.563 90.9075 37.609 94.8475 37.609 96.0395C37.609 97.3595 36.692 98.9075 34.193 98.4445C14.327 91.8325 0 73.0915 0 50.9995C0 23.3845 22.39 0.999512 50 0.999512ZM18.9375 72.7886C18.8275 73.0376 18.4365 73.1116 18.0805 72.9406C17.7175 72.7776 17.5145 72.4386 17.6315 72.1896C17.7395 71.9346 18.1305 71.8636 18.4935 72.0336C18.8555 72.1976 19.0625 72.5396 18.9375 72.7886ZM20.9634 75.0474C20.7244 75.2684 20.2584 75.1654 19.9424 74.8174C19.6144 74.4684 19.5534 74.0014 19.7954 73.7774C20.0414 73.5574 20.4934 73.6604 20.8204 74.0084C21.1484 74.3604 21.2124 74.8234 20.9634 75.0474ZM22.9346 77.9273C22.6276 78.1403 22.1266 77.9413 21.8166 77.4963C21.5106 77.0513 21.5106 76.5183 21.8246 76.3043C22.1346 76.0913 22.6276 76.2833 22.9416 76.7243C23.2476 77.1763 23.2476 77.7093 22.9346 77.9273ZM25.6353 80.7095C25.3613 81.0125 24.7773 80.9305 24.3503 80.5185C23.9133 80.1145 23.7913 79.5425 24.0663 79.2405C24.3433 78.9385 24.9303 79.0225 25.3613 79.4325C25.7953 79.8345 25.9273 80.4105 25.6353 80.7095ZM29.3613 82.3247C29.2393 82.7167 28.6773 82.8937 28.1113 82.7277C27.5463 82.5557 27.1763 82.0977 27.2903 81.7027C27.4073 81.3077 27.9723 81.1227 28.5433 81.3007C29.1083 81.4707 29.4783 81.9267 29.3613 82.3247ZM33.4531 82.6245C33.4671 83.0365 32.9871 83.3785 32.3921 83.3865C31.7951 83.3995 31.3101 83.0655 31.3041 82.6595C31.3041 82.2435 31.7741 81.9055 32.3711 81.8955C32.9661 81.8835 33.4531 82.2155 33.4531 82.6245ZM37.2607 81.9761C37.3317 82.3781 36.9187 82.7911 36.3287 82.9021C35.7477 83.0081 35.2107 82.7591 35.1367 82.3611C35.0647 81.9481 35.4857 81.5351 36.0647 81.4281C36.6567 81.3261 37.1857 81.5671 37.2607 81.9761Z" fill="black"/>
</svg>
