<?xml version="1.0" encoding="UTF-8"?>
<svg width="100px" height="100px" viewBox="0 0 100 100" version="1.1" xmlns="http://www.w3.org/2000/svg" xmlns:xlink="http://www.w3.org/1999/xlink">
    <!-- Generator: Sketch 57.1 (83088) - https://sketch.com -->
    <title>brand/github-square-brand</title>
    <desc>Created with Sketch.</desc>
    <g id="brand/github-square" stroke="none" stroke-width="1" fill="none" fill-rule="evenodd">
        <path d="M28.2563,66.1161 C28.1793,66.2911 27.9053,66.3431 27.6563,66.2231 C27.4023,66.1091 27.2603,65.8721 27.3423,65.6971 C27.4173,65.5181 27.6913,65.4691 27.9453,65.5881 C28.1993,65.7021 28.3443,65.9421 28.2563,66.1161 M29.6743,67.6981 C29.5073,67.8521 29.1803,67.7801 28.9593,67.5361 C28.7303,67.2921 28.6873,66.9661 28.8573,66.8081 C29.0283,66.6541 29.3453,66.7261 29.5743,66.9701 C29.8033,67.2181 29.8483,67.5411 29.6743,67.6981 M31.0543,69.7131 C30.8393,69.8621 30.4883,69.7221 30.2723,69.4121 C30.0573,69.1001 30.0573,68.7261 30.2773,68.5771 C30.4933,68.4281 30.8393,68.5621 31.0593,68.8711 C31.2733,69.1871 31.2733,69.5611 31.0543,69.7131 M32.9443,71.6611 C32.7533,71.8731 32.3443,71.8151 32.0453,71.5261 C31.7393,71.2451 31.6543,70.8451 31.8463,70.6331 C32.0403,70.4211 32.4513,70.4801 32.7533,70.7661 C33.0563,71.0491 33.1493,71.4511 32.9443,71.6611 M35.5523,72.7921 C35.4673,73.0651 35.0743,73.1901 34.6783,73.0731 C34.2823,72.9541 34.0233,72.6331 34.1033,72.3561 C34.1853,72.0801 34.5813,71.9501 34.9803,72.0751 C35.3753,72.1941 35.6343,72.5121 35.5523,72.7921 M38.4173,73.0011 C38.4263,73.2901 38.0903,73.5291 37.6743,73.5341 C37.2563,73.5441 36.9173,73.3101 36.9133,73.0261 C36.9133,72.7341 37.2413,72.4981 37.6603,72.4911 C38.0763,72.4821 38.4173,72.7151 38.4173,73.0011 M41.0823,72.5481 C41.1323,72.8291 40.8433,73.1181 40.4303,73.1951 C40.0233,73.2701 39.6483,73.0951 39.5953,72.8161 C39.5453,72.5281 39.8393,72.2391 40.2453,72.1641 C40.6593,72.0931 41.0303,72.2621 41.0823,72.5481 M61.0853,84.0711 C59.3103,84.4151 58.6803,83.3231 58.6803,82.3911 C58.6803,81.2391 58.7203,77.4701 58.7203,72.7871 C58.7203,69.5211 57.6023,67.3911 56.3473,66.3051 C64.1403,65.4381 72.3293,62.4791 72.3293,49.0361 C72.3293,45.2151 70.9703,42.0931 68.7263,39.6411 C69.0893,38.7601 70.2883,35.2001 68.3823,30.3791 C68.3823,30.3791 65.4483,29.4381 58.7673,33.9671 C55.9703,33.1911 52.9743,32.8031 50.0003,32.7891 C47.0263,32.8031 44.0313,33.1911 41.2393,33.9671 C34.5513,29.4381 31.6123,30.3791 31.6123,30.3791 C29.7113,35.2001 30.9093,38.7601 31.2733,39.6411 C29.0343,42.0931 27.6663,45.2151 27.6663,49.0361 C27.6663,62.4471 35.8393,65.4481 43.6133,66.3331 C42.6113,67.2071 41.7053,68.7521 41.3913,71.0131 C39.3933,71.9081 34.3273,73.4551 31.2063,68.1041 C31.2063,68.1041 29.3553,64.7441 25.8403,64.4971 C25.8403,64.4971 22.4253,64.4521 25.6013,66.6251 C25.6013,66.6251 27.8953,67.7001 29.4873,71.7461 C29.4873,71.7461 31.5423,77.9931 41.2793,75.8761 C41.2943,78.8001 41.3263,81.5571 41.3263,82.3911 C41.3263,83.3161 40.6843,84.3991 38.9353,84.0761 C25.0283,79.4471 15.0003,66.3281 15.0003,50.8641 C15.0003,31.5331 30.6733,15.8641 50.0003,15.8641 C69.3303,15.8641 85.0003,31.5331 85.0003,50.8641 C85.0003,66.3231 74.9843,79.4371 61.0853,84.0711 M94.4803,0.0001 L5.5203,0.0001 C2.4713,0.0001 0.0003,2.4711 0.0003,5.5201 L0.0003,94.4801 C0.0003,97.5281 2.4713,100.0001 5.5203,100.0001 L94.4803,100.0001 C97.5283,100.0001 100.0003,97.5281 100.0003,94.4801 L100.0003,5.5201 C100.0003,2.4711 97.5283,0.0001 94.4803,0.0001" id="Fill-1" fill="#000000"></path>
    </g>
</svg>