<svg width="100" height="100" viewBox="0 0 100 100" fill="none" xmlns="http://www.w3.org/2000/svg">
<g clip-path="url(#clip0)">
<path d="M29.9175 19.0579H70.0816L68.1523 14.8816C65.9904 10.1729 63.2518 5.751 59.9994 1.71758L59.2936 0.858802L58.2112 0.682341C52.7589 -0.228749 47.1932 -0.228749 41.7409 0.682341L40.6468 0.858802L39.9409 1.71758C36.6953 5.74923 33.9608 10.1669 31.7999 14.8698L29.9175 19.0579Z" fill="black"/>
<path d="M74.9638 17.1876L75.705 19.0581H89.9283L84.7049 13.9995C82.2531 11.649 79.5732 9.5485 76.705 7.72925L67.9404 2.18836L72.4815 11.5055C73.3756 13.329 74.2109 15.2936 74.9638 17.1876Z" fill="black"/>
<path d="M29.9175 80.9372H70.0816L68.2111 85.1135C66.0529 89.818 63.3182 94.2359 60.07 98.2658L59.3642 99.1245L58.2701 99.3128C52.8181 100.228 47.2517 100.228 41.7997 99.3128L40.7056 99.1245L39.9997 98.2658C36.7449 94.2383 34.0061 89.82 31.8469 85.1135L29.9175 80.9372Z" fill="black"/>
<path d="M71.8223 24.4694H28.2347L27.6347 26.6223C23.4937 41.9267 23.4937 58.0566 27.6347 73.361L28.2347 75.5256H71.8811L72.4811 73.361C74.5411 65.7453 75.566 57.8868 75.5281 49.9975C75.5469 42.1017 74.5022 34.2393 72.4223 26.6223L71.8223 24.4694Z" fill="black"/>
<path d="M93.0339 24.4694L93.8692 25.987C102.042 40.9466 102.042 59.0367 93.8692 73.9963L93.0339 75.5256H77.5047L78.3753 71.8905C80.0911 64.7196 80.952 57.3708 80.94 49.9975C80.9526 42.6203 80.0917 35.2676 78.3753 28.0928L77.5047 24.4694H93.0339Z" fill="black"/>
<path d="M25.0229 17.1876C25.7876 15.2348 26.6229 13.329 27.517 11.5055L32.0463 2.18836L23.2935 7.72925C20.4231 9.54547 17.743 11.6462 15.2936 13.9995L10.0702 19.0581H24.2935L25.0229 17.1876Z" fill="black"/>
<path d="M72.4815 88.478C73.3756 86.6546 74.2109 84.7488 74.9638 82.8077L75.7049 80.9372H89.9518L84.7048 85.9958C82.2559 88.3461 79.5756 90.443 76.7049 92.2543L67.9521 97.7952L72.4815 88.478Z" fill="black"/>
<path d="M25.0229 82.8077L24.2935 80.9372H10.0702L15.2936 85.9958C17.7388 88.3407 20.4107 90.4371 23.27 92.2543L32.0228 97.7952L27.4934 88.478C26.6229 86.6663 25.7876 84.7606 25.0229 82.8077Z" fill="black"/>
<path d="M21.6228 28.0928C18.2033 42.4918 18.2033 57.4915 21.6228 71.8905L22.4933 75.5256H6.96415L6.12886 73.9963C-2.04426 59.0367 -2.04426 40.9466 6.12886 25.987L6.96415 24.4694H22.4933L21.6228 28.0928Z" fill="black"/>
</g>
<defs>
<clipPath id="clip0">
<rect width="100" height="100" fill="white"/>
</clipPath>
</defs>
</svg>
