<svg width="100" height="100" viewBox="0 0 100 100" fill="none" xmlns="http://www.w3.org/2000/svg">
<g clip-path="url(#clip0)">
<path fill-rule="evenodd" clip-rule="evenodd" d="M70.0827 19.0588H29.918L31.8474 14.8824C34.0065 10.1719 36.7453 5.74946 40.0003 1.71767L40.7062 0.858847L41.8003 0.682376C47.2527 -0.228761 52.8185 -0.228761 58.2709 0.682376L59.365 0.858847L60.0709 1.71767C63.3192 5.75193 66.0538 10.174 68.2121 14.8824L70.0827 19.0588ZM39.318 13.1765H60.6827C59.3463 10.7803 57.8322 8.48762 56.1533 6.31767C52.0716 5.74122 47.9291 5.74122 43.8474 6.31767C42.1684 8.48762 40.6544 10.7803 39.318 13.1765Z" fill="black"/>
<path d="M89.9296 19.0591H75.7061L74.9767 17.1885C74.2119 15.2473 73.3767 13.3414 72.4825 11.5061L67.9531 2.18848L76.7061 7.72965C79.5743 9.549 82.2542 11.6496 84.7061 14.0002L89.9296 19.0591Z" fill="black"/>
<path fill-rule="evenodd" clip-rule="evenodd" d="M41.765 99.3179C44.4871 99.7677 47.2413 99.9959 50.0003 100C52.7476 99.994 55.4898 99.7658 58.2003 99.3179L59.2944 99.1296L60.0003 98.2708C63.2542 94.2425 65.993 89.8241 68.1533 85.1179L70.0827 80.9414H29.918L31.8239 85.1179C33.9794 89.824 36.7143 94.2426 39.965 98.2708L40.6709 99.1296L41.765 99.3179ZM56.1533 93.7414C52.0716 94.3178 47.9291 94.3178 43.8474 93.7414V93.6826C42.1709 91.5315 40.6569 89.2586 39.318 86.8826H60.6827C59.3463 89.2788 57.8322 91.5715 56.1533 93.7414Z" fill="black"/>
<path fill-rule="evenodd" clip-rule="evenodd" d="M71.8233 75.5295H28.2351L27.6351 73.3648C23.494 58.0596 23.494 41.9289 27.6351 26.6236L28.2351 24.4707H71.8822L72.4822 26.6236C74.5423 34.2438 75.5671 42.1065 75.5292 50.0001C75.5479 57.8925 74.5032 65.7514 72.4233 73.3648L71.8233 75.5295ZM32.6822 69.6472H67.3175C68.8838 63.2156 69.6737 56.6196 69.6704 50.0001C69.6745 43.3806 68.8845 36.7844 67.3175 30.3531H32.6822C29.5764 43.267 29.5764 56.7332 32.6822 69.6472Z" fill="black"/>
<path fill-rule="evenodd" clip-rule="evenodd" d="M77.5059 75.5295H93.0353L93.8706 74.0001C102.044 59.0439 102.044 40.9563 93.8706 26.0001L93.0353 24.4707H77.5059L78.3764 28.0942C80.0929 35.2694 80.9538 42.6225 80.9412 50.0001C80.9532 57.3738 80.0923 64.723 78.3764 71.8942L77.5059 75.5295ZM89.5059 69.6472H84.8941C86.1837 63.1778 86.83 56.5967 86.8235 50.0001C86.83 43.4035 86.1837 36.8224 84.8941 30.3531H89.5059C95.6554 42.7293 95.6554 57.2709 89.5059 69.6472Z" fill="black"/>
<path d="M24.2938 19.059H10.0703L15.2938 14.0002C17.7432 11.6467 20.4234 9.54592 23.2938 7.72961L32.0468 2.2002L27.5174 11.5061C26.6233 13.3414 25.788 15.2473 25.0233 17.1884L24.2938 19.059Z" fill="black"/>
<path d="M72.4826 88.4826L67.9414 97.8002L76.7296 92.2591C79.5922 90.4463 82.2645 88.3494 84.7061 86.0002L89.9296 80.9414H75.7061L74.9767 82.812C74.212 84.7532 73.3767 86.659 72.4826 88.4826Z" fill="black"/>
<path d="M32.0585 97.8002L23.2938 92.2591C20.4258 90.4438 17.7459 88.3472 15.2938 86.0002L10.0703 80.9414H24.2938L25.0233 82.812C25.7997 84.7649 26.635 86.6708 27.5174 88.4826L32.0585 97.8002Z" fill="black"/>
<path fill-rule="evenodd" clip-rule="evenodd" d="M6.96432 75.5295H22.4937L21.6231 71.8942C18.2037 57.4945 18.2037 42.494 21.6231 28.0942L22.4937 24.4707H6.96432L6.12902 26.0001C-2.04431 40.9563 -2.04431 59.0439 6.12902 74.0001L6.96432 75.5295ZM15.1055 69.6472H10.4937C4.34422 57.2709 4.34422 42.7293 10.4937 30.3531H15.1055C12.533 43.3248 12.533 56.6754 15.1055 69.6472Z" fill="black"/>
</g>
<defs>
<clipPath id="clip0">
<rect width="100" height="100" fill="white"/>
</clipPath>
</defs>
</svg>
