<svg width="100" height="100" viewBox="0 0 100 100" fill="none" xmlns="http://www.w3.org/2000/svg">
<path fill-rule="evenodd" clip-rule="evenodd" d="M42.7939 50.3231C42.7939 55.0591 39.0889 58.5491 34.5429 58.5491C29.9959 58.5491 26.2909 55.0591 26.2909 50.3231C26.2909 45.5531 29.9959 42.0971 34.5429 42.0971C39.0889 42.0971 42.7939 45.5531 42.7939 50.3231ZM39.1819 50.3231C39.1819 47.3631 37.0349 45.3391 34.5429 45.3391C32.0499 45.3391 29.9029 47.3631 29.9029 50.3231C29.9029 53.2531 32.0499 55.3071 34.5429 55.3071C37.0349 55.3071 39.1819 53.2491 39.1819 50.3231ZM60.5957 50.3231C60.5957 55.0591 56.8907 58.5491 52.3437 58.5491C47.7967 58.5491 44.0927 55.0591 44.0927 50.3231C44.0927 45.5571 47.7967 42.0971 52.3437 42.0971C56.8907 42.0971 60.5957 45.5531 60.5957 50.3231ZM56.9837 50.3231C56.9837 47.3631 54.8357 45.3391 52.3437 45.3391C49.8517 45.3391 47.7047 47.3631 47.7047 50.3231C47.7047 53.2531 49.8517 55.3071 52.3437 55.3071C54.8357 55.3071 56.9837 53.2491 56.9837 50.3231ZM77.6553 42.5946V57.3626C77.6553 63.4376 74.0733 65.9176 69.8383 65.9176C65.8503 65.9176 63.4513 63.2516 62.5463 61.0716L65.6913 59.7616C66.2513 61.1006 67.6233 62.6806 69.8343 62.6806C72.5453 62.6806 74.2243 61.0076 74.2243 57.8596V56.6756H74.0983C73.2903 57.6736 71.7323 58.5446 69.7673 58.5446C65.6543 58.5446 61.8853 54.9626 61.8853 50.3526C61.8853 45.7096 65.6543 42.0976 69.7673 42.0976C71.7283 42.0976 73.2863 42.9686 74.0983 43.9366H74.2243V42.5986H77.6553V42.5946ZM74.4803 50.3526C74.4803 47.4556 72.5493 45.3386 70.0903 45.3386C67.5973 45.3386 65.5093 47.4556 65.5093 50.3526C65.5093 53.2196 67.5973 55.3076 70.0903 55.3076C72.5493 55.3076 74.4803 53.2196 74.4803 50.3526ZM79.789 58.045V33.939H83.312V58.045H79.789ZM97.04 53.0302L99.844 54.8992C98.939 56.2382 96.759 58.5452 92.99 58.5452C88.317 58.5452 84.828 54.9332 84.828 50.3192C84.828 45.4272 88.348 42.0932 92.587 42.0932C96.855 42.0932 98.943 45.4912 99.625 47.3272L100 48.2612L89.004 52.8152C89.846 54.4662 91.155 55.3072 92.99 55.3072C94.83 55.3072 96.105 54.4022 97.04 53.0302ZM88.41 50.0712L95.761 47.0182C95.356 45.9912 94.141 45.2752 92.709 45.2752C90.873 45.2752 88.317 46.8962 88.41 50.0712ZM12.9541 48.1835V44.6935H24.7141C24.8291 45.3015 24.8891 46.0215 24.8891 46.7995C24.8891 49.4175 24.1731 52.6565 21.8661 54.9625C19.6221 57.2985 16.7561 58.5445 12.9581 58.5445C5.91911 58.5445 0.000106812 52.8115 0.000106812 45.7725C0.000106812 38.7335 5.91911 32.9995 12.9581 32.9995C16.8521 32.9995 19.6261 34.5285 21.7101 36.5195L19.2481 38.9825C17.7531 37.5795 15.7281 36.4905 12.9541 36.4905C7.81411 36.4905 3.79411 40.6325 3.79411 45.7725C3.79411 50.9135 7.81411 55.0555 12.9541 55.0555C16.2881 55.0555 18.1871 53.7165 19.4041 52.4995C20.3901 51.5135 21.0391 50.1045 21.2951 48.1795L12.9541 48.1835Z" fill="black"/>
</svg>
