<?xml version="1.0" encoding="UTF-8"?>
<svg width="100px" height="100px" viewBox="0 0 100 100" version="1.1" xmlns="http://www.w3.org/2000/svg" xmlns:xlink="http://www.w3.org/1999/xlink">
    <!-- Generator: Sketch 57.1 (83088) - https://sketch.com -->
    <title>brand/google-alt-brand</title>
    <desc>Created with Sketch.</desc>
    <g id="brand/google-alt" stroke="none" stroke-width="1" fill="none" fill-rule="evenodd">
        <path d="M97.5912,40.9091 L51.0002,40.9091 L51.0002,60.2271 L77.8182,60.2271 C76.4772,66.8131 72.8292,71.8761 67.6092,75.1701 C63.1012,78.0141 57.4242,79.5461 51.0002,79.5461 C37.8772,79.5461 26.8082,71.0631 22.9352,59.2651 C21.9792,56.3521 21.4542,53.2401 21.4542,50.0001 C21.4542,46.7511 21.9822,43.6311 22.9432,40.7101 L22.9382,40.7071 L22.9452,40.7061 C26.8252,28.9231 37.8872,20.4551 51.0002,20.4551 C58.0452,20.4551 64.4092,22.9551 69.4092,27.0461 L83.9542,12.5001 C75.0912,4.7721 63.7272,0.0001 51.0002,0.0001 C31.2402,0.0001 14.2592,11.3151 6.1272,27.8511 C2.8472,34.5191 1.0002,42.0321 1.0002,50.0001 C1.0002,57.9631 2.8452,65.4711 6.1202,72.1351 L6.1202,72.1361 C6.1222,72.1391 6.1242,72.1441 6.1272,72.1481 L6.1272,72.1491 C14.2592,88.6841 31.2402,100.0001 51.0002,100.0001 C63.1952,100.0001 74.8402,95.6641 83.5772,87.5381 L83.5782,87.5391 C92.7552,79.0071 98.7272,66.2981 98.7272,50.0001 C98.7272,47.0461 98.2732,43.8631 97.5912,40.9091" id="Fill-1" fill="#000000"></path>
    </g>
</svg>