<svg width="100" height="100" viewBox="0 0 100 100" fill="none" xmlns="http://www.w3.org/2000/svg">
<path fill-rule="evenodd" clip-rule="evenodd" d="M75 57.5C69.477 57.5 65 53.023 65 47.5C65 41.977 69.477 37.5 75 37.5C80.523 37.5 85 41.977 85 47.5C85 53.023 80.523 57.5 75 57.5ZM25 57.5C19.477 57.5 15 53.023 15 47.5C15 41.977 19.477 37.5 25 37.5C30.523 37.5 35 41.977 35 47.5C35 53.023 30.523 57.5 25 57.5ZM95 20H5C2.239 20 0 22.239 0 25V75C0 77.761 2.239 80 5 80H30.034C33.97 80 37.539 77.692 39.153 74.104L43.487 64.472C44.72 61.731 47.242 60 50 60C52.758 60 55.279 61.731 56.513 64.472L60.847 74.104C62.461 77.692 66.031 80 69.966 80H95C97.761 80 100 77.761 100 75V25C100 22.239 97.761 20 95 20Z" fill="black"/>
</svg>
