<svg width="100" height="100" viewBox="0 0 100 100" fill="none" xmlns="http://www.w3.org/2000/svg">
<path fill-rule="evenodd" clip-rule="evenodd" d="M97.5912 40.909H51.0002V60.227H77.8182C76.4772 66.813 72.8292 71.876 67.6092 75.17C63.1012 78.014 57.4242 79.546 51.0002 79.546C37.8772 79.546 26.8082 71.063 22.9352 59.265C21.9792 56.352 21.4542 53.24 21.4542 50C21.4542 46.751 21.9822 43.631 22.9432 40.71L22.9382 40.707L22.9452 40.706C26.8252 28.923 37.8872 20.455 51.0002 20.455C58.0452 20.455 64.4092 22.955 69.4092 27.046L83.9542 12.5C75.0912 4.772 63.7272 0 51.0002 0C31.2402 0 14.2592 11.315 6.12721 27.851C2.84721 34.519 1.00021 42.032 1.00021 50C1.00021 57.963 2.84521 65.471 6.12021 72.135V72.136C6.12221 72.139 6.12421 72.144 6.12721 72.148V72.149C14.2592 88.684 31.2402 100 51.0002 100C63.1952 100 74.8402 95.664 83.5772 87.538L83.5782 87.539C92.7552 79.007 98.7272 66.298 98.7272 50C98.7272 47.046 98.2732 43.863 97.5912 40.909Z" fill="black"/>
</svg>
