<svg width="100" height="100" viewBox="0 0 100 100" fill="none" xmlns="http://www.w3.org/2000/svg">
<g clip-path="url(#clip0)">
<path d="M91.6667 60.2811H75L80.4271 40.0103H91.6667C96.269 40.0103 100 36.2793 100 31.6769C100 27.0746 96.269 23.3436 91.6667 23.3436H84.9271L87.9479 12.0519C88.9107 9.11915 88.1735 5.8944 86.032 3.67131C83.8905 1.44821 80.6955 0.590977 77.7288 1.44349C74.7621 2.29601 72.5096 4.7186 71.875 7.73944L67.7083 23.3644H46.6875L49.7188 12.0728C50.9154 7.62573 48.2804 3.05064 43.8333 1.85403C39.3863 0.657409 34.8112 3.2924 33.6146 7.73944L29.4479 23.3644H8.33333C3.73096 23.3644 0 27.0954 0 31.6978C0 36.3001 3.73096 40.0311 8.33333 40.0311H25L19.5417 60.2811H8.33333C3.73096 60.2811 0 64.0121 0 68.6144C0 73.2168 3.73096 76.9478 8.33333 76.9478H15.0729L12.0521 88.2394C10.8657 92.6801 13.499 97.2429 17.9375 98.4374C18.6435 98.6306 19.3722 98.729 20.1042 98.729C23.8654 98.7161 27.1518 96.1851 28.125 92.5519L32.2917 76.9269H53.3125L50.2812 88.2394C49.0956 92.6833 51.7343 97.2475 56.1771 98.4374C56.8795 98.6307 57.6048 98.729 58.3333 98.729C62.1062 98.7302 65.4092 96.1963 66.3854 92.5519L70.5521 76.9269H91.6667C96.269 76.9269 100 73.196 100 68.5936C100 63.9912 96.269 60.2603 91.6667 60.2603V60.2811ZM36.7917 60.2811L42.2292 40.0103H63.2083L57.7708 60.2811H36.7917Z" fill="black"/>
</g>
<defs>
<clipPath id="clip0">
<rect width="100" height="100" fill="white"/>
</clipPath>
</defs>
</svg>
