<?xml version="1.0" encoding="UTF-8"?>
<svg width="100px" height="100px" viewBox="0 0 100 100" version="1.1" xmlns="http://www.w3.org/2000/svg" xmlns:xlink="http://www.w3.org/1999/xlink">
    <!-- Generator: Sketch 57.1 (83088) - https://sketch.com -->
    <title>solid/headphones-solid</title>
    <desc>Created with Sketch.</desc>
    <g id="solid/headphones" stroke="none" stroke-width="1" fill="none" fill-rule="evenodd">
        <path d="M21.08,59.11 L31.75,59.11 C33.9917377,59.1153312 35.8206015,60.876425 35.9343961,63.0910864 L35.94,63.3 L35.94,95.81 C35.9346688,98.0517378 34.173575,99.8806015 31.9589136,99.9943962 L31.75,100 L21.08,100 C17.8526701,99.9734363 15.2288913,97.4224021 15.0859256,94.2241597 L15.08,94 L15.08,65.11 C15.1117771,61.8848573 17.6599723,59.2640856 20.8559941,59.1162764 L21.08,59.11 L31.75,59.11 L21.08,59.11 Z M78.25,59.11 C81.5694972,59.1428637 84.2446847,61.8403445 84.25,65.16 L84.25,94 C84.25,97.3137085 81.5637085,100 78.25,100 L67.57,100 C65.2598331,99.9944865 63.39,98.1201735 63.39,95.81 L63.39,63.3 C63.39,60.9898265 65.2598331,59.1155135 67.57,59.11 L78.25,59.11 Z M49.66,-4.9999997e-08 C74.0686861,0.0272685886 93.8968346,19.6072188 94.3230388,43.9217617 L94.33,44.66 L94.33,82.82 C94.2146962,85.3070642 92.1647356,87.2641876 89.675,87.2641876 C87.258492,87.2641876 85.2562702,85.4204961 85.0351566,83.0380353 L85.02,82.82 L85.02,44.66 C85.02,25.1312112 69.1887888,9.29999996 49.66,9.29999996 C30.3264991,9.29999996 14.6169939,24.8161701 14.3047372,44.0752577 L14.3,44.66 L14.3,82.82 C14.2999999,85.3881241 12.218124,87.47 9.64999996,87.47 C7.15321268,87.47 5.11603492,85.5021775 5.00478491,83.0328506 L4.99999996,82.82 L4.99999996,44.66 C5.03305207,20.0086667 25.0086667,0.0330520616 49.66,-4.9999997e-08 Z" id="Shape" fill="#000000"></path>
    </g>
</svg>