<svg width="100" height="100" viewBox="0 0 100 100" fill="none" xmlns="http://www.w3.org/2000/svg">
<g clip-path="url(#clip0)">
<path d="M90.3766 84.9647C89.5956 84.9678 88.8456 84.659 88.2934 84.1067C87.7411 83.5545 87.4323 82.8045 87.4354 82.0235V43.4235C87.4354 22.6901 70.6277 5.88235 49.8942 5.88235C29.1608 5.88235 12.3531 22.6901 12.3531 43.4235V82.0235C12.3531 83.6479 11.0362 84.9647 9.41188 84.9647C7.78751 84.9647 6.4707 83.6479 6.4707 82.0235V43.4235C6.4707 19.4414 25.9121 0 49.8942 0C73.8764 0 93.3178 19.4414 93.3178 43.4235V82.0235C93.3209 82.8045 93.012 83.5545 92.4598 84.1067C91.9075 84.659 91.1576 84.9678 90.3766 84.9647Z" fill="black"/>
<path fill-rule="evenodd" clip-rule="evenodd" d="M31.3059 100H21.8941C17.6735 99.9937 14.2535 96.5738 14.2471 92.3531V65.106C14.2471 60.8827 17.6708 57.459 21.8941 57.459H31.3059C34.2271 57.4655 36.5935 59.8319 36.6 62.7531V94.706C36.5935 97.6272 34.2271 99.9937 31.3059 100ZM21.8941 63.3413C20.9195 63.3413 20.1294 64.1314 20.1294 65.106V92.3531C20.1294 93.3277 20.9195 94.1178 21.8941 94.1178H30.6941V63.3413H21.8941Z" fill="black"/>
<path fill-rule="evenodd" clip-rule="evenodd" d="M68.4592 100H77.8709C82.0916 99.9937 85.5115 96.5738 85.518 92.3531V65.106C85.518 60.8827 82.0943 57.459 77.8709 57.459H68.4592C65.538 57.4655 63.1715 59.8319 63.165 62.7531V94.706C63.1715 97.6272 65.538 99.9937 68.4592 100ZM77.8709 94.1178H69.0709V63.3413H77.8709C78.8455 63.3413 79.6356 64.1314 79.6356 65.106V92.3531C79.6356 93.3277 78.8455 94.1178 77.8709 94.1178Z" fill="black"/>
</g>
<defs>
<clipPath id="clip0">
<rect width="100" height="100" fill="white"/>
</clipPath>
</defs>
</svg>
