<svg width="100" height="100" viewBox="0 0 100 100" fill="none" xmlns="http://www.w3.org/2000/svg">
<g clip-path="url(#clip0)">
<path d="M49.8619 0C23.9934 0.0304443 3.03044 20.9934 3 46.8619V83.116C3 86.3037 4.71737 89.2441 7.49303 90.8116C10.2687 92.3791 13.6733 92.3307 16.4033 90.6851V92.8177C16.4094 96.7818 19.6215 99.9939 23.5856 100H32.4254C35.1691 99.9939 37.3917 97.7713 37.3978 95.0276V65.0166C37.3917 62.2729 35.1691 60.0503 32.4254 60.0442H23.5856C22.584 60.042 21.5934 60.2529 20.6796 60.663V46.8619C20.6796 30.7449 33.7449 17.6796 49.8619 17.6796C65.9788 17.6796 79.0442 30.7449 79.0442 46.8619V60.663C78.1304 60.2529 77.1397 60.042 76.1381 60.0442H67.2983C64.5547 60.0503 62.332 62.2729 62.326 65.0166V95.0276C62.332 97.7713 64.5547 99.9939 67.2983 100H76.1381C80.1023 99.9939 83.3144 96.7818 83.3204 92.8177V90.6851C86.0505 92.3307 89.4551 92.3791 92.2307 90.8116C95.0064 89.2441 96.7238 86.3037 96.7238 83.116V46.8619C96.6933 20.9934 75.7304 0.0304443 49.8619 0Z" fill="black"/>
</g>
<defs>
<clipPath id="clip0">
<rect width="100" height="100" fill="white"/>
</clipPath>
</defs>
</svg>
