<svg width="100" height="100" viewBox="0 0 100 100" fill="none" xmlns="http://www.w3.org/2000/svg">
<path fill-rule="evenodd" clip-rule="evenodd" d="M100 32.4706C100 58.1412 64.5765 84.8588 53.7294 92.4706C52.6322 93.222 51.3298 93.6165 50 93.6C48.6652 93.6026 47.3623 93.1916 46.2706 92.4235C35.4118 84.8235 0 58.1412 0 32.4706C0 25.4502 2.78886 18.7173 7.75306 13.7531C12.7173 8.78886 19.4502 6 26.4706 6C33.491 6 40.2239 8.78886 45.1881 13.7531C47.1413 15.7062 48.7577 17.9332 50 20.3437C51.2423 17.9332 52.8587 15.7062 54.8119 13.7531C59.7761 8.78886 66.509 6 73.5294 6C80.5499 6 87.2828 8.78886 92.2469 13.7531C97.2111 18.7173 100 25.4502 100 32.4706ZM50 35.4118C49.22 35.4118 48.4719 35.1019 47.9203 34.5503C47.3687 33.9987 47.0588 33.2506 47.0588 32.4706C47.0588 27.0103 44.8897 21.7735 41.0287 17.9125C37.1676 14.0515 31.9309 11.8824 26.4706 11.8824C21.0103 11.8824 15.7736 14.0515 11.9125 17.9125C8.05146 21.7735 5.88235 27.0103 5.88235 32.4706C5.88235 55.8824 42.3529 82.4706 49.6353 87.6118C49.7434 87.6836 49.8702 87.7219 50 87.7219C50.1298 87.7219 50.2566 87.6836 50.3647 87.6118C57.6471 82.4706 94.1177 55.8824 94.1177 32.4706C94.1177 27.0103 91.9485 21.7735 88.0875 17.9125C84.2265 14.0515 78.9898 11.8824 73.5294 11.8824C68.0691 11.8824 62.8324 14.0515 58.9713 17.9125C55.1103 21.7735 52.9412 27.0103 52.9412 32.4706C52.9412 33.2506 52.6313 33.9987 52.0797 34.5503C51.5282 35.1019 50.78 35.4118 50 35.4118Z" fill="black"/>
</svg>
