<?xml version="1.0" encoding="UTF-8"?>
<svg width="100px" height="100px" viewBox="0 0 100 100" version="1.1" xmlns="http://www.w3.org/2000/svg" xmlns:xlink="http://www.w3.org/1999/xlink">
    <!-- Generator: Sketch 57.1 (83088) - https://sketch.com -->
    <title>solid/heart-solid</title>
    <desc>Created with Sketch.</desc>
    <g id="solid/heart" stroke="none" stroke-width="1" fill="none" fill-rule="evenodd">
        <path d="M70.83,4.99999971 C62.9869711,4.99898451 55.4758308,8.16498605 49.9999941,13.78 C41.7150777,5.30049111 29.120059,2.68308854 18.1427022,7.15965466 C7.16534531,11.6362208 -0.00750642357,22.3149609 -5.93587571e-06,34.17 C-5.93587571e-06,58.9999997 30.37,82.84 43.42,91.9999997 C47.376823,94.7463292 52.623177,94.7463292 56.58,91.9999997 C65.249853,85.9206456 73.3407602,79.0549234 80.75,71.49 C93.52,58.2 99.9999941,45.65 99.9999941,34.17 C99.9834641,18.0667082 86.9332918,5.01653595 70.83,4.99999971 Z M50,76.17 C33,63.67 16.67,46.44 16.67,34.17 C16.67,27.2664406 22.2664406,21.67 29.17,21.67 C36.0735594,21.67 41.67,27.2664406 41.67,34.17 C41.67,38.7705319 45.3994681,42.4999997 50,42.4999997 C54.6005319,42.4999997 58.3299999,38.7705319 58.33,34.17 C58.33,27.2664406 63.9264406,21.67 70.83,21.67 C77.7335594,21.67 83.33,27.2664406 83.33,34.17 C83.33,46.44 67,63.67 50,76.17 Z" id="heart" fill="#000000"></path>
    </g>
</svg>