<?xml version="1.0" encoding="UTF-8"?>
<svg width="100px" height="100px" viewBox="0 0 100 100" version="1.1" xmlns="http://www.w3.org/2000/svg" xmlns:xlink="http://www.w3.org/1999/xlink">
    <!-- Generator: Sketch 57.1 (83088) - https://sketch.com -->
    <title>regular/heart-regular</title>
    <desc>Created with Sketch.</desc>
    <g id="regular/heart" stroke="none" stroke-width="1" fill="none" fill-rule="evenodd">
        <path d="M73.81,6.49999996 C63.5652311,6.50836926 54.2644173,12.4849527 50,21.8 C44.8872389,10.5886541 32.6484559,4.46016263 20.6085953,7.08244426 C8.56873479,9.70472589 -0.0128260708,20.3678882 -1.44080286e-05,32.69 C-1.44080286e-05,58.38 35.64,85.25 46.57,92.87 C48.6311836,94.3061123 51.3688164,94.3061123 53.43,92.87 C64.36,85.25 100,58.38 100,32.69 C99.9834677,18.2325158 88.2674842,6.51653226 73.81,6.49999996 Z M76.56,67.09 C68.6304329,75.1583506 59.9775187,82.4823646 50.71,88.97 C50.2808834,89.2593391 49.7191166,89.2593391 49.29,88.97 C40.0198259,82.485811 31.3666068,75.1615389 23.44,67.09 C11.05,54.2 4.75999995,42.63 4.75999995,32.69 C4.75999995,20.8545378 14.3545378,11.26 26.19,11.26 C38.0254622,11.26 47.62,20.8545378 47.62,32.69 C47.62,34.0044377 48.6855623,35.07 50,35.07 C51.3144377,35.07 52.38,34.0044377 52.38,32.69 C52.38,20.8545378 61.9745378,11.26 73.81,11.26 C85.6454622,11.26 95.24,20.8545378 95.24,32.69 C95.24,42.63 89,54.2 76.56,67.09 Z" id="heart" fill="#000000"></path>
    </g>
</svg>