<?xml version="1.0" encoding="UTF-8"?>
<svg width="100px" height="100px" viewBox="0 0 100 100" version="1.1" xmlns="http://www.w3.org/2000/svg" xmlns:xlink="http://www.w3.org/1999/xlink">
    <!-- Generator: Sketch 57.1 (83088) - https://sketch.com -->
    <title>bold/heart-bold</title>
    <desc>Created with Sketch.</desc>
    <g id="bold/heart" stroke="none" stroke-width="1" fill="none" fill-rule="evenodd">
        <path d="M72.73,5.99999996 C63.5829939,6.00186802 55.046624,10.5911527 49.9999948,18.22 C43.3628674,8.18038499 30.9273756,3.68128635 19.4029469,7.15013939 C7.87851824,10.6189924 -0.00737804832,21.2348289 -5.22270423e-06,33.27 C-5.22270423e-06,58.89 34.77,85.15 45.42,92.58 C48.1711796,94.5010164 51.8288204,94.5010164 54.58,92.58 C65.23,85.15 99.9999948,58.89 99.9999948,33.27 C99.9834663,18.2160487 87.7839514,6.01653369 72.73,5.99999996 Z M73.73,64.53 C66.4444016,71.9521441 58.5020045,78.6996673 50,84.69 C41.5049315,78.6986988 33.5692602,71.9512027 26.29,64.53 C15,52.84 9.08999996,42 9.08999996,33.27 C9.08999996,23.2294632 17.2294632,15.09 27.27,15.09 C37.3105367,15.09 45.45,23.2294632 45.45,33.27 C45.45,35.7828956 47.4871044,37.82 50,37.82 C52.5128956,37.82 54.55,35.7828956 54.55,33.27 C54.55,23.2294632 62.6894633,15.09 72.73,15.09 C82.7705368,15.09 90.91,23.2294632 90.91,33.27 C90.91,42 85,52.84 73.71,64.53 L73.73,64.53 Z" id="heart" fill="#000000"></path>
    </g>
</svg>