<svg width="100" height="100" viewBox="0 0 100 100" fill="none" xmlns="http://www.w3.org/2000/svg">
<g clip-path="url(#clip0)">
<path d="M28.8438 4.67722C35.4672 1.58477 42.6902 -0.0120299 50 6.82357e-05C77.6142 6.82357e-05 100 22.3859 100 50.0001C100 77.6144 77.6142 100 50 100C22.3858 100 0 77.6144 0 50.0001C0 45.3978 3.73096 41.6668 8.33333 41.6668C12.9357 41.6668 16.6667 45.3978 16.6667 50.0001C16.6665 64.5111 26.054 77.355 39.8801 81.7606C53.7061 86.1661 68.7938 81.1208 77.1888 69.2848C85.5838 57.4487 85.3571 41.5415 76.6282 29.9494C67.8994 18.3573 52.6741 13.7441 38.9792 18.5418C39.9386 21.0992 39.5838 23.9645 38.0296 26.2107C36.4753 28.4568 33.919 29.7987 31.1875 29.8022C30.839 29.8015 30.491 29.7771 30.1458 29.7293L20.2188 28.4272C19.9271 28.3856 19.6354 28.3335 19.3542 28.271C17.7028 27.9356 16.1919 27.1075 15.0208 25.896L14.8438 25.6981C14.7445 25.5917 14.6506 25.4805 14.5625 25.3647L14.4479 25.2397L14.2083 24.9585C12.7336 23.0541 12.0878 20.6362 12.4167 18.2501L13.7188 8.33347C14.1632 4.91163 16.6706 2.11765 20.0246 1.30687C23.3786 0.496097 26.8853 1.83624 28.8438 4.67722Z" fill="black"/>
<path d="M36.6563 57.802L49.2813 62.4999L64.5834 53.8749C68.5903 51.5881 69.9848 46.486 67.698 42.4791C65.4112 38.4721 60.3091 37.0777 56.3021 39.3645L47.8334 44.177L42.5105 42.177C38.1957 40.5604 33.3875 42.7477 31.7709 47.0624C30.1543 51.3771 32.3416 56.1854 36.6563 57.802Z" fill="black"/>
</g>
<defs>
<clipPath id="clip0">
<rect width="100" height="100" fill="white"/>
</clipPath>
</defs>
</svg>
