<?xml version="1.0" encoding="UTF-8"?>
<svg width="100px" height="100px" viewBox="0 0 100 100" version="1.1" xmlns="http://www.w3.org/2000/svg" xmlns:xlink="http://www.w3.org/1999/xlink">
    <!-- Generator: Sketch 57.1 (83088) - https://sketch.com -->
    <title>regular/history-regular</title>
    <desc>Created with Sketch.</desc>
    <g id="regular/history" stroke="none" stroke-width="1" fill="none" fill-rule="evenodd">
        <path d="M50,-0.000115044225 C77.6142375,-0.000115044225 100,22.3857625 100,50 C100,77.6142375 77.6142375,100 50,100 C22.3857625,100 -4.9999997e-08,77.6142375 -4.9999997e-08,50 C-4.9999997e-08,48.6855623 1.06556225,47.62 2.37999995,47.62 C3.69443766,47.62 4.75999995,48.6855623 4.75999995,50 C4.75259076,71.028832 19.2392399,89.2887723 39.7186634,94.0642347 C60.1980869,98.8396971 81.267238,88.8707806 90.5619851,70.007602 C99.8567321,51.1444234 94.9248599,28.3636188 78.6605675,15.0337792 C62.3962752,1.70393967 39.0905395,1.34185107 22.42,14.16 L28.86,15 C30.020901,15.2475633 30.8241923,16.3096227 30.7463999,17.494075 C30.6686074,18.6785273 29.733308,19.6263995 28.55,19.72 L28.24,19.72 L16.89,18.23 L16.56,18.15 C16.0277582,18.081185 15.534397,17.8345043 15.16,17.45 C15.0946465,17.3812149 15.0344816,17.3076801 14.98,17.23 L14.76,17 C14.2399883,16.3229295 14.0130675,15.4656732 14.13,14.62 L15.62,3.27999995 C15.7912082,1.97660794 16.986608,1.05879168 18.29,1.22999995 C19.593392,1.40120822 20.5112082,2.59660794 20.34,3.89999995 L19.48,10.4 C28.2170702,3.64202317 38.9543509,-0.0168142817 50,-0.000115044225 Z M73,33.07 C74.1542751,32.4293497 75.6093497,32.8457249 76.25,34 C76.8906503,35.1542751 76.4742751,36.6093497 75.32,37.25 L50.6,51.25 L31.59,44.11 C30.358405,43.6460808 29.7360809,42.271595 30.2000001,41.04 C30.6639192,39.8084051 32.038405,39.1860809 33.27,39.65 L50.19,46 L73,33.07 Z" id="Shape" fill="#000000"></path>
    </g>
</svg>