<?xml version="1.0" encoding="UTF-8"?>
<svg width="100px" height="100px" viewBox="0 0 100 100" version="1.1" xmlns="http://www.w3.org/2000/svg" xmlns:xlink="http://www.w3.org/1999/xlink">
    <!-- Generator: Sketch 57.1 (83088) - https://sketch.com -->
    <title>bold/history-bold</title>
    <desc>Created with Sketch.</desc>
    <g id="bold/history" stroke="none" stroke-width="1" fill="none" fill-rule="evenodd">
        <path d="M50.4950495,0.49497154 C77.8358787,0.49497154 100,22.6591708 100,50 C100,77.3408292 77.8358787,99.5049505 50.4950495,99.5049505 C23.1542203,99.5049505 0.990098961,77.3408292 0.990098961,50 C0.912304114,48.3419472 1.75257888,46.7754404 3.17692884,45.9231386 C4.6012788,45.0708367 6.37891913,45.0708367 7.80326909,45.9231386 C9.22761905,46.7754404 10.0678938,48.3419472 9.99009897,50 C9.99996206,68.2825834 22.2559735,84.2922692 39.9023041,89.0734791 C57.5486347,93.8546891 76.2104424,86.2220753 85.4485914,70.4452076 C94.6867405,54.6683399 92.210928,34.658587 79.4060864,21.609105 C66.6012447,8.55962288 46.641924,5.70561244 30.6930693,14.6435643 L30.8118812,14.6435643 C33.1591183,14.9566707 34.8632592,17.0335782 34.7119732,19.3967689 C34.5606873,21.7599596 32.6056253,23.6026135 30.2376237,23.6138614 L29.6435643,23.6138614 L18.920792,22.1980198 C18.7235294,22.1770117 18.5282136,22.1405969 18.3366336,22.0891089 C17.4295072,21.9189361 16.598501,21.4688078 15.960396,20.8019802 C15.9154913,20.756959 15.8756501,20.7071574 15.8415841,20.6534653 C14.6985422,19.4974956 14.1508392,17.879946 14.3564356,16.2673267 L15.7821782,5.54455441 C16.2536353,3.22453997 18.4404059,1.66527637 20.7874117,1.9756027 C23.1344176,2.28592902 24.8407869,4.35995223 24.6930693,6.72277223 L24.5445544,7.84158412 C32.3434279,3.02761335 41.3300831,0.483508766 50.4950495,0.49497154 Z M71.0891089,32.0396039 C72.4919687,31.1839041 74.2494649,31.1599305 75.6751431,31.9770469 C77.1008213,32.7941634 77.9684909,34.3227304 77.9392516,35.9657103 C77.9100124,37.6086901 76.9885033,39.1054161 75.5346535,39.8712871 L51.2574257,53.6534654 L32.3069307,46.5445545 C30.7342441,46.0284171 29.5712643,44.6914083 29.2780046,43.062378 C28.984745,41.4333478 29.6084436,39.7746993 30.9023982,38.7425064 C32.1963528,37.7103135 33.9521341,37.4708411 35.4752475,38.1188119 L50.4950495,43.7524752 L71.0891089,32.0396039 Z" id="Shape" fill="#000000"></path>
    </g>
</svg>