<svg width="100" height="100" viewBox="0 0 100 100" fill="none" xmlns="http://www.w3.org/2000/svg">
<path fill-rule="evenodd" clip-rule="evenodd" d="M27.6876 59.9288H40.316C41.1629 59.9276 41.9885 59.7231 42.7285 59.3428C43.2131 59.0935 43.6609 58.7684 44.0536 58.3755C45.0451 57.3828 45.6037 56.0386 45.6072 54.6347V41.7762C45.6037 40.3734 45.0451 39.028 44.0536 38.0365C43.4743 37.4563 42.7744 37.0244 42.0137 36.7659C41.4717 36.5809 40.8988 36.4832 40.316 36.4821H27.6876C27.1807 36.4821 26.6812 36.5545 26.2035 36.6946C25.8642 36.7934 25.5358 36.9267 25.2229 37.091C24.9629 37.2289 24.7137 37.3874 24.4783 37.5678C24.3549 37.662 24.2349 37.762 24.1195 37.8677L23.9461 38.0331C23.4357 38.5444 23.0401 39.1487 22.7766 39.8058C22.528 40.4262 22.3965 41.0949 22.3965 41.7762V54.6347C22.3965 56.0386 22.954 57.3851 23.9461 58.3789C24.5036 58.9361 25.173 59.3566 25.901 59.6174C26.4688 59.8219 27.0728 59.9288 27.6876 59.9288ZM39.7046 54.0464H28.252V42.3529H39.7046V54.0464Z" fill="black"/>
<path fill-rule="evenodd" clip-rule="evenodd" d="M71.8859 59.9288H59.246C57.8434 59.9265 56.4994 59.367 55.5079 58.3755C54.5164 57.3828 53.9578 56.0386 53.9549 54.6347V41.7762C53.9578 40.3734 54.5164 39.028 55.5079 38.0365C56.4994 37.0439 57.8434 36.4855 59.246 36.4821H71.8859C73.2885 36.4855 74.6325 37.0439 75.624 38.0365C76.1625 38.5754 76.5736 39.2188 76.8371 39.9184C77.0587 40.5067 77.1759 41.1351 77.177 41.7762V54.6347C77.1741 56.0386 76.6155 57.3828 75.624 58.3755C74.6325 59.367 73.2885 59.9265 71.8859 59.9288ZM59.8339 54.0464H71.298V42.3529H59.8339V54.0464Z" fill="black"/>
<path fill-rule="evenodd" clip-rule="evenodd" d="M96.6438 52.9148C96.7735 52.932 96.905 52.9412 97.0365 52.9412C97.6221 52.9435 98.1951 52.7723 98.6825 52.4472C99.1699 52.1232 99.55 51.6613 99.7745 51.1202C99.9989 50.5791 100.058 49.9828 99.9427 49.4083C99.8279 48.8339 99.5448 48.3077 99.1297 47.8941L53.1672 1.31779C52.7538 0.899595 52.2612 0.566415 51.7181 0.341231C51.175 0.114898 50.5928 -0.00114045 50.0044 8.44858e-06C49.6783 8.44858e-06 49.3522 0.0356243 49.0352 0.105707C48.9773 0.118345 48.921 0.132132 48.8636 0.147067C48.6689 0.198768 48.4772 0.263106 48.2906 0.341231C47.945 0.484843 47.62 0.672113 47.3226 0.896148C47.2532 0.948997 47.1831 1.00529 47.1171 1.06159C47.0218 1.14316 46.9299 1.22818 46.8415 1.31779L26.5704 21.8371V21.0007C26.5704 19.7174 26.0617 18.4858 25.1558 17.577C24.2498 16.6682 23.0206 16.1569 21.738 16.1535H16.5646C15.2837 16.1592 14.0574 16.6728 13.1543 17.5816C12.7846 17.9538 12.4814 18.3789 12.2518 18.8396C11.9205 19.5048 11.7437 20.2436 11.7437 21.0007V36.8463L8.62792 40V40.0425L0.879559 47.8941C0.60111 48.1675 0.380072 48.4938 0.229078 48.8534C0.0780838 49.213 0.000577289 49.599 3.16637e-06 49.9897C-0.000570956 50.3791 0.0769356 50.7663 0.227356 51.1259C0.377776 51.4855 0.598239 51.813 0.87554 52.0864C1.15342 52.3598 1.48296 52.5758 1.84466 52.7217C2.20636 52.8665 2.59389 52.9389 2.98372 52.9331C3.37355 52.9274 3.75821 52.8435 4.11589 52.6873C4.47299 52.531 4.79565 52.3058 5.06549 52.0232L8.62792 48.4134V92.4472C8.6216 94.4416 9.407 96.358 10.8113 97.7734C12.2156 99.19 14.124 99.9908 16.1179 100H83.4441C85.4392 99.9908 87.3487 99.19 88.7553 97.7746C90.1614 96.3591 90.9491 94.4428 90.9462 92.4472V48.0055L94.9438 52.0588C95.2159 52.338 95.5415 52.5597 95.9009 52.7114C96.1391 52.8114 96.3889 52.8803 96.6438 52.9148ZM50.0044 6.49357L85.0672 42.045V92.4472C85.07 92.6631 85.0304 92.878 84.9506 93.079C84.8708 93.2801 84.752 93.4639 84.6016 93.619C84.4506 93.7741 84.2709 93.8982 84.0722 93.9832C83.8741 94.0694 83.6606 94.1142 83.4441 94.1177H59.7639V79.2234C59.7639 78.2698 59.4831 77.3461 58.9676 76.5614C58.8682 76.4097 58.7597 76.2638 58.6432 76.1236C58.5513 76.0133 58.4549 75.9065 58.3532 75.8042C57.4496 74.8955 56.2233 74.3819 54.943 74.3762H44.6076C43.3267 74.3819 42.1004 74.8955 41.1973 75.8042C40.2937 76.713 39.7867 77.9412 39.7867 79.2234V94.1177H16.1179C15.6833 94.1085 15.2699 93.9281 14.9685 93.6144C14.6665 93.3019 14.5006 92.8814 14.5069 92.4472V42.4586L16.4854 40.4538C16.5933 40.3734 16.6955 40.2861 16.7919 40.1907C16.9085 40.0758 17.0147 39.9518 17.11 39.8208L25.5967 31.2224L25.7098 31.1156L25.7833 31.0398L25.8424 30.9743L50.0044 6.49357ZM53.8963 94.1177H45.6657V80.2585H53.8963V94.1177ZM20.6914 27.7884L17.6698 30.8467V22.0359H20.6914V27.7884Z" fill="black"/>
</svg>
