<svg width="100" height="100" viewBox="0 0 100 100" fill="none" xmlns="http://www.w3.org/2000/svg">
<path d="M98.1413 47.1749L55.6221 2.44031C54.1351 0.878704 52.1087 0 49.9946 0C47.8804 0 45.854 0.878704 44.367 2.44031L26.9679 20.7794C26.1523 19.9389 25.0499 19.4677 23.9013 19.4686H19.073C16.6071 19.4811 14.6144 21.5617 14.6145 24.124V33.7512L1.85869 47.1749C-0.65134 49.8433 -0.614535 54.1176 1.94104 56.7388C4.49662 59.3601 8.61027 59.3429 11.1455 56.7004L11.7218 56.0902V92.7457C11.7158 96.7371 14.8185 99.9813 18.6598 100H43.2796V80.0451C43.2767 79.5626 43.4584 79.0987 43.7847 78.7554C44.111 78.4121 44.5551 78.2176 45.0195 78.2146H54.5782C55.5426 78.227 56.3181 79.0429 56.3181 80.0451V100H80.927C84.7682 99.9813 87.871 96.7371 87.8649 92.7457V55.6495L88.8545 56.7004C91.3897 59.3429 95.5034 59.3601 98.059 56.7388C100.615 54.1176 100.651 49.8433 98.1413 47.1749ZM43.2143 56.4292C43.2143 57.6773 42.2406 58.6891 41.0394 58.6891H29.3385C28.1373 58.6891 27.1636 57.6773 27.1636 56.4292V44.0676C27.1636 42.8195 28.1373 41.8077 29.3385 41.8077H41.0394C42.2406 41.8077 43.2143 42.8195 43.2143 44.0676V56.4292ZM72.4123 56.4292C72.4123 57.6773 71.4386 58.6891 70.2374 58.6891H58.5473C57.3462 58.6891 56.3724 57.6773 56.3724 56.4292V44.0676C56.3724 42.8195 57.3462 41.8077 58.5473 41.8077H70.2374C71.4386 41.8077 72.4123 42.8195 72.4123 44.0676V56.4292Z" fill="black"/>
</svg>
