<?xml version="1.0" encoding="UTF-8"?>
<svg width="100px" height="100px" viewBox="0 0 100 100" version="1.1" xmlns="http://www.w3.org/2000/svg" xmlns:xlink="http://www.w3.org/1999/xlink">
    <!-- Generator: Sketch 57.1 (83088) - https://sketch.com -->
    <title>solid/home-solid</title>
    <desc>Created with Sketch.</desc>
    <g id="solid/home" stroke="none" stroke-width="1" fill="none" fill-rule="evenodd">
        <path d="M53.7920792,78.3762377 L53.7920792,99.5049505 L44.8019802,99.5049505 L44.8019802,78.3762377 L53.7920792,78.3762377 Z M49.5049505,0.494983624 L49.7840987,0.500706217 C51.2685361,0.56621671 52.6773343,1.19185447 53.7227723,2.25742569 L89.1089109,38.0495049 L97.7128713,46.8019802 L97.8118812,46.8316832 C99.0145421,47.9611466 99.5035723,49.6576897 99.0866207,51.2540079 C98.6696691,52.8503262 97.4134459,54.0910165 95.8120638,54.4880757 C94.2106817,54.8851349 92.5203541,54.3750355 91.4059406,53.1584158 L90.4158416,52.1683168 L90.4158416,90.5940594 C90.4158416,95.5154087 86.4262998,99.5049505 81.5049505,99.5049505 L58.2970297,99.5049505 L58.2970297,77.9504951 C58.2996588,76.8738727 57.874492,75.8403019 57.1150618,75.0771581 C56.3556317,74.3140144 55.3241471,73.8838108 54.2475248,73.8811881 L44.3465346,73.8811881 C42.1068555,73.892087 40.2970032,75.7107894 40.2970297,77.9504951 L40.2970297,99.5049505 L17.1287128,99.5049505 C12.2073636,99.5049505 8.21782174,95.5154087 8.21782174,90.5940594 L8.21782174,52.6039604 L7.70297025,53.1287129 C5.93738223,54.7868421 3.17670856,54.7521171 1.45338586,53.0501029 C-0.269936827,51.3480887 -0.339005175,48.5880607 1.29702965,46.8019802 L9.51485144,38.4752475 L11.2079208,36.7722772 L11.2079208,22.2772277 C11.2026615,20.6001858 11.8645014,18.9898853 13.0475659,17.8012491 C14.2306303,16.612613 15.8378033,15.9432144 17.5148515,15.940594 L22.4653465,15.940594 C24.9151722,15.9453759 27.139855,17.3705633 28.1683168,19.5940594 L45.2871287,2.25742569 C46.3979066,1.12525627 47.918884,0.48973048 49.5049505,0.494983624 Z M40.6831683,39.8811881 L27.7227723,39.8811881 C26.7298162,39.8865994 25.9262034,40.6902122 25.9207921,41.6831683 L25.9207921,54.8811881 C25.9207921,55.8763943 26.7275661,56.6832228 27.7227723,56.6832228 L40.6831683,56.6832228 C41.1618913,56.6858206 41.6217747,56.4968215 41.9602882,56.158308 C42.2988017,55.8197945 42.4878008,55.3599111 42.485203,54.8811881 L42.485203,41.6831683 C42.485203,40.6879621 41.6783745,39.8811881 40.6831683,39.8811881 Z M70.8910891,39.8811881 L57.9009901,39.8811881 C56.9057839,39.8811881 56.0989554,40.6879621 56.0989554,41.6831683 L56.0989554,54.8811881 C56.0963576,55.3599111 56.2853568,55.8197945 56.6238703,56.158308 C56.9623837,56.4968215 57.4222671,56.6858206 57.9009901,56.6832228 L70.8910891,56.6832228 C71.8862953,56.6832228 72.6930693,55.8763943 72.6930693,54.8811881 L72.6930693,41.6831683 C72.687658,40.6902122 71.8840452,39.8865994 70.8910891,39.8811881 Z" id="Shape" fill="#000000"></path>
    </g>
</svg>