<?xml version="1.0" encoding="UTF-8"?>
<svg width="100px" height="100px" viewBox="0 0 100 100" version="1.1" xmlns="http://www.w3.org/2000/svg" xmlns:xlink="http://www.w3.org/1999/xlink">
    <!-- Generator: Sketch 57.1 (83088) - https://sketch.com -->
    <title>regular/hourglass-regular</title>
    <desc>Created with Sketch.</desc>
    <g id="regular/hourglass" stroke="none" stroke-width="1" fill="none" fill-rule="evenodd">
        <path d="M87.11,95.24 L79.11,95.24 L79.11,79.12 C79.0956397,75.0579159 77.3495779,71.1947541 74.31,68.5 L53.57,50 L74.31,31.5 C77.3310353,28.7961984 79.0583524,24.934281 79.06,20.88 L79.06,4.75999995 L87.06,4.75999995 C88.3744377,4.75999995 89.44,3.69443766 89.44,2.37999995 C89.44,1.06556225 88.3744377,-4.9999997e-08 87.06,-4.9999997e-08 L12.88,-4.9999997e-08 C11.5655623,-4.9999997e-08 10.5,1.06556225 10.5,2.37999995 C10.5,3.69443766 11.5655623,4.75999995 12.88,4.75999995 L20.93,4.75999995 L20.93,20.88 C20.9316476,24.934281 22.6589647,28.7961984 25.68,31.5 L46.42,50 L25.68,68.5 C24.936832,69.1856679 24.2665972,69.9463843 23.68,70.77 L23.63,70.86 C21.9061013,73.2692102 20.9794553,76.1575483 20.98,79.12 L20.98,95.24 L12.98,95.24 C11.6655623,95.24 10.6,96.3055623 10.6,97.62 C10.6,98.9344378 11.6655623,100 12.98,100 L87.11,100 C88.4244377,100 89.49,98.9344378 89.49,97.62 C89.49,96.3055623 88.4244377,95.24 87.11,95.24 Z M28.85,28 C26.8392945,26.1998637 25.69,23.6287825 25.69,20.93 L25.69,4.75999995 L74.300129,4.75999995 L74.300129,20.88 C74.3141505,23.5961956 73.1637394,26.1882611 71.14,28 L49.99,46.81 L28.85,28 Z M74.3,95.24 L25.6899974,95.24 L25.6899974,79.12 C25.6888064,77.5091187 26.1020501,75.9250179 26.89,74.52 L44.67,74.52 C46.2937172,74.52 47.61,75.8362829 47.61,77.46 L47.61,79.37 C47.6155178,83.6242097 51.0657868,87.0700036 55.32,87.07 L74.32,87.07 L74.3,95.24 Z M74.3,82.31 L55.3,82.31 C53.6762828,82.31 52.36,80.9937172 52.36,79.37 L52.36,77.46 C52.3544822,73.2057904 48.9042132,69.7599964 44.65,69.76 L31.43,69.76 L49.99,53.19 L71.14,72.05 C73.1507055,73.8501363 74.3,76.4212175 74.3,79.12 L74.3,82.31 Z" id="hourglass" fill="#000000"></path>
    </g>
</svg>