<svg width="100" height="100" viewBox="0 0 100 100" fill="none" xmlns="http://www.w3.org/2000/svg">
<g clip-path="url(#clip0)">
<path fill-rule="evenodd" clip-rule="evenodd" d="M25.1885 32.2L45.1803 50.0031L25.2002 67.847C24.5943 68.3839 24.0354 68.971 23.5295 69.602C23.1781 69.9108 22.901 70.3021 22.7285 70.7457C21.1422 73.135 20.2962 75.9456 20.3057 78.8237V94.1177H12.9412C11.3168 94.1177 10 95.4345 10 97.0589C10 98.6832 11.3168 100 12.9412 100H23.2226L23.247 100L23.2714 100H75.9636L75.9881 100L76.0122 100H86.2939C87.9183 100 89.2351 98.6832 89.2351 97.0589C89.2351 95.4345 87.9183 94.1177 86.2939 94.1177H78.9292V84.3544L78.9297 84.3293V78.8235C78.9569 74.6141 77.1692 70.5971 74.0235 67.7999L53.9885 49.9583L74.0357 32.1059C77.1524 29.3283 78.9333 25.3512 78.9299 21.1765V5.88235H86.2939C87.9183 5.88235 89.2351 4.56554 89.2351 2.94118C89.2351 1.31681 87.9183 0 86.2939 0H12.9412C11.3168 0 10 1.31681 10 2.94118C10 4.56554 11.3168 5.88235 12.9412 5.88235H20.3061V21.1765C20.2727 25.3821 22.0516 29.3985 25.1885 32.2ZM26.1885 21.1765V5.88235H73.0475V21.1765C73.0746 23.704 72.0063 26.1196 70.1181 27.8L49.6642 46.0145L29.1179 27.7176C27.2513 26.0562 26.1851 23.6754 26.1885 21.1765ZM27.1826 74.753C26.5257 76.0025 26.1813 77.3997 26.1882 78.8237V94.1177H73.0469V87.2235H54.8822C50.334 87.2235 46.6469 83.5365 46.6469 78.9883V77.1059C46.6469 75.8064 45.5935 74.753 44.294 74.753H27.1826ZM73.0471 81.3412V78.8235C73.064 76.3082 71.9966 73.9075 70.1177 72.2352L49.6048 53.9454L32.8447 68.8706H44.294C48.8422 68.8706 52.5293 72.5577 52.5293 77.1059V78.9883C52.5293 80.2877 53.5827 81.3412 54.8822 81.3412H73.0471Z" fill="black"/>
</g>
<defs>
<clipPath id="clip0">
<rect width="100" height="100" fill="white"/>
</clipPath>
</defs>
</svg>
