<svg width="100" height="100" viewBox="0 0 100 100" fill="none" xmlns="http://www.w3.org/2000/svg">
<path d="M83.5326 86.9565H80.5326V76.587C80.5287 71.6446 78.4221 66.9373 74.7391 63.6413L59.4457 50L74.7391 36.3478C78.4192 33.0544 80.5256 28.3517 80.5326 23.413V13.0435H83.5326C87.1345 13.0435 90.0544 10.1236 90.0544 6.52174C90.0544 2.91988 87.1345 0 83.5326 0H15.7609C12.159 0 9.23914 2.91988 9.23914 6.52174C9.23914 10.1236 12.159 13.0435 15.7609 13.0435H18.7609V23.413C18.7679 28.3517 20.8742 33.0544 24.5544 36.3478L39.8478 50L24.5544 63.6413C23.8139 64.3044 23.1337 65.0319 22.5217 65.8152L22.413 65.9457L22.2174 66.1957L22.087 66.3478L21.9565 66.5326L21.8478 66.6957C19.8357 69.5933 18.7584 73.0374 18.7609 76.5652V86.9565H15.7609C12.159 86.9565 9.23914 89.8764 9.23914 93.4783C9.23914 97.0801 12.159 100 15.7609 100H83.5326C87.1345 100 90.0544 97.0801 90.0544 93.4783C90.0544 89.8764 87.1345 86.9565 83.5326 86.9565ZM31.8044 76.7283H43.1304V76.8152C43.1348 81.1007 45.5463 85.0205 49.3696 86.9565H31.8044V76.7283Z" fill="black"/>
</svg>
