<?xml version="1.0" encoding="UTF-8"?>
<svg width="100px" height="100px" viewBox="0 0 100 100" version="1.1" xmlns="http://www.w3.org/2000/svg" xmlns:xlink="http://www.w3.org/1999/xlink">
    <!-- Generator: Sketch 57.1 (83088) - https://sketch.com -->
    <title>brand/html-brand</title>
    <desc>Created with Sketch.</desc>
    <g id="brand/html" stroke="none" stroke-width="1" fill="none" fill-rule="evenodd">
        <path d="M68.5356,0.0001 L73.0276,0.0001 L73.0276,9.0231 L79.3946,9.0231 L79.3946,13.4771 L68.5356,13.4771 L68.5356,0.0001 Z M61.6016,0.0001 L66.3086,0.0001 L66.3086,13.4771 L61.8166,13.4771 L61.8166,6.7971 L58.6716,11.6411 L55.5266,6.7971 L55.5266,13.4771 L51.1136,13.4771 L51.1136,0.0001 L55.8206,0.0001 L58.7116,4.7461 L61.6016,0.0001 Z M36.6986,0.0001 L49.1406,0.0001 L49.1406,4.4921 L45.1566,4.4921 L45.1566,13.4771 L40.6646,13.4771 L40.6646,4.4921 L36.6986,4.4921 L36.6986,0.0001 Z M30.2346,0.0001 L34.7266,0.0001 L34.7266,13.4771 L30.2346,13.4771 L30.2346,8.9841 L26.1326,8.9841 L26.1326,13.4771 L21.6016,13.4771 L21.6016,0.0001 L26.0936,0.0001 L26.0936,4.4531 L30.2346,4.4531 L30.2346,0.0001 Z M15,19.648 L85.86,19.648 L79.414,91.953 L50.371,100 L21.445,91.992 L15,19.648 Z M28.164,34.433 L30.586,61.231 L50.391,61.231 L50.391,61.25 L61.328,61.25 L60.293,72.773 L50.411,75.425 L40.508,72.773 L39.883,65.684 L30.977,65.684 L32.227,79.61 L50.429,84.687 L50.429,84.638 L68.555,79.61 L70.996,52.383 L38.71,52.383 L37.891,43.301 L71.797,43.301 L72.617,34.433 L28.164,34.433 Z" id="Shape" fill="#000000"></path>
    </g>
</svg>