<svg width="100" height="100" viewBox="0 0 100 100" fill="none" xmlns="http://www.w3.org/2000/svg">
<path fill-rule="evenodd" clip-rule="evenodd" d="M32.1059 53.1176C29.9258 51.5044 26.8956 51.7191 24.9647 53.6235L0 78.2352V17.0588C0.00646996 14.1376 2.37294 11.7711 5.29412 11.7646H94.7059C97.6271 11.7711 99.9935 14.1376 100 17.0588V78.6588L76.9882 36.6705C76.1009 35.0513 74.4625 33.9832 72.6229 33.8248C70.7833 33.6664 68.9864 34.4386 67.8353 35.8823L45.9765 63.3176L32.1059 53.1176ZM26.5882 38.7058C26.5882 35.3336 23.8545 32.5999 20.4824 32.5999C17.1102 32.5999 14.3765 35.3336 14.3765 38.7058C14.3765 42.078 17.1102 44.8117 20.4824 44.8117C23.8545 44.8117 26.5882 42.078 26.5882 38.7058Z" fill="black"/>
<path d="M50.1881 67.4588L72.094 40L97.9293 87.0588C97.017 87.8012 95.8818 88.2155 94.7058 88.2353H5.29401C3.43976 88.2309 1.72419 87.2525 0.776367 85.6588L28.8705 58.0353L42.9881 68.4235C45.2555 70.0966 48.4412 69.6698 50.1881 67.4588Z" fill="black"/>
</svg>
