<?xml version="1.0" encoding="UTF-8"?>
<svg width="100px" height="100px" viewBox="0 0 100 100" version="1.1" xmlns="http://www.w3.org/2000/svg" xmlns:xlink="http://www.w3.org/1999/xlink">
    <!-- Generator: Sketch 57.1 (83088) - https://sketch.com -->
    <title>bold/images-bold</title>
    <desc>Created with Sketch.</desc>
    <g id="bold/images" stroke="none" stroke-width="1" fill="none" fill-rule="evenodd">
        <path d="M93.64,9.49999996 C97.1502477,9.50550624 99.9944938,12.3497523 100,15.86 L100,72.07 C100,73.7567769 99.3299305,75.3744678 98.1371992,76.5671992 C96.9444678,77.7599305 95.3267769,78.43 93.64,78.43 L88.88,78.43 L88.88,83.21 C88.8744833,86.7131023 86.0331067,89.55 82.53,89.55 L6.34999996,89.55 C2.84689333,89.55 0.00551665335,86.7131023 -4.99996062e-08,83.21 L-4.99996062e-08,26.97 C0.00550620507,23.4652751 2.84527509,20.6255062 6.34999996,20.62 L11.12,20.62 L11.12,15.86 C11.1309796,12.3520269 13.9720269,9.51097961 17.48,9.49999996 L93.64,9.49999996 Z M11.09,29.71 L9.08999996,29.71 L9.08999996,80.5 L79.79,80.5 L79.79,78.43 L17.45,78.43 C13.9397523,78.4244937 11.0955062,75.5802477 11.09,72.07 L11.09,29.71 Z M74,39.16 L57.33,60.05 C55.1582258,62.7845094 51.2120661,63.3103694 48.4,61.24 L37.84,53.5 L21.7,69.34 L90.51,69.34 L74,39.16 Z M90.91,18.59 L20.21,18.59 L20.21,58.06 L32.9,45.58 C35.2514895,43.2499744 38.9521781,42.9865499 41.61,44.96 L51.78,52.43 L69.07,30.68 C70.4796198,28.9197799 72.6771506,27.9825499 74.9232513,28.1836332 C77.169352,28.3847165 79.1654595,29.6973842 80.24,31.68 L90.91,51.15 L90.91,18.59 Z M26.8288036,25.3996994 C30.4658832,23.8942681 34.6517132,24.72856 37.4336854,27.5133944 C40.2156577,30.2982287 41.045645,34.4849144 39.5364746,38.1204441 C38.0273041,41.7559738 34.4763251,44.1240456 30.54,44.1200103 C25.174739,44.1035027 20.8309803,39.7552751 20.82,34.39 C20.82,30.4536728 23.1917239,26.9051307 26.8288036,25.3996994 Z M30.54,33.76 C30.1920606,33.76 29.91,34.0420606 29.91,34.39 C29.91,34.6448112 30.0634946,34.8745321 30.2989094,34.9720441 C30.5343243,35.0695561 30.8052985,35.015656 30.9854773,34.8354773 C31.165656,34.6552985 31.2195561,34.3843243 31.1220441,34.1489094 C31.0245321,33.9134946 30.7948112,33.76 30.54,33.76 Z" id="Shape" fill="#000000"></path>
    </g>
</svg>