<?xml version="1.0" encoding="UTF-8"?>
<svg width="100px" height="100px" viewBox="0 0 100 100" version="1.1" xmlns="http://www.w3.org/2000/svg" xmlns:xlink="http://www.w3.org/1999/xlink">
    <!-- Generator: Sketch 57.1 (83088) - https://sketch.com -->
    <title>regular/image-regular</title>
    <desc>Created with Sketch.</desc>
    <g id="regular/image" stroke="none" stroke-width="1" fill="none" fill-rule="evenodd">
        <path d="M95.71,11.5 C98.0793016,11.5 100,13.4206984 100,15.79 L100,83.4 C100,84.5377788 99.5480192,85.6289571 98.7434881,86.4334881 C97.9389571,87.2380192 96.8477788,87.69 95.71,87.69 L4.28999995,87.69 C3.15222121,87.69 2.06104292,87.2380192 1.25651186,86.4334881 C0.451980796,85.6289571 -4.99995991e-08,84.5377788 -4.99995991e-08,83.4 L-4.99995991e-08,15.79 C-4.99995991e-08,13.4206984 1.92069838,11.5 4.28999995,11.5 L95.71,11.5 Z M72.43,38.5409054 C72.3517755,38.5409054 72.2794342,38.5824424 72.24,38.65 L49.73,66.93 C48.1564492,68.91156 45.2965499,69.2917011 43.26,67.79 L28.72,57.09 C28.6355107,57.021381 28.5144893,57.021381 28.43,57.09 L4.75999995,80.35 L4.75999995,82.93 L95.24,82.93 L95.24,79.97 L72.62,38.65 C72.5805658,38.5824424 72.5082246,38.5409054 72.43,38.5409054 Z M95.24,16.26 L4.75999995,16.26 L4.75999995,73.69 L25.09,53.69 C26.8382014,51.9799511 29.5668124,51.7853525 31.54,53.23 L46.08,63.92 L68.51,35.68 C69.5531396,34.3777389 71.1771357,33.6816353 72.8395745,33.8241874 C74.5020134,33.9667395 75.9837931,34.9291597 76.79,36.39 L95.24,70.06 L95.24,16.26 Z M16.8534679,30.2452261 C20.0555351,28.9156015 23.7432839,29.646344 26.1963606,32.0965583 C28.6494374,34.5467726 29.3844849,38.2336657 28.0585998,41.4372831 C26.7327147,44.6409005 23.6071509,46.73 20.14,46.73 C15.4108222,46.73 11.5755183,42.8991746 11.5699882,38.17 C11.5659543,34.7028514 13.6514007,31.5748507 16.8534679,30.2452261 Z M20.14,34.3599736 C18.0397014,34.3655126 16.34,36.0696942 16.34,38.17 C16.34,39.71191 17.2693677,41.1018027 18.6942952,41.6909276 C20.1192227,42.2800525 21.7587533,41.952248 22.8476147,40.8605212 C23.936476,39.7687944 24.2599705,38.128408 23.6671028,36.7050337 C23.0742351,35.2816594 21.6819047,34.355953 20.14,34.3599736 Z" id="Shape" fill="#000000"></path>
    </g>
</svg>