<?xml version="1.0" encoding="UTF-8"?>
<svg width="100px" height="100px" viewBox="0 0 100 100" version="1.1" xmlns="http://www.w3.org/2000/svg" xmlns:xlink="http://www.w3.org/1999/xlink">
    <!-- Generator: Sketch 57.1 (83088) - https://sketch.com -->
    <title>regular/images-regular</title>
    <desc>Created with Sketch.</desc>
    <g id="regular/images" stroke="none" stroke-width="1" fill="none" fill-rule="evenodd">
        <path d="M95.71,9.99999996 C98.0793016,9.99999996 100,11.9206984 100,14.29 L100,73.17 C99.9944863,75.5353954 98.0754019,77.4500065 95.71,77.45 L88.35,77.45 L88.35,84.84 C88.3444863,87.1943497 86.4343562,89.1 84.08,89.1 L4.26999995,89.1 C1.9156438,89.1 0.00551366464,87.1943497 -4.9999592e-08,84.84 L-4.9999592e-08,25.92 C-4.9999592e-08,24.7875256 0.449873659,23.7014344 1.250654,22.900654 C2.05143433,22.0998737 3.13752554,21.65 4.26999995,21.65 L11.65,21.65 L11.65,14.29 C11.65,11.9206984 13.5706984,9.99999996 15.94,9.99999996 L95.71,9.99999996 Z M11.65,26.41 L4.75999995,26.41 L4.75999995,84.34 L83.59,84.34 L83.59,77.45 L15.94,77.45 C13.5745981,77.4500065 11.6555137,75.5353954 11.65,73.17 L11.65,26.41 Z M75.48,34.41 L55.77,59.09 C54.2972893,60.954693 51.6101332,61.3132756 49.7,59.9 L37,50.56 L16.41,70.85 L16.41,72.69 L95.24,72.69 L95.24,70.46 L75.48,34.41 Z M95.24,14.76 L16.41,14.76 L16.41,64.17 L33.8,47.11 C35.430865,45.5301131 37.9605087,45.348822 39.8,46.68 L52.29,55.87 L71.85,31.33 C72.8223269,30.1067127 74.3430611,29.4522015 75.8998816,29.5869651 C77.4567021,29.7217286 78.8423449,30.6278254 79.59,32 L95.24,60.55 L95.24,14.76 Z M26.6266201,26.4764209 C29.5459232,25.2650172 32.907567,25.9325719 35.1424976,28.1675024 C37.3774281,30.402433 38.0449828,33.7640768 36.8335791,36.6833798 C35.6221754,39.6026829 32.7706665,41.5040444 29.61,41.5000128 C25.304463,41.4944907 21.8155093,38.0055369 21.8099871,33.7 C21.8059556,30.5393335 23.7073171,27.6878246 26.6266201,26.4764209 Z M29.61,30.65 C27.9473679,30.682599 26.6151149,32.0370562 26.61,33.7 C26.6375049,35.3500655 27.9925849,36.668077 29.6427786,36.6498163 C31.2929723,36.6315556 32.6185544,35.2838805 32.6096295,33.6336104 C32.6005226,31.9833402 31.2602947,30.6502292 29.61,30.65 Z" id="Shape" fill="#000000"></path>
    </g>
</svg>