<svg width="100" height="100" viewBox="0 0 100 100" fill="none" xmlns="http://www.w3.org/2000/svg">
<path fill-rule="evenodd" clip-rule="evenodd" d="M33.5293 46.8471C35.3492 45.0441 38.2125 44.8392 40.2705 46.3647L52.1646 55.1059L71.1293 31.3059C72.2166 29.9465 73.9108 29.2197 75.6451 29.3685C77.3794 29.5174 78.9249 30.5223 79.7646 32.0471L99.9999 68.9765V15.2941C99.9935 12.3729 97.627 10.0065 94.7058 10H16.8117C13.8878 10 11.5176 12.3703 11.5176 15.2941V68.4941L33.5293 46.8471ZM29.8588 28.647C32.0296 28.647 33.9865 29.9554 34.8162 31.9615C35.6459 33.9676 35.1847 36.276 33.648 37.8093C32.1113 39.3427 29.8019 39.7988 27.7976 38.9647C25.7933 38.1307 24.4893 36.1709 24.494 34C24.494 32.5783 25.0596 31.2149 26.066 30.2107C27.0725 29.2065 28.437 28.6439 29.8588 28.647Z" fill="black"/>
<path d="M16.8118 81.9529C11.6138 81.9529 7.4 77.7391 7.4 72.5411V21.5176H4.8C2.14903 21.5176 0 23.6666 0 26.3176V84.5411C0 87.194 2.14713 89.3464 4.8 89.3529H83.6824C86.3352 89.3464 88.4824 87.194 88.4824 84.5411V81.9529H16.8118Z" fill="black"/>
<path d="M56.2704 59.4705L75.094 35.7646L97.6469 76.9411C96.7781 77.5268 95.7535 77.8382 94.7057 77.8353H16.7763C15.1053 77.8316 13.5347 77.0375 12.541 75.6941L37.2469 51.447L49.4469 60.3764C51.5939 61.9625 54.6116 61.5619 56.2704 59.4705Z" fill="black"/>
</svg>
