<?xml version="1.0" encoding="UTF-8"?>
<svg width="100px" height="100px" viewBox="0 0 100 100" version="1.1" xmlns="http://www.w3.org/2000/svg" xmlns:xlink="http://www.w3.org/1999/xlink">
    <!-- Generator: Sketch 57.1 (83088) - https://sketch.com -->
    <title>solid/image-solid</title>
    <desc>Created with Sketch.</desc>
    <g id="solid/image" stroke="none" stroke-width="1" fill="none" fill-rule="evenodd">
        <path d="M72.43,38.5709054 C72.5082246,38.5709054 72.5805658,38.6124424 72.62,38.68 L98.77,86.41 C97.9635149,87.2306304 96.8605862,87.6919862 95.71,87.6900128 L4.24999995,87.6900128 C2.43700107,87.6681725 0.834475985,86.5063418 0.24999995,84.79 L28.43,57.06 C28.5144893,56.991381 28.6355107,56.991381 28.72,57.06 L43.26,67.76 C45.2965499,69.2617011 48.1564492,68.88156 49.73,66.9 L72.24,38.68 C72.2794342,38.6124424 72.3517755,38.5709054 72.43,38.5709054 Z M95.71,11.5 C98.0637682,11.5 99.9780535,13.3963342 100,15.75 L100,78.75 L76.79,36.39 C75.9837931,34.9291597 74.5020134,33.9667395 72.8395745,33.8241874 C71.1771357,33.6816353 69.5531396,34.3777389 68.51,35.68 L46.08,63.92 L31.54,53.23 C29.5668124,51.7853525 26.8382014,51.9799511 25.09,53.69 L-4.99996062e-08,78.36 L-4.99996062e-08,15.79 C-4.99996062e-08,13.4206984 1.92069838,11.5 4.28999995,11.5 L95.71,11.5 Z M20.14,31.98 C16.7408997,32.0074573 14,34.7707888 14,38.17 C14,40.6781537 15.5136942,42.9383512 17.832883,43.893442 C20.1520718,44.8485327 22.8183781,44.3097136 24.5847042,42.5290038 C26.3510302,40.748294 26.8682074,38.0777055 25.894339,35.7663389 C24.9204707,33.4549723 22.6480719,31.9597403 20.14,31.98 L20.14,31.98 Z" id="Shape" fill="#000000"></path>
    </g>
</svg>