<?xml version="1.0" encoding="UTF-8"?>
<svg width="100px" height="100px" viewBox="0 0 100 100" version="1.1" xmlns="http://www.w3.org/2000/svg" xmlns:xlink="http://www.w3.org/1999/xlink">
    <!-- Generator: Sketch 57.1 (83088) - https://sketch.com -->
    <title>solid/images-solid</title>
    <desc>Created with Sketch.</desc>
    <g id="solid/images" stroke="none" stroke-width="1" fill="none" fill-rule="evenodd">
        <path d="M9.26999996,21.65 L9.26999996,73.17 C9.27539957,76.7715391 12.1345048,79.7028717 15.7060828,79.8259749 L15.94,79.83 L88.35,79.84 L88.35,84.84 C88.3446485,87.1251042 86.5450692,88.9875148 84.2865473,89.0950916 L84.08,89.1 L4.26999995,89.1 C1.98488957,89.1 0.118258539,87.3047983 0.00539207413,85.0465353 L-4.99997341e-08,84.84 L-4.99997341e-08,25.92 C-4.99997341e-08,23.6311046 1.80094229,21.7628418 4.0631146,21.654924 L4.26999995,21.65 L9.26999996,21.65 Z M75.48,34.41 L98.5,76.45 C97.7196699,77.10653 96.7297146,77.4613527 95.71,77.4505165 L15.94,77.4505165 C14.3173031,77.4489632 12.8361195,76.5261316 12.12,75.07 L37,50.56 L49.74,59.9 C51.6501332,61.3132756 54.3372893,60.954693 55.81,59.09 L75.48,34.41 Z M15.94,9.99999996 L95.71,9.99999996 C98.0096163,9.99999996 99.8866297,11.8093776 99.995053,14.0821456 L100,14.29 L100,69.24 L79.6,32 C78.8498338,30.6278249 77.4626358,29.7222162 75.9046014,29.5875217 C74.4285688,29.4599163 72.9848438,30.04026 72.0083485,31.1416436 L71.85,31.33 L52.24,55.87 L39.75,46.68 C37.9762529,45.3866287 35.5513365,45.511432 33.9215153,46.9507608 L33.75,47.11 L11.65,68.85 L11.65,14.29 C11.65,11.9903837 13.4593776,10.1133703 15.7321456,10.004947 L15.94,9.99999996 L95.71,9.99999996 L15.94,9.99999996 Z M29.61,28.2699815 C26.6188992,28.2755034 24.1955034,30.6988992 24.1899815,33.69 C24.1859557,35.8880447 25.5074482,37.8717183 27.5374055,38.7147429 C29.5673628,39.5577675 31.9053256,39.0938356 33.4595806,37.5395806 C35.0138356,35.9853256 35.4777675,33.6473628 34.6347429,31.6174055 C33.7917183,29.5874482 31.8080447,28.2659557 29.61,28.2699815 Z" id="Shape" fill="#000000"></path>
    </g>
</svg>