<?xml version="1.0" encoding="UTF-8"?>
<svg width="100px" height="100px" viewBox="0 0 100 100" version="1.1" xmlns="http://www.w3.org/2000/svg" xmlns:xlink="http://www.w3.org/1999/xlink">
    <!-- Generator: Sketch 57.1 (83088) - https://sketch.com -->
    <title>regular/inferior-or-equal-regular</title>
    <desc>Created with Sketch.</desc>
    <g id="regular/inferior-or-equal" stroke="none" stroke-width="1" fill="none" fill-rule="evenodd">
        <path d="M26.06,51.63 L70.33,95.94 C71.0095068,96.6218592 71.211356,97.6459064 70.8414236,98.5346197 C70.4714912,99.423333 69.602631,100.001691 68.64,100.000007 C68.0223715,99.9922628 67.4328533,99.7406391 67,99.3 L22.7,55 C21.8041537,54.0663703 21.818319,52.5880736 22.7318915,51.6717821 C23.6454641,50.7554906 25.1237122,50.7369322 26.06,51.63 Z M76.4739192,0.796080761 C77.3649163,1.68707789 77.4070427,3.11813408 76.57,4.05999995 L33.76,46.88 L76.57,89.69 C77.2482247,90.3705699 77.450713,91.3921959 77.0833439,92.2800044 C76.7159749,93.167813 75.8508114,93.747652 74.89,93.750029 C74.2605938,93.7522068 73.6561603,93.5039573 73.21,93.06 L28.94,48.79 C27.8888333,47.7297076 27.8888333,46.0202924 28.94,44.96 L73.21,0.699999951 C74.1518659,-0.137042731 75.5829221,-0.0949163697 76.4739192,0.796080761 Z" id="Shape" fill="#000000"></path>
    </g>
</svg>