<?xml version="1.0" encoding="UTF-8"?>
<svg width="100px" height="100px" viewBox="0 0 100 100" version="1.1" xmlns="http://www.w3.org/2000/svg" xmlns:xlink="http://www.w3.org/1999/xlink">
    <!-- Generator: Sketch 57.1 (83088) - https://sketch.com -->
    <title>bold/inferior-or-equal-bold</title>
    <desc>Created with Sketch.</desc>
    <g id="bold/inferior-or-equal" stroke="none" stroke-width="1" fill="none" fill-rule="evenodd">
        <path d="M28.76,50.82 L70.18,92.24 C71.4714169,93.5371382 71.859827,95.4818376 71.1657618,97.1755313 C70.4716967,98.869225 68.830302,99.982123 67,100.000041 C65.7922881,100.003625 64.6331283,99.5248412 63.78,98.67 L22.33,57.25 C21.1072533,56.1170671 20.6019116,54.4061964 21.0128569,52.7907181 C21.4238023,51.1752397 22.6852397,49.9138023 24.300718,49.502857 C25.9161964,49.0919116 27.627067,49.5972534 28.76,50.82 Z M77.6897594,1.4502406 C79.418951,3.17943221 79.4720561,5.96618373 77.81,7.75999996 L39.38,46.19 L77.81,84.61 C79.1063975,85.9123142 79.4921791,87.8665946 78.7879065,89.5638478 C78.0836339,91.2611011 76.4275704,92.368121 74.59,92.37 C73.3797345,92.3615127 72.2234283,91.8680113 71.38,91 L30,49.62 C28.110754,47.7235575 28.110754,44.6564425 30,42.76 L71.38,1.32999995 C73.1738163,-0.332056168 75.9605678,-0.278951001 77.6897594,1.4502406 Z" id="Shape" fill="#000000"></path>
    </g>
</svg>