<?xml version="1.0" encoding="UTF-8"?>
<svg width="100px" height="100px" viewBox="0 0 100 100" version="1.1" xmlns="http://www.w3.org/2000/svg" xmlns:xlink="http://www.w3.org/1999/xlink">
    <!-- Generator: Sketch 57.1 (83088) - https://sketch.com -->
    <title>bold/inferior-bold</title>
    <desc>Created with Sketch.</desc>
    <g id="bold/inferior" stroke="none" stroke-width="1" fill="none" fill-rule="evenodd">
        <path d="M72.6336634,100.00002 C71.437909,100.003589 70.290226,99.5295458 69.4455446,98.6831684 L24.6831683,53.9108911 C23.7750321,53.0061221 23.2645625,51.7769693 23.2645625,50.4950495 C23.2645625,49.2131297 23.7750321,47.9839769 24.6831683,47.0792079 L69.4455446,2.30693065 C70.5672604,1.09629042 72.2611917,0.595952053 73.8606752,1.00282863 C75.4601587,1.40970521 76.7091066,2.65865313 77.1159832,4.25813665 C77.5228598,5.85762017 77.0225214,7.55155149 75.8118812,8.67326729 L33.990099,50.4950495 L75.8118812,92.3168317 C77.0941871,93.604973 77.4767886,95.5375164 76.7820228,97.2170749 C76.087257,98.8966334 74.4512393,99.9941552 72.6336634,100.00002 Z" id="inferior" fill="#000000"></path>
    </g>
</svg>