<svg width="100" height="100" viewBox="0 0 100 100" fill="none" xmlns="http://www.w3.org/2000/svg">
<g clip-path="url(#clip0)">
<path d="M68.7427 83.3423C70.2986 84.9176 72.4108 85.8033 74.6137 85.8043C77.9721 85.807 81.0009 83.765 82.2865 80.6314C83.572 77.4978 82.8607 73.8905 80.4847 71.4934L51.887 42.6097L80.4847 13.7365C83.2328 10.395 82.9977 5.48655 79.943 2.42859C76.8884 -0.629364 72.0267 -0.823286 68.7427 1.98184L34.5126 36.5543C32.9049 38.1721 32.0013 40.3699 32.0013 42.6621C32.0013 44.9542 32.9049 47.152 34.5126 48.7699L68.7427 83.3423Z" fill="black"/>
<path d="M54.688 97.5485C56.2456 99.1199 58.3575 100.002 60.559 100C63.9173 100.003 66.9462 97.9606 68.2317 94.827C69.5173 91.6935 68.806 88.0862 66.43 85.6891L32.148 51.0643C28.8912 47.8038 23.6341 47.8273 20.406 51.1166C17.1779 54.406 17.2011 59.7156 20.4579 62.976L54.688 97.5485Z" fill="black"/>
</g>
<defs>
<clipPath id="clip0">
<rect width="100" height="100" fill="white"/>
</clipPath>
</defs>
</svg>
