<svg width="100" height="100" viewBox="0 0 100 100" fill="none" xmlns="http://www.w3.org/2000/svg">
<path d="M73.9253 88.7804C74.4626 89.3183 75.188 89.6262 75.9481 89.639C76.7257 89.6438 77.4721 89.3342 78.018 88.7804C78.5703 88.2308 78.8807 87.4838 78.8807 86.7047C78.8807 85.9256 78.5703 85.1786 78.018 84.629L38.2441 44.8434L78.0768 5.05774C78.842 4.32062 79.1501 3.22795 78.8824 2.19966C78.6148 1.17138 77.8132 0.367493 76.7857 0.0969643C75.7582 -0.173565 74.6646 0.131359 73.9253 0.894544L32.2228 42.5383C31.6116 43.1474 31.2681 43.9747 31.2681 44.8375C31.2681 45.7003 31.6116 46.5276 32.2228 47.1367L73.9253 88.7804Z" fill="black"/>
<path d="M63.506 99.1415C64.0577 99.6936 64.807 100.003 65.5876 100C66.3682 100.003 67.1175 99.6936 67.6692 99.1415C68.808 97.9874 68.808 96.1323 67.6692 94.9782L26.0254 53.3345C24.8758 52.1848 23.0119 52.1848 21.8622 53.3345C20.7126 54.4841 20.7126 56.3481 21.8622 57.4977L63.506 99.1415Z" fill="black"/>
</svg>
