<?xml version="1.0" encoding="UTF-8"?>
<svg width="100px" height="100px" viewBox="0 0 100 100" version="1.1" xmlns="http://www.w3.org/2000/svg" xmlns:xlink="http://www.w3.org/1999/xlink">
    <!-- Generator: Sketch 57.1 (83088) - https://sketch.com -->
    <title>regular/inferior-regular</title>
    <desc>Created with Sketch.</desc>
    <g id="regular/inferior" stroke="none" stroke-width="1" fill="none" fill-rule="evenodd">
        <path d="M73.1188119,100.000025 C72.4935494,100.002898 71.8936617,99.7529444 71.4554456,99.3069307 L24.5544554,52.4059406 C24.0465764,51.899817 23.761495,51.2120582 23.7623742,50.4950495 C23.7632092,49.7754713 24.0478316,49.0852621 24.5544554,48.5742574 L71.4554456,1.68316827 C72.0450968,1.06498083 72.9231511,0.814352605 73.750278,1.02814063 C74.577405,1.24192865 75.2240392,1.88664406 75.4402843,2.71313204 C75.6565294,3.53962001 75.4085116,4.41841518 74.7920792,5.00990095 L29.3069307,50.4950495 L74.7920792,95.9801981 C75.4648582,96.6553061 75.6647089,97.6692143 75.2984392,98.5491284 C74.9321695,99.4290426 74.0719119,100.001674 73.1188119,100.000025 Z" id="inferior" fill="#000000"></path>
    </g>
</svg>