<?xml version="1.0" encoding="UTF-8"?>
<svg width="100px" height="100px" viewBox="0 0 100 100" version="1.1" xmlns="http://www.w3.org/2000/svg" xmlns:xlink="http://www.w3.org/1999/xlink">
    <!-- Generator: Sketch 57.1 (83088) - https://sketch.com -->
    <title>bold/information-bold</title>
    <desc>Created with Sketch.</desc>
    <g id="bold/information" stroke="none" stroke-width="1" fill="none" fill-rule="evenodd">
        <path d="M50,-5.00000041e-08 C77.6142375,-5.00000041e-08 100,22.3857625 100,49.9999999 C99.9669389,77.6005315 77.6005315,99.9669389 50,99.9999999 C22.3857625,99.9999999 -4.99996062e-08,77.6142375 -4.99996062e-08,49.9999999 C-4.99996062e-08,22.3857625 22.3857625,-5.00000041e-08 50,-5.00000041e-08 Z M50,9.08999996 C27.4060309,9.08999996 9.08999996,27.4060309 9.08999996,50 C9.08999996,72.5939691 27.4060309,90.91 50,90.91 C72.5939691,90.91 90.91,72.5939691 90.91,50 C90.8605027,27.4265651 72.5734349,9.13949725 50,9.08999996 Z M53.05,40.06 L53.05,75.57 L46.81,75.57 L46.81,40.06 L53.05,40.06 Z M49.91,24.4 C50.497962,24.3982522 51.0800072,24.5173843 51.62,24.75 C52.1519354,24.9911956 52.6336698,25.3304451 53.04,25.75 C53.4636415,26.1566845 53.8033897,26.6425244 54.04,27.18 C54.3014475,27.7233282 54.4413597,28.3171022 54.45,28.92 C54.4559041,29.5072629 54.3294405,30.0883121 54.08,30.62 C53.8327633,31.1425325 53.4941026,31.6166574 53.08,32.02 C52.6769401,32.4433625 52.1944184,32.7831665 51.66,33.02 C51.1215384,33.2574546 50.5384551,33.3767991 49.95,33.37 C49.3645466,33.3791636 48.7842199,33.2596846 48.25,33.02 C47.7200438,32.7804801 47.2412904,32.4409387 46.84,32.02 C46.4215865,31.6203767 46.0823203,31.1454041 45.84,30.62 C45.6003154,30.08578 45.4808364,29.5054534 45.49,28.92 C45.4888531,27.7313914 45.9600998,26.5910465 46.8,25.75 C47.2045832,25.332885 47.6825636,24.9938918 48.21,24.75 C48.7458459,24.5153891 49.3250571,24.3961397 49.91,24.4 Z" id="Shape" fill="#000000"></path>
    </g>
</svg>