<svg width="100" height="100" viewBox="0 0 100 100" fill="none" xmlns="http://www.w3.org/2000/svg">
<path d="M50 0C22.3858 0 0 22.3858 0 50C0 77.6142 22.3858 100 50 100C77.6142 100 100 77.6142 100 50C99.9676 22.3992 77.6008 0.0324144 50 0ZM53.1647 76.4706H46.6941V39.7059H53.1647V76.4706ZM54.2235 29.9294C53.979 30.4738 53.636 30.9684 53.2118 31.3882C52.7899 31.8094 52.2905 32.1449 51.7412 32.3765C51.1814 32.6221 50.576 32.7464 49.9647 32.7412C49.3571 32.7476 48.7553 32.6232 48.2 32.3765C47.66 32.1406 47.1692 31.8053 46.7529 31.3882C46.3323 30.9679 45.9933 30.4733 45.7529 29.9294C45.5143 29.3964 45.39 28.8193 45.3882 28.2353C45.3829 27.6164 45.5071 27.0033 45.7529 26.4353C45.99 25.8826 46.3293 25.3797 46.7529 24.9529C47.1734 24.5068 47.6769 24.1471 48.2353 23.8941C48.7906 23.6474 49.3924 23.523 50 23.5294C50.6113 23.5242 51.2167 23.6485 51.7765 23.8941C52.3258 24.131 52.8249 24.4703 53.2471 24.8941C53.6743 25.3204 54.0175 25.8233 54.2588 26.3765C54.514 26.9619 54.6346 27.5971 54.6118 28.2353C54.6073 28.8215 54.4748 29.3997 54.2235 29.9294Z" fill="black"/>
</svg>
