<?xml version="1.0" encoding="UTF-8"?>
<svg width="100px" height="100px" viewBox="0 0 100 100" version="1.1" xmlns="http://www.w3.org/2000/svg" xmlns:xlink="http://www.w3.org/1999/xlink">
    <!-- Generator: Sketch 57.1 (83088) - https://sketch.com -->
    <title>solid/information-solid</title>
    <desc>Created with Sketch.</desc>
    <g id="solid/information" stroke="none" stroke-width="1" fill="none" fill-rule="evenodd">
        <path d="M50,-4.9999997e-08 C22.3857625,-4.9999997e-08 -4.9999997e-08,22.3857625 -4.9999997e-08,50 C-4.9999997e-08,77.6142375 22.3857625,100 50,100 C77.6142375,100 100,77.6142375 100,50 C99.9669389,22.3994685 77.6005315,0.0330611134 50,-4.9999997e-08 Z M53.2,76.79 L46.66,76.79 L46.66,39.59 L53.2,39.59 L53.2,76.79 Z M54.28,29.7 C54.0361252,30.2422526 53.6974891,30.7366612 53.28,31.16 C52.8516925,31.5853552 52.3459258,31.9247959 51.79,32.16 C51.2230999,32.4098114 50.6094724,32.5359459 49.99,32.53 C49.3768932,32.53682 48.7696012,32.4105851 48.21,32.16 C47.0990039,31.6769841 46.2052699,30.8010536 45.7,29.7 C45.4581212,29.1344574 45.335565,28.5250805 45.34,27.91 C45.3375983,27.2886482 45.4600192,26.6731431 45.7,26.1 C45.9336239,25.5373067 46.2731009,25.0246964 46.7,24.59 C47.1254912,24.1705093 47.6235558,23.8316898 48.17,23.59 C48.7457478,23.3337417 49.3698257,23.2041517 50,23.21 C50.6189771,23.2090623 51.2315796,23.3349862 51.8,23.58 C52.3538788,23.8189739 52.8589793,24.1579675 53.29,24.58 C53.7124731,25.0182632 54.0513648,25.5299897 54.29,26.09 C54.545844,26.6588271 54.6754811,27.2763091 54.67,27.9 C54.675782,28.5215681 54.5425324,29.1365666 54.28,29.7 Z" id="information" fill="#000000"></path>
    </g>
</svg>