<svg width="100" height="100" viewBox="0 0 100 100" fill="none" xmlns="http://www.w3.org/2000/svg">
<path d="M54.2232 29.9884C54.4829 29.4407 54.6157 28.8415 54.6114 28.2354C54.6342 27.5972 54.5136 26.962 54.2584 26.3766C54.0171 25.8234 53.6739 25.3205 53.2467 24.8942C52.8245 24.4705 52.3254 24.1311 51.7761 23.8942C51.2163 23.6486 50.6109 23.5243 49.9996 23.5295C49.392 23.5231 48.7902 23.6475 48.2349 23.8942C47.6766 24.1473 47.173 24.5069 46.7526 24.9531C46.3289 25.3798 45.9896 25.8828 45.7526 26.4354C45.5067 27.0034 45.3825 27.6165 45.3879 28.2354C45.397 28.8211 45.5293 29.3983 45.7761 29.9295C46.0164 30.4734 46.3555 30.968 46.7761 31.3884C47.1943 31.8061 47.6845 32.1449 48.2232 32.3884C48.781 32.6257 49.3817 32.7458 49.9879 32.7413C50.5978 32.7448 51.2021 32.6247 51.7643 32.3884C52.8483 31.9136 53.7223 31.0605 54.2232 29.9884Z" fill="black"/>
<path d="M53.1643 76.4707V39.7766L46.6937 39.7178V76.4707H53.1643Z" fill="black"/>
<path fill-rule="evenodd" clip-rule="evenodd" d="M0 50C0 77.6142 22.3858 100 50 100C77.6008 99.9676 99.9676 77.6008 100 50C100 22.3858 77.6142 0 50 0C22.3858 0 0 22.3858 0 50ZM5.88235 50C5.88235 25.6345 25.6345 5.88235 50 5.88235C74.3548 5.90829 94.0917 25.6452 94.1176 50C94.1176 74.3655 74.3655 94.1176 50 94.1176C25.6345 94.1176 5.88235 74.3655 5.88235 50Z" fill="black"/>
</svg>
