<svg width="100" height="100" viewBox="0 0 100 100" fill="none" xmlns="http://www.w3.org/2000/svg">
<path fill-rule="evenodd" clip-rule="evenodd" d="M49.9932 37.6856C56.7892 37.6856 62.2992 43.1946 62.2992 49.9916C62.2992 56.7866 56.7892 62.2956 49.9932 62.2956C43.1972 62.2956 37.6882 56.7866 37.6882 49.9916C37.6882 43.1946 43.1972 37.6856 49.9932 37.6856ZM69.6992 34.7149C72.1442 34.7149 74.1292 32.7309 74.1292 30.2849C74.1292 27.8399 72.1442 25.8559 69.6992 25.8559V25.8569C67.2532 25.8569 65.2682 27.8389 65.2682 30.2849C65.2682 32.7309 67.2532 34.7149 69.6992 34.7149ZM49.9932 68.9439C60.4632 68.9439 68.9482 60.4599 68.9482 49.9909C68.9482 39.5219 60.4622 31.0329 49.9922 31.0319H49.9932H49.9922C39.5232 31.0329 31.0352 39.5219 31.0352 49.9909C31.0352 60.4599 39.5232 68.9439 49.9932 68.9439ZM78.7692 28.2169C79.2742 29.5169 79.8772 31.4709 80.0412 35.0689C80.2182 38.9609 80.2562 40.1299 80.2562 49.9829C80.2562 59.8339 80.2182 61.0029 80.0412 64.8949C79.8762 68.4939 79.2742 70.4469 78.7692 71.7469C78.1002 73.4699 77.2992 74.6969 76.0072 75.9879C74.7152 77.2799 73.4882 78.0799 71.7642 78.7489C70.4652 79.2569 68.5102 79.8569 64.9102 80.0219C61.0182 80.1979 59.8492 80.2359 49.9932 80.2359C40.1362 80.2359 38.9682 80.1979 35.0762 80.0219C31.4762 79.8559 29.5232 79.2539 28.2212 78.7479C26.4982 78.0789 25.2682 77.2789 23.9752 75.9869C22.6832 74.6949 21.8842 73.4679 21.2132 71.7439C20.7082 70.4439 20.1062 68.4909 19.9422 64.8919C19.7652 60.9999 19.7292 59.8309 19.7292 49.9729C19.7292 40.1149 19.7652 38.9519 19.9422 35.0609C20.1062 31.4609 20.7082 29.5079 21.2132 28.2059C21.8822 26.4839 22.6832 25.2529 23.9752 23.9609C25.2682 22.6689 26.4982 21.8689 28.2212 21.1979C29.5222 20.6909 31.4762 20.0909 35.0762 19.9259C38.4812 19.7719 39.8012 19.7259 46.6812 19.7179V19.7279C47.6642 19.7259 48.7612 19.7279 49.9932 19.7279C59.8492 19.7279 61.0182 19.7629 64.9102 19.9399C68.5102 20.1049 70.4632 20.7049 71.7642 21.2109C73.4872 21.8799 74.7162 22.6799 76.0072 23.9719C77.2992 25.2639 78.0982 26.4939 78.7692 28.2169ZM86.6826 65.209C86.8596 61.271 86.9056 60.017 86.9056 49.991C86.9056 39.965 86.8596 38.707 86.6826 34.769C86.4976 30.839 85.8746 28.156 84.9676 25.81C84.0216 23.381 82.7596 21.321 80.7066 19.27C78.6536 17.216 76.5996 15.955 74.1696 15.013C71.8166 14.1 69.1316 13.478 65.2026 13.298C61.2646 13.118 60.0106 13.074 49.9876 13.074H49.9936H49.9816H49.9876C39.9676 13.074 38.7086 13.118 34.7716 13.298C30.8416 13.478 28.1586 14.1 25.8116 15.013C23.3836 15.956 21.3246 17.217 19.2716 19.27C17.2186 21.321 15.9576 23.381 15.0116 25.809C14.0966 28.156 13.4736 30.84 13.2966 34.769C13.1196 38.706 13.0746 39.965 13.0746 49.991C13.0746 60.017 13.1186 61.271 13.2966 65.209C13.4776 69.139 14.0996 71.821 15.0126 74.169C15.9556 76.597 17.2176 78.656 19.2696 80.708C21.3206 82.762 23.3806 84.026 25.8076 84.969C28.1556 85.882 30.8396 86.504 34.7686 86.684C38.7056 86.863 39.9636 86.907 49.9886 86.907C60.0156 86.907 61.2696 86.863 65.2066 86.684C69.1376 86.504 71.8236 85.882 74.1716 84.969C76.5986 84.026 78.6556 82.762 80.7066 80.708C82.7596 78.656 84.0216 76.597 84.9676 74.169C85.8746 71.821 86.4976 69.138 86.6826 65.209ZM99.9016 21.667C99.9686 22.528 99.9996 36.236 99.9996 49.954C99.9996 63.669 99.9716 77.402 99.9046 78.264C99.5926 82.215 98.9046 84.938 97.5466 87.736C94.8466 93.305 89.8866 97.365 83.8956 98.911C81.7226 99.473 79.7576 99.736 76.3736 99.896C75.1656 99.957 62.5376 99.973 49.9096 99.973C37.2816 99.973 24.6606 99.935 23.4216 99.881C20.4996 99.742 18.2236 99.45 16.1616 98.919C10.2086 97.381 5.15662 93.259 2.51062 87.768C1.12662 84.898 0.472617 82.276 0.126617 78.107C0.0266166 76.923 0.00361659 70.824 0.00361659 49.967C0.00361659 42.939 -0.00438341 37.7 0.00361659 33.72C0.0236166 21.777 0.121617 21.301 0.460617 18.963C1.15662 14.146 3.07862 10.095 6.25162 6.802C7.99362 4.996 9.75862 3.708 11.9966 2.597C14.9006 1.15 17.5666 0.477 21.8496 0.12C23.0366 0.021 29.1416 0 50.0156 0H66.2896C78.2426 0.021 78.7066 0.121 81.0426 0.458C85.8636 1.153 89.9096 3.076 93.2166 6.235C95.0706 8.02 96.3466 9.764 97.4966 12.1C98.8976 14.953 99.5856 17.652 99.9016 21.667Z" fill="black"/>
</svg>
