<svg width="100" height="100" viewBox="0 0 100 100" fill="none" xmlns="http://www.w3.org/2000/svg">
<path fill-rule="evenodd" clip-rule="evenodd" d="M99.998 51.4025C99.998 43.4975 97.954 36.0705 94.37 29.6175C109.647 -4.95749 78.001 0.106506 76.238 0.451506C69.534 1.76251 63.331 3.86951 57.609 6.53951C56.766 6.49151 55.917 6.46551 55.061 6.46551C33.708 6.46551 15.835 21.3595 11.26 41.3255C22.515 28.6985 30.391 23.6045 35.108 21.5655C34.355 22.2385 33.618 22.9185 32.893 23.6035C32.651 23.8315 32.419 24.0625 32.181 24.2925C31.703 24.7525 31.226 25.2125 30.76 25.6765C30.483 25.9535 30.213 26.2315 29.94 26.5095C29.527 26.9295 29.114 27.3505 28.711 27.7735C28.424 28.0745 28.145 28.3755 27.864 28.6765C27.487 29.0805 27.112 29.4835 26.745 29.8885C26.459 30.2045 26.178 30.5185 25.897 30.8355C25.549 31.2275 25.204 31.6195 24.863 32.0125C24.581 32.3395 24.301 32.6655 24.024 32.9915C23.701 33.3725 23.383 33.7545 23.067 34.1345C22.788 34.4715 22.51 34.8085 22.237 35.1455C21.941 35.5095 21.653 35.8745 21.364 36.2375C21.085 36.5895 20.805 36.9415 20.532 37.2935C20.272 37.6285 20.02 37.9625 19.766 38.2965C19.478 38.6735 19.189 39.0495 18.91 39.4255C18.71 39.6945 18.518 39.9615 18.322 40.2285C16.546 42.6515 14.924 45.0275 13.459 47.3095C13.455 47.3155 13.451 47.3205 13.448 47.3265C13.062 47.9275 12.69 48.5195 12.325 49.1065C12.306 49.1375 12.285 49.1705 12.266 49.2025C11.9 49.7925 11.548 50.3715 11.204 50.9445C11.192 50.9645 11.179 50.9845 11.167 51.0055C10.243 52.5475 9.38505 54.0345 8.61305 55.4335C4.56605 62.7675 2.59605 67.8915 2.51105 68.1965C-10.27 113.887 29.618 94.5915 35.184 91.7125C41.177 94.6735 47.924 96.3395 55.061 96.3395C74.6021 96.3395 91.2261 83.8675 97.413 66.4495H73.802C70.3091 72.3515 63.5821 76.3495 55.855 76.3495C44.534 76.3495 35.356 67.7715 35.356 57.1905H99.6301C99.8741 55.2955 100 53.3635 100 51.4025H99.998ZM91.6031 7.18151C95.474 9.79451 98.577 13.8955 93.247 27.7095C88.135 19.4875 80.443 13.0385 71.302 9.49351C75.46 7.48451 85.759 3.23651 91.6031 7.18151ZM9.36505 91.6205C6.21305 88.3875 5.65605 80.5145 12.611 66.1695C16.121 76.2605 23.125 84.7165 32.178 90.0835C27.676 92.5615 15.723 98.1405 9.36505 91.6205ZM35.255 44.9005C35.614 34.6165 44.565 26.3815 55.562 26.3815C66.559 26.3815 75.51 34.6165 75.869 44.9005H35.255Z" fill="black"/>
</svg>
