<?xml version="1.0" encoding="UTF-8"?>
<svg width="100px" height="100px" viewBox="0 0 100 100" version="1.1" xmlns="http://www.w3.org/2000/svg" xmlns:xlink="http://www.w3.org/1999/xlink">
    <!-- Generator: Sketch 57.1 (83088) - https://sketch.com -->
    <title>brand/internet-explorer-brand</title>
    <desc>Created with Sketch.</desc>
    <g id="brand/internet-explorer" stroke="none" stroke-width="1" fill="none" fill-rule="evenodd">
        <path d="M99.998,51.4024 C99.998,43.4974 97.954,36.0704 94.37,29.6174 C109.647,-4.9576 78.001,0.1064 76.238,0.4514 C69.534,1.7624 63.331,3.8694 57.609,6.5394 C56.766,6.4914 55.917,6.4654 55.061,6.4654 C33.708,6.4654 15.835,21.3594 11.26,41.3254 C22.515,28.6984 30.391,23.6044 35.108,21.5654 C34.355,22.2384 33.618,22.9184 32.893,23.6034 C32.651,23.8314 32.419,24.0624 32.181,24.2924 C31.703,24.7524 31.226,25.2124 30.76,25.6764 C30.483,25.9534 30.213,26.2314 29.94,26.5094 C29.527,26.9294 29.114,27.3504 28.711,27.7734 C28.424,28.0744 28.145,28.3754 27.864,28.6764 C27.487,29.0804 27.112,29.4834 26.745,29.8884 C26.459,30.2044 26.178,30.5184 25.897,30.8354 C25.549,31.2274 25.204,31.6194 24.863,32.0124 C24.581,32.3394 24.301,32.6654 24.024,32.9914 C23.701,33.3724 23.383,33.7544 23.067,34.1344 C22.788,34.4714 22.51,34.8084 22.237,35.1454 C21.941,35.5094 21.653,35.8744 21.364,36.2374 C21.085,36.5894 20.805,36.9414 20.532,37.2934 C20.272,37.6284 20.02,37.9624 19.766,38.2964 C19.478,38.6734 19.189,39.0494 18.91,39.4254 C18.71,39.6944 18.518,39.9614 18.322,40.2284 C16.546,42.6514 14.924,45.0274 13.459,47.3094 C13.455,47.3154 13.451,47.3204 13.448,47.3264 C13.062,47.9274 12.69,48.5194 12.325,49.1064 C12.306,49.1374 12.285,49.1704 12.266,49.2024 C11.9,49.7924 11.548,50.3714 11.204,50.9444 C11.192,50.9644 11.179,50.9844 11.167,51.0054 C10.243,52.5474 9.385,54.0344 8.613,55.4334 C4.566,62.7674 2.596,67.8914 2.511,68.1964 C-10.27,113.8864 29.618,94.5914 35.184,91.7124 C41.177,94.6734 47.924,96.3394 55.061,96.3394 C74.602,96.3394 91.226,83.8674 97.413,66.4494 L73.802,66.4494 C70.309,72.3514 63.582,76.3494 55.855,76.3494 C44.534,76.3494 35.356,67.7714 35.356,57.1904 L99.63,57.1904 C99.874,55.2954 100,53.3634 100,51.4024 L99.998,51.4024 Z M91.603,7.1814 C95.474,9.7944 98.577,13.8954 93.247,27.7094 C88.135,19.4874 80.443,13.0384 71.302,9.4934 C75.46,7.4844 85.759,3.2364 91.603,7.1814 L91.603,7.1814 Z M9.365,91.6204 C6.213,88.3874 5.656,80.5144 12.611,66.1694 C16.121,76.2604 23.125,84.7164 32.178,90.0834 C27.676,92.5614 15.723,98.1404 9.365,91.6204 L9.365,91.6204 Z M35.255,44.9004 C35.614,34.6164 44.565,26.3814 55.562,26.3814 C66.559,26.3814 75.51,34.6164 75.869,44.9004 L35.255,44.9004 Z" id="Fill-1" fill="#000000"></path>
    </g>
</svg>