<svg width="100" height="100" viewBox="0 0 100 100" fill="none" xmlns="http://www.w3.org/2000/svg">
<path fill-rule="evenodd" clip-rule="evenodd" d="M36.7526 77.336C36.7526 77.336 32.9316 79.558 39.4726 80.31C47.3966 81.214 51.4466 81.084 60.1786 79.432C60.1786 79.432 62.4746 80.871 65.6816 82.118C46.1056 90.508 21.3766 81.632 36.7526 77.336ZM34.3605 66.3877C34.3605 66.3877 30.0745 69.5597 36.6205 70.2377C45.0855 71.1107 51.7705 71.1817 63.3385 68.9537C63.3385 68.9537 64.9375 70.5757 67.4535 71.4627C43.7845 78.3847 17.4225 72.0087 34.3605 66.3877ZM54.5265 47.8155C38.1755 28.9745 72.4105 20.4245 72.4105 20.4245C50.6005 33.0735 54.6295 36.7425 59.8815 44.1265C65.5065 52.0435 53.2585 58.3665 53.2585 58.3665C53.2585 58.3665 59.3505 53.3685 54.5265 47.8155ZM80.4181 85.4336C90.7711 90.1036 57.9261 99.4916 18.0121 93.0186C3.37613 90.6456 25.0571 82.3626 29.0241 85.1576C29.0241 85.1576 27.7701 85.0686 25.5751 85.5446C23.4701 85.9956 16.7791 88.1506 20.3471 89.7036C30.2731 94.0236 66.0041 92.9896 77.3031 89.5666C83.2451 87.7636 80.4181 85.4336 80.4181 85.4336ZM38.5905 55.044C38.5905 55.044 20.4155 59.36 32.1545 60.928C37.1105 61.592 46.9915 61.441 56.1945 60.67C63.7155 60.036 71.2685 58.687 71.2685 58.687C71.2685 58.687 68.6165 59.822 66.6975 61.133C48.2415 65.986 12.5875 63.729 22.8515 58.764C31.5325 54.567 38.5905 55.044 38.5905 55.044ZM71.1935 73.2676C89.9555 63.5186 81.2805 54.1496 75.2255 55.4126C73.7425 55.7206 73.0805 55.9886 73.0805 55.9886C73.0805 55.9886 73.6315 55.1246 74.6835 54.7516C86.6615 50.5396 95.8745 67.1716 70.8165 73.7586C70.8165 73.7586 71.1065 73.4996 71.1935 73.2676ZM59.882 0C59.882 0 70.273 10.395 50.028 26.377C33.793 39.198 46.325 46.509 50.021 54.86C40.544 46.311 33.59 38.784 38.256 31.778C45.103 21.496 64.074 16.511 59.882 0ZM40.4338 99.6856C28.5978 98.9266 26.2968 97.0216 26.2958 97.0216C37.5398 98.8756 56.4978 99.2126 71.8698 96.3206C85.4938 93.7546 86.7518 90.5256 86.7518 90.5256C86.0968 99.0456 58.4428 100.839 40.4338 99.6856Z" fill="black"/>
</svg>
