<?xml version="1.0" encoding="UTF-8"?>
<svg width="100px" height="100px" viewBox="0 0 100 100" version="1.1" xmlns="http://www.w3.org/2000/svg" xmlns:xlink="http://www.w3.org/1999/xlink">
    <!-- Generator: Sketch 57.1 (83088) - https://sketch.com -->
    <title>brand/javascript-brand</title>
    <desc>Created with Sketch.</desc>
    <g id="brand/javascript" stroke="none" stroke-width="1" fill="none" fill-rule="evenodd">
        <path d="M76.6406,92.1591 C67.9136,92.1591 62.2756,87.9981 59.5246,82.5601 L59.5236,82.5601 L67.1756,78.1301 C69.1896,81.4201 71.8076,83.8361 76.4396,83.8361 C80.3326,83.8361 82.8166,81.8891 82.8166,79.2041 C82.8166,75.9821 80.2656,74.8411 75.9686,72.9621 L73.6196,71.9541 C66.8396,69.0681 62.3426,65.4431 62.3426,57.7911 C62.3426,50.7431 67.7126,45.3721 76.1036,45.3721 C82.0776,45.3721 86.3736,47.4541 89.4616,52.8901 L82.1446,57.5901 C80.5336,54.7031 78.7886,53.5621 76.1036,53.5621 C73.3516,53.5621 71.6066,55.3071 71.6066,57.5901 C71.6066,60.4091 73.3516,61.5501 77.3786,63.2961 L79.7286,64.3031 C87.7156,67.7261 92.2136,71.2161 92.2136,79.0691 C92.2136,87.5281 85.5686,92.1591 76.6406,92.1591 L76.6406,92.1591 Z M54.4186,77.9951 C54.4186,87.7281 48.7136,92.1591 40.3906,92.1591 C32.8726,92.1591 28.5086,88.2651 26.2936,83.5671 L26.2936,83.5671 L26.2936,83.5661 C26.2936,83.5671 26.2936,83.5671 26.2936,83.5671 L33.9466,78.9361 C35.4226,81.5541 36.7656,83.7681 39.9876,83.7681 C43.0756,83.7681 45.0216,82.5601 45.0216,77.8621 L45.0216,45.9101 L54.4186,45.9101 L54.4186,77.9951 Z M-0.0004,100.0001 L99.9996,100.0001 L99.9996,0.0001 L-0.0004,0.0001 L-0.0004,100.0001 Z" id="Fill-1" fill="#000000"></path>
    </g>
</svg>