<svg width="100" height="100" viewBox="0 0 100 100" fill="none" xmlns="http://www.w3.org/2000/svg">
<path d="M97.0588 23.5293H2.94118C1.31681 23.5293 0 22.2125 0 20.5882C0 18.9638 1.31681 17.647 2.94118 17.647H97.0588C98.6832 17.647 100 18.9638 100 20.5882C100 22.2125 98.6832 23.5293 97.0588 23.5293Z" fill="black"/>
<path d="M85.2941 52.8355H14.7058C13.0815 52.8355 11.7646 51.5187 11.7646 49.8943C11.7646 48.2699 13.0815 46.9531 14.7058 46.9531H85.2941C86.9184 46.9531 88.2352 48.2699 88.2352 49.8943C88.2352 51.5187 86.9184 52.8355 85.2941 52.8355Z" fill="black"/>
<path d="M23.5291 82.1294H76.4702C78.0946 82.1294 79.4114 80.8126 79.4114 79.1882C79.4114 77.5639 78.0946 76.2471 76.4702 76.2471H23.5291C21.9047 76.2471 20.5879 77.5639 20.5879 79.1882C20.5879 80.8126 21.9047 82.1294 23.5291 82.1294Z" fill="black"/>
</svg>
