<svg width="100" height="100" viewBox="0 0 100 100" fill="none" xmlns="http://www.w3.org/2000/svg">
<path d="M91.6667 32.2917H8.33333C3.73096 32.2917 0 28.5607 0 23.9583C0 19.356 3.73096 15.625 8.33333 15.625H91.6667C96.269 15.625 100 19.356 100 23.9583C100 28.5607 96.269 32.2917 91.6667 32.2917Z" fill="black"/>
<path d="M81.2503 58.2399H18.7503C14.148 58.2399 10.417 54.5089 10.417 49.9066C10.417 45.3042 14.148 41.5732 18.7503 41.5732H81.2503C85.8527 41.5732 89.5837 45.3042 89.5837 49.9066C89.5837 54.5089 85.8527 58.2399 81.2503 58.2399Z" fill="black"/>
<path d="M26.5628 84.1774H73.4378C78.0402 84.1774 81.7712 80.4464 81.7712 75.8441C81.7712 71.2417 78.0402 67.5107 73.4378 67.5107H26.5628C21.9605 67.5107 18.2295 71.2417 18.2295 75.8441C18.2295 80.4464 21.9605 84.1774 26.5628 84.1774Z" fill="black"/>
</svg>
