<svg width="100" height="100" viewBox="0 0 100 100" fill="none" xmlns="http://www.w3.org/2000/svg">
<g clip-path="url(#clip0)">
<path d="M99.1424 50.7353L90.4072 42.0002C89.7211 41.3146 88.7907 40.9298 87.8208 40.9303H48.6243C44.3811 30.2007 33.3916 23.7247 21.9495 25.2113C10.5075 26.6978 1.53757 35.767 0.176934 47.2246C-1.1837 58.6823 5.41275 69.6 16.1884 73.725C26.964 77.8499 39.1646 74.1278 45.8028 64.6904H53.5974L61.3215 56.9663L68.1755 63.8322C68.588 64.2489 69.1165 64.5316 69.6921 64.6434C69.8798 64.6607 70.0688 64.6607 70.2565 64.6434C71.0267 64.6594 71.7715 64.3674 72.3256 63.8322L79.1915 56.9781L86.0456 63.8322C86.5954 64.3879 87.3447 64.7006 88.1265 64.7006C88.9082 64.7006 89.6575 64.3879 90.2074 63.8322L99.1424 54.8972C100.286 53.7501 100.286 51.8941 99.1424 50.7471V50.7353ZM25.2405 69.5459C14.5836 69.5459 5.94268 60.9102 5.9362 50.2533C5.92972 39.5964 14.5601 30.9502 25.217 30.9372C35.8739 30.9243 44.5253 39.5494 44.5448 50.2063C44.5318 60.8624 35.8966 69.4976 25.2405 69.5106V69.5459ZM51.1638 58.8474H48.8124C50.26 55.0219 50.7052 50.8899 50.1057 46.8439H86.9038L92.9467 52.8162L88.1265 57.5894L81.2724 50.7353C80.721 50.1825 79.9723 49.8718 79.1915 49.8718C78.4107 49.8718 77.662 50.1825 77.1105 50.7353L70.2565 57.5894L63.4024 50.7353C63.1311 50.4531 62.8024 50.2326 62.4383 50.0887C62.0875 49.9448 61.7124 49.869 61.3332 49.8653C60.7554 49.8655 60.1907 50.0374 59.7108 50.3591C59.545 50.4679 59.3913 50.594 59.2523 50.7353L51.1638 58.8474Z" fill="black"/>
</g>
<defs>
<clipPath id="clip0">
<rect width="100" height="100" fill="white"/>
</clipPath>
</defs>
</svg>
