<svg width="100" height="100" viewBox="0 0 100 100" fill="none" xmlns="http://www.w3.org/2000/svg">
<g clip-path="url(#clip0)">
<path d="M99.1424 50.7353L90.419 42.0119C89.7297 41.3225 88.7957 40.9336 87.8208 40.9303H48.6243C44.3811 30.2007 33.3916 23.7247 21.9495 25.2113C10.5075 26.6978 1.53757 35.767 0.176934 47.2246C-1.1837 58.6823 5.41275 69.6 16.1884 73.725C26.964 77.8499 39.1646 74.1278 45.8028 64.6904H53.5974L61.3215 56.9663L68.1755 63.8322C68.7259 64.3874 69.4747 64.7004 70.2565 64.7022C71.0352 64.7025 71.7812 64.3889 72.3256 63.8322L79.1915 56.9781L86.0456 63.8322C86.5954 64.3879 87.3447 64.7006 88.1265 64.7006C88.9082 64.7006 89.6575 64.3879 90.2074 63.8322L99.1424 54.8972C100.286 53.7501 100.286 51.8941 99.1424 50.7471V50.7353Z" fill="black"/>
</g>
<defs>
<clipPath id="clip0">
<rect width="100" height="100" fill="white"/>
</clipPath>
</defs>
</svg>
