<?xml version="1.0" encoding="UTF-8"?>
<svg width="100px" height="100px" viewBox="0 0 100 100" version="1.1" xmlns="http://www.w3.org/2000/svg" xmlns:xlink="http://www.w3.org/1999/xlink">
    <!-- Generator: Sketch 57.1 (83088) - https://sketch.com -->
    <title>regular/keyboard-regular</title>
    <desc>Created with Sketch.</desc>
    <g id="regular/keyboard" stroke="none" stroke-width="1" fill="none" fill-rule="evenodd">
        <path d="M7.13999996,19 L92.86,19 C96.7228374,19 99.869212,22.0675412 99.9960266,25.8995264 L100,26.14 L100,73.76 C100,77.6228374 96.9324588,80.7692121 93.1004737,80.8960267 L92.86,80.9 L7.13999996,80.9 C3.27716262,80.9 0.130787931,77.8324588 0.00397331919,74.0004736 L-4.99996062e-08,73.76 L-4.99996062e-08,26.14 C-4.99996062e-08,22.2771626 3.06754122,19.1307879 6.89952634,19.0039733 L7.13999996,19 L92.86,19 L7.13999996,19 Z M92.86,23.76 L7.13999996,23.76 C5.88251176,23.7652505 4.85444243,24.7411433 4.76613101,25.9773392 L4.75999995,26.14 L4.75999995,73.76 C4.75999995,75.0196695 5.73861533,76.0507711 6.97705055,76.1345093 L7.13999996,76.14 L92.86,76.14 C94.1196695,76.14 95.1507711,75.1613847 95.2345093,73.9229494 L95.24,73.76 L95.24,26.14 C95.2345212,24.8278384 94.1721616,23.7654788 92.86,23.76 Z M12.86,28.52 L20.52,28.52 C22.2972513,28.5253211 23.7468811,29.9180191 23.8447349,31.6708639 L23.85,31.86 L23.85,39.48 C23.8445087,41.3168288 22.3568288,42.8045087 20.52,42.81 C22.2934899,42.8153019 23.7414949,44.202335 23.8441911,45.9512752 L23.85,46.14 L23.85,53.76 C23.8500079,55.5372593 22.4616629,56.9910586 20.7091194,57.0941678 L20.52,57.1 L29.52,57.1 C27.7427486,57.0946789 26.2931188,55.7019809 26.195265,53.9491361 L26.19,53.76 L26.19,46.14 C26.1954913,44.3031712 27.6831711,42.8154913 29.52,42.81 C27.7465101,42.804698 26.2985051,41.417665 26.1958088,39.6687248 L26.19,39.48 L26.19,31.86 C26.189992,30.0827407 27.578337,28.6289414 29.3308805,28.5258321 L29.52,28.52 L37.19,28.52 C38.9688223,28.525302 40.4211848,29.9165087 40.5241753,31.6707077 L40.53,31.86 L40.53,39.48 C40.5244888,41.3207246 39.0307329,42.8100082 37.19,42.81 C38.9672593,42.809992 40.4210586,44.198337 40.5241678,45.9508805 L40.53,46.14 L40.53,53.76 C40.524698,55.5388223 39.1334913,56.9911848 37.3792923,57.0941753 L37.19,57.1 L46.19,57.1 C44.4127486,57.0946789 42.9631188,55.7019809 42.8652651,53.9491361 L42.86,53.76 L42.86,46.14 C42.8654913,44.3031712 44.3531712,42.8154913 46.19,42.81 C44.4165101,42.804698 42.9685051,41.417665 42.8658088,39.6687248 L42.86,39.48 L42.86,31.86 C42.859992,30.0827407 44.248337,28.6289414 46.0008805,28.5258321 L46.19,28.52 L53.86,28.52 C55.6372514,28.5253211 57.0868812,29.9180191 57.1847349,31.6708639 L57.19,31.86 L57.19,39.48 C57.1845087,41.3168288 55.6968288,42.8045087 53.86,42.81 C55.6334899,42.8153019 57.0814949,44.202335 57.1841912,45.9512752 L57.19,46.14 L57.19,53.76 C57.190008,55.5372593 55.801663,56.9910586 54.0491195,57.0941678 L53.86,57.1 L62.86,57.1 C61.0811777,57.094698 59.6288152,55.7034913 59.5258246,53.9492923 L59.52,53.76 L59.52,46.14 C59.5255112,44.2992754 61.0192671,42.8099917 62.86,42.81 C61.0827407,42.810008 59.6289414,41.421663 59.5258321,39.6691195 L59.52,39.48 L59.52,31.86 C59.525302,30.0811777 60.9165087,28.6288152 62.6707077,28.5258247 L62.86,28.52 L70.48,28.52 C72.2572514,28.5253211 73.7068735,29.9180191 73.8047342,31.6708639 L73.81,31.86 L73.81,39.48 C73.8045087,41.3168288 72.3168289,42.8045087 70.48,42.81 C72.2534899,42.8153019 73.7014949,44.202335 73.8041912,45.9512752 L73.81,46.14 L73.81,53.76 C73.81,55.6007329 72.3207246,57.0944888 70.48,57.1 C72.2534899,57.105302 73.7014949,58.492335 73.8041912,60.2412752 L73.81,60.43 L73.81,68.05 C73.8046981,69.8234899 72.4176651,71.2714949 70.6687249,71.3741912 L70.48,71.38 L12.86,71.38 C11.0827406,71.38 9.62894136,69.9916624 9.52583213,68.2391195 L9.51999996,68.05 L9.51999996,60.43 C9.52551114,58.5892754 11.0192671,57.0999918 12.86,57.1 C11.0811777,57.094698 9.62881514,55.7034913 9.52582464,53.9492923 L9.51999996,53.76 L9.51999996,46.14 C9.52551114,44.2992754 11.0192671,42.8099917 12.86,42.81 C11.0827406,42.810008 9.62894136,41.421663 9.52583213,39.6691195 L9.51999996,39.48 L9.51999996,31.86 C9.525302,30.0811777 10.9165087,28.6288152 12.6707077,28.5258247 L12.86,28.52 L20.52,28.52 L12.86,28.52 Z M87.14,28.52 C88.9823517,28.5254914 90.4745086,30.0176483 90.48,31.86 L90.48,53.76 C90.4745086,55.6023517 88.9823517,57.0945086 87.14,57.1 C88.9807329,57.0999918 90.4744889,58.5892754 90.48,60.43 L90.48,68.05 C90.4744889,69.8907246 88.9807329,71.38 87.14,71.38 L79.52,71.38 C77.6831712,71.3745087 76.1954913,69.8868289 76.19,68.05 L76.19,60.43 C76.1954913,58.5931712 77.6831712,57.1054913 79.52,57.1 C77.6792754,57.0944888 76.19,55.6007329 76.19,53.76 L76.19,31.86 C76.19,30.0192671 77.6792754,28.5255112 79.52,28.52 L87.14,28.52 Z M85.76,61.86 L81,61.86 L81,66.62 L85.71,66.62 L85.76,61.86 Z M69.05,61.86 L14.29,61.86 L14.29,66.57 L69.05,66.57 L69.05,61.86 Z M52.38,47.57 L47.62,47.57 L47.62,52.33 L52.38,52.33 L52.38,47.57 Z M35.76,47.57 L31,47.57 L31,52.33 L35.76,52.33 L35.76,47.57 Z M19.05,47.57 L14.29,47.57 L14.29,52.33 L19.05,52.33 L19.05,47.57 Z M85.76,33.33 L81,33.33 L81,52.33 L85.71,52.33 L85.76,33.33 Z M69.05,47.57 L64.29,47.57 L64.29,52.28 L69.05,52.28 L69.05,47.57 Z M52.38,33.29 L47.62,33.29 L47.62,38.05 L52.38,38.05 L52.38,33.29 Z M35.76,33.29 L31,33.29 L31,38.05 L35.76,38.05 L35.76,33.29 Z M19.05,33.29 L14.29,33.29 L14.29,38.05 L19.05,38.05 L19.05,33.29 Z M69.05,33.29 L64.29,33.29 L64.29,38 L69.05,38 L69.05,33.29 Z" id="Shape" fill="#000000"></path>
    </g>
</svg>