<?xml version="1.0" encoding="UTF-8"?>
<svg width="100px" height="100px" viewBox="0 0 100 100" version="1.1" xmlns="http://www.w3.org/2000/svg" xmlns:xlink="http://www.w3.org/1999/xlink">
    <!-- Generator: Sketch 57.1 (83088) - https://sketch.com -->
    <title>solid/keyboard-solid</title>
    <desc>Created with Sketch.</desc>
    <g id="solid/keyboard" stroke="none" stroke-width="1" fill="none" fill-rule="evenodd">
        <path d="M92.86,19 L7.13999996,19 C3.19668684,19 -4.9999997e-08,22.1966869 -4.9999997e-08,26.14 L-4.9999997e-08,73.76 C-4.9999997e-08,77.7033131 3.19668684,80.9 7.13999996,80.9 L92.86,80.9 C96.8033132,80.9 100,77.7033131 100,73.76 L100,26.14 C100,22.1966869 96.8033132,19 92.86,19 Z M45.2399462,31.86 C45.2372963,31.6072252 45.3365168,31.3640149 45.5152659,31.1852658 C45.6940149,31.0065168 45.9372252,30.9072963 46.19,30.9099461 L53.81,30.9099461 C54.0627748,30.9072963 54.3059851,31.0065168 54.4847341,31.1852658 C54.6634832,31.3640149 54.7627037,31.6072252 54.7600538,31.86 L54.7600538,39.48 C54.7348871,39.9939092 54.3239092,40.4048871 53.81,40.43 L46.19,40.43 C45.6760908,40.4048871 45.2651129,39.9939092 45.2399462,39.48 L45.2399462,31.86 Z M45.24,46.14 C45.2651129,45.6260908 45.6760908,45.2151129 46.19,45.19 L53.81,45.19 C54.3239092,45.2151129 54.7348871,45.6260908 54.76,46.14 L54.76,53.76 C54.7767323,54.021274 54.6837421,54.2776886 54.5034212,54.4675001 C54.3231002,54.6573116 54.0717881,54.7633204 53.81,54.7600757 L46.19,54.7600757 C45.9282119,54.7633204 45.6768998,54.6573116 45.4965788,54.4675001 C45.3162579,54.2776886 45.2232677,54.021274 45.24,53.76 L45.24,46.14 Z M28.57,31.86 C28.5951129,31.3460908 29.0060908,30.9351129 29.52,30.9099992 L37.14,30.9099992 C37.6733335,30.9093329 38.1133337,31.3273331 38.14,31.86 L38.14,39.48 C38.1133337,40.0126668 37.6733335,40.4306671 37.14,40.4300008 L29.52,40.4300008 C29.0060908,40.4048871 28.5951129,39.9939092 28.57,39.48 L28.57,31.86 Z M28.5699992,46.14 C28.5951129,45.6260908 29.0060908,45.2151129 29.52,45.1899992 L37.14,45.1899992 C37.6733335,45.1893329 38.1133337,45.6073332 38.14,46.14 L38.14,53.76 C38.14,54.3122848 37.6922847,54.76 37.14,54.76 L29.52,54.76 C28.9873331,54.7333337 28.5693329,54.2933335 28.5699992,53.76 L28.5699992,46.14 Z M11.9,31.86 C11.9266662,31.3273331 12.3666665,30.9093329 12.9,30.9099992 L20.52,30.9099992 C21.0339092,30.9351129 21.4448871,31.3460908 21.47,31.86 L21.47,39.48 C21.4448871,39.9939092 21.0339092,40.4048871 20.52,40.4300008 L12.86,40.4300008 C12.3266665,40.4306671 11.8866662,40.0126668 11.86,39.48 L11.9,31.86 Z M11.9,46.14 C11.9266662,45.6073332 12.3666665,45.1893329 12.9,45.1899992 L20.52,45.1899992 C21.0339092,45.2151129 21.4448871,45.6260908 21.4700008,46.14 L21.4700008,53.76 C21.470667,54.2933335 21.0526668,54.7333337 20.52,54.76 L12.86,54.76 C12.3077152,54.76 11.86,54.3122848 11.86,53.76 L11.9,46.14 Z M71.43,68.05 C71.43,68.6022848 70.9822848,69.05 70.43,69.05 L12.86,69.05 C12.3077152,69.05 11.86,68.6022848 11.86,68.05 L11.86,60.43 C11.86,59.8777153 12.3077152,59.43 12.86,59.43 L70.48,59.43 C71.0322848,59.43 71.48,59.8777153 71.48,60.43 L71.43,68.05 Z M71.43,53.76 C71.43,54.3122848 70.9822848,54.76 70.43,54.76 L62.86,54.76 C62.3077153,54.76 61.86,54.3122848 61.86,53.76 L61.86,46.14 C61.8866663,45.6073332 62.3266665,45.1893329 62.86,45.1899992 L70.48,45.1899992 C71.0133335,45.1893329 71.4533337,45.6073332 71.48,46.14 L71.43,53.76 Z M71.43,39.48 C71.4033337,40.0126668 70.9633335,40.4306671 70.43,40.4300008 L62.86,40.4300008 C62.3266665,40.4306671 61.8866663,40.0126668 61.86,39.48 L61.86,31.86 C61.8866663,31.3273331 62.3266665,30.9093329 62.86,30.9099992 L70.48,30.9099992 C71.0133335,30.9093329 71.4533337,31.3273331 71.48,31.86 L71.43,39.48 Z M88.1,68.05 C88.1,68.6022848 87.6522848,69.05 87.1,69.05 L79.52,69.05 C78.9677153,69.05 78.52,68.6022848 78.52,68.05 L78.52,60.43 C78.52,59.8777153 78.9677153,59.43 79.52,59.43 L87.14,59.43 C87.6922848,59.43 88.14,59.8777153 88.14,60.43 L88.1,68.05 Z M88.1,53.76 C88.1,54.3122848 87.6522848,54.76 87.1,54.76 L79.52,54.76 C78.9677153,54.76 78.52,54.3122848 78.52,53.76 L78.52,31.86 C78.5466663,31.3273331 78.9866665,30.9093329 79.52,30.9099992 L87.14,30.9099992 C87.6733335,30.9093329 88.1133338,31.3273331 88.14,31.86 L88.1,53.76 Z" id="keyboard" fill="#000000"></path>
    </g>
</svg>