<svg width="100" height="100" viewBox="0 0 100 100" fill="none" xmlns="http://www.w3.org/2000/svg">
<path d="M92.3529 18.8235H7.64706C3.42639 18.83 0.0064784 22.2499 0 26.4706V73.5294C0.0064784 77.7501 3.42639 81.17 7.64706 81.1765H92.3529C96.5736 81.17 99.9935 77.7501 100 73.5294V26.4706C99.9935 22.2499 96.5736 18.83 92.3529 18.8235ZM45.2941 32.353C45.2941 31.7032 45.8208 31.1765 46.4706 31.1765H53.5294C54.1792 31.1765 54.7059 31.7032 54.7059 32.353V39.4118C54.7059 40.0615 54.1792 40.5883 53.5294 40.5883H46.4706C45.8208 40.5883 45.2941 40.0615 45.2941 39.4118V32.353ZM45.2941 46.4706C45.2941 45.8209 45.8208 45.2941 46.4706 45.2941H53.5294C54.1792 45.2941 54.7059 45.8209 54.7059 46.4706V53.5294C54.7059 54.1792 54.1792 54.7059 53.5294 54.7059H46.4706C45.8208 54.7059 45.2941 54.1792 45.2941 53.5294V46.4706ZM28.8235 32.353C28.8235 31.7032 29.3503 31.1765 30 31.1765H37.0588C37.7086 31.1765 38.2353 31.7032 38.2353 32.353V39.4118C38.2353 40.0615 37.7086 40.5883 37.0588 40.5883H30C29.3503 40.5883 28.8235 40.0615 28.8235 39.4118V32.353ZM28.8235 46.4706C28.8235 45.8209 29.3503 45.2941 30 45.2941H37.0588C37.7086 45.2941 38.2353 45.8209 38.2353 46.4706V53.5294C38.2353 54.1792 37.7086 54.7059 37.0588 54.7059H30C29.3503 54.7059 28.8235 54.1792 28.8235 53.5294V46.4706ZM12.3529 32.353C12.3529 31.7032 12.8797 31.1765 13.5294 31.1765H20.5882C21.238 31.1765 21.7647 31.7032 21.7647 32.353V39.4118C21.7647 40.0615 21.238 40.5883 20.5882 40.5883H13.5294C12.8797 40.5883 12.3529 40.0615 12.3529 39.4118V32.353ZM12.3529 46.4706C12.3529 45.8209 12.8797 45.2941 13.5294 45.2941H20.5882C21.238 45.2941 21.7647 45.8209 21.7647 46.4706V53.5294C21.7647 54.1792 21.238 54.7059 20.5882 54.7059H13.5294C12.8797 54.7059 12.3529 54.1792 12.3529 53.5294V46.4706ZM71.1765 67.8824C71.1765 68.4022 70.7551 68.8235 70.2353 68.8235H13.2941C12.7743 68.8235 12.3529 68.4022 12.3529 67.8824V60.353C12.3529 59.8332 12.7743 59.4118 13.2941 59.4118H70.2353C70.7551 59.4118 71.1765 59.8332 71.1765 60.353V67.8824ZM71.1765 53.5294C71.1765 54.1792 70.6497 54.7059 70 54.7059H62.9412C62.2914 54.7059 61.7647 54.1792 61.7647 53.5294V46.4706C61.7647 45.8209 62.2914 45.2941 62.9412 45.2941H70C70.6497 45.2941 71.1765 45.8209 71.1765 46.4706V53.5294ZM71.1765 39.4118C71.1765 40.0615 70.6497 40.5883 70 40.5883H62.9412C62.2914 40.5883 61.7647 40.0615 61.7647 39.4118V32.353C61.7647 31.7032 62.2914 31.1765 62.9412 31.1765H70C70.6497 31.1765 71.1765 31.7032 71.1765 32.353V39.4118ZM87.6471 67.6471C87.6471 68.2968 87.1203 68.8235 86.4706 68.8235H79.4118C78.762 68.8235 78.2353 68.2968 78.2353 67.6471V60.5883C78.2353 59.9385 78.762 59.4118 79.4118 59.4118H86.4706C87.1203 59.4118 87.6471 59.9385 87.6471 60.5883V67.6471ZM87.6471 53.7647C87.6471 54.2845 87.2257 54.7059 86.7059 54.7059H79.1765C78.6567 54.7059 78.2353 54.2845 78.2353 53.7647V32.1177C78.2353 31.5979 78.6567 31.1765 79.1765 31.1765H86.7059C87.2257 31.1765 87.6471 31.5979 87.6471 32.1177V53.7647Z" fill="black"/>
</svg>
