<svg width="100" height="100" viewBox="0 0 100 100" fill="none" xmlns="http://www.w3.org/2000/svg">
<path d="M13.3525 31.1763H20.7643C21.3166 31.1763 21.7643 31.624 21.7643 32.1763V39.588C21.7643 40.1403 21.3166 40.588 20.7643 40.588H13.3525C12.8003 40.588 12.3525 40.1403 12.3525 39.588V32.1763C12.3525 31.624 12.8003 31.1763 13.3525 31.1763Z" fill="black"/>
<path d="M53.7057 31.1763H46.2939C45.7417 31.1763 45.2939 31.624 45.2939 32.1763V39.588C45.2939 40.1403 45.7417 40.588 46.2939 40.588H53.7057C54.258 40.588 54.7057 40.1403 54.7057 39.588V32.1763C54.7057 31.624 54.258 31.1763 53.7057 31.1763Z" fill="black"/>
<path d="M62.7646 31.1763H70.1764C70.7287 31.1763 71.1764 31.624 71.1764 32.1763V39.588C71.1764 40.1403 70.7287 40.588 70.1764 40.588H62.7646C62.2124 40.588 61.7646 40.1403 61.7646 39.588V32.1763C61.7646 31.624 62.2124 31.1763 62.7646 31.1763Z" fill="black"/>
<path d="M86.8471 31.1763H79.0354C78.5935 31.1763 78.2354 31.5344 78.2354 31.9763V53.9057C78.2354 54.3475 78.5935 54.7057 79.0354 54.7057H86.8471C87.2889 54.7057 87.6471 54.3475 87.6471 53.9057V31.9763C87.6471 31.5344 87.2889 31.1763 86.8471 31.1763Z" fill="black"/>
<path d="M13.3525 45.2939H20.7643C21.3166 45.2939 21.7643 45.7417 21.7643 46.2939V53.7057C21.7643 54.258 21.3166 54.7057 20.7643 54.7057H13.3525C12.8003 54.7057 12.3525 54.258 12.3525 53.7057V46.2939C12.3525 45.7417 12.8003 45.2939 13.3525 45.2939Z" fill="black"/>
<path d="M53.7057 45.2939H46.2939C45.7417 45.2939 45.2939 45.7417 45.2939 46.2939V53.7057C45.2939 54.258 45.7417 54.7057 46.2939 54.7057H53.7057C54.258 54.7057 54.7057 54.258 54.7057 53.7057V46.2939C54.7057 45.7417 54.258 45.2939 53.7057 45.2939Z" fill="black"/>
<path d="M62.7646 45.2939H70.1764C70.7287 45.2939 71.1764 45.7417 71.1764 46.2939V53.7057C71.1764 54.258 70.7287 54.7057 70.1764 54.7057H62.7646C62.2124 54.7057 61.7646 54.258 61.7646 53.7057V46.2939C61.7646 45.7417 62.2124 45.2939 62.7646 45.2939Z" fill="black"/>
<path d="M70.3761 59.4116H13.1525C12.7107 59.4116 12.3525 59.7698 12.3525 60.2116V68.0234C12.3525 68.4652 12.7107 68.8234 13.1525 68.8234H70.3761C70.8179 68.8234 71.1761 68.4652 71.1761 68.0234V60.2116C71.1761 59.7698 70.8179 59.4116 70.3761 59.4116Z" fill="black"/>
<path d="M29.8232 31.1763H37.235C37.7873 31.1763 38.235 31.624 38.235 32.1763V39.588C38.235 40.1403 37.7873 40.588 37.235 40.588H29.8232C29.271 40.588 28.8232 40.1403 28.8232 39.588V32.1763C28.8232 31.624 29.271 31.1763 29.8232 31.1763Z" fill="black"/>
<path d="M37.235 45.2939H29.8232C29.271 45.2939 28.8232 45.7417 28.8232 46.2939V53.7057C28.8232 54.258 29.271 54.7057 29.8232 54.7057H37.235C37.7873 54.7057 38.235 54.258 38.235 53.7057V46.2939C38.235 45.7417 37.7873 45.2939 37.235 45.2939Z" fill="black"/>
<path d="M79.2354 59.4116H86.6471C87.1994 59.4116 87.6471 59.8593 87.6471 60.4116V67.8234C87.6471 68.3757 87.1994 68.8234 86.6471 68.8234H79.2354C78.6831 68.8234 78.2354 68.3757 78.2354 67.8234V60.4116C78.2354 59.8593 78.6831 59.4116 79.2354 59.4116Z" fill="black"/>
<path fill-rule="evenodd" clip-rule="evenodd" d="M7.64706 81.1767H92.3529C96.5736 81.1702 99.9935 77.7503 100 73.5296V26.4708C99.9935 22.2501 96.5736 18.8302 92.3529 18.8237H7.64706C3.42639 18.8302 0.0064784 22.2501 0 26.4708V73.5296C0.0064784 77.7503 3.42639 81.1702 7.64706 81.1767ZM5.88235 26.4708C5.88235 25.4962 6.67244 24.7061 7.64706 24.7061H92.3529C93.3276 24.7061 94.1176 25.4962 94.1176 26.4708V73.5296C94.1176 74.5042 93.3276 75.2943 92.3529 75.2943H7.64706C6.67244 75.2943 5.88235 74.5042 5.88235 73.5296V26.4708Z" fill="black"/>
</svg>
