<svg width="100" height="100" viewBox="0 0 100 100" fill="none" xmlns="http://www.w3.org/2000/svg">
<path fill-rule="evenodd" clip-rule="evenodd" d="M99.8174 48.515L100 48.577V51.791L99.8034 51.846C98.6214 52.173 97.7814 52.609 96.9954 53.302L96.9944 53.303C95.8064 54.341 95.2054 55.785 95.2054 57.595V64.882C95.2054 67.465 94.3764 69.344 92.6714 70.628C90.9864 71.897 88.9584 72.572 86.6414 72.634L85.0414 72.622V68.524L85.2334 68.467C86.3484 68.142 86.7994 67.767 87.2354 67.345C88.1444 66.523 88.6414 65.273 88.6414 63.818V57.934C88.6744 55.808 88.8464 54.258 89.5974 53.091C90.2964 52.006 91.5564 51.072 93.4384 50.244C91.3464 49.185 89.9034 47.822 89.1444 46.186C88.6404 45.089 88.6404 43.627 88.6404 41.935V36.539C88.6404 34.503 87.8754 33.44 87.4194 32.987C86.9634 32.534 86.4424 32.201 85.2504 31.942L85.0394 31.896V28L85.3094 28.002C86.3474 28.014 87.0484 28.009 87.6674 28.006C87.9894 28.004 88.2904 28.002 88.6044 28.002C90.1004 27.991 91.3664 28.818 92.4044 29.629C93.5694 30.545 94.4054 31.796 94.8864 33.345C95.1654 34.253 95.2034 35.118 95.2034 35.916V42.157C95.2034 44.186 95.7854 45.818 96.8854 46.875C97.5674 47.55 98.4984 48.07 99.8174 48.515ZM11.3052 46.1878C10.5452 47.8248 9.10224 49.1868 7.01124 50.2458C8.87224 51.0668 10.1632 52.0228 10.8522 53.0918C11.5762 54.2158 11.9452 55.7998 11.9792 57.9318V63.8208C11.9792 65.4168 12.3932 66.6018 13.2092 67.3408C13.7202 67.8308 14.3892 68.1768 15.3882 68.4688L15.5802 68.5258V72.6258L13.8182 72.6378C11.4952 72.5748 9.46724 71.8988 7.78024 70.6298C6.14424 69.3988 5.41524 67.6268 5.41524 64.8858V57.5978C5.41524 55.4638 4.35024 54.0848 3.45624 53.3048C2.85924 52.7748 1.73224 52.2718 0.197244 51.8478L0.000244141 51.7938V48.5788L0.182244 48.5168C1.94624 47.9228 3.05224 47.3878 3.56324 46.8808C4.41024 46.0658 5.41624 44.5868 5.41624 42.1598V35.9188C5.41624 35.8028 5.41524 35.6868 5.41424 35.5698C5.40924 34.8848 5.40524 34.1768 5.55624 33.3778C5.83424 31.9558 6.64824 30.7308 8.04624 29.6328C9.07524 28.8278 10.3262 28.0058 11.8142 28.0058H11.8492C12.1382 28.0048 12.4952 28.0068 12.8902 28.0088L12.8932 28.0038H16.6702V32.1148L14.9172 32.1018C14.0072 32.3498 13.3722 32.6478 13.0312 32.9878C12.3432 33.6718 11.9792 34.9018 11.9792 36.5418V41.9368C11.9792 43.8368 11.7652 45.1888 11.3052 46.1878ZM40.6758 46.8226C41.1358 47.4906 41.3658 48.8366 41.3658 49.8646V50.3256H35.8478C35.9308 48.9066 36.1908 47.3866 36.6218 46.7616C37.0538 46.1356 37.7148 45.8226 38.6068 45.8226C39.5268 45.8226 40.2168 46.1556 40.6758 46.8226ZM82.9424 61.4242C84.4874 60.1992 85.2614 58.5442 85.2614 56.4582C85.2614 53.2892 83.3944 51.0502 79.6584 49.7422L77.0434 48.8212C75.9754 48.4322 75.4424 47.9042 75.4424 47.2362C75.4424 46.8472 75.5874 46.5282 75.8814 46.2772C76.1794 46.0262 76.6044 45.9012 77.1684 45.9012C78.7414 45.9012 80.7054 46.4292 83.0654 47.4862C83.6014 47.0972 84.0494 46.4372 84.4155 45.5042C84.7785 44.5722 84.9344 43.7172 84.8794 42.9382C83.9234 42.4662 82.7014 41.6082 81.2134 41.2602C79.7244 40.9122 78.3644 40.7382 77.1284 40.7382C74.6294 40.7382 72.6414 41.8042 71.1674 43.0422C69.6934 44.2812 68.9564 45.9562 68.9564 48.0702C68.9564 50.9652 70.7114 53.0502 74.2204 54.3282L76.5404 55.2052C77.8324 55.6222 78.4794 56.2472 78.4794 57.0842C78.4794 57.5282 78.2694 57.8832 77.8464 58.1472C77.4244 58.4112 76.8184 58.5432 76.0354 58.5432C74.3774 58.5432 72.4224 57.9592 70.1784 56.7922C69.7034 57.2922 69.2874 57.9772 68.9364 58.8382C68.5864 59.6982 68.3944 60.4922 68.3684 61.2152C70.8104 62.5792 73.4624 63.4092 76.3294 63.4092C79.1964 63.4092 81.3984 62.6502 82.9424 61.4242ZM64.2824 61.4242C65.8254 60.1992 66.5994 58.5442 66.5994 56.4582C66.5994 53.2892 64.7324 51.0502 60.9964 49.7422L58.3814 48.8212C57.3144 48.4322 56.7804 47.9042 56.7804 47.2362C56.7804 46.8472 56.9264 46.5282 57.2204 46.2772C57.5164 46.0262 57.9434 45.9012 58.5054 45.9012C60.0804 45.9012 62.0444 46.4292 64.4054 47.4862C64.9394 47.0972 65.3884 46.4372 65.7544 45.5042C66.1174 44.5722 66.2734 43.7172 66.2164 42.9382C65.2614 42.4662 64.0414 41.6082 62.5514 41.2602C61.0664 40.9122 59.7024 40.7382 58.4664 40.7382C55.9674 40.7382 53.9814 41.8042 52.5074 43.0422C51.0324 44.2812 50.2944 45.9562 50.2944 48.0702C50.2944 50.9652 52.0504 53.0502 55.5604 54.3282L57.8794 55.2052C59.1714 55.6222 59.8184 56.2472 59.8184 57.0842C59.8184 57.5282 59.6064 57.8832 59.1854 58.1472C58.7644 58.4112 58.1584 58.5432 57.3744 58.5432C55.7164 58.5432 53.7644 57.9592 51.5174 56.7922C51.0404 57.2922 50.6264 57.9772 50.2754 58.8382C49.9234 59.6982 49.7334 60.4922 49.7064 61.2152C52.1474 62.5792 54.8024 63.4092 57.6674 63.4092C60.5334 63.4092 62.7364 62.6502 64.2824 61.4242ZM46.8424 54.4852C47.2044 53.3152 47.3874 51.7342 47.3874 50.0372C47.3874 48.7582 47.1834 47.5752 46.7764 46.4892C46.3704 45.4042 45.7874 44.4742 45.0294 43.6952C44.2704 42.9152 43.3514 42.3042 42.2704 41.8592C41.1884 41.4142 39.9734 40.7432 38.6264 40.7432C37.0254 40.7432 35.6284 41.4692 34.4344 42.0262C33.2414 42.5812 32.2584 43.3462 31.4864 44.3202C30.7134 45.2942 30.1374 46.4412 29.7584 47.7632C29.3794 49.0832 29.1904 50.5242 29.1904 52.0802C29.1904 53.6932 29.3434 55.1832 29.6534 56.5462C29.9624 57.9062 30.4884 59.0882 31.2334 60.0912C31.9774 61.0922 32.9464 61.8702 34.1404 62.4262C35.3344 62.9822 36.8154 63.4082 38.5844 63.4082C41.8414 63.4082 44.5934 62.4652 46.8404 60.8812C46.6184 59.2702 46.0444 57.9872 45.1214 57.0422C43.9744 57.4732 42.9594 57.7812 42.0784 57.9712C41.1974 58.1582 40.4204 58.2522 39.7494 58.2522C38.4064 58.2522 37.4404 57.9112 36.8544 57.2212C36.2684 56.5332 35.9464 55.7202 35.8894 54.4852H46.8424ZM88.2374 46.6072C88.8755 47.9802 89.9244 49.1762 91.3694 50.1782C90.1884 50.8822 89.3274 51.6652 88.7564 52.5502C87.8774 53.9172 87.6774 55.6172 87.6414 57.9342V63.8182C87.6414 64.9862 87.2584 65.9752 86.5404 66.6262C86.2364 66.9202 85.9224 67.2252 84.9514 67.5082L84.0414 67.7762V72.3702H16.5804V67.7772L15.6684 67.5092C14.8344 67.2652 14.2884 66.9902 13.8804 66.6002C13.2824 66.0582 12.9794 65.1232 12.9794 63.8202V57.9162C12.9414 55.5912 12.5214 53.8362 11.6924 52.5502C11.1334 51.6832 10.2564 50.8902 9.07644 50.1832C10.5234 49.1812 11.5744 47.9842 12.2124 46.6092L12.2134 46.6062C12.7364 45.4712 12.9794 43.9872 12.9794 41.9372V36.5412C12.9794 35.1932 13.2484 34.1822 13.7364 33.6962C13.8094 33.6232 14.1154 33.3722 15.0514 33.1032L17.5964 33.1202V57.0422C17.5964 59.0462 18.0464 60.5122 18.8474 61.4452C19.6494 62.3772 21.0034 62.8422 22.9134 62.8422C24.2334 62.8422 25.7354 62.7032 27.4204 62.4242C27.5044 62.1432 27.5464 61.5402 27.5464 60.6162C27.5464 59.6902 27.3784 58.7662 27.0414 57.8372H25.9034C24.6674 57.8372 24.2014 57.1872 24.2014 55.8812V31.8712C24.2014 30.4282 23.7844 29.4142 23.2504 28.8302C22.8734 28.4182 22.2894 28.3062 21.5194 28.2732H84.0394V32.7012L85.0384 32.9192C86.0974 33.1492 86.4234 33.4062 86.7134 33.6952C87.0604 34.0392 87.6404 34.8662 87.6404 36.5392V41.9352C87.6404 43.7442 87.6404 45.3082 88.2374 46.6072Z" fill="black"/>
</svg>
