<?xml version="1.0" encoding="UTF-8"?>
<svg width="100px" height="100px" viewBox="0 0 100 100" version="1.1" xmlns="http://www.w3.org/2000/svg" xmlns:xlink="http://www.w3.org/1999/xlink">
    <!-- Generator: Sketch 57.1 (83088) - https://sketch.com -->
    <title>regular/lightning-regular</title>
    <desc>Created with Sketch.</desc>
    <g id="regular/lightning" stroke="none" stroke-width="1" fill="none" fill-rule="evenodd">
        <path d="M46.38,100 C45.9588742,99.9971 45.5406823,99.9296497 45.14,99.8 C43.2657027,99.209356 42.1453299,97.2930427 42.55,95.37 L49.9,58.31 L49.8,58.2 L31.36,58.2 C29.697737,58.1956145 28.1525215,57.3436852 27.2615319,55.9403766 C26.3705423,54.537068 26.2568579,52.77623 26.96,51.27 L49.96,2.26999995 C50.7897885,0.496245783 52.8137734,-0.378142053 54.6740675,0.233461465 C56.5343615,0.845064984 57.6446317,2.74989286 57.26,4.66999995 L49.88,41.69 L49.98,41.8 L68.42,41.8 C70.082263,41.8043855 71.6274785,42.6563148 72.5184681,44.0596234 C73.4094577,45.462932 73.5231421,47.22377 72.82,48.73 L49.82,97.73 C49.2148833,99.093403 47.8715188,99.9798673 46.38,100 Z M51.14,10.89 L31.27,53.29 L31.27,53.39 C31.295201,53.4025032 31.3247989,53.4025032 31.35,53.39 L49.8,53.39 C51.256122,53.3888751 52.6360275,54.0407086 53.5599966,55.1661302 C54.4839658,56.2915517 54.8546334,57.7719677 54.57,59.2 L48.65,89.11 L68.5,46.71 C68.5202225,46.6797338 68.5202225,46.6402662 68.5,46.61 C68.4752479,46.5957094 68.4447521,46.5957094 68.42,46.61 L49.98,46.61 C48.523878,46.6111249 47.1439725,45.9592914 46.2200034,44.8338698 C45.2960342,43.7084483 44.9253666,42.2280323 45.21,40.8 L51.14,10.89 Z" id="lightning" fill="#000000"></path>
    </g>
</svg>