<?xml version="1.0" encoding="UTF-8"?>
<svg width="100px" height="100px" viewBox="0 0 100 100" version="1.1" xmlns="http://www.w3.org/2000/svg" xmlns:xlink="http://www.w3.org/1999/xlink">
    <!-- Generator: Sketch 57.1 (83088) - https://sketch.com -->
    <title>bold/lightbulb-bold</title>
    <desc>Created with Sketch.</desc>
    <g id="bold/lightbulb" stroke="none" stroke-width="1" fill="none" fill-rule="evenodd">
        <path d="M49.660654,0.986716517 L50.1782178,0.990098961 C65.9983455,1.17851342 79.7043118,12.0054413 83.5502817,27.3521171 C87.3962517,42.6987928 80.4160355,58.7098034 66.5544555,66.3366337 L66.5544555,85.2574258 C66.5387609,89.1436476 63.7616777,92.4694958 59.9405941,93.1782179 C58.1926221,97.2964819 54.1520869,99.97093 49.6782178,99.97093 C45.2043487,99.97093 41.1638135,97.2964819 39.4158416,93.1782179 C35.594758,92.4694958 32.8176747,89.1436476 32.8019802,85.2574258 L32.8019802,66.3366337 C21.6914142,60.2099193 14.8086211,48.5095506 14.8510889,35.8217822 C14.8532307,26.4982613 18.591719,17.5644043 25.230798,11.0183616 C31.8698771,4.47231903 40.8556007,0.860274265 50.1782178,0.990098961 L49.660654,0.986716517 Z M57.5544555,84.2178218 L41.8019802,84.2178218 L41.8019802,84.3465347 L57.5544555,84.3465347 L57.5544555,84.2178218 Z M57.5544555,75.0891089 L41.8019802,75.0891089 L41.8019802,75.2178218 L57.5544555,75.2178218 L57.5544555,75.0891089 Z M49.7227723,10.0442898 C37.8170502,10.0442898 27.454604,18.1844619 24.635377,29.7515781 C21.81615,41.3186943 27.2710253,53.3139862 37.8415841,58.7920792 C40.2828894,60.065085 41.8104963,62.5932743 41.8019802,65.3465347 L41.8019802,66.0891089 L57.5544555,66.0891089 L57.5544555,65.3168317 C57.5405898,62.5646179 59.0702896,60.036789 61.5148515,58.7722772 L61.6039604,58.7920792 C72.1745193,53.3139862 77.6293945,41.3186943 74.8101675,29.7515781 C71.9909405,18.1844619 61.6284943,10.0442898 49.7227723,10.0442898 Z M51.009901,11.6237623 C52.6679538,11.5459675 54.2344606,12.3862423 55.0867624,13.8105922 C55.9390643,15.2349422 55.9390643,17.0125825 55.0867624,18.4369325 C54.2344606,19.8612824 52.6679538,20.7015572 51.009901,20.6237623 C41.6271904,20.6346836 34.025257,28.241047 34.019802,37.6237624 C34.0975968,39.2818152 33.257322,40.848322 31.8329721,41.7006238 C30.4086221,42.5529256 28.6309818,42.5529256 27.2066318,41.7006238 C25.7822819,40.848322 24.9420071,39.2818152 25.019802,37.6237624 C25.0307142,23.2727462 36.65889,11.6401406 51.009901,11.6237623 L51.009901,11.6237623 Z" id="Shape" fill="#000000"></path>
    </g>
</svg>