<?xml version="1.0" encoding="UTF-8"?>
<svg width="100px" height="100px" viewBox="0 0 100 100" version="1.1" xmlns="http://www.w3.org/2000/svg" xmlns:xlink="http://www.w3.org/1999/xlink">
    <!-- Generator: Sketch 57.1 (83088) - https://sketch.com -->
    <title>regular/lightbulb-on-regular</title>
    <desc>Created with Sketch.</desc>
    <g id="regular/lightbulb-on" stroke="none" stroke-width="1" fill="none" fill-rule="evenodd">
        <path d="M49.9307809,15.7671054 L50.34,15.77 C66.186851,16.0721284 78.920596,28.9210708 79.08,44.77 C79.168059,55.6011828 73.2265188,65.5688241 63.689452,70.6510774 L63.29,70.86 L63.2553291,70.8851363 C63.2350503,70.9048297 63.220725,70.929899 63.2140537,70.9573682 L63.21,71 L63.21,88.58 C63.2055381,91.5874435 60.8064899,94.0441398 57.8,94.12 C56.7508426,97.6061611 53.5406112,99.9925014 49.9,99.9925014 C46.2593888,99.9925014 43.0491574,97.6061611 42,94.12 C39.0763243,94.0356817 36.7339006,91.7010879 36.6147524,88.8039388 L36.61,88.58 L36.61,70.97 C36.6124076,70.9065747 36.5770965,70.8477229 36.52,70.82 C24.5126752,64.6007244 18.3564391,50.9424211 21.648994,37.8269981 C24.8750326,24.9765332 36.3425395,15.9510703 49.5226109,15.7698836 L49.9307809,15.7671054 Z M52.46,94.13 L47.38,94.13 C48.0364146,94.8357854 48.9561495,95.2377168 49.92,95.24 C50.8838505,95.2377168 51.8035854,94.8357854 52.46,94.13 Z M58.47,86.06 L41.37,86.06 L41.37,88.58 C41.3749432,88.9778807 41.6699193,89.3056017 42.053378,89.3616124 L42.16,89.37 L57.68,89.37 C57.889521,89.37 58.0904606,89.2867681 58.2386144,89.1386144 C58.3571374,89.0200914 58.4341104,88.8677855 58.4601587,88.7043292 L58.47,88.58 L58.47,86.06 Z M58.47,78 L41.37,78 L41.37,81.3 L58.47,81.3 L58.47,78 Z M76.6569063,68.2966495 L76.79,68.42 L81.69,73.32 C82.137614,73.7665051 82.3891743,74.3727619 82.3891743,75.005 C82.3891743,75.6372382 82.137614,76.2434949 81.69,76.69 C81.2389347,77.1327015 80.632016,77.3804967 80,77.380029 C79.4335345,77.3819876 78.8872967,77.1811028 78.458463,76.8172612 L78.32,76.69 L73.42,71.79 C72.8180075,71.1880075 72.5829027,70.3105843 72.8032472,69.4882472 C73.0235918,68.6659101 73.6659101,68.0235918 74.4882472,67.8032472 C75.2518459,67.5986416 76.0629424,67.7867448 76.6569063,68.2966495 Z M26.42,68.42 C27.3082998,69.3082998 27.348677,70.7234312 26.5411318,71.6596248 L26.42,71.79 L21.52,76.69 C20.5837122,77.5830678 19.1054641,77.5645094 18.1918915,76.6482179 C17.319845,75.773576 17.2672997,74.3868592 18.0434787,73.4505853 L18.16,73.32 L23.05,68.42 C23.9805998,67.4894002 25.4894002,67.4894002 26.42,68.42 Z M50.27,20.5499991 L49.92,20.5499991 C38.6623376,20.54789 28.8645435,28.2480451 26.2057157,39.1872226 C23.5468878,50.1264 28.7172897,61.4646583 38.72,66.63 C40.283589,67.4406726 41.2878606,69.0231161 41.3651993,70.7711116 L41.37,71 L41.37,73.27 L58.47,73.27 L58.47,71 C58.4552226,69.2284355 59.39524,67.5928143 60.9180924,66.7107303 L61.12,66.6 L61.4639091,66.4179065 C71.152988,61.1893392 76.1548773,50.0987255 73.6225737,39.3510223 C71.0604783,28.4768755 61.4404226,20.7318241 50.27,20.5499991 Z M92.46,42.54 C93.7744377,42.54 94.84,43.6055623 94.84,44.92 C94.84,46.1796695 93.8613847,47.2107711 92.6229495,47.2945093 L92.46,47.3 L85.54,47.3 C84.2255623,47.3 83.16,46.2344377 83.16,44.92 C83.16,43.6603305 84.1386154,42.6292289 85.3770506,42.5454907 L85.54,42.54 L92.46,42.54 Z M14.31,42.54 C15.6244377,42.54 16.69,43.6055623 16.69,44.92 C16.69,46.1796695 15.7113846,47.2107711 14.4729494,47.2945093 L14.31,47.3 L7.37999996,47.3 C6.06556225,47.3 4.99999995,46.2344377 4.99999995,44.92 C4.99999995,43.6603305 5.97861533,42.6292289 7.21705055,42.5454907 L7.37999996,42.54 L14.31,42.54 Z M50.3,23.56 C51.1502921,23.56 51.9359945,24.0136254 52.3611405,24.7499999 C52.7862866,25.4863745 52.7862866,26.3936254 52.3611405,27.13 C51.9359945,27.8663746 51.1502921,28.32 50.3,28.32 C41.1366418,28.3310203 33.7110203,35.7566418 33.7,44.92 C33.6999999,46.2344377 32.6344376,47.2999999 31.32,47.2999999 C30.0055623,47.2999999 28.94,46.2344377 28.94,44.92 C28.9565241,33.130049 38.510049,23.5765241 50.3,23.56 Z M21.382231,13.0463999 L21.52,13.16 L26.42,18.05 C26.8676139,18.4965051 27.1191743,19.1027618 27.1191743,19.735 C27.1191743,20.3672381 26.8676139,20.9734949 26.42,21.42 C25.9774017,21.8704738 25.3715151,22.1229265 24.74,22.1200499 C24.1693194,22.1210031 23.6195136,21.9170084 23.1889645,21.5487724 L23.05,21.42 L18.16,16.52 C17.3229573,15.5781341 17.3650836,14.1470779 18.2560808,13.2560808 C19.1046495,12.4075121 20.4430677,12.3288942 21.382231,13.0463999 Z M78.32,13.16 C79.2536297,12.2641537 80.7319264,12.278319 81.6482179,13.1918915 C82.5645094,14.1054641 82.5830678,15.5837122 81.69,16.52 L76.79,21.42 C75.8594002,22.3505998 74.3505998,22.3505998 73.42,21.42 C72.4894002,20.4894002 72.4894002,18.9805998 73.42,18.05 L78.32,13.16 Z M49.92,-4.9999997e-08 C51.1796695,-4.9999997e-08 52.2107711,0.978615323 52.2945093,2.21705054 L52.3,2.37999995 L52.3,9.30999996 C52.3,10.6244377 51.2344377,11.69 49.92,11.69 C48.6625118,11.6847494 47.6344425,10.7088567 47.5461311,9.47266072 L47.54,9.30999996 L47.54,2.37999995 C47.54,1.06556225 48.6055623,-4.9999997e-08 49.92,-4.9999997e-08 Z" id="Shape" fill="#000000"></path>
    </g>
</svg>