<svg width="100" height="100" viewBox="0 0 100 100" fill="none" xmlns="http://www.w3.org/2000/svg">
<g clip-path="url(#clip0)">
<path d="M30.0823 100C28.955 99.9669 27.9114 99.3971 27.274 98.4667C26.6367 97.5362 26.4824 96.3572 26.8588 95.2941L41.7647 58.1294H12.8117C11.4793 58.1291 10.235 57.4634 9.49539 56.3551C8.75574 55.2468 8.61842 53.8423 9.12938 52.6118L30 2.45882C30.6113 0.986232 32.0409 0.0192524 33.6353 0H74.4588C75.9673 0.00222168 77.3455 0.85538 78.0201 2.20464C78.6947 3.5539 78.5504 5.16833 77.647 6.37647L56.3176 34.8353H87C88.6135 34.8305 90.0699 35.8012 90.6865 37.2923C91.303 38.7833 90.9574 40.4992 89.8117 41.6353L32.5294 98.9765C31.8851 99.6337 31.0027 100.003 30.0823 100ZM15.647 52.2471H45.2941C46.4193 52.2838 47.4595 52.8551 48.0941 53.785C48.7288 54.7149 48.8817 55.8917 48.5059 56.9529L36.7411 86.3647L82.4235 40.7176H51.4706C50.1583 40.7188 48.9585 39.9772 48.3726 38.803C47.7868 37.6288 47.9158 36.2242 48.7059 35.1765L70.6588 5.88235H34.9059L15.647 52.2471Z" fill="black"/>
</g>
<defs>
<clipPath id="clip0">
<rect width="100" height="100" fill="white"/>
</clipPath>
</defs>
</svg>
