<svg width="100" height="100" viewBox="0 0 100 100" fill="none" xmlns="http://www.w3.org/2000/svg">
<path d="M45.3156 11.3553C45.3156 13.9099 47.3865 15.9807 49.941 15.9807C52.4956 15.9807 54.5664 13.9099 54.5664 11.3553V4.62538C54.5664 2.07086 52.4956 0 49.941 0C47.3865 0 45.3156 2.07086 45.3156 4.62538V11.3553Z" fill="black"/>
<path d="M25.4847 26.1101C24.2576 26.111 23.0804 25.6243 22.2122 24.7571L17.4596 19.993C15.8038 18.1655 15.8729 15.3604 17.6166 13.6166C19.3604 11.8729 22.1655 11.8038 23.993 13.4596L28.7571 18.2122C30.0815 19.5351 30.478 21.5259 29.7614 23.2552C29.0448 24.9846 27.3566 26.1115 25.4847 26.1101Z" fill="black"/>
<path fill-rule="evenodd" clip-rule="evenodd" d="M36.4353 72.8497V71.4967C24.7064 65.2813 18.7175 51.8771 21.9131 38.9935C25.1087 26.11 36.6675 17.0582 49.9414 17.0444H50.3577C63.5572 17.2402 74.9473 26.3527 78.0354 39.1874C81.1235 52.022 75.1249 65.3183 63.4591 71.4967V72.8497H36.4353ZM50.323 24.6185C38.55 24.6312 29.0075 34.1685 28.9884 45.9415C28.9884 47.5381 30.2827 48.8324 31.8793 48.8324C33.4759 48.8324 34.7702 47.5381 34.7702 45.9415C34.7829 37.359 41.7406 30.4066 50.323 30.4002C51.9196 30.4002 53.2139 29.1059 53.2139 27.5093C53.2139 25.9128 51.9196 24.6185 50.323 24.6185Z" fill="black"/>
<path d="M36.4353 78.6544H63.4592V80.7011H36.4353V78.6544Z" fill="black"/>
<path d="M36.4353 86.4834V88.3452C36.4458 91.4177 38.7879 93.9799 41.847 94.2657C43.0549 97.7012 46.2998 100 49.9415 100C53.5831 100 56.8281 97.7012 58.0359 94.2657C61.0951 93.9799 63.4371 91.4177 63.4476 88.3452V86.4834H36.4353Z" fill="black"/>
<path d="M84.5387 50.5674H91.2687C93.8232 50.5674 95.894 48.4965 95.894 45.942C95.894 43.3875 93.8232 41.3166 91.2687 41.3166H84.5387C81.9842 41.3166 79.9133 43.3875 79.9133 45.942C79.9133 48.4965 81.9842 50.5674 84.5387 50.5674Z" fill="black"/>
<path d="M15.3553 50.5674H8.62538C6.07086 50.5674 4 48.4965 4 45.942C4 43.3875 6.07086 41.3166 8.62538 41.3166H15.3553C17.9099 41.3166 19.9807 43.3875 19.9807 45.942C19.9807 48.4965 17.9099 50.5674 15.3553 50.5674Z" fill="black"/>
<path d="M75.8895 78.4354C76.7577 79.3026 77.9349 79.7893 79.1619 79.7883C81.0339 79.7898 82.7221 78.6628 83.4387 76.9335C84.1552 75.2041 83.7588 73.2134 82.4344 71.8905L77.6818 67.1379C75.8745 65.3306 72.9442 65.3306 71.1369 67.1379C69.3296 68.9452 69.3296 71.8755 71.1369 73.6828L75.8895 78.4354Z" fill="black"/>
<path d="M20.7319 79.7883C18.8599 79.7898 17.1717 78.6628 16.4551 76.9335C15.7386 75.2041 16.135 73.2134 17.4594 71.8905L22.212 67.1379C24.0193 65.3306 26.9496 65.3306 28.7569 67.1379C30.5642 68.9452 30.5642 71.8755 28.7569 73.6828L23.9928 78.4354C23.1274 79.2998 21.955 79.7862 20.7319 79.7883Z" fill="black"/>
<path d="M70.1329 23.2558C70.8494 24.9851 72.5377 26.1121 74.4096 26.1106C75.6367 26.1116 76.8139 25.6249 77.6821 24.7577L82.4346 19.9935C84.1608 18.1735 84.1216 15.3092 82.3463 13.5371C80.571 11.7649 77.7067 11.7308 75.8897 13.4602L71.1371 18.2128C69.8127 19.5357 69.4163 21.5264 70.1329 23.2558Z" fill="black"/>
</svg>
