<svg width="100" height="100" viewBox="0 0 100 100" fill="none" xmlns="http://www.w3.org/2000/svg">
<path d="M52.9407 9.79297C52.9407 11.4181 51.6232 12.7356 49.9981 12.7356C48.3729 12.7356 47.0555 11.4181 47.0555 9.79297V2.9426C47.0555 1.31745 48.3729 0 49.9981 0C51.6232 0 52.9407 1.31745 52.9407 2.9426V9.79297Z" fill="black"/>
<path d="M23.0201 22.1873C24.1726 23.3335 26.0344 23.3335 27.1869 22.1873C28.3266 21.0323 28.3266 19.1757 27.1869 18.0206L22.3375 13.183C21.1735 12.1425 19.3996 12.1922 18.2956 13.2961C17.1917 14.4001 17.142 16.174 18.1825 17.3379L23.0201 22.1873Z" fill="black"/>
<path d="M50.386 23.2935C38.4024 23.3064 28.6891 33.0145 28.6696 44.9981C28.6696 46.6233 29.9871 47.9407 31.6122 47.9407C33.2374 47.9407 34.5548 46.6233 34.5548 44.9981C34.5678 36.2621 41.65 29.1852 50.386 29.1787C52.0112 29.1787 53.3286 27.8612 53.3286 26.2361C53.3286 24.6109 52.0112 23.2935 50.386 23.2935Z" fill="black"/>
<path fill-rule="evenodd" clip-rule="evenodd" d="M50.4221 15.5839C36.8398 15.4223 24.9118 24.5787 21.5575 37.7413C18.2033 50.904 24.2945 64.6522 36.2976 71.0107V88.1601C36.3179 91.2622 38.6727 93.8505 41.7591 94.163C42.9885 97.66 46.2915 100 49.9984 100C53.7052 100 57.0082 97.66 58.2377 94.163C61.3516 93.8721 63.7355 91.2641 63.7462 88.1366V71.0107C75.619 64.7227 81.7253 51.1916 78.5851 38.1286C75.4448 25.0657 63.8556 15.7884 50.4221 15.5839ZM57.8728 80.3799H42.1357V78.2965H57.8728V80.3799ZM57.8728 88.1601C57.8728 88.2132 57.8517 88.2641 57.8142 88.3016C57.7766 88.3391 57.7257 88.3602 57.6727 88.3602H42.3712C42.3191 88.3603 42.2693 88.3389 42.2337 88.301C42.198 88.2631 42.1796 88.2121 42.1828 88.1601V86.2651H57.8728V88.1601ZM60.8036 65.9141C58.9951 66.8476 57.8628 68.7165 57.8728 70.7517V72.4113H42.1357V70.7517C42.1407 68.7147 41.0043 66.8464 39.1932 65.9141C29.5568 60.924 24.5802 49.9933 27.1437 39.4487C29.7072 28.9042 39.1467 21.4782 49.9984 21.4691H50.3397C61.1286 21.6322 70.4253 29.1094 72.898 39.6123C75.3708 50.1153 70.3864 60.9547 60.8036 65.9141Z" fill="black"/>
<path d="M85.2153 42.0555H92.101C93.7262 42.0555 95.0436 43.3729 95.0436 44.9981C95.0436 46.6232 93.7262 47.9407 92.101 47.9407H85.2153C83.5902 47.9407 82.2727 46.6232 82.2727 44.9981C82.2727 43.3729 83.5902 42.0555 85.2153 42.0555Z" fill="black"/>
<path d="M14.793 42.0555H7.9426C6.31745 42.0555 5 43.3729 5 44.9981C5 46.6232 6.31745 47.9407 7.9426 47.9407H14.793C16.4181 47.9407 17.7356 46.6232 17.7356 44.9981C17.7356 43.3729 16.4181 42.0555 14.793 42.0555Z" fill="black"/>
<path d="M74.142 67.0586C75.1587 66.7862 76.2436 67.0769 76.9879 67.8212L81.8255 72.6588C82.5699 73.4031 82.8605 74.488 82.5881 75.5047C82.3157 76.5215 81.5215 77.3157 80.5047 77.5881C79.488 77.8605 78.4031 77.5699 77.6588 76.8255L72.8212 71.9879C72.0769 71.2436 71.7862 70.1587 72.0586 69.142C72.3311 68.1252 73.1252 67.3311 74.142 67.0586Z" fill="black"/>
<path d="M23.02 67.8212L18.1824 72.6588C17.3338 73.505 17.0831 74.7812 17.5486 75.8855C18.0141 76.9897 19.1028 77.7014 20.301 77.6848C21.0792 77.6896 21.8263 77.3797 22.3726 76.8255L27.222 71.9879C27.9663 71.2436 28.257 70.1587 27.9846 69.142C27.7121 68.1252 26.918 67.3311 25.9012 67.0586C24.8845 66.7862 23.7996 67.0769 23.0553 67.8212H23.02Z" fill="black"/>
<path d="M72.1806 21.2304C72.637 22.3314 73.7123 23.0483 74.9042 23.0462C75.6854 23.0489 76.4353 22.7396 76.9875 22.187L81.8251 17.3376C82.589 16.5977 82.8942 15.5032 82.6234 14.4748C82.3526 13.4464 81.5481 12.6441 80.5189 12.3763C79.4898 12.1084 78.3962 12.4167 77.6584 13.1826L72.8208 18.0202C71.977 18.8619 71.7242 20.1294 72.1806 21.2304Z" fill="black"/>
</svg>
