<?xml version="1.0" encoding="UTF-8"?>
<svg width="100px" height="100px" viewBox="0 0 100 100" version="1.1" xmlns="http://www.w3.org/2000/svg" xmlns:xlink="http://www.w3.org/1999/xlink">
    <!-- Generator: Sketch 57.1 (83088) - https://sketch.com -->
    <title>regular/lightbulb-regular</title>
    <desc>Created with Sketch.</desc>
    <g id="regular/lightbulb" stroke="none" stroke-width="1" fill="none" fill-rule="evenodd">
        <path d="M50.020459,0.976713691 L50.4901961,0.980392108 C65.9882357,1.20296734 79.349309,11.9369675 82.9064393,27.0229079 C86.4635696,42.1088482 79.3052834,57.6811306 65.5392157,64.8039216 L65.4546145,64.8586856 C65.2955042,64.9799668 65.1987157,65.1688367 65.1960784,65.372549 L65.1960784,86.0588236 C65.2066318,87.6810394 64.5662009,89.2397312 63.4181758,90.3859136 C62.2701507,91.5320959 60.7104321,92.1700221 59.0882353,92.1568628 L58.8921569,92.1568628 C57.8395122,96.22295 54.1707222,99.0628983 49.9705882,99.0628983 C45.7704542,99.0628983 42.1016642,96.22295 41.0490196,92.1568628 L40.8529412,92.1568628 C39.2392236,92.1568966 37.6921652,91.5131777 36.5547813,90.3684321 C35.4173974,89.2236866 34.7836729,87.6725074 34.7941176,86.0588236 L34.7941176,65.372549 C34.7926739,65.129254 34.6568689,64.9066847 34.4411765,64.7941177 C20.5204131,57.5803234 13.3871124,41.7411594 17.2112261,26.5358105 C21.0353398,11.3304617 34.813029,0.750368256 50.4901961,0.980392108 L50.020459,0.976713691 Z M53.8921569,92.1176471 L46.0490196,92.1176471 C46.8697124,93.5030251 48.3603681,94.3526988 49.9705882,94.3529412 C51.5808083,94.3526988 53.0714641,93.5030251 53.8921569,92.1176471 Z M60.4803922,82.6470589 L39.4607843,82.6470589 L39.4607843,86.0980393 C39.4607843,86.4672622 39.6074576,86.8213628 39.8685376,87.0824428 C40.1296177,87.3435229 40.4837182,87.4901961 40.8529412,87.4901961 L59.0882353,87.4901961 L59.0882353,87.4509804 C59.8571023,87.4509804 60.4803922,86.8276906 60.4803922,86.0588236 L60.4803922,82.6470589 Z M60.4803922,73.1764706 L39.4607843,73.1764706 L39.4607843,77.9803922 L60.4803922,77.9803922 L60.4803922,73.1764706 Z M50.3823529,5.64684353 L49.9705882,5.64684353 C36.5053176,5.61060949 24.7701863,14.8086667 21.5888856,27.8927856 C18.4075849,40.9769045 24.6094446,54.5362002 36.5882353,60.6862745 C38.3545398,61.5998452 39.4629202,63.4231877 39.4607843,65.4117647 L39.4607843,68.5490196 L60.4803922,68.5490196 L60.4803922,65.4117647 C60.4733068,63.4269824 61.5790048,61.6056101 63.3431373,60.6960784 L63.3431373,60.6568628 C75.204064,54.5169141 81.3718516,41.0990186 78.308947,28.0990506 C75.2460424,15.0990826 63.7367887,5.84605054 50.3823529,5.64684353 Z M50.4215686,10.1372549 C51.6542521,10.2171159 52.6132202,11.2402224 52.6132202,12.4754902 C52.6132202,13.7107579 51.6542521,14.7338644 50.4215686,14.8137255 C39.4004198,14.8245239 30.4671906,23.7533676 30.4509804,34.7745098 C30.4509804,36.0631742 29.4063115,37.1078431 28.117647,37.1078431 C26.8289826,37.1078431 25.7843137,36.0631742 25.7843137,34.7745098 C25.7951263,21.1722109 36.8192697,10.1480675 50.4215686,10.1372549 Z" id="Shape" fill="#000000"></path>
    </g>
</svg>