<?xml version="1.0" encoding="UTF-8"?>
<svg width="100px" height="100px" viewBox="0 0 100 100" version="1.1" xmlns="http://www.w3.org/2000/svg" xmlns:xlink="http://www.w3.org/1999/xlink">
    <!-- Generator: Sketch 57.1 (83088) - https://sketch.com -->
    <title>solid/lightning-solid</title>
    <desc>Created with Sketch.</desc>
    <g id="solid/lightning" stroke="none" stroke-width="1" fill="none" fill-rule="evenodd">
        <path d="M73,44.06 C72.111469,42.6532611 70.5638515,41.8001841 68.9,41.8 L50.48,41.8 L50.38,41.69 L57.73,4.62999995 C58.1049371,2.71296765 56.9924885,0.817048268 55.1360951,0.209270158 C53.2797017,-0.398507951 51.2613976,0.472411595 50.43,2.23999995 L27.43,51.24 C26.7268579,52.74623 26.8405423,54.507068 27.7315319,55.9103766 C28.6225215,57.3136852 30.167737,58.1656145 31.83,58.17 L50.3,58.17 L50.4,58.29 L43.05,95.37 C42.6453299,97.2930427 43.7657027,99.209356 45.64,99.8 C46.0406823,99.9296497 46.4588742,99.9971 46.88,100 C48.3730774,99.9986825 49.7285362,99.1275952 50.35,97.77 L73.35,48.77 C74.0612388,47.2461265 73.9286613,45.4620125 73,44.06 L73,44.06 Z" id="lightning" fill="#000000"></path>
    </g>
</svg>