<?xml version="1.0" encoding="UTF-8"?>
<svg width="100px" height="100px" viewBox="0 0 100 100" version="1.1" xmlns="http://www.w3.org/2000/svg" xmlns:xlink="http://www.w3.org/1999/xlink">
    <!-- Generator: Sketch 57.1 (83088) - https://sketch.com -->
    <title>bold/lightbulb-exclamation-bold</title>
    <desc>Created with Sketch.</desc>
    <g id="bold/lightbulb-exclamation" stroke="none" stroke-width="1" fill="none" fill-rule="evenodd">
        <path d="M49.6641638,15.797007 L50.08,15.8 C66.3017662,16.1128437 79.3353603,29.2660527 79.5,45.49 C79.5821296,56.0845301 74.0249281,65.9104926 64.9333839,71.3048983 L64.53,71.54 L64.53,86.91 C64.5220878,90.3876877 62.1396658,93.4101018 58.76,94.23 C57.0925847,97.7507794 53.5456592,99.9955708 49.65,99.9955708 C45.7543408,99.9955708 42.2074153,97.7507794 40.54,94.23 C37.2448258,93.4305992 34.8976566,90.5374318 34.7750241,87.1699457 L34.77,86.91 L34.77,71.54 C22.979828,64.7576382 17.2631488,50.8643769 20.8657033,37.7483489 C24.3947363,24.899995 35.9928085,15.9784004 49.2493638,15.7997387 L49.6641638,15.797007 Z M26.147484,65.9184752 C27.7294231,66.3351038 28.9648962,67.5705769 29.3815248,69.1525159 C29.7783139,70.6591245 29.3739444,72.2580821 28.3225436,73.3932697 L28.16,73.56 L23.54,78.19 C22.3931774,79.3386089 20.7206942,79.7881447 19.1525584,79.3692717 C17.5844227,78.9503987 16.3588716,77.7267536 15.9375584,76.1592717 C15.5363078,74.6664318 15.9225813,73.0777198 16.9509475,71.9375875 L17.11,71.77 L21.74,67.14 C22.8817913,65.9684954 24.565545,65.5018467 26.147484,65.9184752 Z M77.3932697,66.9774564 L77.56,67.14 L82.19,71.77 C83.9241898,73.5493193 83.9059332,76.3921343 82.1490338,78.1490338 C80.4470374,79.8510301 77.7259348,79.9213509 75.9398613,78.3474466 L75.77,78.19 L71.14,73.56 C69.9684954,72.4182087 69.5018467,70.734455 69.9184752,69.1525159 C70.3351038,67.5705769 71.5705769,66.3351038 73.152516,65.9184752 C74.6591245,65.5216861 76.2580821,65.9260556 77.3932697,66.9774564 Z M35.11,30.86 C30.3735984,35.5266504 28.1564097,42.1780727 29.1454551,48.7532468 C30.1345006,55.328421 34.2103297,61.03324 40.11,64.1 C42.2867262,65.2207995 43.7005393,67.4071807 43.8399617,69.8385915 L43.85,70.1 L55.45,70.1 C55.4958532,67.6542285 56.8323019,65.4226515 58.9501238,64.2243935 L59.18,64.1 L59.5169406,63.9229134 C67.7745023,59.4868622 72.051726,50.0489585 69.9070686,40.8915747 C67.7334293,31.6104424 59.5212347,25.0003125 49.99,24.86 C44.4199832,24.7507391 39.0462665,26.9175603 35.11,30.86 Z M49.65,59.09 C52.1628956,59.09 54.2,61.1271044 54.2,63.64 C54.2,66.1528956 52.1628956,68.19 49.65,68.19 C47.1371044,68.19 45.1,66.1528956 45.1,63.64 C45.1,61.1271044 47.1371044,59.09 49.65,59.09 Z M49.65,25.16 C52.0910986,25.16 54.0832056,27.0823613 54.1950476,29.4958105 L54.2,29.71 L54.2,54.33 C54.2,56.8428956 52.1628956,58.88 49.65,58.88 C47.2089014,58.88 45.2167944,56.9576386 45.1049524,54.5441894 L45.1,54.33 L45.1,29.71 C45.1,27.1971044 47.1371044,25.16 49.65,25.16 Z M90.76,41.1 C93.2728957,41.1 95.31,43.1371044 95.31,45.65 C95.31,48.0910986 93.3876387,50.0832056 90.9741895,50.1950476 L90.76,50.2 L84.21,50.2 C81.6971044,50.2 79.66,48.1628956 79.66,45.65 C79.66,43.2089014 81.5823614,41.2167944 83.9958106,41.1049524 L84.21,41.1 L90.76,41.1 Z M15.09,41.1 C16.296735,41.1 17.4540453,41.5793736 18.3073358,42.4326641 C19.1606263,43.2859547 19.64,44.443265 19.64,45.65 C19.64,46.856735 19.1606263,48.0140453 18.3073358,48.8673359 C17.5109313,49.6637403 16.4496918,50.1344217 15.3306125,50.1936396 L15.09,50.2 L8.54999996,50.2 C6.03710434,50.2 3.99999995,48.1628956 3.99999995,45.65 C3.99999995,43.2089014 5.92236132,41.2167944 8.33581052,41.1049524 L8.54999996,41.1 L15.09,41.1 Z M75.77,13.11 C76.9186089,11.9631774 78.5917898,11.5162452 80.1592717,11.9375584 C81.7267536,12.3588716 82.9503987,13.5844227 83.3692717,15.1525584 C83.7881447,16.7206942 83.3386089,18.3931774 82.19,19.54 L77.56,24.16 C76.7112112,25.0152078 75.5549084,25.494299 74.35,25.490057 C72.5142484,25.4840967 70.8618705,24.3755997 70.160157,22.6792456 C69.4584436,20.9828915 69.8448711,19.0310227 71.14,17.73 L75.77,13.11 Z M23.3706305,12.9487333 L23.54,13.11 L28.16,17.74 C29.8941898,19.5193193 29.8759332,22.3621343 28.1190337,24.1190337 C26.4170374,25.82103 23.6959347,25.8913508 21.9098613,24.3174466 L21.74,24.16 L17.11,19.53 C15.3371659,17.7544045 15.3394045,14.877834 17.115,13.105 C18.8351081,11.387567 21.5884554,11.335998 23.3706305,12.9487333 Z M49.65,-4.99999695e-08 C52.0910986,-4.99999695e-08 54.0832056,1.92236132 54.1950476,4.33581052 L54.2,4.54999995 L54.2,11.09 C54.2,12.296735 53.7206264,13.4540453 52.8673359,14.3073358 C52.0140453,15.1606263 50.856735,15.64 49.65,15.64 C47.2089014,15.64 45.2167944,13.7176386 45.1049524,11.3041894 L45.1,11.09 L45.1,4.54999995 C45.1,2.03710434 47.1371044,-4.99999695e-08 49.65,-4.99999695e-08 Z" id="Shape" fill="#000000"></path>
    </g>
</svg>