<svg width="100" height="100" viewBox="0 0 100 100" fill="none" xmlns="http://www.w3.org/2000/svg">
<path d="M52.9407 9.79297C52.9407 11.4181 51.6232 12.7356 49.9981 12.7356C48.3729 12.7356 47.0555 11.4181 47.0555 9.79297V2.9426C47.0555 1.31745 48.3729 0 49.9981 0C51.6232 0 52.9407 1.31745 52.9407 2.9426V9.79297Z" fill="black"/>
<path d="M23.0201 22.1873C24.1726 23.3335 26.0344 23.3335 27.1869 22.1873C28.3266 21.0323 28.3266 19.1757 27.1869 18.0206L22.3375 13.183C21.1735 12.1425 19.3996 12.1922 18.2956 13.2961C17.1917 14.4001 17.142 16.174 18.1825 17.3379L23.0201 22.1873Z" fill="black"/>
<path d="M53.0704 52.3781L53.2705 27.931H46.738L46.9381 52.3781H53.0704Z" fill="black"/>
<path d="M46.4673 58.6163C46.4673 56.6662 48.0482 55.0852 49.9984 55.0852C51.9486 55.0852 53.5296 56.6662 53.5296 58.6163C53.5296 60.5665 51.9486 62.1475 49.9984 62.1475C48.0482 62.1475 46.4673 60.5665 46.4673 58.6163Z" fill="black"/>
<path fill-rule="evenodd" clip-rule="evenodd" d="M21.5575 37.7413C24.9118 24.5787 36.8398 15.4223 50.4221 15.5839C63.8556 15.7884 75.4448 25.0657 78.5851 38.1286C81.7253 51.1916 75.619 64.7227 63.7462 71.0107V88.1366C63.7355 91.2641 61.3516 93.8721 58.2377 94.163C57.0082 97.66 53.7052 100 49.9984 100C46.2915 100 42.9885 97.66 41.7591 94.163C38.6727 93.8505 36.3179 91.2622 36.2976 88.1601V71.0107C24.2945 64.6522 18.2033 50.904 21.5575 37.7413ZM57.8142 88.3016C57.8517 88.2641 57.8728 88.2132 57.8728 88.1601V86.2651H42.1828V88.1601C42.1796 88.2121 42.198 88.2631 42.2337 88.301C42.2693 88.3389 42.3191 88.3603 42.3712 88.3602H57.6727C57.7257 88.3602 57.7766 88.3391 57.8142 88.3016ZM42.1357 80.3799H57.8728V78.2965H42.1357V80.3799ZM57.8728 70.7517C57.8628 68.7165 58.9951 66.8476 60.8036 65.9141C70.3864 60.9547 75.3708 50.1153 72.898 39.6123C70.4253 29.1094 61.1286 21.6322 50.3397 21.4691H49.9984C39.1467 21.4782 29.7072 28.9042 27.1437 39.4487C24.5802 49.9933 29.5568 60.924 39.1932 65.9141C41.0043 66.8464 42.1407 68.7147 42.1357 70.7517V72.4113H57.8728V70.7517Z" fill="black"/>
<path d="M85.2153 42.0555H92.101C93.7262 42.0555 95.0436 43.3729 95.0436 44.9981C95.0436 46.6232 93.7262 47.9407 92.101 47.9407H85.2153C83.5902 47.9407 82.2727 46.6232 82.2727 44.9981C82.2727 43.3729 83.5902 42.0555 85.2153 42.0555Z" fill="black"/>
<path d="M14.793 42.0555H7.9426C6.31745 42.0555 5 43.3729 5 44.9981C5 46.6232 6.31745 47.9407 7.9426 47.9407H14.793C16.4181 47.9407 17.7356 46.6232 17.7356 44.9981C17.7356 43.3729 16.4181 42.0555 14.793 42.0555Z" fill="black"/>
<path d="M74.142 67.0586C75.1587 66.7862 76.2436 67.0769 76.9879 67.8212L81.8255 72.6588C82.5699 73.4031 82.8605 74.488 82.5881 75.5047C82.3157 76.5215 81.5215 77.3157 80.5047 77.5881C79.488 77.8605 78.4031 77.5699 77.6588 76.8255L72.8212 71.9879C72.0769 71.2436 71.7862 70.1587 72.0586 69.142C72.3311 68.1252 73.1252 67.3311 74.142 67.0586Z" fill="black"/>
<path d="M23.02 67.8212L18.1824 72.6588C17.3338 73.505 17.0831 74.7812 17.5486 75.8855C18.0141 76.9897 19.1028 77.7014 20.301 77.6848C21.0792 77.6896 21.8263 77.3797 22.3726 76.8255L27.222 71.9879C27.9663 71.2436 28.257 70.1587 27.9846 69.142C27.7121 68.1252 26.918 67.3311 25.9012 67.0586C24.8845 66.7862 23.7996 67.0769 23.0553 67.8212H23.02Z" fill="black"/>
<path d="M76.9875 22.187C76.4353 22.7396 75.6854 23.0489 74.9042 23.0462C73.7123 23.0483 72.637 22.3314 72.1806 21.2304C71.7242 20.1294 71.977 18.8619 72.8208 18.0202L77.6584 13.1826C78.3962 12.4167 79.4898 12.1084 80.5189 12.3763C81.5481 12.6441 82.3526 13.4464 82.6234 14.4748C82.8942 15.5032 82.589 16.5977 81.8251 17.3376L76.9875 22.187Z" fill="black"/>
</svg>
