<svg width="100" height="100" viewBox="0 0 100 100" fill="none" xmlns="http://www.w3.org/2000/svg">
<path d="M90.8271 37.2797C90.2094 35.792 88.7571 34.8222 87.1462 34.8218H56.4757L77.7969 6.374C78.6999 5.16632 78.8442 3.55252 78.1698 2.20378C77.4955 0.855048 76.1178 0.00222082 74.6099 0H33.8022C32.2085 0.0192449 30.7794 0.98585 30.1683 2.45787L9.30579 52.6031C8.79381 53.8319 8.93086 55.2353 9.67087 56.3418C10.4109 57.4482 11.6556 58.1108 12.9867 58.1069H41.9284L27.0401 95.2572C26.4296 96.7819 26.9759 98.5256 28.3472 99.4294C29.7185 100.333 31.5364 100.147 32.6967 98.9852L89.9569 41.6192C91.1029 40.4845 91.447 38.7685 90.8271 37.2797Z" fill="black"/>
</svg>
