<?xml version="1.0" encoding="UTF-8"?>
<svg width="100px" height="100px" viewBox="0 0 100 100" version="1.1" xmlns="http://www.w3.org/2000/svg" xmlns:xlink="http://www.w3.org/1999/xlink">
    <!-- Generator: Sketch 57.1 (83088) - https://sketch.com -->
    <title>brand/linkedin-brand</title>
    <desc>Created with Sketch.</desc>
    <g id="brand/linkedin" stroke="none" stroke-width="1" fill="none" fill-rule="evenodd">
        <path d="M98.792,56.9558 C98.983,56.9558 99.142,56.9388 99.142,56.7328 C99.142,56.5548 98.984,56.5318 98.848,56.5318 L98.582,56.5318 L98.582,56.9558 L98.792,56.9558 Z M99,57.0818 L98.976,57.0848 L99.346,57.6438 L99.153,57.6438 L98.81,57.1038 L98.805,57.0988 L98.582,57.0988 L98.582,57.6438 L98.403,57.6438 L98.403,56.3898 L98.88,56.3898 C99.177,56.3898 99.322,56.5048 99.322,56.7438 C99.322,56.9388 99.211,57.0558 99,57.0818 Z M98.8115,58.0496 C99.3805,58.0496 99.8265,57.6016 99.8265,57.0186 C99.8265,56.4366 99.3805,55.9866 98.8115,55.9866 C98.2445,55.9866 97.7975,56.4366 97.7975,57.0186 C97.7975,57.6016 98.2445,58.0496 98.8115,58.0496 Z M98.8115,55.8306 C99.4775,55.8306 99.9995,56.3536 99.9995,57.0186 C99.9995,57.6846 99.4775,58.2046 98.8115,58.2046 C98.1455,58.2046 97.6245,57.6846 97.6245,57.0186 C97.6245,56.3536 98.1455,55.8306 98.8115,55.8306 Z M1.30562228e-13,40.6277 L3.782,40.6277 L3.782,54.4057 L10.787,54.4057 L10.787,57.8987 L1.30562228e-13,57.8987 L1.30562228e-13,40.6277 Z M14.2759,40.3709 C15.4409,40.3709 16.3859,41.3159 16.3859,42.4809 C16.3859,43.6439 15.4409,44.5879 14.2759,44.5879 C13.1129,44.5879 12.1679,43.6439 12.1679,42.4809 C12.1679,41.3159 13.1129,40.3709 14.2759,40.3709 Z M12.4589,57.8919 L12.4589,46.1889 L16.0949,46.1889 L16.0949,57.8919 L12.4589,57.8919 Z M31.2944,40.6277 L34.9274,40.6277 L34.9274,50.9477 L39.0464,46.1837 L43.5024,46.1837 L38.7344,51.6027 L43.4024,57.8987 L38.8344,57.8987 L34.9754,52.1107 L34.9274,52.1107 L34.9274,57.8987 L31.2944,57.8987 L31.2944,40.6277 Z M18.1055,46.1912 L21.5955,46.1912 L21.5955,47.7912 L21.6445,47.7912 C22.1285,46.8712 23.3165,45.9002 25.0865,45.9002 C28.7705,45.9002 29.4495,48.3252 29.4495,51.4752 L29.4495,57.8922 L25.8135,57.8922 L25.8135,52.2032 C25.8135,50.8452 25.7885,49.1002 23.9215,49.1002 C22.0315,49.1002 21.7415,50.5792 21.7415,52.1052 L21.7415,57.8922 L18.1055,57.8922 L18.1055,46.1912 Z M54.2344,55.866 C53.0694,57.345 51.1554,58.194 49.2654,58.194 C45.6294,58.194 42.7194,55.77 42.7194,52.012 C42.7194,48.257 45.6294,45.832 49.2654,45.832 C52.6594,45.832 54.7924,48.257 54.7924,52.012 L54.7924,53.151 L46.3564,53.151 C46.6454,54.534 47.6904,55.429 49.0944,55.429 C50.2834,55.429 51.0824,54.825 51.6884,54.001 L54.2344,55.866 Z M51.1554,50.68 C51.1784,49.468 50.2344,48.451 48.9234,48.451 C47.3244,48.451 46.4524,49.542 46.3564,50.68 L51.1554,50.68 Z M68.6211,57.8924 L65.2741,57.8924 L65.2741,56.3384 L65.2271,56.3384 C64.6681,57.1884 63.2641,58.1814 61.6151,58.1814 C58.1231,58.1814 55.8201,55.6614 55.8201,52.0984 C55.8201,48.8254 57.8561,45.8204 61.2011,45.8204 C62.7061,45.8204 64.1111,46.2304 64.9351,47.3704 L64.9831,47.3704 L64.9831,40.6274 L68.6211,40.6274 L68.6211,57.8924 Z M62.3651,49.0194 C60.5481,49.0194 59.4571,50.2324 59.4571,52.0004 C59.4571,53.7704 60.5481,54.9834 62.3651,54.9834 C64.1841,54.9834 65.2741,53.7704 65.2741,52.0004 C65.2741,50.2324 64.1841,49.0194 62.3651,49.0194 Z M93.1563,57.8982 L93.1563,51.4792 C93.1563,48.3282 92.4753,45.9042 88.7933,45.9042 C87.0233,45.9042 85.8363,46.8742 85.3503,47.7942 L85.3013,47.7942 L85.3013,46.1942 L81.8113,46.1942 L81.8113,57.8982 L85.4483,57.8982 L85.4483,52.1092 C85.4483,50.5832 85.7363,49.1032 87.6303,49.1032 C89.4963,49.1032 89.5193,50.8482 89.5193,52.2072 L89.5193,57.8982 L93.1563,57.8982 Z M77.7113,44.5952 C78.8743,44.5952 79.8193,43.6502 79.8193,42.4862 C79.8193,41.3212 78.8743,40.3762 77.7113,40.3762 C76.5453,40.3762 75.6023,41.3212 75.6023,42.4862 C75.6023,43.6502 76.5453,44.5952 77.7113,44.5952 Z M75.8913,57.8982 L79.5303,57.8982 L79.5303,46.1942 L75.8913,46.1942 L75.8913,57.8982 Z M94.9673,37.0002 C95.9683,37.0002 96.7813,37.7922 96.7813,38.7682 L96.7813,59.7552 C96.7813,60.7322 95.9683,61.5252 94.9673,61.5252 L74.0673,61.5252 C73.0683,61.5252 72.2583,60.7322 72.2583,59.7552 L72.2583,38.7682 C72.2583,37.7922 73.0683,37.0002 74.0673,37.0002 L94.9673,37.0002 Z" id="Shape" fill="#000000"></path>
    </g>
</svg>