<svg width="100" height="100" viewBox="0 0 100 100" fill="none" xmlns="http://www.w3.org/2000/svg">
<path fill-rule="evenodd" clip-rule="evenodd" d="M98.792 56.9556C98.983 56.9556 99.142 56.9386 99.142 56.7326C99.142 56.5546 98.984 56.5316 98.848 56.5316H98.582V56.9556H98.792ZM99 57.0816L98.976 57.0846L99.346 57.6436H99.153L98.81 57.1036L98.805 57.0986H98.582V57.6436H98.403V56.3896H98.88C99.177 56.3896 99.322 56.5046 99.322 56.7436C99.322 56.9386 99.211 57.0556 99 57.0816ZM98.8115 58.0494C99.3805 58.0494 99.8265 57.6014 99.8265 57.0184C99.8265 56.4364 99.3805 55.9864 98.8115 55.9864C98.2445 55.9864 97.7975 56.4364 97.7975 57.0184C97.7975 57.6014 98.2445 58.0494 98.8115 58.0494ZM98.8115 55.8304C99.4775 55.8304 99.9995 56.3534 99.9995 57.0184C99.9995 57.6844 99.4775 58.2044 98.8115 58.2044C98.1455 58.2044 97.6245 57.6844 97.6245 57.0184C97.6245 56.3534 98.1455 55.8304 98.8115 55.8304ZM0 40.6275H3.782V54.4055H10.787V57.8985H0V40.6275ZM14.2759 40.3707C15.4409 40.3707 16.3859 41.3157 16.3859 42.4807C16.3859 43.6437 15.4409 44.5877 14.2759 44.5877C13.1129 44.5877 12.1679 43.6437 12.1679 42.4807C12.1679 41.3157 13.1129 40.3707 14.2759 40.3707ZM12.4589 57.8917V46.1887H16.0949V57.8917H12.4589ZM31.2944 40.6275H34.9274V50.9475L39.0464 46.1835H43.5024L38.7344 51.6025L43.4024 57.8985H38.8344L34.9754 52.1105H34.9274V57.8985H31.2944V40.6275ZM18.1055 46.191H21.5955V47.791H21.6445C22.1285 46.871 23.3165 45.9 25.0865 45.9C28.7705 45.9 29.4495 48.325 29.4495 51.475V57.892H25.8135V52.203C25.8135 50.845 25.7885 49.1 23.9215 49.1C22.0315 49.1 21.7415 50.579 21.7415 52.105V57.892H18.1055V46.191ZM54.2344 55.8658C53.0694 57.3448 51.1554 58.1938 49.2654 58.1938C45.6294 58.1938 42.7194 55.7698 42.7194 52.0118C42.7194 48.2568 45.6294 45.8318 49.2654 45.8318C52.6594 45.8318 54.7924 48.2568 54.7924 52.0118V53.1508H46.3564C46.6454 54.5338 47.6904 55.4288 49.0944 55.4288C50.2834 55.4288 51.0824 54.8248 51.6884 54.0008L54.2344 55.8658ZM51.1554 50.6798C51.1784 49.4678 50.2344 48.4508 48.9234 48.4508C47.3244 48.4508 46.4524 49.5418 46.3564 50.6798H51.1554ZM68.6211 57.8922H65.2741V56.3382H65.2271C64.6681 57.1882 63.2641 58.1812 61.6151 58.1812C58.1231 58.1812 55.8201 55.6612 55.8201 52.0982C55.8201 48.8252 57.8561 45.8202 61.2011 45.8202C62.7061 45.8202 64.1111 46.2302 64.9351 47.3702H64.9831V40.6272H68.6211V57.8922ZM62.3651 49.0192C60.5481 49.0192 59.4571 50.2322 59.4571 52.0002C59.4571 53.7702 60.5481 54.9832 62.3651 54.9832C64.1841 54.9832 65.2741 53.7702 65.2741 52.0002C65.2741 50.2322 64.1841 49.0192 62.3651 49.0192ZM93.1563 57.898V51.479C93.1563 48.328 92.4753 45.904 88.7933 45.904C87.0233 45.904 85.8363 46.874 85.3503 47.794H85.3013V46.194H81.8113V57.898H85.4483V52.109C85.4483 50.583 85.7363 49.103 87.6303 49.103C89.4963 49.103 89.5193 50.848 89.5193 52.207V57.898H93.1563ZM77.7113 44.595C78.8743 44.595 79.8193 43.65 79.8193 42.486C79.8193 41.321 78.8743 40.376 77.7113 40.376C76.5453 40.376 75.6023 41.321 75.6023 42.486C75.6023 43.65 76.5453 44.595 77.7113 44.595ZM75.8913 57.898H79.5303V46.194H75.8913V57.898ZM94.9673 37C95.9683 37 96.7813 37.792 96.7813 38.768V59.755C96.7813 60.732 95.9683 61.525 94.9673 61.525H74.0673C73.0683 61.525 72.2583 60.732 72.2583 59.755V38.768C72.2583 37.792 73.0683 37 74.0673 37H94.9673Z" fill="black"/>
</svg>
