<?xml version="1.0" encoding="UTF-8"?>
<svg width="100px" height="100px" viewBox="0 0 100 100" version="1.1" xmlns="http://www.w3.org/2000/svg" xmlns:xlink="http://www.w3.org/1999/xlink">
    <!-- Generator: Sketch 57.1 (83088) - https://sketch.com -->
    <title>bold/link-bold</title>
    <desc>Created with Sketch.</desc>
    <g id="bold/link" stroke="none" stroke-width="1" fill="none" fill-rule="evenodd">
        <path d="M42.495098,35.9934272 C48.0696607,35.9934272 53.4152598,38.2109264 57.3529412,42.1568627 C58.477277,43.2829499 58.9154458,44.9233233 58.5023937,46.4600703 C58.0893415,47.9968172 56.8878209,49.1964693 55.3504329,49.6071291 C53.8130449,50.0177889 52.1733554,49.5770675 51.0490196,48.4509804 C46.3223604,43.7327197 38.6678357,43.7327197 33.9411765,48.4509804 L12.9411764,69.4607843 C9.82040226,72.5036108 8.57766712,76.9899273 9.68801764,81.2047993 C10.7983682,85.4196713 14.0901326,88.7114358 18.3050046,89.8217863 C22.5198766,90.9321368 27.0061932,89.6894017 30.0490196,86.5686275 L51.0392157,65.5784314 C52.7799956,63.8349442 55.6045521,63.8327496 57.3480392,65.5735294 C59.0915264,67.3143093 59.0937211,70.1388658 57.3529412,71.882353 L36.3529412,92.8725491 C32.4174537,96.8167801 27.0717977,99.0291407 21.5,99.0196691 C13.003994,99.0226016 5.34323034,93.9060808 2.09154455,86.056962 C-1.16014124,78.2078432 0.637978046,69.1727531 6.64705878,63.1666667 L27.6372549,42.1568627 C31.5749363,38.2109264 36.9205354,35.9934272 42.495098,35.9934272 Z M83.1260213,1.349006 C90.4908053,3.26759585 96.2422081,9.01899862 98.1607979,16.3837826 C100.079388,23.7485666 97.8651513,31.5750872 92.3725491,36.8431372 L71.3921569,57.8431373 C67.449595,61.7815915 62.1021247,63.9897158 56.5294118,63.9804508 C50.9566988,63.9897158 45.6092286,61.7815915 41.6666667,57.8431373 C40.4678955,56.7324187 39.9724624,55.0550945 40.37535,53.4712922 C40.7782376,51.8874899 42.0149409,50.6507866 43.5987432,50.247899 C45.1825455,49.8450114 46.8598697,50.3404445 47.9705882,51.5392157 C52.6972475,56.2574764 60.3517722,56.2574764 65.0784314,51.5392157 L86.0784314,30.5490196 C89.1992056,27.5061932 90.4419407,23.0198766 89.3315902,18.8050046 C88.2212397,14.5901326 84.9294752,11.2983682 80.7146032,10.1880176 C76.6106489,9.10688687 72.2493486,10.2566247 69.2137791,13.1987099 L47.9803922,34.4313725 C46.2396123,36.1748597 43.4150558,36.1770544 41.6715686,34.4362745 C39.9280815,32.6954946 39.9258868,29.8709381 41.6666667,28.127451 L62.6666667,7.13725486 C67.9347167,1.64465261 75.7612373,-0.569583842 83.1260213,1.349006 Z" id="Shape" fill="#000000"></path>
    </g>
</svg>