<svg width="100" height="100" viewBox="0 0 100 100" fill="none" xmlns="http://www.w3.org/2000/svg">
<g clip-path="url(#clip0)">
<path d="M93.0141 6.99834C83.6737 -2.33278 68.5391 -2.33278 59.1987 6.99834L39.4434 26.7103C37.6075 28.5496 36.7295 31.1369 37.0669 33.7136C32.972 34.7811 29.2355 36.9202 26.2418 39.9109L6.51785 59.6543C-2.36103 69.0724 -2.14197 83.8427 7.0123 92.9935C16.1666 102.144 30.9381 102.359 40.3542 93.4776L60.0886 73.7551C61.9276 71.9135 62.8058 69.3215 62.4651 66.7413C66.5594 65.6783 70.2962 63.5426 73.2902 60.5545L93.0141 40.8112C102.329 31.4644 102.329 16.3451 93.0141 6.99834ZM28.5136 81.6378C27.1699 82.986 25.3448 83.7439 23.4413 83.7439C21.5378 83.7439 19.7126 82.986 18.3689 81.6378C15.5653 78.8335 15.5653 74.2878 18.3689 71.4835L37.2134 52.6404C36.495 55.4926 37.3255 58.5126 39.4015 60.5964C41.1352 62.32 43.123 63.7675 45.2956 64.8885L28.5136 81.6378ZM81.1839 28.9924L62.3394 47.8355C63.0579 44.9833 62.2273 41.9633 60.1514 39.8795C58.4118 38.1507 56.4168 36.6996 54.2363 35.577L70.987 18.8276C72.3368 17.4711 74.1717 16.7084 76.0854 16.7084C77.9992 16.7084 79.8341 17.4711 81.1839 18.8276C83.9876 21.6319 83.9876 26.1776 81.1839 28.9819V28.9924Z" fill="black"/>
</g>
<defs>
<clipPath id="clip0">
<rect width="100" height="100" fill="white"/>
</clipPath>
</defs>
</svg>
