<svg width="100" height="100" viewBox="0 0 100 100" fill="none" xmlns="http://www.w3.org/2000/svg">
<path fill-rule="evenodd" clip-rule="evenodd" d="M12.0098 0.000488281C18.6348 0.000488281 24.0198 5.38449 24.0198 12.0215C24.0198 18.6515 18.6348 24.0355 12.0098 24.0355C5.36976 24.0355 -0.000244141 18.6515 -0.000244141 12.0215C-0.000244141 5.38449 5.36976 0.000488281 12.0098 0.000488281ZM1.64476 99.8245V33.1455H22.3748V99.8245H1.64476ZM35.3726 33.1451H55.2506V42.2631H55.5346C58.3006 37.0191 65.0626 31.4941 75.1416 31.4941C96.1266 31.4941 99.9996 45.2991 99.9996 63.2531V99.8241H79.2856V67.3971C79.2856 59.6631 79.1516 49.7171 68.5166 49.7171C57.7326 49.7171 56.0866 58.1471 56.0866 66.8411V99.8241H35.3726V33.1451Z" fill="black"/>
</svg>
