<?xml version="1.0" encoding="UTF-8"?>
<svg width="100px" height="100px" viewBox="0 0 100 100" version="1.1" xmlns="http://www.w3.org/2000/svg" xmlns:xlink="http://www.w3.org/1999/xlink">
    <!-- Generator: Sketch 57.1 (83088) - https://sketch.com -->
    <title>brand/linux-brand</title>
    <desc>Created with Sketch.</desc>
    <g id="brand/linux" stroke="none" stroke-width="1" fill="none" fill-rule="evenodd">
        <path d="M40.3695,29.0408 C40.7605,29.4118 41.2875,29.9198 41.9315,30.4278 C43.2215,31.4428 45.0175,32.4968 47.2635,32.4968 C49.5295,32.4968 51.6575,31.3458 53.4735,30.3888 C54.4315,29.8808 55.6025,29.0208 56.3645,28.3568 C57.1265,27.6928 57.5165,27.1268 56.9705,27.0678 C56.4235,27.0098 56.4625,27.5758 55.7985,28.0638 C54.9385,28.6888 53.9035,29.5098 53.0835,29.9778 C51.6385,30.7988 49.2755,31.9708 47.2445,31.9708 C45.2135,31.9708 43.5925,31.0328 42.3815,30.0758 C41.7755,29.5878 41.2675,29.0998 40.8775,28.7288 C40.5845,28.4548 40.5065,27.8298 40.0375,27.7708 C39.7645,27.7518 39.6855,28.4938 40.3695,29.0408 L40.3695,29.0408 Z M90.2485,84.5828 C90.0725,87.8638 82.2025,88.4698 77.9055,93.6638 C75.3275,96.7298 72.1635,98.4298 69.3905,98.6448 C66.6175,98.8588 64.2155,97.7068 62.8085,94.8748 C61.8905,92.7068 62.3405,90.3638 63.0235,87.7858 C63.7465,85.0128 64.8205,82.1608 64.9575,79.8558 C65.1135,76.8888 65.2895,74.2908 65.7775,72.2988 C66.2855,70.2868 67.0665,68.9388 68.4535,68.1778 C68.5125,68.1388 68.5905,68.1188 68.6485,68.0798 C68.8055,70.6578 70.0745,73.2748 72.3195,73.8418 C74.7805,74.4858 78.3155,72.3768 79.8195,70.6578 C81.5775,70.5998 82.8865,70.4818 84.2325,71.6538 C86.1665,73.3138 85.6195,77.5718 87.5725,79.7778 C89.6425,82.0438 90.3075,83.5868 90.2485,84.5828 L90.2485,84.5828 Z M39.9785,86.8288 C39.1785,85.5398 38.1045,84.1728 37.1665,83.0008 C38.5535,83.0008 39.9395,82.5708 40.4285,81.2628 C40.8775,80.0518 40.4285,78.3538 38.9835,76.3998 C36.3465,72.8458 31.5035,70.0528 31.5035,70.0528 C28.8665,68.4118 27.3825,66.4008 26.6995,64.2138 C26.0155,62.0258 26.1135,59.6628 26.6405,57.3388 C27.6555,52.8668 30.2725,48.5118 31.9525,45.7768 C32.4015,45.4448 32.1085,46.4018 30.2535,49.8398 C28.5935,52.9838 25.4885,60.2488 29.7455,65.9328 C29.8625,61.8898 30.8195,57.7688 32.4405,53.9218 C34.7845,48.5698 39.7245,39.2938 40.1155,31.9118 C40.3305,32.0668 41.0145,32.5358 41.3265,32.7118 C42.2245,33.2388 42.9085,34.0198 43.7875,34.7238 C46.2085,36.6768 49.3535,36.5198 52.0675,34.9578 C53.2785,34.2738 54.2555,33.4928 55.1735,33.1998 C57.1065,32.5948 58.6495,31.5208 59.5285,30.2708 C61.0315,36.2078 64.5475,44.7808 66.7935,48.9608 C67.9845,51.1868 70.3675,55.8938 71.4025,61.5768 C72.0465,61.5578 72.7685,61.6548 73.5305,61.8508 C76.2255,54.8788 71.2465,47.3588 68.9805,45.2698 C68.0625,44.3708 68.0235,43.9798 68.4735,43.9998 C70.9335,46.1868 74.1755,50.5818 75.3475,55.5228 C75.8935,57.7878 75.9915,60.1508 75.4255,62.4948 C78.6285,63.8228 82.4365,65.9908 81.4215,69.2908 C80.9915,69.2708 80.7965,69.2908 80.6005,69.2908 C81.2255,67.3178 79.8395,65.8538 76.1475,64.1938 C72.3195,62.5148 69.1175,62.5148 68.6685,66.6358 C66.3055,67.4548 65.0945,69.5058 64.4885,71.9668 C63.9415,74.1538 63.7855,76.7908 63.6295,79.7588 C63.5315,81.2628 62.9265,83.2738 62.3015,85.4228 C56.0325,89.8948 47.3225,91.8478 39.9785,86.8288 L39.9785,86.8288 Z M40.2525,91.8868 C39.7245,98.7418 31.6795,98.6048 25.5465,95.4018 C19.7075,92.3158 12.1495,94.1328 10.6065,91.1248 C10.1375,90.2078 10.1375,88.6448 11.1145,85.9698 L11.1145,85.9308 C11.5825,84.4458 11.2315,82.8058 10.9965,81.2628 C10.7625,79.7388 10.6455,78.3338 11.1725,77.3568 C11.8565,76.0488 12.8325,75.5798 14.0635,75.1498 C16.0745,74.4278 16.3675,74.4858 17.8905,73.2168 C18.9655,72.1038 19.7465,70.6968 20.6835,69.7008 C21.6805,68.6268 22.6365,68.1188 24.1405,68.3538 C25.7225,68.5878 27.0895,69.6818 28.4175,71.4788 L32.2455,78.4318 C34.1005,82.3168 40.6625,87.8838 40.2525,91.8868 L40.2525,91.8868 Z M39.6075,26.6578 C40.8185,25.7598 42.2645,24.7048 42.3615,24.6068 C43.2795,23.7478 44.9985,21.8338 47.8105,21.8338 C49.1975,21.8338 50.8575,22.2828 52.8685,23.5718 C54.0985,24.3728 55.0755,24.4318 57.2825,25.3888 C58.9235,26.0718 59.9575,27.2828 59.3335,28.9428 C58.8255,30.3298 57.1845,31.7558 54.8995,32.4778 C52.7315,33.1808 51.0335,35.6028 47.4395,35.3878 C46.6775,35.3488 46.0725,35.1918 45.5645,34.9778 C44.0025,34.2938 43.1825,32.9458 41.6585,32.0478 C39.9785,31.1108 39.0805,30.0178 38.7875,29.0608 C38.5145,28.1038 38.7875,27.3028 39.6075,26.6578 L39.6075,26.6578 Z M42.2645,14.8038 C44.2365,14.8038 46.3265,17.5768 45.9945,21.3458 C45.3105,21.5408 44.6075,21.8338 44.0025,22.2438 C44.2365,20.5058 43.3575,18.3188 42.1275,18.4168 C40.4865,18.5538 40.2135,22.5568 41.7755,23.9038 C41.9715,24.0608 42.1465,23.8648 40.6235,24.9788 C37.5775,22.1268 38.5735,14.8038 42.2645,14.8038 L42.2645,14.8038 Z M50.2125,17.0498 C52.1265,12.7138 56.8915,12.7918 58.8065,16.9718 C60.0745,19.7448 59.5095,23.0058 57.9665,24.8608 C57.6535,24.7048 56.8135,24.3538 55.5055,23.9038 C55.7205,23.6698 56.1105,23.3768 56.2665,23.0058 C57.2045,20.7008 56.2275,17.7328 54.4895,17.6748 C53.0635,17.5768 51.7745,19.7838 52.1845,22.1658 C51.3845,21.7748 50.3495,21.4818 49.6465,21.3068 C49.4515,19.9598 49.5875,18.4558 50.2125,17.0498 L50.2125,17.0498 Z M88.5495,78.8608 C87.8465,78.0798 87.5145,76.5958 87.1425,75.0138 C86.7915,73.4318 86.3815,71.7318 85.0925,70.6388 C84.8385,70.4238 84.5845,70.2288 84.3105,70.0718 C84.0575,69.9158 83.7835,69.7788 83.5105,69.6818 C85.3075,64.3508 84.6035,59.0378 82.7885,54.2338 C80.5615,48.3548 76.6755,43.2198 73.7065,39.7038 C70.3675,35.5048 67.1255,31.5208 67.1835,25.6428 C67.2815,16.6788 68.1805,0.0198 52.3805,-0.00025630276 C32.3825,-0.0392 37.3815,20.1938 37.1665,26.4038 C36.8345,30.9748 35.9165,34.5668 32.7725,39.0398 C29.0815,43.4348 23.8865,50.5228 21.4265,57.9248 C20.2545,61.4208 19.7075,64.9758 20.2155,68.3338 C18.9455,69.4668 17.9885,71.2048 16.9735,72.2788 C16.1525,73.1188 14.9615,73.4318 13.6535,73.8998 C12.3445,74.3688 10.9185,75.0718 10.0395,76.7318 C9.6305,77.4938 9.4935,78.3138 9.4935,79.1528 C9.4935,79.9148 9.6105,80.6958 9.7275,81.4578 C9.9625,83.0398 10.2155,84.5238 9.8845,85.5198 C8.8685,88.3328 8.7315,90.2858 9.4545,91.7108 C10.1965,93.1368 11.6805,93.7618 13.3795,94.1128 C16.7585,94.8158 21.3485,94.6408 24.9605,96.5548 C28.8275,98.5858 32.7535,99.3088 35.8775,98.5858 C38.1435,98.0778 39.9985,96.7108 40.9355,94.6408 C43.3775,94.6208 46.0725,93.5858 50.3695,93.3518 C53.2785,93.1168 56.9315,94.3868 61.1295,94.1518 C61.2465,94.6018 61.4025,95.0508 61.6175,95.4608 L61.6175,95.4798 C63.2385,98.7418 66.2655,100.2268 69.4885,99.9728 C72.7295,99.7188 76.1475,97.8238 78.9215,94.5228 C81.5775,91.3198 85.9515,89.9928 88.8615,88.2348 C90.3075,87.3558 91.4785,86.2628 91.5765,84.6608 C91.6545,83.0598 90.7175,81.2818 88.5495,78.8598 L88.5495,78.8608 Z M45.3695,24.4118 C45.6035,24.4118 45.7595,24.1778 45.9545,24.0798 C46.1695,23.9628 46.5605,24.0018 46.6385,23.7678 C46.6775,23.6888 46.5995,23.5918 46.5215,23.5528 C46.2085,23.3768 45.7795,23.4358 45.4475,23.5718 C45.1935,23.6888 44.7835,23.8648 44.8225,24.1388 C44.8425,24.3338 45.1745,24.4318 45.3695,24.4118 L45.3695,24.4118 Z M49.6465,24.0798 C49.8415,24.1778 49.9975,24.4118 50.2325,24.4118 C50.4475,24.4118 50.7795,24.3338 50.7985,24.1188 C50.8375,23.8458 50.4275,23.6698 50.1735,23.5528 C49.8415,23.4158 49.4115,23.3568 49.0995,23.5328 C49.0215,23.5718 48.9435,23.6698 48.9825,23.7478 C49.0405,24.0018 49.4315,23.9628 49.6465,24.0798 L49.6465,24.0798 Z" id="Fill-1" fill="#000000"></path>
    </g>
</svg>