<svg width="100" height="100" viewBox="0 0 100 100" fill="none" xmlns="http://www.w3.org/2000/svg">
<path fill-rule="evenodd" clip-rule="evenodd" d="M40.3695 29.0406C40.7605 29.4116 41.2875 29.9196 41.9315 30.4276C43.2215 31.4426 45.0175 32.4966 47.2635 32.4966C49.5295 32.4966 51.6575 31.3456 53.4735 30.3886C54.4315 29.8806 55.6025 29.0206 56.3645 28.3566C57.1265 27.6926 57.5165 27.1266 56.9705 27.0676C56.4235 27.0096 56.4625 27.5756 55.7985 28.0636C54.9385 28.6886 53.9035 29.5096 53.0835 29.9776C51.6385 30.7986 49.2755 31.9706 47.2445 31.9706C45.2135 31.9706 43.5925 31.0326 42.3815 30.0756C41.7755 29.5876 41.2675 29.0996 40.8775 28.7286C40.5845 28.4546 40.5065 27.8296 40.0375 27.7706C39.7645 27.7516 39.6855 28.4936 40.3695 29.0406ZM90.2485 84.5826C90.0725 87.8636 82.2025 88.4696 77.9055 93.6636C75.3275 96.7296 72.1635 98.4296 69.3905 98.6446C66.6175 98.8586 64.2155 97.7066 62.8085 94.8746C61.8905 92.7066 62.3405 90.3636 63.0235 87.7856C63.7465 85.0126 64.8205 82.1606 64.9575 79.8556C65.1135 76.8886 65.2895 74.2906 65.7775 72.2986C66.2855 70.2866 67.0665 68.9386 68.4535 68.1776C68.5125 68.1386 68.5905 68.1186 68.6485 68.0796C68.8055 70.6576 70.0745 73.2746 72.3195 73.8416C74.7805 74.4856 78.3155 72.3766 79.8195 70.6576C81.5775 70.5996 82.8865 70.4816 84.2325 71.6536C86.1665 73.3136 85.6195 77.5716 87.5725 79.7776C89.6425 82.0436 90.3075 83.5866 90.2485 84.5826ZM39.9785 86.8286C39.1785 85.5396 38.1045 84.1726 37.1665 83.0006C38.5535 83.0006 39.9395 82.5706 40.4285 81.2626C40.8775 80.0516 40.4285 78.3536 38.9835 76.3996C36.3465 72.8456 31.5035 70.0526 31.5035 70.0526C28.8665 68.4116 27.3825 66.4006 26.6995 64.2136C26.0155 62.0256 26.1135 59.6626 26.6405 57.3386C27.6555 52.8666 30.2725 48.5116 31.9525 45.7766C32.4015 45.4446 32.1085 46.4016 30.2535 49.8396C28.5935 52.9836 25.4885 60.2486 29.7455 65.9326C29.8625 61.8896 30.8195 57.7686 32.4405 53.9216C34.7845 48.5696 39.7245 39.2936 40.1155 31.9116C40.3305 32.0666 41.0145 32.5356 41.3265 32.7116C42.2245 33.2386 42.9085 34.0196 43.7875 34.7236C46.2085 36.6766 49.3535 36.5196 52.0675 34.9576C53.2785 34.2736 54.2555 33.4926 55.1735 33.1996C57.1065 32.5946 58.6495 31.5206 59.5285 30.2706C61.0315 36.2076 64.5475 44.7806 66.7935 48.9606C67.9845 51.1866 70.3675 55.8936 71.4025 61.5766C72.0465 61.5576 72.7685 61.6546 73.5305 61.8506C76.2255 54.8786 71.2465 47.3586 68.9805 45.2696C68.0625 44.3706 68.0235 43.9796 68.4735 43.9996C70.9335 46.1866 74.1755 50.5816 75.3475 55.5226C75.8935 57.7876 75.9915 60.1506 75.4255 62.4946C78.6285 63.8226 82.4365 65.9906 81.4215 69.2906C80.9915 69.2706 80.7965 69.2906 80.6005 69.2906C81.2255 67.3176 79.8395 65.8536 76.1475 64.1936C72.3195 62.5146 69.1175 62.5146 68.6685 66.6356C66.3055 67.4546 65.0945 69.5056 64.4885 71.9666C63.9415 74.1536 63.7855 76.7906 63.6295 79.7586C63.5315 81.2626 62.9265 83.2736 62.3015 85.4226C56.0325 89.8946 47.3225 91.8476 39.9785 86.8286ZM40.2525 91.8866C39.7245 98.7416 31.6795 98.6046 25.5465 95.4016C19.7075 92.3156 12.1495 94.1326 10.6065 91.1246C10.1375 90.2076 10.1375 88.6446 11.1145 85.9696V85.9306C11.5825 84.4456 11.2315 82.8056 10.9965 81.2626C10.7625 79.7386 10.6455 78.3336 11.1725 77.3566C11.8565 76.0486 12.8325 75.5796 14.0635 75.1496C16.0745 74.4276 16.3675 74.4856 17.8905 73.2166C18.9655 72.1036 19.7465 70.6966 20.6835 69.7006C21.6805 68.6266 22.6365 68.1186 24.1405 68.3536C25.7225 68.5876 27.0895 69.6816 28.4175 71.4786L32.2455 78.4316C34.1005 82.3166 40.6625 87.8836 40.2525 91.8866ZM39.6075 26.6576C40.8185 25.7596 42.2645 24.7046 42.3615 24.6066C43.2795 23.7476 44.9985 21.8336 47.8105 21.8336C49.1975 21.8336 50.8575 22.2826 52.8685 23.5716C54.0985 24.3726 55.0755 24.4316 57.2825 25.3886C58.9235 26.0716 59.9575 27.2826 59.3335 28.9426C58.8255 30.3296 57.1845 31.7556 54.8995 32.4776C52.7315 33.1806 51.0335 35.6026 47.4395 35.3876C46.6775 35.3486 46.0725 35.1916 45.5645 34.9776C44.0025 34.2936 43.1825 32.9456 41.6585 32.0476C39.9785 31.1106 39.0805 30.0176 38.7875 29.0606C38.5145 28.1036 38.7875 27.3026 39.6075 26.6576ZM42.2645 14.8036C44.2365 14.8036 46.3265 17.5766 45.9945 21.3456C45.3105 21.5406 44.6075 21.8336 44.0025 22.2436C44.2365 20.5056 43.3575 18.3186 42.1275 18.4166C40.4865 18.5536 40.2135 22.5566 41.7755 23.9036C41.9715 24.0606 42.1465 23.8646 40.6235 24.9786C37.5775 22.1266 38.5735 14.8036 42.2645 14.8036ZM50.2125 17.0496C52.1265 12.7136 56.8915 12.7916 58.8065 16.9716C60.0745 19.7446 59.5095 23.0056 57.9665 24.8606C57.6535 24.7046 56.8135 24.3536 55.5055 23.9036C55.7205 23.6696 56.1105 23.3766 56.2665 23.0056C57.2045 20.7006 56.2275 17.7326 54.4895 17.6746C53.0635 17.5766 51.7745 19.7836 52.1845 22.1656C51.3845 21.7746 50.3495 21.4816 49.6465 21.3066C49.4515 19.9596 49.5875 18.4556 50.2125 17.0496ZM88.5495 78.8606C87.8465 78.0796 87.5145 76.5956 87.1425 75.0136C86.7915 73.4316 86.3815 71.7316 85.0925 70.6386C84.8385 70.4236 84.5845 70.2286 84.3105 70.0716C84.0575 69.9156 83.7835 69.7786 83.5105 69.6816C85.3075 64.3506 84.6035 59.0376 82.7885 54.2336C80.5615 48.3546 76.6755 43.2196 73.7065 39.7036C70.3675 35.5046 67.1255 31.5206 67.1835 25.6426C67.2815 16.6786 68.1805 0.019568 52.3805 -0.000431978C32.3825 -0.039432 37.3815 20.1936 37.1665 26.4036C36.8345 30.9746 35.9165 34.5666 32.7725 39.0396C29.0815 43.4346 23.8865 50.5226 21.4265 57.9246C20.2545 61.4206 19.7075 64.9756 20.2155 68.3336C18.9455 69.4666 17.9885 71.2046 16.9735 72.2786C16.1525 73.1186 14.9615 73.4316 13.6535 73.8996C12.3445 74.3686 10.9185 75.0716 10.0395 76.7316C9.63047 77.4936 9.49347 78.3136 9.49347 79.1526C9.49347 79.9146 9.61047 80.6956 9.72747 81.4576C9.96247 83.0396 10.2155 84.5236 9.88447 85.5196C8.86847 88.3326 8.73147 90.2856 9.45447 91.7106C10.1965 93.1366 11.6805 93.7616 13.3795 94.1126C16.7585 94.8156 21.3485 94.6406 24.9605 96.5546C28.8275 98.5856 32.7535 99.3086 35.8775 98.5856C38.1435 98.0776 39.9985 96.7106 40.9355 94.6406C43.3775 94.6206 46.0725 93.5856 50.3695 93.3516C53.2785 93.1166 56.9315 94.3866 61.1295 94.1516C61.2465 94.6016 61.4025 95.0506 61.6175 95.4606V95.4796C63.2385 98.7416 66.2655 100.227 69.4885 99.9726C72.7295 99.7186 76.1475 97.8236 78.9215 94.5226C81.5775 91.3196 85.9515 89.9926 88.8615 88.2346C90.3075 87.3556 91.4785 86.2626 91.5765 84.6606C91.6545 83.0596 90.7175 81.2816 88.5495 78.8596V78.8606ZM45.3695 24.4116C45.6035 24.4116 45.7595 24.1776 45.9545 24.0796C46.1695 23.9626 46.5605 24.0016 46.6385 23.7676C46.6775 23.6886 46.5995 23.5916 46.5215 23.5526C46.2085 23.3766 45.7795 23.4356 45.4475 23.5716C45.1935 23.6886 44.7835 23.8646 44.8225 24.1386C44.8425 24.3336 45.1745 24.4316 45.3695 24.4116ZM49.6465 24.0796C49.8415 24.1776 49.9975 24.4116 50.2325 24.4116C50.4475 24.4116 50.7795 24.3336 50.7985 24.1186C50.8375 23.8456 50.4275 23.6696 50.1735 23.5526C49.8415 23.4156 49.4115 23.3566 49.0995 23.5326C49.0215 23.5716 48.9435 23.6696 48.9825 23.7476C49.0405 24.0016 49.4315 23.9626 49.6465 24.0796Z" fill="black"/>
</svg>
