<svg width="100" height="100" viewBox="0 0 100 100" fill="none" xmlns="http://www.w3.org/2000/svg">
<g clip-path="url(#clip0)">
<path d="M57.1891 100C56.9419 100 56.7066 100 56.4477 100C53.8806 99.6915 51.8399 97.6995 51.47 95.1412L45.4214 54.5765L4.89357 48.5177C2.34594 48.1322 0.365146 46.1006 0.0448791 43.5446C-0.275388 40.9885 1.14294 38.5312 3.51675 37.5294L92.0213 0.447066C94.1759 -0.45563 96.6625 0.0335175 98.3144 1.68498C99.9663 3.33645 100.456 5.82246 99.5526 7.97648L62.4727 96.4706C61.5953 98.6134 59.505 100.01 57.1891 100ZM6.22332 42.7765L46.3863 48.7765C48.8912 49.1406 50.8586 51.1076 51.2229 53.6118L57.2244 93.7647L94.0101 6.00001L6.22332 42.7765ZM93.1628 3.16471L94.3396 5.8706L93.1628 3.16471Z" fill="black"/>
</g>
<defs>
<clipPath id="clip0">
<rect width="100" height="100" fill="white"/>
</clipPath>
</defs>
</svg>
