<?xml version="1.0" encoding="UTF-8"?>
<svg width="100px" height="100px" viewBox="0 0 100 100" version="1.1" xmlns="http://www.w3.org/2000/svg" xmlns:xlink="http://www.w3.org/1999/xlink">
    <!-- Generator: Sketch 57.1 (83088) - https://sketch.com -->
    <title>regular/lock-open-regular</title>
    <desc>Created with Sketch.</desc>
    <g id="regular/lock-open" stroke="none" stroke-width="1" fill="none" fill-rule="evenodd">
        <path d="M98.8811882,26.0495049 C95.0909051,15.3273218 84.1341682,8.88863442 72.9227071,10.7950961 C61.7112459,12.7015578 53.4985474,22.3999268 53.4653465,33.7722772 L53.4653465,37.5940594 L4.24752471,37.5940594 C3.1210111,37.5940594 2.04063656,38.0415652 1.24407115,38.8381306 C0.447505738,39.634696 -4.9999997e-08,40.7150705 -4.9999997e-08,41.8415842 L-4.9999997e-08,85.2772278 C0.0054591155,87.6192034 1.9055427,89.5148515 4.24752471,89.5148515 L65.3465347,89.5148515 C67.6869097,89.5148515 69.5841584,87.6176027 69.5841584,85.2772278 L69.5841584,41.8415842 C69.5841648,39.4996021 67.6885103,37.5995186 65.3465347,37.5940594 L58.1584158,37.5940594 L58.1584158,33.7722772 C58.1447246,24.6665424 64.7073738,16.8816155 73.6842084,15.3548429 C82.661043,13.8280703 91.4283514,19.0056907 94.4257426,27.6039604 C94.8549936,28.8342977 96.2003558,29.4837064 97.4306931,29.0544554 C98.6610304,28.6252044 99.3104392,27.2798422 98.8811882,26.0495049 Z M64.8514852,42.3069307 L64.8514852,84.8019802 L4.71287124,84.8019802 L4.71287124,42.3069307 L64.8514852,42.3069307 Z" id="lock-open" fill="#000000"></path>
    </g>
</svg>