<?xml version="1.0" encoding="UTF-8"?>
<svg width="100px" height="100px" viewBox="0 0 100 100" version="1.1" xmlns="http://www.w3.org/2000/svg" xmlns:xlink="http://www.w3.org/1999/xlink">
    <!-- Generator: Sketch 57.1 (83088) - https://sketch.com -->
    <title>regular/lock-regular</title>
    <desc>Created with Sketch.</desc>
    <g id="regular/lock" stroke="none" stroke-width="1" fill="none" fill-rule="evenodd">
        <path d="M89.0990099,35.4653465 L78.8712872,35.4653465 L78.8712872,29.980198 C79.065045,19.4971121 73.5832752,9.72634998 64.5355727,4.42807535 C55.4878703,-0.870199269 44.2844069,-0.870199269 35.2367045,4.42807535 C26.1890021,9.72634998 20.7072323,19.4971121 20.9009901,29.980198 L20.9009901,35.4653465 L10.6831683,35.4653465 C8.34118627,35.4653402 6.44110269,37.3609946 6.43564352,39.7029703 L6.43564352,95.7524753 C6.43564352,98.0983184 8.33732513,100 10.6831683,100 L89.0990099,100 C91.4409856,99.9945409 93.3366337,98.0944573 93.3366337,95.7524753 L93.3366337,39.7029703 C93.3366337,38.5790826 92.8901711,37.5012264 92.0954624,36.7065178 C91.3007538,35.9118092 90.2228976,35.4653465 89.0990099,35.4653465 Z M25.6138614,29.980198 C25.2541681,21.0800598 29.7973277,12.6976483 37.450703,8.14049053 C45.1040782,3.5833328 54.638496,3.5833328 62.2918713,8.14049053 C69.9452465,12.6976483 74.4884062,21.0800598 74.1287129,29.980198 L74.1287129,35.4653465 L25.6138614,35.4653465 L25.6138614,29.980198 Z M88.6138614,95.2871288 L11.1485148,95.2871288 L11.1485148,40.1782178 L88.6138614,40.1782178 L88.6138614,95.2871288 Z" id="lock" fill="#000000"></path>
    </g>
</svg>