<svg width="100" height="100" viewBox="0 0 100 100" fill="none" xmlns="http://www.w3.org/2000/svg">
<g clip-path="url(#clip0)">
<path d="M88.6433 34.3961H26.2754V29.5008C26.278 17.969 34.5964 8.11985 45.9652 6.18771C57.334 4.25556 68.439 10.8036 72.2511 21.6872C72.549 22.7398 73.4065 23.5402 74.4771 23.7651C75.5478 23.99 76.6548 23.6022 77.351 22.7583C78.0473 21.9145 78.2178 20.754 77.7936 19.7455C73.0227 6.17106 59.1645 -1.99045 44.9795 0.420255C30.7944 2.83096 20.4104 15.1124 20.3917 29.5008V34.3961H11.2954C8.37082 34.3961 6 36.7669 6 39.6915V94.7046C6.00647 97.6265 8.37351 99.9935 11.2954 100H88.6433C91.5652 99.9935 93.9322 97.6265 93.9387 94.7046V39.6915C93.9387 36.7669 91.5678 34.3961 88.6433 34.3961ZM88.0549 94.1162H11.8838V40.2798H88.0549V94.1162Z" fill="black"/>
</g>
<defs>
<clipPath id="clip0">
<rect width="100" height="100" fill="white"/>
</clipPath>
</defs>
</svg>
