<svg width="100" height="100" viewBox="0 0 100 100" fill="none" xmlns="http://www.w3.org/2000/svg">
<g clip-path="url(#clip0)">
<path d="M88.6682 35.1701H81.4236V30.3326C81.0969 13.4861 67.3468 0 50.4971 0C33.6474 0 19.8973 13.4861 19.5706 30.3326V35.1701H12.2329C10.8451 35.1701 9.51404 35.7214 8.53268 36.7028C7.55132 37.6841 7 39.0152 7 40.403V94.7671C7.0064 97.6545 9.34551 99.9936 12.2329 100H88.6682C91.5556 99.9936 93.8947 97.6545 93.9011 94.7671V40.403C93.9011 37.513 91.5583 35.1701 88.6682 35.1701ZM28.827 30.3326C29.0995 18.5856 38.7004 9.20471 50.4506 9.20471C62.2007 9.20471 71.8017 18.5856 72.0741 30.3326V35.1701H28.827V30.3326Z" fill="black"/>
</g>
<defs>
<clipPath id="clip0">
<rect width="100" height="100" fill="white"/>
</clipPath>
</defs>
</svg>
