<svg width="100" height="100" viewBox="0 0 100 100" fill="none" xmlns="http://www.w3.org/2000/svg">
<g clip-path="url(#clip0)">
<path d="M88.2037 35.5389H28.7029V30.7289C28.7147 20.2501 36.2771 11.3051 46.6079 9.55044C56.9388 7.79576 67.0305 13.7422 70.5014 23.6295C71.3815 25.9873 73.9853 27.2086 76.361 26.3779C78.7366 25.5472 80.012 22.9695 79.2311 20.577C74.2693 6.43442 59.8358 -2.07237 45.0597 0.437009C30.2835 2.94638 19.4676 15.7412 19.4528 30.7289V35.5389H12.2031C9.32952 35.5389 7 37.8684 7 40.742V94.7969C7.00636 97.6678 9.33216 99.9936 12.2031 100H88.2037C91.0746 99.9936 93.4004 97.6678 93.4068 94.7969V40.742C93.4068 37.8684 91.0773 35.5389 88.2037 35.5389Z" fill="black"/>
</g>
<defs>
<clipPath id="clip0">
<rect width="100" height="100" fill="white"/>
</clipPath>
</defs>
</svg>
