<?xml version="1.0" encoding="UTF-8"?>
<svg width="100px" height="100px" viewBox="0 0 100 100" version="1.1" xmlns="http://www.w3.org/2000/svg" xmlns:xlink="http://www.w3.org/1999/xlink">
    <!-- Generator: Sketch 57.1 (83088) - https://sketch.com -->
    <title>solid/lock-solid</title>
    <desc>Created with Sketch.</desc>
    <g id="solid/lock" stroke="none" stroke-width="1" fill="none" fill-rule="evenodd">
        <path d="M88.1584159,35.970297 L80.4851485,35.970297 L80.4851485,30.6138614 C80.1849095,13.9181672 66.5647302,0.540717758 49.8663366,0.540717758 C33.1679431,0.540717758 19.5477638,13.9181672 19.2475247,30.6138614 L19.2475247,35.970297 L11.5742574,35.970297 C9.28535438,35.9757403 7.43118584,37.8299089 7.42574253,40.1188119 L7.42574253,94.8613862 C7.43118584,97.1502892 9.28535438,99.0044577 11.5742574,99.009901 L88.1584159,99.009901 C90.4473189,99.0044577 92.3014874,97.1502892 92.3069307,94.8613862 L92.3069307,40.1188119 C92.3014874,37.8299089 90.4473189,35.9757403 88.1584159,35.970297 Z M28.4554455,30.6138614 C28.7058868,18.9683439 38.2181266,9.65846903 49.8663366,9.65846903 C61.5145467,9.65846903 71.0267865,18.9683439 71.2772277,30.6138614 L71.2772277,35.970297 L28.4554455,35.970297 L28.4554455,30.6138614 Z" id="lock" fill="#000000"></path>
    </g>
</svg>