<svg width="100" height="100" viewBox="0 0 100 100" fill="none" xmlns="http://www.w3.org/2000/svg">
<g clip-path="url(#clip0)">
<path d="M89.1035 34.0307H79.9093V29.1082C79.5865 12.939 66.3866 0 50.2142 0C34.0419 0 20.8419 12.939 20.5192 29.1082V34.0307H11.3249C8.38403 34.0307 6 36.4147 6 39.3556V94.6751C6.00651 97.6133 8.38673 99.9935 11.3249 100H89.1035C92.0417 99.9935 94.4219 97.6133 94.4284 94.6751V39.3556C94.4284 36.4147 92.0444 34.0307 89.1035 34.0307ZM26.3884 29.1082C26.6767 16.1823 37.2378 5.8542 50.1669 5.8542C63.096 5.8542 73.657 16.1823 73.9454 29.1082V34.0307H26.4357L26.3884 29.1082ZM88.5119 94.0835H11.9165V39.9472H88.5119V94.0835Z" fill="black"/>
</g>
<defs>
<clipPath id="clip0">
<rect width="100" height="100" fill="white"/>
</clipPath>
</defs>
</svg>
