<?xml version="1.0" encoding="UTF-8"?>
<svg width="100px" height="100px" viewBox="0 0 100 100" version="1.1" xmlns="http://www.w3.org/2000/svg" xmlns:xlink="http://www.w3.org/1999/xlink">
    <!-- Generator: Sketch 57.1 (83088) - https://sketch.com -->
    <title>solid/login-solid</title>
    <desc>Created with Sketch.</desc>
    <g id="solid/login" stroke="none" stroke-width="1" fill="none" fill-rule="evenodd">
        <path d="M43.93,14 L34.62,23.3 L9.29999996,23.3 L9.29999996,76.38 L34.62,76.38 L43.93,85.69 L7.30999996,85.69 C3.2750823,85.6844916 0.00550837771,82.4149177 -4.99987323e-08,78.38 L-4.99987323e-08,21.31 C0.00550837771,17.2750823 3.2750823,14.0055084 7.30999996,14 L43.93,14 Z M55.72,15.36 C56.8926217,14.1866802 58.6567146,13.8355639 60.1892357,14.4704655 C61.7217568,15.1053671 62.7206979,16.6011689 62.72,18.26 L62.72,35.82 L95.9,35.82 C98.1620866,35.8254972 99.9945029,37.6579134 100,39.92 L100,59.77 C99.9945029,62.0320866 98.1620866,63.8645028 95.9,63.87 L62.72,63.87 L62.72,81.43 C62.7223915,83.0868203 61.7226054,84.5805718 60.19,85.21 C59.6891613,85.4184224 59.1524675,85.5271198 58.61,85.53 C57.5263393,85.5256396 56.4880289,85.0945073 55.72,84.33 L24.14,52.79 C23.3711802,52.022739 22.9391305,50.9811737 22.9391305,49.895 C22.9391305,48.8088263 23.3711802,47.767261 24.14,47 L55.72,15.36 Z" id="Shape" fill="#000000"></path>
    </g>
</svg>