<svg width="100" height="100" viewBox="0 0 100 100" fill="none" xmlns="http://www.w3.org/2000/svg">
<path fill-rule="evenodd" clip-rule="evenodd" d="M54.1996 85.5298C55.0838 86.4193 56.2865 86.9191 57.5407 86.9181C58.1652 86.9063 58.7811 86.7703 59.3525 86.5181C61.1256 85.7897 62.2797 84.0585 62.2701 82.1416V64.9651H95.2937C97.8927 64.9651 99.9996 62.8582 99.9996 60.2593V40.1181C99.9996 37.5191 97.8927 35.4122 95.2937 35.4122H62.2701V18.2357C62.2814 16.3177 61.1276 14.5848 59.3536 13.8555C57.5796 13.1263 55.5405 13.5466 54.1996 14.9181L22.2348 46.8357C21.3403 47.7198 20.8369 48.9251 20.8369 50.1828C20.8369 51.4404 21.3403 52.6458 22.2348 53.5298L54.1996 85.5298ZM56.3878 79.4122L27.2113 50.224L56.4701 21.0357V36.624C56.4701 39.2229 58.577 41.3298 61.176 41.3298H94.1172V59.1416H61.0937C58.4947 59.1416 56.3878 61.2485 56.3878 63.8475V79.4122Z" fill="black"/>
<path d="M5.88235 78.8354H41.6824L47.5647 84.7178H5.63529C2.5276 84.7178 0.00648789 82.2019 0 79.0942V21.3531C0.00647162 18.2435 2.52569 15.7242 5.63529 15.7178H47.5647L41.6824 21.6001H5.88235V78.8354Z" fill="black"/>
</svg>
