<svg width="100" height="100" viewBox="0 0 100 100" fill="none" xmlns="http://www.w3.org/2000/svg">
<path fill-rule="evenodd" clip-rule="evenodd" d="M58.606 81.7516C58.606 84.3504 60.7127 86.4571 63.3114 86.4571C64.5655 86.4581 65.7681 85.9584 66.6523 85.069L98.6022 53.1073C99.4966 52.2233 100 51.0181 100 49.7606C100 48.503 99.4966 47.2978 98.6022 46.4138L66.6876 14.4286C65.3436 13.0437 63.2903 12.6198 61.5078 13.3593C59.7253 14.0988 58.575 15.8517 58.606 17.7812V35.0149H25.6679C23.0692 35.0149 20.9625 37.1216 20.9625 39.7203V59.8361C20.9625 62.4348 23.0692 64.5415 25.6679 64.5415H58.606V81.7516ZM59.6765 58.6597H26.7384L26.809 40.8496H59.7471C62.3458 40.8496 64.4525 38.7429 64.4525 36.1442V20.581L93.638 49.7664L64.3819 78.9519V63.3652C64.3819 60.7664 62.2752 58.6597 59.6765 58.6597Z" fill="black"/>
<path d="M5.8818 78.3751H41.6784L47.5602 84.2569H5.63476C2.52736 84.2569 0.00648727 81.7413 0 78.6339V20.8982C0.00647101 17.7889 2.52545 15.2699 5.63476 15.2634H47.5602L41.6784 21.1452H5.8818V78.3751Z" fill="black"/>
</svg>
