<svg width="100" height="100" viewBox="0 0 100 100" fill="none" xmlns="http://www.w3.org/2000/svg">
<path d="M39.1498 71.2828L54.244 86.3769C55.5853 87.7163 57.3432 88.5582 59.2275 88.7637C58.6179 88.8977 57.9953 88.9644 57.3711 88.9627H11.3704C8.35475 88.9627 5.46266 87.7647 3.3303 85.6323C1.19794 83.5 0 80.6079 0 77.5923V23.3704C0 17.0907 5.09068 12 11.3704 12H57.3711C58.0103 12.0018 58.6475 12.0722 59.2717 12.2099C57.3727 12.401 55.5973 13.2399 54.244 14.5857L39.1498 29.6799H17.6799V71.2828H39.1498Z" fill="black"/>
<path d="M68.6866 17.3266L98.6981 47.3603C99.5315 48.1898 100 49.3171 100 50.4929C100 51.6687 99.5315 52.7961 98.6981 53.6256L68.6866 83.6482C67.8561 84.4836 66.7264 84.953 65.5484 84.9521C64.9616 84.9511 64.3804 84.8386 63.8357 84.6206C62.1703 83.9364 61.0863 82.3104 61.0953 80.51V64.3329H30.1556C27.7145 64.3329 25.7356 62.354 25.7356 59.913V41.0287C25.7356 38.5876 27.7145 36.6087 30.1556 36.6087H61.0953V20.4648C61.0708 18.6543 62.153 17.012 63.8263 16.3203C65.4996 15.6285 67.4255 16.0273 68.6866 17.3266Z" fill="black"/>
</svg>
