<?xml version="1.0" encoding="UTF-8"?>
<svg width="100px" height="100px" viewBox="0 0 100 100" version="1.1" xmlns="http://www.w3.org/2000/svg" xmlns:xlink="http://www.w3.org/1999/xlink">
    <!-- Generator: Sketch 57.1 (83088) - https://sketch.com -->
    <title>regular/long-arrow-up-regular</title>
    <desc>Created with Sketch.</desc>
    <g id="regular/long-arrow-up" stroke="none" stroke-width="1" fill="none" fill-rule="evenodd">
        <path d="M87.3762377,36 L54.0693069,2.68316827 C53.1070945,1.73369023 51.8421653,1.15203301 50.4950495,1.03960391 C50.1687407,0.969486857 49.8312593,0.969486857 49.5049505,1.03960391 C48.1438928,1.14294012 46.8634918,1.72525948 45.8910891,2.68316827 L12.5742574,36 C11.7455023,36.9325405 11.7872115,38.3494278 12.6693869,39.2316031 C13.5515623,40.1137785 14.9684496,40.1554878 15.9009901,39.3267327 L47.5841584,7.64356431 L47.5841584,97.6435644 C47.6648101,98.8884527 48.6980464,99.8569155 49.9455446,99.8569155 C51.1930427,99.8569155 52.226279,98.8884527 52.3069307,97.6435644 L52.3069307,7.61386134 L83.990099,39.2970297 C84.43049,39.7396136 85.029106,39.9884398 85.6534654,39.9884398 C86.2778248,39.9884398 86.8764408,39.7396136 87.3168317,39.2970297 C88.2356586,38.3995039 88.2621354,36.9300434 87.3762377,36 Z" id="long-arrow-up" fill="#000000"></path>
    </g>
</svg>