<?xml version="1.0" encoding="UTF-8"?>
<svg width="100px" height="100px" viewBox="0 0 100 100" version="1.1" xmlns="http://www.w3.org/2000/svg" xmlns:xlink="http://www.w3.org/1999/xlink">
    <!-- Generator: Sketch 57.1 (83088) - https://sketch.com -->
    <title>regular/long-arrow-left-regular</title>
    <desc>Created with Sketch.</desc>
    <g id="regular/long-arrow-left" stroke="none" stroke-width="1" fill="none" fill-rule="evenodd">
        <path d="M97.6435644,47.6138614 L7.61386134,47.6138614 L39.2970297,15.930693 C40.1351223,15.0057002 40.10653,13.5876387 39.2318325,12.6971809 C38.3571349,11.806723 36.9398101,11.7528148 36,12.5742574 L2.68316827,45.8811881 C0.423298618,48.1427786 0.423298618,51.8077164 2.68316827,54.0693069 L36,87.3762377 C36.4403909,87.8188215 37.0390069,88.0676478 37.6633663,88.0676478 C38.2877257,88.0676478 38.8863417,87.8188215 39.3267327,87.3762377 C39.7693165,86.9358467 40.0181428,86.3372307 40.0181428,85.7128713 C40.0181428,85.0885119 39.7693165,84.4898959 39.3267327,84.049505 L7.64356431,52.3663366 L97.6435644,52.3663366 C98.8884527,52.2856849 99.8569155,51.2524486 99.8569155,50.0049505 C99.8569155,48.7574524 98.8884527,47.7242161 97.6435644,47.6435644 L97.6435644,47.6138614 Z" id="long-arrow-left" fill="#000000"></path>
    </g>
</svg>