<?xml version="1.0" encoding="UTF-8"?>
<svg width="100px" height="100px" viewBox="0 0 100 100" version="1.1" xmlns="http://www.w3.org/2000/svg" xmlns:xlink="http://www.w3.org/1999/xlink">
    <!-- Generator: Sketch 57.1 (83088) - https://sketch.com -->
    <title>regular/long-arrow-right-regular</title>
    <desc>Created with Sketch.</desc>
    <g id="regular/long-arrow-right" stroke="none" stroke-width="1" fill="none" fill-rule="evenodd">
        <path d="M99.009901,49.980198 C99.0249987,49.8188342 99.0249987,49.6564133 99.009901,49.4950495 C98.9065648,48.1339918 98.3242455,46.8535908 97.3663367,45.8811881 L64,12.5742574 C63.0674595,11.7455023 61.6505722,11.7872115 60.7683969,12.6693869 C59.8862215,13.5515623 59.8445122,14.9684496 60.6732673,15.9009901 L92.3564357,47.5841584 L2.3564356,47.5841584 C1.11154732,47.6648101 0.143084476,48.6980464 0.143084476,49.9455446 C0.143084476,51.1930427 1.11154732,52.226279 2.3564356,52.3069307 L92.3861387,52.3069307 L60.7029703,83.990099 C60.2603864,84.43049 60.0115602,85.029106 60.0115602,85.6534654 C60.0115602,86.2778248 60.2603864,86.8764408 60.7029703,87.3168317 C61.1433612,87.7594156 61.7419772,88.0082418 62.3663366,88.0082418 C62.990696,88.0082418 63.5893121,87.7594156 64.029703,87.3168317 L97.3168317,54.0693069 C98.2844751,53.1144317 98.8840477,51.8486674 99.009901,50.4950495 C99.0270396,50.3238602 99.0270396,50.1513873 99.009901,49.980198 Z" id="long-arrow-right" fill="#000000"></path>
    </g>
</svg>