<?xml version="1.0" encoding="UTF-8"?>
<svg width="100px" height="100px" viewBox="0 0 100 100" version="1.1" xmlns="http://www.w3.org/2000/svg" xmlns:xlink="http://www.w3.org/1999/xlink">
    <!-- Generator: Sketch 57.1 (83088) - https://sketch.com -->
    <title>bold/long-arrow-up-bold</title>
    <desc>Created with Sketch.</desc>
    <g id="bold/long-arrow-up" stroke="none" stroke-width="1" fill="none" fill-rule="evenodd">
        <path d="M87.67,34.41 L55.55,2.29999995 C54.0990482,0.839284308 52.1288342,0.012369645 50.07,-4.9999997e-08 L49.93,-4.9999997e-08 C47.8685818,0.0140764549 45.895879,0.840527547 44.44,2.29999995 L12.33,34.41 C10.6679438,36.2038162 10.721049,38.9905677 12.4502406,40.7197593 C14.1794322,42.4489509 16.9661837,42.5020561 18.76,40.84 L45.45,14.15 L45.45,95.45 C45.45,97.9628957 47.4871044,100 50,100 C52.5128956,100 54.55,97.9628957 54.55,95.45 L54.55,14.15 L81.24,40.84 C83.0338163,42.5020561 85.8205678,42.4489509 87.5497594,40.7197593 C89.278951,38.9905677 89.3320562,36.2038162 87.67,34.41 L87.67,34.41 Z" id="long-arrow-up" fill="#000000"></path>
    </g>
</svg>