<?xml version="1.0" encoding="UTF-8"?>
<svg width="100px" height="100px" viewBox="0 0 100 100" version="1.1" xmlns="http://www.w3.org/2000/svg" xmlns:xlink="http://www.w3.org/1999/xlink">
    <!-- Generator: Sketch 57.1 (83088) - https://sketch.com -->
    <title>solid/long-arrow-down-solid</title>
    <desc>Created with Sketch.</desc>
    <g id="solid/long-arrow-down" stroke="none" stroke-width="1" fill="none" fill-rule="evenodd">
        <path d="M87.39,55.45 C84.1369783,52.1971986 78.8630217,52.1971986 75.61,55.45 L58.25,72.8 L58.25,8.32999996 C58.0944203,3.83902436 54.4086696,0.278747244 49.915,0.278747244 C45.4213304,0.278747244 41.7355797,3.83902436 41.58,8.32999996 L41.58,72.8 L24.23,55.45 C20.9770428,52.1942814 15.7007186,52.1920428 12.445,55.445 C9.18928136,58.6979572 9.18704278,63.9742814 12.44,67.23 L41.88,96.67 C44.0105973,98.8018004 46.9010296,99.9995346 49.915,99.9995346 C52.9289704,99.9995346 55.8194027,98.8018004 57.95,96.67 L87.39,67.23 C88.9545106,65.669142 89.8337512,63.5499708 89.8337512,61.34 C89.8337512,59.1300292 88.9545106,57.010858 87.39,55.45 Z" id="long-arrow-down" fill="#000000"></path>
    </g>
</svg>