<?xml version="1.0" encoding="UTF-8"?>
<svg width="100px" height="100px" viewBox="0 0 100 100" version="1.1" xmlns="http://www.w3.org/2000/svg" xmlns:xlink="http://www.w3.org/1999/xlink">
    <!-- Generator: Sketch 57.1 (83088) - https://sketch.com -->
    <title>bold/magnifying-glass-bold</title>
    <desc>Created with Sketch.</desc>
    <g id="bold/magnifying-glass" stroke="none" stroke-width="1" fill="none" fill-rule="evenodd">
        <path d="M98.6831684,92.3168317 L70.8712871,64.5049505 C83.8066825,48.1954797 81.7712062,24.6265792 66.2311328,10.7763297 C50.6910594,-3.07391977 27.0441807,-2.39468104 12.3247499,12.3247499 C-2.39468104,27.0441807 -3.07391977,50.6910594 10.7763297,66.2311328 C24.6265792,81.7712062 48.1954797,83.8066825 64.5049505,70.8712871 L92.3168317,98.6831684 C94.0928874,100.328768 96.8520473,100.276189 98.5641182,98.5641182 C100.276189,96.8520473 100.328768,94.0928874 98.6831684,92.3168317 L98.6831684,92.3168317 Z M9.99009897,40.1782178 C9.99009897,27.9633581 17.3486827,16.9514384 28.6341249,12.2779394 C39.9195671,7.6044404 52.9090503,10.18987 61.5448442,18.8284962 C70.1806381,27.4671224 72.761808,40.4574528 68.0846085,51.7413618 C63.4074091,63.0252709 52.3930769,70.3802425 40.1782178,70.3762393 C23.5109656,70.3544084 10.0064626,56.8454763 9.99009897,40.1782178 Z" id="magnifying-glass" fill="#000000"></path>
    </g>
</svg>