<svg width="100" height="100" viewBox="0 0 100 100" fill="none" xmlns="http://www.w3.org/2000/svg">
<g clip-path="url(#clip0)">
<path d="M42.2436 36.3688H51.054C52.6759 36.3688 53.9907 37.6836 53.9907 39.3054C53.9907 40.9273 52.6759 42.2421 51.054 42.2421H42.2436V51.052C42.2436 52.6739 40.9288 53.9886 39.3068 53.9886C37.6849 53.9886 36.3701 52.6739 36.3701 51.052V42.2421H27.5597C25.9378 42.2421 24.6229 40.9273 24.6229 39.3054C24.6229 37.6836 25.9378 36.3688 27.5597 36.3688H36.3701V27.5589C36.3701 25.937 37.6849 24.6222 39.3068 24.6222C40.9288 24.6222 42.2436 25.937 42.2436 27.5589V36.3688Z" fill="black"/>
<path fill-rule="evenodd" clip-rule="evenodd" d="M68.9802 64.8186L99.1469 94.9838C100.284 96.1365 100.284 97.9894 99.1469 99.1421C97.9967 100.286 96.1385 100.286 94.9884 99.1421L64.8218 68.9769C48.8282 82.7339 24.8187 81.3817 10.471 65.916C-3.87669 50.4503 -3.42574 26.4081 11.4918 11.4913C26.4094 -3.42557 50.4527 -3.87651 65.9192 10.4705C81.3856 24.8175 82.7379 48.8258 68.9802 64.8186ZM26.5814 8.5483C14.1399 13.7002 6.02743 25.8396 6.02743 39.3051C6.04037 57.6806 20.9307 72.5754 39.307 72.5949C52.7732 72.5996 64.916 64.4919 70.0726 52.0527C75.2292 39.6136 72.3838 25.2931 62.8635 15.7699C53.3431 6.24665 39.023 3.39637 26.5814 8.5483Z" fill="black"/>
</g>
<defs>
<clipPath id="clip0">
<rect width="100" height="100" fill="white"/>
</clipPath>
</defs>
</svg>
