<?xml version="1.0" encoding="UTF-8"?>
<svg width="100px" height="100px" viewBox="0 0 100 100" version="1.1" xmlns="http://www.w3.org/2000/svg" xmlns:xlink="http://www.w3.org/1999/xlink">
    <!-- Generator: Sketch 57.1 (83088) - https://sketch.com -->
    <title>solid/magnifying-glass-plus-solid</title>
    <desc>Created with Sketch.</desc>
    <g id="solid/magnifying-glass-plus" stroke="none" stroke-width="1" fill="none" fill-rule="evenodd">
        <path d="M12.6362879,12.6362879 C27.1599855,-1.8874097 50.3099435,-3.08839864 66.2585682,9.85443553 C82.2071928,22.7972697 85.797265,45.6986738 74.5742575,62.9009901 L97.5841585,85.9108911 C100.656844,89.1590275 100.586024,94.2627675 97.424396,97.424396 C94.2627675,100.586024 89.1590275,100.656844 85.9108911,97.5841585 L62.9009901,74.5742575 C45.6986738,85.797265 22.7972697,82.2071928 9.85443553,66.2585682 C-3.08839864,50.3099435 -1.8874097,27.1599855 12.6362879,12.6362879 Z M57.708521,24.3875925 C50.9727734,17.6490123 40.8408058,15.6319777 32.0378934,19.277179 C23.234981,22.9223803 17.4950495,31.5118152 17.4950495,41.039604 C17.5059593,54.0399841 28.0392295,64.5776838 41.039604,64.5940636 C50.5673919,64.5980644 59.1592393,58.8617455 62.8081413,50.0603664 C66.4570432,41.2589874 64.4442687,31.1261726 57.708521,24.3875925 Z M38.9752475,29.2165088 C40.2526757,28.4789853 41.8265322,28.4789853 43.1039604,29.2165088 C44.3813887,29.9540324 45.1683169,31.3170321 45.1683168,32.7920792 L45.1683168,36.9108911 L49.2871287,36.9108911 C50.7621758,36.910891 52.1251755,37.6978192 52.8626991,38.9752475 C53.6002227,40.2526757 53.6002227,41.8265322 52.8626991,43.1039604 C52.1251755,44.3813887 50.7621758,45.1683169 49.2871287,45.1683168 L45.1683168,45.1683168 L45.1683168,49.2871287 C45.1683168,51.5673539 43.3198291,53.4158416 41.039604,53.4158416 C38.7593788,53.4158416 36.9108911,51.5673539 36.9108911,49.2871287 L36.9108911,45.1683168 L32.7920792,45.1683168 C30.511854,45.1683168 28.6633663,43.3198291 28.6633663,41.039604 C28.6633663,38.7593788 30.511854,36.9108911 32.7920792,36.9108911 L36.9108911,36.9108911 L36.9108911,32.7920792 C36.910891,31.3170321 37.6978192,29.9540324 38.9752475,29.2165088 Z" id="Shape" fill="#000000"></path>
    </g>
</svg>