<svg width="100" height="100" viewBox="0 0 100 100" fill="none" xmlns="http://www.w3.org/2000/svg">
<g clip-path="url(#clip0)">
<path d="M97.5621 85.791L74.3527 62.5608C85.6717 45.2022 82.0455 22.0974 65.9529 9.04091C49.8604 -4.01555 26.5042 -2.80247 11.8509 11.8509C-2.80247 26.5042 -4.01555 49.8604 9.04091 65.9529C22.0974 82.0455 45.2022 85.6717 62.5608 74.3527L85.791 97.5621C89.0415 100.813 94.3116 100.813 97.5621 97.5621C100.813 94.3116 100.813 89.0415 97.5621 85.791ZM50.9456 46.7862H30.1486C26.7028 46.7862 23.9095 43.9929 23.9095 40.5471C23.9095 37.1013 26.7028 34.308 30.1486 34.308H50.9456C54.3914 34.308 57.1847 37.1013 57.1847 40.5471C57.1847 43.9929 54.3914 46.7862 50.9456 46.7862Z" fill="black"/>
</g>
<defs>
<clipPath id="clip0">
<rect width="100" height="100" fill="white"/>
</clipPath>
</defs>
</svg>
