<svg width="100" height="100" viewBox="0 0 100 100" fill="none" xmlns="http://www.w3.org/2000/svg">
<path d="M44.9529 63.1527C48.0891 64.9064 51.9109 64.9064 55.0471 63.1527L100 37.7057V34.7057C99.9982 31.783 98.4255 29.087 95.8824 27.6468L57.9412 6.19978C53.0108 3.42429 46.9892 3.42429 42.0588 6.19978L4.11765 27.6468C1.57447 29.087 0.00176456 31.783 0 34.7057V37.6821L44.9529 63.1527Z" fill="black"/>
<path d="M99.9998 81.1884L76.5527 57.7296L99.9998 44.459V81.1884Z" fill="black"/>
<path d="M57.9412 68.2706L71.2353 60.7412L99.6353 89.1412C98.5663 92.6779 95.3064 95.0965 91.6117 95.0941H8.37645C4.84764 95.0893 1.7003 92.8735 0.505859 89.553L29.1176 60.9412L42.0588 68.2706C46.9928 71.0323 53.0072 71.0323 57.9412 68.2706Z" fill="black"/>
<path d="M0 81.7413V44.459L23.8 57.9296L0 81.7413Z" fill="black"/>
</svg>
