<?xml version="1.0" encoding="UTF-8"?>
<svg width="100px" height="100px" viewBox="0 0 100 100" version="1.1" xmlns="http://www.w3.org/2000/svg" xmlns:xlink="http://www.w3.org/1999/xlink">
    <!-- Generator: Sketch 57.1 (83088) - https://sketch.com -->
    <title>solid/mail-solid</title>
    <desc>Created with Sketch.</desc>
    <g id="solid/mail" stroke="none" stroke-width="1" fill="none" fill-rule="evenodd">
        <path d="M71.59,50.51 L100,78.89 C99.6567546,82.4980332 96.6832089,85.2707351 93.0861936,85.3862721 L92.84,85.3900107 L7.15999996,85.3900107 C3.73839616,85.383368 0.810756586,82.9627597 0.143773127,79.6296136 L0.09999995,79.39 L28.77,50.72 L42.26,58.36 C46.9567866,60.9904338 52.6592683,61.0516067 57.4028314,58.5435186 L57.74,58.36 L71.59,50.51 Z M-4.99998905e-08,34.44 L24.47,48.28 L-4.99998905e-08,72.75 L-4.99998905e-08,34.44 Z M100,34.44 L100,72.19 L75.89,48.08 L100,34.44 Z M92.84,14 C96.7152417,14.0054048 99.8689103,17.084395 99.9960174,20.928752 L100,21.17 L100,29 L55.4,54.21 C52.1518585,56.0380281 48.2068871,56.0934229 44.9165135,54.3761844 L44.61,54.21 L-4.99996062e-08,29 L-4.99996062e-08,21.17 C-4.99996062e-08,17.2947545 3.07458206,14.136788 6.91875774,14.004319 L7.15999996,14 L92.84,14 Z" id="Shape" fill="#000000"></path>
    </g>
</svg>