<?xml version="1.0" encoding="UTF-8"?>
<svg width="100px" height="100px" viewBox="0 0 100 100" version="1.1" xmlns="http://www.w3.org/2000/svg" xmlns:xlink="http://www.w3.org/1999/xlink">
    <!-- Generator: Sketch 57.1 (83088) - https://sketch.com -->
    <title>solid/mail-open-solid</title>
    <desc>Created with Sketch.</desc>
    <g id="solid/mail-open" stroke="none" stroke-width="1" fill="none" fill-rule="evenodd">
        <path d="M71.59,61 L99.89,89.26 C99.27748,92.9856017 96.1164269,95.7425045 92.3665621,95.865701 L92.11,95.87 L7.88999996,95.87 C4.29491087,95.8647866 1.16860398,93.4352532 0.261029709,89.9786296 L0.19999995,89.73 L28.77,61.16 L42.26,68.8 C46.9532819,71.44383 52.6625285,71.5053144 57.4030645,68.9844533 L57.74,68.8 L71.59,61 Z M-4.99998905e-08,44.88 L24.47,58.73 L-4.99998905e-08,83.2 L-4.99998905e-08,44.88 Z M100,44.88 L100,82.64 L75.89,58.53 L100,44.88 Z M57.4031318,6.81527779 L57.74,6.99999996 L96.14,28.79 C98.4397147,30.0969753 99.8924458,32.4975124 99.9942812,35.1273893 L100,35.41 L100,39.41 L55.4,64.66 C52.1518585,66.4880281 48.2068871,66.5434229 44.9165135,64.8261844 L44.61,64.66 L-4.99996062e-08,39.38 L-4.99996062e-08,35.38 C0.00470019876,32.7348441 1.37829286,30.2881628 3.61686592,28.9041782 L3.85999995,28.76 L42.26,6.99999996 C46.9522702,4.3523156 52.6634696,4.29074155 57.4031318,6.81527779 Z" id="Shape" fill="#000000"></path>
    </g>
</svg>