<?xml version="1.0" encoding="UTF-8"?>
<svg width="100px" height="100px" viewBox="0 0 100 100" version="1.1" xmlns="http://www.w3.org/2000/svg" xmlns:xlink="http://www.w3.org/1999/xlink">
    <!-- Generator: Sketch 57.1 (83088) - https://sketch.com -->
    <title>bold/mail-open-letter-bold</title>
    <desc>Created with Sketch.</desc>
    <g id="bold/mail-open-letter" stroke="none" stroke-width="1" fill="none" fill-rule="evenodd">
        <path d="M64.44,2.99999995 L79.68,18.24 L79.68,19.51 L95.16,28.27 C98.1660897,29.9717954 100.017391,33.1656722 100.000241,36.62 L100.000241,86.78 C99.994488,92.1901058 95.6101058,96.574488 90.2,96.58 L9.79999996,96.58 C4.38989423,96.574488 0.00551203348,92.1901058 -4.99998123e-08,86.78 L-4.99998123e-08,36.57 C-4.99998123e-08,33.1335432 1.84952479,29.9630132 4.83999995,28.27 L20.32,19.51 L20.32,12.41 C20.3255116,7.21528517 24.5352852,3.00551159 29.73,2.99999995 L64.44,2.99999995 Z M70.18,63.8 L58.46,70.44 C53.1779711,73.3927031 46.7420289,73.3927031 41.46,70.44 L30.09,64 L9.08999996,85 L9.08999996,86.78 C9.08999996,87.1721222 9.40787779,87.49 9.79999996,87.49 L90.2,87.49 C90.5921222,87.49 90.91,87.1721222 90.91,86.78 L90.91,84.5 L70.18,63.8 Z M9.08999996,52.11 L9.08999996,72.18 L21.91,59.36 L9.08999996,52.11 Z M90.91,52.11 L78.44,59.17 L90.91,71.64 L90.91,52.11 Z M58,12.09 L29.73,12.09 C29.5532689,12.09 29.41,12.2332688 29.41,12.41 L29.41,53.16 L39.89,59.09 L60.11,59.09 L70.61,53.16 L70.61,24.78 L68.34,24.78 C68.7425539,25.4852763 68.735768,26.3523087 68.3222242,27.0511977 C67.9086804,27.7500867 67.151964,28.1733733 66.34,28.16 L33.66,28.16 C32.8112212,28.2163044 32.0016808,27.7954253 31.5601981,27.0683155 C31.1187154,26.3412057 31.1187154,25.4287942 31.5601981,24.7016844 C32.0016808,23.9745746 32.8112212,23.5536956 33.66,23.61 L58,23.61 L58,19.28 L33.66,19.28 C32.4063136,19.28 31.39,18.2636864 31.39,17.01 C31.39,15.7563136 32.4063136,14.74 33.66,14.74 L58,14.74 L58,12.09 Z M33.66,50.22 L66.34,50.22 C67.5953143,50.2199879 68.6144943,51.2346978 68.62,52.49 C68.62,53.6967422 67.6825029,54.6845202 66.4961028,54.76474 L66.34,54.77 L33.66,54.77 C32.8112212,54.8263044 32.0016808,54.4054254 31.5601981,53.6783156 C31.1187154,52.9512057 31.1187154,52.0387943 31.5601981,51.3116845 C31.9428165,50.6815226 32.601887,50.2813741 33.3233606,50.2225228 L33.4908648,50.2150509 L33.66,50.22 Z M20.32,29.95 L9.31999996,36.18 C9.17875375,36.2591552 9.090921,36.408089 9.08999996,36.57 L9.08999996,41.66 L20.32,48 L20.32,29.95 Z M79.68,30 L79.68,48 L90.91,41.64 L90.91,36.62 C90.909079,36.458089 90.8212462,36.3091552 90.68,36.23 L79.68,30 Z M68.4398019,42.4416844 C68.8812846,43.1687943 68.8812846,44.0812057 68.4398019,44.8083155 C68.0277513,45.4869514 67.2950817,45.8988262 66.5091352,45.9049491 L66.34,45.9 L33.66,45.9 C32.8112212,45.9563044 32.0016808,45.5354254 31.5601981,44.8083155 C31.1187154,44.0812057 31.1187154,43.1687943 31.5601981,42.4416844 C31.9722487,41.7630486 32.7049183,41.3511738 33.4908648,41.3450509 L33.66,41.35 L66.34,41.35 C67.1887788,41.2936956 67.9983192,41.7145746 68.4398019,42.4416844 Z M68.4398019,33.5416844 C68.8812846,34.2687942 68.8812846,35.1812057 68.4398019,35.9083155 C68.0277513,36.5869514 67.2950817,36.9988262 66.5091352,37.0049491 L66.34,37 L33.66,37 C32.8112212,37.0563044 32.0016808,36.6354253 31.5601981,35.9083155 C31.1187154,35.1812057 31.1187154,34.2687942 31.5601981,33.5416844 C31.9722487,32.8630486 32.7049183,32.4511738 33.4908648,32.4450509 L33.66,32.45 L66.34,32.45 C67.1887788,32.3936956 67.9983192,32.8145746 68.4398019,33.5416844 Z" id="Shape" fill="#000000"></path>
    </g>
</svg>