<?xml version="1.0" encoding="UTF-8"?>
<svg width="100px" height="100px" viewBox="0 0 100 100" version="1.1" xmlns="http://www.w3.org/2000/svg" xmlns:xlink="http://www.w3.org/1999/xlink">
    <!-- Generator: Sketch 57.1 (83088) - https://sketch.com -->
    <title>bold/mail-bold</title>
    <desc>Created with Sketch.</desc>
    <g id="bold/mail" stroke="none" stroke-width="1" fill="none" fill-rule="evenodd">
        <path d="M90.89,13.5 L9.10999996,13.5 C4.08097049,13.5055112 0.00551122013,17.5809705 -4.9999997e-08,22.61 L-4.9999997e-08,72.79 L-4.9999997e-08,72.79 L-4.9999997e-08,77.11 C0.00551122013,82.1390295 4.08097049,86.2144888 9.10999996,86.22 L90.89,86.22 C95.9151329,86.2145021 99.988983,82.1451238 100,77.12 L100,72.26 L100,72.26 L100,22.61 C99.9944888,17.5809705 95.9190295,13.5055112 90.89,13.5 Z M9.09999996,41.76 L21.91,49 L9.09999996,61.81 L9.09999996,41.76 Z M90.9,77.14 L90.9,77.14 L9.09999996,77.14 L9.09999996,74.68 L30.1,53.68 L41.47,60.12 C46.7484617,63.0863637 53.1915383,63.0863637 58.47,60.12 L70.23,53.5 L90.9,74.13 L90.9,77.14 Z M90.9,61.28 L78.44,48.81 L90.91,41.75 L90.9,61.28 Z M90.9,31.28 L54,52.18 C51.4982093,53.5895392 48.4417907,53.5895392 45.94,52.18 L9.10999996,31.31 L9.10999996,22.59 L90.91,22.59 L90.9,31.28 Z" id="mail" fill="#000000"></path>
    </g>
</svg>