<svg width="100" height="100" viewBox="0 0 100 100" fill="none" xmlns="http://www.w3.org/2000/svg">
<path d="M55.0471 53.929C51.9139 55.6941 48.0861 55.6941 44.9529 53.929L0 28.4819V22.9642C0.012744 18.1018 3.93766 14.1559 8.8 14.1172H91.1529C96.0337 14.1301 99.9871 18.0835 100 22.9642V28.4819L55.0471 53.929Z" fill="black"/>
<path d="M99.9998 35.2471V71.9647L76.5527 48.5177L99.9998 35.2471Z" fill="black"/>
<path d="M0 35.2471V72.5177L23.8 48.7177L0 35.2471Z" fill="black"/>
<path d="M57.9407 59.047L71.2349 51.5176L99.5878 79.8235C98.3813 83.4336 95.006 85.8716 91.1996 85.8823H8.84662C5.20006 85.877 1.9303 83.6349 0.611328 80.2352L29.1172 51.7646L42.0584 59.047C46.9887 61.8225 53.0104 61.8225 57.9407 59.047Z" fill="black"/>
</svg>
