<svg width="100" height="100" viewBox="0 0 100 100" fill="none" xmlns="http://www.w3.org/2000/svg">
<g clip-path="url(#clip0)">
<path d="M99.9073 4.73199C99.8756 4.5987 99.8369 4.46716 99.7914 4.33793C99.7534 4.17591 99.703 4.01704 99.6407 3.86274C99.5751 3.70638 99.4976 3.55527 99.4089 3.41073C99.4089 3.29483 99.293 3.17893 99.2235 3.06303C98.8795 2.55698 98.443 2.12049 97.937 1.77653L97.5777 1.5795C97.427 1.50996 97.2879 1.41724 97.1025 1.35929C96.9482 1.29696 96.7893 1.24659 96.6273 1.20862C96.4981 1.1631 96.3665 1.12442 96.2332 1.09272C95.947 1.0345 95.656 1.00346 95.364 1H77.3994C74.839 1 72.7634 3.07562 72.7634 5.63602C72.7634 8.19642 74.839 10.272 77.3994 10.272H84.1448L72.0448 22.3952C54.3963 7.31155 28.031 8.67278 12.0297 25.4938C-3.9716 42.3148 -4.01506 68.7152 11.9308 85.5888C27.8766 102.462 54.2373 103.91 71.9354 88.8849C89.6334 73.8594 92.4819 47.613 78.4193 29.1406L90.728 16.832V23.5774C90.728 26.1378 92.8036 28.2134 95.364 28.2134C97.9244 28.2134 100 26.1378 100 23.5774V5.63602C99.9978 5.33242 99.9668 5.02971 99.9073 4.73199Z" fill="black"/>
</g>
<defs>
<clipPath id="clip0">
<rect width="100" height="100" fill="white"/>
</clipPath>
</defs>
</svg>
