<svg width="100" height="100" viewBox="0 0 100 100" fill="none" xmlns="http://www.w3.org/2000/svg">
<g clip-path="url(#clip0)">
<path d="M99.9864 3.31226C99.9714 3.2223 99.9436 3.13494 99.9039 3.05286C99.8819 2.95315 99.8543 2.85474 99.8213 2.75809C99.8213 2.66376 99.7152 2.56944 99.6681 2.46332C99.6209 2.3572 99.5973 2.32183 99.5501 2.25108C99.3346 1.92947 99.0582 1.6531 98.7366 1.43751L98.4536 1.33139L98.1706 1.17811L97.8758 1.08378L97.6282 1.01304C97.436 0.995654 97.2427 0.995654 97.0505 1.01304H78.7628C77.1348 1.01304 75.8151 2.33278 75.8151 3.96076C75.8151 5.58874 77.1348 6.90849 78.7628 6.90849H89.8934L74.6478 22.1777C57.067 5.8841 29.7321 6.4693 12.8648 23.5004C-4.0026 40.5315 -4.32373 67.8707 12.1389 85.2933C28.6016 102.716 55.9152 103.943 73.8738 88.0669C91.8325 72.1907 93.9642 44.9328 78.6921 26.4578L94.091 11.0235V22.1777C94.091 23.8057 95.4107 25.1254 97.0387 25.1254C98.6667 25.1254 99.9864 23.8057 99.9864 22.1777V3.90181C100.005 3.70571 100.005 3.50836 99.9864 3.31226ZM44.3216 93.4065C22.969 93.4065 5.65924 76.0968 5.65924 54.7442C5.65924 33.3915 22.969 16.0818 44.3216 16.0818C65.6742 16.0818 82.9839 33.3915 82.9839 54.7442C82.958 76.086 65.6634 93.3805 44.3216 93.4065Z" fill="black"/>
</g>
<defs>
<clipPath id="clip0">
<rect width="100" height="100" fill="white"/>
</clipPath>
</defs>
</svg>
