<svg width="100" height="100" viewBox="0 0 100 100" fill="none" xmlns="http://www.w3.org/2000/svg">
<path fill-rule="evenodd" clip-rule="evenodd" d="M40.6021 24.9957C42.2004 28.8481 45.9628 31.3574 50.1336 31.3527C55.8139 31.3398 60.4155 26.7382 60.4284 21.0579C60.4331 16.8872 57.9237 13.1247 54.0714 11.5265C50.2191 9.92821 45.7832 10.8092 42.8341 13.7584C39.8849 16.7075 39.0039 21.1434 40.6021 24.9957ZM45.6647 21.0423C45.6734 18.5822 47.6735 16.5943 50.1336 16.6007C52.5971 16.6136 54.5855 18.6177 54.5791 21.0813C54.5661 23.5413 52.5625 25.5258 50.1024 25.515C47.6424 25.5042 45.6562 23.5024 45.6647 21.0423Z" fill="black"/>
<path fill-rule="evenodd" clip-rule="evenodd" d="M50.1335 59.3355C48.835 59.3355 48.1331 58.9962 44.799 54.9485C42.5016 52.1554 40.3651 49.2338 38.3998 46.1979C34.1532 39.6467 29.0409 29.9602 29.0409 21.0576C29.0409 13.5344 33.0544 6.58275 39.5697 2.82118C46.0849 -0.940392 54.112 -0.940392 60.6272 2.82118C67.1424 6.58275 71.156 13.5344 71.156 21.0576C71.156 29.9602 66.1022 39.6467 61.8556 46.1979C59.8961 49.2565 57.7594 52.1979 55.4564 55.007C52.134 58.9962 51.4204 59.3355 50.1335 59.3355ZM50.1335 5.87272C41.7343 5.87272 34.9253 12.6817 34.9253 21.0809C34.9253 32.335 45.536 46.9934 50.1335 52.2695C54.696 46.9934 65.3418 32.3818 65.3418 21.0809C65.3418 12.6817 58.5328 5.87272 50.1335 5.87272Z" fill="black"/>
<path d="M73.9406 30.1357C73.35 32.2846 72.6152 34.3913 71.7412 36.4413L91.4066 33.1306V89.1086L67.7871 93.0744V44.3496C67.015 45.6481 66.1727 47.0519 65.2952 48.4207C64.2843 50.0483 63.2734 51.4837 62.3606 52.7797C62.2585 52.9248 62.1575 53.0681 62.058 53.2097C62.0177 53.267 61.9776 53.3241 61.9377 53.3809V93.0744L38.3182 89.1086V53.3809C37.2887 51.942 36.1773 50.3042 34.9607 48.4207C34.0716 47.0519 33.241 45.6832 32.4689 44.3496V89.1086L8.84932 93.0744V37.1081L27.5671 33.9495C26.8883 32.104 26.3295 30.2166 25.8942 28.299L3 32.1479V100L35.3935 94.5484L64.8624 99.4619L97.2559 94.0103V26.1582L73.9406 30.1357Z" fill="black"/>
</svg>
