<?xml version="1.0" encoding="UTF-8"?>
<svg width="100px" height="100px" viewBox="0 0 100 100" version="1.1" xmlns="http://www.w3.org/2000/svg" xmlns:xlink="http://www.w3.org/1999/xlink">
    <!-- Generator: Sketch 57.1 (83088) - https://sketch.com -->
    <title>bold/map-pin-bold</title>
    <desc>Created with Sketch.</desc>
    <g id="bold/map-pin" stroke="none" stroke-width="1" fill="none" fill-rule="evenodd">
        <path d="M96.69,24.93 L96.69,93.72 L63.79,99.24 L35.4,94.47 L2.49999995,100 L2.49999995,31.21 L23.64,27.66 C24.1355908,30.3726276 24.8783797,33.0336154 25.8587658,35.6097413 L26.16,36.38 L11.5,38.84 L11.5,89.34 L30.89,86.09 L30.89,45.98 C31.58,47.16 32.31,48.35 33.09,49.55 C35.1128803,52.6734639 37.3131565,55.6783936 39.68,58.55 L39.7909186,58.6933526 L39.91,58.83 L39.91,86.09 L59.28,89.34 L59.28,58.85 L59.51,58.57 C61.8736151,55.6958859 64.0737543,52.6911435 66.1,49.57 C66.685,48.67 67.241875,47.775625 67.7748438,46.886875 L68.3,46 L68.3,89.34 L87.67,86.09 L87.67,35.59 L72.27,38.17 C73.5252576,35.3262011 74.5029586,32.3685376 75.1898778,29.3382205 L75.37,28.51 L96.69,24.93 Z M49.59,-5.00000112e-08 C61.7051025,0.0495621475 71.5,9.88479605 71.5,21.9999999 C71.5,30.9999999 66.5,40.59 62.26,47.15 C60.3323845,50.1276842 58.2356097,52.9923862 55.98,55.73 C53.03,59.32 51.78,60.57 49.54,60.57 C47.3,60.57 46.1,59.32 43.1,55.73 C40.8515502,52.9892268 38.758276,50.1247464 36.83,47.15 C32.59,40.64 27.59,30.9999999 27.59,21.9999999 C27.59,9.84973546 37.4397355,-5.00000112e-08 49.59,-5.00000112e-08 Z M49.6036479,9.75370509 C42.7363338,9.74046621 37.0547016,15.0940252 36.66,21.95 C36.66,31.38 44.87,43.54 49.59,49.38 C54.31,43.54 62.5,31.36 62.5,22 C62.1318337,15.142549 56.470962,9.76704251 49.6036479,9.75370509 Z M49.59,10.33 C52.6796775,10.3326383 55.6413192,11.5645997 57.8213566,13.7540177 C60.001394,15.9434356 61.2206277,18.9103396 61.2101369,22 C61.1824138,28.4109676 55.9678107,33.5883233 49.55681,33.5700495 C43.1458094,33.5515812 37.9609636,28.3444254 37.9700952,21.933405 C37.9792753,15.5223845 43.178973,10.33 49.59,10.33 Z M49.59,19.35 C48.1540596,19.35 46.99,20.5140596 46.99,21.95 C46.99,23.3859403 48.1540596,24.55 49.59,24.55 C51.0236633,24.5445175 52.1845175,23.3836632 52.19,21.95 C52.19,20.5140596 51.0259404,19.35 49.59,19.35 Z" id="Shape" fill="#000000"></path>
    </g>
</svg>