<svg width="100" height="100" viewBox="0 0 100 100" fill="none" xmlns="http://www.w3.org/2000/svg">
<path fill-rule="evenodd" clip-rule="evenodd" d="M29.0818 21.0625C29.0818 9.43 38.5118 0 50.1443 0C61.7722 0.0193727 71.1846 9.45797 71.1717 21.0859C71.1717 30.0024 66.1167 39.6911 61.869 46.2439C59.9082 49.2839 57.771 52.2065 55.4684 54.9965C52.1452 58.9867 51.4431 59.3845 50.1443 59.3845C48.8454 59.3845 48.1433 59.0452 44.8084 54.9965C42.5247 52.1921 40.3995 49.2622 38.4429 46.2205C34.1368 39.6677 29.0818 29.979 29.0818 21.0625ZM43.3133 23.8584C44.4591 26.6185 47.1558 28.4157 50.1443 28.411C52.0994 28.411 53.9745 27.6343 55.357 26.2518C56.7394 24.8693 57.5161 22.9942 57.5161 21.0391C57.5209 18.0506 55.7236 15.3539 52.9635 14.2081C50.2034 13.0623 47.0248 13.6932 44.9116 15.8064C42.7984 17.9196 42.1674 21.0983 43.3133 23.8584Z" fill="black"/>
<path d="M67.8025 44.3367C70.4481 39.8805 72.5089 35.1022 73.934 30.1196L97.2782 26.1879V94.0559L67.8025 99.0173V44.3367Z" fill="black"/>
<path d="M50.1447 63.4218C52.0404 63.4218 54.7902 63.4218 61.9514 53.3703V99.0174L38.3263 95.039V53.3703C45.4642 63.4218 48.2491 63.4218 50.1447 63.4218Z" fill="black"/>
<path d="M32.4758 44.3248C29.4855 39.3432 27.2646 33.9386 25.8879 28.2939L3 32.1319V100L32.4758 95.0386V44.3248Z" fill="black"/>
</svg>
