<?xml version="1.0" encoding="UTF-8"?>
<svg width="100px" height="100px" viewBox="0 0 100 100" version="1.1" xmlns="http://www.w3.org/2000/svg" xmlns:xlink="http://www.w3.org/1999/xlink">
    <!-- Generator: Sketch 57.1 (83088) - https://sketch.com -->
    <title>brand/mastercard-brand</title>
    <desc>Created with Sketch.</desc>
    <g id="brand/mastercard" stroke="none" stroke-width="1" fill="none" fill-rule="evenodd">
        <path d="M99.0954216,87.6833161 C99.2038711,87.6844791 99.3113059,87.7024984 99.4128,87.7423 C99.5138,87.7833 99.6058,87.8433 99.6838,87.9173 C99.7618,87.9933 99.8238,88.0823 99.8688,88.1803 C99.9588,88.3873 99.9588,88.6213 99.8688,88.8283 C99.8238,88.9263 99.7618,89.0163 99.6838,89.0913 C99.6058,89.1653 99.5138,89.2253 99.4128,89.2663 C99.3078,89.3133 99.1948,89.3363 99.0808,89.3363 C98.7418,89.3333 98.4338,89.1363 98.2928,88.8283 C98.2038,88.6213 98.2038,88.3873 98.2928,88.1803 C98.3368,88.0823 98.3988,87.9933 98.4758,87.9173 C98.5558,87.8433 98.6468,87.7833 98.7478,87.7423 C98.8568,87.6983 98.9748,87.6803 99.0938,87.6833 L99.0954216,87.6833161 C99.0948428,87.6834041 99.0942714,87.6833429 99.0937,87.6832 C99.0887,87.6832 99.0847,87.6812 99.0807,87.6812 L99.1067,87.6812 C99.1024143,87.6812 99.0988632,87.6834041 99.0954171,87.6834041 L99.0954216,87.6833161 Z M48.1457,83.9771 L52.5247,83.9771 C52.5247,83.9761 52.5237,83.9761 52.5237,83.9761 C52.4997,82.8301 51.5517,81.9201 50.4057,81.9451 L50.3707,81.9451 C49.1997,81.9051 48.2117,82.8071 48.1457,83.9771 Z M50.4317,80.3331 C52.7787,80.3331 54.4077,82.0851 54.4077,84.7121 L54.4077,85.4131 L48.1897,85.4131 C48.3317,86.6621 49.4417,87.5701 50.6937,87.4621 C51.5807,87.4501 52.4377,87.1411 53.1287,86.5861 L54.0047,87.9351 C53.0267,88.7331 51.7877,89.1381 50.5277,89.0741 C48.1097,89.1081 46.1217,87.1741 46.0877,84.7561 C46.0537,82.3371 47.9867,80.3501 50.4057,80.3161 L50.4317,80.3331 Z M60.2751,80.3159 L60.2401,80.2809 C60.6821,80.2829 61.1201,80.3599 61.5361,80.5079 L60.9751,82.2599 C60.6141,82.1159 60.2271,82.0449 59.8381,82.0499 C58.6811,82.0499 58.0861,82.8209 58.0861,84.2049 L58.0861,88.8989 L56.2641,88.8989 L56.2641,80.5259 L58.0681,80.5259 L58.0681,81.5429 C58.5241,80.7599 59.3711,80.2899 60.2751,80.3159 Z M23.5632,87.3921 C24.8972,87.3851 25.9982,86.3431 26.0762,85.0101 C26.1582,83.6151 25.0942,82.4161 23.6992,82.3341 C22.3032,82.2521 21.1052,83.3171 21.0232,84.7121 L21.0052,84.7121 C21.0002,84.7851 20.9992,84.8571 21.0002,84.9281 C21.0282,86.3171 22.1752,87.4191 23.5632,87.3921 Z M25.9802,81.5421 L25.9802,80.5261 L27.8012,80.5261 L27.8012,88.8641 L25.9802,88.8641 L25.9802,87.8481 C25.3532,88.6551 24.3752,89.1121 23.3532,89.0741 C20.9342,89.0741 18.9742,87.1131 18.9742,84.6951 C18.9742,82.2771 20.9342,80.3161 23.3532,80.3161 C24.3752,80.2791 25.3532,80.7351 25.9802,81.5421 Z M14.634,80.3179 C16.352,80.4369 17.648,81.9259 17.529,83.6439 L17.529,88.8989 L15.69,88.9339 L15.69,84.2749 C15.69,82.8559 15.094,82.0679 13.851,82.0679 C13.733,82.0619 13.615,82.0669 13.499,82.0819 C12.42,82.2229 11.66,83.2139 11.801,84.2929 L11.801,88.9339 L9.962,88.9339 L9.962,84.2749 C9.962,82.8559 9.349,82.0679 8.141,82.0679 C8.017,82.0609 7.892,82.0659 7.769,82.0829 C6.696,82.2289 5.945,83.2179 6.092,84.2929 L6.092,88.8989 L4.252,88.8989 L4.252,80.5259 L6.074,80.5259 L6.074,81.5599 C6.613,80.7399 7.546,80.2659 8.526,80.3159 C9.652,80.2679 10.714,80.8389 11.294,81.8049 C11.929,80.8089 13.057,80.2389 14.236,80.3159 C14.369,80.3079 14.502,80.3089798 14.634,80.3179 Z M34.0544,83.8716 C35.8764,84.1346 36.9794,84.7826 36.9794,86.3766 C36.9794,87.9706 35.5784,89.1086 33.1614,89.1086 C31.8674,89.1436 30.5964,88.7646 29.5354,88.0226 L30.4114,86.6036 C31.2154,87.2006 32.1964,87.5096 33.1964,87.4796 C34.4404,87.4796 35.1054,87.1116 35.1054,86.4646 C35.1054,85.9906 34.6324,85.7276 33.6344,85.5886 L32.7584,85.4656 C30.8844,85.2026 29.8684,84.3616 29.8684,82.9956 C29.8684,81.3316 31.2524,80.3156 33.3714,80.3156 C34.5704,80.2746 35.7564,80.5786 36.7864,81.1916 L35.9814,82.6636 C35.1814,82.2026 34.2774,81.9556 33.3544,81.9446 C32.3554,81.9446 31.7604,82.3656 31.7604,82.9266 C31.7604,83.4856 32.3904,83.6436 33.1794,83.7496 L34.0544,83.8716 Z M42.9875,87.4097 C43.5555,87.3907 44.1105,87.2277 44.5985,86.9367 L45.1245,88.4957 C44.4415,88.9217 43.6525,89.1467 42.8475,89.1437586 C40.6935,89.1437586 39.9395,87.9877 39.9395,86.0437 L39.9395,82.1897 L38.2405,82.1897 L38.2405,80.5257 L39.9045,80.5257 L39.9045,77.9867 L41.7435,77.9867 L41.7435,80.5257 L44.7385,80.5257 L44.7565,82.1897 L41.7795,82.1897 L41.7795,86.0087 C41.7795,86.8487 42.1115,87.4097 42.9875,87.4097 Z M98.9401,88.478 L99.1321,88.478 C99.1681,88.489 99.2041,88.489 99.2381,88.478 C99.2511,88.454 99.2511,88.424 99.2381,88.399 C99.2511,88.374 99.2511,88.345 99.2381,88.321 C99.2041,88.31 99.1681,88.31 99.1321,88.321 L98.9401,88.268 L98.9401,88.478 Z M99.3781,88.531 C99.3281,88.577 99.2621,88.605 99.1941,88.61 L99.4481,88.899 L99.2471,88.899 L99.0101,88.61 L98.9311,88.61 L98.9311,88.899 L98.7651,88.899 L98.7651,88.127 L99.1321,88.12 C99.2141,88.115 99.2951,88.14 99.3611,88.189 C99.4151,88.234 99.4441,88.302 99.4391,88.374 C99.4421,88.432 99.4191,88.489 99.3781,88.531 Z M91.8464,87.3921 C93.1814,87.3851 94.2824,86.3431 94.3604,85.0101 C94.4424,83.6151 93.3774,82.4161 91.9824,82.3341 C90.5864,82.2521 89.3894,83.3171 89.3074,84.7121 C89.3024,84.7791 89.3004,84.8441 89.3014,84.9111 C89.3194,86.2981 90.4584,87.4101 91.8464,87.3921 Z M94.2894,81.5421 L94.2894,77.1631 L96.0414,77.1631 L96.0414,88.8641 L94.2894,88.8641 L94.2894,87.8481 C93.6624,88.6551 92.6844,89.1121 91.6624,89.0741 C89.2434,89.0741 87.2844,87.1131 87.2844,84.6951 C87.2844,82.2771 89.2434,80.3161 91.6624,80.3161 C92.6844,80.2791 93.6624,80.7351 94.2894,81.5421 Z M66.5192,81.9976 C65.2062,82.1036 64.1632,83.1466 64.0562,84.4606 C63.9362,85.9406 65.0402,87.2376 66.5192,87.3566 C67.3112,87.3486 68.0792,87.0846 68.7082,86.6036 L69.5842,88.0756 C68.7412,88.7726 67.6652,89.1296 66.5722,89.0736 C66.4402,89.0816 66.3082,89.0826 66.1772,89.0776 C63.8422,88.9916 62.0192,87.0296 62.1052,84.6946 L62.1052,84.6596 C62.1002,84.5276 62.1022,84.3956 62.1092,84.2656 C62.2422,81.9326 64.2402,80.1486 66.5722,80.2806 C67.6652,80.2256 68.7412,80.5816 69.5842,81.2796 L68.7082,82.7506 C68.0792,82.2696 67.3112,82.0066 66.5192,81.9976 Z M99.5358,88.9683 C99.7638,88.7213 99.7638,88.3403 99.5358,88.0933 C99.4778,88.0333 99.4098,87.9863 99.3348,87.9523 C99.2548,87.9173 99.1678,87.9003 99.0808,87.9003 C98.9928,87.9013 98.9068,87.9183 98.8268,87.9523 C98.7478,87.9853 98.6768,88.0323 98.6158,88.0933 C98.3898,88.3403 98.3898,88.7213 98.6158,88.9683 C98.6768,89.0293 98.7478,89.0763 98.8268,89.1093 C98.9108,89.1453 99.0018,89.1593 99.0938,89.1583 C99.1758,89.1573 99.2588,89.1423 99.3348,89.1093 C99.4098,89.0743 99.4778,89.0283 99.5358,88.9683 Z M74.9264,87.3745 C76.2614,87.3675 77.3624,86.3255 77.4404,84.9925 C77.5224,83.5975 76.4574,82.3995 75.0624,82.3165 C73.6664,82.2345 72.4694,83.2995 72.3874,84.6945 C72.3824,84.7615 72.3804,84.8265 72.3814,84.8935 C72.3994,86.2815 73.5384,87.3925 74.9264,87.3745 Z M77.3434,81.5425 L77.3434,80.5255 L79.1654,80.5255 L79.1654,88.8635 L77.3434,88.8635 L77.3434,87.8485 C76.7164,88.6545 75.7384,89.1115 74.7164,89.0735 C72.2984,89.0735 70.3374,87.1125 70.3374,84.6945 C70.3374,82.2765 72.2984,80.3155 74.7164,80.3155 C75.7384,80.2785 76.7164,80.7345 77.3434,81.5425 Z M85.5759,80.3159 L85.5409,80.2809 C85.9829,80.2829 86.4219,80.3599 86.8379,80.5079 L86.2769,82.2599 C85.9149,82.1159 85.5279,82.0449 85.1389,82.0499 C83.9819,82.0499 83.3869,82.8209 83.3869,84.2049 L83.3869,88.8989 L81.5649,88.8989 L81.5649,80.5259 L83.3689,80.5259 L83.3689,81.5429 C83.8249,80.7599 84.6719,80.2899 85.5759,80.3159 Z M99.6842,59.8228 L99.9992,59.8228 L99.9992,61.0498 L99.8162,61.0578 L99.8162,60.1298 L99.4742,60.9268 L99.2382,60.9268 L98.8962,60.1298 L98.8962,61.0498 L98.6682,61.0498 L98.6682,59.8228 L98.9492,59.8228 L99.3172,60.6988 L99.6842,59.8228 Z M98.3884,59.8228 L98.3884,60.0338 L97.9774,60.0338 L97.9774,61.0498 L97.7924,61.0498 L97.7924,60.0338 L97.3464,60.0338 L97.3464,59.8228 L98.3884,59.8228 Z M56.0856,21.4038 C54.7646,19.7218 53.2686,18.1798 51.6426,16.7898 C56.8636,13.0178 63.0196,10.9998 69.4006,10.9998 C70.6236,10.9998 71.8556,11.0728 73.0876,11.2198 C81.1786,12.1888 88.4076,16.2498 93.4436,22.6558 C97.6516,28.0088 99.9696,34.7048 99.9696,41.5188 C99.9696,49.6688 96.7956,57.3288 91.0326,63.0918 C85.2716,68.8528 77.6106,72.0258 69.4626,72.0258 L69.4606,72.0258 C63.0816,72.0258 56.8186,69.9638 51.6486,66.2428 C64.8276,54.9788 66.8946,35.1578 56.0856,21.4038 Z M11.6442,65.5015 C-1.5818,55.1065 -3.8858,35.8915 6.5082,22.6645 C12.5192,15.0165 21.4792,11.0205 30.5272,11.0205 C36.7242,11.0205 42.9492,12.9285 48.3062,16.7895 C41.0442,22.9835 36.9042,31.9165 36.9142,41.5185 C36.9062,51.1205 41.0472,60.0515 48.3062,66.2415 C37.2912,74.1845 22.4042,73.9565 11.6442,65.5015 Z M38.9542698,41.5181 C38.9453,32.3681 42.9563,23.8681 49.9753,18.0541 C51.6313,19.4301 53.1503,20.9711 54.4813,22.6641 C64.7043,35.6751 62.6353,54.4741 49.9773,64.9791 C42.9603,59.1681 38.9473,50.6701 38.9542698,41.5181 Z" id="Shape" fill="#000000"></path>
    </g>
</svg>