<?xml version="1.0" encoding="UTF-8"?>
<svg width="100px" height="100px" viewBox="0 0 100 100" version="1.1" xmlns="http://www.w3.org/2000/svg" xmlns:xlink="http://www.w3.org/1999/xlink">
    <!-- Generator: Sketch 57.1 (83088) - https://sketch.com -->
    <title>regular/medal-regular</title>
    <desc>Created with Sketch.</desc>
    <g id="regular/medal" stroke="none" stroke-width="1" fill="none" fill-rule="evenodd">
        <path d="M50,32.5445515 C68.3459784,32.5663876 83.2113554,47.4361941 83.2277228,65.7821782 C83.2277228,79.226443 75.1285635,91.3467127 62.7072991,96.4906847 C50.2860347,101.634657 35.9891636,98.7891715 26.484049,89.2812246 C16.9789345,79.7732778 14.1377089,65.4755596 19.2853813,53.0558283 C24.4330537,40.636097 36.5557358,32.5405496 50,32.5445515 Z M29.8200548,45.602233 C21.6607587,53.7615291 19.2209313,66.0329342 23.6385603,76.6928019 C28.0561892,87.3526695 38.4610135,94.3010343 50,94.2970332 C65.7415312,94.2806579 78.4984797,81.5237094 78.514855,65.7821782 C78.518856,54.2431918 71.5704913,43.8383675 60.9106236,39.4207385 C50.250756,35.0031095 37.9793509,37.442937 29.8200548,45.602233 Z M50,45.990099 L50.1795609,45.9969429 C51.0714961,46.0625916 51.8686398,46.5954659 52.2673267,47.4059406 L57.2772277,57.5643564 L68.4950495,59.1980198 L68.4950495,59.1782178 C69.4497867,59.318711 70.2419142,59.9891622 70.538239,60.9075592 C70.8345639,61.8259561 70.5836693,62.832943 69.8910891,63.5049505 L61.7821782,71.4257426 L63.7029703,82.5940594 C63.8654529,83.5439257 63.4752412,84.5037644 62.6960738,85.0708135 C61.9169064,85.6378625 60.8835838,85.7140191 60.029703,85.2673268 L50,80 L39.940594,85.2673268 C39.5786341,85.4626926 39.1736944,85.5647782 38.7623762,85.5643591 C38.2288075,85.5617183 37.7094585,85.3920643 37.2772277,85.079208 C36.4974386,84.5096195 36.1126618,83.5438296 36.2871287,82.5940594 L38.1980198,71.4455446 L30.0891089,63.5247525 C29.3969277,62.8541049 29.1449886,61.8489228 29.4390319,60.9310876 C29.7330752,60.0132523 30.5222163,59.3415971 31.4752475,59.1980198 L42.7029703,57.5643564 L47.7227723,47.4059406 C48.1532057,46.5414926 49.0343238,45.993667 50,45.990099 Z M50,53.4653465 L46.4257426,60.6831683 C46.0554037,61.4355278 45.3356794,61.9549165 44.5049505,62.0693069 L36.5346535,63.2277228 L42.3069307,68.8415842 C42.9037902,69.4218859 43.1776514,70.258273 43.039604,71.0792079 L41.6732673,79 L48.8118812,75.2475248 C49.1749893,75.06809 49.5751908,74.9765185 49.980198,74.980198 C50.3945134,74.9810039 50.8023652,75.0829669 51.1683168,75.2772277 L58.2970297,79.019802 L56.9306931,71.0990099 C56.7917243,70.2731645 57.0696479,69.4319821 57.6732673,68.8514852 L63.4455446,63.2277228 L55.4653465,62.0693069 C54.6446782,61.9492198 53.9346822,61.4352123 53.5643564,60.6930693 L50,53.4653465 Z M26.5544554,-4.99999967e-08 C27.9080504,0.00231918751 29.1665479,0.677018341 29.9189586,1.79058073 L30.0396039,1.98019797 L47.5148515,30.2871287 C46.0446712,30.3852249 44.5824691,30.5767317 43.1370889,30.8603952 L42.4158416,31.009901 L26.2376237,4.71287124 L17.5841584,4.71287124 L35.2673267,33.3861386 C34.0728178,33.9377466 32.9091186,34.5533291 31.7812744,35.2301471 L31.1089109,35.6435643 L12.980198,6.22772273 C12.2059202,4.96589096 12.1741442,3.38410268 12.8971207,2.09219305 C13.5839483,0.864878897 14.8500232,0.081257362 16.2442125,0.00596349383 L16.4653465,-4.99999967e-08 L26.5544554,-4.99999967e-08 Z M83.5148515,-1.13124766e-06 C84.9988906,-0.000761629106 86.3668527,0.802584566 87.0891089,2.09900985 C87.7696593,3.31802517 87.7770591,4.79467712 87.1223987,6.0151155 L87,6.22772273 L68.8712871,35.6435643 C67.7544372,34.9533295 66.601393,34.323834 65.4171905,33.7577571 L64.7029703,33.4257426 L82.3861386,4.71287124 L73.7623763,4.71287124 L57.5643564,31.009901 C56.1249349,30.6949661 54.6670892,30.4724771 53.19976,30.3437013 L52.4653465,30.2871287 L69.9504951,1.98019797 C70.6396175,0.817308584 71.8614971,0.0805466392 73.2014032,0.00621405046 L73.4257426,-1.13124766e-06 L83.5148515,-1.13124766e-06 Z" id="Shape" fill="#000000"></path>
    </g>
</svg>