<svg width="100" height="100" viewBox="0 0 100 100" fill="none" xmlns="http://www.w3.org/2000/svg">
<g clip-path="url(#clip0)">
<path d="M34.4943 31.6471C32.7019 32.4525 30.9751 33.3966 29.3296 34.4706L12.459 7.11765C11.5937 5.66798 11.5713 3.86588 12.4003 2.39514C13.2292 0.924408 14.7825 0.0104265 16.4708 0H26.5061C28.1259 0.00738895 29.6281 0.847363 30.4825 2.22353L46.6943 28.5176C44.5823 28.6905 42.4887 29.0408 40.4355 29.5647L25.8825 5.88235H18.6119L34.4943 31.6471Z" fill="black"/>
<path d="M73.9643 5.88212L59.3643 29.5645C57.3073 29.0396 55.2097 28.6893 53.0938 28.5174L69.3173 2.27036C70.1723 0.902221 71.6687 0.0674787 73.282 0.0585938H83.3643C85.0258 0.0974282 86.5435 1.0097 87.3574 2.45868C88.1712 3.90765 88.1604 5.67845 87.329 7.11742L70.4702 34.4704C68.8192 33.3987 67.0887 32.4547 65.2937 31.6468L81.1761 5.88212H73.9643Z" fill="black"/>
<path fill-rule="evenodd" clip-rule="evenodd" d="M36.327 85.4543C36.9176 86.1581 37.7867 86.568 38.7055 86.5761C39.2326 86.5848 39.7539 86.4636 40.2231 86.2231L49.9525 81.0937L59.6819 86.2114C60.732 86.7662 62.0061 86.6762 62.9678 85.9793C63.9295 85.2824 64.4116 84.0996 64.2113 82.929L62.3525 72.0937L70.1761 64.3761C71.0192 63.5451 71.319 62.3083 70.9499 61.1835C70.5807 60.0587 69.6064 59.24 68.4349 59.0702L57.5525 57.482L52.6819 47.6231C52.161 46.5582 51.0793 45.8826 49.8937 45.8819C48.6875 45.8746 47.5844 46.5611 47.0584 47.6467L42.2349 57.5055L31.329 59.0937C30.1584 59.2712 29.1895 60.0965 28.8278 61.2238C28.4662 62.3511 28.7743 63.586 29.6231 64.4114L37.4937 72.0937L35.6349 82.9173C35.4834 83.8234 35.7363 84.7505 36.327 85.4543ZM42.6466 68.8937L37.729 64.1055L44.5055 63.1172C45.5238 62.9733 46.4049 62.3345 46.8584 61.4114L49.8937 55.2937L52.9408 61.3878C53.3899 62.3187 54.2712 62.9664 55.2937 63.1172L62.0113 64.0937L57.0819 68.9055C56.3609 69.617 56.0354 70.6373 56.2113 71.6349L57.3878 78.3878L51.3408 75.2114C50.4282 74.7282 49.3357 74.7282 48.4231 75.2114L42.3525 78.3996L43.529 71.6702C43.712 70.6557 43.3817 69.6164 42.6466 68.8937ZM58.1761 58.7525V58.882C58.1761 58.882 58.1878 58.8231 58.1761 58.7525Z" fill="black"/>
<path fill-rule="evenodd" clip-rule="evenodd" d="M49.8946 100C36.237 100 23.9244 91.7723 18.699 79.1539C13.4735 66.5354 16.3644 52.0117 26.0235 42.356C35.6826 32.7003 50.2073 29.8144 62.8239 35.0443C75.4406 40.2741 83.6641 52.5896 83.6593 66.2472C83.6398 84.8849 68.5324 99.9872 49.8946 100ZM49.8946 38.3648C34.4956 38.3648 22.0122 50.8482 22.0122 66.2472C22.0122 81.6462 34.4956 94.1295 49.8946 94.1295C65.2936 94.1295 77.7769 81.6462 77.7769 66.2472C77.764 50.8536 65.2882 38.3778 49.8946 38.3648Z" fill="black"/>
</g>
<defs>
<clipPath id="clip0">
<rect width="100" height="100" fill="white"/>
</clipPath>
</defs>
</svg>
