<svg width="100" height="100" viewBox="0 0 100 100" fill="none" xmlns="http://www.w3.org/2000/svg">
<path d="M29.5218 34.4666C34.7335 31.0774 40.7019 29.0286 46.8963 28.5026L30.6864 2.21151C29.8292 0.840003 28.3277 0.00485276 26.7104 0H16.6763C14.9882 0.0104252 13.4351 0.924301 12.6063 2.39487C11.7774 3.86543 11.7998 5.66732 12.665 7.11682L29.5218 34.4666Z" fill="black"/>
<path d="M70.6702 34.467L87.5271 7.11728C88.3584 5.67848 88.3691 3.90789 87.5554 2.45908C86.7416 1.01028 85.2241 0.0981061 83.5628 0.0592762H73.4817C71.8685 0.0681601 70.3723 0.902806 69.5174 2.27078L53.2958 28.503C59.4909 29.0257 65.4601 31.0747 70.6702 34.467Z" fill="black"/>
<path fill-rule="evenodd" clip-rule="evenodd" d="M16.3351 66.2392C16.3351 47.5936 31.4503 32.4784 50.0959 32.4784C68.736 32.4914 83.8437 47.599 83.8566 66.2392C83.8566 84.8848 68.7414 100 50.0959 100C31.4503 100 16.3351 84.8848 16.3351 66.2392ZM59.4007 71.0387L68.3173 62.3455C68.4147 62.3196 68.4726 62.2195 68.4467 62.122C68.4207 62.0246 68.3206 61.9667 68.2232 61.9926L55.8952 60.2046C55.8414 60.1914 55.7949 60.1576 55.7658 60.1105L50.2605 48.9471C50.2311 48.8862 50.1694 48.8476 50.1017 48.8476C50.0341 48.8476 49.9724 48.8862 49.9429 48.9471L44.4259 60.1105C44.4003 60.1608 44.3522 60.1957 44.2965 60.2046L31.9685 61.9926C31.8711 61.9667 31.771 62.0246 31.745 62.122C31.7191 62.2195 31.777 62.3196 31.8744 62.3455L40.8734 70.9916C40.9034 71.0382 40.9034 71.098 40.8734 71.1445L38.7678 83.4137C38.7546 83.4811 38.7816 83.55 38.8371 83.5903C38.8926 83.6307 38.9665 83.6352 39.0266 83.6019L50.0606 77.8614C50.1098 77.826 50.176 77.826 50.2253 77.8614L61.2475 83.649C61.3075 83.6823 61.3814 83.6778 61.4369 83.6374C61.4924 83.597 61.5195 83.5281 61.5063 83.4607L59.4007 71.1916C59.3774 71.1433 59.3774 71.087 59.4007 71.0387Z" fill="black"/>
</svg>
