<svg width="100" height="100" viewBox="0 0 100 100" fill="none" xmlns="http://www.w3.org/2000/svg">
<path fill-rule="evenodd" clip-rule="evenodd" d="M11.8579 26.1955C11.9829 24.9675 11.5139 23.7545 10.5979 22.9275L1.26088 11.6795V10.0005H30.2519L52.6609 59.1455L72.3619 10.0005H99.9999V11.6795L92.0169 19.3345C91.3279 19.8585 90.9869 20.7205 91.1299 21.5745V77.8145C90.9869 78.6685 91.3279 79.5305 92.0169 80.0545L99.8139 87.7095V89.3885H60.5979V87.7095L68.6739 79.8685C69.4679 79.0745 69.4679 78.8415 69.4679 77.6285V32.1695L47.0119 89.2025H43.9779L17.8339 32.1695V70.3935C17.6159 72.0015 18.1499 73.6185 19.2809 74.7815L29.7849 87.5225V89.2025H-0.00012207V87.5225L10.5039 74.7815C11.6279 73.6165 12.1299 71.9885 11.8579 70.3935V26.1955Z" fill="black"/>
</svg>
