<?xml version="1.0" encoding="UTF-8"?>
<svg width="100px" height="100px" viewBox="0 0 100 100" version="1.1" xmlns="http://www.w3.org/2000/svg" xmlns:xlink="http://www.w3.org/1999/xlink">
    <!-- Generator: Sketch 57.1 (83088) - https://sketch.com -->
    <title>brand/microsoft-brand</title>
    <desc>Created with Sketch.</desc>
    <g id="brand/microsoft" stroke="none" stroke-width="1" fill="none" fill-rule="evenodd">
        <path d="M35.3037,51.3034 L38.5827,43.2724 L41.5957,43.2724 L41.5957,56.0554 L39.3937,56.0554 L39.3937,47.9424 C39.4107,47.4284 39.4437,46.5834 39.4927,45.6404 L39.4437,45.6404 C39.3607,46.0044 39.2777,46.4354 39.1957,46.6504 L35.3867,56.0724 L33.9297,56.0724 L30.0877,46.7334 C30.0047,46.5014 29.8887,46.1364 29.7897,45.6404 L29.7407,45.6404 C29.7567,45.8384 29.7897,46.1044 29.8057,46.4514 C29.8227,47.1474 29.8227,47.7094 29.8227,48.2064 L29.8227,56.1054 L27.7527,56.1054 L27.7527,43.3054 L30.8827,43.3054 L34.0787,51.3364 C34.3767,52.0324 34.5587,52.6114 34.6577,52.9914 L34.7077,52.9914 L35.3037,51.3034 Z M43.6827,56.0554 L43.6827,46.8824 L45.8357,46.8824 L45.8357,56.0554 L43.6827,56.0554 Z M44.7757,43.0074 C45.1567,43.0074 45.4707,43.1394 45.6867,43.3714 C45.9347,43.6194 46.0677,43.9174 46.0677,44.2654 C46.0677,44.6134 45.9347,44.9114 45.6867,45.1434 C45.4547,45.3594 45.1397,45.4914 44.7757,45.4914 C44.4107,45.4914 44.1137,45.3744 43.8647,45.1434 C43.6167,44.9114 43.4837,44.6134 43.4837,44.2654 C43.4837,43.9014 43.6167,43.6034 43.8647,43.3714 C44.1137,43.1394 44.4107,43.0074 44.7757,43.0074 Z M53.4687,46.7994 C53.8997,46.8824 54.2137,47.0144 54.4957,47.1304 L54.5127,47.1474 L54.5127,49.2494 L54.4297,49.1834 C53.7837,48.7204 53.0717,48.4884 52.3757,48.4884 C51.5477,48.4884 50.8687,48.7704 50.3557,49.3164 C49.8427,49.8634 49.5947,50.6084 49.5947,51.5514 C49.5947,52.4624 49.8427,53.1914 50.3397,53.7214 C50.8197,54.2674 51.4987,54.5154 52.3597,54.5154 C52.6577,54.5154 53.0057,54.4494 53.3867,54.3174 C53.7507,54.2004 54.1157,54.0024 54.4297,53.7704 L54.5127,53.7044 L54.5127,55.6914 L54.4957,55.7074 C53.8007,56.1054 52.9227,56.3214 51.8967,56.3214 C51.0017,56.3214 50.2067,56.1214 49.5277,55.7404 C48.8157,55.3604 48.2857,54.7974 47.9057,54.1024 C47.5247,53.3894 47.3257,52.6114 47.3257,51.7344 C47.3257,50.7234 47.5247,49.8464 47.9217,49.0844 C48.3027,48.3394 48.8987,47.7424 49.6437,47.3124 C50.3887,46.8824 51.2827,46.6664 52.2607,46.6664 C52.6577,46.6664 53.0717,46.7164 53.4687,46.7994 Z M60.5737,46.7334 C60.9377,46.7334 61.2357,46.7824 61.3847,46.8824 L61.4337,46.8984 L61.4337,49.0514 L61.3517,48.9854 C61.2357,48.9024 61.0697,48.8354 60.8377,48.7704 C60.5897,48.7374 60.3907,48.6874 60.1927,48.6874 C59.6287,48.6874 59.1647,48.9354 58.8007,49.4324 C58.4367,49.9124 58.2717,50.5744 58.2717,51.3694 L58.2717,56.0554 L56.1177,56.0554 L56.1177,46.8824 L58.2717,46.8824 L58.2717,48.4884 L58.2877,48.4884 C58.5027,47.9754 58.7507,47.5444 59.1157,47.2464 C59.5457,46.8984 60.0427,46.7334 60.5737,46.7334 Z M66.4347,46.6834 C67.8597,46.6834 69.0017,47.0974 69.7807,47.9424 C70.5907,48.7864 70.9887,49.9454 70.9887,51.4034 C70.9887,52.8764 70.5747,54.0694 69.7137,54.9624 C68.8687,55.8574 67.6937,56.3044 66.2197,56.3044 C64.8127,56.3044 63.6867,55.8734 62.8587,55.0454 C62.0307,54.2004 61.5997,53.0414 61.5997,51.6174 C61.5997,50.0944 62.0137,48.8854 62.8747,48.0084 C63.7187,47.1304 64.9277,46.6834 66.4347,46.6834 Z M68.1577,53.7374 C68.5717,53.2244 68.7527,52.4464 68.7857,51.4524 C68.7857,50.4754 68.5547,49.7304 68.1237,49.2164 C67.6937,48.7034 67.0977,48.4544 66.3357,48.4544 C65.5577,48.4544 64.9447,48.7204 64.4967,49.2494 C64.0677,49.7804 63.8347,50.5254 63.8347,51.5014 C63.8347,52.4464 64.0507,53.1914 64.4967,53.7044 C64.9447,54.2504 65.5747,54.4984 66.3527,54.4984 C67.1297,54.4984 67.7597,54.2504 68.1577,53.7374 Z M75.7907,50.6914 C76.6517,51.0224 77.2477,51.4364 77.7287,51.8334 C78.0927,52.2464 78.2577,52.7934 78.2577,53.4064 C78.2577,54.2834 77.9097,54.9624 77.2477,55.4924 C76.6027,56.0384 75.6917,56.2874 74.5817,56.2874 C74.2177,56.2874 73.8037,56.2214 73.3397,56.1384 C72.8757,56.0224 72.4947,55.9234 72.1807,55.7744 L72.1307,55.7574 L72.1307,53.6554 L72.2137,53.7214 C72.5617,53.9694 72.9757,54.1844 73.4227,54.3334 C73.8697,54.4834 74.2507,54.5484 74.6157,54.5484 C75.5587,54.5484 76.0227,54.2504 76.0227,53.6384 C76.0227,53.4224 75.9727,53.2574 75.8897,53.1244 C75.7747,53.0084 75.6247,52.8604 75.3937,52.7274 C75.1607,52.5944 74.7807,52.4294 74.2837,52.2144 C73.6877,51.9654 73.2567,51.7004 72.9587,51.4684 C72.6607,51.2204 72.4457,50.9224 72.2967,50.6084 C72.1477,50.2934 72.0807,49.9124 72.0807,49.4824 C72.0807,48.6704 72.3967,47.9754 73.0587,47.4614 C73.7207,46.9144 74.5657,46.6664 75.5917,46.6664 C75.8897,46.6664 76.2537,46.6994 76.6517,46.7664 C77.0487,46.8494 77.3797,46.9484 77.6287,47.0474 L77.6787,47.0644 L77.6787,49.0844 L77.5957,49.0184 C77.3307,48.8194 76.9987,48.6704 76.6347,48.5714 C76.2707,48.4714 75.8897,48.4064 75.5257,48.4064 C75.1117,48.4064 74.8297,48.4884 74.5817,48.6544 C74.3337,48.8194 74.2347,49.0684 74.2347,49.3164 C74.2347,49.6144 74.3177,49.8464 74.4827,50.0114 C74.6817,50.1944 75.1117,50.4084 75.7907,50.6914 Z M83.9377,46.6834 C85.3627,46.6834 86.5047,47.0974 87.2827,47.9424 C88.0937,48.7864 88.4917,49.9454 88.4917,51.4034 C88.4917,52.8764 88.0767,54.0694 87.2167,54.9624 C86.3717,55.8574 85.1967,56.3044 83.7227,56.3044 C82.3157,56.3044 81.1887,55.8734 80.3617,55.0454 C79.5327,54.2004 79.1027,53.0414 79.1027,51.6174 C79.1027,50.0944 79.5327,48.8854 80.3777,48.0084 C81.2217,47.1304 82.4307,46.6834 83.9377,46.6834 Z M85.6437,53.7374 C86.0577,53.2244 86.2727,52.4464 86.2727,51.4524 C86.2727,50.4754 86.0407,49.7304 85.6107,49.2164 C85.1797,48.7034 84.5677,48.4544 83.8227,48.4544 C83.0437,48.4544 82.4307,48.7204 81.9837,49.2494 C81.5537,49.7804 81.3217,50.5254 81.3217,51.5014 C81.3217,52.4464 81.5367,53.1914 81.9837,53.7044 C82.4307,54.2504 83.0437,54.4984 83.8377,54.4984 C84.6167,54.4984 85.2457,54.2504 85.6437,53.7374 Z M99.9997,48.6544 L97.7977,48.6544 L97.7977,52.9914 C97.7977,53.5554 97.8977,53.9364 98.0957,54.1674 C98.3107,54.4164 98.6097,54.5154 99.0397,54.5154 C99.1557,54.5154 99.3047,54.4984 99.4697,54.4494 C99.6687,54.4004 99.7847,54.3334 99.9167,54.2504 L99.9997,54.1844 L99.9997,55.9564 L99.9837,55.9734 C99.8507,56.0384 99.6187,56.1214 99.3047,56.1884 C99.0067,56.2384 98.6917,56.2874 98.3937,56.2874 C96.5727,56.2874 95.6607,55.3104 95.6607,53.3724 L95.6607,48.6544 L92.4157,48.6544 L92.4157,56.0554 L90.2467,56.0554 L90.2467,48.6374 L88.7407,48.6374 L88.7407,46.8824 L90.2467,46.8824 L90.2467,45.6074 C90.2467,44.9614 90.3957,44.3984 90.6767,43.9014 C90.9587,43.3884 91.3397,43.0074 91.8527,42.7254 C92.3667,42.4774 92.9297,42.3284 93.5747,42.3284 C94.0887,42.3284 94.4857,42.3944 94.7837,42.4934 L94.8337,42.5104 L94.8337,44.3814 L94.7507,44.3314 C94.4037,44.1834 94.0887,44.1164 93.7897,44.1164 C93.3597,44.1164 93.0117,44.2484 92.7807,44.5144 C92.5487,44.7794 92.4157,45.1934 92.4157,45.7234 L92.4157,46.8824 L95.6607,46.8824 L95.6607,44.8124 L95.7107,44.7954 L97.7647,44.1834 L97.8307,44.1664 L97.8307,46.8824 L99.9997,46.8824 L99.9997,48.6544 Z M8.29558644e-13,49.1511 L8.29558644e-13,39.0001 L10.151,39.0001 L10.151,49.1511 L8.29558644e-13,49.1511 Z M11.21,49.1511 L11.21,39.0001 L21.361,39.0001 L21.361,49.1511 L11.21,49.1511 Z M8.29558644e-13,60.3611 L8.29558644e-13,50.2111 L10.151,50.2111 L10.151,60.3611 L8.29558644e-13,60.3611 Z M11.21,60.3611 L11.21,50.2111 L21.361,50.2111 L21.361,60.3611 L11.21,60.3611 Z" id="Shape" fill="#000000"></path>
    </g>
</svg>