<svg width="100" height="100" viewBox="0 0 100 100" fill="none" xmlns="http://www.w3.org/2000/svg">
<g clip-path="url(#clip0)">
<path d="M0.497142 95.9667C1.50729 98.4062 3.88672 99.9977 6.52717 100C8.25918 99.9985 9.91969 99.3092 11.1436 98.0838L98.2467 10.9856C100.645 8.41179 100.574 4.40092 98.0866 1.91329C95.5988 -0.574339 91.5878 -0.645106 89.0138 1.75322L1.91071 88.8514C0.0447869 90.7196 -0.513003 93.5272 0.497142 95.9667Z" fill="black"/>
<path d="M74.4679 10.1256C73.8677 6.3851 70.6349 3.63736 66.8464 3.64766H33.279C29.0302 3.65369 25.5873 7.09638 25.5813 11.345V59.0204L74.4679 10.1256Z" fill="black"/>
<path fill-rule="evenodd" clip-rule="evenodd" d="M25.6901 89.7109C26.2704 93.4706 29.5071 96.2448 33.3116 96.2432H66.8789C71.1278 96.2372 74.5707 92.7945 74.5767 88.5459V40.8161L25.6901 89.7109ZM50.0789 87.185C47.7218 87.185 45.8109 85.2742 45.8109 82.9172C45.8109 80.5602 47.7218 78.6494 50.0789 78.6494C52.4361 78.6494 54.347 80.5602 54.347 82.9172C54.3499 84.05 53.9012 85.1372 53.1001 85.9382C52.2991 86.7392 51.2118 87.1879 50.0789 87.185Z" fill="black"/>
</g>
<defs>
<clipPath id="clip0">
<rect width="100" height="100" fill="white"/>
</clipPath>
</defs>
</svg>
