<?xml version="1.0" encoding="UTF-8"?>
<svg width="100px" height="100px" viewBox="0 0 100 100" version="1.1" xmlns="http://www.w3.org/2000/svg" xmlns:xlink="http://www.w3.org/1999/xlink">
    <!-- Generator: Sketch 57.1 (83088) - https://sketch.com -->
    <title>regular/mobile-slash-regular</title>
    <desc>Created with Sketch.</desc>
    <g id="regular/mobile-slash" stroke="none" stroke-width="1" fill="none" fill-rule="evenodd">
        <path d="M97.3166001,0.960851024 C98.1660607,1.17069219 98.8293078,1.83393932 99.039149,2.6833999 C99.2489901,3.53286049 98.9708704,4.42865227 98.3168317,5.00990095 L4.01980193,99.3069307 C3.58158579,99.7529444 2.98169809,100.002898 2.3564356,100.000049 C1.73117311,100.002898 1.1312854,99.7529444 0.693069258,99.3069307 C0.250485377,98.8665398 0.00165916375,98.2679238 0.00165916375,97.6435644 C0.00165916375,97.019205 0.250485377,96.420589 0.693069258,95.9801981 L94.9900991,1.68316827 C95.5713477,1.02912959 96.4671395,0.751009859 97.3166001,0.960851024 Z M75.4356436,37.9009901 L75.4356436,92.2574258 C75.4302937,96.4490807 72.0988376,99.8610426 67.9387191,99.9958678 L67.6930693,100 L31.3168317,100 C27.1251768,99.9946501 23.7132149,96.6631941 23.5783896,92.5030756 L23.5742574,92.2574258 L23.5742574,89.7623763 L28.2871287,85.049505 L28.2871287,92.2574258 C28.2871287,93.8709253 29.5484142,95.1898358 31.1388136,95.2819856 L31.3168317,95.2871288 L47.5841584,95.2871288 C44.2480818,94.3162453 42.133969,91.0395838 42.6243186,87.5998776 C43.1146681,84.1601714 46.060172,81.6047868 49.5346535,81.6047868 C53.0091349,81.6047868 55.9546388,84.1601714 56.4449884,87.5998776 C56.9239344,90.9595906 54.9181473,94.1637542 51.715898,95.2156785 L51.4851485,95.2871288 L67.6930693,95.2871288 C69.3065688,95.2871288 70.6254793,94.0258432 70.7176292,92.4354438 L70.7227723,92.2574258 L70.7227723,42.5742574 L75.4356436,37.9009901 Z M49.5049505,86.3168317 C48.2527405,86.3168317 47.2376238,87.3319485 47.2376238,88.5841585 C47.2376238,89.8363684 48.2527405,90.8514852 49.5049505,90.8514852 C50.7549074,90.8460623 51.7668543,89.8341153 51.7722772,88.5841585 C51.7722772,87.3319485 50.7571605,86.3168317 49.5049505,86.3168317 Z M31.3168317,0.990098961 L67.6930693,0.990098961 C71.8847242,0.995448878 75.2966861,4.32690492 75.4315114,8.48702342 L75.4356436,8.73267323 L75.4356436,11.2277227 L70.7227723,15.940594 L70.7227723,8.73267323 C70.7175322,7.12134924 69.4590147,5.80547159 67.8708426,5.70866308 L67.6930693,5.70297025 L31.3168317,5.70297025 C29.7055077,5.70821037 28.38963,6.96672788 28.2928215,8.55489998 L28.2871287,8.73267323 L28.2871287,58.4158416 L23.5742574,63.0891089 L23.5742574,8.73267323 C23.5796073,4.54101834 26.9110634,1.12905644 31.0711819,0.994231174 L31.3168317,0.990098961 L67.6930693,0.990098961 L31.3168317,0.990098961 Z" id="Shape" fill="#000000"></path>
    </g>
</svg>