<svg width="100" height="100" viewBox="0 0 100 100" fill="none" xmlns="http://www.w3.org/2000/svg">
<g clip-path="url(#clip0)">
<path d="M67.4781 0H31.5317C26.9861 0.00647993 23.3028 3.72662 23.2964 8.31765V91.6824C23.3028 96.2734 26.9861 99.9935 31.5317 100H67.4781C72.0237 99.9935 75.707 96.2734 75.7134 91.6824V8.31765C75.707 3.72662 72.0237 0.00647993 67.4781 0ZM49.5049 90.2706C46.9831 90.2706 44.9388 88.2058 44.9388 85.6588C44.9388 83.1118 46.9831 81.0471 49.5049 81.0471C52.0267 81.0471 54.071 83.1118 54.071 85.6588C54.0741 86.8829 53.594 88.0577 52.737 88.9233C51.8801 89.7888 50.7168 90.2737 49.5049 90.2706Z" fill="black"/>
</g>
<defs>
<clipPath id="clip0">
<rect width="100" height="100" fill="white"/>
</clipPath>
</defs>
</svg>
