<svg width="100" height="100" viewBox="0 0 100 100" fill="none" xmlns="http://www.w3.org/2000/svg">
<g clip-path="url(#clip0)">
<path d="M0.859307 99.141C1.41122 99.6934 2.16082 100.003 2.94166 99.9999C3.7225 100.003 4.4721 99.6934 5.02401 99.141L99.1417 5.02341C99.8856 4.27945 100.176 3.19512 99.9039 2.17886C99.6315 1.1626 98.8378 0.368811 97.8215 0.0965056C96.8052 -0.1758 95.7209 0.114747 94.977 0.8587L0.859307 94.9763C-0.279925 96.1309 -0.279925 97.9865 0.859307 99.141Z" fill="black"/>
<path d="M29.4116 8.31765V60.6118L23.5293 66.4941V8.31765C23.5358 3.72662 27.2559 0.00647993 31.8469 -3.49246e-09H68.1528C72.7439 0.00647993 76.464 3.72662 76.4705 8.31765V13.5529L70.5881 19.4353V8.31765C70.5881 7.67177 70.3315 7.05234 69.8748 6.59563C69.4181 6.13893 68.7987 5.88235 68.1528 5.88235H31.8469C30.502 5.88235 29.4116 6.97267 29.4116 8.31765Z" fill="black"/>
<path d="M70.5881 91.6823V39.3882L76.4705 33.5059V91.6823C76.464 96.2733 72.7439 99.9935 68.1528 100H31.8469C27.2559 99.9935 23.5358 96.2733 23.5293 91.6823V86.447L29.4116 80.5647V91.6823C29.4116 93.0273 30.502 94.1176 31.8469 94.1176H68.1528C69.4978 94.1176 70.5881 93.0273 70.5881 91.6823Z" fill="black"/>
<path fill-rule="evenodd" clip-rule="evenodd" d="M50.0002 93.2113C45.8288 93.2113 42.4473 89.8298 42.4473 85.6584C42.4473 81.487 45.8288 78.1055 50.0002 78.1055C54.1716 78.1055 57.5531 81.487 57.5531 85.6584C57.5467 89.8271 54.1689 93.2049 50.0002 93.2113ZM50.0002 83.9878C49.0776 83.9878 48.3296 84.7358 48.3296 85.6584C48.3296 86.581 49.0776 87.329 50.0002 87.329C50.9228 87.329 51.6708 86.581 51.6708 85.6584C51.6644 84.7384 50.9202 83.9942 50.0002 83.9878Z" fill="black"/>
</g>
<defs>
<clipPath id="clip0">
<rect width="100" height="100" fill="white"/>
</clipPath>
</defs>
</svg>
