<svg width="100" height="100" viewBox="0 0 100 100" fill="none" xmlns="http://www.w3.org/2000/svg">
<path fill-rule="evenodd" clip-rule="evenodd" d="M31.8469 100H68.1528C72.7439 99.9935 76.464 96.2734 76.4705 91.6824V8.31765C76.464 3.72662 72.7439 0.00647993 68.1528 0H31.8469C27.2559 0.00647993 23.5358 3.72662 23.5293 8.31765V91.6824C23.5358 96.2734 27.2559 99.9935 31.8469 100ZM30.1249 6.59563C30.5816 6.13893 31.2011 5.88235 31.8469 5.88235H68.1528C68.7987 5.88235 69.4181 6.13893 69.8748 6.59563C70.3315 7.05234 70.5881 7.67177 70.5881 8.31765V91.6824C70.5881 93.0273 69.4978 94.1176 68.1528 94.1176H54.4392C56.3236 92.7443 57.5492 90.5214 57.5531 88.0119C57.5531 83.8406 54.1716 80.459 50.0002 80.459C45.8288 80.459 42.4473 83.8406 42.4473 88.0119C42.4473 90.5209 43.6706 92.7441 45.5533 94.1176H31.8469C30.502 94.1176 29.4116 93.0273 29.4116 91.6824V8.31765C29.4116 7.67177 29.6682 7.05234 30.1249 6.59563ZM48.3296 88.0119C48.3296 87.0893 49.0776 86.3413 50.0002 86.3413C50.9202 86.3477 51.6644 87.0919 51.6708 88.0119C51.6708 88.9346 50.9228 89.6825 50.0002 89.6825C49.0776 89.6825 48.3296 88.9346 48.3296 88.0119Z" fill="black"/>
</svg>
