<svg width="100" height="100" viewBox="0 0 100 100" fill="none" xmlns="http://www.w3.org/2000/svg">
<path d="M96.6395 47.5446L80.9708 38.4887L68.5597 45.6661L59.6233 40.5084L59.341 40.3455L56.1486 38.4996L53.0214 40.3129L52.8911 40.3781L43.7484 45.6552L37.8523 42.2566V27.9235L18.9261 17L0 27.9235V49.7814L18.9261 60.7049L31.3372 53.5384L37.2333 56.9479V63.7561L31.3372 67.1657L22.1836 61.8776C20.1653 60.6625 17.6482 60.6316 15.6006 61.797C13.5531 62.9623 12.2942 65.1422 12.3083 67.4981C12.3224 69.854 13.6073 72.0187 15.6686 73.1595L31.3372 82.2045L43.7484 75.038L56.1486 82.2045L75.0748 71.2918V56.9479L80.9708 53.5384L90.1245 58.8264C92.1428 60.0416 94.6599 60.0725 96.7075 58.9071C98.755 57.7418 100.014 55.5618 99.9999 53.2059C99.9857 50.8501 98.7008 48.6853 96.6395 47.5446ZM24.8222 42.2566L18.9261 45.6552L13.03 42.2566V35.4592L18.9261 32.0606L24.8222 35.4592V42.2566ZM62.0447 63.7561L56.1486 67.1657L50.2634 63.7561V56.9479L56.1486 53.5493L62.0447 56.9479V63.7561Z" fill="black"/>
</svg>
