<?xml version="1.0" encoding="UTF-8"?>
<svg width="100px" height="100px" viewBox="0 0 100 100" version="1.1" xmlns="http://www.w3.org/2000/svg" xmlns:xlink="http://www.w3.org/1999/xlink">
    <!-- Generator: Sketch 57.1 (83088) - https://sketch.com -->
    <title>regular/molecule-regular</title>
    <desc>Created with Sketch.</desc>
    <g id="regular/molecule" stroke="none" stroke-width="1" fill="none" fill-rule="evenodd">
        <path d="M98.81,51.61 L84,43.07 L70.4,50.93 L58,43.74 L57.88,43.67 L56.88,43.08 L55.77,43.72 L55.69,43.72 L43.2,50.92 L32,44.44 L32,28.73 L16,19.5 L-4.9999997e-08,28.73 L-4.9999997e-08,47.19 L16,56.42 L29.6,48.56 L40.83,55.04 L40.83,68.04 L29.59,74.5 L17.18,67.33 C16.4351012,66.904854 15.5199737,66.9094016 14.779337,67.3419298 C14.0387003,67.774458 13.5850749,68.5692555 13.589337,69.4269298 C13.5935991,70.2846041 14.0551012,71.074854 14.8,71.5 L29.59,80.04 L43.2,72.14 L56.8,79.99 L72.8,70.76 L72.8,55.04 L84,48.56 L96.42,55.73 C96.7803734,55.942452 97.1916754,56.0530543 97.61,56.05 C98.6864115,56.0491082 99.6282296,55.3258538 99.9068922,54.2861378 C100.185555,53.2464217 99.7316846,52.1490977 98.8,51.61 L98.81,51.61 Z M27.21,44.44 L16,50.92 L4.75999995,44.44 L4.75999995,31.5 L16,25 L27.21,31.5 L27.21,44.44 Z M68,68.01 L56.8,74.5 L45.58,68.01 L45.58,55.01 L56.8,48.57 L68,55.05 L68,68.01 Z" id="molecule" fill="#000000"></path>
    </g>
</svg>