<?xml version="1.0" encoding="UTF-8"?>
<svg width="100px" height="100px" viewBox="0 0 100 100" version="1.1" xmlns="http://www.w3.org/2000/svg" xmlns:xlink="http://www.w3.org/1999/xlink">
    <!-- Generator: Sketch 57.1 (83088) - https://sketch.com -->
    <title>solid/molecule-solid</title>
    <desc>Created with Sketch.</desc>
    <g id="solid/molecule" stroke="none" stroke-width="1" fill="none" fill-rule="evenodd">
        <path d="M97.67,48.35 L82.06,39.35 L66.44,48.35 L66.44,48.35 L55.48,42 L44.53,48.35 L44.53,48.35 L31.23,40.67 L31.23,28 L15.61,19 L-4.9999997e-08,28 L-4.9999997e-08,46 L15.61,55 L26.61,48.67 L39.87,56.4 L39.87,63.7 L28.9,70 L17.9,63.67 C16.4602196,62.8393575 14.6866653,62.8399259 13.2474176,63.6714909 C11.8081699,64.503056 10.9218849,66.0392834 10.9224176,67.701491 C10.9229502,69.3636985 11.8102196,70.8993575 13.25,71.73 L28.86,80.73 L44.48,71.73 L55.48,78.06 L71.1,69.06 L71.1,56.4 L82.1,50.07 L93,56.4 C93.7034403,56.8128337 94.5043655,57.0303263 95.32,57.03 C97.4276201,57.0346195 99.2747905,55.6211106 99.8212031,53.5855476 C100.367616,51.5499846 99.4766135,49.4014593 97.65,48.35 L97.67,48.35 Z" id="molecule" fill="#000000"></path>
    </g>
</svg>