<svg width="100" height="100" viewBox="0 0 100 100" fill="none" xmlns="http://www.w3.org/2000/svg">
<g clip-path="url(#clip0)">
<path fill-rule="evenodd" clip-rule="evenodd" d="M46.329 45.8821H28.9054C25.9843 45.8756 23.6178 43.5092 23.6113 40.588V23.1056C23.6178 20.1845 25.9843 17.818 28.9054 17.8115H46.329C49.2501 17.818 51.6166 20.1845 51.6233 23.1056V40.5292C51.6356 41.9425 51.0838 43.3024 50.0899 44.3073C49.0961 45.3122 47.7423 45.879 46.329 45.8821ZM29.4937 39.9998H45.7407V23.6939H29.4937V39.9998Z" fill="black"/>
<path d="M56.5525 29.7652H90.9643C92.5886 29.7652 93.9054 28.4484 93.9054 26.824C93.9054 25.1996 92.5886 23.8828 90.9643 23.8828H56.5525C54.9281 23.8828 53.6113 25.1996 53.6113 26.824C53.6113 28.4484 54.9281 29.7652 56.5525 29.7652Z" fill="black"/>
<path d="M90.9643 39.7652H56.5525C54.9281 39.7652 53.6113 38.4484 53.6113 36.824C53.6113 35.1996 54.9281 33.8828 56.5525 33.8828H90.9643C92.5886 33.8828 93.9054 35.1996 93.9054 36.824C93.9054 38.4484 92.5886 39.7652 90.9643 39.7652Z" fill="black"/>
<path d="M26.5525 55.812H90.9643C92.5886 55.812 93.9054 54.4952 93.9054 52.8709C93.9054 51.2465 92.5886 49.9297 90.9643 49.9297H26.5525C24.9281 49.9297 23.6113 51.2465 23.6113 52.8709C23.6113 54.4952 24.9281 55.812 26.5525 55.812Z" fill="black"/>
<path d="M90.9643 66.9058H26.5525C24.9281 66.9058 23.6113 65.589 23.6113 63.9646C23.6113 62.3402 24.9281 61.0234 26.5525 61.0234H90.9643C92.5886 61.0234 93.9054 62.3402 93.9054 63.9646C93.9054 65.589 92.5886 66.9058 90.9643 66.9058Z" fill="black"/>
<path d="M26.5525 77.9995H90.9643C92.5886 77.9995 93.9054 76.6827 93.9054 75.0584C93.9054 73.434 92.5886 72.1172 90.9643 72.1172H26.5525C24.9281 72.1172 23.6113 73.434 23.6113 75.0584C23.6113 76.6827 24.9281 77.9995 26.5525 77.9995Z" fill="black"/>
<path fill-rule="evenodd" clip-rule="evenodd" d="M89.6824 8.23535H27.3294C21.6311 8.23535 17.0118 12.8547 17.0118 18.553V30.7412H4.11765C1.84353 30.7412 0 32.5848 0 34.8589V82.9177C0 87.5309 3.73974 91.2706 8.35294 91.2706H89.6824C95.3806 91.2706 100 86.6513 100 80.953V18.6001C100.013 15.8555 98.931 13.2191 96.9947 11.2739C95.0584 9.32882 92.4269 8.23535 89.6824 8.23535ZM8.35294 85.3883C7.6977 85.3883 7.0693 85.128 6.60597 84.6647C6.14265 84.2013 5.88235 83.5729 5.88235 82.9177V36.6236H16.9647V82.9177C16.9647 83.5729 16.7044 84.2013 16.2411 84.6647C15.7778 85.128 15.1494 85.3883 14.4941 85.3883H8.35294ZM94.1176 80.953C94.1176 83.4025 92.1319 85.3883 89.6824 85.3883H22.4706C22.7223 84.589 22.8493 83.7557 22.8471 82.9177V18.553C22.8471 16.1035 24.8328 14.1175 27.2824 14.1175H89.6353C90.8197 14.1051 91.96 14.5669 92.802 15.4C93.644 16.2332 94.1176 17.3685 94.1176 18.553V80.953Z" fill="black"/>
</g>
<defs>
<clipPath id="clip0">
<rect width="100" height="100" fill="white"/>
</clipPath>
</defs>
</svg>
