<svg width="100" height="100" viewBox="0 0 100 100" fill="none" xmlns="http://www.w3.org/2000/svg">
<g clip-path="url(#clip0)">
<path fill-rule="evenodd" clip-rule="evenodd" d="M27.3294 8.23535H89.6823C92.4269 8.23535 95.0584 9.32882 96.9947 11.2739C98.931 13.2191 100.012 15.8555 100 18.6001V80.953C100 86.6513 95.3806 91.2706 89.6823 91.2706H17.0117V18.4824C17.0505 12.8117 21.6585 8.23535 27.3294 8.23535ZM28.9058 20.753C27.6063 20.753 26.5529 21.8064 26.5529 23.1059V40.5295C26.5529 41.829 27.6063 42.8824 28.9058 42.8824H46.3294C47.6289 42.8824 48.6823 41.829 48.6823 40.5295V23.1059C48.6823 21.8064 47.6289 20.753 46.3294 20.753H28.9058ZM26.5529 78.0001H90.9647C92.589 78.0001 93.9058 76.6833 93.9058 75.0589C93.9058 73.4345 92.589 72.1177 90.9647 72.1177H26.5529C24.9285 72.1177 23.6117 73.4345 23.6117 75.0589C23.6117 76.6833 24.9285 78.0001 26.5529 78.0001ZM26.5529 66.9059H90.9647C92.589 66.9059 93.9058 65.5891 93.9058 63.9648C93.9058 62.3404 92.589 61.0236 90.9647 61.0236H26.5529C24.9285 61.0236 23.6117 62.3404 23.6117 63.9648C23.6117 65.5891 24.9285 66.9059 26.5529 66.9059ZM26.5529 55.8118H90.9647C92.589 55.8118 93.9058 54.495 93.9058 52.8706C93.9058 51.2463 92.589 49.9295 90.9647 49.9295H26.5529C24.9285 49.9295 23.6117 51.2463 23.6117 52.8706C23.6117 54.495 24.9285 55.8118 26.5529 55.8118ZM56.5529 39.7648H90.9647C92.589 39.7648 93.9058 38.448 93.9058 36.8236C93.9058 35.1992 92.589 33.8824 90.9647 33.8824H56.5529C54.9285 33.8824 53.6117 35.1992 53.6117 36.8236C53.6117 38.448 54.9285 39.7648 56.5529 39.7648ZM56.5529 29.7648H90.9647C92.589 29.7648 93.9058 28.448 93.9058 26.8236C93.9058 25.1992 92.589 23.8824 90.9647 23.8824H56.5529C54.9285 23.8824 53.6117 25.1992 53.6117 26.8236C53.6117 28.448 54.9285 29.7648 56.5529 29.7648Z" fill="black"/>
<path d="M4.11765 30.7412H11.0824V91.2706H8.35294C3.73974 91.2706 0 87.5309 0 82.9177V34.8589C0 32.5847 1.84353 30.7412 4.11765 30.7412Z" fill="black"/>
</g>
<defs>
<clipPath id="clip0">
<rect width="100" height="100" fill="white"/>
</clipPath>
</defs>
</svg>
