<svg width="100" height="100" viewBox="0 0 100 100" fill="none" xmlns="http://www.w3.org/2000/svg">
<path fill-rule="evenodd" clip-rule="evenodd" d="M59.4072 61.0612C59.9922 61.3992 60.3552 62.0302 60.3552 62.7072V73.1292C60.3552 73.8062 59.9922 74.4362 59.4072 74.7772L50.3772 79.9912C50.0882 80.1582 49.7612 80.2442 49.4262 80.2442C49.0962 80.2442 48.7672 80.1582 48.4792 79.9912L45.4642 78.2072C45.0132 77.9552 45.2342 77.8662 45.3822 77.8142C45.9832 77.6052 46.1042 77.5572 46.7452 77.1942C46.8122 77.1562 46.9002 77.1702 46.9692 77.2102L49.2862 78.5852C49.3702 78.6322 49.4882 78.6322 49.5662 78.5852L58.5962 73.3742C58.6802 73.3262 58.7342 73.2292 58.7342 73.1292V62.7072C58.7342 62.6052 58.6802 62.5102 58.5952 62.4582L49.5672 57.2502C49.4842 57.2022 49.3732 57.2022 49.2892 57.2502L40.2642 62.4592C40.1762 62.5102 40.1212 62.6082 40.1212 62.7072V73.1292C40.1212 73.2292 40.1762 73.3242 40.2632 73.3712L42.7372 74.8002C44.0792 75.4712 44.9012 74.6802 44.9012 73.8862V63.5962C44.9012 63.4512 45.0182 63.3362 45.1642 63.3362H46.3092C46.4522 63.3362 46.5712 63.4512 46.5712 63.5962V73.8862C46.5712 75.6782 45.5952 76.7062 43.8962 76.7062C43.3742 76.7062 42.9642 76.7062 41.8162 76.1402L39.4482 74.7772C38.8632 74.4382 38.5012 73.8062 38.5012 73.1292V62.7072C38.5012 62.0302 38.8632 61.3982 39.4482 61.0612L48.4792 55.8432C49.0512 55.5202 49.8102 55.5202 50.3772 55.8432L59.4072 61.0612ZM52.2158 71.4782C54.1178 71.4782 54.9278 71.0472 54.9278 70.0382C54.9278 69.4572 54.6978 69.0242 51.7418 68.7352C49.2708 68.4912 47.7428 67.9452 47.7428 65.9672C47.7428 64.1452 49.2778 63.0592 51.8538 63.0592C54.7468 63.0592 56.1778 64.0632 56.3598 66.2172C56.3658 66.2912 56.3398 66.3632 56.2908 66.4182C56.2408 66.4702 56.1718 66.5012 56.0998 66.5012H54.9278C54.8058 66.5012 54.6978 66.4162 54.6738 66.2972C54.3928 65.0462 53.7088 64.6472 51.8538 64.6472C49.7768 64.6472 49.5348 65.3712 49.5348 65.9132C49.5348 66.5702 49.8198 66.7612 52.6248 67.1322C55.3998 67.4992 56.7178 68.0192 56.7178 69.9692C56.7178 71.9372 55.0768 73.0642 52.2158 73.0642C48.2638 73.0642 47.4358 71.2492 47.4358 69.7282C47.4358 69.5832 47.5518 69.4682 47.6968 69.4682H48.8648C48.9948 69.4682 49.1038 69.5622 49.1238 69.6892C49.2998 70.8772 49.8258 71.4782 52.2158 71.4782ZM63.4932 63.5935C64.3042 63.5935 64.9572 62.9255 64.9572 62.1295C64.9572 61.3195 64.2942 60.6745 63.4932 60.6745C62.7012 60.6745 62.0382 61.3095 62.0382 62.1295C62.0382 62.9405 62.6912 63.5935 63.4932 63.5935ZM63.4972 60.3935C64.4362 60.3935 65.2372 61.1495 65.2372 62.1345C65.2372 63.0915 64.4552 63.8745 63.4972 63.8745C62.5492 63.8745 61.7572 63.1015 61.7572 62.1345C61.7572 61.1495 62.5672 60.3935 63.4972 60.3935ZM63.5156 62.0144C63.7636 62.0144 63.8106 61.8394 63.8106 61.7384C63.8106 61.4704 63.6256 61.4704 63.5256 61.4704H63.2116V62.0144H63.5156ZM63.8286 62.1524C64.0966 62.1704 64.1146 62.3454 64.1516 62.5944C64.1696 62.7504 64.1976 63.0184 64.2516 63.1104H63.8386C63.8286 63.0184 63.7636 62.5204 63.7636 62.4934C63.7376 62.3824 63.6996 62.3274 63.5616 62.3274H63.2216V63.1104H62.8436V61.1584H63.5156C63.7456 61.1584 64.1976 61.1584 64.1976 61.6734C64.1976 62.0334 63.9676 62.1064 63.8286 62.1524ZM20.8828 38.4646C21.2418 38.6706 21.4608 39.0526 21.4608 39.4696L21.4428 54.3066C21.4428 54.5126 21.3308 54.7046 21.1548 54.8056C20.9778 54.9116 20.7558 54.9116 20.5768 54.8056L14.8878 51.5476C14.5298 51.3356 14.3088 50.9566 14.3088 50.5436V43.6116C14.3088 43.1986 14.0888 42.8166 13.7308 42.6106L11.3078 41.2156C11.1328 41.1106 10.9298 41.0606 10.7328 41.0606C10.5308 41.0606 10.3338 41.1106 10.1538 41.2156L7.73076 42.6106C7.37176 42.8166 7.15376 43.1986 7.15376 43.6116V50.5436C7.15376 50.9566 6.93376 51.3336 6.57376 51.5476L0.883756 54.8056C0.706756 54.9116 0.486756 54.9116 0.309756 54.8056C0.128756 54.7046 0.0207559 54.5126 0.0207559 54.3066L-0.000244141 39.4696C-0.000244141 39.0526 0.221756 38.6706 0.578756 38.4646L10.1538 32.9536C10.3178 32.8596 10.4988 32.8096 10.6818 32.8016H10.7808C10.9648 32.8096 11.1468 32.8596 11.3078 32.9536L20.8828 38.4646ZM66.6416 47.195V43.397C66.6416 43.295 66.5866 43.199 66.4966 43.147L63.2086 41.248C63.1196 41.196 63.0086 41.196 62.9186 41.248L59.6306 43.147C59.5406 43.199 59.4866 43.295 59.4866 43.397V47.195C59.4866 47.298 59.5406 47.393 59.6306 47.445L62.9196 49.341C63.0086 49.392 63.1196 49.392 63.2076 49.341L66.4966 47.445C66.5866 47.393 66.6416 47.298 66.6416 47.195ZM73.2306 22.254C73.5966 22.458 73.8236 22.844 73.8236 23.263V50.828C73.8236 51.241 73.6026 51.623 73.2456 51.83L63.6656 57.361C63.3076 57.568 62.8676 57.568 62.5086 57.361L52.9306 51.83C52.5736 51.623 52.3526 51.241 52.3526 50.828V39.77C52.3526 39.357 52.5736 38.975 52.9316 38.768L62.5096 33.241C62.8676 33.035 63.3076 33.034 63.6646 33.24L66.0636 34.622C66.1886 34.694 66.3426 34.694 66.4676 34.622C66.5926 34.549 66.6696 34.416 66.6696 34.271V19.578C66.6696 19.373 66.7796 19.183 66.9546 19.079C67.1326 18.975 67.3516 18.973 67.5306 19.073L73.2306 22.254ZM99.4238 38.6179C99.7798 38.8249 99.9998 39.2059 99.9998 39.6179V42.2979C99.9998 42.7099 99.7798 43.0909 99.4248 43.2979L93.6898 46.6319C93.5108 46.7349 93.2898 46.7359 93.1108 46.6329C92.9318 46.5289 92.8198 46.3389 92.8198 46.1319V43.4059C92.8198 43.1989 92.7108 43.0079 92.5308 42.9049L89.5308 41.1759C89.3528 41.0729 89.1318 41.0729 88.9528 41.1759L85.9548 42.9049C85.7758 43.0079 85.6648 43.1989 85.6648 43.4059V46.8699C85.6648 47.0769 85.7758 47.2679 85.9558 47.3719L95.5918 52.9019C95.7728 53.0059 95.8828 53.1989 95.8818 53.4079C95.8808 53.6159 95.7668 53.8069 95.5838 53.9089L89.8288 57.1079C89.4758 57.3049 89.0458 57.3029 88.6948 57.1009L79.1798 51.6799C78.8188 51.4739 78.5958 51.0909 78.5958 50.6749V39.6199C78.5958 39.2069 78.8158 38.8249 79.1738 38.6189L88.7478 33.0909C89.1078 32.8839 89.5488 32.8849 89.9068 33.0929L99.4238 38.6179ZM89.1865 42.78C89.2555 42.74 89.3395 42.74 89.4085 42.78L91.2475 43.841C91.3155 43.881 91.3575 43.953 91.3575 44.033V46.155C91.3575 46.234 91.3155 46.307 91.2475 46.347L89.4085 47.408C89.3395 47.447 89.2555 47.447 89.1865 47.408L87.3505 46.347C87.2815 46.307 87.2395 46.234 87.2395 46.155V44.033C87.2395 43.953 87.2815 43.881 87.3505 43.841L89.1865 42.78ZM36.0151 31.1276L36.0591 31.2026H35.8841L36.0151 31.1276ZM47.9175 51.4616L47.8545 51.4986L37.2645 57.6286L37.0745 57.2826C37.0525 57.2856 37.0295 57.2786 37.0075 57.2806C36.9425 57.2866 36.8785 57.2866 36.8145 57.2806C36.7895 57.2786 36.7665 57.2766 36.7415 57.2736C36.7175 57.2706 36.6945 57.2676 36.6705 57.2626C36.5535 57.2376 36.4385 57.2006 36.3325 57.1396L35.0025 56.3716L26.7715 51.6386C26.6605 51.5746 26.5645 51.4896 26.4765 51.3966C26.4685 51.3886 26.4585 51.3826 26.4505 51.3746C26.4385 51.3606 26.4335 51.3436 26.4215 51.3296C26.3605 51.2546 26.3095 51.1746 26.2675 51.0876C26.2535 51.0586 26.2385 51.0306 26.2275 51.0006C26.1835 50.8856 26.1535 50.7676 26.1535 50.6426V39.6416C26.1535 39.2306 26.4125 38.8506 26.7685 38.6456L36.3135 33.1486C36.3545 33.1246 36.4015 33.1206 36.4445 33.1026C36.5155 33.0706 36.5855 33.0436 36.6605 33.0266C36.6805 33.0236 36.6995 33.0136 36.7195 33.0106C36.7455 33.0066 36.7705 33.0116 36.7955 33.0096C36.8955 32.9996 36.9955 33.0026 37.0945 33.0196C37.1045 33.0206 37.1135 33.0176 37.1225 33.0196C37.1265 33.0206 37.1305 33.0236 37.1355 33.0246C37.2555 33.0486 37.3735 33.0856 37.4825 33.1486L40.7645 35.0426L47.0245 38.6456C47.1175 38.6986 47.2015 38.7646 47.2765 38.8396C47.2775 38.8406 47.2795 38.8406 47.2805 38.8416C47.2835 38.8456 47.2855 38.8506 47.2885 38.8546C47.3775 38.9446 47.4475 39.0516 47.5045 39.1646C47.5195 39.1926 47.5315 39.2216 47.5435 39.2516C47.5935 39.3756 47.6285 39.5046 47.6285 39.6416V50.6426C47.6285 50.7326 47.6145 50.8206 47.5925 50.9066L47.8545 51.3546L47.9175 51.4616Z" fill="black"/>
</svg>
