<?xml version="1.0" encoding="UTF-8"?>
<svg width="100px" height="100px" viewBox="0 0 100 100" version="1.1" xmlns="http://www.w3.org/2000/svg" xmlns:xlink="http://www.w3.org/1999/xlink">
    <!-- Generator: Sketch 57.1 (83088) - https://sketch.com -->
    <title>brand/node-brand</title>
    <desc>Created with Sketch.</desc>
    <g id="brand/node" stroke="none" stroke-width="1" fill="none" fill-rule="evenodd">
        <path d="M59.4072,61.0614 C59.9922,61.3994 60.3552,62.0304 60.3552,62.7074 L60.3552,73.1294 C60.3552,73.8064 59.9922,74.4364 59.4072,74.7774 L50.3772,79.9914 C50.0882,80.1584 49.7612,80.2444 49.4262,80.2444 C49.0962,80.2444 48.7672,80.1584 48.4792,79.9914 L45.4642,78.2074 C45.0132,77.9554 45.2342,77.8664 45.3822,77.8144 C45.9832,77.6054 46.1042,77.5574 46.7452,77.1944 C46.8122,77.1564 46.9002,77.1704 46.9692,77.2104 L49.2862,78.5854 C49.3702,78.6324 49.4882,78.6324 49.5662,78.5854 L58.5962,73.3744 C58.6802,73.3264 58.7342,73.2294 58.7342,73.1294 L58.7342,62.7074 C58.7342,62.6054 58.6802,62.5104 58.5952,62.4584 L49.5672,57.2504 C49.4842,57.2024 49.3732,57.2024 49.2892,57.2504 L40.2642,62.4594 C40.1762,62.5104 40.1212,62.6084 40.1212,62.7074 L40.1212,73.1294 C40.1212,73.2294 40.1762,73.3244 40.2632,73.3714 L42.7372,74.8004 C44.0792,75.4714 44.9012,74.6804 44.9012,73.8864 L44.9012,63.5964 C44.9012,63.4514 45.0182,63.3364 45.1642,63.3364 L46.3092,63.3364 C46.4522,63.3364 46.5712,63.4514 46.5712,63.5964 L46.5712,73.8864 C46.5712,75.6784 45.5952,76.7064 43.8962,76.7064 C43.3742,76.7064 42.9642,76.7064 41.8162,76.1404 L39.4482,74.7774 C38.8632,74.4384 38.5012,73.8064 38.5012,73.1294 L38.5012,62.7074 C38.5012,62.0304 38.8632,61.3984 39.4482,61.0614 L48.4792,55.8434 C49.0512,55.5204 49.8102,55.5204 50.3772,55.8434 L59.4072,61.0614 Z M52.2158,71.4784 C54.1178,71.4784 54.9278,71.0474 54.9278,70.0384 C54.9278,69.4574 54.6978,69.0244 51.7418,68.7354 C49.2708,68.4914 47.7428,67.9454 47.7428,65.9674 C47.7428,64.1454 49.2778,63.0594 51.8538,63.0594 C54.7468,63.0594 56.1778,64.0634 56.3598,66.2174 C56.3658,66.2914 56.3398,66.3634 56.2908,66.4184 C56.2408,66.4704 56.1718,66.5014 56.0998,66.5014 L54.9278,66.5014 C54.8058,66.5014 54.6978,66.4164 54.6738,66.2974 C54.3928,65.0464 53.7088,64.6474 51.8538,64.6474 C49.7768,64.6474 49.5348,65.3714 49.5348,65.9134 C49.5348,66.5704 49.8198,66.7614 52.6248,67.1324 C55.3998,67.4994 56.7178,68.0194 56.7178,69.9694 C56.7178,71.9374 55.0768,73.0644 52.2158,73.0644 C48.2638,73.0644 47.4358,71.2494 47.4358,69.7284 C47.4358,69.5834 47.5518,69.4684 47.6968,69.4684 L48.8648,69.4684 C48.9948,69.4684 49.1038,69.5624 49.1238,69.6894 C49.2998,70.8774 49.8258,71.4784 52.2158,71.4784 Z M63.4932,63.5937 C64.3042,63.5937 64.9572,62.9257 64.9572,62.1297 C64.9572,61.3197 64.2942,60.6747 63.4932,60.6747 C62.7012,60.6747 62.0382,61.3097 62.0382,62.1297 C62.0382,62.9407 62.6912,63.5937 63.4932,63.5937 Z M63.4972,60.3937 C64.4362,60.3937 65.2372,61.1497 65.2372,62.1347 C65.2372,63.0917 64.4552,63.8747 63.4972,63.8747 C62.5492,63.8747 61.7572,63.1017 61.7572,62.1347 C61.7572,61.1497 62.5672,60.3937 63.4972,60.3937 Z M63.5156,62.0146 C63.7636,62.0146 63.8106,61.8396 63.8106,61.7386 C63.8106,61.4706 63.6256,61.4706 63.5256,61.4706 L63.2116,61.4706 L63.2116,62.0146 L63.5156,62.0146 Z M63.8286,62.1526 C64.0966,62.1706 64.1146,62.3456 64.1516,62.5946 C64.1696,62.7506 64.1976,63.0186 64.2516,63.1106 L63.8386,63.1106 C63.8286,63.0186 63.7636,62.5206 63.7636,62.4936 C63.7376,62.3826 63.6996,62.3276 63.5616,62.3276 L63.2216,62.3276 L63.2216,63.1106 L62.8436,63.1106 L62.8436,61.1586 L63.5156,61.1586 C63.7456,61.1586 64.1976,61.1586 64.1976,61.6736 C64.1976,62.0336 63.9676,62.1066 63.8286,62.1526 Z M20.8828,38.4648 C21.2418,38.6708 21.4608,39.0528 21.4608,39.4698 L21.4428,54.3068 C21.4428,54.5128 21.3308,54.7048 21.1548,54.8058 C20.9778,54.9118 20.7558,54.9118 20.5768,54.8058 L14.8878,51.5478 C14.5298,51.3358 14.3088,50.9568 14.3088,50.5438 L14.3088,43.6118 C14.3088,43.1988 14.0888,42.8168 13.7308,42.6108 L11.3078,41.2158 C11.1328,41.1108 10.9298,41.0608 10.7328,41.0608 C10.5308,41.0608 10.3338,41.1108 10.1538,41.2158 L7.7308,42.6108 C7.3718,42.8168 7.1538,43.1988 7.1538,43.6118 L7.1538,50.5438 C7.1538,50.9568 6.9338,51.3338 6.5738,51.5478 L0.8838,54.8058 C0.7068,54.9118 0.4868,54.9118 0.3098,54.8058 C0.1288,54.7048 0.0208,54.5128 0.0208,54.3068 L-0.0002,39.4698 C-0.0002,39.0528 0.2218,38.6708 0.5788,38.4648 L10.1538,32.9538 C10.3178,32.8598 10.4988,32.8098 10.6818,32.8018 L10.7808,32.8018 C10.9648,32.8098 11.1468,32.8598 11.3078,32.9538 L20.8828,38.4648 Z M66.6416,47.1952 L66.6416,43.3972 C66.6416,43.2952 66.5866,43.1992 66.4966,43.1472 L63.2086,41.2482 C63.1196,41.1962 63.0086,41.1962 62.9186,41.2482 L59.6306,43.1472 C59.5406,43.1992 59.4866,43.2952 59.4866,43.3972 L59.4866,47.1952 C59.4866,47.2982 59.5406,47.3932 59.6306,47.4452 L62.9196,49.3412 C63.0086,49.3922 63.1196,49.3922 63.2076,49.3412 L66.4966,47.4452 C66.5866,47.3932 66.6416,47.2982 66.6416,47.1952 Z M73.2306,22.2542 C73.5966,22.4582 73.8236,22.8442 73.8236,23.2632 L73.8236,50.8282 C73.8236,51.2412 73.6026,51.6232 73.2456,51.8302 L63.6656,57.3612 C63.3076,57.5682 62.8676,57.5682 62.5086,57.3612 L52.9306,51.8302 C52.5736,51.6232 52.3526,51.2412 52.3526,50.8282 L52.3526,39.7702 C52.3526,39.3572 52.5736,38.9752 52.9316,38.7682 L62.5096,33.2412 C62.8676,33.0352 63.3076,33.0342 63.6646,33.2402 L66.0636,34.6222 C66.1886,34.6942 66.3426,34.6942 66.4676,34.6222 C66.5926,34.5492 66.6696,34.4162 66.6696,34.2712 L66.6696,19.5782 C66.6696,19.3732 66.7796,19.1832 66.9546,19.0792 C67.1326,18.9752 67.3516,18.9732 67.5306,19.0732 L73.2306,22.2542 Z M99.4238,38.6181 C99.7798,38.8251 99.9998,39.2061 99.9998,39.6181 L99.9998,42.2981 C99.9998,42.7101 99.7798,43.0911 99.4248,43.2981 L93.6898,46.6321 C93.5108,46.7351 93.2898,46.7361 93.1108,46.6331 C92.9318,46.5291 92.8198,46.3391 92.8198,46.1321 L92.8198,43.4061 C92.8198,43.1991 92.7108,43.0081 92.5308,42.9051 L89.5308,41.1761 C89.3528,41.0731 89.1318,41.0731 88.9528,41.1761 L85.9548,42.9051 C85.7758,43.0081 85.6648,43.1991 85.6648,43.4061 L85.6648,46.8701 C85.6648,47.0771 85.7758,47.2681 85.9558,47.3721 L95.5918,52.9021 C95.7728,53.0061 95.8828,53.1991 95.8818,53.4081 C95.8808,53.6161 95.7668,53.8071 95.5838,53.9091 L89.8288,57.1081 C89.4758,57.3051 89.0458,57.3031 88.6948,57.1011 L79.1798,51.6801 C78.8188,51.4741 78.5958,51.0911 78.5958,50.6751 L78.5958,39.6201 C78.5958,39.2071 78.8158,38.8251 79.1738,38.6191 L88.7478,33.0911 C89.1078,32.8841 89.5488,32.8851 89.9068,33.0931 L99.4238,38.6181 Z M89.1865,42.7802 C89.2555,42.7402 89.3395,42.7402 89.4085,42.7802 L91.2475,43.8412 C91.3155,43.8812 91.3575,43.9532 91.3575,44.0332 L91.3575,46.1552 C91.3575,46.2342 91.3155,46.3072 91.2475,46.3472 L89.4085,47.4082 C89.3395,47.4472 89.2555,47.4472 89.1865,47.4082 L87.3505,46.3472 C87.2815,46.3072 87.2395,46.2342 87.2395,46.1552 L87.2395,44.0332 C87.2395,43.9532 87.2815,43.8812 87.3505,43.8412 L89.1865,42.7802 Z M36.0151,31.1278 L36.0591,31.2028 L35.8841,31.2028 L36.0151,31.1278 Z M47.9175,51.4618 L47.8545,51.4988 L37.2645,57.6288 L37.0745,57.2828 C37.0525,57.2858 37.0295,57.2788 37.0075,57.2808 C36.9425,57.2868 36.8785,57.2868 36.8145,57.2808 C36.7895,57.2788 36.7665,57.2768 36.7415,57.2738 C36.7175,57.2708 36.6945,57.2678 36.6705,57.2628 C36.5535,57.2378 36.4385,57.2008 36.3325,57.1398 L35.0025,56.3718 L26.7715,51.6388 C26.6605,51.5748 26.5645,51.4898 26.4765,51.3968 C26.4685,51.3888 26.4585,51.3828 26.4505,51.3748 C26.4385,51.3608 26.4335,51.3438 26.4215,51.3298 C26.3605,51.2548 26.3095,51.1748 26.2675,51.0878 C26.2535,51.0588 26.2385,51.0308 26.2275,51.0008 C26.1835,50.8858 26.1535,50.7678 26.1535,50.6428 L26.1535,39.6418 C26.1535,39.2308 26.4125,38.8508 26.7685,38.6458 L36.3135,33.1488 C36.3545,33.1248 36.4015,33.1208 36.4445,33.1028 C36.5155,33.0708 36.5855,33.0438 36.6605,33.0268 C36.6805,33.0238 36.6995,33.0138 36.7195,33.0108 C36.7455,33.0068 36.7705,33.0118 36.7955,33.0098 C36.8955,32.9998 36.9955,33.0028 37.0945,33.0198 C37.1045,33.0208 37.1135,33.0178 37.1225,33.0198 C37.1265,33.0208 37.1305,33.0238 37.1355,33.0248 C37.2555,33.0488 37.3735,33.0858 37.4825,33.1488 L40.7645,35.0428 L47.0245,38.6458 C47.1175,38.6988 47.2015,38.7648 47.2765,38.8398 C47.2775,38.8408 47.2795,38.8408 47.2805,38.8418 C47.2835,38.8458 47.2855,38.8508 47.2885,38.8548 C47.3775,38.9448 47.4475,39.0518 47.5045,39.1648 C47.5195,39.1928 47.5315,39.2218 47.5435,39.2518 C47.5935,39.3758 47.6285,39.5048 47.6285,39.6418 L47.6285,50.6428 C47.6285,50.7328 47.6145,50.8208 47.5925,50.9068 L47.8545,51.3548 L47.9175,51.4618 Z" id="Shape" fill="#000000"></path>
    </g>
</svg>