<?xml version="1.0" encoding="UTF-8"?>
<svg width="100px" height="100px" viewBox="0 0 100 100" version="1.1" xmlns="http://www.w3.org/2000/svg" xmlns:xlink="http://www.w3.org/1999/xlink">
    <!-- Generator: Sketch 57.1 (83088) - https://sketch.com -->
    <title>solid/not-allowed-solid</title>
    <desc>Created with Sketch.</desc>
    <g id="solid/not-allowed" stroke="none" stroke-width="1" fill="none" fill-rule="evenodd">
        <path d="M85.91,15.26 C85.7366548,15.0448275 85.5495991,14.8410705 85.35,14.65 C85.1589295,14.4504009 84.9551724,14.2633452 84.74,14.09 C65.0170791,-4.06797986 34.4831074,-3.43969873 15.5238182,15.5142241 C-3.43547102,34.468147 -4.07239586,65.0019397 14.08,84.73 C14.4425249,85.1593991 14.8406009,85.5574751 15.27,85.92 C34.9980603,104.072396 65.531853,103.435471 84.4857758,84.4761818 C103.439699,65.5168926 104.06798,34.9829209 85.91,15.26 L85.91,15.26 Z M16.6699773,50 C16.6631297,38.0370891 23.0718168,26.98919 33.4598058,21.0561495 C43.8477948,15.123109 56.6195872,15.216187 66.92,21.3 L21.3,66.92 C18.2625772,61.7992415 16.6630341,55.953827 16.6699773,50 L16.6699773,50 Z M50,83.3300227 C44.046173,83.3369659 38.2007585,81.7374228 33.08,78.7 L78.7,33.08 C84.783813,43.3804128 84.876891,56.1522052 78.9438505,66.5401942 C73.01081,76.9281832 61.9629109,83.3368703 50,83.3300227 Z" id="not-allowed" fill="#000000"></path>
    </g>
</svg>