<?xml version="1.0" encoding="UTF-8"?>
<svg width="100px" height="100px" viewBox="0 0 100 100" version="1.1" xmlns="http://www.w3.org/2000/svg" xmlns:xlink="http://www.w3.org/1999/xlink">
    <!-- Generator: Sketch 57.1 (83088) - https://sketch.com -->
    <title>bold/not-equal-bold</title>
    <desc>Created with Sketch.</desc>
    <g id="bold/not-equal" stroke="none" stroke-width="1" fill="none" fill-rule="evenodd">
        <path d="M85.0973353,11.7773107 C86.6811376,12.1801983 87.9178409,13.4169016 88.3207285,15.0007039 C88.7236161,16.5845063 88.228183,18.2618304 87.0294118,19.372549 L19.2745098,87.127451 C18.4411224,87.9640379 17.3083015,88.4333998 16.1274509,88.4313856 C14.3259114,88.4295304 12.7023197,87.3442167 12.0118564,85.680243 C11.321393,84.0162692 11.6996103,82.100308 12.9705882,80.8235294 L80.7254902,13.0686274 C81.8362088,11.8698562 83.513533,11.3744231 85.0973353,11.7773107 Z M5.21791474,60.4852954 L5.44117643,60.4901961 L23.8529412,60.4901961 L14.9411764,69.4019608 L5.44117643,69.4019608 C3.79937902,69.478993 2.24823016,68.6469562 1.40428423,67.2365704 C0.560338289,65.8261847 0.560338289,64.0659722 1.40428423,62.6555865 C2.1715078,61.3734176 3.5231966,60.5692231 4.99612421,60.4914777 L5.21791474,60.4852954 Z M98.5957158,62.6555865 C99.4396617,64.0659722 99.4396617,65.8261847 98.5957158,67.2365704 C97.790131,68.5828477 96.3401734,69.4021583 94.7820853,69.4068615 L94.5588236,69.4019608 L46.4313725,69.4019608 L55.3431373,60.4901961 L94.5588236,60.4901961 C96.200621,60.4131639 97.7517698,61.2452007 98.5957158,62.6555865 Z M5.21791474,30.7892169 L5.44117643,30.7941176 L53.5490196,30.7941176 L44.6372549,39.7058823 L5.44117643,39.7058823 C3.79937902,39.7829145 2.24823016,38.9508777 1.40428423,37.540492 C0.560338289,36.1301062 0.560338289,34.3698937 1.40428423,32.959508 C2.1715078,31.6773391 3.5231966,30.8731446 4.99612421,30.7953993 L5.21791474,30.7892169 Z M98.5957158,32.959508 C99.4396617,34.3698937 99.4396617,36.1301062 98.5957158,37.540492 C97.790131,38.8867693 96.3401734,39.7060799 94.7820853,39.7107831 L94.5588236,39.7058823 L76.1470588,39.7058823 L85.0588236,30.7941176 L94.5588236,30.7941176 C96.200621,30.7170855 97.7517698,31.5491223 98.5957158,32.959508 Z" id="Shape" fill="#000000"></path>
    </g>
</svg>