<?xml version="1.0" encoding="UTF-8"?>
<svg width="100px" height="100px" viewBox="0 0 100 100" version="1.1" xmlns="http://www.w3.org/2000/svg" xmlns:xlink="http://www.w3.org/1999/xlink">
    <!-- Generator: Sketch 57.1 (83088) - https://sketch.com -->
    <title>regular/not-equal-regular</title>
    <desc>Created with Sketch.</desc>
    <g id="regular/not-equal" stroke="none" stroke-width="1" fill="none" fill-rule="evenodd">
        <path d="M87.7839192,11.7960808 C88.6749164,12.6870779 88.7170427,14.1181341 87.88,15.06 L15.48,87.46 C15.0374017,87.9104738 14.4315151,88.1629266 13.8,88.1600499 C13.1684848,88.1629266 12.5625983,87.9104738 12.12,87.46 C11.6729902,87.0152052 11.4216758,86.410603 11.4216758,85.78 C11.4216758,85.149397 11.6729902,84.5447949 12.12,84.1 L84.52,11.7 C85.4618659,10.8629573 86.8929221,10.9050836 87.7839192,11.7960808 Z M23.05,63.06 L18.29,67.82 L2.37999995,67.82 C1.06556225,67.82 -5.00002422e-08,66.7544377 -5.00002422e-08,65.44 C-5.00002422e-08,64.1803305 0.978615323,63.1492289 2.21705054,63.0654907 L2.37999995,63.06 L23.05,63.06 Z M50,63.06 L97.62,63.06 C98.9344378,63.06 100,64.1255623 100,65.44 C100,66.6996695 99.0213847,67.7307711 97.7829495,67.8145093 L97.62,67.82 L45.24,67.82 L50,63.06 L97.62,63.06 L50,63.06 Z M54.77,31.34 L50,36.1 L2.37999995,36.1 C1.06556225,36.1 -4.99998905e-08,35.0344377 -4.99998905e-08,33.72 C-4.99998905e-08,32.4603305 0.978615323,31.4292289 2.21705054,31.3454907 L2.37999995,31.34 L54.77,31.34 Z M97.62,31.34 C98.9344378,31.34 100,32.4055623 100,33.72 C100,34.9796695 99.0213847,36.0107711 97.7829495,36.0945093 L97.62,36.1 L77,36.1 L81.71,31.34 L97.62,31.34 Z" id="Shape" fill="#000000"></path>
    </g>
</svg>