<svg width="100" height="100" viewBox="0 0 100 100" fill="none" xmlns="http://www.w3.org/2000/svg">
<g clip-path="url(#clip0)">
<path d="M11.5181 86.7898C11.9722 87.8851 13.0374 88.6027 14.2231 88.6119C15.0053 88.6101 15.7547 88.2968 16.3054 87.7413L87.8584 16.2001C89.0084 15.05 89.0084 13.1854 87.8584 12.0354C86.7083 10.8853 84.8437 10.8853 83.6937 12.0354L12.1407 83.5883C11.3093 84.4337 11.0641 85.6944 11.5181 86.7898Z" fill="black"/>
<path d="M2.94118 31.2705H58.6353L52.7529 37.1529H2.94118C1.31681 37.1529 0 35.8361 0 34.2117C0 32.5873 1.31681 31.2705 2.94118 31.2705Z" fill="black"/>
<path d="M27.2824 62.623H2.94118C1.31681 62.623 0 63.9399 0 65.5642C0 67.1886 1.31681 68.5054 2.94118 68.5054H21.4L27.2824 62.623Z" fill="black"/>
<path d="M97.0584 62.623H47.2466L41.3643 68.5054H97.0584C98.6827 68.5054 99.9996 67.1886 99.9996 65.5642C99.9996 63.9399 98.6827 62.623 97.0584 62.623Z" fill="black"/>
<path d="M97.059 31.2705H78.6001L72.7178 37.1529H97.059C98.6833 37.1529 100 35.8361 100 34.2117C100 32.5873 98.6833 31.2705 97.059 31.2705Z" fill="black"/>
</g>
<defs>
<clipPath id="clip0">
<rect width="100" height="100" fill="white"/>
</clipPath>
</defs>
</svg>
