<svg width="100" height="100" viewBox="0 0 100 100" fill="none" xmlns="http://www.w3.org/2000/svg">
<path d="M10.6289 84.7645C11.919 87.8756 14.9549 89.9044 18.3229 89.9059C20.5337 89.9076 22.6546 89.0308 24.2187 87.4684L87.5625 24.1246C90.8186 20.8713 90.821 15.5944 87.5677 12.3382C84.3144 9.08201 79.0374 9.07968 75.7812 12.333L12.4271 75.6871C10.0484 78.0716 9.3389 81.6534 10.6289 84.7645Z" fill="black"/>
<path d="M40.8125 44.3542L57.4792 27.6875H8.33333C3.73096 27.6875 0 31.4185 0 36.0208C0 40.6232 3.73096 44.3542 8.33333 44.3542H40.8125Z" fill="black"/>
<path d="M91.6667 27.6875H86.9479L70.2812 44.3542H91.6667C96.269 44.3542 100 40.6232 100 36.0208C100 31.4185 96.269 27.6875 91.6667 27.6875Z" fill="black"/>
<path d="M8.33333 55.4482H29.7188L13.0521 72.1149H8.33333C3.73096 72.1149 0 68.3839 0 63.7816C0 59.1792 3.73096 55.4482 8.33333 55.4482Z" fill="black"/>
<path d="M91.6663 55.4482H59.1872L42.5205 72.1149H91.6663C96.2687 72.1149 99.9997 68.3839 99.9997 63.7816C99.9997 59.1792 96.2687 55.4482 91.6663 55.4482Z" fill="black"/>
</svg>
