<svg width="100" height="100" viewBox="0 0 100 100" fill="none" xmlns="http://www.w3.org/2000/svg">
<g clip-path="url(#clip0)">
<path d="M86.5373 14.6535C86.3644 14.4326 86.1767 14.2237 85.9756 14.0281C85.7742 13.8268 85.5728 13.6466 85.3608 13.4664C65.2971 -5.02514 34.2168 -4.39831 14.9152 14.8872C-4.38646 34.1726 -5.03626 65.2492 13.4424 85.3245C13.6225 85.5524 13.8172 85.7684 14.0254 85.971C14.2271 86.1762 14.4394 86.3708 14.6613 86.5539C34.7359 105.034 65.8158 104.388 85.106 85.0916C104.396 65.7948 105.028 34.7178 86.5373 14.6535ZM50.0005 16.0842C56.0573 16.0754 62.0044 17.7011 67.2142 20.79L20.7879 67.2116C14.6126 56.7279 14.5267 43.7399 20.5628 33.1755C26.599 22.6111 37.8323 16.0891 50.0005 16.0842ZM50.0005 83.9149C43.9443 83.9185 37.9986 82.2932 32.7867 79.2092L79.213 32.7875C85.3884 43.2712 85.4743 56.2593 79.4381 66.8237C73.4019 77.3881 62.1687 83.91 50.0005 83.9149Z" fill="black"/>
</g>
<defs>
<clipPath id="clip0">
<rect width="100" height="100" fill="white"/>
</clipPath>
</defs>
</svg>
