<svg width="100" height="100" viewBox="0 0 100 100" fill="none" xmlns="http://www.w3.org/2000/svg">
<g clip-path="url(#clip0)">
<path d="M85.4116 14.987C85.3132 14.8237 85.1763 14.6868 85.013 14.5884C65.5674 -4.86049 34.0372 -4.86312 14.5884 14.5825C-4.8605 34.0281 -4.86312 65.5583 14.5825 85.0071C14.6411 85.0775 14.6997 85.1596 14.7701 85.2299L14.9929 85.4175C34.4417 104.863 65.9719 104.86 85.4175 85.4116C104.863 65.9628 104.86 34.4326 85.4116 14.987ZM50.0029 6.02928C60.6484 6.02165 70.9317 9.89405 78.9279 16.9216L16.9274 78.922C5.55465 65.9485 2.82801 47.5194 9.95689 31.8086C17.0858 16.0978 32.7504 6.01383 50.0029 6.02928ZM50.0029 93.9649C39.3575 93.9725 29.0742 90.1001 21.078 83.0726L83.0784 21.0721C94.4512 34.0456 97.1778 52.4747 90.049 68.1855C82.9201 83.8963 67.2555 93.9803 50.0029 93.9649Z" fill="black"/>
</g>
<defs>
<clipPath id="clip0">
<rect width="100" height="100" fill="white"/>
</clipPath>
</defs>
</svg>
