<?xml version="1.0" encoding="UTF-8"?>
<svg width="100px" height="100px" viewBox="0 0 100 100" version="1.1" xmlns="http://www.w3.org/2000/svg" xmlns:xlink="http://www.w3.org/1999/xlink">
    <!-- Generator: Sketch 57.1 (83088) - https://sketch.com -->
    <title>regular/paperclip-regular</title>
    <desc>Created with Sketch.</desc>
    <g id="regular/paperclip" stroke="none" stroke-width="1" fill="none" fill-rule="evenodd">
        <path d="M17.2475247,100.000012 C11.6749541,99.9976579 6.65213391,96.6397659 4.51992032,91.4912501 C2.38770673,86.3427344 3.56571863,80.4168211 7.50495045,76.4752476 L62.7029703,21.2772277 C66.1600468,18.0798875 71.5248375,18.182404 74.8572379,21.5094853 C78.1896382,24.8365666 78.3007246,30.2011867 75.1089109,33.6633663 L37.1980198,71.5940594 C36.6019876,72.1900916 35.7332517,72.4228687 34.9190566,72.2047058 C34.1048615,71.9865429 33.4689027,71.3505841 33.2507398,70.536389 C33.0325768,69.7221938 33.2653539,68.853458 33.8613861,68.2574258 L71.7821782,30.3465346 C72.8644555,29.3329041 73.3079401,27.8098077 72.9389847,26.3736173 C72.5700293,24.9374269 71.4473442,23.8166774 70.0105192,23.4502009 C68.5736943,23.0837243 67.0513654,23.5298366 66.039604,24.6138614 L10.8316831,79.8118812 C7.27737533,83.366189 7.27737533,89.1288606 10.8316831,92.6831684 C14.3859909,96.2374762 20.1486625,96.2374762 23.7029703,92.6831684 L86.7821783,29.5148515 C90.454174,26.022609 91.943666,20.8137871 90.6730811,15.9081858 C89.4024961,11.0025845 85.571673,7.17176132 80.6660716,5.90117635 C75.7604703,4.63059138 70.5516484,6.12008338 67.059406,9.79207917 L11.2475247,65.6039604 C10.3261388,66.5253464 8.83227699,66.5253464 7.91089105,65.6039604 C6.9895051,64.6825745 6.9895051,63.1887127 7.91089105,62.2673267 L63.7227723,6.4554455 C71.0118374,-0.833619571 82.8297468,-0.833619571 90.1188119,6.4554455 C97.407877,13.7445106 97.407877,25.5624201 90.1188119,32.8514851 L27,95.9702971 C24.413094,98.5550296 20.9044226,100.004806 17.2475247,100.000012 Z" id="paperclip" fill="#000000"></path>
    </g>
</svg>