<?xml version="1.0" encoding="UTF-8"?>
<svg width="100px" height="100px" viewBox="0 0 100 100" version="1.1" xmlns="http://www.w3.org/2000/svg" xmlns:xlink="http://www.w3.org/1999/xlink">
    <!-- Generator: Sketch 57.1 (83088) - https://sketch.com -->
    <title>solid/paperclip-solid</title>
    <desc>Created with Sketch.</desc>
    <g id="solid/paperclip" stroke="none" stroke-width="1" fill="none" fill-rule="evenodd">
        <path d="M35.7821782,100.000024 C25.1632153,100.003686 15.5882274,93.6086384 11.5240276,83.7982018 C7.45982769,73.9877652 9.70723768,62.6950166 17.2178217,55.1881188 L49.8118812,22.6039604 C56.8384743,15.5773673 68.2308327,15.5773673 75.2574258,22.6039604 C82.2840189,29.6305535 82.2840189,41.0229118 75.2574258,48.0495049 L49.3267327,73.990099 C46.4258707,76.8909609 41.7226442,76.8909609 38.8217822,73.990099 C35.9209203,71.089237 35.9209203,66.3860105 38.8217822,63.4851485 L64.7623763,37.5544554 C65.9927135,36.3241181 65.9927135,34.3293472 64.7623762,33.0990099 C63.5320389,31.8686726 61.537268,31.8686726 60.3069307,33.0990099 L27.7128713,65.6930693 C23.2590502,70.1496245 23.2612666,77.3729116 27.7178218,81.8267327 C32.1743769,86.2805538 39.3976641,86.2783374 43.8514851,81.8217822 L76.6534654,49.019802 C84.2056574,41.4198946 84.1874318,29.1429438 76.6127085,21.5654929 C69.0379852,13.9880419 56.7610418,13.9653962 49.1584158,21.5148515 L15.1485148,55.5247525 C12.2334884,58.33756 7.60200272,58.2951446 4.73898056,55.4294215 C1.8759584,52.5636984 1.83791033,47.9321747 4.6534653,45.019802 L38.6534653,11.0198019 C52.0504717,-2.37720438 73.7713105,-2.37720438 87.1683169,11.0198019 C100.565323,24.4168083 100.565323,46.1376472 87.1683169,59.5346535 L54.3465347,92.3267327 C49.4231533,97.2486099 42.743821,100.009401 35.7821782,100.000024 Z" id="paperclip" fill="#000000"></path>
    </g>
</svg>