<svg width="100" height="100" viewBox="0 0 100 100" fill="none" xmlns="http://www.w3.org/2000/svg">
<path d="M15.4148 100C9.17991 100.005 3.55687 96.5094 1.17182 91.1454C-1.21323 85.7815 0.110325 79.6078 4.52434 75.5076L63.6763 20.4174C67.5941 16.7693 73.9463 16.7693 77.8641 20.4174C81.782 24.0655 81.782 29.9801 77.8641 33.6282L37.2461 71.4608C36.0111 72.6108 34.0088 72.6108 32.7737 71.4608C31.5387 70.3109 31.5387 68.4464 32.7737 67.2964L73.4044 29.4756C74.8163 28.1092 74.8163 25.9482 73.4044 24.5818C71.9369 23.2671 69.6161 23.2671 68.1487 24.5818L8.98411 79.6602C6.68666 81.7974 5.7882 84.9135 6.62717 87.8347C7.46614 90.7559 9.91508 93.0384 13.0515 93.8225C16.1879 94.6065 19.5353 93.773 21.8328 91.6359L89.4873 28.6403C93.4285 25.3445 95.0926 20.2915 93.8133 15.505C92.5339 10.7186 88.5203 6.98132 83.3798 5.79008C78.2394 4.59883 72.8126 6.14839 69.2731 9.81813L9.4263 65.4848C8.63211 66.2482 7.45735 66.5532 6.35351 66.2826C5.24967 66.012 4.38852 65.2079 4.10103 64.1793C3.81353 63.1507 4.14442 62.0577 4.96653 61.3204L64.7754 5.63019C69.9864 0.775928 77.5829 -1.121 84.7032 0.653966C91.8235 2.42893 97.386 7.60613 99.2954 14.2354C101.205 20.8646 99.1707 27.9387 93.9597 32.793L26.3052 95.7885C23.422 98.4865 19.5023 100.002 15.4148 100Z" fill="black"/>
</svg>
