<svg width="100" height="100" viewBox="0 0 100 100" fill="none" xmlns="http://www.w3.org/2000/svg">
<path d="M33.9121 0H43.5356C46.0209 0 48.0356 2.01472 48.0356 4.5V95.5C48.0356 97.9853 46.0209 100 43.5356 100H33.9121C31.4268 100 29.4121 97.9853 29.4121 95.5V4.5C29.4121 2.01472 31.4268 0 33.9121 0Z" fill="black"/>
<path d="M56.0645 0H65.688C68.1733 0 70.188 2.01472 70.188 4.5V95.5C70.188 97.9853 68.1733 100 65.688 100H56.0645C53.5792 100 51.5645 97.9853 51.5645 95.5V4.5C51.5645 2.01472 53.5792 0 56.0645 0Z" fill="black"/>
</svg>
