<?xml version="1.0" encoding="UTF-8"?>
<svg width="100px" height="100px" viewBox="0 0 100 100" version="1.1" xmlns="http://www.w3.org/2000/svg" xmlns:xlink="http://www.w3.org/1999/xlink">
    <!-- Generator: Sketch 57.1 (83088) - https://sketch.com -->
    <title>regular/pause-regular</title>
    <desc>Created with Sketch.</desc>
    <g id="regular/pause" stroke="none" stroke-width="1" fill="none" fill-rule="evenodd">
        <path d="M42.86,-4.9999997e-08 C45.2293016,-4.9999997e-08 47.15,1.92069838 47.15,4.28999995 L47.15,95.71 C47.15,98.0793016 45.2293016,100 42.86,100 L33.79,100 C31.4206984,100 29.5,98.0793016 29.5,95.71 L29.5,4.28999995 C29.5,1.92069838 31.4206984,-4.9999997e-08 33.79,-4.9999997e-08 L42.86,-4.9999997e-08 Z M65.27,-4.9999997e-08 C67.6393016,-4.9999997e-08 69.56,1.92069838 69.56,4.28999995 L69.56,95.71 C69.56,98.0793016 67.6393016,100 65.27,100 L56.2,100 C53.8306984,100 51.91,98.0793016 51.91,95.71 L51.91,4.28999995 C51.91,1.92069838 53.8306984,-4.9999997e-08 56.2,-4.9999997e-08 L65.27,-4.9999997e-08 Z M42.39,4.75999995 L34.26,4.75999995 L34.26,95.24 L42.39,95.24 L42.39,4.75999995 Z M64.8,4.75999995 L56.67,4.75999995 L56.67,95.24 L64.8,95.24 L64.8,4.75999995 Z" id="Shape" fill="#000000"></path>
    </g>
</svg>