<?xml version="1.0" encoding="UTF-8"?>
<svg width="100px" height="100px" viewBox="0 0 100 100" version="1.1" xmlns="http://www.w3.org/2000/svg" xmlns:xlink="http://www.w3.org/1999/xlink">
    <!-- Generator: Sketch 57.1 (83088) - https://sketch.com -->
    <title>bold/pause-bold</title>
    <desc>Created with Sketch.</desc>
    <g id="bold/pause" stroke="none" stroke-width="1" fill="none" fill-rule="evenodd">
        <path d="M42.5,-5.00000041e-08 C46.0102477,0.00550623107 48.8544937,2.84975225 48.86,6.35999996 L48.86,93.64 C48.8544937,97.1502477 46.0102477,99.9944938 42.5,99.9999999 L33.86,99.9999999 C30.3497523,99.9944938 27.5055063,97.1502477 27.5,93.64 L27.5,6.35999996 C27.5055063,2.84975225 30.3497523,0.00550623107 33.86,-5.00000041e-08 L42.5,-5.00000041e-08 Z M65.74,-5.00000041e-08 C69.2502477,0.00550623107 72.0944937,2.84975225 72.1,6.35999996 L72.1,93.64 C72.0944937,97.1502477 69.2502477,99.9944938 65.74,99.9999999 L57.07,99.9999999 C53.5597523,99.9944938 50.7155063,97.1502477 50.71,93.64 L50.71,6.35999996 C50.7155063,2.84975225 53.5597523,0.00550623107 57.07,-5.00000041e-08 L65.74,-5.00000041e-08 Z M39.8,9.08999996 L36.59,9.08999996 L36.59,90.91 L39.8,90.91 L39.8,9.08999996 Z M63.01,9.08999996 L59.8,9.08999996 L59.8,90.91 L63.01,90.91 L63.01,9.08999996 Z" id="Shape" fill="#000000"></path>
    </g>
</svg>