<svg width="100" height="100" viewBox="0 0 100 100" fill="none" xmlns="http://www.w3.org/2000/svg">
<path fill-rule="evenodd" clip-rule="evenodd" d="M51.0703 17.7294C51.0703 27.8471 55.5291 35.4706 61.4115 35.4706C67.3056 35.4706 71.7644 27.8353 71.7644 17.7294C71.7644 7.62353 67.3056 0 61.4115 0C55.5174 0 51.0703 7.61176 51.0703 17.7294ZM56.9527 17.7294C56.9527 10.3882 59.835 5.88235 61.4115 5.88235C62.988 5.88235 65.8821 10.3765 65.8821 17.7294C65.8821 25.0824 62.988 29.5882 61.4115 29.5882C59.835 29.5882 56.9527 25.0706 56.9527 17.7294Z" fill="black"/>
<path fill-rule="evenodd" clip-rule="evenodd" d="M80.0588 54.6468C79.2566 54.6475 78.4603 54.5081 77.7059 54.235C74.753 53.1527 72.8471 50.2115 72.353 45.9409C72.0375 41.89 72.6407 37.8202 74.1177 34.035C75.438 30.1893 77.6143 26.6936 80.4824 23.8115C83.6 20.8585 86.953 19.8233 89.8941 20.9056C95.4353 22.9174 97.0118 31.6115 93.553 41.1056C90.5883 49.3174 85.0588 54.6468 80.0588 54.6468ZM87.5177 26.4115C86.3416 26.619 85.2711 27.2206 84.4824 28.1174C82.2873 30.3796 80.62 33.0995 79.6 36.0821C78.4634 39.0166 77.9933 42.1671 78.2235 45.3056C78.4588 47.388 79.1647 48.5291 79.7412 48.7409C81.2118 49.2938 85.4706 46.035 87.9765 39.1291C90.4824 32.2233 89.3177 27.0115 87.8353 26.4703C87.736 26.4199 87.6284 26.388 87.5177 26.3762V26.4115Z" fill="black"/>
<path fill-rule="evenodd" clip-rule="evenodd" d="M31.4357 99.9997C23.9357 99.9685 17.1309 95.6016 13.9779 88.7966C10.8249 81.9916 11.893 73.9769 16.718 68.235L23.3769 60.3174C24.3458 59.1727 25.1136 57.8719 25.6474 56.4703L28.0004 50.2115C31.2559 41.2189 39.8492 35.2745 49.4121 35.3998C58.964 35.2638 67.5555 41.1882 70.8239 50.1645L73.1768 56.4233C73.714 57.8365 74.4856 59.149 75.4592 60.3056L82.1533 68.235C87.3427 74.3981 88.1621 83.1348 84.2091 90.1553C80.2561 97.1758 72.3611 101.006 64.4004 99.7645L51.4592 97.7645C50.0948 97.5527 48.7059 97.5527 47.3416 97.7645L34.4004 99.7645C33.4198 99.92 32.4285 99.9987 31.4357 99.9997ZM33.5298 52.2586L31.1769 58.5174C30.4016 60.5464 29.2922 62.4313 27.8945 64.0939L21.1769 71.9998C17.5707 76.2896 17.0032 82.3661 19.7526 87.2496C22.502 92.133 27.9917 94.7993 33.5298 93.9409L46.471 91.9409C48.4201 91.6388 50.4042 91.6388 52.3533 91.9409L65.2945 93.9409C70.8326 94.7993 76.3223 92.133 79.0717 87.2496C81.8211 82.3661 81.2536 76.2896 77.6474 71.9998L70.9886 64.0939C69.5903 62.4338 68.4844 60.5481 67.718 58.5174L65.3651 52.2586C62.8319 45.6931 56.52 41.363 49.4827 41.363C42.4455 41.363 36.1336 45.6931 33.6004 52.2586H33.5298Z" fill="black"/>
<path fill-rule="evenodd" clip-rule="evenodd" d="M37.4584 35.4706C31.576 35.4706 27.1172 27.8471 27.1172 17.7294C27.1172 7.61176 31.5642 0 37.4584 0C43.3525 0 47.8113 7.62353 47.8113 17.7294C47.8113 27.8353 43.3642 35.4706 37.4584 35.4706ZM37.4584 5.88235C35.8937 5.88235 32.9995 10.3882 32.9995 17.7294C32.9995 25.0706 35.8937 29.5882 37.4584 29.5882C39.0231 29.5882 41.929 25.0824 41.929 17.7294C41.929 10.3765 39.0348 5.88235 37.4584 5.88235Z" fill="black"/>
<path fill-rule="evenodd" clip-rule="evenodd" d="M5.35319 41.1055C8.34142 49.3173 13.812 54.6467 18.8238 54.6467C19.6104 54.6434 20.3905 54.5041 21.1297 54.2349C24.1297 53.1526 25.9885 50.2114 26.4826 45.9408C26.8263 41.8951 26.247 37.8242 24.7885 34.0349C23.4681 30.1893 21.2918 26.6936 18.4238 23.8114C15.3179 20.9055 11.9767 19.8232 9.01201 20.9055C3.52966 22.9173 1.90613 31.6114 5.35319 41.1055ZM11.0238 26.4114C11.1327 26.3915 11.2443 26.3915 11.3532 26.4114V26.3761C12.5259 26.5782 13.5956 27.1711 14.3885 28.0585C16.5843 30.318 18.2483 33.039 19.2591 36.0232C20.3957 38.9577 20.8658 42.1082 20.6355 45.2467C20.4002 47.329 19.7061 48.4702 19.1179 48.682C17.6708 49.2349 13.3885 45.9761 10.8826 39.0702C8.37672 32.1643 9.54143 26.9526 11.0238 26.4114Z" fill="black"/>
</svg>
