<svg width="100" height="100" viewBox="0 0 100 100" fill="none" xmlns="http://www.w3.org/2000/svg">
<path d="M72.2059 17.7325C72.2059 27.8519 67.7464 35.4767 61.863 35.4767C55.9561 35.4767 51.5082 27.8401 51.5082 17.7325C51.5082 7.62485 55.9678 0 61.863 0C67.7581 0 72.2059 7.61309 72.2059 17.7325Z" fill="black"/>
<path d="M95.669 29.1935C95.1748 24.9339 93.3156 21.9804 90.3151 20.9567C84.7847 18.8976 77.9835 24.5338 74.5712 34.0414C73.1124 37.8313 72.533 41.9029 72.8768 45.9493C73.371 50.2206 75.2301 53.1623 78.2306 54.2449C78.986 54.5148 79.7818 54.6541 80.584 54.6567C83.2738 54.4893 85.7986 53.3026 87.644 51.3385C90.5126 48.4558 92.6892 44.9595 94.0098 41.1132C95.4505 37.3148 96.0175 33.2409 95.669 29.1935Z" fill="black"/>
<path d="M75.9483 60.3164C74.9843 59.1722 74.2168 57.876 73.6773 56.4805L71.324 50.2206C68.0622 41.2099 59.4432 35.2607 49.8614 35.4062C40.3079 35.2703 31.7149 41.1956 28.4459 50.1735L26.0926 56.4805C25.558 57.8952 24.7861 59.2084 23.8098 60.3635L17.1616 68.2472C11.9804 74.412 11.1662 83.1439 15.1184 90.1604C19.0705 97.1768 26.9601 101.006 34.9177 99.7703L47.8611 97.77C49.2257 97.5582 50.6148 97.5582 51.9794 97.77L64.9229 99.7703C72.8678 100.97 80.7258 97.1268 84.6572 90.1193C88.5886 83.1118 87.7728 74.4026 82.6083 68.2472L75.9483 60.3164Z" fill="black"/>
<path d="M37.9057 35.4767C43.789 35.4767 48.2486 27.8519 48.2486 17.7325C48.2486 7.61309 43.8008 0 37.9057 0C32.0105 0 27.5627 7.62485 27.5627 17.7325C27.5627 27.8401 32.0105 35.4767 37.9057 35.4767Z" fill="black"/>
<path d="M26.9746 45.9489C26.4804 50.2203 24.5742 53.1619 21.6207 54.2445C20.8654 54.5145 20.0695 54.6537 19.2674 54.6563C16.5775 54.4889 14.0527 53.3022 12.2073 51.3381C9.32528 48.4574 7.13285 44.9616 5.79444 41.1128C4.32759 37.3045 3.74811 33.2119 4.10003 29.146C4.59423 24.9335 6.48868 21.9801 9.4539 20.9093C14.9843 18.8854 21.7854 24.5334 25.2684 34.041C26.7308 37.8301 27.3142 41.9016 26.9746 45.9489Z" fill="black"/>
</svg>
