<?xml version="1.0" encoding="UTF-8"?>
<svg width="100px" height="100px" viewBox="0 0 100 100" version="1.1" xmlns="http://www.w3.org/2000/svg" xmlns:xlink="http://www.w3.org/1999/xlink">
    <!-- Generator: Sketch 57.1 (83088) - https://sketch.com -->
    <title>brand/paypal-brand</title>
    <desc>Created with Sketch.</desc>
    <g id="brand/paypal" stroke="none" stroke-width="1" fill="none" fill-rule="evenodd">
        <path d="M50.2335434,53.7389099 C50.3495572,53.0058223 50.1895381,52.3407429 49.7854899,51.8636859 C49.3824417,51.3916296 48.7703686,51.1415997 48.0182788,51.1415997 C46.5090986,51.1415997 45.2869526,52.1917251 45.0479241,53.6919043 C44.9229091,54.4279922 45.0719269,55.0900713 45.4639738,55.5541267 C45.8590209,56.0221826 46.4740944,56.2692121 47.2431863,56.2692121 C48.7763694,56.2692121 49.9785129,55.2530907 50.2335434,53.7389099 Z M53.9279846,48.5802938 C54.0630007,48.5802938 54.1900159,48.6393009 54.2780264,48.7423132 C54.3650368,48.8443253 54.4030413,48.9803416 54.3810387,49.1133575 L52.9498678,58.1834407 C52.8908607,58.5574854 52.5688223,58.8345185 52.189777,58.8335183 L49.8024919,58.8335183 C49.6674758,58.8335183 49.5394605,58.7745113 49.45145,58.671499 C49.3644396,58.5684867 49.3264351,58.4324704 49.3474376,58.3004547 L49.4654517,57.5633666 C49.4654517,57.5633666 48.1572954,59.0805478 45.7970135,59.0805478 C44.4218493,59.0805478 43.2667113,58.6835004 42.459615,57.7323868 C41.5785097,56.6972632 41.2184667,55.213086 41.4714969,53.6609006 C41.9595552,50.549529 44.460854,48.3312641 47.3892037,48.3312641 C48.6663562,48.3312641 49.945509,48.6092973 50.5195775,49.4423968 L50.7045996,49.7114289 L50.8216136,48.9693403 C50.8576179,48.7453135 51.050641,48.5802938 51.2776681,48.5802938 L53.9279846,48.5802938 Z M68.4515191,48.8282234 C68.5305286,48.9802416 68.5195273,49.1642636 68.4215155,49.3052804 L59.5634576,62.0908074 C59.4204406,62.2988322 59.1834123,62.4218469 58.9313822,62.4218469 L56.2710644,62.4218469 C56.0980438,62.4218469 55.9400249,62.3248353 55.8610155,62.171817 C55.782006,62.0177986 55.7960077,61.8337767 55.8950195,61.6927598 L58.653349,57.8002949 L55.7199986,49.1902667 C55.6719929,49.0502499 55.6939955,48.8932312 55.7810059,48.7722167 C55.8680163,48.6512023 56.0090331,48.5801938 56.1570508,48.5801938 L58.7743634,48.5801938 C59.114404,48.5811939 59.4144398,48.8042206 59.5124516,49.1292594 L61.0696375,54.3288804 L64.7430762,48.9182342 C64.8870934,48.707209 65.1251219,48.5811939 65.3801523,48.5801938 L68.0434704,48.5801938 C68.2144908,48.5801938 68.3715096,48.6762053 68.4515191,48.8282234 Z M38.0230851,48.6446015 C38.1340984,47.9475182 38.0440876,47.4424579 37.754053,47.1024173 C37.2669948,46.5323492 36.3238822,46.5323492 35.3247629,46.5323492 L34.9417171,46.5323492 C34.71469,46.5323492 34.5226671,46.6973689 34.4866628,46.9213957 L33.9005928,50.6298386 L34.7356925,50.6298386 C36.2028677,50.6298386 37.7200489,50.6298386 38.0230851,48.6446015 Z M41.4184906,44.8741512 C42.1345761,45.7152516 42.3716044,46.9173952 42.1245749,48.447578 C41.5745093,51.9429954 39.4702579,53.7072061 35.8248226,53.7072061 L34.0726133,53.7072061 C33.6945682,53.7072061 33.3725297,53.9832391 33.3145228,54.3572837 L32.7104506,58.1847409 C32.6514436,58.5587855 32.3294051,58.8338184 31.9503599,58.8338184 L29.3080443,58.8338184 C29.1730282,58.8338184 29.0450129,58.7758114 28.9570024,58.6727991 C28.869992,58.570787 28.8309873,58.4347707 28.8519898,58.3017548 L31.0902571,44.1100599 C31.1492642,43.7360153 31.4713026,43.4609824 31.8503479,43.4609824 L37.3840088,43.4609824 C39.2372301,43.4609824 40.6313966,43.9500408 41.4184906,44.8741512 Z M89.7089579,53.7389099 C89.8259719,53.0058223 89.6659527,52.3407429 89.2609044,51.8636859 C88.8568561,51.3916296 88.2457831,51.1415997 87.4926932,51.1415997 C85.983513,51.1415997 84.7643674,52.1917251 84.5233386,53.6919043 C84.4003239,54.4279922 84.5473414,55.0900713 84.9383881,55.5541267 C85.3344354,56.0221826 85.950509,56.2692121 86.7186007,56.2692121 C88.2517839,56.2692121 89.4549275,55.2530907 89.7089579,53.7389099 Z M93.402399,48.5802938 C93.5384152,48.5802938 93.6664305,48.6383007 93.754441,48.741313 C93.8424515,48.8433252 93.8814562,48.9793415 93.8604537,49.1133575 L92.4272825,58.1834407 C92.3682755,58.5574854 92.0472371,58.8335183 91.6681919,58.8335183 L89.2819069,58.8335183 C89.1468908,58.8345185 89.0188755,58.7745113 88.930865,58.6724991 C88.8428544,58.5694868 88.8038498,58.4324704 88.8248523,58.3004547 L88.9428664,57.5633666 C88.9428664,57.5633666 87.6347102,59.0805478 85.2744283,59.0805478 C83.9002642,59.0805478 82.7461263,58.6835004 81.9370297,57.7323868 C81.0569246,56.6972632 80.6978817,55.213086 80.9499118,53.6609006 C81.43697,50.549529 83.9372686,48.3312641 86.8666184,48.3312641 C88.1447711,48.3312641 89.4229237,48.6092973 89.9959922,49.4423968 L90.1830145,49.7114289 L90.3000285,48.9693403 C90.3340325,48.7453135 90.5270556,48.5802938 90.7550828,48.5802938 L93.402399,48.5802938 Z M77.4994997,48.6446015 C77.6095129,47.9475182 77.5215023,47.4424579 77.2304676,47.1024173 C76.7434094,46.5323492 75.8002968,46.5323492 74.8021776,46.5323492 L74.4191318,46.5323492 C74.1921047,46.5323492 73.9990817,46.6973689 73.9640775,46.9213957 L73.3780075,50.6298386 L74.2121071,50.6298386 C75.6802825,50.6298386 77.1964635,50.6298386 77.4994997,48.6446015 Z M80.892905,44.8741512 C81.6089905,45.7152516 81.8480191,46.9173952 81.5999894,48.447578 C81.0489236,51.9429954 78.9456724,53.7072061 75.2992369,53.7072061 L73.5480278,53.7072061 C73.1699827,53.7072061 72.8479442,53.9832391 72.7889371,54.3572837 L72.1538613,58.3797641 C72.1128564,58.6407953 71.8878295,58.8338184 71.6227979,58.8338184 L68.7824587,58.8338184 C68.6474425,58.8338184 68.5194272,58.7758114 68.4324169,58.6727991 C68.3454065,58.570787 68.3074019,58.4347707 68.3274043,58.3017548 L70.5656716,44.1100599 C70.6246787,43.7370154 70.9467171,43.4609824 71.3247623,43.4609824 L76.8604234,43.4609824 C78.7126446,43.4609824 80.1068111,43.9500408 80.892905,44.8741512 Z M99.8898738,43.6225017 C99.9778843,43.725514 100.015889,43.8605301 99.9938862,43.993546 L97.7546188,58.1852409 C97.6966118,58.5602857 97.3735733,58.8343184 96.994528,58.8343184 L94.7102552,58.8343184 C94.5762392,58.8343184 94.449224,58.7753114 94.3612135,58.6732992 C94.273203,58.5702869 94.2351984,58.4352708 94.2562009,58.3022549 L96.5284723,43.8505289 C96.5634765,43.6265022 96.7554994,43.4614825 96.9825266,43.4604824 L99.5388318,43.4604824 C99.673848,43.4604824 99.8028634,43.5194894 99.8898738,43.6225017 Z M10.0495443,51.0530891 C7.71226513,51.0900936 6.30709731,50.6760441 5.99506005,52.3562448 C5.80603747,53.3893682 5.05794813,58.2089437 4.83692173,59.5721065 C4.82091982,59.668118 4.78291528,59.7061226 4.67490238,59.7061226 L0.6584227,59.7061226 C0.249373848,59.7061226 -0.0476616263,59.3510801 0.00634482362,58.9580332 L3.16172167,38.9316415 C3.24273134,38.4135796 3.70578664,38.0215328 4.23885031,38.0215328 C12.4408299,38.0215328 13.1299122,37.822509 15.2241623,38.634606 C18.4615489,39.8897559 18.7575843,42.9161173 17.5934452,46.1905084 C16.436307,49.5609109 13.689979,51.010084 10.0495443,51.0530891 Z M19.2254401,44.6070193 C20.7546228,45.7491557 20.8576351,47.719391 20.5075933,49.5926147 C19.6184871,54.0891517 16.6351308,55.640337 12.8116741,55.640337 C12.0045778,55.640337 11.4815153,55.5163222 11.2344858,56.7014637 C10.399386,61.9470902 10.4963976,61.3280163 10.4583931,61.6180509 C10.3673822,62.0811062 9.9853366,62.4211468 9.52128118,62.4211468 L6.1018728,62.4211468 C5.71982718,62.4211468 5.47779827,62.1081094 5.53180472,61.7260638 C5.53180472,61.7260638 5.77383363,60.1478753 6.99097899,52.5869723 C7.03398412,52.2589331 7.2490098,52.081912 7.5780491,52.081912 C10.4853963,52.081912 16.4411076,52.6149757 18.5903643,46.4862437 C18.7893881,45.8881723 18.956408,45.291101 19.0634208,44.6770276 C19.0914241,44.5100077 19.1284285,44.5370109 19.2254401,44.6070193 Z" id="Shape" fill="#000000"></path>
    </g>
</svg>