<svg width="100" height="100" viewBox="0 0 100 100" fill="none" xmlns="http://www.w3.org/2000/svg">
<path fill-rule="evenodd" clip-rule="evenodd" d="M78.8193 47.58C76.7013 47.58 75.0513 49.264 75.0513 51.399C75.0513 53.083 76.2673 54.004 77.8643 54.004C79.9483 54.004 81.6323 52.406 81.6323 50.27C81.6493 48.569 80.4333 47.58 78.8193 47.58ZM94.4443 38.587C94.4443 38.239 94.1833 37.979 93.8883 37.979H90.6763C90.4173 37.979 90.1563 38.187 90.1213 38.448L87.3083 56.503L87.2573 56.59C87.2573 56.902 87.5173 57.198 87.8643 57.198H90.7293C91.1633 57.198 91.5973 56.694 91.6323 56.208L94.4443 38.639V38.587ZM86.1983 44.368H82.8993C82.2393 44.368 82.2053 45.323 82.1523 45.792C81.1983 44.316 79.7223 44.056 78.0383 44.056C73.7853 44.056 70.5383 47.788 70.5383 51.902C70.5383 55.288 72.6563 57.493 76.0423 57.493C77.6563 57.493 79.6003 56.643 80.6423 55.427C80.5903 55.687 80.4683 56.243 80.4683 56.504C80.4683 56.902 80.6423 57.198 81.0243 57.198H84.0273C84.4963 57.198 84.8953 56.694 84.9823 56.208L86.7543 45.045C86.8053 44.715 86.5453 44.368 86.1983 44.368ZM71.5803 42.84C71.5803 39.194 68.7673 37.979 65.5553 37.979H58.6633C58.1943 37.979 57.7603 38.326 57.7083 38.795L54.8953 56.503C54.8613 56.851 55.1213 57.198 55.4513 57.198H59.0103C59.3573 57.198 59.6183 56.937 59.7053 56.643L60.4863 51.607C60.6603 50.357 62.7773 50.792 63.6113 50.792C68.5423 50.792 71.5803 47.84 71.5803 42.84ZM43.9233 61.364L54.9823 45.288C55.0693 45.201 55.0693 45.114 55.0693 44.993C55.0693 44.698 54.8083 44.386 54.5133 44.386H51.1803C50.8853 44.386 50.5723 44.559 50.3993 44.819L45.7983 51.59L43.8883 45.08C43.7503 44.698 43.3683 44.386 42.9343 44.386H39.6873C39.3923 44.386 39.1313 44.698 39.1313 44.993C39.1313 45.201 42.5173 54.854 42.8123 55.774C42.3433 56.434 39.2533 60.739 39.2533 61.261C39.2533 61.573 39.5133 61.816 39.8093 61.816H43.1423C43.4553 61.799 43.7503 61.625 43.9233 61.364ZM36.8923 44.368H33.5933C32.9343 44.368 32.8993 45.323 32.8643 45.792C31.8573 44.315 30.3993 44.056 28.7503 44.056C24.4963 44.056 21.2503 47.788 21.2503 51.902C21.2503 55.288 23.3683 57.493 26.7533 57.493C28.3163 57.493 30.2603 56.643 31.3543 55.427C31.2673 55.687 31.1803 56.243 31.1803 56.504C31.1803 56.902 31.3543 57.198 31.7363 57.198H34.7223C35.1913 57.198 35.5903 56.694 35.6773 56.208L37.4473 45.045C37.5003 44.715 37.2393 44.368 36.8923 44.368ZM22.2743 42.84C22.2743 39.194 19.4623 37.979 16.2503 37.979H9.30531C8.87131 37.979 8.43731 38.326 8.40231 38.795L5.55531 56.52C5.5033 56.868 5.76331 57.215 6.11131 57.215H9.40931C9.87831 57.215 10.3123 56.712 10.3643 56.226L11.1463 51.607C11.3193 50.357 13.4373 50.792 14.2713 50.792C19.2363 50.792 22.2743 47.84 22.2743 42.84ZM100 19.333V80.444C100 85.045 96.2673 88.777 91.6673 88.777H8.33331C3.73231 88.777 0.000305176 85.045 0.000305176 80.444V19.333C0.000305176 14.732 3.73231 11 8.33331 11H91.6673C96.2673 11 100 14.732 100 19.333ZM63.2813 41.851H62.5003C62.1873 41.851 61.9793 42.024 61.9443 42.319L61.2153 46.955L62.6043 46.902C64.8613 46.902 66.4233 46.382 66.4233 43.777C66.4063 41.937 64.7563 41.851 63.2813 41.851ZM13.9753 41.851H13.1593C12.8993 41.851 12.6383 42.024 12.6043 42.319L11.8573 46.955L13.2813 46.902C15.1913 46.902 16.6663 46.643 17.0133 44.437C17.4133 42.111 15.9373 41.851 13.9753 41.851ZM32.3433 50.27C32.3433 52.389 30.6593 54.004 28.5243 54.004C26.9273 54.004 25.7463 53.101 25.7463 51.399C25.7463 49.281 27.3963 47.58 29.5133 47.58C31.1283 47.58 32.3433 48.569 32.3433 50.27Z" fill="black"/>
</svg>
