<svg width="100" height="100" viewBox="0 0 100 100" fill="none" xmlns="http://www.w3.org/2000/svg">
<path fill-rule="evenodd" clip-rule="evenodd" d="M49.1505 53.451C39.5805 53.605 33.8255 51.907 32.5465 58.787C31.7745 63.021 28.7095 82.757 27.8055 88.335C27.7395 88.732 27.5855 88.887 27.1435 88.887H10.6935C9.01854 88.887 7.80554 87.431 8.02554 85.821L20.9475 3.81405C21.2785 1.69805 23.1745 0.0890483 25.3585 0.0890483C58.9415 0.0890483 61.7635 -0.727952 70.3415 2.60105C83.5935 7.74005 84.8065 20.133 80.0435 33.539C75.3025 47.343 64.0575 53.2741 49.1505 53.451ZM86.7252 27.0565C92.9872 31.7315 93.4072 39.8015 91.9732 47.4755C88.3342 65.8876 76.1192 72.2385 60.4622 72.2385C57.1552 72.2385 55.0162 71.7315 54.0012 76.5815C50.5832 98.0595 50.9802 95.5236 50.8262 96.7146C50.4522 98.6115 48.8862 99.9995 46.9902 99.9995H32.9872C31.4212 99.9995 30.4302 98.7206 30.6502 97.1555C30.6502 97.1555 31.6422 90.6945 36.6252 59.7355C36.8022 58.3905 37.6842 57.6625 39.0292 57.6625C50.9362 57.6625 75.3252 59.8456 84.1222 34.7515C84.9392 32.3046 85.6222 29.8565 86.0632 27.3425C86.1732 26.6595 86.3282 26.7695 86.7252 27.0565Z" fill="black"/>
</svg>
