<?xml version="1.0" encoding="UTF-8"?>
<svg width="100px" height="100px" viewBox="0 0 100 100" version="1.1" xmlns="http://www.w3.org/2000/svg" xmlns:xlink="http://www.w3.org/1999/xlink">
    <!-- Generator: Sketch 57.1 (83088) - https://sketch.com -->
    <title>brand/paypal-card-brand</title>
    <desc>Created with Sketch.</desc>
    <g id="brand/paypal-card" stroke="none" stroke-width="1" fill="none" fill-rule="evenodd">
        <path d="M78.8193,47.5802 C76.7013,47.5802 75.0513,49.2642 75.0513,51.3992 C75.0513,53.0832 76.2673,54.0042 77.8643,54.0042 C79.9483,54.0042 81.6323,52.4062 81.6323,50.2702 C81.6493,48.5692 80.4333,47.5802 78.8193,47.5802 L78.8193,47.5802 Z M94.4443,38.5872 C94.4443,38.2392 94.1833,37.9792 93.8883,37.9792 L90.6763,37.9792 C90.4173,37.9792 90.1563,38.1872 90.1213,38.4482 L87.3083,56.5032 L87.2573,56.5902 C87.2573,56.9022 87.5173,57.1982 87.8643,57.1982 L90.7293,57.1982 C91.1633,57.1982 91.5973,56.6942 91.6323,56.2082 L94.4443,38.6392 L94.4443,38.5872 Z M86.1983,44.3682 L82.8993,44.3682 C82.2393,44.3682 82.2053,45.3232 82.1523,45.7922 C81.1983,44.3162 79.7223,44.0562 78.0383,44.0562 C73.7853,44.0562 70.5383,47.7882 70.5383,51.9022 C70.5383,55.2882 72.6563,57.4932 76.0423,57.4932 C77.6563,57.4932 79.6003,56.6432 80.6423,55.4272 C80.5903,55.6872 80.4683,56.2432 80.4683,56.5042 C80.4683,56.9022 80.6423,57.1982 81.0243,57.1982 L84.0273,57.1982 C84.4963,57.1982 84.8953,56.6942 84.9823,56.2082 L86.7543,45.0452 C86.8053,44.7152 86.5453,44.3682 86.1983,44.3682 L86.1983,44.3682 Z M71.5803,42.8402 C71.5803,39.1942 68.7673,37.9792 65.5553,37.9792 L58.6633,37.9792 C58.1943,37.9792 57.7603,38.3262 57.7083,38.7952 L54.8953,56.5032 C54.8613,56.8512 55.1213,57.1982 55.4513,57.1982 L59.0103,57.1982 C59.3573,57.1982 59.6183,56.9372 59.7053,56.6432 L60.4863,51.6072 C60.6603,50.3572 62.7773,50.7922 63.6113,50.7922 C68.5423,50.7922 71.5803,47.8402 71.5803,42.8402 L71.5803,42.8402 Z M43.9233,61.3642 L54.9823,45.2882 C55.0693,45.2012 55.0693,45.1142 55.0693,44.9932 C55.0693,44.6982 54.8083,44.3862 54.5133,44.3862 L51.1803,44.3862 C50.8853,44.3862 50.5723,44.5592 50.3993,44.8192 L45.7983,51.5902 L43.8883,45.0802 C43.7503,44.6982 43.3683,44.3862 42.9343,44.3862 L39.6873,44.3862 C39.3923,44.3862 39.1313,44.6982 39.1313,44.9932 C39.1313,45.2012 42.5173,54.8542 42.8123,55.7742 C42.3433,56.4342 39.2533,60.7392 39.2533,61.2612 C39.2533,61.5732 39.5133,61.8162 39.8093,61.8162 L43.1423,61.8162 C43.4553,61.7992 43.7503,61.6252 43.9233,61.3642 L43.9233,61.3642 Z M36.8923,44.3682 L33.5933,44.3682 C32.9343,44.3682 32.8993,45.3232 32.8643,45.7922 C31.8573,44.3152 30.3993,44.0562 28.7503,44.0562 C24.4963,44.0562 21.2503,47.7882 21.2503,51.9022 C21.2503,55.2882 23.3683,57.4932 26.7533,57.4932 C28.3163,57.4932 30.2603,56.6432 31.3543,55.4272 C31.2673,55.6872 31.1803,56.2432 31.1803,56.5042 C31.1803,56.9022 31.3543,57.1982 31.7363,57.1982 L34.7223,57.1982 C35.1913,57.1982 35.5903,56.6942 35.6773,56.2082 L37.4473,45.0452 C37.5003,44.7152 37.2393,44.3682 36.8923,44.3682 L36.8923,44.3682 Z M22.2743,42.8402 C22.2743,39.1942 19.4623,37.9792 16.2503,37.9792 L9.3053,37.9792 C8.8713,37.9792 8.4373,38.3262 8.4023,38.7952 L5.5553,56.5202 C5.5033,56.8682 5.7633,57.2152 6.1113,57.2152 L9.4093,57.2152 C9.8783,57.2152 10.3123,56.7122 10.3643,56.2262 L11.1463,51.6072 C11.3193,50.3572 13.4373,50.7922 14.2713,50.7922 C19.2363,50.7922 22.2743,47.8402 22.2743,42.8402 L22.2743,42.8402 Z M100.0003,19.3332 L100.0003,80.4442 C100.0003,85.0452 96.2673,88.7772 91.6673,88.7772 L8.3333,88.7772 C3.7323,88.7772 0.0003,85.0452 0.0003,80.4442 L0.0003,19.3332 C0.0003,14.7322 3.7323,11.0002 8.3333,11.0002 L91.6673,11.0002 C96.2673,11.0002 100.0003,14.7322 100.0003,19.3332 L100.0003,19.3332 Z M63.2813,41.8512 L62.5003,41.8512 C62.1873,41.8512 61.9793,42.0242 61.9443,42.3192 L61.2153,46.9552 L62.6043,46.9022 C64.8613,46.9022 66.4233,46.3822 66.4233,43.7772 C66.4063,41.9372 64.7563,41.8512 63.2813,41.8512 L63.2813,41.8512 Z M13.9753,41.8512 L13.1593,41.8512 C12.8993,41.8512 12.6383,42.0242 12.6043,42.3192 L11.8573,46.9552 L13.2813,46.9022 C15.1913,46.9022 16.6663,46.6432 17.0133,44.4372 C17.4133,42.1112 15.9373,41.8512 13.9753,41.8512 L13.9753,41.8512 Z M32.3433,50.2702 C32.3433,52.3892 30.6593,54.0042 28.5243,54.0042 C26.9273,54.0042 25.7463,53.1012 25.7463,51.3992 C25.7463,49.2812 27.3963,47.5802 29.5133,47.5802 C31.1283,47.5802 32.3433,48.5692 32.3433,50.2702 L32.3433,50.2702 Z" id="Fill-1" fill="#000000"></path>
    </g>
</svg>