<?xml version="1.0" encoding="UTF-8"?>
<svg width="100px" height="100px" viewBox="0 0 100 100" version="1.1" xmlns="http://www.w3.org/2000/svg" xmlns:xlink="http://www.w3.org/1999/xlink">
    <!-- Generator: Sketch 57.1 (83088) - https://sketch.com -->
    <title>brand/paypal-alt-brand</title>
    <desc>Created with Sketch.</desc>
    <g id="brand/paypal-alt" stroke="none" stroke-width="1" fill="none" fill-rule="evenodd">
        <path d="M49.1505,53.451 C39.5805,53.605 33.8255,51.907 32.5465,58.787 C31.7745,63.021 28.7095,82.757 27.8055,88.335 C27.7395,88.732 27.5855,88.887 27.1435,88.887 L10.6935,88.887 C9.0185,88.887 7.8055,87.431 8.0255,85.821 L20.9475,3.814 C21.2785,1.698 23.1745,0.089 25.3585,0.089 C58.9415,0.089 61.7635,-0.728 70.3415,2.601 C83.5935,7.74 84.8065,20.133 80.0435,33.539 C75.3025,47.343 64.0575,53.274 49.1505,53.451 Z M86.7252,27.0565 C92.9872,31.7315 93.4072,39.8015 91.9732,47.4755 C88.3342,65.8875 76.1192,72.2385 60.4622,72.2385 C57.1552,72.2385 55.0162,71.7315 54.0012,76.5815 C50.5832,98.0595 50.9802,95.5235 50.8262,96.7145 C50.4522,98.6115 48.8862,99.9995 46.9902,99.9995 L32.9872,99.9995 C31.4212,99.9995 30.4302,98.7205 30.6502,97.1555 C30.6502,97.1555 31.6422,90.6945 36.6252,59.7355 C36.8022,58.3905 37.6842,57.6625 39.0292,57.6625 C50.9362,57.6625 75.3252,59.8455 84.1222,34.7515 C84.9392,32.3045 85.6222,29.8565 86.0632,27.3425 C86.1732,26.6595 86.3282,26.7695 86.7252,27.0565 Z" id="Shape" fill="#000000"></path>
    </g>
</svg>