<?xml version="1.0" encoding="UTF-8"?>
<svg width="100px" height="100px" viewBox="0 0 100 100" version="1.1" xmlns="http://www.w3.org/2000/svg" xmlns:xlink="http://www.w3.org/1999/xlink">
    <!-- Generator: Sketch 57.1 (83088) - https://sketch.com -->
    <title>solid/pen-solid</title>
    <desc>Created with Sketch.</desc>
    <g id="solid/pen" stroke="none" stroke-width="1" fill="none" fill-rule="evenodd">
        <path d="M66.9603961,9.50495045 L90.9900991,33.5346534 L34.1485148,90.3366337 C33.4593966,91.0243697 32.6132726,91.534083 31.6831683,91.8217822 L7.20792075,99.2970298 C6.7517136,99.4335977 6.27818811,99.5036261 5.80198015,99.5050002 C4.27470004,99.5098677 2.83616037,98.7879677 1.92731019,97.5605313 C1.01846001,96.3330949 0.747698048,94.7465187 1.19801975,93.2871288 L8.67326729,68.8118812 C8.95431423,67.8701552 9.46460582,67.0128654 10.1584158,66.3168317 L66.9603961,9.50495045 Z M20.1584158,69.6633664 C19.2313982,68.7791408 17.7677862,68.7975154 16.863259,69.7047348 C15.9587317,70.6119541 15.9447066,72.0756142 16.8316831,73 L27.4950495,83.6633664 C27.9371337,84.1065485 28.537388,84.3556182 29.1633663,84.3556182 C29.7893447,84.3556182 30.3895989,84.1065485 30.8316831,83.6633664 C31.2773167,83.2225896 31.5280833,82.6218456 31.5280833,81.9950495 C31.5280833,81.3682534 31.2773167,80.7675094 30.8316831,80.3267327 L20.1584158,69.6633664 Z M64.5940594,21.6930693 C63.6726734,20.7716834 62.1788117,20.7716834 61.2574258,21.6930693 L24.1782178,58.7722772 C23.5054388,59.4473853 23.3055881,60.4612934 23.6718578,61.3412076 C24.0381275,62.2211218 24.8983851,62.7937533 25.8514851,62.7921286 C26.4767476,62.7949768 27.0766353,62.5450236 27.5148515,62.0990099 L64.5940594,25.0297029 C65.5154453,24.108317 65.5154453,22.6144553 64.5940594,21.6930693 Z M74.5643565,1.90099005 C76.4488014,0.028157342 79.4917927,0.028157342 81.3762377,1.90099005 L98.5940595,19.1188119 C100.466892,21.0032568 100.466892,24.0462481 98.5940595,25.930693 L94.3168317,30.1980198 L70.2970297,6.17821778 L74.5643565,1.90099005 Z" id="Shape" fill="#000000"></path>
    </g>
</svg>