<?xml version="1.0" encoding="UTF-8"?>
<svg width="100px" height="100px" viewBox="0 0 100 100" version="1.1" xmlns="http://www.w3.org/2000/svg" xmlns:xlink="http://www.w3.org/1999/xlink">
    <!-- Generator: Sketch 57.1 (83088) - https://sketch.com -->
    <title>bold/pen-bold</title>
    <desc>Created with Sketch.</desc>
    <g id="bold/pen" stroke="none" stroke-width="1" fill="none" fill-rule="evenodd">
        <path d="M97.029703,19.4257425 L80.5742575,2.97029698 C77.8970576,0.304262118 73.568289,0.304262118 70.8910891,2.97029698 L65.2277228,8.65346531 L65.2277228,8.65346531 L9.40594055,64.4752475 C8.48641337,65.3920801 7.80639064,66.5209178 7.42574253,67.7623763 L0.297029653,91.1584159 C-0.328131982,93.2323776 0.0627724235,95.4797619 1.3515099,97.2208248 C2.64024738,98.9618877 4.67546255,99.9921505 6.84158412,100 C7.51248421,99.9965328 8.17939092,99.8964968 8.82178214,99.7029703 L32.2178218,92.5643565 C33.4581244,92.1811229 34.5863727,91.5014553 35.5049505,90.5841585 L91.3366337,34.7722772 L91.3366337,34.7722772 L97.029703,29.1089109 C99.6957379,26.431711 99.6957379,22.1029424 97.029703,19.4257425 Z M10.0891089,89.9108911 L15.1683168,73.2673268 C15.3468637,73.5475017 15.5524691,73.8094827 15.7821782,74.049505 L25.960396,84.2079208 C26.1976904,84.4436364 26.4599645,84.6527917 26.7425742,84.8316832 L10.0891089,89.9108911 Z M33.4851485,79.9009901 C33.2883926,79.1268603 32.8884769,78.4193172 32.3267327,77.8514852 L22.1485148,67.6732673 C21.5806828,67.1115231 20.8731397,66.7116074 20.0990099,66.5148515 L22.9009901,63.7227723 C24.660126,65.4094537 27.4480219,65.3697526 29.1584158,63.6336634 L64.5544555,28.2475247 C66.2784002,26.5265491 66.3135643,23.7441922 64.6336634,21.980198 L68.4059406,18.2079208 L81.7920792,31.5841584 L33.4851485,79.9009901 Z M88.1188119,25.2277227 L74.7722773,11.8811881 L75.7623763,10.8910891 L89.1089109,24.2673267 L88.1188119,25.2277227 Z" id="pen" fill="#000000"></path>
    </g>
</svg>