<?xml version="1.0" encoding="UTF-8"?>
<svg width="100px" height="100px" viewBox="0 0 100 100" version="1.1" xmlns="http://www.w3.org/2000/svg" xmlns:xlink="http://www.w3.org/1999/xlink">
    <!-- Generator: Sketch 57.1 (83088) - https://sketch.com -->
    <title>regular/pen-regular</title>
    <desc>Created with Sketch.</desc>
    <g id="regular/pen" stroke="none" stroke-width="1" fill="none" fill-rule="evenodd">
        <path d="M73.8333334,2.37254897 C75.6993033,0.518077368 78.7124614,0.518077368 80.5784314,2.37254897 L97.627451,19.4215686 C99.4861736,21.2819563 99.4861736,24.296475 97.627451,26.1568627 L33.8137255,89.9411765 C33.1313633,90.62217 32.2935346,91.1268861 31.372549,91.4117647 L7.13725486,98.8137255 C6.68552033,98.9489546 6.21663725,99.0182965 5.74509799,99.0196571 C4.23279122,99.0244768 2.80835488,98.3096542 1.90841499,97.0942516 C1.0084751,95.8788489 0.740367675,94.3078274 1.18627446,92.8627451 L8.58823525,68.627451 C8.88061145,67.6899902 9.40302849,66.8406412 10.1078431,66.1568628 L73.8333334,2.37254897 Z M69.6078432,13.2352941 L61.2745098,21.5686274 C62.2852417,21.086479 63.496086,21.3938616 64.1544596,22.299726 C64.8128331,23.2055904 64.7314044,24.4521847 63.9607843,25.2647059 L27.2647059,61.9803922 C26.8307859,62.4220331 26.2367795,62.6695358 25.617647,62.6666667 C24.8105549,62.6701643 24.0594644,62.2545836 23.6336807,61.5689319 C23.207897,60.8832803 23.1684229,60.025792 23.5294117,59.3039216 L13.3529411,69.4607843 C13.2166039,69.6017425 13.115785,69.7731346 13.0588235,69.9607843 L5.6568627,94.2254902 C5.64074781,94.2592322 5.6483922,94.2994677 5.67409171,94.3259083 C5.70053229,94.3516078 5.74076782,94.3592522 5.77450976,94.3431373 L30.0392157,86.9411765 C30.2268654,86.884215 30.3982575,86.7833961 30.5392157,86.6470589 L86.7941177,30.3921568 L69.6078432,13.2352941 Z M16.6666667,69.4705883 C17.5790194,68.5582355 19.0582355,68.5582355 19.9705882,69.4705883 L30.5294117,80.0392157 C31.1398007,80.6249026 31.3853869,81.4950821 31.1712618,82.3134673 C30.9571368,83.1318524 30.3168421,83.7702471 29.4978243,83.9819392 C28.6788064,84.1936312 27.8093605,83.9454601 27.2254902,83.3333334 L16.6666666,72.7745098 C15.7543139,71.8621571 15.7543139,70.382941 16.6666667,69.4705883 Z M77.2745098,5.67647054 C77.2363879,5.6391036 77.1753768,5.6391036 77.1372549,5.67647054 L72.9117647,9.90196074 L90.0980393,27.0882353 L94.3235295,22.8627451 C94.3529831,22.8217338 94.3529831,22.7665014 94.3235295,22.7254902 L77.2745098,5.67647054 Z" id="Shape" fill="#000000"></path>
    </g>
</svg>