<svg width="100" height="100" viewBox="0 0 100 100" fill="none" xmlns="http://www.w3.org/2000/svg">
<g clip-path="url(#clip0)">
<path d="M98.4575 18.8224L81.2633 1.57505C79.1552 -0.525015 75.7451 -0.525015 73.6371 1.57505L67.7526 7.45748L9.32046 65.8819C8.65584 66.5495 8.14216 67.3519 7.81405 68.2348V68.329C7.81405 68.3996 7.7552 68.4701 7.73167 68.5525L0.234928 93.0352C-0.26512 94.669 0.0395659 96.443 1.0561 97.8165C2.07264 99.19 3.68055 100 5.38967 100C5.92392 99.9976 6.45504 99.9184 6.96669 99.7647L31.4341 92.3058C32.0562 92.1036 32.6466 91.8145 33.1876 91.4469L33.3642 91.3293C33.6386 91.133 33.8983 90.9167 34.1409 90.6822L92.526 32.3167L98.4104 26.4342C100.51 24.3385 100.531 20.9438 98.4575 18.8224ZM32.8463 83.6468C32.4769 83.4766 32.0762 83.3845 31.6694 83.3762H30.3513V82.0939C30.3513 80.4695 29.0341 79.1526 27.4091 79.1526H26.1263V77.8703C26.1263 77.0902 25.8164 76.3421 25.2646 75.7905C24.7128 75.2389 23.9644 74.9291 23.1841 74.9291H21.9013V73.6584C21.9045 72.8774 21.5955 72.1275 21.043 71.5752C20.4906 71.023 19.7404 70.7141 18.9591 70.7172H17.6528V69.4113C17.6584 68.4842 17.2212 67.6101 16.4759 67.0583L69.7887 13.7399L86.265 30.2108L32.8463 83.6468ZM6.13111 93.8705L12.0155 74.682C12.4387 75.8314 13.5325 76.5963 14.7577 76.5997H16.0405V77.8703C16.0373 78.6513 16.3463 79.4012 16.8987 79.9535C17.4512 80.5058 18.2014 80.8146 18.9827 80.8115H20.2419V82.0939C20.2419 83.7183 21.5592 85.0351 23.1841 85.0351H24.4669V86.3175C24.4712 86.9587 24.6816 87.5815 25.0671 88.0939L6.13111 93.8705ZM90.4429 26.0695L73.9666 9.59869L77.4972 6.06923L93.9736 22.5401L90.4429 26.0695Z" fill="black"/>
</g>
<defs>
<clipPath id="clip0">
<rect width="100" height="100" fill="white"/>
</clipPath>
</defs>
</svg>
