<svg width="100" height="100" viewBox="0 0 100 100" fill="none" xmlns="http://www.w3.org/2000/svg">
<g clip-path="url(#clip0)">
<path d="M2.94166 99.9999C2.16082 100.003 1.41122 99.6934 0.859307 99.1411C-0.279925 97.9865 -0.279925 96.1309 0.859307 94.9763L94.977 0.8587C95.7209 0.114747 96.8052 -0.1758 97.8215 0.0965056C98.8378 0.368811 99.6315 1.1626 99.9039 2.17886C100.176 3.19512 99.8856 4.27945 99.1417 5.02341L5.02401 99.1411C4.4721 99.6934 3.7225 100.003 2.94166 99.9999Z" fill="black"/>
<path d="M21.7643 31.1761C26.9623 31.1761 31.1761 26.9623 31.1761 21.7643C31.1761 16.5663 26.9623 12.3525 21.7643 12.3525C16.5663 12.3525 12.3525 16.5663 12.3525 21.7643C12.3525 26.9623 16.5663 31.1761 21.7643 31.1761Z" fill="black"/>
<path d="M87.6468 78.235C87.6468 83.433 83.433 87.6468 78.235 87.6468C73.037 87.6468 68.8232 83.433 68.8232 78.235C68.8232 73.037 73.037 68.8232 78.235 68.8232C83.433 68.8232 87.6468 73.037 87.6468 78.235Z" fill="black"/>
</g>
<defs>
<clipPath id="clip0">
<rect width="100" height="100" fill="white"/>
</clipPath>
</defs>
</svg>
