<?xml version="1.0" encoding="UTF-8"?>
<svg width="100px" height="100px" viewBox="0 0 100 100" version="1.1" xmlns="http://www.w3.org/2000/svg" xmlns:xlink="http://www.w3.org/1999/xlink">
    <!-- Generator: Sketch 57.1 (83088) - https://sketch.com -->
    <title>solid/percentage-solid</title>
    <desc>Created with Sketch.</desc>
    <g id="solid/percentage" stroke="none" stroke-width="1" fill="none" fill-rule="evenodd">
        <path d="M96.9293465,2.57560404 C100.090975,5.7372325 100.161795,10.8409725 97.089109,14.0891089 L14.5841584,96.5940595 C13.0369655,98.1460094 10.933994,99.0157128 8.74257422,99.0099586 C5.40722675,99.0040943 2.40287308,96.9923085 1.12727626,93.9105186 C-0.148320556,90.8287287 0.555343257,87.2821415 2.91089104,84.9207921 L85.4158416,2.41584154 C88.663978,-0.656844411 93.767718,-0.586024424 96.9293465,2.57560404 Z M74.7524753,57.7524753 C83.8679077,57.7524753 91.2574258,65.1419933 91.2574258,74.2574258 C91.2465145,83.3683348 83.8633843,90.751465 74.7524753,90.7623763 C65.6370428,90.7623763 58.2475248,83.3728582 58.2475248,74.2574258 C58.2475248,65.1419933 65.6370428,57.7524753 74.7524753,57.7524753 Z M25.2475247,8.24752471 C34.3629572,8.24752471 41.7524752,15.6370428 41.7524752,24.7524752 C41.741564,33.8633843 34.3584338,41.2465145 25.2475247,41.2574257 C16.1320923,41.2574257 8.74257422,33.8679077 8.74257422,24.7524752 C8.74257422,15.6370428 16.1320923,8.24752471 25.2475247,8.24752471 Z" id="Shape" fill="#000000"></path>
    </g>
</svg>