<?xml version="1.0" encoding="UTF-8"?>
<svg width="100px" height="100px" viewBox="0 0 100 100" version="1.1" xmlns="http://www.w3.org/2000/svg" xmlns:xlink="http://www.w3.org/1999/xlink">
    <!-- Generator: Sketch 57.1 (83088) - https://sketch.com -->
    <title>regular/percentage-regular</title>
    <desc>Created with Sketch.</desc>
    <g id="regular/percentage" stroke="none" stroke-width="1" fill="none" fill-rule="evenodd">
        <path d="M97.3166001,0.960851024 C98.1660607,1.17069219 98.8293078,1.83393932 99.039149,2.6833999 C99.2489901,3.53286049 98.9708704,4.42865227 98.3168317,5.00990095 L4.01980193,99.3069307 C3.58158579,99.7529444 2.98169809,100.002898 2.3564356,100.000049 C1.73117311,100.002898 1.1312854,99.7529444 0.693069258,99.3069307 C0.250485377,98.8665398 0.00165916375,98.2679238 0.00165916375,97.6435644 C0.00165916375,97.019205 0.250485377,96.420589 0.693069258,95.9801981 L94.9900991,1.68316827 C95.5713477,1.02912959 96.4671395,0.751009859 97.3166001,0.960851024 Z M77.7920792,66.990099 C84.3046648,66.990099 89.5841585,72.2695927 89.5841585,78.7821782 C89.5786991,85.2925011 84.3024021,90.5687981 77.7920792,90.5742575 C71.2794937,90.5742575 66,85.2947638 66,78.7821782 C66,72.2695927 71.2794937,66.990099 77.7920792,66.990099 Z M77.7920792,71.7128713 L77.7920792,71.7623763 C73.8878088,71.7623763 70.7227723,74.9274128 70.7227723,78.8316832 C70.7227723,82.7359536 73.8878088,85.9009901 77.7920792,85.9009901 C81.6963496,85.9009901 84.8613862,82.7359536 84.8613862,78.8316832 C84.874576,76.9482237 84.135603,75.1373738 82.8084185,73.8008953 C81.481234,72.4644167 79.6755849,71.7128713 77.7920792,71.7128713 Z M25.7251296,11.3054579 C30.1324252,13.1331867 33.0040044,17.4366703 33.0000083,22.2079208 C32.9890987,28.7105173 27.7204183,33.9791977 21.2178218,33.9901074 C16.4465713,33.9941034 12.1430877,31.1225242 10.3153589,26.7152286 C8.48763013,22.307933 9.49588099,17.2335495 12.8696657,13.8597647 C16.2434505,10.48598 21.317834,9.47772914 25.7251296,11.3054579 Z M21.2178218,15.1386138 L21.2178218,15.1782178 C17.3135513,15.1782178 14.1485148,18.3432543 14.1485148,22.2475247 C14.1485148,26.1517951 17.3135513,29.3168317 21.2178218,29.3168317 C25.1220922,29.3168317 28.2873486,26.1517951 28.2873486,22.2475247 C28.2976709,20.3657754 27.5575276,18.5574785 26.230631,17.2231483 C24.9037344,15.8888182 23.0996006,15.1386138 21.2178218,15.1386138 Z" id="Shape" fill="#000000"></path>
    </g>
</svg>