<svg width="100" height="100" viewBox="0 0 100 100" fill="none" xmlns="http://www.w3.org/2000/svg">
<g clip-path="url(#clip0)">
<path d="M8.33918 100C4.96701 100.003 1.92571 97.9724 0.634876 94.8568C-0.655956 91.7413 0.0582112 88.1548 2.44402 85.7715L85.7678 2.44202C89.0236 -0.814007 94.3023 -0.814007 97.5582 2.44202C100.814 5.69805 100.814 10.9771 97.5582 14.2331L14.2343 97.5626C12.6704 99.1249 10.5497 100.002 8.33918 100Z" fill="black"/>
<path d="M25.0033 33.337C29.6052 33.337 33.3357 29.6062 33.3357 25.004C33.3357 20.4019 29.6052 16.6711 25.0033 16.6711C20.4015 16.6711 16.671 20.4019 16.671 25.004C16.671 29.6062 20.4015 33.337 25.0033 33.337Z" fill="black"/>
<path d="M83.3308 75.0016C83.3308 79.6037 79.6003 83.3345 74.9984 83.3345C70.3966 83.3345 66.6661 79.6037 66.6661 75.0016C66.6661 70.3994 70.3966 66.6686 74.9984 66.6686C79.6003 66.6686 83.3308 70.3994 83.3308 75.0016Z" fill="black"/>
</g>
<defs>
<clipPath id="clip0">
<rect width="100" height="100" fill="white"/>
</clipPath>
</defs>
</svg>
