<?xml version="1.0" encoding="UTF-8"?>
<svg width="100px" height="100px" viewBox="0 0 100 100" version="1.1" xmlns="http://www.w3.org/2000/svg" xmlns:xlink="http://www.w3.org/1999/xlink">
    <!-- Generator: Sketch 57.1 (83088) - https://sketch.com -->
    <title>bold/percentage-bold</title>
    <desc>Created with Sketch.</desc>
    <g id="bold/percentage" stroke="none" stroke-width="1" fill="none" fill-rule="evenodd">
        <path d="M95.7418633,1.00282863 C97.3413469,1.40970521 98.5902948,2.65865313 98.9971714,4.25813665 C99.4040479,5.85762017 98.9037096,7.55155149 97.6930694,8.67326729 L7.68316827,98.6831684 C6.84152954,99.5280383 5.69749258,100.002047 4.50495045,100.000013 C2.68557385,99.9981396 1.04590701,98.9020803 0.348607404,97.2216315 C-0.348692199,95.5411828 0.0332698147,93.6062517 1.31683163,92.3168317 L91.3267327,2.30693065 C92.4484485,1.09629042 94.1423798,0.595952053 95.7418633,1.00282863 Z M76.5049505,63.990099 C83.9635287,63.990099 90.009901,70.0364713 90.009901,77.4950495 C90.0044405,84.9513648 83.9612657,90.9945395 76.5049505,91 C69.0463723,91 63,84.9536277 63,77.4950495 C63,70.0364713 69.0463723,63.990099 76.5049505,63.990099 Z M76.5049505,73 C74.6819681,73 73.0386767,74.0986747 72.3419801,75.7832752 C71.6452835,77.4678757 72.0325261,79.4063096 73.3229867,80.693934 C74.6134472,81.9815584 76.5527285,82.3645351 78.235792,81.6641337 C79.9188555,80.9637322 81.0139076,79.3180276 81.0099229,77.4950495 C81.0044413,75.0109015 78.9891045,73 76.5049505,73 Z M27.6677456,11.0100994 C32.7150974,13.1029481 36.0040044,18.0310069 36.0000073,23.4950495 C35.9890943,30.9436376 29.9535385,36.9791933 22.5049505,36.9901063 C17.0409079,36.9941034 12.1128491,33.7051964 10.0200004,28.6578446 C7.92715158,23.6104927 9.08194845,17.7993726 12.945611,13.93571 C16.8092736,10.0720475 22.6203937,8.91725059 27.6677456,11.0100994 Z M22.5049505,18.9900771 C20.6819724,18.9860924 19.0362678,20.0811445 18.3358663,21.764208 C17.6354649,23.4472715 18.0184416,25.3865528 19.306066,26.6770133 C20.5936904,27.9674739 22.5321243,28.3547165 24.2167248,27.6580199 C25.9013253,26.9613233 27,25.3180319 27,23.4950495 C27,21.0108955 24.9890985,18.9955587 22.5049505,18.9900771 Z" id="Shape" fill="#000000"></path>
    </g>
</svg>