<svg width="100" height="100" viewBox="0 0 100 100" fill="none" xmlns="http://www.w3.org/2000/svg">
<g clip-path="url(#clip0)">
<path d="M65.3292 37.9764L59.9998 33.6234C57.4828 31.5354 56.6443 28.0375 57.941 25.0352L66.7645 4.44697C68.1769 1.18682 71.7126 -0.603298 75.1763 0.188148L81.3057 1.59991L65.3292 37.9764Z" fill="black"/>
<path d="M87.0589 2.91797L94.3059 4.60032C97.6475 5.36061 100.014 8.3381 100 11.765C99.9482 60.4745 60.4743 99.9484 11.7648 100C8.33783 100.014 5.36034 97.6478 4.60005 94.3062L2.98828 87.318L40.9059 68.9533L41.2824 69.4121C53.3722 63.2003 63.2102 53.3542 69.4118 41.2591L87.0589 2.91797Z" fill="black"/>
<path d="M1.63543 81.4475L37.0707 64.2357L33.6354 60.0004C31.5599 57.4749 28.0715 56.6136 25.059 57.8828L4.44719 66.7533C1.18687 68.1784 -0.600804 71.7191 0.18837 75.1886L1.63543 81.4475Z" fill="black"/>
<path d="M31.647 22.0118H36.3529C40.2514 22.0118 43.4117 25.1721 43.4117 29.0706C43.4117 32.9691 40.2514 36.1294 36.3529 36.1294H31.647V40.8353C31.647 44.7338 28.4867 47.8941 24.5882 47.8941C20.6897 47.8941 17.5294 44.7338 17.5294 40.8353V36.1294H12.8235C8.92499 36.1294 5.76465 32.9691 5.76465 29.0706C5.76465 25.1721 8.92499 22.0118 12.8235 22.0118H17.5294V17.3059C17.5294 13.4074 20.6897 10.2471 24.5882 10.2471C28.4867 10.2471 31.647 13.4074 31.647 17.3059V22.0118Z" fill="black"/>
</g>
<defs>
<clipPath id="clip0">
<rect width="100" height="100" fill="white"/>
</clipPath>
</defs>
</svg>
