<svg width="100" height="100" viewBox="0 0 100 100" fill="none" xmlns="http://www.w3.org/2000/svg">
<g clip-path="url(#clip0)">
<path d="M0.859307 99.1411C1.41122 99.6934 2.16082 100.003 2.94166 99.9999C3.7225 100.003 4.4721 99.6934 5.02401 99.1411L99.1417 5.02341C99.8856 4.27945 100.176 3.19512 99.9039 2.17886C99.6315 1.1626 98.8378 0.368811 97.8215 0.0965056C96.8052 -0.1758 95.7209 0.114747 94.977 0.8587L0.859307 94.9764C-0.279925 96.1309 -0.279925 97.9866 0.859307 99.1411Z" fill="black"/>
<path d="M63.8583 26.1529L72.1642 6.77638C72.4457 6.11459 73.1531 5.74125 73.8583 5.88227L78.9054 7.05874L75.776 14.2234L87.0583 2.92932L75.176 0.188148C71.7123 -0.603298 68.1766 1.18682 66.7642 4.44697L57.9407 25.0352C57.0283 27.1833 57.1898 29.637 58.376 31.647L63.8583 26.1529Z" fill="black"/>
<path d="M69.4116 41.2587C63.2099 53.3538 53.372 63.1999 41.2822 69.4117L40.9763 69.047L36.7998 73.2352L39.6586 76.7646L41.7292 75.7881C56.6872 68.7395 68.7102 56.6832 75.7175 41.7058L76.6939 39.6352L73.1645 36.7764L68.988 40.9646L69.4116 41.2587Z" fill="black"/>
<path d="M2.92955 87.059L0.18837 75.1884C-0.600804 71.7189 1.18687 68.1781 4.44719 66.7531L25.0237 57.9178C27.1706 57.0149 29.6181 57.1806 31.6237 58.3649L26.1413 63.8473L6.75308 72.1531C6.09543 72.4437 5.73196 73.156 5.88249 73.859L7.05896 78.8237L15.1295 74.8943L2.92955 87.059Z" fill="black"/>
<path d="M94.0121 15.9768C91.7949 58.122 58.122 91.7949 15.9768 94.0121L10.1768 99.8121C10.6985 99.9283 11.2306 99.9913 11.765 100C60.4745 99.9484 99.9484 60.4745 100 11.765C99.9913 11.2306 99.9282 10.6985 99.8121 10.1768L94.0121 15.9768Z" fill="black"/>
</g>
<defs>
<clipPath id="clip0">
<rect width="100" height="100" fill="white"/>
</clipPath>
</defs>
</svg>
