<svg width="100" height="100" viewBox="0 0 100 100" fill="none" xmlns="http://www.w3.org/2000/svg">
<g clip-path="url(#clip0)">
<path d="M59.9998 33.6234L65.3292 37.9764L81.3057 1.59991L75.1763 0.188148C71.7126 -0.603298 68.1769 1.18682 66.7645 4.44697L57.941 25.0352C56.6443 28.0375 57.4828 31.5354 59.9998 33.6234Z" fill="black"/>
<path d="M94.3059 4.60032L87.0589 2.91797L69.4118 41.2591C63.2102 53.3542 53.3722 63.2003 41.2824 69.4121L40.9059 68.9533L2.98828 87.318L4.60005 94.3062C5.36034 97.6478 8.33783 100.014 11.7648 100C60.4743 99.9484 99.9482 60.4745 100 11.765C100.014 8.3381 97.6475 5.36061 94.3059 4.60032Z" fill="black"/>
<path d="M37.0707 64.2357L1.63543 81.4475L0.18837 75.1886C-0.600804 71.7191 1.18687 68.1784 4.44719 66.7533L25.059 57.8828C28.0715 56.6136 31.5599 57.4749 33.6354 60.0004L37.0707 64.2357Z" fill="black"/>
</g>
<defs>
<clipPath id="clip0">
<rect width="100" height="100" fill="white"/>
</clipPath>
</defs>
</svg>
