<svg width="100" height="100" viewBox="0 0 100 100" fill="none" xmlns="http://www.w3.org/2000/svg">
<path d="M0.497142 95.9667C1.50729 98.4062 3.88672 99.9977 6.52717 100C8.25918 99.9985 9.91969 99.3092 11.1436 98.0838L98.2467 10.9856C100.645 8.41179 100.574 4.40092 98.0866 1.91329C95.5988 -0.574339 91.5878 -0.645106 89.0138 1.75322L1.91071 88.8514C0.0447869 90.7196 -0.513003 93.5272 0.497142 95.9667Z" fill="black"/>
<path d="M73.3788 3.8217L79.3998 5.20438L57.2539 27.3491C57.3021 27.1682 57.3602 26.9901 57.4281 26.8156L65.594 7.76289C66.8977 4.7427 70.1728 3.08467 73.3788 3.8217Z" fill="black"/>
<path d="M27.5301 57.0717L5.36241 79.2273L3.97965 73.2284C3.24929 70.0177 4.90373 66.741 7.92106 65.4223L26.9966 57.2459L27.5301 57.0717Z" fill="black"/>
<path d="M19.3427 96.0476C60.7565 93.6373 93.8007 60.5949 96.2112 19.1834L19.3427 96.0476Z" fill="black"/>
</svg>
