<?xml version="1.0" encoding="UTF-8"?>
<svg width="100px" height="100px" viewBox="0 0 100 100" version="1.1" xmlns="http://www.w3.org/2000/svg" xmlns:xlink="http://www.w3.org/1999/xlink">
    <!-- Generator: Sketch 57.1 (83088) - https://sketch.com -->
    <title>regular/phone-regular</title>
    <desc>Created with Sketch.</desc>
    <g id="regular/phone" stroke="none" stroke-width="1" fill="none" fill-rule="evenodd">
        <path d="M94.7425743,5.58415837 L84.079208,3.11881183 L84.079208,3.11881183 L75.6039604,1.13861381 C72.3990148,0.406154574 69.1295743,2.07423646 67.8415842,5.09900986 L58.990099,25.7425742 C57.7984664,28.5280948 58.6080233,31.7663223 60.970297,33.6633663 L70.6831683,41.5841584 C64.3429264,54.1348443 54.1434676,64.3204215 41.5841584,70.6435644 L33.6633663,60.9207921 C31.7549886,58.576281 28.5297362,57.769968 25.7425742,58.9405941 L5.08910887,67.8217822 C2.07722057,69.1289459 0.416032962,72.3890266 1.12871282,75.5940594 L5.58415837,94.7524753 C6.28785984,97.830528 9.03066649,100.00997 12.1881188,100.000034 C60.6626626,99.9454361 99.9454361,60.6626626 100.000055,12.1881188 C100.012647,9.02641438 97.8266583,6.28054931 94.7425743,5.58415837 Z M63.3663366,27.5742574 L72.1584159,6.93069303 C72.5608,6.01326829 73.5577837,5.51062235 74.5346535,5.73267322 L80.2871287,7.0594059 L68.5841584,33.7920792 L63.9108911,29.970297 C63.2206023,29.3792452 62.9993206,28.4056058 63.3663366,27.5742574 Z M6.93069303,72.1485149 L27.5544554,63.3069307 C27.8114342,63.1981526 28.0872932,63.1409623 28.3663366,63.1386139 C28.985254,63.1402946 29.570598,63.4202418 29.960396,63.9009901 L32.980198,67.6039604 L7.06930689,80.1980198 L5.7524752,74.5346535 C5.53444895,73.5610769 6.02515165,72.5673008 6.93069303,72.1485149 L6.93069303,72.1485149 Z M12.1485148,95.2871288 C11.1971899,95.2740736 10.3786362,94.6110451 10.1683168,93.6831684 L8.18811877,84.9207921 L36.1188119,71.3564357 L40.3267327,76.4851485 L41.990099,75.7029703 C56.8357021,68.7284468 68.7779517,56.7861971 75.7524753,41.9405941 L76.5346535,40.2772277 L72.3762376,36.8910891 L84.9603961,8.17821778 L93.6831684,10.1584158 L93.6831684,10.1584158 C94.6091399,10.3694254 95.2688501,11.1889411 95.2772278,12.1386138 C95.2663214,58.0325603 58.0820457,95.2434215 12.1881188,95.2871288 L12.1485148,95.2871288 Z" id="phone" fill="#000000"></path>
    </g>
</svg>