<?xml version="1.0" encoding="UTF-8"?>
<svg width="100px" height="100px" viewBox="0 0 100 100" version="1.1" xmlns="http://www.w3.org/2000/svg" xmlns:xlink="http://www.w3.org/1999/xlink">
    <!-- Generator: Sketch 57.1 (83088) - https://sketch.com -->
    <title>solid/phone-solid</title>
    <desc>Created with Sketch.</desc>
    <g id="solid/phone" stroke="none" stroke-width="1" fill="none" fill-rule="evenodd">
        <path d="M86.8811882,2.78217817 L94.7425743,4.59405936 C97.8266583,5.2904503 100.012647,8.03631537 100.000109,11.1980198 C99.950902,59.678038 60.6681247,98.9696738 12.1881188,99.0297709 C9.03066649,99.0396725 6.28785984,96.860231 5.58415837,93.7821782 L3.80198015,86.069307 L40.4356436,68.2475248 L41.5841584,69.6534654 C54.129365,63.3303399 64.317518,53.1525971 70.6534654,40.6138614 L70.4059406,40.4059406 L86.8811882,2.78217817 Z M33.4862985,59.7218054 L33.6633663,59.9306931 L37.3663366,64.5049505 L2.71287124,81.3366337 L1.12871282,74.6039604 C0.434306805,71.4811079 1.99359219,68.3059943 4.8601065,66.9360523 L5.08910887,66.8316832 L25.7425742,57.9504951 C28.4452768,56.8153425 31.559921,57.5391299 33.4862985,59.7218054 L33.4862985,59.7218054 Z M75.3475211,0.117317203 L75.5940594,0.168316782 L82.1782179,1.70297025 L66.6237624,37.3267327 L60.9405941,32.6732673 C58.6601557,30.8261441 57.8415382,27.7264616 58.8866476,25.0063262 L58.990099,24.7524752 L67.8316832,4.12871283 C69.0926915,1.18714363 72.2240608,-0.469421921 75.3475211,0.117317203 L75.3475211,0.117317203 Z" id="Shape" fill="#000000"></path>
    </g>
</svg>