<svg width="100" height="100" viewBox="0 0 100 100" fill="none" xmlns="http://www.w3.org/2000/svg">
<g clip-path="url(#clip0)">
<path d="M94.306 4.59997L75.1766 0.188209C71.7129 -0.603237 68.1772 1.18688 66.7648 4.44703L57.9413 25.0353C56.6446 28.0376 57.4831 31.5354 60.0001 33.6235L69.4119 41.2588C63.2102 53.3538 53.3723 63.2 41.2825 69.4117L33.6354 60C31.5599 57.4745 28.0715 56.6131 25.059 57.8823L4.44719 66.7529C1.18687 68.1779 -0.600804 71.7187 0.18837 75.1882L2.17661 83.7882L4.60013 94.3059C5.36043 97.6474 8.33792 100.014 11.7648 100C60.4743 99.9481 99.9483 60.4742 100 11.7647C100.018 8.33622 97.6501 5.35629 94.306 4.59997ZM67.8237 32.3882L63.7648 29.0588C63.262 28.6464 63.0898 27.9526 63.3413 27.3529L72.1648 6.77644C72.4464 6.11465 73.1537 5.74131 73.859 5.88233L78.906 7.0588L67.8237 32.3882ZM5.88249 73.8588C5.72713 73.1551 6.09209 72.44 6.75308 72.1529L27.3413 63.3294C27.523 63.2498 27.7195 63.2097 27.9178 63.2117C28.3733 63.1968 28.8092 63.3973 29.0943 63.7529L31.6472 66.8706L7.05896 78.8235L5.88249 73.8588ZM11.7648 94.1176C11.0665 94.1196 10.4647 93.6263 10.3295 92.9411L8.4119 84.7058L35.4707 71.5764L39.659 76.6941L41.7295 75.7176C56.6757 68.6867 68.6972 56.6569 75.7178 41.7059L76.6825 39.6353L72.5531 36.247L84.706 8.43527L92.9413 10.3294C93.6265 10.4645 94.1197 11.0663 94.1178 11.7647C94.0659 57.2254 57.2256 94.0658 11.7648 94.1176Z" fill="black"/>
</g>
<defs>
<clipPath id="clip0">
<rect width="100" height="100" fill="white"/>
</clipPath>
</defs>
</svg>
