<?xml version="1.0" encoding="UTF-8"?>
<svg width="100px" height="100px" viewBox="0 0 100 100" version="1.1" xmlns="http://www.w3.org/2000/svg" xmlns:xlink="http://www.w3.org/1999/xlink">
    <!-- Generator: Sketch 57.1 (83088) - https://sketch.com -->
    <title>bold/phone-bold</title>
    <desc>Created with Sketch.</desc>
    <g id="bold/phone" stroke="none" stroke-width="1" fill="none" fill-rule="evenodd">
        <path d="M92.7425743,5.43564352 L74.4653466,1.20792074 C70.3536875,0.265882649 66.1556999,2.39402913 64.4851485,6.26732669 L56.039604,25.960396 C54.51919,29.5327558 55.539846,33.6799272 58.5445545,36.1386138 L66.4059406,42.5742574 C60.8210374,52.8606758 52.3701709,61.3046633 42.0792079,66.8811881 L35.6435643,59.019802 C33.1786139,56.0244817 29.0361223,55.0090071 25.4653465,56.5247525 L5.7524752,64.970297 C1.89695571,66.6637509 -0.216445328,70.8531844 0.712871238,74.9603961 L4.94059401,93.2475248 C5.8472265,97.2064355 9.37425744,100.009973 13.4356435,100.000027 C60.9545697,99.9617818 99.4667323,61.4496192 99.5050216,13.930693 C99.5213099,9.86376589 96.7096073,6.33164177 92.7425743,5.43564352 Z M72.6633664,10.0396039 L75.2871287,10.6435643 L66.3762376,30.9306931 L64.3960396,29.2970297 L72.6633664,10.0396039 Z M28.8217822,64.8811881 L29.8118812,66.049505 L10.0990099,75.6039604 L9.53465342,73.1485149 L28.8217822,64.8811881 Z M13.6534653,91 L12.1782178,84.5940594 L35.6336634,73.2079208 L39.5940594,78.0891089 L42.7623762,76.5940594 C57.4263133,69.7230993 69.2260802,57.9408447 76.1188119,43.2871287 L77.6138614,40.1089109 L73.6534654,36.8514851 L84.2079208,12.7029703 L90.5049505,14.1485148 C90.3367223,56.5225401 56.0274906,90.8317718 13.6534653,91 Z" id="phone" fill="#000000"></path>
    </g>
</svg>