<svg width="100" height="100" viewBox="0 0 100 100" fill="none" xmlns="http://www.w3.org/2000/svg">
<path fill-rule="evenodd" clip-rule="evenodd" d="M74.5674 42.3742C76.5784 42.3742 77.9104 42.7212 78.5264 43.4032C79.1294 44.0712 79.2594 45.3102 78.9164 47.0832C78.5464 48.9802 77.8424 50.3412 76.8234 51.1252C75.7924 51.9182 74.1634 52.3202 71.9814 52.3202H69.1474L71.0804 42.3742H74.5674ZM85.916 47.6925C86.554 44.4105 86.05 41.7985 84.418 39.9305C82.794 38.0725 80.212 37.1295 76.741 37.1295H65.7C65.44 37.1295 65.217 37.3145 65.168 37.5685L60.045 63.9265C60.014 64.0865 60.056 64.2515 60.158 64.3765C60.262 64.5015 60.415 64.5735 60.577 64.5735H66.319C66.579 64.5735 66.802 64.3885 66.852 64.1335L68.128 57.5655H72.599C74.817 57.5655 76.676 57.3265 78.123 56.8545C79.594 56.3775 80.948 55.5655 82.145 54.4455C83.145 53.5265 83.966 52.4965 84.588 51.3835C85.209 50.2715 85.656 49.0295 85.916 47.6925ZM53.847 57.3685C53.949 57.4935 54.103 57.5655 54.265 57.5655H60.052C60.312 57.5655 60.535 57.3805 60.584 57.1265L62.968 44.8605C63.488 42.1785 63.066 40.1885 61.712 38.9435C60.383 37.7225 58.102 37.1295 54.736 37.1295H50.32L51.557 30.7685C51.587 30.6095 51.545 30.4445 51.442 30.3195C51.339 30.1945 51.186 30.1225 51.023 30.1225H45.327C45.067 30.1225 44.844 30.3065 44.794 30.5605L39.671 56.9195C39.641 57.0785 39.683 57.2435 39.786 57.3685C39.889 57.4935 40.042 57.5655 40.204 57.5655H45.901C46.16 57.5655 46.384 57.3805 46.433 57.1265L49.283 42.4645H53.388C55.084 42.4645 55.658 42.8095 55.849 43.0155C56.161 43.3515 56.214 44.1475 55.998 45.2565L53.732 56.9195C53.701 57.0785 53.743 57.2435 53.847 57.3685ZM37.329 54.4455C38.328 53.5265 39.15 52.4965 39.772 51.3835C40.393 50.2715 40.84 49.0295 41.1 47.6925C41.738 44.4105 41.234 41.7985 39.602 39.9305C37.978 38.0725 35.395 37.1295 31.925 37.1295H20.884C20.624 37.1295 20.401 37.3145 20.352 37.5685L15.228 63.9265C15.197 64.0865 15.239 64.2515 15.342 64.3765C15.445 64.5015 15.599 64.5735 15.761 64.5735H21.503C21.763 64.5735 21.986 64.3885 22.035 64.1335L23.312 57.5655H27.783C30.001 57.5655 31.86 57.3265 33.307 56.8545C34.778 56.3775 36.132 55.5655 37.329 54.4455ZM50 23.0005C77.613 23.0005 100 34.7765 100 49.3015C100 63.8285 77.613 75.6035 50 75.6035C22.386 75.6035 0 63.8285 0 49.3015C0 34.7765 22.386 23.0005 50 23.0005ZM29.751 42.3742C31.762 42.3742 33.094 42.7212 33.71 43.4032C34.313 44.0712 34.444 45.3102 34.1 47.0832C33.73 48.9802 33.026 50.3402 32.007 51.1252C30.976 51.9182 29.347 52.3202 27.166 52.3202H24.331L26.264 42.3742H29.751Z" fill="black"/>
</svg>
