<?xml version="1.0" encoding="UTF-8"?>
<svg width="100px" height="100px" viewBox="0 0 100 100" version="1.1" xmlns="http://www.w3.org/2000/svg" xmlns:xlink="http://www.w3.org/1999/xlink">
    <!-- Generator: Sketch 57.1 (83088) - https://sketch.com -->
    <title>regular/piechart-regular</title>
    <desc>Created with Sketch.</desc>
    <g id="regular/piechart" stroke="none" stroke-width="1" fill="none" fill-rule="evenodd">
        <path d="M47.68,9.40999996 L47.68,52.33 L90.59,52.33 L90.59,54.71 C90.5569349,79.7131709 70.2931776,99.972455 45.29,100 C20.5366765,99.6321927 0.663034124,79.4610559 0.663034124,54.705 C0.663034124,29.9489441 20.5366765,9.77780728 45.29,9.40999996 L47.68,9.40999996 Z M42.91,14.24 C21.1754081,15.5181424 4.33142248,33.7358261 4.75768783,55.5037941 C5.18395318,77.2717621 22.7282379,94.8160468 44.4962059,95.2423122 C66.2641739,95.6685775 84.4818576,78.8245919 85.76,57.09 L42.91,57.09 L42.91,14.24 Z M54.71,-4.9999997e-08 C79.7092724,0.0330532402 99.9669468,20.2907276 100,45.29 L100,47.68 L52.32,47.68 L52.32,-4.9999997e-08 L54.71,-4.9999997e-08 Z M57.09,4.82999995 L57.09,42.91 L95.17,42.91 C93.9327833,22.4133222 77.5866778,6.06721673 57.09,4.82999995 Z" id="Shape" fill="#000000"></path>
    </g>
</svg>