<?xml version="1.0" encoding="UTF-8"?>
<svg width="100px" height="100px" viewBox="0 0 100 100" version="1.1" xmlns="http://www.w3.org/2000/svg" xmlns:xlink="http://www.w3.org/1999/xlink">
    <!-- Generator: Sketch 57.1 (83088) - https://sketch.com -->
    <title>bold/piechart-bold</title>
    <desc>Created with Sketch.</desc>
    <g id="bold/piechart" stroke="none" stroke-width="1" fill="none" fill-rule="evenodd">
        <path d="M45.2574257,10.4851485 L49.7524752,10.4851485 L49.7524752,50.2475248 L89.5148515,50.2475248 L89.5148515,54.7425743 C89.4875801,79.1755741 69.6904189,98.9771642 45.2574257,99.009901 C29.2862307,99.2487765 14.4249469,90.865049 6.36959579,77.0720272 C-1.68575533,63.2790053 -1.68575533,46.2160442 6.36959579,32.4230224 C14.4249469,18.6300005 29.2862307,10.246273 45.2574257,10.4851485 Z M40.7524752,19.8019802 C22.5768271,22.1199513 9.20373288,37.9702158 9.97823501,56.2766989 C10.7527371,74.583182 25.416818,89.2472629 43.7233011,90.021765 C62.0297842,90.7962671 77.8800487,77.4231729 80.1980198,59.2475248 L40.7524752,59.2475248 L40.7524752,19.8019802 Z M55.7425743,-5.00000219e-08 C80.1755674,0.0327367611 99.9727286,19.8343269 100,44.2673267 L100,48.7623762 L51.2376238,48.7623762 L51.2376238,-5.00000219e-08 L55.7425743,-5.00000219e-08 Z M60.2376238,9.28712867 L60.2376238,39.7623762 L90.7128713,39.7623762 C88.6420502,23.8678131 76.1321869,11.3579498 60.2376238,9.28712867 Z" id="Shape" fill="#000000"></path>
    </g>
</svg>