<svg width="100" height="100" viewBox="0 0 100 100" fill="none" xmlns="http://www.w3.org/2000/svg">
<g clip-path="url(#clip0)">
<path fill-rule="evenodd" clip-rule="evenodd" d="M52.1145 48.2915H100V45.3505C99.9743 20.3378 79.867 0.0583215 55.0343 0H52.1145V48.2915ZM94.1603 42.4094H57.9542V5.94085C77.3164 7.40473 92.707 22.9069 94.1603 42.4094Z" fill="black"/>
<path fill-rule="evenodd" clip-rule="evenodd" d="M6.1535 77.5353C14.3582 91.6734 29.4929 100.258 45.7492 99.9941C70.5591 99.9359 90.6571 79.6922 90.7149 54.7025V51.7614H48.669V9.30494H45.7492C29.4929 9.04119 14.3582 17.6257 6.1535 31.7638C-2.05117 45.9018 -2.05117 63.3972 6.1535 77.5353ZM6.57239 55.6133C6.06378 34.5903 22.0093 16.8577 42.8293 15.2928V57.6435H84.8168C83.2343 78.6123 65.6071 94.6487 44.7361 94.1072C23.8651 93.5657 7.081 76.6364 6.57239 55.6133Z" fill="black"/>
</g>
<defs>
<clipPath id="clip0">
<rect width="100" height="100" fill="white"/>
</clipPath>
</defs>
</svg>
