<?xml version="1.0" encoding="UTF-8"?>
<svg width="100px" height="100px" viewBox="0 0 100 100" version="1.1" xmlns="http://www.w3.org/2000/svg" xmlns:xlink="http://www.w3.org/1999/xlink">
    <!-- Generator: Sketch 57.1 (83088) - https://sketch.com -->
    <title>regular/pin-regular</title>
    <desc>Created with Sketch.</desc>
    <g id="regular/pin" stroke="none" stroke-width="1" fill="none" fill-rule="evenodd">
        <path d="M49.63,100 C48.63,100 47.91,100 42.32,93.22 C38.2934316,88.3343075 34.5538106,83.2190403 31.12,77.9 C23.76,66.54 15,49.81 15,34.63 C15.3211413,15.731031 30.7333027,0.57853627 49.635,0.57853627 C68.5366973,0.57853627 83.9488587,15.731031 84.27,34.63 C84.27,49.81 75.5,66.54 68.15,77.9 C64.7323713,83.2177509 61.0094646,88.3329914 57,93.22 C51.36,100 50.63,100 49.63,100 Z M49.63,4.75999995 C33.1401091,4.77653671 19.7765367,18.1401091 19.76,34.63 C19.76,58.27 43.63,87.84 49.63,94.36 C55.63,87.84 79.5,58.27 79.5,34.63 C79.4834633,18.1401091 66.1198909,4.77653671 49.63,4.75999995 Z M49.63,50.16 C41.0530178,50.16 34.1,43.2069822 34.1,34.63 C34.1,26.0530178 41.0530178,19.1 49.63,19.1 C58.2069822,19.1 65.16,26.0530178 65.16,34.63 C65.154484,43.2046963 58.2046963,50.154484 49.63,50.16 L49.63,50.16 Z M49.63,23.87 C45.273032,23.87 41.345268,26.4951114 39.6788643,30.5208124 C38.0124606,34.5465135 38.9357304,39.1796661 42.0180026,42.2590764 C45.1002748,45.3384867 49.7342831,46.2574522 53.7584344,44.5873096 C57.7825857,42.9171669 60.4040455,38.9869661 60.4000047,34.63 C60.3889786,28.6880839 55.5719237,23.8755017 49.63,23.87 Z" id="pin" fill="#000000"></path>
    </g>
</svg>