<svg width="100" height="100" viewBox="0 0 100 100" fill="none" xmlns="http://www.w3.org/2000/svg">
<path fill-rule="evenodd" clip-rule="evenodd" d="M49.959 0C22.3687 0 0 22.3687 0 49.959C0 71.1347 13.1582 89.2278 31.744 96.5049C31.2913 92.5581 30.9206 86.4721 31.9078 82.1556C32.8121 78.2488 37.747 57.319 37.747 57.319C37.747 57.319 36.2663 54.3175 36.2663 49.9181C36.2663 42.9688 40.296 37.788 45.3128 37.788C49.5883 37.788 51.6446 40.9954 51.6446 44.8192C51.6446 49.0957 48.9309 55.5105 47.4921 61.4716C46.299 66.4475 50 70.5182 54.893 70.5182C63.7747 70.5182 70.6001 61.1429 70.6001 47.6559C70.6001 35.6907 62.0072 27.3436 49.7122 27.3436C35.4849 27.3436 27.1387 37.9928 27.1387 49.0138C27.1387 53.2893 28.7834 57.8945 30.8387 60.4035C31.2504 60.8961 31.2913 61.3487 31.1674 61.8423C30.7977 63.405 29.9345 66.8172 29.7696 67.5166C29.5638 68.4219 29.0302 68.6277 28.084 68.1741C21.8341 65.2555 17.9273 56.1679 17.9273 48.808C17.9273 33.0599 29.3589 18.5858 50.9462 18.5858C68.256 18.5858 81.744 30.9206 81.744 47.4501C81.744 64.679 70.8879 78.5366 55.8392 78.5366C50.7814 78.5366 46.0113 75.9048 44.4076 72.7803C44.4076 72.7803 41.8996 82.3195 41.2831 84.6626C40.1731 89.022 37.1306 94.4486 35.0742 97.7798C39.7614 99.2196 44.6954 100 49.8761 100C77.4675 100 99.8361 77.6313 99.8361 50.041C99.9181 22.3687 77.5494 0 49.959 0Z" fill="black"/>
</svg>
