<svg width="100" height="100" viewBox="0 0 100 100" fill="none" xmlns="http://www.w3.org/2000/svg">
<path fill-rule="evenodd" clip-rule="evenodd" d="M52.873 0C32.316 0 12 13.705 12 35.884C12 49.989 19.934 58.004 24.743 58.004C26.727 58.004 27.869 52.474 27.869 50.911C27.869 49.048 23.12 45.081 23.12 37.327C23.12 21.218 35.382 9.798 51.25 9.798C64.894 9.798 74.992 17.552 74.992 31.797C74.992 42.436 70.725 62.392 56.9 62.392C51.911 62.392 47.644 58.785 47.644 53.616C47.644 46.042 52.934 38.709 52.934 30.896C52.934 17.632 34.12 20.036 34.12 36.064C34.12 39.431 34.54 43.157 36.043 46.223C33.278 58.124 27.628 75.855 27.628 88.117C27.628 91.904 28.169 95.631 28.53 99.418C29.211 100.179 28.87 100.099 29.912 99.718C40.01 85.894 39.649 83.188 44.218 65.097C46.682 69.785 53.054 72.31 58.102 72.31C79.38 72.31 88.937 51.572 88.937 32.879C88.937 12.983 71.747 0 52.873 0Z" fill="black"/>
</svg>
