<svg width="100" height="100" viewBox="0 0 100 100" fill="none" xmlns="http://www.w3.org/2000/svg">
<path fill-rule="evenodd" clip-rule="evenodd" d="M55.3438 65.616C51.8098 65.616 47.3488 63.849 45.6238 60.567C42.4268 73.232 42.6788 75.125 35.6108 84.803C34.8808 85.069 35.1198 85.125 34.6428 84.593C34.3898 81.941 34.0118 79.333 34.0118 76.682C34.0118 68.098 37.9668 55.686 39.9018 47.355C38.8498 45.21 38.5558 42.601 38.5558 40.245C38.5558 29.025 51.7248 27.342 51.7248 36.627C51.7248 42.096 48.0228 47.229 48.0228 52.531C48.0228 56.149 51.0098 58.674 54.5018 58.674C64.1798 58.674 67.1668 44.705 67.1668 37.258C67.1668 27.286 60.0978 21.858 50.5468 21.858C39.4388 21.858 30.8558 29.852 30.8558 41.129C30.8558 46.556 34.1798 49.333 34.1798 50.637C34.1798 51.731 33.3808 55.602 31.9918 55.602C28.6258 55.602 23.0718 49.992 23.0718 40.119C23.0718 24.593 37.2938 15 51.6828 15C64.8948 15 76.9278 24.088 76.9278 38.015C76.9278 51.1 70.2388 65.616 55.3438 65.616ZM94.2808 0H5.7198C2.5608 0 -0.0002 2.561 -0.0002 5.72V94.28C-0.0002 97.439 2.5608 100 5.7198 100H94.2808C97.4398 100 99.9998 97.439 99.9998 94.28V5.72C99.9998 2.561 97.4398 0 94.2808 0Z" fill="black"/>
</svg>
