<svg width="100" height="100" viewBox="0 0 100 100" fill="none" xmlns="http://www.w3.org/2000/svg">
<g clip-path="url(#clip0)">
<path d="M99.8706 37.6472C98.9177 33.706 93.7177 31.9531 83.6 32.1766C75.5422 16.7451 58.0091 8.78593 41.0884 12.8783C24.1676 16.9707 12.2095 32.0624 12.0941 49.4707C3.00003 53.9178 -0.811734 57.8472 0.141207 61.7883C1.09415 65.7295 7.28238 67.2589 15.0706 67.2589H16.4706C24.5663 82.6378 42.0834 90.5411 58.9707 86.434C75.8581 82.3269 87.789 67.2616 87.9177 49.8825C95.4706 46.1766 100.918 41.9178 99.8706 37.6472ZM6.16474 60.3531C6.71768 59.6354 8.30591 58.106 12.5883 55.8236C12.8987 57.7138 13.351 59.5779 13.9412 61.4001C9.92944 61.3531 7.31768 60.9295 6.16474 60.3531ZM17.9294 49.6825C17.6708 32.4757 31.0526 18.1387 48.2363 17.2121C65.42 16.2856 80.2658 29.1006 81.8589 46.2354C72.05 50.3521 61.9072 53.6228 51.5412 56.0119C41.2331 58.626 30.7203 60.3539 20.1177 61.1766C18.7006 57.5098 17.9708 53.6135 17.9647 49.6825H17.9294ZM50.0118 81.7295C39.0438 81.7333 28.8356 76.1277 22.953 66.8707C33.052 65.8241 43.0703 64.1066 52.9412 61.7295C62.7918 59.3225 72.4718 56.2648 81.9177 52.5766C80.4103 69.0773 66.5812 81.7131 50.0118 81.7295ZM87.4236 43.5295C87.1187 41.6383 86.6664 39.7737 86.0706 37.9531C90.9294 38.0119 93.0471 38.6589 93.8706 39.0354C93.1059 40.1178 90.9647 41.6942 87.4236 43.5295Z" fill="black"/>
</g>
<defs>
<clipPath id="clip0">
<rect width="100" height="100" fill="white"/>
</clipPath>
</defs>
</svg>
