<svg width="100" height="100" viewBox="0 0 100 100" fill="none" xmlns="http://www.w3.org/2000/svg">
<g clip-path="url(#clip0)">
<path fill-rule="evenodd" clip-rule="evenodd" d="M81.4927 31.1644C89.4112 30.9005 98.3068 31.5316 99.8065 37.7852C101.386 44.3372 93.0013 49.1565 85.5144 52.6333C75.1012 57.2187 64.2933 60.8292 53.2266 63.4193C42.2146 66.2426 30.9694 68.0401 19.6323 68.7894C18.3485 68.8812 17.0307 68.8812 15.7128 68.8812C8.5895 68.8812 1.52299 67.7338 0.193763 62.203C-1.31724 55.9494 6.28323 51.2907 13.452 47.8484C14.3732 31.6072 25.7003 17.8841 41.3523 14.0461C57.0043 10.2081 73.3006 17.1579 81.4927 31.1644ZM11.3616 59.495C17.3829 60.2294 31.0501 59.4147 51.1249 54.4921C71.1542 49.5695 83.6512 43.9929 88.7182 40.5391C87.3527 40.3849 85.9796 40.3083 84.6056 40.3096C78.607 43.5569 67.1552 48.2041 50.5795 52.2661C34.0039 56.3281 21.7341 57.4985 14.9175 57.3837C13.3838 58.2099 12.225 58.9098 11.3616 59.495Z" fill="black"/>
<path d="M58.6806 86.0127C43.9436 89.6231 28.529 83.676 19.9282 71.0618C31.3604 70.2988 42.7 68.486 53.8065 65.6458C64.957 63.0354 75.8482 59.402 86.3443 54.7909C84.4215 69.9832 73.4177 82.4024 58.6806 86.0127Z" fill="black"/>
</g>
<defs>
<clipPath id="clip0">
<rect width="100" height="100" fill="white"/>
</clipPath>
</defs>
</svg>
