<svg width="100" height="100" viewBox="0 0 100 100" fill="none" xmlns="http://www.w3.org/2000/svg">
<path d="M73.0572 100L54.3065 88.669H45.8744L27.1237 100V80.6856L41.25 72.15V50.3509L2 74.0711V53.6409L41.25 29.9091V13.9423C41.3535 12.5158 42.3428 0 50.0962 0C57.8495 0 58.8388 12.5158 58.9194 13.9423V29.9091L98.1808 53.6409V74.0711L58.9309 50.3509V72.15L73.0572 80.6856V100ZM50.6253 79.7308L67.3054 89.8079V83.9756L53.1791 75.394V40.1472L92.4291 63.8675V56.8848L53.1791 33.1761V14.2068C52.8915 10.0081 51.3386 5.75175 50.0962 5.75175C48.8538 5.75175 47.2548 10.4567 47.0017 14.2068V33.1761L7.75175 56.8848V63.8675L47.0017 40.1472V75.394L32.8754 83.9756V89.8539L49.5555 79.7768V79.1326L50.0847 79.4547L50.6253 79.1326V79.7308Z" fill="black"/>
</svg>
