<?xml version="1.0" encoding="UTF-8"?>
<svg width="100px" height="100px" viewBox="0 0 100 100" version="1.1" xmlns="http://www.w3.org/2000/svg" xmlns:xlink="http://www.w3.org/1999/xlink">
    <!-- Generator: Sketch 57.1 (83088) - https://sketch.com -->
    <title>regular/play-regular</title>
    <desc>Created with Sketch.</desc>
    <g id="regular/play" stroke="none" stroke-width="1" fill="none" fill-rule="evenodd">
        <path d="M17.27,100.00003 C16.5745029,100.002565 15.8885752,99.8379426 15.27,99.52 C13.8662056,98.7783726 12.9913027,97.3176317 12.9999357,95.73 L12.9999357,4.26999995 C12.9999357,2.67536707 13.8886705,1.21364355 15.3042813,0.479545265 C16.719892,-0.254553021 18.4265941,-0.138687851 19.73,0.779999951 L84.55,46.51 C85.6930481,47.3088262 86.3740033,48.6154814 86.3740033,50.01 C86.3740033,51.4045186 85.6930481,52.7111738 84.55,53.51 L19.73,99.22 C19.010077,99.7275032 18.1508226,100.00003 17.27,100.00003 L17.27,100.00003 Z M17.76,5.21999996 L17.76,94.78 L81.23,50 L17.76,5.21999996 Z" id="play" fill="#000000"></path>
    </g>
</svg>