<svg width="100" height="100" viewBox="0 0 100 100" fill="none" xmlns="http://www.w3.org/2000/svg">
<g clip-path="url(#clip0)">
<path d="M76.8997 7.05859H69.3232C66.838 7.05859 64.8232 9.07331 64.8232 11.5586V87.4762C64.8232 89.9615 66.838 91.9762 69.3232 91.9762H76.8997C79.385 91.9762 81.3997 89.9615 81.3997 87.4762V11.5586C81.3997 9.07331 79.385 7.05859 76.8997 7.05859Z" fill="black"/>
<path d="M60.8941 45.882L7.05882 7.88195C5.68448 6.93691 3.90052 6.82836 2.42174 7.59979C0.942954 8.37123 0.0112732 9.89644 0 11.5643V87.4702C0 89.9587 2.01735 91.9761 4.50588 91.9761C5.42037 91.9649 6.31018 91.6779 7.05882 91.1525L60.8941 53.1996C62.0912 52.3554 62.8032 50.982 62.8032 49.5172C62.8032 48.0525 62.0912 46.6791 60.8941 45.8349V45.882Z" fill="black"/>
<path d="M87.9238 7.05859H95.5003C97.9856 7.05859 100 9.07331 100 11.5586V87.4762C100 89.9615 97.9856 91.9762 95.5003 91.9762H87.9238C85.4385 91.9762 83.4238 89.9615 83.4238 87.4762V11.5586C83.4238 9.07331 85.4385 7.05859 87.9238 7.05859Z" fill="black"/>
</g>
<defs>
<clipPath id="clip0">
<rect width="100" height="100" fill="white"/>
</clipPath>
</defs>
</svg>
