<?xml version="1.0" encoding="UTF-8"?>
<svg width="100px" height="100px" viewBox="0 0 100 100" version="1.1" xmlns="http://www.w3.org/2000/svg" xmlns:xlink="http://www.w3.org/1999/xlink">
    <!-- Generator: Sketch 57.1 (83088) - https://sketch.com -->
    <title>bold/play-pause-bold</title>
    <desc>Created with Sketch.</desc>
    <g id="bold/play-pause" stroke="none" stroke-width="1" fill="none" fill-rule="evenodd">
        <path d="M93.64,6.99999996 L86.94,6.99999996 C84.573161,7.00360406 82.4041034,8.32121987 81.31,10.42 C80.2125252,8.31963853 78.0398027,7.00213654 75.67,6.99999996 L69,6.99999996 C65.4897523,7.00550624 62.6455063,9.84975226 62.64,13.36 L62.64,45.78 C62.3112462,45.4035511 61.9385929,45.0678275 61.53,44.78 L9.54999996,8.10999996 C7.70067039,6.80721794 5.2796797,6.64292666 3.27129878,7.68391991 C1.26291786,8.72491316 0.00154487996,10.7978641 -4.9999997e-08,13.06 L-4.9999997e-08,86.37 C0.00154487996,88.6321359 1.26291786,90.7050868 3.27129878,91.7460801 C5.2796797,92.7870733 7.70067039,92.6227821 9.54999996,91.32 L61.55,54.67 C61.9560192,54.3789607 62.3283194,54.0435551 62.66,53.67 L62.66,86.07 C62.6599827,89.5747354 65.495282,92.4189789 69,92.43 L75.69,92.43 C78.0547851,92.4184934 80.2185758,91.0978881 81.31,89 C82.4041034,91.0987801 84.573161,92.4163959 86.94,92.42 L93.64,92.42 C97.1486295,92.4200044 99.9944833,89.5786252 100,86.07 L100,13.36 C99.9944938,9.84975226 97.1502477,7.00550624 93.64,6.99999996 Z M9.08999996,80.52 L9.08999996,18.91 L52.75,49.72 L9.08999996,80.52 Z M73,83.34 L71.71,83.34 L71.71,16.09 L73,16.09 L73,83.34 Z M91,83.34 L89.67,83.34 L89.67,16.09 L90.91,16.09 L91,83.34 Z" id="play-pause" fill="#000000"></path>
    </g>
</svg>