<svg width="100" height="100" viewBox="0 0 100 100" fill="none" xmlns="http://www.w3.org/2000/svg">
<g clip-path="url(#clip0)">
<path fill-rule="evenodd" clip-rule="evenodd" d="M76.1056 91.9762H70.1174C67.1962 91.9698 64.8297 89.6033 64.8232 86.6821V12.3527C64.8297 9.43153 67.1962 7.06506 70.1174 7.05859H76.1056C79.0268 7.06506 81.3932 9.43153 81.3997 12.3527V86.6821C81.3932 89.6033 79.0268 91.9698 76.1056 91.9762ZM70.7056 86.0939H75.5174V12.9409H70.7056V86.0939Z" fill="black"/>
<path fill-rule="evenodd" clip-rule="evenodd" d="M4.50591 91.9761C3.30884 91.9761 2.16096 91.4997 1.31561 90.6522C0.47025 89.8046 -0.00309491 88.6555 1.52301e-05 87.4584V11.5643C0.0113038 9.89644 0.942985 8.37123 2.42177 7.59979C3.90055 6.82836 5.68451 6.93691 7.05885 7.88195L60.8941 45.882C62.0912 46.7261 62.8033 48.0995 62.8033 49.5643C62.8033 51.0291 62.0912 52.4025 60.8941 53.2467L7.05885 91.1525C6.31021 91.6779 5.4204 91.9649 4.50591 91.9761ZM5.88238 84.8114L55.9059 49.5172L5.88238 14.2231V84.8114Z" fill="black"/>
<path fill-rule="evenodd" clip-rule="evenodd" d="M88.7179 91.9762H94.7062C97.6273 91.9698 99.9938 89.6033 100 86.6821V12.3527C99.9938 9.43153 97.6273 7.06506 94.7062 7.05859H88.7179C85.7968 7.06506 83.4303 9.43153 83.4238 12.3527V86.6821C83.4303 89.6033 85.7968 91.9698 88.7179 91.9762ZM94.1179 86.0939H89.3062V12.9409H94.1179V86.0939Z" fill="black"/>
</g>
<defs>
<clipPath id="clip0">
<rect width="100" height="100" fill="white"/>
</clipPath>
</defs>
</svg>
