<?xml version="1.0" encoding="UTF-8"?>
<svg width="100px" height="100px" viewBox="0 0 100 100" version="1.1" xmlns="http://www.w3.org/2000/svg" xmlns:xlink="http://www.w3.org/1999/xlink">
    <!-- Generator: Sketch 57.1 (83088) - https://sketch.com -->
    <title>solid/play-pause-solid</title>
    <desc>Created with Sketch.</desc>
    <g id="solid/play-pause" stroke="none" stroke-width="1" fill="none" fill-rule="evenodd">
        <path d="M76.89,7.49999996 C79.2593016,7.49999996 81.18,9.42069838 81.18,11.79 L81.18,87.95 C81.18,90.3193016 79.2593016,92.24 76.89,92.24 L69.89,92.24 C67.5206984,92.24 65.6,90.3193016 65.6,87.95 L65.6,11.79 C65.6,9.42069838 67.5206984,7.49999996 69.89,7.49999996 L76.89,7.49999996 Z M95.7100001,7.49999996 C98.0793016,7.49999996 100,9.42069838 100,11.79 L100,87.95 C100,90.3193016 98.0793016,92.24 95.7100001,92.24 L88.71,92.24 C86.3406985,92.24 84.42,90.3193016 84.42,87.95 L84.42,11.79 C84.42,9.42069838 86.3406985,7.49999996 88.71,7.49999996 L95.7100001,7.49999996 Z M6.05452689,8.10510337 L6.24999996,8.22999996 L60.68,46.63 L60.68,46.62 C61.7190529,47.3722613 62.3342805,48.5772186 62.3342805,49.86 C62.3342805,51.0673237 61.7893038,52.2057097 60.8589238,52.962625 L60.68,53.1 L6.24999996,91.5 C5.0405965,92.3235559 3.47803434,92.4210544 2.17563602,91.7542265 C0.938357609,91.1207399 0.123466003,89.8934943 0.01175413,88.5183004 L-4.99996418e-08,88.3 L-4.99996418e-08,11.5 C0.0136732716,10.0247473 0.838286773,8.67679016 2.14549556,7.99285853 C3.38390388,7.3449233 4.86494663,7.39262422 6.05452689,8.10510337 Z" id="Shape" fill="#000000"></path>
    </g>
</svg>