<?xml version="1.0" encoding="UTF-8"?>
<svg width="100px" height="100px" viewBox="0 0 100 100" version="1.1" xmlns="http://www.w3.org/2000/svg" xmlns:xlink="http://www.w3.org/1999/xlink">
    <!-- Generator: Sketch 57.1 (83088) - https://sketch.com -->
    <title>regular/play-pause-regular</title>
    <desc>Created with Sketch.</desc>
    <g id="regular/play-pause" stroke="none" stroke-width="1" fill="none" fill-rule="evenodd">
        <path d="M6.24999996,8.22999996 L60.68,46.63 C61.7190529,47.3822613 62.3342805,48.5872186 62.3342805,49.87 C62.3342805,51.1527814 61.7190529,52.3577387 60.68,53.11 L6.24999996,91.5 C5.59190364,91.9681553 4.80750711,92.2261346 3.99999995,92.24 C1.79086095,92.24 -4.99996453e-08,90.449139 -4.99996453e-08,88.24 L-4.99996453e-08,11.5 C0.0136732716,10.0247473 0.838286773,8.67679016 2.14549556,7.99285853 C3.45270434,7.30892689 5.03025581,7.40007135 6.24999996,8.22999996 Z M76.88,7.49999996 C79.2493016,7.49999996 81.17,9.42069838 81.17,11.79 L81.17,87.95 C81.1645299,90.3131334 79.2531142,92.229015 76.89,92.24 L69.89,92.24 C67.5246046,92.2344863 65.61,90.3154019 65.61,87.95 L65.61,11.79 C65.61,9.42848694 67.5185127,7.51100934 69.88,7.49999996 L76.88,7.49999996 Z M95.7,7.49997672 C96.8395104,7.49734375 97.9332595,7.94815171 98.7399547,8.75297085 C99.5466498,9.55778999 100,10.6504865 100,11.79 L100,87.95 C99.9945017,90.3170204 98.0770204,92.2345017 95.71,92.24 L88.71,92.24 C86.3446046,92.2344863 84.43,90.3154019 84.43,87.95 L84.43,11.79 C84.43,9.42848694 86.3385127,7.51100934 88.7,7.49997672 L95.7,7.49997672 Z M76.42,12.26 L70.36,12.26 L70.36,87.5 L76.42,87.5 L76.42,12.26 Z M95.24,12.26 L89.18,12.26 L89.18,87.5 L95.24,87.5 L95.24,12.26 Z M4.75999995,13 L4.75999995,86.73 L57,49.87 L4.75999995,13 Z" id="Shape" fill="#000000"></path>
    </g>
</svg>