<?xml version="1.0" encoding="UTF-8"?>
<svg width="100px" height="100px" viewBox="0 0 100 100" version="1.1" xmlns="http://www.w3.org/2000/svg" xmlns:xlink="http://www.w3.org/1999/xlink">
    <!-- Generator: Sketch 57.1 (83088) - https://sketch.com -->
    <title>regular/plus-regular</title>
    <desc>Created with Sketch.</desc>
    <g id="regular/plus" stroke="none" stroke-width="1" fill="none" fill-rule="evenodd">
        <path d="M97.62,47.62 L52.38,47.62 L52.38,2.37999995 C52.3800001,1.52970781 51.9263746,0.744005455 51.19,0.318859371 C50.4536255,-0.106286713 49.5463745,-0.106286713 48.81,0.318859371 C48.0736254,0.744005455 47.6199999,1.52970781 47.62,2.37999995 L47.62,47.62 L2.37999995,47.62 C1.06556225,47.62 -4.9999997e-08,48.6855623 -4.9999997e-08,49.9999998 C-4.9999997e-08,51.3144377 1.06556225,52.38 2.37999995,52.38 L47.62,52.38 L47.62,97.62 C47.62,98.9344378 48.6855623,99.9999998 50,99.9999998 C51.3144377,99.9999998 52.38,98.9344378 52.38,97.62 L52.38,52.38 L97.62,52.38 C98.9344377,52.3799999 100,51.3144377 100,49.9999998 C100,48.6855623 98.9344377,47.6200001 97.62,47.62 Z" id="plus" fill="#000000"></path>
    </g>
</svg>