<svg width="100" height="100" viewBox="0 0 100 100" fill="none" xmlns="http://www.w3.org/2000/svg">
<path d="M97.0588 47.0588H52.9412V2.94118C52.9412 1.31681 51.6244 0 50 0C48.3756 0 47.0588 1.31681 47.0588 2.94118V47.0588H2.94118C1.31681 47.0588 0 48.3756 0 50C0 51.6244 1.31681 52.9412 2.94118 52.9412H47.0588V97.0588C47.0588 98.6832 48.3756 100 50 100C51.6244 100 52.9412 98.6832 52.9412 97.0588V52.9412H97.0588C98.6832 52.9412 100 51.6244 100 50C100 48.3756 98.6832 47.0588 97.0588 47.0588Z" fill="black"/>
</svg>
