<?xml version="1.0" encoding="UTF-8"?>
<svg width="100px" height="100px" viewBox="0 0 100 100" version="1.1" xmlns="http://www.w3.org/2000/svg" xmlns:xlink="http://www.w3.org/1999/xlink">
    <!-- Generator: Sketch 57.1 (83088) - https://sketch.com -->
    <title>solid/plus-solid</title>
    <desc>Created with Sketch.</desc>
    <g id="solid/plus" stroke="none" stroke-width="1" fill="none" fill-rule="evenodd">
        <path d="M91.67,41.67 L58.33,41.67 L58.33,8.32999996 C58.3300001,5.35397753 56.7423111,2.60401937 54.1650001,1.11600813 C51.5876891,-0.372003108 48.4123109,-0.372003108 45.8349999,1.11600813 C43.2576889,2.60401937 41.6699999,5.35397753 41.67,8.32999996 L41.67,41.67 L8.32999996,41.67 C3.72946808,41.6700001 1.98253346e-07,45.3994681 1.98253346e-07,49.9999997 C1.98253346e-07,54.6005319 3.72946808,58.3299999 8.32999996,58.33 L41.67,58.33 L41.67,91.67 C41.6699999,94.6460225 43.2576889,97.3959806 45.8349999,98.8839919 C48.4123109,100.372003 51.5876891,100.372003 54.1650001,98.8839919 C56.7423111,97.3959806 58.3300001,94.6460225 58.33,91.67 L58.33,58.33 L91.67,58.33 C94.6460225,58.3300001 97.3959806,56.7423111 98.8839919,54.1650001 C100.372003,51.5876891 100.372003,48.4123109 98.8839919,45.8349999 C97.3959806,43.2576889 94.6460225,41.6699999 91.67,41.67 Z" id="plus" fill="#000000"></path>
    </g>
</svg>