<svg width="100" height="100" viewBox="0 0 100 100" fill="none" xmlns="http://www.w3.org/2000/svg">
<path d="M46.8584 56.0824C46.8584 57.7067 48.1752 59.0235 49.7996 59.0235C51.4239 59.0235 52.7407 57.7067 52.7407 56.0824V2.94118C52.7407 1.31681 51.4239 0 49.7996 0C48.1752 0 46.8584 1.31681 46.8584 2.94118V56.0824Z" fill="black"/>
<path d="M7.14392 66.4655C11.9315 86.1405 29.5507 99.9919 49.7998 99.9995C70.0131 99.9503 87.5823 86.1107 92.364 66.4711C97.1456 46.8316 87.9046 26.4645 69.9763 17.129C69.0432 16.6456 67.9231 16.6967 67.038 17.2632C66.1528 17.8296 65.6371 18.8252 65.685 19.8749C65.733 20.9247 66.3373 21.8691 67.2704 22.3525C82.8537 30.4106 90.904 48.0817 86.7574 65.128C82.6108 82.1744 67.3432 94.1733 49.7998 94.1733C32.2564 94.1733 16.9888 82.1744 12.8422 65.128C8.69568 48.0817 16.746 30.4106 32.3292 22.3525C33.2707 21.8691 33.8828 20.9202 33.935 19.8632C33.9871 18.8061 33.4714 17.8015 32.5821 17.2279C31.6927 16.6542 30.5649 16.5985 29.6234 17.0819C11.6416 26.3923 2.35636 46.7904 7.14392 66.4655Z" fill="black"/>
</svg>
