<?xml version="1.0" encoding="UTF-8"?>
<svg width="100px" height="100px" viewBox="0 0 100 100" version="1.1" xmlns="http://www.w3.org/2000/svg" xmlns:xlink="http://www.w3.org/1999/xlink">
    <!-- Generator: Sketch 57.1 (83088) - https://sketch.com -->
    <title>bold/power-bold</title>
    <desc>Created with Sketch.</desc>
    <g id="bold/power" stroke="none" stroke-width="1" fill="none" fill-rule="evenodd">
        <path d="M34.7833687,17.4589331 C36.1612658,18.3240757 36.9573353,19.8720952 36.8595003,21.4961335 C36.7616653,23.1201718 35.7855163,24.5614297 34.3137255,25.2549019 C20.2608919,32.5294536 13.0050044,48.4705832 16.748545,63.8454698 C20.4920856,79.2203565 34.2641639,90.0415105 50.0882353,90.0415105 C65.9123067,90.0415105 79.684385,79.2203565 83.4279256,63.8454698 C87.1714662,48.4705832 79.9155787,32.5294536 65.8627451,25.2549019 C63.7822757,24.0681926 63.010284,21.4503116 64.113955,19.3246253 C65.2176261,17.198939 67.8029977,16.3242243 69.9705883,17.3431372 C87.6894022,26.5060015 96.8443477,46.5977173 92.1328613,65.9811212 C87.421375,85.3645251 70.0654388,99.0122923 50.1176471,99.0196079 C30.1661972,99.0213327 12.8018913,85.3765337 8.08514703,65.990645 C3.36840278,46.6047564 12.5230371,26.5076837 30.245098,17.3431372 C31.6653223,16.5493898 33.4054717,16.5937905 34.7833687,17.4589331 Z M52.413041,1.40428423 C53.8234267,2.24823016 54.6554635,3.79937902 54.5784314,5.44117643 L54.5784314,55.7647059 C54.5730252,58.2244995 52.5774466,60.2156863 50.1176471,60.2156863 C47.6594385,60.2156863 45.6666667,58.2229145 45.6666667,55.7647059 L45.6666667,5.44117643 C45.5896345,3.79937902 46.4216713,2.24823016 47.832057,1.40428423 C49.2424428,0.560338289 51.0026553,0.560338289 52.413041,1.40428423 Z" id="Shape" fill="#000000"></path>
    </g>
</svg>