<?xml version="1.0" encoding="UTF-8"?>
<svg width="100px" height="100px" viewBox="0 0 100 100" version="1.1" xmlns="http://www.w3.org/2000/svg" xmlns:xlink="http://www.w3.org/1999/xlink">
    <!-- Generator: Sketch 57.1 (83088) - https://sketch.com -->
    <title>solid/power-solid</title>
    <desc>Created with Sketch.</desc>
    <g id="solid/power" stroke="none" stroke-width="1" fill="none" fill-rule="evenodd">
        <path d="M50.1386139,0.960395991 C54.7100005,0.960395991 58.4158416,4.66623707 58.4158416,9.23762372 L58.4157615,22.9587565 C58.5290982,21.9970745 58.8149517,21.0392085 59.2871289,20.1287129 C61.3841704,16.0850043 66.362232,14.5069189 70.4059406,16.6039604 C88.4971046,25.9652506 97.8400648,46.4845916 93.02308,66.276525 C88.2060951,86.0684585 70.4785935,100 50.1089109,100 C29.7392282,100 12.0117267,86.0684585 7.1947418,66.276525 C2.37775694,46.4845916 11.7207171,25.9652506 29.8118812,16.6039604 C33.8555898,14.5069188 38.8336515,16.0850042 40.9306931,20.1287128 C43.0277347,24.1724215 41.4496492,29.1504831 37.4059406,31.2475247 C26.0346938,37.1096117 20.1514986,49.9916605 23.1675551,62.4243882 C26.1836116,74.857116 37.31558,83.6114547 50.1089109,83.6114547 C62.9022418,83.6114547 74.0342102,74.857116 77.0502667,62.4243882 C80.0663232,49.9916605 74.1831279,37.1096117 62.8118812,31.2475247 C60.2872835,29.9382843 58.7237477,27.5060667 58.4156105,24.8793551 L58.4158416,55.8316832 C58.4132469,58.0285765 57.5353167,60.1338728 55.976313,61.6817276 C54.4173092,63.2295823 52.3057663,64.0923803 50.1089109,64.0793566 C45.5539287,64.0793566 41.8613861,60.3866653 41.8613861,55.8316832 L41.8613861,9.23762372 C41.8613861,4.66623707 45.5672272,0.960395991 50.1386139,0.960395991 Z" id="Path" fill="#000000"></path>
    </g>
</svg>