<svg width="100" height="100" viewBox="0 0 100 100" fill="none" xmlns="http://www.w3.org/2000/svg">
<g clip-path="url(#clip0)">
<path d="M95.7997 89.8354C94.6679 89.8343 93.5866 89.3661 92.8115 88.5413C87.988 83.4471 73.7291 71.7413 44.1527 71.0118V83.8354C44.1505 85.4659 43.1865 86.9415 41.6942 87.5985C40.202 88.2555 38.4626 87.9701 37.2586 86.8707L2.47032 55.1648C0.894889 53.7291 -0.00292969 51.6962 -0.00292969 49.5648C-0.00292969 47.4333 0.894889 45.4005 2.47032 43.9648L37.2586 12.2471C38.4642 11.1463 40.2063 10.8617 41.6996 11.5217C43.1929 12.1817 44.1552 13.6616 44.1527 15.2942V28.2354C62.5527 28.753 76.7527 34.1883 86.3762 44.4236C99.8468 58.706 100.329 78.2354 99.9056 85.9413C99.8196 87.5843 98.7584 89.0162 97.2115 89.5765C96.7607 89.7485 96.2822 89.8362 95.7997 89.8354ZM41.988 65.0942C70.6233 65.2707 86.6938 75.2118 94.0938 81.6707C93.988 73.3177 92.1291 59.1177 82.0585 48.4118C73.2233 39.0001 59.7056 34.1765 41.9291 34.0471C39.8924 34.0214 38.2531 32.3664 38.2468 30.3295V19.2942L6.43502 48.3177C6.08282 48.6367 5.8819 49.0896 5.8819 49.5648C5.8819 50.0399 6.08282 50.4929 6.43502 50.8118L38.2703 79.8354V68.8236C38.2703 66.7704 39.9348 65.106 41.988 65.106V65.0942Z" fill="black"/>
</g>
<defs>
<clipPath id="clip0">
<rect width="100" height="100" fill="white"/>
</clipPath>
</defs>
</svg>
