<svg width="100" height="100" viewBox="0 0 100 100" fill="none" xmlns="http://www.w3.org/2000/svg">
<g clip-path="url(#clip0)">
<path d="M86.3762 44.3883C76.7527 34.153 62.5527 28.7177 44.1527 28.2001V15.2942C44.1552 13.6616 43.1929 12.1817 41.6996 11.5217C40.2063 10.8617 38.4642 11.1463 37.2586 12.2471L2.47032 43.9648C0.894889 45.4005 -0.00292969 47.4333 -0.00292969 49.5648C-0.00292969 51.6962 0.894889 53.7291 2.47032 55.1648L37.2703 86.9295C38.4766 88.0224 40.2136 88.3021 41.702 87.6432C43.1904 86.9842 44.1509 85.5102 44.1527 83.8824V71.0118C73.7291 71.7413 87.988 83.4471 92.8115 88.5413C93.5866 89.3661 94.6679 89.8343 95.7997 89.8354C96.2822 89.8362 96.7607 89.7485 97.2115 89.5765C98.7604 89.0188 99.8227 87.5854 99.9056 85.9413C100.329 78.2354 99.8468 58.7177 86.3762 44.3883Z" fill="black"/>
</g>
<defs>
<clipPath id="clip0">
<rect width="100" height="100" fill="white"/>
</clipPath>
</defs>
</svg>
