<svg width="100" height="100" viewBox="0 0 100 100" fill="none" xmlns="http://www.w3.org/2000/svg">
<g clip-path="url(#clip0)">
<path d="M7.3762 51.4702C7.3762 54.7802 8.69219 57.9545 11.0342 60.2936L42.7633 91.9522C40.799 91.8092 38.9486 90.9757 37.5399 89.5993L2.42253 54.4113C-0.807509 51.1549 -0.807509 45.9031 2.42253 42.6467L37.2105 7.91762C38.7193 6.40418 40.7352 5.50311 42.8692 5.38823L50.2809 5C48.6251 5.6419 47.1222 6.62379 45.8692 7.88233L11.0342 42.6467C8.69219 44.9858 7.3762 48.1601 7.3762 51.4702Z" fill="black"/>
<path fill-rule="evenodd" clip-rule="evenodd" d="M88.7043 6.45912C91.7357 6.30679 94.6911 7.43854 96.8454 9.57674C98.9972 11.7237 100.139 14.6819 99.9865 17.7178L98.1513 52.0587C98.0273 54.1813 97.132 56.1854 95.6336 57.694L60.8339 92.4819C57.5802 95.7183 52.3231 95.7183 49.0693 92.4819L13.952 57.341C10.722 54.0846 10.722 48.8328 13.952 45.5764L48.7282 10.8003C50.2383 9.28867 52.2534 8.38794 54.3869 8.27087L88.7043 6.45912ZM75.0011 35.8033C78.0224 37.0538 81.4994 36.3606 83.8102 34.0471C86.9556 30.8889 86.9556 25.7819 83.8102 22.6237C81.4994 20.3102 78.0224 19.617 75.0011 20.8674C71.9798 22.1179 70.0096 25.0656 70.0096 28.3354C70.0096 31.6052 71.9798 34.5529 75.0011 35.8033Z" fill="black"/>
</g>
<defs>
<clipPath id="clip0">
<rect width="100" height="100" fill="white"/>
</clipPath>
</defs>
</svg>
