<?xml version="1.0" encoding="UTF-8"?>
<svg width="100px" height="100px" viewBox="0 0 100 100" version="1.1" xmlns="http://www.w3.org/2000/svg" xmlns:xlink="http://www.w3.org/1999/xlink">
    <!-- Generator: Sketch 57.1 (83088) - https://sketch.com -->
    <title>solid/pricetag-solid</title>
    <desc>Created with Sketch.</desc>
    <g id="solid/pricetag" stroke="none" stroke-width="1" fill="none" fill-rule="evenodd">
        <path d="M95.7647059,4.72549015 C93.5393629,2.48717629 90.465585,1.30330822 87.3137255,1.47058819 L48.5196078,3.53921564 C46.3552859,3.65754428 44.310241,4.5683919 42.7745098,6.09803917 L3.45098035,45.4313725 C1.86564276,47.009911 0.974435585,49.1549535 0.974435585,51.3921569 C0.974435585,53.6293602 1.86564276,55.7744027 3.45098035,57.3529412 L43.1372549,97.0490197 C46.4341163,100.329434 51.7619621,100.329434 55.0588235,97.0490197 L94.3921569,57.7156863 C95.9272412,56.1836904 96.8390653,54.136453 96.9509804,51.9705882 L99.0196079,13.1764706 C99.1781264,10.026007 97.9955855,6.95567505 95.7647059,4.72549015 L95.7647059,4.72549015 Z M81.7254902,31.6862745 C79.1123049,34.2996463 75.1821575,35.0815106 71.7677193,33.6672754 C68.3532811,32.2530401 66.1269898,28.9212242 66.1269898,25.2254902 C66.1269898,21.5297562 68.3532811,18.1979402 71.7677193,16.783705 C75.1821575,15.3694697 79.1123049,16.151334 81.7254902,18.7647059 C85.2935028,22.3329731 85.2935028,28.1180072 81.7254902,31.6862745 L81.7254902,31.6862745 Z" id="pricetag" fill="#000000"></path>
    </g>
</svg>