<?xml version="1.0" encoding="UTF-8"?>
<svg width="100px" height="100px" viewBox="0 0 100 100" version="1.1" xmlns="http://www.w3.org/2000/svg" xmlns:xlink="http://www.w3.org/1999/xlink">
    <!-- Generator: Sketch 57.1 (83088) - https://sketch.com -->
    <title>solid/pricetags-solid</title>
    <desc>Created with Sketch.</desc>
    <g id="solid/pricetags" stroke="none" stroke-width="1" fill="none" fill-rule="evenodd">
        <path d="M89.7352942,13.7647058 C92.2336641,13.6314626 94.6711435,14.565117 96.4411765,16.3333333 C98.2129805,18.1016723 99.1502818,20.5393683 99.0196079,23.0392157 L97.4901961,51.6372549 C97.4034695,53.3869836 96.6656105,55.0410465 95.4215687,56.2745098 L66.4215686,85.2745098 C63.7483074,87.9159252 59.447771,87.9159252 56.7745098,85.2745098 L27.5,56 C24.85212,53.3255757 24.85212,49.0175615 27.5,46.3431373 L56.5,17.3431372 C57.7383263,16.1061515 59.389528,15.369569 61.1372549,15.2745098 L89.7352942,13.7647058 Z M48.3431373,12.2941176 L20.8921568,39.745098 C17.8610295,42.7752473 16.1580776,46.8855988 16.1580776,51.1715686 C16.1580776,55.4575385 17.8610295,59.5678899 20.8921568,62.5980392 L41.5196078,83.1960785 C38.8067251,85.4976286 34.7848199,85.3444132 32.2549019,82.8431373 L2.94117642,53.5980392 C0.293296447,50.9236149 0.293296447,46.6156007 2.94117642,43.9411765 L31.9411765,14.9803921 C33.1816154,13.7464832 34.8315825,13.0104514 36.5784314,12.9117647 L48.3431373,12.2941176 Z M85.6568628,27.117647 C83.0259443,24.4890854 78.7624893,24.4903591 76.1331418,27.1204922 C73.5037943,29.7506254 73.5037943,34.0140805 76.1331418,36.6442136 C78.7624893,39.2743467 83.0259443,39.2756204 85.6568628,36.6470588 C86.9236923,35.3850549 87.6357967,33.6705114 87.6357967,31.8823529 C87.6357967,30.0941944 86.9236923,28.3796509 85.6568628,27.117647 Z" id="Shape" fill="#000000"></path>
    </g>
</svg>