<svg width="100" height="100" viewBox="0 0 100 100" fill="none" xmlns="http://www.w3.org/2000/svg">
<g clip-path="url(#clip0)">
<path fill-rule="evenodd" clip-rule="evenodd" d="M67.2718 30.9347C68.3019 36.0936 72.8339 39.8057 78.0946 39.7994C81.0118 39.7998 83.8094 38.6401 85.8708 36.576C89.5932 32.8586 90.1699 27.0288 87.2481 22.6541C84.3262 18.2793 78.7202 16.579 73.8604 18.5935C69.0007 20.6079 66.2417 25.7758 67.2718 30.9347ZM74.4595 25.1882C75.414 24.2056 76.7247 23.6499 78.0946 23.6471C79.4645 23.6499 80.7753 24.2056 81.7298 25.1882C83.2001 26.6585 83.64 28.8698 82.8443 30.7908C82.0486 32.7119 80.174 33.9645 78.0946 33.9645C76.0153 33.9645 74.1407 32.7119 73.345 30.7908C72.5493 28.8698 72.9892 26.6585 74.4595 25.1882Z" fill="black"/>
<path fill-rule="evenodd" clip-rule="evenodd" d="M88.7061 6.907C91.7406 6.74884 94.6997 7.88627 96.8469 10.0363C98.9901 12.1695 100.131 15.1096 99.988 18.1301L98.1528 52.4699C98.0378 54.6014 97.1415 56.6159 95.6352 58.1284L60.8366 92.927C57.583 96.1634 52.3261 96.1634 49.0724 92.927L47.5431 91.3977C44.2841 93.2427 40.195 92.6895 37.5435 90.0448L2.42727 54.9168C-0.809089 51.6631 -0.809089 46.4062 2.42727 43.1526L37.2141 8.36577C38.7208 6.85103 40.7387 5.95326 42.8727 5.84822L77.1772 4.013C80.1836 3.8652 83.1146 4.98299 85.2592 7.09523L88.7061 6.907ZM6.5918 50.764L41.708 85.8803C41.9515 86.121 42.2446 86.3057 42.5668 86.4214L13.9562 57.799C12.3959 56.2392 11.5192 54.1233 11.5192 51.9169C11.5192 49.7106 12.3959 47.5947 13.9562 46.0348L48.5548 11.4362L43.1785 11.7186C42.4966 11.7523 41.8512 12.0373 41.3669 12.5185L6.5918 47.3054C6.13057 47.7626 5.87112 48.3852 5.87112 49.0347C5.87112 49.6842 6.13057 50.3068 6.5918 50.764ZM91.4825 53.9757C91.9672 53.4974 92.2566 52.8557 92.2942 52.1757L94.1059 17.8595C94.1743 16.4897 93.6593 15.1551 92.6883 14.1864C91.7174 13.2177 90.3816 12.7057 89.012 12.7773L54.7075 14.6008C54.0379 14.6431 53.4065 14.9274 52.9311 15.4008L18.109 50.1876C17.1546 51.143 17.1546 52.6909 18.109 53.6463L53.2252 88.7154C54.1908 89.6447 55.7182 89.6447 56.6839 88.7154L91.4825 53.9757Z" fill="black"/>
</g>
<defs>
<clipPath id="clip0">
<rect width="100" height="100" fill="white"/>
</clipPath>
</defs>
</svg>
