<?xml version="1.0" encoding="UTF-8"?>
<svg width="100px" height="100px" viewBox="0 0 100 100" version="1.1" xmlns="http://www.w3.org/2000/svg" xmlns:xlink="http://www.w3.org/1999/xlink">
    <!-- Generator: Sketch 57.1 (83088) - https://sketch.com -->
    <title>bold/pricetags-bold</title>
    <desc>Created with Sketch.</desc>
    <g id="bold/pricetags" stroke="none" stroke-width="1" fill="none" fill-rule="evenodd">
        <path d="M71.6764706,7.84313721 C74.2783673,7.71937223 76.8446058,8.48716866 78.9509804,10.0196078 L87.0196079,9.58823525 C90.2451652,9.42339907 93.3899278,10.6307315 95.6764706,12.9117647 C97.9689137,15.1921682 99.1842924,18.3393219 99.0196079,21.5686274 L97.3627451,52.2156863 C97.2364007,54.569482 96.2448029,56.793594 94.5784314,58.4607843 L63.5,89.5392157 C61.7623047,91.2783896 59.4045964,92.2555717 56.9460784,92.2555717 C54.4875604,92.2555717 52.1298522,91.2783896 50.3921569,89.5392157 L48.4313725,87.5784314 L48.1764706,87.8235294 C46.4387752,89.5627033 44.081067,90.5398854 41.622549,90.5398854 C39.164031,90.5398854 36.8063228,89.5627033 35.0686274,87.8235294 L3.69607839,56.4509804 C1.95690454,54.7132851 0.979722457,52.3555768 0.979722457,49.8970588 C0.979722457,47.4385408 1.95690454,45.0808326 3.69607839,43.3431372 L34.7745098,12.2647058 C36.4447086,10.5969105 38.6723989,9.60527408 41.0294118,9.48039212 L71.6764706,7.84313721 Z M87.6372549,18.4901902 L87.5,18.4901902 L56.8431373,20.117647 C56.6842959,20.1249683 56.5339301,20.191409 56.4215686,20.3039215 L25.3529412,51.3823529 C25.2797304,51.4420018 25.2396137,51.5331763 25.244185,51.627451 C25.24618,51.7214206 25.280971,51.8118773 25.3431372,51.8823529 L56.7156863,83.254902 C56.7753351,83.3281127 56.8665096,83.3682295 56.9607843,83.3636582 C57.0571241,83.3636582 57.1496281,83.3250427 57.2156863,83.254902 L88.2941177,52.1764706 C88.4058469,52.0635736 88.4721476,51.9135247 88.4803922,51.754902 L90.1176471,21.1078431 C90.1554052,20.4265606 89.9108446,19.759811 89.4415257,19.2645218 C88.9722068,18.7692327 88.3195822,18.4891505 87.6372549,18.4901902 Z M45.9705882,18.1666666 L41.4901961,18.4019608 C41.3347935,18.4116624 41.1883201,18.4779242 41.0784314,18.5882353 L9.99999996,49.6666666 C9.92520401,49.7293856 9.88508466,49.8242132 9.89215682,49.9215686 C9.88667247,50.0158433 9.92678925,50.1070178 9.99999996,50.1666666 L41.372549,81.5392157 C41.4374005,81.6081953 41.5278711,81.6473143 41.622549,81.6473143 C41.7172269,81.6473143 41.8076975,81.6081953 41.872549,81.5392157 L42.1568627,81.2745098 L19.0392157,58.2058824 C17.3000418,56.468187 16.3228597,54.1104788 16.3228597,51.6519608 C16.3228597,49.1934428 17.3000418,46.8357346 19.0392157,45.0980392 L45.9705882,18.1666666 Z M77.6372549,19.2843128 C82.3589464,19.2856151 86.6151321,22.1304804 88.4218692,26.4928276 C90.2286062,30.8551748 89.2302464,35.8762955 85.8921569,39.2156863 L85.6608519,39.4408304 C81.9199704,42.9835187 76.2802608,43.6617805 71.7961859,41.0731261 C67.2186928,38.4305414 64.987192,33.0426065 66.3557911,27.9373511 C67.7243902,22.8320956 72.3517375,19.2828568 77.6372549,19.2843128 L77.6372549,19.2843128 Z M77.6372549,28.1960784 C76.5197108,28.1953149 75.5116085,28.8674233 75.0825455,29.8993198 C74.6534825,30.9312163 74.8878486,32.1199435 75.6764706,32.9117647 C76.7704608,33.9675903 78.504049,33.9675903 79.5980392,32.9117647 L79.5980392,32.9313725 C80.1250088,32.4150499 80.4219689,31.7083456 80.4219689,30.9705882 C80.4219689,30.2328308 80.1250088,29.5261265 79.5980392,29.0098039 C79.081929,28.4837488 78.3741859,28.1900355 77.6372549,28.1960784 Z" id="Shape" fill="#000000"></path>
    </g>
</svg>