<svg width="100" height="100" viewBox="0 0 100 100" fill="none" xmlns="http://www.w3.org/2000/svg">
<g clip-path="url(#clip0)">
<path d="M96.524 3.47522C94.1647 1.09875 90.9046 -0.159365 87.5609 0.016197L48.4738 2.09867C46.1619 2.2309 43.98 3.21112 42.3455 4.85177L2.65843 44.5011C0.955357 46.2025 -0.00158691 48.5114 -0.00158691 50.9191C-0.00158691 53.3267 0.955357 55.6356 2.65843 57.3371L42.6513 97.3394C44.3524 99.0428 46.6607 100 49.0678 100C51.4749 100 53.7832 99.0428 55.4843 97.3394L95.1243 57.7018C96.7703 56.0469 97.75 53.8441 97.8767 51.5132L99.9822 12.4404C100.158 9.09592 98.8999 5.83509 96.524 3.47522ZM81.9619 31.065C79.3283 33.7008 75.3664 34.49 71.9241 33.0644C68.4819 31.6389 66.2373 28.2794 66.2373 24.5529C66.2373 20.8264 68.4819 17.4669 71.9241 16.0413C75.3664 14.6157 79.3283 15.4049 81.9619 18.0407C83.6908 19.7667 84.6624 22.1096 84.6624 24.5529C84.6624 26.9961 83.6908 29.3391 81.9619 31.065Z" fill="black"/>
</g>
<defs>
<clipPath id="clip0">
<rect width="100" height="100" fill="white"/>
</clipPath>
</defs>
</svg>
