<svg width="100" height="100" viewBox="0 0 100 100" fill="none" xmlns="http://www.w3.org/2000/svg">
<path fill-rule="evenodd" clip-rule="evenodd" d="M36.9631 7.31331C34.4901 7.31331 32.4861 9.35931 32.4861 11.8743C32.4861 14.3793 34.4901 16.4063 36.9631 16.4063C39.4271 16.4063 41.4401 14.3793 41.4401 11.8743C41.4401 9.35931 39.4271 7.31331 36.9631 7.31331ZM49.8651 0.0013102C53.9431 -0.0176898 58.1961 0.29231 62.2941 0.97431C68.7681 2.05231 74.2221 6.91031 74.2221 13.3753V36.0913C74.2221 42.7533 68.9271 48.2143 62.2941 48.2143H38.4641C30.3741 48.2143 23.5611 55.1613 23.5611 63.0353V73.9343H15.3591C8.4251 73.9343 4.3751 68.9023 2.6791 61.8393C0.392103 52.3513 0.489102 46.6803 2.6791 37.5933C4.5781 29.6663 10.6501 25.4983 17.5831 25.4983H50.3931V22.4673H26.5361V13.3753C26.5361 6.49131 28.3691 2.75731 38.4641 0.97431C41.8921 0.36831 45.7861 0.0193102 49.8651 0.0013102ZM63.7956 83.0272C61.3306 83.0272 59.3186 85.0532 59.3186 87.5592C59.3186 90.0742 61.3306 92.1202 63.7956 92.1202C66.2686 92.1202 68.2726 90.0742 68.2726 87.5592C68.2726 85.0532 66.2686 83.0272 63.7956 83.0272ZM77.1966 25.4982H86.1506C93.0936 25.4982 96.3656 30.6912 98.0786 37.5932C100.464 47.1792 100.57 54.3672 98.0786 61.8402C95.6676 69.0982 93.0836 73.9342 86.1506 73.9342H50.3936V76.9652H74.2226V86.0582C74.2226 92.9422 68.2996 96.4422 62.2936 98.1812C53.2586 100.802 46.0166 100.401 38.4646 98.1812C32.1586 96.3262 26.5366 92.5232 26.5366 86.0582V63.3402C26.5366 56.8042 31.9376 51.2172 38.4646 51.2172H62.2936C70.2336 51.2172 77.1966 44.3052 77.1966 36.0912V25.4982Z" fill="black"/>
</svg>
