<?xml version="1.0" encoding="UTF-8"?>
<svg width="100px" height="100px" viewBox="0 0 100 100" version="1.1" xmlns="http://www.w3.org/2000/svg" xmlns:xlink="http://www.w3.org/1999/xlink">
    <!-- Generator: Sketch 57.1 (83088) - https://sketch.com -->
    <title>brand/python-alt-brand</title>
    <desc>Created with Sketch.</desc>
    <g id="brand/python-alt" stroke="none" stroke-width="1" fill="none" fill-rule="evenodd">
        <path d="M36.9631,7.3133 C34.4901,7.3133 32.4861,9.3593 32.4861,11.8743 C32.4861,14.3793 34.4901,16.4063 36.9631,16.4063 C39.4271,16.4063 41.4401,14.3793 41.4401,11.8743 C41.4401,9.3593 39.4271,7.3133 36.9631,7.3133 Z M49.8651,0.0013 C53.9431,-0.0177 58.1961,0.2923 62.2941,0.9743 C68.7681,2.0523 74.2221,6.9103 74.2221,13.3753 L74.2221,36.0913 C74.2221,42.7533 68.9271,48.2143 62.2941,48.2143 L38.4641,48.2143 C30.3741,48.2143 23.5611,55.1613 23.5611,63.0353 L23.5611,73.9343 L15.3591,73.9343 C8.4251,73.9343 4.3751,68.9023 2.6791,61.8393 C0.3921,52.3513 0.4891,46.6803 2.6791,37.5933 C4.5781,29.6663 10.6501,25.4983 17.5831,25.4983 L50.3931,25.4983 L50.3931,22.4673 L26.5361,22.4673 L26.5361,13.3753 C26.5361,6.4913 28.3691,2.7573 38.4641,0.9743 C41.8921,0.3683 45.7861,0.0193 49.8651,0.0013 Z M63.7956,83.0272 C61.3306,83.0272 59.3186,85.0532 59.3186,87.5592 C59.3186,90.0742 61.3306,92.1202 63.7956,92.1202 C66.2686,92.1202 68.2726,90.0742 68.2726,87.5592 C68.2726,85.0532 66.2686,83.0272 63.7956,83.0272 Z M77.1966,25.4982 L86.1506,25.4982 C93.0936,25.4982 96.3656,30.6912 98.0786,37.5932 C100.4636,47.1792 100.5696,54.3672 98.0786,61.8402 C95.6676,69.0982 93.0836,73.9342 86.1506,73.9342 L50.3936,73.9342 L50.3936,76.9652 L74.2226,76.9652 L74.2226,86.0582 C74.2226,92.9422 68.2996,96.4422 62.2936,98.1812 C53.2586,100.8022 46.0166,100.4012 38.4646,98.1812 C32.1586,96.3262 26.5366,92.5232 26.5366,86.0582 L26.5366,63.3402 C26.5366,56.8042 31.9376,51.2172 38.4646,51.2172 L62.2936,51.2172 C70.2336,51.2172 77.1966,44.3052 77.1966,36.0912 L77.1966,25.4982 Z" id="Shape" fill="#000000"></path>
    </g>
</svg>