<svg width="100" height="100" viewBox="0 0 100 100" fill="none" xmlns="http://www.w3.org/2000/svg">
<path d="M30.2249 37.9643C32.0224 39.7757 32.6937 42.4208 31.9776 44.8701H36.2309C37.026 44.8679 37.8158 44.9982 38.5679 45.2557V5.32833L63.9125 0H18.8204V39.4483L20.3161 37.9643C23.0533 35.2305 27.4876 35.2305 30.2249 37.9643Z" fill="black"/>
<path d="M31.9776 58.8922C32.8519 61.9599 31.5451 65.2311 28.7978 66.8521C26.0504 68.473 22.5551 68.035 20.2927 65.7863L18.8204 64.2672V91.1426H38.5329V58.4248C37.7813 58.6861 36.9915 58.8203 36.1959 58.822L31.9776 58.8922Z" fill="black"/>
<path d="M87.0248 2.53549C87.0519 2.66237 87.0675 2.79142 87.0716 2.92109V90.6749L55.3119 97.3353V5.98255L83.6012 0.0816568H83.7764C84.1122 0.017269 84.4572 0.017269 84.793 0.0816568C84.9561 0.115994 85.1162 0.162873 85.2721 0.221876L85.424 0.30367C85.5407 0.35897 85.6539 0.421408 85.7629 0.490629L85.9148 0.607479C85.9531 0.64101 85.9934 0.672578 86.0332 0.703792C86.0905 0.748694 86.147 0.792941 86.1952 0.841177C86.228 0.892746 86.2554 0.947567 86.277 1.00477C86.361 1.08884 86.4391 1.17864 86.5107 1.27352C86.522 1.29049 86.5354 1.30815 86.5492 1.32633C86.5922 1.3832 86.6392 1.44527 86.6392 1.50722C86.6929 1.59303 86.7398 1.68289 86.7794 1.77597C86.8689 1.90753 86.9509 2.04408 87.0248 2.18494V2.53549Z" fill="black"/>
<path d="M42.6113 100L49.4703 98.5628V7.20999L42.6113 8.64723V100Z" fill="black"/>
<path d="M27.5959 47.2072H36.2311V47.1722C38.8125 47.1722 40.9051 49.2648 40.9051 51.8461C40.9051 54.4275 38.8125 56.5201 36.2311 56.5201H27.5959L28.5775 57.49C29.7589 58.6714 30.2203 60.3933 29.7879 62.0072C29.3554 63.621 28.0949 64.8816 26.481 65.314C24.8672 65.7464 23.1452 65.285 21.9638 64.1036L13.6208 55.7489C12.733 54.8602 12.1799 53.6919 12.055 52.4421C11.9817 52.056 11.9817 51.6596 12.055 51.2736C12.1827 50.0245 12.7354 48.8571 13.6208 47.9667L21.9638 39.612C23.7901 37.7857 26.7512 37.7857 28.5775 39.612C30.4038 41.4383 30.4038 44.3994 28.5775 46.2257L27.5959 47.2072Z" fill="black"/>
</svg>
