<?xml version="1.0" encoding="UTF-8"?>
<svg width="100px" height="100px" viewBox="0 0 100 100" version="1.1" xmlns="http://www.w3.org/2000/svg" xmlns:xlink="http://www.w3.org/1999/xlink">
    <!-- Generator: Sketch 57.1 (83088) - https://sketch.com -->
    <title>bold/quit-bold</title>
    <desc>Created with Sketch.</desc>
    <g id="bold/quit" stroke="none" stroke-width="1" fill="none" fill-rule="evenodd">
        <path d="M17.88,-4.9999997e-08 L17.88,35 C20.2600833,32.6579601 23.5568874,31.4930893 26.88,31.82 L26.88,8.99999995 L40.78,8.99999995 L40.78,51.25 C40.5977857,48.9193643 38.6577323,47.1185076 36.32,47.11 L27.9999915,47.11 L28.9999915,46.17 C30.1361046,45.0267501 30.575992,43.3642391 30.1539608,41.8087187 C29.7319297,40.2531983 28.5120965,39.0409891 26.9539608,38.6287186 C25.395825,38.2164482 23.7361045,38.6667501 22.6,39.81 L14.6,47.81 C13.5746712,48.8081353 12.9974364,50.179068 12.9999915,51.61 L12.9999915,51.61 C12.9983039,53.0240498 13.5596337,54.3805967 14.56,55.38 L22.56,63.38 C24.3079812,65.1583569 27.1666431,65.1829812 28.945,63.435 C30.7233569,61.6870188 30.7479812,58.8283569 28.9999915,57.05 L27.9999915,56.11 L36.31,56.11 C38.6428221,56.1127624 40.5873354,54.3248542 40.78,52 L40.78,82.17 L26.88,82.17 L26.88,71.42 C26.5146693,71.4596463 26.1474755,71.4796751 25.78,71.48 C22.822358,71.4844566 19.9828006,70.3198787 17.88,68.24 L17.88,91.17 L40.78,91.17 L40.78,100 L52.78,97.48 L52.78,97.48 L83.32,91.08 L83.32,91.08 L86.9,90.33 L86.9,-4.9999997e-08 L17.88,-4.9999997e-08 Z M56.38,14.56 L77.94,9.99999996 L77.94,83 L56.38,87.54 L56.38,14.56 Z" id="quit" fill="#000000"></path>
    </g>
</svg>