<svg width="100" height="100" viewBox="0 0 100 100" fill="none" xmlns="http://www.w3.org/2000/svg">
<path fill-rule="evenodd" clip-rule="evenodd" d="M18.0846 39.4808V0H86.3924V90.7262L84.0535 91.2174L52.2678 97.8248L41.9064 100V91.2174H18.0846V64.32L19.5815 65.8403C20.7541 66.992 22.2937 67.6956 23.9319 67.8283V85.452H41.9064V8.65396L55.2733 5.84727H23.9319V35.9958C22.2922 36.1317 20.7523 36.8395 19.5815 37.9956L18.0846 39.4808ZM47.7537 92.878L48.7594 92.6675V13.1447L47.7537 13.3552V92.878ZM80.5452 6.52555L54.6067 11.9752V91.4396L80.5452 86.0484V6.52555Z" fill="black"/>
<path d="M22.6458 48.9999H35.5566C37.1712 48.9999 38.4802 50.3089 38.4802 51.9235C38.4802 53.5382 37.1712 54.8472 35.5566 54.8472H22.6926L26.6687 58.8233C27.7752 59.972 27.7568 61.7956 26.6274 62.9218C25.498 64.048 23.6744 64.0612 22.5288 62.9515L14.1789 54.5899C13.593 54.0299 13.2034 53.2957 13.068 52.4966C13.0306 52.3157 13.011 52.1316 13.0095 51.9469C12.9968 51.7835 12.9968 51.6192 13.0095 51.4558C13.1297 50.6052 13.5433 49.8234 14.1789 49.2455L22.4704 40.9307C23.6232 39.9285 25.3533 39.9827 26.4411 41.0552C27.5289 42.1277 27.6077 43.8568 26.6219 45.0238L22.6458 48.9999Z" fill="black"/>
</svg>
