<?xml version="1.0" encoding="UTF-8"?>
<svg width="100px" height="100px" viewBox="0 0 100 100" version="1.1" xmlns="http://www.w3.org/2000/svg" xmlns:xlink="http://www.w3.org/1999/xlink">
    <!-- Generator: Sketch 57.1 (83088) - https://sketch.com -->
    <title>brand/react-brand</title>
    <desc>Created with Sketch.</desc>
    <g id="brand/react" stroke="none" stroke-width="1" fill="none" fill-rule="evenodd">
        <path d="M49.9795,58.8521 C44.8345,58.8521 40.6645,54.6821 40.6645,49.5381 C40.6645,44.3931 44.8345,40.2221 49.9795,40.2221 C55.1245,40.2221 59.2945,44.3931 59.2945,49.5381 C59.2945,54.6821 55.1245,58.8521 49.9795,58.8521 Z M83.5713,59.8512 C90.7873,56.7932 95.4543,52.7382 95.4743,49.5382 C95.4743,46.3372 90.8073,42.3012 83.5923,39.2232 C81.7983,38.4692 79.8823,37.7762 77.8643,37.1442 C76.7223,41.1192 75.2143,45.2562 73.3393,49.4972 C75.2343,53.7562 76.7623,57.9142 77.9253,61.9102 C79.9023,61.2782 81.8183,60.6052 83.5713,59.8512 Z M72.7483,88.8972 C75.4993,87.2872 76.6813,81.2332 75.7233,73.4472 C75.4993,71.5512 75.1333,69.5742 74.6643,67.5152 C70.6693,68.5142 66.3063,69.2682 61.7003,69.7572 C58.9893,73.5282 56.1353,76.9322 53.2813,79.9282 C59.9263,86.0642 66.1843,89.4272 70.4033,89.4272 C71.3413,89.4272 72.1353,89.2642 72.7483,88.8972 Z M50.0413,76.7482 C51.9163,74.7922 53.8113,72.6112 55.6463,70.2262 C53.7913,70.3282 51.8953,70.3692 49.9793,70.3692 C48.0843,70.3692 46.2083,70.3082 44.3743,70.2262 C46.2493,72.6112 48.1453,74.7922 50.0413,76.7482 Z M29.6773,89.5292 C33.9173,89.5292 40.1543,86.1452 46.8003,79.9692 C43.9253,76.9732 41.0723,73.5482 38.3203,69.7782 C33.7343,69.2892 29.3723,68.5352 25.3773,67.5562 C24.9283,69.6152 24.5613,71.6322 24.3373,73.5482 C23.4003,81.3352 24.6023,87.3892 27.3743,88.9792 C27.9863,89.3262 28.7603,89.5082 29.6773,89.5292 Z M22.1153,61.9302 C23.2573,57.9552 24.7653,53.8182 26.6403,49.5782 C24.7453,45.3182 23.2163,41.1602 22.0543,37.1642 C20.0773,37.7962 18.1613,38.4692 16.4083,39.2232 C9.1933,42.2812 4.5253,46.3372 4.5253,49.5382 C4.5253,52.7382 9.1933,56.7732 16.4083,59.8512 C18.1813,60.6052 20.0973,61.2982 22.1153,61.9302 Z M27.2523,10.1772 C24.5003,11.7882 23.3183,17.8412 24.2763,25.6272 C24.5213,27.5232 24.8673,29.5002 25.3363,31.5392 C29.3313,30.5402 33.6933,29.7862 38.3003,29.2962 C41.0113,25.5262 43.8643,22.1222 46.7183,19.1252 C40.0733,12.9902 33.8163,9.6262 29.5963,9.6262 L29.5963,9.6472 C28.6583,9.6472 27.8633,9.8102 27.2523,10.1772 Z M55.6053,28.8482 C53.7303,26.4632 51.8353,24.2832 49.9393,22.3262 C48.0633,24.2832 46.1683,26.4632 44.3333,28.8482 C46.1883,28.7472 48.0843,28.7052 50.0003,28.7052 C51.8953,28.7052 53.7703,28.7672 55.6053,28.8482 Z M68.0393,39.1012 C68.9973,40.7322 69.8743,42.3632 70.7093,43.9932 C71.7693,41.2822 72.7073,38.5712 73.4613,35.9422 C70.7913,35.2892 67.9983,34.7592 65.1033,34.3312 C66.1023,35.8802 67.1013,37.4702 68.0393,39.1012 Z M68.0593,59.9132 C67.1223,61.5632 66.1233,63.1732 65.1243,64.7432 C68.0393,64.3152 70.8513,63.7652 73.5223,63.1132 C72.7483,60.4622 71.8093,57.7312 70.7093,54.9992 C69.8743,56.6302 68.9973,58.2822 68.0593,59.9132 Z M31.6553,49.5982 C32.9393,52.3302 34.3453,55.0402 35.8953,57.7102 C37.4853,60.4422 39.1353,63.0312 40.8273,65.4562 C43.8443,65.7012 46.9223,65.8442 50.0003,65.8442 C53.0983,65.8442 56.1753,65.7012 59.2133,65.4362 C60.9053,63.0102 62.5363,60.4022 64.1263,57.6502 C65.6543,54.9802 67.0603,52.2482 68.3443,49.5172 C67.0603,46.7862 65.6543,44.0752 64.1053,41.4052 C62.5153,38.6732 60.8643,36.0842 59.1733,33.6592 C56.1553,33.4142 53.0783,33.2712 50.0003,33.2712 C46.9023,33.2712 43.8233,33.4142 40.7863,33.6792 C39.0953,36.1052 37.4643,38.7132 35.8743,41.4652 C34.3453,44.1352 32.9193,46.8672 31.6553,49.5982 Z M26.4573,35.9422 C27.2323,38.5912 28.1693,41.3232 29.2703,44.0542 C30.1063,42.4232 30.9823,40.7922 31.9203,39.1632 C32.8583,37.5112 33.8563,35.9012 34.8553,34.3312 C31.9403,34.7592 29.1273,35.3102 26.4573,35.9422 Z M31.9403,59.9732 C30.9823,58.3422 30.1063,56.7122 29.2703,55.0812 C28.2103,57.7922 27.2733,60.5032 26.5183,63.1322 C29.1893,63.7852 31.9813,64.3152 34.8753,64.7432 C33.8773,63.1942 32.8983,61.6042 31.9403,59.9732 Z M70.3013,9.5452 C66.0623,9.5562 59.8353,12.9392 53.2003,19.1052 C56.0743,22.1012 58.9273,25.5262 61.6793,29.2962 C66.2653,29.7862 70.6283,30.5402 74.6233,31.5182 C75.0713,29.4592 75.4383,27.4422 75.6623,25.5262 C76.5993,17.7402 75.3973,11.6862 72.6253,10.0962 C71.9933,9.7492 71.2393,9.5662 70.3013,9.5662 L70.3013,9.5452 Z M100.0003,49.5382 C100.0003,56.1412 91.7453,62.4192 79.1073,66.3132 C82.0623,79.2362 80.7783,89.5292 75.0503,92.8312 C73.7063,93.6062 72.1563,93.9722 70.4443,93.9722 C64.8393,93.9722 57.5013,90.0182 50.0813,83.1282 C42.6623,90.0592 35.3243,94.0542 29.7183,94.0542 C28.0063,94.0542 26.4573,93.6872 25.1323,92.9132 C19.3843,89.6112 18.0803,79.2962 21.0153,66.3322 C8.2963,62.4402 0.0003,56.1622 0.0003,49.5382 C0.0003,42.9332 8.2553,36.6752 20.9333,32.7622 C17.9783,19.8392 19.2623,9.5452 24.9893,6.2442 C26.3353,5.4682 27.8843,5.1022 29.5963,5.1022 L29.5963,5.0812 C35.2013,5.0812 42.5393,9.0362 49.9593,15.9252 C57.3793,8.9952 64.7173,4.9992 70.3223,4.9992 L70.3223,5.0212 C72.0063,5.0242 73.5483,5.3902 74.8673,6.1622 C80.6153,9.4632 81.9203,19.7782 78.9853,32.7422 C91.7043,36.6342 100.0003,42.9132 100.0003,49.5382 Z" id="Shape" fill="#000000"></path>
    </g>
</svg>