<svg width="100" height="100" viewBox="0 0 100 100" fill="none" xmlns="http://www.w3.org/2000/svg">
<path fill-rule="evenodd" clip-rule="evenodd" d="M49.9794 58.8519C44.8344 58.8519 40.6644 54.6819 40.6644 49.5379C40.6644 44.3929 44.8344 40.2219 49.9794 40.2219C55.1244 40.2219 59.2944 44.3929 59.2944 49.5379C59.2944 54.6819 55.1244 58.8519 49.9794 58.8519ZM83.5712 59.851C90.7872 56.793 95.4542 52.738 95.4742 49.538C95.4742 46.337 90.8072 42.301 83.5922 39.223C81.7982 38.469 79.8822 37.776 77.8642 37.144C76.7222 41.119 75.2142 45.256 73.3392 49.497C75.2342 53.756 76.7622 57.914 77.9252 61.91C79.9022 61.278 81.8182 60.605 83.5712 59.851ZM72.7482 88.897C75.4992 87.287 76.6812 81.233 75.7232 73.447C75.4992 71.551 75.1332 69.574 74.6642 67.515C70.6692 68.514 66.3062 69.268 61.7002 69.757C58.9892 73.528 56.1352 76.932 53.2812 79.928C59.9262 86.064 66.1842 89.427 70.4032 89.427C71.3412 89.427 72.1352 89.264 72.7482 88.897ZM50.0412 76.748C51.9162 74.792 53.8112 72.611 55.6462 70.226C53.7912 70.328 51.8952 70.369 49.9792 70.369C48.0842 70.369 46.2082 70.308 44.3742 70.226C46.2492 72.611 48.1452 74.792 50.0412 76.748ZM29.6772 89.529C33.9172 89.529 40.1542 86.145 46.8002 79.969C43.9252 76.973 41.0722 73.548 38.3202 69.778C33.7342 69.289 29.3722 68.535 25.3772 67.556C24.9282 69.615 24.5612 71.632 24.3372 73.548C23.4002 81.335 24.6022 87.389 27.3742 88.979C27.9862 89.326 28.7602 89.508 29.6772 89.529ZM22.1152 61.93C23.2572 57.955 24.7652 53.818 26.6402 49.578C24.7452 45.318 23.2162 41.16 22.0542 37.164C20.0772 37.796 18.1612 38.469 16.4082 39.223C9.19324 42.281 4.52524 46.337 4.52524 49.538C4.52524 52.738 9.19324 56.773 16.4082 59.851C18.1812 60.605 20.0972 61.298 22.1152 61.93ZM27.2522 10.177C24.5002 11.788 23.3182 17.841 24.2762 25.627C24.5212 27.523 24.8672 29.5 25.3362 31.539C29.3312 30.54 33.6932 29.786 38.3002 29.296C41.0112 25.526 43.8642 22.122 46.7182 19.125C40.0732 12.99 33.8162 9.62602 29.5962 9.62602V9.64702C28.6582 9.64702 27.8632 9.81002 27.2522 10.177ZM55.6052 28.848C53.7302 26.463 51.8352 24.283 49.9392 22.326C48.0632 24.283 46.1682 26.463 44.3332 28.848C46.1882 28.747 48.0842 28.705 50.0002 28.705C51.8952 28.705 53.7702 28.767 55.6052 28.848ZM68.0392 39.101C68.9972 40.732 69.8742 42.363 70.7092 43.993C71.7692 41.282 72.7072 38.571 73.4612 35.942C70.7912 35.289 67.9982 34.759 65.1032 34.331C66.1022 35.88 67.1012 37.47 68.0392 39.101ZM68.0592 59.913C67.1222 61.563 66.1232 63.173 65.1242 64.743C68.0392 64.315 70.8512 63.765 73.5222 63.113C72.7482 60.462 71.8092 57.731 70.7092 54.999C69.8742 56.63 68.9972 58.282 68.0592 59.913ZM31.6552 49.598C32.9392 52.33 34.3452 55.04 35.8952 57.71C37.4852 60.442 39.1352 63.031 40.8272 65.456C43.8442 65.701 46.9222 65.844 50.0002 65.844C53.0982 65.844 56.1752 65.701 59.2132 65.436C60.9052 63.01 62.5362 60.402 64.1262 57.65C65.6542 54.98 67.0602 52.248 68.3442 49.517C67.0602 46.786 65.6542 44.075 64.1052 41.405C62.5152 38.673 60.8642 36.084 59.1732 33.659C56.1552 33.414 53.0782 33.271 50.0002 33.271C46.9022 33.271 43.8232 33.414 40.7862 33.679C39.0952 36.105 37.4642 38.713 35.8742 41.465C34.3452 44.135 32.9192 46.867 31.6552 49.598ZM26.4572 35.942C27.2322 38.591 28.1692 41.323 29.2702 44.054C30.1062 42.423 30.9822 40.792 31.9202 39.163C32.8582 37.511 33.8562 35.901 34.8552 34.331C31.9402 34.759 29.1272 35.31 26.4572 35.942ZM31.9402 59.973C30.9822 58.342 30.1062 56.712 29.2702 55.081C28.2102 57.792 27.2732 60.503 26.5182 63.132C29.1892 63.785 31.9812 64.315 34.8752 64.743C33.8772 63.194 32.8982 61.604 31.9402 59.973ZM70.3012 9.54502C66.0622 9.55602 59.8352 12.939 53.2002 19.105C56.0742 22.101 58.9272 25.526 61.6792 29.296C66.2652 29.786 70.6282 30.54 74.6232 31.518C75.0712 29.459 75.4382 27.442 75.6622 25.526C76.5992 17.74 75.3972 11.686 72.6252 10.096C71.9932 9.74902 71.2392 9.56602 70.3012 9.56602V9.54502ZM100 49.538C100 56.141 91.7452 62.419 79.1072 66.313C82.0622 79.236 80.7782 89.529 75.0502 92.831C73.7062 93.606 72.1562 93.972 70.4442 93.972C64.8392 93.972 57.5012 90.018 50.0812 83.128C42.6622 90.059 35.3242 94.054 29.7182 94.054C28.0062 94.054 26.4572 93.687 25.1322 92.913C19.3842 89.611 18.0802 79.296 21.0152 66.332C8.29624 62.44 0.000244141 56.162 0.000244141 49.538C0.000244141 42.933 8.25524 36.675 20.9332 32.762C17.9782 19.839 19.2622 9.54502 24.9892 6.24402C26.3352 5.46802 27.8842 5.10202 29.5962 5.10202V5.08102C35.2012 5.08102 42.5392 9.03602 49.9592 15.925C57.3792 8.99502 64.7172 4.99902 70.3222 4.99902V5.02102C72.0062 5.02402 73.5482 5.39002 74.8672 6.16202C80.6152 9.46302 81.9202 19.778 78.9852 32.742C91.7042 36.634 100 42.913 100 49.538Z" fill="black"/>
</svg>
