<svg width="100" height="100" viewBox="0 0 100 100" fill="none" xmlns="http://www.w3.org/2000/svg">
<g clip-path="url(#clip0)">
<path d="M97.0589 47.0179C95.4345 47.0179 94.1178 48.3347 94.1178 49.9589C94.1167 70.3353 80.16 88.0599 60.3519 92.8406C40.5438 97.6213 20.0386 88.2142 10.7428 70.0816C1.44701 51.9491 5.77958 29.8094 21.2247 16.5182C36.6699 3.22696 59.2086 2.24282 75.7535 14.1372L70.8242 14.7842C69.1999 14.8882 67.9674 16.2892 68.0714 17.9135C68.1753 19.5378 69.5764 20.7702 71.2007 20.6663H71.5889L82.8004 19.1958L83.1416 19.1134C83.7935 19.0257 84.3978 18.7235 84.8592 18.2546L85.0474 18.0076C85.815 17.1951 86.1777 16.0811 86.0356 14.9725L84.5651 3.71419C84.3539 2.08991 82.866 0.944339 81.2416 1.1555C79.6173 1.36665 78.4717 2.85457 78.6829 4.47886L79.3417 9.5139C60.6247 -4.05046 35.0493 -3.0165 17.4885 12.0145C-0.0723671 27.0455 -5.04003 52.1545 5.47438 72.7397C15.9888 93.3249 39.2439 104.019 61.7159 98.6034C84.1879 93.1877 100.018 73.0738 100 49.9589C100 49.1789 99.6901 48.4309 99.1385 47.8793C98.587 47.3278 97.8389 47.0179 97.0589 47.0179Z" fill="black"/>
</g>
<defs>
<clipPath id="clip0">
<rect width="100" height="100" fill="white"/>
</clipPath>
</defs>
</svg>
