<svg width="100" height="100" viewBox="0 0 100 100" fill="none" xmlns="http://www.w3.org/2000/svg">
<path d="M91.6667 41.6857C87.0643 41.6857 83.3334 45.4164 83.3334 50.0185C83.3279 64.5222 73.9434 77.3576 60.1239 81.7626C46.3044 86.1675 31.2225 81.1309 22.8237 69.306C14.4249 57.4811 14.6374 41.5827 23.3492 29.9864C32.0609 18.3902 47.2721 13.7583 60.9689 18.5309C60.4851 19.8088 60.3276 21.187 60.5106 22.5411C61.0347 26.7007 64.5678 29.8232 68.7605 29.8323C69.109 29.8315 69.457 29.8072 69.8022 29.7594L79.7397 28.4574L80.5001 28.3115C82.1849 27.9942 83.7309 27.1649 84.9271 25.9367L85.1563 25.6659L85.2813 25.5201L85.5209 25.2388C87.132 23.3054 87.8609 20.7863 87.5313 18.2914L86.2813 8.3545C85.8368 4.93288 83.3295 2.13909 79.9755 1.32836C76.6215 0.517637 73.1148 1.8577 71.1564 4.69849C51.0178 -4.70541 27.0888 0.31259 12.4254 17.0146C-2.23802 33.7166 -4.11518 58.0925 7.81809 76.8424C19.7514 95.5923 42.63 104.215 63.971 98.0045C85.3119 91.7945 99.9914 72.2433 100 50.0185C100 47.8085 99.122 45.689 97.5592 44.1263C95.9964 42.5636 93.8768 41.6857 91.6667 41.6857Z" fill="black"/>
</svg>
