<?xml version="1.0" encoding="UTF-8"?>
<svg width="100px" height="100px" viewBox="0 0 100 100" version="1.1" xmlns="http://www.w3.org/2000/svg" xmlns:xlink="http://www.w3.org/1999/xlink">
    <!-- Generator: Sketch 57.1 (83088) - https://sketch.com -->
    <title>regular/rocket-regular</title>
    <desc>Created with Sketch.</desc>
    <g id="regular/rocket" stroke="none" stroke-width="1" fill="none" fill-rule="evenodd">
        <path d="M80.5742575,0.990098961 C84.667002,0.91003003 88.7607565,1.0852877 92.8316832,1.51485144 C95.8060159,1.86884697 98.150955,4.2137861 98.5049505,7.18811877 C98.9330424,11.2657089 99.1016988,15.3663738 99.009901,19.4653465 L99.0075228,20.0116288 C98.8504951,37.9915148 90.9108911,51.2859406 73.2673268,62.9306931 L73.2673268,74.3762376 C73.2734796,76.4144787 72.4600209,78.3696337 71.009901,79.8019802 L52.7623762,98 C51.5598906,99.2454896 49.9093285,99.9584754 48.1782178,99.9801981 C47.077451,99.9762038 45.9951422,99.6971179 45.029703,99.1683169 C42.4503441,97.8257299 41.0940794,94.9182883 41.7227723,92.079208 L44.8118812,77.2277228 L34.2178218,82.4554456 C31.7248404,83.6867092 28.7249135,83.1973312 26.7524752,81.2376238 L18.7425742,73.3168317 C16.7642526,71.3470527 16.2659674,68.3334239 17.5049505,65.8316832 C18.990099,62.8316832 20.7920792,59.1485149 22.7722772,55.1881188 L7.92079204,58.2673267 C7.45204476,58.3665475 6.97418257,58.4163248 6.49504946,58.4158416 C3.87056241,58.3639834 1.53015085,56.7512997 0.54707866,54.3173337 C-0.435993533,51.8833677 0.12791122,49.0976386 1.98019797,47.2376238 L20.1980198,28.970297 C21.6324876,27.5317687 23.5823548,26.7261563 25.6138614,26.7326732 L37.009901,26.7326732 C48.7524752,8.91089105 62.2178218,0.990098961 80.5742575,0.990098961 Z M68.5445545,65.4851485 C64.2574258,67.6732673 58.0990099,70.6435644 50.1782178,74.6039604 L46.3465346,93.069307 C46.1810478,93.8600413 46.5560829,94.665319 47.2678256,95.0475088 C47.9795683,95.4296986 48.8580036,95.2975063 49.4257426,94.7227723 L67.6831683,76.4653466 C68.2343187,75.9096587 68.5438746,75.1588967 68.5445545,74.3762376 L68.5445545,65.4851485 Z M81.8756613,5.69592156 L80.5742575,5.71287124 C63.6930693,5.71287124 51.3069307,13.2574257 40.4158416,30.1881188 C40.3773725,30.2408247 40.3442079,30.2972045 40.3168317,30.3564356 C36.1683168,38.7029703 26.8613861,57.5148515 21.7128713,67.9306931 C21.366221,68.6174672 21.5022181,69.4494493 22.0495049,69.990099 L30.0594059,77.9108911 C30.5983625,78.4535942 31.4246749,78.589317 32.1089109,78.2475248 C50.9306931,68.9405941 63.5445545,62.6831683 69.6237624,59.6336634 L69.8019802,59.5346535 C86.7425743,48.5940594 94.2871288,36.2673267 94.2871288,19.4356435 L94.3086479,18.266486 C94.3504945,14.7589632 94.1879689,11.2516482 93.8217822,7.7623762 C93.7263986,6.94663894 93.083064,6.30330438 92.2673268,6.20792075 C88.3836921,5.80033992 84.4784446,5.63500344 80.5742575,5.71287124 L81.8756613,5.69592156 Z M34.5247525,31.4554455 L25.6138614,31.4554455 C24.834634,31.4587266 24.0879029,31.7680866 23.5346534,32.3168317 L5.26732669,50.5742574 C4.68918935,51.1429607 4.55657818,52.0253461 4.94201447,52.7388621 C5.32745076,53.4523781 6.13812117,53.8252095 6.93069303,53.6534654 L25.4059406,49.8217822 L34.5247525,31.4554455 Z M66.8415842,16.0198019 C71.5848495,11.407376 79.1533944,11.4602965 83.8316975,16.1385996 C88.5100006,20.8169027 88.562921,28.3854475 83.9504951,33.1287129 L83.7073923,33.3717353 C80.6727833,36.3206308 76.3078628,37.4754501 72.1994613,36.3951075 C67.9800219,35.2855664 64.6847306,31.9902751 63.5751895,27.7708357 C62.4656485,23.5513963 63.7137216,19.0613848 66.8415842,16.0198019 Z M80.6138614,19.3564356 C78.5014442,17.2440051 75.3245307,16.61207 72.5645141,17.7553012 C69.8044976,18.8985324 68.0049177,21.5917895 68.0049177,24.5792079 C68.0049177,27.5666263 69.8044976,30.2598834 72.5645141,31.4031146 C75.3245307,32.5463458 78.5014442,31.9144107 80.6138614,29.8019802 C83.4928504,26.9152597 83.4928504,22.2431561 80.6138614,19.3564356 Z" id="Shape" fill="#000000"></path>
    </g>
</svg>