<svg width="100" height="100" viewBox="0 0 100 100" fill="none" xmlns="http://www.w3.org/2000/svg">
<g clip-path="url(#clip0)">
<path fill-rule="evenodd" clip-rule="evenodd" d="M93.2805 0.548258C96.5188 0.933094 99.072 3.48613 99.4568 6.72434C99.8972 10.8143 100.07 14.9287 99.9745 19.0412C99.9745 37.8047 91.7394 51.5215 73.0929 63.5325C72.8811 63.6712 72.6611 63.7969 72.4341 63.909C64.0814 68.0969 45.3642 77.3552 34.941 82.5078C32.2293 83.8585 28.958 83.3283 26.8118 81.1902L18.8003 73.226C16.6513 71.0758 16.1204 67.7912 17.4827 65.0736C22.6237 54.6154 31.9176 35.8872 36.0586 27.5583C36.1765 27.3245 36.3061 27.0968 36.4468 26.876C48.3877 8.25365 62.1285 0.0188794 80.975 0.0188794C85.0839 -0.0615868 89.1937 0.115218 93.2805 0.548258ZM72.077 33.1418C75.7136 34.647 79.899 33.813 82.6808 31.0287C86.4695 27.2274 86.4695 21.0779 82.6808 17.2766C79.899 14.4923 75.7136 13.6582 72.077 15.1635C68.4403 16.6688 66.0689 20.2169 66.0689 24.1526C66.0689 28.0884 68.4403 31.6365 72.077 33.1418Z" fill="black"/>
<path d="M32.3645 25.7225H26.1176C23.9419 25.7069 21.8483 26.5528 20.2943 28.0755L2.07125 46.3567C0.0543225 48.3873 -0.552706 51.4271 0.529672 54.0765C1.61205 56.726 4.17398 58.4713 7.03581 58.5089C7.53 58.5095 8.02288 58.4583 8.50636 58.3559L17.0238 56.5913C20.4583 49.707 24.5541 41.4546 27.9131 34.6865L27.9143 34.6841C29.6633 31.1601 31.2125 28.0386 32.3645 25.7225Z" fill="black"/>
<path d="M43.3992 82.907L41.6228 91.4241C40.9591 94.5093 42.4241 97.6602 45.2109 99.1412C46.2565 99.7024 47.4242 99.9973 48.6108 100C50.4979 100.002 52.307 99.2474 53.6342 97.906L71.8454 79.6836C73.4018 78.1463 74.2751 76.048 74.2689 73.8605V67.5903C67.4456 71.0018 53.8459 77.7426 43.3992 82.907Z" fill="black"/>
</g>
<defs>
<clipPath id="clip0">
<rect width="100" height="100" fill="white"/>
</clipPath>
</defs>
</svg>
