<?xml version="1.0" encoding="UTF-8"?>
<svg width="100px" height="100px" viewBox="0 0 100 100" version="1.1" xmlns="http://www.w3.org/2000/svg" xmlns:xlink="http://www.w3.org/1999/xlink">
    <!-- Generator: Sketch 57.1 (83088) - https://sketch.com -->
    <title>bold/rocket-bold</title>
    <desc>Created with Sketch.</desc>
    <g id="bold/rocket" stroke="none" stroke-width="1" fill="none" fill-rule="evenodd">
        <path d="M79.2079208,0.990098961 C83.1753639,0.918688354 87.14341,1.09394372 91.089109,1.51485144 C94.9813765,1.95698896 98.0571174,5.02042685 98.5148515,8.91089105 C98.9291582,12.8867749 99.0944972,16.8846714 99.009901,20.8811881 L99.0072997,21.4376379 C98.8442413,38.8311258 91.0116728,52.2884836 74.4257426,63.5841584 L74.4257426,73.2673268 C74.4414755,75.8186191 73.431933,78.269346 71.6237624,80.069307 L54.1980198,97.4950496 C52.6136194,99.0929964 50.4581935,99.9943564 48.2079208,100.000469 C46.7937466,100.010589 45.3990069,99.6704088 44.1485148,99.009901 C40.8015088,97.2370091 39.0417908,93.4546268 39.8415841,89.7524753 L41.8217822,80.1089109 L35.8811881,83.079208 C32.6390559,84.6900596 28.7305884,84.0525929 26.1683168,81.4950495 L18.5247524,73.8910891 C15.9492356,71.3277198 15.2995093,67.4054457 16.9108911,64.1485149 C17.8217821,62.3762376 18.8118812,60.3168317 19.8613861,58.1485149 L10.2079208,60.1287129 C9.6278393,60.2465057 9.03746437,60.3062066 8.44554451,60.3069307 C5.02035972,60.281495 1.94553013,58.2014936 0.647343285,55.0317541 C-0.650843557,51.8620146 0.0816106736,48.2227161 2.50495045,45.8019802 L19.970297,28.3762376 C21.7580846,26.5741127 24.1942195,25.5647039 26.7326732,25.5742574 L36.3861386,25.5742574 C47.7623762,8.81188115 61.3861386,0.990098961 79.2079208,0.990098961 Z M65.4258219,68.4851485 C61.5544555,70.4158416 56.9306931,72.7128713 52.1188119,75.0891089 L49.029703,89.9405941 L65.2574258,73.6633664 C65.3665262,73.5607557 65.4275849,73.4170881 65.4258219,73.2673268 L65.4258219,68.4851485 Z M89.6732674,10.3960396 C86.1954822,10.060256 82.7012667,9.9247188 79.2079208,9.99009897 C63.6831683,9.99009897 52.7821782,16.6732673 42.7128713,32.3168317 C38.8217822,40.1386139 30.0990099,57.7722772 25.1485148,67.7821782 L32.2376237,74.8415842 C44.4752475,68.7821782 60.3960396,60.8910891 67.7029703,57.1584158 C83.3267327,47.0594059 90,36.1782178 90,20.7920792 L90,20.8415841 C90.1014604,17.3563333 89.9923509,13.8681359 89.6732674,10.3960396 Z M31.5445544,34.5741781 L26.6930693,34.5741781 C26.543308,34.5724151 26.3996404,34.6334738 26.2970297,34.7425742 L10.0594059,50.970297 L24.960396,47.8811881 C27.2673267,43.1980198 29.5643564,38.5346535 31.5445544,34.5741781 Z M64.4554456,16 C69.8752429,10.7978456 78.4603256,10.8857902 83.7724162,16.1978808 C89.0845068,21.5099714 89.1724514,30.0950541 83.9702971,35.5148515 L83.7139503,35.7548281 C78.283015,40.7129821 69.8824156,40.5460598 64.6533264,35.3169706 C59.3412358,30.00488 59.2532912,21.4197973 64.4554456,16 L64.4554456,16 Z M74.2574258,20.960396 C72.0856496,20.9448467 70.1749453,22.391819 69.6012488,24.486509 C69.0275523,26.5811989 69.9343179,28.7998237 71.8109372,29.8930544 C73.6875566,30.9862852 76.064776,30.6807566 77.6039604,29.1485148 C79.4843494,27.2851765 79.5020642,24.2515079 77.6435644,22.3663366 C76.748969,21.4627021 75.5289754,20.956155 74.2574258,20.960396 Z" id="Shape" fill="#000000"></path>
    </g>
</svg>