<svg width="100" height="100" viewBox="0 0 100 100" fill="none" xmlns="http://www.w3.org/2000/svg">
<g clip-path="url(#clip0)">
<path fill-rule="evenodd" clip-rule="evenodd" d="M63.3998 26.6095C64.5764 32.5318 69.7733 36.7984 75.8124 36.8001C79.1716 36.8088 82.395 35.4748 84.7653 33.0949C89.0364 28.8263 89.697 22.1356 86.343 17.1144C82.9889 12.0933 76.5545 10.1402 70.9746 12.4494C65.3946 14.7587 62.2232 20.6873 63.3998 26.6095ZM69.1446 22.8226C69.7807 19.6467 72.5728 17.3628 75.8124 17.3684C77.6095 17.3677 79.3327 18.0831 80.6006 19.3563C82.8913 21.6466 83.2442 25.2362 81.4432 27.9285C79.6422 30.6208 76.1893 31.6656 73.1974 30.4235C70.2055 29.1813 68.5084 25.9986 69.1446 22.8226Z" fill="black"/>
<path fill-rule="evenodd" clip-rule="evenodd" d="M93.2827 0.548189C96.5211 0.932977 99.0743 3.4857 99.4591 6.72349C99.8941 10.8134 100.067 14.9269 99.9768 19.0388C99.9768 37.3883 92.0121 50.9151 74.2004 62.7247V73.852C74.2266 76.0293 73.3792 78.1264 71.8475 79.6744L53.624 97.8945C52.3016 99.2372 50.497 99.9953 48.6123 100C47.4247 99.9932 46.257 99.6943 45.2123 99.1296C42.4254 97.6487 40.9604 94.4982 41.6241 91.4134L44.4594 77.7924L34.9418 82.4974C32.233 83.8423 28.9683 83.3125 26.8241 81.18L18.8006 73.2168C16.6356 71.078 16.0856 67.7926 17.4359 65.0654L22.1418 55.5143L8.50657 58.349C8.02308 58.4513 7.53018 58.5026 7.03598 58.5019C4.17408 58.4644 1.61209 56.7193 0.529685 54.0702C-0.552719 51.4211 0.0543238 48.3816 2.0713 46.3513L20.2948 28.0724C21.8489 26.5499 23.9425 25.7041 26.1183 25.7199H37.2123C48.9888 7.98208 62.5299 0.018877 80.9769 0.018877C85.0858 -0.0615791 89.1958 0.115204 93.2827 0.548189ZM6.00721 51.9706C6.26632 52.456 6.81533 52.7115 7.35363 52.5972L25.5065 48.8214L34.0947 31.6011H26.1183C25.4928 31.5975 24.8917 31.843 24.4477 32.2834L6.23599 50.5035C5.84139 50.887 5.7481 51.4852 6.00721 51.9706ZM49.4711 93.7424L67.6946 75.5223C68.1408 75.0726 68.3868 74.4619 68.3769 73.8285V65.8888C64.2005 68.006 58.4358 70.8643 51.1535 74.4166L47.3888 92.5661C47.2435 93.1099 47.4845 93.6831 47.9746 93.96C48.4648 94.2369 49.0802 94.1474 49.4711 93.7424ZM69.9181 58.5255C86.6474 47.7275 94.0945 35.5416 94.0945 19.0035C94.1798 15.1394 94.0227 11.2737 93.6239 7.42924C93.5617 6.88539 93.1325 6.45629 92.5886 6.39414C88.7321 5.98703 84.854 5.82203 80.9769 5.90012C64.3534 5.90012 52.1417 13.3458 41.4006 30.0015L41.33 30.1191C37.1888 38.4469 27.8947 57.2198 22.7536 67.6179C22.5218 68.0786 22.6172 68.6365 22.9889 68.9941L30.9771 76.9455C31.3355 77.3077 31.8865 77.3979 32.3418 77.169C51.0946 67.9002 63.6946 61.6543 69.8004 58.5961L69.9181 58.5255Z" fill="black"/>
</g>
<defs>
<clipPath id="clip0">
<rect width="100" height="100" fill="white"/>
</clipPath>
</defs>
</svg>
