<svg width="100" height="100" viewBox="0 0 100 100" fill="none" xmlns="http://www.w3.org/2000/svg">
<path fill-rule="evenodd" clip-rule="evenodd" d="M70.7071 68.6435C70.3901 68.4175 70.4421 67.6875 71.4861 65.4145C71.8951 64.5215 72.8301 63.0195 74.4551 61.5825C74.6441 62.1735 74.7591 62.7405 74.7551 63.2675C74.7341 66.7845 72.2251 68.0975 70.7071 68.6435ZM57.35 71.6885C56.925 71.9115 56.534 72.0505 56.3531 71.9425C56.2201 71.8635 56.528 71.5705 56.528 71.5705C56.528 71.5705 58.697 69.2375 59.552 68.1745C60.049 67.5565 60.625 66.8235 61.2531 66.0025C61.258 66.0845 61.2611 66.1665 61.2611 66.2475C61.2541 69.0415 58.5541 70.9295 57.35 71.6885ZM40.0111 63.4145C39.007 65.8615 36.9071 72.1195 35.6291 71.7845C34.5321 71.4965 33.8641 66.7385 35.41 62.0565C36.188 59.7005 37.8511 56.8845 38.828 55.7915C40.4001 54.0325 42.1311 53.4565 42.5521 54.1705C43.0881 55.0795 40.64 61.8815 40.0111 63.4145ZM19.0241 77.6825C16.1431 80.8255 12.1181 82.0125 10.3931 81.0125C8.52905 79.9315 9.26705 75.3045 12.8021 71.9695C14.9571 69.9375 17.7391 68.0655 19.5841 66.9135C20.0041 66.6605 20.6211 66.2895 21.3711 65.8395C21.4951 65.7685 21.5651 65.7295 21.5651 65.7295L21.5621 65.7245C21.7071 65.6385 21.8551 65.5495 22.0081 65.4575C23.2951 70.2055 22.0471 74.3835 19.0241 77.6825ZM86.0611 55.0815C82.566 55.1005 79.5391 55.9395 77.0011 57.1905C76.0731 55.3375 75.134 53.7075 74.9761 52.4975C74.7921 51.0815 74.578 50.2385 74.801 48.5535C75.023 46.8685 75.9981 44.4825 75.9831 44.3035C75.9701 44.1245 75.7661 43.2665 73.7491 43.2515C71.7331 43.2375 70.0091 43.6395 69.8061 44.1715C69.6031 44.7045 69.215 45.9025 68.9741 47.1515C68.6201 48.9795 64.9491 55.4985 62.8631 58.9095C62.1821 57.5785 61.6031 56.4045 61.4811 55.4765C61.2971 54.0615 61.0841 53.2175 61.3061 51.5335C61.5281 49.8475 62.5041 47.4615 62.4891 47.2835C62.4751 47.1045 62.2701 46.2465 60.2551 46.2315C58.2381 46.2165 56.515 46.6195 56.3111 47.1515C56.1081 47.6835 55.8921 48.9275 55.4781 50.1305C55.0651 51.3335 50.1851 62.2085 48.9071 65.0275C48.2551 66.4635 47.688 67.6175 47.2891 68.4065C47.2871 68.4045 47.2861 68.4015 47.2861 68.4015C47.2861 68.4015 47.2611 68.4545 47.2191 68.5415C46.8761 69.2125 46.6721 69.5835 46.6721 69.5835C46.6721 69.5835 46.674 69.5895 46.6781 69.5985C46.4071 70.0905 46.1151 70.5475 45.9711 70.5475C45.8711 70.5475 45.6681 69.2375 46.0151 67.4375C46.7411 63.6645 48.486 57.7825 48.4691 57.5795C48.4591 57.4755 48.7931 56.4505 47.3301 55.9145C45.9071 55.3935 45.4001 56.2615 45.2701 56.2645C45.1451 56.2675 45.0511 56.5715 45.0511 56.5715C45.0511 56.5715 46.6361 49.9565 42.0281 49.9565C39.1471 49.9565 35.1551 53.1075 33.1881 55.9635C31.9481 56.6405 29.2921 58.0905 26.4741 59.6385C25.3921 60.2335 24.2881 60.8405 23.2411 61.4175C23.1691 61.3385 23.0991 61.2595 23.0251 61.1815C17.4371 55.2205 7.10805 51.0035 7.54605 42.9895C7.70605 40.0755 8.71905 32.4035 27.3941 23.0975C42.6931 15.4745 54.9391 17.5725 57.0571 22.2215C60.0801 28.8635 50.5111 41.2075 34.6241 42.9895C28.57 43.6675 25.3831 41.3225 24.5901 40.4485C23.7551 39.5285 23.6311 39.4865 23.3191 39.6595C22.8121 39.9405 23.1331 40.7525 23.3191 41.2365C23.7941 42.4715 25.7401 44.6605 29.0591 45.7495C31.9781 46.7075 39.085 47.2335 47.68 43.9095C57.307 40.1855 64.8231 29.8285 62.6151 21.1695C60.3701 12.3645 45.7691 9.46954 31.9511 14.3785C23.7271 17.3005 14.8241 21.8855 8.42305 27.8725C0.811052 34.9925 -0.401949 41.1885 0.0980515 43.7785C1.87505 52.9775 14.5551 58.9675 19.6321 63.4075C19.3811 63.5455 19.1461 63.6755 18.9331 63.7935C16.3871 65.0525 6.72205 70.1115 4.30405 75.4555C1.56205 81.5175 4.74105 85.8675 6.84505 86.4535C13.3661 88.2665 20.0581 85.0035 23.6531 79.6395C27.2491 74.2775 26.8101 67.2945 25.1601 64.1075C25.1391 64.0685 25.1171 64.0295 25.0961 63.9905C25.7531 63.6005 26.4231 63.2055 27.0871 62.8155C28.3831 62.0545 29.6551 61.3445 30.7581 60.7445C30.1411 62.4365 29.6891 64.4645 29.4541 67.3935C29.1771 70.8345 30.5871 75.2835 32.4331 77.0335C33.2451 77.8025 34.2231 77.8215 34.8431 77.8215C36.9901 77.8215 37.9701 76.0355 39.0491 73.9215C40.3721 71.3305 41.5461 68.3135 41.5461 68.3135C41.5461 68.3135 40.0721 76.4625 44.0871 76.4625C45.5501 76.4625 47.0221 74.5665 47.6771 73.5985C47.6791 73.6095 47.68 73.6155 47.68 73.6155C47.68 73.6155 47.7181 73.5515 47.7921 73.4255C47.9441 73.1935 48.0301 73.0455 48.0301 73.0455C48.0301 73.0455 48.0331 73.0305 48.0381 73.0035C48.6261 71.9825 49.93 69.6555 51.8861 65.8165C54.4131 60.8565 56.8371 54.6435 56.8371 54.6435C56.8371 54.6435 57.0621 56.1635 57.8011 58.6745C58.2351 60.1525 59.1581 61.7865 59.8871 63.3535C59.3011 64.1655 58.9401 64.6335 58.9401 64.6335C58.9401 64.6335 58.9431 64.6415 58.9501 64.6575C58.481 65.2795 57.9561 65.9505 57.4071 66.6045C55.4121 68.9805 53.0371 71.6935 52.7191 72.4755C52.3441 73.3985 52.4331 74.0775 53.1561 74.6225C53.6861 75.0215 54.6281 75.0825 55.6101 75.0175C57.4021 74.8965 58.6641 74.4525 59.2861 74.1815C60.2561 73.8375 61.3861 73.2985 62.4451 72.5195C64.4021 71.0815 65.5821 69.0235 65.4691 66.2975C65.4061 64.7955 64.9271 63.3075 64.3211 61.9025C64.4981 61.6465 64.677 61.3885 64.854 61.1275C67.939 56.6195 70.3321 51.6645 70.3321 51.6645C70.3321 51.6645 70.5581 53.1835 71.2961 55.6955C71.6701 56.9665 72.4071 58.3535 73.0701 59.7135C70.1701 62.0705 68.3711 64.8085 67.7471 66.6045C66.5921 69.9265 67.4961 71.4325 69.1921 71.7755C69.9611 71.9305 71.0461 71.5785 71.8621 71.2325C72.8781 70.8955 74.0991 70.3345 75.2391 69.4975C77.1951 68.0585 79.076 66.0435 78.9631 63.3185C78.911 62.0785 78.5751 60.8465 78.118 59.6635C80.577 58.6395 83.76 58.0705 87.813 58.5425C96.511 59.5585 98.217 64.9895 97.8911 67.2615C97.564 69.5355 95.7401 70.7845 95.1301 71.1625C94.5201 71.5395 94.3351 71.6695 94.3861 71.9505C94.4601 72.3585 94.7421 72.3425 95.2621 72.2545C95.9781 72.1335 99.829 70.4065 99.994 66.2105C100.203 60.8845 95.1001 55.0345 86.0611 55.0815Z" fill="black"/>
</svg>
