<svg width="100" height="100" viewBox="0 0 100 100" fill="none" xmlns="http://www.w3.org/2000/svg">
<path fill-rule="evenodd" clip-rule="evenodd" d="M30.7773 73.2138C34.4003 69.3828 39.6143 66.9198 39.6143 66.9198L39.6063 66.9038C39.7563 66.8228 39.9083 66.7398 40.0633 66.6548C40.7913 69.3468 40.7113 71.8558 39.9593 74.1278C39.8763 74.3808 39.7843 74.6298 39.6843 74.8768C39.5843 75.1228 39.4763 75.3668 39.3603 75.6078C38.7813 76.8098 38.0043 77.9348 37.0513 78.9738C34.1463 82.1438 30.0873 83.3418 28.3463 82.3318C26.4673 81.2418 27.4083 76.7748 30.7773 73.2138ZM66.3018 44.333C76.0098 40.578 83.5898 30.132 81.3638 21.4C79.0998 12.521 64.3748 9.602 50.4398 14.553C42.1458 17.499 33.1678 22.123 26.7118 28.161C19.0368 35.341 17.8128 41.59 18.3168 44.2C20.0968 53.413 32.7198 59.436 37.9098 63.903V63.931C36.3798 64.684 25.1798 70.352 22.5588 76.146C19.7928 82.26 22.9988 86.646 25.1208 87.236C31.6978 89.066 38.4458 85.775 42.0718 80.366C45.5718 75.146 45.2808 68.405 43.7598 65.052C45.8568 64.499 48.3028 64.251 51.4108 64.613C60.1828 65.638 61.9038 71.115 61.5738 73.406C61.2448 75.698 59.4058 76.959 58.7898 77.339C58.1758 77.72 57.9878 77.852 58.0388 78.135C58.1138 78.546 58.3988 78.53 58.9228 78.441C59.6458 78.319 63.5298 76.577 63.6948 72.347C63.9058 66.975 58.7588 60.966 49.6438 61.123C45.8898 61.188 43.5298 61.545 41.8248 62.18C41.6988 62.036 41.5708 61.893 41.4378 61.752C35.8028 55.739 25.3868 51.487 25.8278 43.405C25.9888 40.467 27.0098 32.729 45.8438 23.345C61.2728 15.657 73.6228 17.772 75.7578 22.461C78.8068 29.159 69.1558 41.609 53.1348 43.405C47.0308 44.089 43.8158 41.724 43.0168 40.843C42.1748 39.915 42.0498 39.873 41.7348 40.047C41.2228 40.331 41.5478 41.149 41.7348 41.638C42.2138 42.883 44.1768 45.091 47.5228 46.188C50.4678 47.155 57.6348 47.686 66.3018 44.333ZM49.9998 0C77.6148 0 99.9998 22.386 99.9998 50C99.9998 77.614 77.6148 100 49.9998 100C22.3858 100 -0.000244141 77.614 -0.000244141 50C-0.000244141 22.386 22.3858 0 49.9998 0Z" fill="black"/>
</svg>
