<?xml version="1.0" encoding="UTF-8"?>
<svg width="100px" height="100px" viewBox="0 0 100 100" version="1.1" xmlns="http://www.w3.org/2000/svg" xmlns:xlink="http://www.w3.org/1999/xlink">
    <!-- Generator: Sketch 57.1 (83088) - https://sketch.com -->
    <title>regular/save-regular</title>
    <desc>Created with Sketch.</desc>
    <g id="regular/save" stroke="none" stroke-width="1" fill="none" fill-rule="evenodd">
        <path d="M71.7,-0.00010717904 C73.7226395,-0.00763531576 75.6639899,0.795557879 77.09,2.22999995 L97.77,22.91 C99.2044421,24.3360101 100.007635,26.2773605 100.000107,28.3 L100.000107,92.38 C99.994491,96.5861258 96.5861258,99.994491 92.38,100 L7.61999996,100 C3.41387418,99.994491 0.00550896269,96.5861258 -4.99999189e-08,92.38 L-4.99999189e-08,7.61999996 C0.00550896269,3.41387418 3.41387418,0.00550896269 7.61999996,-0.00010717904 L71.7,-0.00010717904 Z M81.5605786,66.5182959 L81.48,66.52 L18.48,66.52 C18.3526961,66.52 18.2306062,66.5705713 18.1405887,66.6605888 C18.0505713,66.7506062 18,66.8726961 18,67 L18,95.24 L82.0003278,95.24 L82.0003278,67 C82.0036598,66.8644527 81.9485998,66.7339295 81.8489629,66.6419569 C81.749326,66.5499844 81.614822,66.5055254 81.48,66.52 L81.5605786,66.5182959 Z M13.27,4.75999995 L7.61999996,4.75999995 C6.04046557,4.75999995 4.75999995,6.04046557 4.75999995,7.61999996 L4.75999995,92.38 C4.75999995,93.9595344 6.04046557,95.24 7.61999996,95.24 L13.27,95.24 L13.27,67 C13.2754461,64.1160819 15.6061238,61.7764744 18.49,61.76 L81.49,61.76 C84.3816897,61.7655028 86.7244973,64.1083103 86.73,67 L86.73,95.24 L92.41,95.24 C93.9895344,95.24 95.27,93.9595344 95.27,92.38 L95.24,28.28 C95.2367621,27.5282246 94.934533,26.8086315 94.4,26.28 L73.7,5.59999996 C73.1688967,5.06913614 72.450886,4.76757166 71.7,4.75999995 L63,4.75999995 L63,18 C63.0001309,20.8745578 60.6844269,23.212571 57.81,23.24 L18.51,23.24 C15.6183103,23.2344972 13.2755027,20.8916897 13.27,18 L13.27,4.75999995 Z M72.16,78.51 C73.4744377,78.51 74.54,79.5755623 74.54,80.89 C74.54,82.2044377 73.4744377,83.27 72.16,83.27 L27.84,83.27 C26.5255623,83.27 25.46,82.2044377 25.46,80.89 C25.46,79.5755623 26.5255623,78.51 27.84,78.51 L72.16,78.51 Z M58.28,4.75999995 L18,4.75999995 L18,18 C18.0025785,18.1317529 18.0581166,18.256914 18.1540775,18.3472301 C18.2500383,18.4375463 18.3783326,18.4854039 18.51,18.48 L57.81,18.48 C58.0711834,18.4745575 58.28,18.26124 58.28,18 L58.28,4.75999995 Z" id="Shape" fill="#000000"></path>
    </g>
</svg>