<svg width="100" height="100" viewBox="0 0 100 100" fill="none" xmlns="http://www.w3.org/2000/svg">
<g clip-path="url(#clip0)">
<path d="M97.6471 22.812L77.1882 2.35314C75.6638 0.836248 73.5976 -0.0105366 71.4471 9.89883e-05H63.5294V18.3767C63.5229 21.5577 60.9458 24.1349 57.7647 24.1414H18.9412C15.7574 24.1414 13.1765 21.5604 13.1765 18.3767V9.89883e-05H8.11765C3.63708 0.00667935 0.0064795 3.63728 0 8.11785V91.8826C0.0064795 96.3631 3.63708 99.9937 8.11765 100H13.1176V66.812C13.1176 63.6282 15.6986 61.0473 18.8824 61.0473H81.1765C84.3602 61.0473 86.9412 63.6282 86.9412 66.812V100H91.8824C96.3629 99.9937 99.9935 96.3631 100 91.8826V28.5531C100.011 26.4026 99.1639 24.3364 97.6471 22.812Z" fill="black"/>
<path d="M57.6 0H19V18.2588H57.6V0Z" fill="black"/>
<path fill-rule="evenodd" clip-rule="evenodd" d="M81 100H19V66.9297H81V100ZM71.8941 77.6473H28.1059C26.4815 77.6473 25.1647 78.9641 25.1647 80.5885C25.1647 82.2129 26.4815 83.5297 28.1059 83.5297H71.8941C73.5185 83.5297 74.8353 82.2129 74.8353 80.5885C74.8353 78.9641 73.5185 77.6473 71.8941 77.6473Z" fill="black"/>
</g>
<defs>
<clipPath id="clip0">
<rect width="100" height="100" fill="white"/>
</clipPath>
</defs>
</svg>
