<svg width="100" height="100" viewBox="0 0 100 100" fill="none" xmlns="http://www.w3.org/2000/svg">
<g clip-path="url(#clip0)">
<path d="M11.5773 100C10.5964 99.9969 9.63393 99.7329 8.78869 99.2352C7.0578 98.2529 5.99168 96.413 6.00005 94.4228V53.5471L23.767 50.0172L6.00005 46.4521V5.56457C6.00459 3.57672 7.0668 1.74152 8.78826 0.747439C10.5097 -0.246638 12.6301 -0.249307 14.3541 0.740434L91.3167 45.1696C93.0429 46.1626 94.107 48.0023 94.107 49.9937C94.107 51.9851 93.0429 53.8248 91.3167 54.8178L14.3541 99.247C13.5114 99.7391 12.5532 99.9989 11.5773 100ZM11.8832 58.3712V93.8933L87.9045 49.9937L11.8832 6.10582V41.6279L36.1333 46.4638C37.8146 46.8018 39.0243 48.2787 39.0243 49.9937C39.0243 51.7087 37.8146 53.1856 36.1333 53.5236L11.8832 58.3712Z" fill="black"/>
</g>
<defs>
<clipPath id="clip0">
<rect width="100" height="100" fill="white"/>
</clipPath>
</defs>
</svg>
