<?xml version="1.0" encoding="UTF-8"?>
<svg width="100px" height="100px" viewBox="0 0 100 100" version="1.1" xmlns="http://www.w3.org/2000/svg" xmlns:xlink="http://www.w3.org/1999/xlink">
    <!-- Generator: Sketch 57.1 (83088) - https://sketch.com -->
    <title>bold/send-bold</title>
    <desc>Created with Sketch.</desc>
    <g id="bold/send" stroke="none" stroke-width="1" fill="none" fill-rule="evenodd">
        <path d="M90.27,43.25 L17.19,1.05999995 C14.7848466,-0.350384578 11.8051534,-0.350384578 9.39999996,1.05999995 C6.97605504,2.43533037 5.48446624,5.01310179 5.4998798,7.79999996 L5.4998798,45 C5.4981262,47.3976608 7.1604074,49.4755123 9.49999996,50 C7.1604074,50.5244877 5.4981262,52.6023392 5.4998798,55 L5.4998798,92.19 C5.48508254,94.979343 6.97601401,97.5598013 9.39999996,98.94 C11.8045753,100.352511 14.7854246,100.352511 17.19,98.94 L90.27,56.75 C92.6838121,55.3594118 94.1713499,52.7857179 94.1713499,50 C94.1713499,47.2142821 92.6838121,44.6405882 90.27,43.25 Z M14.59,90 L14.59,58.62 L57.22,54.78 C59.6910235,54.5537197 61.5822786,52.4813625 61.5822786,50 C61.5822786,47.5186375 59.6910235,45.4462803 57.22,45.22 L14.59,41.37 L14.59,10.05 L83.78,50 L14.59,90 Z" id="send" fill="#000000"></path>
    </g>
</svg>