<svg width="100" height="100" viewBox="0 0 100 100" fill="none" xmlns="http://www.w3.org/2000/svg">
<g clip-path="url(#clip0)">
<path d="M16.0943 20C12.8455 20 10.2119 22.6336 10.2119 25.8824C10.2119 29.1311 12.8455 31.7647 16.0943 31.7647C19.343 31.7647 21.9766 29.1311 21.9766 25.8824C21.9766 24.3223 21.3569 22.8261 20.2537 21.7229C19.1506 20.6197 17.6544 20 16.0943 20Z" fill="black"/>
<path d="M6.51746 22.9414C6.21855 23.8931 6.06777 24.8851 6.0704 25.8826C6.06777 26.8801 6.21855 27.8721 6.51746 28.8238H2.98805C1.36368 28.8238 0.046875 27.507 0.046875 25.8826C0.046875 24.2582 1.36368 22.9414 2.98805 22.9414H6.51746Z" fill="black"/>
<path d="M67.9059 49.4119C67.9052 48.4154 68.0519 47.4243 68.3412 46.4707H2.94118C1.31681 46.4707 0 47.7875 0 49.4119C0 51.0362 1.31681 52.3531 2.94118 52.3531H68.3412C68.0519 51.3995 67.9052 50.4084 67.9059 49.4119Z" fill="black"/>
<path d="M97.0588 46.4941H87.5059C88.1022 48.4096 88.1022 50.4611 87.5059 52.3765H97.0588C98.6832 52.3765 100 51.0597 100 49.4353C100 47.8109 98.6832 46.4941 97.0588 46.4941Z" fill="black"/>
<path d="M97.0591 22.9648H25.6826C26.2631 24.8827 26.2631 26.9294 25.6826 28.8472H97.0591C98.6835 28.8472 100 27.5304 100 25.906C100 24.2817 98.6835 22.9648 97.0591 22.9648Z" fill="black"/>
<path d="M43.5293 70.0234H97.0587C98.6831 70.0234 99.9999 71.3402 99.9999 72.9646C99.9999 74.589 98.6831 75.9058 97.0587 75.9058H43.5293C44.1098 73.988 44.1098 71.9413 43.5293 70.0234Z" fill="black"/>
<path d="M23.9059 72.9412C23.9032 71.9437 24.054 70.9517 24.3529 70H2.94118C1.31681 70 0 71.3168 0 72.9412C0 74.5655 1.31681 75.8824 2.94118 75.8824H24.3529C24.054 74.9307 23.9032 73.9387 23.9059 72.9412Z" fill="black"/>
<path d="M72.0469 49.4117C72.0469 46.1629 74.6805 43.5293 77.9292 43.5293C81.178 43.5293 83.8116 46.1629 83.8116 49.4117C83.8116 52.6604 81.178 55.294 77.9292 55.294C74.6805 55.294 72.0469 52.6604 72.0469 49.4117Z" fill="black"/>
<path d="M28.0469 72.9409C28.0469 69.6922 30.6805 67.0586 33.9292 67.0586C37.178 67.0586 39.8116 69.6922 39.8116 72.9409C39.8116 76.1897 37.178 78.8233 33.9292 78.8233C30.6805 78.8233 28.0469 76.1897 28.0469 72.9409Z" fill="black"/>
</g>
<defs>
<clipPath id="clip0">
<rect width="100" height="100" fill="white"/>
</clipPath>
</defs>
</svg>
