<svg width="100" height="100" viewBox="0 0 100 100" fill="none" xmlns="http://www.w3.org/2000/svg">
<path d="M54.0401 1.68157L79.5105 27.0932C80.4049 27.9158 80.701 29.204 80.2555 30.3346C79.81 31.4653 78.7148 32.2052 77.4997 32.1967C76.7222 32.2015 75.9758 31.8919 75.43 31.3383L53.0876 8.99579V75.0002C53.0876 76.6238 51.7714 77.94 50.1478 77.94C48.5242 77.94 47.208 76.6238 47.208 75.0002V8.91348L24.8655 31.256C23.716 32.4055 21.8522 32.4055 20.7027 31.256C19.5532 30.1064 19.5532 28.2427 20.7027 27.0932L46.1732 1.63454C47.1008 0.71208 48.3261 0.14942 49.6304 0.047044C49.9448 -0.0156813 50.2685 -0.0156813 50.5829 0.047044C51.8933 0.162127 53.1195 0.741844 54.0401 1.68157Z" fill="black"/>
<path d="M20.7027 100H79.5105C83.2077 99.9935 86.2015 96.9945 86.2015 93.2973V43.9674C86.2015 40.2656 83.2005 37.2647 79.4987 37.2647H66.5636C64.94 37.2647 63.6238 38.5809 63.6238 40.2045C63.6238 41.8281 64.94 43.1443 66.5636 43.1443H79.4987C79.9533 43.1443 80.3219 43.5128 80.3219 43.9674V93.2973C80.3219 93.7519 79.9533 94.1204 79.4987 94.1204H20.7027C20.2481 94.1204 19.8796 93.7519 19.8796 93.2973V43.9674C19.8796 43.5128 20.2481 43.1443 20.7027 43.1443H33.6379C35.2615 43.1443 36.5777 41.8281 36.5777 40.2045C36.5777 38.5809 35.2615 37.2647 33.6379 37.2647H20.7027C17.0036 37.2712 14.0065 40.2683 14 43.9674V93.2973C14.0065 96.9964 17.0036 99.9935 20.7027 100Z" fill="black"/>
</svg>
