<?xml version="1.0" encoding="UTF-8"?>
<svg width="100px" height="100px" viewBox="0 0 100 100" version="1.1" xmlns="http://www.w3.org/2000/svg" xmlns:xlink="http://www.w3.org/1999/xlink">
    <!-- Generator: Sketch 57.1 (83088) - https://sketch.com -->
    <title>solid/share-solid</title>
    <desc>Created with Sketch.</desc>
    <g id="solid/share" stroke="none" stroke-width="1" fill="none" fill-rule="evenodd">
        <path d="M32.5049505,38.6926899 C36.951461,38.8471086 40.4764878,42.4963667 40.4764878,46.9455446 C40.4764878,51.3947224 36.951461,55.0439805 32.5049505,55.1980198 L32.3465346,55.1980198 L32.3465346,83.4950495 L67.4851485,83.4950495 L67.4851485,55.1980198 L67.3267327,55.1980198 C62.8802222,55.0439805 59.3551954,51.3947224 59.3551954,46.9455446 C59.3551954,42.4963667 62.8802222,38.8471086 67.3267327,38.6926899 L74.049505,38.6926899 C79.4757104,38.659729 83.9177562,43.0002171 84.009901,48.4257426 L84.009901,90.2673268 C83.9177562,95.6928522 79.4757104,100.03334 74.049505,100.000379 L25.8019802,100.000379 C20.3757747,100.03334 15.9337289,95.6928522 15.8415841,90.2673268 L15.8415841,48.4257426 C15.9337289,43.0002171 20.3757747,38.659729 25.8019802,38.6926899 L32.5049505,38.6926899 Z M42.6237624,4.00990094 C46.6588339,-0.0173167684 53.1926513,-0.0173167684 57.2277228,4.00990094 L77.2970297,24.0792079 C80.3697157,27.3273443 80.2988957,32.4310843 77.1372672,35.5927127 C73.9756388,38.7543412 68.8718988,38.8251612 65.6237624,35.7524752 L58.1782178,28.3069307 L58.1782178,66.059406 C58.0241785,70.5059164 54.3749204,74.0309433 49.9257426,74.0309433 C45.4765647,74.0309433 41.8273067,70.5059164 41.6732673,66.059406 L41.6732673,28.3069307 L34.2277228,35.7524752 C30.9795863,38.8251612 25.8758464,38.7543412 22.7142179,35.5927127 C19.5525895,32.4310843 19.4817695,27.3273443 22.5544554,24.0792079 L42.6237624,4.00990094 Z" id="Shape" fill="#000000"></path>
    </g>
</svg>