<?xml version="1.0" encoding="UTF-8"?>
<svg width="100px" height="100px" viewBox="0 0 100 100" version="1.1" xmlns="http://www.w3.org/2000/svg" xmlns:xlink="http://www.w3.org/1999/xlink">
    <!-- Generator: Sketch 57.1 (83088) - https://sketch.com -->
    <title>regular/signal-4-bar-regular</title>
    <desc>Created with Sketch.</desc>
    <g id="regular/signal-4-bar" stroke="none" stroke-width="1" fill="none" fill-rule="evenodd">
        <path d="M10.1717172,60.2323233 C12.561012,60.2323233 14.4994811,62.1662673 14.5050505,64.5555556 L14.5050505,88.1919193 C14.5050505,89.3411907 14.0485042,90.443391 13.2358466,91.2560486 C12.4231889,92.0687063 11.3209886,92.5252526 10.1717172,92.5252526 L4.33333334,92.5252526 C3.18406188,92.5252526 2.08186159,92.0687063 1.26920395,91.2560486 C0.456546309,90.443391 0,89.3411907 0,88.1919193 L0,64.5555556 C0.00556945167,62.1662673 1.94403857,60.2323233 4.33333334,60.2323233 L10.1717172,60.2323233 Z M31.7979798,46.4848485 C34.1912137,46.4848485 36.1313132,48.4249479 36.1313132,50.8181818 L36.1313132,88.1919193 C36.1313132,90.5851532 34.1912137,92.5252526 31.7979798,92.5252526 L25.959596,92.5252526 C24.8103245,92.5252526 23.7081242,92.0687063 22.8954666,91.2560486 C22.082809,90.443391 21.6262626,89.3411907 21.6262626,88.1919193 L21.6262626,50.8181818 C21.6262626,48.4249479 23.5663621,46.4848485 25.959596,46.4848485 L31.7979798,46.4848485 Z M53.4242425,32.7474748 C55.8135372,32.7474748 57.7520064,34.6814188 57.7575758,37.0707071 L57.7575758,88.1919193 C57.7575758,89.3411907 57.3010295,90.443391 56.4883719,91.2560486 C55.6757142,92.0687063 54.5735139,92.5252526 53.4242425,92.5252526 L47.5858586,92.5252526 C46.4365872,92.5252526 45.3343869,92.0687063 44.5217292,91.2560486 C43.7090716,90.443391 43.2525253,89.3411907 43.2525253,88.1919193 L43.2525253,37.0707071 C43.2580947,34.6814188 45.1965639,32.7474748 47.5858586,32.7474748 L53.4242425,32.7474748 Z M75.0505051,19 C77.443739,19 79.3838385,20.9400994 79.3838385,23.3333333 L79.3838385,88.1919193 C79.3838385,89.3411907 78.9272922,90.443391 78.1146345,91.2560486 C77.3019769,92.0687063 76.1997766,92.5252526 75.0505051,92.5252526 L69.2121213,92.5252526 C68.0628498,92.5252526 66.9606495,92.0687063 66.1479919,91.2560486 C65.3353343,90.443391 64.8787879,89.3411907 64.8787879,88.1919193 L64.8787879,23.3333333 C64.8787879,20.9400994 66.8188874,19 69.2121213,19 L75.0505051,19 Z M96.6767678,87.7171718 C98.0044826,87.7171718 99.0808082,88.7934973 99.0808082,90.1212122 C99.0808082,91.448927 98.0044826,92.5252526 96.6767678,92.5252526 L90.8383839,92.5252526 C89.5106691,92.5252526 88.4343435,91.448927 88.4343435,90.1212122 C88.4343435,88.7934973 89.5106691,87.7171718 90.8383839,87.7171718 L96.6767678,87.7171718 Z M9.69696971,65.0404041 L4.80808081,65.0404041 L4.80808081,87.6868688 L9.69696971,87.6868688 L9.69696971,65.0404041 Z M31.3131313,51.3232324 L26.4343435,51.3232324 L26.4343435,87.6868688 L31.3131313,87.6868688 L31.3131313,51.3232324 Z M52.949495,37.5555556 L48.0606061,37.5555556 L48.0606061,87.6868688 L52.949495,87.6868688 L52.949495,37.5555556 Z M74.5858587,23.8080808 L69.6969698,23.8080808 L69.6969698,87.6868688 L74.5858587,87.6868688 L74.5858587,23.8080808 Z" id="Shape" fill="#000000"></path>
    </g>
</svg>