<svg width="100" height="100" viewBox="0 0 100 100" fill="none" xmlns="http://www.w3.org/2000/svg">
<path fill-rule="evenodd" clip-rule="evenodd" d="M10.3133 92.5662H5.42169C2.43012 92.5596 0.00662586 90.1361 0 87.1445V64.4216C0.00662586 61.4301 2.43012 59.0066 5.42169 58.9999H10.3133C13.3048 59.0066 15.7283 61.4301 15.7349 64.4216V87.1445C15.7283 90.1361 13.3048 92.5596 10.3133 92.5662ZM6.0241 86.5421H9.71084V65.024H6.0241V86.5421Z" fill="black"/>
<path d="M31.9879 92.566H27.0843C25.4208 92.566 24.0723 91.2175 24.0723 89.554C24.0723 87.8905 25.4208 86.5419 27.0843 86.5419H31.9879C33.6514 86.5419 35 87.8905 35 89.554C35 91.2175 33.6514 92.566 31.9879 92.566Z" fill="black"/>
<path d="M48.7591 92.566H53.6507C55.3142 92.566 56.6627 91.2175 56.6627 89.554C56.6627 87.8905 55.3142 86.5419 53.6507 86.5419H48.7591C47.0956 86.5419 45.7471 87.8905 45.7471 89.554C45.7471 91.2175 47.0956 92.566 48.7591 92.566Z" fill="black"/>
<path d="M75.3248 92.566H70.4212C68.7577 92.566 67.4092 91.2175 67.4092 89.554C67.4092 87.8905 68.7577 86.5419 70.4212 86.5419H75.3248C76.9883 86.5419 78.3369 87.8905 78.3369 89.554C78.3369 91.2175 76.9883 92.566 75.3248 92.566Z" fill="black"/>
<path d="M92.096 92.566H96.9876C98.6511 92.566 99.9996 91.2175 99.9996 89.554C99.9996 87.8905 98.6511 86.5419 96.9876 86.5419H92.096C90.4325 86.5419 89.084 87.8905 89.084 89.554C89.084 91.2175 90.4325 92.566 92.096 92.566Z" fill="black"/>
</svg>
