<svg width="100" height="100" viewBox="0 0 100 100" fill="none" xmlns="http://www.w3.org/2000/svg">
<path d="M8.09877 94.1728H3.08642C1.38184 94.1728 0 92.791 0 91.0864C0 89.3818 1.38184 88 3.08642 88H8.09877C9.80335 88 11.1852 89.3818 11.1852 91.0864C11.1852 92.791 9.80335 94.1728 8.09877 94.1728Z" fill="black"/>
<path d="M30.3084 94.1728H25.2837C23.5791 94.1728 22.1973 92.791 22.1973 91.0864C22.1973 89.3818 23.5791 88 25.2837 88H30.3084C32.013 88 33.3948 89.3818 33.3948 91.0864C33.3948 92.791 32.013 94.1728 30.3084 94.1728Z" fill="black"/>
<path d="M47.4936 94.1728H52.506C54.2106 94.1728 55.5924 92.791 55.5924 91.0864C55.5924 89.3818 54.2106 88 52.506 88H47.4936C45.7891 88 44.4072 89.3818 44.4072 91.0864C44.4072 92.791 45.7891 94.1728 47.4936 94.1728Z" fill="black"/>
<path d="M74.7156 94.1728H69.6909C67.9863 94.1728 66.6045 92.791 66.6045 91.0864C66.6045 89.3818 67.9863 88 69.6909 88H74.7156C76.4202 88 77.802 89.3818 77.802 91.0864C77.802 92.791 76.4202 94.1728 74.7156 94.1728Z" fill="black"/>
<path d="M91.9009 94.1728H96.9132C98.6178 94.1728 99.9996 92.791 99.9996 91.0864C99.9996 89.3818 98.6178 88 96.9132 88H91.9009C90.1963 88 88.8145 89.3818 88.8145 91.0864C88.8145 92.791 90.1963 94.1728 91.9009 94.1728Z" fill="black"/>
</svg>
