<?xml version="1.0" encoding="UTF-8"?>
<svg width="100px" height="100px" viewBox="0 0 100 100" version="1.1" xmlns="http://www.w3.org/2000/svg" xmlns:xlink="http://www.w3.org/1999/xlink">
    <!-- Generator: Sketch 57.1 (83088) - https://sketch.com -->
    <title>regular/signal-5-bar-regular</title>
    <desc>Created with Sketch.</desc>
    <g id="regular/signal-5-bar" stroke="none" stroke-width="1" fill="none" fill-rule="evenodd">
        <path d="M10.07,60.4200001 C12.4393016,60.4200001 14.36,62.3406985 14.36,64.7100001 L14.36,88.1100001 C14.3544863,90.4753955 12.4354018,92.3900001 10.07,92.3900001 L4.29,92.3900001 C1.92459818,92.3900001 0.00551375716,90.4753955 0,88.1100001 L0,64.7100001 C0,62.3406985 1.92069843,60.4200001 4.29,60.4200001 L10.07,60.4200001 Z M31.48,46.83 C33.8454019,46.83 35.7644863,48.7446046 35.77,51.11 L35.77,88.1100001 C35.7644863,90.4753955 33.8454019,92.3900001 31.48,92.3900001 L25.7,92.3900001 C23.3345982,92.3900001 21.4155138,90.4753955 21.41,88.1100001 L21.41,51.11 C21.4155138,48.7446046 23.3345982,46.83 25.7,46.83 L31.48,46.83 Z M52.8900001,33.21 C55.2593016,33.21 57.1800001,35.1306985 57.1800001,37.5 L57.1800001,88.1100001 C57.1744863,90.4753955 55.2554019,92.3900001 52.8900001,92.3900001 L47.11,92.3900001 C44.7445982,92.3900001 42.8255138,90.4753955 42.82,88.1100001 L42.82,37.5 C42.82,35.1306985 44.7406985,33.21 47.11,33.21 L52.8900001,33.21 Z M74.3000001,19.61 C76.6654019,19.61 78.5844863,21.5246046 78.5900001,23.89 L78.5900001,88.11 C78.5844863,90.4753955 76.6654019,92.3900001 74.3000001,92.3900001 L68.5200001,92.3900001 C66.1545982,92.3900001 64.2355138,90.4753955 64.2300001,88.11 L64.2300001,23.89 C64.2355138,21.5246046 66.1545982,19.61 68.5200001,19.61 L74.3000001,19.61 Z M95.7100001,6 C98.0793017,6 100,7.92069843 100,10.29 L100,88.1100001 C99.9944863,90.4753955 98.0754019,92.3900001 95.7100001,92.3900001 L89.9300001,92.3900001 C87.5645983,92.3900001 85.6455138,90.4753955 85.6400001,88.1100001 L85.6400001,10.29 C85.6400001,7.92069843 87.5606985,6 89.9300001,6 L95.7100001,6 Z M9.60000001,65.1800001 L4.76,65.1800001 L4.76,87.6300001 L9.60000001,87.6300001 L9.60000001,65.1800001 Z M31,51.63 L26.17,51.63 L26.17,87.63 L31,87.63 L31,51.63 Z M52.4200001,38 L47.58,38 L47.58,87.6300001 L52.4200001,87.6300001 L52.4200001,38 Z M73.8400001,24.37 L69.0000001,24.37 L69.0000001,87.6300001 L73.8400001,87.6300001 L73.8400001,24.37 Z M95.2400001,10.76 L90.4000001,10.76 L90.4000001,87.6300001 L95.2400001,87.6300001 L95.2400001,10.76 Z" id="Shape" fill="#000000"></path>
    </g>
</svg>