<svg width="100" height="100" viewBox="0 0 100 100" fill="none" xmlns="http://www.w3.org/2000/svg">
<path fill-rule="evenodd" clip-rule="evenodd" d="M75.3253 92.8675H70.4217C67.4301 92.8608 65.0066 90.4374 65 87.4458V23.4217C65.0066 20.4301 67.4301 18.0066 70.4217 18H75.3253C78.3075 18.0198 80.7163 20.4395 80.7229 23.4217V87.4458C80.7163 90.428 78.3075 92.8476 75.3253 92.8675ZM71.0241 86.8434H74.6988V24.0241H71.0843L71.0241 86.8434Z" fill="black"/>
<path fill-rule="evenodd" clip-rule="evenodd" d="M48.7586 92.8679H53.6502C56.6417 92.8612 59.0652 90.4378 59.0719 87.4462V37.1932C59.0652 34.2016 56.6417 31.7781 53.6502 31.7715H48.7586C45.767 31.7781 43.3435 34.2016 43.3369 37.1932V87.4462C43.3435 90.4378 45.767 92.8612 48.7586 92.8679ZM53.0116 86.8438H49.361L49.3972 37.7956H53.0116V86.8438Z" fill="black"/>
<path fill-rule="evenodd" clip-rule="evenodd" d="M31.9884 92.8683H27.0848C24.0932 92.8616 21.6697 90.4382 21.6631 87.4466V50.9647C21.6697 47.9731 24.0932 45.5496 27.0848 45.543H31.9884C34.98 45.5496 37.4034 47.9731 37.4101 50.9647V87.4466C37.4034 90.4382 34.98 92.8616 31.9884 92.8683ZM27.6872 86.8442H31.386V51.5671H27.7113L27.6872 86.8442Z" fill="black"/>
<path fill-rule="evenodd" clip-rule="evenodd" d="M10.3133 92.8677H5.42169C2.43012 92.8611 0.00662586 90.4376 0 87.446V64.7352C0 61.7408 2.42737 59.3135 5.42169 59.3135H10.3133C13.3076 59.3135 15.7349 61.7408 15.7349 64.7352V87.446C15.7283 90.4376 13.3048 92.8611 10.3133 92.8677ZM6.0241 86.8436H9.71084V65.3376H6.0241V86.8436Z" fill="black"/>
<path d="M92.096 92.8678H96.9876C98.6511 92.8678 99.9996 91.5193 99.9996 89.8558C99.9996 88.1923 98.6511 86.8438 96.9876 86.8438H92.096C90.4325 86.8438 89.084 88.1923 89.084 89.8558C89.084 91.5193 90.4325 92.8678 92.096 92.8678Z" fill="black"/>
</svg>
