<svg width="100" height="100" viewBox="0 0 100 100" fill="none" xmlns="http://www.w3.org/2000/svg">
<g clip-path="url(#clip0)">
<path fill-rule="evenodd" clip-rule="evenodd" d="M89.9299 92.5529H94.7063C97.6275 92.5464 99.994 90.1799 100 87.2588V11.2941C99.994 8.37288 97.6275 6.00641 94.7063 5.99994H89.9299C87.0087 6.00641 84.6422 8.37288 84.6357 11.2941V87.2588C84.6422 90.1799 87.0087 92.5464 89.9299 92.5529ZM94.1181 86.6705H90.5181V11.8823H94.1181V86.6705Z" fill="black"/>
<path fill-rule="evenodd" clip-rule="evenodd" d="M73.5531 92.5531H68.7648C65.8437 92.5466 63.4772 90.1801 63.4707 87.259V24.7413C63.4772 21.8201 65.8437 19.4537 68.7648 19.4472H73.5531C76.4742 19.4537 78.8407 21.8201 78.8472 24.7413V87.259C78.8407 90.1801 76.4742 92.5466 73.5531 92.5531ZM69.3531 86.6707H72.9413V25.3296H69.4119L69.3531 86.6707Z" fill="black"/>
<path fill-rule="evenodd" clip-rule="evenodd" d="M47.6115 92.5523H52.388C55.3092 92.5458 57.6756 90.1794 57.6821 87.2582V38.1876C57.6756 35.2664 55.3092 32.9 52.388 32.8935H47.6115C44.6903 32.9 42.3239 35.2664 42.3174 38.1876V87.2582C42.3239 90.1794 44.6903 92.5458 47.6115 92.5523ZM51.7644 86.67H48.1997L48.235 38.7758H51.7644V86.67Z" fill="black"/>
<path fill-rule="evenodd" clip-rule="evenodd" d="M31.2357 92.5525H26.4474C23.5263 92.546 21.1598 90.1796 21.1533 87.2584V51.6349C21.1533 48.711 23.5236 46.3408 26.4474 46.3408H31.2357C34.1595 46.3408 36.5298 48.711 36.5298 51.6349V87.2584C36.5233 90.1796 34.1568 92.546 31.2357 92.5525ZM27.0357 86.6702H30.6474V52.2231H27.0592L27.0357 86.6702Z" fill="black"/>
<path fill-rule="evenodd" clip-rule="evenodd" d="M10.0706 92.5528H5.29412C2.37294 92.5463 0.00646996 90.1798 0 87.2587V65.0704C0.00646996 62.1492 2.37294 59.7828 5.29412 59.7763H10.0706C12.9918 59.7828 15.3582 62.1492 15.3647 65.0704V87.2587C15.3582 90.1798 12.9918 92.5463 10.0706 92.5528ZM5.88235 86.6704H9.48235V65.6587H5.88235V86.6704Z" fill="black"/>
</g>
<defs>
<clipPath id="clip0">
<rect width="100" height="100" fill="white"/>
</clipPath>
</defs>
</svg>
