<?xml version="1.0" encoding="UTF-8"?>
<svg width="100px" height="100px" viewBox="0 0 100 100" version="1.1" xmlns="http://www.w3.org/2000/svg" xmlns:xlink="http://www.w3.org/1999/xlink">
    <!-- Generator: Sketch 57.1 (83088) - https://sketch.com -->
    <title>bold/signal-1-bar-bold</title>
    <desc>Created with Sketch.</desc>
    <g id="bold/signal-1-bar" stroke="none" stroke-width="1" fill="none" fill-rule="evenodd">
        <path d="M27.0707071,84.2323233 L32.6565657,84.2323233 C35.1083988,84.3473618 37.0371226,86.368702 37.0371226,88.8232324 C37.0371226,91.2777627 35.1083988,93.2991029 32.6565657,93.4141414 L27.0707071,93.4141414 C25.3791583,93.4935079 23.7810049,92.6362579 22.9114848,91.1831332 C22.0419648,89.7300085 22.0419648,87.9164562 22.9114848,86.4633315 C23.7810049,85.0102068 25.3791583,84.1529568 27.0707071,84.2323233 Z M57.4521516,86.4633315 C58.3216717,87.9164562 58.3216717,89.7300085 57.4521516,91.1831332 C56.5826316,92.6362579 54.9844782,93.4935079 53.2929293,93.4141414 L47.7171718,93.4141414 C46.0256229,93.4935079 44.4274696,92.6362579 43.5579495,91.1831332 C42.6884294,89.7300085 42.6884294,87.9164562 43.5579495,86.4633315 C44.4274696,85.0102068 46.0256229,84.1529568 47.7171718,84.2323233 L53.2929293,84.2323233 C54.9844782,84.1529568 56.5826316,85.0102068 57.4521516,86.4633315 Z M78.0986163,86.4633315 C78.9681363,87.9164562 78.9681363,89.7300085 78.0986163,91.1831332 C77.2290962,92.6362579 75.6309429,93.4935079 73.939394,93.4141414 L68.3535354,93.4141414 C65.9017024,93.2991029 63.9729785,91.2777627 63.9729785,88.8232324 C63.9729785,86.368702 65.9017024,84.3473618 68.3535354,84.2323233 L73.939394,84.2323233 C75.6309429,84.1529568 77.2290962,85.0102068 78.0986163,86.4633315 Z M12.010101,58 C15.5558058,58.0055619 18.4287816,60.8785377 18.4343435,64.4242424 L18.4343435,86.989899 C18.4343435,90.5379101 15.5581121,93.4141414 12.010101,93.4141414 L6.42424243,93.4141414 C2.87623131,93.4141414 0,90.5379101 0,86.989899 L0,64.4242424 C0.00556190007,60.8785377 2.87853768,58.0055619 6.42424243,58 L12.010101,58 Z M94.5858587,84.2323233 C97.0376917,84.3473618 98.9664156,86.368702 98.9664156,88.8232324 C98.9664156,91.2777627 97.0376917,93.2991029 94.5858587,93.4141414 L89.0000001,93.4141414 C86.548167,93.2991029 84.6194432,91.2777627 84.6194432,88.8232324 C84.6194432,86.368702 86.548167,84.3473618 89.0000001,84.2323233 L94.5858587,84.2323233 Z M9.25252526,67.1818182 L9.18181819,67.1818182 L9.18181819,84.2626263 L9.25252526,84.2626263 L9.25252526,67.1818182 Z" id="Shape" fill="#000000"></path>
    </g>
</svg>