<svg width="100" height="100" viewBox="0 0 100 100" fill="none" xmlns="http://www.w3.org/2000/svg">
<path fill-rule="evenodd" clip-rule="evenodd" d="M48.7586 93.0964H53.6502C56.6304 93.0765 59.0357 90.655 59.0357 87.6747V37.4217C59.0292 34.4441 56.6276 32.0264 53.6502 32H48.7586C45.767 32.0066 43.3435 34.4301 43.3369 37.4217V87.6747C43.3369 90.669 45.7643 93.0964 48.7586 93.0964ZM53.0116 87.0723H49.361L49.3972 38.0241H53.0116V87.0723Z" fill="black"/>
<path fill-rule="evenodd" clip-rule="evenodd" d="M31.9884 93.0958H27.0848C24.0905 93.0958 21.6631 90.6684 21.6631 87.6741V51.1922C21.6697 48.2006 24.0932 45.7771 27.0848 45.7705H31.9884C34.98 45.7771 37.4034 48.2006 37.4101 51.1922V87.6741C37.4101 90.6684 34.9827 93.0958 31.9884 93.0958ZM27.6872 87.0717H31.386V51.7946H27.7113L27.6872 87.0717Z" fill="black"/>
<path fill-rule="evenodd" clip-rule="evenodd" d="M10.3133 93.0962H5.42169C2.42737 93.0962 0 90.6688 0 87.6745V64.9637C0.00662586 61.9721 2.43012 59.5486 5.42169 59.542H10.3133C13.3048 59.5486 15.7283 61.9721 15.7349 64.9637V87.6745C15.7349 90.6688 13.3076 93.0962 10.3133 93.0962ZM6.0241 87.0721H9.71084V65.5661H6.0241V87.0721Z" fill="black"/>
<path d="M75.3248 93.0964H70.4212C68.7577 93.0964 67.4092 91.7478 67.4092 90.0843C67.4092 88.4208 68.7577 87.0723 70.4212 87.0723H75.3248C76.9883 87.0723 78.3369 88.4208 78.3369 90.0843C78.3369 91.7478 76.9883 93.0964 75.3248 93.0964Z" fill="black"/>
<path d="M92.096 93.0964H96.9876C98.6511 93.0964 99.9996 91.7478 99.9996 90.0843C99.9996 88.4208 98.6511 87.0723 96.9876 87.0723H92.096C90.4325 87.0723 89.084 88.4208 89.084 90.0843C89.084 91.7478 90.4325 93.0964 92.096 93.0964Z" fill="black"/>
</svg>
