<svg width="100" height="100" viewBox="0 0 100 100" fill="none" xmlns="http://www.w3.org/2000/svg">
<path d="M89.1353 6H95.5C97.9853 6 100 8.03486 100 10.545V88.8731C100 91.3832 97.9853 93.4181 95.5 93.4181H89.1353C86.6501 93.4181 84.6354 91.3832 84.6354 88.8731V10.545C84.6354 8.03486 86.6501 6 89.1353 6Z" fill="black"/>
<path d="M74.3351 20.1399H67.9704C65.4851 20.1399 63.4704 22.1748 63.4704 24.6849V89.4316C63.4704 91.9417 65.4851 93.9765 67.9704 93.9765H74.3351C76.8203 93.9765 78.8351 91.9417 78.8351 89.4316V24.6849C78.8351 22.1748 76.8203 20.1399 74.3351 20.1399Z" fill="black"/>
<path d="M46.8172 33.2699H53.1819C55.6671 33.2699 57.6818 35.3047 57.6818 37.8149V88.98C57.6818 91.4902 55.6671 93.525 53.1819 93.525H46.8172C44.3319 93.525 42.3172 91.4902 42.3172 88.98V37.8149C42.3172 35.3047 44.3319 33.2699 46.8172 33.2699Z" fill="black"/>
<path d="M32.0179 47.4098H25.6532C23.1679 47.4098 21.1532 49.4447 21.1532 51.9548V89.5504C21.1532 92.0605 23.1679 94.0954 25.6532 94.0954H32.0179C34.5032 94.0954 36.5179 92.0605 36.5179 89.5504V51.9548C36.5179 49.4447 34.5032 47.4098 32.0179 47.4098Z" fill="black"/>
<path d="M10.8647 60.5398H4.49998C2.01471 60.5398 0 62.5746 0 65.0847V89.0989C0 91.609 2.01471 93.6438 4.49998 93.6438H10.8647C13.3499 93.6438 15.3646 91.609 15.3646 89.0989V65.0847C15.3646 62.5746 13.3499 60.5398 10.8647 60.5398Z" fill="black"/>
</svg>
