<svg width="100" height="100" viewBox="0 0 100 100" fill="none" xmlns="http://www.w3.org/2000/svg">
<path d="M47.8369 33H54.5719C57.0571 33 59.0719 35.0147 59.0719 37.5V89.5964C59.0719 92.0817 57.0571 94.0964 54.5719 94.0964H47.8369C45.3516 94.0964 43.3369 92.0817 43.3369 89.5964V37.5C43.3369 35.0147 45.3516 33 47.8369 33Z" fill="black"/>
<path d="M32.898 47H26.1631C23.6778 47 21.6631 49.0147 21.6631 51.5V89.8373C21.6631 92.3226 23.6778 94.3373 26.1631 94.3373H32.898C35.3833 94.3373 37.398 92.3226 37.398 89.8373V51.5C37.398 49.0147 35.3833 47 32.898 47Z" fill="black"/>
<path d="M11.2349 60H4.5C2.01472 60 0 62.0147 0 64.5V89.0663C0 91.5515 2.01472 93.5663 4.5 93.5663H11.2349C13.7202 93.5663 15.7349 91.5515 15.7349 89.0663V64.5C15.7349 62.0147 13.7202 60 11.2349 60Z" fill="black"/>
<path d="M75.3248 94.0241H70.4212C68.7577 94.0241 67.4092 92.6756 67.4092 91.0121C67.4092 89.3485 68.7577 88 70.4212 88H75.3248C76.9883 88 78.3369 89.3485 78.3369 91.0121C78.3369 92.6756 76.9883 94.0241 75.3248 94.0241Z" fill="black"/>
<path d="M92.096 94.0241H96.9876C98.6511 94.0241 99.9996 92.6756 99.9996 91.0121C99.9996 89.3485 98.6511 88 96.9876 88H92.096C90.4325 88 89.084 89.3485 89.084 91.0121C89.084 92.6756 90.4325 94.0241 92.096 94.0241Z" fill="black"/>
</svg>
