<?xml version="1.0" encoding="UTF-8"?>
<svg width="100px" height="100px" viewBox="0 0 100 100" version="1.1" xmlns="http://www.w3.org/2000/svg" xmlns:xlink="http://www.w3.org/1999/xlink">
    <!-- Generator: Sketch 57.1 (83088) - https://sketch.com -->
    <title>regular/signal-0-bar-regular</title>
    <desc>Created with Sketch.</desc>
    <g id="regular/signal-0-bar" stroke="none" stroke-width="1" fill="none" fill-rule="evenodd">
        <path d="M8.42268042,87 C9.77777084,87 10.8762887,88.0985178 10.8762887,89.4536082 C10.8762887,90.8086987 9.77777084,91.9072165 8.42268042,91.9072165 L2.45360825,91.9072165 C1.09851783,91.9072165 0,90.8086987 0,89.4536082 C0,88.0985178 1.09851783,87 2.45360825,87 L8.42268042,87 Z M30.4948454,87 C31.8499358,87 32.9484536,88.0985178 32.9484536,89.4536082 C32.9484536,90.8086987 31.8499358,91.9072165 30.4948454,91.9072165 L24.5257732,91.9072165 C23.1706828,91.9072165 22.072165,90.8086987 22.072165,89.4536082 C22.072165,88.0985178 23.1706828,87 24.5257732,87 L30.4948454,87 Z M52.5773196,87 C53.9324101,87 55.0309279,88.0985178 55.0309279,89.4536082 C55.0309279,90.8086987 53.9324101,91.9072165 52.5773196,91.9072165 L46.5979382,91.9072165 C45.2428478,91.9072165 44.1443299,90.8086987 44.1443299,89.4536082 C44.1443299,88.0985178 45.2428478,87 46.5979382,87 L52.5773196,87 Z M74.6391753,87 C75.9942658,87 77.0927836,88.0985178 77.0927836,89.4536082 C77.0927836,90.8086987 75.9942658,91.9072165 74.6391753,91.9072165 L68.6701032,91.9072165 C67.3150127,91.9072165 66.2164949,90.8086987 66.2164949,89.4536082 C66.2164949,88.0985178 67.3150127,87 68.6701032,87 L74.6391753,87 Z M96.6907217,87 C98.0458122,87 99.14433,88.0985178 99.14433,89.4536082 C99.14433,90.8086987 98.0458122,91.9072165 96.6907217,91.9072165 L90.7216496,91.9072165 C89.3665592,91.9072165 88.2680413,90.8086987 88.2680413,89.4536082 C88.2680413,88.0985178 89.3665592,87 90.7216496,87 L96.6907217,87 Z" id="Shape" fill="#000000"></path>
    </g>
</svg>