<?xml version="1.0" encoding="UTF-8"?>
<svg width="100px" height="100px" viewBox="0 0 100 100" version="1.1" xmlns="http://www.w3.org/2000/svg" xmlns:xlink="http://www.w3.org/1999/xlink">
    <!-- Generator: Sketch 57.1 (83088) - https://sketch.com -->
    <title>bold/signal-5-bar-bold</title>
    <desc>Created with Sketch.</desc>
    <g id="bold/signal-5-bar" stroke="none" stroke-width="1" fill="none" fill-rule="evenodd">
        <path d="M11.89,58.0000001 C15.3054727,58.0000001 18.0960184,60.6932016 18.244027,64.0781591 L18.25,64.3100001 L18.25,86.6400001 C18.25,90.0761717 15.5249883,92.8758828 12.1181128,92.9959854 L11.89,93.0000001 L6.36000001,93.0000001 C2.92764509,93.0000001 0.129562709,90.2808204 0.00436435701,86.8778551 L0,86.6500001 L0,64.3100001 C0.0268511989,60.8946329 2.74209415,58.1255344 6.12811893,58.0041499 L6.36000001,58.0000001 L11.89,58.0000001 Z M32.33,45 C35.7448692,45.0105541 38.5308608,47.7038496 38.6836841,51.0882013 L38.69,51.32 L38.69,86.6400001 C38.6846135,90.0739381 35.962569,92.8705162 32.5579627,92.9956386 L32.33,93 L26.8,93 C23.3676451,93 20.5695627,90.2808204 20.4443644,86.8778551 L20.44,86.6500001 L20.44,51.36 C20.4453866,47.9260621 23.167431,45.1294839 26.5720374,45.0043615 L26.8,45 L32.33,45 Z M52.7600001,32 C56.1862447,32.005303 58.9813124,34.7115447 59.1243788,38.1074182 L59.1300001,38.34 L59.1300001,86.6400001 C59.1246033,90.0777535 56.3967354,92.8759515 52.9882203,92.9959876 L52.7600001,93 L47.24,93 C43.8060519,93 41.0051913,90.2823667 40.8747197,86.877956 L40.87,86.6500001 L40.87,38.37 C40.8753866,34.9306593 43.6017156,32.1296791 47.0116787,32.0043678 L47.24,32 L52.7600001,32 Z M67.6700001,19 L73.2000001,19 C76.632355,19 79.4304374,21.7191797 79.5556357,25.122145 L79.5600001,25.35 L79.5600001,86.6400001 C79.5600001,90.0761717 76.8349884,92.8758827 73.4281129,92.9959854 L73.2000001,93 L67.6700001,93 C64.2453634,92.9946618 61.453086,90.2869103 61.3152602,86.892479 L61.3100001,86.6600001 L61.3100001,25.36 C61.3153866,21.926062 64.0374311,19.1294839 67.4420374,19.0043615 L67.6700001,19 L73.2000001,19 L67.6700001,19 Z M93.6400001,6 C97.1502478,6.00550628 99.9944938,8.8497523 100,12.36 L100,86.6500001 C99.9944834,90.1586252 97.1486296,93 93.6400001,93 L88.1100001,93 C84.6013706,93 81.7555168,90.1586252 81.7500001,86.6500001 L81.7500001,12.36 C81.7555064,8.8497523 84.5997524,6.00550628 88.1100001,6 L93.6400001,6 Z M9.16000001,67.0000001 L9.09000001,67.0000001 L9.09000001,84.0000001 L9.16000001,84.0000001 L9.16000001,67.0000001 Z M29.6,54.05 L29.53,54.05 L29.53,84.0000001 L29.6,84.0000001 L29.6,54.05 Z M70.4700001,28.08 L70.4000001,28.08 L70.4000001,83.9200001 L70.4700001,83.9200001 L70.4700001,28.08 Z M90.9100001,15.09 L90.8400001,15.09 L90.8400001,83.9200001 L90.9100001,83.9200001 L90.9100001,15.09 Z" id="Shape" fill="#000000"></path>
    </g>
</svg>