<svg width="100" height="100" viewBox="0 0 100 100" fill="none" xmlns="http://www.w3.org/2000/svg">
<path d="M11.2349 60H4.5C2.01472 60 0 62.0147 0 64.5V89.0663C0 91.5515 2.01472 93.5663 4.5 93.5663H11.2349C13.7202 93.5663 15.7349 91.5515 15.7349 89.0663V64.5C15.7349 62.0147 13.7202 60 11.2349 60Z" fill="black"/>
<path d="M31.9879 94.0241H27.0843C25.4208 94.0241 24.0723 92.6756 24.0723 91.012C24.0723 89.3485 25.4208 88 27.0843 88H31.9879C33.6514 88 35 89.3485 35 91.012C35 92.6756 33.6514 94.0241 31.9879 94.0241Z" fill="black"/>
<path d="M48.7591 94.0241H53.6507C55.3142 94.0241 56.6627 92.6756 56.6627 91.012C56.6627 89.3485 55.3142 88 53.6507 88H48.7591C47.0956 88 45.7471 89.3485 45.7471 91.012C45.7471 92.6756 47.0956 94.0241 48.7591 94.0241Z" fill="black"/>
<path d="M75.3248 94.0241H70.4212C68.7577 94.0241 67.4092 92.6756 67.4092 91.012C67.4092 89.3485 68.7577 88 70.4212 88H75.3248C76.9883 88 78.3369 89.3485 78.3369 91.012C78.3369 92.6756 76.9883 94.0241 75.3248 94.0241Z" fill="black"/>
<path d="M92.096 94.0241H96.9876C98.6511 94.0241 99.9996 92.6756 99.9996 91.012C99.9996 89.3485 98.6511 88 96.9876 88H92.096C90.4325 88 89.084 89.3485 89.084 91.012C89.084 92.6756 90.4325 94.0241 92.096 94.0241Z" fill="black"/>
</svg>
