<?xml version="1.0" encoding="UTF-8"?>
<svg width="100px" height="100px" viewBox="0 0 100 100" version="1.1" xmlns="http://www.w3.org/2000/svg" xmlns:xlink="http://www.w3.org/1999/xlink">
    <!-- Generator: Sketch 57.1 (83088) - https://sketch.com -->
    <title>bold/signal-3-bar-bold</title>
    <desc>Created with Sketch.</desc>
    <g id="bold/signal-3-bar" stroke="none" stroke-width="1" fill="none" fill-rule="evenodd">
        <path d="M78.0986163,85.7562608 C78.9681363,87.2093855 78.9681363,89.0229378 78.0986163,90.4760625 C77.2686199,91.8631361 75.7747241,92.7072743 74.1694212,92.71212 L73.939394,92.7070708 L68.3535354,92.7070708 C65.9017024,92.5920322 63.9729785,90.570692 63.9729785,88.1161617 C63.9729785,85.7338234 65.7899165,83.7595682 68.1385905,83.5403127 L68.3535354,83.5252526 L73.939394,83.5252526 C75.6309429,83.4458861 77.2290962,84.3031361 78.0986163,85.7562608 Z M94.5858587,83.5252526 C97.0376917,83.6402911 98.9664156,85.6616313 98.9664156,88.1161617 C98.9664156,90.570692 97.0376917,92.5920322 94.5858587,92.7070708 L89.0000001,92.7070708 C86.548167,92.5920322 84.6194432,90.570692 84.6194432,88.1161617 C84.6194432,85.6616313 86.548167,83.6402911 89.0000001,83.5252526 L94.5858587,83.5252526 Z M12.010101,57.2626263 C15.471039,57.2680211 18.292599,60.0058244 18.4292345,63.4369221 L18.4343435,63.6666667 L18.4343435,86.1919192 C18.4289025,89.6605435 15.6793627,92.4853699 12.2403663,92.6117562 L12.010101,92.6161617 L6.42424243,92.6161617 C2.97096155,92.6108469 0.152648799,89.884743 0.00580921882,86.4615469 L0,86.2323233 L0,63.6666667 C0.0162953663,60.2057628 2.76297182,57.3928398 6.1944829,57.2670116 L6.42424243,57.2626263 L12.010101,57.2626263 Z M32.6565657,44.1313131 C36.1213432,44.1367353 38.944534,46.8804022 39.0760505,50.3154496 L39.0808081,50.5454546 L39.0808081,86.1919192 C39.0699587,89.6582958 36.3233933,92.4799812 32.8866799,92.6114079 L32.6565657,92.6161617 L27.0707071,92.6161617 C23.6174262,92.6108469 20.7991135,89.884743 20.6522739,86.4615469 L20.6464647,86.2323233 L20.6464647,50.5555556 C20.6464647,47.0846751 23.3990017,44.2566842 26.8402901,44.1353683 L27.0707071,44.1313131 L32.6565657,44.1313131 Z M53.2929293,31 C56.7631642,31.0054222 59.5908014,33.7534169 59.7225088,37.1938752 L59.7272728,37.4242424 L59.7272728,86.1919192 C59.7163985,89.6621413 56.9639647,92.4854577 53.5233038,92.6117596 L53.2929293,92.6161617 L47.7171718,92.6161617 C44.2622515,92.6108992 41.4411088,89.8863036 41.2889929,86.4616486 L41.2828283,86.2323233 L41.2828283,37.4242424 C41.2937026,33.9540204 44.0461364,31.130704 47.4867973,31.0044021 L47.7171718,31 L53.2929293,31 Z M9.25252526,66.4141414 L9.18181819,66.4141414 L9.18181819,83.5252526 L9.25252526,83.5252526 L9.25252526,66.4141414 Z M29.8989899,53.3030303 L29.8282829,53.3030303 L29.8282829,83.5252526 L29.8989899,83.5252526 L29.8989899,53.3030303 Z" id="Shape" fill="#000000"></path>
    </g>
</svg>