<?xml version="1.0" encoding="UTF-8"?>
<svg width="100px" height="100px" viewBox="0 0 100 100" version="1.1" xmlns="http://www.w3.org/2000/svg" xmlns:xlink="http://www.w3.org/1999/xlink">
    <!-- Generator: Sketch 57.1 (83088) - https://sketch.com -->
    <title>solid/signal-4-bar-solid</title>
    <desc>Created with Sketch.</desc>
    <g id="solid/signal-4-bar" stroke="none" stroke-width="1" fill="none" fill-rule="evenodd">
        <path d="M53.3571718,31.1212121 C56.8697028,31.1212121 59.7171718,33.9686811 59.7171718,37.4812121 L59.7171718,86.4177779 C59.7171718,89.9303089 56.8697028,92.7777779 53.3571718,92.7777779 L47.6428283,92.7777779 C44.1302973,92.7777779 41.2828283,89.9303089 41.2828283,86.4177779 L41.2828283,37.4812121 C41.2828283,33.9686811 44.1302973,31.1212121 47.6428283,31.1212121 L53.3571718,31.1212121 Z M74.0036364,18 C77.5161675,18 80.3636364,20.847469 80.3636364,24.36 L80.3636364,86.4177779 C80.3636364,89.9303089 77.5161675,92.7777779 74.0036364,92.7777779 L68.289293,92.7777779 C64.776762,92.7777779 61.929293,89.9303089 61.929293,86.4177779 L61.929293,24.36 C61.929293,20.847469 64.776762,18 68.289293,18 L74.0036364,18 Z M94.5858587,83.5959597 C97.0376917,83.7109982 98.9664156,85.7323384 98.9664156,88.1868688 C98.9664156,90.6413991 97.0376917,92.6627393 94.5858587,92.7777779 L89.0000001,92.7777779 C86.548167,92.6627393 84.6194432,90.6413991 84.6194432,88.1868688 C84.6194432,85.7323384 86.548167,83.7109982 89.0000001,83.5959597 L94.5858587,83.5959597 Z M12.0743435,57.3535354 C15.5868745,57.3535354 18.4343435,60.2010044 18.4343435,63.7135354 L18.4343435,86.4076768 C18.4343435,89.9202079 15.5868745,92.7676768 12.0743435,92.7676768 L6.36,92.7676768 C2.84746899,92.7676768 0,89.9202079 0,86.4076768 L0,63.7135354 C0,60.2010044 2.84746899,57.3535354 6.36,57.3535354 L12.0743435,57.3535354 Z M32.7208081,44.2323233 C36.2333391,44.2323233 39.0808081,47.0797922 39.0808081,50.5923233 L39.0808081,86.4076768 C39.0808081,89.9202079 36.2333391,92.7676768 32.7208081,92.7676768 L27.0064647,92.7676768 C23.4939337,92.7676768 20.6464647,89.9202079 20.6464647,86.4076768 L20.6464647,50.5923233 C20.6464647,47.0797922 23.4939337,44.2323233 27.0064647,44.2323233 L32.7208081,44.2323233 Z" id="Shape" fill="#000000"></path>
    </g>
</svg>