<svg width="100" height="100" viewBox="0 0 100 100" fill="none" xmlns="http://www.w3.org/2000/svg">
<path fill-rule="evenodd" clip-rule="evenodd" d="M31.9884 93.3373H27.0848C24.0932 93.3307 21.6697 90.9072 21.6631 87.9157V51.4217C21.6697 48.4301 24.0932 46.0066 27.0848 46H31.9884C34.98 46.0066 37.4034 48.4301 37.4101 51.4217V87.9157C37.4034 90.9072 34.98 93.3307 31.9884 93.3373ZM27.6872 87.3132H31.386V52.0241H27.7113L27.6872 87.3132Z" fill="black"/>
<path fill-rule="evenodd" clip-rule="evenodd" d="M10.3133 93.3377H5.42169C2.43012 93.3311 0.00662586 90.9076 0 87.9161V65.1932C0.00662586 62.2016 2.43012 59.7781 5.42169 59.7715H10.3133C13.3048 59.7781 15.7283 62.2016 15.7349 65.1932V87.9161C15.7283 90.9076 13.3048 93.3311 10.3133 93.3377ZM6.0241 87.3136H9.71084V65.7956H6.0241V87.3136Z" fill="black"/>
<path d="M48.7591 93.3376H53.6507C55.3142 93.3376 56.6627 91.989 56.6627 90.3255C56.6627 88.662 55.3142 87.3135 53.6507 87.3135H48.7591C47.0956 87.3135 45.7471 88.662 45.7471 90.3255C45.7471 91.989 47.0956 93.3376 48.7591 93.3376Z" fill="black"/>
<path d="M75.3248 93.3376H70.4212C68.7577 93.3376 67.4092 91.989 67.4092 90.3255C67.4092 88.662 68.7577 87.3135 70.4212 87.3135H75.3248C76.9883 87.3135 78.3369 88.662 78.3369 90.3255C78.3369 91.989 76.9883 93.3376 75.3248 93.3376Z" fill="black"/>
<path d="M92.096 93.3376H96.9876C98.6511 93.3376 99.9996 91.989 99.9996 90.3255C99.9996 88.662 98.6511 87.3135 96.9876 87.3135H92.096C90.4325 87.3135 89.084 88.662 89.084 90.3255C89.084 91.989 90.4325 93.3376 92.096 93.3376Z" fill="black"/>
</svg>
