<svg width="100" height="100" viewBox="0 0 100 100" fill="none" xmlns="http://www.w3.org/2000/svg">
<path d="M76.2349 19H69.5C67.0147 19 65 21.0147 65 23.5V89.3675C65 91.8528 67.0147 93.8675 69.5 93.8675H76.2349C78.7202 93.8675 80.7349 91.8528 80.7349 89.3675V23.5C80.7349 21.0147 78.7202 19 76.2349 19Z" fill="black"/>
<path d="M47.8369 33H54.5719C57.0571 33 59.0719 35.0147 59.0719 37.5V89.5964C59.0719 92.0817 57.0571 94.0964 54.5719 94.0964H47.8369C45.3516 94.0964 43.3369 92.0817 43.3369 89.5964V37.5C43.3369 35.0147 45.3516 33 47.8369 33Z" fill="black"/>
<path d="M32.898 47H26.1631C23.6778 47 21.6631 49.0147 21.6631 51.5V89.8373C21.6631 92.3226 23.6778 94.3373 26.1631 94.3373H32.898C35.3833 94.3373 37.398 92.3226 37.398 89.8373V51.5C37.398 49.0147 35.3833 47 32.898 47Z" fill="black"/>
<path d="M11.2349 60H4.5C2.01472 60 0 62.0147 0 64.5V89.0663C0 91.5515 2.01472 93.5663 4.5 93.5663H11.2349C13.7202 93.5663 15.7349 91.5515 15.7349 89.0663V64.5C15.7349 62.0147 13.7202 60 11.2349 60Z" fill="black"/>
<path d="M92.096 88H96.9876C98.6511 88 99.9996 89.3485 99.9996 91.012C99.9996 92.6756 98.6511 94.0241 96.9876 94.0241H92.096C90.4325 94.0241 89.084 92.6756 89.084 91.012C89.084 89.3485 90.4325 88 92.096 88Z" fill="black"/>
</svg>
