<svg width="100" height="100" viewBox="0 0 100 100" fill="none" xmlns="http://www.w3.org/2000/svg">
<path fill-rule="evenodd" clip-rule="evenodd" d="M11.8737 5.07151C20.4857 -1.1435 32.6647 -1.6765 41.8367 3.6395C52.1777 1.8475 63.1117 3.55051 72.3377 8.5795C82.6367 14.1115 90.7237 23.6145 94.4897 34.6875C97.0777 42.1815 97.6797 50.3285 96.3327 58.1355C99.6457 63.9605 100.793 70.9715 99.4497 77.5425C98.0317 84.7905 93.5617 91.3605 87.3807 95.3985C78.8237 101.152 67.0687 101.478 58.1557 96.3175C48.2297 98.0245 37.7607 96.5465 28.7807 91.9625C18.3427 86.7175 10.0177 77.4405 5.94671 66.4895C2.99771 58.6655 2.25671 50.0565 3.65871 41.8215C0.274707 35.8945 -0.822293 28.7315 0.621707 22.0635C2.05371 15.2515 6.17571 9.0625 11.8737 5.07151ZM34.5887 8.21451C28.6277 6.1855 21.7647 7.0625 16.5327 10.5745C10.7717 14.3195 7.09471 21.0595 7.15771 27.9395C7.07371 32.4515 8.77271 36.7635 11.1747 40.5075C9.61971 47.6505 9.73371 55.2005 12.0337 62.1685C15.6227 73.5055 24.5737 82.9605 35.6857 87.1925C43.2137 90.1535 51.5927 90.5355 59.4637 88.8105C61.7597 90.1445 64.0947 91.4965 66.6987 92.1285C73.2327 93.9115 80.5607 92.2085 85.6357 87.7345C90.8337 83.2955 93.5957 76.1865 92.6717 69.4045C92.2947 65.8025 90.6897 62.4995 88.8257 59.4445C90.4067 52.1875 90.2447 44.5035 87.8477 37.4455C84.0687 25.8675 74.6717 16.3235 63.1617 12.3455C55.9307 9.75651 48.0007 9.5195 40.5277 11.1505C38.6127 10.0535 36.7067 8.8885 34.5887 8.21451ZM63.7763 24.7922C66.4203 26.2572 68.9783 28.2402 70.2073 31.0872C71.0073 32.9592 71.0963 35.4032 69.6183 36.9712C68.0163 38.6102 65.4033 39.1142 63.2563 38.4242C60.7683 37.3822 59.5323 34.7762 57.4223 33.2262C54.7703 31.0402 51.1993 30.4512 47.8563 30.5112C45.4123 30.6162 42.7943 31.1722 41.0103 32.9682C39.3623 34.7262 38.7523 37.7372 40.3583 39.7162C41.8753 41.4662 44.2173 42.1182 46.3653 42.7152C50.4623 43.7402 54.6043 44.5662 58.7183 45.5372C62.9973 46.5162 67.3183 48.3882 70.1433 51.8742C75.0153 58.1872 73.9183 68.1962 67.8603 73.3652C63.0133 77.6562 56.2743 78.8432 49.9953 78.8812C43.2943 78.7832 36.1303 77.4112 30.9793 72.8272C28.3953 70.4972 26.2213 66.9802 27.0013 63.3842C27.8523 59.8092 32.7623 58.4532 35.5463 60.6512C37.6723 62.3592 38.8243 64.9562 40.8753 66.7392C43.3283 68.9892 46.7463 69.8832 50.0173 69.8032C53.2233 69.8872 56.6303 68.9042 58.8283 66.4642C60.3243 64.8162 61.1163 62.3092 60.1463 60.1982C59.3493 58.2162 57.3033 57.1362 55.3463 56.6022C51.7373 55.6572 48.1023 54.7972 44.4923 53.8442C40.5273 52.8742 36.4053 51.9882 32.9953 49.6252C30.3353 47.8582 28.3193 45.1012 27.6703 41.9572C26.5813 37.0262 27.3613 31.3372 30.9453 27.5702C34.2243 23.9232 39.0873 22.2292 43.8193 21.5002C50.5933 20.4752 57.7313 21.5132 63.7763 24.7922Z" fill="black"/>
</svg>
