<svg width="100" height="100" viewBox="0 0 100 100" fill="none" xmlns="http://www.w3.org/2000/svg">
<path fill-rule="evenodd" clip-rule="evenodd" d="M36.8077 52.6873C42.5897 52.6873 47.3127 57.4103 47.3127 63.1923V89.4953C47.3127 95.2773 42.5897 100 36.8077 100C31.0257 100 26.3027 95.2773 26.3027 89.4953V63.1923C26.3027 57.4103 31.0257 52.6873 36.8077 52.6873ZM63.1924 78.9902C68.9734 78.9902 73.6974 83.7142 73.6974 89.4952C73.6974 95.2772 68.9734 100 63.1924 100C57.4104 100 52.6874 95.2772 52.6874 89.4952V78.9902H63.1924ZM21.0098 52.6873V63.1923C21.0098 68.9733 16.2868 73.6973 10.5048 73.6973C4.72277 73.6973 -0.000227246 68.9733 -0.000227246 63.1923C-0.000227246 57.4103 4.72277 52.6873 10.5048 52.6873H21.0098ZM89.4954 52.6872C95.2774 52.6872 100 57.4102 100 63.1922C100 68.9742 95.2774 73.6972 89.4954 73.6972H63.1924C57.4104 73.6972 52.6874 68.9732 52.6874 63.1922C52.6874 57.4102 57.4104 52.6872 63.1924 52.6872H89.4954ZM36.8076 26.3027C42.5896 26.3027 47.3126 31.0267 47.3126 36.8077C47.3126 42.5897 42.5896 47.3127 36.8076 47.3127H10.5046C4.72357 47.3127 -0.000427246 42.5897 -0.000427246 36.8077C-0.000427246 31.0267 4.72357 26.3027 10.5046 26.3027H36.8076ZM89.4952 26.3025C95.2772 26.3025 100 31.0265 100 36.8075C100 42.5895 95.2772 47.3125 89.4952 47.3125H78.9902V36.8075C78.9902 31.0265 83.7132 26.3025 89.4952 26.3025ZM63.1923 -0.000488281C68.9733 -0.000488281 73.6973 4.72351 73.6973 10.5045V36.8075C73.6973 42.5895 68.9733 47.3125 63.1923 47.3125C57.4103 47.3125 52.6873 42.5895 52.6873 36.8075V10.5045C52.6873 4.72351 57.4103 -0.000488281 63.1923 -0.000488281ZM36.8076 -0.000288281C42.5896 -0.000288281 47.3126 4.72371 47.3126 10.5047V21.0097H36.8076C31.0256 21.0097 26.3026 16.2867 26.3026 10.5047C26.3026 4.72371 31.0256 -0.000288281 36.8076 -0.000288281Z" fill="black"/>
</svg>
