<svg width="100" height="100" viewBox="0 0 100 100" fill="none" xmlns="http://www.w3.org/2000/svg">
<path fill-rule="evenodd" clip-rule="evenodd" d="M9.32702 50.3365C10.798 50.3365 11.986 51.5245 11.986 52.9955V59.6425C11.986 61.1135 10.798 62.3025 9.32702 62.3025C7.85602 62.3025 6.66802 61.1135 6.66802 59.6425V52.9955C6.66802 51.5245 7.85602 50.3365 9.32702 50.3365ZM15.9951 56.9838C17.4661 56.9838 18.6541 58.1718 18.6541 59.6428C18.6541 61.1138 17.4661 62.3018 15.9951 62.3018C14.5241 62.3018 13.3361 61.1138 13.3361 59.6428V56.9838H15.9951ZM58.7832 43.6476C60.5365 43.6476 62.2166 44.4033 62.9764 45.5096L63.0742 45.6626V43.9496H67.3852V58.4546H63.0742V56.7416C62.3692 57.9296 60.6162 58.7566 58.7832 58.7566C54.9962 58.7566 52.0142 55.3726 52.0142 51.1816C52.0142 46.9916 54.9962 43.6476 58.7832 43.6476ZM38.2152 43.6482C40.2502 43.6482 42.2842 44.1522 43.7352 45.2992L42.5662 48.2612C41.2372 47.4142 39.5852 46.8112 38.0132 46.8112C36.9462 46.8112 36.2402 47.3142 36.2402 47.9582C36.2612 50.0542 44.1372 48.9052 44.2182 54.0232C44.2182 56.8022 41.8612 58.7562 38.4772 58.7562C35.9992 58.7562 33.7222 58.1722 31.9902 56.9232L33.2392 54.0232C34.5892 55.0292 36.3822 55.5532 38.1552 55.5532C39.4642 55.5532 40.2902 55.0502 40.2902 54.2842C40.2702 52.1492 32.4532 53.8202 32.3932 48.4622C32.3732 45.7422 34.7902 43.6482 38.2152 43.6482ZM76.772 43.648C79.499 43.648 81.9054 45.116 83.2272 47.2888L83.36 47.516L79.915 49.429C79.291 48.341 78.122 47.596 76.772 47.596C74.778 47.596 73.167 49.207 73.167 51.203C73.167 53.197 74.778 54.808 76.772 54.808C78.047 54.808 79.1606 54.1435 79.806 53.1531L79.915 52.975L83.36 54.889C82.071 57.205 79.613 58.756 76.772 58.756C72.603 58.756 69.219 55.372 69.219 51.203C69.219 47.032 72.603 43.648 76.772 43.648ZM50.262 37.382V58.474H45.951V37.382H50.262ZM89.3637 37.3822V49.7722L94.2387 43.9492H99.5167L93.4927 50.9602L99.9997 58.4742H94.4807L89.3637 52.1492V58.4742H85.0527V37.3822H89.3637ZM22.6631 50.3367C24.1341 50.3367 25.3221 51.5247 25.3221 52.9957C25.3221 54.4657 24.1341 55.6537 22.6631 55.6537H15.9951C14.5241 55.6537 13.3361 54.4657 13.3361 52.9957C13.3361 51.5247 14.5241 50.3367 15.9951 50.3367H22.6631ZM5.33842 50.3365V52.9955C5.33842 54.4655 4.15042 55.6535 2.67942 55.6535C1.20842 55.6535 0.0204221 54.4655 0.0204221 52.9955C0.0204221 51.5245 1.20842 50.3365 2.67942 50.3365H5.33842ZM59.7102 47.5956C57.7162 47.5956 56.1032 49.2076 56.1032 51.2026C56.1032 53.1966 57.7162 54.8076 59.7102 54.8076C61.0839 54.8076 62.3131 54.121 62.9701 53.1747L63.0742 53.0146V49.4496C62.4492 48.4016 61.1602 47.5956 59.7102 47.5956ZM9.32712 43.6674C10.7981 43.6674 11.9861 44.8564 11.9861 46.3264C11.9861 47.7974 10.7981 48.9854 9.32712 48.9854H2.65912C1.18812 48.9854 0.00012207 47.7974 0.00012207 46.3264C0.00012207 44.8564 1.18812 43.6674 2.65912 43.6674H9.32712ZM22.6429 43.6675C24.1139 43.6675 25.3019 44.8565 25.3019 46.3265C25.3019 47.7975 24.1139 48.9855 22.6429 48.9855H19.9839V46.3265C19.9839 44.8565 21.1719 43.6675 22.6429 43.6675ZM15.9953 36.9995C17.4663 36.9995 18.6543 38.1885 18.6543 39.6585V46.3265C18.6543 47.7975 17.4663 48.9855 15.9953 48.9855C14.5243 48.9855 13.3363 47.7975 13.3363 46.3265V39.6585C13.3363 38.1885 14.5243 36.9995 15.9953 36.9995ZM9.32712 36.9997C10.7981 36.9997 11.9861 38.1887 11.9861 39.6587V42.3177H9.32712C7.85612 42.3177 6.66812 41.1297 6.66812 39.6587C6.66812 38.1887 7.85612 36.9997 9.32712 36.9997Z" fill="black"/>
</svg>
