<svg width="100" height="100" viewBox="0 0 100 100" fill="none" xmlns="http://www.w3.org/2000/svg">
<path fill-rule="evenodd" clip-rule="evenodd" d="M84.824 68.669C84.488 69.447 83.714 70.111 82.456 70.694C80.916 71.409 78.614 72.01 75.61 72.482C75.459 72.773 75.296 73.519 75.193 73.983C75.077 74.521 74.958 75.05 74.792 75.614C74.542 76.471 73.886 76.96 72.994 76.96H72.953H72.914C72.51 76.96 71.982 76.896 71.304 76.762C70.265 76.56 69.101 76.372 67.632 76.372C66.778 76.372 65.894 76.447 65.005 76.595C63.29 76.88 61.813 77.923 60.102 79.132L60.097 79.135C57.596 80.904 54.762 82.908 50.43 82.908C50.243 82.908 50.066 82.903 49.923 82.897C49.806 82.904 49.687 82.908 49.569 82.908C45.239 82.908 42.404 80.904 39.9 79.135C38.189 77.925 36.71 76.88 34.995 76.595C34.105 76.447 33.221 76.372 32.368 76.372C30.83 76.372 29.597 76.613 28.696 76.79C28.08 76.909 27.549 77.014 27.087 77.014C25.867 77.014 25.392 76.268 25.209 75.644C25.039 75.067 24.921 74.524 24.806 73.997C24.698 73.501 24.54 72.776 24.388 72.487C21.386 72.017 19.083 71.415 17.543 70.699C16.283 70.113 15.508 69.449 15.174 68.667L15.171 68.663C15.073 68.431 15.016 68.19 15.002 67.948C14.955 67.112 15.547 66.375 16.374 66.239C18.479 65.893 20.489 65.107 22.346 63.907C23.868 62.924 25.3 61.657 26.599 60.143C28.887 57.479 30.003 54.952 30.122 54.673C30.134 54.646 30.146 54.619 30.158 54.593C30.637 53.622 30.749 52.818 30.49 52.208C29.978 51.004 28.016 50.382 26.72 49.97C26.346 49.852 25.994 49.739 25.697 49.623C24.564 49.175 23.687 48.672 23.09 48.126C22.004 47.135 21.999 46.157 22.094 45.663C22.236 44.915 22.761 44.241 23.574 43.765C24.22 43.385 24.964 43.177 25.67 43.177C26.11 43.177 26.508 43.259 26.857 43.421C28.043 43.978 29.093 44.259 29.975 44.259C30.523 44.259 30.895 44.148 31.125 44.043C31.094 43.525 31.061 42.994 31.029 42.485L31.028 42.479C30.729 37.731 30.358 31.822 31.922 28.315C32.991 25.919 34.426 23.856 36.188 22.184C37.665 20.779 39.383 19.641 41.292 18.798C44.632 17.324 47.741 17.105 49.295 17.105L50.499 17.093C50.553 17.092 50.609 17.092 50.67 17.092H50.673C52.229 17.092 55.338 17.311 58.673 18.773C60.59 19.615 62.312 20.754 63.797 22.159C65.565 23.836 67.006 25.903 68.078 28.308C69.643 31.817 69.27 37.731 68.97 42.482L68.959 42.683C68.929 43.152 68.901 43.603 68.876 44.041C69.079 44.134 69.393 44.231 69.841 44.253C70.682 44.213 71.663 43.933 72.758 43.421C73.269 43.182 73.809 43.132 74.175 43.132C74.711 43.132 75.237 43.232 75.698 43.424C77.064 43.912 77.924 44.911 77.945 46.034C77.954 46.499 77.814 47.209 77.095 47.949C76.493 48.57 75.58 49.118 74.303 49.622C74.009 49.738 73.655 49.851 73.279 49.97C71.982 50.381 70.021 51.003 69.511 52.206C69.252 52.817 69.362 53.62 69.841 54.592C69.854 54.617 69.866 54.644 69.878 54.671C70.053 55.079 74.267 64.695 83.626 66.237C84.453 66.373 85.045 67.11 84.997 67.946C84.984 68.193 84.925 68.436 84.824 68.669ZM94.48 0H5.52C2.471 0 0 2.472 0 5.521V94.481C0 97.528 2.471 100 5.52 100H94.48C97.528 100 100 97.528 100 94.481V5.521C100 2.472 97.528 0 94.48 0Z" fill="black"/>
</svg>
