<svg width="100" height="100" viewBox="0 0 100 100" fill="none" xmlns="http://www.w3.org/2000/svg">
<path d="M40.054 3.9266L56.7187 25.7261C59.3475 29.3837 58.5937 34.4682 55.0168 37.2058C51.4399 39.9433 46.335 39.3428 43.4911 35.8499L40.5436 32.0066V91.6558C40.5436 96.2576 36.8131 99.9881 32.2112 99.9881C27.6094 99.9881 23.8789 96.2576 23.8789 91.6558V32.0066L20.9521 35.8499C18.1565 39.5055 12.9268 40.2026 9.27124 37.407C5.61567 34.6114 4.91853 29.3817 7.71414 25.7261L24.3788 3.9266C26.0417 1.72576 28.5494 0.320847 31.2947 0.0520588C31.9072 -0.0173529 32.5256 -0.0173529 33.1382 0.0520588C35.8827 0.323327 38.3895 1.72772 40.054 3.9266Z" fill="black"/>
<path d="M84.7795 60.9405C86.9713 60.6495 89.189 61.2415 90.9441 62.5863C94.578 65.3988 95.249 70.6224 92.4439 74.262L75.7793 96.0615C74.1441 98.2708 71.6588 99.6947 68.9259 99.9881C68.6136 100.004 68.3008 100.004 67.9885 99.9881C67.6797 100.004 67.3703 100.004 67.0616 99.9881C64.3115 99.7037 61.8067 98.2794 60.1561 96.0615L43.4914 74.262C40.8627 70.6044 41.6165 65.5199 45.1934 62.7823C48.7702 60.0448 53.8751 60.6453 56.719 64.1382L59.6562 67.9815V8.33234C59.6562 3.73052 63.3867 0 67.9885 0C72.5903 0 76.3209 3.73052 76.3209 8.33234V67.9815L79.258 64.1382C80.6013 62.3819 82.5876 61.2316 84.7795 60.9405Z" fill="black"/>
</svg>
