<svg width="100" height="100" viewBox="0 0 100 100" fill="none" xmlns="http://www.w3.org/2000/svg">
<path d="M87.8937 69.9529C88.887 68.6673 90.7321 68.4255 92.0231 69.4118C93.27 70.4043 93.4995 72.2093 92.5408 73.4824L73.7172 98.1059C72.9738 99.0865 71.8757 99.7369 70.6584 99.9176C70.4425 99.9689 70.2215 99.9965 69.9996 100C69.7718 99.9829 69.5468 99.9395 69.329 99.8706C68.1117 99.6898 67.0137 99.0395 66.2702 98.0588L47.4467 73.4353C46.8162 72.5947 46.6821 71.4816 47.0948 70.5152C47.5076 69.5489 48.4046 68.8762 49.4478 68.7505C50.491 68.6248 51.5221 69.0653 52.1525 69.9059L67.0819 89.4118V2.94118C67.0819 1.31681 68.3988 0 70.0231 0C71.6475 0 72.9643 1.31681 72.9643 2.94118V89.4118L87.8937 69.9529Z" fill="black"/>
<path d="M33.3297 1.89394L52.1532 26.5175L52.1885 26.5645C53.1631 27.864 52.8997 29.7076 51.6002 30.6822C50.3008 31.6568 48.4572 31.3934 47.4826 30.0939L32.5532 10.5881V97.0586C32.5532 98.683 31.2364 99.9998 29.612 99.9998C27.9876 99.9998 26.6708 98.683 26.6708 97.0586V10.5881L11.7767 30.0469C10.8021 31.3464 8.95856 31.6097 7.65907 30.6351C6.35957 29.6605 6.09621 27.817 7.07083 26.5175L25.9061 1.89394C26.6468 0.915917 27.7402 0.265818 28.9532 0.0821765C29.3895 -0.0273922 29.8462 -0.0273922 30.2826 0.0821765C31.4956 0.265818 32.589 0.915917 33.3297 1.89394Z" fill="black"/>
</svg>
