<svg width="100" height="100" viewBox="0 0 100 100" fill="none" xmlns="http://www.w3.org/2000/svg">
<path fill-rule="evenodd" clip-rule="evenodd" d="M22.1714 49.4038C24.6614 50.0308 26.0604 50.8288 26.0604 52.9508C26.0364 54.9948 24.8164 56.3738 21.8964 56.3738C19.6204 56.3738 18.5634 55.9248 17.6494 55.4588V53.8118C18.7384 54.3828 20.4284 54.7978 21.9964 54.7978C23.7694 54.7978 24.4394 54.0988 24.4394 53.0578C24.4394 52.0178 23.7944 51.4648 21.5544 50.9258C18.9074 50.2808 17.7204 49.3668 17.7204 47.4318C17.7204 45.5998 19.1174 44.2438 21.8594 44.2438C23.5624 44.2438 24.6554 44.6508 25.4624 45.1028V46.7158C24.3404 46.0978 23.0764 45.7898 21.7964 45.8198C20.2554 45.8198 19.3414 46.3578 19.3414 47.4318C19.3414 48.3998 20.0944 48.8838 22.1714 49.4038ZM31.6616 54.9399C33.5776 54.9399 34.3866 53.3979 34.3866 51.6959C34.3866 49.9939 33.5616 48.4979 31.6616 48.4979C29.7616 48.4979 28.9026 49.9959 28.9026 51.6959C28.9026 53.3979 29.7456 54.9399 31.6616 54.9399ZM31.6616 47.0559C34.3496 47.0559 35.8906 49.0079 35.8906 51.6959C35.8906 54.3829 34.3306 56.3789 31.6616 56.3789C28.9926 56.3789 27.3976 54.3829 27.3976 51.6959C27.3976 49.0079 28.9736 47.0559 31.6616 47.0559ZM43.5772 52.2173V47.2353H45.1182V56.1943H43.5792V54.7263C43.0192 55.7633 41.9272 56.4003 40.7492 56.3753C38.6882 56.3753 37.5052 54.9493 37.5052 52.4863L37.5032 47.2353H39.0452V52.6473C39.0452 54.2593 39.6902 54.9763 41.1582 54.9763C42.5832 54.9763 43.5772 54.0283 43.5772 52.2173ZM48.9527 48.811C49.4717 47.754 50.3777 47 52.1247 47.109V48.614C50.1537 48.41 48.9527 49.008 48.9527 50.906V56.2H47.4477V47.235H48.9527V48.811ZM57.5527 54.9106C58.2457 54.9296 58.9357 54.8206 59.5887 54.5896L59.5957 55.9616C59.0577 56.2486 58.2337 56.3686 57.4077 56.3686C54.2197 56.3686 52.7257 54.4346 52.7257 51.6856C52.7257 48.9796 54.2117 47.0456 57.4077 47.0456C58.1437 47.0216 58.8737 47.1716 59.5417 47.4786V48.9046C58.9067 48.6136 58.2137 48.4746 57.5167 48.4976C55.1877 48.4976 54.2387 49.9676 54.2387 51.7046C54.2387 53.4406 55.2047 54.9106 57.5527 54.9106ZM62.3565 51.0796H67.3545C67.2655 49.4136 66.5115 48.4626 64.9725 48.4626C63.3395 48.4546 62.5145 49.5156 62.3545 51.0686L62.3565 51.0796ZM65.0445 47.0496C67.8025 47.0496 68.9125 48.9676 68.9125 51.6896V52.3886H62.3725C62.5875 53.9116 63.5745 54.8966 65.6875 54.8966C66.6195 54.8996 67.5435 54.7386 68.4195 54.4206V55.8466C67.6765 56.2346 66.5465 56.3736 65.6345 56.3736C62.2835 56.3736 60.8145 54.4386 60.8145 51.6896C60.8145 48.9836 62.3195 47.0496 65.0445 47.0496ZM72.8711 53.3638C72.8731 54.1518 73.3391 54.6888 74.2881 54.6888C74.6131 54.6788 74.9371 54.6368 75.2551 54.5628V56.0498C74.9171 56.1458 74.5671 56.1938 74.2171 56.1919C72.2991 56.1919 71.3661 55.0638 71.3661 53.3958V48.6688H69.9141V47.2428H71.3661V45.3378H72.8711V47.2348H75.2531V48.6608H72.8711V53.3638ZM78.7305 48.811C79.2505 47.754 80.1565 47 81.9035 47.109V48.614C79.9315 48.41 78.7305 49.008 78.7305 50.906V56.2H77.2255V47.235H78.7305V48.811ZM84.0527 51.0796H89.0517C88.9617 49.4136 88.2087 48.4626 86.6697 48.4626C85.0387 48.4546 84.2137 49.5156 84.0527 51.0686V51.0796ZM86.7407 47.0496C89.4997 47.0496 90.6097 48.9676 90.6097 51.6896V52.3886H84.0717C84.2867 53.9116 85.2727 54.8966 87.3867 54.8966C88.3157 54.8956 89.2387 54.7316 90.1107 54.4126V55.8376C89.3757 56.2346 88.2447 56.3736 87.3307 56.3736C83.9797 56.3736 82.5117 54.4386 82.5117 51.6896C82.5117 48.9836 84.0167 47.0496 86.7407 47.0496ZM93.4434 51.0796H98.4424C98.3524 49.4136 97.5994 48.4626 96.0604 48.4626C94.4264 48.4546 93.6024 49.5156 93.4414 51.0686L93.4434 51.0796ZM100 51.6896V52.3886H93.4644C93.6794 53.9116 94.6654 54.8966 96.7794 54.8966C97.7084 54.8956 98.6304 54.7316 99.5034 54.4126V55.8376C98.7574 56.2346 97.6334 56.3736 96.7214 56.3736C93.3704 56.3736 91.9024 54.4386 91.9024 51.6896C91.9024 48.9836 93.4074 47.0496 96.1314 47.0496C98.8904 47.0496 100 48.9676 100 51.6896ZM5.79689 50.7475C6.87789 50.7475 7.75389 49.8715 7.75489 48.7905C7.75389 47.7095 6.87789 46.8335 5.79689 46.8335V46.8315C4.71589 46.8315 3.83889 47.7085 3.83889 48.7895C3.83889 49.8705 4.71589 50.7475 5.79689 50.7475ZM11.2359 46.8195C11.2599 46.8845 11.2929 46.9425 11.3149 47.0085C12.2989 50.0515 10.6299 53.3155 7.58689 54.3005V54.2915C7.58089 54.2935 7.57589 54.2965 7.56989 54.2985V57.1975C7.56989 57.4225 7.38789 57.6045 7.16289 57.6045H4.41389C4.18989 57.6045 4.00689 57.4225 4.00689 57.1975V54.2965C1.61489 53.5225 -0.00311375 51.2945 -0.000117917 48.7805C0.00488625 45.5835 2.59989 42.9955 5.79689 42.9995C6.07589 42.9995 6.34789 43.0255 6.61589 43.0645C6.68189 43.0735 6.74689 43.0825 6.81289 43.0945C7.06889 43.1405 7.32189 43.1985 7.56689 43.2775C7.61789 43.2945 7.66789 43.3145 7.71889 43.3335C7.92289 43.4055 8.12189 43.4885 8.31589 43.5825C8.37989 43.6125 8.44289 43.6415 8.50589 43.6745C8.71589 43.7855 8.91689 43.9095 9.10989 44.0455C9.18689 44.0995 9.25989 44.1555 9.33389 44.2135C9.47889 44.3245 9.61689 44.4425 9.74989 44.5675C9.84189 44.6525 9.93089 44.7415 10.0169 44.8335C10.1359 44.9605 10.2499 45.0925 10.3579 45.2295C10.4249 45.3155 10.4909 45.4025 10.5539 45.4925C10.6799 45.6745 10.7969 45.8615 10.9019 46.0575C10.9499 46.1465 10.9909 46.2405 11.0349 46.3335C11.1089 46.4915 11.1759 46.6535 11.2359 46.8195Z" fill="black"/>
</svg>
