<?xml version="1.0" encoding="UTF-8"?>
<svg width="100px" height="100px" viewBox="0 0 100 100" version="1.1" xmlns="http://www.w3.org/2000/svg" xmlns:xlink="http://www.w3.org/1999/xlink">
    <!-- Generator: Sketch 57.1 (83088) - https://sketch.com -->
    <title>brand/sourcetree-alt-brand</title>
    <desc>Created with Sketch.</desc>
    <g id="brand/sourcetree-alt" stroke="none" stroke-width="1" fill="none" fill-rule="evenodd">
        <path d="M49.6906,53.0458 C42.2876,53.0458 36.2866,47.0448 36.2866,39.6418 C36.2866,32.2388 42.2876,26.2368 49.6906,26.2368 L49.6906,26.2508 C57.0916,26.2508 63.0906,32.2488 63.0946,39.6488 C63.0906,47.0488 57.0916,53.0458 49.6906,53.0458 M87.4696,27.4478 C83.2176,14.3028 72.5466,4.5708 59.6016,1.2488 C59.6006,1.2488 59.5996,1.2478 59.5986,1.2478 C58.3326,0.9238 57.0456,0.6578 55.7406,0.4588 C55.7256,0.4568 55.7096,0.4548 55.6936,0.4518 C55.1006,0.3618 54.5026,0.2878 53.9006,0.2248 C53.7876,0.2128 53.6736,0.2018 53.5596,0.1908 C53.0336,0.1408 52.5066,0.1008 51.9776,0.0698 C51.8536,0.0638 51.7316,0.0548 51.6076,0.0488 C50.9716,0.0188 50.3326,-0.000238036369 49.6906,-0.000238036369 C27.8006,-0.0302 10.0306,17.6898 10.0005578,39.5788 C9.9756,56.7888 21.0616,72.0488 37.4366,77.3458 L37.4366,97.2118 C37.4366,98.7518 38.6846,99.9998 40.2246,99.9998 L59.0456,99.9998 C60.5846,99.9998 61.8336,98.7518 61.8336,97.2118 L61.8336,77.3588 C61.8706,77.3478 61.9066,77.3328 61.9446,77.3208 L61.9446,77.3738 C82.7796,70.6358 94.2076,48.2828 87.4696,27.4478" id="Fill-1" fill="#000000"></path>
    </g>
</svg>