<svg width="100" height="100" viewBox="0 0 100 100" fill="none" xmlns="http://www.w3.org/2000/svg">
<g clip-path="url(#clip0)">
<path d="M78.8211 97.4248C78.2727 97.4196 77.7329 97.2867 77.2448 97.0366L50 82.7319L22.7905 97.0366C21.654 97.6336 20.2781 97.5395 19.2335 96.7933C18.1889 96.0471 17.6536 94.7762 17.8497 93.5075L23.0493 63.1688L1.0276 41.6882C0.100625 40.7853 -0.233337 39.4344 0.166136 38.2035C0.565609 36.9726 1.62924 36.0753 2.9098 35.8887L33.3426 31.4656L46.9532 3.89139C47.5267 2.73299 48.7074 2 50 2C51.2926 2 52.4733 2.73299 53.0468 3.89139L66.6574 31.4656L97.0902 35.8887C98.3708 36.0753 99.4344 36.9726 99.8339 38.2035C100.233 39.4344 99.8994 40.7853 98.9724 41.6882L76.9507 63.1688L82.1503 93.4722C82.3119 94.4528 82.0364 95.4551 81.3961 96.2153C80.7559 96.9755 79.815 97.4174 78.8211 97.4248ZM8.76814 40.9589L28.1195 59.7809C28.9226 60.5568 29.2884 61.6806 29.0959 62.7806L24.4962 89.4843L48.4237 76.9088C49.4152 76.3921 50.5966 76.3921 51.5881 76.9088L75.5038 89.4843L70.9394 62.8512C70.7449 61.7475 71.1107 60.6193 71.9158 59.8397L91.2672 41.0177L64.5164 37.1357C63.4087 36.9723 62.4533 36.2723 61.9637 35.2653L50 11.0084L38.0481 35.2417C37.5485 36.2433 36.5908 36.9373 35.4836 37.1004L8.76814 40.9589Z" fill="black"/>
</g>
<defs>
<clipPath id="clip0">
<rect width="100" height="100" fill="white"/>
</clipPath>
</defs>
</svg>
