<?xml version="1.0" encoding="UTF-8"?>
<svg width="100px" height="100px" viewBox="0 0 100 100" version="1.1" xmlns="http://www.w3.org/2000/svg" xmlns:xlink="http://www.w3.org/1999/xlink">
    <!-- Generator: Sketch 57.1 (83088) - https://sketch.com -->
    <title>regular/star-regular</title>
    <desc>Created with Sketch.</desc>
    <g id="regular/star" stroke="none" stroke-width="1" fill="none" fill-rule="evenodd">
        <path d="M21.4215686,96.4509804 C20.5986515,96.4517311 19.8175534,96.0884178 19.2879489,95.4585668 C18.7583444,94.8287158 18.534488,93.996851 18.6764706,93.1862746 L23.8921568,62.7941177 L1.82352936,41.3137255 C1.06085586,40.5735461 0.786073843,39.4637558 1.11527604,38.45323 C1.44447824,37.4427043 2.32023553,36.7077288 3.37254897,36.5588235 L33.8627451,32.127451 L47.5,4.49999995 C47.9677156,3.54604317 48.937554,2.9414117 50,2.9414117 C51.062446,2.9414117 52.0322844,3.54604317 52.5,4.49999995 L66.1372549,32.127451 L96.627451,36.5588235 C97.6797645,36.7077288 98.5555218,37.4427043 98.884724,38.45323 C99.2139262,39.4637558 98.9391441,40.5735461 98.1764706,41.3137255 L76.1078432,62.8235294 L81.3235294,93.2156863 C81.508006,94.2638718 81.0788122,95.3255231 80.2177177,95.9510155 C79.3566231,96.5765079 78.2142888,96.6564025 77.2745098,96.1568628 L50,81.7941177 L22.7254902,96.127451 C22.3236304,96.3397356 21.8760529,96.4507886 21.4215686,96.4509804 Z M50,76.882353 C50.4544843,76.8825448 50.9020618,76.9935979 51.3039216,77.2058824 L76.0784314,90.1960785 L71.3431372,62.6372549 C71.1861612,61.733293 71.4829763,60.8098682 72.1372549,60.1666667 L92.1568628,40.627451 L64.4607843,36.6078431 C63.5520003,36.4752581 62.7670533,35.9030537 62.3627451,35.0784314 L50,9.98039212 L37.6078431,35.0784314 C37.2067837,35.9015879 36.4254134,36.4738591 35.5196078,36.6078431 L7.84313721,40.627451 L27.8529412,60.1666667 C28.5091344,60.8049055 28.8096935,61.7249095 28.6568627,62.627451 L23.9215686,90.1960785 L48.7058824,77.1960785 C49.1062066,76.9901812 49.5498299,76.8826362 50,76.882353 Z" id="star" fill="#000000"></path>
    </g>
</svg>