<?xml version="1.0" encoding="UTF-8"?>
<svg width="100px" height="100px" viewBox="0 0 100 100" version="1.1" xmlns="http://www.w3.org/2000/svg" xmlns:xlink="http://www.w3.org/1999/xlink">
    <!-- Generator: Sketch 57.1 (83088) - https://sketch.com -->
    <title>solid/star-full-solid</title>
    <desc>Created with Sketch.</desc>
    <g id="solid/star-full" stroke="none" stroke-width="1" fill="none" fill-rule="evenodd">
        <path d="M98.882353,38.4607843 C98.5559113,37.4480012 97.6807731,36.7098412 96.627451,36.5588235 L66.1372549,32.127451 L52.5,4.49019603 L52.5,4.49019603 C52.0270433,3.54264186 51.0590311,2.94391388 50,2.94391388 C48.9409689,2.94391388 47.9729567,3.54264186 47.5,4.49019603 L33.8627451,32.127451 L3.36274505,36.5588235 C2.31212504,36.7108124 1.43934674,37.4469882 1.11241166,38.4569468 C0.785476591,39.4669055 1.06127932,40.57489 1.82352936,41.3137255 L23.8921568,62.8235294 L18.6764706,93.2156863 C18.491994,94.2638718 18.9211878,95.3255231 19.7822823,95.9510155 C20.6433769,96.5765079 21.7857112,96.6564025 22.7254902,96.1568628 L50,81.7941177 L77.2745098,96.1372549 C77.6770963,96.3465092 78.1247214,96.4542085 78.5784314,96.4509804 C79.4078455,96.4658584 80.2006981,96.1101313 80.7410288,95.4806936 C81.2813594,94.8512558 81.5128877,94.0136689 81.3725491,93.1960785 L76.1568628,62.8039216 L98.1764706,41.3137255 C98.939598,40.5769133 99.2138609,39.4684341 98.882353,38.4607843 Z" id="star-full" fill="#000000"></path>
    </g>
</svg>