<svg width="100" height="100" viewBox="0 0 100 100" fill="none" xmlns="http://www.w3.org/2000/svg">
<g clip-path="url(#clip0)">
<path d="M24.4922 97.9709C21.9163 97.9651 19.4739 96.8245 17.8158 94.8533C16.1577 92.882 15.4524 90.2803 15.8878 87.7415L19.9817 63.8763L2.63749 46.9696C0.2553 44.646 -0.600628 41.1712 0.429788 38.007C1.4602 34.8427 4.19814 32.5382 7.49179 32.0629L31.4507 28.5837L42.1594 6.87479C43.6311 3.88998 46.6702 2 49.9981 2C53.326 2 56.3651 3.88998 57.8368 6.87479L68.5559 28.5837L92.5148 32.0734C95.8042 32.5471 98.5393 34.8476 99.5696 38.0072C100.6 41.1668 99.7469 44.6373 97.3691 46.9592L80.0145 63.8763L84.1084 87.7415C84.6695 91.0173 83.3241 94.3278 80.6369 96.2835C77.9498 98.2392 74.3859 98.5016 71.4414 96.9605L49.9929 85.6894L28.5653 96.9605C27.3095 97.6223 25.9117 97.969 24.4922 97.9709ZM25.7423 46.2196L34.5654 54.824C36.6179 56.8296 37.5593 59.7125 37.0863 62.5429L35.0029 74.6995L45.9095 68.9702C48.4547 67.6256 51.4999 67.6256 54.0451 68.9702L64.9516 74.6995L62.8682 62.5533C62.3881 59.7262 63.3219 56.8431 65.3683 54.8344L74.2019 46.2196L62.014 44.4487C59.1737 44.0388 56.7163 42.259 55.441 39.6881L49.9929 28.6566L44.5344 39.6986C43.2629 42.2762 40.8053 44.0639 37.9613 44.4799L25.7423 46.2196Z" fill="black"/>
</g>
<defs>
<clipPath id="clip0">
<rect width="100" height="100" fill="white"/>
</clipPath>
</defs>
</svg>
