<?xml version="1.0" encoding="UTF-8"?>
<svg width="100px" height="100px" viewBox="0 0 100 100" version="1.1" xmlns="http://www.w3.org/2000/svg" xmlns:xlink="http://www.w3.org/1999/xlink">
    <!-- Generator: Sketch 57.1 (83088) - https://sketch.com -->
    <title>bold/sticky-note-bold</title>
    <desc>Created with Sketch.</desc>
    <g id="bold/sticky-note" stroke="none" stroke-width="1" fill="none" fill-rule="evenodd">
        <path d="M93.18,-4.9999997e-08 L6.81999996,-4.9999997e-08 C3.05570156,0.00550734494 0.00550734494,3.05570156 -4.9999997e-08,6.81999996 L-4.9999997e-08,93.18 C0.00550734494,96.9442984 3.05570156,99.9944927 6.81999996,100 L70,100 C70.2989503,100 70.5971507,99.9700887 70.89,99.91 C71.03,99.91 71.15,99.83 71.28,99.79 C71.4363614,99.7539335 71.5900573,99.7071565 71.74,99.65 C71.8927697,99.5856223 72.0399402,99.5086922 72.18,99.42 C72.2964187,99.3660185 72.4099097,99.3059351 72.52,99.24 C72.7705812,99.0722222 73.0049335,98.8813924 73.22,98.67 L98.67,73.23 C98.8813924,73.0149335 99.0722222,72.7805812 99.24,72.53 C99.31,72.42 99.36,72.3 99.43,72.18 C99.5,72.06 99.59,71.9 99.65,71.75 C99.7089899,71.5997453 99.7590766,71.4461459 99.8,71.29 C99.8,71.16 99.88,71.04 99.91,70.9 C99.970767,70.6038776 100.000021,70.3022917 100.000021,70 L100.000021,6.81999996 C99.9944927,3.05570156 96.9442984,0.00550734494 93.18,-4.9999997e-08 Z M74.56,84.48 L74.56,74.56 L84.48,74.56 L74.56,84.48 Z M90.91,65.48 L71.15,65.48 C68.0153054,65.4855043 65.4755043,68.0253054 65.47,71.16 L65.47,90.91 L9.08999996,90.91 L9.08999996,9.08999996 L90.91,9.08999996 L90.91,65.48 Z" id="sticky-note" fill="#000000"></path>
    </g>
</svg>