<svg width="100" height="100" viewBox="0 0 100 100" fill="none" xmlns="http://www.w3.org/2000/svg">
<path d="M99.9865 5.29341C99.9801 2.37262 97.6139 0.00646909 94.6931 0H5.29341C2.37262 0.00646909 0.00646909 2.37262 0 5.29341V94.6931C0.00646909 97.6139 2.37262 99.9801 5.29341 99.9865H70.7081C70.8998 100.004 71.0928 100.004 71.2845 99.9865C71.3726 99.9701 71.4591 99.9464 71.5433 99.916L71.8374 99.8219L72.1315 99.6689L72.3432 99.5513C72.5024 99.4428 72.652 99.3208 72.7902 99.1867L99.1278 72.7902C99.2648 72.6545 99.387 72.5046 99.4925 72.3432C99.5363 72.2712 99.5756 72.1966 99.6101 72.1197C99.6101 72.0256 99.716 71.9315 99.7631 71.8374C99.8101 71.7433 99.7631 71.6374 99.8572 71.5316C99.9078 71.4534 99.9511 71.3707 99.9865 71.2845C100.004 71.0928 100.004 70.8998 99.9865 70.7081V5.29341ZM5.88156 5.88156H94.105V67.7674H71.8844C69.6106 67.7674 67.7674 69.6106 67.7674 71.8844V94.105H5.88156V5.88156ZM89.9526 73.6489L73.6489 89.9526V73.6489H89.9526Z" fill="black"/>
</svg>
