<?xml version="1.0" encoding="UTF-8"?>
<svg width="100px" height="100px" viewBox="0 0 100 100" version="1.1" xmlns="http://www.w3.org/2000/svg" xmlns:xlink="http://www.w3.org/1999/xlink">
    <!-- Generator: Sketch 57.1 (83088) - https://sketch.com -->
    <title>bold/stopwatch-bold</title>
    <desc>Created with Sketch.</desc>
    <g id="bold/stopwatch" stroke="none" stroke-width="1" fill="none" fill-rule="evenodd">
        <path d="M62.2647059,0.980392108 C63.9065033,0.903359955 65.4576522,1.73539674 66.3015981,3.14578248 C67.145544,4.55616823 67.145544,6.31638071 66.3015981,7.72676645 C65.4576522,9.13715219 63.9065033,9.96918897 62.2647059,9.89215682 L54.7254902,9.89215682 L54.7254902,12.4313725 C63.0986115,13.2935531 71.0378253,16.5816825 77.5686275,21.8921568 L81.9803922,17.4803921 C83.0911108,16.2816209 84.7684349,15.7861878 86.3522372,16.1890754 C87.9360395,16.591963 89.1727429,17.8286664 89.5756305,19.4124687 C89.9785181,20.996271 89.483085,22.6735951 88.2843138,23.7843137 L83.882353,28.1862745 C96.4693128,43.6097307 96.9677969,65.6132707 85.0922205,81.5909189 C73.2166441,97.5685672 52.0036344,103.434782 33.6062668,95.8287698 C15.2088992,88.2227575 4.33144616,69.0894025 7.20567346,49.3903321 C10.0799008,29.6912616 25.9708582,14.4635983 45.7745098,12.4313725 L45.7745098,9.89215682 L38.2352941,9.89215682 C35.8555738,9.78050177 33.9835771,7.81861275 33.9835771,5.43627447 C33.9835771,3.05393618 35.8555738,1.09204716 38.2352941,0.980392108 L62.2647059,0.980392108 Z M63.4650189,23.7330624 C50.5720488,18.3936928 35.7322148,21.3471637 25.8660555,31.2161275 C15.9998961,41.0850913 13.050643,55.9257641 18.3936767,68.8172162 C23.7367104,81.7086683 36.3196709,90.1118087 50.2745098,90.107846 C69.3177835,90.0862223 84.7484973,74.6511222 84.7647059,55.6078431 C84.7647059,41.6530036 76.357989,29.0724319 63.4650189,23.7330624 Z M70.127451,39.2156863 C72.2665012,37.9998045 74.986128,38.7455087 76.2058824,40.8823529 C76.790095,41.91264 76.9395831,43.1332844 76.6212581,44.2741022 C76.3029332,45.4149199 75.5430496,46.3818202 74.5098039,46.9607843 L50.6764706,60.5196079 L32.0490196,53.5196078 C29.7451259,52.6559861 28.5775548,50.0882075 29.4411766,47.7843138 C30.3047983,45.4804201 32.8725769,44.3128489 35.1764706,45.1764706 L49.8823529,50.7058824 L70.127451,39.2156863 Z" id="Shape" fill="#000000"></path>
    </g>
</svg>