<svg width="100" height="100" viewBox="0 0 100 100" fill="none" xmlns="http://www.w3.org/2000/svg">
<path d="M84.5971 32.8238L90.4758 26.945C93.0815 24.2935 93.0617 20.0369 90.4314 17.4097C87.8012 14.7826 83.5445 14.7678 80.8961 17.3766L75.0061 23.2666C69.7101 19.4415 63.5935 16.9068 57.1443 15.8646V13.5402H62.5265C66.2655 13.5402 69.2966 10.5091 69.2966 6.77011C69.2966 3.03108 66.2655 0 62.5265 0H38.2331C34.4941 0 31.463 3.03108 31.463 6.77011C31.463 10.5091 34.4941 13.5402 38.2331 13.5402H43.604V15.8646C24.9014 18.8776 10.4768 33.9484 8.28581 52.765C6.0948 71.5816 16.6707 89.5635 34.1807 96.793C51.6907 104.023 71.8722 98.7399 83.5945 83.8586C95.3167 68.9772 95.7262 48.1199 84.5971 32.7899V32.8238ZM74.1147 47.3908L50.6224 60.694L32.4898 53.9239C31.5093 53.5986 30.7851 52.7634 30.6019 51.7467C30.4187 50.7301 30.8059 49.6946 31.6112 49.0476C32.4165 48.4005 33.511 48.2454 34.4644 48.6432L50.1372 54.5332L71.2938 42.4486C72.1766 41.9447 73.2612 41.9501 74.139 42.4627C75.0168 42.9753 75.5545 43.9172 75.5495 44.9338C75.5444 45.9503 74.9975 46.8869 74.1147 47.3908Z" fill="black"/>
</svg>
