<svg width="100" height="100" viewBox="0 0 100 100" fill="none" xmlns="http://www.w3.org/2000/svg">
<path d="M31.5147 52.0224L50.3904 59.0699L74.8102 45.1745C75.7786 44.6863 76.399 43.7041 76.424 42.6199C76.4489 41.5358 75.8743 40.5261 74.9294 39.9939C73.9845 39.4617 72.8233 39.4935 71.909 40.0767L49.8853 52.6566L33.5702 46.5253C32.5778 46.1111 31.4384 46.2726 30.6001 46.9462C29.7618 47.6197 29.3587 48.6976 29.5494 49.756C29.7401 50.8143 30.494 51.6837 31.5147 52.0224Z" fill="black"/>
<path fill-rule="evenodd" clip-rule="evenodd" d="M88.9641 21.037L83.1734 26.8278C96.7045 42.2198 97.8397 64.908 85.9125 81.5738C73.9854 98.2396 52.144 104.484 33.2098 96.6419C14.2756 88.7996 3.24611 68.9402 6.59595 48.7218C9.94579 28.5034 26.7908 13.2624 47.2425 11.9456V5.87298H37.4933C35.8716 5.87298 34.5569 4.55827 34.5569 2.93649C34.5569 1.31471 35.8716 0 37.4933 0H62.8294C64.4511 0 65.7659 1.31471 65.7659 2.93649C65.7659 4.55827 64.4511 5.87298 62.8294 5.87298H53.1155V11.9456C62.6957 12.5882 71.7996 16.3602 79.027 22.6814L84.8296 16.8789C85.994 15.8438 87.7642 15.8983 88.8628 17.0031C89.9614 18.1079 90.0059 19.8784 88.9641 21.037ZM14.8949 70.421C20.7975 84.6741 34.7051 93.9676 50.132 93.9676C71.1857 93.9547 88.2517 76.894 88.2711 55.8403C88.2759 40.4134 78.9866 26.5029 64.7353 20.5959C50.4841 14.689 34.0779 17.9492 23.1677 28.8559C12.2576 39.7627 8.99241 56.168 14.8949 70.421Z" fill="black"/>
</svg>
