<?xml version="1.0" encoding="UTF-8"?>
<svg width="100px" height="100px" viewBox="0 0 100 100" version="1.1" xmlns="http://www.w3.org/2000/svg" xmlns:xlink="http://www.w3.org/1999/xlink">
    <!-- Generator: Sketch 57.1 (83088) - https://sketch.com -->
    <title>solid/stopwatch-solid</title>
    <desc>Created with Sketch.</desc>
    <g id="solid/stopwatch" stroke="none" stroke-width="1" fill="none" fill-rule="evenodd">
        <path d="M83.5742575,29.7524752 L89.7623763,23.5643564 C90.9261424,22.4005903 91.3806448,20.7043642 90.9546769,19.1146301 C90.5287089,17.524896 89.2869852,16.2831723 87.6972511,15.8572043 C86.107517,15.4312364 84.4112909,15.8857388 83.2475248,17.0495049 L77.049505,23.2475247 C70.7429169,18.1842734 63.1196665,15.0305357 55.0792079,14.1584158 L55.0792079,9.20792075 L62.8712871,9.20792075 C65.4139843,9.20792075 67.4752475,7.14665747 67.4752475,4.60396035 C67.4752475,2.06126323 65.4139843,-4.9999997e-08 62.8712871,-4.9999997e-08 L38.1188119,-4.9999997e-08 C35.5761148,-4.9999997e-08 33.5148515,2.06126323 33.5148515,4.60396035 C33.5148515,7.14665747 35.5761148,9.20792075 38.1188119,9.20792075 L45.9108911,9.20792075 L45.9108911,14.1584158 C26.5590364,16.2305419 11.0761065,31.1618543 8.30361188,50.425843 C5.5311173,69.6898317 16.1750128,88.3813458 34.1571133,95.8266161 C52.1392137,103.271886 72.8807728,97.5751387 84.5373455,81.9894946 C96.1939181,66.4038505 95.7974144,44.8978515 83.5742575,29.7524752 Z M74.4059406,45.5445545 L50.6435644,59.019802 L32.4257426,52.1386139 C31.2940888,51.6530279 30.743337,50.3642304 31.174563,49.2107669 C31.6057891,48.0573034 32.8669402,47.4458917 34.0396039,47.8217822 L50.2772277,53.9207921 L72.1386139,41.5049505 C72.8499705,40.9438678 73.8238957,40.8511166 74.6283731,41.2678397 C75.4328505,41.6845627 75.9189246,42.5336005 75.8709813,43.4383344 C75.8230381,44.3430683 75.2499545,45.1359796 74.4059406,45.4653465 L74.4059406,45.5445545 Z" id="stopwatch" fill="#000000"></path>
    </g>
</svg>