<svg width="100" height="100" viewBox="0 0 100 100" fill="none" xmlns="http://www.w3.org/2000/svg">
<g clip-path="url(#clip0)">
<path d="M5.88235 31.9412C5.88235 30.3168 4.56554 29 2.94118 29C1.31681 29 0 30.3168 0 31.9412V31.2824L12.6471 4.38824C13.9178 1.71748 16.6071 0.0115648 19.5647 0H80.4353C83.3929 0.0115648 86.0822 1.71748 87.3529 4.38824L100 31.2824V31.9412C100 30.3168 98.6832 29 97.0588 29C95.4345 29 94.1176 30.3168 94.1176 31.9412C94.1176 33.5655 92.8008 34.8824 91.1765 34.8824C89.5521 34.8824 88.2353 33.5655 88.2353 31.9412C88.2353 30.3168 86.9185 29 85.2941 29C83.6698 29 82.3529 30.3168 82.3529 31.9412C82.3529 33.5655 81.0361 34.8824 79.4118 34.8824C77.7874 34.8824 76.4706 33.5655 76.4706 31.9412C76.4706 30.3168 75.1538 29 73.5294 29C71.905 29 70.5882 30.3168 70.5882 31.9412C70.5882 33.5655 69.2714 34.8824 67.6471 34.8824C66.0227 34.8824 64.7059 33.5655 64.7059 31.9412C64.7059 30.3168 63.3891 29 61.7647 29C60.1403 29 58.8235 30.3168 58.8235 31.9412C58.8235 33.5655 57.5067 34.8824 55.8824 34.8824C54.258 34.8824 52.9412 33.5655 52.9412 31.9412C52.9412 30.3168 51.6244 29 50 29C48.3756 29 47.0588 30.3168 47.0588 31.9412C47.0588 33.5655 45.742 34.8824 44.1176 34.8824C42.4933 34.8824 41.1765 33.5655 41.1765 31.9412C41.1765 30.3168 39.8597 29 38.2353 29C36.6109 29 35.2941 30.3168 35.2941 31.9412C35.2941 33.5655 33.9773 34.8824 32.3529 34.8824C30.7286 34.8824 29.4118 33.5655 29.4118 31.9412C29.4118 30.3168 28.095 29 26.4706 29C24.8462 29 23.5294 30.3168 23.5294 31.9412C23.5294 33.5655 22.2126 34.8824 20.5882 34.8824C18.9639 34.8824 17.6471 33.5655 17.6471 31.9412C17.6471 30.3168 16.3302 29 14.7059 29C13.0815 29 11.7647 30.3168 11.7647 31.9412C11.7647 33.5655 10.4479 34.8824 8.82353 34.8824C7.19916 34.8824 5.88235 33.5655 5.88235 31.9412Z" fill="black"/>
<path d="M100 40.2471C98.9161 39.8572 97.9175 39.262 97.0588 38.4941C93.7219 41.5225 88.631 41.5225 85.2941 38.4941C81.9572 41.5225 76.8663 41.5225 73.5294 38.4941C70.1925 41.5225 65.1016 41.5225 61.7647 38.4941C58.4278 41.5225 53.3369 41.5225 50 38.4941C46.6631 41.5225 41.5722 41.5225 38.2353 38.4941C34.8984 41.5225 29.8075 41.5225 26.4706 38.4941C23.1337 41.5225 18.0428 41.5225 14.7059 38.4941C11.369 41.5225 6.27809 41.5225 2.94118 38.4941C2.08251 39.262 1.08391 39.8572 0 40.2471V72.5294H100V40.2471Z" fill="black"/>
<path d="M0 78.4121V94.7062C0.00646996 97.6274 2.37294 99.9939 5.29412 100H94.7059C97.6271 99.9939 99.9935 97.6274 100 94.7062V78.4121H0Z" fill="black"/>
</g>
<defs>
<clipPath id="clip0">
<rect width="100" height="100" fill="white"/>
</clipPath>
</defs>
</svg>
