<svg width="100" height="100" viewBox="0 0 100 100" fill="none" xmlns="http://www.w3.org/2000/svg">
<path d="M100 31.8824V31.5529V31.2941C100 31.2118 100 31.1294 99.9176 31.0471C99.8893 30.9428 99.8539 30.8406 99.8116 30.7412V30.6824L87.341 4.38824C86.069 1.71748 83.3773 0.0115648 80.4169 0H19.4889C16.5285 0.0115648 13.8367 1.71748 12.5648 4.38824L0.188413 30.6824V30.7412C0.146099 30.8406 0.110688 30.9428 0.0824305 31.0471C0.0824305 31.1294 0.0824305 31.2118 0 31.2941V31.5529V31.8824V94.7059C0.00582786 97.5908 2.31782 99.9424 5.2049 100H94.7009C97.6248 99.9935 99.9935 97.6271 100 94.7059V31.8824ZM5.79369 40.2471C6.73771 40.5882 7.73376 40.7633 8.73763 40.7647C10.9134 40.7593 13.0104 39.9506 14.6255 38.4941C17.9656 41.5225 23.0613 41.5225 26.4013 38.4941C29.7414 41.5225 34.8371 41.5225 38.1771 38.4941C41.5172 41.5225 46.6128 41.5225 49.9529 38.4941C53.2929 41.5225 58.3886 41.5225 61.7287 38.4941C65.0687 41.5225 70.1644 41.5225 73.5045 38.4941C76.8445 41.5225 81.9402 41.5225 85.2803 38.4941C86.8954 39.9506 88.9924 40.7593 91.1682 40.7647C92.172 40.7633 93.1681 40.5882 94.1121 40.2471V72.5294H5.79369V40.2471ZM17.8992 6.89412C18.1897 6.27897 18.8081 5.88535 19.4889 5.88235H80.4169C81.0977 5.88535 81.7161 6.27897 82.0066 6.89412L94.1121 32.4824C93.9625 34.1067 92.5232 35.3024 90.8973 35.1529C89.2714 35.0035 88.0746 33.5655 88.2242 31.9412C88.2242 30.3168 86.9062 29 85.2803 29C83.6544 29 82.3363 30.3168 82.3363 31.9412C82.3363 33.5655 81.0183 34.8824 79.3924 34.8824C77.7665 34.8824 76.4484 33.5655 76.4484 31.9412C76.4484 30.3168 75.1304 29 73.5045 29C71.8786 29 70.5605 30.3168 70.5605 31.9412C70.5605 33.5655 69.2425 34.8824 67.6166 34.8824C65.9907 34.8824 64.6726 33.5655 64.6726 31.9412C64.6726 30.3168 63.3546 29 61.7287 29C60.1028 29 58.7847 30.3168 58.7847 31.9412C58.7847 33.5655 57.4667 34.8824 55.8408 34.8824C54.2149 34.8824 52.8968 33.5655 52.8968 31.9412C52.8968 30.3168 51.5788 29 49.9529 29C48.327 29 47.0089 30.3168 47.0089 31.9412C47.0089 33.5655 45.6909 34.8824 44.065 34.8824C42.4391 34.8824 41.1211 33.5655 41.1211 31.9412C41.1211 30.3168 39.803 29 38.1771 29C36.5512 29 35.2332 30.3168 35.2332 31.9412C35.2332 33.5655 33.9151 34.8824 32.2892 34.8824C30.6633 34.8824 29.3453 33.5655 29.3453 31.9412C29.3453 30.3168 28.0272 29 26.4013 29C24.7754 29 23.4574 30.3168 23.4574 31.9412C23.4574 33.5655 22.1393 34.8824 20.5134 34.8824C18.8875 34.8824 17.5695 33.5655 17.5695 31.9412C17.5695 30.3168 16.2514 29 14.6255 29C12.9996 29 11.6816 30.3168 11.6816 31.9412C11.6598 33.4436 10.5079 34.6881 9.01035 34.8271C7.51276 34.9662 6.15109 33.9551 5.85257 32.4824L17.8992 6.89412ZM5.79369 94.1176V78.4118H94.1121V94.1176H5.79369Z" fill="black"/>
</svg>
