<?xml version="1.0" encoding="UTF-8"?>
<svg width="100px" height="100px" viewBox="0 0 100 100" version="1.1" xmlns="http://www.w3.org/2000/svg" xmlns:xlink="http://www.w3.org/1999/xlink">
    <!-- Generator: Sketch 57.1 (83088) - https://sketch.com -->
    <title>bold/store-bold</title>
    <desc>Created with Sketch.</desc>
    <g id="bold/store" stroke="none" stroke-width="1" fill="none" fill-rule="evenodd">
        <path d="M99.009901,32.6435643 C99.019664,32.4753891 99.019664,32.3067891 99.009901,32.1386138 C99.009901,32.009901 99.009901,31.8712871 98.9504951,31.7425742 C98.925958,31.6128922 98.8860736,31.4865913 98.8316832,31.3663366 C98.7821783,31.1980198 98.7326733,31.0396039 98.6732674,30.8910891 C98.6706853,30.8647496 98.6706853,30.8382207 98.6732674,30.8118812 L86.7524753,5.66336629 C85.2598226,2.51373917 82.0893732,0.50283443 78.6039604,0.495049455 L20.4059406,0.495049455 C16.9205278,0.50283443 13.7500783,2.51373917 12.2574257,5.66336629 L0.376237574,30.8118812 C0.3788196,30.8382207 0.3788196,30.8647496 0.376237574,30.8910891 C0.316831633,31.0396039 0.267326683,31.1980198 0.217821732,31.3663366 C0.163431381,31.4865913 0.123546909,31.6128922 0.0990098511,31.7425742 C0.0990098511,31.8712871 0.0990098511,32.009901 0.0396039104,32.1386138 C0.0298409803,32.3067891 0.0298409803,32.4753891 0.0396039104,32.6435643 C0.0396039104,32.6435643 0.0396039104,32.7029703 0.0396039104,32.7227723 L0.0396039104,92.7524753 C0.0449388168,96.4641235 3.04092261,99.4777827 6.7524752,99.5049505 L92.2574258,99.5049505 C95.9844539,99.4994977 99.0044482,96.4795034 99.009901,92.7524753 L99.009901,32.7227723 C99.009901,32.7227723 99.009901,32.6732673 99.009901,32.6435643 Z M8.99999996,42.7821782 C9.374261,42.8305308 9.75134768,42.8536853 10.1287128,42.8514851 C12.1318601,42.8520481 14.0897449,42.2557205 15.7524752,41.1386139 C19.1538987,43.4222784 23.5985765,43.4222784 27,41.1386139 C30.4053226,43.4213156 34.8521032,43.4213156 38.2574257,41.1386139 C41.6588492,43.4222784 46.103527,43.4222784 49.5049505,41.1386139 C52.906374,43.4222784 57.3510518,43.4222784 60.7524753,41.1386139 C64.1577978,43.4213156 68.6045784,43.4213156 72.009901,41.1386139 C75.4113245,43.4222784 79.8560023,43.4222784 83.2574258,41.1386139 C84.9201561,42.2557205 86.8780409,42.8520481 88.8811882,42.8514851 C89.2585533,42.8536853 89.63564,42.8305308 90.009901,42.7821782 L90.009901,69.8613862 L8.99999996,69.8613862 L8.99999996,42.7821782 Z M20.4059406,9.49504946 L78.6039604,9.49504946 L89.8118812,33.3168317 C89.6156893,33.6447237 89.2632691,33.8471778 88.8811882,33.8514851 C88.2616873,33.8460507 87.7623524,33.342297 87.7623763,32.7227723 C87.6496157,30.3194903 85.6683021,28.4289591 83.2623763,28.4289591 C80.8564505,28.4289591 78.8751368,30.3194903 78.7623763,32.7227723 C78.7623763,33.3461432 78.2570343,33.8514851 77.6336634,33.8514851 C77.0102925,33.8514851 76.5049505,33.3461432 76.5049505,32.7227723 C76.39219,30.3194903 74.4108763,28.4289591 72.0049505,28.4289591 C69.5990247,28.4289591 67.6177111,30.3194903 67.5049505,32.7227723 C67.5450435,33.1494386 67.3400523,33.5620074 66.9757925,33.7877648 C66.6115326,34.0135221 66.1508436,34.0135221 65.7865838,33.7877648 C65.422324,33.5620074 65.2173328,33.1494386 65.2574258,32.7227723 C65.1446652,30.3194903 63.1633515,28.4289591 60.7574258,28.4289591 C58.3515,28.4289591 56.3701863,30.3194903 56.2574257,32.7227723 C56.2975187,33.1494386 56.0925275,33.5620074 55.7282677,33.7877648 C55.3640079,34.0135221 54.9033189,34.0135221 54.539059,33.7877648 C54.1747992,33.5620074 53.969808,33.1494386 54.009901,32.7227723 C54.009901,30.2347568 51.992966,28.2178218 49.5049505,28.2178218 C47.016935,28.2178218 45,30.2347568 45,32.7227723 C45.040093,33.1494386 44.8351018,33.5620074 44.470842,33.7877648 C44.1065821,34.0135221 43.6458931,34.0135221 43.2816333,33.7877648 C42.9173735,33.5620074 42.7123823,33.1494386 42.7524752,32.7227723 C42.6397147,30.3194903 40.658401,28.4289591 38.2524752,28.4289591 C35.8465494,28.4289591 33.8652358,30.3194903 33.7524752,32.7227723 C33.7925682,33.1494386 33.587577,33.5620074 33.2233172,33.7877648 C32.8590574,34.0135221 32.3983684,34.0135221 32.0341085,33.7877648 C31.6698487,33.5620074 31.4648575,33.1494386 31.5049505,32.7227723 C31.3921899,30.3194903 29.4108763,28.4289591 27.0049505,28.4289591 C24.5990247,28.4289591 22.617711,30.3194903 22.5049505,32.7227723 C22.5049505,33.3461432 21.9996085,33.8514851 21.3762376,33.8514851 C20.7528667,33.8514851 20.2475247,33.3461432 20.2475247,32.7227723 C20.1347642,30.3194903 18.1534505,28.4289591 15.7475247,28.4289591 C13.3415989,28.4289591 11.3602853,30.3194903 11.2475247,32.7227723 C11.2475485,33.342297 10.7482137,33.8460507 10.1287128,33.8514851 C9.74663185,33.8471778 9.3942117,33.6447237 9.19801976,33.3168317 L20.4059406,9.49504946 Z M8.99999996,90.5049505 L8.99999996,78.8613862 L90.009901,78.8613862 L90.009901,90.5049505 L8.99999996,90.5049505 Z" id="store" fill="#000000"></path>
    </g>
</svg>