<?xml version="1.0" encoding="UTF-8"?>
<svg width="100px" height="100px" viewBox="0 0 100 100" version="1.1" xmlns="http://www.w3.org/2000/svg" xmlns:xlink="http://www.w3.org/1999/xlink">
    <!-- Generator: Sketch 57.1 (83088) - https://sketch.com -->
    <title>regular/store-regular</title>
    <desc>Created with Sketch.</desc>
    <g id="regular/store" stroke="none" stroke-width="1" fill="none" fill-rule="evenodd">
        <path d="M100,31.68 L100,31.41 L100,31.2 L99.94,31 L99.85,30.75 C99.85,30.75 99.85,30.75 99.85,30.75 L87.26,4.09999995 C86.0732886,1.60101837 83.5564338,0.00610268942 80.79,-4.9999997e-08 L19.21,-4.9999997e-08 C16.4435662,0.00610268942 13.9267114,1.60101837 12.74,4.09999995 L0.22999995,30.71 C0.22999995,30.71 0.22999995,30.71 0.22999995,30.71 L0.11999995,31 L0.05999995,31.2 L0.05999995,31.41 L0.05999995,31.68 L0.05999995,95.24 C0.0651775672,97.8434077 2.15686738,99.9618 4.75999995,100 L95.24,100 C97.8665936,99.9944993 99.9944993,97.8665936 100,95.24 L100,31.68 Z M14.29,37.54 C15.8498724,39.1518537 17.9969497,40.061884 20.24,40.061884 C22.4830502,40.061884 24.6301276,39.1518537 26.19,37.54 C27.753004,39.1498552 29.9012051,40.0583069 32.145,40.0583069 C34.3887949,40.0583069 36.536996,39.1498552 38.1,37.54 C39.6598724,39.1518537 41.8069498,40.061884 44.05,40.061884 C46.2930502,40.061884 48.4401276,39.1518537 50,37.54 C51.5598724,39.1518537 53.7069498,40.061884 55.95,40.061884 C58.1930502,40.061884 60.3401276,39.1518537 61.9,37.54 C63.463004,39.1498552 65.6112051,40.0583069 67.855,40.0583069 C70.0987949,40.0583069 72.246996,39.1498552 73.81,37.54 C75.3698724,39.1518537 77.5169498,40.061884 79.76,40.061884 C82.0030503,40.061884 84.1501276,39.1518537 85.71,37.54 C87.2855722,39.1588079 89.4510406,40.0683047 91.71,40.06 C92.9464506,40.0579765 94.1665945,39.7777194 95.28,39.24 L95.28,73.4 L4.75999995,73.4 L4.75999995,39.24 C5.8734055,39.7777194 7.09354942,40.0579765 8.32999996,40.06 C10.5750842,40.0574863 12.7241013,39.1488415 14.29,37.54 Z M17.05,6.12999996 C17.446392,5.29573974 18.2863616,4.76298128 19.21,4.75999995 L80.79,4.75999995 C81.7316634,4.74348537 82.5959522,5.2792662 83,6.12999996 L95.24,32.13 C94.9976606,33.9867694 93.3583549,35.3384164 91.489433,35.2224325 C89.6205111,35.1064486 88.1609047,33.5624856 88.15,31.69 C88.0685418,30.4326628 87.0249731,29.4545154 85.765,29.4545154 C84.5050269,29.4545154 83.4614583,30.4326628 83.38,31.69 C83.38,33.6616565 81.7816566,35.26 79.81,35.26 C77.8383435,35.26 76.24,33.6616565 76.24,31.69 C76.24,30.3755623 75.1744377,29.31 73.86,29.31 C72.5455623,29.31 71.48,30.3755623 71.48,31.69 C71.48,33.6616565 69.8816566,35.26 67.91,35.26 C65.9383435,35.26 64.34,33.6616565 64.34,31.69 C64.2585418,30.4326628 63.2149731,29.4545154 61.955,29.4545154 C60.6950269,29.4545154 59.6514583,30.4326628 59.57,31.69 C59.5699999,33.6616565 57.9716565,35.26 56,35.26 C54.0283435,35.26 52.4300001,33.6616565 52.43,31.69 C52.43,30.3755623 51.3644377,29.31 50.05,29.31 C48.7355623,29.31 47.67,30.3755623 47.67,31.69 C47.67,33.6616565 46.0716566,35.26 44.1,35.26 C42.1283434,35.26 40.53,33.6616565 40.53,31.69 C40.4485417,30.4326628 39.4049731,29.4545154 38.145,29.4545154 C36.8850269,29.4545154 35.8414582,30.4326628 35.76,31.69 C35.76,33.6616565 34.1616565,35.26 32.19,35.26 C30.2183434,35.26 28.62,33.6616565 28.62,31.69 C28.62,30.3755623 27.5544377,29.31 26.24,29.31 C24.9255623,29.31 23.86,30.3755623 23.86,31.69 C23.86,33.6616565 22.2616565,35.26 20.29,35.26 C18.3183434,35.26 16.72,33.6616565 16.72,31.69 C16.6385417,30.4326628 15.5949731,29.4545154 14.335,29.4545154 C13.0750269,29.4545154 12.0314582,30.4326628 11.95,31.69 C11.9390953,33.5624856 10.4794889,35.1064486 8.610567,35.2224325 C6.74164512,35.3384164 5.10233937,33.9867694 4.85999995,32.13 L17.05,6.12999996 Z M4.75999995,95.24 L4.75999995,78.16 L95.24,78.16 L95.24,95.24 L4.75999995,95.24 Z" id="store" fill="#000000"></path>
    </g>
</svg>