<?xml version="1.0" encoding="UTF-8"?>
<svg width="100px" height="100px" viewBox="0 0 100 100" version="1.1" xmlns="http://www.w3.org/2000/svg" xmlns:xlink="http://www.w3.org/1999/xlink">
    <!-- Generator: Sketch 57.1 (83088) - https://sketch.com -->
    <title>solid/superior-or-equal-solid</title>
    <desc>Created with Sketch.</desc>
    <g id="solid/superior-or-equal" stroke="none" stroke-width="1" fill="none" fill-rule="evenodd">
        <path d="M67.5445545,50.0891089 C70.8026803,47.0856426 75.8506454,47.1893221 78.9827,50.3240355 C82.1147546,53.4587488 82.2141507,58.5068001 79.2079208,61.7623762 L44.3861386,96.5940595 C42.8413655,98.1435713 40.7424456,99.013073 38.5544554,99.0100513 C35.2100958,99.0241542 32.1873916,97.0197201 30.899086,93.9334257 C29.6107804,90.8471312 30.3113116,87.2885146 32.6732673,84.9207921 L67.5445545,50.0891089 Z M31.9108911,2.41584154 L66.7227723,37.2376237 C68.3244043,38.8334848 69.2246785,41.0014035 69.2246785,43.2623762 C69.2246785,45.5233489 68.3244043,47.6912677 66.7227723,49.2871287 L31.9108911,84.1584159 C28.6866807,87.3801449 23.4618341,87.3801449 20.2376237,84.1584159 C17.0213445,80.9319512 17.0213445,75.7116132 20.2376237,72.4851485 L49.4158416,43.2673267 L20.2376237,14.0891089 C17.1649378,10.8409725 17.2357578,5.7372325 20.3973862,2.57560404 C23.5590147,-0.586024424 28.6627547,-0.656844411 31.9108911,2.41584154 Z" id="Shape" fill="#000000"></path>
    </g>
</svg>