<?xml version="1.0" encoding="UTF-8"?>
<svg width="100px" height="100px" viewBox="0 0 100 100" version="1.1" xmlns="http://www.w3.org/2000/svg" xmlns:xlink="http://www.w3.org/1999/xlink">
    <!-- Generator: Sketch 57.1 (83088) - https://sketch.com -->
    <title>bold/superior-or-equal-bold</title>
    <desc>Created with Sketch.</desc>
    <g id="bold/superior-or-equal" stroke="none" stroke-width="1" fill="none" fill-rule="evenodd">
        <path d="M70.88,50.82 C72.6738163,49.1579439 75.4605678,49.211049 77.1897594,50.9402407 C78.918951,52.6694323 78.9720561,55.4561838 77.31,57.25 L35.89,98.67 C35.0368717,99.5248412 33.8777119,100.003625 32.67,100.000041 C30.8415125,99.9781643 29.2037546,98.8638091 28.5122293,97.1709901 C27.820704,95.4781711 28.2097897,93.5358399 29.5,92.24 L70.88,50.82 Z M28.26,1.32999995 L69.69,42.76 C71.579246,44.6564425 71.579246,47.7235575 69.69,49.62 L28.26,91 C26.4836501,92.7737734 23.6063498,92.7737734 21.83,91 C20.0617153,89.2213826 20.0617153,86.3486175 21.83,84.57 L60.26,46.19 L21.83,7.75999996 C20.1679439,5.96618373 20.221049,3.17943221 21.9502406,1.4502406 C23.6794322,-0.278951001 26.4661837,-0.332056168 28.26,1.32999995 Z" id="Shape" fill="#000000"></path>
    </g>
</svg>