<svg width="100" height="100" viewBox="0 0 100 100" fill="none" xmlns="http://www.w3.org/2000/svg">
<g clip-path="url(#clip0)">
<path d="M18.3361 80.7376C19.627 83.8531 22.6685 85.8834 26.0409 85.8808C28.2771 85.8826 30.4203 84.9856 31.9885 83.3913L66.3617 49.0181C69.7081 45.6571 69.7081 40.2234 66.3617 36.8624L31.9364 2.43713C28.6804 -0.818886 23.4014 -0.818886 20.1453 2.43713C16.8893 5.69314 16.8893 10.9722 20.1453 14.2282L48.8626 42.935L20.1453 71.6523C17.7594 74.0356 17.0452 77.6221 18.3361 80.7376Z" fill="black"/>
<path d="M32.4584 94.8467C33.7466 97.9613 36.7843 99.9931 40.1547 99.9949C42.3835 100.01 44.5255 99.1325 46.1023 97.5573L80.4756 63.132C83.7316 59.8645 83.7223 54.5761 80.4548 51.3201C77.1872 48.0641 71.8989 48.0734 68.6429 51.341L34.2696 85.7663C31.885 88.1482 31.1701 91.7322 32.4584 94.8467Z" fill="black"/>
</g>
<defs>
<clipPath id="clip0">
<rect width="100" height="100" fill="white"/>
</clipPath>
</defs>
</svg>
