<svg width="100" height="100" viewBox="0 0 100 100" fill="none" xmlns="http://www.w3.org/2000/svg">
<g clip-path="url(#clip0)">
<path d="M20.8203 87.8224C21.2753 88.9177 22.3438 89.6325 23.5299 89.6351C24.3107 89.6378 25.0603 89.3286 25.6122 88.7763L67.271 47.1292C67.886 46.5195 68.232 45.6894 68.232 44.8233C68.232 43.9573 67.886 43.1272 67.271 42.5175L25.6122 0.858633C24.4622 -0.291419 22.5976 -0.291419 21.4475 0.858633C20.2974 2.00868 20.2974 3.87329 21.4475 5.02334L61.2475 44.8233L21.4475 84.6233C20.6125 85.4657 20.3652 86.7271 20.8203 87.8224Z" fill="black"/>
<path d="M31.1715 98.1854C31.6277 99.2858 32.7026 100.002 33.8938 100C34.6716 100.005 35.4183 99.6954 35.9644 99.1415L77.682 57.4827C78.7984 56.3302 78.7851 54.4957 77.6521 53.3595C76.5192 52.2234 74.6847 52.2049 73.5291 53.318L31.8114 94.9768C30.968 95.8181 30.7154 97.085 31.1715 98.1854Z" fill="black"/>
</g>
<defs>
<clipPath id="clip0">
<rect width="100" height="100" fill="white"/>
</clipPath>
</defs>
</svg>
