<svg width="100" height="100" viewBox="0 0 100 100" fill="none" xmlns="http://www.w3.org/2000/svg">
<g clip-path="url(#clip0)">
<path d="M97.108 42.3857C97.8901 42.3857 98.6399 42.6969 99.1922 43.2505C100.265 44.3814 100.27 46.1522 99.204 47.2894L92.4333 54.06C91.7493 54.7428 90.8211 55.1242 89.8546 55.1198H89.0304L88.7242 55.0374C88.1839 54.863 87.692 54.5645 87.2877 54.166L80.517 47.3953C79.4029 46.2387 79.4214 44.4026 80.5586 43.2687C81.6957 42.1347 83.5319 42.1214 84.6854 43.2388L86.746 45.2994C85.0467 27.6308 71.0096 13.6751 53.3314 12.0787C35.6532 10.4824 19.343 21.6977 14.5061 38.776C14.0671 40.3433 12.4407 41.2579 10.8735 40.819C9.30621 40.38 8.39154 38.7536 8.83051 37.1864C14.4578 17.2007 33.6236 4.14142 54.2825 6.21601C74.9414 8.2906 91.1278 24.9 92.6688 45.6055L95.0239 43.2505C95.5761 42.6969 96.326 42.3857 97.108 42.3857Z" fill="black"/>
<path d="M85.5333 61.6554C85.9734 60.0923 87.5961 59.1808 89.16 59.6183C90.7259 60.0688 91.6318 61.7015 91.1853 63.2686C85.558 83.2542 66.3922 96.3135 45.7333 94.2389C25.0744 92.1643 8.88801 75.5549 7.34695 54.8494L4.99194 57.2044C3.83847 58.3218 2.00232 58.3084 0.865155 57.1745C-0.272005 56.0406 -0.290505 54.2044 0.823577 53.0478L7.58245 46.2772C8.33642 45.5262 9.38379 45.1469 10.4438 45.241H10.5615L10.7028 45.3234H10.9972L11.3034 45.4058C11.8431 45.5756 12.3352 45.8701 12.7399 46.2654L19.5106 53.0478C20.2747 53.788 20.58 54.8829 20.3091 55.9117C20.0383 56.9405 19.2334 57.7431 18.2038 58.0111C17.1743 58.279 16.0802 57.9706 15.3422 57.2044L13.2816 55.1438C14.9711 72.8242 29.0155 86.7931 46.7048 88.3873C64.3941 89.9816 80.7098 78.7488 85.5333 61.6554Z" fill="black"/>
</g>
<defs>
<clipPath id="clip0">
<rect width="100" height="100" fill="white"/>
</clipPath>
</defs>
</svg>
