<svg width="100" height="100" viewBox="0 0 100 100" fill="none" xmlns="http://www.w3.org/2000/svg">
<g clip-path="url(#clip0)">
<path d="M97.5813 39.6283C96.1108 38.1604 94.1452 37.2947 92.0696 37.2007C87.4043 19.9723 72.7081 7.32827 54.9763 5.28715C37.2446 3.24604 20.0598 12.2202 11.6021 27.938C10.4145 30.1053 10.258 32.6901 11.1755 34.9848C12.093 37.2796 13.9884 39.044 16.3428 39.7951C15.8196 39.7047 15.2901 39.6559 14.7591 39.6492C12.3817 39.644 10.1009 40.5894 8.42426 42.2748L2.43322 48.2971C0.104371 50.6326 -0.628359 54.1216 0.564228 57.1967C1.75681 60.2717 4.65041 62.3543 7.94497 62.5089C12.629 79.7279 27.3343 92.3536 45.0638 94.3784C62.7933 96.4032 79.9667 87.4182 88.4124 71.6986C90.5677 67.6519 89.0501 62.6243 85.0158 60.4459C84.5832 60.2206 84.1338 60.029 83.6717 59.8728C83.9113 59.8728 84.1614 59.9562 84.4115 59.977H84.8699H85.2554C87.6301 59.9792 89.9086 59.0386 91.5903 57.3618L97.5813 51.3708C100.806 48.1209 100.806 42.8782 97.5813 39.6283ZM73.7318 63.8321C68.8209 72.9791 59.0884 78.4874 48.7185 77.9889C38.3486 77.4904 29.1892 71.074 25.1783 61.4982C25.8772 61.1176 26.519 60.6406 27.085 60.0812C30.3376 56.8265 30.3376 51.5518 27.085 48.2971L21.094 42.3061C20.1012 41.3112 18.8874 40.5651 17.5515 40.1285C21.0779 40.7312 24.5958 39.0163 26.2932 35.867C31.2059 26.7208 40.9398 21.2144 51.3098 21.7151C61.6798 22.2158 70.8379 28.6344 74.8466 38.2113C74.1419 38.5876 73.496 39.065 72.9295 39.6283C69.6769 42.8831 69.6769 48.1577 72.9295 51.4125L78.9205 57.4035C79.8924 58.3569 81.0733 59.0704 82.3693 59.4873H82.5047C78.9484 58.8848 75.408 60.6382 73.7318 63.8321Z" fill="black"/>
</g>
<defs>
<clipPath id="clip0">
<rect width="100" height="100" fill="white"/>
</clipPath>
</defs>
</svg>
