<?xml version="1.0" encoding="UTF-8"?>
<svg width="100px" height="100px" viewBox="0 0 100 100" version="1.1" xmlns="http://www.w3.org/2000/svg" xmlns:xlink="http://www.w3.org/1999/xlink">
    <!-- Generator: Sketch 57.1 (83088) - https://sketch.com -->
    <title>bold/sync-bold</title>
    <desc>Created with Sketch.</desc>
    <g id="bold/sync" stroke="none" stroke-width="1" fill="none" fill-rule="evenodd">
        <path d="M11.6381829,43.9085639 L11.9,43.92 L12.3,43.92 L12.76,44 L13.26,44.09 C13.465122,44.160465 13.6655306,44.2439686 13.86,44.34 L14.1182004,44.4718557 C14.5416261,44.7038041 14.9296849,44.9961114 15.27,45.34 L21.8,51.87 C23.0951289,53.1710227 23.4815564,55.1228915 22.779843,56.8192456 C22.0781295,58.5155997 20.4257516,59.6240967 18.59,59.63 C18.0463749,59.6253688 17.5079372,59.5237768 17,59.33 C20.504726,74.3851877 33.7474325,85.1648568 49.2005842,85.5415332 C64.6537359,85.9182097 78.4059202,75.7965514 82.64,60.93 C83.3195787,58.511204 85.8310334,57.1010289 88.25,57.78 C90.6647562,58.4639595 92.0696836,60.9740368 91.39,63.39 C85.9089801,82.8218906 67.6467183,95.8234746 47.4911492,94.643226 C27.3355801,93.4629774 10.7155927,78.4187954 7.53999996,58.48 C5.6967386,60.052062 2.94388703,59.8999066 1.28510617,58.1342799 C-0.373674692,56.3686533 -0.353916415,53.6116708 1.32999995,51.87 L7.89999996,45.41 C8.95650096,44.3604053 10.4142975,43.8173761 11.9,43.92 L11.6381829,43.9085639 Z M8.60999996,37.32 C14.0928523,17.8880959 32.3569967,4.88800633 52.512935,6.07068035 C72.6688733,7.25335437 89.2873287,22.3002226 92.46,42.24 C94.2516053,40.6475569 96.9736408,40.7264565 98.67,42.42 C100.386454,44.2021428 100.359771,47.0305574 98.61,48.78 L92.08,55.31 C91.1021326,56.2900062 89.7744265,56.8405185 88.39,56.8400007 L87.63,56.8400007 L87.18,56.75 C87.0242122,56.7158756 86.8706047,56.6724648 86.72,56.62 C86.5225383,56.5503659 86.3289301,56.4702522 86.14,56.38 L85.8815258,56.2485824 C85.4577145,56.0172037 85.0696446,55.7246777 84.73,55.38 L78.2,48.84 C76.6931366,47.3288929 76.4421014,44.9722917 77.5968234,43.1776612 C78.7515455,41.3830306 81.0002863,40.6348644 83,41.38 C79.495274,26.3248123 66.2525675,15.5451432 50.7994158,15.1684668 C35.3462641,14.7917903 21.5940798,24.9134486 17.36,39.78 C16.9205633,41.343037 15.6806368,42.552906 14.1072887,42.9538612 C12.5339407,43.3548164 10.8662001,42.885943 9.73228868,41.7238612 C8.5983773,40.5617794 8.17056325,38.883037 8.60999996,37.32 Z" id="Shape" fill="#000000"></path>
    </g>
</svg>