<?xml version="1.0" encoding="UTF-8"?>
<svg width="100px" height="100px" viewBox="0 0 100 100" version="1.1" xmlns="http://www.w3.org/2000/svg" xmlns:xlink="http://www.w3.org/1999/xlink">
    <!-- Generator: Sketch 57.1 (83088) - https://sketch.com -->
    <title>bold/terminal-bold</title>
    <desc>Created with Sketch.</desc>
    <g id="bold/terminal" stroke="none" stroke-width="1" fill="none" fill-rule="evenodd">
        <path d="M98.581812,89.1868299 C99.4341138,90.6111799 99.4341138,92.3888202 98.581812,93.8131702 C97.7295101,95.2375201 96.1630034,96.0777949 94.5049505,96 L44.6039604,96 C42.2006785,95.8872395 40.3101472,93.9059258 40.3101472,91.5 C40.3101472,89.0940743 42.2006785,87.1127606 44.6039604,87 L94.5049505,87 C96.1630034,86.9222052 97.7295101,87.76248 98.581812,89.1868299 Z M7.68316827,4.78217817 L46.6138614,43.7128713 C48.2124576,45.3083357 49.1108033,47.4741303 49.1108033,49.7326733 C49.1108033,51.9912162 48.2124576,54.1570109 46.6138614,55.7524753 L7.68316827,94.6831684 C6.84152954,95.5280383 5.69749258,96.0020474 4.50495045,96.0000197 C2.68523306,96.0038 1.04274536,94.9100888 0.344546481,93.2296412 C-0.353652394,91.5491935 0.0301964871,89.6135722 1.31683163,88.3267327 L39.9306931,49.7128713 L1.31683163,11.0990099 C-0.15236097,9.30250188 -0.0163319203,6.68381626 1.63109216,5.04920262 C3.27851625,3.41458899 5.89818396,3.29900628 7.68316827,4.78217817 Z" id="Shape" fill="#000000"></path>
    </g>
</svg>