<?xml version="1.0" encoding="UTF-8"?>
<svg width="100px" height="100px" viewBox="0 0 100 100" version="1.1" xmlns="http://www.w3.org/2000/svg" xmlns:xlink="http://www.w3.org/1999/xlink">
    <!-- Generator: Sketch 57.1 (83088) - https://sketch.com -->
    <title>solid/terminal-solid</title>
    <desc>Created with Sketch.</desc>
    <g id="solid/terminal" stroke="none" stroke-width="1" fill="none" fill-rule="evenodd">
        <path d="M45.47,79.83 L91.67,79.83 C96.1609756,79.9855798 99.7212528,83.6713304 99.7212528,88.165 C99.7212528,92.6586697 96.1609756,96.3444203 91.67,96.5 L45.47,96.5 C42.4233386,96.6055448 39.5618316,95.0403904 38.0072151,92.4180912 C36.4525986,89.795792 36.4525986,86.534208 38.0072151,83.9119089 C39.5618316,81.2896097 42.4233386,79.7244553 45.47,79.83 Z M14.23,4.93999995 L50.23,40.94 C54.9361137,45.6491028 54.9361137,53.2808972 50.23,57.99 L14.23,93.99 C12.6789319,95.5831774 10.5534809,96.4873947 8.32999996,96.5 C4.96567784,96.4901349 1.93673137,94.4598124 0.649277297,91.3515617 C-0.638176773,88.2433109 0.0680071768,84.6658774 2.43999995,82.28 L35.22,49.5 L2.43999995,16.73 C-0.663412855,13.4493822 -0.591884668,8.29460483 2.60136008,5.10136008 C5.79460483,1.90811533 10.9493822,1.83658715 14.23,4.93999995 Z" id="Shape" fill="#000000"></path>
    </g>
</svg>