<?xml version="1.0" encoding="UTF-8"?>
<svg width="100px" height="100px" viewBox="0 0 100 100" version="1.1" xmlns="http://www.w3.org/2000/svg" xmlns:xlink="http://www.w3.org/1999/xlink">
    <!-- Generator: Sketch 57.1 (83088) - https://sketch.com -->
    <title>bold/trash-bold</title>
    <desc>Created with Sketch.</desc>
    <g id="bold/trash" stroke="none" stroke-width="1" fill="none" fill-rule="evenodd">
        <path d="M57.34,-5.00000041e-08 C62.3105628,-5.00000041e-08 66.34,4.02943721 66.34,8.99999995 L66.34,12.12 L86.09,12.12 C88.619594,12.0237174 90.9993513,13.3183394 92.2927627,15.4943915 C93.5861741,17.6704437 93.5861741,20.3795562 92.2927627,22.5556084 C90.9993513,24.7316606 88.619594,26.0262825 86.09,25.93 L85.73,25.93 L82.05,91.56 C81.7848526,96.2934357 77.870855,99.9968145 73.13,99.9999999 L26.88,99.9999999 C22.1545997,99.9756784 18.264225,96.27807 18,91.56 L14.27,25.89 L13.91,25.89 C11.380406,25.9862825 9.00064872,24.6916606 7.70723729,22.5156084 C6.41382587,20.3395562 6.41382587,17.6304437 7.70723729,15.4543915 C9.00064872,13.2783394 11.380406,11.9837174 13.91,12.08 L33.7,12.08 L33.7,8.99999995 C33.7,4.02943721 37.7294372,-5.00000041e-08 42.7,-5.00000041e-08 L57.34,-5.00000041e-08 Z M76.62,25.91 L23.36,25.91 L27,90.91 L73,90.91 L76.62,25.91 Z M37.585,37.5932487 C39.9435149,37.5932487 41.8980275,39.3920172 42.1150905,41.7172045 L42.13,41.93 L42.13,77.32 C42.13,79.8328956 40.0928956,81.87 37.58,81.87 C35.1426959,81.8646433 33.1564479,79.9436522 33.0449377,77.5338609 L33.04,77.32 L33.04,41.93 C33.1538881,39.5026853 35.1550149,37.5932487 37.585,37.5932487 Z M50,37.38 C52.4410986,37.38 54.4332056,39.3023614 54.5450476,41.7158106 L54.55,41.93 L54.55,77.32 C54.55,79.8328956 52.5128956,81.87 50,81.87 C48.793265,81.87 47.6359547,81.3906264 46.7826641,80.5373359 C45.9862597,79.7409314 45.5155783,78.6796919 45.4563604,77.5606126 L45.45,77.32 L45.45,41.93 C45.45,39.4171044 47.4871044,37.38 50,37.38 Z M62.455,37.5932487 C64.8135149,37.5932487 66.7680275,39.3920172 66.9850905,41.7172045 L67,41.93 L67,77.32 C67,78.5319509 66.5165368,79.6938309 65.6567468,80.5479891 C64.7969568,81.4021473 63.6319246,81.8779909 62.42,81.8701957 C59.9940897,81.8486754 58.0253181,79.9317568 57.9148857,77.5328804 L57.91,77.32 L57.91,41.93 C58.0238882,39.5026853 60.025015,37.5932487 62.455,37.5932487 Z M57.25,8.99999996 L42.7,9.11999996 L42.72,12.08 L57.25,12.08 L57.25,8.99999996 Z" id="Shape" fill="#000000"></path>
    </g>
</svg>