<svg width="100" height="100" viewBox="0 0 100 100" fill="none" xmlns="http://www.w3.org/2000/svg">
<path d="M33.1416 77.2591C33.1416 78.8835 34.4584 80.2003 36.0828 80.2003C37.7071 80.2003 39.024 78.8835 39.024 77.2591V38.6121C39.024 36.9877 37.7071 35.6709 36.0828 35.6709C34.4584 35.6709 33.1416 36.9877 33.1416 38.6121V77.2591Z" fill="black"/>
<path d="M49.6355 80.2003C48.0111 80.2003 46.6943 78.8835 46.6943 77.2591V38.6121C46.6943 36.9877 48.0111 35.6709 49.6355 35.6709C51.2599 35.6709 52.5767 36.9877 52.5767 38.6121V77.2591C52.5798 78.0401 52.271 78.7901 51.7187 79.3423C51.1664 79.8946 50.4165 80.2035 49.6355 80.2003Z" fill="black"/>
<path d="M60.2588 77.2591C60.2588 78.8835 61.5756 80.2003 63.2 80.2003C63.98 80.2003 64.7281 79.8904 65.2797 79.3389C65.8313 78.7873 66.1411 78.0392 66.1411 77.2591V38.6121C66.1411 36.9877 64.8243 35.6709 63.2 35.6709C61.5756 35.6709 60.2588 36.9877 60.2588 38.6121V77.2591Z" fill="black"/>
<path fill-rule="evenodd" clip-rule="evenodd" d="M65.4708 13.2353H91.6355C93.2598 13.2353 94.5766 14.5521 94.5766 16.1765C94.5766 17.8008 93.2598 19.1176 91.6355 19.1176H86.7413L82.6237 92.6941C82.3928 96.794 79.0007 100 74.8943 100H24.3884C20.282 100 16.8899 96.794 16.659 92.6941L12.5413 19.1176H7.64723C6.02286 19.1176 4.70605 17.8008 4.70605 16.1765C4.70605 14.5521 6.02286 13.2353 7.64723 13.2353H33.8237V8.75294C33.8302 3.91692 37.7524 0 42.5884 0H56.7061C61.5421 0 65.4643 3.91692 65.4708 8.75294V13.2353ZM42.5766 5.88235C40.9893 5.88235 39.7008 7.16566 39.6943 8.75294V13.2353H59.5766V8.75294C59.5702 7.16566 58.2816 5.88235 56.6943 5.88235H42.5766ZM74.8943 94.1176C75.8786 94.1134 76.6912 93.3471 76.7531 92.3647L80.859 19.1176H18.4237L22.5296 92.3647C22.5915 93.3471 23.4041 94.1134 24.3884 94.1176H74.8943Z" fill="black"/>
</svg>
