<svg width="100" height="100" viewBox="0 0 100 100" fill="none" xmlns="http://www.w3.org/2000/svg">
<path d="M91.6349 9.11765H65.4702V8.75294C65.4638 3.91692 61.5416 0 56.7055 0H42.5879C37.7519 0 33.8297 3.91692 33.8232 8.75294V9.11765H7.64671C3.74823 9.11765 0.587891 12.278 0.587891 16.1765C0.587891 20.075 3.74823 23.2353 7.64671 23.2353H12.7644L16.6585 92.6471C16.8653 96.7655 20.2642 99.9989 24.3879 100H74.8938C79.0002 100 82.3923 96.794 82.6232 92.6941L86.5173 23.2824H91.6349C95.5334 23.2824 98.6938 20.122 98.6938 16.2235C98.6938 12.325 95.5334 9.16471 91.6349 9.16471V9.11765ZM39.0232 77.2588C39.0232 78.8832 37.7064 80.2 36.082 80.2C34.4576 80.2 33.1408 78.8832 33.1408 77.2588V38.6118C33.1408 36.9874 34.4576 35.6706 36.082 35.6706C37.7064 35.6706 39.0232 36.9874 39.0232 38.6118V77.2588ZM52.5879 77.2588C52.5879 78.8832 51.2711 80.2 49.6467 80.2C48.0223 80.2 46.7055 78.8832 46.7055 77.2588V38.6118C46.7055 36.9874 48.0223 35.6706 49.6467 35.6706C51.2711 35.6706 52.5879 36.9874 52.5879 38.6118V77.2588ZM66.1408 77.2588C66.1408 78.8832 64.824 80.2 63.1997 80.2C61.5753 80.2 60.2585 78.8832 60.2585 77.2588V38.6118C60.2585 36.9874 61.5753 35.6706 63.1997 35.6706C64.824 35.6706 66.1408 36.9874 66.1408 38.6118V77.2588Z" fill="black"/>
</svg>
