<svg width="100" height="100" viewBox="0 0 100 100" fill="none" xmlns="http://www.w3.org/2000/svg">
<path fill-rule="evenodd" clip-rule="evenodd" d="M87.0082 50.745C87.0082 54.0559 84.3229 56.7413 81.012 56.7413H62.5006C59.1877 56.7413 56.5044 54.0559 56.5044 50.745V19.019C56.4954 15.7071 59.1717 13.0158 62.4836 13.0068H62.5006H81.012C84.3229 13.0068 87.0082 15.6921 87.0082 19.003V50.745ZM43.4956 75.7453C43.4606 79.0322 40.7873 81.6785 37.4994 81.6775H19.035C15.7361 81.6955 13.0418 79.0442 13.0078 75.7453V19.003C13.0068 15.6921 15.6921 13.0068 19.003 13.0068H19.035H37.4994C40.8113 13.0068 43.4956 15.6921 43.4956 19.003V75.7453ZM87.4999 0H12.4991C5.59647 0 0 5.59547 0 12.4991V87.4999C0 94.4035 5.59647 100 12.4991 100H87.4999C94.3785 99.965 99.937 94.3785 99.937 87.4999V12.4991C99.937 5.62046 94.3785 0.0339786 87.4999 0Z" fill="black"/>
</svg>
