<?xml version="1.0" encoding="UTF-8"?>
<svg width="100px" height="100px" viewBox="0 0 100 100" version="1.1" xmlns="http://www.w3.org/2000/svg" xmlns:xlink="http://www.w3.org/1999/xlink">
    <!-- Generator: Sketch 57.1 (83088) - https://sketch.com -->
    <title>brand/trello-brand</title>
    <desc>Created with Sketch.</desc>
    <g id="brand/trello" stroke="none" stroke-width="1" fill="none" fill-rule="evenodd">
        <path d="M29.6091,40.5619 L44.3731,40.5619 L44.3731,43.1429 L37.8471,43.1429 L37.8471,60.2729 L35.1461,60.2729 L35.1461,43.1399 L29.6091,43.1399 L29.6091,40.5619 Z M48.208,47.9096 C49.078,46.1396 50.595,44.8786 53.52,45.0586 L53.52,47.5786 C50.22,47.2376 48.208,48.2396 48.208,51.4176 L48.208,60.2826 L45.688,60.2826 L45.688,45.2696 L48.208,45.2696 L48.208,47.9096 Z M57.124,51.7075 L65.495,51.7075 C65.345,48.9185 64.083,47.3265 61.506,47.3265 C58.774,47.3125 57.394,49.0825 57.124,51.6905 L57.124,51.7075 Z M61.625,44.9605 C66.245,44.9605 68.103,48.1715 68.103,52.7305 L68.103,53.8995 L57.155,53.8995 C57.517,56.4505 59.167,58.1015 62.706,58.1015 C64.263,58.0995 65.807,57.8245 67.268,57.2895 L67.268,59.6765 C66.037,60.3335 64.145,60.5725 62.613,60.5725 C57.002,60.5725 54.543,57.3335 54.543,52.7305 C54.543,48.1985 57.062,44.9605 61.625,44.9605 Z M73.75,56.1333 C73.75,57.4973 74.649,57.9643 75.762,57.9643 C76.012,57.9683 76.262,57.9583 76.512,57.9333 L76.512,60.2413 C76.077,60.3353 75.633,60.3753 75.188,60.3613 C72.727,60.3613 71.168,59.1923 71.168,56.4303 L71.168,39.0003 L73.75,39.0003 L73.75,56.1333 Z M81.5781,56.1333 C81.5781,57.4973 82.4781,57.9643 83.5901,57.9643 C83.8401,57.9683 84.0911,57.9583 84.3401,57.9333 L84.3401,60.2413 C83.9051,60.3353 83.4611,60.3753 83.0161,60.3613 C80.5551,60.3613 78.9971,59.1923 78.9971,56.4303 L78.9971,39.0003 L81.5781,39.0003 L81.5781,56.1333 Z M92.918,58.1723 C96.127,58.1723 97.48,55.5913 97.48,52.7403 C97.48,49.8903 96.116,47.3703 92.922,47.3703 C89.727,47.3703 88.309,49.8903 88.309,52.7403 L88.298,52.7403 C88.298,55.5913 89.71,58.1723 92.918,58.1723 Z M92.918,44.9703 C97.419,44.9703 100,48.2393 100,52.7403 C100,57.2413 97.389,60.5823 92.918,60.5823 C88.448,60.5823 85.778,57.2413 85.778,52.7403 C85.778,48.2393 88.418,44.9703 92.918,44.9703 Z M18.7017,50.4223 L18.7017,43.5993 C18.7017,42.8883 18.1247,42.3113 17.4127,42.3113 L13.4307,42.3113 C12.7187,42.3133 12.1427,42.8913 12.1446896,43.6033 L12.1446896,50.4223 C12.1446896,51.1343 12.7227,51.7113 13.4337,51.7113 L17.4127,51.7113 C18.1247,51.7113 18.7017,51.1343 18.7017,50.4223 Z M9.3487,55.7953 L9.3487,43.5993 C9.3487,42.8883 8.7717,42.3113 8.0607,42.3113 L4.0847,42.3113 C3.3727,42.3113 2.7957,42.8883 2.7957,43.5993 L2.7957,55.7953 C2.8037,56.5053 3.3827,57.0743 4.0917,57.0703417 L8.0607,57.0703417 C8.7667,57.0703417 9.3417,56.5023 9.3487,55.7953 Z M18.8067,39.5153 C20.2857,39.5223 21.4807,40.7233 21.4807,42.2013 L21.4807,58.3213 C21.4807,59.8003 20.2857,61.0013 18.8067,61.0093 L2.6867,61.0093 C1.2027,61.0093 -0.0003,59.8063 -0.0003,58.3213 L-0.0003,42.2013 C-0.0003,40.7183 1.2027,39.5153 2.6867,39.5153 L18.8067,39.5153 Z" id="Shape" fill="#000000"></path>
    </g>
</svg>