<svg width="100" height="100" viewBox="0 0 100 100" fill="none" xmlns="http://www.w3.org/2000/svg">
<path fill-rule="evenodd" clip-rule="evenodd" d="M31.4482 90.2552C69.1832 90.2552 89.8242 58.9912 89.8242 31.8792C89.8242 30.9912 89.8242 30.1072 89.7632 29.2272C93.7792 26.3222 97.2452 22.7272 100 18.6072C96.2562 20.2662 92.2832 21.3552 88.2162 21.8352C92.4992 19.2712 95.7042 15.2382 97.2362 10.4862C93.2092 12.8772 88.8022 14.5612 84.2082 15.4672C76.4382 7.20523 63.4412 6.80623 55.1792 14.5762C49.8512 19.5872 47.5902 27.0542 49.2442 34.1792C32.7472 33.3522 17.3782 25.5602 6.96024 12.7432C1.51424 22.1172 4.29624 34.1102 13.3122 40.1312C10.0472 40.0342 6.85324 39.1532 4.00024 37.5632V37.8222C4.00224 47.5892 10.8872 56.0012 20.4602 57.9352C17.4392 58.7592 14.2702 58.8792 11.1962 58.2872C13.8842 66.6452 21.5862 72.3702 30.3642 72.5352C23.0992 78.2442 14.1242 81.3442 4.88424 81.3352C3.25124 81.3322 1.62024 81.2332 0.000244141 81.0392C9.38224 87.0602 20.3002 90.2542 31.4482 90.2382" fill="black"/>
</svg>
