<?xml version="1.0" encoding="UTF-8"?>
<svg width="100px" height="100px" viewBox="0 0 100 100" version="1.1" xmlns="http://www.w3.org/2000/svg" xmlns:xlink="http://www.w3.org/1999/xlink">
    <!-- Generator: Sketch 57.1 (83088) - https://sketch.com -->
    <title>brand/twitter-square-brand</title>
    <desc>Created with Sketch.</desc>
    <g id="brand/twitter-square" stroke="none" stroke-width="1" fill="none" fill-rule="evenodd">
        <path d="M77.835,35.7196 C77.877,36.3356 77.877,36.9546 77.877,37.5756 C77.877,56.5546 63.429,78.4396 37.014,78.4396 L37.014,78.4286 C29.21,78.4386 21.568,76.2026 15,71.9886 C16.135,72.1236 17.276,72.1936 18.419,72.1956 C24.887,72.2016 31.169,70.0326 36.255,66.0346 C30.11,65.9196 24.719,61.9116 22.837,56.0616 C24.989,56.4766 27.208,56.3916 29.322,55.8156 C22.621,54.4616 17.802,48.5736 17.8,41.7376 L17.8,41.5546 C19.797,42.6676 22.033,43.2846 24.318,43.3526 C18.007,39.1386 16.06,30.7426 19.872,24.1806 C27.165,33.1536 37.923,38.6076 49.471,39.1866 C48.313,34.1986 49.896,28.9716 53.626,25.4636 C59.409,20.0256 68.507,20.3046 73.945,26.0876 C77.162,25.4536 80.246,24.2746 83.065,22.6016 C81.993,25.9276 79.749,28.7506 76.751,30.5456 C79.599,30.2086 82.379,29.4476 85,28.2856 C83.072,31.1696 80.646,33.6866 77.835,35.7196 M94.481,-0.0004 L5.52,-0.0004 C2.471,-0.0004 0,2.4716 0,5.5206 L0,94.4806 C0,97.5286 2.471,99.9996 5.52,99.9996 L94.481,99.9996 C97.528,99.9996 100,97.5286 100,94.4806 L100,5.5206 C100,2.4716 97.528,-0.0004 94.481,-0.0004" id="Fill-1" fill="#000000"></path>
    </g>
</svg>