<svg width="100" height="100" viewBox="0 0 100 100" fill="none" xmlns="http://www.w3.org/2000/svg">
<path fill-rule="evenodd" clip-rule="evenodd" d="M77.835 35.7195C77.877 36.3355 77.877 36.9545 77.877 37.5755C77.877 56.5545 63.429 78.4395 37.014 78.4395V78.4285C29.21 78.4385 21.568 76.2025 15 71.9885C16.135 72.1235 17.276 72.1935 18.419 72.1955C24.887 72.2015 31.169 70.0325 36.255 66.0345C30.11 65.9195 24.719 61.9115 22.837 56.0615C24.989 56.4765 27.208 56.3915 29.322 55.8155C22.621 54.4615 17.802 48.5735 17.8 41.7375V41.5545C19.797 42.6675 22.033 43.2845 24.318 43.3525C18.007 39.1385 16.06 30.7425 19.872 24.1805C27.165 33.1535 37.923 38.6075 49.471 39.1865C48.313 34.1985 49.896 28.9715 53.626 25.4635C59.409 20.0255 68.507 20.3045 73.945 26.0875C77.162 25.4535 80.246 24.2745 83.065 22.6015C81.993 25.9275 79.749 28.7505 76.751 30.5455C79.599 30.2085 82.379 29.4475 85 28.2855C83.072 31.1695 80.646 33.6865 77.835 35.7195ZM94.481 -0.000488281H5.52C2.471 -0.000488281 0 2.47151 0 5.52051V94.4805C0 97.5285 2.471 99.9995 5.52 99.9995H94.481C97.528 99.9995 100 97.5285 100 94.4805V5.52051C100 2.47151 97.528 -0.000488281 94.481 -0.000488281Z" fill="black"/>
</svg>
