<svg width="100" height="100" viewBox="0 0 100 100" fill="none" xmlns="http://www.w3.org/2000/svg">
<g clip-path="url(#clip0)">
<path d="M50 -8.06867e-05C39.4292 -0.027194 29.1255 3.31945 20.5882 9.55303L21.2471 4.51773C21.4582 2.89337 20.3126 1.40537 18.6882 1.1942C17.0639 0.983035 15.5759 2.12866 15.3647 3.75303L13.8941 14.953C13.7598 15.9441 14.0266 16.9477 14.6353 17.7413L14.8824 18.0001L15.0706 18.2471C15.5301 18.7102 16.1299 19.008 16.7765 19.0942L17.1412 19.1883L28.3412 20.6589H28.7294C29.7802 20.7262 30.787 20.2277 31.3707 19.3513C31.9543 18.475 32.0261 17.3538 31.5589 16.4102C31.0917 15.4665 30.1567 14.8438 29.1059 14.7766L24.1765 14.1295C40.6975 2.20257 63.2374 3.14162 78.7092 16.4014C94.1809 29.6612 98.559 51.7918 89.3014 69.9437C80.0438 88.0957 59.5593 97.5463 39.7414 92.8083C19.9236 88.0702 5.92865 70.3764 5.88235 50.0001C5.88235 48.3757 4.56554 47.0589 2.94118 47.0589C1.31681 47.0589 0 48.3757 0 50.0001C0 77.6143 22.3858 100 50 100C77.6142 100 100 77.6143 100 50.0001C100 22.3858 77.6142 -8.06867e-05 50 -8.06867e-05Z" fill="black"/>
</g>
<defs>
<clipPath id="clip0">
<rect width="100" height="100" fill="white"/>
</clipPath>
</defs>
</svg>
