<?xml version="1.0" encoding="UTF-8"?>
<svg width="100px" height="100px" viewBox="0 0 100 100" version="1.1" xmlns="http://www.w3.org/2000/svg" xmlns:xlink="http://www.w3.org/1999/xlink">
    <!-- Generator: Sketch 57.1 (83088) - https://sketch.com -->
    <title>bold/unlink-bold</title>
    <desc>Created with Sketch.</desc>
    <g id="bold/unlink" stroke="none" stroke-width="1" fill="none" fill-rule="evenodd">
        <path d="M7.68316827,2.30693065 L97.6930694,92.3168317 C98.9766312,93.6062517 99.3585932,95.5411828 98.6612936,97.2216315 C97.963994,98.9020803 96.3243271,99.9981396 94.5049505,100.000013 C93.3124084,100.002047 92.1683714,99.5280383 91.3267327,98.6831684 L1.31683163,8.67326729 C-0.328768483,6.89721161 -0.276189111,4.13805169 1.43588179,2.4259808 C3.14795268,0.7139099 5.9071126,0.661330528 7.68316827,2.30693065 Z M26.5445544,43.4455445 L32.9108911,49.8118812 L12.5742574,70.1485149 C8.02376611,74.9550663 8.12821722,82.5111052 12.8098313,87.1900364 C17.4134185,91.7909855 24.7964715,91.9644782 29.6090206,87.6396265 L29.8514851,87.4158416 L50.1881188,67.0891089 L56.5544555,73.4554456 L36.2178218,93.7821783 C27.8851814,101.774158 14.6916617,101.636513 6.52757459,93.4724254 C-1.54373879,85.401112 -1.76999327,72.4140218 5.94851712,64.0681141 L6.21782174,63.7821782 L26.5445544,43.4455445 Z M77.7920792,0.988420345 C83.4194072,0.988420345 88.8158097,3.22594885 92.7920793,7.20792075 C96.7740512,11.1841903 99.0115797,16.5805928 99.0115797,22.2079208 C99.0115797,27.6831588 96.8933642,32.9397851 93.1111094,36.882432 L92.7920793,37.2079208 L72.4653466,57.5445545 L66.0990099,51.1782178 L86.4356436,30.8415841 C91.1042151,26.0534183 91.0558332,18.4016603 86.3270865,13.6729135 C81.6771522,9.02297922 74.2008283,8.8986977 69.4001837,13.3348584 L69.1584159,13.5643564 L48.8217822,33.9009901 L42.4554455,27.5346534 L62.7920792,7.20792075 C66.7683488,3.22594885 72.1647513,0.988420345 77.7920792,0.988420345 Z" id="Shape" fill="#000000"></path>
    </g>
</svg>