<?xml version="1.0" encoding="UTF-8"?>
<svg width="100px" height="100px" viewBox="0 0 100 100" version="1.1" xmlns="http://www.w3.org/2000/svg" xmlns:xlink="http://www.w3.org/1999/xlink">
    <!-- Generator: Sketch 57.1 (83088) - https://sketch.com -->
    <title>solid/unlink-solid</title>
    <desc>Created with Sketch.</desc>
    <g id="solid/unlink" stroke="none" stroke-width="1" fill="none" fill-rule="evenodd">
        <path d="M14.5841584,2.41584154 L97.089109,84.9207921 C99.4446567,87.2821415 100.148321,90.8287287 98.8727237,93.9105186 C97.5971269,96.9923085 94.5927733,99.0040943 91.2574258,99.0099586 C89.066006,99.0157128 86.9630345,98.1460094 85.4158416,96.5940595 L2.91089104,14.0891089 C-0.161794906,10.8409725 -0.0909749186,5.7372325 3.07065354,2.57560404 C6.23228201,-0.586024424 11.336022,-0.656844411 14.5841584,2.41584154 Z M23.1188119,43.0495049 L34.7920792,54.7128713 L19.0693069,70.4356436 C16.3078831,73.1970673 16.3078831,77.6742198 19.0693069,80.4356436 C21.767971,83.1343077 26.1052624,83.195641 28.8784096,80.6196434 L29.0693069,80.4356436 L44.7920792,64.7128713 L56.4554456,76.3861386 L40.7425742,92.079208 C31.4291341,100.562737 17.0926123,100.228647 8.18445773,91.3204928 C-0.627910203,82.5081248 -1.04961062,68.383501 7.15513848,59.0645391 L7.42574253,58.7623762 L23.1188119,43.0495049 Z M91.9200474,7.59460818 C100.767205,16.4443958 101.144867,30.6412441 92.8478861,39.9458605 L92.5742575,40.2475247 L76.8811881,55.960396 L65.2079208,44.2970297 L80.9306931,28.5742574 C82.7170211,26.7879295 83.4146615,24.1842997 82.7608201,21.7441304 C82.1069787,19.303961 80.2009895,17.3979718 77.7608201,16.7441304 C75.4077997,16.1136404 72.9027861,16.7398218 71.1251681,18.387043 L70.9306931,18.5742574 L55.2079208,34.2970297 L43.5445544,22.6237623 L59.2673267,6.93069303 C68.5668976,-1.64436219 82.976725,-1.35137273 91.9200474,7.59460818 Z" id="Shape" fill="#000000"></path>
    </g>
</svg>