<svg width="100" height="100" viewBox="0 0 100 100" fill="none" xmlns="http://www.w3.org/2000/svg">
<g clip-path="url(#clip0)">
<path d="M54.8935 35.0632L70.663 19.2818C73.4384 16.5093 77.9349 16.5093 80.7103 19.2818C83.4814 22.0539 83.4814 26.5476 80.7103 29.3198L64.9305 45.153L76.6335 56.8054L92.4133 41.0136C98.7728 35.1231 101.401 26.2257 99.2642 17.8245C97.127 9.42326 90.5664 2.86399 82.1654 0.729187C73.7643 -1.40561 64.8686 1.22602 58.9807 7.58797L43.1905 23.3591L54.8935 35.0632Z" fill="black"/>
<path d="M44.4941 65.5909L28.6729 81.3724C25.8875 84.0616 21.4611 84.0226 18.7235 81.2847C15.9859 78.5468 15.9469 74.12 18.6359 71.3343L34.4053 55.5529L22.7024 43.8488L6.92255 59.6405C-1.77863 68.9594 -1.5299 83.4983 7.48494 92.5141C16.4998 101.53 31.0372 101.779 40.3551 93.0765L56.1453 77.2951L44.4941 65.5909Z" fill="black"/>
<path d="M85.2005 97.5785C86.7543 99.1306 88.861 100.002 91.0572 100C94.4073 100.003 97.4287 97.9855 98.7111 94.8903C99.9935 91.795 99.284 88.2318 96.9138 85.864L14.1343 3.07607C10.8998 -0.158793 5.65556 -0.158793 2.42102 3.07607C-0.813517 6.31094 -0.813517 11.5557 2.42102 14.7906L85.2005 97.5785Z" fill="black"/>
</g>
<defs>
<clipPath id="clip0">
<rect width="100" height="100" fill="white"/>
</clipPath>
</defs>
</svg>
