<?xml version="1.0" encoding="UTF-8"?>
<svg width="100px" height="100px" viewBox="0 0 100 100" version="1.1" xmlns="http://www.w3.org/2000/svg" xmlns:xlink="http://www.w3.org/1999/xlink">
    <!-- Generator: Sketch 57.1 (83088) - https://sketch.com -->
    <title>solid/unlock-solid</title>
    <desc>Created with Sketch.</desc>
    <g id="solid/unlock" stroke="none" stroke-width="1" fill="none" fill-rule="evenodd">
        <path d="M88.54,36.33 L28.24,36.33 L28.24,30.92 C28.3047661,20.4235221 35.8962867,11.4885942 46.2444977,9.72939835 C56.5927088,7.97020248 66.7103112,13.8945794 70.24,23.78 C70.7884027,25.3483959 72.1318769,26.5050842 73.764349,26.8143515 C75.3968211,27.1236188 77.0702796,26.5384801 78.154349,25.2793515 C79.2384184,24.0202229 79.5684027,22.2783959 79.02,20.71 C73.9940768,6.54175201 59.5085539,-1.96094855 44.6877718,0.557696341 C29.8669897,3.07634124 19.0034379,15.8868656 18.94,30.92 L18.94,36.33 L11.19,36.33 C8.87820793,36.3354977 7.0054977,38.208208 6.99999996,40.52 L6.99999996,95.81 C7.0054977,98.1217921 8.87820793,99.9945023 11.19,100 L88.54,100 C90.8517921,99.9945023 92.7245023,98.1217921 92.73,95.81 L92.73,40.52 C92.7245023,38.208208 90.8517921,36.3354977 88.54,36.33 Z" id="unlock" fill="#000000"></path>
    </g>
</svg>