<?xml version="1.0" encoding="UTF-8"?>
<svg width="100px" height="100px" viewBox="0 0 100 100" version="1.1" xmlns="http://www.w3.org/2000/svg" xmlns:xlink="http://www.w3.org/1999/xlink">
    <!-- Generator: Sketch 57.1 (83088) - https://sketch.com -->
    <title>bold/unlock-bold</title>
    <desc>Created with Sketch.</desc>
    <g id="bold/unlock" stroke="none" stroke-width="1" fill="none" fill-rule="evenodd">
        <path d="M87.1287129,33.8910891 L28.7128713,33.8910891 L28.7128713,30.9207921 C28.6946309,20.7084862 36.052185,11.975347 46.1193977,10.2599018 C56.1866104,8.54445658 66.0212151,14.3480654 69.3861386,23.990099 C69.9167311,25.5075935 71.2165924,26.6267485 72.7960774,26.9259892 C74.3755623,27.2252299 75.9947097,26.6590944 77.0436022,25.4408406 C78.0924947,24.2225868 78.4117807,22.5372964 77.8811881,21.019802 C73.0669482,7.23548737 59.0067603,-1.06116324 44.612953,1.38884651 C30.2191458,3.83885625 19.695599,16.3199723 19.7128713,30.9207921 L19.7128713,33.8910891 L12.2376237,33.8910891 C8.75826928,33.8965512 5.94052394,36.7186611 5.94052394,40.1980198 L5.94052394,93.6633664 C5.93269804,95.3394945 6.59232961,96.9498242 7.77382308,98.1387485 C8.95531655,99.3276727 10.5614791,99.9973873 12.2376237,100 L87.1287129,100 C90.6058195,99.9945671 93.4247478,97.1800641 93.4357136,93.7029703 L93.4357136,40.2376238 C93.4435396,38.5588698 92.7828648,36.9460217 91.5995146,35.7552406 C90.4161643,34.5644596 88.8074834,33.8937018 87.1287129,33.8910891 Z M84.3960396,91 L14.940594,91 L14.940594,42.8910891 L84.3960396,42.8910891 L84.3960396,91 Z" id="unlock" fill="#000000"></path>
    </g>
</svg>