<svg width="100" height="100" viewBox="0 0 100 100" fill="none" xmlns="http://www.w3.org/2000/svg">
<path d="M90.4274 16.6667H9.37533C4.77295 16.6667 1.04199 12.9357 1.04199 8.33333C1.04199 3.73096 4.77295 0 9.37533 0H90.4274C95.0298 0 98.7607 3.73096 98.7607 8.33333C98.7607 12.9357 95.0298 16.6667 90.4274 16.6667Z" fill="black"/>
<path d="M74.9996 57.9061C72.7924 57.9051 70.6758 57.0285 69.1142 55.4686L58.2399 44.6061V91.6667C58.2399 96.269 54.5089 100 49.9066 100C45.3042 100 41.5732 96.269 41.5732 91.6667V44.6137L30.7184 55.4686C28.612 57.575 25.5419 58.3976 22.6645 57.6266C19.7871 56.8556 17.5397 54.6082 16.7687 51.7308C15.9977 48.8534 16.8203 45.7833 18.9267 43.6769L42.3121 20.3019C44.3248 18.2855 47.0568 17.1523 49.9059 17.1523C52.7549 17.1523 55.4869 18.2855 57.4996 20.3019L80.8746 43.6769C83.258 46.0577 83.9736 49.6393 82.688 52.7531C81.4023 55.8669 78.3684 57.9003 74.9996 57.9061Z" fill="black"/>
</svg>
