<?xml version="1.0" encoding="UTF-8"?>
<svg width="100px" height="100px" viewBox="0 0 100 100" version="1.1" xmlns="http://www.w3.org/2000/svg" xmlns:xlink="http://www.w3.org/1999/xlink">
    <!-- Generator: Sketch 57.1 (83088) - https://sketch.com -->
    <title>regular/upload-regular</title>
    <desc>Created with Sketch.</desc>
    <g id="regular/upload" stroke="none" stroke-width="1" fill="none" fill-rule="evenodd">
        <path d="M49.7,19.61 C49.8612311,19.6112724 50.021968,19.6280159 50.18,19.66 C51.3662628,19.7638558 52.4796634,20.2763735 53.33,21.11 L80.05,47.83 C80.9805998,48.7605998 80.9805998,50.2694002 80.05,51.2 C79.1194002,52.1305998 77.6105998,52.1305998 76.68,51.2 L52.08,26.6 L52.08,97.6 C52.0800001,98.4502922 51.6263746,99.2359945 50.89,99.6611406 C50.1536255,100.086287 49.2463745,100.086287 48.51,99.6611406 C47.7736254,99.2359945 47.3199999,98.4502922 47.32,97.6 L47.32,26.6 L22.72,51.2 C21.7894002,52.1305997 20.2805998,52.1305997 19.35,51.1999999 C18.4194003,50.2694001 18.4194002,48.7605998 19.35,47.83 L46.07,21.11 C46.9203366,20.2763735 48.0337372,19.7638558 49.22,19.66 C49.3779546,19.6275125 49.5387409,19.61 49.7,19.61 Z M96,-4.9999997e-08 C97.3144378,-4.9999997e-08 98.38,1.06556225 98.38,2.37999995 C98.38,3.69443766 97.3144378,4.75999995 96,4.75999995 L3.37999995,4.75999995 C2.06556225,4.75999995 0.999999951,3.69443766 0.999999951,2.37999995 C0.999999951,1.06556225 2.06556225,-4.9999997e-08 3.37999995,-4.9999997e-08 L96,-4.9999997e-08 Z" id="Shape" fill="#000000"></path>
    </g>
</svg>