<svg width="100" height="100" viewBox="0 0 100 100" fill="none" xmlns="http://www.w3.org/2000/svg">
<path fill-rule="evenodd" clip-rule="evenodd" d="M100 49.2235L88.892 42.8085V47.3845H32.111L43.167 35.7035C44.108 34.9505 45.339 34.4205 46.605 34.3915C51.729 34.3915 54.771 34.3905 55.891 34.3885C56.649 36.5505 58.688 38.1125 61.112 38.1125C64.179 38.1125 66.667 35.6235 66.667 32.5555C66.667 29.4875 64.179 26.9995 61.112 26.9995C58.688 26.9995 56.649 28.5595 55.891 30.7205L46.714 30.7185C44.227 30.7185 41.621 32.0835 39.962 33.6835C40.008 33.6355 40.055 33.5845 39.96 33.6845C39.925 33.7235 28.23 46.0755 28.23 46.0755C27.291 46.8275 26.061 47.3545 24.795 47.3845H18.372C17.521 43.1415 13.773 39.9445 9.279 39.9445C4.154 39.9445 0 44.0985 0 49.2215C0 54.3455 4.154 58.4995 9.279 58.4995C13.774 58.4995 17.521 55.3005 18.373 51.0535H24.684C24.7 51.0535 24.716 51.0545 24.732 51.0535H38.69C39.954 51.0855 41.183 51.6125 42.121 52.3665C42.121 52.3665 53.812 64.7175 53.849 64.7565C53.942 64.8565 53.896 64.8045 53.85 64.7575C55.508 66.3575 58.115 67.7205 60.603 67.7205L69.445 67.7185V71.4435H80.558V60.3325H69.445V64.0525C69.445 64.0525 67.116 64.0485 60.494 64.0485C59.228 64.0195 57.995 63.4915 57.055 62.7375L45.997 51.0545H88.892V55.6375L100 49.2235Z" fill="black"/>
</svg>
