<?xml version="1.0" encoding="UTF-8"?>
<svg width="100px" height="100px" viewBox="0 0 100 100" version="1.1" xmlns="http://www.w3.org/2000/svg" xmlns:xlink="http://www.w3.org/1999/xlink">
    <!-- Generator: Sketch 57.1 (83088) - https://sketch.com -->
    <title>brand/usb-brand</title>
    <desc>Created with Sketch.</desc>
    <g id="brand/usb" stroke="none" stroke-width="1" fill="none" fill-rule="evenodd">
        <path d="M100,49.2237 L88.892,42.8087 L88.892,47.3847 L32.111,47.3847 L43.167,35.7037 C44.108,34.9507 45.339,34.4207 46.605,34.3917 C51.729,34.3917 54.771,34.3907 55.891,34.3887 C56.649,36.5507 58.688,38.1127 61.112,38.1127 C64.179,38.1127 66.667,35.6237 66.667,32.5557 C66.667,29.4877 64.179,26.9997 61.112,26.9997 C58.688,26.9997 56.649,28.5597 55.891,30.7207 L46.714,30.7187 C44.227,30.7187 41.621,32.0837 39.962,33.6837 C40.008,33.6357 40.055,33.5847 39.96,33.6847 C39.925,33.7237 28.23,46.0757 28.23,46.0757 C27.291,46.8277 26.061,47.3547 24.795,47.3847 L18.372,47.3847 C17.521,43.1417 13.773,39.9447 9.279,39.9447 C4.154,39.9447 0,44.0987 0,49.2217 C0,54.3457 4.154,58.4997 9.279,58.4997 C13.774,58.4997 17.521,55.3007 18.373,51.0537 L24.684,51.0537 C24.7,51.0537 24.716,51.0547 24.732,51.0537 L38.69,51.0537 C39.954,51.0857 41.183,51.6127 42.121,52.3667 C42.121,52.3667 53.812,64.7177 53.849,64.7567 C53.942,64.8567 53.896,64.8047 53.85,64.7577 C55.508,66.3577 58.115,67.7207 60.603,67.7207 L69.445,67.7187 L69.445,71.4437 L80.558,71.4437 L80.558,60.3327 L69.445,60.3327 L69.445,64.0527 C69.445,64.0527 67.116,64.0487 60.494,64.0487 C59.228,64.0197 57.995,63.4917 57.055,62.7377 L45.997,51.0547 L88.892,51.0547 L88.892,55.6377 L100,49.2237 Z" id="Fill-1" fill="#000000"></path>
    </g>
</svg>