<svg width="100" height="100" viewBox="0 0 100 100" fill="none" xmlns="http://www.w3.org/2000/svg">
<path d="M45.6938 49.2406C51.8586 50.9596 57.4194 54.3694 61.7472 59.0843C68.3709 66.2993 72.0216 75.7519 71.9679 85.546C71.9791 89.039 69.9915 93.8609 60.5829 96.9657C54.7025 98.918 46.5406 100 37.0614 100H36.591C27.3 100 19.3497 99.0121 13.4693 97.1304C4.0137 94.0373 2.00261 89.333 2.00261 85.8048C1.88896 76.0013 5.48981 66.5181 12.0816 59.2607C16.4207 54.4587 22.0317 50.9844 28.2644 49.2406C16.6963 45.0135 9.82979 33.0941 11.9762 20.9664C14.1226 8.83864 24.6629 0 36.9791 0C49.2953 0 59.8356 8.83864 61.982 20.9664C64.1284 33.0941 57.2619 45.0135 45.6938 49.2406Z" fill="black"/>
<path d="M72.1209 28.3648H95.6424C97.2663 28.3648 98.5826 27.0485 98.5826 25.4246C98.5826 23.8008 97.2663 22.4844 95.6424 22.4844H72.1209C70.4971 22.4844 69.1807 23.8008 69.1807 25.4246C69.1807 27.0485 70.4971 28.3648 72.1209 28.3648Z" fill="black"/>
</svg>
