<?xml version="1.0" encoding="UTF-8"?>
<svg width="100px" height="100px" viewBox="0 0 100 100" version="1.1" xmlns="http://www.w3.org/2000/svg" xmlns:xlink="http://www.w3.org/1999/xlink">
    <!-- Generator: Sketch 57.1 (83088) - https://sketch.com -->
    <title>bold/user-cross-bold</title>
    <desc>Created with Sketch.</desc>
    <g id="bold/user-cross" stroke="none" stroke-width="1" fill="none" fill-rule="evenodd">
        <path d="M35.7696078,1.41833934 C47.4456712,1.41833934 57.6574604,9.2817688 60.6410423,20.5702007 C63.6246242,31.8586326 58.6316675,43.7407429 48.4803922,49.5098039 C61.3921569,54.9705882 70.5882353,68.4117647 70.6472399,84.1470589 C70.6862745,93.8333334 58.0098039,99.4313726 35.872549,99.509804 L35.3921568,99.509804 C13.5490196,99.509804 0.980392108,94.009804 0.980392108,84.4019608 C0.85869574,74.6792754 4.4288197,65.2722265 10.9705882,58.0784314 C14.332693,54.3813799 18.456995,51.4579088 23.0588235,49.5098039 C12.9075482,43.7407429 7.91459149,31.8586326 10.8981734,20.5702007 C13.8817553,9.2817688 24.0935444,1.41833934 35.7696078,1.41833934 Z M35.7549019,55.8921569 L35.6764706,55.8921569 C28.7222312,55.9592516 22.1188826,58.9565667 17.490196,64.1470588 C12.4849907,69.6806564 9.75687088,76.9019441 9.85294114,84.3627451 C9.85294114,85.3627451 11.6666666,86.9411765 15.6862745,88.2254902 C20.5882353,89.7843138 27.7156863,90.627451 35.8333333,90.5980393 C43.9509804,90.5686275 51.0882353,89.6764706 55.9313726,88.0784314 C59.9411765,86.7647059 61.7647059,85.1666667 61.6960784,84.1764706 C61.6372549,68.5588235 50.0098039,55.8921569 35.7549019,55.8921569 Z M91.3235295,9.78431369 C92.434248,8.58554248 94.1115722,8.09010939 95.6953745,8.49299699 C97.2791768,8.89588458 98.5158801,10.1325879 98.9187677,11.7163902 C99.3216553,13.3001925 98.8262222,14.9775167 97.627451,16.0882353 L86.5196079,27.1960784 L97.627451,38.3039216 C98.8262222,39.4146401 99.3216553,41.0919643 98.9187677,42.6757666 C98.5158801,44.2595689 97.2791768,45.4962722 95.6953745,45.8991598 C94.1115722,46.3020474 92.434248,45.8066143 91.3235295,44.6078431 L80.2156863,33.5 L69.1078432,44.6078431 C67.3491998,46.2373099 64.6170905,46.185246 62.9218046,44.4899601 C61.2265187,42.7946743 61.1744548,40.0625649 62.8039216,38.3039216 L73.9117647,27.1960784 L62.8039216,16.0882353 C61.1744548,14.3295919 61.2265187,11.5974826 62.9218046,9.90219668 C64.6170905,8.20691079 67.3491998,8.1548469 69.1078432,9.78431369 L80.2156863,20.8921568 L91.3235295,9.78431369 Z M35.7352941,10.3430442 L35.7745098,10.3823529 C26.4907868,10.3877614 18.9661928,17.9123554 18.9607843,27.1960784 C18.9824677,36.4820054 26.5277678,43.9921634 35.8136948,43.9705902 C45.0996218,43.9488303 52.6097935,36.4035438 52.5882369,27.1176168 C52.566494,17.8316897 45.0212212,10.3215043 35.7352941,10.3430442 Z" id="Shape" fill="#000000"></path>
    </g>
</svg>