<?xml version="1.0" encoding="UTF-8"?>
<svg width="100px" height="100px" viewBox="0 0 100 100" version="1.1" xmlns="http://www.w3.org/2000/svg" xmlns:xlink="http://www.w3.org/1999/xlink">
    <!-- Generator: Sketch 57.1 (83088) - https://sketch.com -->
    <title>regular/user-clock-regular</title>
    <desc>Created with Sketch.</desc>
    <g id="regular/user-clock" stroke="none" stroke-width="1" fill="none" fill-rule="evenodd">
        <path d="M35.4554455,0.963830732 C47.9096121,0.963830732 58.4437379,10.1754371 60.1045849,22.5183643 C61.7654318,34.8612915 54.0408993,46.5297573 42.029703,49.8217822 C57.8811881,53.1089109 69.9207921,68.1089109 69.9803005,86.1386139 C70.0096045,94.6467327 57.3947495,99.8166892 36.1801483,99.9960928 L35.5346535,100 L35.0495049,100 C13.7425742,100 0.989506089,94.9108911 0.989506089,86.3564357 C0.92079203,68.3168317 12.960396,53.1485149 28.8811881,49.8217822 C16.8699918,46.5297573 9.14545922,34.8612915 10.8063062,22.5183643 C12.4671532,10.1754371 23.001279,0.963830732 35.4554455,0.963830732 Z M35.5049505,53.8811881 L35.4059406,53.8811881 C18.950495,53.9405941 5.64356431,68.5544555 5.70257531,86.3762377 C5.72257223,91.5712872 17.53249,95.213703 34.5519771,95.2860318 L35.0693069,95.2871288 L35.5148515,95.2871288 C53.049505,95.2178218 65.2871287,91.4554456 65.3069307,86.1584159 C65.2079208,68.3366337 51.8811881,53.8811881 35.5049505,53.8811881 Z M27.7281787,7.22962684 C20.1995126,10.351354 15.2930246,17.7012718 15.2970248,25.8514851 C15.3134004,36.9708112 24.3262117,45.9791937 35.4455445,45.990099 C43.5957589,45.990099 50.9432641,41.079998 54.0612904,33.5497984 C57.1793167,26.0195988 55.4536798,17.352587 49.6891918,11.5909317 C43.9247038,5.82927636 35.2568449,4.10789971 27.7281787,7.22962684 Z M82.4653466,8.40594055 C92.0979913,8.41140279 99.9054289,16.2188403 99.9108911,25.8514851 C99.9108911,32.9075492 95.6604207,39.2688279 89.1414674,41.9690667 C82.6225142,44.6693055 75.1188745,43.1767388 70.1294837,38.187348 C65.1400929,33.1979572 63.6475262,25.6943175 66.347765,19.1753642 C69.0480038,12.656411 75.4092824,8.40594055 82.4653466,8.40594055 Z M73.4485847,16.8516319 C69.8078457,20.4952042 68.7209375,25.9733771 70.6948334,30.7309326 C72.6276065,35.3893724 77.1221452,38.458291 82.1440996,38.5803806 L82.4653466,38.5841584 L82.4653466,38.6138614 C89.5006082,38.597477 95.1936001,32.8867637 95.1881268,25.8514851 C95.1881268,20.7006988 92.0848287,16.057279 87.3257391,14.0870846 C82.5666495,12.1168903 77.0893238,13.2080597 73.4485847,16.8516319 Z M89.8514852,18.920792 C90.3948843,18.610193 91.0395206,18.5285674 91.6431901,18.69388 C92.2468596,18.8591925 92.7599612,19.2578751 93.069307,19.8019802 C93.3880591,20.3504567 93.4718046,21.0041793 93.3022413,21.6153525 C93.132678,22.2265257 92.7238971,22.7435392 92.1683169,23.0495049 L82.6732674,28.4455445 L75.1683169,25.6336633 C73.9489159,25.1743374 73.3327533,23.8134604 73.7920792,22.5940594 C74.2514052,21.3746584 75.6122822,20.7584958 76.8316832,21.2178218 L82.2673268,23.2277227 L89.8514852,18.920792 Z" id="Shape" fill="#000000"></path>
    </g>
</svg>