<?xml version="1.0" encoding="UTF-8"?>
<svg width="100px" height="100px" viewBox="0 0 100 100" version="1.1" xmlns="http://www.w3.org/2000/svg" xmlns:xlink="http://www.w3.org/1999/xlink">
    <!-- Generator: Sketch 57.1 (83088) - https://sketch.com -->
    <title>regular/user-cross-regular</title>
    <desc>Created with Sketch.</desc>
    <g id="regular/user-cross" stroke="none" stroke-width="1" fill="none" fill-rule="evenodd">
        <path d="M35.4554455,0.963830732 C47.9096121,0.963830732 58.4437379,10.1754371 60.1045849,22.5183643 C61.7654318,34.8612915 54.0408993,46.5297573 42.029703,49.8217822 C57.8811881,53.1089109 69.9207921,68.1089109 69.9803005,86.1386139 C70.009901,94.7326733 57.1386139,99.9207921 35.5346535,100 L35.0495049,100 C13.7425742,100 0.989506089,94.9108911 0.989506089,86.3564357 C0.92079203,68.3168317 12.960396,53.1485149 28.8811881,49.8217822 C16.8699918,46.5297573 9.14545922,34.8612915 10.8063062,22.5183643 C12.4671532,10.1754371 23.001279,0.963830732 35.4554455,0.963830732 Z M35.5049505,53.8811881 L35.4059406,53.8811881 C18.950495,53.9405941 5.64356431,68.5544555 5.70257531,86.3762377 C5.72277223,91.6237624 17.7722772,95.2871288 35.0693069,95.2871288 L35.5148515,95.2871288 C53.049505,95.2178218 65.2871287,91.4554456 65.3069307,86.1584159 C65.2079208,68.3366337 51.8811881,53.8811881 35.5049505,53.8811881 Z M49.6891918,11.5909317 C43.9247038,5.82927636 35.2568449,4.10789971 27.7281787,7.22962684 C20.1995126,10.351354 15.2930246,17.7012718 15.2970248,25.8514851 C15.3134004,36.9708112 24.3262117,45.9791937 35.4455445,45.990099 C43.5957589,45.990099 50.9432641,41.079998 54.0612904,33.5497984 C57.1793167,26.0195988 55.4536798,17.352587 49.6891918,11.5909317 Z M95.8811882,9.09900986 C96.4708394,8.48082242 97.3488937,8.2301942 98.1760206,8.44398222 C99.0031476,8.65777025 99.6497818,9.30248565 99.8660269,10.1289736 C100.082272,10.9554616 99.8342542,11.8342568 99.2178218,12.4257425 L85.7920792,25.8514851 L99.2178218,39.2376238 C99.661004,39.679708 99.9100736,40.2799622 99.9100736,40.9059406 C99.9100736,41.5319189 99.661004,42.1321732 99.2178218,42.5742574 C98.7757376,43.0174396 98.1754833,43.2665092 97.549505,43.2665092 C96.9235266,43.2665092 96.3232724,43.0174396 95.8811882,42.5742574 L82.4653466,29.1881188 L69.039604,42.5742574 C68.4720813,43.2683061 67.5598776,43.580181 66.6862338,43.3788551 C65.81259,43.1775292 65.1288759,42.4978848 64.9223379,41.6254585 C64.7157998,40.7530322 65.0222231,39.8389828 65.7128713,39.2673267 L79.1287129,25.8514851 L65.7128713,12.4257425 C64.8841162,11.4932021 64.9258254,10.0763148 65.8080008,9.19413938 C66.6901762,8.311964 68.1070635,8.27025473 69.039604,9.09900986 L82.4653466,22.5148515 L95.8811882,9.09900986 Z" id="Shape" fill="#000000"></path>
    </g>
</svg>