<svg width="100" height="100" viewBox="0 0 100 100" fill="none" xmlns="http://www.w3.org/2000/svg">
<path fill-rule="evenodd" clip-rule="evenodd" d="M61.7408 59.087C57.4141 54.3656 51.8478 50.9549 45.6766 49.2439C57.2504 45.0244 64.1254 33.1055 61.983 20.9743C59.8407 8.84303 49.2991 0 36.9801 0C24.6611 0 14.1196 8.84303 11.9772 20.9743C9.83479 33.1055 16.7098 45.0244 28.2836 49.2439C13.1367 53.4422 2 68.248 2 85.8057C2 94.8374 14.6185 100 36.5509 100H37.0566C59.3065 99.9177 72.0425 94.6492 72.0076 85.547C72.0488 75.7471 68.3811 66.2943 61.7408 59.087ZM17.4526 25.4299C17.4526 14.6549 26.1875 5.92002 36.9625 5.92002C47.7375 5.92002 56.4723 14.6549 56.4723 25.4299C56.4723 36.2048 47.7375 44.9397 36.9625 44.9397C26.1929 44.9267 17.4656 36.1995 17.4526 25.4299ZM37.033 94.12H36.5744C17.7584 94.12 7.88 89.9452 7.88 85.7822C7.88 68.248 20.816 54.0184 36.8919 53.9596H36.986C44.7838 53.9972 52.2062 57.3135 57.4366 63.0971C63.0687 69.2212 66.1737 77.2504 66.1278 85.5705C66.1508 89.7688 56.1548 94.0494 37.033 94.12Z" fill="black"/>
<path d="M88.0368 31.381C87.4108 32.0072 86.6389 32.468 85.7906 32.7217V34.8385C85.7906 35.1632 85.5274 35.4265 85.2026 35.4265H74.4657C74.141 35.4265 73.8778 35.1632 73.8778 34.8385V24.1133C73.884 23.7912 74.1436 23.5316 74.4657 23.5253H76.5708C76.8273 22.7008 77.2792 21.9504 77.8879 21.338L79.1697 20.0326H74.4657C72.1925 20.0326 70.3497 21.8754 70.3497 24.1486V34.8737C70.3497 37.1469 72.1925 38.9897 74.4657 38.9897H85.2026C87.4758 38.9897 89.3186 37.1469 89.3186 34.8737V30.1697L88.0368 31.381Z" fill="black"/>
<path fill-rule="evenodd" clip-rule="evenodd" d="M93.8694 12.5411L96.7623 15.4341C97.607 16.2828 97.607 17.6546 96.7623 18.5034L85.9549 29.3108C85.676 29.5872 85.3323 29.7894 84.9553 29.8988L80.8628 31.1454C80.6577 31.2112 80.4432 31.243 80.2278 31.2395C79.5381 31.2397 78.8892 30.9129 78.4788 30.3587C78.0683 29.8045 77.9449 29.0885 78.1463 28.4288L79.4046 24.3246C79.5142 23.9571 79.712 23.622 79.9808 23.3485L90.8 12.5411C91.654 11.709 93.0154 11.709 93.8694 12.5411ZM84.0263 24.3128L85.0023 25.2889L92.0583 18.2329L91.0823 17.2569L84.0263 24.3128Z" fill="black"/>
</svg>
