<?xml version="1.0" encoding="UTF-8"?>
<svg width="100px" height="100px" viewBox="0 0 100 100" version="1.1" xmlns="http://www.w3.org/2000/svg" xmlns:xlink="http://www.w3.org/1999/xlink">
    <!-- Generator: Sketch 57.1 (83088) - https://sketch.com -->
    <title>solid/user-check-solid</title>
    <desc>Created with Sketch.</desc>
    <g id="solid/user-check" stroke="none" stroke-width="1" fill="none" fill-rule="evenodd">
        <path d="M34.02,1.00649218 C46.3056511,1.00649218 56.698091,10.091622 58.3398898,22.2670777 C59.9816886,34.4425334 52.366846,45.9558544 40.52,49.21 C56.17,52.47 68.06,67.27 68.11,85.05 C68.11,93.56 55.44,98.69 34.11,98.76 L33.63,98.76 C12.59,98.76 -0.000450869776,93.74 -0.000450869776,85.3 C-0.0600000501,67.45 11.82,52.5 27.52,49.21 C15.6731539,45.9558544 8.05831134,34.4425334 9.70011015,22.2670777 C11.341909,10.091622 21.7343488,1.00649218 34.02,1.00649218 Z M92.05,11.63 C93.8720918,9.81581559 96.8179083,9.81581559 98.64,11.63 C100.448722,13.4543438 100.448722,16.3956561 98.64,18.22 L77.76,39.12 C75.4426417,41.4261283 71.6973583,41.4261283 69.38,39.12 L62.26,32 C61.0792372,30.8245962 60.6152378,29.1085488 61.042786,27.4982764 C61.4703341,25.8880039 62.724475,24.628145 64.332786,24.1932763 C65.941097,23.7584076 67.6592373,24.2145961 68.84,25.39 L73.57,30.11 L92.05,11.63 Z" id="Shape" fill="#000000"></path>
    </g>
</svg>