<svg width="100" height="100" viewBox="0 0 100 100" fill="none" xmlns="http://www.w3.org/2000/svg">
<g clip-path="url(#clip0)">
<path d="M33.9412 51.6585C25.7506 57.6068 20.9564 67.1602 21.0824 77.282C21.0801 78.6023 21.3111 79.9127 21.7647 81.1526C17.2656 81.1036 12.7937 80.4467 8.47059 79.1997C1.48235 76.9644 0 73.282 0 70.5879C0 59.1173 6.74118 49.2938 16.2588 45.5526C9.8625 42.1479 6.0889 35.2792 6.64566 28.0545C7.20241 20.8299 11.9839 14.6205 18.8263 12.236C25.6688 9.85154 33.2738 11.7446 38.2 17.0585C32.4367 20.6238 28.6021 26.6112 27.7742 33.3373C26.9463 40.0635 29.2145 46.802 33.9412 51.6585Z" fill="black"/>
<path d="M93.2927 28.0384C93.8564 35.2588 90.0937 42.1284 83.7059 45.5413C93.1647 49.2589 100 58.9883 100 70.4118C100 76.7766 92.1059 80.5883 78.1647 81.1295C78.6689 79.8319 78.9243 78.451 78.9177 77.0589C78.949 69.1076 75.9737 61.4383 70.5883 55.5883C69.2106 54.1001 67.6851 52.7559 66.0353 51.5766C70.7486 46.7263 73.0053 39.9988 72.1704 33.2874C71.3355 26.576 67.4992 20.6065 61.7412 17.0589C66.6655 11.7483 74.2658 9.85507 81.1059 12.2353C87.9459 14.6155 92.729 20.818 93.2927 28.0384Z" fill="black"/>
<path d="M41.4717 52.2355C35.6796 49.1732 31.7352 43.085 31.7412 36.0781C31.7499 26.0036 39.9216 17.8424 49.9961 17.8467C60.0706 17.851 68.2353 26.0192 68.2353 36.0937C68.2322 40.9363 66.3055 45.5792 62.8791 49.0012C61.5787 50.2999 60.1028 51.3824 58.5071 52.2256C61.9268 53.547 65.0329 55.6531 67.5526 58.423C72.2295 63.5002 74.8176 70.1555 74.7998 77.0583C74.7998 79.7525 73.3644 83.4348 66.3997 85.7289C61.0822 87.253 55.5653 87.9669 50.035 87.8466L49.6938 87.8701C34.1409 87.8701 25.2232 84.0113 25.1994 77.2819C25.1535 65.8057 31.947 55.9762 41.4717 52.2355Z" fill="black"/>
</g>
<defs>
<clipPath id="clip0">
<rect width="100" height="100" fill="white"/>
</clipPath>
</defs>
</svg>
