<?xml version="1.0" encoding="UTF-8"?>
<svg width="100px" height="100px" viewBox="0 0 100 100" version="1.1" xmlns="http://www.w3.org/2000/svg" xmlns:xlink="http://www.w3.org/1999/xlink">
    <!-- Generator: Sketch 57.1 (83088) - https://sketch.com -->
    <title>regular/user-edit-regular</title>
    <desc>Created with Sketch.</desc>
    <g id="regular/user-edit" stroke="none" stroke-width="1" fill="none" fill-rule="evenodd">
        <path d="M35.4554455,0.963830732 C47.9096121,0.963830732 58.4437379,10.1754371 60.1045849,22.5183643 C61.7654318,34.8612915 54.0408993,46.5297573 42.029703,49.8217822 C57.8811881,53.1089109 69.9207921,68.1089109 69.9802749,86.1386139 C69.990099,89.4653466 68.0990099,94.059406 58.980198,97.029703 C53.2574257,98.866761 45.4417539,99.9376683 36.3409776,99.9973633 L35.5346535,100 L35.0594059,100 C25.8217822,100 17.8811881,99.009901 12.0693069,97.1584159 C2.97029698,94.2772278 0.989506089,89.6633664 0.989506089,86.3564357 C0.92079203,68.3168317 12.960396,53.1485149 28.8811881,49.8217822 C16.8699918,46.5297573 9.14545922,34.8612915 10.8063062,22.5183643 C12.4671532,10.1754371 23.001279,0.963830732 35.4554455,0.963830732 Z M35.5049505,53.8514852 L35.4059406,53.8514852 C18.950495,53.9108911 5.64356431,68.5247525 5.70257531,86.3465347 C5.71287124,89.5049505 9.960396,91.5247525 13.5148514,92.6633664 C18.950495,94.4158416 26.5544554,95.3267327 35.5148515,95.2871288 C44.4752475,95.2475248 52.0792079,94.2871288 57.5049505,92.5049505 C61.049505,91.3366337 65.2772277,89.2871288 65.3069307,86.1287129 C65.2079208,68.3069307 51.8811881,53.8514852 35.5049505,53.8514852 Z M27.7281787,7.22962684 C20.1995126,10.351354 15.2930246,17.7012718 15.2970248,25.8514851 C15.3134004,36.9708112 24.3262117,45.9791937 35.4455445,45.990099 C43.5957589,45.990099 50.9432641,41.079998 54.0612904,33.5497984 C57.1793167,26.0195988 55.4536798,17.352587 49.6891918,11.5909317 C43.9247038,5.82927636 35.2568449,4.10789971 27.7281787,7.22962684 Z M78.3960396,18.8118812 L75.7524753,21.4356435 C75.2451014,21.9463621 74.844758,22.5518683 74.5735888,23.2165619 L74.4653466,23.5049505 L69.7425743,23.5049505 L69.7425743,38.6138614 L84.8316832,38.6138614 L84.8316832,33.8316832 C85.5134616,33.5986193 86.142435,33.2354678 86.6841636,32.7633845 L86.9108911,32.5544554 L89.5841585,29.8811881 L89.5841585,39.0495049 C89.5841585,41.3205178 87.8016574,43.1760082 85.5581717,43.2913545 L85.3465347,43.2970297 L69.3069307,43.2970297 C67.035924,43.291736 65.1846046,41.5049037 65.0744888,39.2611546 L65.0693069,39.0495049 L65.0693069,23.0495049 C65.0693069,20.7800504 66.8533131,18.9272728 69.0954305,18.8170673 L69.3069307,18.8118812 L78.3960396,18.8118812 Z M91.2871288,9.24752471 C92.4318958,8.16622734 94.2215696,8.16622734 95.3663367,9.24752471 L99.069307,12.950495 C99.6093556,13.4917612 99.9121096,14.2254944 99.9110931,14.990099 C99.9173964,15.7615558 99.6142407,16.5033957 99.069307,17.0495049 L97.7920793,18.3168317 L85.2079208,30.9108911 C84.8429293,31.2675196 84.3983539,31.5322286 83.9108911,31.6831683 L78.6336634,33.3069307 C78.3599496,33.3851217 78.0767416,33.425104 77.7920792,33.4257588 C76.8775983,33.4279143 76.0163883,32.9958275 75.4714555,32.2614377 C74.9265226,31.5270479 74.7625832,30.5775714 75.029703,29.7029703 L76.6435644,24.3960396 C76.7945041,23.9085768 77.0592131,23.4640014 77.4158416,23.0990099 L90.009901,10.5247524 L91.2871288,9.24752471 Z M91.6930693,15.5049505 L82.7821783,24.4158416 L83.9009901,25.5247525 L92.8118812,16.6237623 L91.6930693,15.5049505 Z" id="Shape" fill="#000000"></path>
    </g>
</svg>