<?xml version="1.0" encoding="UTF-8"?>
<svg width="100px" height="100px" viewBox="0 0 100 100" version="1.1" xmlns="http://www.w3.org/2000/svg" xmlns:xlink="http://www.w3.org/1999/xlink">
    <!-- Generator: Sketch 57.1 (83088) - https://sketch.com -->
    <title>regular/user-cog-regular</title>
    <desc>Created with Sketch.</desc>
    <g id="regular/user-cog" stroke="none" stroke-width="1" fill="none" fill-rule="evenodd">
        <path d="M35.4554455,0.963830732 C47.9096121,0.963830732 58.4437379,10.1754371 60.1045849,22.5183643 C61.7654318,34.8612915 54.0408993,46.5297573 42.029703,49.8217822 C57.8811881,53.1089109 69.9207921,68.1089109 69.9803005,86.1386139 C70.0096045,94.6467327 57.3947495,99.8166892 36.1801483,99.9960928 L35.5346535,100 L35.0495049,100 C13.7425742,100 0.989506089,94.9108911 0.989506089,86.3564357 C0.92079203,68.3168317 12.960396,53.1485149 28.8811881,49.8217822 C16.8699918,46.5297573 9.14545922,34.8612915 10.8063062,22.5183643 C12.4671532,10.1754371 23.001279,0.963830732 35.4554455,0.963830732 Z M35.5049505,53.8811881 L35.4059406,53.8811881 C18.950495,53.9405941 5.64356431,68.5544555 5.70257531,86.3762377 C5.72257223,91.5712872 17.53249,95.213703 34.5519771,95.2860318 L35.0693069,95.2871288 L35.5148515,95.2871288 C53.049505,95.2178218 65.2871287,91.4554456 65.3069307,86.1584159 C65.2079208,68.3366337 51.8811881,53.8811881 35.5049505,53.8811881 Z M27.7281787,7.22962684 C20.1995126,10.351354 15.2930246,17.7012718 15.2970248,25.8514851 C15.3134004,36.9708112 24.3262117,45.9791937 35.4455445,45.990099 C43.5957589,45.990099 50.9432641,41.079998 54.0612904,33.5497984 C57.1793167,26.0195988 55.4536798,17.352587 49.6891918,11.5909317 C43.9247038,5.82927636 35.2568449,4.10789971 27.7281787,7.22962684 Z M81.6831683,10.1584158 C82.6799381,8.73568591 84.4637255,8.09352241 86.1386139,8.5544554 L88.9207921,9.38613857 C90.6010335,9.89680938 91.7606258,11.4322696 91.7920792,13.1881188 L91.9405941,14.3069307 L93.069307,14.2079208 C94.8035527,13.8758504 96.5481374,14.7319892 97.3465347,16.3069307 L98.6534654,18.7425742 C99.4852986,20.2881936 99.2209843,22.1944605 98,23.4554455 L97.2970298,24.3267326 L98.1386139,25.0297029 C99.6312675,26.0279794 100.288226,27.8900346 99.7524753,29.6039604 L98.9603961,32.2277228 C98.4780227,33.9263501 96.9436169,35.111297 95.1782179,35.1485148 L94.059406,35.2871287 L94.1683169,36.3960396 C94.4761199,38.0912876 93.6829313,39.7966432 92.1881189,40.6534653 L89.6237624,42.019802 C88.0817771,42.8532866 86.177131,42.5886411 84.9207921,41.3663366 L84.039604,40.6633663 L83.3267327,41.5148515 C82.5773748,42.6238025 81.3284831,43.2908664 79.990099,43.2970297 C79.6900042,43.2930655 79.3912257,43.2565481 79.0990099,43.1881188 L78.8217822,43.1287129 L76.1188119,42.3069307 C74.4385705,41.7962599 73.2789782,40.2607997 73.2475248,38.5049505 L73.1089109,37.3861386 L71.9702971,37.4950495 C70.2173131,37.849687 68.4441738,36.9854337 67.6435644,35.3861386 L66.3366337,32.950495 C65.4879307,31.4144613 65.7366414,29.5050051 66.9504951,28.2376237 L67.6435644,27.3663366 L66.7722772,26.6435643 C65.3519996,25.6449219 64.7104671,23.8628871 65.1683168,22.1881188 L66.009901,19.4455445 C66.4944464,17.7514439 68.0399607,16.5812112 69.8019802,16.5742574 L70.9207921,16.4356435 L70.8217822,15.3069307 C70.4655108,13.5563446 71.3253432,11.7839541 72.9207921,10.980198 L75.3663367,9.67326729 C76.908322,8.83978263 78.8129681,9.10442819 80.069307,10.3267326 L80.9504951,11.0297029 L81.6831683,10.1584158 Z M85.2871287,13.2178217 L84.1584159,14.5643564 C82.7614684,16.1937087 80.3392483,16.4580297 78.6237624,15.1683168 L77.2277228,14.0495049 L75.5247525,14.8910891 L75.6732674,16.6336633 C75.8394793,18.7961917 74.2883529,20.7122891 72.1386139,21 L70.3861386,21.2178217 L69.8316832,23.009901 L71.1782178,24.1386138 C72.8256471,25.538501 73.0908907,27.9822207 71.7821782,29.7029703 L70.6435644,31.1782178 L71.5247525,32.8316832 L73.2673268,32.6732673 C75.4238437,32.4941995 77.3465135,34.0262592 77.6534654,36.1683168 L77.8712872,37.9009901 L79.6732674,38.4554455 L80.8019802,37.1089109 C82.2018674,35.4614816 84.6455871,35.196238 86.3663367,36.5049505 L87.7722773,37.6237624 L89.4257426,36.7623762 L89.2673268,35.019802 C89.1827148,34.0649308 89.4387534,33.110924 89.990099,32.3267327 L90.2475248,32.019802 C90.9097782,31.2662167 91.8333477,30.792047 92.8316832,30.6930693 L94.5247525,30.4752475 L95.049505,28.6237624 L93.7821783,27.5148515 C92.134749,26.1149643 91.8695054,23.6712446 93.1782179,21.950495 L94.2970297,20.5544554 L93.4158416,18.9009901 L91.6732674,19.0594059 C89.5089762,19.220085 87.5945345,17.6659577 87.3069307,15.5148515 L87.0891089,13.7722772 L85.2871287,13.2178217 Z M85.1485149,17.0198019 C87.4779264,17.721785 89.4353604,19.3162039 90.5940594,21.4554455 C93.0218966,25.9259628 91.3690556,31.5181487 86.9009901,33.950495 C83.2394022,35.9139636 78.716153,35.1790083 75.8645834,32.1572562 C73.0130138,29.1355041 72.5411984,24.5772881 74.7133875,21.0355329 C76.8855766,17.4937778 81.1623926,15.8479385 85.1485149,17.0198019 Z M80.3861386,21.9108911 C79.4116597,22.437602 78.6679174,23.3033656 78.2925656,24.3397288 L78.2178218,24.5643564 L78.1545842,24.81134 C77.9111882,25.8862696 78.0654324,27.0164442 78.5940594,27.990099 C79.7794982,30.1610956 82.4962259,30.9663797 84.6732674,29.7920792 C85.6488642,29.2690777 86.3910523,28.4017533 86.7586884,27.3636218 L86.8316832,27.1386138 L86.7920792,27.1386138 C87.5074571,24.7720404 86.1818791,22.2711165 83.8217822,21.5346534 C82.6717098,21.2027033 81.4371113,21.3379043 80.3861386,21.9108911 Z" id="Shape" fill="#000000"></path>
    </g>
</svg>