<svg width="100" height="100" viewBox="0 0 100 100" fill="none" xmlns="http://www.w3.org/2000/svg">
<path d="M46.2612 49.2406C52.365 50.9596 57.8707 54.3694 62.1557 59.0843C68.7137 66.2993 72.3284 75.7519 72.2752 85.546C72.2862 89.039 70.3183 93.8609 61.0029 96.9657C55.1807 98.918 47.0996 100 37.7143 100H37.2485C28.0495 100 20.1779 99.0121 14.3558 97.1304C4.99376 94.0373 3.00258 89.333 3.00258 85.8048C2.89006 76.0013 6.45526 66.5181 12.9818 59.2607C17.2779 54.4587 22.8333 50.9844 29.0043 49.2406C17.5508 45.0135 10.7523 33.0941 12.8774 20.9664C15.0026 8.83864 25.4385 0 37.6328 0C49.827 0 60.263 8.83864 62.3881 20.9664C64.5133 33.0941 57.7148 45.0135 46.2612 49.2406Z" fill="black"/>
<path fill-rule="evenodd" clip-rule="evenodd" d="M71.6981 20.2492C73.7707 15.1953 78.6536 11.9 84.0697 11.9C91.4627 11.9065 97.4542 17.958 97.4607 25.4249C97.4607 30.8952 94.1981 35.8269 89.1942 37.9203C84.1903 40.0137 78.4306 38.8565 74.6009 34.9884C70.7711 31.1203 69.6254 25.3031 71.6981 20.2492ZM84.1861 27.3654L91.4988 23.1786C92.0417 22.8551 92.3724 22.2636 92.3665 21.627C92.3605 20.9903 92.0187 20.4053 91.4698 20.0922C90.921 19.7791 90.2484 19.7855 89.7055 20.1091L83.8252 23.4844L79.5983 21.8849C78.9957 21.5913 78.28 21.6711 77.7554 22.0904C77.2308 22.5097 76.9894 23.1948 77.1338 23.8546C77.2782 24.5144 77.7831 25.0329 78.4339 25.1897L84.1861 27.3654Z" fill="black"/>
</svg>
