<?xml version="1.0" encoding="UTF-8"?>
<svg width="100px" height="100px" viewBox="0 0 100 100" version="1.1" xmlns="http://www.w3.org/2000/svg" xmlns:xlink="http://www.w3.org/1999/xlink">
    <!-- Generator: Sketch 57.1 (83088) - https://sketch.com -->
    <title>solid/user-cross-solid</title>
    <desc>Created with Sketch.</desc>
    <g id="solid/user-cross" stroke="none" stroke-width="1" fill="none" fill-rule="evenodd">
        <path d="M34.6732673,1.96645737 C46.8427523,1.96645737 57.1367598,10.966045 58.76236,23.0264675 C60.3879602,35.08689 52.8441005,46.490808 41.1089109,49.7128713 C56.6039604,52.9405941 68.3762376,67.5940594 68.4257426,85.2475248 C68.4257426,93.6732674 55.8811881,98.7524753 34.7623762,98.8217822 L34.2871287,98.8217822 C25.2673267,98.8217822 17.5049505,97.8613862 11.8217821,96.039604 C2.89108906,93.1287129 0.990098961,88.6732674 0.990098961,85.4455446 C0.879564632,75.9830638 4.35297731,66.8291005 10.7128712,59.8217822 C15.3455886,54.6925111 21.4780716,51.1550732 28.2376237,49.7128713 C16.5024342,46.490808 8.9585744,35.08689 10.5841746,23.0264675 C12.2097748,10.966045 22.5037823,1.96645737 34.6732673,1.96645737 Z M62.6336634,8.27722768 C64.4326899,6.47820112 67.3494883,6.47820112 69.1485149,8.27722768 L80.6435644,19.8019802 L92.1287129,8.27722768 C93.9470771,6.59576104 96.7686278,6.6498515 98.5212107,8.39977488 C100.273794,10.1496983 100.332169,12.9711636 98.6534654,14.7920792 L87.1287129,26.2871287 L98.6534654,37.7722772 C100.42934,39.5784153 100.417089,42.4785128 98.6260186,44.2695829 C96.8349485,46.0606531 93.934851,46.072904 92.1287129,44.2970297 L80.6435644,32.8019802 L69.1485149,44.2970297 C67.3275993,45.975733 64.506134,45.9173578 62.7562106,44.164775 C61.0062872,42.4121921 60.9521967,39.5906414 62.6336634,37.7722772 L74.1188119,26.2871287 L62.6336634,14.7920792 C60.8346368,12.9930526 60.8346368,10.0762542 62.6336634,8.27722768 Z" id="Shape" fill="#000000"></path>
    </g>
</svg>