<?xml version="1.0" encoding="UTF-8"?>
<svg width="100px" height="100px" viewBox="0 0 100 100" version="1.1" xmlns="http://www.w3.org/2000/svg" xmlns:xlink="http://www.w3.org/1999/xlink">
    <!-- Generator: Sketch 57.1 (83088) - https://sketch.com -->
    <title>bold/users-two-bold</title>
    <desc>Created with Sketch.</desc>
    <g id="bold/users-two" stroke="none" stroke-width="1" fill="none" fill-rule="evenodd">
        <path d="M41.82,3.46038563 C53.285231,3.46038563 63.3302838,11.1382873 66.3392924,22.2016226 C69.348301,33.264958 64.5758241,44.9729349 54.69,50.78 C59.0377619,52.6707636 62.944047,55.4463716 66.16,58.93 C72.6259766,65.969489 76.1941322,75.1916889 76.1508018,84.75 C76.18,94.36 63.69,99.92 41.86,100 L41.41,100 C32.64,100 25.03,99.05 19.41,97.25 C9.58999996,94.1 7.49999996,88.85 7.49999996,85 C7.39173826,75.4338485 10.9071004,66.1810153 17.34,59.1 C20.5812797,55.5404329 24.5375492,52.7052768 28.95,50.78 C19.0641759,44.9729349 14.291699,33.264958 17.3007076,22.2016226 C20.3097162,11.1382873 30.354769,3.46038563 41.82,3.46038563 Z M59.03,-7.1717665e-06 C70.4928408,-0.00603948399 80.5392919,7.66633822 83.5510122,18.7264601 C86.5627325,29.7865819 81.7933184,41.4933855 71.91,47.3 C76.2577619,49.1907636 80.1640471,51.9663716 83.38,55.45 C89.8742374,62.490847 93.4583231,71.7315706 93.41,81.31 C93.42,85.16 91.38,90.42 81.59,93.65 L80.38,93.9999928 C82.1403384,91.2318884 83.0543859,88.0101316 83.01,84.73 C82.96,84.15 82.96,83.58 82.96,82.9999928 C83.88,82.31 84.32,81.75 84.32,81.31 C84.3622124,74.0305773 81.6509992,67.0042842 76.73,61.64 L76.56,61.47 C75.0083387,58.8939247 73.1954372,56.4845417 71.15,54.28 C69.6434552,52.6711733 68.0189437,51.1770239 66.29,49.81 C70.5579135,44.8376079 73.2028868,38.678798 73.87,32.16 C76.8106425,25.7596119 75.2786323,18.1925327 70.08,13.44 C66.9394029,7.7275623 62.1515951,3.09307587 56.34,0.13999995 C57.2337295,0.0479678922 58.1315453,0.00124142063 59.03,-7.1717665e-06 Z M41.83,57.25 L41.74,57.25 C34.9779193,57.3107734 28.553584,60.2144277 24.04,65.25 C19.155485,70.646671 16.4939416,77.691723 16.59,84.97 C16.59,85.85 18.35,87.36 22.19,88.59 C26.94,90.11 33.87,90.91 41.87,90.91 C59.5,90.84 67.1006452,86.82 67.1006452,84.79 C67.1345378,77.5101358 64.4203599,70.4854148 59.5,65.12 C54.9703233,60.1402513 48.5616106,57.2858897 41.83,57.25 Z M41.8,12.5699753 C32.7990929,12.5920274 25.5109901,19.8890726 25.5,28.89 C25.5,35.4926428 29.4784128,41.4447684 35.5792346,43.9696179 C41.6800564,46.4944675 48.7011458,45.094528 53.3670559,40.4228928 C58.032966,35.7512577 59.4242949,28.7284569 56.8919662,22.6307357 C54.3596374,16.5330146 48.4026378,12.5619085 41.8,12.5699753 Z" id="Shape" fill="#000000"></path>
    </g>
</svg>