<?xml version="1.0" encoding="UTF-8"?>
<svg width="100px" height="100px" viewBox="0 0 100 100" version="1.1" xmlns="http://www.w3.org/2000/svg" xmlns:xlink="http://www.w3.org/1999/xlink">
    <!-- Generator: Sketch 57.1 (83088) - https://sketch.com -->
    <title>solid/user-edit-solid</title>
    <desc>Created with Sketch.</desc>
    <g id="solid/user-edit" stroke="none" stroke-width="1" fill="none" fill-rule="evenodd">
        <path d="M35.440594,0.985355973 C47.8883105,0.985355973 58.4174636,10.1911479 60.0793973,22.5274204 C61.741331,34.863693 54.0237384,46.5276732 42.019802,49.8217822 C57.8712871,53.1089109 69.9207921,68.1089109 69.9802749,86.1386139 C69.990099,89.4653466 68.0990099,94.059406 58.980198,97.029703 C53.2574257,98.866761 45.4417539,99.9376683 36.3409776,99.9973633 L35.5346535,100 L35.0495049,100 C25.8217822,100 17.8811881,99.009901 12.0693069,97.1584159 C2.97029698,94.2772278 0.990098961,89.6633664 0.990098961,86.3564357 C0.866415714,76.6872662 4.40321796,67.3288875 10.8910891,60.1584159 C15.6395236,54.9018802 21.9301352,51.2834788 28.8613861,49.8217822 C16.8574497,46.5276732 9.13985711,34.863693 10.8017908,22.5274204 C12.4637245,10.1911479 22.9928776,0.985355973 35.440594,0.985355973 Z M78.3960396,18.8118812 L75.7524753,21.4851485 C75.1879414,22.0502137 74.7544922,22.7308708 74.481101,23.4788307 L74.3861386,23.7623762 L72.7722773,28.980198 C72.2906292,30.5695178 72.5882151,32.2929679 73.5749361,33.6287463 C74.5616571,34.9645248 76.1214928,35.7555684 77.7821782,35.7623762 C78.1987055,35.7618175 78.6132143,35.7104227 79.0165592,35.6096078 L79.3168317,35.5247525 L84.5940594,33.9207921 C85.3567854,33.6849387 86.0588134,33.2883644 86.6534315,32.7590963 L86.8712872,32.5544554 L89.5841585,29.8811881 L89.5841585,39.0495049 C89.5841585,41.3205178 87.8016574,43.1760082 85.5581717,43.2913545 L85.3465347,43.2970297 L69.3069307,43.2970297 C67.035924,43.291736 65.1846046,41.5049037 65.0744888,39.2611546 L65.0693069,39.0495049 L65.0693069,23.0495049 C65.0693069,20.7800504 66.8533131,18.9272728 69.0954305,18.8170673 L69.3069307,18.8118812 L78.3960396,18.8118812 Z M88.3366337,12.1980198 L96.0990099,20.019802 L85.2079208,30.9108911 C84.8445976,31.2696837 84.3994615,31.5347266 83.9108911,31.6831683 L78.6336634,33.3069307 C78.3599496,33.3851217 78.0767416,33.425104 77.7920792,33.4257588 C76.8775983,33.4279143 76.0163883,32.9958275 75.4714555,32.2614377 C74.9265226,31.5270479 74.7625832,30.5775714 75.029703,29.7029703 L76.6732674,24.3861386 C76.824207,23.8986758 77.0889161,23.4541004 77.4455446,23.0891089 L88.3366337,12.1980198 Z M82.1782179,23.8217822 C81.5950045,23.1695518 80.698424,22.8941593 79.8496382,23.1065386 C79.0008524,23.318918 78.3396182,23.9840998 78.1322949,24.8341348 C77.9249715,25.6841697 78.2056959,26.579095 78.8613862,27.1584158 L81.1485149,29.4455445 C81.5916756,29.8902432 82.1939708,30.1397147 82.8217822,30.1386632 C83.4470447,30.1415114 84.0469324,29.8915582 84.4851485,29.4455445 C84.9264243,29.0038377 85.1734707,28.4044807 85.1716332,27.7801204 C85.1697543,27.1557602 84.9191447,26.5578842 84.4752476,26.1188119 L82.1782179,23.8217822 Z M95.2222757,9.11516944 L95.3663367,9.24752471 L99.069307,12.950495 C99.9951714,13.8821787 100.174428,15.3120102 99.5287855,16.4375171 L99.4257426,16.6039604 L91.7128713,8.91089105 C92.8016004,8.177638 94.238541,8.27034524 95.2222757,9.11516944 L95.2222757,9.11516944 Z" id="Shape" fill="#000000"></path>
    </g>
</svg>