<svg width="100" height="100" viewBox="0 0 100 100" fill="none" xmlns="http://www.w3.org/2000/svg">
<path d="M45.6938 49.2406C51.8586 50.9596 57.4194 54.3694 61.7472 59.0843C68.3709 66.2993 72.0216 75.7519 71.9679 85.546C71.9791 89.039 69.9915 93.8609 60.5829 96.9657C54.7025 98.918 46.5406 100 37.0614 100H36.591C27.3 100 19.3497 99.0121 13.4693 97.1304C4.0137 94.0373 2.00261 89.333 2.00261 85.8048C1.88896 76.0013 5.48981 66.5181 12.0816 59.2607C16.4207 54.4587 22.0317 50.9844 28.2644 49.2406C16.6963 45.0135 9.82979 33.0941 11.9762 20.9664C14.1226 8.83864 24.6629 0 36.9791 0C49.2953 0 59.8356 8.83864 61.982 20.9664C64.1284 33.0941 57.2619 45.0135 45.6938 49.2406Z" fill="black"/>
<path d="M77.3423 36.6794C78.1234 37.4449 79.1771 37.868 80.2707 37.8555L80.5177 37.8437C81.7038 37.7751 82.8019 37.196 83.5285 36.256L97.9589 17.7563C98.6622 16.9337 98.8566 15.7912 98.4651 14.7822C98.0736 13.7732 97.1594 13.0609 96.0853 12.9279C95.0112 12.7949 93.9509 13.2627 93.3252 14.1458L80.0826 31.1165L74.2022 25.2362C73.0501 24.1202 71.2162 24.1335 70.0804 25.266C68.9446 26.3986 68.9261 28.2325 70.0389 29.3877L77.3423 36.6794Z" fill="black"/>
</svg>
