<svg width="100" height="100" viewBox="0 0 100 100" fill="none" xmlns="http://www.w3.org/2000/svg">
<path d="M61.7472 59.0843C57.4194 54.3694 51.8586 50.9596 45.6938 49.2406C57.2619 45.0135 64.1284 33.0941 61.982 20.9664C59.8356 8.83864 49.2953 0 36.9791 0C24.6629 0 14.1226 8.83864 11.9762 20.9664C9.82979 33.0941 16.6963 45.0135 28.2644 49.2406C22.0317 50.9844 16.4207 54.4587 12.0816 59.2607C5.48981 66.5181 1.88896 76.0013 2.00261 85.8048C2.00261 89.333 4.0137 94.0373 13.4693 97.1304C19.3497 99.0121 27.3 100 36.591 100H37.0614C46.5406 100 54.7025 98.918 60.5829 96.9657C69.9915 93.8609 71.9791 89.039 71.9679 85.546C72.0216 75.7519 68.3709 66.2993 61.7472 59.0843Z" fill="black"/>
<path d="M88.0443 31.3761C87.4294 31.9963 86.6694 32.4531 85.8333 32.7051L81.7288 33.9517C81.2449 34.1006 80.7414 34.1759 80.2351 34.1752C78.6119 34.1801 77.083 33.4125 76.1173 32.1078C75.1515 30.8031 74.8639 29.1167 75.3427 27.5656L76.5893 23.4611C76.8471 22.631 77.3032 21.8761 77.9183 21.2619L79.1767 20.027H74.4724C72.199 20.027 70.3561 21.8699 70.3561 24.1433V34.8691C70.3561 37.1424 72.199 38.9853 74.4724 38.9853H85.2099C87.4833 38.9853 89.3262 37.1424 89.3262 34.8691V30.1648L88.0443 31.3761Z" fill="black"/>
<path d="M93.8773 12.5346L96.7704 15.4277C97.6152 16.2766 97.6152 17.6485 96.7704 18.4973L85.9623 29.3054C85.6815 29.5734 85.3438 29.7744 84.9744 29.8935L80.8699 31.1401C80.6647 31.2059 80.4502 31.2377 80.2348 31.2342C79.5451 31.2345 78.8961 30.9076 78.4856 30.3533C78.0752 29.7991 77.9518 29.083 78.1531 28.4234L79.4115 24.3189C79.5185 23.9441 79.7212 23.6037 79.9996 23.331L90.8077 12.5346C91.6565 11.6898 93.0284 11.6898 93.8773 12.5346Z" fill="black"/>
</svg>
