<svg width="100" height="100" viewBox="0 0 100 100" fill="none" xmlns="http://www.w3.org/2000/svg">
<path fill-rule="evenodd" clip-rule="evenodd" d="M62.9871 20.9784C65.1304 33.1121 58.2547 45.0338 46.6787 49.2551C61.787 53.4054 72.933 68.0904 72.9918 85.5502C73.027 94.6504 60.2938 99.9177 38.0488 100H37.5432C15.6157 100 3 94.8385 3 85.8088C3 68.255 14.1343 53.4525 29.2778 49.2551C17.7018 45.0338 10.8261 33.1121 12.9694 20.9784C15.1128 8.84465 25.6567 0 37.9782 0C50.2998 0 60.8437 8.84465 62.9871 20.9784ZM30.5048 7.42449C23.2146 10.4429 18.461 17.556 18.461 25.4464H18.4492C18.4622 36.2136 27.1875 44.9389 37.9547 44.9519C45.8451 44.9566 52.9611 40.2073 55.9839 32.9189C59.0067 25.6306 57.3407 17.239 51.7631 11.658C46.1855 6.07706 37.7949 4.4061 30.5048 7.42449ZM37.5667 94.1213H38.0253C57.1428 94.0507 67.1366 89.7711 67.1131 85.5737C67.0543 68.0787 53.9918 53.9698 37.9782 53.9698H37.8842C21.8118 54.0286 8.8787 68.255 8.8787 85.7853C8.8787 89.9474 18.7549 94.1213 37.5667 94.1213Z" fill="black"/>
<path fill-rule="evenodd" clip-rule="evenodd" d="M93.2612 20.3318V20.5787C95.3148 20.8277 96.862 22.5664 96.8707 24.635V34.8522C96.8707 37.1249 95.0283 38.9673 92.7556 38.9673H76.9654C74.6927 38.9673 72.8503 37.1249 72.8503 34.8522V24.635C72.853 22.5683 74.3965 20.8282 76.4481 20.5787V20.3318C76.4481 15.689 80.2118 11.9253 84.8546 11.9253C89.4974 11.9253 93.2612 15.689 93.2612 20.3318ZM88.3048 16.8816C87.3898 15.9666 86.1487 15.4525 84.8546 15.4525C83.5606 15.4525 82.3195 15.9666 81.4044 16.8816C80.4894 17.7967 79.9753 19.0377 79.9753 20.3318V20.5199H89.7339V20.3318C89.7339 19.0377 89.2199 17.7967 88.3048 16.8816ZM92.7556 35.4401C93.0803 35.4401 93.3435 35.1769 93.3435 34.8522V24.635C93.3372 24.313 93.0776 24.0534 92.7556 24.0472H76.9654C76.6407 24.0472 76.3776 24.3104 76.3776 24.635V34.8522C76.3776 35.1769 76.6407 35.4401 76.9654 35.4401H92.7556Z" fill="black"/>
</svg>
