<?xml version="1.0" encoding="UTF-8"?>
<svg width="100px" height="100px" viewBox="0 0 100 100" version="1.1" xmlns="http://www.w3.org/2000/svg" xmlns:xlink="http://www.w3.org/1999/xlink">
    <!-- Generator: Sketch 57.1 (83088) - https://sketch.com -->
    <title>solid/user-solid</title>
    <desc>Created with Sketch.</desc>
    <g id="solid/user" stroke="none" stroke-width="1" fill="none" fill-rule="evenodd">
        <path d="M56.8811881,49.8217822 C68.8835027,46.5254531 76.598567,34.861369 74.9354901,22.5262357 C73.2724132,10.1911023 62.7437699,0.986715032 50.2970297,0.986715032 C37.8502895,0.986715032 27.3216462,10.1911023 25.6585693,22.5262357 C23.9954924,34.861369 31.7105567,46.5254531 43.7128713,49.8217822 C36.7816203,51.2834788 30.4910087,54.9018802 25.7425742,60.1584159 C19.2547031,67.3288875 15.7179009,76.6872662 15.8415841,86.3564357 C15.8415841,89.6732674 17.8217821,94.2772278 26.9207921,97.1584159 C32.7326733,99.009901 40.6732673,100 49.9009901,100 L50.3861386,100 C71.990099,99.9207921 84.8613862,94.7326733 84.8317345,86.1386139 C84.7722773,68.1089109 72.7227723,53.1089109 56.8811881,49.8217822 Z" id="user" fill="#000000"></path>
    </g>
</svg>