<svg width="100" height="100" viewBox="0 0 100 100" fill="none" xmlns="http://www.w3.org/2000/svg">
<g clip-path="url(#clip0)">
<path d="M58.6606 49.2743C70.2438 45.0558 77.1267 33.1302 74.9849 20.9902C72.8431 8.85023 62.2947 0 49.9672 0C37.6398 0 27.0914 8.85023 24.9496 20.9902C22.8078 33.1302 29.6907 45.0558 41.2739 49.2743C26.1326 53.4593 15 68.2597 15 85.8109C15 89.3376 17.0102 94.1104 26.4618 97.1316C32.3396 99.0125 40.2982 100 49.5734 100H50.0437C72.2854 99.9177 85.0168 94.6512 84.9816 85.5523C84.9227 68.0951 73.7784 53.4123 58.6606 49.2743ZM30.447 25.4573C30.447 14.6863 39.1786 5.95463 49.9496 5.95463C60.7206 5.95463 69.4523 14.6863 69.4523 25.4573C69.4523 36.2283 60.7206 44.9599 49.9496 44.9599C39.184 44.947 30.4599 36.2229 30.447 25.4573ZM50.0201 94.1222C41.2504 94.1222 33.5622 93.2405 28.2604 91.5359C25.5096 90.6542 20.8778 88.7381 20.8778 85.7874C20.8778 68.2597 33.8091 54.0353 49.8791 53.9765H49.9731C65.9844 53.9765 79.0449 68.0833 79.1037 85.5758C79.1272 89.7726 69.1349 94.0516 50.0201 94.1222Z" fill="black"/>
</g>
<defs>
<clipPath id="clip0">
<rect width="100" height="100" fill="white"/>
</clipPath>
</defs>
</svg>
