<svg width="100" height="100" viewBox="0 0 100 100" fill="none" xmlns="http://www.w3.org/2000/svg">
<path d="M45.7065 49.2395C51.868 50.9588 57.4251 54.3688 61.7485 59.0835C68.3723 66.2986 72.0232 75.7514 71.9694 85.5457C71.9806 89.0387 69.993 93.8607 60.5842 96.9657C54.7037 98.918 46.5415 100 37.0622 100H36.5917C27.3005 100 19.3501 99.0121 13.4696 97.1303C4.01374 94.0372 2.00261 89.3328 2.00261 85.8045C1.88896 76.0008 5.48988 66.5174 12.0818 59.2599C16.421 54.4577 22.0321 50.9834 28.2649 49.2395C16.6987 45.0098 9.83509 33.0903 11.9828 20.9638C14.1306 8.83718 24.6704 0 36.9857 0C49.301 0 59.8409 8.83718 61.9886 20.9638C64.1364 33.0903 57.2727 45.0098 45.7065 49.2395Z" fill="black"/>
<path d="M97.7259 15.7437L88.0466 25.423L97.7259 35.1023C98.4696 35.846 98.7601 36.93 98.4879 37.946C98.2156 38.9619 97.4221 39.7555 96.4062 40.0277C95.3902 40.2999 94.3062 40.0094 93.5625 39.2657L83.8832 29.5864L74.2039 39.2657C73.0524 40.411 71.192 40.411 70.0405 39.2657C68.9016 38.1116 68.9016 36.2565 70.0405 35.1023L79.7316 25.423L70.0405 15.7437C68.8908 14.594 68.8908 12.73 70.0405 11.5803C71.1902 10.4306 73.0542 10.4306 74.2039 11.5803L83.8832 21.2714L93.5625 11.5803C94.3062 10.8366 95.3902 10.5461 96.4062 10.8184C97.4221 11.0906 98.2156 11.8841 98.4879 12.9001C98.7601 13.916 98.4696 15 97.7259 15.7437Z" fill="black"/>
</svg>
