<svg width="100" height="100" viewBox="0 0 100 100" fill="none" xmlns="http://www.w3.org/2000/svg">
<path d="M63.9798 20.9782C66.1247 33.1122 59.251 45.0355 47.6756 49.2598C62.7978 53.399 73.9453 68.086 74.0042 85.5482C74.0394 94.6497 61.3044 99.9177 39.0563 100H38.5859C29.308 100 21.3472 99.0122 15.4677 97.1308C6.0134 94.0382 4.00261 89.3346 4.00261 85.8069C3.88898 76.0048 7.4893 66.523 14.0801 59.2667C18.4201 54.4697 24.0301 51.0001 30.2605 49.2598C18.6851 45.0355 11.8114 33.1122 13.9563 20.9782C16.1012 8.84423 26.646 0 38.9681 0C51.2902 0 61.8349 8.84423 63.9798 20.9782Z" fill="black"/>
<path fill-rule="evenodd" clip-rule="evenodd" d="M95.4519 20.3205V22.2255C96.2366 22.7727 96.706 23.6676 96.7101 24.6243V34.7959C96.7101 36.4195 95.3939 37.7356 93.7704 37.7356H77.978C76.3544 37.7356 75.0382 36.4195 75.0382 34.7959V24.5773C75.0547 23.6394 75.5178 22.7657 76.2847 22.2255V20.3205C76.2847 15.0276 80.5754 10.7369 85.8683 10.7369C91.1612 10.7369 95.4519 15.0276 95.4519 20.3205ZM89.5724 20.3205C89.5724 18.2748 87.914 16.6164 85.8683 16.6164C83.8253 16.6229 82.1706 18.2775 82.1642 20.3205V21.6846H89.5724V20.3205Z" fill="black"/>
</svg>
