<svg width="100" height="100" viewBox="0 0 100 100" fill="none" xmlns="http://www.w3.org/2000/svg">
<g clip-path="url(#clip0)">
<path d="M81.7993 16.2386C86.3284 28.8668 79.8611 42.7894 67.2898 47.474C81.6589 51.6013 92.3122 65.6647 92.3711 82.362C92.3946 88.6412 86.2213 93.0272 74.9564 95.0379C76.7985 93.1574 78.0282 90.7634 78.484 88.1708C83.7754 86.6187 86.4917 84.4786 86.4917 82.362C86.4329 66.7465 75.4503 53.859 61.4575 52.2833C60.5521 51.6719 59.6231 51.0487 58.6707 50.496C61.6713 48.0725 64.1579 45.0742 65.9846 41.677C74.0732 38.1829 78.6099 29.5018 76.8601 20.8662C75.1103 12.2306 67.552 6.00027 58.7412 5.93059C56.3417 3.9793 53.6412 2.43052 50.7453 1.34471C63.4284 -3.02825 77.2701 3.6104 81.7993 16.2386Z" fill="black"/>
<path fill-rule="evenodd" clip-rule="evenodd" d="M49.4637 51.0604C55.2837 52.7454 60.5275 55.9999 64.6207 60.4673C71.0356 67.4179 74.585 76.537 74.5569 85.9954C74.5803 94.8144 62.2925 99.9177 40.8329 100H40.3743C31.4377 100 23.7475 99.0475 18.1033 97.2367C8.95507 94.3088 7.00313 89.6406 7.00313 86.2423C6.88091 76.7879 10.3427 67.6378 16.6923 60.6319C20.8031 56.0875 26.0951 52.7739 31.9786 51.0604C20.9163 46.8427 14.4424 35.3285 16.5867 23.6853C18.731 12.0421 28.8822 3.58973 40.7211 3.58973C52.5601 3.58973 62.7113 12.0421 64.8556 23.6853C66.9999 35.3285 60.526 46.8427 49.4637 51.0604ZM40.7388 9.5287C30.4391 9.5287 22.0895 17.8783 22.0895 28.178C22.1025 38.4723 30.4445 46.8143 40.7388 46.8272C51.0385 46.8272 59.3881 38.4777 59.3881 28.178C59.3881 17.8783 51.0385 9.5287 40.7388 9.5287ZM40.386 94.1207H40.8093C59.1176 94.0501 68.6892 89.9934 68.7014 86.0189C68.7428 78.043 65.7643 70.3468 60.364 64.477C55.3547 58.9428 48.2504 55.7682 40.7858 55.7286H40.6918C33.1934 55.7959 26.0715 59.0238 21.0783 64.6181C15.7006 70.5177 12.7592 78.2365 12.8472 86.2188C12.8472 88.9821 17.2802 90.8047 19.9024 91.6396C24.8998 93.2388 32.155 94.1207 40.386 94.1207Z" fill="black"/>
</g>
<defs>
<clipPath id="clip0">
<rect width="100" height="100" fill="white"/>
</clipPath>
</defs>
</svg>
