<svg width="100" height="100" viewBox="0 0 100 100" fill="none" xmlns="http://www.w3.org/2000/svg">
<path fill-rule="evenodd" clip-rule="evenodd" d="M61.9849 20.9902C64.1267 33.1302 57.2438 45.0558 45.6606 49.2743C60.7784 53.4123 71.9227 68.0951 71.9816 85.5523C72.0168 94.6512 59.2854 99.9177 37.0437 100H36.5382C14.6138 100 2 94.8392 2 85.8109C2 68.2597 13.1326 53.4593 28.2739 49.2743C16.6907 45.0558 9.80779 33.1302 11.9496 20.9902C14.0914 8.85023 24.6398 0 36.9672 0C49.2947 0 59.8431 8.85023 61.9849 20.9902ZM36.9496 5.95463C26.1786 5.95463 17.4469 14.6863 17.4469 25.4573C17.4599 36.2229 26.184 44.947 36.9496 44.9599C47.7206 44.9599 56.4523 36.2283 56.4523 25.4573C56.4523 14.6863 47.7206 5.95463 36.9496 5.95463ZM36.5617 94.1222H37.0201C56.1349 94.0516 66.1272 89.7726 66.1037 85.5758C66.0449 68.0833 52.9843 53.9765 36.9731 53.9765H36.8791C20.8091 54.0353 7.87784 68.2597 7.87784 85.7874C7.87784 89.9489 17.7526 94.1222 36.5617 94.1222Z" fill="black"/>
<path d="M96.8443 14.9481L86.3348 25.4577L96.8443 35.9673C97.348 36.4716 97.4986 37.2295 97.2259 37.888C96.9532 38.5465 96.311 38.9761 95.5982 38.9767C95.131 38.975 94.6832 38.7892 94.3521 38.4595L83.8426 27.9499L73.333 38.4595C73.0034 38.7914 72.5547 38.9776 72.0869 38.9767C71.3742 38.9761 70.7319 38.5465 70.4592 37.888C70.1866 37.2295 70.3371 36.4716 70.8408 35.9673L81.3504 25.4577L70.8408 14.9481C70.1596 14.2571 70.1596 13.147 70.8408 12.4559C71.1699 12.1228 71.6186 11.9353 72.0869 11.9353C72.5552 11.9353 73.0039 12.1228 73.333 12.4559L83.8426 22.9655L94.3521 12.4559C95.0469 11.8085 96.1296 11.8276 96.8011 12.4992C97.4726 13.1707 97.4917 14.2534 96.8443 14.9481Z" fill="black"/>
</svg>
