<?xml version="1.0" encoding="UTF-8"?>
<svg width="100px" height="100px" viewBox="0 0 100 100" version="1.1" xmlns="http://www.w3.org/2000/svg" xmlns:xlink="http://www.w3.org/1999/xlink">
    <!-- Generator: Sketch 57.1 (83088) - https://sketch.com -->
    <title>regular/users-three-regular</title>
    <desc>Created with Sketch.</desc>
    <g id="regular/users-three" stroke="none" stroke-width="1" fill="none" fill-rule="evenodd">
        <path d="M50.4653465,18.5412705 C58.8554655,18.5412705 66.0919243,24.4339642 67.7915724,32.6501247 C69.4912205,40.8662852 65.1866471,49.1464314 57.4851485,52.4752475 C67.4356436,55.7128713 74.7128713,65.6138614 74.7525804,77.3267327 C74.7623763,79.8217822 73.3861386,83.2673268 66.7425743,85.4455446 C61.4619258,86.9517039 55.9849543,87.6559336 50.4950495,87.5346535 L50.2475248,87.5346535 C44.8782189,87.6688917 39.5189209,87.0014822 34.3465346,85.5544555 C27.6930693,83.4257426 26.2772277,79.990099 26.2772277,77.4851485 C26.1855927,70.7075466 28.6615621,64.1462276 33.2079208,59.1188119 C35.9880452,56.0556669 39.5155865,53.7665178 43.4455445,52.4752475 C35.744046,49.1464314 31.4394725,40.8662852 33.1391206,32.6501247 C34.8387687,24.4339642 42.0752275,18.5412705 50.4653465,18.5412705 Z M50.4950495,56.0891089 L50.3960396,56.0891089 C45.1463027,56.1411206 40.1612483,58.4018267 36.6633663,62.3168317 C32.9054933,66.4675479 30.8574631,71.8865155 30.9306931,77.4851485 C30.940594,79.3366337 34.2871287,80.6138614 35.7326733,81.079208 C39.3168317,82.2277228 44.5544554,82.8217822 50.4950495,82.8217822 C55.483442,82.935283 60.4612459,82.3113894 65.2673267,80.9702971 C66.7029703,80.4950495 70.049505,79.2079208 70.049505,77.3366337 C70.009901,65.6039604 61.2376238,56.0891089 50.4950495,56.0891089 Z M83.4209525,13.7469451 C89.5911886,16.7821528 93.4423522,23.1190865 93.2947385,29.9938599 C93.1471247,36.8686332 89.0275052,43.03442 82.7326733,45.8019802 C92.6732674,49.029703 100,58.9306931 100,70.6435644 C100,76.2376238 93.3168317,79.7920792 81.4059406,80.6732674 C81.6843762,79.5760371 81.8273551,78.4488307 81.8316832,77.3168317 C81.7821782,76.8910891 81.7821782,76.3762377 81.7821782,75.9009901 C90.5940594,75.1485149 95.2871288,72.8514852 95.2871288,70.6732673 C95.2479331,59.0713484 86.6551911,49.6223628 76.0546843,49.4287715 L75.7227723,49.4257426 L75.6633664,49.4257426 C74.0913055,49.4344119 72.5270419,49.647418 71.009901,50.0594059 C72.5739989,47.7548891 73.7326026,45.1999335 74.4356436,42.5049505 C74.8514852,42.5742574 75.2772277,42.5742574 75.7128713,42.5742574 C81.2884614,42.5342499 86.2145994,38.9353046 87.9476598,33.6357474 C89.6807202,28.3361902 87.8328602,22.5220131 83.3582275,19.1953831 C78.8835947,15.8687531 72.7835709,15.7741394 68.2079208,18.960396 C67.0825654,17.8056083 65.8492135,16.7612377 64.5247525,15.8415841 C69.8804576,11.5287288 77.2507165,10.7117374 83.4209525,13.7469451 Z M36.4059406,15.8415841 C35.0815186,16.7760833 33.8483198,17.8335845 32.7227723,19 C28.1519375,15.7459656 22.0077089,15.7971523 17.4917226,19.1268878 C12.9757363,22.4566233 11.110383,28.3110764 12.8676614,33.6396075 C14.6249398,38.9681385 19.6070133,42.5644017 25.2178218,42.5544554 C25.6534653,42.5544554 26.0792079,42.4851485 26.4950495,42.4851485 C27.1988267,45.1750706 28.3538259,47.7261121 29.9108911,50.029703 C28.5568841,49.6617359 27.1647568,49.4551177 25.7634764,49.4137147 L25.2376237,49.4059406 L25.1782178,49.4059406 C19.9117303,49.4465131 14.9069791,51.7079991 11.3960396,55.6336634 C7.64157369,59.7864609 5.59406842,65.2040396 5.66336629,70.8019802 C5.67326728,72.6534654 9.01980194,73.9306931 10.4653465,74.3960396 C13.061748,75.1534177 15.7280916,75.6434647 18.4228179,75.8589386 L19.1584158,75.9108911 L19.1584158,77.5247525 C19.1694646,78.5859578 19.3023484,79.6423838 19.5544554,80.6732674 C15.9977705,80.4910125 12.4750394,79.8894895 9.0594059,78.8811881 C2.40594055,76.7524753 0.990098961,73.3168317 0.990098961,70.8118812 C0.922459161,64.0383485 3.41553151,57.4891713 7.97029699,52.4752475 C10.745032,49.4037234 14.2690206,47.1044318 18.1980198,45.8019802 C11.9031879,43.03442 7.78356832,36.8686332 7.63595458,29.9938599 C7.48834083,23.1190865 11.3395045,16.7821528 17.5097405,13.7469451 C23.6799766,10.7117374 31.0502355,11.5287288 36.4059406,15.8415841 Z M50.4554682,23.2772578 C43.2905755,23.2827182 37.4851485,29.092531 37.4851485,36.2574257 C37.4877717,39.704332 38.8602448,43.0088742 41.3003602,45.4434185 C43.7404756,47.8779629 47.0481463,49.2428792 50.4950495,49.2376539 C57.6599255,49.2212281 63.4564537,43.4025554 63.4455603,36.2376691 C63.4346053,29.0727827 57.6203608,23.2718127 50.4554682,23.2772578 Z" id="Shape" fill="#000000"></path>
    </g>
</svg>