<?xml version="1.0" encoding="UTF-8"?>
<svg width="100px" height="100px" viewBox="0 0 100 100" version="1.1" xmlns="http://www.w3.org/2000/svg" xmlns:xlink="http://www.w3.org/1999/xlink">
    <!-- Generator: Sketch 57.1 (83088) - https://sketch.com -->
    <title>regular/user-check-regular</title>
    <desc>Created with Sketch.</desc>
    <g id="regular/user-check" stroke="none" stroke-width="1" fill="none" fill-rule="evenodd">
        <path d="M35.4554455,0.963830732 C47.9096121,0.963830732 58.4437379,10.1754371 60.1045849,22.5183643 C61.7654318,34.8612915 54.0408993,46.5297573 42.029703,49.8217822 C57.8811881,53.1089109 69.9207921,68.1089109 69.9803005,86.1386139 C70.009901,94.7326733 57.1386139,99.9207921 35.5346535,100 L35.0495049,100 C13.7425742,100 0.989506089,94.9108911 0.989506089,86.3564357 C0.92079203,68.3168317 12.960396,53.1485149 28.8811881,49.8217822 C16.8699918,46.5297573 9.14545922,34.8612915 10.8063062,22.5183643 C12.4671532,10.1754371 23.001279,0.963830732 35.4554455,0.963830732 Z M35.5049505,53.8811881 L35.4059406,53.8811881 C18.950495,53.9405941 5.64356431,68.5544555 5.70257531,86.3762377 C5.72277223,91.6237624 17.7722772,95.2871288 35.0693069,95.2871288 L35.5148515,95.2871288 C53.049505,95.2178218 65.2871287,91.4554456 65.3069307,86.1584159 C65.2079208,68.3366337 51.8811881,53.8811881 35.5049505,53.8811881 Z M49.6891918,11.5909317 C43.9247038,5.82927636 35.2568449,4.10789971 27.7281787,7.22962684 C20.1995126,10.351354 15.2930246,17.7012718 15.2970248,25.8514851 C15.3134004,36.9708112 24.3262117,45.9791937 35.4455445,45.990099 C43.5957589,45.990099 50.9432641,41.079998 54.0612904,33.5497984 C57.1793167,26.0195988 55.4536798,17.352587 49.6891918,11.5909317 Z M97.549505,12.7334907 C98.1754833,12.7334907 98.7757376,12.9825604 99.2178218,13.4257425 C99.661004,13.8678268 99.9100736,14.468081 99.9100736,15.0940594 C99.9100736,15.7200377 99.661004,16.320292 99.2178218,16.7623762 L78.0792079,37.9108911 C77.3956792,38.595918 76.4677156,38.9808883 75.5,38.9808883 C74.5322844,38.9808883 73.6043209,38.595918 72.9207921,37.9108911 L65.7128713,30.6930693 C64.8258948,29.7686835 64.8399198,28.3050234 65.7444471,27.397804 C66.6489744,26.4905847 68.1125863,26.4722101 69.039604,27.3564356 L75.4950495,33.8118812 L95.8811882,13.4257425 C96.3232724,12.9825604 96.9235266,12.7334907 97.549505,12.7334907 Z" id="Shape" fill="#000000"></path>
    </g>
</svg>