<svg width="100" height="100" viewBox="0 0 100 100" fill="none" xmlns="http://www.w3.org/2000/svg">
<path d="M61.9798 20.9782C64.1247 33.1122 57.251 45.0355 45.6757 49.2598C60.7978 53.399 71.9453 68.086 72.0042 85.5482C72.0394 94.6497 59.3044 99.9177 37.0563 100H36.5859C27.2963 100 19.3472 99.0122 13.4677 97.1308C4.0134 94.0382 2.00261 89.3346 2.00261 85.8069C1.88898 76.0048 5.4893 66.523 12.0801 59.2667C16.4201 54.4697 22.0301 51.0001 28.2605 49.2598C16.6851 45.0355 9.81144 33.1122 11.9563 20.9782C14.1012 8.84423 24.646 0 36.9681 0C49.2902 0 59.8349 8.84423 61.9798 20.9782Z" fill="black"/>
<path fill-rule="evenodd" clip-rule="evenodd" d="M97.4627 19.3918C98.2775 20.9093 98.0915 22.7692 96.9924 24.0954C98.377 25.1879 98.947 27.0196 98.427 28.7049L97.8037 30.7039C97.3391 32.3891 95.8763 33.6081 94.1349 33.7613C94.3134 35.442 93.4834 37.0696 92.0183 37.9122L89.984 39.0058C88.4641 39.8173 86.604 39.6266 85.2804 38.5237C84.4746 39.5319 83.255 40.1201 81.9643 40.1229C81.648 40.12 81.3327 40.0846 81.0236 40.0171L80.7296 39.9465L78.6248 39.2998C76.9666 38.8016 75.779 37.3438 75.6262 35.6192C73.8662 35.8438 72.1558 34.9344 71.3577 33.3497L70.3464 31.48C69.5283 29.9615 69.7194 28.0975 70.8285 26.7764C69.4976 25.6938 68.9344 23.9257 69.3939 22.2727L70.0524 20.1208C70.545 18.4589 72.0058 17.2687 73.733 17.1223C73.5161 15.3792 74.4012 13.6838 75.9555 12.8655L77.8369 11.866C79.3555 11.0479 81.2195 11.2389 82.5405 12.3481C83.6193 11.0192 85.3831 10.4559 87.0325 10.9135L89.1844 11.5602C90.8397 12.0657 92.0276 13.5182 92.1947 15.2408C93.9555 15.0291 95.6608 15.9405 96.4632 17.5221L97.4627 19.3918ZM81.0688 29.9823C82.693 30.9849 84.7288 31.0448 86.4093 30.1395V30.1278C88.3132 29.1029 89.411 27.0308 89.1894 24.8799C88.9679 22.7291 87.4709 20.9242 85.398 20.309C84.0423 19.9153 82.5863 20.0672 81.3411 20.7323C79.6607 21.6376 78.5909 23.3707 78.5347 25.2787C78.4785 27.1866 79.4445 28.9796 81.0688 29.9823Z" fill="black"/>
</svg>
