<?xml version="1.0" encoding="UTF-8"?>
<svg width="100px" height="100px" viewBox="0 0 100 100" version="1.1" xmlns="http://www.w3.org/2000/svg" xmlns:xlink="http://www.w3.org/1999/xlink">
    <!-- Generator: Sketch 57.1 (83088) - https://sketch.com -->
    <title>bold/users-three-bold</title>
    <desc>Created with Sketch.</desc>
    <g id="bold/users-three" stroke="none" stroke-width="1" fill="none" fill-rule="evenodd">
        <path d="M50.4653465,18.2236494 C58.6730358,18.2236494 65.9669341,23.4571028 68.5957495,31.2324159 C71.2245649,39.0077289 68.6029469,47.5935955 62.0792079,52.5742574 C70.6765535,57.4969149 75.9464627,66.6776116 75.8613862,76.5841584 C75.8811881,81.029703 72.6039604,88.5148515 50.4950495,88.5940594 L50.1980198,88.5940594 C44.8486644,88.7201906 39.5101478,88.052876 34.3564356,86.6138614 C26.3168317,84.029703 25.0891089,79.3366337 25.0891089,76.7722773 C25.0098097,69.731583 27.599232,62.9219682 32.3366336,57.7128713 C34.2160956,55.6589819 36.4162874,53.9235723 38.8514851,52.5742574 C32.3277462,47.5935955 29.7061281,39.0077289 32.3349436,31.2324159 C34.963759,23.4571028 42.2576572,18.2236494 50.4653465,18.2236494 Z M37.1386138,15.2079208 C34.3898133,16.8715851 31.9701001,19.0261702 30,21.5643564 C28.8414542,21.1138649 27.6093852,20.8822225 26.3663366,20.8811881 C21.0417012,20.8307247 16.5871929,24.9117721 16.1724103,30.2204672 C15.7576278,35.5291624 19.5242222,40.2525466 24.7920792,41.029703 C25.3271187,44.8192202 26.7003701,48.4417628 28.8118812,51.6336634 C28.5742574,51.8514852 28.3564356,52.0891089 28.1287128,52.3168317 C27.6826817,52.263279 27.234578,52.2294347 26.7857091,52.2153783 L26.3366336,52.2079208 L25.9377871,52.2162501 C21.6905278,52.3594917 17.6804361,54.2389415 14.8514851,57.4257426 C11.6938935,60.9273096 9.95986673,65.4831028 9.99009897,70.1980198 C10.5148514,70.7722772 12.9108911,72.1485149 18.5544554,72.8415842 C18.4037034,74.1562564 18.3309687,75.4787051 18.3366336,76.8019802 C18.3484224,78.5548149 18.6598405,80.2927287 19.2574257,81.9405941 C3.59405936,80.5445545 0.990098961,74.3069307 0.990098961,70.3960396 C0.909813435,63.3551699 3.49936843,56.5452063 8.23762372,51.3366337 C10.1200732,49.2818953 12.3236632,47.5464428 14.7623762,46.1980198 C6.52643309,39.9115128 4.79679326,28.2086518 10.8620982,19.8084729 C16.9274031,11.4082939 28.5801385,9.36810652 37.1386138,15.2079208 Z M90.1308358,19.7525591 C96.2173977,28.1720339 94.46658,39.9111074 86.1881188,46.1881188 C88.5835345,47.5046691 90.7528686,49.1960143 92.6138614,51.1980198 C97.3823431,56.3781884 100.020146,63.1671709 100.000228,70.2079208 C100.000228,74.1386139 97.4653466,80.4158416 81.6435644,81.9009901 C82.2850117,80.1942206 82.6201858,78.3876324 82.6336634,76.5643565 C82.6313292,75.2841021 82.5586122,74.0049442 82.4158416,72.7326733 C87.6237624,72.019802 90.3465347,70.7821782 90.9801981,70.039604 C90.9630631,65.3377631 89.1986154,60.8101903 86.029703,57.3366337 C83.1899305,54.1976263 79.1997627,52.3530835 74.98037,52.2157788 L74.5841584,52.2079208 L74.5247525,52.2079208 C73.9389392,52.2090666 73.3537247,52.2454358 72.7722773,52.3168317 C72.5445545,52.0891089 72.3168317,51.8514852 72.0792079,51.6237624 C74.1893518,48.4347976 75.5625475,44.8157843 76.0990099,41.029703 C79.9344821,40.4433349 83.0979266,37.7174113 84.244604,34.0106869 C85.3912815,30.3039626 84.3196561,26.2679175 81.485262,23.6182223 C78.6508679,20.9685272 74.5518675,20.1708823 70.9306931,21.5643564 C68.9629148,19.024001 66.5427662,16.8690282 63.7920792,15.2079208 C72.3481872,9.31497515 84.044274,11.3330842 90.1308358,19.7525591 Z M50.4950495,58.5841584 L50.4158416,58.5841584 C46.0319002,58.6279132 41.8708347,60.52323 38.960396,63.8019802 C35.7958808,67.2889029 34.0541315,71.8358224 34.0786794,76.5445545 C34.980198,77.5742575 39.960396,79.6039604 50.2079208,79.6039604 L50.4950495,79.6039604 C61.970297,79.5643565 66.1782178,77.2277228 66.9108911,76.4059406 C66.7722772,66.5049505 59.4059406,58.5841584 50.4950495,58.5841584 Z M50.4950495,27.2573871 C47.8017815,27.2521693 45.2168785,28.3177047 43.3096632,30.2193488 C41.4024479,32.1209929 40.3293551,34.7027677 40.3267327,37.3960396 C40.3267327,42.9915696 44.8599472,47.5291568 50.4554745,47.534615 C56.0510019,47.5400535 60.5930203,43.0113029 60.6039805,37.4157836 C60.6148619,31.8202643 56.0905555,27.2738189 50.4950495,27.2573871 Z" id="Shape" fill="#000000"></path>
    </g>
</svg>