<svg width="100" height="100" viewBox="0 0 100 100" fill="none" xmlns="http://www.w3.org/2000/svg">
<path fill-rule="evenodd" clip-rule="evenodd" d="M45.6787 49.2551C51.8418 50.9736 57.401 54.3825 61.7276 59.096C68.3493 66.309 71.999 75.7588 71.9453 85.5502C71.9565 89.0421 69.9695 93.8626 60.5636 96.9666C54.6849 98.9183 46.5253 100 37.0488 100H36.5432C14.6157 100 2 94.8385 2 85.8088C2 68.255 13.1343 53.4525 28.2778 49.2551C16.7018 45.0338 9.82613 33.1121 11.9694 20.9784C14.1128 8.84465 24.6567 0 36.9782 0C49.2998 0 59.8437 8.84465 61.9871 20.9784C64.1304 33.1121 57.2547 45.0338 45.6787 49.2551ZM36.9547 5.94084C26.1821 5.94084 17.4492 14.6738 17.4492 25.4464C17.4622 36.2136 26.1875 44.9389 36.9547 44.9519C47.7273 44.9519 56.4603 36.219 56.4603 25.4464C56.4603 14.6738 47.7273 5.94084 36.9547 5.94084ZM37.0253 94.1213C45.7728 94.1213 53.4974 93.1102 58.7765 91.3818C61.5277 90.4765 66.1248 88.5248 66.1136 85.5737C66.1595 77.2555 63.0552 69.2281 57.4244 63.1053C52.195 57.323 44.7744 54.0074 36.9782 53.9698H36.8842C20.8118 54.0286 7.8787 68.255 7.8787 85.7853C7.8787 89.9474 17.7549 94.1213 36.5667 94.1213H37.0253Z" fill="black"/>
<path d="M85.6192 23.6827H95.613C96.587 23.6827 97.3766 24.4723 97.3766 25.4463C97.3766 26.4203 96.587 27.2099 95.613 27.2099H85.6192V37.2037C85.6192 38.1777 84.8296 38.9673 83.8556 38.9673C82.8816 38.9673 82.092 38.1777 82.092 37.2037V27.2099H72.0982C71.1242 27.2099 70.3346 26.4203 70.3346 25.4463C70.3346 24.4723 71.1242 23.6827 72.0982 23.6827H82.092V13.6889C82.092 12.7149 82.8816 11.9253 83.8556 11.9253C84.8296 11.9253 85.6192 12.7149 85.6192 13.6889V23.6827Z" fill="black"/>
</svg>
