<svg width="100" height="100" viewBox="0 0 100 100" fill="none" xmlns="http://www.w3.org/2000/svg">
<g clip-path="url(#clip0)">
<path d="M83.7059 45.5413C90.0937 42.1284 93.8564 35.2588 93.2927 28.0384C92.729 20.818 87.9459 14.6155 81.1059 12.2353C74.2658 9.85507 66.6655 11.7483 61.7412 17.0589C63.4104 18.1043 64.9369 19.3618 66.2824 20.8001C70.1928 16.7787 76.3218 15.8968 81.2074 18.6525C86.093 21.4082 88.5086 27.1097 87.0898 32.5365C85.671 37.9633 80.7739 41.7529 75.1647 41.7648C74.0141 41.7678 72.8691 41.6054 71.7647 41.2824C70.8317 45.1739 68.8737 48.7446 66.0941 51.6236L66.6942 52.0707C69.2833 50.6081 72.2029 49.8306 75.1765 49.8118H75.2471C85.6471 49.8118 94.0706 59.0471 94.1765 70.4354C94.1765 72.1766 89.3059 74.6942 78.8824 75.2118V77.0707C78.889 78.4628 78.6336 79.8437 78.1294 81.1413C92.1059 80.5883 100 76.7766 100 70.4118C100 58.9883 93.1647 49.2589 83.7059 45.5413Z" fill="black"/>
<path d="M21.082 77.2701V75.2348C17.4006 75.1448 13.7448 74.5955 10.1996 73.5995C7.5643 72.7407 5.88195 71.576 5.88195 70.5643C5.82127 65.1439 7.8086 59.9004 11.4467 55.8819C14.8111 52.0774 19.6271 49.8724 24.7055 49.8113H24.7643C27.7772 49.8147 30.7386 50.5926 33.3643 52.0701L33.9172 51.6584C31.1256 48.7727 29.1627 45.1883 28.2349 41.2819C27.0897 41.6233 25.9004 41.7938 24.7055 41.7878C19.0772 41.7989 14.1515 38.0075 12.7219 32.5638C11.2923 27.1201 13.7195 21.3977 18.627 18.6419C23.5345 15.8861 29.6839 16.7923 33.5878 20.8466C34.9522 19.3869 36.5028 18.1133 38.1996 17.0584C33.2702 11.7496 25.6657 9.86231 18.8261 12.2502C11.9865 14.6381 7.20904 20.8482 6.65486 28.0715C6.10069 35.2947 9.87489 42.161 16.2702 45.5643C12.7777 46.934 9.64623 49.0874 7.11725 51.8584C2.4683 56.9809 -0.0739351 63.6706 -0.00040134 70.5878C-0.00040134 73.2819 1.48195 76.9643 8.47019 79.1995C12.7946 80.4408 17.2656 81.0976 21.7643 81.1525C21.3096 79.9088 21.0786 78.5944 21.082 77.2701Z" fill="black"/>
<path fill-rule="evenodd" clip-rule="evenodd" d="M58.5409 52.1998C61.9703 53.5672 65.0497 55.6858 67.5526 58.3998C72.2295 63.4769 74.8177 70.1322 74.7998 77.0351C74.8115 79.7292 73.3644 83.3527 66.3997 85.7057C61.0822 87.2298 55.5653 87.9437 50.035 87.8233H49.6821C34.1409 87.8233 25.1995 83.988 25.1995 77.2351C25.1526 65.7645 31.9409 55.941 41.4585 52.1998C34.0509 48.276 30.2696 39.8099 32.2912 31.6747C34.3128 23.5395 41.6171 17.8281 49.9997 17.8281C58.3823 17.8281 65.6866 23.5395 67.7082 31.6747C69.7298 39.8099 65.9485 48.276 58.5409 52.1998ZM45.2824 24.6693C40.6606 26.5824 37.6468 31.0918 37.6468 36.0939C37.6468 42.9182 43.1755 48.4521 49.9997 48.4586C55.0018 48.4634 59.5141 45.4538 61.4316 40.8338C63.3491 36.2139 62.2942 30.8936 58.7588 27.3549C55.2234 23.8162 49.9042 22.7562 45.2824 24.6693ZM50.0115 81.988C54.9254 82.0934 59.8284 81.479 64.5644 80.1645C67.2585 79.2822 68.9291 78.1057 68.9175 77.0586C68.935 71.6328 66.901 66.4008 63.2232 62.4116C59.8216 58.6816 55.0125 56.548 49.9644 56.5292H49.9056C39.4938 56.5645 31.0821 65.8822 31.0821 77.2822C31.0821 79.1645 37.0115 81.988 49.6938 81.988H50.0115Z" fill="black"/>
</g>
<defs>
<clipPath id="clip0">
<rect width="100" height="100" fill="white"/>
</clipPath>
</defs>
</svg>
