<?xml version="1.0" encoding="UTF-8"?>
<svg width="100px" height="100px" viewBox="0 0 100 100" version="1.1" xmlns="http://www.w3.org/2000/svg" xmlns:xlink="http://www.w3.org/1999/xlink">
    <!-- Generator: Sketch 57.1 (83088) - https://sketch.com -->
    <title>regular/user-regular</title>
    <desc>Created with Sketch.</desc>
    <g id="regular/user" stroke="none" stroke-width="1" fill="none" fill-rule="evenodd">
        <path d="M56.8811881,49.8217822 C68.8923844,46.5297573 76.616917,34.8612915 74.95607,22.5183643 C73.2952231,10.1754371 62.7610973,0.963830732 50.3069307,0.963830732 C37.8527641,0.963830732 27.3186383,10.1754371 25.6577914,22.5183643 C23.9969444,34.8612915 31.721477,46.5297573 43.7326733,49.8217822 C27.8118812,53.1485149 15.7722772,68.3168317 15.8412864,86.3564357 C15.8412864,94.9108911 28.5940594,100 49.9009901,100 L50.3861386,100 C71.990099,99.9207921 84.8613862,94.7326733 84.8317345,86.1386139 C84.7722773,68.1089109 72.7326733,53.1089109 56.8811881,49.8217822 Z M30.1485124,25.8514851 C30.1445098,17.7012718 35.0509978,10.351354 42.5796639,7.22962684 C50.10833,4.10789971 58.776189,5.82927636 64.5406769,11.5909317 C70.3051649,17.352587 72.0308018,26.0195988 68.9127756,33.5497984 C65.7947493,41.079998 58.4472441,45.990099 50.2970297,45.990099 C39.1776969,45.9791937 30.1648855,36.9708112 30.1485124,25.8514851 Z M50.3663366,95.2871288 L49.9207921,95.2871288 C32.6237624,95.2871288 20.5742574,91.6237624 20.5542573,86.3762377 C20.4950495,68.5544555 33.8019802,53.9405941 50.2574257,53.8811881 L50.3564356,53.8811881 C66.7326733,53.8811881 80.059406,68.3366337 80.1584159,86.1584159 C80.1386139,91.4554456 67.9009901,95.2178218 50.3663366,95.2871288 Z" id="user" fill="#000000"></path>
    </g>
</svg>