<?xml version="1.0" encoding="UTF-8"?>
<svg width="100px" height="100px" viewBox="0 0 100 100" version="1.1" xmlns="http://www.w3.org/2000/svg" xmlns:xlink="http://www.w3.org/1999/xlink">
    <!-- Generator: Sketch 57.1 (83088) - https://sketch.com -->
    <title>bold/user-cog-bold</title>
    <desc>Created with Sketch.</desc>
    <g id="bold/user-cog" stroke="none" stroke-width="1" fill="none" fill-rule="evenodd">
        <path d="M36.1237624,0.937332801 C47.9154303,0.937332801 58.2283263,8.87861799 61.2414486,20.2788166 C64.2545709,31.6790151 59.212179,43.67877 48.960396,49.5049505 C62,55.019802 71.2871287,68.5940594 71.3467175,84.4851485 C71.3861386,94.2673268 58.5841584,99.9207921 36.2277228,100 L35.7425742,100 C13.6831683,100 0.990098961,94.4455446 0.990098961,84.7425743 C0.867197678,74.9236246 4.4726694,65.4234366 11.0792079,58.1584158 C14.4746008,54.4247599 18.6397375,51.4723435 23.2871287,49.5049505 C13.0353457,43.67877 7.99295378,31.6790151 11.0060761,20.2788166 C14.0191984,8.87861799 24.3320944,0.937332801 36.1237624,0.937332801 Z M36.1089109,55.9504951 L36.029703,55.9504951 C29.0066097,56.0182541 22.3378814,59.0452456 17.6633663,64.2871287 C12.6086045,69.8755143 9.85347356,77.1683 9.95049501,84.7029703 C9.95049501,85.7128713 11.7821782,87.3069307 15.8415841,88.6039604 C20.7920792,90.1782179 27.990099,91.029703 36.1881188,91 C44.3861386,90.9702971 51.5940594,90.069307 56.4851485,88.4554456 C60.5346535,87.1287129 62.3762376,85.5148515 62.3069307,84.5148515 C62.2475248,68.7425743 50.5049505,55.9504951 36.1089109,55.9504951 Z M79.2772278,9.73267323 C80.8506566,8.26411048 83.0749544,7.72022651 85.1485149,8.29702966 L87.7821783,9.10891085 C89.8754541,9.74228463 91.4671927,11.4512297 91.9504951,13.5841584 C94.1618059,13.6260259 96.1740084,14.8713135 97.1980198,16.8316831 L98.4554456,19.1287128 C99.4858575,21.042602 99.414103,23.3614039 98.2673268,25.2079208 C99.7665625,26.8259324 100.284176,29.1230796 99.6237624,31.2277228 L98.8811882,33.6633663 C98.3013995,35.7925164 96.6031382,37.433789 94.4554456,37.940594 C94.3907361,40.0615416 93.2283127,41.996414 91.3861387,43.0495049 L91.2574258,43.1188119 L88.8712872,44.3960396 C86.957398,45.4264515 84.6385961,45.354697 82.7920792,44.2079208 C81.6573936,45.2732708 80.1603891,45.8678258 78.6039604,45.8712871 C78.1712711,45.8698504 77.7399056,45.8233956 77.3168317,45.7326733 L76.8415842,45.6138614 L74.2574258,44.8316832 C72.1714658,44.2011329 70.579347,42.5071486 70.0792079,40.3861386 C67.8717204,40.3490508 65.8616535,39.1065331 64.8415842,37.1485148 L63.5841584,34.7920792 C62.5432945,32.8806667 62.6152221,30.55627 63.7722772,28.7128713 C62.3193706,27.1387438 61.7904779,24.9218959 62.3762376,22.8613861 L63.1386139,20.2475247 C63.7553087,18.1451502 65.452289,16.5350977 67.5841584,16.0297029 C67.6253393,13.8207071 68.8713532,11.8111299 70.8316832,10.7920792 L73.1980198,9.54455441 C75.1094323,8.50369052 77.433829,8.5756181 79.2772278,9.73267323 Z M36.0891089,9.95040105 L36.1287129,9.99009897 C26.7530718,9.99556104 19.1539769,17.594656 19.1485148,26.970297 C19.1704129,36.3481638 26.7904189,43.9326799 36.1682858,43.910893 C45.5461527,43.8889177 53.1306825,36.2689254 53.1089126,26.8910585 C53.0869544,17.5131916 45.4669758,9.92864794 36.0891089,9.95040105 Z M81.009901,24.930693 C80.6627241,24.9357343 80.3223372,25.0276388 80.019802,25.1980198 C79.5444093,25.4411998 79.1873776,25.8660675 79.029703,26.3762376 L78.9881458,26.5372849 C78.8256951,27.2918357 79.1015238,28.080378 79.7115912,28.5684319 C80.3652348,29.0913467 81.2711882,29.1642073 82,28.7524752 C82.4795062,28.5047513 82.837121,28.0720373 82.990099,27.5544554 L82.9306931,27.5544554 C83.1057075,27.0386255 83.0605069,26.4734804 82.8057292,25.9920254 C82.5509515,25.5105704 82.1090983,25.1553271 81.5841584,25.009901 C81.3970062,24.9585993 81.203953,24.9319713 81.009901,24.930693 Z" id="Shape" fill="#000000"></path>
    </g>
</svg>