<svg width="100" height="100" viewBox="0 0 100 100" fill="none" xmlns="http://www.w3.org/2000/svg">
<path fill-rule="evenodd" clip-rule="evenodd" d="M45.6903 49.2417C51.855 50.9607 57.4156 54.3704 61.7433 59.0852C68.3668 66.3 72.0175 75.7524 71.9638 85.5463C71.975 89.0392 69.9875 93.861 60.5791 96.9658C54.6988 98.918 46.537 100 37.0581 100H36.5876C27.3086 100 19.3467 99.0121 13.4665 97.1304C4.01105 94.108 2 89.3332 2 85.8051C2 68.2466 13.1372 53.4402 28.273 49.2417C16.703 45.0171 9.83363 33.0979 11.9787 20.969C14.1238 8.8401 24.6645 0 36.9816 0C49.2988 0 59.8395 8.8401 61.9845 20.969C64.1296 33.0979 57.2603 45.0171 45.6903 49.2417ZM36.964 5.91599C26.1885 5.91599 17.4533 14.6512 17.4533 25.4267C17.4663 36.1967 26.1939 44.9244 36.964 44.9373C47.7394 44.9373 56.4746 36.2021 56.4746 25.4267C56.4746 14.6512 47.7394 5.91599 36.964 5.91599ZM37.0345 94.1197C45.7843 94.1197 53.511 93.1083 58.7915 91.3795C61.5434 90.474 66.1418 88.5217 66.1305 85.5699C66.1764 77.2495 63.0713 69.2199 57.439 63.0955C52.2083 57.3117 44.7857 53.9952 36.9875 53.9576H36.8934C20.8168 54.0164 7.88025 68.2466 7.88025 85.7816C7.88025 88.7334 12.5139 90.6504 15.2658 91.5324C20.5698 93.2377 28.2847 94.1197 37.0345 94.1197Z" fill="black"/>
<path d="M77.3377 36.6806C78.121 37.4428 79.1732 37.8653 80.2661 37.8567L80.5131 37.8449C81.6991 37.7763 82.7972 37.1972 83.5237 36.2572L97.9539 17.7579C98.6571 16.9353 98.8516 15.7928 98.4601 14.7838C98.0686 13.7749 97.1544 13.0626 96.0803 12.9296C95.0063 12.7966 93.946 13.2644 93.3202 14.1474L80.0779 31.1061L74.1977 25.2258C73.0456 24.1099 71.2117 24.1232 70.076 25.2557C68.9402 26.3883 68.9217 28.2221 70.0344 29.3773L77.3377 36.6806Z" fill="black"/>
</svg>
