<svg width="100" height="100" viewBox="0 0 100 100" fill="none" xmlns="http://www.w3.org/2000/svg">
<path d="M97.0471 31.7646C95.2081 30.5443 92.8795 30.3278 90.8471 31.1881L78.5765 36.3528V15.8823C78.57 12.9611 76.2035 10.5946 73.2824 10.5881H5.29412C2.37294 10.5946 0.00646996 12.9611 0 15.8823V83.8705C0.00646996 86.7917 2.37294 89.1581 5.29412 89.1646H73.2824C76.2035 89.1581 78.57 86.7917 78.5765 83.8705V63.3999L90.8471 68.6117C92.88 69.4708 95.208 69.255 97.0483 68.0368C98.8886 66.8186 99.9967 64.7598 100 62.5528V37.1999C99.9844 35.0089 98.8768 32.97 97.0471 31.7646Z" fill="black"/>
</svg>
