<?xml version="1.0" encoding="UTF-8"?>
<svg width="100px" height="100px" viewBox="0 0 100 100" version="1.1" xmlns="http://www.w3.org/2000/svg" xmlns:xlink="http://www.w3.org/1999/xlink">
    <!-- Generator: Sketch 57.1 (83088) - https://sketch.com -->
    <title>regular/video-cross-regular</title>
    <desc>Created with Sketch.</desc>
    <g id="regular/video-cross" stroke="none" stroke-width="1" fill="none" fill-rule="evenodd">
        <path d="M73.2673268,11.3859333 C74.398978,11.3782247 75.4869989,11.8222344 76.2900001,12.6196592 C77.0930013,13.417084 77.5445822,14.5019844 77.5445545,15.6336633 L77.5445545,37.4950495 L90.6534654,31.9306931 C92.5077657,31.1318241 94.6408821,31.329473 96.3168317,32.4554455 C97.9979614,33.5680379 99.0100468,35.4493955 99.0100468,37.4653465 L99.0100468,62.8712871 C99.0177979,64.4686378 98.3894609,66.0034172 97.2636713,67.1366379 C96.1378816,68.2698585 94.6072691,68.908279 93.009901,68.9108911 C92.2006987,68.9101087 91.3997151,68.7485658 90.6534654,68.4356436 L77.5445545,62.8712871 L77.5445545,84.6534654 C77.5445822,85.7851443 77.0930013,86.8700447 76.2900001,87.6674695 C75.4869989,88.4648943 74.398978,88.908904 73.2673268,88.9011955 L4.24752471,88.9011955 C1.90168156,88.9011955 -4.99993007e-08,86.9993085 -4.99993007e-08,84.6534654 L-4.99993007e-08,15.6336633 C-4.99993007e-08,13.2878202 1.90168156,11.3859333 4.24752471,11.3859333 L73.2673268,11.3859333 Z M72.8316832,16.0990099 L4.71287124,16.0990099 L4.71287124,84.2178218 L72.8316832,84.2178218 L72.8316832,16.0990099 Z M93.7128713,36.3861386 C93.3530962,36.1416308 92.8925016,36.1004394 92.4950495,36.2772277 L77.5445545,42.6138614 L77.5445545,57.7227723 L92.4950495,64.059406 C92.8925016,64.2361943 93.3530962,64.1950029 93.7128713,63.9504951 C94.0775839,63.7127099 94.2973678,63.3066685 94.2971376,62.8712871 L94.2971376,37.4653465 C94.3010742,37.0290363 94.0803883,36.6213284 93.7128713,36.3861386 Z M94.9900991,12.0792079 C95.5713477,11.4251692 96.4671395,11.1470495 97.3166001,11.3568906 C98.1660607,11.5667318 98.8293078,12.2299789 99.039149,13.0794395 C99.2489901,13.9289001 98.9708704,14.8246919 98.3168317,15.4059406 L95.2673268,18.4554455 L98.3168317,21.5049505 C98.9350192,22.0946017 99.1856474,22.972656 98.9718594,23.7997829 C98.7580713,24.6269099 98.1133559,25.2735441 97.286868,25.4897892 C96.46038,25.7060343 95.5815848,25.4580165 94.9900991,24.8415841 L91.9405941,21.7920792 L88.8910891,24.8415841 C88.4490049,25.2847663 87.8487507,25.5338359 87.2227723,25.5338359 C86.596794,25.5338359 85.9965397,25.2847663 85.5544555,24.8415841 C85.1112733,24.3994999 84.8622037,23.7992456 84.8622037,23.1732673 C84.8622037,22.547289 85.1112733,21.9470347 85.5544555,21.5049505 L88.6039604,18.4554455 L85.5544555,15.4059406 C84.9380231,14.8144548 84.6900053,13.9356596 84.9062504,13.1091717 C85.1224955,12.2826837 85.7691297,11.6379683 86.5962567,11.4241802 C87.4233836,11.2103922 88.3014379,11.4610204 88.8910891,12.0792079 L91.9405941,15.1287128 L94.9900991,12.0792079 Z" id="Shape" fill="#000000"></path>
    </g>
</svg>