<svg width="100" height="100" viewBox="0 0 100 100" fill="none" xmlns="http://www.w3.org/2000/svg">
<path fill-rule="evenodd" clip-rule="evenodd" d="M90.8471 31.1879C92.8795 30.3275 95.2081 30.544 97.0471 31.7644C98.8768 32.9698 99.9844 35.0086 100 37.1997V62.5408C100 64.7499 98.8942 66.8123 97.0532 68.0333C95.2123 69.2543 92.8819 69.4714 90.8471 68.6114L78.5765 63.3997V83.8702C78.57 86.7914 76.2035 89.1579 73.2824 89.1644H5.29412C2.37294 89.1579 0.00646996 86.7914 0 83.8702V15.882C0.00646996 12.9608 2.37294 10.5944 5.29412 10.5879H73.2824C76.2035 10.5944 78.57 12.9608 78.5765 15.882V36.3526L90.8471 31.1879ZM5.88235 16.4702V83.282H72.6941V16.4702H5.88235ZM93.8 63.1291C94.0013 63.0018 94.1217 62.7789 94.1177 62.5408V37.1997C94.1198 36.9652 93.9994 36.7466 93.8 36.6232C93.6069 36.4868 93.3554 36.4643 93.1412 36.5644L78.5765 42.7408V57.0114L93.1412 63.1879C93.355 63.2905 93.6078 63.2679 93.8 63.1291Z" fill="black"/>
<path d="M98.3056 14.7763L92.4939 20.5881L98.3056 26.3999C98.639 26.7292 98.8266 27.1783 98.8266 27.6469C98.8266 28.1155 98.639 28.5647 98.3056 28.894C97.6167 29.5821 96.5005 29.5821 95.8115 28.894L89.9997 23.0822L84.188 28.894C83.499 29.5821 82.3828 29.5821 81.6939 28.894C81.3605 28.5647 81.1729 28.1155 81.1729 27.6469C81.1729 27.1783 81.3605 26.7292 81.6939 26.3999L87.5056 20.5881L81.6939 14.7763C81.046 14.081 81.0651 12.9975 81.7371 12.3255C82.4091 11.6534 83.4927 11.6343 84.188 12.2822L89.9997 18.094L95.8115 12.2822C96.5068 11.6343 97.5904 11.6534 98.2624 12.3255C98.9344 12.9975 98.9535 14.081 98.3056 14.7763Z" fill="black"/>
</svg>
