<svg width="100" height="100" viewBox="0 0 100 100" fill="none" xmlns="http://www.w3.org/2000/svg">
<path d="M99.0939 15.0775L94.1175 20.1038L99.141 25.0825C100.28 26.2485 100.28 28.1228 99.141 29.2888C97.9891 30.4459 96.1282 30.4459 94.9763 29.2888L89.9998 24.2626L85.0704 29.3363C83.9185 30.4934 82.0576 30.4934 80.9057 29.3363C79.7665 28.1703 79.7665 26.296 80.9057 25.13L85.8822 20.1038L80.8586 15.0775C79.7086 13.916 79.7086 12.0327 80.8586 10.8712C82.0087 9.70961 83.8733 9.70961 85.0233 10.8712L89.9998 15.9449L94.9763 10.8712C96.1507 9.89993 97.864 9.99083 98.9311 11.081C99.9983 12.1712 100.069 13.9025 99.0939 15.0775Z" fill="black"/>
<path d="M90.8471 30.809C92.8795 29.94 95.2081 30.1586 97.0471 31.3912C98.8768 32.6087 99.9844 34.6679 100 36.8808V62.4873C99.9967 64.7164 98.8886 66.7957 97.0483 68.0261C95.208 69.2565 92.88 69.4745 90.8471 68.6067L78.5765 63.3428V84.0181C78.57 86.9685 76.2035 89.3587 73.2824 89.3652H5.29412C2.37294 89.3587 0.00646996 86.9685 0 84.0181V15.35C0.00646996 12.3996 2.37294 10.0095 5.29412 10.003H73.2824C76.2035 10.0095 78.57 12.3996 78.5765 15.35V36.0253L90.8471 30.809Z" fill="black"/>
</svg>
