<?xml version="1.0" encoding="UTF-8"?>
<svg width="100px" height="100px" viewBox="0 0 100 100" version="1.1" xmlns="http://www.w3.org/2000/svg" xmlns:xlink="http://www.w3.org/1999/xlink">
    <!-- Generator: Sketch 57.1 (83088) - https://sketch.com -->
    <title>solid/video-cross-solid</title>
    <desc>Created with Sketch.</desc>
    <g id="solid/video-cross" stroke="none" stroke-width="1" fill="none" fill-rule="evenodd">
        <path d="M71.5940594,13.6930693 C73.8813599,13.6930693 75.7371153,15.5443892 75.7425743,17.8316831 L75.7425743,39.1881188 L88.5247525,33.7623762 C90.3372452,32.9897628 92.4166516,33.1794761 94.059406,34.2673267 C95.723089,35.3577958 96.7188419,37.2187722 96.7033398,39.2079208 L96.7033398,63.9603961 C96.7033398,65.9289898 95.7170203,67.7667021 94.0750766,68.8526964 C92.4331329,69.9386907 90.3556831,70.1279121 88.5445545,69.3564357 L75.7425743,63.9306931 L75.7425743,85.2871287 C75.7371153,87.5744227 73.8813599,89.4257426 71.5940594,89.4257426 L4.14851481,89.4257426 C1.86121433,89.4257426 0.00545890101,87.5744227 -4.9999386e-08,85.2871287 L-4.9999386e-08,17.8316831 C0.00545890101,15.5443892 1.86121433,13.6930693 4.14851481,13.6930693 L71.5940594,13.6930693 Z M91.1485149,12.7326732 C92.312281,11.5689071 94.0085071,11.1144047 95.5982412,11.5403727 C97.1879753,11.9663406 98.429699,13.2080643 98.855667,14.7977984 C99.2816349,16.3875325 98.8271325,18.0837586 97.6633664,19.2475247 L96.3168317,20.5940594 L97.6633664,21.940594 C99.4623929,23.7396206 99.4623929,26.656419 97.6633664,28.4554455 C95.8643398,30.2544721 92.9475415,30.2544721 91.1485149,28.4554455 L89.8019802,27.1089109 L88.4554456,28.4554455 C87.2916795,29.6192117 85.5954534,30.0737141 84.0057193,29.6477461 C82.4159852,29.2217781 81.1742615,27.9800544 80.7482935,26.3903204 C80.3223255,24.8005863 80.776828,23.1043602 81.9405941,21.940594 L83.2871287,20.5940594 L81.9405941,19.2475247 C80.776828,18.0837586 80.3223255,16.3875325 80.7482935,14.7977984 C81.1742615,13.2080643 82.4159852,11.9663406 84.0057193,11.5403727 C85.5954534,11.1144047 87.2916795,11.5689071 88.4554456,12.7326732 L89.8019802,14.0792079 L91.1485149,12.7326732 Z" id="Shape" fill="#000000"></path>
    </g>
</svg>