<?xml version="1.0" encoding="UTF-8"?>
<svg width="100px" height="100px" viewBox="0 0 100 100" version="1.1" xmlns="http://www.w3.org/2000/svg" xmlns:xlink="http://www.w3.org/1999/xlink">
    <!-- Generator: Sketch 57.1 (83088) - https://sketch.com -->
    <title>bold/video-plus-bold</title>
    <desc>Created with Sketch.</desc>
    <g id="bold/video-plus" stroke="none" stroke-width="1" fill="none" fill-rule="evenodd">
        <path d="M72.2178218,10.8910891 C75.6933146,10.8965408 78.5093998,13.712626 78.5148515,17.1881188 L78.5148515,34.6534653 L87.9108911,30.6831683 C90.3747785,29.6257222 93.2063629,29.886526 95.4356436,31.3762376 C97.6758176,32.8466797 99.0206417,35.3500641 99.010028,38.029703 L99.010028,62.2673267 C99.0044377,66.6708013 95.433181,70.2376272 91.029703,70.2376238 C89.9568807,70.2400911 88.8951065,70.0209948 87.9108911,69.5940594 L78.5148515,65.6336634 L78.5148515,83.1089109 C78.5148515,86.5866644 75.6955753,89.4059406 72.2178218,89.4059406 L6.29702966,89.4059406 C2.81927618,89.4059406 -4.99998336e-08,86.5866644 -4.99998336e-08,83.1089109 L-4.99998336e-08,17.1881188 C0.00545171343,13.712626 2.82153688,10.8965408 6.29702966,10.8910891 L72.2178218,10.8910891 Z M69.5148515,19.8910891 L8.99999996,19.8910891 L8.99999996,80.4059406 L69.5148515,80.4059406 L69.5148515,19.8910891 Z M90.009901,39.6039604 L78.5148515,44.4455445 L78.5148515,55.8613861 L90.009901,60.7326733 L90.009901,39.6039604 Z M87.6917804,11.3191781 C89.1161304,10.4668763 90.8937707,10.4668763 92.3181207,11.3191781 C93.7424706,12.17148 94.5827454,13.7379867 94.5049505,15.3960396 C96.1630034,15.3182447 97.7295101,16.1585195 98.581812,17.5828695 C99.4341138,19.0072194 99.4341138,20.7848597 98.581812,22.2092097 C97.7295101,23.6335597 96.1630034,24.4738344 94.5049505,24.3960396 C94.39219,26.7993215 92.4108763,28.6898528 90.0049505,28.6898528 C87.5990247,28.6898528 85.6177111,26.7993215 85.5049505,24.3960396 C83.1016686,24.283279 81.2111373,22.3019654 81.2111373,19.8960396 C81.2111373,17.4901138 83.1016686,15.5088001 85.5049505,15.3960396 C85.4271557,13.7379867 86.2674305,12.17148 87.6917804,11.3191781 Z" id="Shape" fill="#000000"></path>
    </g>
</svg>