<svg width="100" height="100" viewBox="0 0 100 100" fill="none" xmlns="http://www.w3.org/2000/svg">
<path d="M90.8471 31.1879C92.8795 30.3275 95.2081 30.544 97.0471 31.7644C98.8768 32.9698 99.9844 35.0086 100 37.1997V62.5526C99.9967 64.7596 98.8886 66.8183 97.0483 68.0366C95.208 69.2548 92.88 69.4706 90.8471 68.6114L78.5765 63.3997V83.8702C78.57 86.7914 76.2035 89.1579 73.2824 89.1644H5.29412C2.37294 89.1579 0.00646996 86.7914 0 83.8702V15.882C0.00646996 12.9608 2.37294 10.5944 5.29412 10.5879H73.2824C76.2035 10.5944 78.57 12.9608 78.5765 15.882V36.3526L90.8471 31.1879Z" fill="black"/>
<path d="M92.9412 17.6467H97.0588C98.6832 17.6467 100 18.9635 100 20.5879C100 22.2123 98.6832 23.5291 97.0588 23.5291H92.9412V27.6467C92.9412 29.2711 91.6244 30.5879 90 30.5879C88.3756 30.5879 87.0588 29.2711 87.0588 27.6467V23.5291H82.9412C81.3168 23.5291 80 22.2123 80 20.5879C80 18.9635 81.3168 17.6467 82.9412 17.6467H87.0588V13.5291C87.0588 11.9047 88.3756 10.5879 90 10.5879C91.6244 10.5879 92.9412 11.9047 92.9412 13.5291V17.6467Z" fill="black"/>
</svg>
