<svg width="100" height="100" viewBox="0 0 100 100" fill="none" xmlns="http://www.w3.org/2000/svg">
<path d="M97.0471 31.7646C95.2081 30.5443 92.8795 30.3278 90.8471 31.1881L78.5765 36.3528V15.8823C78.57 12.9611 76.2035 10.5946 73.2824 10.5881H5.29412C2.37294 10.5946 0.00646996 12.9611 0 15.8823V83.8705C0.00646996 86.7917 2.37294 89.1581 5.29412 89.1646H73.2824C76.2035 89.1581 78.57 86.7917 78.5765 83.8705V63.3999L90.8471 68.6117C92.8819 69.4716 95.2123 69.2545 97.0532 68.0335C98.8942 66.8125 100 64.7501 100 62.5411V37.1999C99.9844 35.0089 98.8768 32.97 97.0471 31.7646ZM5.88235 83.2822V16.4705H72.6941V40.7881V58.9528V83.2822H5.88235ZM94.1177 62.5411C94.1217 62.7791 94.0013 63.0021 93.8 63.1293C93.6078 63.2682 93.355 63.2907 93.1412 63.1881L78.5765 57.0117V42.7411L93.1412 36.5646C93.3554 36.4646 93.6069 36.487 93.8 36.6234C93.9994 36.7468 94.1198 36.9654 94.1177 37.1999V62.5411Z" fill="black"/>
</svg>
