<svg width="100" height="100" viewBox="0 0 100 100" fill="none" xmlns="http://www.w3.org/2000/svg">
<path fill-rule="evenodd" clip-rule="evenodd" d="M40.2992 34.5678H48.3992L43.3332 65.8968H35.2322L40.2992 34.5678ZM64.7323 47.132C69.4003 49.365 71.5643 52.098 71.5323 55.664C71.4663 62.164 65.9333 66.363 57.4333 66.363C53.7993 66.33 50.2983 65.562 48.3993 64.696L49.5323 57.664L50.5993 58.164C53.2323 59.332 54.9653 59.831 58.2003 59.831C60.5323 59.831 63.0333 58.863 63.0643 56.765C63.0643 55.398 61.9993 54.398 58.8653 52.864C55.7983 51.363 51.6993 48.864 51.7653 44.364C51.7993 38.266 57.4333 34 65.4333 34C68.5663 34 71.1013 34.7 72.6993 35.334L71.5973 42.099L70.8643 41.767C69.3983 41.133 67.4633 40.5 64.8303 40.567C61.6313 40.567 60.1973 41.933 60.1643 43.266C60.1643 44.733 61.8993 45.699 64.7323 47.132ZM83.4657 54.798H90.1987C89.8647 53.232 88.3317 45.733 88.3317 45.733L87.7657 43.033C87.3647 44.199 86.6657 46.1 86.6987 46.032C86.6987 46.032 84.1327 52.998 83.4657 54.798ZM93.4647 34.568L99.9997 65.897H92.4997C92.4997 65.897 91.7657 62.297 91.5327 61.197H81.1327C80.8317 62.029 79.4327 65.897 79.4327 65.897H70.9327L82.9647 37.167C83.7987 35.134 85.2667 34.568 87.1987 34.568H93.4647ZM28.4662 34.5676H37.0322L24.2992 65.8636H15.7332L8.51324 38.6416C6.02224 37.1856 3.17824 36.0136 0.000244141 35.2016L0.133244 34.5676H13.1662C14.9332 34.6336 16.3662 35.2006 16.8332 37.2016L19.6652 51.5966C19.6662 51.5966 19.6662 51.5976 19.6662 51.5986L20.5332 55.9306L28.4662 34.5676Z" fill="black"/>
</svg>
