<svg width="100" height="100" viewBox="0 0 100 100" fill="none" xmlns="http://www.w3.org/2000/svg">
<path fill-rule="evenodd" clip-rule="evenodd" d="M91.667 62.979L86.042 36H80.643C78.976 36 77.708 36.486 76.996 38.239L66.632 62.979H73.958C73.958 62.979 75.156 59.645 75.417 58.933H84.375C84.583 59.888 85.208 62.979 85.208 62.979H91.667ZM67.152 54.16C67.188 51.086 65.313 48.743 61.302 46.816C58.854 45.583 57.361 44.75 57.361 43.482C57.396 42.336 58.629 41.156 61.371 41.156C63.646 41.104 65.313 41.642 66.563 42.18L67.188 42.475L68.143 36.642C66.771 36.104 64.583 35.496 61.893 35.496C55 35.496 50.156 39.176 50.122 44.419C50.069 48.291 53.594 50.444 56.232 51.746C58.924 53.066 59.844 53.933 59.844 55.097C59.809 56.902 57.656 57.736 55.66 57.736C52.882 57.736 51.389 57.301 49.115 56.294L48.194 55.861L47.222 61.919C48.854 62.667 51.875 63.326 55 63.361C62.326 63.378 67.101 59.75 67.152 54.16ZM42.865 62.979L47.24 36H40.26L35.903 62.979H42.865ZM26.476 62.944L37.448 36H30.069L23.247 54.402L22.5 50.669L20.069 38.274C19.67 36.555 18.438 36.069 16.91 36H5.677L5.556 36.538C8.299 37.232 10.747 38.239 12.882 39.506L19.097 62.944H26.476ZM100 19.333V80.444C100 85.044 96.268 88.777 91.667 88.777H8.334C3.732 88.777 0 85.044 0 80.444V19.333C0 14.732 3.732 11 8.334 11H91.667C96.268 11 100 14.732 100 19.333ZM81.614 45.6C81.614 45.6 82.934 52.058 83.229 53.413H77.431C78.004 51.868 80.208 45.861 80.208 45.861C80.174 45.913 80.781 44.281 81.129 43.274L81.614 45.6Z" fill="black"/>
</svg>
