<svg width="100" height="100" viewBox="0 0 100 100" fill="none" xmlns="http://www.w3.org/2000/svg">
<path d="M0.497142 95.9667C1.50729 98.4062 3.88672 99.9977 6.52717 100C8.25918 99.9985 9.91969 99.3092 11.1436 98.0838L98.2467 10.9856C100.645 8.41179 100.574 4.40092 98.0866 1.91329C95.5988 -0.574339 91.5878 -0.645106 89.0138 1.75322L1.91071 88.8514C0.0447869 90.7196 -0.513003 93.5272 0.497142 95.9667Z" fill="black"/>
<path d="M80.8587 3.74533C79.6046 3.47776 78.2967 3.78973 77.2984 4.59454L52.8551 24.0937H23.338C19.2034 24.0997 15.8532 27.4497 15.8472 31.5841V68.7315L80.8587 3.74533Z" fill="black"/>
<path d="M39.6486 75.7431H52.8556L77.2989 95.2422C78.0569 95.8553 79.0023 96.1894 79.9773 96.1894C80.6287 96.1877 81.2717 96.0427 81.8609 95.7648C83.3458 95.0373 84.2907 93.5315 84.2998 91.878V31.0835L39.6486 75.7431Z" fill="black"/>
</svg>
