<?xml version="1.0" encoding="UTF-8"?>
<svg width="100px" height="100px" viewBox="0 0 100 100" version="1.1" xmlns="http://www.w3.org/2000/svg" xmlns:xlink="http://www.w3.org/1999/xlink">
    <!-- Generator: Sketch 57.1 (83088) - https://sketch.com -->
    <title>bold/volume-slash-bold</title>
    <desc>Created with Sketch.</desc>
    <g id="bold/volume-slash" stroke="none" stroke-width="1" fill="none" fill-rule="evenodd">
        <path d="M98.67,2.30999995 C99.5201162,3.1498016 99.9985832,4.29502536 99.9985832,5.48999995 C99.9985832,6.68497455 99.5201162,7.83019831 98.67,8.66999996 L7.75999996,98.67 C6.9080725,99.5205185 5.75381076,99.998764 4.54999995,100.000028 C3.34437158,100.002974 2.18662958,99.5283716 1.32999995,98.68 C0.479288396,97.8384812 0.000583229331,96.6916053 0.000583229331,95.495 C0.000583229331,94.2983948 0.479288396,93.1515189 1.32999995,92.31 L92.24,2.30999995 C94.0230817,0.552570764 96.8869183,0.552570764 98.67,2.30999995 Z M87.4301134,29.35 L87.4301134,93.84 C87.4402403,96.2105908 86.0694779,98.370225 83.92,99.37 C81.8546138,100.37153 79.4121502,100.145337 77.5698536,98.8001712 L77.36,98.64 L52.3,78.91 L37.39,78.91 L46.48,69.91 L55.48,69.91 L78.34,87.91 L78.34,38.35 L87.4301134,29.35 Z M83.2321464,1.34836285 L83.48,1.43999995 L53.5,31.12 L22.09,31.12 C21.8774744,31.1248313 21.7029702,31.2797675 21.6668586,31.482103 L21.66,31.56 L21.66,62.64 L12.79,71.43 C12.6738286,70.9045704 12.6033866,70.3703229 12.5793325,69.8332453 L12.57,69.43 L12.57,31.56 C12.6024675,26.4207045 16.7149115,22.2590846 21.8203903,22.1328987 L22.09,22.13 L52.3,22.13 L77.36,2.33999995 C79.0254079,1.02770239 81.2396337,0.65938557 83.2321464,1.34836285 L83.2321464,1.34836285 Z" id="Shape" fill="#000000"></path>
    </g>
</svg>