<?xml version="1.0" encoding="UTF-8"?>
<svg width="100px" height="100px" viewBox="0 0 100 100" version="1.1" xmlns="http://www.w3.org/2000/svg" xmlns:xlink="http://www.w3.org/1999/xlink">
    <!-- Generator: Sketch 57.1 (83088) - https://sketch.com -->
    <title>regular/volume-down-regular</title>
    <desc>Created with Sketch.</desc>
    <g id="regular/volume-down" stroke="none" stroke-width="1" fill="none" fill-rule="evenodd">
        <path d="M74.361333,0.409963511 C75.7883751,1.09895393 76.6937842,2.54534145 76.6900236,4.12999995 L76.6900236,95.88 C76.6900236,97.4643101 75.7798647,98.907706 74.35,99.59 C73.7850111,99.8605676 73.1664334,100.000003 72.54,100.000003 C71.6166576,99.9916539 70.7226076,99.6748645 70,99.1 L43.08,77.64 L10.6,77.64 C8.57822736,77.637359 6.64060637,76.8303047 5.2147532,75.3969471 C3.78890003,73.9635894 2.99202803,72.0217586 2.99988234,70 L2.99988234,30 C3.00550893,25.8049199 6.40491987,22.4055089 10.6,22.4 L43.08,22.4 L70,0.899999951 C71.2385609,-0.0884958197 72.9342909,-0.279026908 74.361333,0.409963511 Z M71.9,5.45999996 L44.74,27.12 L10.6,27.12 C9.83980318,27.1199246 9.11130943,27.4246226 8.5775412,27.9659087 C8.04377297,28.5071948 7.74929296,29.2398786 7.75945022,30 L7.75945022,70 C7.74929296,70.7601214 8.04377297,71.4928052 8.5775412,72.0340913 C9.11130943,72.5753774 9.83980318,72.8800754 10.6,72.88 L44.74,72.88 L71.9,94.54 L71.9,5.45999996 Z M88.3,33.58 C93.2771598,37.5773043 96.1726121,43.6163834 96.1726121,50 C96.1726121,56.3836166 93.2771598,62.4226957 88.3,66.42 C87.8711814,66.7613474 87.3380686,66.9449359 86.79,66.9401903 C85.7830586,66.9369183 84.8870221,66.3004825 84.5524774,65.3507349 C84.2179327,64.4009874 84.5172851,63.3434808 85.3,62.71 C89.1494547,59.6160704 91.3885861,54.9436943 91.3885861,50.005 C91.3885861,45.0663057 89.1494547,40.3939296 85.3,37.3 C84.2727504,36.4715729 84.111573,34.9672496 84.9400001,33.94 C85.7684272,32.9127504 87.2727504,32.7515729 88.3,33.58 Z" id="Shape" fill="#000000"></path>
    </g>
</svg>