<?xml version="1.0" encoding="UTF-8"?>
<svg width="100px" height="100px" viewBox="0 0 100 100" version="1.1" xmlns="http://www.w3.org/2000/svg" xmlns:xlink="http://www.w3.org/1999/xlink">
    <!-- Generator: Sketch 57.1 (83088) - https://sketch.com -->
    <title>solid/volume-solid</title>
    <desc>Created with Sketch.</desc>
    <g id="solid/volume" stroke="none" stroke-width="1" fill="none" fill-rule="evenodd">
        <path d="M84.33,0.40999995 C82.9121529,-0.270689512 81.2298811,-0.0803169594 80,0.899999951 L53.08,22.36 L20.6,22.36 C18.5782274,22.362641 16.6406064,23.1696953 15.2147532,24.6030529 C13.7889,26.0364106 12.992028,27.9782414 12.9999407,30 L12.9999407,70 C13.0055089,74.1950801 16.4049199,77.5944911 20.6,77.6 L53.08,77.6 L80,99.1 C80.7279894,99.6790845 81.6297892,99.9961235 82.56,100 C83.1796816,99.9977069 83.7911011,99.8576611 84.35,99.59 C85.7831305,98.9061541 86.6941162,97.4579205 86.6900139,95.87 L86.6900139,4.11999995 C86.689044,2.53040338 85.7693474,1.08460906 84.33,0.40999995 Z" id="volume" fill="#000000"></path>
    </g>
</svg>