<svg width="100" height="100" viewBox="0 0 100 100" fill="none" xmlns="http://www.w3.org/2000/svg">
<path d="M53.0826 10.9356C54.357 9.90787 56.1106 9.70952 57.5823 10.4266C59.0661 11.128 60.0089 12.6258 60 14.267V86.5398C60 88.1786 59.0602 89.6721 57.5823 90.3802C57.0034 90.6531 56.3715 90.7953 55.7315 90.7966C54.7692 90.7966 53.8352 90.471 53.0826 89.8712L32.1688 73.1911H6.99825C3.13135 73.1847 0 70.0482 0 66.1813V34.6139C0 30.7714 3.09799 27.6475 6.94042 27.6157H32.1688L53.0826 10.9356Z" fill="black"/>
<path d="M63.4657 36.1254C65.0284 34.1751 67.8574 33.8182 69.8555 35.3192C74.4253 38.9902 77.0837 44.5356 77.0837 50.3973C77.0837 56.259 74.4253 61.8044 69.8555 65.4753C67.8574 66.9764 65.0284 66.6195 63.4657 64.6692C61.9029 62.719 62.1713 59.8802 64.0718 58.2573C66.4564 56.3451 67.8439 53.4538 67.8439 50.3973C67.8439 47.3408 66.4564 44.4495 64.0718 42.5373C62.1713 40.9144 61.9029 38.0756 63.4657 36.1254Z" fill="black"/>
<path d="M89.1962 50.4035C89.2108 42.3056 85.5364 34.6418 79.2135 29.5823C77.216 28.1496 74.4469 28.5289 72.9082 30.446C71.3696 32.3632 71.5987 35.1487 73.4298 36.7888C77.5541 40.0973 79.9538 45.0989 79.9538 50.3862C79.9538 55.6735 77.5541 60.6751 73.4298 63.9836C71.5293 65.6065 71.2609 68.4453 72.8236 70.3955C74.3864 72.3458 77.2154 72.7027 79.2135 71.2017C85.5301 66.1472 89.2037 58.4934 89.1962 50.4035Z" fill="black"/>
<path d="M81.2595 20.1776C82.8381 19.5811 84.6162 19.8914 85.8995 20.9872C94.814 28.1469 100 38.9635 100 50.3972C100 61.8309 94.814 72.6475 85.8995 79.8072C84.6237 80.9499 82.8209 81.2943 81.2136 80.7024C79.6063 80.1105 78.4575 78.6791 78.2275 76.9818C77.9976 75.2845 78.724 73.599 80.1159 72.6007C86.8454 67.1976 90.7605 59.0332 90.7605 50.403C90.7605 41.7727 86.8454 33.6084 80.1159 28.2052C78.7666 27.1916 78.0762 25.5239 78.3143 23.8533C78.5523 22.1826 79.6809 20.774 81.2595 20.1776Z" fill="black"/>
</svg>
