<svg width="100" height="100" viewBox="0 0 100 100" fill="none" xmlns="http://www.w3.org/2000/svg">
<g clip-path="url(#clip0)">
<path d="M0.859307 99.1411C1.41122 99.6934 2.16082 100.003 2.94166 99.9999C3.7225 100.003 4.4721 99.6934 5.02401 99.1411L99.1417 5.02341C99.8856 4.27945 100.176 3.19512 99.9039 2.17886C99.6315 1.1626 98.8378 0.368811 97.8215 0.0965056C96.8052 -0.1758 95.7209 0.114747 94.977 0.8587L0.859307 94.9763C-0.279925 96.1309 -0.279925 97.9865 0.859307 99.1411Z" fill="black"/>
<path d="M19.1647 70.8469C18.9902 70.5295 18.8972 70.1738 18.8941 69.8116V30.1999C18.8941 28.9764 19.8824 27.9828 21.1058 27.9763H55.0588L81.1058 7.19986V8.91751L86.7647 3.24692C86.2797 1.8028 85.1257 0.68276 83.6677 0.241165C82.2098 -0.200431 80.6282 0.0910513 79.4235 1.02339L53 22.094H21.1058C16.6337 22.1005 13.0117 25.7277 13.0117 30.1999V69.8116C13.0145 71.7358 13.7027 73.596 14.9529 75.0587L19.1647 70.8469Z" fill="black"/>
<path d="M81.1056 28.8824V92.8L55.0585 72.0235H37.9644L32.082 77.9059H52.9997L79.4232 98.9765C80.2517 99.6466 81.2871 100.008 82.3526 100C83.0568 100.001 83.7524 99.8445 84.3879 99.5412C85.994 98.7376 87.0026 97.0899 86.9881 95.2941V23L81.1056 28.8824Z" fill="black"/>
</g>
<defs>
<clipPath id="clip0">
<rect width="100" height="100" fill="white"/>
</clipPath>
</defs>
</svg>
