<?xml version="1.0" encoding="UTF-8"?>
<svg width="100px" height="100px" viewBox="0 0 100 100" version="1.1" xmlns="http://www.w3.org/2000/svg" xmlns:xlink="http://www.w3.org/1999/xlink">
    <!-- Generator: Sketch 57.1 (83088) - https://sketch.com -->
    <title>solid/volume-down-solid</title>
    <desc>Created with Sketch.</desc>
    <g id="solid/volume-down" stroke="none" stroke-width="1" fill="none" fill-rule="evenodd">
        <path d="M69,0.899999951 C70.2289185,-0.0826374933 71.9125725,-0.273166467 73.33,0.40999995 C74.7709249,1.08806996 75.6900277,2.53750401 75.6900277,4.12999995 L75.6900277,95.87 C75.6941162,97.4579205 74.7831305,98.9061541 73.35,99.59 C72.7911011,99.8576611 72.1796816,99.9977069 71.56,100 C70.6297891,99.9961235 69.7279894,99.6790845 69,99.1 L42.08,77.6 L9.59999996,77.6 C5.40491987,77.5944911 2.00550893,74.1950801 1.99988234,70 L1.99988234,30 C1.99202803,27.9782414 2.78890003,26.0364106 4.2147532,24.6030529 C5.64060636,23.1696953 7.57822736,22.362641 9.59999996,22.36 L42.08,22.36 L69,0.899999951 Z M88.79,31.73 C94.3288692,36.177085 97.5512578,42.8967868 97.5512578,50 C97.5512578,57.1032132 94.3288692,63.822915 88.79,68.27 C87.9414605,68.9562995 86.8813168,69.3273498 85.79,69.3202112 C83.7672471,69.327583 81.9606215,68.0559446 81.2852847,66.1492439 C80.609948,64.2425433 81.2134173,62.1172703 82.79,60.85 C86.0774506,58.2078244 87.9896847,54.2176324 87.9896847,50 C87.9896847,45.7823676 86.0774506,41.7921756 82.79,39.15 C80.7410237,37.4931457 80.4231459,34.4889765 82.0800001,32.4400001 C83.7368544,30.3910237 86.7410236,30.0731458 88.79,31.73 Z" id="Shape" fill="#000000"></path>
    </g>
</svg>