<svg width="100" height="100" viewBox="0 0 100 100" fill="none" xmlns="http://www.w3.org/2000/svg">
<g clip-path="url(#clip0)">
<path fill-rule="evenodd" clip-rule="evenodd" d="M69.4485 98.9759C70.268 99.6388 71.2902 100 72.3443 100C73.0525 99.9866 73.7486 99.8136 74.3807 99.4938C75.9861 98.7072 77.0076 97.0793 77.0174 95.2915V4.65312C76.9965 2.87172 75.9719 1.25471 74.3701 0.474973C72.7683 -0.30476 70.8635 -0.11367 69.4485 0.968726L43.0221 22.051H11.0986C6.62396 22.0575 3 25.6867 3 30.1614V69.7951C3.00648 74.2651 6.62856 77.8872 11.0986 77.8936H43.0221L69.4485 98.9759ZM9.54553 28.5798C9.96786 28.1619 10.5398 27.9303 11.1339 27.9366H45.0703L71.1318 7.14862V92.796L45.0703 72.008H11.0986C9.8764 72.008 8.88561 71.0173 8.88561 69.7951V30.1614C8.88561 29.5672 9.1232 28.9977 9.54553 28.5798Z" fill="black"/>
<path d="M83.6795 65.3491C84.0942 66.522 85.2018 67.3074 86.4459 67.3109C87.1141 67.3115 87.7622 67.083 88.2822 66.6634C93.3445 62.6017 96.29 56.4621 96.29 49.9718C96.29 43.4815 93.3445 37.3419 88.2822 33.2802C87.0145 32.2628 85.162 32.4657 84.1446 33.7334C83.1272 35.0011 83.3301 36.8536 84.5978 37.871C88.2681 40.818 90.4034 45.2708 90.4034 49.9777C90.4034 54.6847 88.2681 59.1375 84.5978 62.0844C83.6324 62.8691 83.2647 64.1762 83.6795 65.3491Z" fill="black"/>
</g>
<defs>
<clipPath id="clip0">
<rect width="100" height="100" fill="white"/>
</clipPath>
</defs>
</svg>
