<?xml version="1.0" encoding="UTF-8"?>
<svg width="100px" height="100px" viewBox="0 0 100 100" version="1.1" xmlns="http://www.w3.org/2000/svg" xmlns:xlink="http://www.w3.org/1999/xlink">
    <!-- Generator: Sketch 57.1 (83088) - https://sketch.com -->
    <title>bold/volume-down-bold</title>
    <desc>Created with Sketch.</desc>
    <g id="bold/volume-down" stroke="none" stroke-width="1" fill="none" fill-rule="evenodd">
        <path d="M74.1104083,1.58916083 C76.2387911,2.61745691 77.5892384,4.77484974 77.5842023,7.13861382 L77.5842023,93.8514852 C77.5904714,96.2123157 76.2380494,98.366173 74.1089109,99.3861387 C73.2708412,99.7864316 72.3544944,99.9960756 71.4257426,100 C70.0359916,99.9974533 68.6883698,99.5226435 67.6039604,98.6534654 L42.8019802,78.8514852 L12.8910891,78.8514852 C7.69151571,78.8460406 3.47625565,74.6352084 3.46534649,69.4356436 L3.46534649,31.5544554 C3.47079108,26.3494139 7.68605614,22.129721 12.8910891,22.1188119 L42.8019802,22.1188119 L67.6039604,2.31683164 C69.4525934,0.843752404 71.9820254,0.560864744 74.1104083,1.58916083 Z M68.5841584,13.0693069 L45.950495,31.1188119 L12.8910891,31.1188119 C12.6543651,31.1241933 12.4653465,31.3176703 12.4653465,31.5544554 L12.4653465,69.4356436 C12.4653465,69.6707747 12.6559579,69.8613862 12.8910891,69.8613862 L45.950495,69.8613862 L68.5841584,87.9207921 L68.5841584,13.0693069 Z M87.7227723,33.2277228 C92.9561751,37.4316697 96.0005937,43.7822502 96.0005937,50.4950495 C96.0005937,57.2078489 92.9561751,63.5584293 87.7227723,67.7623763 C86.923931,68.4069192 85.9274239,68.7565708 84.9009901,68.7525458 C82.9930871,68.7489241 81.2943208,67.5439044 80.6603784,65.7443979 C80.0264361,63.9448914 80.5948116,61.9411876 82.079208,60.7425743 C85.1906533,58.249029 87.0013794,54.4774365 87.0013794,50.490099 C87.0013794,46.5027616 85.1906533,42.731169 82.079208,40.2376238 C80.1434772,38.6791965 79.8376124,35.8466218 81.3960396,33.9108911 C82.9544669,31.9751604 85.7870416,31.6692955 87.7227723,33.2277228 Z" id="Shape" fill="#000000"></path>
    </g>
</svg>