<svg width="100" height="100" viewBox="0 0 100 100" fill="none" xmlns="http://www.w3.org/2000/svg">
<g clip-path="url(#clip0)">
<path d="M82.3443 100C81.2902 100 80.268 99.6388 79.4485 98.9759L53.0221 77.8936H21.0986C16.6286 77.8872 13.0065 74.2651 13 69.7951V30.1614C13 25.6867 16.624 22.0575 21.0986 22.051H53.0221L79.4485 0.968726C80.8635 -0.11367 82.7683 -0.30476 84.3701 0.474973C85.9719 1.25471 86.9965 2.87172 87.0174 4.65312V95.2915C87.0076 97.0793 85.9861 98.7072 84.3807 99.4938C83.7486 99.8136 83.0525 99.9866 82.3443 100ZM21.1339 27.9366C20.5398 27.9303 19.9679 28.1619 19.5455 28.5798C19.1232 28.9977 18.8856 29.5672 18.8856 30.1614V69.7951C18.8856 71.0173 19.8764 72.008 21.0986 72.008H55.0703L81.1318 92.796V7.14862L55.0703 27.9366H21.1339Z" fill="black"/>
</g>
<defs>
<clipPath id="clip0">
<rect width="100" height="100" fill="white"/>
</clipPath>
</defs>
</svg>
