<svg width="100" height="100" viewBox="0 0 100 100" fill="none" xmlns="http://www.w3.org/2000/svg">
<path fill-rule="evenodd" clip-rule="evenodd" d="M54.0208 90.3003C54.7867 90.9106 55.7372 91.242 56.7166 91.242H56.7401C59.1319 91.2356 61.071 89.3017 61.084 86.91V13.3597C61.0946 11.6837 60.1376 10.1519 58.6266 9.42665C57.1156 8.70138 55.3218 8.91278 54.0208 9.96944L32.7374 26.9444H7.12194C3.19129 26.9509 0.00648089 30.1357 0 34.0663V66.1916C0.00618126 70.1014 3.15354 73.2802 7.06308 73.3253H32.7374L54.0208 90.3003ZM6.20917 33.1956C6.43171 32.962 6.74041 32.8299 7.06308 32.8303H34.7975L55.1745 16.5852V83.6845L34.7975 67.4394H7.06308C6.40167 67.4019 5.88443 66.8541 5.8859 66.1916V34.0663C5.86977 33.7441 5.98663 33.4293 6.20917 33.1956Z" fill="black"/>
<path d="M65.3654 62.7802C65.7813 63.9592 66.8969 64.7467 68.1472 64.744C68.8154 64.7447 69.4636 64.5161 69.9836 64.0965C74.2164 60.6958 76.6787 55.559 76.6787 50.1293C76.6787 44.6995 74.2164 39.5627 69.9836 36.162C68.7158 35.1445 66.8633 35.3474 65.8458 36.6152C64.8283 37.883 65.0312 39.7355 66.299 40.753C69.1434 43.0341 70.7985 46.4831 70.7985 50.1293C70.7985 53.7754 69.1434 57.2244 66.299 59.5055C65.3238 60.2879 64.9494 61.6011 65.3654 62.7802Z" fill="black"/>
<path d="M77.6353 70.583C76.385 70.5858 75.2695 69.7983 74.8535 68.6192C74.4375 67.4402 74.8119 66.127 75.7872 65.3446C80.4021 61.6424 83.0873 56.0458 83.0873 50.1295C83.0873 44.2132 80.4021 38.6166 75.7872 34.9145C74.9671 34.2563 74.5604 33.2106 74.7204 32.1712C74.8803 31.1319 75.5826 30.2569 76.5626 29.8757C77.5427 29.4946 78.6516 29.6653 79.4717 30.3235C85.4791 35.1427 88.9745 42.428 88.9745 50.1295C88.9745 57.831 85.4791 65.1163 79.4717 69.9356C78.9517 70.3552 78.3035 70.5837 77.6353 70.583Z" fill="black"/>
<path d="M81.6909 77.3721C82.1038 78.55 83.2148 79.3392 84.4629 79.3415C85.1359 79.3377 85.7877 79.1053 86.3111 78.6822C94.9654 71.7311 100 61.23 100 50.1297C100 39.0295 94.9654 28.5283 86.3111 21.5772C85.5003 20.8504 84.3545 20.6306 83.3323 21.0059C82.3102 21.3811 81.5787 22.2902 81.4309 23.369C81.2831 24.4477 81.743 25.52 82.6265 26.1564C89.8891 31.9951 94.1134 40.8112 94.1134 50.1297C94.1134 59.4482 89.8891 68.2644 82.6265 74.103C81.653 74.8841 81.278 76.1943 81.6909 77.3721Z" fill="black"/>
</svg>
