<svg width="100" height="100" viewBox="0 0 100 100" fill="none" xmlns="http://www.w3.org/2000/svg">
<g clip-path="url(#clip0)">
<path d="M12.9412 29.7765C11.3168 29.7765 10 28.4597 10 26.8353C10 25.2109 11.3168 23.8941 12.9412 23.8941H82.8471C81.6706 18.0118 76.8941 13.5294 71.2353 13.5294H13.5882C6.07059 13.5294 0 20.3529 0 28.7294V77.7294L1.23529 77.0588C3.38824 82.3294 8.16471 85.9529 13.5294 85.9529H91.1765C96.0471 85.9529 100 81.5765 100 76.2V33.6471C100.004 32.3224 99.7561 31.009 99.2706 29.7765H12.9412ZM88.5059 58.2353C87.1679 58.2543 85.9504 57.4648 85.4219 56.2354C84.8934 55.0061 85.1581 53.5794 86.0924 52.6215C87.0267 51.6636 88.4464 51.3633 89.6885 51.861C90.9307 52.3587 91.7503 53.5561 91.7647 54.8941C91.7843 56.7154 90.3271 58.2095 88.5059 58.2353Z" fill="black"/>
</g>
<defs>
<clipPath id="clip0">
<rect width="100" height="100" fill="white"/>
</clipPath>
</defs>
</svg>
