<svg width="100" height="100" viewBox="0 0 100 100" fill="none" xmlns="http://www.w3.org/2000/svg">
<path d="M91.1765 23.8941H82.8353C81.6588 18.0118 76.9529 13.5294 71.2353 13.5294H13.5882C6.07059 13.5294 0 20.3529 0 28.7294V72.5765C0.0051896 73.0163 0.105527 73.4497 0.294118 73.8471C1.6 80.7176 7.05882 85.8941 13.5294 85.8941H91.1765C96.0471 85.8941 100 81.5176 100 76.1412V33.6471C100 28.2706 96.0471 23.8941 91.1765 23.8941ZM91.1765 80.0118H13.5294C9.31765 80.0118 5.88235 75.8824 5.88235 70.6941V28.7294C5.88235 23.5882 9.31765 19.4118 13.5294 19.4118H71.2353C73.8416 19.5778 76.0565 21.3771 76.7529 23.8941H12.9412C11.3168 23.8941 10 25.2109 10 26.8353C10 28.4597 11.3168 29.7765 12.9412 29.7765H91.1765C92.7765 29.7765 94.1176 31.5529 94.1176 33.6471V52.2C92.8592 49.5673 89.9459 48.1565 87.1001 48.8017C84.2544 49.4468 82.2343 51.9761 82.2343 54.8941C82.2343 57.8121 84.2544 60.3414 87.1001 60.9866C89.9459 61.6317 92.8592 60.2209 94.1176 57.5882V76.1412C94.1176 78.2353 92.7765 80.0118 91.1765 80.0118ZM88.8235 54.8941C88.8235 55.0955 88.6602 55.2588 88.4588 55.2588C88.2574 55.2588 88.0941 55.0955 88.0941 54.8941C88.0941 54.6927 88.2574 54.5294 88.4588 54.5294C88.5634 54.5158 88.6688 54.5481 88.7477 54.6181C88.8267 54.688 88.8715 54.7887 88.8706 54.8941H88.8235Z" fill="black"/>
</svg>
