<?xml version="1.0" encoding="UTF-8"?>
<svg width="100px" height="100px" viewBox="0 0 100 100" version="1.1" xmlns="http://www.w3.org/2000/svg" xmlns:xlink="http://www.w3.org/1999/xlink">
    <!-- Generator: Sketch 57.1 (83088) - https://sketch.com -->
    <title>regular/wallet-regular</title>
    <desc>Created with Sketch.</desc>
    <g id="regular/wallet" stroke="none" stroke-width="1" fill="none" fill-rule="evenodd">
        <path d="M71.49,13.5 C77.08,13.5 81.73,18.03 82.73,23.99 L91.67,23.99 C96.26,23.99 100,28.15 100,33.23 L100,76.23 C100,81.34 96.26,85.5 91.67,85.5 L13.1,85.5 C6.77999996,85.5 1.49999995,80.5 0.26999995,73.74 C0.0944297936,73.406962 0.00180887637,73.0364783 -4.99996062e-08,72.66 L-4.99996062e-08,28.29 C-4.99996062e-08,20.13 5.86999996,13.5 13.1,13.5 L71.49,13.5 Z M71.49,18.29 L13.1,18.29 C8.49999996,18.29 4.75999995,22.76 4.75999995,28.29 L4.75999995,70.77 C4.75999995,76.27 8.49999996,80.77 13.1,80.77 L91.67,80.77 C93.64,80.77 95.24,78.75 95.24,76.26 L95.24,33.29 C95.24,30.78 93.67,28.78 91.67,28.78 L12.47,28.78 C11.6197078,28.78 10.8340055,28.3263746 10.4088594,27.59 C9.98371337,26.8536254 9.98371337,25.9463745 10.4088594,25.21 C10.8340055,24.4736254 11.6197078,24.0199999 12.47,24.02 L77.88,24.02 C77.04,20.71 74.49,18.29 71.49,18.29 Z M89,49.0399825 C92.156786,49.0455044 94.7144956,51.6032141 94.7200176,54.76 C94.7240443,57.0793837 93.3294591,59.1724483 91.1873994,60.0619073 C89.0453396,60.9513662 86.5783413,60.4617676 84.9382869,58.8217132 C83.2982324,57.1816587 82.8086338,54.7146604 83.6980928,52.5726007 C84.5875517,50.4305409 86.6806163,49.0359557 89,49.0399825 Z M89,53.72 C88.4477153,53.72 88,54.1677153 88,54.72 C88,55.2722848 88.4477153,55.72 89,55.72 C89.5522848,55.72 90,55.2722848 90,54.72 C90,54.1677153 89.5522848,53.72 89,53.72 Z" id="Shape" fill="#000000"></path>
    </g>
</svg>