<?xml version="1.0" encoding="UTF-8"?>
<svg width="100px" height="100px" viewBox="0 0 100 100" version="1.1" xmlns="http://www.w3.org/2000/svg" xmlns:xlink="http://www.w3.org/1999/xlink">
    <!-- Generator: Sketch 57.1 (83088) - https://sketch.com -->
    <title>bold/wallet-bold</title>
    <desc>Created with Sketch.</desc>
    <g id="bold/wallet" stroke="none" stroke-width="1" fill="none" fill-rule="evenodd">
        <path d="M89.77,23 L83,23 C81.31,17.21 76.35,13 70.51,13 L14.77,13 C6.62999996,13 -4.9999997e-08,20.35 -4.9999997e-08,29.39 L-4.9999997e-08,71.74 C-4.9999997e-08,72.3631058 0.129657686,72.9793954 0.37999995,73.55 C1.87999995,80.84 7.74999996,86.3 14.77,86.3 L89.77,86.3 C95.41,86.3 100,81.3 100,75.18 L100,34.18 C100,28 95.41,23 89.77,23 Z M89.77,77.19 L14.77,77.19 C11.69,77.19 9.08999996,73.85 9.08999996,69.9 L9.08999996,29.39 C9.08999996,25.39 11.69,22.09 14.77,22.09 L70.51,22.09 C71.3505008,22.10489 72.1542705,22.4371149 72.76,23.02 L14.17,23.02 C11.7426852,23.1338881 9.83324864,25.1350149 9.83324864,27.565 C9.83324864,29.994985 11.7426852,31.9961118 14.17,32.11 L89.77,32.11 C90.17,32.11 90.91,32.88 90.91,34.11 L90.91,47.87 C88.0739335,46.3181821 84.5721178,46.6924997 82.1281363,48.8087147 C79.6841547,50.9249298 78.8128822,54.337218 79.9431565,57.3660613 C81.0734308,60.3949046 83.9671364,62.4022149 87.2,62.4 C88.5016637,62.3881681 89.7787183,62.0439486 90.91,61.4 L90.91,75.18 C90.91,76.44 90.17,77.21 89.77,77.21 L89.77,77.19 Z M88.55,54.66 C88.5499851,55.2109755 88.2175394,55.7075017 87.7081134,55.9174045 C87.1986875,56.1273073 86.612951,56.0091068 86.2247928,55.6180734 C85.8366346,55.2270399 85.7227601,54.6404471 85.9364167,54.1325841 C86.1500733,53.6247211 86.6490395,53.2959487 87.2,53.3 C87.5597817,53.299963 87.9046837,53.4435938 88.1581472,53.6989348 C88.4116107,53.9542759 88.5526651,54.3002282 88.55,54.66 L88.55,54.66 Z" id="wallet" fill="#000000"></path>
    </g>
</svg>