<?xml version="1.0" encoding="UTF-8"?>
<svg width="100px" height="100px" viewBox="0 0 100 100" version="1.1" xmlns="http://www.w3.org/2000/svg" xmlns:xlink="http://www.w3.org/1999/xlink">
    <!-- Generator: Sketch 57.1 (83088) - https://sketch.com -->
    <title>solid/wand-solid</title>
    <desc>Created with Sketch.</desc>
    <g id="solid/wand" stroke="none" stroke-width="1" fill="none" fill-rule="evenodd">
        <path d="M9.40196074,79.4117647 L21.0784313,91.0784314 L15.6568627,96.6470589 C12.4081289,99.8957926 7.14089073,99.8957925 3.89215697,96.6470587 C0.709723891,93.4646256 0.644776212,88.3452354 3.69731398,85.0837428 L3.89215682,84.882353 L9.40196074,79.4117647 Z M40.6764706,48.0980392 L49.6176471,50.872549 L52.3921569,59.8137255 L24.4215686,87.7843138 L12.7058823,76.0686275 L40.6764706,48.0980392 Z M55.872549,1.48039211 C57.4059906,0.687258152 59.2583613,0.843528105 60.6372549,1.88235289 L73.3921569,11.4019607 L88.4509804,6.30392152 C90.0840922,5.7494713 91.8903643,6.17059123 93.1098865,7.39011347 C94.3294088,8.60963571 94.7505287,10.4159078 94.1960785,12.0490196 L89.0882353,27.1078431 L98.6078432,39.8529412 L98.6078432,39.8137255 C99.6361012,41.1984474 99.7907531,43.046287 99.0069719,44.5826646 C98.2231906,46.1190423 96.6364046,47.0784893 94.9117648,47.0588235 L79.0490196,46.8235294 L69.8627451,59.8039216 C69.0322415,61.0251086 67.6532904,61.7585932 66.1764706,61.7647059 C65.9220071,61.7858487 65.6662283,61.7858487 65.4117647,61.7647059 C63.6993866,61.4951413 62.2930697,60.2679488 61.7941177,58.6078431 L57.0686275,43.4117647 L41.8823529,38.6960784 C40.2338103,38.1843606 39.0194296,36.7801253 38.7508583,35.0750102 C38.4822871,33.3698952 39.2062201,31.6603576 40.617647,30.6666666 L53.6372549,21.4803921 L53.4313726,5.57843133 C53.3969717,3.85864681 54.3438766,2.26906357 55.872549,1.48039211 Z" id="Shape" fill="#000000"></path>
    </g>
</svg>