<svg width="100" height="100" viewBox="0 0 100 100" fill="none" xmlns="http://www.w3.org/2000/svg">
<path d="M89.5227 26.8084L98.9297 39.4065L98.9885 39.4182C100.145 40.9825 100.324 43.064 99.4523 44.8031C98.5807 46.5421 96.8059 47.6435 94.8612 47.6523H94.7906L79.0809 47.4523L70.0031 60.2856C69.0457 61.6564 67.4767 62.4697 65.8052 62.4623C65.5335 62.4657 65.2621 62.446 64.9938 62.403C63.058 62.1156 61.4581 60.7438 60.8782 58.8741L56.1747 43.8646L41.1705 39.1594C39.2948 38.5794 37.9104 36.9851 37.5986 35.0461C37.2867 33.1071 38.1014 31.159 39.7006 30.0197L52.5295 20.9505L52.3296 5.2352C52.2933 3.26909 53.3815 1.45458 55.1327 0.561178C56.8839 -0.332228 58.9911 -0.147958 60.5607 1.03584L73.1544 10.4344L88.0293 5.38812C89.8881 4.75347 91.946 5.23166 93.3348 6.62097C94.7236 8.01028 95.2016 10.0688 94.5672 11.9283L89.5227 26.8084Z" fill="black"/>
<path d="M52.8589 47.1108L43.2285 44.123L11.9265 75.4359L24.5555 88.0692L55.8574 56.7564L52.8589 47.1108Z" fill="black"/>
<path d="M7.76388 79.5883L2.62528 84.6934C-0.875095 88.195 -0.875094 93.8722 2.62528 97.3738C6.12566 100.875 11.8009 100.875 15.3013 97.3738L20.4281 92.2334L7.76388 79.5883Z" fill="black"/>
</svg>
