<svg width="100" height="100" viewBox="0 0 100 100" fill="none" xmlns="http://www.w3.org/2000/svg">
<g clip-path="url(#clip0)">
<path d="M98.9879 39.4059L89.5754 26.8078L94.6229 11.9278C95.2577 10.0683 94.7794 8.00977 93.3897 6.62046C92.0001 5.23115 89.941 4.75297 88.0811 5.38761L73.1975 10.4339L60.5964 1.03535C59.0259 -0.148446 56.9174 -0.332715 55.1652 0.560688C53.413 1.45409 52.3242 3.2686 52.3604 5.2347L52.5605 20.9499L39.7241 30.0191C38.124 31.1584 37.3088 33.1065 37.6208 35.0455C37.9328 36.9845 39.318 38.5788 41.1948 39.1588L46.56 40.8292L2.62682 84.6929C-0.875608 88.1945 -0.875608 93.8717 2.62682 97.3733C6.12926 100.875 11.8078 100.875 15.3103 97.3733L59.1846 53.4743L60.8553 58.8146C61.4355 60.6844 63.0364 62.0561 64.9733 62.3435C65.2413 62.3904 65.513 62.414 65.7851 62.4141C67.4584 62.4133 69.0261 61.5967 69.9855 60.2262L79.0686 47.3929L94.7876 47.5928H94.8582C96.804 47.584 98.5798 46.4827 99.452 44.7436C100.324 43.0046 100.145 40.923 98.9879 39.3588V39.4059ZM11.1099 93.2093C9.90103 94.3609 8.00075 94.3609 6.79188 93.2093C6.21489 92.6391 5.89017 91.8618 5.89017 91.0508C5.89017 90.2397 6.21489 89.4624 6.79188 88.8923L11.9217 83.7519L16.2515 88.0689L11.1099 93.2093ZM20.4048 83.9166L16.0868 79.5878L52.8899 42.8053L56.1843 43.8287L57.2079 47.1223L20.4048 83.9166ZM78.7627 41.5702H78.6921C77.0188 41.5724 75.4497 42.383 74.48 43.7464L66.0322 55.6974L61.6907 41.7114C61.181 40.0933 59.9106 38.8275 58.2904 38.3237L44.3127 33.9832L56.2667 25.5257C57.6537 24.5496 58.4685 22.9513 58.4433 21.2557L58.2551 6.62272L70.0208 15.3743C71.3738 16.3752 73.1292 16.656 74.7271 16.1271L88.5871 11.422L83.8808 25.2786C83.3456 26.8756 83.6269 28.6334 84.6338 29.9838L93.3875 41.7467L78.7627 41.5702Z" fill="black"/>
</g>
<defs>
<clipPath id="clip0">
<rect width="100" height="100" fill="white"/>
</clipPath>
</defs>
</svg>
