<?xml version="1.0" encoding="UTF-8"?>
<svg width="100px" height="100px" viewBox="0 0 100 100" version="1.1" xmlns="http://www.w3.org/2000/svg" xmlns:xlink="http://www.w3.org/1999/xlink">
    <!-- Generator: Sketch 57.1 (83088) - https://sketch.com -->
    <title>bold/wand-bold</title>
    <desc>Created with Sketch.</desc>
    <g id="bold/wand" stroke="none" stroke-width="1" fill="none" fill-rule="evenodd">
        <path d="M98.6831684,38.3762376 L90.2178218,27.0297029 L94.7623763,13.6336633 C95.5689952,11.2473549 94.952274,8.61005726 93.1711084,6.82889163 C91.3899427,5.04772601 88.7526451,4.43100478 86.3663367,5.23762372 L72.9603961,9.78217818 L61.6237624,1.31683163 C59.6009256,-0.182916202 56.9033386,-0.408017572 54.6599141,0.735730163 C52.4164897,1.8794779 51.0140895,4.194844 51.039604,6.71287124 L51.2277228,20.8613861 L39.6732673,29.0297029 C37.6152124,30.4907518 36.5681156,32.9957455 36.9741748,35.4868035 C37.3802341,37.9778614 39.1686498,40.0206474 41.5841584,40.7524752 L44.0495049,41.5247525 L10.8910891,74.6336634 L10.8910891,74.6336634 L3.96039599,81.5643565 C1.37464196,84.1536477 0.366677129,87.9257347 1.31619212,91.459709 C2.2657071,94.9936833 5.02844799,97.7526499 8.56371698,98.6973329 C12.098986,99.6420159 15.8696916,98.6288953 18.4554455,96.039604 L58.4752475,56 L59.2376238,58.4653465 C59.9760045,60.8784718 62.0305178,62.6559721 64.5247525,63.039604 C64.8748427,63.0983402 65.2291757,63.1281439 65.5841584,63.1287129 C67.7295433,63.1309947 69.7406652,62.0847677 70.9702971,60.3267327 L79.1386139,48.7722772 L93.2871288,48.950495 L93.3762377,48.950495 C95.8780257,48.9467888 98.1642737,47.5338345 99.2864571,45.2978422 C100.408641,43.0618499 100.175271,40.3843681 98.6831684,38.3762376 Z M11.2178217,90.009901 C10.8892287,90.0135348 10.5738053,89.8809136 10.3465346,89.6435644 C9.87363168,89.1589592 9.87363168,88.3855953 10.3465346,87.9009901 L14.0693069,84.1584159 L15.8415841,85.9306931 L12.1188118,89.6435644 C11.8852479,89.889724 11.5568925,90.0232311 11.2178217,90.009901 Z M22.1782178,79.5643565 L20.4356435,77.8118812 L53.7128713,44.5544554 L55.039604,44.970297 L55.4455446,46.2871287 L22.1782178,79.5643565 Z M78,39.7524752 L77.9207921,39.7524752 C75.7672402,39.7583344 73.7509676,40.8107844 72.5148515,42.5742574 L66.4059406,51.1881188 L63.2673267,41.0891089 C62.618476,39.0098049 60.9901951,37.381524 58.9108911,36.7326733 L48.8019802,33.5940594 L57.4257426,27.4851485 C59.2009824,26.2264391 60.2446928,24.1760293 60.2178218,22 L60.0891089,11.4158415 L68.5643565,17.7425742 C70.3078022,19.0537172 72.5844309,19.4239007 74.6534654,18.7326732 L84.6633664,15.3267326 L81.2871287,25.3267326 C80.5959013,27.3957671 80.9660848,29.6723958 82.2772278,31.4158415 L88.6039604,39.8910891 L78,39.7524752 Z" id="wand" fill="#000000"></path>
    </g>
</svg>