<?xml version="1.0" encoding="UTF-8"?>
<svg width="100px" height="100px" viewBox="0 0 100 100" version="1.1" xmlns="http://www.w3.org/2000/svg" xmlns:xlink="http://www.w3.org/1999/xlink">
    <!-- Generator: Sketch 57.1 (83088) - https://sketch.com -->
    <title>bold/warning-bold</title>
    <desc>Created with Sketch.</desc>
    <g id="bold/warning" stroke="none" stroke-width="1" fill="none" fill-rule="evenodd">
        <path d="M50,5.49875803 C53.1445564,5.49875803 56.0579414,7.12317099 57.7137234,9.77971308 L57.87,10.04 L98.77,80.88 L98.77,80.87 C100.391021,83.6818108 100.389853,87.1445943 98.7669372,89.9553115 C97.1947374,92.6781938 94.3316675,94.3888816 91.2035173,94.4947813 L90.9,94.5 L9.09999996,94.5 C5.85747925,94.4961445 2.86252641,92.7653465 1.24026177,89.9578187 C-0.327927393,87.243875 -0.383854289,83.9210713 1.073808,81.1632305 L1.22999995,80.88 L42.13,10.04 L42.2862766,9.77971308 C43.9420586,7.12317099 46.8554436,5.49875803 50,5.49875803 Z M50,14.59 L9.09999996,85.42 L90.9,85.42 L50,14.59 Z M50,69.97 C52.5073728,69.97 54.54,72.0026273 54.54,74.51 C54.54,77.0173728 52.5073728,79.05 50,79.05 C47.4926272,79.05 45.46,77.0173728 45.46,74.51 C45.46,72.0026273 47.4926272,69.97 50,69.97 Z M50,25.51 C52.4357335,25.51 54.4234623,27.4281364 54.5350585,29.8362813 L54.54,30.05 L54.54,63.72 C54.54,66.2273728 52.5073728,68.26 50,68.26 C47.5642665,68.26 45.5765377,66.3418636 45.4649415,63.9337187 L45.46,63.72 L45.46,30.05 C45.46,27.5426272 47.4926272,25.51 50,25.51 Z" id="Shape" fill="#000000"></path>
    </g>
</svg>