<svg width="100" height="100" viewBox="0 0 100 100" fill="none" xmlns="http://www.w3.org/2000/svg">
<g clip-path="url(#clip0)">
<path d="M53.1765 69.5287L53.4941 31.269H46.5175L46.8234 69.5287H53.1765Z" fill="black"/>
<path d="M46.1173 74.3373C46.113 72.1881 47.8506 70.4418 49.9998 70.4352C51.0346 70.4321 52.0282 70.841 52.761 71.5717C53.4939 72.3023 53.9058 73.2946 53.9058 74.3295C53.9058 76.4786 52.1646 78.2215 50.0155 78.2237C47.8663 78.2258 46.1217 76.4865 46.1173 74.3373Z" fill="black"/>
<path fill-rule="evenodd" clip-rule="evenodd" d="M8.8226 94.9886C5.67282 94.9886 2.76209 93.3088 1.18527 90.5821C-0.391548 87.8554 -0.395319 84.4949 1.17537 81.7647L42.3528 10.4455C43.9178 7.69716 46.8373 6 50 6C53.1627 6 56.0822 7.69716 57.6472 10.4455L98.8246 81.7647C100.393 84.4913 100.392 87.8468 98.8206 90.5719C97.2495 93.2971 94.3465 94.9798 91.2009 94.9886H8.8226ZM50 11.916C48.9509 11.905 47.9799 12.4695 47.4705 13.3867L6.29314 84.706C5.77525 85.6125 5.77676 86.7257 6.2971 87.6308C6.81743 88.5359 7.7786 89.0974 8.8226 89.1061H91.1774C92.2214 89.0974 93.1825 88.5359 93.7029 87.6308C94.2232 86.7257 94.2247 85.6125 93.7068 84.706L52.5295 13.3867C52.0181 12.4714 51.0484 11.9076 50 11.916Z" fill="black"/>
</g>
<defs>
<clipPath id="clip0">
<rect width="100" height="100" fill="white"/>
</clipPath>
</defs>
</svg>
