<svg width="100" height="100" viewBox="0 0 100 100" fill="none" xmlns="http://www.w3.org/2000/svg">
<g clip-path="url(#clip0)">
<path d="M98.818 81.7189L57.6462 10.4211C56.0717 7.68585 53.156 6 50 6C46.844 6 43.9283 7.68585 42.3538 10.4211L1.182 81.7189C-0.395553 84.4513 -0.393896 87.8181 1.18635 90.549C2.7666 93.2798 5.68486 94.9589 8.83996 94.9527H91.1836C94.3345 94.9505 97.245 93.2681 98.8195 90.5388C100.394 87.8095 100.393 84.4476 98.818 81.7189ZM53.4937 31.2422L53.1761 69.532H46.8239L46.518 31.2775L53.4937 31.2422ZM49.9647 80.5425C47.8158 80.5361 46.0785 78.7899 46.0828 76.6411C46.0871 74.4922 47.8315 72.7531 49.9804 72.7552C52.1293 72.7574 53.8702 74.5 53.8702 76.6489C53.8702 78.7901 52.1412 80.5296 50 80.5425H49.9647Z" fill="black"/>
</g>
<defs>
<clipPath id="clip0">
<rect width="100" height="100" fill="white"/>
</clipPath>
</defs>
</svg>
