<svg width="100" height="100" viewBox="0 0 100 100" fill="none" xmlns="http://www.w3.org/2000/svg">
<g clip-path="url(#clip0)">
<path d="M45.6661 67.4027H54.3353L54.5958 33.7682H45.3952L45.6661 67.4027Z" fill="black"/>
<path d="M54.9077 73.0218C54.9077 75.7594 52.7105 77.9786 50 77.9786C47.2896 77.9786 45.0923 75.7594 45.0923 73.0218C45.0923 70.2843 47.2896 68.065 50 68.065C52.7105 68.065 54.9077 70.2843 54.9077 73.0218Z" fill="black"/>
<path fill-rule="evenodd" clip-rule="evenodd" d="M98.1912 74.6214L61.7222 10.8254C59.3002 6.60099 54.8332 4 50 4C45.1668 4 40.6998 6.60099 38.2778 10.8254L1.80876 74.6214C-0.605758 78.854 -0.602728 84.0657 1.81671 88.2954C4.23615 92.5251 8.70489 95.131 13.5414 95.1325H86.4795C91.3122 95.1235 95.7741 92.5146 98.1885 88.2863C100.603 84.058 100.604 78.8507 98.1912 74.6214ZM19.0013 78.2943L50.0104 23.9803L81.0508 78.2837L19.0013 78.2943Z" fill="black"/>
</g>
<defs>
<clipPath id="clip0">
<rect width="100" height="100" fill="white"/>
</clipPath>
</defs>
</svg>
