<?xml version="1.0" encoding="UTF-8"?>
<svg width="100px" height="100px" viewBox="0 0 100 100" version="1.1" xmlns="http://www.w3.org/2000/svg" xmlns:xlink="http://www.w3.org/1999/xlink">
    <!-- Generator: Sketch 57.1 (83088) - https://sketch.com -->
    <title>regular/wifi-regular</title>
    <desc>Created with Sketch.</desc>
    <g id="regular/wifi" stroke="none" stroke-width="1" fill="none" fill-rule="evenodd">
        <path d="M49.5049505,62.7722772 C54.5192586,62.7722772 58.5841584,66.8371771 58.5841584,71.8514852 C58.5787016,76.8635312 54.5169966,80.9252363 49.5049505,80.9306931 C44.4906424,80.9306931 40.4257426,76.8657933 40.4257426,71.8514852 C40.4257426,66.8371771 44.4906424,62.7722772 49.5049505,62.7722772 Z M49.5049505,67.4950495 C47.7380322,67.4950495 46.1452846,68.5599523 45.4700429,70.1927563 C44.7948012,71.8255604 45.1701847,73.7043739 46.421002,74.9523549 C47.6718193,76.2003359 49.5514801,76.5714533 51.1827471,75.8925066 C52.814014,75.2135599 53.8752938,73.618399 53.8713097,71.8514852 C53.8658277,69.4438915 51.9125503,67.4950495 49.5049505,67.4950495 Z M49.5049505,43.5643564 C61.6138614,43.5643564 72.3960396,48.6633663 77.6534654,56.8712871 C78.1999822,57.9534256 77.8402691,59.2735678 76.8203313,59.9288779 C75.8003935,60.5841879 74.4501701,60.3626799 73.6930693,59.4158416 C69.3069307,52.6732673 59.8613861,48.3069307 49.5049505,48.3069307 C39.1485148,48.3069307 29.7029703,52.6831683 25.3267326,59.4059406 C24.9059931,60.0990159 24.1572729,60.5257864 23.3465346,60.534732 C22.8961826,60.5373176 22.4551526,60.4063868 22.0792079,60.1584159 C21.551444,59.8246992 21.1784544,59.2943945 21.0428018,58.6848866 C20.9071491,58.0753787 21.020022,57.4369399 21.3564356,56.9108911 C26.6138614,48.6930693 37.3960396,43.5643564 49.5049505,43.5643564 Z M49.5049505,18.8118812 C70.4851485,18.8118812 89.3366337,28.7128713 98.6831684,44.7623762 C99.0024362,45.299695 99.0931316,45.9425242 98.9349856,46.5472003 C98.7768395,47.1518764 98.3830358,47.6679905 97.8415842,47.980198 C97.4813484,48.1921223 97.0714097,48.3048555 96.6534654,48.3069307 C95.8145688,48.3065559 95.0385747,47.8620545 94.6138614,47.1386139 C86.1386139,32.5742574 68.8217822,23.5247524 49.5049505,23.5247524 C30.1881188,23.5247524 12.8712871,32.5742574 4.39603956,47.1386139 C3.72976023,48.2398493 2.30311907,48.6027322 1.19163648,47.9536913 C0.0801538885,47.3046503 -0.304912351,45.8838361 0.326732624,44.7623762 C9.67326729,28.7128713 28.5247525,18.8118812 49.5049505,18.8118812 Z" id="Shape" fill="#000000"></path>
    </g>
</svg>