<svg width="100" height="100" viewBox="0 0 100 100" fill="none" xmlns="http://www.w3.org/2000/svg">
<path d="M49.9266 11C67.9881 11 85.2941 18.2483 97.9646 31.1199V31.1633C99.6929 32.7992 100.391 35.2477 99.7854 37.549C99.1797 39.8504 97.3667 41.6379 95.057 42.211C92.7473 42.7841 90.3089 42.0513 88.6977 40.3C78.4695 29.9151 64.5027 24.0675 49.9266 24.0675C35.3505 24.0675 21.3837 29.9151 11.1555 40.3C8.62048 42.859 4.49099 42.8784 1.93202 40.3434C-0.626958 37.8084 -0.646391 33.6789 1.88861 31.1199C14.5591 18.2483 31.8651 11 49.9266 11Z" fill="black"/>
<path d="M12.6526 41.9062C22.4358 31.836 35.8863 26.1661 49.9262 26.1936C63.9662 26.1661 77.4166 31.836 87.1999 41.9062C88.9228 43.5464 89.614 45.9958 89.0026 48.2948C88.3913 50.5937 86.5748 52.3763 84.2647 52.9441C81.9547 53.5119 79.5188 52.7747 77.9113 51.0211C70.543 43.4984 60.4563 39.2589 49.9262 39.2589C39.3961 39.2589 29.3094 43.4984 21.9411 51.0211C19.3993 53.4411 15.3967 53.4108 12.8918 50.9527C10.3868 48.4945 10.281 44.4933 12.6526 41.9062Z" fill="black"/>
<path d="M49.9269 41.4829C39.9295 41.4535 30.3522 45.5015 23.4067 52.6923C20.8986 55.2692 20.9545 59.3914 23.5315 61.8995C26.1084 64.4075 30.2306 64.3516 32.7387 61.7747C37.2489 57.126 43.4498 54.5024 49.9269 54.5024C56.4039 54.5024 62.6048 57.126 67.1151 61.7747C68.7375 63.4417 71.126 64.1165 73.3809 63.5449C75.6357 62.9734 77.4144 61.2423 78.0468 59.0037C78.6793 56.7652 78.0695 54.3593 76.447 52.6923C69.5029 45.4994 59.9247 41.451 49.9269 41.4829Z" fill="black"/>
<path fill-rule="evenodd" clip-rule="evenodd" d="M34.1169 63.5434C38.2299 59.1993 43.9447 56.7322 49.927 56.718C55.9093 56.7322 61.6241 59.1993 65.7371 63.5434L70.0776 68.1443L49.927 88.2948L29.7764 68.1443L34.1169 63.5434ZM49.7859 69.7394L49.927 69.8805L50.0681 69.7394H49.7859Z" fill="black"/>
</svg>
