<svg width="100" height="100" viewBox="0 0 100 100" fill="none" xmlns="http://www.w3.org/2000/svg">
<g clip-path="url(#clip0)">
<path d="M94.9766 37.6989C95.5266 38.2638 96.2819 38.582 97.0703 38.581C98.2528 38.572 99.3158 37.8582 99.7717 36.7671C100.228 35.6759 99.9884 34.4181 99.1639 33.5704C86.1984 20.41 68.4961 13 50.0218 13C31.5475 13 13.8452 20.41 0.879717 33.5704C0.122419 34.3145 -0.17498 35.409 0.101627 36.434C0.378234 37.459 1.18589 38.2553 2.21471 38.5174C3.24353 38.7795 4.33373 38.4666 5.06703 37.6989C16.9273 25.6591 33.1215 18.88 50.0218 18.88C66.9222 18.88 83.1163 25.6591 94.9766 37.6989Z" fill="black"/>
<path d="M50.0455 62.5754C55.3887 62.5754 60.4952 64.7797 64.16 68.668L66.1243 70.7381L50.0219 86.8404L33.9667 70.7381L35.9309 68.668C39.5957 64.7797 44.7023 62.5754 50.0455 62.5754Z" fill="black"/>
<path d="M85.3908 50.2604C84.6018 50.264 83.8456 49.9454 83.2972 49.3782C74.536 40.4336 62.5427 35.3929 50.0221 35.3929C37.5016 35.3929 25.5083 40.4336 16.7471 49.3782C15.6054 50.51 13.7664 50.515 12.6184 49.3896C11.4704 48.2641 11.4391 46.4254 12.548 45.2614C22.4132 35.1896 35.9179 29.5136 50.0163 29.5136C64.1146 29.5136 77.6193 35.1896 87.4845 45.2614C88.3125 46.1062 88.5537 47.3648 88.0968 48.4558C87.6398 49.5468 86.5736 50.2578 85.3908 50.2604Z" fill="black"/>
<path d="M71.6055 61.0461C72.1586 61.6148 72.9175 61.937 73.7109 61.94C74.8905 61.9311 75.9515 61.2209 76.4094 60.1337C76.8673 59.0466 76.6341 57.7912 75.8163 56.9411C69.0454 49.9692 59.7406 46.0351 50.022 46.0351C40.3033 46.0351 30.9986 49.9692 24.2277 56.9411C23.4796 57.6905 23.1922 58.7842 23.4753 59.8045C23.7583 60.8248 24.568 61.6142 25.5952 61.8711C26.6224 62.1281 27.7084 61.8129 28.4385 61.0461C34.1042 55.2125 41.8899 51.9207 50.022 51.9207C58.154 51.9207 65.9398 55.2125 71.6055 61.0461Z" fill="black"/>
</g>
<defs>
<clipPath id="clip0">
<rect width="100" height="100" fill="white"/>
</clipPath>
</defs>
</svg>
