<?xml version="1.0" encoding="UTF-8"?>
<svg width="100px" height="100px" viewBox="0 0 100 100" version="1.1" xmlns="http://www.w3.org/2000/svg" xmlns:xlink="http://www.w3.org/1999/xlink">
    <!-- Generator: Sketch 57.1 (83088) - https://sketch.com -->
    <title>bold/wifi-bold</title>
    <desc>Created with Sketch.</desc>
    <g id="bold/wifi" stroke="none" stroke-width="1" fill="none" fill-rule="evenodd">
        <path d="M50,59.745098 C55.956012,59.745098 60.7843137,64.5733998 60.7843137,70.5294118 C60.7843137,76.4854238 55.956012,81.3137255 50,81.3137255 C44.043988,81.3137255 39.2156863,76.4854238 39.2156863,70.5294118 C39.2156863,64.5733998 44.043988,59.745098 50,59.745098 Z M50,68.5685772 C49.2289587,68.5646632 48.5318144,69.0266017 48.2349155,69.7381994 C47.9380166,70.4497972 48.1001161,71.2702368 48.6453318,71.8154525 C49.1905476,72.3606682 50.0109872,72.5227678 50.7225849,72.2258689 C51.4341827,71.9289699 51.8961212,71.2318256 51.8922072,70.4607843 C51.8708121,69.4311212 51.0298843,68.6076219 50,68.6078432 L50,68.5685772 Z M50,41.5588235 C62.1960784,41.5588235 73.1078432,46.7745098 78.4803922,55.1666667 C79.6924962,57.2338678 79.0547587,59.8893933 77.0360904,61.1807086 C75.0174221,62.4720238 72.3391741,61.93769 70.9705883,59.9705882 C67.2745098,54.1960784 59.0490196,50.4901961 50,50.4901961 C40.9509804,50.4901961 32.7156863,54.2156863 29.0294117,59.9901961 C28.2040445,61.2671057 26.7851301,62.0356843 25.2647059,62.0294875 C24.4159432,62.0294875 23.5852072,61.7845245 22.872549,61.3235294 C20.8175453,59.9798391 20.2347646,57.2280628 21.5686274,55.1666667 C26.8921568,46.7745098 37.8039216,41.5588235 50,41.5588235 Z M50,18.1372549 C70.5882353,18.1372549 89.2156863,27.9411764 98.4117648,43.7647059 C99.2311458,45.1429555 99.2458952,46.8553948 98.4503758,48.2475537 C97.6548565,49.6397125 96.172036,50.4963977 94.5686275,50.4901961 C92.9836251,50.4916324 91.516896,49.651902 90.7156863,48.2843137 C83.1862745,35.372549 67.2058824,27.0490196 50,27.0490196 C32.7941176,27.0490196 16.8137255,35.372549 9.28431368,48.2647059 C8.51364256,49.7056678 7.0167606,50.6099054 5.38269554,50.6218255 C3.74863048,50.6332912 2.23896157,49.7505676 1.44774824,48.320782 C0.656534921,46.8909964 0.710433702,45.1430272 1.58823525,43.7647059 C10.7843137,27.9411764 29.4117647,18.1372549 50,18.1372549 Z" id="Shape" fill="#000000"></path>
    </g>
</svg>