<?xml version="1.0" encoding="UTF-8"?>
<svg width="100px" height="100px" viewBox="0 0 100 100" version="1.1" xmlns="http://www.w3.org/2000/svg" xmlns:xlink="http://www.w3.org/1999/xlink">
    <!-- Generator: Sketch 57.1 (83088) - https://sketch.com -->
    <title>brand/xing-alt-brand</title>
    <desc>Created with Sketch.</desc>
    <g id="brand/xing-alt" stroke="none" stroke-width="1" fill="none" fill-rule="evenodd">
        <path d="M14.7583,19.7489 L29.1963,19.7489 C31.4113,19.7489 32.4983,21.1749 33.2163,22.4529 C33.2163,22.4529 43.0843,39.6479 43.1433,39.7439 C42.5583,40.7729 27.5563,67.2769 27.5563,67.2769 C26.8173,68.6079 25.7773,70.0629 23.6183,70.0629 L9.1793,70.0629 C8.3103,70.0629 7.6603,69.6739 7.2933,69.0799 C6.9123,68.4639 6.8923,67.6639 7.2933,66.8679 L22.6333,39.8259 C22.6503,39.7959 22.6503,39.7759 22.6333,39.7439 L12.8713,22.8629 C12.4673,22.0599 12.4083,21.2669 12.7893,20.6499 C13.1563,20.0539 13.8883,19.7489 14.7583,19.7489 Z M75.415,-0.0002 L90.001,-0.0002 C90.871,-0.0002 91.554,0.3278 91.921,0.9208 C92.302,1.5368 92.292,2.3508 91.892,3.1458 L59.924,59.6068 C59.903,59.6368 59.903,59.6728 59.924,59.7018 L80.278,96.8508 C80.682,97.6498 80.691,98.4628 80.308,99.0788 C79.94,99.6728 79.261,99.9998 78.392,99.9998 L63.97,99.9998 C61.758,99.9998 60.652,98.5308 59.936,97.2528 C59.936,97.2528 39.474,59.7548 39.421,59.6558 C40.445,57.8478 71.55,2.7468 71.55,2.7468 C72.324,1.3568 73.26,-0.0002 75.415,-0.0002 Z" id="Shape" fill="#000000"></path>
    </g>
</svg>