<svg width="100" height="100" viewBox="0 0 100 100" fill="none" xmlns="http://www.w3.org/2000/svg">
<path fill-rule="evenodd" clip-rule="evenodd" d="M79.18 35.3096H83.062C83.658 35.3096 83.95 35.6926 84.143 36.0366C84.143 36.0366 86.795 40.6596 86.811 40.6846C86.655 40.9616 82.62 48.0876 82.62 48.0876C82.422 48.4456 82.143 48.8366 81.562 48.8366H77.68C77.447 48.8366 77.272 48.7316 77.173 48.5726C77.071 48.4066 77.066 48.1916 77.173 47.9776L81.297 40.7066C81.302 40.6996 81.302 40.6936 81.297 40.6846L78.673 36.1466C78.564 35.9306 78.548 35.7176 78.651 35.5516C78.749 35.3916 78.947 35.3096 79.18 35.3096ZM62.087 43.7906H63.101C66.219 43.7906 68.025 44.5316 68.659 44.8486C69.157 45.0986 69.321 45.2866 69.321 45.6206V48.5726C69.321 48.7736 69.245 48.9376 69.122 49.0356C69.002 49.1296 68.827 49.1626 68.637 49.1006C67.41 48.7066 65.493 48.1536 63.013 48.1536H62.263C60.554 48.1536 59.353 48.6366 58.558 49.6296C57.831 50.5376 57.477 51.8616 57.477 53.6616V60.0066C57.477 63.4696 58.806 65.1626 61.535 65.1626C63.602 65.1626 65.268 64.5306 65.284 64.5226C65.294 64.5196 65.307 64.5126 65.307 64.5006V59.3016C65.307 59.2866 65.3 59.2796 65.284 59.2796H61.712C61.338 59.2796 61.073 59.0146 61.073 58.6406V55.5556C61.073 55.1826 61.338 54.9166 61.712 54.9166H69.387C69.761 54.9166 70.027 55.1826 70.027 55.5556V67.5846C69.765 67.7146 66.014 69.5246 61.381 69.5246C55.652 69.5246 52.757 66.4326 52.757 60.3596V53.6616C52.757 47.3026 56.063 43.7906 62.087 43.7906ZM0.816 44.1226H5.117C5.647 44.1226 5.816 44.4596 5.977 44.7836C5.978 44.7836 10.035 52.3176 10.035 52.3176C10.039 52.3256 10.047 52.3396 10.057 52.3396C10.068 52.3396 10.075 52.3256 10.079 52.3176L14.138 44.7836C14.33 44.3986 14.505 44.1226 14.997 44.1226H19.321C19.498 44.1226 19.637 44.1906 19.718 44.3206C19.761 44.3896 19.784 44.4766 19.784 44.5626C19.784 44.6486 19.761 44.7396 19.718 44.8276L13.388 56.3056C13.385 56.3086 13.388 56.3236 13.388 56.3276C13.388 56.3316 13.385 56.3446 13.388 56.3496C13.388 56.3496 20.07 68.3986 20.071 68.4006C20.114 68.4876 20.137 68.5786 20.137 68.6646C20.137 68.7496 20.115 68.8366 20.071 68.9076C19.991 69.0376 19.852 69.1056 19.674 69.1056H15.35C14.858 69.1056 14.704 68.8296 14.513 68.4446C14.512 68.4436 10.079 60.3366 10.079 60.3366C10.075 60.3286 10.068 60.3146 10.057 60.3146C10.047 60.3146 10.039 60.3286 10.035 60.3366L5.624 68.4446C5.431 68.8306 5.256 69.1056 4.763 69.1056H0.463C0.284 69.1056 0.145 69.0376 0.066 68.9076C-0.022 68.7666 -0.022 68.5746 0.066 68.4006L6.727 56.3496C6.731 56.3416 6.731 56.3136 6.727 56.3056L0.419 44.8276C0.332 44.6546 0.331 44.4596 0.419 44.3206C0.499 44.1906 0.638 44.1226 0.816 44.1226ZM23.268 44.1226H26.687C27.06 44.1226 27.327 44.3876 27.327 44.7606V68.4666C27.327 68.8386 27.06 69.1056 26.687 69.1056H23.268C22.895 69.1056 22.629 68.8386 22.629 68.4666V44.7606C22.629 44.3876 22.895 44.1226 23.268 44.1226ZM32.4 44.1226H35.951C36.481 44.1226 36.648 44.4606 36.811 44.7836L44.222 59.0596C44.228 59.0696 44.254 59.0626 44.265 59.0596C44.277 59.0566 44.288 59.0496 44.288 59.0376V44.7606C44.288 44.3876 44.554 44.1226 44.928 44.1226H48.346C48.719 44.1226 48.986 44.3876 48.986 44.7606V68.4666C48.986 68.8386 48.719 69.1056 48.346 69.1056H44.773C44.303 69.1056 44.065 68.7486 43.913 68.4446C43.913 68.4436 36.502 54.1676 36.502 54.1676C36.497 54.1576 36.492 54.1426 36.48 54.1466C36.469 54.1486 36.458 54.1566 36.458 54.1676V68.4666C36.458 68.8386 36.192 69.1056 35.818 69.1056H32.4C32.027 69.1056 31.738 68.8386 31.738 68.4666V44.7606C31.738 44.3876 32.027 44.1226 32.4 44.1226ZM95.4876 30H99.4096C99.6426 30 99.8266 30.088 99.9246 30.247C100.028 30.413 100.025 30.632 99.9176 30.846L91.3226 46.025C91.3176 46.033 91.3176 46.043 91.3226 46.051L96.7956 56.038C96.9036 56.253 96.9066 56.472 96.8026 56.638C96.7046 56.797 96.5216 56.885 96.2886 56.885H92.4106C91.8156 56.885 91.5186 56.49 91.3266 56.146C91.3266 56.146 85.8246 46.065 85.8106 46.038C86.0866 45.552 94.4486 30.738 94.4486 30.738C94.6566 30.364 94.9086 30 95.4876 30Z" fill="black"/>
</svg>
