<svg width="100" height="100" viewBox="0 0 100 100" fill="none" xmlns="http://www.w3.org/2000/svg">
<path fill-rule="evenodd" clip-rule="evenodd" d="M40.0328 64V34.017L66.0628 49.008L40.0328 64ZM97.9408 24.955C96.7868 20.672 93.4098 17.295 89.1268 16.142C81.3008 14 49.9998 14 49.9998 14C49.9998 14 18.6988 14 10.8728 16.06C6.67176 17.212 3.21276 20.672 2.05976 24.955C-0.000244141 32.78 -0.000244141 49.008 -0.000244141 49.008C-0.000244141 49.008 -0.000244141 65.317 2.05976 73.061C3.21276 77.344 6.58976 80.722 10.8728 81.874C18.7808 84.016 49.9998 84.016 49.9998 84.016C49.9998 84.016 81.3008 84.016 89.1268 81.957C93.4098 80.804 96.7868 77.427 97.9408 73.143C99.9998 65.317 99.9998 49.091 99.9998 49.091C99.9998 49.091 100.082 32.78 97.9408 24.955Z" fill="black"/>
</svg>
