<?xml version="1.0" encoding="UTF-8"?>
<svg width="100px" height="100px" viewBox="0 0 100 100" version="1.1" xmlns="http://www.w3.org/2000/svg" xmlns:xlink="http://www.w3.org/1999/xlink">
    <!-- Generator: Sketch 57.1 (83088) - https://sketch.com -->
    <title>brand/youtube-square-brand</title>
    <desc>Created with Sketch.</desc>
    <g id="brand/youtube-square" stroke="none" stroke-width="1" fill="none" fill-rule="evenodd">
        <path d="M43.0229,60.494 L43.0229,39.506 L61.2439,50 L43.0229,60.494 Z M85.0005941,50.0575 C85.0005941,50.0575 85.058,38.6405 83.559,33.1625 C82.751,30.1645 80.387,27.8005 77.389,26.9935 C71.911,25.4945 50,25.4945 50,25.4945 C50,25.4945 28.089,25.4945 22.611,26.9355 C19.67,27.7435 17.249,30.1645 16.441,33.1625 C15,38.6405 15,49.9995 15,49.9995 C15,49.9995 15,61.4165 16.441,66.8365 C17.249,69.8345 19.613,72.1995 22.611,73.0065 C28.146,74.5055 50,74.5055 50,74.5055 C50,74.5055 71.911,74.5055 77.389,73.0645 C80.387,72.2565 82.751,69.8925 83.559,66.8945 C85.0005941,61.4165 85.0005941,50.0575 85.0005941,50.0575 Z M94.48,-0.0005 C97.528,-0.0005 100,2.4715 100,5.5205 L100,94.4805 C100,97.5285 97.528,99.9995 94.48,99.9995 L5.52,99.9995 C2.471,99.9995 0,97.5285 0,94.4805 L0,5.5205 C0,2.4715 2.471,-0.0005 5.52,-0.0005 L94.48,-0.0005 Z" id="Shape" fill="#000000"></path>
    </g>
</svg>