<svg width="100" height="100" viewBox="0 0 100 100" fill="none" xmlns="http://www.w3.org/2000/svg">
<path fill-rule="evenodd" clip-rule="evenodd" d="M43.0229 60.494V39.506L61.2439 50L43.0229 60.494ZM85.0003 50.0575C85.0003 50.0575 85.058 38.6405 83.559 33.1625C82.751 30.1645 80.387 27.8005 77.389 26.9935C71.911 25.4945 50 25.4945 50 25.4945C50 25.4945 28.089 25.4945 22.611 26.9355C19.67 27.7435 17.249 30.1645 16.441 33.1625C15 38.6405 15 49.9995 15 49.9995C15 49.9995 15 61.4165 16.441 66.8365C17.249 69.8345 19.613 72.1995 22.611 73.0065C28.146 74.5055 50 74.5055 50 74.5055C50 74.5055 71.911 74.5055 77.389 73.0645C80.387 72.2565 82.751 69.8925 83.559 66.8945C85.0003 61.4165 85.0003 50.0575 85.0003 50.0575ZM94.48 -0.000488281C97.528 -0.000488281 100 2.47151 100 5.52051V94.4805C100 97.5285 97.528 99.9995 94.48 99.9995H5.52C2.471 99.9995 0 97.5285 0 94.4805V5.52051C0 2.47151 2.471 -0.000488281 5.52 -0.000488281H94.48Z" fill="black"/>
</svg>
