<svg width="100" height="100" viewBox="0 0 100 100" fill="none" xmlns="http://www.w3.org/2000/svg">
<path fill-rule="evenodd" clip-rule="evenodd" d="M12.756 54.932L21.05 50.155L12.756 45.378V54.932ZM31.208 42.491C31.89 44.984 31.8631 50.181 31.8631 50.181C31.8631 50.181 31.8631 55.352 31.208 57.845C30.84 59.21 29.764 60.286 28.399 60.654C25.905 61.31 15.932 61.31 15.932 61.31C15.932 61.31 5.985 61.31 3.464 60.627C2.1 60.26 1.024 59.184 0.656 57.819C0 55.352 0 50.155 0 50.155C0 50.155 0 44.984 0.656 42.491C1.024 41.126 2.126 40.024 3.464 39.656C5.958 39 15.932 39 15.932 39C15.932 39 25.905 39 28.399 39.682C29.764 40.05 30.84 41.126 31.208 42.491ZM50.0787 54.8793V50.5223C50.0787 49.5253 49.9997 48.7903 49.8167 48.3173C49.6327 47.8453 49.3437 47.6353 48.8977 47.6353C48.4777 47.6353 48.1627 47.8713 48.0057 48.3173C47.8217 48.7903 47.7427 49.5253 47.7427 50.5223V54.8793C47.7427 55.9023 47.8217 56.6643 48.0057 57.1093C48.1627 57.5563 48.4777 57.7923 48.9237 57.7923C49.3437 57.7923 49.6327 57.5823 49.8167 57.1093C49.9997 56.6643 50.0787 55.9023 50.0787 54.8793ZM51.4437 46.1123C52.0737 46.5323 52.5197 47.2153 52.8087 48.1083C53.0967 49.0003 53.2547 50.2073 53.2547 51.7303V53.7503C53.2547 55.2463 53.1227 56.4283 52.8347 57.3463C52.5457 58.2383 52.0997 58.9213 51.4697 59.3413C50.8397 59.7613 49.9737 59.9713 48.8977 59.9713C47.7957 59.9443 46.9027 59.7343 46.2727 59.3153C45.6427 58.8953 45.1967 58.2383 44.9347 57.3193C44.6717 56.4283 44.5407 55.2203 44.5407 53.7503V51.7303C44.5407 50.2333 44.6987 49.0253 44.9867 48.1083C45.3017 47.1893 45.7747 46.5323 46.4047 46.1123C47.0607 45.6923 47.9007 45.4833 48.9507 45.4833C49.9737 45.4833 50.8137 45.6923 51.4437 46.1123ZM94.7247 50.9164V51.9134H97.0347V50.9164C97.0347 50.0234 97.0077 49.3414 96.9547 48.8684C96.9037 48.3954 96.7717 48.0814 96.6147 47.8974C96.4567 47.7144 96.1947 47.6084 95.8787 47.6084C95.5117 47.5824 95.2757 47.6874 95.1187 47.8974C94.9607 48.1074 94.8557 48.4224 94.8027 48.8684C94.7507 49.3144 94.7247 49.9974 94.7247 50.9164ZM94.7247 53.7244V54.4854C94.7247 55.3784 94.7507 56.0604 94.8027 56.5064C94.8557 56.9524 94.9607 57.2944 95.1447 57.4784C95.3017 57.6874 95.5647 57.7924 95.9317 57.7924C96.4047 57.7924 96.7187 57.6084 96.9037 57.2414C97.0867 56.8744 97.1647 56.2704 97.1917 55.4034L99.8947 55.5624C99.9207 55.6924 99.9207 55.8504 99.9207 56.0604C99.9207 57.3464 99.5797 58.3174 98.8707 58.9474C98.1627 59.5774 97.1647 59.8924 95.8787 59.8924C94.3307 59.8924 93.2547 59.3944 92.6247 58.4224C91.9957 57.4514 91.6797 55.9554 91.6797 53.9084V51.4674C91.6797 49.3674 91.9957 47.8454 92.6517 46.8744C93.3067 45.9024 94.4097 45.4304 95.9577 45.4304C97.0347 45.4304 97.8737 45.6404 98.4517 46.0344C99.0297 46.4284 99.4227 47.0584 99.6597 47.8714C99.8947 48.7114 99.9997 49.8654 99.9997 51.3364V53.7244H94.7247ZM42.2311 40.5746H45.3551L41.7321 53.5136V59.7086H38.6351V53.5136H38.6091L35.0401 40.5746H38.1631L39.4221 46.4286C39.7371 47.8716 39.9741 49.1046 40.1311 50.1286H40.2101C40.3151 49.3936 40.5511 48.1856 40.9191 46.4546L42.2311 40.5746ZM60.2628 56.848V45.745H63.4118V59.735H60.9458L60.6828 58.029H60.6038C59.9478 59.315 58.9238 59.971 57.5848 59.971C56.6668 59.971 55.9848 59.656 55.5378 59.052C55.0918 58.449 54.8818 57.504 54.8818 56.192V45.745H58.0318V56.008C58.0318 56.638 58.1108 57.084 58.2418 57.346C58.3728 57.609 58.6098 57.74 58.9238 57.74C59.1868 57.74 59.4498 57.661 59.7108 57.478C59.9738 57.32 60.1578 57.11 60.2628 56.848ZM76.4044 56.848V45.745H79.5534V59.735H77.0874L76.8244 58.029H76.7454C76.0894 59.315 75.0654 59.971 73.7264 59.971C72.8084 59.971 72.1264 59.656 71.6794 59.052C71.2334 58.449 71.0234 57.504 71.0234 56.192V45.745H74.1734V56.008C74.1734 56.638 74.2524 57.084 74.3834 57.346C74.5144 57.609 74.7514 57.74 75.0654 57.74C75.3284 57.74 75.5914 57.661 75.8534 57.478C76.1154 57.32 76.2994 57.11 76.4044 56.848ZM71.9689 40.5746V43.1206H68.8449V59.7086H65.7749V43.1206H62.6519V40.5746H71.9689ZM87.1134 53.6722V51.8342C87.1134 50.7582 87.0874 49.9182 87.0084 49.3152C86.9284 48.7372 86.8244 48.3182 86.6404 48.0552C86.4824 47.8182 86.2204 47.6882 85.9054 47.6882C85.6174 47.6882 85.3284 47.8182 85.0654 48.0552C84.8024 48.3182 84.6194 48.6322 84.5144 49.0002V56.9262C84.6454 57.1622 84.8294 57.3462 85.0394 57.4782C85.2494 57.6092 85.4854 57.6612 85.7484 57.6612C86.0624 57.6612 86.3254 57.5292 86.5354 57.2942C86.7184 57.0582 86.8774 56.6382 86.9554 56.0602C87.0344 55.4832 87.0874 54.6952 87.0874 53.6722H87.1134ZM89.0544 46.0602C89.4744 46.4542 89.7904 47.0842 89.9734 47.9762C90.1574 48.8422 90.2364 50.0762 90.2624 51.6772V53.8822C90.2624 55.9552 90.0004 57.5042 89.5014 58.4752C89.0034 59.4452 88.2414 59.9442 87.1654 59.9442C86.5614 59.9442 86.0374 59.7872 85.5384 59.5252C85.0394 59.2352 84.6724 58.8682 84.4354 58.3962H84.3574L84.0424 59.7082H81.4434V39.8652H84.4884V47.2412H84.5144C84.7774 46.7162 85.1714 46.2702 85.6694 45.9552C86.1684 45.6132 86.7184 45.4562 87.2974 45.4562C88.0314 45.4562 88.6344 45.6662 89.0544 46.0602Z" fill="black"/>
</svg>
