<?xml version="1.0" encoding="utf-8"?>
<!-- Generator: Adobe Illustrator 22.1.0, SVG Export Plug-In . SVG Version: 6.00 Build 0)  -->
<svg version="1.1" id="Layer_1" xmlns="http://www.w3.org/2000/svg" xmlns:xlink="http://www.w3.org/1999/xlink" x="0px" y="0px"
	 viewBox="0 0 196.8 150" style="enable-background:new 0 0 196.8 150;" xml:space="preserve">
<style type="text/css">
	.st0{fill:#D06397;}
</style>
<path class="st0" d="M165.7,85.5c-6.5,0-12.2,1.6-16.9,3.9c-1.7-3.5-3.5-6.5-3.8-8.8c-0.3-2.6-0.7-4.2-0.3-7.4
	c0.4-3.2,2.2-7.6,2.2-7.9c0-0.3-0.4-1.9-4.2-2c-3.8,0-7,0.7-7.4,1.7c-0.4,1-1.1,3.2-1.6,5.6c-0.7,3.4-7.5,15.6-11.4,22
	c-1.3-2.5-2.4-4.7-2.6-6.4c-0.3-2.6-0.7-4.2-0.3-7.4c0.4-3.1,2.2-7.6,2.2-7.9c0-0.3-0.4-1.9-4.2-2c-3.8,0-7,0.7-7.4,1.7
	c-0.4,1-0.8,3.3-1.6,5.6c-0.8,2.2-9.9,22.6-12.3,27.8c-1.2,2.7-2.3,4.8-3,6.3l0,0c0,0,0,0.1-0.1,0.3c-0.6,1.3-1,1.9-1,1.9s0,0,0,0
	c-0.5,0.9-1,1.8-1.3,1.8c-0.2,0-0.6-2.4,0.1-5.8c1.4-7,4.6-18,4.6-18.4c0-0.2,0.6-2.1-2.1-3.1c-2.7-1-3.6,0.7-3.8,0.7
	c-0.2,0-0.4,0.6-0.4,0.6s3-12.4-5.6-12.4c-5.4,0-12.8,5.9-16.5,11.2c-2.3,1.3-7.3,4-12.5,6.9c-2,1.1-4.1,2.2-6,3.3
	c-0.1-0.1-0.3-0.3-0.4-0.4c-10.4-11.2-29.7-19-28.9-34c0.3-5.4,2.2-19.8,37.1-37.1c28.6-14.2,51.5-10.3,55.4-1.6
	c5.6,12.4-12.2,35.5-41.9,38.8c-11.3,1.3-17.3-3.1-18.7-4.7c-1.6-1.7-1.8-1.8-2.4-1.5c-1,0.5-0.4,2,0,3c0.9,2.3,4.5,6.4,10.7,8.4
	c5.5,1.8,18.7,2.8,34.8-3.4c18-6.9,32-26.3,27.9-42.5C117.7,5.7,90.5,0.3,64.7,9.4c-15.4,5.5-32,14-44,25.2
	C6.5,47.9,4.2,59.5,5.2,64.4c3.3,17.2,27,28.4,36.5,36.7c-0.5,0.3-0.9,0.5-1.3,0.7c-4.7,2.3-22.8,11.8-27.3,21.8
	c-5.1,11.3,0.8,19.4,4.7,20.5c12.2,3.4,24.7-2.7,31.4-12.7c6.7-10,5.9-23,2.8-29c0-0.1-0.1-0.1-0.1-0.2c1.2-0.7,2.5-1.5,3.7-2.2
	c2.4-1.4,4.8-2.7,6.9-3.9c-1.2,3.2-2,6.9-2.4,12.4c-0.5,6.4,2.1,14.7,5.6,18c1.5,1.4,3.3,1.5,4.5,1.5c4,0,5.8-3.3,7.9-7.3
	c2.5-4.8,4.7-10.5,4.7-10.5s-2.7,15.2,4.7,15.2c2.7,0,5.5-3.5,6.7-5.3c0,0,0,0,0,0s0.1-0.1,0.2-0.4c0.3-0.4,0.4-0.7,0.4-0.7
	s0,0,0-0.1c1.1-1.9,3.5-6.3,7.2-13.4c4.7-9.3,9.2-20.9,9.2-20.9s0.4,2.8,1.8,7.5c0.8,2.8,2.5,5.8,3.9,8.7c-1.1,1.5-1.8,2.4-1.8,2.4
	s0,0,0,0c-0.9,1.2-1.8,2.4-2.9,3.6c-3.7,4.4-8.2,9.5-8.8,11c-0.7,1.7-0.5,3,0.8,4c1,0.7,2.7,0.9,4.6,0.7c3.3-0.2,5.7-1,6.9-1.6
	c1.8-0.6,3.9-1.6,5.9-3.1c3.7-2.7,5.9-6.5,5.6-11.6c-0.1-2.8-1-5.6-2.1-8.2c0.3-0.5,0.7-1,1-1.4c5.8-8.4,10.2-17.7,10.2-17.7
	s0.4,2.8,1.8,7.5c0.7,2.4,2.1,5,3.3,7.5c-5.4,4.4-8.8,9.5-9.9,12.9c-2.1,6.2-0.5,9,2.7,9.7c1.4,0.3,3.5-0.4,5-1
	c1.9-0.6,4.2-1.7,6.3-3.2c3.7-2.7,7.2-6.4,6.9-11.5c-0.1-2.3-0.7-4.6-1.6-6.8c4.6-1.9,10.5-3,18.1-2.1c16.2,1.9,19.4,12,18.8,16.3
	c-0.6,4.2-4,6.6-5.2,7.3s-1.5,1-1.4,1.5c0.1,0.8,0.7,0.7,1.6,0.6c1.3-0.2,8.5-3.5,8.8-11.3C192.1,96.3,182.6,85.4,165.7,85.5z
	 M40.5,127.7c-5.4,5.9-12.9,8.1-16.1,6.2c-3.5-2-2.1-10.7,4.5-16.9c4-3.8,9.2-7.3,12.7-9.4c0.8-0.5,1.9-1.2,3.3-2
	c0.2-0.1,0.4-0.2,0.4-0.2l0,0c0.3-0.2,0.5-0.3,0.8-0.5C48.5,113.7,46.2,121.5,40.5,127.7z M79.7,101c-1.9,4.6-5.8,16.2-8.2,15.6
	c-2.1-0.5-3.3-9.4-0.4-18.2c1.5-4.4,4.6-9.7,6.4-11.7c2.9-3.3,6.2-4.4,6.9-3C85.5,85.5,80.9,98.2,79.7,101z M112.1,116.5
	c-0.8,0.4-1.5,0.7-1.9,0.5c-0.2-0.1,0.3-0.7,0.3-0.7s4.1-4.4,5.6-6.3c0.9-1.2,2-2.5,3.2-4.1c0,0.1,0,0.3,0,0.4
	C119.4,111.5,114.3,115.1,112.1,116.5z M137.1,110.8c-0.6-0.4-0.5-1.8,1.5-6c0.8-1.7,2.5-4.5,5.5-7.2c0.4,1.1,0.6,2.2,0.6,3.1
	C144.6,107.3,139.9,109.8,137.1,110.8z"/>
</svg>
