<?xml version="1.0" encoding="UTF-8"?>
<svg width="100px" height="100px" viewBox="0 0 100 100" version="1.1" xmlns="http://www.w3.org/2000/svg" xmlns:xlink="http://www.w3.org/1999/xlink">
    <!-- Generator: Sketch 57.1 (83088) - https://sketch.com -->
    <title>brand/american-express-card-brand</title>
    <desc>Created with Sketch.</desc>
    <g id="brand/american-express-card" stroke="none" stroke-width="1" fill="none" fill-rule="evenodd">
        <path d="M58.095,43.361 L61.028,43.361 L61.028,31.336 L58.095,31.336 L58.095,43.361 Z M75.638,33.419 L77.581,38.208 L73.625,38.208 L75.638,33.419 Z M68.332,31.319 C64.255,31.319 62.433,33.401 62.433,37.444 C62.433,41.297 64.203,43.344 68.159,43.344 L71.49,43.344 L72.602,40.689 L78.553,40.689 L79.698,43.344 L85.546,43.344 L85.546,34.338 L90.96,43.344 L95.055,43.344 L95.055,31.371 L92.122,31.371 L92.122,39.718 L87.072,31.371 L82.683,31.371 L82.683,42.72 L77.842,31.371 L73.538,31.371 L69.46,40.828 L68.177,40.828 C65.868,40.828 65.383,39.423 65.383,37.375 C65.383,33.245 68.106,33.904 71.126,33.956 L71.126,31.319 L68.332,31.319 Z M67.604,35.778 C67.552,35.813 67.36,36.16 67.36,37.098 C67.36,38.139 67.517,38.434 67.552,38.468 C67.586,38.485 67.742,38.555 68.142,38.555 L69.408,35.622 C69.218,35.622 69.044,35.605 68.87,35.605 C67.898,35.605 67.655,35.727 67.604,35.778 L67.604,35.778 Z M77.373,54.536 L77.373,52.055 L67.795,52.055 L67.777,64.08 L77.355,64.08 L77.373,61.599 L70.675,61.546 L70.675,59.151 L77.251,59.151 L77.251,56.705 L70.692,56.705 L70.692,54.536 L77.373,54.536 Z M84.695,61.494 L79.108,61.494 L79.091,64.063 L84.678,64.063 C87.246,64.063 89.225,63.091 89.225,60.245 C89.225,54.484 81.78,58.302 81.78,55.682 C81.78,54.71 82.631,54.57 83.377,54.57 L88.651,54.57 L88.651,52.037 L82.891,52.037 C80.67,52.037 78.813,53.183 78.813,55.629 C78.813,61.355 86.223,57.798 86.223,60.384 C86.205,61.32 85.407,61.494 84.695,61.494 L84.695,61.494 Z M94.586,54.588 L99.81,54.588 L99.81,52.055 L94.101,52.055 C91.879,52.055 89.971,53.2 89.971,55.647 C89.971,61.373 97.38,57.867 97.38,60.401 C97.38,61.286 96.634,61.512 95.922,61.512 L90.369,61.512 L90.353,64.08 L95.905,64.08 C97.362,64.08 98.959,63.768 99.81,62.535 L99.81,58.059 C97.987,55.664 92.99,57.833 92.99,55.716 C92.99,54.71 93.788,54.588 94.586,54.588 L94.586,54.588 Z M88.287,65.78 L88.287,64.999 C86.413,65.971 87.61,65.78 61.097,65.78 C61.097,61.407 61.114,61.633 61.097,61.407 C60.802,61.39 60.541,61.39 59.466,61.39 C59.466,64.496 59.448,62.57 59.448,65.78 L52.577,65.78 C52.577,63.681 52.594,63.125 52.594,60.713 C50.859,61.755 48.638,61.824 46.643,61.789 C46.643,64.34 46.625,63.23 46.625,65.78 L38.14,65.78 C37.255,64.791 37.671,65.242 35.468,62.761 C34.913,63.368 33.247,65.173 32.674,65.78 L18.445,65.78 L18.445,49.765 L32.865,49.765 C33.732,50.736 33.351,50.302 35.554,52.749 C36.11,52.142 37.671,50.424 38.279,49.765 L48.343,49.765 C50.043,49.765 51.466,50.094 52.56,50.736 L52.56,49.765 C61.981,49.765 63.717,49.522 65.695,50.649 L65.695,49.765 L79.265,49.765 L79.265,50.667 C81.242,49.469 82.665,49.765 90.525,49.765 L90.525,50.632 C92.313,49.608 93.406,49.73 99.948,49.765 L99.948,19.329 C99.948,14.73 96.217,11 91.619,11 L8.329,11 C3.73,11 0,14.73 0,19.329 L0,38.381 C1.631,34.581 3.418,30.399 4.008,29.028 L10.897,29.028 C11.643,30.781 11.175,29.671 12.459,32.689 L12.459,29.028 L20.441,29.028 C20.944,30.105 22.367,33.193 22.853,34.234 C23.859,31.874 24.605,30.087 25.039,29.028 L42.912,29.028 C42.912,29.011 44.907,29.028 44.924,29.028 C52.508,29.063 54.226,28.89 56.1,29.948 L56.1,29.028 L63.022,29.028 L63.022,30.643 C64.342,29.584 66.129,29.028 68.35,29.028 L73.139,29.028 C73.139,29.115 73.469,29.08 73.538,29.08 L79.16,29.08 C79.889,30.781 79.611,30.122 80.688,32.655 L80.688,29.08 L88.2,29.08 C89.051,30.469 88.027,28.769 90.144,32.273 L90.144,29.08 L97.067,29.08 L97.067,45.045 L89.849,45.045 C88.912,43.482 89.606,44.663 87.559,41.244 L87.559,45.045 L78.396,45.045 C77.286,42.477 78.379,44.992 77.251,42.39 L73.954,42.39 C73.226,44.125 73.573,43.292 72.844,45.045 L68.193,45.045 C66.06,45.045 64.324,44.523 63.04,43.5 L63.04,45.045 L51.501,45.045 C51.449,42.633 51.483,40.741 51.483,40.741 C51.171,40.689 50.894,40.706 49.783,40.706 L49.783,45.062 L26.271,45.062 L26.271,43.084 C25.837,44.056 25.803,44.107 25.386,45.062 L20.267,45.062 C19.573,43.518 19.764,43.951 19.382,43.084 L19.382,45.062 L10.203,45.062 C9.474,43.31 9.821,44.143 9.092,42.407 L5.761,42.407 C5.032,44.143 5.379,43.31 4.65,45.062 L0.035,45.062 L0.035,80.408 C0.035,85.006 3.766,88.737 8.364,88.737 L91.671,88.737 C96.27,88.737 100,85.006 100,80.408 L100,64.722 C97.796,66.162 94.326,65.78 88.287,65.78 L88.287,65.78 Z M5.449,38.208 L7.392,33.419 L9.388,38.208 L5.449,38.208 Z M31.165,43.361 L31.165,31.336 L26.375,31.336 L22.957,39.492 L19.191,31.336 L14.489,31.336 L14.489,42.736 L9.613,31.336 L5.362,31.336 L0.208,43.361 L3.314,43.361 L4.425,40.706 L10.411,40.706 L11.522,43.361 L17.387,43.361 L17.387,33.956 L21.551,43.361 L24.084,43.361 L28.249,33.956 L28.249,43.361 L31.165,43.361 Z M61.148,57.243 L57.557,57.243 L57.557,54.536 L61.201,54.536 C62.086,54.536 63.058,54.71 63.058,55.82 C63.058,57.018 62.12,57.243 61.148,57.243 L61.148,57.243 Z M66.216,55.3 C66.216,52.454 63.769,52.055 61.513,52.055 L54.677,52.055 L54.659,64.08 L57.539,64.08 L57.557,59.689 L60.61,59.689 C62.52,59.689 63.179,60.037 63.179,62.084 L63.161,64.08 L66.042,64.08 L66.06,61.686 C66.06,60.141 65.747,59.064 64.15,58.492 C65.486,57.954 66.198,56.618 66.216,55.3 L66.216,55.3 Z M42.929,33.87 L42.929,31.336 L33.299,31.336 L33.299,43.361 L42.929,43.361 L42.929,40.88 L36.179,40.88 L36.179,38.485 L42.738,38.485 L42.738,36.039 L36.179,36.039 L36.179,33.87 L42.929,33.87 Z M48.412,57.59 L44.733,57.59 L44.733,54.536 L48.464,54.536 C49.436,54.536 50.234,54.936 50.234,55.993 C50.234,57.105 49.436,57.59 48.412,57.59 L48.412,57.59 Z M41.853,62.969 L37.463,58.093 L41.853,53.339 L41.853,62.969 Z M30.436,61.546 L23.391,61.546 L23.391,59.151 L29.689,59.151 L29.689,56.705 L23.391,56.705 L23.391,54.536 L30.626,54.536 L33.732,58.041 L30.436,61.546 Z M48.447,52.055 L39.302,52.055 L35.659,56.011 L32.102,52.055 L20.562,52.055 L20.545,64.08 L31.893,64.08 L35.589,60.089 L39.129,64.08 L44.716,64.08 L44.734,60.037 C48.013,60.037 53.288,60.835 53.288,55.993 C53.288,52.992 51.154,52.055 48.447,52.055 L48.447,52.055 Z M51.345,36.524 L47.753,36.524 L47.753,33.87 L51.396,33.87 C52.282,33.87 53.254,34.043 53.254,35.153 C53.254,36.299 52.334,36.524 51.345,36.524 L51.345,36.524 Z M56.446,34.563 C56.446,31.718 54,31.371 51.691,31.371 L44.907,31.319 L44.907,43.344 L47.753,43.344 L47.753,38.988 L50.876,38.988 C54.069,38.988 53.393,40.775 53.444,43.344 L56.325,43.344 L56.325,41.001 C56.325,39.405 56.064,38.381 54.416,37.809 C55.7,37.288 56.464,35.952 56.446,34.563 L56.446,34.563 Z" id="Fill-1" fill="#000000"></path>
    </g>
</svg>