<?xml version="1.0" encoding="UTF-8"?>
<svg width="100px" height="100px" viewBox="0 0 100 100" version="1.1" xmlns="http://www.w3.org/2000/svg" xmlns:xlink="http://www.w3.org/1999/xlink">
    <!-- Generator: Sketch 57.1 (83088) - https://sketch.com -->
    <title>brand/apple-pay-card-brand</title>
    <desc>Created with Sketch.</desc>
    <g id="brand/apple-pay-card" stroke="none" stroke-width="1" fill="none" fill-rule="evenodd">
        <path d="M89.583,42.232 L85.851,42.232 L81.527,56.225 L81.458,56.225 L77.136,42.232 L73.264,42.232 L79.496,59.472 L79.167,60.513 C78.611,62.285 77.691,62.979 76.059,62.979 C75.764,62.979 75.208,62.944 74.982,62.926 L74.982,65.774 C75.191,65.843 76.111,65.861 76.389,65.861 C79.982,65.861 81.667,64.489 83.143,60.339 L89.583,42.232 Z M71.84,47.631 C71.84,44.211 69.098,42.006 64.896,42.006 C60.989,42.006 58.107,44.246 58.004,47.301 L61.319,47.301 C61.598,45.843 62.951,44.888 64.792,44.888 C67.049,44.888 68.299,45.93 68.299,47.875 L68.299,49.176 L63.715,49.455 C59.444,49.714 57.136,51.468 57.136,54.506 C57.136,57.58 59.514,59.611 62.934,59.611 C65.243,59.611 67.379,58.448 68.351,56.589 L68.42,56.589 L68.42,59.437 L71.823,59.437 L71.823,47.631 L71.84,47.631 Z M56.215,43.517 C56.215,38.899 53.004,35.739 48.42,35.739 L39.531,35.739 L39.531,59.419 L43.212,59.419 L43.212,51.33 L48.299,51.33 C52.951,51.33 56.215,48.135 56.215,43.517 L56.215,43.517 Z M32.708,52.788 C32.674,52.753 29.306,51.468 29.271,47.58 C29.236,44.333 31.927,42.77 32.049,42.683 C30.521,40.426 28.16,40.183 27.344,40.131 C25.226,40.01 23.42,41.33 22.413,41.33 C21.389,41.33 19.861,40.183 18.194,40.218 C16.024,40.253 13.993,41.486 12.899,43.448 C10.625,47.371 12.309,53.17 14.514,56.364 C15.59,57.944 16.893,59.68 18.594,59.611 C20.208,59.542 20.851,58.569 22.795,58.569 C24.757,58.569 25.312,59.611 27.014,59.593 C28.785,59.558 29.878,58.013 30.972,56.433 C32.17,54.628 32.674,52.892 32.708,52.788 L32.708,52.788 Z M22.187,39.854 C23.646,39.975 25.104,39.125 26.024,38.048 C26.927,36.937 27.518,35.444 27.361,33.933 C26.076,33.986 24.479,34.784 23.559,35.895 C22.726,36.85 22.014,38.395 22.187,39.854 L22.187,39.854 Z M100,19.333 L100,80.444 C100,85.045 96.268,88.777 91.667,88.777 L8.333,88.777 C3.732,88.777 0,85.045 0,80.444 L0,19.333 C0,14.732 3.732,11 8.333,11 L91.667,11 C96.268,11 100,14.732 100,19.333 L100,19.333 Z M60.712,54.402 C60.712,55.843 61.962,56.781 63.924,56.781 C66.424,56.781 68.299,55.201 68.299,52.979 L68.299,51.642 L64.219,51.902 C61.91,52.058 60.712,52.909 60.712,54.402 L60.712,54.402 Z M52.465,43.534 C52.465,46.52 50.643,48.239 47.431,48.239 L43.212,48.239 L43.212,38.83 L47.448,38.83 C50.643,38.83 52.465,40.531 52.465,43.535 L52.465,43.534 Z" id="Fill-1" fill="#000000"></path>
    </g>
</svg>