<?xml version="1.0" encoding="UTF-8"?>
<svg width="100px" height="100px" viewBox="0 0 100 100" version="1.1" xmlns="http://www.w3.org/2000/svg" xmlns:xlink="http://www.w3.org/1999/xlink">
    <!-- Generator: Sketch 57.1 (83088) - https://sketch.com -->
    <title>solid/arrow-location-solid</title>
    <desc>Created with Sketch.</desc>
    <g id="solid/arrow-location" stroke="none" stroke-width="1" fill="none" fill-rule="evenodd">
        <path d="M98.4851486,1.51485144 C96.9973864,0.0300467146 94.7596694,-0.408107667 92.8217822,0.405940544 L4.16831679,37.5544554 C2.02215682,38.450493 0.736662646,40.6674585 1.02513037,42.9752003 C1.3135981,45.2829421 3.10525319,47.1152639 5.40594055,47.4554455 L46.0891089,53.5346535 C46.2877528,53.5663765 46.4435245,53.7221482 46.4752475,53.9207921 L52.5544554,94.6039604 C52.8718003,96.9225811 54.7156975,98.733915 57.039604,99.009901 C57.2604692,99.0249746 57.4821051,99.0249746 57.7029703,99.009901 C59.7843243,99.0177239 61.6615097,97.7597353 62.4455446,95.8316832 L99.5940595,7.17821778 C100.408108,5.24033059 99.9699533,3.00261357 98.4851486,1.51485144 Z" id="arrow-location" fill="#000000"></path>
    </g>
</svg>