<?xml version="1.0" encoding="UTF-8"?>
<svg width="100px" height="100px" viewBox="0 0 100 100" version="1.1" xmlns="http://www.w3.org/2000/svg" xmlns:xlink="http://www.w3.org/1999/xlink">
    <!-- Generator: Sketch 57.1 (83088) - https://sketch.com -->
    <title>regular/arrow-location-regular</title>
    <desc>Created with Sketch.</desc>
    <g id="regular/arrow-location" stroke="none" stroke-width="1" fill="none" fill-rule="evenodd">
        <path d="M57.1372549,99.0196079 C56.918555,99.0345337 56.699092,99.0345337 56.4803922,99.0196079 C54.1886451,98.7493652 52.3657017,96.9706875 52.0392157,94.6862746 L46.0196078,54.3627451 C45.9881958,54.1660487 45.8339513,54.0118042 45.6372549,53.9803922 L5.35294113,47.9607843 C3.07480953,47.6239378 1.30071968,45.8095799 1.01508007,43.524463 C0.729440462,41.2393461 2.00233175,39.0441156 4.12745093,38.1568627 L91.9117647,1.38235289 C93.8305689,0.57166753 96.0492754,1.00487329 97.522201,2.47779895 C98.9951267,3.95072461 99.4283325,6.16943113 98.6176471,8.08823525 L61.8333333,95.8725491 C61.0569851,97.7816987 59.1982035,99.027354 57.1372549,99.0196079 Z M93.7156863,5.68627447 L5.9313725,42.4705882 C5.72805966,42.5279148 5.60668724,42.7359818 5.6568627,42.9411765 C5.66138649,43.1537982 5.82708554,43.3279947 6.03921564,43.3431372 L46.3235294,49.3627451 C48.5580413,49.6867438 50.3132562,51.4419587 50.6372549,53.6764706 L56.6568628,93.9607844 C56.6720053,94.1729145 56.8462018,94.3386135 57.0588235,94.3431373 C57.2640182,94.3933128 57.4720852,94.2719403 57.5294118,94.0686275 L94.3137255,6.28431368 C94.3813522,6.11348262 94.3410307,5.9188024 94.2111142,5.78888584 C94.0811976,5.65896928 93.8865174,5.61864776 93.7156863,5.68627447 L93.7156863,5.68627447 Z" id="arrow-location" fill="#000000"></path>
    </g>
</svg>