<?xml version="1.0" encoding="UTF-8"?>
<svg width="100px" height="100px" viewBox="0 0 100 100" version="1.1" xmlns="http://www.w3.org/2000/svg" xmlns:xlink="http://www.w3.org/1999/xlink">
    <!-- Generator: Sketch 57.1 (83088) - https://sketch.com -->
    <title>solid/backward-solid</title>
    <desc>Created with Sketch.</desc>
    <g id="solid/backward" stroke="none" stroke-width="1" fill="none" fill-rule="evenodd">
        <path d="M89.69,0.789999951 C90.9886586,-0.133928564 92.6950888,-0.253610319 94.11,0.47999995 C95.5309196,1.208983 96.4232342,2.67299711 96.4200175,4.26999995 L96.4200175,95.73 C96.4145018,98.0859747 94.5059747,99.9945018 92.15,100.000008 C91.2720802,100.001176 90.4156502,99.728517 89.7,99.22 L25,53.51 L24.8038456,53.3633918 C23.7836954,52.5544817 23.1834122,51.3208157 23.1834122,50.01 C23.1834122,48.6172583 23.8610757,47.3116114 25,46.51 L89.69,0.789999951 Z M16.33,-5.00000041e-08 C18.6993015,-5.00000041e-08 20.62,1.92069837 20.62,4.28999995 L20.62,95.7099999 C20.62,98.0793015 18.6993015,99.9999999 16.33,99.9999999 L7.28999995,99.9999999 C4.92069838,99.9999999 2.99999995,98.0793015 2.99999995,95.7099999 L2.99999995,4.28999995 C2.99999995,1.92069837 4.92069838,-5.00000041e-08 7.28999995,-5.00000041e-08 L16.33,-5.00000041e-08 Z" id="Shape" fill="#000000"></path>
    </g>
</svg>