<svg width="100" height="100" viewBox="0 0 100 100" fill="none" xmlns="http://www.w3.org/2000/svg">
<g clip-path="url(#clip0)">
<path fill-rule="evenodd" clip-rule="evenodd" d="M88.8231 99.1179C89.6417 99.7054 90.6273 100.015 91.6349 100.001C94.2767 99.9808 96.4061 97.8303 96.3996 95.1884V4.81198C96.4048 3.01443 95.4052 1.36463 93.8095 0.537041C92.2138 -0.290548 90.2894 -0.157201 88.8231 0.882568L24.9525 46.0708C23.6766 46.9726 22.918 48.4378 22.918 50.0002C22.918 51.5627 23.6766 53.0278 24.9525 53.9296L88.8231 99.1179ZM90.5525 93.1061L29.5878 50.0002L90.5525 6.89433V93.1061Z" fill="black"/>
<path fill-rule="evenodd" clip-rule="evenodd" d="M8.23552 100H16.2355C19.1567 99.9935 21.5232 97.6271 21.5296 94.7059V5.29412C21.5232 2.37294 19.1567 0.00646998 16.2355 1.58325e-08H8.23552C5.31435 0.00646998 2.94788 2.37294 2.94141 5.29412V94.7059C2.94788 97.6271 5.31435 99.9935 8.23552 100ZM15.6473 94.1176H8.82376V5.88235H15.6473V94.1176Z" fill="black"/>
</g>
<defs>
<clipPath id="clip0">
<rect width="100" height="100" fill="white"/>
</clipPath>
</defs>
</svg>
