<?xml version="1.0" encoding="UTF-8"?>
<svg width="100px" height="100px" viewBox="0 0 100 100" version="1.1" xmlns="http://www.w3.org/2000/svg" xmlns:xlink="http://www.w3.org/1999/xlink">
    <!-- Generator: Sketch 57.1 (83088) - https://sketch.com -->
    <title>bold/backward-bold</title>
    <desc>Created with Sketch.</desc>
    <g id="bold/backward" stroke="none" stroke-width="1" fill="none" fill-rule="evenodd">
        <path d="M87.9702971,2.1485148 C89.8841867,0.785630362 92.4002467,0.609735593 94.4851486,1.69306926 C96.5656528,2.77728209 97.8679166,4.93117295 97.8614349,7.27722768 L97.8614349,93.7128713 C97.865999,96.0610892 96.5595897,98.2155186 94.4752476,99.2970298 C93.5799489,99.7546586 92.5896251,99.9954565 91.5841585,100 C90.2884608,99.9985747 89.025365,99.593692 87.9702971,98.8415842 L26.8514851,55.6237624 C25.1848374,54.4475946 24.1936347,52.5349234 24.1936347,50.4950495 C24.1936347,48.4551757 25.1848374,46.5425044 26.8514851,45.3663366 L87.9702971,2.1485148 Z M16.3366336,0.990098961 C19.8137402,0.995531906 22.6326685,3.81003493 22.6435643,7.28712867 L22.6435643,93.7029703 C22.6326685,97.1800641 19.8137402,99.9945671 16.3366336,100 L7.78217818,100 C4.3066854,99.9945483 1.49060023,97.1784631 1.48514847,93.7029703 L1.48514847,7.28712867 C1.49060023,3.81163589 4.3066854,0.995550724 7.78217818,0.990098961 L16.3366336,0.990098961 Z M13.6336633,9.99009897 L10.4851485,9.99009897 L10.4851485,91 L13.6336633,91 L13.6336633,9.99009897 Z M88.8712872,12.5247524 L35.1485148,50.4950495 L88.8712872,88.4554456 L88.8712872,12.5247524 Z" id="Shape" fill="#000000"></path>
    </g>
</svg>