<?xml version="1.0" encoding="UTF-8"?>
<svg width="100px" height="100px" viewBox="0 0 100 100" version="1.1" xmlns="http://www.w3.org/2000/svg" xmlns:xlink="http://www.w3.org/1999/xlink">
    <!-- Generator: Sketch 57.1 (83088) - https://sketch.com -->
    <title>regular/battery-full-regular</title>
    <desc>Created with Sketch.</desc>
    <g id="regular/battery-full" stroke="none" stroke-width="1" fill="none" fill-rule="evenodd">
        <path d="M92.14,29.5 C94.1116566,29.5 95.71,31.0983434 95.71,33.07 L95.71,41.97 L96.43,41.97 C98.4032731,41.9755119 99.9999999,43.5767193 99.9999999,45.55 L99.9999999,53.93 C99.9999999,55.9016566 98.4016566,57.5 96.43,57.5 L95.71,57.5 L95.71,66.4 C95.7100077,68.3732808 94.1132731,69.9744881 92.14,69.98 L3.56999995,69.98 C1.59672691,69.9744881 -5.0000061e-08,68.3732808 -5.0000061e-08,66.4 L-5.0000061e-08,33.07 C-5.0000061e-08,31.0983434 1.59834339,29.5 3.56999995,29.5 L92.14,29.5 Z M91,34.26 L4.75999995,34.26 L4.75999995,65.21 L91,65.21 L91,55.36 C91,53.913014 92.173014,52.74 93.62,52.74 L95.29,52.74 L95.29,46.74 L93.57,46.74 C92.1448538,46.7074876 91.0050494,45.5455081 91,44.12 L91,34.26 Z M88.57,36.64 L88.57,44.12 C88.5870848,45.8598695 89.5074349,47.4657478 91,48.36 L91,51.12 C89.5074349,52.0142521 88.5870848,53.6201305 88.57,55.36 L88.57,62.83 L7.13999996,62.83 L7.13999996,36.64 L88.57,36.64 Z" id="Shape" fill="#000000"></path>
    </g>
</svg>