<?xml version="1.0" encoding="UTF-8"?>
<svg width="100px" height="100px" viewBox="0 0 100 100" version="1.1" xmlns="http://www.w3.org/2000/svg" xmlns:xlink="http://www.w3.org/1999/xlink">
    <!-- Generator: Sketch 57.1 (83088) - https://sketch.com -->
    <title>solid/battery-charging-solid</title>
    <desc>Created with Sketch.</desc>
    <g id="solid/battery-charging" stroke="none" stroke-width="1" fill="none" fill-rule="evenodd">
        <path d="M50,3.16666662 C50.7468244,1.31543074 52.8003853,0.359509815 54.6977363,0.979897053 C56.5950872,1.60028429 57.6872085,3.58476613 57.1960784,5.5196078 L49.9901961,41.8529412 L50.0882353,41.9607843 L68.1666667,41.9607843 C69.7978936,41.9609648 71.3151657,42.7973148 72.1862745,44.1764706 C73.0903607,45.5544992 73.212901,47.3034839 72.5098039,48.7941176 L49.9607843,96.8333334 C49.1472662,98.5723081 47.1629672,99.429551 45.3391496,98.8299397 C43.5153319,98.2303284 42.4268317,96.3628501 42.8039216,94.4803922 L50.0098039,58.1078431 L49.9117647,58 L31.7647059,58 C30.1350363,57.9957005 28.6201191,57.1604757 27.7465999,55.7846829 C26.8730807,54.4088902 26.7616254,52.6825784 27.4509804,51.2058824 L50,3.16666662 Z M27.0686274,30.1568627 L19.0490196,47.2843137 C17.0006456,51.6483752 17.3242265,56.7565367 19.906908,60.82724 C22.4265972,64.7986579 26.7556588,67.2453413 31.4419952,67.3677397 L31.7941176,67.372549 L38.6568627,67.372549 L38.1666667,69.8431373 L4.48039211,69.8431373 C2.61182871,69.8431373 1.08526566,68.3788597 0.985570971,66.5351725 L0.980392108,66.3431373 L0.980392108,33.6568627 C0.985598282,31.79046 2.44710548,30.266913 4.28858313,30.1625521 L4.48039211,30.1568627 L27.0686274,30.1568627 Z M61.8333333,30.1568627 L91.3137255,30.1568627 C93.1801282,30.1620689 94.7036753,31.6235761 94.8080362,33.4650537 L94.8137255,33.6568627 L94.8137255,42.3921569 L95.5196079,42.3921569 C97.3881713,42.3921569 98.9147343,43.8564345 99.014429,45.7001217 L99.0196079,45.8921569 L99.0196079,54.1078431 C99.0196079,55.9764065 97.5553303,57.5029696 95.7116431,57.6026643 L95.5196079,57.6078431 L94.8137255,57.6078431 L94.8137255,66.3431373 C94.8137255,68.2117007 93.3494479,69.7382637 91.5057607,69.8379584 L91.3137255,69.8431373 L72.9117647,69.8431373 L80.9509804,52.7156863 C82.9993544,48.3516248 82.6757735,43.2434633 80.093092,39.17276 C77.5734028,35.2013421 73.2443412,32.7546587 68.5580048,32.6322603 L68.2058824,32.627451 L61.3431373,32.627451 L61.8333333,30.1568627 L91.3137255,30.1568627 L61.8333333,30.1568627 Z" id="Shape" fill="#000000"></path>
    </g>
</svg>