<?xml version="1.0" encoding="UTF-8"?>
<svg width="100px" height="100px" viewBox="0 0 100 100" version="1.1" xmlns="http://www.w3.org/2000/svg" xmlns:xlink="http://www.w3.org/1999/xlink">
    <!-- Generator: Sketch 57.1 (83088) - https://sketch.com -->
    <title>bold/battery-half-bold</title>
    <desc>Created with Sketch.</desc>
    <g id="bold/battery-half" stroke="none" stroke-width="1" fill="none" fill-rule="evenodd">
        <path d="M90.23,28 C93.3646946,28.0055043 95.9044957,30.5453054 95.91,33.68 L95.91,40.13 C98.3321923,40.843202 99.996501,43.064993 99.9999999,45.59 L99.9999999,53.59 C99.996501,56.115007 98.3321923,58.336798 95.91,59.05 L95.91,65.5 C95.9044957,68.6346946 93.3646946,71.1744957 90.23,71.18 L5.67999996,71.18 C2.54530536,71.1744957 0.00550425525,68.6346946 -5.00000539e-08,65.5 L-5.00000539e-08,33.68 C0.00550425525,30.5453054 2.54530536,28.0055043 5.67999996,28 L90.23,28 Z M86.82,37.09 L9.08999996,37.09 L9.08999996,62.09 L86.82,62.09 L86.82,55 C86.8199685,52.6265798 88.5614379,50.6126067 90.91,50.27 L90.91,49 C88.562992,48.6619636 86.8206372,46.6512264 86.82,44.28 L86.82,37.09 Z M47.92,41.64 L47.92,57.55 L13.64,57.55 L13.64,41.64 L47.92,41.64 Z" id="Shape" fill="#000000"></path>
    </g>
</svg>