<?xml version="1.0" encoding="UTF-8"?>
<svg width="100px" height="100px" viewBox="0 0 100 100" version="1.1" xmlns="http://www.w3.org/2000/svg" xmlns:xlink="http://www.w3.org/1999/xlink">
    <!-- Generator: Sketch 57.1 (83088) - https://sketch.com -->
    <title>bold/battery-charging-bold</title>
    <desc>Created with Sketch.</desc>
    <g id="bold/battery-charging" stroke="none" stroke-width="1" fill="none" fill-rule="evenodd">
        <path d="M55.1777675,0.54993038 C57.9574173,1.46246666 59.6736757,4.24671446 59.24,7.13999996 L52.74,39.9 L67.69,39.9 C70.0630492,39.8859515 72.2777851,41.0888758 73.5578719,43.0871095 C74.8379586,45.0853432 75.0048329,47.6001464 74,49.75 L52,96.55 C51.04675,98.6443872 48.9611034,99.9918555 46.66,100 C46.0141094,100 45.3725195,99.8949258 44.76,99.69 C41.8707988,98.7780454 40.1419263,95.8259956 40.76,92.86 L47.26,60.09 L32.31,60.09 C29.9464532,60.0906668 27.74653,58.8832435 26.4778619,56.8890431 C25.2091938,54.8948427 25.0478013,52.3905494 26.05,50.25 L48,3.44999995 C49.3655726,0.862648586 52.3981177,-0.362605902 55.1777675,0.54993038 Z M28.76,28.41 L24.5,37.5 L9.08999996,37.5 L9.08999996,62.5 L22.23,62.5 C24.7368256,65.2240609 28.2377453,66.8099574 31.9276451,66.9054522 L32.31,66.91 L39,66.91 L38,71.59 L5.67999996,71.59 C2.61820524,71.5846237 0.123956277,69.1614543 0.00447147157,66.12771 L-4.99999722e-08,65.91 L-4.99999722e-08,34.09 C0.00537624815,31.0282053 2.42854571,28.5339563 5.46228994,28.4144715 L5.67999996,28.41 L28.76,28.41 Z M62,28.41 L90.23,28.41 C93.2917948,28.4153763 95.7860437,30.8385457 95.9055285,33.87229 L95.91,34.09 L95.91,40.54 C98.2540571,41.2301955 99.8883376,43.3332214 99.9945071,45.7566315 L100,46 L100,54 C99.9978831,56.4408793 98.4435758,58.5995548 96.1516239,59.3859728 L95.92,59.46 L95.92,65.91 C95.9146237,68.9717947 93.4914543,71.4660437 90.4577101,71.5855285 L90.24,71.59 L71.24,71.59 L75.5,62.5 L86.77,62.5 L86.77,55.36 C86.7706172,53.0628744 88.4057958,51.1040595 90.6417742,50.6765514 L90.86,50.64 L90.86,49.36 C88.586336,49.0325272 86.8801248,47.135264 86.7751278,44.8612063 L86.77,44.64 L86.77,37.5 L77.77,37.5 C75.2541489,34.7589243 71.7305868,33.1704028 68.021497,33.092719 L67.65,33.09 L61,33.09 L62,28.41 L90.23,28.41 L62,28.41 Z M45.31,30.55 L35.74,51 L49.91,51 C51.9798196,50.9990543 53.9410632,51.9260016 55.2542811,53.5258807 C56.567499,55.1257597 57.0943789,57.230066 56.69,59.26 L54.69,69.46 L64.26,49 L50.09,49 C48.0197677,49.007682 46.0558061,48.0840685 44.7413669,46.4846403 C43.4269277,44.8852121 42.9013449,42.7795127 43.31,40.75 L45.31,30.55 Z" id="Shape" fill="#000000"></path>
    </g>
</svg>