<svg width="100" height="100" viewBox="0 0 100 100" fill="none" xmlns="http://www.w3.org/2000/svg">
<path d="M10 39.4117H47.8471V60.5882H10V39.4117Z" fill="black"/>
<path fill-rule="evenodd" clip-rule="evenodd" d="M4.11765 70.5882H91.6471C93.9212 70.5882 95.7647 68.7446 95.7647 66.4705V58.2352H95.8824C98.1565 58.2352 100 56.3917 100 54.1176V45.8823C100 44.7902 99.5662 43.7429 98.794 42.9707C98.0218 42.1984 96.9744 41.7646 95.8824 41.7646H95.7647V33.5293C95.7647 31.2552 93.9212 29.4117 91.6471 29.4117H4.11765C1.84353 29.4117 0 31.2552 0 33.5293V66.4705C0 68.7446 1.84353 70.5882 4.11765 70.5882ZM89.8824 64.7058H5.88235V35.294H89.8824V44.494C89.8824 45.3365 90.217 46.1444 90.8127 46.7401C91.4084 47.3358 92.2164 47.6705 93.0588 47.6705H94.1176V52.3764H93.0588C91.3045 52.3764 89.8824 53.7985 89.8824 55.5529V64.7058Z" fill="black"/>
</svg>
