<?xml version="1.0" encoding="UTF-8"?>
<svg width="100px" height="100px" viewBox="0 0 100 100" version="1.1" xmlns="http://www.w3.org/2000/svg" xmlns:xlink="http://www.w3.org/1999/xlink">
    <!-- Generator: Sketch 57.1 (83088) - https://sketch.com -->
    <title>regular/book-regular</title>
    <desc>Created with Sketch.</desc>
    <g id="regular/book" stroke="none" stroke-width="1" fill="none" fill-rule="evenodd">
        <path d="M25.27,-4.9999997e-08 L79.71,-4.9999997e-08 C81.6180548,-4.9999997e-08 83.1764926,1.49688767 83.2750515,3.38040099 L83.28,3.56999995 L83.28,84 C83.2747495,85.2574882 82.2988567,86.2855576 81.0626608,86.373869 L80.9,86.38 L80.62,86.38 L80.62,95.24 L80.9,95.24 C82.2144377,95.24 83.28,96.3055623 83.28,97.62 C83.28,98.8796695 82.3013847,99.910771 81.0629494,99.9945092 L80.9,100 L25.69,100 C23.2465349,99.9973571 20.9044929,99.0227854 19.1804572,97.2912457 C17.5313796,95.6349904 16.5773268,93.4163135 16.5044145,91.0881176 L16.499951,90.77 L16.499951,8.76999996 C16.499951,4.01295443 20.2874822,0.140523197 25.0114192,0.00373899629 L25.27,-4.9999997e-08 L79.71,-4.9999997e-08 L25.27,-4.9999997e-08 Z M75.86,86.38 L25.69,86.38 C23.2433785,86.38 21.26,88.3633786 21.26,90.81 C21.26,93.186718 23.1316617,95.126286 25.4814595,95.2351782 L25.69,95.24 L75.9,95.24 L75.86,86.38 Z M78.5,4.75999995 L25.26,4.75999995 C23.1178046,4.75999995 21.3689211,6.44396843 21.2648953,8.56035961 L21.26,8.75999995 L21.26,82.76 C22.5108388,82.0646991 23.9060981,81.6739916 25.3327487,81.6172192 L25.69,81.61 L78.5,81.61 L78.5,4.75999995 Z M62.2,42.9 C63.5144377,42.9 64.58,43.9655623 64.58,45.28 C64.58,46.5944377 63.5144377,47.66 62.2,47.66 L37.58,47.66 C36.2655623,47.66 35.2,46.5944377 35.2,45.28 C35.2,43.9655623 36.2655623,42.9 37.58,42.9 L62.2,42.9 Z M37.58,28.89 L62.2000001,28.89 C63.5144377,28.89 64.5799999,29.9555623 64.5799999,31.27 C64.5799999,32.5296694 63.6013846,33.560771 62.3629495,33.6445093 L62.2000001,33.65 L37.58,33.65 C36.2655623,33.65 35.2000001,32.5844376 35.2000001,31.27 C35.2000001,30.0103306 36.1786154,28.9792289 37.4170506,28.8954907 L37.58,28.89 L62.2000001,28.89 L37.58,28.89 Z" id="Shape" fill="#000000"></path>
    </g>
</svg>