<?xml version="1.0" encoding="UTF-8"?>
<svg width="100px" height="100px" viewBox="0 0 100 100" version="1.1" xmlns="http://www.w3.org/2000/svg" xmlns:xlink="http://www.w3.org/1999/xlink">
    <!-- Generator: Sketch 57.1 (83088) - https://sketch.com -->
    <title>regular/book-open-regular</title>
    <desc>Created with Sketch.</desc>
    <g id="regular/book-open" stroke="none" stroke-width="1" fill="none" fill-rule="evenodd">
        <path d="M97.62,6.49999996 C72.79,6.49999996 55.32,19.67 50,24.23 C44.68,19.67 27.21,6.49999996 2.37999995,6.49999996 L-4.9999997e-08,6.49999996 L-4.9999997e-08,74.44 L2.37999995,74.44 C29.7,74.44 48.05,92.05 48.33,92.32 L48.42,92.4 C48.4988462,92.4720898 48.5823608,92.5389015 48.67,92.6 L48.67,92.6 L48.85,92.7 L49.06,92.81 L49.06,92.81 L49.29,92.88 C49.351309,92.9059213 49.4149233,92.92601 49.48,92.94 L49.48,92.94 C49.7761039,93.0083767 50.0838961,93.0083767 50.38,92.94 L50.38,92.94 L50.57,92.88 L50.8,92.81 L50.8,92.81 L51,92.7 L51.19,92.6 L51.19,92.6 C51.2744216,92.5388257 51.3546049,92.4720062 51.43,92.4 L51.53,92.32 C51.71,92.14 70.01,74.44 97.53,74.44 L100,74.44 L100,6.49999996 L97.62,6.49999996 Z M47.62,85.5 C40.73,80.13 25.46,70.43 4.75999995,69.72 L4.75999995,11.31 C27.9,12.17 44.13,25.4 47.62,28.5 L47.62,85.5 Z M95.24,69.72 C74.54,70.43 59.24,80.13 52.38,85.48 L52.38,28.5 C55.86,25.4 72.05,12.18 95.24,11.32 L95.24,69.72 Z" id="book-open" fill="#000000"></path>
    </g>
</svg>