<?xml version="1.0" encoding="UTF-8"?>
<svg width="100px" height="100px" viewBox="0 0 100 100" version="1.1" xmlns="http://www.w3.org/2000/svg" xmlns:xlink="http://www.w3.org/1999/xlink">
    <!-- Generator: Sketch 57.1 (83088) - https://sketch.com -->
    <title>bold/book-open-bold</title>
    <desc>Created with Sketch.</desc>
    <g id="bold/book-open" stroke="none" stroke-width="1" fill="none" fill-rule="evenodd">
        <path d="M95.45,5.99999996 C73,5.99999996 56.6,17 50,22.25 C43.4,17 27,5.99999996 4.54999995,5.99999996 L-4.9999997e-08,5.99999996 L-4.9999997e-08,75.4 L4.54999995,75.4 C29.63,75.4 46.55,91.57 46.82,91.82 C46.89,91.89 46.97,91.94 47.05,92.01 C47.13,92.08 47.32,92.25 47.47,92.35 L47.47,92.35 C47.59,92.43 47.72,92.48 47.85,92.55 C47.98,92.62 48.09,92.69 48.22,92.75 L48.22,92.75 C48.3706047,92.8024648 48.5242122,92.8458756 48.68,92.88 C48.7965532,92.9271214 48.9170147,92.9639291 49.04,92.99 L49.04,92.99 C49.327191,93.0414058 49.6182503,93.0681699 49.91,93.07 L49.91,93.07 C50.2017497,93.0681699 50.492809,93.0414058 50.78,92.99 L50.78,92.99 C50.9029853,92.9639291 51.0234468,92.9271214 51.14,92.88 C51.2961393,92.8472922 51.4498372,92.8038558 51.6,92.75 L51.6,92.75 C51.73,92.69 51.86,92.61 51.98,92.54 C52.1082458,92.4867277 52.2319811,92.4231879 52.35,92.35 L52.35,92.35 C52.5747,92.2489105 52.791916,92.131948 53,92 C53.07,91.94 53.14,91.9 53.21,91.83 C53.28,91.76 70.21,75.42 95.47,75.42 L100,75.42 L100,5.99999996 L95.45,5.99999996 Z M45.45,79.22 C34.668006,71.8333054 22.1234885,67.430994 9.08999996,66.46 L9.08999996,15.27 C27.84,16.73 41.3,26.8 45.45,30.27 L45.45,79.22 Z M90.91,66.46 C77.8765115,67.430994 65.331994,71.8333054 54.55,79.22 L54.55,30.3 C58.69,26.79 72.07,16.72 90.91,15.3 L90.91,66.46 Z" id="book-open" fill="#000000"></path>
    </g>
</svg>