<?xml version="1.0" encoding="UTF-8"?>
<svg width="100px" height="100px" viewBox="0 0 100 100" version="1.1" xmlns="http://www.w3.org/2000/svg" xmlns:xlink="http://www.w3.org/1999/xlink">
    <!-- Generator: Sketch 57.1 (83088) - https://sketch.com -->
    <title>solid/box-open-solid</title>
    <desc>Created with Sketch.</desc>
    <g id="solid/box-open" stroke="none" stroke-width="1" fill="none" fill-rule="evenodd">
        <path d="M87.47,26.81 L87.47,26.81 L87.38,26.69 L87.38,26.69 C87.27,26.54 87.16,26.38 87.04,26.24 L87.04,26.24 C86.88,26.05 86.71,25.86 86.54,25.69 L86.31,25.49 L85.97,25.18 L85.6,24.9 L85.37,24.74 L84.91,24.46 L84.73,24.36 L84.73,24.36 L53.67,7.91999996 L53.67,7.91999996 L53.67,7.91999996 L53.44,7.81999996 C53.25,7.71999996 53.1,7.63999996 53,7.57999996 L52.54,7.42999996 L52.25,7.32999996 C52.09,7.32999996 51.93,7.24999996 51.77,7.20999996 L51.52,7.14999996 L51,7.06999996 L50.75,7.06999996 L50.29,7.06999996 L49.58,7.06999996 C49.46,7.06999996 49.34,7.06999996 49.22,7.06999996 L48.87,7.06999996 L48.46,7.13999996 L48.14,7.21999996 L47.73,7.31999996 L47.4,7.45999996 C47.29,7.45999996 47.17,7.52999996 47.06,7.57999996 L46.57,7.79999996 L46.38,7.88999996 L46.38,7.88999996 L46.38,7.88999996 L15.38,24.21 L15.38,24.21 L15.15,24.35 C15.01,24.43 14.87,24.51 14.74,24.6 L14.49,24.78 L14.14,25.04 L13.8,25.34 L13.57,25.55 C13.41,25.71 13.26,25.88 13.11,26.06 L13.06,26.12 C12.94,26.26 12.83,26.42 12.72,26.57 L12.72,26.57 L12.63,26.69 L12.63,26.69 L12.63,26.69 L-4.9999997e-08,45.6 L11.23,51.51 L11.23,71.9 L46.29,90.38 L46.29,90.38 L50,92.33 L53.68,90.39 L53.68,90.39 L88.77,71.9 L88.77,51.51 L100,45.6 L87.47,26.81 Z M42.24,70.71 L26.74,62.54 L26.74,59.69 L42.24,67.86 L42.24,70.71 Z M50,38.71 L35.62,31.1 L50,23.52 L64.38,31.1 L50,38.71 Z M73.26,62.54 L57.76,70.71 L57.76,67.86 L73.26,59.69 L73.26,62.54 Z" id="box-open" fill="#000000"></path>
    </g>
</svg>