<?xml version="1.0" encoding="UTF-8"?>
<svg width="100px" height="100px" viewBox="0 0 100 100" version="1.1" xmlns="http://www.w3.org/2000/svg" xmlns:xlink="http://www.w3.org/1999/xlink">
    <!-- Generator: Sketch 57.1 (83088) - https://sketch.com -->
    <title>regular/box-regular</title>
    <desc>Created with Sketch.</desc>
    <g id="regular/box" stroke="none" stroke-width="1" fill="none" fill-rule="evenodd">
        <path d="M93.31,23.07 L93.31,23.07 L49.5,-4.9999997e-08 L4.49999995,23.73 L4.49999995,76.27 L49.5,100 L94.5,76.27 L94.5,23.73 L93.31,23.07 Z M49.5,5.34999996 L87.11,25.16 L70.86,33.72 L33.27,13.91 L49.5,5.34999996 Z M47.16,93.4 L9.22999996,73.4 L9.22999996,29.08 L47.16,49.08 L47.16,93.4 Z M11.94,25.16 L28.2,16.59 L65.78,36.4 L49.5,45 L11.94,25.16 Z M89.82,73.42 L51.89,93.42 L51.89,49.06 L89.82,29.06 L89.82,73.42 Z" id="box" fill="#000000"></path>
    </g>
</svg>