<?xml version="1.0" encoding="UTF-8"?>
<svg width="100px" height="100px" viewBox="0 0 100 100" version="1.1" xmlns="http://www.w3.org/2000/svg" xmlns:xlink="http://www.w3.org/1999/xlink">
    <!-- Generator: Sketch 57.1 (83088) - https://sketch.com -->
    <title>bold/box-open-bold</title>
    <desc>Created with Sketch.</desc>
    <g id="bold/box-open" stroke="none" stroke-width="1" fill="none" fill-rule="evenodd">
        <path d="M88.57,27.34 C88.57,27.28 88.48,27.24 88.44,27.19 L88.44,27.19 C88.3466667,27.07 88.2566667,26.96 88.17,26.86 L88.17,26.86 L88.17,26.86 C88.0850683,26.7650706 87.9949294,26.6749317 87.9,26.59 L87.9,26.59 L87.76,26.47 L87.59,26.33 L87.59,26.33 L87.16,26 L87.16,26 L87,25.9 L52,7.48999996 L51.8,7.38999996 C51.62,7.30999996 51.44,7.22999996 51.26,7.16999996 C51.08,7.10999996 51,7.10999996 50.83,7.07999996 C50.66,7.04999996 50.57,6.99999996 50.43,6.99999996 C50.2868219,6.99056569 50.1431781,6.99056569 50,6.99999996 C49.863521,6.98987175 49.726479,6.98987175 49.59,6.99999996 C49.4416036,7.01607318 49.2945568,7.04280895 49.15,7.07999996 C49.02,7.07999996 48.88,7.07999996 48.75,7.15999996 C48.565944,7.22295444 48.3856482,7.29640827 48.21,7.37999996 L48,7.48999996 L13,25.9 L12.84,26 L12.84,26 C12.715481,26.0730049 12.595281,26.1531382 12.48,26.24 L12.48,26.24 L12.34,26.36 L12.17,26.49 L12.17,26.49 L12.17,26.49 C12.09,26.56 12.02,26.64 11.95,26.71 L11.89,26.77 L11.89,26.77 L11.89,26.77 C11.8033333,26.87 11.7133333,26.98 11.62,27.1 L11.62,27.1 C11.62,27.1 11.53,27.19 11.49,27.25 L-4.9999997e-08,44.49 L10.7,50.12 L10.7,73.12 L50,93.8 L89.3,73.09 L89.3,50.09 L100,44.49 L88.57,27.34 Z M16.57,35.46 L43.68,49.78 L39.81,55.59 L12.64,41.27 L16.57,35.46 Z M45.63,81.62 L19.43,67.81 L19.43,54.73 L42.7,67 L45.63,62.61 L45.63,81.62 Z M24.44,29.76 L50,16.29 L75.56,29.76 L50,43.23 L24.44,29.76 Z M80.57,67.81 L54.37,81.62 L54.37,62.62 L57.3,67 L80.57,54.73 L80.57,67.81 Z M60.19,55.59 L56.32,49.78 L83.48,35.46 L87.36,41.27 L60.19,55.59 Z" id="box-open" fill="#000000"></path>
    </g>
</svg>