<?xml version="1.0" encoding="UTF-8"?>
<svg width="100px" height="100px" viewBox="0 0 100 100" version="1.1" xmlns="http://www.w3.org/2000/svg" xmlns:xlink="http://www.w3.org/1999/xlink">
    <!-- Generator: Sketch 57.1 (83088) - https://sketch.com -->
    <title>bold/brackets-bold</title>
    <desc>Created with Sketch.</desc>
    <g id="bold/brackets" stroke="none" stroke-width="1" fill="none" fill-rule="evenodd">
        <path d="M38.1251275,3.14578248 C38.9690734,4.55616823 38.9690734,6.31638071 38.1251275,7.72676645 C37.2811815,9.13715219 35.7300327,9.96918897 34.0882353,9.89215682 L16.2647058,9.89215682 L16.2647058,90.1078432 L34.0882353,90.1078432 C35.7300327,90.030811 37.2811815,90.8628478 38.1251275,92.2732336 C38.9690734,93.6836193 38.9690734,95.4438318 38.1251275,96.8542175 C37.2811815,98.2646033 35.7300327,99.09664 34.0882353,99.0196079 L7.35294113,99.0196079 L7.35294113,0.980392108 L34.0882353,0.980392108 C35.7300327,0.903359955 37.2811815,1.73539674 38.1251275,3.14578248 Z M92.0196079,0.980392108 L92.0196079,99.0196079 L65.2843137,99.0196079 C62.9045934,98.9079528 61.0325968,96.9460638 61.0325968,94.5637255 C61.0325968,92.1813873 62.9045934,90.2194982 65.2843137,90.1078432 L83.1078432,90.1078432 L83.1078432,9.89215682 L65.2843137,9.89215682 C62.9045934,9.78050177 61.0325968,7.81861275 61.0325968,5.43627447 C61.0325968,3.05393618 62.9045934,1.09204716 65.2843137,0.980392108 L92.0196079,0.980392108 Z" id="Shape" fill="#000000"></path>
    </g>
</svg>