<?xml version="1.0" encoding="UTF-8"?>
<svg width="100px" height="100px" viewBox="0 0 100 100" version="1.1" xmlns="http://www.w3.org/2000/svg" xmlns:xlink="http://www.w3.org/1999/xlink">
    <!-- Generator: Sketch 57.1 (83088) - https://sketch.com -->
    <title>regular/brackets-regular</title>
    <desc>Created with Sketch.</desc>
    <g id="regular/brackets" stroke="none" stroke-width="1" fill="none" fill-rule="evenodd">
        <path d="M92.71,-4.9999997e-08 L92.71,100 L66.52,100 C65.2055623,100 64.14,98.9344378 64.14,97.62 C64.14,96.3055623 65.2055623,95.24 66.52,95.24 L88,95.24 L88,4.75999995 L66.52,4.75999995 C65.2055623,4.75999995 64.14,3.69443766 64.14,2.37999995 C64.14,1.06556225 65.2055623,-4.9999997e-08 66.52,-4.9999997e-08 L92.71,-4.9999997e-08 Z M33.19,-4.9999997e-08 C34.5044377,-4.9999997e-08 35.57,1.06556225 35.57,2.37999995 C35.57,3.69443766 34.5044377,4.75999995 33.19,4.75999995 L11.76,4.75999995 L11.76,95.24 L33.19,95.24 C34.5044377,95.24 35.57,96.3055623 35.57,97.62 C35.57,98.9344378 34.5044377,100 33.19,100 L6.99999996,100 L6.99999996,-4.9999997e-08 L33.19,-4.9999997e-08 Z" id="Shape" fill="#000000"></path>
    </g>
</svg>