<?xml version="1.0" encoding="UTF-8"?>
<svg width="100px" height="100px" viewBox="0 0 100 100" version="1.1" xmlns="http://www.w3.org/2000/svg" xmlns:xlink="http://www.w3.org/1999/xlink">
    <!-- Generator: Sketch 57.1 (83088) - https://sketch.com -->
    <title>regular/browser-windows-regular</title>
    <desc>Created with Sketch.</desc>
    <g id="regular/browser-windows" stroke="none" stroke-width="1" fill="none" fill-rule="evenodd">
        <path d="M83.11,25.8399757 C84.2132023,25.8373223 85.2718463,26.2750683 86.0509911,27.0560906 C86.7744828,27.7813256 87.201407,28.7468442 87.2544739,29.764353 L87.2600485,30 L87.2600485,81.51 C87.2546552,83.7180289 85.5173118,85.5179063 83.3357806,85.6249622 L83.13,85.63 L4.12999995,85.63 C1.92196458,85.63 0.117874507,83.8970326 0.00549059224,81.7157678 L-9.93634889e-05,81.51 L-9.93634889e-05,30 C-0.0107524616,27.7865804 1.71771611,25.9696826 3.90375717,25.8465315 L4.10999995,25.8399757 L83.11,25.8399757 Z M82.65,41.05 L4.58999995,41.05 L4.58999995,81.05 L82.65,81.05 L82.65,41.05 Z M95.87,14 C98.0818168,14 99.887539,15.7386974 99.9949456,17.9238713 L100,18.13 L100,69.66 C99.9840157,71.8604476 98.2493655,73.6486406 96.0750875,73.7549953 L95.87,73.76 L94.12,73.76 L94.12,69.17 L95.41,69.17 L95.41,29.17 L94.08,29.17 C93.9827698,27.6950907 93.5842061,26.2572461 92.9105309,24.9447726 L92.72,24.59 L95.41,24.59 L95.41,18.59 L17.33,18.59 L17.33,19 L12.74,19 L12.74,18.13 C12.74,15.9181832 14.4786974,14.112461 16.6638713,14.0050544 L16.87,14 L95.87,14 Z M82.65,30.43 L4.58999995,30.43 L4.58999995,36.43 L82.65,36.43 L82.65,30.43 Z M7.88334327,32.6253986 L7.99999996,32.63 C8.41533535,32.6760771 8.72958425,33.0271165 8.72958425,33.445 C8.72958425,33.8628834 8.41533535,34.2139229 7.99999996,34.26 C7.68727246,34.2946938 7.38227129,34.1473839 7.21502155,33.88087 C7.04777182,33.6143561 7.04777182,33.2756439 7.21502155,33.00913 C7.34045886,32.8092445 7.54338134,32.6764113 7.76893466,32.6371241 L7.88334327,32.6253986 Z M11.8961985,32.8566262 C12.1327948,33.0903372 12.2048029,33.4438044 12.0784908,33.7514469 C11.9521787,34.0590893 11.6525637,34.2599753 11.32,34.26 C10.8710031,34.2600334 10.5054755,33.8989634 10.5,33.45 C10.4959443,33.117461 10.693139,32.8154038 10.9992085,32.6853266 C11.305278,32.5552493 11.6596022,32.6229152 11.8961985,32.8566262 Z M14.2815534,32.6843949 C14.5888595,32.5549169 14.9439691,32.6244345 15.1797673,32.8602327 C15.4155655,33.0960308 15.4850831,33.4511405 15.3556051,33.7584465 C15.2261271,34.0657526 14.9234445,34.2640422 14.59,34.26 C14.1426493,34.26 13.78,33.8973506 13.78,33.45 C13.7759578,33.1165555 13.9742474,32.8138728 14.2815534,32.6843949 Z" id="Shape" fill="#000000"></path>
    </g>
</svg>