<?xml version="1.0" encoding="UTF-8"?>
<svg width="100px" height="100px" viewBox="0 0 100 100" version="1.1" xmlns="http://www.w3.org/2000/svg" xmlns:xlink="http://www.w3.org/1999/xlink">
    <!-- Generator: Sketch 57.1 (83088) - https://sketch.com -->
    <title>bold/browser-windows-bold</title>
    <desc>Created with Sketch.</desc>
    <g id="bold/browser-windows" stroke="none" stroke-width="1" fill="none" fill-rule="evenodd">
        <path d="M76.51,29.13 C80.022531,29.13 82.87,31.977469 82.87,35.49 L82.87,81.13 C82.87,84.6441523 80.024148,87.4944833 76.51,87.5 L6.35999996,87.5 C2.84585197,87.4944833 -5.00002884e-08,84.6441523 -5.00002884e-08,81.13 L-5.00002884e-08,35.49 C-5.00002884e-08,31.977469 2.84746894,29.13 6.35999996,29.13 L76.51,29.13 Z M73.78,47.69 L9.08999996,47.69 L9.08999996,78.41 L73.78,78.41 L73.78,47.69 Z M93.82,12 C95.460772,12 97.0341966,12.6524756 98.1934593,13.8136142 C99.352722,14.9747527 100.002655,16.5492301 100.000016,18.19 L100.000016,64.19 C100.000016,65.8290379 99.3488948,67.4009451 98.18992,68.5599199 C97.0309451,69.7188947 95.459038,70.37 93.82,70.37 L89.69,70.37 L89.69,61.28 L90.91,61.28 L90.91,30.57 L88.73,30.57 C86.7228555,25.5818092 81.8868641,22.3129639 76.51,22.31 L17.13,22.31 L17.13,18.18 C17.13,14.7668802 19.8968802,12 23.31,12 L93.82,12 Z M73.78,38.22 L16.21,38.22 C16.2634884,38.3410199 16.2634884,38.47898 16.21,38.6 L73.78,38.6 L73.78,38.22 Z M11.91,38.22 L10.36,38.22 C10.4134884,38.3410199 10.4134884,38.47898 10.36,38.6 L11.91,38.6 C11.8565116,38.47898 11.8565116,38.3410199 11.91,38.22 Z M14.84,38.22 L13.29,38.22 C13.329774,38.3435443 13.329774,38.4764556 13.29,38.6 L14.84,38.6 C14.7865116,38.47898 14.7865116,38.3410199 14.84,38.22 Z M90.91,21.09 L26.22,21.09 L26.22,21.48 L90.91,21.48 L90.91,21.09 Z" id="Shape" fill="#000000"></path>
    </g>
</svg>