<?xml version="1.0" encoding="UTF-8"?>
<svg width="100px" height="100px" viewBox="0 0 100 100" version="1.1" xmlns="http://www.w3.org/2000/svg" xmlns:xlink="http://www.w3.org/1999/xlink">
    <!-- Generator: Sketch 57.1 (83088) - https://sketch.com -->
    <title>solid/browser-window-minus-solid</title>
    <desc>Created with Sketch.</desc>
    <g id="solid/browser-window-minus" stroke="none" stroke-width="1" fill="none" fill-rule="evenodd">
        <path d="M99.9999999,32.5 L99.9999999,79.59 C99.9999999,81.9593016 98.0793016,83.88 95.71,83.88 L4.28999995,83.88 C1.92459813,83.88 0.00551370716,81.9653954 -5.00000539e-08,79.6 L-5.00000539e-08,32.5 L99.9999999,32.5 Z M65.76,53.67 L34.24,53.67 C32.9255623,53.67 31.86,54.7355623 31.86,56.05 C31.86,57.3644377 32.9255623,58.43 34.24,58.43 L65.76,58.43 C67.0744377,58.43 68.14,57.3644377 68.14,56.05 C68.14,54.7355623 67.0744377,53.67 65.76,53.67 Z M95.71,15.5 C98.0793016,15.5 99.9999999,17.4206984 99.9999999,19.79 L99.9999999,27.73 L-5.0000061e-08,27.73 L-5.0000061e-08,19.79 C-5.0000061e-08,17.4206984 1.92069838,15.5 4.28999995,15.5 L95.71,15.5 Z M12.78,23.06 C12.2608523,23.06 11.84,23.4808523 11.84,24 C11.84,24.3801945 12.0690236,24.7229526 12.4202775,24.8684467 C12.7715315,25.0139409 13.1758422,24.9335185 13.4446803,24.6646803 C13.7135185,24.3958422 13.7939409,23.9915315 13.6484467,23.6402775 C13.5029526,23.2890236 13.1601945,23.06 12.78,23.06 L12.78,23.06 Z M8.99999996,23.06 C8.48085229,23.06 8.05999996,23.4808523 8.05999996,24 C8.05999996,24.5191476 8.48085229,24.94 8.99999996,24.94 C9.51914762,24.94 9.93999996,24.5191476 9.93999996,24 C9.93999996,23.4808523 9.51914762,23.06 8.99999996,23.06 L8.99999996,23.06 Z M16.55,23.06 C16.0347618,23.0654815 15.6199708,23.4847326 15.62,24 C15.6200215,24.3810999 15.8501423,24.7244737 16.2026254,24.8693624 C16.5551086,25.0142511 16.9601918,24.9319788 17.2282252,24.6610633 C17.4962586,24.3901478 17.5741939,23.9842078 17.4255437,23.6332944 C17.2768936,23.282381 16.9310783,23.0559457 16.55,23.06 Z" id="Shape" fill="#000000"></path>
    </g>
</svg>