<svg width="100" height="100" viewBox="0 0 100 100" fill="none" xmlns="http://www.w3.org/2000/svg">
<path d="M10.342 24.6237C10.1988 24.9724 9.8592 25.2002 9.48222 25.2002C8.97348 25.2003 8.55925 24.7913 8.55281 24.2826C8.54804 23.9056 8.77143 23.5631 9.11832 23.4156C9.46522 23.268 9.86689 23.3446 10.1351 23.6094C10.4034 23.8743 10.4851 24.275 10.342 24.6237Z" fill="black"/>
<path d="M13.2117 25.2001C13.5897 25.2049 13.9329 24.9802 14.0798 24.6319C14.2266 24.2835 14.1479 23.8809 13.8806 23.6136C13.6132 23.3463 13.2106 23.2675 12.8623 23.4144C12.5139 23.5613 12.2893 23.9045 12.294 24.2825C12.294 24.7893 12.7049 25.2001 13.2117 25.2001Z" fill="black"/>
<path d="M17.8093 24.6319C17.6624 24.9802 17.3192 25.2049 16.9412 25.2001C16.4344 25.2001 16.0235 24.7893 16.0235 24.2825C16.0188 23.9045 16.2434 23.5613 16.5918 23.4144C16.9401 23.2675 17.3427 23.3463 17.61 23.6136C17.8774 23.8809 17.9561 24.2835 17.8093 24.6319Z" fill="black"/>
<path fill-rule="evenodd" clip-rule="evenodd" d="M5.29412 15.294H94.7059C97.6271 15.3005 99.9935 17.6669 100 20.5881V78.7411C99.9935 81.6622 97.6271 84.0287 94.7059 84.0352H5.29412C2.37294 84.0287 0.00646996 81.6622 0 78.7411V20.5881C0.00646996 17.6669 2.37294 15.3005 5.29412 15.294ZM94.1176 27.3881V21.1764H5.88235V27.3881H94.1176ZM5.88235 33.2705V78.1528H94.1176V33.2705H5.88235Z" fill="black"/>
</svg>
