<?xml version="1.0" encoding="UTF-8"?>
<svg width="100px" height="100px" viewBox="0 0 100 100" version="1.1" xmlns="http://www.w3.org/2000/svg" xmlns:xlink="http://www.w3.org/1999/xlink">
    <!-- Generator: Sketch 57.1 (83088) - https://sketch.com -->
    <title>solid/browser-window-cross-solid</title>
    <desc>Created with Sketch.</desc>
    <g id="solid/browser-window-cross" stroke="none" stroke-width="1" fill="none" fill-rule="evenodd">
        <path d="M99.9999999,32.5 L99.9999999,79.59 C99.9999999,81.9593016 98.0793016,83.88 95.71,83.88 L4.28999995,83.88 C1.92459813,83.88 0.00551370716,81.9653954 -5.00000539e-08,79.6 L-5.00000539e-08,32.5 L99.9999999,32.5 Z M62.83,43.22 C61.8994002,42.2894002 60.3905998,42.2894002 59.46,43.22 L50,52.68 L40.54,43.22 C39.9380075,42.6180075 39.0605843,42.3829026 38.2382472,42.6032472 C37.4159101,42.8235917 36.7735917,43.4659101 36.5532472,44.2882472 C36.3329026,45.1105843 36.5680075,45.9880075 37.17,46.59 L46.63,56.05 L37.17,65.51 C36.722386,65.9565051 36.4708257,66.5627619 36.4708257,67.195 C36.4708257,67.8272382 36.722386,68.4334949 37.17,68.88 C37.6210653,69.3227015 38.227984,69.5704967 38.86,69.570029 C39.4894062,69.5722068 40.0938398,69.3239573 40.54,68.88 L50,59.42 L59.46,68.87 C59.9061602,69.3139573 60.5105938,69.5622068 61.14,69.56 C61.772016,69.5604967 62.3789347,69.3127015 62.83,68.87 C63.277614,68.4234949 63.5291743,67.8172382 63.5291743,67.185 C63.5291743,66.5527619 63.277614,65.9465051 62.83,65.5 L53.37,56.05 L62.83,46.59 C63.7605998,45.6594002 63.7605998,44.1505998 62.83,43.22 Z M95.71,15.5 C98.0793016,15.5 99.9999999,17.4206984 99.9999999,19.79 L99.9999999,27.73 L-5.0000061e-08,27.73 L-5.0000061e-08,19.79 C-5.0000061e-08,17.4206984 1.92069838,15.5 4.28999995,15.5 L95.71,15.5 Z M12.78,23.06 C12.2608523,23.06 11.84,23.4808523 11.84,24 C11.84,24.3801945 12.0690236,24.7229526 12.4202775,24.8684467 C12.7715315,25.0139409 13.1758422,24.9335185 13.4446803,24.6646803 C13.7135185,24.3958422 13.7939409,23.9915315 13.6484467,23.6402775 C13.5029526,23.2890236 13.1601945,23.06 12.78,23.06 L12.78,23.06 Z M8.99999996,23.06 C8.48085229,23.06 8.05999996,23.4808523 8.05999996,24 C8.05999996,24.5191476 8.48085229,24.94 8.99999996,24.94 C9.51914762,24.94 9.93999996,24.5191476 9.93999996,24 C9.93999996,23.4808523 9.51914762,23.06 8.99999996,23.06 L8.99999996,23.06 Z M16.55,23.06 C16.0347618,23.0654815 15.6199708,23.4847326 15.62,24 C15.6200215,24.3810999 15.8501423,24.7244737 16.2026254,24.8693624 C16.5551086,25.0142511 16.9601918,24.9319788 17.2282252,24.6610633 C17.4962586,24.3901478 17.5741939,23.9842078 17.4255437,23.6332944 C17.2768936,23.282381 16.9310783,23.0559457 16.55,23.06 Z" id="Shape" fill="#000000"></path>
    </g>
</svg>