<svg width="100" height="100" viewBox="0 0 100 100" fill="none" xmlns="http://www.w3.org/2000/svg">
<path d="M50 11.1765C22.4353 11.1765 0 25.6 0 43.3177C0 55.0824 9.56471 65.6 25.1882 71.2706C22.7529 76.5412 17.8588 79.8 14.8941 81.3647C13.3556 82.1853 12.5729 83.9477 12.9958 85.6393C13.4187 87.331 14.9387 88.5177 16.6824 88.5177H16.8471C29.1647 87.9883 38.2471 83.1295 42.1882 75.0706C44.7647 75.3295 47.3882 75.4589 50 75.4589C77.5647 75.4589 100 61.0471 100 43.3177C100 25.5883 77.5647 11.1765 50 11.1765ZM56.6235 52.7295C56.6171 55.6506 54.2506 58.0171 51.3294 58.0236H40.5882C37.6671 58.0171 35.3006 55.6506 35.2941 52.7295V42C35.3006 39.0789 37.6671 36.7124 40.5882 36.7059H43.1412L42.3294 37.5295C41.4638 38.4074 40.8222 39.4807 40.4588 40.6589L39.2 44.7765C38.5107 47.0399 38.9343 49.4961 40.342 51.3978C41.7498 53.2995 43.9751 54.4219 46.3412 54.4236C47.082 54.4228 47.8189 54.3158 48.5294 54.1059L52.5647 52.8706C53.794 52.5072 54.9138 51.8442 55.8235 50.9412L56.6235 50.1412V52.7295ZM63.6824 37.2236L62.6824 38.2118L52.9412 48.0236C52.5285 48.4454 52.0138 48.7534 51.4471 48.9177L47.3647 50.1647C47.0474 50.2573 46.7187 50.3048 46.3882 50.3059C45.3252 50.3072 44.3246 49.8044 43.6912 48.9507C43.0579 48.0969 42.8669 46.9934 43.1765 45.9765L44.4353 41.8706C44.599 41.3219 44.8937 40.8212 45.2941 40.4118L55.1294 30.5883L56.1294 29.5883C57.4372 28.3089 59.5275 28.3089 60.8353 29.5883L63.7412 32.4824C65.0469 33.795 65.0417 35.9175 63.7294 37.2236H63.6824Z" fill="black"/>
</svg>
