<?xml version="1.0" encoding="UTF-8"?>
<svg width="100px" height="100px" viewBox="0 0 100 100" version="1.1" xmlns="http://www.w3.org/2000/svg" xmlns:xlink="http://www.w3.org/1999/xlink">
    <!-- Generator: Sketch 57.1 (83088) - https://sketch.com -->
    <title>solid/bubble-message-edit-solid</title>
    <desc>Created with Sketch.</desc>
    <g id="solid/bubble-message-edit" stroke="none" stroke-width="1" fill="none" fill-rule="evenodd">
        <path d="M50,11 C77.57,11 100,25.36 100,42.97 C100,60.58 77.57,74.9 50,74.9 C47.2410043,74.9026656 44.4838054,74.759131 41.74,74.47 C39.21,79.92 32.77,87.41 16.42,88.1100847 L16.28,88.1100847 C14.7857301,88.1176181 13.4800572,87.102316 13.1193143,85.6522246 C12.7585715,84.2021332 13.4363354,82.6934065 14.76,82 C17.93,80.27 23.26,76.71 25.7,70.93 C9.77999996,65.27 -4.99996133e-08,54.71 -4.99996133e-08,42.93 C-4.99996133e-08,25.32 22.43,11 50,11 Z M45.91,35.4 L35.28,35.4 C32.9146046,35.4055137 30.9999073,37.3245982 30.9999073,39.69 L30.9999073,57.69 C30.9946682,58.8329752 31.445669,59.9308222 32.252944,60.7399746 C33.0602191,61.5491271 34.1570155,62.0026768 35.3,62.0000235 L53.3,62.0000235 C54.4412525,62.0000235 55.5354727,61.5452872 56.3405811,60.7364253 C57.1456896,59.9275634 57.5953205,58.8312401 57.5900926,57.69 L57.55,47 L54.3340844,50.2168335 C53.8912776,50.6385044 53.3836593,50.9874403 52.83,51.25 L52.83,57.25 L35.73,57.25 L35.73,40.15 L41.73,40.15 C42.0094938,39.497494 42.4098615,38.9037284 42.91,38.4 L45.91,35.4 Z M61.97,23.88 L61.7562942,23.8885178 C61.0474684,23.9421218 60.3779836,24.2461523 59.87,24.75 L58.47,26.16 L44.58,40.05 C44.2097195,40.4260385 43.9353335,40.8856349 43.78,41.39 L42,47.22 C41.7416573,48.1167771 41.9153704,49.0827064 42.469974,49.8332829 C43.0245775,50.5838595 43.8968972,51.033586 44.83,51.05 C45.1245315,51.0460488 45.4171788,51.0023199 45.7,50.92 L51.52,49.1 C52.0265271,48.9495606 52.4872439,48.6745058 52.86,48.3 L68.16,33 L68.16,33.04 C69.3034286,31.8734695 69.3034286,30.0065305 68.16,28.84 L64.07,24.75 C63.5112181,24.1957675 62.7570196,23.8833138 61.97,23.88 Z M60.1512546,31.2175159 L61.6998184,32.7660797 L51.5740493,42.8918488 L50.0254855,41.343285 L60.1512546,31.2175159 Z" id="Shape" fill="#000000"></path>
    </g>
</svg>