<?xml version="1.0" encoding="UTF-8"?>
<svg width="100px" height="100px" viewBox="0 0 100 100" version="1.1" xmlns="http://www.w3.org/2000/svg" xmlns:xlink="http://www.w3.org/1999/xlink">
    <!-- Generator: Sketch 57.1 (83088) - https://sketch.com -->
    <title>regular/bubble-message-dots-regular</title>
    <desc>Created with Sketch.</desc>
    <g id="regular/bubble-message-dots" stroke="none" stroke-width="1" fill="none" fill-rule="evenodd">
        <path d="M50,11 C77.57,11 100,25.36 100,42.97 C100,60.58 77.57,74.9 50,74.9 C47.2410043,74.9026656 44.4838054,74.759131 41.74,74.47 C39.2375,79.8607609 32.8997542,87.247415 16.9493283,88.0848198 L16.42,88.1100847 L16.28,88.1100847 C14.7857301,88.1176181 13.4800572,87.102316 13.1193143,85.6522246 C12.7585715,84.2021332 13.4363354,82.6934065 14.76,82 C17.93,80.27 23.26,76.71 25.7,70.93 C9.77999996,65.27 -4.99996133e-08,54.71 -4.99996133e-08,42.93 C-4.99996133e-08,25.32 22.43,11 50,11 Z M50,15.76 C25.06,15.76 4.75999995,28 4.75999995,42.93 C4.75999995,52.8905435 14.2307088,62.2347082 28.9237284,66.9657095 L29.41,67.12 L31.59,67.79 L31,70 C29.5560643,74.9992101 26.5579291,79.4088506 22.44,82.59 C28.442807,81.4012281 35.1888335,78.4654078 37.8607846,71.4497548 L38,71.07 L38.61,69.25 L40.53,69.49 C43.6704173,69.8951889 46.8335512,70.0989388 50,70.1 C74.94,70.1 95.24,57.86 95.24,42.93 C95.24,28 74.94,15.76 50,15.76 Z M37.62,38.17 C40.2488754,38.17 42.38,40.3011246 42.38,42.93 C42.38,45.5588754 40.2488754,47.69 37.62,47.69 C34.9911246,47.69 32.86,45.5588754 32.86,42.93 C32.86,40.3011246 34.9911246,38.17 37.62,38.17 Z M50,38.17 C52.6288754,38.17 54.76,40.3011246 54.76,42.93 C54.76,45.5588754 52.6288754,47.69 50,47.69 C47.3711246,47.69 45.24,45.5588754 45.24,42.93 C45.24,40.3011246 47.3711246,38.17 50,38.17 Z M62.38,38.17 C65.0088754,38.17 67.14,40.3011246 67.14,42.93 C67.14,45.5588754 65.0088754,47.69 62.38,47.69 C59.7511246,47.69 57.62,45.5588754 57.62,42.93 C57.62,40.3011246 59.7511246,38.17 62.38,38.17 Z" id="Shape" fill="#000000"></path>
    </g>
</svg>