<?xml version="1.0" encoding="UTF-8"?>
<svg width="100px" height="100px" viewBox="0 0 100 100" version="1.1" xmlns="http://www.w3.org/2000/svg" xmlns:xlink="http://www.w3.org/1999/xlink">
    <!-- Generator: Sketch 57.1 (83088) - https://sketch.com -->
    <title>bold/bubble-message-lines-bold</title>
    <desc>Created with Sketch.</desc>
    <g id="bold/bubble-message-lines" stroke="none" stroke-width="1" fill="none" fill-rule="evenodd">
        <path d="M50,10.5 C78,10.5 100,24.88 100,43.25 C100,61.62 78,76 50,76 C47.81,76 45.61,75.91 43.44,75.73 C39.1766154,83.341077 30.3276497,87.9468048 18.601752,88.5830854 L18.05,88.61 L17.81,88.61 C15.3458794,88.6082817 13.1991389,86.9297448 12.6031713,84.5387793 C12.0072036,82.1478138 13.114965,79.6580658 15.29,78.5 C18.6403708,76.7976865 21.5032723,74.2720017 23.61,71.16 C8.91999996,65.25 -4.99996062e-08,54.87 -4.99996062e-08,43.25 C-4.99996062e-08,24.89 22,10.5 50,10.5 Z M50,19.59 C27.82,19.59 9.08999996,30.43 9.08999996,43.25 C9.08999996,51.7104651 17.5009316,59.8192537 30.537955,64.0039404 L31,64.15 L35.2,65.44 L34.08,69.66 C33.5259248,71.7384066 32.6809027,73.7280803 31.57,75.57 C33.6930328,74.1380639 35.3237403,72.0918767 36.246865,69.7097965 L36.38,69.35 L37.6,65.88 L41.25,66.35 C44.1516888,66.7236044 47.0743585,66.9106553 50,66.91 C72.18,66.91 90.91,56.07 90.91,43.25 C90.91,30.43 72.18,19.59 50,19.59 Z M37.68,48.5 L54.2,48.5 C56.6273147,48.6138882 58.5367513,50.615015 58.5367513,53.045 C58.5367513,55.4035149 56.7379828,57.3580275 54.4127955,57.5750905 L54.2,57.59 L37.68,57.59 C35.2526853,57.4761119 33.3432487,55.4749851 33.3432487,53.045 C33.3432487,50.6864851 35.1420172,48.7319725 37.4672045,48.5149095 L37.68,48.5 L54.2,48.5 L37.68,48.5 Z M50,38.7 C52.5128956,38.7 54.5499999,40.7371044 54.5499999,43.25 C54.5499999,45.6910985 52.6276386,47.6832056 50.2141894,47.7950476 L50,47.8 L37.68,47.8 C35.1671044,47.8 33.1300001,45.7628956 33.1300001,43.25 C33.1300001,40.8089014 35.0523614,38.8167944 37.4658106,38.7049524 L37.68,38.7 L50,38.7 Z M62.32,28.93 C64.7473147,29.0438881 66.6567513,31.0450149 66.6567513,33.475 C66.6567513,35.904985 64.7473147,37.9061118 62.32,38.02 L37.68,38.02 C35.2526853,37.9061118 33.3432487,35.904985 33.3432487,33.475 C33.3432487,31.0450149 35.2526853,29.0438881 37.68,28.93 L62.32,28.93 Z" id="Shape" fill="#000000"></path>
    </g>
</svg>