<svg width="100" height="100" viewBox="0 0 100 100" fill="none" xmlns="http://www.w3.org/2000/svg">
<path d="M50 11.1765C22.4353 11.1765 0 25.6 0 43.3177C0 55.0824 9.56471 65.6 25.1882 71.2706C22.7529 76.5412 17.8588 79.8 14.8941 81.3647C13.3556 82.1853 12.5729 83.9477 12.9958 85.6393C13.4187 87.331 14.9387 88.5177 16.6824 88.5177H16.8471C29.1647 87.9883 38.2471 83.1295 42.1882 75.0706C44.7647 75.3295 47.3882 75.4589 50 75.4589C77.5647 75.4589 100 61.0471 100 43.3177C100 25.5883 77.5647 11.1765 50 11.1765ZM66.9059 33.3647L49 56.3177C48.2242 57.3196 47.0532 57.9373 45.7882 58.0118H45.5176C44.3329 58.0291 43.1915 57.5666 42.3529 56.7295L33.3294 47.6471C32.1794 46.4971 32.1794 44.6324 33.3294 43.4824C34.4795 42.3323 36.3441 42.3323 37.4941 43.4824L45.3765 51.3647L62.2706 29.7412C63.2712 28.4612 65.12 28.2347 66.4 29.2353C67.68 30.2359 67.9065 32.0847 66.9059 33.3647Z" fill="black"/>
</svg>
