<?xml version="1.0" encoding="UTF-8"?>
<svg width="100px" height="100px" viewBox="0 0 100 100" version="1.1" xmlns="http://www.w3.org/2000/svg" xmlns:xlink="http://www.w3.org/1999/xlink">
    <!-- Generator: Sketch 57.1 (83088) - https://sketch.com -->
    <title>bold/bubble-message-edit-bold</title>
    <desc>Created with Sketch.</desc>
    <g id="bold/bubble-message-edit" stroke="none" stroke-width="1" fill="none" fill-rule="evenodd">
        <path d="M50,10.5 C78,10.5 100,24.88 100,43.25 C100,61.62 78,76 50,76 C47.81,76 45.61,75.91 43.44,75.73 C39.11,83.46 30.05,88.09 18.05,88.61 L17.81,88.61 C15.3458794,88.6082817 13.1991389,86.9297448 12.6031713,84.5387793 C12.0072036,82.1478138 13.114965,79.6580658 15.29,78.5 C18.6403708,76.7976865 21.5032723,74.2720017 23.61,71.16 C8.91999996,65.25 -4.99996062e-08,54.87 -4.99996062e-08,43.25 C-4.99996062e-08,24.89 22,10.5 50,10.5 Z M50,19.59 C27.82,19.59 9.08999996,30.43 9.08999996,43.25 C9.08999996,51.81 17.7,60.01 31,64.15 L35.2,65.44 L34.08,69.66 C33.5259248,71.7384066 32.6809027,73.7280803 31.57,75.57 C33.7991844,74.0664671 35.4855802,71.8857224 36.38,69.35 L37.6,65.88 L41.25,66.35 C44.1516888,66.7236044 47.0743585,66.9106553 50,66.91 C72.18,66.91 90.91,56.07 90.91,43.25 C90.91,30.43 72.18,19.59 50,19.59 Z M41.9,33.75 L40,35.65 C38.9369311,36.7187151 38.1348094,38.0161436 37.6535858,39.4411493 L37.54,39.8 L35.84,45.35 C34.9464993,48.2740763 35.4916052,51.4485865 37.3093691,53.9071024 C39.1271331,56.3656182 42.0024588,57.8172233 45.06,57.82 C45.8789739,57.8187173 46.693998,57.7145725 47.4860036,57.5104055 L47.88,57.4 L53.46,55.69 C54.8726216,55.2619547 56.1688892,54.5211457 57.2533521,53.5244673 L57.52,53.27 L59.52,51.27 L59.52,57.34 C59.5146032,60.7777535 56.7867353,63.5759515 53.3782203,63.6959876 L53.15,63.7 L35.9,63.7 C32.4638283,63.7 29.6641173,60.9749883 29.5440146,57.5681128 L29.54,57.34 L29.54,40.11 C29.54,36.6738283 32.2650117,33.8741173 35.6718872,33.7540146 L35.9,33.75 L41.9,33.75 Z M61.44,22.799961 L61.6930453,22.8058861 C62.87028,22.8625986 63.9919479,23.3255594 64.8664579,24.1157041 L65.05,24.29 L69,28.2 C70.9314852,30.1328186 70.9882936,33.2298436 69.1704252,35.2311449 L69,35.41 L54.34,50.02 C53.7884339,50.5690499 53.1249719,50.9908191 52.3962421,51.2573727 L52.12,51.35 L46.56,53.05 C46.0768943,53.1963842 45.5747962,53.2705195 45.07,53.2700054 C43.4544906,53.2665294 41.9357686,52.4993252 40.9743591,51.2010284 C40.0663613,49.9748593 39.7564846,48.4113762 40.1190267,46.93883 L40.19,46.68 L41.88,41.12 C42.1133653,40.3671049 42.5083506,39.6755932 43.0359785,39.0931925 L43.24,38.88 L56.49,25.63 L57.84,24.29 C58.7930169,23.3327273 60.0892232,22.7962419 61.44,22.799961 Z" id="Shape" fill="#000000"></path>
    </g>
</svg>