<?xml version="1.0" encoding="UTF-8"?>
<svg width="100px" height="100px" viewBox="0 0 100 100" version="1.1" xmlns="http://www.w3.org/2000/svg" xmlns:xlink="http://www.w3.org/1999/xlink">
    <!-- Generator: Sketch 57.1 (83088) - https://sketch.com -->
    <title>regular/bubbles-message-regular</title>
    <desc>Created with Sketch.</desc>
    <g id="regular/bubbles-message" stroke="none" stroke-width="1" fill="none" fill-rule="evenodd">
        <path d="M37.09,21 C57.89,21 74.19,31.51 74.19,44.92 C74.19,58.33 57.9,68.84 37.09,68.84 C35.21,68.84 33.32,68.75 31.46,68.57 C28.46,74.51 21.75,78.08 12.65,78.4709302 L12.52,78.4709302 C11.1242777,78.4946774 9.89596794,77.5534038 9.55684074,76.1992833 C9.21771355,74.8451627 9.85739482,73.4360678 11.1,72.8 C14.241549,71.2366616 16.8253445,68.7436482 18.5,65.66 C6.99999995,61.43 -4.99991728e-08,53.63 -4.99991728e-08,44.92 C-4.99991728e-08,31.51 16.29,21 37.09,21 Z M65.73,21.07 C85.16,22 100,32.12 100,44.92 C100,53.63 93,61.43 81.5,65.66 C83.1746555,68.7436482 85.758451,71.2366616 88.9,72.8 C90.1020695,73.4596651 90.7038982,74.8503908 90.361913,76.1782369 C90.0199278,77.506083 88.8211746,78.4330709 87.45,78.4300152 L87.32,78.4300152 C78.21,78.04 71.5,74.47 68.5,68.53 C67.5733334,68.6166667 66.6333333,68.6866667 65.68,68.74 C67.8957738,67.4397787 69.9790293,65.9259016 71.9,64.22 L72.24,65.22 C73.67,69.29 77.09,71.44 80.61,72.56 C78.453308,70.413346 76.8921804,67.7425428 76.08,64.81 L75.49,62.6 L77.67,61.92 C88.32,58.61 95.2,51.92 95.2,44.92 C95.2,36.49 85.99,29.32 73.2,26.76 C70.9502544,24.5670794 68.4417837,22.6563434 65.73,21.07 Z M37.09,25.76 C19.27,25.76 4.75999995,34.36 4.75999995,44.92 C4.75999995,51.92 11.64,58.61 22.29,61.92 L24.47,62.6 L23.88,64.81 C23.0655805,67.7445089 21.5048907,70.4180085 19.35,72.57 C22.87,71.44 26.29,69.29 27.72,65.22 L28.36,63.4 L30.27,63.65 C32.5322542,63.9342245 34.809962,64.0778337 37.09,64.08 C54.92,64.08 69.43,55.49 69.43,44.92 C69.43,34.35 54.92,25.76 37.09,25.76 Z" id="Shape" fill="#000000"></path>
    </g>
</svg>