<svg width="100" height="100" viewBox="0 0 100 100" fill="none" xmlns="http://www.w3.org/2000/svg">
<path d="M44.9648 43.3178C44.9648 45.1761 43.4583 46.6825 41.6001 46.6825C39.7418 46.6825 38.2354 45.1761 38.2354 43.3178C38.2354 41.4596 39.7418 39.9531 41.6001 39.9531C43.4583 39.9531 44.9648 41.4596 44.9648 43.3178Z" fill="black"/>
<path d="M50.0004 46.6825C51.8587 46.6825 53.3652 45.1761 53.3652 43.3178C53.3652 41.4596 51.8587 39.9531 50.0004 39.9531C48.1422 39.9531 46.6357 41.4596 46.6357 43.3178C46.6357 45.1761 48.1422 46.6825 50.0004 46.6825Z" fill="black"/>
<path d="M61.7646 43.3178C61.7646 45.1761 60.2581 46.6825 58.3999 46.6825C56.5416 46.6825 55.0352 45.1761 55.0352 43.3178C55.0352 41.4596 56.5416 39.9531 58.3999 39.9531C60.2581 39.9531 61.7646 41.4596 61.7646 43.3178Z" fill="black"/>
<path fill-rule="evenodd" clip-rule="evenodd" d="M12.9944 85.6334C13.4141 87.3236 14.9291 88.5121 16.6706 88.5174H16.8471C22.8235 88.2586 36.7059 86.4704 42.2 75.0704C44.7765 75.3292 47.3882 75.4586 50 75.4586C77.5647 75.4586 100 61.0351 100 43.3174C100 25.5998 77.5647 11.1763 50 11.1763C22.4353 11.1763 0 25.5998 0 43.3174C0 55.0704 9.57647 65.5998 25.1882 71.2822C22.7529 76.541 17.8588 79.7998 14.8941 81.3645C13.3575 82.184 12.5746 83.9432 12.9944 85.6334ZM5.88235 43.3174C5.88235 28.8233 25.6706 17.0586 50 17.0586C74.3294 17.0586 94.0588 28.8233 94.0588 43.3174C94.0588 57.8116 74.2706 69.5763 49.9412 69.5763C46.8377 69.5763 43.7374 69.3799 40.6588 68.988L38.3059 68.6822L37.5176 70.9292C35.3882 76.988 30.0941 79.9645 24.8706 81.3998C28.1681 78.3824 30.5561 74.503 31.7647 70.1998L32.5412 67.4704L29.8471 66.6351C15.2941 62.141 5.88235 52.9645 5.88235 43.3174Z" fill="black"/>
</svg>
