<?xml version="1.0" encoding="UTF-8"?>
<svg width="100px" height="100px" viewBox="0 0 100 100" version="1.1" xmlns="http://www.w3.org/2000/svg" xmlns:xlink="http://www.w3.org/1999/xlink">
    <!-- Generator: Sketch 57.1 (83088) - https://sketch.com -->
    <title>regular/bubble-message-exclamation-regular</title>
    <desc>Created with Sketch.</desc>
    <g id="regular/bubble-message-exclamation" stroke="none" stroke-width="1" fill="none" fill-rule="evenodd">
        <path d="M50,11 C77.57,11 100,25.36 100,42.97 C100,60.58 77.57,74.9 50,74.9 C47.2410043,74.9026656 44.4838054,74.759131 41.74,74.47 C39.2375,79.8607609 32.8997542,87.247415 16.9493283,88.0848198 L16.42,88.1100847 L16.28,88.1100847 C14.7857301,88.1176181 13.4800572,87.102316 13.1193143,85.6522246 C12.7585715,84.2021332 13.4363354,82.6934065 14.76,82 C17.93,80.27 23.26,76.71 25.7,70.93 C9.77999996,65.27 -4.99996133e-08,54.71 -4.99996133e-08,42.93 C-4.99996133e-08,25.32 22.43,11 50,11 Z M50,15.76 C25.06,15.76 4.75999995,28 4.75999995,42.93 C4.75999995,52.8905435 14.2307088,62.2347082 28.9237284,66.9657095 L29.41,67.12 L31.59,67.79 L31,70 C29.5560643,74.9992101 26.5579291,79.4088506 22.44,82.59 C28.442807,81.4012281 35.1888335,78.4654078 37.8607846,71.4497548 L38,71.07 L38.61,69.25 L40.53,69.49 C43.6704173,69.8951889 46.8335512,70.0989388 50,70.1 C74.94,70.1 95.24,57.86 95.24,42.93 C95.24,28 74.94,15.76 50,15.76 Z M50,57.63 C51.3144377,57.63 52.38,58.6955623 52.38,60.01 C52.38,61.3244377 51.3144377,62.39 50,62.39 C48.6855623,62.39 47.62,61.3244377 47.62,60.01 C47.62,58.6955623 48.6855623,57.63 50,57.63 Z M50,23.81 C51.2596695,23.81 52.2907906,24.7886153 52.3745304,26.0270506 L52.3800421,26.19 L52.3800421,54.53 C52.3826725,55.1620307 52.1327815,55.7689471 51.6858643,56.2158643 C51.238947,56.6627815 50.6320307,56.9126725 50,56.9100421 C49.3679693,56.9126725 48.761053,56.6627815 48.3141357,56.2158643 C47.9119102,55.8136388 47.669276,55.281814 47.6267042,54.7187209 L47.6199788,54.53 L47.6199788,26.19 C47.6199788,24.8755623 48.6855623,23.81 50,23.81 Z" id="Shape" fill="#000000"></path>
    </g>
</svg>