<?xml version="1.0" encoding="UTF-8"?>
<svg width="100px" height="100px" viewBox="0 0 100 100" version="1.1" xmlns="http://www.w3.org/2000/svg" xmlns:xlink="http://www.w3.org/1999/xlink">
    <!-- Generator: Sketch 57.1 (83088) - https://sketch.com -->
    <title>solid/bubble-message-minus-solid</title>
    <desc>Created with Sketch.</desc>
    <g id="solid/bubble-message-minus" stroke="none" stroke-width="1" fill="none" fill-rule="evenodd">
        <path d="M50,11 C22.43,11 -4.9999997e-08,25.32 -4.9999997e-08,42.93 C-4.9999997e-08,54.71 9.77999996,65.27 25.7,70.93 C23.26,76.71 17.93,80.27 14.76,82 C13.4363354,82.6934065 12.7585715,84.2021332 13.1193143,85.6522246 C13.4800572,87.102316 14.7857301,88.1176181 16.28,88.1100426 L16.42,88.1100426 C32.77,87.41 39.21,79.92 41.74,74.47 C44.4838054,74.759131 47.2410043,74.9026656 50,74.9 C77.57,74.9 100,60.58 100,42.97 C100,25.36 77.57,11 50,11 Z M62.9,45.31 L37.1,45.31 C36.2497079,45.31 35.4640055,44.8563746 35.0388594,44.12 C34.6137134,43.3836254 34.6137134,42.4763745 35.0388594,41.74 C35.4640055,41.0036254 36.2497079,40.55 37.1,40.55 L62.9,40.55 C64.2144377,40.55 65.28,41.6155623 65.28,42.93 C65.28,44.2444377 64.2144377,45.31 62.9,45.31 L62.9,45.31 Z" id="bubble-message-minus" fill="#000000"></path>
    </g>
</svg>