<?xml version="1.0" encoding="UTF-8"?>
<svg width="100px" height="100px" viewBox="0 0 100 100" version="1.1" xmlns="http://www.w3.org/2000/svg" xmlns:xlink="http://www.w3.org/1999/xlink">
    <!-- Generator: Sketch 57.1 (83088) - https://sketch.com -->
    <title>bold/bubble-message-plus-bold</title>
    <desc>Created with Sketch.</desc>
    <g id="bold/bubble-message-plus" stroke="none" stroke-width="1" fill="none" fill-rule="evenodd">
        <path d="M50,10.5 C78,10.5 100,24.88 100,43.25 C100,61.62 78,76 50,76 C47.81,76 45.61,75.91 43.44,75.73 C39.11,83.46 30.05,88.09 18.05,88.61 L17.81,88.61 C15.3458794,88.6082817 13.1991389,86.9297448 12.6031713,84.5387793 C12.0072036,82.1478138 13.114965,79.6580658 15.29,78.5 C18.6403708,76.7976865 21.5032723,74.2720017 23.61,71.16 C8.91999996,65.25 -4.99996062e-08,54.87 -4.99996062e-08,43.25 C-4.99996062e-08,24.89 22,10.5 50,10.5 Z M50,19.59 C27.82,19.59 9.08999996,30.43 9.08999996,43.25 C9.08999996,51.81 17.7,60.01 31,64.15 L35.2,65.44 L34.08,69.66 C33.5259248,71.7384066 32.6809027,73.7280803 31.57,75.57 C33.7991844,74.0664671 35.4855802,71.8857224 36.38,69.35 L37.6,65.88 L41.25,66.35 C44.1516888,66.7236044 47.0743585,66.9106553 50,66.91 C72.18,66.91 90.91,56.07 90.91,43.25 C90.91,30.43 72.18,19.59 50,19.59 Z M50,26.39 C52.5128956,26.39 54.55,28.4271044 54.55,30.94 L54.55,38.7 L62.32,38.7 C64.8328956,38.7000001 66.8699999,40.7371044 66.8699999,43.25 C66.8699999,45.7628956 64.8328956,47.7999999 62.32,47.8 L54.55,47.8 L54.55,55.57 C54.55,58.0828956 52.5128956,60.12 50,60.12 C47.4871044,60.12 45.45,58.0828956 45.45,55.57 L45.45,47.8 L37.68,47.8 C35.1671044,47.8 33.13,45.7628956 33.13,43.25 C33.13,40.7371044 35.1671044,38.7 37.68,38.7 L45.45,38.7 L45.45,30.94 C45.45,28.4271044 47.4871044,26.39 50,26.39 Z" id="Shape" fill="#000000"></path>
    </g>
</svg>