<svg width="100" height="100" viewBox="0 0 100 100" fill="none" xmlns="http://www.w3.org/2000/svg">
<path d="M54.1178 49.2705C53.5009 49.8885 52.7413 50.3451 51.906 50.5999V52.7176C51.906 53.0424 51.6427 53.3058 51.3178 53.3058H40.5884C40.2635 53.3058 40.0002 53.0424 40.0002 52.7176V42.0117C40.0002 41.6868 40.2635 41.4235 40.5884 41.4235H42.6943V41.3529C42.9509 40.528 43.4029 39.7773 44.0119 39.1646L45.2825 37.894H40.5766C38.3025 37.894 36.459 39.7376 36.459 42.0117V52.7293C36.459 55.0034 38.3025 56.847 40.5766 56.847H51.3178C53.5919 56.847 55.4355 55.0034 55.4355 52.7293V48.0235L54.1178 49.2705Z" fill="black"/>
<path fill-rule="evenodd" clip-rule="evenodd" d="M60 30.4233L62.8941 33.3174C63.7392 34.1666 63.7392 35.5389 62.8941 36.388L52.0823 47.1998C51.8022 47.4688 51.4641 47.6701 51.0941 47.788L46.9882 49.0351C46.783 49.1009 46.5684 49.1327 46.3529 49.1292C45.663 49.1295 45.0138 48.8025 44.6032 48.2481C44.1926 47.6936 44.0692 46.9773 44.2706 46.3175L45.5176 42.2116C45.6341 41.8443 45.8357 41.5097 46.1059 41.2351L56.9294 30.4233C57.7785 29.5783 59.1509 29.5783 60 30.4233ZM50.1529 42.1998L51.1294 43.1763L58.1882 36.1174L57.2118 35.141L50.1529 42.1998Z" fill="black"/>
<path fill-rule="evenodd" clip-rule="evenodd" d="M16.6706 88.5174C14.9291 88.5121 13.4141 87.3236 12.9944 85.6334C12.5746 83.9432 13.3575 82.184 14.8941 81.3645C17.8588 79.7998 22.7529 76.541 25.1882 71.2822C9.57647 65.5998 0 55.0704 0 43.3174C0 25.5998 22.4353 11.1763 50 11.1763C77.5647 11.1763 100 25.5998 100 43.3174C100 61.0351 77.5647 75.4586 50 75.4586C47.3882 75.4586 44.7765 75.3292 42.2 75.0704C36.7059 86.4704 22.8235 88.2586 16.8471 88.5174H16.6706ZM50 17.0586C25.6706 17.0586 5.88235 28.8233 5.88235 43.3174C5.88235 52.9645 15.2941 62.141 29.8471 66.6351L32.5412 67.4704L31.7647 70.1998C30.5561 74.503 28.1681 78.3824 24.8706 81.3998C30.0941 79.9645 35.3882 76.988 37.5176 70.9292L38.3059 68.6822L40.6588 68.988C43.7374 69.3799 46.8377 69.5763 49.9412 69.5763C74.2706 69.5763 94.0588 57.8116 94.0588 43.3174C94.0588 28.8233 74.3294 17.0586 50 17.0586Z" fill="black"/>
</svg>
