<svg width="100" height="100" viewBox="0 0 100 100" fill="none" xmlns="http://www.w3.org/2000/svg">
<g clip-path="url(#clip0)">
<path d="M88.2796 28.1256C88.5774 27.5167 88.7834 26.867 88.8909 26.1976C90.381 25.9646 91.7571 25.26 92.8174 24.1874C105.86 45.8211 100.716 73.7848 80.8299 89.3619C60.9434 104.939 32.5618 103.236 14.6811 85.392C-3.1996 67.5482 -4.96155 39.1701 10.5745 19.2515C26.1106 -0.667041 54.0636 -5.86812 75.7242 7.12945C74.6516 8.1897 73.947 9.56586 73.7139 11.0559C73.0567 11.1668 72.4191 11.3727 71.8212 11.6673C52.6178 0.707544 28.2683 5.64575 14.8519 23.2209C1.43551 40.7961 3.09139 65.5861 18.7261 81.2207C34.3608 96.8554 59.1507 98.5113 76.7259 85.0949C94.3011 71.6785 99.2393 47.329 88.2796 28.1256Z" fill="black"/>
<path d="M75.3838 34.4385L77.6645 32.1696H80.8621C89.7547 47.6688 85.7968 67.357 71.6057 78.2158C57.4146 89.0745 37.3763 87.7475 24.7411 75.1122C12.1058 62.477 10.7788 42.4387 21.6375 28.2476C32.4963 14.0565 52.1846 10.0987 67.6837 18.9912V22.2476L65.4148 24.4695C52.551 16.6512 35.874 19.6767 26.5762 31.5153C17.2785 43.354 18.2918 60.2729 28.9361 70.9172C39.5804 81.5615 56.4993 82.5748 68.338 73.2771C80.1767 63.9793 83.2021 47.3023 75.3838 34.4385Z" fill="black"/>
<path d="M64.0741 45.7596C64.4721 47.0949 64.674 48.4808 64.6736 49.8742C64.6736 57.99 58.0945 64.5691 49.9786 64.5691C41.8628 64.5691 35.2837 57.99 35.2837 49.8742C35.2837 41.7584 41.8628 35.1792 49.9786 35.1792C51.3758 35.1796 52.7655 35.3816 54.105 35.7788L58.6428 31.241C49.5637 27.0009 38.7508 29.8931 33.0009 38.0997C27.251 46.3063 28.2249 57.4569 35.3104 64.5424C42.396 71.6279 53.5466 72.6018 61.7531 66.8519C69.9597 61.1021 72.852 50.2891 68.6119 41.21L64.0741 45.7596Z" fill="black"/>
<path d="M93.3584 10.4208H93.6875C95.3107 10.4208 96.6265 11.7366 96.6265 13.3598C96.6265 14.9829 95.3107 16.2988 93.6875 16.2988H87.8095C89.4327 16.2988 90.7485 17.6146 90.7485 19.2378C90.7485 20.8609 89.4327 22.1767 87.8095 22.1767H81.9315C83.5547 22.1767 84.8705 23.4926 84.8705 25.1157C84.8705 26.7389 83.5547 28.0547 81.9315 28.0547H75.9595L57.726 46.3118L59.2425 47.8283C59.3738 47.9689 59.4955 48.1182 59.6069 48.275C59.6506 48.343 59.6898 48.4137 59.7245 48.4866C59.7374 48.5156 59.7476 48.5436 59.7576 48.571C59.7841 48.6439 59.809 48.7122 59.8773 48.7805C59.9714 48.8746 59.9714 48.9804 59.9714 49.0744C60.0018 49.1586 60.0254 49.2451 60.0419 49.333C60.1278 49.7202 60.1278 50.1215 60.0419 50.5086C60.0254 50.5966 60.0018 50.6831 59.9714 50.7673C59.915 50.8236 59.9093 50.8842 59.9037 50.9439C59.8999 50.9839 59.8962 51.0235 59.8773 51.0612C59.8614 51.0931 59.8386 51.1251 59.8155 51.1575C59.7706 51.2205 59.7245 51.2852 59.7245 51.3551C59.6898 51.428 59.6506 51.4987 59.6069 51.5667C59.392 51.8873 59.1164 52.1629 58.7958 52.3778L58.5724 52.4954L58.2903 52.6482L57.9964 52.7423C57.9122 52.7727 57.8257 52.7963 57.7377 52.8128C57.5462 52.8307 57.3533 52.8307 57.1617 52.8128H49.9788C48.374 52.7871 47.0866 51.4788 47.0868 49.8738V42.6909C47.0689 42.4993 47.0689 42.3065 47.0868 42.1149C47.1033 42.0269 47.1269 41.9404 47.1574 41.8562C47.2141 41.7995 47.2195 41.7428 47.2252 41.6836C47.2289 41.6445 47.2327 41.6044 47.2514 41.5623C47.2984 41.4565 47.3572 41.339 47.4042 41.2684C47.416 41.2508 47.4292 41.2332 47.4424 41.2155C47.4821 41.1626 47.5218 41.1097 47.5218 41.0568C47.7368 40.7362 48.0123 40.4606 48.333 40.2457L48.5563 40.1281C48.6452 40.0682 48.7397 40.017 48.8385 39.9753L49.1324 39.8812L49.391 39.8107C49.7782 39.7249 50.1794 39.7249 50.5666 39.8107L50.8135 39.8812L51.1074 39.9753C51.2061 40.017 51.3006 40.0682 51.3895 40.1281L51.6129 40.2457C51.7697 40.3571 51.919 40.4788 52.0596 40.6101L53.5761 42.1266L71.7979 23.8931V17.9211C71.7979 16.2979 73.1137 14.9821 74.7369 14.9821C76.36 14.9821 77.6759 16.2979 77.6759 17.9211V12.0431C77.6759 10.4199 78.9917 9.1041 80.6149 9.1041C82.238 9.1041 83.5539 10.4199 83.5539 12.0431V6.16511C83.5539 4.54195 84.8697 3.22612 86.4929 3.22612C88.116 3.22612 89.4319 4.54195 89.4319 6.16511V6.50603C90.5559 5.949 91.91 6.17017 92.7984 7.05591C93.6868 7.94166 93.912 9.29504 93.3584 10.4208Z" fill="black"/>
</g>
<defs>
<clipPath id="clip0">
<rect width="100" height="100" fill="white"/>
</clipPath>
</defs>
</svg>
