<?xml version="1.0" encoding="UTF-8"?>
<svg width="100px" height="100px" viewBox="0 0 100 100" version="1.1" xmlns="http://www.w3.org/2000/svg" xmlns:xlink="http://www.w3.org/1999/xlink">
    <!-- Generator: Sketch 57.1 (83088) - https://sketch.com -->
    <title>bold/bullseye-arrow-bold</title>
    <desc>Created with Sketch.</desc>
    <g id="bold/bullseye-arrow" stroke="none" stroke-width="1" fill="none" fill-rule="evenodd">
        <path d="M72.4059406,5.12871283 C69.7905571,6.89119534 68.0370342,9.67239755 67.5742574,12.7920792 C49.7199908,4.46599104 28.4649422,10.1608657 17.1651734,26.2982076 C5.86540454,42.4355496 7.78311642,64.3565684 21.713274,78.286726 C35.6434316,92.2168836 57.5644504,94.1345955 73.7017924,82.8348266 C89.8391343,71.5350578 95.534009,50.2800092 87.2079208,32.4257426 C90.3276025,31.9629658 93.1088047,30.2094429 94.8712872,27.5940594 C105.602422,49.3225709 99.0261513,75.6255063 79.3317791,89.7470206 C59.637407,103.868535 32.6151927,101.656821 15.4791859,84.5208141 C-1.65682091,67.3848073 -3.86853487,40.362593 10.2529794,20.6682209 C24.3744937,0.973848717 50.6774291,-5.60242163 72.4059406,5.12871283 Z M66.0726192,17.3116806 L66.5445545,17.5445544 L59.7128713,24.3663366 C47.9335293,20.0569695 34.7420623,24.5166602 27.9940538,35.0896411 C21.2460453,45.662622 22.7562953,59.5054103 31.6254425,68.3745575 C40.4945897,77.2437047 54.337378,78.7539547 64.9103589,72.0059462 C75.3671532,65.3320916 79.8442771,52.355615 75.7725572,40.6759598 L75.6336634,40.2871287 L82.4554456,33.4554455 C90.3433934,49.1529866 85.6725742,68.2547674 71.4309718,78.541131 C57.1893694,88.8274945 37.5876151,87.2572039 25.1652056,74.8347944 C12.7427961,62.4123849 11.1725055,42.8106306 21.458869,28.5690282 C31.6423689,14.4698418 50.4658594,9.75098008 66.0726192,17.3116806 Z M50.4950495,28.1287128 C51.936734,28.1305319 53.3738439,28.2808748 54.783666,28.5770288 L55.3861386,28.7128713 L52.4752475,31.6336633 L52.0990099,31.5841584 L51.5544554,31.5049505 C51.2871287,31.4678218 51.0420792,31.4585396 50.802599,31.456219 L50.5643564,31.4554455 L50.2475248,31.4554455 C50.009901,31.4554455 49.789879,31.4774477 49.5757242,31.4921159 L49.2574257,31.5049505 L48.7128713,31.5841584 L48.4395371,31.6164957 L48.1683168,31.6633663 L47.5841584,31.8019802 L47.0990099,31.9306931 L46.5445545,32.1287128 L46.0594059,32.2970297 L45.5643564,32.5346534 C45.3960396,32.6138614 45.2277228,32.6831683 45.0693069,32.7722772 L44.8329208,32.9071782 L44.6039604,33.0495049 L44.1188119,33.3366336 L43.6336634,33.6930693 L43.2376238,34 C43.054611,34.1456709 42.8775208,34.2985582 42.7067686,34.4582887 L42.4554455,34.7029703 L42.3582147,34.8023669 C42.1226794,35.0476485 41.8378713,35.3725247 41.7425742,35.4851485 L41.4356436,35.8910891 L41.0891089,36.3663366 C40.980198,36.5346535 40.8811881,36.7128713 40.7920792,36.8613861 C40.7029703,37.009901 40.6138614,37.1485148 40.5247525,37.3168317 C40.4356436,37.4851485 40.3564356,37.6534653 40.2772277,37.8217822 C40.1980198,37.990099 40.1188119,38.1584158 40.0495049,38.3168317 C39.980198,38.4752475 39.9306931,38.6435643 39.8712871,38.8118812 C39.7982682,38.9896712 39.7354597,39.1714852 39.6831683,39.3564356 C39.6336634,39.5148515 39.5544554,39.6930693 39.5544554,39.8613861 C39.4977998,40.0434338 39.4515208,40.2285498 39.4158416,40.4158416 C39.3267327,40.6138614 39.3564356,40.8316832 39.3267327,41 C39.3069307,41.1122112 39.2783278,41.2244224 39.2614595,41.3366337 L39.2475247,41.5049505 L39.2475247,44.3762376 C38.5027806,45.9833795 38.1175885,47.7336381 38.1188119,49.5049505 C38.1297148,56.3356366 43.6643634,61.8702852 50.4950495,61.8811881 C52.138324,61.8480433 53.7564379,61.4826458 55.2523786,60.8085932 L55.6237624,60.6336634 L58.5445545,60.6336634 L59.039604,60.5544555 C59.2376238,60.5346535 59.4455446,60.4950495 59.6336634,60.4653465 C59.7747525,60.4430693 59.9102723,60.3818069 60.0485767,60.3525681 L60.1881188,60.3366337 L60.6930693,60.1980198 C60.8780197,60.1457284 61.0598338,60.0829199 61.2376238,60.009901 C61.349835,59.970297 61.4620462,59.9350935 61.5713238,59.8954896 L61.7326733,59.8316832 L62.2277228,59.6039604 L62.7326733,59.3564357 C62.8382838,59.3036304 62.939494,59.2420242 63.0392373,59.1804181 L63.1881188,59.0891089 L63.6831683,58.7920792 C63.8415842,58.6831683 64.019802,58.5346535 64.1584159,58.4356436 C64.2970297,58.3366337 64.2970297,58.3663366 64.5643565,58.1386139 C64.7425743,57.9867987 64.9207921,57.8305831 65.0931427,57.669967 L65.3465347,57.4257426 L65.5989986,57.1586499 C65.7635315,56.977129 65.9204414,56.7887706 66.0693069,56.5940594 L66.2264852,56.394802 L66.3762376,56.1881188 L66.7326733,55.7128713 L67.2970297,54.7722772 C67.3861386,54.6039604 67.4752475,54.4158416 67.5445545,54.2574257 C67.6138614,54.0990099 67.6930693,53.9405941 67.7623763,53.7722772 L67.8601485,53.519802 L67.9504951,53.2673267 L68.1386139,52.7326733 C68.1881188,52.5643564 68.2178218,52.4158416 68.2673268,52.2277228 C68.3168317,52.039604 68.3663367,51.8514852 68.4059406,51.6633663 C68.4455446,51.4752475 68.4257426,51.2475248 68.4950495,51.0792079 C68.5643565,50.9108911 68.5643565,50.7425743 68.5643565,50.5742574 C68.5907118,50.3375473 68.6083112,50.099985 68.6171279,49.8620567 L68.6237624,49.5049505 L68.6168854,49.1511497 C68.607988,48.9154255 68.5904695,48.6800662 68.5643565,48.4455446 C68.5577558,48.3333333 68.5291529,48.2211221 68.5108178,48.1089109 L68.4950495,47.9405941 L68.4356436,47.5247525 L71.2871287,44.6138614 C71.673139,46.2156466 71.8692082,47.8573111 71.8712872,49.5049505 C71.8712872,61.3107206 62.3008196,70.8811881 50.4950495,70.8811881 C38.6892794,70.8811881 29.1188119,61.3107206 29.1188119,49.5049505 C29.1188119,37.6991804 38.6892794,28.1287128 50.4950495,28.1287128 Z M85.1046649,3.18023892 C87.071566,3.02998953 88.9057411,4.18248862 89.6237624,6.01980194 C92.0055669,6.07721963 93.9227804,7.99443315 93.9801981,10.3762376 C95.6946317,11.0544259 96.8210943,12.7107576 96.8217822,14.5544554 C96.8189076,16.6494218 95.3692021,18.4646338 93.3267327,18.930693 C92.9436417,20.6114046 91.6312067,21.9238396 89.9504951,22.3069307 C89.4844358,24.3494001 87.6692239,25.7991055 85.5742575,25.8019802 L80.5544555,25.8019802 L60.3465347,46.0693069 L60.6039604,46.3168317 C60.8109214,46.5318508 60.9996875,46.7636689 61.1683168,47.009901 C61.2376238,47.1188119 61.2871287,47.2376238 61.3564357,47.3564356 C61.4388158,47.4931337 61.5115983,47.6353904 61.5742574,47.7821782 C61.6341161,47.9337969 61.6837325,48.0892617 61.7227723,48.2475248 C61.76816,48.3701275 61.8045599,48.4958726 61.8316832,48.6237624 C61.9503739,49.205226 61.9503739,49.804675 61.8316832,50.3861386 C61.8045599,50.5140284 61.76816,50.6397735 61.7227723,50.7623762 C61.6837325,50.9206393 61.6341161,51.0761041 61.5742574,51.2277228 C61.5115983,51.3745106 61.4388158,51.5167673 61.3564357,51.6534653 C61.2871287,51.7722772 61.2376238,51.8910891 61.1683168,52 C60.8354538,52.4912767 60.4120688,52.9146617 59.9207921,53.2475248 C59.8118812,53.3168317 59.6930693,53.3663366 59.5742574,53.4356436 C59.433315,53.5194578 59.2878821,53.5954796 59.1386139,53.6633663 C58.9935264,53.7199422 58.8446454,53.7662607 58.6930693,53.8019802 L58.3069307,53.9207921 C58.0161205,53.9744592 57.7214095,54.0042615 57.4257426,54.009901 L50.4950495,54.009901 C48.007034,54.009901 45.990099,51.992966 45.990099,49.5049505 L45.990099,42.6336634 C45.9952416,42.3346883 46.0250457,42.0366474 46.0792079,41.7425742 C46.1089109,41.6138614 46.1980198,41.4950495 46.1980198,41.3663366 C46.2337292,41.2115234 46.2800431,41.0593492 46.3366337,40.9108911 C46.4059406,40.7524752 46.5049505,40.5841584 46.5643564,40.4752475 C46.6237624,40.3663366 46.6732673,40.2475247 46.7524752,40.1287129 C47.082632,39.6352072 47.5064943,39.2113449 48,38.8811881 C48.1089109,38.8118812 48.2277228,38.7623762 48.3366337,38.7029703 C48.4776801,38.6193424 48.6231027,38.543326 48.7722772,38.4752475 C48.920517,38.4153843 49.0726896,38.3657628 49.2277228,38.3267327 L49.6138614,38.2178218 C50.195325,38.099131 50.794774,38.099131 51.3762376,38.2178218 L51.7623762,38.3267327 C51.9169761,38.3672509 52.0690548,38.4168417 52.2178218,38.4752475 C52.3669963,38.543326 52.5124189,38.6193424 52.6534653,38.7029703 C52.7623762,38.7623762 52.8811881,38.8118812 52.990099,38.8811881 C53.2363311,39.0498174 53.4681492,39.2385836 53.6831683,39.4455445 L53.9306931,39.7029703 L74.1980198,19.4455445 L74.1980198,14.4257425 C74.2008945,12.3307761 75.6505999,10.5155642 77.6930693,10.0495049 C78.0761604,8.36879331 79.3885954,7.05635833 81.069307,6.67326728 C81.499925,4.74821068 83.1377638,3.33048831 85.1046649,3.18023892 Z" id="Shape" fill="#000000"></path>
    </g>
</svg>