<svg width="100" height="100" viewBox="0 0 100 100" fill="none" xmlns="http://www.w3.org/2000/svg">
<path fill-rule="evenodd" clip-rule="evenodd" d="M29.4121 49.9999C29.4121 61.3704 38.6298 70.5881 50.0003 70.5881C61.3655 70.5751 70.5756 61.3651 70.5886 49.9999C70.5886 38.6293 61.3709 29.4116 50.0003 29.4116C38.6298 29.4116 29.4121 38.6293 29.4121 49.9999ZM35.2945 49.9999C35.2945 41.878 41.8785 35.294 50.0003 35.294C58.1168 35.3069 64.6933 41.8834 64.7062 49.9999C64.7062 58.1217 58.1222 64.7057 50.0003 64.7057C41.8785 64.7057 35.2945 58.1217 35.2945 49.9999Z" fill="black"/>
<path fill-rule="evenodd" clip-rule="evenodd" d="M49.9995 85.6353C30.3187 85.6353 14.3643 69.6809 14.3643 50C14.3643 30.3192 30.3187 14.3647 49.9995 14.3647C69.6804 14.3647 85.6348 30.3192 85.6348 50C85.6154 69.6728 69.6723 85.6159 49.9995 85.6353ZM49.9995 20.2471C33.5675 20.2471 20.2466 33.5679 20.2466 50C20.2466 66.4321 33.5675 79.753 49.9995 79.753C66.4316 79.753 79.7525 66.4321 79.7525 50C79.7395 33.5733 66.4263 20.2601 49.9995 20.2471Z" fill="black"/>
<path fill-rule="evenodd" clip-rule="evenodd" d="M50 100C22.3858 100 0 77.6142 0 50C0 22.3858 22.3858 0 50 0C77.6142 0 100 22.3858 100 50C99.9676 77.6008 77.6008 99.9676 50 100ZM50 5.88235C25.6345 5.88235 5.88235 25.6345 5.88235 50C5.88235 74.3655 25.6345 94.1176 50 94.1176C74.3655 94.1176 94.1176 74.3655 94.1176 50C94.0917 25.6452 74.3548 5.90829 50 5.88235Z" fill="black"/>
</svg>
