<?xml version="1.0" encoding="UTF-8"?>
<svg width="100px" height="100px" viewBox="0 0 100 100" version="1.1" xmlns="http://www.w3.org/2000/svg" xmlns:xlink="http://www.w3.org/1999/xlink">
    <!-- Generator: Sketch 57.1 (83088) - https://sketch.com -->
    <title>regular/bullseye-regular</title>
    <desc>Created with Sketch.</desc>
    <g id="regular/bullseye" stroke="none" stroke-width="1" fill="none" fill-rule="evenodd">
        <path d="M50,-4.9999997e-08 C77.6142375,-4.9999997e-08 100,22.3857625 100,50 C99.9669389,77.6005315 77.6005315,99.9669389 50,100 C22.3857625,100 -4.99996062e-08,77.6142375 -4.99996062e-08,50 C-4.99996062e-08,22.3857625 22.3857625,-4.9999997e-08 50,-4.9999997e-08 Z M50,4.75999995 C25.0146379,4.75999995 4.75999995,25.0146379 4.75999995,50 C4.75999995,74.9853621 25.0146379,95.24 50,95.24 C74.9853621,95.24 95.24,74.9853621 95.24,50 C95.2069468,25.0283418 74.9716582,4.79305315 50,4.75999995 Z M50,14.53 C69.5895401,14.53 85.47,30.4104599 85.47,50 C85.4479562,69.580402 69.580402,85.4479562 50,85.47 C30.4104599,85.47 14.53,69.5895401 14.53,50 C14.53,30.4104599 30.4104599,14.53 50,14.53 Z M50,19.29 C33.0393353,19.29 19.29,33.0393353 19.29,50 C19.29,66.9606647 33.0393353,80.71 50,80.71 C66.9606647,80.71 80.71,66.9606647 80.71,50 C80.6879636,33.0484715 66.9515285,19.3120364 50,19.29 Z M50,29.76 C61.1782433,29.76 70.24,38.8217567 70.24,50 C70.2289752,61.1736735 61.1736735,70.2289752 50,70.24 C38.8217567,70.24 29.76,61.1782433 29.76,50 C29.76,38.8217567 38.8217567,29.76 50,29.76 Z M50,34.52 C41.4506321,34.52 34.52,41.4506321 34.52,50 C34.52,58.5493679 41.4506321,65.48 50,65.48 C58.5493679,65.48 65.48,58.5493679 65.48,50 C65.4689816,41.4552002 58.5447998,34.5310184 50,34.52 Z" id="Shape" fill="#000000"></path>
    </g>
</svg>