<?xml version="1.0" encoding="UTF-8"?>
<svg width="100px" height="100px" viewBox="0 0 100 100" version="1.1" xmlns="http://www.w3.org/2000/svg" xmlns:xlink="http://www.w3.org/1999/xlink">
    <!-- Generator: Sketch 57.1 (83088) - https://sketch.com -->
    <title>bold/bullseye-bold</title>
    <desc>Created with Sketch.</desc>
    <g id="bold/bullseye" stroke="none" stroke-width="1" fill="none" fill-rule="evenodd">
        <path d="M50,-5.00000041e-08 C77.6142375,-5.00000041e-08 100,22.3857625 100,49.9999999 C99.9669389,77.6005315 77.6005315,99.9669389 50,99.9999999 C22.3857625,99.9999999 -4.99996062e-08,77.6142375 -4.99996062e-08,49.9999999 C-4.99996062e-08,22.3857625 22.3857625,-5.00000041e-08 50,-5.00000041e-08 Z M50,9.08999996 C27.4060309,9.08999996 9.08999996,27.4060309 9.08999996,50 C9.08999996,72.5939691 27.4060309,90.91 50,90.91 C72.5939691,90.91 90.91,72.5939691 90.91,50 C90.8605027,27.4265651 72.5734349,9.13949725 50,9.08999996 Z M50,13.87 C69.954048,13.87 86.13,30.045952 86.13,50 C86.1079554,69.9449097 69.9449097,86.1079554 50,86.13 C30.045952,86.13 13.87,69.954048 13.87,50 C13.87,30.045952 30.045952,13.87 50,13.87 Z M50,23 C35.0883117,23 23,35.0883117 23,50 C23,64.9116883 35.0883117,77 50,77 C64.9116883,77 77,64.9116883 77,50 C76.9615309,35.1042753 64.8957247,23.0384691 50,23 Z M50,28.41 C61.9238278,28.41 71.59,38.0761722 71.59,50 C71.5789739,61.9192576 61.9192576,71.5789739 50,71.59 C38.0761722,71.59 28.41,61.9238278 28.41,50 C28.41,38.0761722 38.0761722,28.41 50,28.41 Z M50,37.5 C43.0964406,37.5 37.5,43.0964406 37.5,50 C37.5,56.9035594 43.0964406,62.5 50,62.5 C56.9035594,62.5 62.5,56.9035594 62.5,50 C62.488988,43.1010071 56.8989929,37.511012 50,37.5 Z" id="Shape" fill="#000000"></path>
    </g>
</svg>