<?xml version="1.0" encoding="UTF-8"?>
<svg width="100px" height="100px" viewBox="0 0 100 100" version="1.1" xmlns="http://www.w3.org/2000/svg" xmlns:xlink="http://www.w3.org/1999/xlink">
    <!-- Generator: Sketch 57.1 (83088) - https://sketch.com -->
    <title>solid/burger-alt-solid</title>
    <desc>Created with Sketch.</desc>
    <g id="solid/burger-alt" stroke="none" stroke-width="1" fill="none" fill-rule="evenodd">
        <path d="M91.67,68.33 C96.1609756,68.4855797 99.7212528,72.1713304 99.7212528,76.665 C99.7212528,81.1586697 96.1609756,84.8444203 91.67,85 L50,85 C45.5090244,84.8444203 41.9487473,81.1586697 41.9487473,76.665 C41.9487473,72.1713304 45.5090244,68.4855797 50,68.33 L91.67,68.33 Z M91.67,41.67 C96.270532,41.67 100,45.399468 100,50 C100,54.600532 96.270532,58.33 91.67,58.33 L8.32999996,58.33 C3.72946806,58.33 1.25542044e-07,54.6005319 1.25542044e-07,50 C1.25542044e-07,45.3994681 3.72946806,41.67 8.32999996,41.67 L91.67,41.67 Z M50,15 C54.4909756,15.1555797 58.0512527,18.8413303 58.0512527,23.335 C58.0512527,27.8286696 54.4909756,31.5144203 50,31.67 L8.32999996,31.67 C3.83902436,31.5144203 0.278747244,27.8286696 0.278747244,23.335 C0.278747244,18.8413303 3.83902436,15.1555797 8.32999996,15 L50,15 Z" id="Shape" fill="#000000"></path>
    </g>
</svg>