<?xml version="1.0" encoding="UTF-8"?>
<svg width="100px" height="100px" viewBox="0 0 100 100" version="1.1" xmlns="http://www.w3.org/2000/svg" xmlns:xlink="http://www.w3.org/1999/xlink">
    <!-- Generator: Sketch 57.1 (83088) - https://sketch.com -->
    <title>solid/burger-solid</title>
    <desc>Created with Sketch.</desc>
    <g id="solid/burger" stroke="none" stroke-width="1" fill="none" fill-rule="evenodd">
        <path d="M91.67,68.33 C96.1609756,68.4855797 99.7212528,72.1713304 99.7212528,76.665 C99.7212528,81.1586697 96.1609756,84.8444203 91.67,85 L8.32999996,85 C3.83902436,84.8444203 0.278747244,81.1586697 0.278747244,76.665 C0.278747244,72.1713304 3.83902436,68.4855797 8.32999996,68.33 L91.67,68.33 Z M91.67,41.67 C96.270532,41.67 100,45.399468 100,50 C100,54.600532 96.270532,58.33 91.67,58.33 L8.32999996,58.33 C3.72946806,58.33 1.25542044e-07,54.6005319 1.25542044e-07,50 C1.25542044e-07,45.3994681 3.72946806,41.67 8.32999996,41.67 L91.67,41.67 Z M91.67,15 C96.1609756,15.1555797 99.7212528,18.8413303 99.7212528,23.335 C99.7212528,27.8286696 96.1609756,31.5144203 91.67,31.67 L8.32999996,31.67 C3.83902436,31.5144203 0.278747244,27.8286696 0.278747244,23.335 C0.278747244,18.8413303 3.83902436,15.1555797 8.32999996,15 L91.67,15 Z" id="Shape" fill="#000000"></path>
    </g>
</svg>