<?xml version="1.0" encoding="UTF-8"?>
<svg width="100px" height="100px" viewBox="0 0 100 100" version="1.1" xmlns="http://www.w3.org/2000/svg" xmlns:xlink="http://www.w3.org/1999/xlink">
    <!-- Generator: Sketch 57.1 (83088) - https://sketch.com -->
    <title>regular/burger-alt-regular</title>
    <desc>Created with Sketch.</desc>
    <g id="regular/burger-alt" stroke="none" stroke-width="1" fill="none" fill-rule="evenodd">
        <path d="M97.62,78 C98.9344378,78 100,79.0655623 100,80.38 C100,81.6944377 98.9344378,82.76 97.62,82.76 L97.62,82.71 L50,82.71 C48.8308702,82.5391945 47.9640567,81.536541 47.9640567,80.355 C47.9640567,79.1734591 48.8308702,78.1708055 50,78 L97.62,78 Z M97.62,47.48 C98.9344378,47.48 99.9999998,48.5455623 99.9999998,49.86 C99.9999998,51.1744377 98.9344378,52.24 97.62,52.24 L2.37999995,52.24 C1.52970782,52.24 0.74400548,51.7863746 0.318859406,51.05 C-0.106286669,50.3136255 -0.106286669,49.4063745 0.318859406,48.67 C0.74400548,47.9336254 1.52970782,47.48 2.37999995,47.48 L97.62,47.48 Z M49.9999999,17 C51.3144377,17 52.38,18.0655623 52.38,19.38 C52.38,20.6944377 51.3144377,21.76 49.9999999,21.76 L2.37999995,21.76 C1.06556225,21.76 -5.0000093e-08,20.6944377 -5.0000093e-08,19.38 C-5.0000093e-08,18.0655623 1.06556225,17 2.37999995,17 L49.9999999,17 Z" id="Shape" fill="#000000"></path>
    </g>
</svg>