<?xml version="1.0" encoding="UTF-8"?>
<svg width="100px" height="100px" viewBox="0 0 100 100" version="1.1" xmlns="http://www.w3.org/2000/svg" xmlns:xlink="http://www.w3.org/1999/xlink">
    <!-- Generator: Sketch 57.1 (83088) - https://sketch.com -->
    <title>bold/calculator-bold</title>
    <desc>Created with Sketch.</desc>
    <g id="bold/calculator" stroke="none" stroke-width="1" fill="none" fill-rule="evenodd">
        <path d="M78.78,-5.00000041e-08 C82.213938,0.00538652931 85.0105161,2.72743094 85.1356386,6.13203732 L85.14,6.35999996 L85.14,93.64 C85.1346135,97.073938 82.412569,99.8705162 79.0079627,99.9956385 L78.78,99.9999999 L20.36,99.9999999 C16.926062,99.9946135 14.1294839,97.2725691 14.0043614,93.8679627 L14,93.64 L14,6.35999996 C14.0053865,2.92606198 16.727431,0.129483847 20.1320373,0.00436141151 L20.36,-5.00000041e-08 L78.78,-5.00000041e-08 Z M76.05,31 L23.05,31 L23.05,90.91 L76.05,90.91 L76.05,31 Z M32.46,74.86 C34.1572652,74.8653206 35.5415236,76.1954132 35.6349716,77.8693757 L35.64,78.05 L35.64,82.71 C35.6346995,84.4035043 34.3102711,85.7861466 32.640213,85.8844288 L32.46,85.89 L27.79,85.89 C26.0964958,85.8846995 24.7138535,84.5602711 24.6155712,82.890213 L24.61,82.71 L24.61,78.05 C24.61,76.3527265 25.935732,74.9642907 27.6093924,74.8655947 L27.79,74.86 L32.46,74.86 Z M45.42,74.86 C46.2651239,74.86 47.0754885,75.196403 47.6721425,75.7949332 C48.2190753,76.3435859 48.5451891,77.0711225 48.5937084,77.8395259 L48.6000157,78.05 L48.6000157,82.71 C48.6000157,84.4057047 47.2727622,85.7914161 45.6004517,85.8849661 L45.42,85.89 L40.76,85.89 C39.0642954,85.89 37.6785693,84.5627612 37.5850183,82.8904517 L37.5799687,82.71 L37.5799687,78.05 C37.5773424,77.2048803 37.9112035,76.3934635 38.5078575,75.7949332 C39.0547903,75.2462805 39.7812994,74.9178875 40.5495467,74.8669654 L40.76,74.86 L45.42,74.86 Z M58.39,74.86 C60.0872652,74.8653206 61.4715237,76.1954132 61.5649716,77.8693757 L61.57,78.05 L61.57,82.71 C61.5646995,84.4035043 60.2402711,85.7861466 58.570213,85.8844288 L58.39,85.89 L53.72,85.89 C52.0264958,85.8846995 50.6438535,84.5602711 50.5455713,82.890213 L50.54,82.71 L50.54,78.05 C50.54,76.3527265 51.865732,74.9642907 53.5393924,74.8655947 L53.72,74.86 L58.39,74.86 Z M71.35,36 C73.0946162,36 74.5135414,37.4054615 74.53,39.15 L74.53,82.71 C74.53,84.4662655 73.1062655,85.89 71.35,85.89 L66.69,85.89 C64.9337345,85.89 63.51,84.4662655 63.51,82.71 L63.51,39.18 C63.51,37.4237345 64.9337345,36 66.69,36 L71.35,36 Z M31.09,79.41 L29.16,79.41 L29.16,81.35 L31.09,81.35 L31.09,79.41 Z M44.06,79.41 L42.12,79.41 L42.12,81.35 L44.06,81.35 L44.06,79.41 Z M57,79.41 L55.09,79.41 L55.09,81.35 L57,81.35 L57,79.41 Z M70,40.51 L68.05,40.51 L68.05,81.35 L70,81.35 L70,40.51 Z M32.46,61.9 C34.1535042,61.9053005 35.5361465,63.2297289 35.6344287,64.899787 L35.64,65.08 L35.64,69.74 C35.64,71.4372736 34.314268,72.8257093 32.6406076,72.9244054 L32.46,72.93 L27.79,72.93 C26.0927347,72.9246794 24.7084763,71.5945869 24.6150284,69.9206243 L24.61,69.74 L24.61,65.08 C24.6153005,63.3864958 25.9397289,62.0038535 27.609787,61.9055713 L27.79,61.9 L32.46,61.9 Z M45.42,61.9 C47.1157046,61.9 48.5014307,63.2272388 48.5949817,64.8995483 L48.6000313,65.08 L48.6000313,69.74 C48.6026576,70.5851198 48.2687965,71.3965366 47.6721425,71.9950668 C47.1252097,72.5437196 46.3987006,72.8721125 45.6304533,72.9230346 L45.42,72.93 L40.76,72.93 C39.9148761,72.93 39.1045115,72.5935971 38.5078575,71.9950668 C37.9609247,71.4464141 37.6348108,70.7188775 37.5862916,69.9504741 L37.5799842,69.74 L37.5799842,65.08 C37.5799842,63.3842954 38.9072377,61.998584 40.5795482,61.905034 L40.76,61.9 L45.42,61.9 Z M58.39,61.9 C60.0835042,61.9053005 61.4661465,63.2297289 61.5644288,64.899787 L61.57,65.08 L61.57,69.74 C61.57,71.4372736 60.244268,72.8257093 58.5706076,72.9244054 L58.39,72.93 L53.72,72.93 C52.0227348,72.9246794 50.6384764,71.5945869 50.5450284,69.9206243 L50.54,69.74 L50.54,65.08 C50.5453005,63.3864958 51.8697289,62.0038535 53.539787,61.9055713 L53.72,61.9 L58.39,61.9 Z M31.09,66.44 L29.16,66.44 L29.16,68.38 L31.09,68.38 L31.09,66.44 Z M44.06,66.44 L42.12,66.44 L42.12,68.38 L44.06,68.38 L44.06,66.44 Z M57,66.44 L55.09,66.44 L55.09,68.38 L57,68.38 L57,66.44 Z M32.46,48.93 C34.1572652,48.9353206 35.5415236,50.2654131 35.6349716,51.9393757 L35.64,52.12 L35.64,56.82 C35.6346995,58.5135042 34.3102711,59.8961465 32.640213,59.9944288 L32.46,60 L27.79,60 C26.9404705,59.9973745 26.1270794,59.6559977 25.5301345,59.0515442 C24.9829351,58.4974617 24.6590493,57.7642816 24.6150253,56.9916045 L24.61,56.78 L24.61,52.12 C24.61,50.4227264 25.9357314,49.0342907 27.6093924,48.9355947 L27.79,48.93 L32.46,48.93 Z M45.42,48.93 C46.2651239,48.93 47.0754885,49.2664029 47.6721425,49.8649332 C48.2190753,50.4135859 48.5451891,51.1411225 48.5937084,51.9095259 L48.6000157,52.12 L48.6000157,56.82 C48.6000157,58.5157046 47.2727622,59.901416 45.6004517,59.994966 L45.42,60 L40.76,60 C39.9096351,60 39.0946683,59.6595472 38.4971393,59.0545022 C37.9494044,58.4998776 37.6262104,57.7653373 37.5843874,56.9918198 L37.5799842,56.78 L37.5799842,52.12 C37.5773424,51.2748803 37.9112035,50.4634634 38.5078575,49.8649332 C39.0547903,49.3162805 39.7812994,48.9878875 40.5495467,48.9369654 L40.76,48.93 L45.42,48.93 Z M58.39,48.93 C60.0872652,48.9353206 61.4715237,50.2654131 61.5649716,51.9393757 L61.57,52.12 L61.57,56.82 C61.5646995,58.5135042 60.2402711,59.8961465 58.570213,59.9944288 L58.39,60 L53.72,60 C52.8704705,59.9973745 52.0570794,59.6559977 51.4601345,59.0515442 C50.9129351,58.4974617 50.5890494,57.7642816 50.5450253,56.9916045 L50.54,56.78 L50.54,52.12 C50.54,50.4227264 51.8657314,49.0342907 53.5393924,48.9355947 L53.72,48.93 L58.39,48.93 Z M31.09,53.52 L29.16,53.52 L29.16,55.46 L31.09,55.46 L31.09,53.52 Z M44.06,53.52 L42.12,53.52 L42.12,55.46 L44.06,55.46 L44.06,53.52 Z M57,53.52 L55.09,53.52 L55.09,55.46 L57,55.46 L57,53.52 Z M32.46,36 C34.1423061,36.0051415 35.5201321,37.3126832 35.632812,38.9710219 L35.64,39.15 L35.64,43.81 C35.64,45.5072736 34.314268,46.8957093 32.6406076,46.9944053 L32.46,47 L27.79,47 C26.1039752,46.9947891 24.7245531,45.681636 24.6166514,44.0193899 L24.61,43.84 L24.61,39.18 C24.6153005,37.4864958 25.9397289,36.1038535 27.609787,36.0055712 L27.79,36 L32.46,36 Z M45.42,36 C47.104457,36 48.4852972,37.3102043 48.5933528,38.9707838 L48.6000313,39.15 L48.6000313,43.81 C48.6026576,44.6551197 48.2687965,45.4665366 47.6721425,46.0650668 C47.1252097,46.6137195 46.3987006,46.9421125 45.6304533,46.9930346 L45.42,47 L40.76,47 C39.071808,47 37.6893535,45.6841198 37.5861213,44.0196283 L37.58,43.84 L37.58,39.18 C37.58,37.4842954 38.9072388,36.098584 40.5795483,36.005034 L40.76,36 L45.42,36 Z M53.72,36 L58.39,36 C60.0723061,36.0051415 61.4501321,37.3126832 61.562812,38.9710219 L61.57,39.15 L61.57,43.81 C61.57,45.5072736 60.244268,46.8957093 58.5706076,46.9944053 L58.39,47 L53.72,47 C52.0339753,46.9947891 50.6545531,45.681636 50.5466514,44.0193899 L50.54,43.84 L50.54,39.18 C50.5453005,37.4864958 51.8697289,36.1038535 53.539787,36.0055712 L53.72,36 L58.39,36 L53.72,36 Z M31.09,40.51 L29.16,40.51 L29.16,42.45 L31.09,42.45 L31.09,40.51 Z M44.06,40.51 L42.12,40.51 L42.12,42.45 L44.06,42.45 L44.06,40.51 Z M57,40.51 L55.09,40.51 L55.09,42.45 L57,42.45 L57,40.51 Z M76.05,9.08999996 L23.05,9.08999996 L23.05,21.91 L76.05,21.91 L76.05,9.08999996 Z" id="Shape" fill="#000000"></path>
    </g>
</svg>