<?xml version="1.0" encoding="UTF-8"?>
<svg width="100px" height="100px" viewBox="0 0 100 100" version="1.1" xmlns="http://www.w3.org/2000/svg" xmlns:xlink="http://www.w3.org/1999/xlink">
    <!-- Generator: Sketch 57.1 (83088) - https://sketch.com -->
    <title>regular/calculator-regular</title>
    <desc>Created with Sketch.</desc>
    <g id="regular/calculator" stroke="none" stroke-width="1" fill="none" fill-rule="evenodd">
        <path d="M80.48,-4.9999997e-08 C81.6177788,-4.9999997e-08 82.7089571,0.451980796 83.5134881,1.25651186 C84.2605527,2.00357642 84.7036326,2.99780109 84.7631182,4.04699098 L84.77,4.28999995 L84.77,95.71 C84.77,96.8477788 84.3180192,97.9389571 83.5134881,98.7434881 C82.7664236,99.4905527 81.7721989,99.9336325 80.723009,99.9931181 L80.48,100 L19.29,100 C16.9903837,100 15.1133703,98.1906224 15.004947,95.9178544 L15,95.71 L15,4.28999995 C15,1.99038372 16.8093776,0.113370275 19.0821456,0.0049470074 L19.29,-4.9999997e-08 L80.48,-4.9999997e-08 Z M80,27.66 L19.76,27.66 L19.76,95.24 L80,95.24 L80,27.66 Z M32,76.05 C33.7772593,76.05 35.2310586,77.4383376 35.3341678,79.1908806 L35.34,79.38 L35.34,84.27 C35.3346788,86.0472514 33.9419809,87.4968735 32.1891361,87.5947342 L32,87.6 L27.07,87.6 C25.2965101,87.5946981 23.848505,86.2076651 23.7458088,84.4587249 L23.74,84.27 L23.74,79.38 C23.74,77.6021954 25.1331555,76.1497797 26.8872922,76.0549273 L27.07,76.05 L32,76.05 Z M45.54,76.05 C47.3134899,76.055302 48.7614949,77.442335 48.8641912,79.1912752 L48.87,79.38 L48.87,84.27 C48.8646981,86.0434899 47.477665,87.491495 45.7287248,87.5941912 L45.54,87.6 L40.65,87.6 C38.8765101,87.5946981 37.4285051,86.2076651 37.3258088,84.4587249 L37.32,84.27 L37.32,79.38 C37.32,77.6021954 38.7131555,76.1497797 40.4672922,76.0549273 L40.65,76.05 L45.54,76.05 Z M59.12,76.05 C60.8978046,76.05 62.3502203,77.4431556 62.4450727,79.1972923 L62.45,79.38 L62.45,84.27 C62.4446981,86.0434899 61.057665,87.491495 59.3087249,87.5941912 L59.12,87.6 L54.23,87.6 C52.4565101,87.5946981 51.0085051,86.2076651 50.9058088,84.4587249 L50.9,84.27 L50.9,79.38 C50.9053019,77.6065101 52.292335,76.1585051 54.0412752,76.0558089 L54.23,76.05 L59.12,76.05 Z M72.7,35.3 C74.5251026,35.3218513 75.9946661,36.8047744 76,38.63 L76,84.27 C75.9946661,86.0952256 74.5251026,87.5781487 72.7,87.6 L67.82,87.6 C65.9792671,87.6 64.4855112,86.1107247 64.48,84.27 L64.48,38.63 C64.4855112,36.7892754 65.9792671,35.3 67.82,35.3 L72.7,35.3 Z M71.24,40.06 L69.24,40.06 L69.24,82.84 L71.24,82.84 L71.24,40.06 Z M30.5,80.81 L28.5,80.81 L28.5,82.81 L30.5,82.81 L30.5,80.81 Z M44.08,80.81 L42.08,80.81 L42.08,82.81 L44.08,82.81 L44.08,80.81 Z M57.66,80.81 L55.66,80.81 L55.66,82.81 L57.66,82.81 L57.66,80.81 Z M32,62.47 C33.7772593,62.47 35.2310586,63.8583376 35.3341678,65.6108806 L35.34,65.8 L35.34,70.67 C35.3346788,72.4472514 33.9419809,73.8968735 32.1891361,73.9947342 L32,74 L27.07,74 C25.3039923,73.9947837 23.8592099,72.6190299 23.7468895,70.8779018 L23.74,70.69 L23.74,65.8 C23.74,64.0221954 25.1331555,62.5697797 26.8872922,62.4749273 L27.07,62.47 L32,62.47 Z M45.54,62.47 C47.3134899,62.475302 48.7614949,63.862335 48.8641912,65.6112752 L48.87,65.8 L48.87,70.67 C48.8646981,72.4434899 47.477665,73.8914949 45.7287248,73.9941912 L45.54,74 L40.65,74 C38.8839923,73.9947837 37.43921,72.6190299 37.3268895,70.8779018 L37.32,70.69 L37.32,65.8 C37.32,64.0221954 38.7131555,62.5697797 40.4672922,62.4749273 L40.65,62.47 L45.54,62.47 Z M59.12,62.47 C60.8978046,62.47 62.3502203,63.8631556 62.4450727,65.6172922 L62.45,65.8 L62.45,70.67 C62.4446981,72.4434899 61.057665,73.8914949 59.3087249,73.9941912 L59.12,74 L54.23,74 C52.4639923,73.9947837 51.01921,72.6190299 50.9068896,70.8779018 L50.9,70.69 L50.9,65.8 C50.9053019,64.0265101 52.292335,62.5785051 54.0412752,62.4758089 L54.23,62.47 L59.12,62.47 Z M30.5,67.21 L28.5,67.21 L28.5,69.21 L30.5,69.21 L30.5,67.21 Z M44.08,67.21 L42.08,67.21 L42.08,69.21 L44.08,69.21 L44.08,67.21 Z M57.66,67.21 L55.66,67.21 L55.66,69.21 L57.66,69.21 L57.66,67.21 Z M32,48.88 C33.7788223,48.885302 35.2311848,50.2765087 35.3341753,52.0307077 L35.34,52.22 L35.34,57.1 C35.3346979,58.8788223 33.9434913,60.3311848 32.1892923,60.4341753 L32,60.44 L27.07,60.44 C25.2927486,60.4346789 23.8431265,59.0419809 23.7452658,57.2891361 L23.74,57.1 L23.74,52.22 C23.74,50.4427407 25.1283375,48.9889414 26.8808805,48.8858322 L27.07,48.88 L32,48.88 Z M45.54,48.88 C47.3172514,48.8853211 48.7668735,50.2780191 48.8647341,52.0308639 L48.87,52.22 L48.87,57.1 C48.87,58.8772593 47.4816624,60.3310586 45.7291194,60.4341678 L45.54,60.44 L40.65,60.44 C38.8727486,60.4346789 37.4231265,59.0419809 37.3252659,57.2891361 L37.32,57.1 L37.32,52.22 C37.32,50.4427407 38.7083376,48.9889414 40.4608805,48.8858322 L40.65,48.88 L45.54,48.88 Z M59.12,48.88 C60.8972514,48.8853211 62.3468735,50.2780191 62.4447341,52.0308639 L62.45,52.22 L62.45,57.1 C62.45,58.8772593 61.0616624,60.3310586 59.3091195,60.4341678 L59.12,60.44 L54.23,60.44 C52.4527486,60.4346789 51.0031265,59.0419809 50.9052659,57.2891361 L50.9,57.1 L50.9,52.22 C50.9,50.4427407 52.2883376,48.9889414 54.0408806,48.8858322 L54.23,48.88 L59.12,48.88 Z M30.5,53.64 L28.5,53.64 L28.5,55.64 L30.5,55.64 L30.5,53.64 Z M44.08,53.64 L42.08,53.64 L42.08,55.64 L44.08,55.64 L44.08,53.64 Z M57.66,53.64 L55.66,53.64 L55.66,55.64 L57.66,55.64 L57.66,53.64 Z M32,35.3 C33.7772593,35.3 35.2310586,36.6883376 35.3341678,38.4408805 L35.34,38.63 L35.34,43.52 C35.3346788,45.2972514 33.9419809,46.7468735 32.1891361,46.8447341 L32,46.85 L27.07,46.85 C25.2921954,46.85 23.8397797,45.4568445 23.7449273,43.7027078 L23.74,43.52 L23.74,38.63 C23.7453019,36.8565101 25.1323349,35.4085051 26.8812751,35.3058088 L27.07,35.3 L32,35.3 Z M45.54,35.3 C47.3134899,35.3053019 48.7614949,36.692335 48.8641912,38.4412751 L48.87,38.63 L48.87,43.52 C48.8646981,45.2934899 47.477665,46.7414949 45.7287248,46.8441912 L45.54,46.85 L40.65,46.85 C38.8721954,46.85 37.4197797,45.4568445 37.3249273,43.7027078 L37.32,43.52 L37.32,38.63 C37.3253019,36.8565101 38.712335,35.4085051 40.4612751,35.3058088 L40.65,35.3 L45.54,35.3 Z M54.23,35.3 L59.12,35.3 C60.8934899,35.3053019 62.3414949,36.692335 62.4441912,38.4412751 L62.45,38.63 L62.45,43.52 C62.45,45.2978046 61.0568445,46.7502203 59.3027078,46.8450727 L59.12,46.85 L54.23,46.85 C52.4565101,46.844698 51.0085051,45.457665 50.9058088,43.7087248 L50.9,43.52 L50.9,38.63 C50.9053019,36.8565101 52.292335,35.4085051 54.0412752,35.3058088 L54.23,35.3 L59.12,35.3 L54.23,35.3 Z M30.5,40.06 L28.5,40.06 L28.5,42.06 L30.5,42.06 L30.5,40.06 Z M44.08,40.06 L42.08,40.06 L42.08,42.06 L44.08,42.06 L44.08,40.06 Z M57.66,40.06 L55.66,40.06 L55.66,42.06 L57.66,42.06 L57.66,40.06 Z M80,4.75999995 L19.76,4.75999995 L19.76,22.9 L80,22.9 L80,4.75999995 Z" id="Shape" fill="#000000"></path>
    </g>
</svg>