<?xml version="1.0" encoding="UTF-8"?>
<svg width="100px" height="100px" viewBox="0 0 100 100" version="1.1" xmlns="http://www.w3.org/2000/svg" xmlns:xlink="http://www.w3.org/1999/xlink">
    <!-- Generator: Sketch 57.1 (83088) - https://sketch.com -->
    <title>solid/calculator-solid</title>
    <desc>Created with Sketch.</desc>
    <g id="solid/calculator" stroke="none" stroke-width="1" fill="none" fill-rule="evenodd">
        <path d="M15,27.66 L84.77,27.71 L84.77,95.71 C84.77,96.8477788 84.3180192,97.9389571 83.5134881,98.7434881 C82.7089571,99.5480192 81.6177788,100 80.48,100 L19.29,100 C16.9206984,100 15,98.0793016 15,95.71 L15,27.66 Z M32,78.4299984 L27.07,78.4299984 C26.5366665,78.429333 26.0966663,78.8473332 26.07,79.38 L26.07,84.27 C26.07,84.8222848 26.5177152,85.27 27.07,85.27 L31.91,85.27 C32.4622847,85.27 32.91,84.8222848 32.91,84.27 L33,79.38 C32.9733337,78.8473332 32.5333335,78.429333 32,78.4299984 Z M45.54,78.43 L40.65,78.43 C40.1360908,78.4551129 39.7251129,78.8660908 39.6999984,79.38 L39.6999984,84.27 C39.6993329,84.8033335 40.1173331,85.2433338 40.65,85.27 L45.54,85.27 C46.0726668,85.2433338 46.4906671,84.8033335 46.4900016,84.27 L46.4900016,79.38 C46.4648871,78.8660908 46.0539092,78.4551129 45.54,78.43 Z M59.12,78.4299984 L54.23,78.4299984 C53.7160908,78.4551129 53.3051129,78.8660908 53.2799984,79.38 L53.2799984,84.27 C53.2793329,84.8033335 53.6973332,85.2433338 54.23,85.27 L59.07,85.27 C59.6222848,85.27 60.07,84.8222848 60.07,84.27 L60.12,79.38 C60.0933337,78.8473332 59.6533335,78.429333 59.12,78.4299984 Z M72.7,37.63 L67.82,37.63 C67.2677153,37.63 66.82,38.0777152 66.82,38.63 L66.82,84.27 C66.82,84.8222848 67.2677153,85.27 67.82,85.27 L72.7,85.27 C73.2326669,85.2433338 73.6506671,84.8033335 73.6500016,84.27 L73.6500016,38.63 C73.6506671,38.0966665 73.2326669,37.6566663 72.7,37.63 Z M27.07,64.8 C26.799697,64.7821181 26.5348202,64.8817186 26.3432694,65.0732694 C26.1517185,65.2648203 26.052118,65.5296971 26.07,65.8 L26.07,70.69 C26.07,71.2422848 26.5177152,71.69 27.07,71.69 L31.91,71.69 C32.4622847,71.69 32.91,71.2422848 32.91,70.69 L33,65.8 C33,65.2477153 32.5522847,64.8 32,64.8 L27.07,64.8 Z M45.54,64.8 L40.65,64.8 C40.3882119,64.7966796 40.1368998,64.9026884 39.9565788,65.0924999 C39.7762579,65.2823114 39.6832677,65.5387261 39.7,65.8 L39.7,70.69 C39.6993329,71.2233335 40.1173331,71.6633337 40.65,71.69 L45.54,71.69 C46.0726668,71.6633337 46.4906671,71.2233335 46.4900016,70.69 L46.4900016,65.8 C46.4906671,65.2666665 46.0726668,64.8266663 45.54,64.8 Z M59.235314,64.7994547 L59.12,64.8 L54.23,64.8 C53.6973332,64.8266663 53.2793329,65.2666665 53.2799984,65.8 L53.2799984,70.69 C53.2793329,71.2233335 53.6973332,71.6633337 54.23,71.69 L59.07,71.69 C59.6222848,71.69 60.07,71.2422848 60.07,70.69 L60.12,65.8 C60.1378819,65.5296971 60.0382815,65.2648203 59.8467306,65.0732694 C59.6551798,64.8817186 59.390303,64.7821181 59.12,64.8 L59.235314,64.7994547 Z M32,51.22 L27.07,51.22 C26.5177152,51.22 26.07,51.6677153 26.07,52.22 L26.07,57.1 C26.07,57.6522848 26.5177152,58.1 27.07,58.1 L31.91,58.1 C32.4622847,58.1 32.91,57.6522848 32.91,57.1 L33,52.22 C33,51.6677153 32.5522847,51.22 32,51.22 Z M45.54,51.22 L40.65,51.22 C40.1173331,51.2466663 39.6993329,51.6866665 39.6999984,52.22 L39.6999984,57.1 C39.6993329,57.6333335 40.1173331,58.0733337 40.65,58.1 L45.54,58.1 C46.0726668,58.0733337 46.4906671,57.6333335 46.4900016,57.1 L46.4900016,52.22 C46.4906671,51.6866665 46.0726668,51.2466663 45.54,51.22 Z M59.12,51.22 L54.23,51.22 C53.6973332,51.2466663 53.2793329,51.6866665 53.2799984,52.22 L53.2799984,57.1 C53.2793329,57.6333335 53.6973332,58.0733337 54.23,58.1 L59.07,58.1 C59.6222848,58.1 60.07,57.6522848 60.07,57.1 L60.12,52.22 C60.12,51.6677153 59.6722848,51.22 59.12,51.22 Z M32,37.63 L27.07,37.63 C26.5177152,37.63 26.07,38.0777152 26.07,38.63 L26.07,43.52 C26.0666795,43.7817881 26.1726884,44.0331002 26.3624999,44.2134211 C26.5523114,44.3937421 26.808726,44.4867323 27.07,44.47 L31.91,44.47 C32.4433335,44.4706671 32.8833337,44.0526668 32.91,43.52 L33,38.63 C33,38.0777152 32.5522847,37.63 32,37.63 Z M45.54,37.63 L40.65,37.63 C40.1173331,37.6566663 39.6993329,38.0966665 39.6998944,38.63 L39.6998944,43.52 C39.6972963,43.7727748 39.7965168,44.0159851 39.9752658,44.1947341 C40.1540149,44.3734831 40.3972252,44.4727037 40.65,44.4701056 L45.54,44.4701056 C46.0539092,44.4448871 46.4648871,44.0339092 46.4900016,43.52 L46.4900016,38.63 C46.4906671,38.0966665 46.0726668,37.6566663 45.54,37.63 Z M59.12,37.63 L54.23,37.63 C53.6973332,37.6566663 53.2793329,38.0966665 53.2799984,38.63 L53.2799984,43.52 C53.3051129,44.0339092 53.7160908,44.4448871 54.23,44.47 L59.07,44.47 C59.331274,44.4867323 59.5876886,44.3937421 59.7775001,44.2134211 C59.9673116,44.0331002 60.0733204,43.7817881 60.07,43.52 L60.12,38.63 C60.12,38.0777152 59.6722848,37.63 59.12,37.63 Z M80.48,-5.00000361e-08 C82.8493016,-5.00000361e-08 84.77,1.92069838 84.77,4.28999995 L84.77,22.9 L15,22.9 L15,4.28999995 C15,1.92069838 16.9206984,-5.00000361e-08 19.29,-5.00000361e-08 L80.48,-5.00000361e-08 Z" id="Shape" fill="#000000"></path>
    </g>
</svg>