<?xml version="1.0" encoding="UTF-8"?>
<svg width="100px" height="100px" viewBox="0 0 100 100" version="1.1" xmlns="http://www.w3.org/2000/svg" xmlns:xlink="http://www.w3.org/1999/xlink">
    <!-- Generator: Sketch 57.1 (83088) - https://sketch.com -->
    <title>bold/calendar-plus-bold</title>
    <desc>Created with Sketch.</desc>
    <g id="bold/calendar-plus" stroke="none" stroke-width="1" fill="none" fill-rule="evenodd">
        <path d="M61.6831683,0.916349375 C64.9188322,0.916349375 67.7556916,3.07823363 68.6138614,6.19801976 L78.1584159,6.19801976 C79.0296648,3.09098258 81.8622289,0.943446027 85.0891089,0.943446027 C88.315989,0.943446027 91.1485531,3.09098258 92.019802,6.19801976 L92.7524753,6.19801976 C96.4779012,6.19801575 99.499488,9.21517208 99.5049505,12.940594 L99.5049505,94.3762377 C99.4995007,97.4798957 96.9848462,99.9945502 93.8811882,100 L6.11881184,100 C3.01515382,99.9945502 0.500499263,97.4798957 0.495049455,94.3762377 L0.495049455,12.940594 C0.500511957,9.21517208 3.52209876,6.19801575 7.24752471,6.19801976 L7.95049501,6.19801976 C8.82174398,3.09098258 11.654308,0.943446027 14.8811881,0.943446027 C18.1080681,0.943446027 20.9406322,3.09098258 21.8118812,6.19801976 L31.3465346,6.19801976 C32.2047044,3.07823363 35.0415638,0.916349375 38.2772277,0.916349375 C41.5128916,0.916349375 44.349751,3.07823363 45.2079208,6.19801976 L54.7524753,6.19801976 C55.610645,3.07823363 58.4475044,0.916349375 61.6831683,0.916349375 Z M90.5049505,30.0693069 L9.49504946,30.0693069 L9.49504946,91 L90.5049505,91 L90.5049505,30.0693069 Z M50,34.5742574 C52.4880155,34.5742574 54.5049505,36.5911925 54.5049505,39.0792079 L54.5049505,56.039604 L71.4554456,56.039604 C73.1134984,55.9618091 74.6800052,56.8020839 75.532307,58.2264338 C76.3846088,59.6507838 76.3846088,61.4284241 75.532307,62.8527741 C74.6800052,64.2771241 73.1134984,65.1173988 71.4554456,65.039604 L54.5049505,65.039604 L54.5049505,81.990099 C54.5049505,84.4781145 52.4880155,86.4950495 50,86.4950495 C47.5119845,86.4950495 45.4950495,84.4781145 45.4950495,81.990099 L45.4950495,65.039604 L28.5445544,65.039604 C26.8865016,65.1173988 25.3199948,64.2771241 24.467693,62.8527741 C23.6153912,61.4284241 23.6153912,59.6507838 24.467693,58.2264338 C25.3199948,56.8020839 26.8865016,55.9618091 28.5445544,56.039604 L45.4950495,56.039604 L45.4950495,39.0792079 C45.4950495,36.5911925 47.5119845,34.5742574 50,34.5742574 Z M31.3861386,15.1980198 L21.8118812,15.1980198 C21.0836833,17.7247497 19.0338985,19.6521966 16.4671897,20.2237226 C13.9004809,20.7952486 11.2265404,19.919628 9.49504946,17.940594 L9.49504946,21.0693069 L90.5049505,21.0693069 L90.5841585,17.940594 C88.8526675,19.919628 86.178727,20.7952486 83.6120182,20.2237226 C81.0453094,19.6521966 78.9955246,17.7247497 78.2673268,15.1980198 L68.6930693,15.1980198 C67.8218204,18.3050569 64.9892563,20.4525935 61.7623762,20.4525935 C58.5354962,20.4525935 55.7029321,18.3050569 54.8316832,15.1980198 L45.2475247,15.1980198 C44.3762758,18.3050569 41.5437117,20.4525935 38.3168317,20.4525935 C35.0899516,20.4525935 32.2573876,18.3050569 31.3861386,15.1980198 Z" id="Shape" fill="#000000"></path>
    </g>
</svg>