<svg width="100" height="100" viewBox="0 0 100 100" fill="none" xmlns="http://www.w3.org/2000/svg">
<path d="M11.4707 32.0641H16.8119C17.3642 32.0641 17.8119 32.5121 17.8119 33.0648V38.4092C17.8119 38.9618 17.3642 39.4098 16.8119 39.4098H11.4707C10.9184 39.4098 10.4707 38.9618 10.4707 38.4092V33.0648C10.4707 32.5121 10.9184 32.0641 11.4707 32.0641Z" fill="black"/>
<path d="M34.7416 32.0641H29.4004C28.8481 32.0641 28.4004 32.5121 28.4004 33.0648V38.4092C28.4004 38.9618 28.8481 39.4098 29.4004 39.4098H34.7416C35.2939 39.4098 35.7416 38.9618 35.7416 38.4092V33.0648C35.7416 32.5121 35.2939 32.0641 34.7416 32.0641Z" fill="black"/>
<path d="M47.3291 32.0641H52.6703C53.2226 32.0641 53.6703 32.5121 53.6703 33.0648V38.4092C53.6703 38.9618 53.2226 39.4098 52.6703 39.4098H47.3291C46.7768 39.4098 46.3291 38.9618 46.3291 38.4092V33.0648C46.3291 32.5121 46.7768 32.0641 47.3291 32.0641Z" fill="black"/>
<path d="M70.6 32.0641H65.2588C64.7065 32.0641 64.2588 32.5121 64.2588 33.0648V38.4092C64.2588 38.9618 64.7065 39.4098 65.2588 39.4098H70.6C71.1522 39.4098 71.6 38.9618 71.6 38.4092V33.0648C71.6 32.5121 71.1522 32.0641 70.6 32.0641Z" fill="black"/>
<path d="M83.1885 32.0641H88.5297C89.0819 32.0641 89.5297 32.5121 89.5297 33.0648V38.4092C89.5297 38.9618 89.0819 39.4098 88.5297 39.4098H83.1885C82.6362 39.4098 82.1885 38.9618 82.1885 38.4092V33.0648C82.1885 32.5121 82.6362 32.0641 83.1885 32.0641Z" fill="black"/>
<path d="M16.8119 57.1147H11.4707C10.9184 57.1147 10.4707 57.5627 10.4707 58.1153V63.4598C10.4707 64.0124 10.9184 64.4604 11.4707 64.4604H16.8119C17.3642 64.4604 17.8119 64.0124 17.8119 63.4598V58.1153C17.8119 57.5627 17.3642 57.1147 16.8119 57.1147Z" fill="black"/>
<path d="M29.4004 57.1147H34.7416C35.2939 57.1147 35.7416 57.5627 35.7416 58.1153V63.4598C35.7416 64.0124 35.2939 64.4604 34.7416 64.4604H29.4004C28.8481 64.4604 28.4004 64.0124 28.4004 63.4598V58.1153C28.4004 57.5627 28.8481 57.1147 29.4004 57.1147Z" fill="black"/>
<path d="M52.6703 57.1147H47.3291C46.7768 57.1147 46.3291 57.5627 46.3291 58.1153V63.4598C46.3291 64.0124 46.7768 64.4604 47.3291 64.4604H52.6703C53.2226 64.4604 53.6703 64.0124 53.6703 63.4598V58.1153C53.6703 57.5627 53.2226 57.1147 52.6703 57.1147Z" fill="black"/>
<path d="M65.2588 57.1147H70.6C71.1522 57.1147 71.6 57.5627 71.6 58.1153V63.4598C71.6 64.0124 71.1522 64.4604 70.6 64.4604H65.2588C64.7065 64.4604 64.2588 64.0124 64.2588 63.4598V58.1153C64.2588 57.5627 64.7065 57.1147 65.2588 57.1147Z" fill="black"/>
<path d="M88.5297 57.1147H83.1885C82.6362 57.1147 82.1885 57.5627 82.1885 58.1153V63.4598C82.1885 64.0124 82.6362 64.4604 83.1885 64.4604H88.5297C89.0819 64.4604 89.5297 64.0124 89.5297 63.4598V58.1153C89.5297 57.5627 89.0819 57.1147 88.5297 57.1147Z" fill="black"/>
<path d="M11.4707 82.1775H16.8119C17.3642 82.1775 17.8119 82.6255 17.8119 83.1781V88.5226C17.8119 89.0752 17.3642 89.5232 16.8119 89.5232H11.4707C10.9184 89.5232 10.4707 89.0752 10.4707 88.5226V83.1781C10.4707 82.6255 10.9184 82.1775 11.4707 82.1775Z" fill="black"/>
<path d="M34.7416 82.1775H29.4004C28.8481 82.1775 28.4004 82.6255 28.4004 83.1781V88.5226C28.4004 89.0752 28.8481 89.5232 29.4004 89.5232H34.7416C35.2939 89.5232 35.7416 89.0752 35.7416 88.5226V83.1781C35.7416 82.6255 35.2939 82.1775 34.7416 82.1775Z" fill="black"/>
<path d="M47.3291 82.1775H52.6703C53.2226 82.1775 53.6703 82.6255 53.6703 83.1781V88.5226C53.6703 89.0752 53.2226 89.5232 52.6703 89.5232H47.3291C46.7768 89.5232 46.3291 89.0752 46.3291 88.5226V83.1781C46.3291 82.6255 46.7768 82.1775 47.3291 82.1775Z" fill="black"/>
<path d="M70.6 82.1775H65.2588C64.7065 82.1775 64.2588 82.6255 64.2588 83.1781V88.5226C64.2588 89.0752 64.7065 89.5232 65.2588 89.5232H70.6C71.1522 89.5232 71.6 89.0752 71.6 88.5226V83.1781C71.6 82.6255 71.1522 82.1775 70.6 82.1775Z" fill="black"/>
<path d="M83.1885 82.1775H88.5297C89.0819 82.1775 89.5297 82.6255 89.5297 83.1781V88.5226C89.5297 89.0752 89.0819 89.5232 88.5297 89.5232H83.1885C82.6362 89.5232 82.1885 89.0752 82.1885 88.5226V83.1781C82.1885 82.6255 82.6362 82.1775 83.1885 82.1775Z" fill="black"/>
<path fill-rule="evenodd" clip-rule="evenodd" d="M92.4353 5.37713H94.7059C97.6271 5.3836 99.9935 7.75153 100 10.6745V95.8798C100 98.1553 98.1565 100 95.8824 100H4.11765C1.84353 100 0 98.1553 0 95.8798V10.6745C0.00646996 7.75153 2.37294 5.3836 5.29412 5.37713H7.56471C7.75846 2.35334 10.266 0 13.2941 0C16.3223 0 18.8298 2.35334 19.0235 5.37713H32.0706C32.2643 2.35334 34.7719 0 37.8 0C40.8281 0 43.3357 2.35334 43.5294 5.37713H56.5059C56.6996 2.35334 59.2072 0 62.2353 0C65.2634 0 67.771 2.35334 67.9647 5.37713H80.9765C81.1702 2.35334 83.6777 0 86.7059 0C89.734 0 92.2415 2.35334 92.4353 5.37713ZM13.2941 16.6402C10.266 16.6402 7.75846 14.2869 7.56471 11.2631H5.88235V21.5871H94.1176V11.2631H92.4353C92.2415 14.2869 89.734 16.6402 86.7059 16.6402C83.6777 16.6402 81.1702 14.2869 80.9765 11.2631H67.9294C67.7357 14.2869 65.2281 16.6402 62.2 16.6402C59.1719 16.6402 56.6643 14.2869 56.4706 11.2631H43.4941C43.3004 14.2869 40.7928 16.6402 37.7647 16.6402C34.7366 16.6402 32.229 14.2869 32.0353 11.2631H19.0235C18.8298 14.2869 16.3223 16.6402 13.2941 16.6402ZM5.88235 27.4731V94.114H94.1176V27.4731H5.88235Z" fill="black"/>
</svg>
