<?xml version="1.0" encoding="UTF-8"?>
<svg width="100px" height="100px" viewBox="0 0 100 100" version="1.1" xmlns="http://www.w3.org/2000/svg" xmlns:xlink="http://www.w3.org/1999/xlink">
    <!-- Generator: Sketch 57.1 (83088) - https://sketch.com -->
    <title>solid/calendar-days-solid</title>
    <desc>Created with Sketch.</desc>
    <g id="solid/calendar-days" stroke="none" stroke-width="1" fill="none" fill-rule="evenodd">
        <path d="M100,26.65 L100,96.43 C100,98.4016566 98.4016566,100 96.43,100 L3.56999995,100 C1.59834339,100 -4.99996062e-08,98.4016566 -4.99996062e-08,96.43 L-4.99996062e-08,26.65 L100,26.65 Z M16.53,82.52 L11,82.52 C10.4673331,82.5466663 10.0493329,82.9866665 10.0499984,83.52 L10.0499984,89.05 C10.0493329,89.5833335 10.4673331,90.0233338 11,90.05 L16.48,90.05 C17.0126668,90.0233338 17.430667,89.5833335 17.43,89.05 L17.4800016,83.52 C17.480667,82.9866665 17.0626668,82.5466663 16.53,82.52 Z M31,82.52 L25.47,82.52 C24.9177152,82.52 24.47,82.9677153 24.47,83.52 L24.47,89.05 C24.47,89.6022848 24.9177152,90.05 25.47,90.05 L30.94,90.05 C31.4922847,90.05 31.94,89.6022848 31.94,89.05 L32,83.52 C32,82.9677153 31.5522847,82.52 31,82.52 Z M45.5,82.52 L40,82.52 C39.4673331,82.5466663 39.0493329,82.9866665 39.0499984,83.52 L39.0499984,89.05 C39.0493329,89.5833335 39.4673331,90.0233338 40,90.05 L45.46,90.05 C46.0122847,90.05 46.46,89.6022848 46.46,89.05 L46.5,83.52 C46.5,82.9677153 46.0522847,82.52 45.5,82.52 Z M74.52,82.52 L69,82.52 C68.4477153,82.52 68,82.9677153 68,83.52 L68,89.05 C68,89.6022848 68.4477153,90.05 69,90.05 L74.49,90.05 C75.0422848,90.05 75.49,89.6022848 75.49,89.05 L75.52,83.52 C75.52,82.9677153 75.0722848,82.52 74.52,82.52 Z M89.05,82.52 L83.52,82.52 C82.9677153,82.52 82.52,82.9677153 82.52,83.52 L82.52,89.05 C82.52,89.6022848 82.9677153,90.05 83.52,90.05 L89,90.05 C89.5522848,90.05 90,89.6022848 90,89.05 L90.05,83.52 C90.05,82.9677153 89.6022848,82.52 89.05,82.52 Z M60,82.52 L54.5,82.52 C53.9477153,82.52 53.5,82.9677153 53.5,83.52 L53.5,89 C53.5,89.5522848 53.9477153,90.0000016 54.5,90.0000016 L60,90.0000016 C60.5333335,90.0006671 60.9733337,89.5826669 61,89.05 L60.95,83.52 C60.9506671,82.9866665 60.5326669,82.5466663 60,82.52 Z M16.53,65.68 L11,65.68 C10.4860908,65.7051129 10.0751129,66.1160908 10.0499984,66.63 L10.0499984,72.15 C10.0493329,72.6833335 10.4673331,73.1233337 11,73.15 L16.48,73.15 C17.0126668,73.1233337 17.430667,72.6833335 17.43,72.15 L17.48,66.63 C17.4548871,66.1160908 17.0439092,65.7051129 16.53,65.68 Z M31.1299462,65.6806737 L25.47,65.68 C24.9366665,65.679333 24.4966663,66.0973332 24.47,66.63 L24.47,72.15 C24.47,72.7022848 24.9177152,73.15 25.47,73.15 L30.94,73.15 C31.4922847,73.15 31.94,72.7022848 31.94,72.15 L32,66.63 C32.0033204,66.3682119 31.8973116,66.1168998 31.7075001,65.9365789 C31.5176886,65.7562579 31.2612739,65.6632677 31,65.68 L31.1299462,65.6806737 Z M45.5,65.6799984 L40,65.6799984 C39.4860908,65.7051129 39.0751129,66.1160908 39.0499984,66.63 L39.0499984,72.15 C39.0493329,72.6833335 39.4673331,73.1233337 40,73.15 L45.46,73.15 C46.0122847,73.15 46.46,72.7022848 46.46,72.15 L46.5,66.63 C46.4733337,66.0973332 46.0333335,65.679333 45.5,65.6799984 Z M60,65.6798944 L54.5,65.6798944 C53.9666665,65.679333 53.5266663,66.0973332 53.5,66.63 L53.5,72.15 C53.5,72.7022848 53.9477153,73.15 54.5,73.15 L60.05,73.15 C60.5826669,73.1233337 61.0006671,72.6833335 61,72.15 L60.95,66.63 C60.9527037,66.3772252 60.8534832,66.1340149 60.6747342,65.9552659 C60.4959851,65.7765169 60.2527748,65.6772963 60,65.6798944 Z M74.52,65.6799992 L68.8700538,65.6806737 C68.6551046,65.6966903 68.4506762,65.7863114 68.2924999,65.9365789 C68.1026884,66.1168998 67.9966796,66.3682119 68,66.63 L68,72.15 C68,72.7022848 68.4477153,73.15 69,73.15 L74.49,73.15 C75.0422848,73.15 75.49,72.7022848 75.49,72.15 L75.52,66.63 C75.4933337,66.0973332 75.0533335,65.679333 74.52,65.6799992 Z M89.05,65.6799984 L83.52,65.6799984 C82.9866665,65.679333 82.5466663,66.0973332 82.52,66.63 L82.52,72.15 C82.52,72.7022848 82.9677153,73.15 83.52,73.15 L89,73.15 C89.5522848,73.15 90,72.7022848 90,72.15 L90.05,66.63 C90.0233338,66.0973332 89.5833335,65.679333 89.05,65.6799984 Z M16.53,48.74 L11,48.74 C10.4673331,48.7666663 10.0493329,49.2066665 10.0499984,49.74 L10.0499984,55.26 C10.0493329,55.7933335 10.4673331,56.2333337 11,56.26 L16.48,56.26 C17.0126668,56.2333337 17.430667,55.7933335 17.43,55.26 L17.4800016,49.74 C17.480667,49.2066665 17.0626668,48.7666663 16.53,48.74 Z M31,48.74 L25.47,48.74 C24.9177152,48.74 24.47,49.1877152 24.47,49.74 L24.47,55.26 C24.47,55.8122848 24.9177152,56.26 25.47,56.26 L31.0553139,56.2605453 C31.2844856,56.2475481 31.5025441,56.1509171 31.6667306,55.9867306 C31.8582814,55.7951798 31.9578819,55.530303 31.94,55.26 L32,49.74 C32,49.1877152 31.5522847,48.74 31,48.74 Z M45.5,48.74 L40,48.74 C39.4673331,48.7666663 39.0493329,49.2066665 39.0499984,49.74 L39.0499984,55.26 C39.0493329,55.7933335 39.4673331,56.2333337 40,56.26 L45.46,56.26 C46.0122847,56.26 46.46,55.8122848 46.46,55.26 L46.5,49.74 C46.5,49.1877152 46.0522847,48.74 45.5,48.74 Z M60,48.74 L54.5,48.74 C53.9477153,48.74 53.5,49.1877152 53.5,49.74 L53.5,55.26 C53.5,55.8122848 53.9477153,56.26 54.5,56.26 L60.05,56.26 C60.3117881,56.2633204 60.5631002,56.1573116 60.7434212,55.9675001 C60.9237421,55.7776886 61.0167323,55.521274 61,55.26 L60.95,49.74 C60.9506671,49.2066665 60.5326669,48.7666663 60,48.74 Z M74.52,48.74 L69,48.74 C68.4477153,48.74 68,49.1877152 68,49.74 L68,55.26 C67.9821181,55.530303 68.0817186,55.7951798 68.2732694,55.9867306 C68.4648203,56.1782815 68.7296971,56.2778819 69,56.26 L74.49,56.26 C75.0422848,56.26 75.49,55.8122848 75.49,55.26 L75.52,49.74 C75.52,49.1877152 75.0722848,48.74 74.52,48.74 Z M89.05,48.74 L83.52,48.74 C82.9677153,48.74 82.52,49.1877152 82.52,49.74 L82.52,55.26 C82.52,55.8122848 82.9677153,56.26 83.52,56.26 L89,56.26 C89.5522848,56.26 90,55.8122848 90,55.26 L90.05,49.74 C90.05,49.1877152 89.6022848,48.74 89.05,48.74 Z M16.53,31.84 L11,31.84 C10.4673331,31.8666663 10.0493329,32.3066665 10.0499984,32.84 L10.0499984,38.37 C10.0493329,38.9033335 10.4673331,39.3433337 11,39.37 L16.48,39.37 C17.0126668,39.3433337 17.430667,38.9033335 17.43,38.37 L17.4800016,32.84 C17.480667,32.3066665 17.0626668,31.8666663 16.53,31.84 Z M31,31.84 L25.47,31.84 C24.9177152,31.84 24.47,32.2877152 24.47,32.84 L24.47,38.37 C24.47,38.9222847 24.9177152,39.37 25.47,39.37 L31.0553139,39.3705453 C31.2844856,39.3575481 31.5025441,39.260917 31.6667306,39.0967306 C31.8582814,38.9051797 31.9578819,38.6403029 31.94,38.37 L32,32.84 C32,32.2877152 31.5522847,31.84 31,31.84 Z M45.5,31.84 L40,31.84 C39.4673331,31.8666663 39.0493329,32.3066665 39.0499984,32.84 L39.0499984,38.37 C39.0493329,38.9033335 39.4673331,39.3433337 40,39.37 L45.46,39.37 C46.0122847,39.37 46.46,38.9222847 46.46,38.37 L46.5,32.84 C46.5,32.2877152 46.0522847,31.84 45.5,31.84 Z M60,31.84 L54.5,31.84 C53.9477153,31.84 53.5,32.2877152 53.5,32.84 L53.5,38.37 C53.5,38.9222847 53.9477153,39.37 54.5,39.37 L60.05,39.37 C60.3117881,39.3733204 60.5631002,39.2673116 60.7434212,39.0775001 C60.9237421,38.8876886 61.0167323,38.631274 61,38.37 L60.95,32.84 C60.9506671,32.3066665 60.5326669,31.8666663 60,31.84 Z M74.52,31.84 L69,31.84 C68.4477153,31.84 68,32.2877152 68,32.84 L68,38.37 C67.9821181,38.6403029 68.0817186,38.9051797 68.2732694,39.0967306 C68.4648203,39.2882814 68.7296971,39.3878819 69,39.37 L74.49,39.37 C75.0422848,39.37 75.49,38.9222847 75.49,38.37 L75.52,32.84 C75.52,32.2877152 75.0722848,31.84 74.52,31.84 Z M89.05,31.84 L83.52,31.84 C82.9677153,31.84 82.52,32.2877152 82.52,32.84 L82.52,38.37 C82.52,38.9222847 82.9677153,39.37 83.52,39.37 L89,39.37 C89.5522848,39.37 90,38.9222847 90,38.37 L90.05,32.84 C90.05,32.2877152 89.6022848,31.84 89.05,31.84 Z M87.14,-5.0000029e-08 C90.0339721,-5.0000029e-08 92.38,2.34602786 92.38,5.23999996 L92.38,5.50999996 L95.24,5.50999996 C97.8688755,5.50999996 100,7.64112455 100,10.27 L100,21.89 L-4.99996062e-08,21.89 L-4.99996062e-08,10.27 C-4.99996062e-08,7.64112455 2.13112454,5.50999996 4.75999995,5.50999996 L7.61999996,5.50999996 L7.61999996,5.23999996 C7.61999996,2.34602786 9.96602787,-5.0000029e-08 12.86,-5.0000029e-08 C15.7539721,-5.0000029e-08 18.1,2.34602786 18.1,5.23999996 L18.1,5.50999996 L32.38,5.50999996 L32.38,5.23999996 C32.38,2.34602786 34.7260279,-5.0000029e-08 37.62,-5.0000029e-08 C40.5139721,-5.0000029e-08 42.86,2.34602786 42.86,5.23999996 L42.86,5.50999996 L57.14,5.50999996 L57.14,5.23999996 C57.14,2.34602786 59.4860279,-5.0000029e-08 62.38,-5.0000029e-08 C65.2739721,-5.0000029e-08 67.62,2.34602786 67.62,5.23999996 L67.62,5.50999996 L81.9,5.50999996 L81.9,5.23999996 C81.9,2.34602786 84.2460279,-5.0000029e-08 87.14,-5.0000029e-08 Z" id="Shape" fill="#000000"></path>
    </g>
</svg>