<?xml version="1.0" encoding="UTF-8"?>
<svg width="100px" height="100px" viewBox="0 0 100 100" version="1.1" xmlns="http://www.w3.org/2000/svg" xmlns:xlink="http://www.w3.org/1999/xlink">
    <!-- Generator: Sketch 57.1 (83088) - https://sketch.com -->
    <title>regular/calendar-days-regular</title>
    <desc>Created with Sketch.</desc>
    <g id="regular/calendar-days" stroke="none" stroke-width="1" fill="none" fill-rule="evenodd">
        <path d="M87.14,-4.9999997e-08 C89.9616228,-4.9999997e-08 92.2623562,2.23019274 92.3756293,5.02400754 L92.38,5.23999996 L92.38,5.50999996 L95.24,5.50999996 C97.7978248,5.50999996 99.8844404,7.52748533 99.9953621,10.0579709 L100,10.27 L100,96.43 C100,98.3380548 98.5031123,99.8964926 96.619599,99.9950514 L96.43,100 L3.56999995,100 C1.66194522,100 0.103507345,98.5031123 0.00494845492,96.619599 L-4.99996062e-08,96.43 L-4.99996062e-08,10.27 C-4.99996062e-08,7.71217524 2.01748532,5.62555947 4.5479709,5.51463781 L4.75999995,5.50999996 L7.61999996,5.50999996 L7.61999996,5.23999996 C7.61999996,2.34602786 9.96602787,-4.9999997e-08 12.86,-4.9999997e-08 C15.6816228,-4.9999997e-08 17.9823561,2.23019274 18.0956293,5.02400754 L18.1,5.23999996 L18.1,5.50999996 L32.38,5.50999996 L32.38,5.23999996 C32.38,2.34602786 34.7260279,-4.9999997e-08 37.62,-4.9999997e-08 C40.4416228,-4.9999997e-08 42.7423561,2.23019274 42.8556293,5.02400754 L42.86,5.23999996 L42.86,5.50999996 L57.14,5.50999996 L57.14,5.23999996 C57.14,2.34602786 59.4860279,-4.9999997e-08 62.38,-4.9999997e-08 C65.2016228,-4.9999997e-08 67.5023562,2.23019274 67.6156293,5.02400754 L67.62,5.23999996 L67.62,5.50999996 L81.9,5.50999996 L81.9,5.23999996 C81.9,2.34602786 84.2460279,-4.9999997e-08 87.14,-4.9999997e-08 Z M95.24,26.65 L4.75999995,26.65 L4.75999995,95.24 L95.24,95.24 L95.24,26.65 Z M89.05,80.19 C90.8891083,80.19 92.38,81.6808918 92.38,83.52 L92.38,89.05 C92.3745087,90.8868289 90.8868289,92.3745087 89.05,92.38 L83.52,92.38 C81.6831712,92.3745087 80.1954913,90.8868289 80.19,89.05 L80.19,83.52 C80.1954913,81.6831712 81.6831712,80.1954913 83.52,80.19 L89.05,80.19 Z M31,80.19 C32.7778046,80.19 34.2302203,81.5831556 34.3250727,83.3372923 L34.33,83.52 L34.33,89.05 C34.324698,90.82349 32.937665,92.271495 31.1887248,92.3741912 L31,92.38 L25.47,92.38 C23.6927407,92.38 22.2389414,90.9916625 22.1358321,89.2391195 L22.13,89.05 L22.13,83.52 C22.1353211,81.7427487 23.5280191,80.2931266 25.2808639,80.1952659 L25.47,80.19 L31,80.19 Z M60,80.19 C61.7778046,80.19 63.2302203,81.5831556 63.3250727,83.3372923 L63.33,83.52 L63.33,89.05 C63.3246981,90.82349 61.937665,92.271495 60.1887249,92.3741912 L60,92.38 L54.5,92.38 C52.7227407,92.38 51.2689414,90.9916625 51.1658322,89.2391195 L51.16,89.05 L51.16,83.52 C51.1653211,81.7427487 52.5580191,80.2931266 54.3108639,80.1952659 L54.5,80.19 L60,80.19 Z M69,80.19 L74.52,80.19 C76.2972593,80.19 77.7510586,81.5783376 77.8541679,83.3308806 L77.86,83.52 L77.86,89.05 C77.8546789,90.8272514 76.4619809,92.2768735 74.7091361,92.3747342 L74.52,92.38 L69,92.38 C67.2265101,92.3746981 65.7785051,90.9876651 65.6758089,89.2387249 L65.67,89.05 L65.67,83.52 C65.67,81.7421954 67.0631556,80.2897797 68.8172922,80.1949273 L69,80.19 L74.52,80.19 L69,80.19 Z M45.53,80.19 C47.3034899,80.195302 48.7514949,81.582335 48.8541912,83.3312752 L48.86,83.52 L48.86,89.05 C48.8546981,90.82349 47.467665,92.271495 45.7187248,92.3741912 L45.53,92.38 L40,92.38 C38.2265101,92.3746981 36.7785051,90.9876651 36.6758088,89.2387249 L36.67,89.05 L36.67,83.52 C36.67,81.7421954 38.0631555,80.2897797 39.8172922,80.1949273 L40,80.19 L45.53,80.19 Z M16.53,80.19 C18.3034899,80.195302 19.7514949,81.582335 19.8541911,83.3312752 L19.86,83.52 L19.86,89.05 C19.854698,90.82349 18.467665,92.271495 16.7187248,92.3741912 L16.53,92.38 L11,92.38 C9.22651005,92.3746981 7.77850503,90.9876651 7.6758088,89.2387249 L7.66999996,89.05 L7.66999996,83.52 C7.66999996,81.7421954 9.0631555,80.2897797 10.8172922,80.1949273 L11,80.19 L16.53,80.19 Z M87.67,85 L85,85 L85,87.67 L87.67,87.67 L87.67,85 Z M73.11,85 L70.44,85 L70.44,87.67 L73.11,87.67 L73.11,85 Z M58.59,85 L55.92,85 L55.92,87.67 L58.59,87.67 L58.59,85 Z M44.08,85 L41.41,85 L41.41,87.67 L44.08,87.67 L44.08,85 Z M29.56,85 L26.9,85 L26.9,87.67 L29.56,87.67 L29.56,85 Z M15.05,85 L12.38,85 L12.38,87.67 L15.05,87.67 L15.05,85 Z M89.05,63.3 C90.8278047,63.3 92.2802203,64.6931556 92.3750727,66.4472922 L92.38,66.63 L92.38,72.15 C92.38,73.9272593 90.9916625,75.3810586 89.2391195,75.4841679 L89.05,75.49 L83.52,75.49 C81.7427487,75.4846789 80.2931266,74.0919809 80.1952659,72.3391361 L80.19,72.15 L80.19,66.63 C80.195302,64.8565101 81.582335,63.4085051 83.3312752,63.3058089 L83.52,63.3 L89.05,63.3 Z M31,63.3 C32.7778046,63.3 34.2302203,64.6931556 34.3250727,66.4472922 L34.33,66.63 L34.33,72.15 C34.33,73.9272593 32.9416624,75.3810586 31.1891194,75.4841679 L31,75.49 L25.47,75.49 C23.6911777,75.484698 22.2388151,74.0934913 22.1358247,72.3392923 L22.13,72.15 L22.13,66.63 C22.1353211,64.8527487 23.5280191,63.4031266 25.2808639,63.3052659 L25.47,63.3 L31,63.3 Z M60,63.3 C60.8831709,63.3 61.7301695,63.6508383 62.3546656,64.2753344 C62.9271204,64.8477892 63.2696266,65.6072078 63.3227355,66.4100687 L63.33,66.63 L63.33,72.15 C63.33,73.9272593 61.9416624,75.3810586 60.1891195,75.4841679 L60,75.49 L54.5,75.49 C52.7211777,75.484698 51.2688152,74.0934913 51.1658247,72.3392923 L51.16,72.15 L51.16,66.63 C51.1653211,64.8527487 52.5580191,63.4031266 54.3108639,63.3052659 L54.5,63.3 L60,63.3 Z M74.52,63.3 C76.2972593,63.3 77.7510586,64.6883376 77.8541679,66.4408806 L77.86,66.63 L77.86,72.15 C77.854698,73.9288223 76.4634913,75.3811848 74.7092923,75.4841753 L74.52,75.49 L69,75.49 C67.2227487,75.4846789 65.7731266,74.0919809 65.6752659,72.3391361 L65.67,72.15 L65.67,66.63 C65.67,64.8521954 67.0631556,63.3997797 68.8172922,63.3049273 L69,63.3 L74.52,63.3 Z M45.53,63.3 C47.3034899,63.305302 48.7514949,64.692335 48.8541912,66.4412752 L48.86,66.63 L48.86,72.15 C48.86,73.9272593 47.4716624,75.3810586 45.7191194,75.4841679 L45.53,75.49 L40,75.49 C38.2227486,75.4846789 36.7731265,74.0919809 36.6752658,72.3391361 L36.67,72.15 L36.67,66.63 C36.67,64.8521954 38.0631555,63.3997797 39.8172922,63.3049273 L40,63.3 L45.53,63.3 Z M16.53,63.3 C18.3034899,63.305302 19.7514949,64.692335 19.8541911,66.4412752 L19.86,66.63 L19.86,72.15 C19.86,73.9272593 18.4716624,75.3810586 16.7191194,75.4841679 L16.53,75.49 L11,75.49 C9.2227486,75.4846789 7.7731265,74.0919809 7.67526582,72.3391361 L7.66999996,72.15 L7.66999996,66.63 C7.66999996,64.8521954 9.0631555,63.3997797 10.8172922,63.3049273 L11,63.3 L16.53,63.3 Z M44.1,68.06 L41.43,68.06 L41.41,70.73 L44.1,70.73 L44.1,68.06 Z M29.56,68.06 L26.9,68.06 L26.9,70.73 L29.56,70.73 L29.56,68.06 Z M15.1,68.06 L12.43,68.06 L12.38,70.73 L15.1,70.73 L15.1,68.06 Z M58.59,68.06 L55.92,68.06 L55.92,70.73 L58.59,70.73 L58.59,68.06 Z M73.1,68.06 L70.43,68.06 L70.44,70.73 L73.1,70.73 L73.1,68.06 Z M87.67,68.06 L85,68.06 L85,70.73 L87.67,70.73 L87.67,68.06 Z M74.52,46.4 C76.2988223,46.405302 77.7511849,47.7965087 77.8541753,49.5507077 L77.86,49.74 L77.86,55.26 C77.8546789,57.0372514 76.4619809,58.4868735 74.7091361,58.5847341 L74.52,58.59 L69,58.59 C67.2221954,58.59 65.7697797,57.1968445 65.6749273,55.4427078 L65.67,55.26 L65.67,49.74 C65.67,47.9627407 67.0583376,46.5089414 68.8108806,46.4058322 L69,46.4 L74.52,46.4 Z M45.53,46.4 C47.3072514,46.4053211 48.7568735,47.7980191 48.8547341,49.5508639 L48.86,49.74 L48.86,55.26 C48.8546981,57.0334899 47.467665,58.4814949 45.7187248,58.5841912 L45.53,58.59 L40,58.59 C39.1168291,58.59 38.2698305,58.2391617 37.6453344,57.6146656 C37.0728796,57.0422108 36.7303734,56.2827922 36.6772645,55.4799313 L36.67,55.26 L36.67,49.74 C36.67,47.9627407 38.0583376,46.5089414 39.8108805,46.4058322 L40,46.4 L45.53,46.4 Z M60,46.4 C61.7772514,46.4053211 63.2268735,47.7980191 63.3247342,49.5508639 L63.33,49.74 L63.33,55.26 C63.33,57.0378046 61.9368445,58.4902203 60.1827078,58.5850727 L60,58.59 L54.5,58.59 C52.7227407,58.59 51.2689414,57.2016624 51.1658322,55.4491195 L51.16,55.26 L51.16,49.74 C51.165302,47.9611777 52.5565087,46.5088152 54.3107077,46.4058247 L54.5,46.4 L60,46.4 Z M31,46.4 C32.7772513,46.4053211 34.2268734,47.7980191 34.3247341,49.5508639 L34.33,49.74 L34.33,55.26 C34.33,57.0378046 32.9368444,58.4902203 31.1827078,58.5850727 L31,58.59 L25.47,58.59 C23.6927407,58.59 22.2389414,57.2016624 22.1358321,55.4491195 L22.13,55.26 L22.13,49.74 C22.135302,47.9611777 23.5265087,46.5088152 25.2807077,46.4058247 L25.47,46.4 L31,46.4 Z M16.53,46.4 C18.3072513,46.4053211 19.7568734,47.7980191 19.8547341,49.5508639 L19.86,49.74 L19.86,55.26 C19.854698,57.0334899 18.467665,58.4814949 16.7187248,58.5841912 L16.53,58.59 L11,58.59 C10.116829,58.59 9.26983052,58.2391617 8.64533438,57.6146656 C8.07287958,57.0422108 7.73037341,56.2827922 7.67726442,55.4799313 L7.66999996,55.26 L7.66999996,49.74 C7.66999996,47.9627407 9.05833753,46.5089414 10.8108805,46.4058322 L11,46.4 L16.53,46.4 Z M89.05,46.4 C90.8272514,46.4053211 92.2768735,47.7980191 92.3747342,49.5508639 L92.38,49.74 L92.38,55.26 C92.38,57.0378046 90.9868445,58.4902203 89.2327078,58.5850727 L89.05,58.59 L83.52,58.59 C81.7465101,58.5846981 80.2985051,57.197665 80.1958089,55.4487248 L80.19,55.26 L80.19,49.74 C80.19,47.9627407 81.5783376,46.5089414 83.3308806,46.4058322 L83.52,46.4 L89.05,46.4 Z M73.1,51.16 L70.43,51.16 L70.44,53.83 L73.1,53.83 L73.1,51.16 Z M87.67,51.16 L85,51.16 L85,53.83 L87.67,53.83 L87.67,51.16 Z M58.59,51.16 L55.92,51.16 L55.92,53.83 L58.59,53.83 L58.59,51.16 Z M44.1,51.16 L41.43,51.16 L41.41,53.83 L44.1,53.83 L44.1,51.16 Z M15.1,51.16 L12.43,51.16 L12.38,53.83 L15.1,53.83 L15.1,51.16 Z M29.56,51.16 L26.9,51.16 L26.9,53.83 L29.56,53.83 L29.56,51.16 Z M31,29.51 C32.7734899,29.5153019 34.2214949,30.9023349 34.3241911,32.6512751 L34.33,32.84 L34.33,38.37 C34.33,40.1478046 32.9368444,41.6002203 31.1827078,41.6950727 L31,41.7 L25.47,41.7 C23.6927407,41.7 22.2389414,40.3116624 22.1358321,38.5591194 L22.13,38.37 L22.13,32.84 C22.1353211,31.0627486 23.5280191,29.6131265 25.2808639,29.5152658 L25.47,29.51 L31,29.51 Z M60,29.51 C61.7734899,29.5153019 63.2214949,30.9023349 63.3241912,32.6512751 L63.33,32.84 L63.33,38.37 C63.33,40.1478046 61.9368445,41.6002203 60.1827078,41.6950727 L60,41.7 L54.5,41.7 C52.7227407,41.7 51.2689414,40.3116624 51.1658322,38.5591194 L51.16,38.37 L51.16,32.84 C51.1653211,31.0627486 52.5580191,29.6131265 54.3108639,29.5152658 L54.5,29.51 L60,29.51 Z M45.53,29.51 C47.3034899,29.5153019 48.7514949,30.9023349 48.8541912,32.6512751 L48.86,32.84 L48.86,38.37 C48.8546981,40.1434899 47.467665,41.5914949 45.7187248,41.6941911 L45.53,41.7 L40,41.7 C38.2221954,41.7 36.7697797,40.3068444 36.6749273,38.5527078 L36.67,38.37 L36.67,32.84 C36.6753019,31.0665101 38.062335,29.6185051 39.8112751,29.5158088 L40,29.51 L45.53,29.51 Z M74.52,29.51 C76.2972593,29.51 77.7510586,30.8983376 77.8541679,32.6508805 L77.86,32.84 L77.86,38.37 C77.8546789,40.1472513 76.4619809,41.5968735 74.7091361,41.6947341 L74.52,41.7 L69,41.7 C67.2221954,41.7 65.7697797,40.3068444 65.6749273,38.5527078 L65.67,38.37 L65.67,32.84 C65.675302,31.0665101 67.062335,29.6185051 68.8112752,29.5158088 L69,29.51 L74.52,29.51 Z M89.05,29.51 C90.82349,29.5153019 92.271495,30.9023349 92.3741912,32.6512751 L92.38,32.84 L92.38,38.37 C92.38,40.1478046 90.9868445,41.6002203 89.2327078,41.6950727 L89.05,41.7 L83.52,41.7 C81.7465101,41.694698 80.2985051,40.307665 80.1958089,38.5587248 L80.19,38.37 L80.19,32.84 C80.195302,31.0665101 81.582335,29.6185051 83.3312752,29.5158088 L83.52,29.51 L89.05,29.51 Z M16.53,29.51 C18.3034899,29.5153019 19.7514949,30.9023349 19.8541911,32.6512751 L19.86,32.84 L19.86,38.37 C19.854698,40.1434899 18.467665,41.5914949 16.7187248,41.6941911 L16.53,41.7 L11,41.7 C9.22219535,41.7 7.76977965,40.3068444 7.67492728,38.5527078 L7.66999996,38.37 L7.66999996,32.84 C7.67530191,31.0665101 9.06233492,29.6185051 10.8112751,29.5158088 L11,29.51 L16.53,29.51 Z M44.1,34.27 L41.43,34.27 L41.41,36.94 L44.1,36.94 L44.1,34.27 Z M58.59,34.27 L55.92,34.27 L55.92,36.94 L58.59,36.94 L58.59,34.27 Z M73.1,34.27 L70.43,34.27 L70.44,36.94 L73.1,36.94 L73.1,34.27 Z M87.67,34.27 L85,34.27 L85,36.94 L87.67,36.94 L87.67,34.27 Z M29.56,34.27 L26.9,34.27 L26.9,36.94 L29.56,36.94 L29.56,34.27 Z M15.1,34.27 L12.43,34.27 L12.38,36.94 L15.1,36.94 L15.1,34.27 Z M7.61999996,10.27 L4.75999995,10.27 L4.75999995,21.89 L95.24,21.89 L95.24,10.27 L92.38,10.27 L92.38,10.53 C92.38,13.4239721 90.0339721,15.77 87.14,15.77 C84.3183772,15.77 82.0176439,13.5398072 81.9043707,10.7459924 L81.9,10.53 L81.9,10.27 L67.62,10.27 L67.62,10.53 C67.62,13.4239721 65.2739721,15.77 62.38,15.77 C59.5583772,15.77 57.2576439,13.5398072 57.1443707,10.7459924 L57.14,10.53 L57.14,10.27 L42.86,10.27 L42.86,10.53 C42.86,13.4239721 40.5139721,15.77 37.62,15.77 C34.7983772,15.77 32.4976438,13.5398072 32.3843707,10.7459924 L32.38,10.53 L32.38,10.27 L18.1,10.27 L18.1,10.53 C18.1,13.4239721 15.7539721,15.77 12.86,15.77 C10.0383772,15.77 7.73764382,13.5398072 7.62437066,10.7459924 L7.61999996,10.53 L7.61999996,10.27 Z M12.5952685,4.76724084 C12.4634394,4.85206558 12.3830271,4.99454695 12.3755569,5.14741262 L12.38,5.23999996 L12.38,10.53 C12.3529189,10.7161542 12.4370736,10.9009694 12.5952685,11.0027591 C12.7534634,11.1045488 12.9565365,11.1045488 13.1147314,11.0027591 C13.2465605,10.9179343 13.3269728,10.775453 13.3344431,10.6225873 L13.33,10.53 L13.33,5.23999996 C13.357081,5.05384576 13.2729263,4.86903053 13.1147314,4.76724084 C12.9565365,4.66545116 12.7534634,4.66545116 12.5952685,4.76724084 Z M87.17,4.73999995 C86.9245401,4.73999995 86.7203917,4.91687512 86.6780557,5.15012432 L86.67,5.23999995 L86.67,10.53 C86.67,10.8061423 86.8938577,11.03 87.17,11.03 C87.4154599,11.03 87.6196084,10.8531248 87.6619444,10.6198756 L87.67,10.53 L87.67,5.23999995 C87.67,4.96385758 87.4461424,4.73999995 87.17,4.73999995 Z M62.4,4.73999995 C62.1545401,4.73999995 61.9503916,4.91687512 61.9080557,5.15012432 L61.9,5.23999995 L61.9,10.53 C61.9,10.8061423 62.1238576,11.03 62.4,11.03 C62.6454599,11.03 62.8496084,10.8531248 62.8919443,10.6198756 L62.9,10.53 L62.9,5.23999995 C62.9,4.96385758 62.6761424,4.73999995 62.4,4.73999995 Z M37.64,4.73999995 C37.3945401,4.73999995 37.1903916,4.91687512 37.1480557,5.15012432 L37.14,5.23999995 L37.14,10.53 C37.14,10.8061423 37.3638576,11.03 37.64,11.03 C37.8854599,11.03 38.0896084,10.8531248 38.1319443,10.6198756 L38.14,10.53 L38.14,5.23999995 C38.14,4.96385758 37.9161424,4.73999995 37.64,4.73999995 Z" id="Shape" fill="#000000"></path>
    </g>
</svg>