<?xml version="1.0" encoding="UTF-8"?>
<svg width="100px" height="100px" viewBox="0 0 100 100" version="1.1" xmlns="http://www.w3.org/2000/svg" xmlns:xlink="http://www.w3.org/1999/xlink">
    <!-- Generator: Sketch 57.1 (83088) - https://sketch.com -->
    <title>regular/calendar-plus-regular</title>
    <desc>Created with Sketch.</desc>
    <g id="regular/calendar-plus" stroke="none" stroke-width="1" fill="none" fill-rule="evenodd">
        <path d="M87.14,-4.9999997e-08 C90.0339721,-4.9999997e-08 92.38,2.34602786 92.38,5.23999996 L92.38,5.50999996 L95.24,5.50999996 C97.8688755,5.50999996 100,7.64112455 100,10.27 L100,96.43 C100,98.4016566 98.4016566,100 96.43,100 L3.56999995,100 C1.59834339,100 -4.99996062e-08,98.4016566 -4.99996062e-08,96.43 L-4.99996062e-08,10.27 C-4.99996062e-08,7.64112455 2.13112454,5.50999996 4.75999995,5.50999996 L7.61999996,5.50999996 L7.61999996,5.23999996 C7.61999996,2.34602786 9.96602787,-4.9999997e-08 12.86,-4.9999997e-08 C15.7539721,-4.9999997e-08 18.1,2.34602786 18.1,5.23999996 L18.1,5.50999996 L32.38,5.50999996 L32.38,5.23999996 C32.38,2.34602786 34.7260279,-4.9999997e-08 37.62,-4.9999997e-08 C40.5139721,-4.9999997e-08 42.86,2.34602786 42.86,5.23999996 L42.86,5.50999996 L57.14,5.50999996 L57.14,5.23999996 C57.14,2.34602786 59.4860279,-4.9999997e-08 62.38,-4.9999997e-08 C65.2739721,-4.9999997e-08 67.62,2.34602786 67.62,5.23999996 L67.62,5.50999996 L81.9,5.50999996 L81.9,5.23999996 C81.9,2.34602786 84.2460279,-4.9999997e-08 87.14,-4.9999997e-08 Z M95.24,26 L4.75999995,26 L4.75999995,95.24 L95.24,95.24 L95.24,26 Z M50,35.5400001 C51.3144377,35.5400001 52.3799999,36.6055623 52.38,37.92 L52.38,58.23 L72.7,58.23 C73.9573372,58.3114583 74.9354847,59.3550269 74.9354847,60.615 C74.9354847,61.8749731 73.9573372,62.9185418 72.7,63 L52.38,63 L52.38,83.33 C52.38,84.6444377 51.3144377,85.71 50,85.71 C48.6855623,85.71 47.62,84.6444377 47.62,83.33 L47.62,63 L27.3,63 L27.3,63.01 C26.0426628,62.9285418 25.0645153,61.8849731 25.0645153,60.625 C25.0645153,59.3650269 26.0426628,58.3214583 27.3,58.24 L47.62,58.24 L47.62,37.92 C47.6200001,36.6055623 48.6855623,35.5400001 50,35.5400001 Z M7.61999996,10.24 L4.75999995,10.24 L4.75999995,21.24 L95.24,21.24 L95.24,10.24 L92.38,10.24 L92.38,10.5 C92.38,13.3939721 90.0339721,15.74 87.14,15.74 C84.2460279,15.74 81.9,13.3939721 81.9,10.5 L81.9,10.24 L67.62,10.24 L67.62,10.5 C67.62,13.3939721 65.2739721,15.74 62.38,15.74 C59.4860279,15.74 57.14,13.3939721 57.14,10.5 L57.14,10.24 L42.86,10.24 L42.86,10.5 C42.86,13.3939721 40.5139721,15.74 37.62,15.74 C34.7260279,15.74 32.38,13.3939721 32.38,10.5 L32.38,10.24 L18.1,10.24 L18.1,10.5 C18.1,13.3939721 15.7539721,15.74 12.86,15.74 C9.96602787,15.74 7.61999996,13.3939721 7.61999996,10.5 L7.61999996,10.24 Z M13.1147314,4.76724084 C12.9565365,4.66545116 12.7534634,4.66545116 12.5952685,4.76724084 C12.4370736,4.86903053 12.3529189,5.05384576 12.38,5.23999996 L12.38,10.53 C12.3529189,10.7161542 12.4370736,10.9009694 12.5952685,11.0027591 C12.7534634,11.1045488 12.9565365,11.1045488 13.1147314,11.0027591 C13.2729263,10.9009694 13.357081,10.7161542 13.33,10.53 L13.33,5.23999996 C13.357081,5.05384576 13.2729263,4.86903053 13.1147314,4.76724084 Z M87.17,4.73999995 C86.8938577,4.73999995 86.67,4.96385758 86.67,5.23999995 L86.67,10.53 C86.67,10.8061423 86.8938577,11.03 87.17,11.03 C87.4461424,11.03 87.67,10.8061423 87.67,10.53 L87.67,5.23999995 C87.67,4.96385758 87.4461424,4.73999995 87.17,4.73999995 Z M62.4,4.73999995 C62.1238576,4.73999995 61.9,4.96385758 61.9,5.23999995 L61.9,10.53 C61.9,10.8061423 62.1238576,11.03 62.4,11.03 C62.6761424,11.03 62.9,10.8061423 62.9,10.53 L62.9,5.23999995 C62.9,4.96385758 62.6761424,4.73999995 62.4,4.73999995 Z M37.64,4.73999995 C37.3638576,4.73999995 37.14,4.96385758 37.14,5.23999995 L37.14,10.53 C37.14,10.8061423 37.3638576,11.03 37.64,11.03 C37.9161424,11.03 38.14,10.8061423 38.14,10.53 L38.14,5.23999995 C38.14,4.96385758 37.9161424,4.73999995 37.64,4.73999995 Z" id="Shape" fill="#000000"></path>
    </g>
</svg>