<?xml version="1.0" encoding="UTF-8"?>
<svg width="100px" height="100px" viewBox="0 0 100 100" version="1.1" xmlns="http://www.w3.org/2000/svg" xmlns:xlink="http://www.w3.org/1999/xlink">
    <!-- Generator: Sketch 57.1 (83088) - https://sketch.com -->
    <title>bold/calendar-bold</title>
    <desc>Created with Sketch.</desc>
    <g id="bold/calendar" stroke="none" stroke-width="1" fill="none" fill-rule="evenodd">
        <path d="M92.7524753,6.19801976 L92.019802,6.19801976 C91.1485531,3.09098258 88.315989,0.943446027 85.0891089,0.943446027 C81.8622289,0.943446027 79.0296648,3.09098258 78.1584159,6.19801976 L68.6138614,6.19801976 C67.7556916,3.07823363 64.9188322,0.916349375 61.6831683,0.916349375 C58.4475044,0.916349375 55.610645,3.07823363 54.7524753,6.19801976 L45.2079208,6.19801976 C44.349751,3.07823363 41.5128916,0.916349375 38.2772277,0.916349375 C35.0415638,0.916349375 32.2047044,3.07823363 31.3465346,6.19801976 L21.8118812,6.19801976 C20.9406322,3.09098258 18.1080681,0.943446027 14.8811881,0.943446027 C11.654308,0.943446027 8.82174398,3.09098258 7.95049501,6.19801976 L7.24752471,6.19801976 C3.52209876,6.19801575 0.500511957,9.21517208 0.495049455,12.940594 L0.495049455,94.3762377 C0.500499263,97.4798957 3.01515382,99.9945502 6.11881184,100 L93.8811882,100 C96.9848462,99.9945502 99.4995007,97.4798957 99.5049505,94.3762377 L99.5049505,12.940594 C99.499488,9.21517208 96.4779012,6.19801575 92.7524753,6.19801976 Z M90.5049505,91 L9.49504946,91 L9.49504946,30.6930693 L90.5049505,30.6930693 L90.5049505,91 Z M90.5049505,21.6930693 L9.49504946,21.6930693 L9.49504946,17.940594 C11.2265404,19.919628 13.9004809,20.7952486 16.4671897,20.2237226 C19.0338985,19.6521966 21.0836833,17.7247497 21.8118812,15.1980198 L31.3861386,15.1980198 C32.2573876,18.3050569 35.0899516,20.4525935 38.3168317,20.4525935 C41.5437117,20.4525935 44.3762758,18.3050569 45.2475247,15.1980198 L54.8316832,15.1980198 C55.7029321,18.3050569 58.5354962,20.4525935 61.7623762,20.4525935 C64.9892563,20.4525935 67.8218204,18.3050569 68.6930693,15.1980198 L78.2673268,15.1980198 C78.9955246,17.7247497 81.0453094,19.6521966 83.6120182,20.2237226 C86.178727,20.7952486 88.8526675,19.919628 90.5841585,17.940594 L90.5049505,21.6930693 Z" id="calendar" fill="#000000"></path>
    </g>
</svg>