<?xml version="1.0" encoding="UTF-8"?>
<svg width="100px" height="100px" viewBox="0 0 100 100" version="1.1" xmlns="http://www.w3.org/2000/svg" xmlns:xlink="http://www.w3.org/1999/xlink">
    <!-- Generator: Sketch 57.1 (83088) - https://sketch.com -->
    <title>regular/camera-regular</title>
    <desc>Created with Sketch.</desc>
    <g id="regular/camera" stroke="none" stroke-width="1" fill="none" fill-rule="evenodd">
        <path d="M94.79,87.82 L5.20999996,87.82 C2.33487876,87.8144974 0.00550258941,85.4851212 -4.9999997e-08,82.61 L-4.9999997e-08,29.46 C0.00550258941,26.5848788 2.33487876,24.2555026 5.20999996,24.25 L31.49,24.25 C31.7385281,24.25 31.94,24.0485281 31.94,23.8 L31.94,17.21 C31.94,15.8282221 32.4889091,14.5030382 33.4659737,13.5259736 C34.4430382,12.5489091 35.7682221,12 37.15,12 L62.85,12 C65.7274036,12 68.06,14.3325964 68.06,17.21 L68.06,23.8 C68.06,23.9193474 68.1074106,24.0338067 68.191802,24.118198 C68.2761933,24.2025894 68.3906526,24.25 68.51,24.25 L94.79,24.25 C97.6651212,24.2555026 99.9944974,26.5848788 100,29.46 L100,82.61 C99.9944974,85.4851212 97.6651212,87.8144974 94.79,87.82 L94.79,87.82 Z M5.20999996,29 C4.96147182,29 4.75999995,29.2014718 4.75999995,29.45 L4.75999995,82.61 C4.75999995,82.8585282 4.96147182,83.06 5.20999996,83.06 L94.79,83.06 C95.0385282,83.06 95.24,82.8585282 95.24,82.61 L95.24,29.46 C95.24,29.2114718 95.0385282,29.01 94.79,29.01 L68.51,29.01 C65.6348788,29.0044973 63.3055027,26.6751212 63.3,23.8 L63.3,17.21 C63.3,16.9614718 63.0985282,16.76 62.85,16.76 L37.15,16.76 C37.0306526,16.76 36.9161933,16.8074105 36.8318019,16.8918019 C36.7474106,16.9761933 36.7,17.0906525 36.7,17.21 L36.7,23.8 C36.6890043,26.6712152 34.361231,28.9945206 31.49,29 L5.20999996,29 Z M50,68.3302025 C46.4780399,68.3495323 43.0954433,66.955427 40.61,64.46 C36.5580644,60.3274545 35.5705079,54.0809589 38.15,48.9 C39.3227957,46.4103233 41.328257,44.408399 43.82,43.24 C48.9855548,40.6333272 55.2408104,41.6365616 59.3321244,45.7278756 C63.4234384,49.8191896 64.4266728,56.0744452 61.82,61.24 C60.6477014,63.7324388 58.6424388,65.7377014 56.15,66.91 C54.2285985,67.8276339 52.1292076,68.3123713 50,68.3302025 L50,68.3302025 Z M50,46.58 C48.5627034,46.6005018 47.1481843,46.9421731 45.86,47.58 C44.375383,48.2770743 43.1826724,49.4733241 42.49,50.96 C40.7347718,54.3090199 41.3610895,58.4102985 44.0358807,61.0827977 C46.710672,63.755297 50.812486,64.3780986 54.16,62.62 C55.644617,61.9229257 56.8373276,60.7266759 57.53,59.24 L57.53,59.24 C59.279567,55.8769349 58.6616245,51.7694345 56,49.07 C54.4067053,47.4811124 52.2501365,46.5861363 50,46.58 L50,46.58 Z" id="camera" fill="#000000"></path>
    </g>
</svg>