<svg width="100" height="100" viewBox="0 0 100 100" fill="none" xmlns="http://www.w3.org/2000/svg">
<path d="M94.2588 23.8705H68.3765V17.5058C68.3703 14.3605 65.8392 11.8032 62.6941 11.7646H37.2941C34.1279 11.7711 31.5647 14.3396 31.5647 17.5058V23.8705H5.74118C2.5731 23.877 0.00647209 26.4436 0 29.6117V82.1294C0.00647209 85.2974 2.5731 87.8641 5.74118 87.8705H94.2588C97.4269 87.8641 99.9935 85.2974 100 82.1294V29.6117C99.9935 26.4436 97.4269 23.877 94.2588 23.8705ZM59.5765 59.9999C58.6562 61.9679 57.0739 63.5502 55.1059 64.4705C50.8996 66.6337 45.7781 65.8356 42.4295 62.4951C39.0809 59.1545 38.2705 54.0349 40.4235 49.8235C41.3438 47.8555 42.9261 46.2732 44.8941 45.3529C49.1004 43.1897 54.2219 43.9878 57.5705 47.3283C60.9191 50.6689 61.7295 55.7885 59.5765 59.9999Z" fill="black"/>
</svg>
