<?xml version="1.0" encoding="UTF-8"?>
<svg width="100px" height="100px" viewBox="0 0 100 100" version="1.1" xmlns="http://www.w3.org/2000/svg" xmlns:xlink="http://www.w3.org/1999/xlink">
    <!-- Generator: Sketch 57.1 (83088) - https://sketch.com -->
    <title>regular/caret-right-regular</title>
    <desc>Created with Sketch.</desc>
    <g id="regular/caret-right" stroke="none" stroke-width="1" fill="none" fill-rule="evenodd">
        <path d="M85.8922795,50 C85.8931709,51.7749434 85.0299343,53.4392343 83.5784314,54.4607843 L21.8333333,98.0392157 C20.1656128,99.2184805 17.9785654,99.3664434 16.1672046,98.422553 C14.3558437,97.4786625 13.2241668,95.6013302 13.2352128,93.5588236 L13.2352128,6.44117643 C13.2241668,4.3986698 14.3558437,2.52133747 16.1672046,1.57744705 C17.9785654,0.63355663 20.1656128,0.781519499 21.8333333,1.96078427 L83.5980392,45.5196078 C85.0477975,46.5494508 85.9040646,48.2217329 85.8922795,50 Z M17.9019608,93.5294118 C17.8912853,93.827448 18.0616869,94.1024141 18.3333333,94.2254902 C18.5806281,94.3866789 18.899764,94.3866789 19.1470588,94.2254902 L80.882353,50.6470588 C81.0917467,50.4980801 81.2161037,50.2569833 81.2161037,50 C81.2161037,49.7430167 81.0917467,49.5019199 80.882353,49.3529412 L19.117647,5.7941176 C18.8703523,5.63292893 18.5512163,5.63292893 18.3039215,5.7941176 C18.0322751,5.91719375 17.8618736,6.19215989 17.8720749,6.49019603 L17.9019608,93.5294118 Z" id="caret-right" fill="#000000"></path>
    </g>
</svg>