<svg width="100" height="100" viewBox="0 0 100 100" fill="none" xmlns="http://www.w3.org/2000/svg">
<g clip-path="url(#clip0)">
<path d="M93.9102 87.4595H6.04204C3.77408 87.443 1.70341 86.1668 0.669377 84.1483C-0.364655 82.1297 -0.190506 79.7036 1.12123 77.8534L44.9964 15.5781C46.1407 13.9628 47.9966 13.0019 49.9761 13C51.9556 13.0019 53.8115 13.9628 54.9558 15.5781L98.8898 77.8534C100.198 79.714 100.363 82.1484 99.3158 84.1679C98.2689 86.1875 96.1849 87.4565 93.9102 87.4595ZM49.9761 18.8861C49.91 18.8805 49.8464 18.9123 49.8113 18.9685L5.83014 81.2791C5.78664 81.343 5.78664 81.4271 5.83014 81.491C5.85729 81.5697 5.9358 81.6188 6.01849 81.6087H93.9102C93.9898 81.6176 94.0643 81.5679 94.0867 81.491C94.1493 81.4388 94.1643 81.3487 94.1221 81.2791L50.1409 18.9685C50.1026 18.9159 50.0412 18.8855 49.9761 18.8861Z" fill="black"/>
</g>
<defs>
<clipPath id="clip0">
<rect width="100" height="100" fill="white"/>
</clipPath>
</defs>
</svg>
