<?xml version="1.0" encoding="UTF-8"?>
<svg width="100px" height="100px" viewBox="0 0 100 100" version="1.1" xmlns="http://www.w3.org/2000/svg" xmlns:xlink="http://www.w3.org/1999/xlink">
    <!-- Generator: Sketch 57.1 (83088) - https://sketch.com -->
    <title>regular/caret-left-regular</title>
    <desc>Created with Sketch.</desc>
    <g id="regular/caret-left" stroke="none" stroke-width="1" fill="none" fill-rule="evenodd">
        <path d="M13.2351715,50 C13.2342801,48.2250566 14.0975167,46.5607657 15.5490196,45.5392157 L77.2941177,1.96078427 C78.9589582,0.783596214 81.1415921,0.633981397 82.9514928,1.57298348 C84.7613935,2.51198557 85.8959114,4.38258564 85.8922382,6.42156858 L85.8922382,93.5588236 C85.9032842,95.6013302 84.7716073,97.4786625 82.9602464,98.422553 C81.1488856,99.3664434 78.9618382,99.2184805 77.2941177,98.0392157 L15.5294117,54.4803922 C14.0796534,53.4505492 13.2233864,51.7782671 13.2351715,50 Z M81.2254902,6.47058819 C81.2361656,6.17255204 81.0657641,5.8975859 80.7941177,5.77450976 C80.5468229,5.61332108 80.2276869,5.61332108 79.9803922,5.77450976 L18.2352941,49.3529412 C18.0259003,49.5019199 17.9015434,49.7430167 17.9015434,50 C17.9015434,50.2569833 18.0259003,50.4980801 18.2352941,50.6470588 L80,94.2058824 C80.2472948,94.3670711 80.5664308,94.3670711 80.8137255,94.2058824 C81.0853719,94.0828063 81.2557735,93.8078401 81.2455722,93.509804 L81.2254902,6.47058819 Z" id="caret-left" fill="#000000"></path>
    </g>
</svg>