<?xml version="1.0" encoding="UTF-8"?>
<svg width="100px" height="100px" viewBox="0 0 100 100" version="1.1" xmlns="http://www.w3.org/2000/svg" xmlns:xlink="http://www.w3.org/1999/xlink">
    <!-- Generator: Sketch 57.1 (83088) - https://sketch.com -->
    <title>regular/cart-percentage-regular</title>
    <desc>Created with Sketch.</desc>
    <g id="regular/cart-percentage" stroke="none" stroke-width="1" fill="none" fill-rule="evenodd">
        <path d="M11.6435643,10.8910798 C13.2476602,10.8884733 14.6319921,11.9912121 15.000331,13.535394 L15.0396039,13.7227722 L16.2772277,20.6039604 L95.5643565,20.6039604 C96.6007606,20.6066557 97.5812271,21.0744072 98.2354279,21.8782492 C98.8429,22.624674 99.1094782,23.5876913 98.9780219,24.5343996 L98.9405941,24.7524752 L90.4356436,65.3960396 C90.1060883,66.9196446 88.8033221,68.0274276 87.2630277,68.1221873 L87.069307,68.1287129 L24.8613861,68.1287129 L25.8514851,73.7722773 L91.4059406,73.7722773 C92.4202363,73.7765121 93.3180191,74.4293284 93.6347245,75.3929214 C93.9514299,76.3565143 93.6159898,77.4146556 92.8019802,78.019802 C94.150575,80.9880562 93.3388313,84.491982 90.8223792,86.5648328 C88.3059272,88.6376835 84.7113972,88.7632916 82.0563917,86.8711535 C79.4751363,85.0315748 78.4068471,81.7301453 79.3953684,78.7405909 L79.4851485,78.4851485 L32.6039604,78.4851485 C33.8781729,81.9337858 32.3486891,85.7884125 29.0566264,87.4251898 C25.7645637,89.061967 21.7681169,87.954772 19.7876617,84.8572708 C17.8543602,81.8335196 18.4488344,77.861918 21.1454741,75.533722 L21.3465346,75.3663367 L10.5841584,15.6039604 L2.3564356,15.6039604 C1.05501214,15.6039603 -1.45341019e-08,14.5489482 -1.45341019e-08,13.2475247 C-1.45341019e-08,12.0003272 0.968926078,10.9794303 2.19509955,10.8965208 L2.3564356,10.8910798 L11.6435643,10.8910798 Z M86.2376238,78.4851092 C85.5768024,78.4851092 84.94319,78.7483294 84.4768486,79.2165287 C84.0105072,79.6847281 83.7498425,80.3193819 83.7524361,80.9801981 C83.7524361,81.9902507 84.3614594,82.9006564 85.2950116,83.2862553 C86.2285638,83.6718542 87.3025015,83.4565674 88.0152952,82.7409339 C88.7280889,82.0253003 88.939104,80.9505151 88.5497961,80.0185035 C88.1604883,79.0864918 87.2476685,78.4811404 86.2376238,78.4851092 Z M25.844,78.4850798 L25.6539193,78.4929576 C25.0644989,78.539757 24.50834,78.7948103 24.0872187,79.2159316 C23.6193061,79.6838442 23.3564356,80.3184698 23.3564356,80.9801981 C23.3564356,81.9902507 23.9654197,82.9006564 24.8989719,83.2862553 C25.8325242,83.6718542 26.9064618,83.4565674 27.6192555,82.7409339 C28.3320493,82.0253003 28.5430643,80.9505151 28.1537565,80.0185035 C27.7873491,79.1413161 26.9572079,78.5534885 26.0187313,78.4906927 L25.844,78.4850798 Z M94,25.3069307 L17.1188118,25.3069307 L23.990099,63.4158416 L86.079208,63.4158416 L94,25.3069307 Z M66.0674341,33.7641407 C66.9288887,34.6281591 66.9826314,35.9968857 66.2195927,36.9238006 L66.0990099,37.0594059 L48.1584158,55 C47.2313982,55.8842256 45.7677863,55.8658509 44.863259,54.9586316 C44.0018044,54.0946132 43.9480616,52.7258866 44.7111004,51.7989717 L44.8316832,51.6633663 L62.7722772,33.7227723 C63.6992949,32.8385467 65.1629068,32.8569214 66.0674341,33.7641407 Z M60.8514852,45.5940594 C63.1403882,45.5995027 64.9945567,47.4536713 65,49.7425743 C65,52.0337357 63.1426466,53.8910891 60.8514852,53.8910891 C58.5603237,53.8910891 56.7029703,52.0337357 56.7029703,49.7425743 C56.7029703,47.4514128 58.5603237,45.5940594 60.8514852,45.5940594 Z M61.0552047,49.2202968 C60.8431011,49.1335572 60.5996045,49.1836837 60.4390082,49.3471478 C60.2784118,49.510612 60.2326025,49.7549576 60.3230823,49.9654929 C60.4135621,50.1760281 60.6223661,50.3109509 60.8514852,50.3069307 C61.1592972,50.3015297 61.405988,50.0504337 61.4059406,49.7425743 C61.4059053,49.5134199 61.2673083,49.3070365 61.0552047,49.2202968 Z M53.0295412,36.0298647 C54.2201126,37.2204362 54.5752593,39.0114435 53.9290775,40.5662327 C53.2828957,42.121022 51.7629254,43.132717 50.0792079,43.1287365 C47.7903049,43.1232696 45.9361364,41.269101 45.9306695,38.980198 C45.926689,37.2964805 46.9383839,35.7765102 48.4931732,35.1303284 C50.0479625,34.4841466 51.8389698,34.8392933 53.0295412,36.0298647 Z M50.0792079,38.4158416 C49.9304256,38.4158178 49.7878762,38.4755907 49.6836062,38.5817226 C49.5793363,38.6878545 49.5220956,38.8314394 49.5247525,38.980198 C49.4957361,39.1978233 49.5955655,39.4125246 49.7806681,39.5305912 C49.9657707,39.6486578 50.2025461,39.6486578 50.3876487,39.5305912 C50.5727514,39.4125246 50.6725808,39.1978233 50.6435644,38.980198 C50.6462766,38.8297063 50.5876891,38.6845788 50.4812581,38.5781478 C50.3748272,38.4717168 50.2296996,38.4131293 50.0792079,38.4158416 Z" id="Shape" fill="#000000"></path>
    </g>
</svg>