<?xml version="1.0" encoding="UTF-8"?>
<svg width="100px" height="100px" viewBox="0 0 100 100" version="1.1" xmlns="http://www.w3.org/2000/svg" xmlns:xlink="http://www.w3.org/1999/xlink">
    <!-- Generator: Sketch 57.1 (83088) - https://sketch.com -->
    <title>solid/cart-percentage-solid</title>
    <desc>Created with Sketch.</desc>
    <g id="solid/cart-percentage" stroke="none" stroke-width="1" fill="none" fill-rule="evenodd">
        <path d="M90.6336634,66.4257426 L98.9405941,26.7326732 C99.1461264,25.7409805 98.8942585,24.7094522 98.2548199,23.9240757 C97.6153813,23.1386991 96.6563319,22.6829446 95.6435644,22.6831683 L20.5346534,22.6831683 L19.2574257,15.5544554 C18.7732616,12.8555401 16.4251673,10.8910891 13.6831683,10.8910891 L4.60396035,10.8910891 C2.06126323,10.8910891 -4.9999997e-08,12.9523524 -4.9999997e-08,15.4950495 C-4.9999997e-08,18.0377466 2.06126323,20.0990099 4.60396035,20.0990099 L10.7128712,20.0990099 L20.940594,76.8613862 C21.0329067,77.3326958 21.1894839,77.7891017 21.4059406,78.2178218 C19.9811166,80.7886331 20.3061372,83.9745089 22.2207489,86.2046335 C24.1353606,88.4347581 27.2353274,89.2382807 29.9921916,88.2190195 C32.7490559,87.1997583 34.580755,84.572912 34.5841584,81.6336634 C34.5894402,81.5909217 34.5894402,81.5476923 34.5841584,81.5049505 L79.5049505,81.5049505 L79.5049505,81.6336634 C79.64688,85.4161566 82.7544489,88.409308 86.539604,88.409308 C90.3247591,88.409308 93.432328,85.4161566 93.5742575,81.6336634 C93.5742575,81.4356436 93.5742575,81.2376238 93.5742575,81.049505 C95.5191862,80.1253791 96.5637708,77.9765834 96.089116,75.8762361 C95.6144612,73.7758887 93.7473714,72.2850985 91.5940594,72.2871287 L29.4851485,72.2871287 L28.9009901,69.0792079 L87.3168317,69.0792079 C88.9113511,69.0919112 90.2960404,67.9841597 90.6336634,66.4257426 L90.6336634,66.4257426 Z M51.2178218,36.5742457 C52.864181,36.5703202 54.3498772,37.5611549 54.9789326,39.0826027 C55.607988,40.6040506 55.2558102,42.3547697 54.0873778,43.5146317 C52.9189454,44.6744937 51.165681,45.0137734 49.6489054,44.3735344 C48.1321298,43.7332953 47.1522594,42.240345 47.1683168,40.5940594 C47.1899955,38.3714462 48.9951092,36.579573 51.2178218,36.5742457 Z M61.7326733,55.1980198 C59.4907253,55.1980198 57.6732673,53.3805619 57.6732673,51.1386139 C57.6732673,48.8966659 59.4907253,47.0792079 61.7326733,47.0792079 C63.9746213,47.0792079 65.7920792,48.8966659 65.7920792,51.1386139 C65.7920792,52.2152353 65.364393,53.247761 64.6031068,54.0090473 C63.8418205,54.7703336 62.8092947,55.1980198 61.7326733,55.1980198 Z M66.8712871,38.7524752 L49.3465347,56.2772277 C48.4462048,57.1747675 46.9894388,57.1747675 46.0891089,56.2772277 C45.6555927,55.8460931 45.4118446,55.2599177 45.4118446,54.6485149 C45.4118446,54.037112 45.6555927,53.4509367 46.0891089,53.019802 L63.6138614,35.4950495 C64.1837444,34.8578115 65.059298,34.5879688 65.8890278,34.7938509 C66.7187575,34.999733 67.3666036,35.6475791 67.5724857,36.4773089 C67.7783678,37.3070387 67.5085252,38.1825922 66.8712871,38.7524752 L66.8712871,38.7524752 Z" id="cart-percentage" fill="#000000"></path>
    </g>
</svg>