<?xml version="1.0" encoding="UTF-8"?>
<svg width="100px" height="100px" viewBox="0 0 100 100" version="1.1" xmlns="http://www.w3.org/2000/svg" xmlns:xlink="http://www.w3.org/1999/xlink">
    <!-- Generator: Sketch 57.1 (83088) - https://sketch.com -->
    <title>bold/cart-minus-bold</title>
    <desc>Created with Sketch.</desc>
    <g id="bold/cart-minus" stroke="none" stroke-width="1" fill="none" fill-rule="evenodd">
        <path d="M5.21791474,11.2695887 L5.44117643,11.2745098 L14.2156862,11.2745098 C16.8674252,11.2752859 19.138215,13.1744919 19.6078431,15.7843137 L20.4509804,20.4411764 L93.5392157,20.4411764 C95.1896053,20.4382805 96.7530962,21.1806135 97.7940362,22.4613313 C98.8349761,23.742049 99.2420979,25.4242541 98.9019608,27.0392157 L90.8627451,65.4705883 C90.3267238,68.006947 88.0923656,69.8246607 85.5,69.8333334 L29.3529412,69.8333334 L29.5098039,70.7058824 L89.6078432,70.7058824 C91.2046553,70.6997697 92.6818282,71.5513701 93.4766937,72.9363016 C94.2715591,74.321233 94.2617415,76.0262746 93.4509804,77.4019608 C93.6559303,78.166256 93.7613766,78.9538076 93.7647059,79.7450981 C93.8733845,83.0437204 92.1756183,86.1393663 89.3356658,87.8208508 C86.4957132,89.5023352 82.9650712,89.5023352 80.1251186,87.8208508 C77.2851661,86.1393663 75.5873999,83.0437204 75.6960785,79.7450981 L75.6960785,79.627451 L36.6666667,79.627451 L36.6666667,79.7450981 C36.6721626,83.7846725 33.9939107,87.3363999 30.1085791,88.4420172 C26.2232474,89.5476344 22.076297,87.9380993 19.9541704,84.5008373 C17.8320437,81.0635753 18.2511416,76.6350137 20.9803921,73.6568628 L11.3235294,20.1862745 L5.44117643,20.1862745 C3.79937902,20.2633066 2.24823016,19.4312698 1.40428423,18.0208841 C0.560338289,16.6104984 0.560338289,14.8502859 1.40428423,13.4399001 C2.24823016,12.0295144 3.79937902,11.1974776 5.44117643,11.2745098 L5.21791474,11.2695887 Z M27.6372549,79.627451 C27.6060529,79.627451 27.5761289,79.6398459 27.5540658,79.661909 C27.5320027,79.6839721 27.5196078,79.7138961 27.5196078,79.7450981 C27.5196078,79.9019608 27.7647059,79.9019608 27.7647059,79.7450981 C27.7648206,79.7121208 27.7510891,79.6806093 27.7268572,79.6582413 C27.7026252,79.6358734 27.6701176,79.6247027 27.6372549,79.627451 Z M84.7156863,79.627451 C84.6844844,79.627451 84.6545604,79.6398459 84.6324973,79.661909 C84.6104342,79.6839721 84.5980393,79.7138961 84.5980393,79.7450981 C84.5980393,79.882353 84.8431373,79.882353 84.8431373,79.7450981 C84.843252,79.7121208 84.8295206,79.6806093 84.8052886,79.6582413 C84.7810566,79.6358734 84.7485491,79.6247027 84.7156863,79.627451 Z M89.3137255,29.3529412 L22.0588235,29.3529412 L27.745098,60.9215686 L82.7156863,60.9215686 L89.3137255,29.3529412 Z M66.4705883,40.6862745 C68.9342114,40.6862745 70.9313726,42.6834357 70.9313726,45.1470588 C70.9313726,47.610682 68.9342114,49.6078431 66.4705883,49.6078431 L44.8137255,49.6078431 C42.3501023,49.6078431 40.3529412,47.610682 40.3529412,45.1470588 C40.3529412,42.6834357 42.3501023,40.6862745 44.8137255,40.6862745 L66.4705883,40.6862745 Z" id="Shape" fill="#000000"></path>
    </g>
</svg>