<?xml version="1.0" encoding="UTF-8"?>
<svg width="100px" height="100px" viewBox="0 0 100 100" version="1.1" xmlns="http://www.w3.org/2000/svg" xmlns:xlink="http://www.w3.org/1999/xlink">
    <!-- Generator: Sketch 57.1 (83088) - https://sketch.com -->
    <title>bold/cart-bold</title>
    <desc>Created with Sketch.</desc>
    <g id="bold/cart" stroke="none" stroke-width="1" fill="none" fill-rule="evenodd">
        <path d="M90.8627451,65.4705883 L98.9019608,27.0392157 C99.2420979,25.4242541 98.8349761,23.742049 97.7940362,22.4613313 C96.7530962,21.1806135 95.1896053,20.4382805 93.5392157,20.4411764 L20.4509804,20.4411764 L19.6078431,15.7843137 C19.138215,13.1744919 16.8674252,11.2752859 14.2156862,11.2745098 L5.44117643,11.2745098 C3.79937902,11.1974776 2.24823016,12.0295144 1.40428423,13.4399001 C0.560338289,14.8502859 0.560338289,16.6104984 1.40428423,18.0208841 C2.24823016,19.4312698 3.79937902,20.2633066 5.44117643,20.1862745 L11.3235294,20.1862745 L20.9803921,73.6568628 C18.2511416,76.6350137 17.8320437,81.0635753 19.9541704,84.5008373 C22.076297,87.9380993 26.2232474,89.5476344 30.1085791,88.4420172 C33.9939107,87.3363999 36.6721626,83.7846725 36.6666667,79.7450981 C36.6666667,79.7450981 36.6666667,79.6666667 36.6666667,79.627451 L75.6960785,79.627451 C75.6960785,79.627451 75.6960785,79.7058824 75.6960785,79.7450981 C75.5873999,83.0437204 77.2851661,86.1393663 80.1251186,87.8208508 C82.9650712,89.5023352 86.4957132,89.5023352 89.3356658,87.8208508 C92.1756183,86.1393663 93.8733845,83.0437204 93.7647059,79.7450981 C93.7613766,78.9538076 93.6559303,78.166256 93.4509804,77.4019608 C94.2617415,76.0262746 94.2715591,74.321233 93.4766937,72.9363016 C92.6818282,71.5513701 91.2046553,70.6997697 89.6078432,70.7058824 L29.5098039,70.7058824 L29.3529412,69.8333334 L85.5,69.8333334 C88.0923656,69.8246607 90.3267238,68.006947 90.8627451,65.4705883 Z M84.7156863,79.627451 C84.7485491,79.6247027 84.7810566,79.6358734 84.8052886,79.6582413 C84.8295206,79.6806093 84.843252,79.7121208 84.8431373,79.7450981 C84.8431373,79.882353 84.5980393,79.882353 84.5980393,79.7450981 C84.5980393,79.7138961 84.6104342,79.6839721 84.6324973,79.661909 C84.6545604,79.6398459 84.6844844,79.627451 84.7156863,79.627451 Z M27.5196078,79.7450981 C27.5196078,79.7138961 27.5320027,79.6839721 27.5540658,79.661909 C27.5761289,79.6398459 27.6060529,79.627451 27.6372549,79.627451 C27.6701176,79.6247027 27.7026252,79.6358734 27.7268572,79.6582413 C27.7510891,79.6806093 27.7648206,79.7121208 27.7647059,79.7450981 C27.7647059,79.9019608 27.5196078,79.9019608 27.5196078,79.7450981 L27.5196078,79.7450981 Z M27.745098,60.9215686 L22.0588235,29.3529412 L89.3137255,29.3529412 L82.7156863,60.9215686 L27.745098,60.9215686 Z" id="cart" fill="#000000"></path>
    </g>
</svg>