<svg width="100" height="100" viewBox="0 0 100 100" fill="none" xmlns="http://www.w3.org/2000/svg">
<g clip-path="url(#clip0)">
<path d="M91.4235 65.6941L99.9176 25.1176C100.161 23.9318 99.8595 22.6993 99.0958 21.7601C98.3321 20.8208 97.187 20.2741 95.9765 20.2706H17.3176L16.1412 13.8941C15.7962 11.9909 14.1459 10.6025 12.2118 10.5882H2.94118C1.31681 10.5882 0 11.905 0 13.5294C0 15.1538 1.31681 16.4706 2.94118 16.4706H10.6588L21.2471 75.2941C18.354 77.8151 17.7284 82.0678 19.7729 85.3152C21.8173 88.5625 25.9225 89.8368 29.4465 88.3179C32.9704 86.799 34.8629 82.9396 33.9059 79.2235H79.1294C78.2989 82.4791 79.6531 85.8999 82.4869 87.7048C85.3208 89.5098 88.9933 89.2907 91.5925 87.1616C94.1916 85.0324 95.1294 81.4749 93.9176 78.3412C94.7458 77.4963 94.9871 76.2374 94.5301 75.1461C94.073 74.0549 93.0066 73.3437 91.8235 73.3412H26.8824L26.0824 68.8823H87.4941C89.3935 68.8838 91.0336 67.5531 91.4235 65.6941ZM66.9529 49.8588L58.6471 58.1765C57.1575 59.6492 54.7602 59.6492 53.2706 58.1765L44.9647 49.8588C43.9247 48.6954 43.9744 46.9223 45.0778 45.8189C46.1812 44.7155 47.9542 44.6659 49.1176 45.7059L53.0235 49.6V32.8118C53.0235 31.1874 54.3403 29.8706 55.9647 29.8706C57.5891 29.8706 58.9059 31.1874 58.9059 32.8118V49.6L62.8 45.7059C63.9634 44.6659 65.7365 44.7155 66.8399 45.8189C67.9433 46.9223 67.9929 48.6954 66.9529 49.8588Z" fill="black"/>
</g>
<defs>
<clipPath id="clip0">
<rect width="100" height="100" fill="white"/>
</clipPath>
</defs>
</svg>
