<?xml version="1.0" encoding="UTF-8"?>
<svg width="100px" height="100px" viewBox="0 0 100 100" version="1.1" xmlns="http://www.w3.org/2000/svg" xmlns:xlink="http://www.w3.org/1999/xlink">
    <!-- Generator: Sketch 57.1 (83088) - https://sketch.com -->
    <title>regular/cash-regular</title>
    <desc>Created with Sketch.</desc>
    <g id="regular/cash" stroke="none" stroke-width="1" fill="none" fill-rule="evenodd">
        <path d="M91,37.06 L91,76.64 L-4.9999791e-08,76.64 L-4.9999791e-08,37.06 L91,37.06 Z M86.22,41.81 L4.73999995,41.81 L4.73999995,71.9 L86.22,71.9 L86.22,41.81 Z M65.2507417,46.7648853 L65.39,46.88 L67.8,49.03 C68.5067949,49.6605892 68.9335048,50.542731 68.9928628,51.4822562 L69,51.7 L69,62 C69.014831,62.9464676 68.6553813,63.8573501 68.0051718,64.5372814 L67.85,64.69 L65.44,66.84 C64.8076399,67.4044797 63.9221688,67.5887203 63.117135,67.3233202 C62.3121013,67.0579201 61.7098086,66.3831999 61.537135,65.5533202 C61.3767952,64.7827176 61.6095116,63.98704 62.1498778,63.4253494 L62.28,63.3 L64.28,61.5 L64.28,52.22 L62.23,50.42 C61.5976399,49.8555204 61.3144613,48.9965596 61.487135,48.1666798 C61.6598086,47.3368001 62.2621012,46.6620799 63.067135,46.3966798 C63.8146664,46.1502368 64.6315544,46.2914943 65.2507417,46.7648853 L65.2507417,46.7648853 Z M27.895581,46.3556976 C28.7146444,46.6197449 29.3262145,47.3070332 29.4933004,48.1512299 C29.6492473,48.9391468 29.3951247,49.7481761 28.8266033,50.3047077 L28.7,50.42 L26.7,52.22 L26.7,61.48 L28.7,63.28 C29.4429437,63.9330679 29.7021484,64.9788739 29.3501927,65.9033144 C28.998237,66.8277548 28.1091523,67.4363807 27.12,67.4300986 C26.6033144,67.4304737 26.1032052,67.2585165 25.6975437,66.9443989 L25.55,66.82 L23.13,64.67 C22.4256731,64.0384459 22.0021797,63.1560222 21.9463146,62.2174914 L21.9399764,62 L21.9399764,51.7 C21.9375517,50.7517723 22.3143815,49.8452083 22.9810492,49.1793069 L23.14,49.03 L25.55,46.88 C26.1786834,46.2923412 27.0765177,46.0916503 27.895581,46.3556976 Z M46.5,47.4 C47.9700601,47.3868438 49.4144877,47.7851872 50.67,48.55 C50.928705,48.0580187 51.4443318,47.755621 52,47.77 C52.4498403,47.7543341 52.8837567,47.9375439 53.1862476,48.270862 C53.4887386,48.60418 53.629111,49.0537853 53.57,49.5 L53.57,52.76 C53.6580969,53.3420702 53.4066475,53.9234366 52.9221564,54.2578542 C52.4376653,54.5922717 51.8049128,54.6212212 51.2919094,54.3324406 C50.7789059,54.0436601 50.4754212,53.4876828 50.51,52.9 C50.391795,52.2228683 49.9569491,51.6430737 49.34,51.34 C48.5175174,50.7818336 47.5439315,50.488711 46.55,50.5 C45.7584255,50.4714326 44.9739196,50.6580551 44.28,51.04 C43.5842025,51.471929 42.9959787,52.0567329 42.56,52.75 C42.2539159,53.2256184 42.0307489,53.7497228 41.9,54.3 L48.87,54.3 C49.2584296,54.2543234 49.6478624,54.3768374 49.9401786,54.6366741 C50.2324948,54.8965107 50.3998216,55.2688941 50.4,55.66 C50.4102156,56.1624976 50.129858,56.6258663 49.68,56.85 C49.8912957,57.0979114 50.0050534,57.4143001 50,57.74 C50.0018131,58.1411004 49.8277584,58.5228479 49.523761,58.7845165 C49.2197637,59.0461851 48.8163636,59.1614873 48.42,59.1 L41.84,59.1 C42.0831654,60.101737 42.6110725,61.0116822 43.36,61.72 L43.5418826,61.9013387 C44.4723227,62.7819076 45.7123449,63.268163 47,63.25 C48.6945647,63.19383 50.2660473,62.3507758 51.25,60.97 C51.5538221,60.5811231 52.0166052,60.3497316 52.51,60.34 C52.9119257,60.3164684 53.3047399,60.465878 53.5894309,60.7505691 C53.874122,61.0352601 54.0235316,61.4280743 54,61.83 C53.9342475,62.3739602 53.6835873,62.878811 53.29,63.26 C52.8371185,63.8037619 52.3200165,64.2906436 51.75,64.71 C51.0797399,65.2330211 50.3257464,65.6387575 49.52,65.91 C48.7063679,66.1754653 47.8558439,66.3104691 47,66.3100024 C45.5622805,66.2846133 44.1560249,65.8847955 42.92,65.15 C41.7049725,64.4425337 40.6764495,63.4551517 39.92,62.27 C39.2895059,61.2906605 38.8957717,60.1779336 38.77,59.02 L38.5,59.02 C38.1157327,59.0597737 37.7326828,58.9342474 37.4464839,58.6747604 C37.160285,58.4152734 36.9979471,58.0463148 36.9999619,57.66 C37.0029047,57.2739773 37.1746455,56.9085714 37.47,56.66 C37.1746455,56.4114286 37.0029047,56.0460227 36.9999619,55.66 C36.9991739,55.2831566 37.1547464,54.9228637 37.4296092,54.6650613 C37.7044721,54.407259 38.0739818,54.2750609 38.45,54.3 L38.76,54.3 C39.0030451,52.5485107 39.8146356,50.9253297 41.07,49.68 C42.4900403,48.2064867 44.4536787,47.3819756 46.5,47.4 Z M98.08,50.4 L100,61.5 L98.08,61.83 L98.08,50.4 Z M93.25,22.5 L94.54,29.95 L89.72,29.95 L89.39,27.98 L78.04,29.95 L50.22,29.95 L93.25,22.5 Z" id="Shape" fill="#000000"></path>
    </g>
</svg>