<svg width="100" height="100" viewBox="0 0 100 100" fill="none" xmlns="http://www.w3.org/2000/svg">
<path d="M67.5368 33.3759H33.2121L93.1369 23L94.9287 33.3759H88.9913L88.3589 29.7689L67.5368 33.3759Z" fill="black"/>
<path d="M95.0814 63.508V34.2541L100 62.6531L95.0814 63.508Z" fill="black"/>
<path d="M30.3216 48.8534C30.5224 49.9161 30.1209 51.003 29.2775 51.6801L27.5209 53.2845V61.9037L29.2775 63.5081C30.1888 64.3167 30.5042 65.6052 30.0693 66.7432C29.6343 67.8813 28.5401 68.6311 27.3218 68.6258C26.603 68.6272 25.9096 68.3599 25.3778 67.8763L23.0356 65.7566C22.1595 64.9731 21.6608 63.852 21.6654 62.6766V52.5115C21.6641 51.3378 22.1675 50.2202 23.0473 49.4433L25.3895 47.3119C26.1597 46.5526 27.2858 46.2799 28.3181 46.6025C29.3504 46.9252 30.1208 47.7906 30.3216 48.8534Z" fill="black"/>
<path d="M65.5816 47.3118C64.8013 46.6152 63.7087 46.3877 62.7152 46.7152C61.7218 47.0426 60.9785 47.8752 60.7654 48.8993C60.5522 49.9234 60.9016 50.9834 61.6819 51.68L63.4854 53.2844V61.9036L61.6819 63.508C60.4757 64.5849 60.3708 66.4357 61.4477 67.642C62.5246 68.8482 64.3754 68.9531 65.5816 67.8762L67.9238 65.7565C68.803 64.9742 69.3059 63.8534 69.3057 62.6765V52.5114C69.3044 51.3349 68.8018 50.2147 67.9238 49.4315L65.5816 47.3118Z" fill="black"/>
<path d="M51.4224 64.0937L52.3008 63.473L53.9988 66.6701L53.3196 67.1385C51.7612 68.1374 49.9346 68.636 48.0848 68.5672C46.939 68.581 45.8027 68.3577 44.7472 67.9114C43.7889 67.4962 42.9124 66.9133 42.1591 66.1899C41.4341 65.4828 40.8325 64.6595 40.379 63.754C40.0529 63.1028 39.7939 62.4201 39.6061 61.7163H36.9711L38.1422 58.3553H39.1142V56.9383H36.9828L38.1539 53.5772H39.6295C39.8716 52.713 40.2218 51.8828 40.6718 51.1062C41.1938 50.1847 41.8667 49.3573 42.6626 48.6586C43.4406 47.9945 44.3337 47.4785 45.2976 47.1362C47.0579 46.5495 48.9454 46.4563 50.7549 46.8669C51.4703 47.0192 52.1631 47.2633 52.816 47.5929L53.5772 47.956L52.1719 51.399L51.2351 50.8486C50.3279 50.3673 49.3102 50.1331 48.2839 50.1693C47.0875 50.1202 45.9192 50.5404 45.0283 51.3404C44.3816 51.9577 43.8848 52.7148 43.5761 53.5538H51.6801L50.591 56.9148H42.8969V58.3319H50.2865L49.1856 61.6929H43.4473C43.5414 61.9434 43.655 62.1862 43.7869 62.419C44.0969 62.9456 44.4927 63.4166 44.958 63.8126C45.402 64.1975 45.9145 64.4955 46.4687 64.6909C47.6058 65.0657 48.8286 65.0942 49.982 64.7729C50.4969 64.6291 50.9839 64.3994 51.4224 64.0937Z" fill="black"/>
<path fill-rule="evenodd" clip-rule="evenodd" d="M0 77.7135H90.9823V37.4747H0V77.7135ZM5.85547 43.3302H85.1268V71.858H5.85547V43.3302Z" fill="black"/>
</svg>
