<?xml version="1.0" encoding="UTF-8"?>
<svg width="100px" height="100px" viewBox="0 0 100 100" version="1.1" xmlns="http://www.w3.org/2000/svg" xmlns:xlink="http://www.w3.org/1999/xlink">
    <!-- Generator: Sketch 57.1 (83088) - https://sketch.com -->
    <title>solid/cash-solid</title>
    <desc>Created with Sketch.</desc>
    <g id="solid/cash" stroke="none" stroke-width="1" fill="none" fill-rule="evenodd">
        <path d="M84.58,41.54 L84.58,78.54 L-4.99994357e-08,78.54 L-4.99994357e-08,41.54 L84.58,41.54 Z M60.86,50.68 C60.2313166,50.0923412 59.3334823,49.8916503 58.514419,50.1556976 C57.6953556,50.4197449 57.0837855,51.1070332 56.9166996,51.9512299 C56.7496136,52.7954266 57.0532707,53.6638594 57.71,54.22 L59.52,55.83 L59.52,64.29 L57.71,65.9 C56.9670563,66.5530679 56.7078516,67.5988739 57.0598073,68.5233144 C57.4117629,69.4477548 58.3008477,70.0563807 59.29,70.0500986 C59.8712713,70.0505267 60.431563,69.8328338 60.86,69.44 L63.1,67.44 C63.8386588,66.7776171 64.2604812,65.8321531 64.2600324,64.84 L64.2600324,55.28 C64.2630389,54.2873046 63.8407709,53.3408418 63.1,52.68 L60.86,50.68 Z M26.032865,50.1866798 C25.2278312,49.9212797 24.3423601,50.1055203 23.71,50.67 L21.48,52.67 C20.7365802,53.3298019 20.3107853,54.2760126 20.31,55.27 L20.31,64.79 C20.3133326,65.7834379 20.7386808,66.7286561 21.48,67.39 L23.71,69.39 C24.1420251,69.7834842 24.7056419,70.0010831 25.29,70.000008 C26.2689485,69.9909457 27.1424909,69.383355 27.4915581,68.4687106 C27.8406253,67.5540662 27.5940011,66.5189724 26.87,65.86 L25.06,64.24 L25.06,55.82 L26.87,54.21 C27.5023601,53.6455204 27.7855386,52.7865596 27.612865,51.9566798 C27.4401914,51.1268001 26.8378987,50.4520799 26.032865,50.1866798 Z M43.21,51.24 C41.3229001,51.2299459 39.5147551,51.9965994 38.21,53.36 C37.0437099,54.5084952 36.2881231,56.0091257 36.06,57.63 L35.78,57.63 C35.4221911,57.5928531 35.0655662,57.7104154 34.7999921,57.9530623 C34.534418,58.1957091 34.3852219,58.5402998 34.39,58.9 C34.3724586,59.2837544 34.5352201,59.6536669 34.83,59.9 C34.5326311,60.1443786 34.3692685,60.5156573 34.39,60.9 C34.3848646,61.2590005 34.5343463,61.6028759 34.8003585,61.8440093 C35.0663707,62.0851426 35.4232259,62.2002489 35.78,62.16 L36.02,62.16 C36.1465619,63.2277323 36.5123023,64.2531728 37.09,65.16 C37.7942148,66.256763 38.7509079,67.168879 39.88,67.82 C41.0530525,68.4950614 42.386731,68.840574 43.74,68.82 C45.3259853,68.8311806 46.8705492,68.3139804 48.13,67.35 C48.6537884,66.9562402 49.1302866,66.5032314 49.55,66 C49.903021,65.6477953 50.1252703,65.1856579 50.18,64.69 C50.2040567,64.3153702 50.0649917,63.9486302 49.7985863,63.6841413 C49.5321809,63.4196525 49.1644463,63.2832391 48.79,63.31 C48.3337107,63.3199515 47.9067729,63.5371009 47.63,63.9 C46.7236684,65.1745391 45.2731835,65.9515845 43.71,66 C42.423539,66.0145236 41.1900367,65.4884712 40.31,64.55 C39.6142663,63.8938971 39.1243711,63.0496096 38.9,62.12 L45,62.12 C45.5230807,62.1961519 46.0386361,61.9403437 46.2943998,61.4777451 C46.5501635,61.0151465 46.4926495,60.4424971 46.15,60.04 C46.5678586,59.8344039 46.8290322,59.4056114 46.82,58.94 C46.8193411,58.5765543 46.6642082,58.2305242 46.3933031,57.9882359 C46.122398,57.7459476 45.7612657,57.6302475 45.4,57.67 L39,57.67 C39.1021342,57.1596484 39.2879753,56.6697035 39.55,56.22 C39.9513047,55.574553 40.4995564,55.0331545 41.15,54.64 C41.7840152,54.2718682 42.5070107,54.0850655 43.24,54.1 C44.1611232,54.0903634 45.0637466,54.3587109 45.83,54.87 C46.4003902,55.1537401 46.8014828,55.6922441 46.91,56.32 C46.8970407,56.8510127 47.1815278,57.3448591 47.6473861,57.6000422 C48.1132444,57.8552253 48.6825714,57.8290725 49.1230728,57.5322545 C49.5635741,57.2354364 49.8015876,56.7175883 49.74,56.19 L49.74,53.19 C49.7951771,52.7843898 49.6713597,52.3748221 49.4007181,52.067711 C49.1300764,51.7605999 48.7393289,51.5862642 48.33,51.59 C47.8157793,51.5739816 47.337789,51.8537809 47.1,52.31 C45.9298127,51.5944862 44.5815064,51.2236153 43.21,51.24 Z M96.44,36.87 L100,57.45 L96.44,58.07 L96.44,36.87 Z M93.69,21 L95.19,29.68 L43.54,29.68 L93.69,21 Z" id="Shape" fill="#000000"></path>
    </g>
</svg>