<?xml version="1.0" encoding="UTF-8"?>
<svg width="100px" height="100px" viewBox="0 0 100 100" version="1.1" xmlns="http://www.w3.org/2000/svg" xmlns:xlink="http://www.w3.org/1999/xlink">
    <!-- Generator: Sketch 57.1 (83088) - https://sketch.com -->
    <title>regular/chart-bar-regular</title>
    <desc>Created with Sketch.</desc>
    <g id="regular/chart-bar" stroke="none" stroke-width="1" fill="none" fill-rule="evenodd">
        <path d="M97.62,80.92 L87.48,80.92 L87.48,34.7 C87.48,32.8608918 85.9891083,31.37 84.15,31.37 L72.15,31.37 C70.3092672,31.3699917 68.8155112,32.8592754 68.81,34.7 L68.81,80.92 L59.32,80.92 L59.32,60.29 C59.3145449,58.4570529 57.8329224,56.9709677 56,56.96 L44,56.96 C42.1631712,56.9654913 40.6754913,58.4531712 40.67,60.29 L40.67,80.92 L31.16,80.92 L31.16,50.24 C31.1544888,48.3992754 29.6607328,46.9099917 27.82,46.91 L15.82,46.91 C13.9808917,46.91 12.49,48.4008918 12.49,50.24 L12.49,80.92 L4.75999995,80.92 L4.75999995,15.92 C4.77104563,14.6055623 3.71443764,13.5310457 2.39999995,13.5199142 C1.08556226,13.5089543 0.0110456645,14.5655623 -4.9999997e-08,15.88 L-4.9999997e-08,85.68 L97.62,85.68 C98.9344378,85.68 100,84.6144377 100,83.3 C100,81.9855623 98.9344378,80.92 97.62,80.92 L97.62,80.92 Z M73.62,36.13 L82.73,36.13 L82.73,80.92 L73.61,80.92 L73.62,36.13 Z M45.44,61.72 L54.56,61.72 L54.56,80.92 L45.44,80.92 L45.44,61.72 Z M17.28,51.72 L26.39,51.72 L26.39,80.92 L17.28,80.92 L17.28,51.72 Z" id="chart-bar" fill="#000000"></path>
    </g>
</svg>