<svg width="100" height="100" viewBox="0 0 100 100" fill="none" xmlns="http://www.w3.org/2000/svg">
<path d="M97.0471 71.9765H87.6353V26.8824C87.6288 24.7363 85.8872 23 83.7412 23H71.9059C69.7617 23 68.0235 24.7382 68.0235 26.8824V71.9765H59.7882V52.1765C59.7882 50.0323 58.05 48.2941 55.9059 48.2941H44.0706C41.9264 48.2941 40.1882 50.0323 40.1882 52.1765V71.9765H31.9529V42.2471C31.9529 41.2174 31.5439 40.2299 30.8158 39.5018C30.0877 38.7737 29.1003 38.3647 28.0706 38.3647H16.2353C14.0911 38.3647 12.3529 40.1029 12.3529 42.2471V71.9765H2.94118C1.31681 71.9765 0 73.2933 0 74.9176C0 76.542 1.31681 77.8588 2.94118 77.8588H97.0588C98.6832 77.8588 100 76.542 100 74.9176C100 73.2933 98.6832 71.9765 97.0588 71.9765H97.0471Z" fill="black"/>
</svg>
