<?xml version="1.0" encoding="UTF-8"?>
<svg width="100px" height="100px" viewBox="0 0 100 100" version="1.1" xmlns="http://www.w3.org/2000/svg" xmlns:xlink="http://www.w3.org/1999/xlink">
    <!-- Generator: Sketch 57.1 (83088) - https://sketch.com -->
    <title>solid/chart-bar-solid</title>
    <desc>Created with Sketch.</desc>
    <g id="solid/chart-bar" stroke="none" stroke-width="1" fill="none" fill-rule="evenodd">
        <path d="M94.5588236,77.3137255 L85.0784314,77.3137255 L85.0784314,36.2843137 C85.0784314,35.4574623 84.749966,34.6644766 84.1652937,34.0798043 C83.5806215,33.4951321 82.7876358,33.1666666 81.9607843,33.1666666 L70.754902,33.1666666 C69.036903,33.1720692 67.6470503,34.5663062 67.6470588,36.2843137 L67.6470588,77.3137255 L58.7254902,77.3137255 L58.7254902,60.2352941 C58.7254943,59.4067413 58.3956834,58.6122662 57.808889,58.0273113 C57.2220947,57.4423564 56.426588,57.1150416 55.5980392,57.1176471 L44.4019608,57.1176471 C43.573412,57.1150416 42.7779053,57.4423564 42.191111,58.0273113 C41.6043166,58.6122662 41.2745057,59.4067413 41.2745098,60.2352941 L41.2745098,77.3137255 L32.3529412,77.3137255 L32.3529412,50.8431373 C32.3529412,49.1213083 30.957123,47.7254902 29.2352941,47.7254902 L18.0392157,47.7254902 C16.319621,47.7308724 14.9269508,49.1235426 14.9215686,50.8431373 L14.9215686,77.3137255 L9.89215682,77.3137255 L9.89215682,18.6764706 C9.96918897,17.0346731 9.13715219,15.4835243 7.72676645,14.6395784 C6.31638071,13.7956324 4.55616823,13.7956324 3.14578248,14.6395784 C1.73539674,15.4835243 0.903359955,17.0346731 0.980392108,18.6764706 L0.980392108,86.2254902 L94.5588236,86.2254902 C96.200621,86.3025224 97.7517698,85.4704856 98.5957158,84.0600999 C99.4396617,82.6497141 99.4396617,80.8895016 98.5957158,79.4791159 C97.7517698,78.0687301 96.200621,77.2366934 94.5588236,77.3137255 Z" id="chart-bar" fill="#000000"></path>
    </g>
</svg>