<svg width="100" height="100" viewBox="0 0 100 100" fill="none" xmlns="http://www.w3.org/2000/svg">
<path d="M38.1774 68.0313C40.0403 69.8919 42.5653 70.9371 45.1982 70.9375L45.8336 70.9167C48.6621 70.7324 51.2772 69.349 53.0211 67.1146L72.1982 42.5417C75.0287 38.9116 74.3804 33.6743 70.7503 30.8438C67.1202 28.0133 61.8828 28.6616 59.0524 32.2917L44.5628 50.8542L40.2711 46.5521C37.0178 43.296 31.7409 43.2936 28.4847 46.5469C25.2285 49.8002 25.2262 55.0772 28.4795 58.3334L38.1774 68.0313Z" fill="black"/>
<path fill-rule="evenodd" clip-rule="evenodd" d="M0 50C0 77.6142 22.3858 100 50 100C77.6023 99.9713 99.9713 77.6023 100 50C100 22.3858 77.6142 0 50 0C22.3858 0 0 22.3858 0 50ZM16.6667 50C16.6667 31.5905 31.5905 16.6667 50 16.6667C58.8405 16.6667 67.319 20.1786 73.5702 26.4298C79.8214 32.681 83.3333 41.1595 83.3333 50C83.3333 68.4095 68.4095 83.3333 50 83.3333C31.5905 83.3333 16.6667 68.4095 16.6667 50Z" fill="black"/>
</svg>
