<svg width="100" height="100" viewBox="0 0 100 100" fill="none" xmlns="http://www.w3.org/2000/svg">
<g clip-path="url(#clip0)">
<path d="M50 75.0588C48.0159 75.0675 46.1104 74.2842 44.7062 72.8825L0.862474 29.0269C-0.287491 27.877 -0.287491 26.0125 0.862474 24.8625C2.01244 23.7126 3.8769 23.7126 5.02687 24.8625L48.8824 68.7063C49.1767 69.0067 49.5795 69.1759 50 69.1759C50.4205 69.1759 50.8232 69.0067 51.1175 68.7063L94.9731 24.8625C95.717 24.1186 96.8012 23.8281 97.8174 24.1004C98.8336 24.3727 99.6273 25.1664 99.8996 26.1826C100.172 27.1988 99.8814 28.283 99.1375 29.0269L55.2937 72.8825C53.8895 74.2842 51.984 75.0675 50 75.0588Z" fill="black"/>
</g>
<defs>
<clipPath id="clip0">
<rect width="100" height="100" fill="white"/>
</clipPath>
</defs>
</svg>
