<svg width="100" height="100" viewBox="0 0 100 100" fill="none" xmlns="http://www.w3.org/2000/svg">
<g clip-path="url(#clip0)">
<path d="M27.0588 100C26.2779 100.003 25.5283 99.6936 24.9764 99.1412C23.8372 97.9867 23.8372 96.131 24.9764 94.9765L68.8235 51.1177C69.1239 50.8234 69.2931 50.4206 69.2931 50.0001C69.2931 49.5795 69.1239 49.1767 68.8235 48.8824L24.9764 5.02358C23.8264 3.87353 23.8264 2.00893 24.9764 0.858877C26.1265 -0.291175 27.9911 -0.291175 29.1411 0.858877L73 44.7059C75.9199 47.6314 75.9199 52.3687 73 55.2942L29.1411 99.1412C28.5892 99.6936 27.8396 100.003 27.0588 100Z" fill="black"/>
</g>
<defs>
<clipPath id="clip0">
<rect width="100" height="100" fill="white"/>
</clipPath>
</defs>
</svg>
