<?xml version="1.0" encoding="UTF-8"?>
<svg width="100px" height="100px" viewBox="0 0 100 100" version="1.1" xmlns="http://www.w3.org/2000/svg" xmlns:xlink="http://www.w3.org/1999/xlink">
    <!-- Generator: Sketch 57.1 (83088) - https://sketch.com -->
    <title>regular/chevron-left-regular</title>
    <desc>Created with Sketch.</desc>
    <g id="regular/chevron-left" stroke="none" stroke-width="1" fill="none" fill-rule="evenodd">
        <path d="M24.752444,49.5049505 C24.7470157,47.6841103 25.4583365,45.9342612 26.7326732,44.6336634 L70.7128713,0.693069258 C71.6454118,-0.135685872 73.0622991,-0.0939766041 73.9444745,0.788198773 C74.8266498,1.67037415 74.8683591,3.08726147 74.039604,4.01980193 L30.0990099,47.970297 C29.2557749,48.819652 29.2557749,50.190249 30.0990099,51.039604 L74.039604,94.9900991 C74.6936427,95.5713477 74.9717624,96.4671395 74.7619212,97.3166001 C74.5520801,98.1660607 73.8888329,98.8293078 73.0393723,99.039149 C72.1899118,99.2489901 71.29412,98.9708704 70.7128713,98.3168317 L26.7326732,54.3762376 C25.4583365,53.0756398 24.7470157,51.3257907 24.752444,49.5049505 Z" id="chevron-left" fill="#000000"></path>
    </g>
</svg>