<?xml version="1.0" encoding="UTF-8"?>
<svg width="100px" height="100px" viewBox="0 0 100 100" version="1.1" xmlns="http://www.w3.org/2000/svg" xmlns:xlink="http://www.w3.org/1999/xlink">
    <!-- Generator: Sketch 57.1 (83088) - https://sketch.com -->
    <title>regular/chevron-down-regular</title>
    <desc>Created with Sketch.</desc>
    <g id="regular/chevron-down" stroke="none" stroke-width="1" fill="none" fill-rule="evenodd">
        <path d="M49.5049505,75.227754 C47.6841103,75.2331823 45.9342612,74.5218616 44.6336634,73.2475248 L0.693069258,29.2673267 C-0.135685872,28.3347862 -0.0939766041,26.9178989 0.788198773,26.0357236 C1.67037415,25.1535482 3.08726147,25.1118389 4.01980193,25.940594 L47.970297,69.8811881 C48.3757436,70.2911474 48.9283627,70.5218432 49.5049505,70.5218432 C50.0815383,70.5218432 50.6341574,70.2911474 51.039604,69.8811881 L94.9900991,25.940594 C95.5713477,25.2865554 96.4671395,25.0084356 97.3166001,25.2182768 C98.1660607,25.428118 98.8293078,26.0913651 99.039149,26.9408257 C99.2489901,27.7902863 98.9708704,28.686078 98.3168317,29.2673267 L54.3762376,73.2178218 C53.0804448,74.5030356 51.3300115,75.2252673 49.5049505,75.227754 Z" id="chevron-down" fill="#000000"></path>
    </g>
</svg>