<svg width="100" height="100" viewBox="0 0 100 100" fill="none" xmlns="http://www.w3.org/2000/svg">
<path fill-rule="evenodd" clip-rule="evenodd" d="M26.9561 59.5982L8.14512 22.6022C3.00412 30.4652 0.00012207 39.9012 0.00012207 50.0012C0.00012207 75.0022 18.3071 95.7072 42.2381 99.3772L55.0811 74.2152C43.4681 76.3932 32.2581 70.0222 26.9561 59.5982ZM96.6351 32.0172L68.4691 33.4692C76.1101 42.4012 76.2301 55.2842 69.8001 65.1632L47.1981 99.9212C56.5731 100.426 66.2301 98.3692 74.9801 93.2882C96.6351 80.7882 105.404 54.5782 96.6351 32.0172ZM33.1451 50.0012C33.1451 59.3162 40.6861 66.8572 50.0011 66.8572C59.3151 66.8572 66.8551 59.3162 66.8551 50.0012C66.8551 40.6872 59.3151 33.1472 50.0011 33.1472C40.6861 33.1472 33.1451 40.6662 33.1451 50.0012ZM26.5131 42.2402L11.1091 18.5702C20.7061 6.63419 35.1021 0.0611907 49.8191 0.00019066C58.3481 -0.0588093 67.0581 2.11819 74.9801 6.69519C83.7311 11.7752 90.3851 19.0742 94.6181 27.4612L53.2271 25.2842C41.5131 24.5982 30.3631 31.1912 26.5131 42.2402Z" fill="black"/>
</svg>
