<?xml version="1.0" encoding="UTF-8"?>
<svg width="100px" height="100px" viewBox="0 0 100 100" version="1.1" xmlns="http://www.w3.org/2000/svg" xmlns:xlink="http://www.w3.org/1999/xlink">
    <!-- Generator: Sketch 57.1 (83088) - https://sketch.com -->
    <title>brand/chrome-brand</title>
    <desc>Created with Sketch.</desc>
    <g id="brand/chrome" stroke="none" stroke-width="1" fill="none" fill-rule="evenodd">
        <path d="M26.9561,59.5984 L8.1451,22.6024 C3.0041,30.4654 0.0001,39.9014 0.0001,50.0014 C0.0001,75.0024 18.3071,95.7074 42.2381,99.3774 L55.0811,74.2154 C43.4681,76.3934 32.2581,70.0224 26.9561,59.5984 M96.6351,32.0174 L68.4691,33.4694 C76.1101,42.4014 76.2301,55.2844 69.8001,65.1634 L47.1981,99.9214 C56.5731,100.4264 66.2301,98.3694 74.9801,93.2884 C96.6351,80.7884 105.4041,54.5784 96.6351,32.0174 M33.1451,50.0014 C33.1451,59.3164 40.6861,66.8574 50.0011,66.8574 C59.3151,66.8574 66.8551,59.3164 66.8551,50.0014 C66.8551,40.6874 59.3151,33.1474 50.0011,33.1474 C40.6861,33.1474 33.1451,40.6664 33.1451,50.0014 M26.5131,42.2404 L11.1091,18.5704 C20.7061,6.6344 35.1021,0.0614 49.8191,0.0004 C58.3481,-0.0586 67.0581,2.1184 74.9801,6.6954 C83.7311,11.7754 90.3851,19.0744 94.6181,27.4614 L53.2271,25.2844 C41.5131,24.5984 30.3631,31.1914 26.5131,42.2404" id="Fill-1" fill="#000000"></path>
    </g>
</svg>