<?xml version="1.0" encoding="UTF-8"?>
<svg width="100px" height="100px" viewBox="0 0 100 100" version="1.1" xmlns="http://www.w3.org/2000/svg" xmlns:xlink="http://www.w3.org/1999/xlink">
    <!-- Generator: Sketch 57.1 (83088) - https://sketch.com -->
    <title>regular/circle-regular</title>
    <desc>Created with Sketch.</desc>
    <g id="regular/circle" stroke="none" stroke-width="1" fill="none" fill-rule="evenodd">
        <path d="M50,100 C22.3857625,100 -4.9999997e-08,77.6142375 -4.9999997e-08,50 C-4.9999997e-08,22.3857625 22.3857625,-4.9999997e-08 50,-4.9999997e-08 C77.6142375,-4.9999997e-08 100,22.3857625 100,50 C99.9669389,77.6005315 77.6005315,99.9669389 50,100 Z M50,4.75999995 C25.0146379,4.75999995 4.75999995,25.0146379 4.75999995,50 C4.75999995,74.9853621 25.0146379,95.24 50,95.24 C74.9853621,95.24 95.24,74.9853621 95.24,50 C95.2069468,25.0283418 74.9716582,4.79305315 50,4.75999995 Z" id="circle" fill="#000000"></path>
    </g>
</svg>