<svg width="100" height="100" viewBox="0 0 100 100" fill="none" xmlns="http://www.w3.org/2000/svg">
<g clip-path="url(#clip0)">
<path d="M31.9177 46.2237H67.2119C68.8362 46.2237 70.153 44.9069 70.153 43.2825C70.153 41.6581 68.8362 40.3413 67.2119 40.3413H31.9177C30.2934 40.3413 28.9766 41.6581 28.9766 43.2825C28.9766 44.9069 30.2934 46.2237 31.9177 46.2237Z" fill="black"/>
<path d="M67.2119 59.2237H31.9177C30.2934 59.2237 28.9766 57.9069 28.9766 56.2825C28.9766 54.6581 30.2934 53.3413 31.9177 53.3413H67.2119C68.8362 53.3413 70.153 54.6581 70.153 56.2825C70.153 57.9069 68.8362 59.2237 67.2119 59.2237Z" fill="black"/>
<path d="M31.9177 72.2119H67.2119C68.8362 72.2119 70.153 70.8951 70.153 69.2708C70.153 67.6464 68.8362 66.3296 67.2119 66.3296H31.9177C30.2934 66.3296 28.9766 67.6464 28.9766 69.2708C28.9766 70.8951 30.2934 72.2119 31.9177 72.2119Z" fill="black"/>
<path fill-rule="evenodd" clip-rule="evenodd" d="M57.9292 7.15271H78.5528C81.4766 7.15271 83.8469 9.52296 83.8469 12.4468V94.7056C83.8404 97.6268 81.4739 99.9933 78.5528 99.9998H20.5881C17.6669 99.9933 15.3004 97.6268 15.2939 94.7056V12.4468C15.3069 9.53216 17.6734 7.17621 20.5881 7.17624H41.1763V4.8233C41.1794 3.5368 41.695 2.30457 42.6091 1.39931C43.5232 0.494038 44.7604 -0.00962784 46.0469 -0.000362681H53.1057C55.7579 0.00614875 57.9099 2.14768 57.9292 4.79977V7.15271ZM52.0116 5.88212H47.0587V7.15271H52.0116V5.88212ZM21.1763 18.4351V94.1174H77.9645V18.4351H21.1763Z" fill="black"/>
</g>
<defs>
<clipPath id="clip0">
<rect width="100" height="100" fill="white"/>
</clipPath>
</defs>
</svg>
