<?xml version="1.0" encoding="UTF-8"?>
<svg width="100px" height="100px" viewBox="0 0 100 100" version="1.1" xmlns="http://www.w3.org/2000/svg" xmlns:xlink="http://www.w3.org/1999/xlink">
    <!-- Generator: Sketch 57.1 (83088) - https://sketch.com -->
    <title>bold/clipboard-check-bold</title>
    <desc>Created with Sketch.</desc>
    <g id="bold/clipboard-check" stroke="none" stroke-width="1" fill="none" fill-rule="evenodd">
        <path d="M53.23,-6.26125987e-05 C56.7418776,0.00548722497 59.5889953,2.84813528 59.6,6.35999996 L59.6,6.89999996 L78.26,6.89999996 C81.774148,6.90551668 84.62,9.75584765 84.62,13.27 L84.62,93.64 C84.6144938,97.1502477 81.7702477,99.9944938 78.26,100 L21.36,100 C17.8497523,99.9944938 15.0055062,97.1502477 15,93.64 L15,13.27 C15,9.75584765 17.845852,6.90551668 21.36,6.89999996 L40,6.89999996 L40,6.35999996 C40.0026465,4.66883351 40.6776856,3.04813224 41.8763327,1.85511255 C43.0749799,0.662092856 44.6988398,-0.00531191211 46.39,-6.26125987e-05 L53.23,-6.26125987e-05 Z M75.53,21.22 L24.09,21.22 L24.09,90.9 L75.53,90.9 L75.53,21.22 Z M64.32,37.57 C66.1138162,35.9079439 68.9005678,35.961049 70.6297594,37.6902406 C72.358951,39.4194322 72.4120561,42.2061838 70.75,44 L45.92,68.86 C44.7831309,69.9994912 43.2396309,70.6398715 41.63,70.6398715 C40.0203691,70.6398715 38.4768691,69.9994912 37.34,68.86 L28.87,60.43 C27.6472533,59.2970671 27.1419116,57.5861964 27.5528569,55.9707181 C27.9638023,54.3552397 29.2252397,53.0938023 30.840718,52.682857 C32.4561964,52.2719116 34.167067,52.7772534 35.3,54 L41.63,60.29 L64.32,37.57 Z" id="Shape" fill="#000000"></path>
    </g>
</svg>