<?xml version="1.0" encoding="UTF-8"?>
<svg width="100px" height="100px" viewBox="0 0 100 100" version="1.1" xmlns="http://www.w3.org/2000/svg" xmlns:xlink="http://www.w3.org/1999/xlink">
    <!-- Generator: Sketch 57.1 (83088) - https://sketch.com -->
    <title>regular/clipboard-list-regular</title>
    <desc>Created with Sketch.</desc>
    <g id="regular/clipboard-list" stroke="none" stroke-width="1" fill="none" fill-rule="evenodd">
        <path d="M53.17,-0.000207090863 C54.3138888,-0.00798389303 55.4138127,0.440150505 56.2264286,1.24525962 C56.9810006,1.99286095 57.4300853,2.99103791 57.492498,4.04570164 L57.5,4.28999995 L57.5,7.22999996 L79.39,7.22999996 C81.6874021,7.23533657 83.5613198,9.04184055 83.6745902,11.3123491 L83.68,11.52 L83.68,95.71 C83.68,98.0096163 81.8706224,99.8866297 79.5978544,99.995053 L79.39,100 L19.79,100 C17.4903837,100 15.6133703,98.1906224 15.504947,95.9178544 L15.5,95.71 L15.5,11.52 C15.5053366,9.22259785 17.3118406,7.34868018 19.5823491,7.23540979 L19.79,7.22999996 L41.72,7.22999996 L41.72,4.28999995 C41.72,1.99038372 43.5293777,0.113271476 45.8021456,0.00484239645 L46.01,-0.000207090863 L53.17,-0.000207090863 Z M78.92,17.47 L20.26,17.47 L20.26,95.24 L78.92,95.24 L78.92,17.47 Z M65.92,63.24 C67.2344377,63.24 68.3,64.3055623 68.3,65.62 C68.3,66.9344377 67.2344377,68 65.92,68 L33.26,68 C31.9455623,68 30.88,66.9344377 30.88,65.62 C30.88,64.3055623 31.9455623,63.24 33.26,63.24 L65.92,63.24 Z M33.26,51.24 L65.92,51.24 C67.2344377,51.24 68.3,52.3055623 68.3,53.62 C68.3,54.8796695 67.3213846,55.9107711 66.0829494,55.9945093 L65.92,56 L33.26,56 C31.9455623,56 30.88,54.9344377 30.88,53.62 C30.88,52.3603305 31.8586154,51.3292289 33.0970506,51.2454907 L33.26,51.24 L65.92,51.24 L33.26,51.24 Z M65.92,39.24 C67.2344377,39.24 68.3,40.3055623 68.3,41.62 C68.3,42.8796695 67.3213846,43.9107711 66.0829494,43.9945093 L65.92,44 L33.26,44 C31.9455623,44 30.88,42.9344377 30.88,41.62 C30.88,40.3603305 31.8586154,39.3292289 33.0970506,39.2454907 L33.26,39.24 L65.92,39.24 Z M78.92,12 L20.26,12 L20.26,12.71 L78.92,12.71 L78.92,12 Z M52.71,4.75999995 L46.5,4.75999995 L46.5,7.22999996 L52.71,7.22999996 L52.71,4.75999995 Z" id="Shape" fill="#000000"></path>
    </g>
</svg>