<?xml version="1.0" encoding="UTF-8"?>
<svg width="100px" height="100px" viewBox="0 0 100 100" version="1.1" xmlns="http://www.w3.org/2000/svg" xmlns:xlink="http://www.w3.org/1999/xlink">
    <!-- Generator: Sketch 57.1 (83088) - https://sketch.com -->
    <title>solid/clock-full-solid</title>
    <desc>Created with Sketch.</desc>
    <g id="solid/clock-full" stroke="none" stroke-width="1" fill="none" fill-rule="evenodd">
        <path d="M50,-4.9999997e-08 C22.3857625,-4.9999997e-08 -4.9999997e-08,22.3857625 -4.9999997e-08,50 C-4.9999997e-08,77.6142375 22.3857625,100 50,100 C77.6142375,100 100,77.6142375 100,50 C99.9669389,22.3994685 77.6005315,0.0330611134 50,-4.9999997e-08 Z M76.49,39.28 L50.81,53.87 L30.81,46.34 C29.193754,45.7594391 28.0155483,44.353278 27.7268738,42.6603608 C27.4381993,40.9674435 28.0838199,39.2502854 29.4163323,38.1669053 C30.7488448,37.0835252 32.5616206,36.8019194 34.16,37.43 L50.03,43.43 L71.78,31 C73.2590796,30.1586394 75.0746659,30.1702698 76.5428453,31.03051 C78.0110247,31.8907503 78.9087456,33.4689094 78.8979435,35.1705101 C78.8869451,36.8721109 77.9690796,38.4386396 76.49,39.28 Z" id="clock-full" fill="#000000"></path>
    </g>
</svg>