<?xml version="1.0" encoding="UTF-8"?>
<svg width="100px" height="100px" viewBox="0 0 100 100" version="1.1" xmlns="http://www.w3.org/2000/svg" xmlns:xlink="http://www.w3.org/1999/xlink">
    <!-- Generator: Sketch 57.1 (83088) - https://sketch.com -->
    <title>regular/cloud-regular</title>
    <desc>Created with Sketch.</desc>
    <g id="regular/cloud" stroke="none" stroke-width="1" fill="none" fill-rule="evenodd">
        <path d="M88.4455446,80.2079856 L88.4455446,80.2079856 L12.6633663,79.9405941 C9.75787358,79.9227032 7.02972632,78.5402952 5.29702966,76.2079208 C-0.724740398,68.0501909 -1.64592947,57.1988409 2.91453236,48.1427679 C7.47499419,39.0866948 16.7416663,33.365753 26.8811881,33.3465346 L26.8811881,33.3465346 C27.4135767,33.3622597 27.913104,33.0897903 28.1881188,32.6336633 C33.0267239,24.3987427 41.8547411,19.3315737 51.4059406,19.3067178 C62.4681441,19.2629569 72.4147253,26.0370235 76.4257426,36.3465346 C76.7588764,37.1754129 77.4761153,37.7891328 78.3465347,37.990099 L78.3465347,37.990099 C86.0501332,39.825924 92.5534435,44.9629001 96.1232826,52.0319829 C99.6931218,59.1010657 99.966766,67.3839811 96.8712872,74.6732674 C95.4283742,78.0422609 92.1105038,80.2216846 88.4455446,80.2079856 Z M26.9009901,38.0594059 C18.5359146,38.0684211 10.8875492,42.7833405 7.12148556,50.2527001 C3.35542187,57.7220598 4.11243657,66.6749859 9.07920788,73.4059406 C9.9258006,74.5425612 11.2560491,75.2168469 12.6732673,75.2277228 L88.4554456,75.4853639 L88.4554456,75.4853639 C90.2302416,75.5026021 91.8437944,74.45808 92.5544555,72.8316832 C95.1035656,66.8124628 94.8700873,59.9756932 91.9162776,54.1443997 C88.9624679,48.3131062 83.588639,44.080153 77.2277228,42.5742574 L77.2277228,42.5742574 C74.8797947,42.0151047 72.9470604,40.3553138 72.039604,38.1188119 C68.7483484,29.5970772 60.5411133,23.9890624 51.4059406,24.0196762 C43.5269793,24.0422563 36.2459152,28.2249152 32.2574257,35.019802 C31.1361853,36.9051698 29.1044706,38.0602372 26.9108911,38.0594059 L26.9009901,38.0594059 Z" id="cloud" fill="#000000"></path>
    </g>
</svg>