<?xml version="1.0" encoding="UTF-8"?>
<svg width="100px" height="100px" viewBox="0 0 100 100" version="1.1" xmlns="http://www.w3.org/2000/svg" xmlns:xlink="http://www.w3.org/1999/xlink">
    <!-- Generator: Sketch 57.1 (83088) - https://sketch.com -->
    <title>bold/cloud-download-bold</title>
    <desc>Created with Sketch.</desc>
    <g id="bold/cloud-download" stroke="none" stroke-width="1" fill="none" fill-rule="evenodd">
        <path d="M54.2526992,18.6011611 C64.9224341,19.5192841 74.1505102,26.4038677 78.07,36.37 C78.1073203,36.4554639 78.1775862,36.5208658 78.2631933,36.5526638 L78.33,36.57 L78.7770441,36.6811446 C86.6514837,38.7071624 93.2781514,44.0352264 96.944502,51.3093114 C100.680029,58.7206432 100.963682,67.4005938 97.72,75.04 C96.0100921,79.0348515 92.1281783,81.652582 87.8024905,81.7568687 L87.5,81.7600522 L14.44,81.5 C10.9210072,81.4811399 7.61626681,79.8065405 5.51999996,76.98 C-0.757108501,68.4855398 -1.75915324,57.194825 2.92387077,47.7276591 C7.60689478,38.2604931 17.1891961,32.2054261 27.75,32.04 C33.3144234,22.8899517 43.5829643,17.683038 54.2526992,18.6011611 Z M35.33,37.07 C33.8881733,39.5001811 31.3121529,41.0226922 28.5015517,41.1245516 L28.21,41.13 L27.8703168,41.1329567 C17.4750859,41.3140567 9.10091754,49.7915879 9.08976682,60.23 C9.07556311,64.3230462 10.3916564,68.3099315 12.84,71.59 C13.1859907,72.0759661 13.7288905,72.379766 14.3182321,72.4243311 L14.48,72.43 L87.54,72.6801669 L87.6983009,72.6759325 C88.4317757,72.6272828 89.0851838,72.1782587 89.39,71.5 C91.5965409,66.3194941 91.4060451,60.4295354 88.8693651,55.402437 C86.3326851,50.3753386 81.708051,46.7228514 76.23,45.42 C73.2220566,44.7080012 70.7509027,42.5728047 69.61,39.7 C66.9322493,32.8854614 60.5945824,28.201394 53.2942683,27.6413057 C45.9939542,27.0812174 39.0159313,30.7436902 35.33,37.07 Z M38,60.23 L62,60.23 C64.4273147,60.3438882 66.3367513,62.345015 66.3367513,64.775 C66.3367513,67.1335149 64.5379828,69.0880275 62.2127955,69.3050905 L62,69.32 L38,69.32 C35.5726853,69.2061119 33.6632487,67.2049851 33.6632487,64.775 C33.6632487,62.4164851 35.4620172,60.4619725 37.7872045,60.2449095 L38,60.23 L62,60.23 L38,60.23 Z M50,30.95 C52.5128956,30.95 54.55,32.9871044 54.55,35.5 L54.55,44.5 C56.4185527,43.1011679 59.0441129,43.3511414 60.6151285,45.0774468 C62.1861441,46.8037523 62.1882529,49.4411844 60.62,51.17 L53.7,58.09 C52.8902341,58.898495 51.8351231,59.4154994 50.7,59.56 C50.4691387,59.6035927 50.234922,59.6270144 50,59.63 C49.7788732,59.6253579 49.5583389,59.6053093 49.34,59.57 C48.183007,59.4333839 47.1054073,58.9121919 46.28,58.09 L39.36,51.2 C37.6153909,49.4960819 37.5327451,46.7168513 39.1730223,44.912277 C40.8132995,43.1077027 43.5877806,42.9254725 45.45,44.5 L45.45,35.5 C45.45,32.9871044 47.4871044,30.95 50,30.95 Z" id="Shape" fill="#000000"></path>
    </g>
</svg>