<?xml version="1.0" encoding="UTF-8"?>
<svg width="100px" height="100px" viewBox="0 0 100 100" version="1.1" xmlns="http://www.w3.org/2000/svg" xmlns:xlink="http://www.w3.org/1999/xlink">
    <!-- Generator: Sketch 57.1 (83088) - https://sketch.com -->
    <title>solid/cloud-solid</title>
    <desc>Created with Sketch.</desc>
    <g id="solid/cloud" stroke="none" stroke-width="1" fill="none" fill-rule="evenodd">
        <path d="M79.13,37.87 L79.13,37.87 C78.2508764,37.6670241 77.5264652,37.0471671 77.19,36.21 C73.1388725,25.7973937 63.0928256,18.9555865 51.92,18.999785 C42.2732885,19.0248895 33.3569912,24.1427301 28.47,32.46 C28.192235,32.9206882 27.6877125,33.1958823 27.15,33.18 L27.15,33.18 C16.9018818,33.1843441 7.52875939,38.9567207 2.91271915,48.1063718 C-1.70332109,57.256023 -0.776236623,68.2249004 5.30999996,76.47 C7.06002358,78.8256982 9.81545232,80.2219302 12.75,80.24 L89.29,80.5101087 L89.29,80.5101087 C92.9952377,80.5279265 96.3512397,78.3260426 97.81,74.92 C100.918366,67.5632818 100.632588,59.2115658 97.0286193,52.0845293 C93.4246503,44.9574928 86.8675384,39.7770379 79.1,37.92 L79.13,37.87 Z" id="cloud" fill="#000000"></path>
    </g>
</svg>