<?xml version="1.0" encoding="UTF-8"?>
<svg width="100px" height="100px" viewBox="0 0 100 100" version="1.1" xmlns="http://www.w3.org/2000/svg" xmlns:xlink="http://www.w3.org/1999/xlink">
    <!-- Generator: Sketch 57.1 (83088) - https://sketch.com -->
    <title>brand/codepen-circle-brand</title>
    <desc>Created with Sketch.</desc>
    <g id="brand/codepen-circle" stroke="none" stroke-width="1" fill="none" fill-rule="evenodd">
        <path d="M50.0005,91.7889 C73.0425,91.7889 91.7885,73.0419 91.7885,50.0009 C91.7885,26.9589 73.0425,8.2119 50.0005,8.2119 C26.9585,8.2119 8.2115,26.9589 8.2115,50.0009 C8.2115,73.0419 26.9585,91.7889 50.0005,91.7889 Z M50.0005,-0.0001 C77.6145,-0.0001 100.0005,22.3859 100.0005,50.0009 C100.0005,77.6149 77.6145,99.9999 50.0005,99.9999 C22.3855,99.9999 0.0005,77.6149 0.0005,50.0009 C0.0005,22.3859 22.3855,-0.0001 50.0005,-0.0001 Z M75.6016,54.4471 L75.6016,45.5541 L68.9556,50.0011 L75.6016,54.4471 Z M52.6576,73.2941 L73.4746,59.4171 L64.1756,53.1981 L52.6576,60.9011 L52.6576,73.2941 Z M50.0006,56.2861 L59.3976,50.0011 L50.0006,43.7151 L40.6026,50.0011 L50.0006,56.2861 Z M47.3426,73.2941 L47.3426,60.9011 L35.8246,53.1981 L26.5256,59.4171 L47.3426,73.2941 Z M24.3976,45.5541 L24.3976,54.4471 L31.0456,50.0011 L24.3976,45.5541 Z M47.3426,26.7071 L26.5256,40.5841 L35.8246,46.8041 L47.3426,39.0991 L47.3426,26.7071 Z M52.6576,26.7071 L52.6576,39.0991 L64.1756,46.8041 L73.4746,40.5841 L52.6576,26.7071 Z M80.8926,40.2341 C80.9076,40.3481 80.9156,40.4641 80.9156,40.5811 L80.9156,59.4201 C80.9156,59.5371 80.9076,59.6521 80.8926,59.7681 C80.8866,59.8051 80.8766,59.8441 80.8706,59.8821 C80.8576,59.9571 80.8436,60.0311 80.8246,60.1041 C80.8126,60.1481 80.7966,60.1911 80.7826,60.2331 C80.7616,60.2981 80.7406,60.3631 80.7146,60.4281 C80.6966,60.4721 80.6746,60.5141 80.6556,60.5561 C80.6266,60.6171 80.5976,60.6761 80.5646,60.7341 C80.5396,60.7751 80.5146,60.8151 80.4896,60.8561 C80.4536,60.9111 80.4166,60.9661 80.3766,61.0171 C80.3476,61.0571 80.3166,61.0951 80.2866,61.1331 C80.2436,61.1811 80.1996,61.2301 80.1536,61.2761 C80.1186,61.3111 80.0836,61.3471 80.0476,61.3801 C79.9986,61.4241 79.9486,61.4661 79.8976,61.5071 C79.8576,61.5381 79.8186,61.5681 79.7766,61.5971 C79.7606,61.6071 79.7476,61.6211 79.7326,61.6301 L51.4736,80.4691 C51.0276,80.7671 50.5136,80.9171 50.0006,80.9171 C49.4866,80.9171 48.9726,80.7671 48.5266,80.4691 L20.2676,61.6301 C20.2526,61.6211 20.2386,61.6071 20.2236,61.5971 C20.1816,61.5681 20.1426,61.5381 20.1036,61.5071 C20.0516,61.4661 20.0016,61.4241 19.9536,61.3801 C19.9156,61.3471 19.8816,61.3111 19.8466,61.2761 C19.8006,61.2301 19.7566,61.1811 19.7146,61.1331 C19.6836,61.0951 19.6526,61.0571 19.6226,61.0171 C19.5836,60.9661 19.5466,60.9111 19.5116,60.8561 C19.4846,60.8151 19.4596,60.7751 19.4356,60.7341 C19.4026,60.6761 19.3736,60.6171 19.3456,60.5561 C19.3246,60.5141 19.3036,60.4721 19.2856,60.4281 C19.2596,60.3631 19.2386,60.2981 19.2176,60.2331 C19.2036,60.1911 19.1876,60.1481 19.1756,60.1041 C19.1566,60.0311 19.1436,59.9571 19.1296,59.8821 C19.1226,59.8441 19.1136,59.8051 19.1086,59.7681 C19.0926,59.6521 19.0836,59.5371 19.0836,59.4201 L19.0836,40.5811 C19.0836,40.4641 19.0926,40.3481 19.1086,40.2341 C19.1136,40.1951 19.1226,40.1581 19.1296,40.1191 C19.1436,40.0441 19.1566,39.9691 19.1756,39.8961 C19.1876,39.8521 19.2036,39.8091 19.2176,39.7671 C19.2386,39.7031 19.2596,39.6371 19.2856,39.5741 C19.3036,39.5301 19.3246,39.4861 19.3456,39.4441 C19.3736,39.3841 19.4026,39.3251 19.4356,39.2681 C19.4596,39.2261 19.4846,39.1851 19.5116,39.1441 C19.5466,39.0901 19.5836,39.0361 19.6226,38.9831 C19.6526,38.9451 19.6836,38.9061 19.7146,38.8681 C19.7566,38.8191 19.8006,38.7701 19.8466,38.7251 C19.8816,38.6891 19.9156,38.6531 19.9536,38.6211 C20.0016,38.5771 20.0516,38.5351 20.1036,38.4941 C20.1426,38.4641 20.1816,38.4321 20.2236,38.4031 C20.2386,38.3931 20.2526,38.3811 20.2676,38.3711 L48.5266,19.5311 C49.4186,18.9361 50.5806,18.9361 51.4736,19.5311 L79.7326,38.3711 C79.7476,38.3811 79.7606,38.3931 79.7766,38.4031 C79.8186,38.4321 79.8576,38.4641 79.8976,38.4941 C79.9486,38.5351 79.9986,38.5771 80.0476,38.6211 C80.0836,38.6531 80.1186,38.6891 80.1536,38.7251 C80.1996,38.7701 80.2436,38.8191 80.2866,38.8681 C80.3166,38.9061 80.3476,38.9451 80.3766,38.9831 C80.4166,39.0361 80.4536,39.0901 80.4896,39.1441 C80.5146,39.1851 80.5396,39.2261 80.5646,39.2681 C80.5976,39.3251 80.6266,39.3841 80.6556,39.4441 C80.6746,39.4861 80.6966,39.5301 80.7146,39.5741 C80.7406,39.6371 80.7616,39.7031 80.7826,39.7671 C80.7966,39.8091 80.8126,39.8521 80.8246,39.8961 C80.8436,39.9691 80.8576,40.0441 80.8706,40.1191 C80.8766,40.1581 80.8866,40.1951 80.8926,40.2341 Z" id="Shape" fill="#000000"></path>
    </g>
</svg>