<?xml version="1.0" encoding="UTF-8"?>
<svg width="100px" height="100px" viewBox="0 0 100 100" version="1.1" xmlns="http://www.w3.org/2000/svg" xmlns:xlink="http://www.w3.org/1999/xlink">
    <!-- Generator: Sketch 57.1 (83088) - https://sketch.com -->
    <title>regular/code-branch-regular</title>
    <desc>Created with Sketch.</desc>
    <g id="regular/code-branch" stroke="none" stroke-width="1" fill="none" fill-rule="evenodd">
        <path d="M64.7843137,23.7156862 C59.1261706,23.7123248 54.3697072,27.9626125 53.7390791,33.5855035 C53.1084511,39.2083945 56.8052149,44.406743 62.3235294,45.6568627 C61.4411765,53.1078431 55.6862745,56.2254902 49.0980392,59.7843137 C45.3823529,61.7450981 41.4215686,63.9411765 38.4509804,67.0784314 L38.4509804,22.9607843 C44.0088152,21.7651316 47.7692482,16.5692056 47.1680507,10.9160937 C46.5668531,5.26298167 41.7977353,0.974156949 36.1127451,0.974156949 C30.4277549,0.974156949 25.658637,5.26298167 25.0574395,10.9160937 C24.456242,16.5692056 28.2166749,21.7651316 33.7745098,22.9607843 L33.7745098,77.0490196 C28.2334105,78.2792412 24.5063488,83.4828863 25.1251479,89.1250769 C25.7439469,94.7672674 30.5102524,99.0394148 36.1862745,99.0394148 C41.8622966,99.0394148 46.6286021,94.7672674 47.2474011,89.1250769 C47.8662002,83.4828863 44.1391385,78.2792412 38.5980392,77.0490196 C39.5098039,70.2352941 45.0098039,67.2450981 51.3431373,63.8529412 C58.2941177,60.1078431 66.1078432,55.8921569 67.0294118,45.6764706 C72.6006097,44.5117967 76.3924528,39.3276124 75.8146229,33.6653845 C75.2367931,28.0031566 70.4759284,23.6917755 64.7843137,23.6764706 L64.7843137,23.7156862 Z M29.6666591,12.0980392 C29.6627,9.48797266 31.2319134,7.1327039 33.6421629,6.13112494 C36.0524124,5.12954598 38.8287006,5.67904191 40.6757014,7.52323575 C42.5227022,9.36742958 43.07642,12.1428788 42.078508,14.5546488 C41.080596,16.9664188 38.7277166,18.5392157 36.117647,18.5392157 C32.5609246,18.5338349 29.6774569,15.6547493 29.6666591,12.0980392 Z M42.5588235,87.9117647 C42.5588235,90.5218343 40.9860267,92.8747137 38.5742567,93.8726257 C36.1624867,94.8705377 33.3870374,94.3168199 31.5428436,92.4698191 C29.6986498,90.6228183 29.1491538,87.8465301 30.1507328,85.4362806 C31.1523118,83.0260311 33.5075805,81.4568177 36.117647,81.4607768 C39.6765959,81.4661931 42.5588235,84.3528118 42.5588235,87.9117647 Z M64.7843137,41.2745098 C62.1742442,41.2745098 59.8213648,39.701713 58.8234528,37.289943 C57.8255408,34.878173 58.3792585,32.1027237 60.2262594,30.2585299 C62.0732602,28.414336 64.8495484,27.8648401 67.2597979,28.8664191 C69.6700473,29.867998 71.2392608,32.2232668 71.2353016,34.8333333 C71.2298854,38.3922821 68.3432667,41.2745098 64.7843137,41.2745098 Z" id="code-branch" fill="#000000"></path>
    </g>
</svg>