<svg width="100" height="100" viewBox="0 0 100 100" fill="none" xmlns="http://www.w3.org/2000/svg">
<g clip-path="url(#clip0)">
<path d="M76.4958 34.7051C76.4844 28.6182 71.8359 23.5431 65.7734 22.9987C59.7108 22.4544 54.2326 26.6203 53.1372 32.6078C52.0417 38.5954 55.6902 44.431 61.5527 46.0684C60.4694 52.9335 54.9232 55.948 48.5998 59.3629C45.0529 61.0979 41.7345 63.2654 38.7202 65.8158V23.1769C44.4616 21.6945 48.2051 16.1741 47.4579 10.2917C46.7107 4.40922 41.706 0 35.7763 0C29.8466 0 24.8419 4.40922 24.0947 10.2917C23.3476 16.1741 27.091 21.6945 32.8324 23.1769V76.8494C27.1233 78.3771 23.431 83.9001 24.2014 89.7597C24.9719 95.6192 29.9664 100 35.8764 100C41.7864 100 46.7809 95.6192 47.5513 89.7597C48.3218 83.9001 44.6295 78.3771 38.9203 76.8494C39.8977 70.9617 44.4666 68.2415 51.4023 64.4969C58.338 60.7524 66.3571 56.4897 67.5346 46.1626C72.8054 44.8653 76.5065 40.1332 76.4958 34.7051ZM29.8533 11.743C29.8533 8.49131 32.4893 5.85529 35.741 5.85529C38.9927 5.85529 41.6287 8.49131 41.6287 11.743C41.6287 14.9947 38.9927 17.6307 35.741 17.6307C34.1795 17.6307 32.6819 17.0104 31.5777 15.9062C30.4736 14.8021 29.8533 13.3045 29.8533 11.743ZM41.6287 88.2833C41.6287 91.535 38.9927 94.171 35.741 94.171C32.4893 94.171 29.8533 91.535 29.8533 88.2833C29.8533 85.0316 32.4893 82.3956 35.741 82.3956C37.3025 82.3956 38.8001 83.0159 39.9042 84.1201C41.0084 85.2242 41.6287 86.7218 41.6287 88.2833ZM64.6968 40.6164C61.4451 40.6164 58.8091 37.9803 58.8091 34.7286C58.8091 31.477 61.4451 28.8409 64.6968 28.8409C67.9485 28.8409 70.5845 31.477 70.5845 34.7286C70.5845 37.9803 67.9485 40.6164 64.6968 40.6164Z" fill="black"/>
</g>
<defs>
<clipPath id="clip0">
<rect width="100" height="100" fill="white"/>
</clipPath>
</defs>
</svg>
