<svg width="100" height="100" viewBox="0 0 100 100" fill="none" xmlns="http://www.w3.org/2000/svg">
<path fill-rule="evenodd" clip-rule="evenodd" d="M50.0005 91.789C73.0425 91.789 91.7885 73.042 91.7885 50.001C91.7885 26.959 73.0425 8.212 50.0005 8.212C26.9585 8.212 8.21149 26.959 8.21149 50.001C8.21149 73.042 26.9585 91.789 50.0005 91.789ZM50.0005 0C77.6145 0 100 22.386 100 50.001C100 77.615 77.6145 100 50.0005 100C22.3855 100 0.000488281 77.615 0.000488281 50.001C0.000488281 22.386 22.3855 0 50.0005 0ZM75.6016 54.4472V45.5542L68.9556 50.0012L75.6016 54.4472ZM52.6576 73.2942L73.4746 59.4172L64.1756 53.1982L52.6576 60.9012V73.2942ZM50.0006 56.2862L59.3976 50.0012L50.0006 43.7152L40.6026 50.0012L50.0006 56.2862ZM47.3426 73.2942V60.9012L35.8246 53.1982L26.5256 59.4172L47.3426 73.2942ZM24.3976 45.5542V54.4472L31.0456 50.0012L24.3976 45.5542ZM47.3426 26.7072L26.5256 40.5842L35.8246 46.8042L47.3426 39.0992V26.7072ZM52.6576 26.7072V39.0992L64.1756 46.8042L73.4746 40.5842L52.6576 26.7072ZM80.8926 40.2342C80.9076 40.3482 80.9156 40.4642 80.9156 40.5812V59.4202C80.9156 59.5372 80.9076 59.6522 80.8926 59.7682C80.8866 59.8052 80.8766 59.8442 80.8706 59.8822C80.8576 59.9572 80.8436 60.0312 80.8246 60.1042C80.8126 60.1482 80.7966 60.1912 80.7826 60.2332C80.7616 60.2982 80.7406 60.3632 80.7146 60.4282C80.6966 60.4722 80.6746 60.5142 80.6556 60.5562C80.6266 60.6172 80.5976 60.6762 80.5646 60.7342C80.5396 60.7752 80.5146 60.8152 80.4896 60.8562C80.4536 60.9112 80.4166 60.9662 80.3766 61.0172C80.3476 61.0572 80.3166 61.0952 80.2866 61.1332C80.2436 61.1812 80.1996 61.2302 80.1536 61.2762C80.1186 61.3112 80.0836 61.3472 80.0476 61.3802C79.9986 61.4242 79.9486 61.4662 79.8976 61.5072C79.8576 61.5382 79.8186 61.5682 79.7766 61.5972C79.7606 61.6072 79.7476 61.6212 79.7326 61.6302L51.4736 80.4692C51.0276 80.7672 50.5136 80.9172 50.0006 80.9172C49.4866 80.9172 48.9726 80.7672 48.5266 80.4692L20.2676 61.6302C20.2526 61.6212 20.2386 61.6072 20.2236 61.5972C20.1816 61.5682 20.1426 61.5382 20.1036 61.5072C20.0516 61.4662 20.0016 61.4242 19.9536 61.3802C19.9156 61.3472 19.8816 61.3112 19.8466 61.2762C19.8006 61.2302 19.7566 61.1812 19.7146 61.1332C19.6836 61.0952 19.6526 61.0572 19.6226 61.0172C19.5836 60.9662 19.5466 60.9112 19.5116 60.8562C19.4846 60.8152 19.4596 60.7752 19.4356 60.7342C19.4026 60.6762 19.3736 60.6172 19.3456 60.5562C19.3246 60.5142 19.3036 60.4722 19.2856 60.4282C19.2596 60.3632 19.2386 60.2982 19.2176 60.2332C19.2036 60.1912 19.1876 60.1482 19.1756 60.1042C19.1566 60.0312 19.1436 59.9572 19.1296 59.8822C19.1226 59.8442 19.1136 59.8052 19.1086 59.7682C19.0926 59.6522 19.0836 59.5372 19.0836 59.4202V40.5812C19.0836 40.4642 19.0926 40.3482 19.1086 40.2342C19.1136 40.1952 19.1226 40.1582 19.1296 40.1192C19.1436 40.0442 19.1566 39.9692 19.1756 39.8962C19.1876 39.8522 19.2036 39.8092 19.2176 39.7672C19.2386 39.7032 19.2596 39.6372 19.2856 39.5742C19.3036 39.5302 19.3246 39.4862 19.3456 39.4442C19.3736 39.3842 19.4026 39.3252 19.4356 39.2682C19.4596 39.2262 19.4846 39.1852 19.5116 39.1442C19.5466 39.0902 19.5836 39.0362 19.6226 38.9832C19.6526 38.9452 19.6836 38.9062 19.7146 38.8682C19.7566 38.8192 19.8006 38.7702 19.8466 38.7252C19.8816 38.6892 19.9156 38.6532 19.9536 38.6212C20.0016 38.5772 20.0516 38.5352 20.1036 38.4942C20.1426 38.4642 20.1816 38.4322 20.2236 38.4032C20.2386 38.3932 20.2526 38.3812 20.2676 38.3712L48.5266 19.5312C49.4186 18.9362 50.5806 18.9362 51.4736 19.5312L79.7326 38.3712C79.7476 38.3812 79.7606 38.3932 79.7766 38.4032C79.8186 38.4322 79.8576 38.4642 79.8976 38.4942C79.9486 38.5352 79.9986 38.5772 80.0476 38.6212C80.0836 38.6532 80.1186 38.6892 80.1536 38.7252C80.1996 38.7702 80.2436 38.8192 80.2866 38.8682C80.3166 38.9062 80.3476 38.9452 80.3766 38.9832C80.4166 39.0362 80.4536 39.0902 80.4896 39.1442C80.5146 39.1852 80.5396 39.2262 80.5646 39.2682C80.5976 39.3252 80.6266 39.3842 80.6556 39.4442C80.6746 39.4862 80.6966 39.5302 80.7146 39.5742C80.7406 39.6372 80.7616 39.7032 80.7826 39.7672C80.7966 39.8092 80.8126 39.8522 80.8246 39.8962C80.8436 39.9692 80.8576 40.0442 80.8706 40.1192C80.8766 40.1582 80.8866 40.1952 80.8926 40.2342Z" fill="black"/>
</svg>
