<?xml version="1.0" encoding="UTF-8"?>
<svg width="100px" height="100px" viewBox="0 0 100 100" version="1.1" xmlns="http://www.w3.org/2000/svg" xmlns:xlink="http://www.w3.org/1999/xlink">
    <!-- Generator: Sketch 57.1 (83088) - https://sketch.com -->
    <title>brand/codepen-brand</title>
    <desc>Created with Sketch.</desc>
    <g id="brand/codepen" stroke="none" stroke-width="1" fill="none" fill-rule="evenodd">
        <path d="M6.2847,44.4311 C3.7527,44.4311 1.6917,46.4921 1.6917,49.0241 C1.6917,51.5561 3.7527,53.6171 6.2847,53.6171 C7.4077,53.6171 8.4357,53.2101 9.2347,52.5391 L10.3217,53.8351 C9.2287,54.7531 7.8207,55.3081 6.2847,55.3081 C2.8197,55.3081 -0.0003,52.4901 -0.0003,49.0241 C-0.0003,45.5591 2.8197,42.7401 6.2847,42.7401 C7.8207,42.7401 9.2287,43.2941 10.3217,44.2121 L9.2347,45.5081 C8.4357,44.8361 7.4077,44.4311 6.2847,44.4311 Z M41.0737,53.2543 C43.4067,53.2543 45.3037,51.3573 45.3037,49.0243 C45.3037,46.6923 43.4067,44.7943 41.0737,44.7943 L38.5357,44.7943 L38.5357,53.2543 L41.0737,53.2543 Z M41.0737,43.1023 C44.3397,43.1023 46.9957,45.7583 46.9957,49.0243 C46.9957,52.2893 44.3397,54.9453 41.0737,54.9453 L37.6897,54.9453 C37.2227,54.9453 36.8437,54.5663 36.8437,54.1003 L36.8437,43.9473 C36.8437,43.4813 37.2227,43.1023 37.6897,43.1023 L41.0737,43.1023 Z M51.5771,43.9477 C51.5771,43.4807 51.9551,43.1017 52.4231,43.1017 L59.4731,43.1017 L59.4731,44.7947 L53.2681,44.7947 L53.2681,48.1777 L57.2171,48.1777 L57.2171,49.8697 L53.2681,49.8697 L53.2681,53.2547 L59.4731,53.2547 L59.4731,54.9457 L52.4231,54.9457 C51.9551,54.9457 51.5771,54.5667 51.5771,54.0997 L51.5771,43.9477 Z M77.1855,43.9477 C77.1855,43.4807 77.5645,43.1017 78.0315,43.1017 L85.0815,43.1017 L85.0815,44.7947 L78.8765,44.7947 L78.8765,48.1777 L82.8255,48.1777 L82.8255,49.8697 L78.8765,49.8697 L78.8765,53.2547 L85.0815,53.2547 L85.0815,54.9457 L78.0315,54.9457 C77.5645,54.9457 77.1855,54.5667 77.1855,54.0997 L77.1855,43.9477 Z M69.1338,48.1782 C70.0678,48.1782 70.8258,47.4192 70.8258,46.4862 C70.8258,45.5532 70.0678,44.7942 69.1338,44.7942 L66.3148,44.7942 L66.3148,48.1782 L69.1338,48.1782 Z M69.1338,43.1022 C70.9998,43.1022 72.5178,44.6192 72.5178,46.4862 C72.5178,48.3522 70.9998,49.8692 69.1338,49.8692 L66.3148,49.8692 L66.3148,54.9462 L64.6218,54.9462 L64.6218,43.9482 C64.6218,43.4812 65.0008,43.1022 65.4678,43.1022 L69.1338,43.1022 Z M98.3076,43.1018906 L99.9996,43.1018906 L99.9996,54.1 C99.9996,54.456 99.7776,54.774 99.4426,54.896 C99.3476,54.93 99.2496,54.946 99.1546,54.946 C98.9076,54.946 98.6676,54.838 98.5036,54.642 L91.5396,46.285 L91.5396,54.946 L89.8476,54.946 L89.8476,43.948 C89.8476,43.592 90.0716,43.274 90.4066,43.153 C90.7416,43.031 91.1166,43.132 91.3436,43.407 L98.3076,51.763 L98.3076,43.1018906 Z M27.1646,48.0913 L29.8786,46.2763 L23.8026,42.2253 L23.8026,45.8423 L27.1646,48.0913 Z M28.5596,49.0243 L30.4996,50.3213 L30.4996,47.7263 L28.5596,49.0243 Z M23.8026,52.2053 L23.8026,55.8233 L29.8786,51.7733 L27.1646,49.9573 L23.8026,52.2053 Z M18.8896,49.9573 L16.1746,51.7733 L22.2516,55.8233 L22.2516,52.2053 L18.8896,49.9573 Z M17.4946,49.0243 L15.5546,47.7263 L15.5546,50.3213 L17.4946,49.0243 Z M22.2516,45.8423 L22.2516,42.2253 L16.1746,46.2763 L18.8896,48.0913 L22.2516,45.8423 Z M23.0266,50.8593 L25.7696,49.0243 L23.0266,47.1893 L20.2846,49.0243 L23.0266,50.8593 Z M32.0376,46.1403 C32.0396,46.1513 32.0426,46.1613 32.0436,46.1733 C32.0486,46.2063 32.0506,46.2403 32.0506,46.2753 L32.0506,51.7743 C32.0506,51.8083 32.0486,51.8413 32.0436,51.8743 C32.0426,51.8863 32.0396,51.8973 32.0376,51.9083 C32.0336,51.9303 32.0296,51.9513 32.0246,51.9733 C32.0206,51.9863 32.0166,51.9983 32.0126,52.0113 C32.0056,52.0293 31.9996,52.0493 31.9926,52.0683 C31.9866,52.0803 31.9806,52.0933 31.9756,52.1053 C31.9666,52.1223 31.9576,52.1403 31.9486,52.1563 C31.9416,52.1693 31.9336,52.1813 31.9266,52.1933 C31.9156,52.2083 31.9056,52.2243 31.8936,52.2393 C31.8846,52.2513 31.8756,52.2623 31.8666,52.2733 C31.8546,52.2873 31.8416,52.3023 31.8286,52.3153 C31.8186,52.3253 31.8086,52.3363 31.7976,52.3453 C31.7836,52.3583 31.7686,52.3703 31.7536,52.3823 C31.7416,52.3913 31.7306,52.4013 31.7186,52.4083 C31.7136,52.4123 31.7096,52.4153 31.7056,52.4183 L23.4566,57.9173 C23.3266,58.0043 23.1766,58.0483 23.0266,58.0483 C22.8766,58.0483 22.7276,58.0043 22.5966,57.9173 L14.3486,52.4183 C14.3436,52.4153 14.3396,52.4123 14.3356,52.4083 C14.3236,52.4013 14.3116,52.3913 14.3006,52.3823 C14.2856,52.3703 14.2706,52.3583 14.2566,52.3453 C14.2456,52.3363 14.2356,52.3253 14.2256,52.3153 C14.2116,52.3023 14.1996,52.2873 14.1866,52.2733 C14.1776,52.2623 14.1686,52.2513 14.1606,52.2393 C14.1486,52.2243 14.1386,52.2083 14.1276,52.1933 C14.1206,52.1813 14.1126,52.1693 14.1056,52.1563 C14.0956,52.1403 14.0876,52.1223 14.0796,52.1053 C14.0736,52.0933 14.0666,52.0803 14.0616,52.0683 C14.0546,52.0493 14.0476,52.0293 14.0416,52.0113 C14.0376,51.9983 14.0336,51.9863 14.0296,51.9733 C14.0236,51.9513 14.0196,51.9303 14.0166,51.9083 C14.0146,51.8973 14.0116,51.8863 14.0096,51.8743 C14.0056,51.8413 14.0026,51.8083 14.0026,51.7743 L14.0026,46.2753 C14.0026,46.2403 14.0056,46.2063 14.0096,46.1733 C14.0116,46.1613 14.0146,46.1513 14.0166,46.1403 C14.0196,46.1173 14.0236,46.0963 14.0296,46.0743 C14.0336,46.0623 14.0376,46.0493 14.0416,46.0363 C14.0476,46.0183 14.0546,45.9983 14.0616,45.9813 C14.0666,45.9673 14.0736,45.9553 14.0796,45.9433 C14.0876,45.9253 14.0956,45.9073 14.1056,45.8913 C14.1126,45.8793 14.1206,45.8663 14.1276,45.8553 C14.1386,45.8393 14.1486,45.8233 14.1606,45.8083 C14.1686,45.7963 14.1776,45.7853 14.1866,45.7753 C14.1996,45.7603 14.2116,45.7463 14.2256,45.7333 C14.2356,45.7223 14.2456,45.7123 14.2566,45.7023 C14.2706,45.6903 14.2856,45.6773 14.3006,45.6653 C14.3116,45.6563 14.3236,45.6483 14.3356,45.6393 C14.3396,45.6363 14.3436,45.6323 14.3486,45.6293 L22.5966,40.1303 C22.8566,39.9563 23.1966,39.9563 23.4566,40.1303 L31.7056,45.6293 C31.7096,45.6323 31.7136,45.6363 31.7186,45.6393 C31.7306,45.6483 31.7416,45.6563 31.7536,45.6653 C31.7686,45.6773 31.7836,45.6903 31.7976,45.7023 C31.8086,45.7123 31.8186,45.7223 31.8286,45.7333 C31.8416,45.7463 31.8546,45.7603 31.8666,45.7753 C31.8756,45.7853 31.8846,45.7963 31.8936,45.8083 C31.9056,45.8233 31.9156,45.8393 31.9266,45.8553 C31.9336,45.8663 31.9416,45.8793 31.9486,45.8913 C31.9576,45.9073 31.9666,45.9253 31.9756,45.9433 C31.9806,45.9553 31.9866,45.9673 31.9926,45.9813 C31.9996,45.9983 32.0056,46.0183 32.0126,46.0363 C32.0166,46.0493 32.0206,46.0623 32.0246,46.0743 C32.0296,46.0963 32.0336,46.1173 32.0376,46.1403 Z" id="Shape" fill="#000000"></path>
    </g>
</svg>