<svg width="100" height="100" viewBox="0 0 100 100" fill="none" xmlns="http://www.w3.org/2000/svg">
<path fill-rule="evenodd" clip-rule="evenodd" d="M6.28469 44.4313C3.75269 44.4313 1.69169 46.4923 1.69169 49.0243C1.69169 51.5563 3.75269 53.6173 6.28469 53.6173C7.40769 53.6173 8.43569 53.2103 9.23469 52.5393L10.3217 53.8353C9.22869 54.7533 7.82069 55.3083 6.28469 55.3083C2.81969 55.3083 -0.000305176 52.4903 -0.000305176 49.0243C-0.000305176 45.5593 2.81969 42.7403 6.28469 42.7403C7.82069 42.7403 9.22869 43.2943 10.3217 44.2123L9.23469 45.5083C8.43569 44.8363 7.40769 44.4313 6.28469 44.4313ZM41.0737 53.2545C43.4067 53.2545 45.3037 51.3575 45.3037 49.0245C45.3037 46.6925 43.4067 44.7945 41.0737 44.7945H38.5357V53.2545H41.0737ZM41.0737 43.1025C44.3397 43.1025 46.9957 45.7585 46.9957 49.0245C46.9957 52.2895 44.3397 54.9455 41.0737 54.9455H37.6897C37.2227 54.9455 36.8437 54.5665 36.8437 54.1005V43.9475C36.8437 43.4815 37.2227 43.1025 37.6897 43.1025H41.0737ZM51.5771 43.9479C51.5771 43.4809 51.9551 43.1019 52.4231 43.1019H59.4731V44.7949H53.2681V48.1779H57.2171V49.8699H53.2681V53.2549H59.4731V54.9459H52.4231C51.9551 54.9459 51.5771 54.5669 51.5771 54.0999V43.9479ZM77.1855 43.9479C77.1855 43.4809 77.5645 43.1019 78.0315 43.1019H85.0815V44.7949H78.8765V48.1779H82.8255V49.8699H78.8765V53.2549H85.0815V54.9459H78.0315C77.5645 54.9459 77.1855 54.5669 77.1855 54.0999V43.9479ZM69.1338 48.1784C70.0678 48.1784 70.8258 47.4194 70.8258 46.4864C70.8258 45.5534 70.0678 44.7944 69.1338 44.7944H66.3148V48.1784H69.1338ZM69.1338 43.1024C70.9998 43.1024 72.5178 44.6194 72.5178 46.4864C72.5178 48.3524 70.9998 49.8694 69.1338 49.8694H66.3148V54.9464H64.6218V43.9484C64.6218 43.4814 65.0008 43.1024 65.4678 43.1024H69.1338ZM98.3076 43.1021H99.9996V54.1002C99.9996 54.4562 99.7776 54.7742 99.4426 54.8962C99.3476 54.9302 99.2496 54.9462 99.1546 54.9462C98.9076 54.9462 98.6676 54.8382 98.5036 54.6422L91.5396 46.2852V54.9462H89.8476V43.9482C89.8476 43.5922 90.0716 43.2742 90.4066 43.1532C90.7416 43.0312 91.1166 43.1322 91.3436 43.4072L98.3076 51.7632V43.1021ZM27.1646 48.0915L29.8786 46.2765L23.8026 42.2255V45.8425L27.1646 48.0915ZM28.5596 49.0245L30.4996 50.3215V47.7265L28.5596 49.0245ZM23.8026 52.2055V55.8235L29.8786 51.7735L27.1646 49.9575L23.8026 52.2055ZM18.8896 49.9575L16.1746 51.7735L22.2516 55.8235V52.2055L18.8896 49.9575ZM17.4946 49.0245L15.5546 47.7265V50.3215L17.4946 49.0245ZM22.2516 45.8425V42.2255L16.1746 46.2765L18.8896 48.0915L22.2516 45.8425ZM23.0266 50.8595L25.7696 49.0245L23.0266 47.1895L20.2846 49.0245L23.0266 50.8595ZM32.0376 46.1405C32.0396 46.1515 32.0426 46.1615 32.0436 46.1735C32.0486 46.2065 32.0506 46.2405 32.0506 46.2755V51.7745C32.0506 51.8085 32.0486 51.8415 32.0436 51.8745C32.0426 51.8865 32.0396 51.8975 32.0376 51.9085C32.0336 51.9305 32.0296 51.9515 32.0246 51.9735C32.0206 51.9865 32.0166 51.9985 32.0126 52.0115C32.0056 52.0295 31.9996 52.0495 31.9926 52.0685C31.9866 52.0805 31.9806 52.0935 31.9756 52.1055C31.9666 52.1225 31.9576 52.1405 31.9486 52.1565C31.9416 52.1695 31.9336 52.1815 31.9266 52.1935C31.9156 52.2085 31.9056 52.2245 31.8936 52.2395C31.8846 52.2515 31.8756 52.2625 31.8666 52.2735C31.8546 52.2875 31.8416 52.3025 31.8286 52.3155C31.8186 52.3255 31.8086 52.3365 31.7976 52.3455C31.7836 52.3585 31.7686 52.3705 31.7536 52.3825C31.7416 52.3915 31.7306 52.4015 31.7186 52.4085C31.7136 52.4125 31.7096 52.4155 31.7056 52.4185L23.4566 57.9175C23.3266 58.0045 23.1766 58.0485 23.0266 58.0485C22.8766 58.0485 22.7276 58.0045 22.5966 57.9175L14.3486 52.4185C14.3436 52.4155 14.3396 52.4125 14.3356 52.4085C14.3236 52.4015 14.3116 52.3915 14.3006 52.3825C14.2856 52.3705 14.2706 52.3585 14.2566 52.3455C14.2456 52.3365 14.2356 52.3255 14.2256 52.3155C14.2116 52.3025 14.1996 52.2875 14.1866 52.2735C14.1776 52.2625 14.1686 52.2515 14.1606 52.2395C14.1486 52.2245 14.1386 52.2085 14.1276 52.1935C14.1206 52.1815 14.1126 52.1695 14.1056 52.1565C14.0956 52.1405 14.0876 52.1225 14.0796 52.1055C14.0736 52.0935 14.0666 52.0805 14.0616 52.0685C14.0546 52.0495 14.0476 52.0295 14.0416 52.0115C14.0376 51.9985 14.0336 51.9865 14.0296 51.9735C14.0236 51.9515 14.0196 51.9305 14.0166 51.9085C14.0146 51.8975 14.0116 51.8865 14.0096 51.8745C14.0056 51.8415 14.0026 51.8085 14.0026 51.7745V46.2755C14.0026 46.2405 14.0056 46.2065 14.0096 46.1735C14.0116 46.1615 14.0146 46.1515 14.0166 46.1405C14.0196 46.1175 14.0236 46.0965 14.0296 46.0745C14.0336 46.0625 14.0376 46.0495 14.0416 46.0365C14.0476 46.0185 14.0546 45.9985 14.0616 45.9815C14.0666 45.9675 14.0736 45.9555 14.0796 45.9435C14.0876 45.9255 14.0956 45.9075 14.1056 45.8915C14.1126 45.8795 14.1206 45.8665 14.1276 45.8555C14.1386 45.8395 14.1486 45.8235 14.1606 45.8085C14.1686 45.7965 14.1776 45.7855 14.1866 45.7755C14.1996 45.7605 14.2116 45.7465 14.2256 45.7335C14.2356 45.7225 14.2456 45.7125 14.2566 45.7025C14.2706 45.6905 14.2856 45.6775 14.3006 45.6655C14.3116 45.6565 14.3236 45.6485 14.3356 45.6395C14.3396 45.6365 14.3436 45.6325 14.3486 45.6295L22.5966 40.1305C22.8566 39.9565 23.1966 39.9565 23.4566 40.1305L31.7056 45.6295C31.7096 45.6325 31.7136 45.6365 31.7186 45.6395C31.7306 45.6485 31.7416 45.6565 31.7536 45.6655C31.7686 45.6775 31.7836 45.6905 31.7976 45.7025C31.8086 45.7125 31.8186 45.7225 31.8286 45.7335C31.8416 45.7465 31.8546 45.7605 31.8666 45.7755C31.8756 45.7855 31.8846 45.7965 31.8936 45.8085C31.9056 45.8235 31.9156 45.8395 31.9266 45.8555C31.9336 45.8665 31.9416 45.8795 31.9486 45.8915C31.9576 45.9075 31.9666 45.9255 31.9756 45.9435C31.9806 45.9555 31.9866 45.9675 31.9926 45.9815C31.9996 45.9985 32.0056 46.0185 32.0126 46.0365C32.0166 46.0495 32.0206 46.0625 32.0246 46.0745C32.0296 46.0965 32.0336 46.1175 32.0376 46.1405Z" fill="black"/>
</svg>
