<svg width="100" height="100" viewBox="0 0 100 100" fill="none" xmlns="http://www.w3.org/2000/svg">
<path d="M36.4943 86.7177C36.8177 86.8389 37.1608 86.8987 37.5061 86.8944C38.7403 86.892 39.843 86.1224 40.2708 84.9647L65.2591 16.3059C65.6205 15.3182 65.4276 14.2126 64.7529 13.4057C64.0782 12.5988 63.0243 12.2131 61.9882 12.3939C60.9521 12.5748 60.0911 13.2946 59.7296 14.2824L34.7414 82.9412C34.4723 83.6744 34.5058 84.4845 34.8347 85.193C35.1635 85.9014 35.7606 86.4499 36.4943 86.7177Z" fill="black"/>
<path d="M26.1646 76.753C25.3824 76.7513 24.633 76.438 24.0823 75.8824L1.54112 53.353C-0.512729 51.2955 -0.512729 47.9635 1.54112 45.906L24.0823 23.3648C25.2379 22.2517 27.0724 22.2702 28.2054 23.4063C29.3383 24.5425 29.3516 26.377 28.2352 27.5295L6.14112 49.6236L28.2352 71.7295C28.7877 72.2793 29.0983 73.0266 29.0983 73.806C29.0983 74.5854 28.7877 75.3327 28.2352 75.8824C27.6904 76.4396 26.9439 76.753 26.1646 76.753Z" fill="black"/>
<path d="M73.8469 76.753C72.6612 76.7438 71.5959 76.0263 71.1419 74.9309C70.6879 73.8356 70.933 72.5749 71.7645 71.7295L93.8586 49.6236L71.7645 27.5295C70.6481 26.377 70.6614 24.5425 71.7944 23.4063C72.9273 22.2702 74.7618 22.2517 75.9174 23.3648L98.4586 45.906C99.4505 46.8881 100.006 48.2278 99.9998 49.6236C100.001 51.022 99.4467 52.3636 98.4586 53.353L75.9174 75.8824C75.3696 76.4351 74.625 76.7482 73.8469 76.753Z" fill="black"/>
</svg>
