<?xml version="1.0" encoding="UTF-8"?>
<svg width="100px" height="100px" viewBox="0 0 100 100" version="1.1" xmlns="http://www.w3.org/2000/svg" xmlns:xlink="http://www.w3.org/1999/xlink">
    <!-- Generator: Sketch 57.1 (83088) - https://sketch.com -->
    <title>solid/code-solid</title>
    <desc>Created with Sketch.</desc>
    <g id="solid/code" stroke="none" stroke-width="1" fill="none" fill-rule="evenodd">
        <path d="M65.3552777,19.9585414 C67.2414132,22.2422335 67.7432287,25.3681447 66.6666667,28.127451 L48.6764706,77.5784314 C47.4992248,80.8032151 44.4329484,82.949217 41,82.9509804 C38.3341131,82.9498165 35.8366018,81.6475414 34.3095201,79.4623696 C32.7824385,77.2771977 32.4180345,74.4842257 33.3333333,71.9803922 L51.3235294,22.5392157 C52.2737068,19.7338779 54.6683203,17.6628962 57.5813469,17.1271417 C60.4943735,16.5913872 63.4691422,17.6748493 65.3552777,19.9585414 Z M31.4888626,27.0209413 C34.6194947,30.1515734 34.6896204,35.2052767 31.6470588,38.4215686 L20.0098039,50.0588235 L31.6470588,61.6960784 C33.9838097,64.0329832 34.6818173,67.5478539 33.4153246,70.600316 C32.1488319,73.6527781 29.1675165,75.6410662 25.8627451,75.637272 C23.6962058,75.6403958 21.6178635,74.7794186 20.0882353,73.2450981 L3.86274505,57.0196079 C2.00673867,55.1787588 0.962761477,52.672917 0.962761477,50.0588235 C0.962761477,47.44473 2.00673867,44.9388882 3.86274505,43.0980392 L20.0882353,26.8627451 C23.3045272,23.8201835 28.3582305,23.8903092 31.4888626,27.0209413 Z M79.9117647,26.8627451 L96.1372549,43.0980392 C97.9932613,44.9388882 99.0372385,47.44473 99.0372385,50.0588235 C99.0372385,52.672917 97.9932613,55.1787588 96.1372549,57.0196079 L79.9117647,73.2450981 C78.3821365,74.7794186 76.3037942,75.6403958 74.1372549,75.637272 C70.8324835,75.6410662 67.8511681,73.6527781 66.5846754,70.600316 C65.3181827,67.5478539 66.0161903,64.0329832 68.3529412,61.6960784 L79.9901961,50.0588235 L68.3529412,38.4215686 C65.3103796,35.2052767 65.3805053,30.1515734 68.5111374,27.0209413 C71.6417695,23.8903092 76.6954728,23.8201835 79.9117647,26.8627451 Z" id="Shape" fill="#000000"></path>
    </g>
</svg>