<?xml version="1.0" encoding="UTF-8"?>
<svg width="100px" height="100px" viewBox="0 0 100 100" version="1.1" xmlns="http://www.w3.org/2000/svg" xmlns:xlink="http://www.w3.org/1999/xlink">
    <!-- Generator: Sketch 57.1 (83088) - https://sketch.com -->
    <title>bold/cog-bold</title>
    <desc>Created with Sketch.</desc>
    <g id="bold/cog" stroke="none" stroke-width="1" fill="none" fill-rule="evenodd">
        <path d="M41.970297,99.0099446 C41.2534369,99.0023545 40.5395785,98.9160274 39.8415841,98.7524753 L39.2277228,98.6138614 L31.1584158,96.1584159 C27.1666992,94.9570067 24.4218107,91.2971555 24.3861386,87.1287129 L23.7623762,81.6930693 C23.6998011,81.4138059 23.4441207,81.2209977 23.1584158,81.2376238 L17.7524752,81.7227723 C13.6172137,82.6024778 9.40155265,80.624111 7.43564352,76.8811881 L3.47524748,69.4752475 C1.49518571,65.801588 2.16360898,61.2635578 5.11881184,58.3168317 L8.47524748,54.0990099 C8.64337555,53.8642236 8.61830947,53.5425423 8.41584154,53.3366337 L4.23762372,49.8415842 C0.815108563,47.5145911 -0.745588422,43.2664695 0.356435594,39.2772277 L2.81188114,31.1881188 C3.99966878,27.1628909 7.68444201,24.3912656 11.8811881,24.3663366 L17.3267326,23.6930693 C17.5880792,23.6161029 17.7635729,23.371228 17.7524752,23.0990099 L17.2673267,17.6930693 C16.4065328,13.5708053 18.3876054,9.37820883 22.1188119,7.42574253 L29.5346534,3.46534649 C33.208907,1.48866708 37.7447991,2.15677541 40.6930693,5.10891085 L44.9207921,8.46534649 C45.1562301,8.64358815 45.4876616,8.61809342 45.6930693,8.40594055 L49.1881188,4.23762372 C51.5170719,0.817620012 55.7633655,-0.742405397 59.7524753,0.356435594 L67.8910891,2.83168312 C71.8916895,4.0324818 74.6395488,7.70432875 74.6633664,11.8811881 L75.3465347,17.2871287 C75.4091097,17.5663921 75.6647902,17.7592003 75.9504951,17.7425742 L81.3564357,17.2574257 C85.4727531,16.4036991 89.6578763,18.3731689 91.6237624,22.0891089 L95.5841585,29.4950495 C97.5658262,33.1717488 96.8974572,37.7134366 93.9405941,40.6633663 L90.5841585,44.8811881 C90.411772,45.1147709 90.4370759,45.4395043 90.6435644,45.6435644 L94.7623763,49.0891089 C98.33029,51.4547736 99.8815782,55.9101706 98.5544555,59.980198 L96.1584159,67.9009901 C95.0496179,71.9664313 91.3722183,74.7983121 87.1584159,74.8316832 L81.5643565,75.5247525 C81.5180755,75.5362197 81.474396,75.5563795 81.4356436,75.5841584 L81.2970297,75.7623763 C81.2820037,75.8308688 81.2820037,75.9018045 81.2970297,75.9702971 L81.7821782,81.4059406 C82.5613908,85.4413147 80.6919742,89.5261888 77.1287129,91.5742575 L76.990099,91.6435644 L69.5346535,95.6039604 C65.8588807,97.5814069 61.3217155,96.9177258 58.3663366,93.9702971 L54.1485149,90.6138614 C53.9130768,90.4356198 53.5816453,90.4611145 53.3762376,90.6732674 L49.9108911,94.8118812 C48.1277721,97.4456861 45.1509179,99.0194843 41.970297,99.0099446 L41.970297,99.0099446 Z M41.6435643,89.9405941 L41.6435643,89.9405941 C41.7638859,89.9723217 41.8863048,89.995482 42.009901,90.009901 C42.1704671,89.9851448 42.3099285,89.8860538 42.3861386,89.7425743 L42.5643564,89.4356436 L46.5346535,84.7821783 C49.8412092,80.8977943 55.6092734,80.2800981 59.6633663,83.3762377 L59.7326733,83.4356436 L64.4851485,87.2079208 L64.7128713,87.4455446 C64.7128713,87.4455446 65,87.7623763 65.2871287,87.6039604 L72.6930693,83.6435644 C72.9253302,83.4918448 73.0364769,83.2100086 72.9702971,82.9405941 L72.8811881,82.3465347 L72.2772277,76.6435644 C72.0921191,74.3858664 72.7168824,72.1360167 74.039604,70.2970297 L74.2673268,69.970297 L74.6039604,69.6336634 C76.1562048,67.8301853 78.3445086,66.6952466 80.7128713,66.4653466 L86.7326733,65.7128713 L87.1188119,65.7128713 C87.2510768,65.7121034 87.3754723,65.6499057 87.4554456,65.5445545 L87.5148515,65.3267327 L89.9603961,57.2574257 C90.0507586,57.0526329 90.0161491,56.8142117 89.8712872,56.6435644 L89.5346535,56.4356436 L84.8415842,52.4752475 C80.958513,49.1721647 80.340699,43.4073511 83.4356436,39.3564356 L83.4950495,39.2871287 L87.2772278,34.5346534 L87.5148515,34.3069307 C87.5148515,34.3069307 87.8217822,34.019802 87.6732674,33.7425742 L83.6039604,26.1386138 C83.4292579,26.0206727 83.2094021,25.9913586 83.009901,26.0594059 L82.4158416,26.1584158 L76.6930693,26.7326732 C71.5851158,27.1334545 67.0603795,23.4579228 66.4059406,18.3762376 L65.6534654,12.3267326 L65.6534654,11.940594 C65.638353,11.7428923 65.522321,11.5669728 65.3465347,11.4752475 L57.1980198,8.99998983 C56.9490732,8.99865693 56.7185309,9.13093527 56.5940594,9.34653461 L56.2376238,9.83168313 L52.5742574,14.2079208 C49.2677017,18.0923048 43.4996375,18.7100009 39.4455445,15.6138614 L39.3762376,15.5544554 L34.6534653,11.7821782 L34.4257426,11.5445544 C34.289175,11.3724359 34.0569834,11.3083831 33.8514851,11.3861386 L26.2376237,15.4455445 C26.1252222,15.6223091 26.0962548,15.8395644 26.1584158,16.0396039 L26.2574257,16.6336633 L26.7326732,22.3465346 C27.1414474,27.4543136 23.4842779,31.9898995 18.4059406,32.6732673 L12.3168316,33.4257426 L11.940594,33.4257426 C11.7450215,33.3959381 11.5539202,33.5016538 11.4752475,33.6831683 L11.4752475,33.8118812 L8.99009897,41.8217822 C8.99009897,42.070189 9.1225251,42.2997903 9.33663362,42.4257426 L9.82178214,42.7722772 L14.2178217,46.4554455 C18.1008929,49.7585284 18.7187069,55.523342 15.6237623,59.5742574 L15.5643564,59.6435644 L11.7821782,64.3564357 L11.5445544,64.5841584 C11.5445544,64.5841584 11.2376237,64.8712871 11.3861386,65.1485149 L15.4554455,72.7524753 C15.6301481,72.8704164 15.8500039,72.8997305 16.0495049,72.8316832 L16.6435643,72.7326733 L22.3663366,72.2772277 C27.4766698,71.8701009 32.0090869,75.5404444 32.6732673,80.6237624 L33.4257426,86.6732674 L33.4257426,87.059406 C33.4408549,87.2571077 33.5568869,87.4330272 33.7326733,87.5247525 L41.6435643,89.9405941 Z M49.6534653,74.3960428 C41.7917967,74.3960428 34.390614,70.688154 29.6839095,64.3911097 C24.9772051,58.0940653 23.5164544,49.9458494 25.7425742,42.4059406 L25.7425742,42.4059406 C28.0222086,33.5673049 34.9498606,26.6811237 43.8020243,24.4545991 C52.654188,22.2280746 62.0154105,25.0172259 68.2054632,31.7255388 C74.3955159,38.4338516 76.424615,47.9886729 73.4950495,56.6336634 C71.6362334,62.9807824 67.3003711,68.3122871 61.4653465,71.4257426 C57.8343263,73.3775547 53.775828,74.3981327 49.6534653,74.3960428 Z M49.7029703,33.5643034 C47.024496,33.5838348 44.3922212,34.2640092 42.039604,35.5445544 C38.3256239,37.5526328 35.5565754,40.9480985 34.3366336,44.990099 L34.3366336,44.990099 C32.518286,51.1661387 34.5911501,57.8298142 39.5919962,61.8846129 C44.5928423,65.9394115 51.5410628,66.5902343 57.2079208,63.5346535 C60.9241731,61.5489311 63.6857962,58.152206 64.8712871,54.1089109 C66.3683343,49.2936278 65.4834652,44.0532735 62.4883162,39.996528 C59.4931672,35.9397825 54.7455819,33.5513228 49.7029703,33.5643034 Z" id="cog" fill="#000000"></path>
    </g>
</svg>