<?xml version="1.0" encoding="UTF-8"?>
<svg width="100px" height="100px" viewBox="0 0 100 100" version="1.1" xmlns="http://www.w3.org/2000/svg" xmlns:xlink="http://www.w3.org/1999/xlink">
    <!-- Generator: Sketch 57.1 (83088) - https://sketch.com -->
    <title>solid/cog-solid</title>
    <desc>Created with Sketch.</desc>
    <g id="solid/cog" stroke="none" stroke-width="1" fill="none" fill-rule="evenodd">
        <path d="M95.5247525,51.4851485 L91.089109,47.7623762 C89.9487458,46.7498246 89.7604672,45.0382016 90.6534654,43.8019802 L94.3069307,39.2178218 C96.7379018,36.8614862 97.3043454,33.1755568 95.6930694,30.1980198 L91.5544555,22.4455445 C89.9730477,19.3894453 86.520037,17.7954345 83.1683169,18.5742574 L77.3465347,19.0891089 C75.8141909,19.1660437 74.4754082,18.0632644 74.2574258,16.5445544 L73.5247525,10.7425742 C73.5710109,7.34749453 71.3607834,4.3331807 68.1089109,3.3564356 L59.5940594,0.782178169 C56.3525486,-0.10601611 52.9076475,1.19281552 51.0594059,3.99999995 L47.3069307,8.46534649 C46.2889047,9.63495649 44.5424772,9.82469183 43.2970297,8.90099006 L38.7029703,5.2574257 C36.3530519,2.83250492 32.6805022,2.25879528 29.7029703,3.8514851 L21.940594,7.99999996 C18.9080145,9.57746656 17.3245527,13.0049084 18.0891089,16.3366336 L18.6039604,22.1584158 C18.7091952,23.6993466 17.6159168,25.0637925 16.0891089,25.2970297 L10.2574257,26.0297029 L10.1287128,26.0297029 C6.77099735,26.0166657 3.80875484,28.2242225 2.86138609,31.4455445 L0.287128663,39.9306931 C-0.604340661,43.1723557 0.695205958,46.6191532 3.50495045,48.4653465 L7.98019798,52.2178218 C9.12056116,53.2303734 9.30883969,54.9419964 8.41584154,56.1782178 L4.76237619,60.8019802 C2.33765769,63.1526979 1.76768914,66.827176 3.36633659,69.8019802 L7.50495045,77.5544555 C9.08940145,80.5802684 12.5090134,82.1641742 15.8415841,81.4158416 L21.6633663,80.8910891 C23.2178632,80.7820481 24.5923421,81.8928691 24.8118812,83.4356436 L25.5445544,89.2376238 C25.4982961,92.6327035 27.7085235,95.6470173 30.960396,96.6237624 L39.4158416,99.1881189 L39.8613861,99.2871288 C40.4262726,99.4207433 41.0037926,99.4937631 41.5841584,99.5049505 C44.1813123,99.4915802 46.5939765,98.1603265 47.990099,95.9702971 L51.7227723,91.5148515 C52.7418443,90.3393128 54.4953236,90.1492805 55.7425743,91.079208 L60.3960396,94.7227723 C62.7475594,97.1524677 66.4259627,97.7264603 69.4059406,96.1287129 L77.3267327,91.9207921 C80.1858428,90.2340075 81.651529,86.9123163 80.9702971,83.6633664 L80.4554456,77.8316832 C80.3882908,77.1893566 80.541944,76.5433147 80.8910891,76 L81.1188119,75.7623763 C81.5528493,75.2029478 82.196701,74.8452524 82.9009901,74.7722773 L88.8415842,74.039604 L88.9504951,74.039604 C92.306713,74.0432109 95.2504672,71.8009298 96.1386139,68.5643565 L98.6732674,60.2079208 C99.7270558,56.922696 98.433853,53.3399548 95.5247525,51.4851485 Z M59.8019802,68.8118812 C52.1789576,72.9348649 42.8224656,72.0570039 36.0993976,66.5880164 C29.3763296,61.1190289 26.6121758,52.1371563 29.0970313,43.8344483 C31.5818869,35.5317403 38.8258487,29.5451219 47.4479906,28.6686879 C56.0701326,27.7922538 64.3705513,32.198798 68.4752475,39.8316832 C74.0384146,50.2339052 70.1650413,63.1761012 59.8019802,68.8118812 Z" id="cog" fill="#000000"></path>
    </g>
</svg>