<?xml version="1.0" encoding="UTF-8"?>
<svg width="100px" height="100px" viewBox="0 0 100 100" version="1.1" xmlns="http://www.w3.org/2000/svg" xmlns:xlink="http://www.w3.org/1999/xlink">
    <!-- Generator: Sketch 57.1 (83088) - https://sketch.com -->
    <title>bold/cogs-bold</title>
    <desc>Created with Sketch.</desc>
    <g id="bold/cogs" stroke="none" stroke-width="1" fill="none" fill-rule="evenodd">
        <path d="M83.43,51.56 L86.8,52.56 C88.6377301,53.1152949 89.9014813,54.8002966 89.92,56.72 L90.17,58.72 L92.17,58.54 C94.0788491,58.1589439 96.0090517,59.0893586 96.9,60.82 L98.52,63.82 C99.431844,65.5094005 99.1313763,67.5964327 97.78,68.96 L96.56,70.5 L98.06,71.75 C99.6834325,72.8472453 100.388177,74.884078 99.79,76.75 L98.79,79.99 C98.2769699,81.8526962 96.5919528,83.1501185 94.66,83.17 L92.66,83.42 L92.84,85.36 C93.1872833,87.2177265 92.3205257,89.0916884 90.68,90.03 L87.53,91.71 C85.8400011,92.6184706 83.755093,92.3183087 82.39,90.97 L80.84,89.74 L79.58,91.25 C78.7823078,92.4557789 77.4453393,93.1952196 76,93.23 C75.6638481,93.2265113 75.3288726,93.189664 75,93.12 L74.69,93.04 L71.36,92.04 C69.522172,91.4827708 68.25625,89.8002675 68.23,87.88 L67.99,85.88 L65.99,86.06 C64.0783031,86.4424018 62.1445309,85.5122329 61.25,83.78 L59.64,80.78 C58.7213426,79.091817 59.0224305,77.0004772 60.38,75.64 L61.61,74.1 L60.1,72.82 C58.5349706,71.7424394 57.8244957,69.7916439 58.33,67.96 L59.33,64.59 C59.893767,62.7496565 61.5952478,61.4948652 63.52,61.5 L65.52,61.25 L65.34,59.25 C64.9405538,57.3413268 65.8601105,55.4000405 67.59,54.5 L70.59,52.88 C72.2799989,51.9715295 74.3649071,52.2716913 75.73,53.62 L77.28,54.85 L78.56,53.33 C79.6370064,51.7582566 81.5951394,51.0465737 83.43,51.56 Z M82.29,56.08 L82.19,56.22 L80.67,58.03 C79.1462008,59.8273724 76.4803253,60.1133162 74.61,58.68 L72.61,57.08 L69.92,58.5 L69.92,58.66 L70.13,61.02 C70.3149609,63.3755163 68.622774,65.4632794 66.28,65.77 L63.74,66.09 L62.85,69.03 L62.98,69.14 L64.79,70.66 C66.5857388,72.1834894 66.8756786,74.8456632 65.45,76.72 L63.84,78.72 L65.3,81.5 L65.47,81.5 L67.83,81.29 C70.1921836,81.0949501 72.2877395,82.7978649 72.58,85.15 L72.93,87.63 L75.88,88.53 L77.51,86.53 C79.0337993,84.7326276 81.6996748,84.4466839 83.57,85.88 L85.57,87.48 L88.28,86.04 L88.28,85.87 L88,83.56 C87.9127564,82.5210159 88.1922802,81.4843012 88.79,80.63 L89.07,80.31 C89.7816378,79.4770267 90.7893264,78.953459 91.88,78.85 L94.39,78.5 L95.31,75.5 L93.38,73.89 C91.5826276,72.3662008 91.2966839,69.7003253 92.73,67.83 L94.33,65.83 L92.88,63.13 L92.72,63.13 L90.36,63.34 C88.0057691,63.5258038 85.9163976,61.8402604 85.6,59.5 L85.29,56.98 L82.29,56.08 Z M36.34,25.78 L41,27.18 C44.0982821,28.1184283 46.2412606,30.9434471 46.31,34.18 L46.46,35.36 L47.68,35.25 C50.8823126,34.6508158 54.1014406,36.2076737 55.62,39.09 L57.84,43.24 C59.3718938,46.0894844 58.8868078,49.6023156 56.64,51.93 L55.91,52.84 L56.78,53.57 C59.4970937,55.444337 60.6668508,58.8764369 59.66,62.02 L58.33,66.39 C57.4714182,69.5588662 54.6129019,71.7721745 51.33,71.81 L50.16,71.95 L50.26,73.11 C50.813036,76.2333618 49.3494941,79.3683806 46.6,80.95 L46.46,81.03 L42.26,83.27 C39.4129995,84.7969638 35.9059296,84.3121154 33.58,82.07 L32.66,81.33 L31.91,82.23 C30.5124254,84.2640686 28.2078811,85.4854397 25.74,85.5 C25.1984218,85.4980728 24.658632,85.4377236 24.13,85.32 L23.59,85.18 L19,83.78 C15.9036009,82.8388672 13.7618513,80.0154684 13.69,76.78 L13.54,75.6 L12.33,75.71 C9.1272368,76.312565 5.90618892,74.7547786 4.38999995,71.87 L2.20999995,67.73 C0.668193143,64.8823069 1.15413558,61.3632737 3.40999995,59.04 L4.12999995,58.13 L3.21999995,57.36 C0.603806742,55.5193733 -0.573055866,52.2329644 0.27999995,49.15 L1.66999995,44.58 C2.58780175,41.4600609 5.41867182,39.2924233 8.66999996,39.22 L9.84999996,39.07 L9.74999996,37.87 C9.14266899,34.6639251 10.7011613,31.437359 13.59,29.92 L17.74,27.7 C20.5900736,26.1713854 24.1008597,26.656189 26.43,28.9 L27.35,29.64 L28.12,28.71 C29.968514,26.0983518 33.2563144,24.926423 36.34,25.78 Z M89.2318814,68.4708378 C91.1894419,73.5193267 89.0787948,79.2352624 84.31,81.8 C82.7224729,82.6450064 80.9483175,83.0782304 79.15,83.06 L79.22,83.08 C73.8052731,83.076148 69.241873,79.0385581 68.5784703,73.6646229 C67.9150675,68.2906877 71.3595651,63.2645372 76.6107975,61.9439915 C81.8620299,60.6234458 87.2743209,63.4223489 89.2318814,68.4708378 Z M79.16,66.19 L79.22,66.21 C76.5895974,66.2138322 74.2597855,67.88055 73.3965921,70.3465019 L73.32,70.58 C72.6250003,72.9526037 73.4232899,75.5104737 75.3444151,77.066607 C77.2655403,78.6227403 79.93342,78.8725067 82.11,77.7 C85.0609371,76.0808527 86.1581713,72.387723 84.57,69.42 C83.8085765,67.9758565 82.5017077,66.8957997 80.94,66.42 C80.360739,66.2585054 79.7612851,66.1810478 79.16,66.19 Z M20.72,68.61 C21.7631769,69.7443313 22.4211767,71.179331 22.6,72.71 L22.91,75.23 L25.07,75.88 L26.66,73.98 C27.6249293,72.8430367 28.9057187,72.0181805 30.34,71.61 C26.8974593,71.6477607 23.5308438,70.5978806 20.72,68.61 Z M41.57,66.96 C40.4509873,68.084168 39.170157,69.034679 37.77,69.78 C36.2717144,70.5491482 34.6622134,71.0789001 33,71.35 C34.4532838,71.4546126 35.8439923,71.9830819 37,72.87 L39,74.5 L41,73.5 L40.78,71.04 C40.6532151,69.6327087 40.9270916,68.2182576 41.57,66.96 Z M14.15,58.14 C14.0846836,59.6810788 13.5470537,61.1647978 12.61,62.39 L12.55,62.46 L11,64.44 L12.05,66.44 L14.52,66.22 C14.7123397,66.1933245 14.9059327,66.1766355 15.1,66.17 C16.4727114,66.1683925 17.8202981,66.538115 19,67.24 C17.7354211,66.0549151 16.6745692,64.6697264 15.86,63.14 C15.0288769,61.5743782 14.4516872,59.8866889 14.15,58.14 Z M46.2,55.32 C46.2190698,58.5872033 45.2576379,61.7850095 43.44,64.5 C44.5494373,63.5993825 45.898219,63.0431839 47.32,62.9 L49.7,62.6 L50.39,60.36 L48.52,58.8 C47.4323264,57.8834581 46.6277027,56.6765226 46.2,55.32 Z M30.1,48.63 C28.9383926,48.6365033 27.7957068,48.9247484 26.77,49.47 C25.2779805,50.2854775 24.142188,51.6205075 23.5742808,53.2158243 L23.48,53.5 C22.9543792,55.2501146 23.1412709,57.137002 24,58.75 C24.8690687,60.352793 26.3404374,61.5436877 28.0891478,62.0596699 C29.8378582,62.575652 31.7200382,62.37427 33.32,61.5 C34.9032717,60.6577463 36.0842045,59.2175843 36.6,57.5 C37.1289683,55.7568734 36.9418448,53.8748431 36.08,52.27 C35.2181434,50.654279 33.7510018,49.4460447 32,48.91 C31.3835207,48.7253612 30.7435349,48.6310475 30.1,48.63 Z M16.83,46.19 C15.697145,47.2387345 14.2624666,47.9035855 12.73,48.09 L10.23,48.4 L9.57999996,50.55 L11.48,52.14 C12.6726456,53.1525258 13.5188004,54.5126672 13.9,56.03 C13.8427884,54.2930412 14.0621956,52.5580365 14.55,50.89 C15.0473911,49.2090085 15.8176549,47.6211841 16.83,46.19 Z M41.28,43.87 C42.465334,45.0163019 43.4760949,46.3302912 44.28,47.77 C45.0568554,49.2051544 45.6130958,50.7491427 45.93,52.35 C46.0493054,50.9542172 46.5586921,49.6201091 47.4,48.5 L47.46,48.43 L49,46.5 L48,44.5 L45.52,44.72 C44.054052,44.8555501 42.5804227,44.5601291 41.28,43.87 Z M78.91,7.66999996 L82.28,8.66999996 C84.117828,9.22722916 85.38375,10.9097325 85.41,12.83 L85.65,14.83 L87.65,14.65 C89.5588491,14.2689438 91.4890517,15.1993586 92.38,16.93 L94,19.93 C94.911844,21.6194005 94.6113763,23.7064327 93.26,25.07 L92,26.62 L93.5,27.88 C95.1318641,28.9707546 95.8388166,31.0139699 95.23,32.88 L94.23,36.13 C93.7100837,37.9922787 92.0233664,39.2878732 90.09,39.31 L88.09,39.56 L88.34,41.5 C88.6841414,43.3573329 87.8181913,45.229549 86.18,46.17 L83,47.84 C81.3063385,48.7467567 79.2198284,48.4469475 77.85,47.1 L76.31,45.87 L75.04,47.38 C74.2317848,48.5867772 72.8822747,49.3194751 71.43,49.34 C71.0930999,49.34 70.7574322,49.2993096 70.43,49.22 L70.13,49.15 L66.79,48.15 C64.952172,47.5927708 63.68625,45.9102675 63.66,43.99 L63.42,41.99 L61.42,42.17 C59.5111509,42.5510561 57.5809484,41.6206414 56.69,39.89 L55.07,36.89 C54.1581561,35.2005995 54.4586237,33.1135673 55.81,31.75 L57.04,30.21 L55.51,28.93 C53.9474809,27.8504986 53.2376662,25.9015157 53.74,24.07 L54.74,20.7 C55.2934777,18.8166403 57.0373023,17.5353795 59,17.57 L61,17.32 L60.82,15.32 C60.4389439,13.4111509 61.3693586,11.4809483 63.1,10.59 L66.1,8.96999996 C67.7894006,8.05815602 69.8764327,8.35862369 71.24,9.70999996 L72.78,10.94 L74,9.42999996 C75.0872736,7.84770122 77.0651165,7.13873922 78.91,7.66999996 Z M77.75,12.22 L77.64,12.35 L76.17,14.14 C74.6462008,15.9373724 71.9803253,16.2233161 70.11,14.79 L68.11,13.19 L65.38,14.63 L65.38,14.8 L65.6,17.16 C65.7793481,19.5172986 64.0841416,21.6033687 61.74,21.91 L59.2,22.23 L58.31,25.17 L58.44,25.28 L60.26,26.8 C62.0573724,28.3237992 62.3433162,30.9896747 60.91,32.86 L59.3,34.86 L60.75,37.56 L60.92,37.56 L63.28,37.35 C65.641014,37.1650696 67.7332394,38.8617061 68.04,41.21 L68.36,43.74 L71.36,44.64 L72.99,42.64 C74.522971,40.8889749 77.1511129,40.626598 79,42.04 L81,43.64 L83.71,42.19 L83.71,42.03 L83.5,39.67 C83.4030814,38.6301671 83.6834898,37.5901712 84.29,36.74 L84.56,36.42 C85.2753866,35.5864128 86.2863653,35.0629982 87.38,34.96 L89.84,34.65 L90.76,31.65 L88.84,30.04 C87.0346057,28.5216476 86.7437865,25.8513987 88.18,23.98 L89.79,21.98 L88.34,19.28 L88.17,19.28 L85.82,19.5 C83.4589861,19.6849304 81.3667607,17.9882938 81.06,15.64 L80.75,13.12 L77.75,12.22 Z M21,36.5 L19.06,37.55 L19.28,40.01 C19.3967706,41.5813482 19.0229018,43.1501996 18.21,44.5 C19.4054766,43.2152917 20.7999853,42.1314241 22.34,41.29 C23.826761,40.4953536 25.424659,39.92901 27.08,39.61 C25.6259163,39.5013293 24.2354288,38.9694679 23.08,38.08 L21,36.5 Z M34.88,35.08 L33.29,36.98 C32.3381524,38.1040872 31.0752259,38.9216843 29.66,39.33 L30.06,39.33 C31.5971805,39.3307702 33.1262282,39.5530547 34.6,39.99 C36.1797978,40.4465289 37.6780641,41.1484195 39.04,42.07 C38.10513,40.9762766 37.516836,39.6291181 37.35,38.2 L37.04,35.73 L34.88,35.08 Z M84.6218814,24.5608378 C86.5794419,29.6093266 84.4687948,35.3252623 79.7,37.89 C78.1351484,38.730657 76.3863628,39.1704302 74.61,39.1700006 C69.1952731,39.166148 64.631873,35.1285581 63.9684703,29.7546229 C63.3050675,24.3806876 66.749565,19.3545371 72.0007975,18.0339914 C77.2520299,16.7134457 82.6643209,19.5123489 84.6218814,24.5608378 Z M74.63,22.3 L74.61,22.3 C73.5797278,22.3018244 72.5660431,22.5595408 71.66,23.05 C69.7414838,24.0914292 68.5242976,26.0772656 68.4669436,28.259464 C68.4095896,30.4416624 69.5207814,32.4886948 71.3819436,33.629464 C73.2431059,34.7702332 75.5714838,34.8314292 77.49,33.79 C78.9142359,33.0270562 79.9705782,31.7219507 80.42,30.17 C80.9088873,28.6196671 80.7576653,26.9382232 80,25.5 C79.2333606,24.0601063 77.9285164,22.9817227 76.37,22.5 C75.802905,22.3485827 75.2166605,22.2811983 74.63,22.3 Z" id="Shape" fill="#000000"></path>
    </g>
</svg>