<svg width="100" height="100" viewBox="0 0 100 100" fill="none" xmlns="http://www.w3.org/2000/svg">
<path d="M32.3409 0H78.6115C82.7607 0.00647807 86.1226 3.36845 86.1291 7.51765V80.6C86.1226 84.7492 82.7607 88.1112 78.6115 88.1176H78.3527V82.2353H78.6115C79.5146 82.2353 80.2468 81.5031 80.2468 80.6V7.51765C80.2468 6.6145 79.5146 5.88235 78.6115 5.88235H32.3409C31.4377 5.88235 30.7056 6.6145 30.7056 7.51765V7.76471H24.8232V7.51765C24.8297 3.36845 28.1917 0.00647807 32.3409 0Z" fill="black"/>
<path fill-rule="evenodd" clip-rule="evenodd" d="M20.4591 100H66.7296C70.8769 99.9935 74.2355 96.6296 74.2355 92.4823V19.4C74.2355 15.2527 70.8769 11.8888 66.7296 11.8823H20.4591C16.3099 11.8888 12.9479 15.2508 12.9414 19.4V92.4823C12.9479 96.6315 16.3099 99.9935 20.4591 100ZM18.8238 19.4C18.8238 18.4968 19.5559 17.7647 20.4591 17.7647H66.7296C67.1623 17.7647 67.577 17.9373 67.8818 18.2444C68.1866 18.5514 68.3563 18.9674 68.3532 19.4V92.4823C68.3563 92.9149 68.1866 93.3309 67.8818 93.6379C67.577 93.945 67.1623 94.1176 66.7296 94.1176H20.4591C19.5559 94.1176 18.8238 93.3855 18.8238 92.4823V19.4Z" fill="black"/>
</svg>
