<?xml version="1.0" encoding="UTF-8"?>
<svg width="100px" height="100px" viewBox="0 0 100 100" version="1.1" xmlns="http://www.w3.org/2000/svg" xmlns:xlink="http://www.w3.org/1999/xlink">
    <!-- Generator: Sketch 57.1 (83088) - https://sketch.com -->
    <title>solid/copy-solid</title>
    <desc>Created with Sketch.</desc>
    <g id="solid/copy" stroke="none" stroke-width="1" fill="none" fill-rule="evenodd">
        <path d="M69.74,9.82999996 C73.0978913,9.82999996 75.82,12.5521087 75.82,15.91 L75.82,93.92 C75.82,97.2778913 73.0978913,100 69.74,100 L19.58,100 C16.2221087,100 13.5,97.2778913 13.5,93.92 L13.5,15.91 C13.5,12.5521087 16.2221087,9.82999996 19.58,9.82999996 L69.74,9.82999996 Z M79.5,-0.000258365936 C82.8776996,0.00550558368 85.6144944,2.74230042 85.62,6.11999996 L85.62,84.05 C85.6144944,87.4276996 82.8776996,90.1644944 79.5,90.17 L78.2,90.17 L78.2,15.91 C78.1944896,11.2399554 74.4100446,7.45551034 69.74,7.44999996 L23.33,7.44999996 L23.33,6.11999996 C23.3326259,4.48900247 23.9851244,2.92629571 25.1430977,1.77770632 C26.301071,0.62911694 27.8690351,-0.0106449019 29.5,-0.000258365936 L79.5,-0.000258365936 Z" id="Shape" fill="#000000"></path>
    </g>
</svg>