<?xml version="1.0" encoding="UTF-8"?>
<svg width="100px" height="100px" viewBox="0 0 100 100" version="1.1" xmlns="http://www.w3.org/2000/svg" xmlns:xlink="http://www.w3.org/1999/xlink">
    <!-- Generator: Sketch 57.1 (83088) - https://sketch.com -->
    <title>bold/copy-bold</title>
    <desc>Created with Sketch.</desc>
    <g id="bold/copy" stroke="none" stroke-width="1" fill="none" fill-rule="evenodd">
        <path d="M79.11,-4.9999997e-08 L34.17,-4.9999997e-08 C29.8092346,0.0055094517 26.2755095,3.53923458 26.27,7.89999996 L26.27,14.27 L20.08,14.27 C15.6198234,14.2755098 12.0055098,17.8898234 12,22.35 L12,91.92 C12,96.3824608 15.6175392,100 20.08,100 L64.66,100 C69.1201766,99.9944903 72.7344902,96.3801766 72.74,91.92 L72.74,85.73 L79.11,85.73 C83.4684882,85.7190076 86.9990076,82.1884882 87.01,77.83 L87.01,7.89999996 C87.0044905,3.53923458 83.4707654,0.0055094517 79.11,-4.9999997e-08 L79.11,-4.9999997e-08 Z M63.65,90.91 L21.09,90.91 L21.09,23.36 L63.65,23.36 L63.65,90.91 Z M77.92,76.64 L72.74,76.64 L72.74,22.35 C72.7290064,17.8921008 69.1178991,14.2809936 64.66,14.27 L35.36,14.27 L35.36,9.08999996 L77.92,9.08999996 L77.92,76.64 Z" id="copy" fill="#000000"></path>
    </g>
</svg>