<?xml version="1.0" encoding="UTF-8"?>
<svg width="100px" height="100px" viewBox="0 0 100 100" version="1.1" xmlns="http://www.w3.org/2000/svg" xmlns:xlink="http://www.w3.org/1999/xlink">
    <!-- Generator: Sketch 57.1 (83088) - https://sketch.com -->
    <title>regular/copy-regular</title>
    <desc>Created with Sketch.</desc>
    <g id="regular/copy" stroke="none" stroke-width="1" fill="none" fill-rule="evenodd">
        <path d="M79.5,-0.000130791556 L29.5,-0.000130791556 C27.8690351,-0.0106449019 26.301071,0.62911694 25.1430977,1.77770632 C23.9851244,2.92629571 23.3326259,4.48900247 23.33,6.11999996 L23.33,9.82999996 L19.58,9.82999996 C16.2243918,9.83550548 13.5055055,12.5543918 13.5,15.91 L13.5,93.91 C13.5,97.2695128 16.2204917,99.9944836 19.58,100 L69.74,100 C73.0956082,99.9944945 75.8144945,97.2756082 75.82,93.92 L75.82,90.17 L79.5,90.17 C82.8776996,90.1644944 85.6144944,87.4276996 85.62,84.05 L85.62,6.11999996 C85.6144944,2.74230042 82.8776996,0.00550558368 79.5,-0.000130791556 Z M71.06,93.92 C71.054556,94.646749 70.466749,95.234556 69.74,95.24 L19.58,95.24 C18.8509841,95.24 18.26,94.6490159 18.26,93.92 L18.26,15.92 C18.26,15.1909841 18.8509841,14.6 19.58,14.6 L69.74,14.6 C70.466749,14.605444 71.054556,15.193251 71.06,15.92 L71.06,93.92 Z M80.8900001,84.05 C80.8900001,84.415953 80.742693,84.7664996 80.4811178,85.0224292 C80.2195426,85.2783589 79.8658639,85.4180725 79.5,85.4103314 L75.82,85.4103314 L75.82,15.91 C75.8144945,12.5543918 73.0956082,9.83550548 69.74,9.82999996 L28.0899997,9.82999996 L28.0899997,6.11999996 C28.0899997,5.75047296 28.2398785,5.39675296 28.5058468,5.14021617 C28.7718151,4.88367938 29.1307227,4.74641432 29.5,4.75999995 L79.5,4.75999995 C80.2511073,4.75999995 80.86,5.3688927 80.86,6.11999996 L80.8900001,84.05 Z" id="copy" fill="#000000"></path>
    </g>
</svg>