<?xml version="1.0" encoding="UTF-8"?>
<svg width="100px" height="100px" viewBox="0 0 100 100" version="1.1" xmlns="http://www.w3.org/2000/svg" xmlns:xlink="http://www.w3.org/1999/xlink">
    <!-- Generator: Sketch 57.1 (83088) - https://sketch.com -->
    <title>regular/credit-card-regular</title>
    <desc>Created with Sketch.</desc>
    <g id="regular/credit-card" stroke="none" stroke-width="1" fill="none" fill-rule="evenodd">
        <path d="M95.71,10.5 C98.0793016,10.5 100,12.4206984 100,14.79 L100,85.05 C100,87.4193016 98.0793016,89.34 95.71,89.34 L4.28999995,89.34 C1.92069838,89.34 -4.99995991e-08,87.4193016 -4.99995991e-08,85.05 L-4.99995991e-08,14.79 C-4.99995991e-08,12.4206984 1.92069838,10.5 4.28999995,10.5 L95.71,10.5 Z M95.24,43.04 L4.75999995,43.04 L4.75999995,84.58 L95.24,84.58 L95.24,43.04 Z M33.56,63.7598563 C34.8288954,63.7516507 35.9922512,64.4651756 36.56,65.6 C37.1295587,64.4668372 38.2917653,63.7540172 39.56,63.7598563 L72.89,63.7598563 C74.7268289,63.7654913 76.2145087,65.2531712 76.22,67.09 L76.22,73.61 C76.22,75.4491082 74.7291082,76.94 72.89,76.94 L39.63,76.94 C38.3611046,76.9483493 37.1977488,76.2348245 36.63,75.1 C36.0659193,76.2381827 34.900226,76.9531412 33.63,76.94 L27.11,76.94 C25.2708918,76.94 23.78,75.4491082 23.78,73.61 L23.78,67.09 C23.7854913,65.2531712 25.2731711,63.7654913 27.11,63.7598563 L33.56,63.7598563 Z M71.46,68.5 L41,68.5 L41,72.16 L71.46,72.16 L71.46,68.5 Z M32.2,68.5 L28.54,68.5 L28.54,72.16 L32.2,72.16 L32.2,68.5 Z M95.24,30.17 L4.75999995,30.17 L4.75999995,38.28 L95.24,38.28 L95.24,30.17 Z M95.24,15.26 L4.75999995,15.26 L4.75999995,25.4 L95.24,25.4 L95.24,15.26 Z" id="Shape" fill="#000000"></path>
    </g>
</svg>