<?xml version="1.0" encoding="UTF-8"?>
<svg width="100px" height="100px" viewBox="0 0 100 100" version="1.1" xmlns="http://www.w3.org/2000/svg" xmlns:xlink="http://www.w3.org/1999/xlink">
    <!-- Generator: Sketch 57.1 (83088) - https://sketch.com -->
    <title>bold/credit-card-bold</title>
    <desc>Created with Sketch.</desc>
    <g id="bold/credit-card" stroke="none" stroke-width="1" fill="none" fill-rule="evenodd">
        <path d="M93.64,9.99999996 C97.1502477,10.0055062 99.9944938,12.8497523 100,16.36 L100,83.44 C100,86.952531 97.1525311,89.8 93.64,89.8 L6.35999996,89.8 C2.84746894,89.8 -4.99996062e-08,86.952531 -4.99996062e-08,83.44 L-4.99996062e-08,16.36 C0.00550623107,12.8497523 2.84975225,10.0055062 6.35999996,9.99999996 L93.64,9.99999996 Z M90.91,45.61 L9.08999996,45.61 L9.08999996,80.71 L90.91,80.71 L90.91,45.61 Z M34.34,60.84 C35.338747,60.8428138 36.3175901,61.1195186 37.17,61.64 C38.0224099,61.1195186 39.0012529,60.8428138 40,60.84 L71.85,60.84 C74.8576693,60.8455035 77.2944965,63.2823307 77.3,66.29 L77.3,72.54 C77.3,75.5515738 74.8615688,77.9944843 71.85,78 L40,78 C39.0114539,77.9917329 38.0436991,77.7152316 37.2,77.2 C36.3475901,77.7204815 35.368747,77.9971862 34.37,78 L28.15,78 C26.6984389,77.9973634 25.3076748,77.4168264 24.2850241,76.3866701 C23.2623734,75.3565137 22.692022,73.9615415 22.6998365,72.51 L22.6998365,66.29 C22.7055035,63.2823307 25.1423307,60.8455035 28.15,60.84 L34.34,60.84 Z M90.91,33.32 L9.08999996,33.32 L9.08999996,36.52 L90.91,36.52 L90.91,33.32 Z M90.91,19.09 L9.08999996,19.09 L9.08999996,24.23 L90.91,24.23 L90.91,19.09 Z" id="Shape" fill="#000000"></path>
    </g>
</svg>