<svg width="100" height="100" viewBox="0 0 100 100" fill="none" xmlns="http://www.w3.org/2000/svg">
<path d="M100 15.2941V27.6471H0V15.2941C0.00646996 12.3729 2.37294 10.0065 5.29412 10H94.7059C97.6271 10.0065 99.9935 12.3729 100 15.2941Z" fill="black"/>
<path fill-rule="evenodd" clip-rule="evenodd" d="M0 83.7882V40.3882H100V83.7882C100 86.712 97.6297 89.0823 94.7059 89.0823H5.29412C2.37026 89.0823 0 86.712 0 83.7882ZM30.8706 73.8941C31.5203 73.8941 32.0471 73.3673 32.0471 72.7176V66.7529C32.0471 66.1031 31.5203 65.5764 30.8706 65.5764H24.8941C24.2444 65.5764 23.7176 66.1031 23.7176 66.7529V72.7176C23.7176 73.3673 24.2444 73.8941 24.8941 73.8941H30.8706ZM75.1059 73.8941C75.7556 73.8941 76.2824 73.3673 76.2824 72.7176V66.7529C76.2824 66.1031 75.7556 65.5764 75.1059 65.5764H42.6353C41.9855 65.5764 41.4588 66.1031 41.4588 66.7529V72.7176C41.4588 73.3673 41.9855 73.8941 42.6353 73.8941H75.1059Z" fill="black"/>
</svg>
