<svg width="100" height="100" viewBox="0 0 100 100" fill="none" xmlns="http://www.w3.org/2000/svg">
<g clip-path="url(#clip0)">
<path d="M91.6667 71.3021H87.9688V22.4479C87.9688 16.695 83.3051 12.0312 77.5521 12.0312H28.6979V8.33333C28.6979 3.73096 24.967 0 20.3646 0C15.7622 0 12.0312 3.73096 12.0312 8.33333V12.0312H8.33333C3.73096 12.0312 0 15.7622 0 20.3646C0 24.967 3.73096 28.6979 8.33333 28.6979H12.0312V77.5521C12.0312 83.3051 16.695 87.9688 22.4479 87.9688H71.3021V91.6667C71.3021 96.269 75.033 100 79.6354 100C84.2378 100 87.9688 96.269 87.9688 91.6667V87.9688H91.6667C96.269 87.9688 100 84.2378 100 79.6354C100 75.033 96.269 71.3021 91.6667 71.3021ZM28.6979 71.3021V28.6979H71.3021V71.3021H28.6979Z" fill="black"/>
</g>
<defs>
<clipPath id="clip0">
<rect width="100" height="100" fill="white"/>
</clipPath>
</defs>
</svg>
