<svg width="100" height="100" viewBox="0 0 100 100" fill="none" xmlns="http://www.w3.org/2000/svg">
<g clip-path="url(#clip0)">
<path d="M97.0571 80.518H86.4626V18.8346C86.4561 15.9117 84.0883 13.5438 81.1654 13.5374H19.4232V2.94291C19.4232 1.31758 18.1056 0 16.4803 0C14.855 0 13.5374 1.31758 13.5374 2.94291V13.5962H2.94291C1.31758 13.5962 0 14.9138 0 16.5391C0 18.1645 1.31758 19.482 2.94291 19.482H13.5962V81.1654C13.6027 84.0883 15.9706 86.4561 18.8935 86.4626H80.5768V97.0571C80.5768 98.6824 81.8944 100 83.5197 100C85.145 100 86.4626 98.6824 86.4626 97.0571V86.4626H97.0571C98.6824 86.4626 100 85.145 100 83.5197C100 81.8944 98.6824 80.5768 97.0571 80.5768V80.518ZM19.4232 80.518V19.4232H80.518V80.518H19.4232Z" fill="black"/>
</g>
<defs>
<clipPath id="clip0">
<rect width="100" height="100" fill="white"/>
</clipPath>
</defs>
</svg>
