<?xml version="1.0" encoding="UTF-8"?>
<svg width="100px" height="100px" viewBox="0 0 100 100" version="1.1" xmlns="http://www.w3.org/2000/svg" xmlns:xlink="http://www.w3.org/1999/xlink">
    <!-- Generator: Sketch 57.1 (83088) - https://sketch.com -->
    <title>solid/crop-solid</title>
    <desc>Created with Sketch.</desc>
    <g id="solid/crop" stroke="none" stroke-width="1" fill="none" fill-rule="evenodd">
        <path d="M91.2574258,71.5841584 L87.6237624,71.5841584 L87.6237624,22.7722772 C87.6237624,17.3041114 83.1909382,12.8712871 77.7227723,12.8712871 L28.9108911,12.8712871 L28.9108911,9.23762372 C28.910891,4.67170529 25.2094828,0.970297104 20.6435643,0.970297104 C16.0776459,0.970297104 12.3762377,4.67170529 12.3762376,9.23762372 L12.3762376,12.8712871 L8.74257422,12.8712871 C4.29606372,13.0253264 0.771036876,16.6745845 0.771036876,21.1237623 C0.771036876,25.5729402 4.29606372,29.2221983 8.74257422,29.3762376 L12.3762376,29.3762376 L12.3762376,78.2178218 C12.3762376,83.6859877 16.8090618,88.1188119 22.2772277,88.1188119 L71.0891089,88.1188119 L71.0891089,91.7821783 C71.2431483,96.2286888 74.8924063,99.7537156 79.3415842,99.7537156 C83.7907621,99.7537156 87.4400201,96.2286888 87.5940594,91.7821783 L87.5940594,88.1188119 L91.2574258,88.1188119 C95.7039363,87.9647726 99.2289631,84.3155145 99.2289631,79.8663367 C99.2289631,75.4171588 95.7039363,71.7679007 91.2574258,71.6138614 L91.2574258,71.5841584 Z" id="crop" fill="#000000"></path>
    </g>
</svg>