<?xml version="1.0" encoding="UTF-8"?>
<svg width="100px" height="100px" viewBox="0 0 100 100" version="1.1" xmlns="http://www.w3.org/2000/svg" xmlns:xlink="http://www.w3.org/1999/xlink">
    <!-- Generator: Sketch 57.1 (83088) - https://sketch.com -->
    <title>solid/cross-solid</title>
    <desc>Created with Sketch.</desc>
    <g id="solid/cross" stroke="none" stroke-width="1" fill="none" fill-rule="evenodd">
        <path d="M61.79,50 L97.56,14.23 C100.663413,10.9493822 100.591885,5.79460483 97.3986399,2.60136008 C94.2053952,-0.591884668 89.0506178,-0.663412855 85.77,2.43999995 L50,38.21 L14.23,2.43999995 C10.9493822,-0.663412855 5.79460483,-0.591884668 2.60136008,2.60136008 C-0.591884668,5.79460483 -0.663412855,10.9493822 2.43999995,14.23 L38.21,50 L2.43999995,85.77 C-0.663412855,89.0506178 -0.591884668,94.2053952 2.60136008,97.3986399 C5.79460483,100.591885 10.9493822,100.663413 14.23,97.56 L50,61.79 L85.77,97.56 C89.0506178,100.663413 94.2053952,100.591885 97.3986399,97.3986399 C100.591885,94.2053952 100.663413,89.0506178 97.56,85.77 L61.79,50 Z" id="cross" fill="#000000"></path>
    </g>
</svg>