<?xml version="1.0" encoding="UTF-8"?>
<svg width="100px" height="100px" viewBox="0 0 100 100" version="1.1" xmlns="http://www.w3.org/2000/svg" xmlns:xlink="http://www.w3.org/1999/xlink">
    <!-- Generator: Sketch 57.1 (83088) - https://sketch.com -->
    <title>regular/crosshair-regular</title>
    <desc>Created with Sketch.</desc>
    <g id="regular/crosshair" stroke="none" stroke-width="1" fill="none" fill-rule="evenodd">
        <path d="M50,78.89 C51.3144377,78.89 52.38,79.9555623 52.38,81.27 L52.38,97.62 C52.38,98.9344378 51.3144377,100 50,100 C48.6855623,100 47.62,98.9344378 47.62,97.62 L47.62,81.27 C47.62,79.9555623 48.6855623,78.89 50,78.89 Z M12.5073943,57.9156415 C13.328876,58.1362153 13.9702816,58.7782891 14.19,59.6 C17.6515994,72.4898775 27.7717133,82.5259754 40.69,85.88 C41.8627697,86.1705452 42.6317547,87.2937206 42.4784341,88.4921771 C42.3251134,89.6906336 41.2981423,90.5840491 40.09,90.5703231 C39.8875261,90.567345 39.6860962,90.5404877 39.49,90.49 C24.9112376,86.7058356 13.4915313,75.3777925 9.58999996,60.83 C9.37028159,60.0082891 9.60563099,59.1317786 10.2073943,58.5306415 C10.8091576,57.9295044 11.6859127,57.6950677 12.5073943,57.9156415 Z M89.7926057,58.5306415 C90.394369,59.1317786 90.6297184,60.0082891 90.41,60.83 C86.5275665,75.2577762 75.2577762,86.5275665 60.83,90.41 C60.627128,90.4605826 60.4190671,90.4874291 60.21,90.49 C59.0151905,90.4890565 58.00627,89.6024005 57.8518425,88.4176125 C57.697415,87.2328244 58.4453514,86.1171764 59.6,85.81 C72.382477,82.3671756 82.3671756,72.382477 85.81,59.6 C86.0297184,58.7782891 86.671124,58.1362153 87.4926057,57.9156415 C88.3140873,57.6950677 89.1908424,57.9295044 89.7926057,58.5306415 Z M18.73,47.62 C19.5802921,47.62 20.3659945,48.0736254 20.7911406,48.81 C21.2162866,49.5463745 21.2162866,50.4536255 20.7911406,51.19 C20.3659945,51.9263746 19.5802921,52.38 18.73,52.38 L2.37999995,52.38 C1.52970781,52.38 0.744005455,51.9263746 0.318859371,51.19 C-0.106286713,50.4536255 -0.106286713,49.5463745 0.318859371,48.81 C0.744005455,48.0736254 1.52970781,47.62 2.37999995,47.62 L18.73,47.62 Z M97.62,47.62 C98.9344377,47.62 99.9999999,48.6855623 99.9999999,50 C99.9999999,51.3144377 98.9344377,52.38 97.62,52.38 L81.27,52.38 C80.4197079,52.38 79.6340055,51.9263746 79.2088594,51.19 C78.7837134,50.4536255 78.7837134,49.5463745 79.2088594,48.81 C79.6340055,48.0736254 80.4197079,47.62 81.27,47.62 L97.62,47.62 Z M60.51,9.50999996 C75.086614,13.2979364 86.5047141,24.6243862 90.41,39.17 C90.7470767,40.4426729 89.9914341,41.7482802 88.72,42.09 C88.5206405,42.1411873 88.3158169,42.1680495 88.11,42.1700221 C87.0294879,42.1732844 86.0835437,41.4453187 85.81,40.4 C82.3484006,27.5101225 72.2282867,17.4740246 59.31,14.12 C58.0369837,13.7886291 57.2736292,12.4880163 57.605,11.215 C57.9363709,9.94198361 59.2369837,9.17862911 60.51,9.50999996 Z M42.085,11.275 C42.4246551,12.5452549 41.6702549,13.8503448 40.4,14.19 C27.617523,17.6328244 17.6328244,27.617523 14.19,40.4 C13.9164563,41.4453187 12.9705121,42.1732844 11.89,42.1700221 C11.6841831,42.1680495 11.4793595,42.1411873 11.28,42.09 C10.0085659,41.7482802 9.25292334,40.4426729 9.58999996,39.17 C13.4761112,24.74435 24.74435,13.4761112 39.17,9.58999996 C40.4402549,9.25034484 41.7453449,10.004745 42.085,11.275 Z M50,-4.9999997e-08 C51.3144377,-4.9999997e-08 52.3800421,1.06556225 52.3800421,2.37999995 L52.3800421,18.73 C52.3826725,19.3620307 52.1327815,19.968947 51.6858643,20.4158642 C51.238947,20.8627814 50.6320307,21.1126724 50,21.1100421 C49.3679693,21.1126724 48.761053,20.8627814 48.3141357,20.4158642 C47.8672185,19.968947 47.6173275,19.3620307 47.6199579,18.73 L47.6199579,2.37999995 C47.6199579,1.06556225 48.6855623,-4.9999997e-08 50,-4.9999997e-08 Z" id="Shape" fill="#000000"></path>
    </g>
</svg>