<?xml version="1.0" encoding="UTF-8"?>
<svg width="100px" height="100px" viewBox="0 0 100 100" version="1.1" xmlns="http://www.w3.org/2000/svg" xmlns:xlink="http://www.w3.org/1999/xlink">
    <!-- Generator: Sketch 57.1 (83088) - https://sketch.com -->
    <title>regular/cross-regular</title>
    <desc>Created with Sketch.</desc>
    <g id="regular/cross" stroke="none" stroke-width="1" fill="none" fill-rule="evenodd">
        <path d="M52.8415842,50.4950495 L98.3168317,5.00990095 C98.9708704,4.42865227 99.2489901,3.53286049 99.039149,2.6833999 C98.8293078,1.83393932 98.1660607,1.17069219 97.3166001,0.960851024 C96.4671395,0.751009859 95.5713477,1.02912959 94.9900991,1.68316827 L49.5049505,47.1584158 L4.01980193,1.68316827 C3.08726147,0.854413139 1.67037415,0.896122407 0.788198773,1.77829778 C-0.0939766041,2.66047316 -0.135685872,4.07736048 0.693069258,5.00990095 L46.1683168,50.4950495 L0.693069258,95.9801981 C0.250485377,96.420589 0.00165916375,97.019205 0.00165916375,97.6435644 C0.00165916375,98.2679238 0.250485377,98.8665398 0.693069258,99.3069307 C1.13346019,99.7495146 1.73207619,99.9983408 2.3564356,99.9983408 C2.980795,99.9983408 3.579411,99.7495146 4.01980193,99.3069307 L49.5049505,53.8316832 L94.9900991,99.3069307 C95.43049,99.7495146 96.029106,99.9983408 96.6534654,99.9983408 C97.2778248,99.9983408 97.8764408,99.7495146 98.3168317,99.3069307 C98.7594156,98.8665398 99.0082418,98.2679238 99.0082418,97.6435644 C99.0082418,97.019205 98.7594156,96.420589 98.3168317,95.9801981 L52.8415842,50.4950495 Z" id="cross" fill="#000000"></path>
    </g>
</svg>