<svg width="100" height="100" viewBox="0 0 100 100" fill="none" xmlns="http://www.w3.org/2000/svg">
<path d="M100 49.9767C100 45.3798 96.269 41.6533 91.6667 41.6533C91.7436 40.7302 91.659 39.8008 91.4167 38.9066C87.4203 24.0095 75.709 12.4116 60.7604 8.5472C59.9692 8.3386 59.1509 8.25091 58.3333 8.2871C58.3132 3.69024 54.5659 -0.0199492 49.9635 8.07199e-05C45.3612 0.0202733 41.6465 3.76307 41.6667 8.35993C40.7419 8.29184 39.8122 8.37977 38.9167 8.62003C24.1272 12.5862 12.5751 24.1244 8.60417 38.8962C8.35364 39.7924 8.26198 40.7255 8.33333 41.6533C3.73096 41.6533 0 45.3798 0 49.9767C0 54.5735 3.73096 58.3 8.33333 58.3C8.25643 59.2231 8.34102 60.1526 8.58333 61.0467C12.5836 75.9416 24.2932 87.5378 39.2396 91.4061C39.9193 91.5864 40.6196 91.6774 41.3229 91.6767C41.4375 91.6767 41.5417 91.6767 41.6562 91.6767C41.6562 96.2735 45.3872 100 49.9896 100C54.592 100 58.3229 96.2735 58.3229 91.6767C58.5208 91.6767 58.7188 91.6767 58.9167 91.6767C59.6445 91.6755 60.3692 91.5811 61.0729 91.3957C75.8569 87.42 87.4049 75.8858 91.3854 61.1196C91.6468 60.204 91.7421 59.2491 91.6667 58.3C96.269 58.3 100 54.5735 100 49.9767ZM57.9688 74.8843C56.897 71.3854 53.6633 68.9959 50 68.9959C46.3367 68.9959 43.103 71.3854 42.0312 74.8843C33.9656 72.305 27.6449 65.9919 25.0625 57.9359C28.5655 56.8655 30.9579 53.6356 30.9579 49.9767C30.9579 46.3177 28.5655 43.0879 25.0625 42.0175C27.6479 33.9633 33.9674 27.6514 42.0312 25.069C43.103 28.5679 46.3367 30.9574 50 30.9574C53.6633 30.9574 56.897 28.5679 57.9688 25.069C66.0344 27.6483 72.3551 33.9615 74.9375 42.0175C71.4345 43.0879 69.0421 46.3177 69.0421 49.9767C69.0421 53.6356 71.4345 56.8655 74.9375 57.9359C72.3521 65.99 66.0326 72.302 57.9688 74.8843Z" fill="black"/>
</svg>
