<?xml version="1.0" encoding="UTF-8"?>
<svg width="100px" height="100px" viewBox="0 0 100 100" version="1.1" xmlns="http://www.w3.org/2000/svg" xmlns:xlink="http://www.w3.org/1999/xlink">
    <!-- Generator: Sketch 57.1 (83088) - https://sketch.com -->
    <title>bold/crosshair-bold</title>
    <desc>Created with Sketch.</desc>
    <g id="bold/crosshair" stroke="none" stroke-width="1" fill="none" fill-rule="evenodd">
        <path d="M50,75.29 C52.5128956,75.29 54.55,77.3271044 54.55,79.84 L54.55,95.45 C54.55,97.9628957 52.5128956,100 50,100 C47.4871044,100 45.45,97.9628957 45.45,95.45 L45.45,79.84 C45.45,77.3271044 47.4871044,75.29 50,75.29 Z M18,58.57 C21.0880829,70.0904912 30.1337313,79.0597405 41.68,82.05 C44.0048456,82.5323763 45.5679209,84.7213364 45.2695525,87.0768767 C44.9711841,89.432417 42.9116942,91.1625188 40.54,91.05 L40.54,91 C40.1551639,90.9987344 39.7720649,90.9483266 39.4,90.85 C24.6903457,87.0289826 13.1683751,75.5986684 9.22999996,60.92 C8.76727569,58.5710297 10.2040109,56.2653059 12.5165405,55.6456429 C14.8290701,55.0259799 17.2262045,56.304384 18,58.57 Z M87.5504116,55.4232691 C89.9492388,56.0645938 91.3909099,58.5107311 90.79,60.92 C86.8671742,75.4837499 75.4863741,86.8569298 60.92,90.77 C60.5344661,90.8690391 60.1380513,90.9194308 59.74,90.92 C57.4701801,90.9077938 55.5581702,89.2210768 55.2629715,86.9705015 C54.9677727,84.7199262 56.3801092,82.5971683 58.57,82 C70.0030353,78.9333313 78.9333313,70.0030353 82,58.57 C82.6815583,56.1822924 85.1515844,54.7819444 87.5504116,55.4232691 Z M20.16,45.45 C22.6728956,45.45 24.71,47.4871044 24.71,50 C24.71,52.5128956 22.6728956,54.55 20.16,54.55 L4.54999995,54.55 C2.03710434,54.55 -4.99990378e-08,52.5128956 -4.99990378e-08,50 C-4.99990378e-08,47.4871044 2.03710434,45.45 4.54999995,45.45 L20.16,45.45 Z M95.45,45.45 C97.9628957,45.45 100,47.4871044 100,50 C100,52.5128956 97.9628957,54.55 95.45,54.55 L79.85,54.55 C77.3371044,54.55 75.3,52.5128956 75.3,50 C75.3,47.4871044 77.3371044,45.45 79.85,45.45 L95.45,45.45 Z M60.6,9.19999996 C75.2969086,13.012157 86.8160723,24.4205962 90.77,39.08 C91.0812017,40.2443334 90.9166746,41.4846262 90.3126753,42.5275565 C89.7086761,43.5704869 88.7147762,44.3304594 87.55,44.64 C87.1658352,44.7470485 86.7687997,44.8008838 86.37,44.8000212 C84.3206065,44.7890352 82.5314694,43.4093116 82,41.43 C78.8963526,29.9287753 69.8535165,20.9814083 58.32,18 C56.6810871,17.6541392 55.3647331,16.4357785 54.8933714,14.8284599 C54.4220098,13.2211412 54.8718749,11.4848198 56.0644246,10.3086054 C57.2569744,9.13239105 58.9993351,8.70651552 60.6,9.19999996 Z M44.5896391,12.4534946 C45.2333226,14.8556666 43.8245766,17.3286125 41.43,18 C29.9969647,21.0666687 21.0666687,29.9969647 18,41.43 C17.4685306,43.4093116 15.6793935,44.7890352 13.63,44.8000212 C13.2312003,44.8008838 12.8341648,44.7470485 12.45,44.64 C11.2852238,44.3304594 10.2913239,43.5704869 9.68732466,42.5275565 C9.08332542,41.4846262 8.91879831,40.2443334 9.22999996,39.08 C13.1492428,24.5213228 24.5213228,13.1492428 39.08,9.22999996 C41.4894467,8.61410634 43.9459556,10.0513227 44.5896391,12.4534946 Z M50,-4.99999722e-08 C52.5128956,-4.99999722e-08 54.55,2.03710434 54.55,4.54999995 L54.55,20.15 C54.55,22.6628956 52.5128956,24.7 50,24.7 C47.4871044,24.7 45.45,22.6628956 45.45,20.15 L45.45,4.54999995 C45.45,2.03710434 47.4871044,-4.99999722e-08 50,-4.99999722e-08 Z" id="Shape" fill="#000000"></path>
    </g>
</svg>