<?xml version="1.0" encoding="UTF-8"?>
<svg width="100px" height="100px" viewBox="0 0 100 100" version="1.1" xmlns="http://www.w3.org/2000/svg" xmlns:xlink="http://www.w3.org/1999/xlink">
    <!-- Generator: Sketch 57.1 (83088) - https://sketch.com -->
    <title>bold/curly-brackets-bold</title>
    <desc>Created with Sketch.</desc>
    <g id="bold/curly-brackets" stroke="none" stroke-width="1" fill="none" fill-rule="evenodd">
        <path d="M39.9901961,0.980392108 C41.6319935,0.903359955 43.1831423,1.73539674 44.0270883,3.14578248 C44.8710342,4.55616823 44.8710342,6.31638071 44.0270883,7.72676645 C43.1831423,9.13715219 41.6319935,9.96918897 39.9901961,9.89215682 L34.7254902,9.89215682 C31.0241725,9.89755627 28.0250073,12.8967215 28.0196078,16.5980392 L28.0196078,42.1568627 C28.0235657,45.0225091 27.0207442,47.7984856 25.1862745,50 C27.0207442,52.2015144 28.0235657,54.9774909 28.0196078,57.8431373 L28.0196078,83.4019608 C28.0250073,87.1032785 31.0241725,90.1024437 34.7254902,90.1078432 L39.9901961,90.1078432 C41.6319935,90.030811 43.1831423,90.8628478 44.0270883,92.2732336 C44.8710342,93.6836193 44.8710342,95.4438318 44.0270883,96.8542175 C43.1831423,98.2646033 41.6319935,99.09664 39.9901961,99.0196079 L34.7254902,99.0196079 C26.1195475,98.9766595 19.1551913,92.0079288 19.117647,83.4019608 L19.117647,57.8431373 C19.120251,56.9460803 18.7663918,56.0847305 18.1339154,55.4485769 C17.5014389,54.8124233 16.6421549,54.4535768 15.745098,54.4509804 C13.2814749,54.4509804 11.2843137,52.4538192 11.2843137,49.9901961 C11.2843137,47.5265729 13.2814749,45.5294118 15.745098,45.5294118 C17.6054705,45.5240271 19.1122624,44.0172352 19.117647,42.1568627 L19.117647,16.5980392 C19.1551913,7.99207122 26.1195475,1.02334046 34.7254902,0.980392108 L39.9901961,0.980392108 Z M59.2767383,0.97547103 L59.5,0.980392108 L64.7647059,0.980392108 C73.3744775,1.01797818 80.3447669,7.98826759 80.382353,16.5980392 L80.382353,42.1568627 C80.3797479,43.0530158 80.7339186,43.9133576 81.3666768,44.5479553 C81.999435,45.1825529 82.8587451,45.5392195 83.754902,45.5392157 L83.754902,45.5490196 C86.2185251,45.5490196 88.2156863,47.5461808 88.2156863,50.0098039 C88.2156863,52.4734271 86.2185251,54.4705882 83.754902,54.4705882 C81.8922946,54.4705882 80.382353,55.9805299 80.382353,57.8431373 L80.382353,83.4019608 C80.3447669,92.0117324 73.3744775,98.9820218 64.7647059,99.0196079 L59.5,99.0196079 C57.8582026,99.09664 56.3070537,98.2646033 55.4631078,96.8542175 C54.6191619,95.4438318 54.6191619,93.6836193 55.4631078,92.2732336 C56.3070537,90.8628478 57.8582026,90.030811 59.5,90.1078432 L64.7647059,90.1078432 C68.4660236,90.1024437 71.4651888,87.1032785 71.4705883,83.4019608 L71.4705883,57.8431373 C71.4630439,54.9785673 72.4624454,52.202452 74.2941177,50 C72.4624454,47.797548 71.4630439,45.0214327 71.4705883,42.1568627 L71.4705883,16.5980392 C71.4651888,12.8967215 68.4660236,9.89755627 64.7647059,9.89215682 L59.5,9.89215682 C57.8582026,9.96918897 56.3070537,9.13715219 55.4631078,7.72676645 C54.6191619,6.31638071 54.6191619,4.55616823 55.4631078,3.14578248 C56.3070537,1.73539674 57.8582026,0.903359955 59.5,0.980392108 L59.2767383,0.97547103 Z" id="Shape" fill="#000000"></path>
    </g>
</svg>