<?xml version="1.0" encoding="UTF-8"?>
<svg width="100px" height="100px" viewBox="0 0 100 100" version="1.1" xmlns="http://www.w3.org/2000/svg" xmlns:xlink="http://www.w3.org/1999/xlink">
    <!-- Generator: Sketch 57.1 (83088) - https://sketch.com -->
    <title>solid/curly-brackets-solid</title>
    <desc>Created with Sketch.</desc>
    <g id="solid/curly-brackets" stroke="none" stroke-width="1" fill="none" fill-rule="evenodd">
        <path d="M40.5,-5.00000183e-08 C44.9909756,0.15557968 48.5512527,3.84133031 48.5512527,8.33499996 C48.5512527,12.8286696 44.9909756,16.5144202 40.5,16.67 L35.6,16.67 C35.0430454,16.67 34.5089021,16.8912493 34.1150757,17.2850757 C33.7212493,17.6789021 33.5,18.2130453 33.5,18.77 L33.5,42.68 C33.495081,45.2338276 32.8632556,47.7473937 31.66,49.9999999 C32.8597797,52.253499 33.4881591,54.7670163 33.49,57.32 L33.49,81.23 C33.49,82.389798 34.430202,83.33 35.59,83.33 L40.5,83.33 C44.9909756,83.4855798 48.5512527,87.1713304 48.5512527,91.665 C48.5512527,96.1586697 44.9909756,99.8444203 40.5,100.000022 L35.59,100.000022 C25.2242591,100.01107 16.8075772,91.6257101 16.78,81.26 L16.78,58.26 C16.6417367,58.2472437 16.5046634,58.223841 16.37,58.19 L16.07,58.14 L15.5,57.9999999 L15.34,57.93 C15.09,57.85 14.84,57.76 14.6,57.66 L14.44,57.59 L13.9,57.33 L13.65,57.18 L13.23,56.93 L12.98,56.74 L12.61,56.47 L12.36,56.25 L12.03,55.96 L11.8,55.72 L11.5,55.39 L11.29,55.13 C11.2,55.01 11.1,54.87 11.03,54.78 C10.96,54.69 10.92,54.62 10.84,54.4999999 C10.76,54.38 10.68,54.25 10.61,54.12 C10.5507605,54.0267116 10.4973259,53.9298614 10.45,53.83 L10.25,53.43 C10.21,53.32 10.18,53.26 10.12,53.12 C10.06,52.98 9.95999996,52.83 9.95999996,52.69 L9.84999996,52.37 L9.72999996,51.91 C9.65999996,51.81 9.68999996,51.77 9.65999996,51.6 C9.62999996,51.43 9.57999996,51.16 9.57999996,51.07 L9.57999996,49.16 C9.57999996,49.07 9.55999996,49.07 9.57999996,48.89 C9.59999996,48.71 9.63999996,48.47 9.65999996,48.36 C9.67999996,48.25 9.72999996,48.15 9.72999996,48.05 L9.84999996,47.59 L9.95999996,47.27 C10.01,47.13 10.08,46.94 10.12,46.84 C10.16,46.74 10.25,46.64 10.25,46.53 L10.45,46.13 C10.4973259,46.0301386 10.5507605,45.9332884 10.61,45.84 C10.68,45.71 10.78,45.55 10.84,45.46 C10.9,45.37 10.95,45.3 11.03,45.18 C11.11,45.06 11.2,44.95 11.29,44.83 L11.5,44.57 L11.8,44.24 L12.03,43.9999999 L12.32,43.74 L12.57,43.52 L12.94,43.25 L13.19,43.06 L13.62,42.81 C13.6964373,42.7574774 13.7766563,42.710683 13.86,42.67 C14.0348632,42.5700734 14.2151407,42.4799346 14.4,42.4 L14.56,42.33 C14.8,42.23 15.05,42.14 15.3,42.06 L15.5,41.9999999 L16.11,41.89 L16.41,41.84 C16.5446634,41.806159 16.6817367,41.7827563 16.82,41.77 L16.82,18.77 C16.8310232,8.4081846 25.2281846,0.0110231672 35.59,-5.00000183e-08 L40.5,-5.00000183e-08 Z M63.68,-5.00000183e-08 C74.0340216,0.0109972864 82.4279643,8.39599594 82.45,18.75 L82.45,41.75 C82.5914514,41.7635849 82.7317888,41.7869744 82.87,41.82 L83.16,41.87 C83.3559283,41.9093674 83.549552,41.9594425 83.74,42.02 L83.93,42.02 C84.18,42.1 84.43,42.19 84.67,42.29 L84.81,42.35 L85.37,42.63 L85.6,42.76 C85.75,42.85 85.9,42.93 86.04,43.03 L86.29,43.2 L86.66,43.48 L86.91,43.69 L87.24,43.9999999 L87.51,44.26 L87.81,44.59 L88.02,44.85 C88.11,44.96 88.21,45.11 88.28,45.2 C88.35,45.29 88.39,45.36 88.47,45.48 C88.55,45.6 88.63,45.73 88.7,45.86 C88.7592395,45.9532884 88.8126741,46.0501386 88.86,46.15 C88.93,46.28 89.02,46.44 89.06,46.55 C89.1,46.66 89.13,46.72 89.19,46.86 C89.25,46.9999999 89.31,47.18 89.35,47.29 C89.39,47.4 89.46,47.4999999 89.46,47.6 L89.58,48.07 C89.65,48.18 89.57,48.21 89.65,48.38 C89.73,48.55 89.73,48.82 89.73,48.91 L89.73,49.18 L89.74,49.19 C89.7933016,49.7353674 89.7933016,50.2846326 89.74,50.83 C89.74,50.92 89.76,50.92 89.74,51.1 C89.72,51.28 89.73,51.53 89.66,51.63 C89.59,51.73 89.59,51.83 89.59,51.94 L89.47,52.41 C89.44,52.51 89.41,52.58 89.36,52.72 C89.31,52.86 89.24,53.05 89.2,53.15 L89.17125,53.2223438 C89.143125,53.293125 89.115,53.3625 89.07,53.46 C89.01,53.59 88.94,53.73 88.87,53.86 C88.8226741,53.9598614 88.7692395,54.0567116 88.71,54.15 C88.64,54.28 88.54,54.44 88.48,54.53 C88.42,54.62 88.37,54.69 88.29,54.81 C88.21,54.93 88.12,55.05 88.03,55.16 L87.82,55.42 L87.52,55.75 L87.29,55.98 L86.96,56.29 L86.71,56.4999999 L86.34,56.78 L86.09,56.95 C85.95,57.05 85.8,57.13 85.66,57.22 L85.42,57.35 L84.86,57.63 L84.72,57.69 C84.48,57.79 84.23,57.88 83.98,57.96 L83.79,57.96 C83.599552,58.0205575 83.4059283,58.0706326 83.21,58.11 L82.92,58.16 C82.7817888,58.1930256 82.6414514,58.2164151 82.5,58.23 L82.5,81.23 C82.4947002,86.2151537 80.508586,90.9938756 76.9788624,94.5142216 C73.4491387,98.0345677 68.6651501,100.007962 63.68,100.000048 L58.75,100.000048 C54.2590244,99.8444203 50.6987473,96.1586697 50.6987473,91.665 C50.6987473,87.1713304 54.2590244,83.4855798 58.75,83.33 L63.68,83.33 C64.839798,83.33 65.78,82.389798 65.78,81.23 L65.78,57.32 C65.7818409,54.7670163 66.4102203,52.253499 67.61,49.9999999 C66.4102203,47.746501 65.7818409,45.2329837 65.78,42.68 L65.78,18.77 C65.78,18.2130453 65.5587507,17.6789021 65.1649243,17.2850757 C64.7710979,16.8912493 64.2369546,16.67 63.68,16.67 L58.75,16.67 C54.2590244,16.5144202 50.6987473,12.8286696 50.6987473,8.33499996 C50.6987473,3.84133031 54.2590244,0.15557968 58.75,-5.00000183e-08 L63.68,-5.00000183e-08 Z" id="Shape" fill="#000000"></path>
    </g>
</svg>