<?xml version="1.0" encoding="UTF-8"?>
<svg width="100px" height="100px" viewBox="0 0 100 100" version="1.1" xmlns="http://www.w3.org/2000/svg" xmlns:xlink="http://www.w3.org/1999/xlink">
    <!-- Generator: Sketch 57.1 (83088) - https://sketch.com -->
    <title>regular/desktop-regular</title>
    <desc>Created with Sketch.</desc>
    <g id="regular/desktop" stroke="none" stroke-width="1" fill="none" fill-rule="evenodd">
        <path d="M92.86,14.5 L7.13999996,14.5 C3.19668684,14.5 -4.9999997e-08,17.6966869 -4.9999997e-08,21.64 L-4.9999997e-08,67.94 C-4.9999997e-08,71.8833131 3.19668684,75.08 7.13999996,75.08 L43.31,75.08 L41.69,80.73 C41.4010697,81.7350975 41.6010983,82.8175435 42.2301509,83.653004 C42.8592036,84.4884646 43.8441981,84.98 44.89,84.98 L55.11,84.98 C56.1558019,84.98 57.1407964,84.4884646 57.7698491,83.653004 C58.3989017,82.8175435 58.5989303,81.7350975 58.31,80.73 L56.69,75.08 L92.86,75.08 C96.8033132,75.08 100,71.8833131 100,67.94 L100,21.64 C100,17.6966869 96.8033132,14.5 92.86,14.5 Z M46.79,80.22 L48.27,75.08 L51.73,75.08 L53.21,80.22 L46.79,80.22 Z M95.24,67.94 C95.2345212,69.2521616 94.1721616,70.3145212 92.86,70.32 L7.13999996,70.32 C5.82783836,70.3145212 4.76547878,69.2521616 4.75999995,67.94 L4.75999995,64.64 L95.24,64.64 L95.24,67.94 Z M95.24,59.87 L4.75999995,59.87 L4.75999995,21.64 C4.76547878,20.3278384 5.82783836,19.2654788 7.13999996,19.26 L92.86,19.26 C94.1721616,19.2654788 95.2345212,20.3278384 95.24,21.64 L95.24,59.87 Z" id="desktop" fill="#000000"></path>
    </g>
</svg>