<svg width="100" height="100" viewBox="0 0 100 100" fill="none" xmlns="http://www.w3.org/2000/svg">
<path fill-rule="evenodd" clip-rule="evenodd" d="M57.2392 83.222H41.5622C23.1252 83.222 7.91624 68.378 7.91624 50.201C7.91624 30.306 23.1252 16.556 41.5622 16.556H57.2392C75.4682 16.556 92.0832 30.306 92.0832 50.201C92.0832 68.378 75.4682 83.222 57.2392 83.222ZM91.6672 11H8.33324C3.73224 11 0.000244141 14.733 0.000244141 19.333V80.445C0.000244141 85.045 3.73224 88.778 8.33324 88.778H91.6672C96.2672 88.778 100 85.045 100 80.445V19.333C100 14.733 96.2672 11 91.6672 11ZM48.5412 67.909V31.764C55.7812 34.576 60.9372 41.608 60.9372 49.837C60.9372 58.067 55.7812 65.097 48.5412 67.91V67.909ZM34.6872 67.858C27.4472 65.097 22.2912 58.066 22.2912 49.837C22.2912 41.608 27.4472 34.576 34.6872 31.764V67.858ZM41.6142 19.316C24.7912 19.316 11.0932 32.962 11.0932 49.837C11.0932 66.66 24.7912 80.358 41.6142 80.358C58.4892 80.358 72.1352 66.66 72.1352 49.837C72.1352 32.962 58.4892 19.316 41.6142 19.316Z" fill="black"/>
</svg>
