<?xml version="1.0" encoding="UTF-8"?>
<svg width="100px" height="100px" viewBox="0 0 100 100" version="1.1" xmlns="http://www.w3.org/2000/svg" xmlns:xlink="http://www.w3.org/1999/xlink">
    <!-- Generator: Sketch 57.1 (83088) - https://sketch.com -->
    <title>brand/diners-club-brand</title>
    <desc>Created with Sketch.</desc>
    <g id="brand/diners-club" stroke="none" stroke-width="1" fill="none" fill-rule="evenodd">
        <path d="M5.5791,49.9328 C5.5851,46.7318 7.5841,44.0008 10.4041,42.9168 L10.4041,56.9488 C7.5841,55.8638 5.5851,53.1348 5.5791,49.9328 Z M15.7852,42.9161 C18.6052,43.9981 20.6082,46.7301 20.6132,49.9331 C20.6082,53.1371 18.6052,55.8661 15.7852,56.9511 L15.7852,42.9161 Z M13.0952,61.7941 C19.6462,61.7921 24.9532,56.4831 24.9542,49.9331 C24.9532,43.3811 19.6462,38.0731 13.0952,38.0701 C6.5462,38.0731 1.2392,43.3811 1.2382,49.9331 C1.2392,56.4831 6.5462,61.7921 13.0952,61.7941 Z M19.1612,37.0000975 C26.2432,36.9971 32.7082,42.3401 32.7082,50.0681 C32.7082,57.1371 26.2432,62.9461 19.1612,62.9123958 L13.0662,62.9123958 C5.8992,62.9461 0.0002,57.1381 0.0002,50.0681 C0.0002,42.3411 5.8992,36.9971 13.0662,37.0000975 L19.1612,37.0000975 Z M38.1973,41.5538 L38.1973,48.9668 C38.1973,50.0168 38.9473,50.1388 39.6143,50.1388 C42.5583,50.1388 43.5253,47.9168 43.5253,45.8858 C43.5253,43.3388 41.8893,41.4988 39.2603,41.4988 C38.7013,41.4988 38.4443,41.5388 38.1973,41.5538 Z M39.4113,50.5748 C38.7163,50.5748 38.0753,50.5478 37.4353,50.5478 C36.8223,50.5478 36.2223,50.5618 35.6093,50.5748 L35.6093,50.2208 C36.4263,50.1388 36.8223,50.1118 36.8613,49.1848 L36.8613,42.5748 C36.8613,41.3488 36.2223,41.4298 35.6093,41.4158 L35.6093,41.0628 C36.1403,41.0878 36.6853,41.0878 37.2173,41.0878 C37.7893,41.0878 38.5663,41.0628 39.5743,41.0628 C43.1033,41.0628 45.0243,43.4188 45.0243,45.8318 C45.0243,47.1818 44.2343,50.5748 39.4113,50.5748 Z M46.96,42.2482 C46.606,42.2482 46.293,41.9212 46.293,41.5672 C46.293,41.2262 46.62,40.9112 46.96,40.9112 C47.313,40.9112 47.628,41.1992 47.628,41.5672 C47.628,41.9352 47.327,42.2482 46.96,42.2482 Z M48.4175,50.5753 C47.9535,50.5753 47.4765,50.5483 46.9875,50.5483 C46.4965,50.5483 46.0055,50.5613 45.5025,50.5753 L45.5025,50.2213 L45.7605,50.2213 C46.1415,50.2213 46.4145,50.2213 46.4145,49.7693 L46.4145,46.0773 C46.4145,45.4783 46.2105,45.3953 45.7065,45.1243 L45.7065,44.9063 C46.3465,44.7143 47.1105,44.4563 47.1635,44.4153 C47.2595,44.3603 47.3405,44.3463 47.4095,44.3463 C47.4765,44.3463 47.5045,44.4293 47.5045,44.5383 L47.5045,49.7693 C47.5045,50.2213 47.8045,50.2213 48.1865,50.2213 L48.4175,50.2213 L48.4175,50.5753 Z M55.6533,50.2208 L55.6533,50.5748 C55.1743,50.5748 54.6983,50.5478 54.2093,50.5478 C53.7173,50.5478 53.2273,50.5618 52.7373,50.5748 L52.7373,50.2208 L52.9823,50.2208 C53.3643,50.2208 53.6353,50.2208 53.6353,49.7708 L53.6353,46.2418 C53.6353,45.4638 53.1613,45.0828 52.3823,45.0828 C51.9473,45.0828 51.2523,45.4368 50.8003,45.7378 L50.8003,49.7698 C50.8003,50.2208 51.1023,50.2208 51.4843,50.2208 L51.7283,50.2208 L51.7283,50.5748 C51.2523,50.5748 50.7753,50.5478 50.2843,50.5478 C49.7943,50.5478 49.3023,50.5618 48.8123,50.5748 L48.8123,50.2208 L49.0583,50.2208 C49.4403,50.2208 49.7123,50.2208 49.7123,49.7698 L49.7123,46.1588 C49.7123,45.6558 49.5613,45.5198 48.9223,45.2598 L48.9223,45.0018 C49.5073,44.8108 50.0663,44.6338 50.7203,44.3468 C50.7603,44.3468 50.8003,44.3738 50.8003,44.4828 L50.8003,45.3688 C51.5793,44.8108 52.2473,44.3468 53.1613,44.3468 C54.3173,44.3468 54.7263,45.1918 54.7263,46.2538 L54.7263,49.7708 C54.7263,50.2208 55.0263,50.2208 55.4083,50.2208 L55.6533,50.2208 Z M58.2959,44.7833 C57.4659,44.7833 56.8939,45.3953 56.7309,46.3773 L59.1019,46.3773 C59.4419,46.3773 59.4819,46.2003 59.4819,46.0373 C59.4819,45.3423 59.0599,44.7833 58.2959,44.7833 Z M58.2019,50.7793 C56.0349,50.7793 55.5989,48.6793 55.5989,47.8083 C55.5989,45.1373 57.3979,44.3463 58.3509,44.3463 C59.4549,44.3463 60.6409,45.0413 60.6539,46.4853 C60.6539,46.5683 60.6539,46.6493 60.6409,46.7323 L60.5179,46.8133 L56.6899,46.8133 C56.6609,46.9363 56.6609,47.1403 56.6899,47.6043 C56.7699,48.8983 57.6039,49.9613 58.6919,49.9613 C59.4419,49.9613 60.0279,49.5533 60.5319,49.0493 L60.7229,49.2403 C60.0949,50.0713 59.3179,50.7793 58.2019,50.7793 Z M64.4961,50.5753 C63.7461,50.5613 63.1771,50.5483 62.5891,50.5483 C62.0311,50.5483 61.4581,50.5613 60.9681,50.5753 L60.9681,50.2213 L61.3361,50.2213 C61.7161,50.2213 61.9881,50.2213 61.9881,49.7693 L61.9881,45.9413 C61.9881,45.5193 61.4851,45.4363 61.2801,45.3283 L61.2801,45.1243 C62.2751,44.7013 62.8201,44.3463 62.9441,44.3463 C63.0251,44.3463 63.0651,44.3883 63.0651,44.5243 L63.0651,45.7503 L63.0941,45.7503 C63.4341,45.2203 64.0071,44.3463 64.8381,44.3463 C65.1791,44.3463 65.6141,44.5783 65.6141,45.0683 C65.6141,45.4363 65.3551,45.7643 64.9751,45.7643 C64.5501,45.7643 64.5501,45.4363 64.0741,45.4363 C63.8421,45.4363 63.0801,45.7503 63.0801,46.5683 L63.0801,49.7693 C63.0801,50.2213 63.3511,50.2213 63.7331,50.2213 L64.4961,50.2213 L64.4961,50.5753 Z M67.9307,50.3439 C68.7337,50.3439 69.0337,49.8529 69.0337,49.3759 C69.0337,47.7679 66.0637,48.2849 66.0637,46.0919 C66.0637,45.3279 66.6777,44.3469 68.1757,44.3469 C68.6117,44.3469 69.1977,44.4699 69.7277,44.7429 L69.8247,46.1319 L69.5107,46.1319 C69.3747,45.2739 68.8987,44.7829 68.0257,44.7829 C67.4807,44.7829 66.9627,45.0969 66.9627,45.6829 C66.9627,47.2789 70.1237,46.7859 70.1237,48.9259 C70.1237,49.8239 69.4017,50.7799 67.7807,50.7799 C67.2347,50.7799 66.5947,50.5889 66.1187,50.3169 L65.9677,48.7489 L66.2137,48.6799 C66.3917,49.5799 66.9357,50.3439 67.9307,50.3439 Z M82.1289,50.0568 C81.5569,50.4108 80.0169,50.7798 79.1159,50.7798 C75.9289,50.7798 73.9129,48.7218 73.9129,45.6558 C73.9129,42.8618 76.4059,40.8568 79.0759,40.8568 C80.1799,40.8568 81.2419,41.2128 82.2919,41.5808 L82.4279,43.5298 L82.0879,43.5298 C81.8289,41.9348 80.6969,41.2938 79.1719,41.2938 C77.6049,41.2938 75.3279,42.3428 75.3279,45.6138 C75.3279,48.3688 77.2919,50.3428 79.3899,50.3428 C80.7379,50.3428 81.8569,49.4168 82.1289,47.9858 L82.4409,48.0668 L82.1289,50.0568 Z M85.834,50.5753 C85.373,50.5753 84.896,50.5483 84.404,50.5483 C83.915,50.5483 83.424,50.5613 82.919,50.5753 L82.919,50.2213 L83.178,50.2213 C83.56,50.2213 83.833,50.2213 83.833,49.7693 L83.833,42.1803 C83.833,41.2943 83.628,41.2663 83.11,41.1173 L83.11,40.8993 C83.655,40.7223 84.228,40.4763 84.514,40.3123 C84.662,40.2313 84.772,40.1623 84.813,40.1623 C84.896,40.1623 84.923,40.2443 84.923,40.3543 L84.923,49.7693 C84.923,50.2213 85.223,50.2213 85.605,50.2213 L85.834,50.2213 L85.834,50.5753 Z M86.6523,45.6691 C86.6523,45.3151 86.5973,44.9741 85.8363,44.9051 L85.8363,44.6471 C86.3273,44.6331 87.4153,44.5521 87.5923,44.5521 C87.7443,44.5521 87.7443,44.6471 87.7443,44.9461 L87.7443,48.4621 C87.7443,48.8711 87.7443,50.0431 88.9283,50.0431 C89.3913,50.0431 90.0053,49.6891 90.5763,49.2131 L90.5763,45.5451 C90.5763,45.2731 89.9233,45.1241 89.4333,44.9871 L89.4333,44.7421 C90.6583,44.6601 91.4233,44.5521 91.5573,44.5521 C91.6683,44.5521 91.6683,44.6471 91.6683,44.7971 L91.6683,49.8241 C91.6683,50.0711 91.8173,50.0841 92.0483,50.0841 C92.2133,50.0841 92.4163,50.0711 92.5933,50.0711 L92.5933,50.3571 C92.0073,50.4121 90.8903,50.6981 90.6313,50.7791 L90.5623,50.7381 L90.5623,49.6361 C89.7463,50.3031 89.1183,50.7791 88.1503,50.7791 C87.4153,50.7791 86.6523,50.3031 86.6523,49.1581 L86.6523,45.6691 Z M94.3799,45.7247 L94.3799,49.0347 C94.3799,49.5527 94.8689,50.4257 95.7819,50.4257 C97.2399,50.4257 97.8539,48.9947 97.8539,47.7807 C97.8539,46.3087 96.7369,45.0827 95.6739,45.0827 C95.1689,45.0827 94.7469,45.4107 94.3799,45.7247 Z M93.2889,42.1807 C93.2889,41.2937 93.0839,41.2667 92.5669,41.1177 L92.5669,40.8997 C93.1129,40.7227 93.6839,40.4767 93.9699,40.3127 C94.1199,40.2317 94.2289,40.1627 94.2709,40.1627 C94.3529,40.1627 94.3789,40.2447 94.3789,40.3547 L94.3789,45.3287 L94.3799,45.3287 C94.9239,44.8647 95.6589,44.3467 96.4099,44.3467 C97.9899,44.3467 98.9429,45.7247 98.9429,47.2087 C98.9429,48.9947 97.6359,50.7797 95.6869,50.7797 C94.6789,50.7797 94.1479,50.4527 93.7929,50.3027 L93.3849,50.6157 L93.0999,50.4657 C93.2199,49.6627 93.2889,48.8707 93.2889,48.0397 L93.2889,42.1807 Z M36.6924,53.5421 C37.0614,53.5421 37.5044,53.5131 37.8554,53.5131 L37.8884,53.5131 L37.8884,53.8001 L37.7524,53.8001 C37.4834,53.8051 37.2364,53.8291 37.2354,54.1911 L37.2354,58.0761 C37.2364,58.4381 37.4834,58.4611 37.7524,58.4671 L37.8884,58.4671 L37.8884,58.7541 L37.8554,58.7541 C37.4974,58.7541 37.0534,58.7241 36.6844,58.7241 C36.3214,58.7241 35.8854,58.7541 35.5934,58.7541 L35.5624,58.7541 L35.5624,58.4671 L35.6974,58.4671 C35.9664,58.4611 36.2114,58.4381 36.2134,58.0761 L36.2134,54.1911 C36.2114,53.8291 35.9664,53.8051 35.6974,53.8001 L35.5624,53.8001 L35.5624,53.5131 L35.5934,53.5131 C35.8854,53.5131 36.3294,53.5421 36.6924,53.5421 Z M43.1929,53.5421 C43.4949,53.5421 43.7989,53.5141 44.1049,53.5141 L44.1379,53.5141 L44.1379,53.8001 L43.9949,53.8001 C43.6889,53.8091 43.3749,53.8351 43.3659,54.7101 L43.3659,58.0841 C43.3659,58.3431 43.3739,58.6031 43.4099,58.8271 L43.4169,58.8651 L43.3789,58.8651 L43.0719,58.8541 L39.3099,54.6601 L39.3099,57.6321 C39.3189,58.2761 39.4169,58.4601 39.9749,58.4671 L40.1339,58.4671 L40.1339,58.7541 L40.1009,58.7541 C39.7799,58.7541 39.4609,58.7241 39.1449,58.7241 C38.8129,58.7241 38.4719,58.7541 38.1359,58.7541 L38.1039,58.7541 L38.1039,58.4671 L38.2399,58.4671 C38.7309,58.4641 38.8699,58.1491 38.8759,57.5591 L38.8759,54.4361 C38.8749,54.0401 38.5509,53.8011 38.2339,53.8001 L38.1039,53.8001 L38.1039,53.5141 L38.1359,53.5141 C38.4199,53.5141 38.7099,53.5421 38.9879,53.5421 C39.2089,53.5421 39.4229,53.5141 39.6729,53.5241 L42.9319,57.1931 L42.9319,54.4661 C42.9279,53.8761 42.5349,53.8051 42.3179,53.8001 L42.1219,53.8001 L42.1219,53.5141 L42.1549,53.5141 C42.5059,53.5141 42.8469,53.5421 43.1929,53.5421 Z M49.2578,53.2785 L49.2918,53.2855 L49.5008,53.3185 L49.4958,53.3505 C49.4658,53.5495 49.4368,53.7495 49.4158,53.9485 C49.4008,54.1455 49.4008,54.3465 49.4008,54.5465 L49.4008,54.5695 L49.3798,54.5785 L49.1168,54.6735 L49.1148,54.6305 C49.0958,54.3515 49.0668,53.9485 48.5978,53.9485 L47.4148,53.9485 L47.4148,57.8615 C47.4208,58.4215 47.6428,58.4595 47.9958,58.4665 L48.1698,58.4665 L48.1698,58.7545 L48.1388,58.7545 C47.8468,58.7545 47.3278,58.7235 46.9298,58.7235 C46.4858,58.7235 45.9668,58.7545 45.6758,58.7545 L45.6448,58.7545 L45.6448,58.4665 L45.8168,58.4665 C46.2258,58.4575 46.3898,58.4525 46.3998,57.8775 L46.3998,53.9485 L45.2158,53.9485 L45.2158,53.9165 L45.2158,53.9485 C44.6678,53.9585 44.6788,54.0505 44.5578,54.5985 L44.5528,54.6245 L44.2678,54.6245 L44.2718,54.5865 C44.3008,54.3785 44.3388,54.1715 44.3608,53.9555 C44.3918,53.7495 44.4058,53.5445 44.4058,53.3315 L44.4058,53.2995 L44.6408,53.2995 L44.6468,53.3215 C44.6968,53.5085 44.8348,53.5095 45.0228,53.5125 L48.8848,53.5125 C49.0918,53.5095 49.2418,53.5075 49.2548,53.3125 L49.2578,53.2785 Z M53.6885,57.4523 L53.7195,57.4583 L53.9575,57.5193 L53.9505,57.5503 C53.8545,57.9423 53.7655,58.3353 53.6995,58.7273 L53.6935,58.7543 L53.6675,58.7543 C53.1915,58.7543 52.3385,58.7233 51.6735,58.7233 C51.0055,58.7233 50.1245,58.7543 49.7015,58.7543 L49.6695,58.7543 L49.6695,58.4673 L49.8055,58.4673 C50.0735,58.4633 50.3175,58.4383 50.3215,58.0763 L50.3215,54.1913 C50.3175,53.8303 50.0735,53.8063 49.8055,53.8003 L49.6695,53.8003 L49.6695,53.5143 L49.7015,53.5143 C50.1535,53.5143 50.9245,53.5423 51.5465,53.5423 C52.1695,53.5423 52.9395,53.5143 53.4445,53.5143 L53.4775,53.5143 L53.4755,53.5473 C53.4705,53.6583 53.4685,53.7903 53.4685,53.9303 C53.4685,54.1863 53.4755,54.4673 53.4915,54.6783 L53.4925,54.7053 L53.4665,54.7123 L53.2075,54.7803 L53.2055,54.7423 C53.1615,54.2613 53.0965,53.9113 52.3345,53.9043 L51.3345,53.9043 L51.3345,55.7813 L52.1855,55.7813 C52.6115,55.7773 52.6885,55.5583 52.7385,55.1593 L52.7415,55.1303 L53.0255,55.1303 L53.0255,55.1633 C53.0105,55.4523 53.0015,55.7413 53.0015,56.0303 C53.0015,56.3103 53.0105,56.5923 53.0255,56.8743 L53.0255,56.9003 L52.9995,56.9073 L52.7415,56.9583 L52.7385,56.9233 C52.6875,56.4713 52.6845,56.2233 52.1915,56.2183 L51.3345,56.2173 L51.3345,57.9133 C51.3345,58.3633 51.7235,58.3603 52.2075,58.3633 C53.0995,58.3583 53.4585,58.3153 53.6815,57.4823 L53.6885,57.4523 Z M56.2314,56.0197 C56.9654,56.0127 57.3354,55.7577 57.3424,54.8967 C57.3384,54.2487 56.9364,53.8467 56.2914,53.8437 C56.0894,53.8437 55.9964,53.8627 55.9014,53.8717 L55.9014,56.0197 L56.2314,56.0197 Z M58.6314,58.0367 C58.8384,58.3437 58.9674,58.4207 59.3284,58.4667 L59.3554,58.4707 L59.3554,58.7537 L59.3244,58.7537 C59.0754,58.7537 58.8394,58.7237 58.5954,58.7237 C58.3704,58.7237 58.1324,58.7537 57.8754,58.7417 C57.3054,57.9957 56.8184,57.1997 56.3394,56.3517 L55.9014,56.3517 L55.9014,57.9057 C55.9094,58.4627 56.1324,58.4587 56.4764,58.4667 L56.6424,58.4667 L56.6424,58.7537 L56.6094,58.7537 C56.1854,58.7537 55.7554,58.7237 55.3344,58.7237 C54.9804,58.7237 54.6324,58.7537 54.2594,58.7537 L54.2274,58.7537 L54.2274,58.4667 L54.3934,58.4667 C54.6604,58.4647 54.8854,58.3487 54.8864,58.0997 L54.8864,54.3327 C54.8804,53.8047 54.6244,53.8087 54.3934,53.8007 L54.2274,53.8007 L54.2274,53.5127 L54.2594,53.5127 C54.5004,53.5127 54.9584,53.5417 55.4094,53.5417 C55.8514,53.5417 56.2084,53.5127 56.6034,53.5127 C57.5374,53.5157 58.3984,53.7737 58.4004,54.8497 C58.4004,55.5197 57.9584,55.9377 57.3854,56.1707 L58.6314,58.0367 Z M65.5459,53.7999 L65.4029,53.7999 C65.0979,53.8079 64.7819,53.8349 64.7749,54.7099 L64.7749,58.0839 C64.7749,58.3429 64.7809,58.6009 64.8189,58.8279 L64.8229,58.8639 L64.7869,58.8639 L64.4829,58.8549 L60.7189,54.6599 L60.7189,57.6309 C60.7279,58.2769 60.8259,58.4589 61.3849,58.4669 L61.5419,58.4669 L61.5419,58.7539 L61.5099,58.7539 C61.1889,58.7539 60.8709,58.7239 60.5529,58.7239 C60.2219,58.7239 59.8799,58.7539 59.5459,58.7539 L59.5129,58.7539 L59.5129,58.4669 L59.6489,58.4669 C60.1389,58.4649 60.2779,58.1499 60.2829,57.5569 L60.2829,54.4349 C60.2829,54.0399 59.9589,53.8009 59.6429,53.7999 L59.5129,53.7999 L59.5129,53.5129 L59.5459,53.5129 C59.8289,53.5129 60.1189,53.5419 60.3989,53.5419 C60.6159,53.5419 60.8309,53.5129 61.0799,53.5239 L64.3389,57.1939 L64.3389,54.4649 C64.3369,53.8759 63.9419,53.8029 63.7269,53.7999 L63.5309,53.7999 L63.5309,53.5129 L63.5639,53.5129 C63.9139,53.5129 64.2559,53.5419 64.6019,53.5419 C64.9039,53.5419 65.2079,53.5129 65.5139,53.5129 L65.5459,53.5129 L65.5459,53.7999 Z M67.1289,56.4425 L68.4259,56.4425 L67.7809,54.4555 L67.1289,56.4425 Z M70.1539,58.1895 C70.2399,58.3865 70.3769,58.4645 70.6149,58.4655 L70.6909,58.4655 L70.6909,58.7555 L70.6559,58.7545 C70.3229,58.7385 69.9889,58.7235 69.6359,58.7235 C69.2729,58.7235 68.9029,58.7385 68.5239,58.7545 L68.4899,58.7555 L68.4899,58.4655 L68.6049,58.4655 C68.7759,58.4655 69.0309,58.4265 69.0309,58.2845 C69.0329,58.2005 68.9669,57.9965 68.8849,57.7605 L68.6029,56.9215 L66.9669,56.9215 L66.7359,57.6715 C66.6619,57.9235 66.5729,58.1205 66.5729,58.2405 C66.5759,58.4215 66.8529,58.4655 67.0989,58.4655 L67.2129,58.4655 L67.2129,58.7555 L67.1799,58.7545 C66.8829,58.7385 66.5799,58.7235 66.2839,58.7235 C66.0189,58.7235 65.7509,58.7385 65.4849,58.7545 L65.4509,58.7555 L65.4509,58.4655 L65.5269,58.4655 C65.8039,58.4645 66.0339,58.3075 66.1409,58.0055 L67.3279,54.6025 C67.4259,54.3285 67.5589,53.9585 67.6229,53.6635 C67.8559,53.5845 68.1529,53.4345 68.2959,53.3445 C68.3159,53.3385 68.3379,53.3275 68.3679,53.3275 C68.3859,53.3275 68.4259,53.3315 68.4489,53.3715 C68.4709,53.4315 68.4939,53.4985 68.5169,53.5575 L69.8819,57.4355 C69.9699,57.6965 70.0579,57.9695 70.1539,58.1895 Z M75.0244,53.2785 L75.0594,53.2855 L75.2694,53.3185 L75.2634,53.3505 C75.2334,53.5495 75.2054,53.7495 75.1824,53.9485 C75.1684,54.1455 75.1684,54.3465 75.1684,54.5475 L75.1684,54.5695 L75.1464,54.5785 L74.8834,54.6745 L74.8824,54.6305 C74.8634,54.3515 74.8344,53.9485 74.3654,53.9485 L73.1814,53.9485 L73.1814,57.8615 C73.1894,58.4215 73.4114,58.4595 73.7634,58.4665 L73.9374,58.4665 L73.9374,58.7545 L73.9054,58.7545 C73.6144,58.7545 73.0954,58.7235 72.6974,58.7235 C72.2534,58.7235 71.7344,58.7545 71.4444,58.7545 L71.4114,58.7545 L71.4114,58.4665 L71.5854,58.4665 C71.9934,58.4575 72.1574,58.4525 72.1684,57.8775 L72.1674,53.9485 L70.9844,53.9485 L70.9844,53.9165 L70.9844,53.9485 C70.4344,53.9585 70.4474,54.0505 70.3264,54.5985 L70.3204,54.6245 L70.0344,54.6245 L70.0394,54.5875 C70.0704,54.3785 70.1064,54.1715 70.1284,53.9575 C70.1594,53.7495 70.1724,53.5445 70.1724,53.3315 L70.1724,53.2995 L70.4074,53.2995 L70.4144,53.3215 C70.4654,53.5085 70.6004,53.5095 70.7914,53.5125 L70.8284,53.5135 L74.6554,53.5135 C74.8594,53.5095 75.0084,53.5075 75.0224,53.3135 L75.0244,53.2785 Z M76.6025,53.5421 C76.9715,53.5421 77.4165,53.5141 77.7675,53.5141 L77.7985,53.5141 L77.7985,53.8001 L77.6645,53.8001 C77.3925,53.8051 77.1495,53.8301 77.1465,54.1911 L77.1465,58.0761 C77.1495,58.4391 77.3925,58.4631 77.6645,58.4671 L77.7985,58.4671 L77.7985,58.7541 L77.7675,58.7541 C77.4095,58.7541 76.9655,58.7241 76.5955,58.7241 C76.2335,58.7241 75.7955,58.7541 75.5055,58.7541 L75.4735,58.7541 L75.4735,58.4671 L75.6105,58.4671 C75.8775,58.4631 76.1235,58.4391 76.1245,58.0761 L76.1245,54.1911 C76.1235,53.8301 75.8775,53.8051 75.6105,53.8001 L75.4735,53.8001 L75.4735,53.5141 L75.5055,53.5141 C75.7955,53.5141 76.2415,53.5421 76.6025,53.5421 Z M80.8369,58.4747 C82.2459,58.4727 82.4899,57.2387 82.4939,56.1567 C82.4939,55.0817 81.9149,53.7947 80.7099,53.7927 C79.4389,53.7947 79.0619,54.9227 79.0599,55.9107 C79.0609,57.2317 79.6619,58.4717 80.8369,58.4747 Z M80.7239,53.4027 C82.3159,53.4037 83.5939,54.3937 83.5969,55.9927 C83.5949,57.7157 82.3559,58.8617 80.7629,58.8647 C79.1769,58.8617 77.9589,57.7837 77.9559,56.1707 C77.9589,54.6117 79.1669,53.4047 80.7239,53.4027 L80.7239,53.4347 L80.7239,53.4027 Z M89.75,53.7999 L89.605,53.7999 C89.301,53.8089 88.985,53.8369 88.979,54.7099 L88.979,58.0839 C88.979,58.3439 88.984,58.6019 89.021,58.8289 L89.027,58.8639 L88.991,58.8639 L88.685,58.8539 L84.923,54.6599 L84.923,57.6319 C84.931,58.2769 85.029,58.4589 85.586,58.4659 L85.746,58.4659 L85.746,58.7539 L85.714,58.7539 C85.393,58.7539 85.074,58.7239 84.758,58.7239 C84.425,58.7239 84.085,58.7539 83.748,58.7539 L83.717,58.7539 L83.717,58.4659 L83.853,58.4659 C84.342,58.4639 84.482,58.1499 84.488,57.5589 L84.488,54.4349 C84.487,54.0399 84.164,53.8009 83.845,53.7999 L83.717,53.7999 L83.717,53.5139 L83.748,53.5139 C84.032,53.5139 84.321,53.5419 84.601,53.5419 C84.821,53.5419 85.035,53.5139 85.286,53.5249 L88.543,57.1939 L88.543,54.4659 C88.541,53.8759 88.146,53.8049 87.93,53.7999 L87.734,53.7999 L87.734,53.5139 L87.768,53.5139 C88.117,53.5139 88.459,53.5419 88.804,53.5419 C89.108,53.5419 89.41,53.5139 89.718,53.5139 L89.75,53.5139 L89.75,53.7999 Z M91.333,56.4425 L92.629,56.4425 L91.984,54.4565 L91.333,56.4425 Z M94.357,58.1905 C94.444,58.3865 94.58,58.4645 94.816,58.4665 L94.894,58.4665 L94.894,58.7555 L94.859,58.7545 C94.526,58.7405 94.193,58.7235 93.839,58.7235 C93.478,58.7235 93.106,58.7405 92.728,58.7545 L92.694,58.7555 L92.694,58.4665 L92.808,58.4665 C92.979,58.4665 93.235,58.4265 93.236,58.2845 C93.237,58.2005 93.171,57.9985 93.088,57.7605 L92.807,56.9215 L91.17,56.9215 L90.94,57.6715 C90.866,57.9245 90.778,58.1195 90.779,58.2395 C90.779,58.4215 91.057,58.4665 91.303,58.4665 L91.415,58.4665 L91.415,58.7555 L91.383,58.7545 C91.086,58.7405 90.782,58.7235 90.487,58.7235 C90.222,58.7235 89.955,58.7405 89.687,58.7545 L89.655,58.7555 L89.655,58.4665 L89.73,58.4665 C90.007,58.4655 90.238,58.3065 90.346,58.0055 L91.533,54.6025 C91.627,54.3285 91.761,53.9585 91.827,53.6645 C92.06,53.5835 92.357,53.4345 92.501,53.3445 C92.52,53.3385 92.541,53.3295 92.571,53.3295 C92.591,53.3275 92.629,53.3315 92.652,53.3725 C92.675,53.4305 92.696,53.4975 92.721,53.5575 L94.084,57.4355 C94.173,57.6965 94.262,57.9695 94.357,58.1905 Z M99.0693,57.4288 L99.3483,57.4288 L99.3413,57.4678 C99.2573,57.8918 99.1563,58.3068 99.0663,58.7288 L99.0603,58.7538 L99.0353,58.7538 C98.3823,58.7538 97.7293,58.7238 97.0793,58.7238 C96.4253,58.7238 95.7733,58.7538 95.1203,58.7538 L95.0893,58.7538 L95.0893,58.4668 L95.2233,58.4668 C95.4923,58.4608 95.7463,58.4428 95.7493,58.0018 L95.7493,54.1908 C95.7463,53.8298 95.4933,53.8048 95.2233,53.7998 L95.0893,53.7998 L95.0893,53.5138 L95.1203,53.5138 C95.5143,53.5138 95.9003,53.5418 96.2923,53.5418 C96.6683,53.5418 97.0393,53.5138 97.4203,53.5138 L97.4503,53.5138 L97.4503,53.7998 L97.2333,53.7998 C96.9463,53.8078 96.7673,53.7948 96.7613,54.1688 L96.7613,57.9948 C96.7633,58.2718 96.9443,58.3458 97.1753,58.3778 C97.3063,58.3878 97.4443,58.3938 97.5873,58.3938 C97.7683,58.3938 97.9573,58.3848 98.1483,58.3648 C98.4513,58.3278 98.7113,58.1548 98.8393,57.9778 C98.9533,57.8198 99.0183,57.6158 99.0623,57.4528 L99.0693,57.4288 Z M99.2197,54.7521 C99.5687,54.7521 99.8367,54.4531 99.8367,54.1181 C99.8367,53.7821 99.5727,53.4811 99.2197,53.4811 C98.8677,53.4811 98.5997,53.7821 98.5997,54.1181 C98.5997,54.4531 98.8677,54.7521 99.2197,54.7521 Z M99.2197,53.3351 C99.6657,53.3351 99.9997,53.6791 99.9997,54.1181 C99.9997,54.5571 99.6657,54.8981 99.2197,54.8981 C98.7727,54.8981 98.4387,54.5571 98.4387,54.1181 C98.4387,53.6791 98.7727,53.3351 99.2197,53.3351 Z M99.1855,54.1183 C99.2875,54.1183 99.3335,54.0423 99.3335,53.9193 C99.3335,53.7953 99.2605,53.7513 99.1805,53.7513 L99.0935,53.7513 L99.0935,54.1183 L99.1855,54.1183 Z M99.4415,54.3203 C99.5005,54.4013 99.5685,54.4773 99.6135,54.5053 L99.6135,54.5303 L99.4605,54.5303 C99.3875,54.5303 99.3245,54.3763 99.1805,54.1703 L99.0935,54.1703 L99.0935,54.4303 C99.0935,54.4813 99.1125,54.4773 99.2075,54.4913 L99.2075,54.5303 L98.8315,54.5303 L98.8315,54.4913 C98.9265,54.4773 98.9445,54.4813 98.9445,54.4223 L98.9445,53.8443 C98.9445,53.7633 98.9355,53.7343 98.8335,53.7383 L98.8335,53.6993 L99.2345,53.6993 C99.3725,53.6993 99.4975,53.7643 99.4975,53.9063 C99.4975,54.0223 99.4205,54.1083 99.3125,54.1413 L99.4415,54.3203 Z" id="Shape" fill="#000000"></path>
    </g>
</svg>