<?xml version="1.0" encoding="UTF-8"?>
<svg width="100px" height="100px" viewBox="0 0 100 100" version="1.1" xmlns="http://www.w3.org/2000/svg" xmlns:xlink="http://www.w3.org/1999/xlink">
    <!-- Generator: Sketch 57.1 (83088) - https://sketch.com -->
    <title>regular/double-chevron-right-regular</title>
    <desc>Created with Sketch.</desc>
    <g id="regular/double-chevron-right" stroke="none" stroke-width="1" fill="none" fill-rule="evenodd">
        <path d="M19.1764706,1.66666662 L62.6960784,45.1764706 C63.979586,46.4530851 64.699653,48.1897173 64.6964799,50 C64.7100519,51.8046398 64.0044268,53.5404775 62.7352941,54.8235294 L19.1764706,98.3333334 C18.6009204,98.9809599 17.7139109,99.256353 16.8727784,99.0485691 C16.0316458,98.8407852 15.3749011,98.1840405 15.1671172,97.3429079 C14.9593333,96.5017754 15.2347264,95.6147659 15.8823529,95.0392157 L59.3921569,51.5196078 C60.2063698,50.6701331 60.2063698,49.3298669 59.3921569,48.4803922 L15.8823529,4.96078427 C15.0617228,4.03738635 15.1030232,2.63439009 15.9765498,1.76086349 C16.8500764,0.887336893 18.2530726,0.846036539 19.1764706,1.66666662 Z M39.872549,1.66666662 L83.382353,45.1764706 C84.6613423,46.4553151 85.3776312,48.1913455 85.3728916,50 C85.3854389,51.8044321 84.6799763,53.5398702 83.4117647,54.8235294 L39.872549,98.3333334 C39.2886786,98.9454602 38.4192328,99.1936312 37.6002149,98.9819392 C36.781197,98.7702471 36.1409024,98.1318525 35.9267773,97.3134673 C35.7126523,96.4950821 35.9582385,95.6249026 36.5686274,95.0392157 L80.0784314,51.5196078 C80.4843714,51.1181362 80.7128056,50.570935 80.7128056,50 C80.7128056,49.429065 80.4843714,48.8818638 80.0784314,48.4803922 L36.5686274,4.96078427 C35.9582385,4.37509738 35.7126523,3.50491786 35.9267773,2.6865327 C36.1409024,1.86814755 36.781197,1.22975288 37.6002149,1.01806082 C38.4192328,0.806368756 39.2886786,1.05453984 39.872549,1.66666662 Z" id="Shape" fill="#000000"></path>
    </g>
</svg>