<?xml version="1.0" encoding="UTF-8"?>
<svg width="100px" height="100px" viewBox="0 0 100 100" version="1.1" xmlns="http://www.w3.org/2000/svg" xmlns:xlink="http://www.w3.org/1999/xlink">
    <!-- Generator: Sketch 57.1 (83088) - https://sketch.com -->
    <title>solid/double-chevron-up-solid</title>
    <desc>Created with Sketch.</desc>
    <g id="solid/double-chevron-up" stroke="none" stroke-width="1" fill="none" fill-rule="evenodd">
        <path d="M50,34.4997542 C53.2710541,34.4959656 56.4089877,35.7950414 58.72,38.11 L97.56,76.91 C100.812957,80.1657187 100.810718,85.4420428 97.5549999,88.6949999 C94.2992814,91.947957 89.0229572,91.9457185 85.77,88.69 L50,52.92 L14.23,88.69 C10.9770428,91.9457186 5.70071856,91.9479572 2.44499995,88.695 C-0.810718651,85.4420429 -0.812957227,80.1657186 2.43999995,76.91 L41.28,38.07 C43.5975639,35.7697045 46.7346903,34.4853534 50,34.4997542 Z M50,8.49991805 C53.2719318,8.49152842 56.4115032,9.79128216 58.72,12.11 L97.56,50.94 C100.663413,54.2206178 100.591885,59.3753951 97.3986399,62.5686399 C94.2053952,65.7618846 89.0506178,65.8334128 85.77,62.73 L50,26.95 L14.23,62.73 C10.9493822,65.8334128 5.79460483,65.7618846 2.60136008,62.5686399 C-0.591884668,59.3753951 -0.663412855,54.2206178 2.43999995,50.94 L41.28,12.11 C43.5884968,9.79128216 46.7280682,8.49152842 50,8.49991805 Z" id="Shape" fill="#000000"></path>
    </g>
</svg>