<?xml version="1.0" encoding="UTF-8"?>
<svg width="100px" height="100px" viewBox="0 0 100 100" version="1.1" xmlns="http://www.w3.org/2000/svg" xmlns:xlink="http://www.w3.org/1999/xlink">
    <!-- Generator: Sketch 57.1 (83088) - https://sketch.com -->
    <title>solid/double-chevron-left-solid</title>
    <desc>Created with Sketch.</desc>
    <g id="solid/double-chevron-left" stroke="none" stroke-width="1" fill="none" fill-rule="evenodd">
        <path d="M88.695,2.44499995 C91.9479572,5.70071856 91.9457186,10.9770428 88.69,14.23 L52.92,50 L88.69,85.77 C91.9457185,89.0229572 91.947957,94.2992814 88.6949999,97.5549999 C85.4420428,100.810718 80.1657187,100.812957 76.91,97.56 L38.07,58.72 C35.7697045,56.4024361 34.4853534,53.2653097 34.4997542,50 C34.4959656,46.7289459 35.7950414,43.5910123 38.11,41.28 L76.91,2.43999995 C80.1657186,-0.812957227 85.4420429,-0.810718651 88.695,2.44499995 Z M62.5686399,2.60136008 C65.7618846,5.79460483 65.8334128,10.9493822 62.73,14.23 L26.95,50 L62.73,85.77 C65.8334128,89.0506178 65.7618846,94.2053952 62.5686399,97.3986399 C59.3753951,100.591885 54.2206178,100.663413 50.94,97.56 L12.11,58.72 C9.79128216,56.4115032 8.49152842,53.2719318 8.49991805,50 C8.49152842,46.7280682 9.79128216,43.5884968 12.11,41.28 L50.94,2.43999995 C54.2206178,-0.663412855 59.3753951,-0.591884668 62.5686399,2.60136008 Z" id="Shape" fill="#000000"></path>
    </g>
</svg>