<?xml version="1.0" encoding="UTF-8"?>
<svg width="100px" height="100px" viewBox="0 0 100 100" version="1.1" xmlns="http://www.w3.org/2000/svg" xmlns:xlink="http://www.w3.org/1999/xlink">
    <!-- Generator: Sketch 57.1 (83088) - https://sketch.com -->
    <title>regular/double-chevron-left-regular</title>
    <desc>Created with Sketch.</desc>
    <g id="regular/double-chevron-left" stroke="none" stroke-width="1" fill="none" fill-rule="evenodd">
        <path d="M63.5484349,0.788198773 C64.4306102,1.67037415 64.4723195,3.08726147 63.6435644,4.01980193 L19.7029703,47.970297 C18.8597353,48.819652 18.8597353,50.190249 19.7029703,51.039604 L63.6435644,94.9900991 C64.297603,95.5713477 64.5757228,96.4671395 64.3658816,97.3166001 C64.1560404,98.1660607 63.4927933,98.8293078 62.6433327,99.039149 C61.7938721,99.2489901 60.8980804,98.9708704 60.3168317,98.3168317 L16.3366336,54.3762376 C15.0622968,53.0756398 14.3509761,51.3257907 14.3563736,49.5049505 C14.3509761,47.6841103 15.0622968,45.9342612 16.3366336,44.6336634 L60.3168317,0.693069258 C61.2493722,-0.135685872 62.6662595,-0.0939766041 63.5484349,0.788198773 Z M84.5031861,0.724645073 C85.4104054,1.62917236 85.42878,3.0927843 84.5445545,4.01980193 L40.5940594,47.970297 C39.7717849,48.8281824 39.7717849,50.1817186 40.5940594,51.039604 L84.5445545,94.9900991 C85.1609869,95.5815848 85.4090046,96.46038 85.1927595,97.286868 C84.9765144,98.1133559 84.3298802,98.7580713 83.5027533,98.9718594 C82.6756263,99.1856474 81.7975721,98.9350192 81.2079208,98.3168317 L37.2673267,54.3762376 C35.9673553,53.0895046 35.2394768,51.3340331 35.2468337,49.5049505 C35.2289986,47.6816005 35.9422743,45.9269424 37.2277228,44.6336634 L81.2079208,0.693069258 C82.1323067,-0.193907259 83.5959667,-0.179882209 84.5031861,0.724645073 Z" id="Shape" fill="#000000"></path>
    </g>
</svg>