<?xml version="1.0" encoding="UTF-8"?>
<svg width="100px" height="100px" viewBox="0 0 100 100" version="1.1" xmlns="http://www.w3.org/2000/svg" xmlns:xlink="http://www.w3.org/1999/xlink">
    <!-- Generator: Sketch 57.1 (83088) - https://sketch.com -->
    <title>regular/double-chevron-up-regular</title>
    <desc>Created with Sketch.</desc>
    <g id="regular/double-chevron-up" stroke="none" stroke-width="1" fill="none" fill-rule="evenodd">
        <path d="M49.5049505,35.2468337 C51.3283004,35.2289986 53.0829586,35.9422743 54.3762376,37.2277228 L98.3168317,81.2079208 C98.9350192,81.7975721 99.1856474,82.6756263 98.9718594,83.5027533 C98.7580713,84.3298802 98.1133559,84.9765144 97.286868,85.1927595 C96.46038,85.4090046 95.5815848,85.1609869 94.9900991,84.5445545 L51.039604,40.5940594 C50.1817186,39.7717849 48.8281824,39.7717849 47.970297,40.5940594 L4.01980193,84.5445545 C3.0927843,85.42878 1.62917236,85.4104054 0.724645073,84.5031861 C-0.179882209,83.5959667 -0.193907259,82.1323067 0.693069258,81.2079208 L44.6336634,37.2673267 C45.9203964,35.9673553 47.6758679,35.2394768 49.5049505,35.2468337 Z M49.5049505,14.3563736 C51.3257907,14.3509761 53.0756398,15.0622968 54.3762376,16.3366336 L98.3168317,60.3168317 C98.9708704,60.8980804 99.2489901,61.7938721 99.039149,62.6433327 C98.8293078,63.4927933 98.1660607,64.1560404 97.3166001,64.3658816 C96.4671395,64.5757228 95.5713477,64.297603 94.9900991,63.6435644 L51.039604,19.7029703 C50.190249,18.8597353 48.819652,18.8597353 47.970297,19.7029703 L4.01980193,63.6435644 C3.08726147,64.4723195 1.67037415,64.4306102 0.788198773,63.5484349 C-0.0939766041,62.6662595 -0.135685872,61.2493722 0.693069258,60.3168317 L44.6336634,16.3366336 C45.9342612,15.0622968 47.6841103,14.3509761 49.5049505,14.3563736 Z" id="Shape" fill="#000000"></path>
    </g>
</svg>