<?xml version="1.0" encoding="UTF-8"?>
<svg width="100px" height="100px" viewBox="0 0 100 100" version="1.1" xmlns="http://www.w3.org/2000/svg" xmlns:xlink="http://www.w3.org/1999/xlink">
    <!-- Generator: Sketch 57.1 (83088) - https://sketch.com -->
    <title>bold/download-bold</title>
    <desc>Created with Sketch.</desc>
    <g id="bold/download" stroke="none" stroke-width="1" fill="none" fill-rule="evenodd">
        <path d="M93.627451,90.1078432 C95.2692484,90.030811 96.8203973,90.8628478 97.6643432,92.2732336 C98.5082892,93.6836193 98.5082892,95.4438318 97.6643432,96.8542175 C96.8203973,98.2646033 95.2692484,99.09664 93.627451,99.0196079 L6.91176466,99.0196079 C5.26996725,99.09664 3.7188184,98.2646033 2.87487246,96.8542175 C2.03092653,95.4438318 2.03092653,93.6836193 2.87487246,92.2732336 C3.7188184,90.8628478 5.26996725,90.030811 6.91176466,90.1078432 L93.627451,90.1078432 Z M47.959508,1.40428423 C49.3698938,0.560338289 51.1301062,0.560338289 52.540492,1.40428423 C53.9508777,2.24823016 54.7829145,3.79937902 54.7058824,5.44117643 L54.7058824,66.5196079 L73.9215687,47.3039216 C75.0322872,46.1051504 76.7096114,45.6097173 78.2934137,46.0126049 C79.877216,46.4154925 81.1139193,47.6521958 81.5168069,49.2359981 C81.9196945,50.8198004 81.4242614,52.4971246 80.2254902,53.6078431 L55.2254902,78.6078432 C53.9240641,79.9094232 52.1640444,80.6486315 50.3235294,80.6666667 L50.1862745,80.6666667 C48.3457596,80.6486315 46.5857398,79.9094232 45.2843137,78.6078432 L20.2745098,53.6078431 C18.645043,51.8491998 18.6971069,49.1170904 20.3923928,47.4218046 C22.0876787,45.7265187 24.819788,45.6744548 26.5784313,47.3039216 L45.7941176,66.5196079 L45.7941176,5.44117643 C45.7170855,3.79937902 46.5491223,2.24823016 47.959508,1.40428423 Z" id="Shape" fill="#000000"></path>
    </g>
</svg>