<svg width="100" height="100" viewBox="0 0 100 100" fill="none" xmlns="http://www.w3.org/2000/svg">
<path fill-rule="evenodd" clip-rule="evenodd" d="M52.0498 50.3037C36.6378 55.2767 28.4378 68.8657 27.7548 70.0057C23.0098 64.7287 20.0868 57.7057 20.0868 50.0377V49.1267C21.3778 49.1647 35.8788 49.3547 50.7978 44.8747C51.6698 46.5457 52.4678 48.2537 53.2268 49.9617C52.8468 50.0757 52.4298 50.1907 52.0498 50.3037ZM55.125 54.9345C55.2 54.8975 55.238 54.8975 55.314 54.8595C59.528 65.7535 61.236 74.9025 61.692 77.5215C58.086 79.0785 54.138 79.9135 50 79.9135C43.091 79.9135 36.714 77.5595 31.665 73.6125C32.196 72.5105 38.27 60.8195 55.125 54.9345ZM48.3677 40.2441C34.3977 43.9641 22.0607 43.8892 20.7317 43.8892C22.6677 34.6261 28.9317 26.9201 37.2837 22.9721C38.0797 24.0351 43.3947 31.4371 48.3677 40.2441ZM69.8154 27.6787C69.2844 28.4387 64.7664 34.4737 54.1374 38.4597C49.2404 29.4627 43.8124 22.0987 42.9774 20.9597C45.2164 20.4287 47.5704 20.1627 50.0004 20.1627C57.5914 20.1627 64.5394 23.0097 69.8154 27.6787ZM56.4531 42.9013C67.4621 38.4223 72.4731 31.9683 73.1181 31.1333C77.2941 36.2203 79.8001 42.7123 79.8751 49.7343C78.8891 49.5453 69.0181 47.5323 59.0721 48.7853C58.8451 48.2923 58.6551 47.7603 58.4281 47.2283C57.8201 45.7863 57.1371 44.3053 56.4531 42.9013ZM60.8564 53.4922C70.2334 52.0122 78.4324 54.4412 79.4584 54.7832C78.1674 63.0962 73.3834 70.2712 66.6654 74.7892C66.3614 72.9672 64.7664 64.2352 60.8564 53.4922ZM50 85C69.284 85 85 69.322 85 50C85 30.678 69.284 15 50 15C30.678 15 15 30.678 15 50C15 69.322 30.678 85 50 85ZM94.48 0C97.528 0 100 2.472 100 5.521V94.48C100 97.528 97.528 100 94.48 100H5.52C2.471 100 0 97.528 0 94.48V5.521C0 2.472 2.471 0 5.52 0H94.48Z" fill="black"/>
</svg>
