<svg width="100" height="100" viewBox="0 0 100 100" fill="none" xmlns="http://www.w3.org/2000/svg">
<path fill-rule="evenodd" clip-rule="evenodd" d="M32.107 59.375C32.107 61.781 32.466 63.969 33.201 65.937C33.983 67.875 34.999 69.609 36.296 71.125C37.594 72.641 39.11 73.938 40.892 75.031C42.612 76.125 44.487 77.031 46.488 77.734C48.474 78.453 50.552 78.984 52.663 79.328C54.804 79.672 56.883 79.844 58.994 79.844C61.652 79.844 64.122 79.641 66.466 79.219C68.811 78.781 71.093 78.203 73.344 77.469C75.595 76.734 77.768 75.859 79.941 74.859C82.129 73.859 84.349 72.766 86.631 71.547V92.734C84.084 93.984 81.583 95.031 79.082 95.938C76.581 96.813 74.079 97.578 71.531 98.188C68.983 98.813 66.404 99.281 63.762 99.563C61.12 99.844 58.416 100 55.602 100C51.85 100 48.224 99.563 44.738 98.703C41.252 97.844 37.984 96.609 34.92 94.984C31.857 93.359 29.059 91.391 26.511 89.078C23.947 86.766 21.774 84.156 19.945 81.266C18.116 78.375 16.71 75.203 15.693 71.797C14.709 68.391 14.208 64.766 14.208 60.922C14.208 56.812 14.771 52.906 15.897 49.172C17.038 45.422 18.648 42.016 20.774 38.891C22.884 35.766 25.463 32.984 28.511 30.563C31.56 28.141 34.983 26.156 38.797 24.625C36.718 26.703 35.093 29.156 33.952 32.016C32.779 34.859 32.045 37.719 31.716 40.578H67.326C67.326 36.984 66.966 33.859 66.232 31.172C65.497 28.484 64.325 26.25 62.683 24.484C61.057 22.703 58.962 21.359 56.383 20.484C53.804 19.594 50.694 19.141 47.051 19.141C42.753 19.141 38.454 19.766 34.155 21.062C29.856 22.312 25.776 24.109 21.899 26.375C18.023 28.672 14.458 31.375 11.207 34.469C7.955 37.594 5.22 40.953 3 44.594C3.469 40.375 4.407 36.313 5.704 32.453C7.002 28.594 8.721 25 10.785 21.672C12.848 18.391 15.271 15.391 18.038 12.703C20.805 10.016 23.869 7.703 27.261 5.828C30.653 3.953 34.249 2.437 38.156 1.422C42.065 0.531 46.223 0 50.6 0C53.164 0 55.711 0.234 58.259 0.687C60.807 1.156 63.293 1.781 65.716 2.594C70.531 4.25 74.83 6.562 78.613 9.5C82.395 12.469 85.569 15.844 88.148 19.703C90.727 23.562 92.681 27.828 94.026 32.469C95.37 37.109 96.058 41.938 96.058 46.953V59.375H32.107Z" fill="black"/>
</svg>
