<svg width="100" height="100" viewBox="0 0 100 100" fill="none" xmlns="http://www.w3.org/2000/svg">
<g clip-path="url(#clip0)">
<path d="M96.9507 19.989L98.7408 18.199C100.42 16.5167 100.42 13.7928 98.7408 12.1106L87.8789 1.25969C86.1966 -0.419244 83.4727 -0.419244 81.7905 1.25969L80.0004 3.04975L96.9507 19.989Z" fill="black"/>
<path d="M63.9782 64.6411C62.4371 66.1835 60.5394 67.3221 58.4533 67.956L58.0223 68.0886V82.3207H17.6797V41.9891H31.8344L31.9891 41.4808C32.6264 39.3961 33.7645 37.4992 35.304 35.9559L46.9615 24.3094H13.9448C10.2416 24.3124 6.69136 25.787 4.07588 28.4087C1.46041 31.0304 -0.0058304 34.5842 1.74253e-05 38.2874V86.0555C0.00612833 93.7545 6.24586 99.9942 13.9448 100H61.7572C69.4561 99.9942 75.6959 93.7545 75.702 86.0555V52.9062L63.9782 64.6411Z" fill="black"/>
<path fill-rule="evenodd" clip-rule="evenodd" d="M41.1714 41.8344L76.0886 6.95032L93.039 23.9007L58.1217 58.7848C57.5415 59.3562 56.833 59.7805 56.0554 60.0223L40.5858 64.7295C40.1781 64.8567 39.7531 64.9201 39.3261 64.9175C37.9703 64.9133 36.6955 64.2715 35.8848 63.1848C35.0741 62.0981 34.8221 60.6932 35.2045 59.3925L39.9228 43.9228C40.1629 43.1355 40.5915 42.4187 41.1714 41.8344ZM52.0996 54.5748C53.1815 55.6508 54.9293 55.6508 56.0112 54.5748C56.5308 54.0566 56.8228 53.3529 56.8228 52.619C56.8228 51.8851 56.5308 51.1814 56.0112 50.6632L49.293 43.9449C48.5942 43.2462 47.5758 42.9733 46.6213 43.2291C45.6668 43.4848 44.9212 44.2304 44.6655 45.1849C44.4097 46.1394 44.6826 47.1578 45.3814 47.8566L52.0996 54.5748Z" fill="black"/>
</g>
<defs>
<clipPath id="clip0">
<rect width="100" height="100" fill="white"/>
</clipPath>
</defs>
</svg>
