<?xml version="1.0" encoding="UTF-8"?>
<svg width="100px" height="100px" viewBox="0 0 100 100" version="1.1" xmlns="http://www.w3.org/2000/svg" xmlns:xlink="http://www.w3.org/1999/xlink">
    <!-- Generator: Sketch 57.1 (83088) - https://sketch.com -->
    <title>solid/edit-solid</title>
    <desc>Created with Sketch.</desc>
    <g id="solid/edit" stroke="none" stroke-width="1" fill="none" fill-rule="evenodd">
        <path d="M32.6336633,32.950495 L28.960396,36.6138614 C27.157864,38.4210051 25.7963733,40.6167293 24.9786157,43.0301273 L24.8316831,43.4851485 L19.8019802,59.960396 C18.1275286,65.535454 19.6455354,71.5797431 23.7554591,75.702071 C27.7779375,79.7366898 33.6489354,81.294072 39.1283721,79.8044457 L39.4851485,79.7029703 L55.970297,74.6534654 C58.4103944,73.9091977 60.6437937,72.6127032 62.4983387,70.8671766 L62.8415842,70.5346535 L66.6138614,66.7722772 L66.6138614,92.7920793 C66.6085246,96.4184016 63.7325448,99.3714237 60.1365127,99.5005547 L59.9009901,99.5049505 L6.71287124,99.5049505 C3.08654886,99.4996138 0.133526795,96.623634 0.00439581486,93.0276019 L-5.00003665e-08,92.7920793 L-5.00003665e-08,39.6633663 C0.00533670978,36.0370439 2.88131653,33.0840219 6.47734864,32.9548909 L6.71287124,32.950495 L32.6336633,32.950495 Z M74.9207921,7.32673263 L92.1386139,24.5247524 L54.4653465,62.1485149 C53.9120012,62.7000529 53.2321975,63.1079351 52.4851485,63.3366337 L36,68.3564357 C34.5983613,68.7846162 33.0748472,68.4037377 32.0396039,67.3663367 C31.0022029,66.3310934 30.6213243,64.8075793 31.0495049,63.4059406 L36.1089109,46.9306931 C36.3376094,46.183644 36.7454916,45.5038404 37.2970297,44.950495 L74.9207921,7.32673263 Z M45.0891089,47.2079208 C44.167723,46.2865349 42.6738612,46.2865349 41.7524753,47.2079209 C40.8310894,48.1293068 40.8310894,49.6231685 41.7524752,50.5445545 L48.9306931,57.7029703 C49.371084,58.1455542 49.9697,58.3943804 50.5940594,58.3943804 C51.2184188,58.3943804 51.8170348,58.1455542 52.2574257,57.7029703 C52.7006079,57.2608861 52.9496775,56.6606318 52.9496775,56.0346535 C52.9496775,55.4086751 52.7006079,54.8084209 52.2574257,54.3663366 L45.0891089,47.2079208 Z M86.0972208,1.51288422 L86.2574258,1.66336629 L97.8316832,13.2376237 L97.9898512,13.4014259 C98.6528873,14.1287919 99.0232695,15.0796568 99.0232695,16.0693069 C99.0232695,17.058957 98.6528873,18.0098219 97.9898512,18.7371879 L97.8316832,18.9009901 L95.5148515,21.2277227 L78.2178218,3.99009896 L80.5841584,1.66336629 C82.1025258,0.158545649 84.5189809,0.108384961 86.0972208,1.51288422 L86.0972208,1.51288422 Z" id="Shape" fill="#000000"></path>
    </g>
</svg>