<?xml version="1.0" encoding="UTF-8"?>
<svg width="100px" height="100px" viewBox="0 0 100 100" version="1.1" xmlns="http://www.w3.org/2000/svg" xmlns:xlink="http://www.w3.org/1999/xlink">
    <!-- Generator: Sketch 57.1 (83088) - https://sketch.com -->
    <title>solid/ellipsis-horizontal-solid</title>
    <desc>Created with Sketch.</desc>
    <g id="solid/ellipsis-horizontal" stroke="none" stroke-width="1" fill="none" fill-rule="evenodd">
        <path d="M12.34,37.5 C19.1506274,37.5110115 24.6689884,43.0293725 24.68,49.84 C24.68,56.6551938 19.1551938,62.18 12.34,62.18 C5.52480614,62.18 -4.9999997e-08,56.6551938 -4.9999997e-08,49.84 C-4.9999997e-08,43.0248062 5.52480614,37.5 12.34,37.5 Z M50,37.5 C56.8106275,37.5110115 62.3289885,43.0293725 62.34,49.84 C62.34,56.6551938 56.8151938,62.18 50,62.18 C43.1848062,62.18 37.66,56.6551938 37.66,49.84 C37.66,43.0248062 43.1848062,37.5 50,37.5 Z M87.66,37.5 C94.4706275,37.5110115 99.9889885,43.0293725 100,49.84 C100,54.8310641 96.9934556,59.3306759 92.3823136,61.2406734 C87.7711716,63.150671 82.4635176,62.094913 78.9343023,58.5656977 C75.4050871,55.0364824 74.3493291,49.7288284 76.2593266,45.1176864 C78.1693241,40.5065445 82.6689359,37.5 87.66,37.5 L87.66,37.5 Z" id="Shape" fill="#000000"></path>
    </g>
</svg>