<?xml version="1.0" encoding="UTF-8"?>
<svg width="100px" height="100px" viewBox="0 0 100 100" version="1.1" xmlns="http://www.w3.org/2000/svg" xmlns:xlink="http://www.w3.org/1999/xlink">
    <!-- Generator: Sketch 57.1 (83088) - https://sketch.com -->
    <title>solid/equal-solid</title>
    <desc>Created with Sketch.</desc>
    <g id="solid/equal" stroke="none" stroke-width="1" fill="none" fill-rule="evenodd">
        <path d="M91.67,55.26 C96.270532,55.26 100,58.989468 100,63.59 C100,68.190532 96.270532,71.92 91.67,71.92 L8.32999996,71.92 C3.72946806,71.92 1.2554159e-07,68.1905319 1.2554159e-07,63.59 C1.2554159e-07,58.9894681 3.72946806,55.26 8.32999996,55.26 L91.67,55.26 Z M91.67,27.5 C96.1609756,27.6555797 99.7212528,31.3413303 99.7212528,35.835 C99.7212528,40.3286696 96.1609756,44.0144203 91.67,44.17 L8.32999996,44.17 C3.83902436,44.0144203 0.278747244,40.3286696 0.278747244,35.835 C0.278747244,31.3413303 3.83902436,27.6555797 8.32999996,27.5 L91.67,27.5 Z" id="Shape" fill="#000000"></path>
    </g>
</svg>