<?xml version="1.0" encoding="UTF-8"?>
<svg width="100px" height="100px" viewBox="0 0 100 100" version="1.1" xmlns="http://www.w3.org/2000/svg" xmlns:xlink="http://www.w3.org/1999/xlink">
    <!-- Generator: Sketch 57.1 (83088) - https://sketch.com -->
    <title>bold/equal-bold</title>
    <desc>Created with Sketch.</desc>
    <g id="bold/equal" stroke="none" stroke-width="1" fill="none" fill-rule="evenodd">
        <path d="M98.5957158,62.7340178 C99.4396617,64.1444036 99.4396617,65.9046161 98.5957158,67.3150018 C97.7517698,68.7253875 96.200621,69.5574243 94.5588236,69.4803922 L5.44117643,69.4803922 C3.79937902,69.5574243 2.24823016,68.7253875 1.40428423,67.3150018 C0.560338289,65.9046161 0.560338289,64.1444036 1.40428423,62.7340178 C2.24823016,61.3236321 3.79937902,60.4915953 5.44117643,60.5686275 L94.5588236,60.5686275 C96.200621,60.4915953 97.7517698,61.3236321 98.5957158,62.7340178 Z M98.5957158,33.0477433 C99.4396617,34.458129 99.4396617,36.2183415 98.5957158,37.6287273 C97.7517698,39.039113 96.200621,39.8711498 94.5588236,39.7941176 L5.44117643,39.7941176 C3.79937902,39.8711498 2.24823016,39.039113 1.40428423,37.6287273 C0.560338289,36.2183415 0.560338289,34.458129 1.40428423,33.0477433 C2.24823016,31.6373576 3.79937902,30.8053208 5.44117643,30.8823529 L94.5588236,30.8823529 C96.200621,30.8053208 97.7517698,31.6373576 98.5957158,33.0477433 Z" id="Shape" fill="#000000"></path>
    </g>
</svg>