<?xml version="1.0" encoding="UTF-8"?>
<svg width="100px" height="100px" viewBox="0 0 100 100" version="1.1" xmlns="http://www.w3.org/2000/svg" xmlns:xlink="http://www.w3.org/1999/xlink">
    <!-- Generator: Sketch 57.1 (83088) - https://sketch.com -->
    <title>regular/equal-regular</title>
    <desc>Created with Sketch.</desc>
    <g id="regular/equal" stroke="none" stroke-width="1" fill="none" fill-rule="evenodd">
        <path d="M97.62,63.22 C98.8773372,63.3014583 99.8554847,64.3450269 99.8554847,65.605 C99.8554847,66.8649731 98.8773372,67.9085418 97.62,67.99 L2.37999995,67.99 C1.12266279,67.9085418 0.144515321,66.8649731 0.144515321,65.605 C0.144515321,64.3450269 1.12266279,63.3014583 2.37999995,63.22 L97.62,63.22 Z M97.62,31.5 C98.9344378,31.5 100,32.5655623 100,33.88 C100,35.1944377 98.9344378,36.26 97.62,36.26 L2.37999995,36.26 C1.06556225,36.26 -4.9999997e-08,35.1944377 -4.9999997e-08,33.88 C-4.9999997e-08,32.5655623 1.06556225,31.5 2.37999995,31.5 L97.62,31.5 Z" id="Shape" fill="#000000"></path>
    </g>
</svg>