<?xml version="1.0" encoding="UTF-8"?>
<svg width="100px" height="100px" viewBox="0 0 100 100" version="1.1" xmlns="http://www.w3.org/2000/svg" xmlns:xlink="http://www.w3.org/1999/xlink">
    <!-- Generator: Sketch 57.1 (83088) - https://sketch.com -->
    <title>regular/erlenmeyer-regular</title>
    <desc>Created with Sketch.</desc>
    <g id="regular/erlenmeyer" stroke="none" stroke-width="1" fill="none" fill-rule="evenodd">
        <path d="M79.51,100.000001 L20.15,100.000001 C17.6991359,100.001272 15.4188972,98.7454123 14.1099237,96.6733783 C12.8009503,94.6013443 12.6461966,92.0027438 13.7,89.79 L38.81,36.94 C39.08014,36.3642207 39.2201237,35.736001 39.22,35.1 L39.22,7.55999996 C39.2231146,7.438792 39.1802433,7.32089592 39.1,7.22999996 L37.86,5.89999996 C36.9007327,4.88177636 36.6399136,3.39014554 37.1967444,2.10682463 C37.7535751,0.823503718 39.0210903,-0.00498543509 40.42,-2.24250076e-05 L59.28,-2.24250076e-05 C60.6789097,-0.00498543509 61.9464249,0.823503718 62.5032556,2.10682463 C63.0600864,3.39014554 62.7992673,4.88177636 61.84,5.89999996 L60.6,7.22999996 C60.5169789,7.31990711 60.4706049,7.43762579 60.47,7.55999996 L60.47,35.88 C60.4721544,36.5243875 60.619109,37.1600516 60.9,37.74 L85.9,89.74 C86.972517,91.9476173 86.835986,94.5513618 85.5384665,96.6347029 C84.2409471,98.7180439 81.9643317,99.9889289 79.51,100.000001 Z M43.18,4.75999995 C43.7108952,5.59778998 43.9950793,6.56817454 44,7.55999996 L44,35.1 C43.993627,36.4496177 43.6897464,37.781229 43.11,39 L18,91.84 C17.6502782,92.5772782 17.7026593,93.4423237 18.1387884,94.1320162 C18.5749175,94.8217087 19.3339826,95.24 20.15,95.24 L79.51,95.24 C80.3276685,95.2343082 81.0856754,94.8109907 81.5194136,94.1178202 C81.9531519,93.4246498 82.0024127,92.5578479 81.65,91.82 L56.65,39.82 C56.0592802,38.5939979 55.7516988,37.2508924 55.75,35.89 L55.75,7.55999996 C55.7469862,6.56845388 56.0280732,5.59679535 56.56,4.75999995 L43.18,4.75999995 Z" id="erlenmeyer" fill="#000000"></path>
    </g>
</svg>