<svg width="100" height="100" viewBox="0 0 100 100" fill="none" xmlns="http://www.w3.org/2000/svg">
<g clip-path="url(#clip0)">
<path d="M79.2588 100H20.5882C17.9678 99.9934 15.5328 98.6476 14.1331 96.4324C12.7334 94.2172 12.5633 91.4401 13.6823 89.0707L38.5059 36.8472C38.7239 36.3589 38.8324 35.8289 38.8235 35.2942V8.10598L37.647 6.82363C36.5463 5.64055 36.2523 3.91725 36.8983 2.43611C37.5444 0.954962 39.0076 -0.00183558 40.6235 5.05373e-05H59.2588C60.8778 -0.0080131 62.3458 0.949497 62.9909 2.43438C63.6361 3.91926 63.3342 5.64575 62.2235 6.82363L61.047 8.14128V36.0472C61.0449 36.5925 61.1656 37.1313 61.4 37.6236L86.1059 89.0354C87.2436 91.3982 87.0913 94.1792 85.7023 96.4036C84.3132 98.628 81.8812 99.9854 79.2588 100ZM44.3176 5.88245C44.5834 6.57689 44.7152 7.31542 44.7059 8.05893V35.2942C44.7031 36.7058 44.3898 38.0996 43.7882 39.3766L19 91.6001C18.7319 92.1435 18.7722 92.7884 19.1059 93.2942C19.4222 93.8088 19.9842 94.1209 20.5882 94.1178H79.2588C79.8652 94.1178 80.4287 93.805 80.7511 93.2915C81.0736 92.7779 81.1098 92.1348 80.847 91.5883L56.1412 40.1766C55.5239 38.8873 55.2024 37.4765 55.2 36.0472V8.05893C55.1822 7.31582 55.3101 6.57642 55.5764 5.88245H44.3176Z" fill="black"/>
</g>
<defs>
<clipPath id="clip0">
<rect width="100" height="100" fill="white"/>
</clipPath>
</defs>
</svg>
