<?xml version="1.0" encoding="UTF-8"?>
<svg width="100px" height="100px" viewBox="0 0 100 100" version="1.1" xmlns="http://www.w3.org/2000/svg" xmlns:xlink="http://www.w3.org/1999/xlink">
    <!-- Generator: Sketch 57.1 (83088) - https://sketch.com -->
    <title>bold/erlenmeyer-filled-bold</title>
    <desc>Created with Sketch.</desc>
    <g id="bold/erlenmeyer-filled" stroke="none" stroke-width="1" fill="none" fill-rule="evenodd">
        <path d="M58.95,-7.59075322e-06 C61.1903796,-0.00258837487 63.2182903,1.32572217 64.1110327,3.38055022 C65.0037752,5.43537826 64.5907957,7.82416014 63.06,9.45999996 L62.36,10.2 L62.36,36.52 C62.3588287,36.7936299 62.4204061,37.0638862 62.54,37.31 L86.5,86.9999924 C87.8465406,89.8133897 87.6548321,93.1209992 85.9922729,95.759982 C84.3297138,98.3989647 81.4290276,100.000043 78.31,100.000043 L21.6,100.000043 C18.4774189,100.0068 15.5704121,98.4086179 13.9030482,95.7684557 C12.2356843,93.1282936 12.0419147,89.8165981 13.39,86.9999924 L37.39,36.55 C37.5006901,36.3047824 37.5586085,36.0390391 37.56,35.77 L37.56,10.2 L36.87,9.45999996 C35.3428944,7.82813953 34.9278602,5.44650145 35.8129622,3.39427965 C36.6980642,1.34205785 38.7150654,0.00933142078 40.95,-7.59075322e-06 L58.95,-7.59075322e-06 Z M46.61,9.08999996 L46.61,35.78 C46.6241641,37.3944841 46.2827519,38.9922928 45.61,40.46 L21.6,90.91 L78.26,90.91 L54.35,41.25 C53.6424458,39.7733659 53.2734719,38.157397 53.27,36.52 L53.27,9.12999996 L46.61,9.08999996 Z M44.44,60.73 C44.44,62.5635854 45.9264146,64.05 47.76,64.05 C49.5935854,64.05 51.08,62.5635854 51.08,60.73 L58.68,60.73 L71.02,86.36 L28.79,86.36 L40.97,60.73 L44.44,60.73 Z M58.41,77 C56.5764146,77 55.09,78.4864147 55.09,80.32 C55.09,81.6628147 55.898892,82.8734072 57.139491,83.3872801 C58.38009,83.901153 59.8080812,83.6171079 60.7575945,82.6675945 C61.7071079,81.7180812 61.991153,80.29009 61.4772801,79.049491 C60.9634071,77.8088921 59.7528147,77 58.41,77 Z M42.17,69.6 C40.3364146,69.6 38.85,71.0864147 38.85,72.92 C38.85,74.7535854 40.3364146,76.24 42.17,76.24 C44.0035854,76.24 45.49,74.7535854 45.49,72.92 C45.49,71.0864147 44.0035854,69.6 42.17,69.6 Z" id="Shape" fill="#000000"></path>
    </g>
</svg>