<svg width="100" height="100" viewBox="0 0 100 100" fill="none" xmlns="http://www.w3.org/2000/svg">
<g clip-path="url(#clip0)">
<path fill-rule="evenodd" clip-rule="evenodd" d="M61.5997 61.106L75.5056 90.0001H24.3174L38.0468 61.106H44.2468C44.2468 63.0032 45.7848 64.5413 47.6821 64.5413C49.5793 64.5413 51.1174 63.0032 51.1174 61.106H61.5997ZM61.8961 80.0102C61.357 78.7273 60.0972 77.8964 58.7056 77.906C56.8176 77.9189 55.2939 79.4531 55.2939 81.3413C55.2939 82.7328 56.1334 83.9869 57.42 84.5172C58.7066 85.0476 60.186 84.7493 61.1666 83.7619C62.1472 82.7746 62.4353 81.2931 61.8961 80.0102ZM45.0796 72.4249C44.5468 71.1353 43.2891 70.2942 41.8939 70.2942C40.9807 70.2911 40.1039 70.6516 39.4571 71.2962C38.8103 71.9408 38.4468 72.8163 38.4468 73.7295C38.442 75.1247 39.2789 76.3853 40.5666 76.9225C41.8542 77.4598 43.3388 77.1678 44.3271 76.1829C45.3154 75.1979 45.6125 73.7144 45.0796 72.4249Z" fill="black"/>
<path fill-rule="evenodd" clip-rule="evenodd" d="M20.5886 100H79.2592C81.8816 99.9854 84.3136 98.628 85.7026 96.4036C87.0917 94.1792 87.244 91.3982 86.1062 89.0354L61.4003 37.6236C61.1659 37.1313 61.0453 36.5925 61.0474 36.0472V8.14128L62.2239 6.82363C63.3346 5.64575 63.6364 3.91926 62.9913 2.43438C62.3461 0.949497 60.8781 -0.0080131 59.2592 5.05373e-05H40.6239C39.0079 -0.00183558 37.5448 0.954962 36.8987 2.43611C36.2526 3.91725 36.5467 5.64055 37.6474 6.82363L38.8239 8.10598V35.2942C38.8327 35.8289 38.7243 36.3589 38.5062 36.8472L13.6827 89.0707C12.5637 91.4401 12.7337 94.2172 14.1334 96.4324C15.5331 98.6476 17.9682 99.9934 20.5886 100ZM44.7062 8.05893C44.7155 7.31542 44.5838 6.57689 44.318 5.88245H55.5768C55.3105 6.57642 55.1826 7.31582 55.2003 8.05893V36.0472C55.2027 37.4765 55.5243 38.8873 56.1415 40.1766L80.8474 91.5883C81.1102 92.1348 81.0739 92.7779 80.7515 93.2915C80.429 93.805 79.8655 94.1178 79.2592 94.1178H20.5886C19.9845 94.1209 19.4226 93.8088 19.1062 93.2942C18.7725 92.7884 18.7322 92.1435 19.0003 91.6001L43.7886 39.3766C44.3902 38.0996 44.7034 36.7058 44.7062 35.2942V8.05893Z" fill="black"/>
</g>
<defs>
<clipPath id="clip0">
<rect width="100" height="100" fill="white"/>
</clipPath>
</defs>
</svg>
