<?xml version="1.0" encoding="UTF-8"?>
<svg width="100px" height="100px" viewBox="0 0 100 100" version="1.1" xmlns="http://www.w3.org/2000/svg" xmlns:xlink="http://www.w3.org/1999/xlink">
    <!-- Generator: Sketch 57.1 (83088) - https://sketch.com -->
    <title>solid/eye-slash-solid</title>
    <desc>Created with Sketch.</desc>
    <g id="solid/eye-slash" stroke="none" stroke-width="1" fill="none" fill-rule="evenodd">
        <path d="M95.7418633,1.00282863 C97.3413469,1.40970521 98.5902948,2.65865313 98.9971714,4.25813665 C99.4040479,5.85762017 98.9037096,7.55155149 97.6930694,8.67326729 L7.68316827,98.6831684 C6.84152954,99.5280383 5.69749258,100.002047 4.50495045,100.000013 C2.68557385,99.9981396 1.04590701,98.9020803 0.348607404,97.2216315 C-0.348692199,95.5411828 0.0332698147,93.6062517 1.31683163,92.3168317 L91.3267327,2.30693065 C92.4484485,1.09629042 94.1423798,0.595952053 95.7418633,1.00282863 Z M62.5940594,53.3168317 L81.7029703,34.2079208 C86.8614757,38.3926091 91.5449938,43.1293808 95.6701445,48.3329353 L96.3168317,49.1584158 L97.3069307,50.4950495 L96.3168317,51.8316832 C95.4653466,52.980198 75.2475248,80.019802 49.5049505,80.019802 C45.7625222,80.0093133 42.0412387,79.4748449 38.4493036,78.4329595 L37.7326733,78.2178218 L52.3267327,63.5841584 C57.3609458,62.4972916 61.3162456,58.6242282 62.5209172,53.6366831 L62.5940594,53.3168317 L81.7029703,34.2079208 L62.5940594,53.3168317 Z M49.5049505,20.970297 C53.2503625,20.9815247 56.9745994,21.5160139 60.5698338,22.5572733 L61.2871287,22.7722772 L46.6831683,37.4059406 C41.6489552,38.4928074 37.6936554,42.3658708 36.4889838,47.3534159 L36.4158416,47.6732673 L17.3069307,66.7821782 C12.1484253,62.5974899 7.46490722,57.8607182 3.33975652,52.6571637 L2.69306926,51.8316832 L1.70297025,50.4950495 L2.69306926,49.1584158 C3.54455441,48.009901 23.8118812,20.970297 49.5049505,20.970297 Z" id="Shape" fill="#000000"></path>
    </g>
</svg>