<svg width="100" height="100" viewBox="0 0 100 100" fill="none" xmlns="http://www.w3.org/2000/svg">
<path d="M0.497142 95.9667C1.50729 98.4062 3.88672 99.9977 6.52717 100C8.25918 99.9985 9.91969 99.3092 11.1436 98.0838L98.2467 10.9856C100.645 8.41179 100.574 4.40092 98.0866 1.91329C95.5988 -0.574339 91.5878 -0.645106 89.0138 1.75322L1.91071 88.8514C0.0447869 90.7196 -0.513003 93.5272 0.497142 95.9667Z" fill="black"/>
<path d="M17.5353 65.1603L18.5588 65.9877L37.4166 47.1854C38.4903 42.2135 42.3742 38.3299 47.3463 37.2562L61.8817 22.6999C58.0689 21.4629 54.0876 20.8238 50.0792 20.8055C39.5942 20.8055 28.3034 25.5851 17.5353 34.6324C12.6636 38.7016 8.24316 43.2824 4.3501 48.2959L3.14155 49.9181L4.3501 51.5403C8.24557 56.5386 12.6659 61.1047 17.5353 65.1603Z" fill="black"/>
<path d="M82.6224 34.6761L81.6534 33.8051L62.7411 52.651C61.6674 57.6229 57.7835 61.5065 52.8114 62.5802L38.2761 77.1365C42.0888 78.3735 46.0701 79.0126 50.0785 79.0309C60.5635 79.0309 71.8543 74.2513 82.6224 65.204C87.4941 61.1348 91.9146 56.554 95.8076 51.5405L97.0162 49.9183L95.8076 48.2961C91.9122 43.2978 87.4918 38.7317 82.6224 34.6761Z" fill="black"/>
</svg>
