<?xml version="1.0" encoding="UTF-8"?>
<svg width="100px" height="100px" viewBox="0 0 100 100" version="1.1" xmlns="http://www.w3.org/2000/svg" xmlns:xlink="http://www.w3.org/1999/xlink">
    <!-- Generator: Sketch 57.1 (83088) - https://sketch.com -->
    <title>regular/eye-slash-regular</title>
    <desc>Created with Sketch.</desc>
    <g id="regular/eye-slash" stroke="none" stroke-width="1" fill="none" fill-rule="evenodd">
        <path d="M98.6569146,1.25352701 C99.5481549,2.13941451 99.5847591,3.56968384 98.74,4.49999995 L4.58999995,98.67 C4.15061082,99.1118516 3.55313364,99.3600002 2.92999995,99.3600002 C1.98771911,99.3492557 1.14214794,98.7789887 0.7790913,97.9093919 C0.416034658,97.0397952 0.605090797,96.0375712 1.25999995,95.36 L95.41,1.18999995 C96.3352104,0.33965197 97.7656743,0.367639516 98.6569146,1.25352701 Z M81.82,31.43 C87.9824506,36.159368 93.5415459,41.6248018 98.3738336,47.7036395 L99,48.5 L100,49.93 L99,51.33 C98.08,52.53 76.88,80.81 50,80.81 C45.1806512,80.7676718 40.4041719,79.9182772 35.8685173,78.2987072 L35.19,78.05 L38.92,74.32 C42.5003431,75.4786113 46.2369603,76.0822706 50,76.11 C71.25,76.11 89.49,55.5 94.08,49.93 C89.685293,44.5924189 84.7202032,39.7527988 79.2739246,35.4970892 L78.41,34.83 L81.82,31.43 Z M50,19.04 C54.8180768,19.0686146 59.5952002,19.9082754 64.1314017,21.5221213 L64.81,21.77 L61.08,25.5 C57.4975402,24.3549617 53.7609722,23.7647998 50,23.75 C28.75,23.75 10.51,44.31 5.91999996,49.93 C10.314707,55.2675811 15.2797968,60.1072012 20.7260754,64.3629108 L21.59,65.03 L18.18,68.43 C12.0164384,63.6800184 6.45747225,58.1953826 1.62604947,52.0986827 L0.99999995,51.3 L-4.99999544e-08,49.9 L0.99999995,48.5 C1.91999995,47.33 23.12,19.04 50,19.04 Z M61.5,51.74 L66.11,47.14 C66.2699424,48.0615392 66.3535595,48.9947062 66.36,49.93 C66.3489801,58.96081 59.03081,66.2789801 50,66.29 C49.2513649,66.2857467 48.50417,66.229218 47.7638582,66.1209212 L47.21,66.03 L51.82,61.43 C56.7039853,60.6510835 60.5536356,56.8796585 61.4488959,52.0377637 L61.5,51.74 L66.11,47.14 L61.5,51.74 Z M50,33.57 C50.7484013,33.571613 51.495548,33.625472 52.2360006,33.7310896 L52.79,33.82 L48.18,38.43 C43.2990202,39.2077286 39.4502629,42.9744209 38.5513344,47.8124705 L38.5,48.11 L33.89,52.72 C33.7306399,51.7983845 33.6470271,50.8652655 33.64,49.93 C33.6510199,40.89919 40.96919,33.5810199 50,33.57 Z" id="Shape" fill="#000000"></path>
    </g>
</svg>