<?xml version="1.0" encoding="UTF-8"?>
<svg width="100px" height="100px" viewBox="0 0 100 100" version="1.1" xmlns="http://www.w3.org/2000/svg" xmlns:xlink="http://www.w3.org/1999/xlink">
    <!-- Generator: Sketch 57.1 (83088) - https://sketch.com -->
    <title>regular/eye-regular</title>
    <desc>Created with Sketch.</desc>
    <g id="regular/eye" stroke="none" stroke-width="1" fill="none" fill-rule="evenodd">
        <path d="M50,19 C76.88,19 98.08,47.28 99,48.49 L100,49.89 L99,51.28 C98.08,52.49 76.88,80.77 50,80.77 C23.12,80.77 1.91999995,52.49 0.99999995,51.28 L-4.99999473e-08,49.89 L0.99999995,48.49 C1.91999995,47.28 23.12,19 50,19 Z M50,23.71 C28.75,23.71 10.51,44.27 5.91999996,49.89 C10.51,55.5 28.75,76.06 50,76.06 C71.25,76.06 89.49,55.5 94.08,49.89 C89.49,44.27 71.25,23.71 50,23.71 Z M56.2591485,34.7580086 C62.3771052,37.2943381 66.3640445,43.2671348 66.3600062,49.89 C66.3489801,58.92081 59.03081,66.2389801 50,66.2500062 C43.3771348,66.2540445 37.4043381,62.2671052 34.8680086,56.1491485 C32.3316792,50.0311919 33.7315912,42.9877388 38.414665,38.304665 C43.0977388,33.6215912 50.1411919,32.2216792 56.2591485,34.7580086 Z M50,38.23 L50,38.25 C45.2812437,38.24596 41.025255,41.0864297 39.2185342,45.4456082 C37.4118134,49.8047867 38.4105948,54.8231673 41.7486929,58.1584001 C45.0867911,61.493633 50.1060275,62.4881044 54.4636529,60.6776409 C58.8212783,58.8671774 61.6580922,54.6087511 61.6500345,49.89 C61.6500345,43.454263 56.4357346,38.2355195 50,38.23 Z" id="Shape" fill="#000000"></path>
    </g>
</svg>