<?xml version="1.0" encoding="UTF-8"?>
<svg width="100px" height="100px" viewBox="0 0 100 100" version="1.1" xmlns="http://www.w3.org/2000/svg" xmlns:xlink="http://www.w3.org/1999/xlink">
    <!-- Generator: Sketch 57.1 (83088) - https://sketch.com -->
    <title>brand/facebook-square-brand</title>
    <desc>Created with Sketch.</desc>
    <g id="brand/facebook-square" stroke="none" stroke-width="1" fill="none" fill-rule="evenodd">
        <path d="M94.4814,-0.0001 L5.5194,-0.0001 C2.4704,-0.0001 0.0004,2.4709 0.0004,5.5199 L0.0004,94.4799 C0.0004,97.5279 2.4704,99.9999 5.5194,99.9999 L53.4134,99.9999 L53.4134,61.2739 L40.3814,61.2739 L40.3814,46.1829 L53.4134,46.1829 L53.4134,35.0529 C53.4134,22.1369 61.3014,15.1039 72.8244,15.1039 C78.3434,15.1039 83.0864,15.5149 84.4694,15.6979 L84.4694,29.1959 L76.4774,29.1999 C70.2114,29.1999 68.9984,32.1779 68.9984,36.5469 L68.9984,46.1829 L83.9434,46.1829 L81.9974,61.2739 L68.9984,61.2739 L68.9984,99.9999 L94.4814,99.9999 C97.5284,99.9999 100.0004,97.5289 100.0004,94.4799 L100.0004,5.5199 C100.0004,2.4709 97.5294,-0.0001 94.4814,-0.0001" id="Fill-1" fill="#000000"></path>
    </g>
</svg>