<?xml version="1.0" encoding="UTF-8"?>
<svg width="100px" height="100px" viewBox="0 0 100 100" version="1.1" xmlns="http://www.w3.org/2000/svg" xmlns:xlink="http://www.w3.org/1999/xlink">
    <!-- Generator: Sketch 57.1 (83088) - https://sketch.com -->
    <title>brand/fajny-css-brand</title>
    <desc>Created with Sketch.</desc>
    <g id="brand/fajny-css" stroke="none" stroke-width="1" fill="none" fill-rule="evenodd">
        <path d="M99.97,57.83 L99.97,58.83 L64,58.83 L64,57.83 L99.97,57.83 Z M29.81001,42.27004 L29.81001,51.57994 C29.81001,52.87994 29.46001,53.87004 28.77001,54.55994 C28.08001,55.25004 27.02001,55.64004 25.61001,55.72004 L23.66001,55.80994 L23.46001,53.04004 L25.01001,52.95004 C25.48001,52.92004 25.81001,52.80994 26.01001,52.60994 C26.21001,52.40994 26.31001,52.09004 26.31001,51.64004 L26.31001,42.27004 L29.81001,42.27004 Z M82.1,42.10004 C83.06,42.10004 83.99,42.24004 84.89,42.51004 C85.79,42.77994 86.5,43.12994 87,43.56004 L85.94,46.02004 C84.73,45.19004 83.45,44.77004 82.12,44.77004 C81.48,44.77004 80.96,44.89004 80.57,45.14004 C80.18,45.39004 79.98,45.71004 79.98,46.12004 C79.98,46.36004 80.05,46.56004 80.19,46.71004 C80.33,46.86004 80.59,47.01004 80.97,47.15004 C81.35,47.30004 81.91,47.44004 82.65,47.60004 C83.86,47.87004 84.81,48.17994 85.51,48.56004 C86.21,48.94004 86.7,49.36004 86.9899,49.86004 C87.28,50.36004 87.43,50.94004 87.43,51.62004 C87.43,52.92994 86.93,53.95994 85.92,54.70004 C84.91,55.44004 83.49,55.80994 81.66,55.80994 C80.66,55.79004 79.67,55.65994 78.7,55.39004 C77.73,55.12004 76.94,54.77004 76.33,54.32994 L77.41,51.87004 C78.05,52.27004 78.74,52.57994 79.47,52.80004 C80.2,53.00994 80.94,53.12004 81.68,53.12004 C82.44,53.12004 83.02,53.02004 83.41,52.80994 C83.81,52.60004 84.01,52.30994 84.01,51.92994 C84.01,51.59004 83.83,51.30994 83.47,51.10004 C83.11,50.89004 82.43,50.67004 81.42,50.46004 C80.17,50.19004 79.19,49.87994 78.49,49.51004 C77.78,49.14004 77.29,48.71004 77,48.22004 C76.72,47.72994 76.57,47.12004 76.57,46.40004 C76.57,45.57994 76.8,44.84004 77.26,44.19004 C77.72,43.54004 78.37,43.02994 79.21,42.66004 C80.05,42.29004 81.01,42.10004 82.1,42.10004 Z M94.67002,42.10004 C95.63002,42.10004 96.55992,42.24004 97.45992,42.51004 C98.35992,42.77994 99.07002,43.12994 99.57002,43.56004 L98.50992,46.02004 C97.30002,45.19004 96.02002,44.77004 94.69002,44.77004 C94.05002,44.77004 93.53002,44.89004 93.14002,45.14004 C92.75002,45.39004 92.55002,45.71004 92.55002,46.12004 C92.55002,46.36004 92.62002,46.56004 92.75992,46.71004 C92.90002,46.86004 93.15992,47.01004 93.54002,47.15004 C93.92002,47.30004 94.48002,47.44004 95.22002,47.60004 C96.43002,47.87004 97.38002,48.17994 98.08002,48.56004 C98.78002,48.94004 99.27002,49.36004 99.55992,49.86004 C99.85002,50.36004 100.00002,50.94004 100.00002,51.62004 C100.00002,52.92994 99.50002,53.95994 98.49002,54.70004 C97.48002,55.44004 96.05992,55.80994 94.23002,55.80994 C93.23002,55.79004 92.24002,55.65994 91.27002,55.39004 C90.30002,55.12004 89.50992,54.77004 88.90002,54.32994 L89.98002,51.87004 C90.62002,52.27004 91.30992,52.57994 92.04002,52.80004 C92.77002,53.00994 93.50992,53.12004 94.25002,53.12004 C95.00992,53.12004 95.59002,53.02004 95.98002,52.80994 C96.38002,52.60004 96.58002,52.30994 96.58002,51.92994 C96.58002,51.59004 96.40002,51.30994 96.04002,51.10004 C95.68002,50.89004 95.00002,50.67004 93.99002,50.46004 C92.74002,50.19004 91.75992,49.87994 91.05992,49.51004 C90.35002,49.14004 89.85992,48.71004 89.57002,48.22004 C89.29002,47.72994 89.14002,47.12004 89.14002,46.40004 C89.14002,45.57994 89.37002,44.84004 89.83002,44.19004 C90.29002,43.54004 90.94002,43.02994 91.78002,42.66004 C92.62002,42.29004 93.58002,42.10004 94.67002,42.10004 Z M70.77004,42.10004 C71.64004,42.10004 72.47994,42.22994 73.30004,42.50004 C74.10994,42.77004 74.77994,43.12004 75.30004,43.56004 L74.22004,46.02004 C73.12004,45.25004 72.00004,44.87004 70.85004,44.87004 C69.75994,44.87004 68.92994,45.21004 68.35994,45.89004 C67.79004,46.57004 67.50004,47.59004 67.50004,48.94004 C67.50004,50.29004 67.79004,51.30994 68.35994,52.00004 C68.92994,52.69004 69.75994,53.02994 70.85004,53.02994 C72.00004,53.02994 73.12004,52.65004 74.22004,51.87994 L75.30004,54.34004 C74.77994,54.77994 74.12004,55.14004 73.30004,55.40004 C72.49004,55.67004 71.64004,55.80004 70.77004,55.80004 C69.37994,55.79004 68.17004,55.50004 67.14004,54.94004 C66.10994,54.37004 65.32004,53.57004 64.77004,52.54004 C64.22004,51.50994 63.95004,50.31004 63.95004,48.94004 C63.95004,47.57994 64.22994,46.37994 64.77004,45.35004 C65.32004,44.32004 66.10994,43.52004 67.14004,42.95004 C68.17004,42.37994 69.37994,42.10004 70.77004,42.10004 Z M9.3,42.27 L9.3,45 L3.43,45 L3.43,47.46 L8.92,47.46 L8.92,50.19 L3.43,50.19 L3.43,55.6201 L1.8189894e-12,55.6201 L1.8189894e-12,42.27 L9.3,42.27 Z M17.30002,42.26999 L23.55002,55.61999 L20.11002,55.61999 L18.92002,52.85999 L13.01002,52.85999 L11.82002,55.61999 L8.32002,55.61999 L14.54002,42.26999 L17.30002,42.26999 Z M34.77999,42.27002 L40.88999,49.90002 L40.88999,42.27002 L44.14999,42.27002 L44.14999,55.62002 L41.57999,55.62002 L35.47999,47.99002 L35.47999,55.62002 L32.23999,55.62002 L32.23999,42.27002 L34.77999,42.27002 Z M48.1,42.27002 L51.5,46.91002 L54.95,42.27002 L58.9,42.27002 L53.26,49.67002 L53.26,55.60992 L49.78,55.60992 L49.78,49.67002 L44.18,42.27002 L48.1,42.27002 Z M15.96002,45.95999 L14.12002,50.23999 L17.80002,50.23999 L15.96002,45.95999 Z" id="Shape" fill="#000000"></path>
    </g>
</svg>