<svg width="100" height="100" viewBox="0 0 100 100" fill="none" xmlns="http://www.w3.org/2000/svg">
<path fill-rule="evenodd" clip-rule="evenodd" d="M99.97 57.8301V58.8301H64V57.8301H99.97ZM29.81 42.2701V51.58C29.81 52.88 29.46 53.8701 28.77 54.56C28.08 55.2501 27.02 55.6401 25.61 55.7201L23.66 55.81L23.46 53.0401L25.01 52.9501C25.48 52.9201 25.81 52.81 26.01 52.61C26.21 52.41 26.31 52.0901 26.31 51.6401V42.2701H29.81ZM82.1 42.1001C83.06 42.1001 83.99 42.2401 84.89 42.5101C85.79 42.78 86.5 43.13 87 43.5601L85.94 46.0201C84.73 45.1901 83.45 44.7701 82.12 44.7701C81.48 44.7701 80.96 44.8901 80.57 45.1401C80.18 45.3901 79.98 45.7101 79.98 46.1201C79.98 46.3601 80.05 46.5601 80.19 46.7101C80.33 46.8601 80.59 47.0101 80.97 47.1501C81.35 47.3001 81.91 47.4401 82.65 47.6001C83.86 47.8701 84.81 48.18 85.51 48.5601C86.21 48.9401 86.7 49.3601 86.9899 49.8601C87.28 50.3601 87.43 50.9401 87.43 51.6201C87.43 52.93 86.93 53.96 85.92 54.7001C84.91 55.4401 83.49 55.81 81.66 55.81C80.66 55.7901 79.67 55.66 78.7 55.3901C77.73 55.1201 76.94 54.7701 76.33 54.33L77.41 51.8701C78.05 52.2701 78.74 52.58 79.47 52.8001C80.2 53.01 80.94 53.1201 81.68 53.1201C82.44 53.1201 83.02 53.0201 83.41 52.81C83.81 52.6001 84.01 52.31 84.01 51.93C84.01 51.5901 83.83 51.31 83.47 51.1001C83.11 50.8901 82.43 50.6701 81.42 50.4601C80.17 50.1901 79.19 49.88 78.49 49.5101C77.78 49.1401 77.29 48.7101 77 48.2201C76.72 47.73 76.57 47.1201 76.57 46.4001C76.57 45.58 76.8 44.8401 77.26 44.1901C77.72 43.5401 78.37 43.03 79.21 42.6601C80.05 42.2901 81.01 42.1001 82.1 42.1001ZM94.67 42.1001C95.63 42.1001 96.5599 42.2401 97.4599 42.5101C98.3599 42.78 99.07 43.13 99.57 43.5601L98.5099 46.0201C97.3 45.1901 96.02 44.7701 94.69 44.7701C94.05 44.7701 93.53 44.8901 93.14 45.1401C92.75 45.3901 92.55 45.7101 92.55 46.1201C92.55 46.3601 92.62 46.5601 92.7599 46.7101C92.9 46.8601 93.1599 47.0101 93.54 47.1501C93.92 47.3001 94.48 47.4401 95.22 47.6001C96.43 47.8701 97.38 48.18 98.08 48.5601C98.78 48.9401 99.27 49.3601 99.5599 49.8601C99.85 50.3601 100 50.9401 100 51.6201C100 52.93 99.5 53.96 98.49 54.7001C97.48 55.4401 96.0599 55.81 94.23 55.81C93.23 55.7901 92.24 55.66 91.27 55.3901C90.3 55.1201 89.5099 54.7701 88.9 54.33L89.98 51.8701C90.62 52.2701 91.3099 52.58 92.04 52.8001C92.77 53.01 93.5099 53.1201 94.25 53.1201C95.0099 53.1201 95.59 53.0201 95.98 52.81C96.38 52.6001 96.58 52.31 96.58 51.93C96.58 51.5901 96.4 51.31 96.04 51.1001C95.68 50.8901 95 50.6701 93.99 50.4601C92.74 50.1901 91.7599 49.88 91.0599 49.5101C90.35 49.1401 89.8599 48.7101 89.57 48.2201C89.29 47.73 89.14 47.1201 89.14 46.4001C89.14 45.58 89.37 44.8401 89.83 44.1901C90.29 43.5401 90.94 43.03 91.78 42.6601C92.62 42.2901 93.58 42.1001 94.67 42.1001ZM70.77 42.1001C71.64 42.1001 72.4799 42.23 73.3 42.5001C74.1099 42.7701 74.7799 43.1201 75.3 43.5601L74.22 46.0201C73.12 45.2501 72 44.8701 70.85 44.8701C69.7599 44.8701 68.9299 45.2101 68.3599 45.8901C67.79 46.5701 67.5 47.5901 67.5 48.9401C67.5 50.2901 67.79 51.31 68.3599 52.0001C68.9299 52.6901 69.7599 53.03 70.85 53.03C72 53.03 73.12 52.6501 74.22 51.88L75.3 54.3401C74.7799 54.78 74.12 55.1401 73.3 55.4001C72.49 55.6701 71.64 55.8001 70.77 55.8001C69.3799 55.7901 68.17 55.5001 67.14 54.9401C66.1099 54.3701 65.32 53.5701 64.77 52.5401C64.22 51.51 63.95 50.3101 63.95 48.9401C63.95 47.58 64.2299 46.38 64.77 45.3501C65.32 44.3201 66.1099 43.5201 67.14 42.9501C68.17 42.38 69.3799 42.1001 70.77 42.1001ZM9.3 42.2701V45.0001H3.43V47.4601H8.92V50.1901H3.43V55.6202H0V42.2701H9.3ZM17.3 42.27L23.55 55.62H20.11L18.92 52.86H13.01L11.82 55.62H8.32002L14.54 42.27H17.3ZM34.78 42.2701L40.89 49.9001V42.2701H44.15V55.6201H41.58L35.48 47.9901V55.6201H32.24V42.2701H34.78ZM48.1 42.2701L51.5 46.9101L54.95 42.2701H58.9L53.26 49.6701V55.61H49.78V49.6701L44.18 42.2701H48.1ZM15.96 45.96L14.12 50.24H17.8L15.96 45.96Z" fill="black"/>
</svg>
