<svg width="100" height="100" viewBox="0 0 100 100" fill="none" xmlns="http://www.w3.org/2000/svg">
<g clip-path="url(#clip0)">
<path d="M87.188 43.3174C86.3818 41.9091 84.5902 41.4152 83.1763 42.2115L68.1292 50.7527L57.141 46.6233C55.6173 46.0515 53.9186 46.8232 53.3469 48.3468C52.7751 49.8705 53.5467 51.5692 55.0704 52.1409L68.6469 57.2351L86.0822 47.3292C86.7611 46.9441 87.2591 46.3049 87.4665 45.5525C87.6739 44.8 87.5738 43.996 87.188 43.3174Z" fill="black"/>
<path fill-rule="evenodd" clip-rule="evenodd" d="M92.6707 33.7765L96.1295 30.3294C96.8734 29.5855 97.164 28.5012 96.8917 27.4849C96.6194 26.4686 95.8256 25.6748 94.8093 25.4025C93.7931 25.1302 92.7087 25.4208 91.9648 26.1647L88.506 29.6236C83.6167 25.6034 77.6327 23.1443 71.3295 22.5647V20H77.2118C78.8362 20 80.153 18.6832 80.153 17.0589C80.153 15.4345 78.8362 14.1177 77.2118 14.1177H59.5648C57.9404 14.1177 56.6236 15.4345 56.6236 17.0589C56.6236 18.6832 57.9404 20 59.5648 20H65.4471V22.5177C50.9525 23.8548 39.2392 34.9066 37.0628 49.2991C34.8864 63.6916 42.8082 77.7127 56.2594 83.2757C69.7106 88.8387 85.2218 84.5088 93.847 72.7833C102.472 61.0578 101.987 44.961 92.6707 33.7765ZM68.3883 79.7294C57.9748 79.7342 48.5843 73.4643 44.5971 63.8444C40.6098 54.2245 42.8114 43.1499 50.1748 35.7865C57.5382 28.4231 68.6128 26.2215 78.2327 30.2088C87.8526 34.196 94.1225 43.5866 94.1177 54C94.1048 68.2046 82.5929 79.7165 68.3883 79.7294Z" fill="black"/>
<path d="M2.94118 59.1763H24C25.6244 59.1763 26.9412 57.8595 26.9412 56.2351C26.9412 54.6108 25.6244 53.2939 24 53.2939H2.94118C1.31681 53.2939 0 54.6108 0 56.2351C0 57.8595 1.31681 59.1763 2.94118 59.1763Z" fill="black"/>
<path d="M31.0469 50.2119H9.98805C8.36368 50.2119 7.04688 48.8951 7.04688 47.2708C7.04688 45.6464 8.36368 44.3296 9.98805 44.3296H31.0469C32.6712 44.3296 33.9881 45.6464 33.9881 47.2708C33.9881 48.8951 32.6712 50.2119 31.0469 50.2119Z" fill="black"/>
<path d="M9.98805 68.1411H31.0469C32.6712 68.1411 33.9881 66.8243 33.9881 65.2C33.9881 63.5756 32.6712 62.2588 31.0469 62.2588H9.98805C8.36368 62.2588 7.04688 63.5756 7.04688 65.2C7.04688 66.8243 8.36368 68.1411 9.98805 68.1411Z" fill="black"/>
</g>
<defs>
<clipPath id="clip0">
<rect width="100" height="100" fill="white"/>
</clipPath>
</defs>
</svg>
