<?xml version="1.0" encoding="UTF-8"?>
<svg width="100px" height="100px" viewBox="0 0 100 100" version="1.1" xmlns="http://www.w3.org/2000/svg" xmlns:xlink="http://www.w3.org/1999/xlink">
    <!-- Generator: Sketch 57.1 (83088) - https://sketch.com -->
    <title>regular/fast-regular</title>
    <desc>Created with Sketch.</desc>
    <g id="regular/fast" stroke="none" stroke-width="1" fill="none" fill-rule="evenodd">
        <path d="M77.55,14 C78.8644377,14 79.93,15.0655623 79.93,16.38 C79.93,17.6396694 78.9513847,18.670771 77.7129494,18.7545092 L77.55,18.76 L71,18.76 L71,22.46 C77.4564013,22.9466813 83.597178,25.4275708 88.5761004,29.5524233 L89,29.91 L92.89,26 C93.8233613,25.0694002 95.3344002,25.0716388 96.265,26.005 C97.1532998,26.8959357 97.1916374,28.3132265 96.381505,29.249611 L96.26,29.38 L92.37,33.27 C101.874182,44.2891616 102.56849,60.3925549 94.048012,72.1888614 C85.5275338,83.9851679 70.0219979,88.3874054 56.574059,82.8282383 C43.1261202,77.2690713 35.2549773,63.2032812 37.5509927,48.8338794 C39.8240479,34.6081715 51.4730461,23.7704 65.7854815,22.4956939 L66.22,22.46 L66.22,18.76 L59.67,18.76 C58.3555623,18.76 57.29,17.6944377 57.29,16.38 C57.29,15.1203305 58.2686154,14.0892289 59.5070506,14.0054907 L59.67,14 L77.55,14 Z M49.7662138,34.9091395 C42.1451535,42.5273389 39.8641148,53.9864621 43.986894,63.9423756 C48.1096732,73.8982891 57.824216,80.39 68.6,80.39 C83.302114,80.3734787 95.2179589,68.4621068 95.2400038,53.76 C95.244045,42.9842167 88.7559826,33.2672374 78.8016177,29.1407205 C68.8472527,25.0142037 57.387274,27.29094 49.7662138,34.9091395 Z M30.82,62.71 C32.1344377,62.71 33.2,63.7755623 33.2,65.09 C33.2,66.4044377 32.1344377,67.47 30.82,67.47 L9.50999996,67.47 C8.19556225,67.47 7.12999996,66.4044377 7.12999996,65.09 C7.12999996,63.7755623 8.19556225,62.71 9.50999996,62.71 L30.82,62.71 Z M23.69,53.62 C25.0021616,53.6254788 26.0645212,54.6878384 26.07,56 C26.07,57.2596695 25.0913846,58.2907711 23.8529494,58.3745093 L23.69,58.38 L2.37999995,58.38 C1.06556225,58.38 -5.00000361e-08,57.3144377 -5.00000361e-08,56 C-5.00000361e-08,54.7403305 0.978615323,53.7092289 2.21705054,53.6254907 L2.37999995,53.62 L23.69,53.62 Z M86.2301726,42.3674201 C86.9634888,42.7979868 87.4113962,43.5870664 87.4052994,44.4374201 C87.3993682,45.2310837 86.9987805,45.9655859 86.3441217,46.4012946 L86.2,46.49 L68.8,56.38 L55.33,51.32 C54.098405,50.8588422 53.4738422,49.486595 53.935,48.255 C54.3769429,47.0747215 55.6556328,46.451943 56.8453941,46.8079754 L57,46.86 L68.4,51.14 L83.86,42.35 L83.85,42.35 C84.5895398,41.9302129 85.4968565,41.9368534 86.2301726,42.3674201 Z M9.50999996,44.57 L30.82,44.57 C31.6702921,44.57 32.4559945,45.0236254 32.8811405,45.76 C33.3062866,46.4963745 33.3062866,47.4036254 32.8811405,48.14 C32.4843375,48.827283 31.7734499,49.26826 30.9891095,49.3240023 L30.82,49.33 L9.50999996,49.33 C8.19556229,49.33 7.13000006,48.2644377 7.13000006,46.95 C7.13000006,45.6903306 8.10861537,44.6592289 9.34705055,44.5754907 L9.50999996,44.57 L30.82,44.57 L9.50999996,44.57 Z" id="Shape" fill="#000000"></path>
    </g>
</svg>