<?xml version="1.0" encoding="UTF-8"?>
<svg width="100px" height="100px" viewBox="0 0 100 100" version="1.1" xmlns="http://www.w3.org/2000/svg" xmlns:xlink="http://www.w3.org/1999/xlink">
    <!-- Generator: Sketch 57.1 (83088) - https://sketch.com -->
    <title>bold/fast-backward-bold</title>
    <desc>Created with Sketch.</desc>
    <g id="bold/fast-backward" stroke="none" stroke-width="1" fill="none" fill-rule="evenodd">
        <path d="M96.87,14.16 C94.9535958,13.1559243 92.6361606,13.31042 90.87,14.56 L54.55,40.19 L54.55,19.3 C54.5493386,17.1345838 53.3424631,15.1498669 51.4201687,14.1529658 C49.4978743,13.1560648 47.1803292,13.3130188 45.41,14.56 L2.45999995,44.87 C0.919104298,45.9544025 0.00224768989,47.7207791 0.00224768989,49.605 C0.00224768989,51.4892209 0.919104298,53.2555975 2.45999995,54.34 L45.41,84.64 C47.1788601,85.8859529 49.494177,86.0437621 51.415738,85.0493437 C53.3372991,84.0549254 54.5456118,82.0736186 54.55,79.91 L54.55,59.02 L90.86,84.64 C92.6288601,85.8859529 94.944177,86.0437621 96.8657381,85.0493437 C98.7872991,84.0549254 99.9956118,82.0736186 100.000021,79.91 L100.000021,19.3 C100.005816,17.134517 98.7965838,15.1487492 96.87,14.16 L96.87,14.16 Z M45.45,73.55 L11.51,49.6 L45.45,25.66 L45.45,73.55 Z M90.91,73.55 L57,49.6 L90.91,25.66 L90.91,73.55 Z" id="fast-backward" fill="#000000"></path>
    </g>
</svg>