<svg width="100" height="100" viewBox="0 0 100 100" fill="none" xmlns="http://www.w3.org/2000/svg">
<path d="M68.4348 47.294H31.5642C29.9399 47.294 28.623 45.9772 28.623 44.3528C28.623 42.7284 29.9399 41.4116 31.5642 41.4116H68.4348C70.0592 41.4116 71.376 42.7284 71.376 44.3528C71.376 45.9772 70.0592 47.294 68.4348 47.294Z" fill="black"/>
<path d="M31.5642 36H68.4348C70.0592 36 71.376 34.6832 71.376 33.0589C71.376 31.4345 70.0592 30.1177 68.4348 30.1177H31.5642C29.9399 30.1177 28.623 31.4345 28.623 33.0589C28.623 34.6832 29.9399 36 31.5642 36Z" fill="black"/>
<path d="M68.4348 58.5884H31.5642C29.9399 58.5884 28.623 57.2716 28.623 55.6472C28.623 54.0229 29.9399 52.7061 31.5642 52.7061H68.4348C70.0592 52.7061 71.376 54.0229 71.376 55.6472C71.376 57.2716 70.0592 58.5884 68.4348 58.5884Z" fill="black"/>
<path d="M31.5642 69.8824H68.4348C70.0592 69.8824 71.376 68.5655 71.376 66.9412C71.376 65.3168 70.0592 64 68.4348 64H31.5642C29.9399 64 28.623 65.3168 28.623 66.9412C28.623 68.5655 29.9399 69.8824 31.5642 69.8824Z" fill="black"/>
<path fill-rule="evenodd" clip-rule="evenodd" d="M75.4115 100H24.5879C21.4069 99.9935 18.8297 97.4164 18.8232 94.2353V5.76471C18.8297 2.58363 21.4069 0.0064722 24.5879 0H61.7644C62.6363 0 63.4196 0.379411 63.9582 0.982141L80.1941 17.218C80.7968 17.7566 81.1762 18.5399 81.1762 19.4118V94.2353C81.1697 97.4164 78.5926 99.9935 75.4115 100ZM71.1291 16.4706L64.7056 10.0471V16.4706H71.1291ZM24.7056 5.88235H58.8232V22.3529H75.2938V94.1176H24.7056V5.88235Z" fill="black"/>
</svg>
