<?xml version="1.0" encoding="UTF-8"?>
<svg width="100px" height="100px" viewBox="0 0 100 100" version="1.1" xmlns="http://www.w3.org/2000/svg" xmlns:xlink="http://www.w3.org/1999/xlink">
    <!-- Generator: Sketch 57.1 (83088) - https://sketch.com -->
    <title>regular/files-regular</title>
    <desc>Created with Sketch.</desc>
    <g id="regular/files" stroke="none" stroke-width="1" fill="none" fill-rule="evenodd">
        <path d="M65.6234106,0.0401603884 L65.78,0.04999995 L65.8810315,0.0765615785 L65.98,0.10999995 L66.22,0.17999995 L66.5,0.29999995 L66.63,0.39999995 C66.7179747,0.459241247 66.8023301,0.52360768 66.8826348,0.59274947 L67,0.699999951 L81.9,15.55 C82.0107446,15.6642193 82.1111381,15.788038 82.2,15.92 C82.2325644,15.9701748 82.2593988,16.0238435 82.28,16.08 C82.3325838,16.159879 82.3793705,16.2434266 82.42,16.33 C82.49,16.4 82.43,16.47 82.49,16.55 C82.55,16.63 82.55,16.7 82.55,16.77 C82.5598189,16.8719864 82.5630919,16.9744444 82.5598189,17.0767452 L82.55,17.23 L82.55,84.71 C82.55,87.3611122 80.4574056,89.5234727 77.8338532,89.6354452 L77.62,89.64 L72.19,89.64 L72.19,95.07 C72.19,97.7211122 70.0974056,99.8834727 67.4738532,99.9954452 L67.26,100 L21.43,100 C18.7788878,100 16.6165273,97.9074056 16.5045548,95.2838532 L16.5,95.07 L16.5,15.29 C16.5266764,12.6598424 18.6093528,10.5279168 21.2119466,10.4147269 L21.43,10.41 L26.86,10.41 L26.86,4.97999995 C26.86,2.32888782 28.9525944,0.166527289 31.5761468,0.0545547907 L31.79,0.04999995 L65.31,0.04999995 L65.4665894,0.0401603884 L65.6234106,0.0401603884 Z M26.86,15.12 L21.43,15.12 C21.3565993,15.1239761 21.2950206,15.1716699 21.2707805,15.2375648 L21.26,15.29 L21.26,95.07 C21.2639761,95.1434007 21.3116699,95.2049794 21.3775648,95.2292196 L21.43,95.24 L67.26,95.24 C67.3334007,95.2360239 67.3949794,95.1883301 67.4192195,95.1224352 L67.43,95.07 L67.43,89.64 L31.79,89.64 C29.1388878,89.64 26.9765273,87.5474056 26.8645548,84.9238532 L26.86,84.71 L26.86,15.12 Z M62.93,4.75999995 L31.79,4.75999995 C31.7165993,4.76397613 31.6550206,4.81166987 31.6307805,4.87756476 L31.62,4.92999995 L31.62,84.71 C31.6239762,84.7834007 31.6716699,84.8449794 31.7375648,84.8692196 L31.79,84.88 L77.62,84.88 C77.6934007,84.8760239 77.7549794,84.8283301 77.7792195,84.7624352 L77.79,84.71 L77.79,19.64 L62.93,19.64 L62.93,16.64 L38.09,16.64 C36.7755623,16.64 35.71,15.5744377 35.71,14.26 C35.71,13.0003305 36.6886154,11.9692289 37.9270506,11.8854907 L38.09,11.88 L62.93,11.88 L62.93,4.75999995 Z M37.9128709,72.9950842 L38.09,73 L71.33,73 C72.5873372,73.0814583 73.5654847,74.1250269 73.5654847,75.385 C73.5654847,76.6449731 72.5873372,77.6885418 71.33,77.77 L38.09,77.77 C37.201063,77.827591 36.3538658,77.3860267 35.8919337,76.6243546 C35.4300016,75.8626825 35.4300016,74.9073176 35.8919337,74.1456455 C36.3538658,73.3839733 37.201063,72.9424091 38.09,73 L37.9128709,72.9950842 Z M38.09,62.81 L71.33,62.81 C72.6444377,62.81 73.71,63.8755623 73.71,65.19 C73.71,66.4496695 72.7313846,67.4807711 71.4929494,67.5645093 L71.33,67.57 L38.09,67.57 C36.7755623,67.57 35.71,66.5044377 35.71,65.19 C35.71,63.9303305 36.6886154,62.8992289 37.9270506,62.8154907 L38.09,62.81 L71.33,62.81 L38.09,62.81 Z M37.9128709,52.6150842 L38.09,52.62 L71.33,52.62 C72.5873372,52.7014582 73.5654847,53.7450269 73.5654847,55.005 C73.5654847,56.2101917 72.6705444,57.2173876 71.4923598,57.3739801 L71.33,57.39 L38.09,57.39 C37.201063,57.447591 36.3538658,57.0060267 35.8919337,56.2443546 C35.4300016,55.4826824 35.4300016,54.5273176 35.8919337,53.7656455 C36.2922749,53.1055296 36.9819929,52.6858503 37.7374656,52.6231608 L37.9128709,52.6150842 Z M71.33,42.44 C72.6444377,42.44 73.7099998,43.5055623 73.7099998,44.82 C73.7099998,46.0796695 72.7313846,47.1107711 71.4929494,47.1945093 L71.33,47.2 L38.09,47.2 C37.2397078,47.2 36.4540055,46.7463746 36.0288594,46.01 C35.6037133,45.2736255 35.6037133,44.3663745 36.0288594,43.63 C36.4256624,42.942717 37.13655,42.50174 37.9208905,42.4459977 L38.09,42.44 L71.33,42.44 Z M71.33,32.25 C72.6444377,32.25 73.71,33.3155623 73.71,34.63 C73.71,35.8896695 72.7313846,36.9207711 71.4929494,37.0045093 L71.33,37.01 L38.09,37.01 C36.7755623,37.01 35.71,35.9444377 35.71,34.63 C35.71,33.3703305 36.6886154,32.3392289 37.9270506,32.2554907 L38.09,32.25 L71.33,32.25 Z M71.33,22.0699789 C72.1802922,22.0699789 72.9659945,22.5236254 73.3911406,23.2599999 C73.8162866,23.9963745 73.8162866,24.9036254 73.3911406,25.64 C72.9943376,26.3272829 72.28345,26.7682599 71.4991096,26.8240023 L71.33,26.83 L38.09,26.83 C36.7739348,26.83 35.7055065,25.7660536 35.7,24.45 C35.7,23.8170483 35.9521159,23.2101656 36.4006177,22.7635404 C36.8042692,22.3615778 37.3370613,22.119226 37.9010009,22.0766986 L38.09,22.0699789 L71.33,22.0699789 Z M67.69,8.12999996 L67.69,14.86 L74.42,14.86 L67.69,8.12999996 Z" id="Shape" fill="#000000"></path>
    </g>
</svg>