<svg width="100" height="100" viewBox="0 0 100 100" fill="none" xmlns="http://www.w3.org/2000/svg">
<path fill-rule="evenodd" clip-rule="evenodd" d="M58.8232 0V22.3529H81.1762V94.2353C81.1697 97.4164 78.5926 99.9935 75.4115 100H24.5879C21.4069 99.9935 18.8297 97.4164 18.8232 94.2353V5.76471C18.8297 2.58363 21.4069 0.0064722 24.5879 0H58.8232ZM31.5644 69.8824H68.435C70.0594 69.8824 71.3762 68.5655 71.3762 66.9412C71.3762 65.3168 70.0594 64 68.435 64H31.5644C29.9401 64 28.6232 65.3168 28.6232 66.9412C28.6232 68.5655 29.9401 69.8824 31.5644 69.8824ZM31.5644 58.5882H68.435C70.0594 58.5882 71.3762 57.2714 71.3762 55.6471C71.3762 54.0227 70.0594 52.7059 68.435 52.7059H31.5644C29.9401 52.7059 28.6232 54.0227 28.6232 55.6471C28.6232 57.2714 29.9401 58.5882 31.5644 58.5882ZM31.5644 47.2941H68.435C70.0594 47.2941 71.3762 45.9773 71.3762 44.3529C71.3762 42.7286 70.0594 41.4118 68.435 41.4118H31.5644C29.9401 41.4118 28.6232 42.7286 28.6232 44.3529C28.6232 45.9773 29.9401 47.2941 31.5644 47.2941ZM31.5644 36H68.435C70.0594 36 71.3762 34.6832 71.3762 33.0588C71.3762 31.4345 70.0594 30.1176 68.435 30.1176H31.5644C29.9401 30.1176 28.6232 31.4345 28.6232 33.0588C28.6232 34.6832 29.9401 36 31.5644 36Z" fill="black"/>
<path d="M64.7061 16.4707V1.72949L79.4472 16.4707H64.7061Z" fill="black"/>
</svg>
