<?xml version="1.0" encoding="UTF-8"?>
<svg width="100px" height="100px" viewBox="0 0 100 100" version="1.1" xmlns="http://www.w3.org/2000/svg" xmlns:xlink="http://www.w3.org/1999/xlink">
    <!-- Generator: Sketch 57.1 (83088) - https://sketch.com -->
    <title>solid/filter-solid</title>
    <desc>Created with Sketch.</desc>
    <g id="solid/filter" stroke="none" stroke-width="1" fill="none" fill-rule="evenodd">
        <path d="M86.4158416,-4.9999997e-08 L13.4554455,-4.9999997e-08 C10.4010009,0.00544946273 7.92624155,2.48020882 7.92072335,5.53465342 L7.92072335,20.1980198 C7.91343226,21.6816366 8.49782179,23.1069769 9.54455441,24.1584158 L35.8910891,50.4950495 L35.8910891,81.2475248 C35.8918494,83.0423195 36.7628721,84.7253125 38.2277228,85.7623763 L55.4455446,98.019802 C57.1340587,99.2207822 59.3519756,99.3780156 61.1930318,98.427255 C63.034088,97.4764944 64.189872,95.57701 64.1881188,93.5049505 L64.1881188,50.2574257 L90.3267327,24.1089109 C91.3734653,23.0574719 91.9578549,21.6321316 91.9505638,20.1485148 L91.9505638,5.53465342 C91.9450456,2.48020882 89.4702862,0.00544946273 86.4158416,-4.9999997e-08 Z" id="filter" fill="#000000"></path>
    </g>
</svg>