<?xml version="1.0" encoding="UTF-8"?>
<svg width="100px" height="100px" viewBox="0 0 100 100" version="1.1" xmlns="http://www.w3.org/2000/svg" xmlns:xlink="http://www.w3.org/1999/xlink">
    <!-- Generator: Sketch 57.1 (83088) - https://sketch.com -->
    <title>regular/filter-regular</title>
    <desc>Created with Sketch.</desc>
    <g id="regular/filter" stroke="none" stroke-width="1" fill="none" fill-rule="evenodd">
        <path d="M58.6435644,99.0102341 C57.5002337,99.0225208 56.3817375,98.6762371 55.4455446,98.019802 L38.2277228,85.7623763 C36.7628721,84.7253125 35.8918494,83.0423195 35.8910891,81.2475248 L35.8910891,50.4950495 L9.54455441,24.1089109 C8.50068657,23.0758161 7.91562123,21.6666648 7.92075805,20.1980198 L7.92075805,5.53465342 C7.92624155,2.48020882 10.4010009,0.00544946273 13.4554455,-4.9999997e-08 L86.4158416,-4.9999997e-08 C89.4702862,0.00544946273 91.9450456,2.48020882 91.9509229,5.53465342 L91.9509229,20.1980198 C91.9690558,21.6837929 91.3829561,23.1133042 90.3267327,24.1584158 L64.1881188,50.2574257 L64.1881188,93.4653466 C64.1826693,96.5252593 61.7034771,99.0044515 58.6435644,99.0102341 Z M13.4554455,4.71287124 C13.0015877,4.71287124 12.6335092,5.08079566 12.6335092,5.53465342 L12.6335092,20.1980198 C12.6293666,20.4200094 12.7150793,20.6342913 12.8712871,20.7920792 L40.5940594,48.5148515 L40.5940594,81.2475248 C40.5929849,81.5122933 40.7226606,81.7605297 40.9405941,81.9108911 L58.1683168,94.1386139 C58.4194333,94.3166276 58.7489762,94.3393806 59.0221747,94.1975676 C59.2953733,94.0557546 59.4664136,93.7731569 59.4653465,93.4653466 L59.4653465,48.2970297 L86.990099,20.7920792 C87.1474754,20.6383432 87.2366364,20.4279232 87.2376238,20.2079208 L87.2376238,5.53465342 C87.2376238,5.08079566 86.8696994,4.71287124 86.4158416,4.71287124 L13.4554455,4.71287124 Z" id="filter" fill="#000000"></path>
    </g>
</svg>