<?xml version="1.0" encoding="UTF-8"?>
<svg width="100px" height="100px" viewBox="0 0 100 100" version="1.1" xmlns="http://www.w3.org/2000/svg" xmlns:xlink="http://www.w3.org/1999/xlink">
    <!-- Generator: Sketch 57.1 (83088) - https://sketch.com -->
    <title>bold/folder-tree-bold</title>
    <desc>Created with Sketch.</desc>
    <g id="bold/folder-tree" stroke="none" stroke-width="1" fill="none" fill-rule="evenodd">
        <path d="M42.7941176,51.4705882 L81.4411765,51.4705882 C84.460261,51.4651922 86.9063687,49.0190845 86.9117647,46 L86.9117647,24.0098039 C86.9063687,20.9907194 84.460261,18.5446117 81.4411765,18.5392157 L59.3137255,18.5392157 L56.0098039,14.8921568 C54.9674334,13.7526323 53.495337,13.1019231 51.9509804,13.0980392 L42.7941176,13.0980392 C39.7750331,13.1034352 37.3289255,15.5495429 37.3235294,18.5686274 L37.3235294,27.8333333 L22.1470588,27.8333333 L22.1470588,5.44117643 C22.2240909,3.79937902 21.3920542,2.24823016 19.9816684,1.40428423 C18.5712827,0.560338289 16.8110702,0.560338289 15.4006845,1.40428423 C13.9902987,2.24823016 13.1582619,3.79937902 13.2352941,5.44117643 L13.2352941,76.4705883 C13.2352941,80.8022334 16.7467862,84.3137255 21.0784313,84.3137255 L37.3235294,84.3137255 L37.3235294,93.5686275 C37.3343311,96.5822898 39.780436,99.0196079 42.7941176,99.0196079 L81.4411765,99.0196079 C84.460261,99.0142118 86.9063687,96.5681042 86.9117647,93.5490197 L86.9117647,71.5686275 C86.9063687,68.549543 84.460261,66.1034353 81.4411765,66.0980392 L59.3137255,66.0980392 L56.0098039,62.4509804 C54.9674334,61.3114559 53.495337,60.6607466 51.9509804,60.6568628 L42.7941176,60.6568628 C39.7727952,60.6568628 37.3235294,63.1061285 37.3235294,66.127451 L37.3235294,75.3921569 L22.1470588,75.3921569 L22.1470588,36.745098 L37.3235294,36.745098 L37.3235294,46 C37.3235294,49.0213225 39.7727952,51.4705882 42.7941176,51.4705882 Z M46.2352941,22.0588235 L50.4901961,22.0588235 L53.7941177,25.7058823 L53.7941177,25.7058823 C54.829742,26.8143077 56.2771807,27.4457883 57.7941177,27.4509804 L78,27.4509804 L78,42.5588235 L46.2352941,42.5588235 L46.2352941,22.0588235 Z M46.2352941,69.6078432 L50.4901961,69.6078432 L53.7941177,73.254902 L53.7941177,73.254902 C54.8327427,74.3939178 56.301683,75.0448042 57.8431373,75.0490196 L78,75.0490196 L78,90.1078432 L46.2352941,90.1078432 L46.2352941,69.6078432 Z" id="folder-tree" fill="#000000"></path>
    </g>
</svg>