<?xml version="1.0" encoding="UTF-8"?>
<svg width="100px" height="100px" viewBox="0 0 100 100" version="1.1" xmlns="http://www.w3.org/2000/svg" xmlns:xlink="http://www.w3.org/1999/xlink">
    <!-- Generator: Sketch 57.1 (83088) - https://sketch.com -->
    <title>regular/folder-cross-regular</title>
    <desc>Created with Sketch.</desc>
    <g id="regular/folder-cross" stroke="none" stroke-width="1" fill="none" fill-rule="evenodd">
        <path d="M26.23,13 C27.5706657,13.001088 28.8487122,13.5674949 29.75,14.56 L39.89,25.73 L95.24,25.73 C97.8665936,25.7355007 99.9944993,27.8634064 99.9999999,30.49 L99.9999999,82 C99.9944993,84.6265936 97.8665936,86.7544993 95.24,86.76 L4.75999995,86.76 C2.1334064,86.7544993 0.00550068757,84.6265936 -5.0000061e-08,82 L-5.0000061e-08,17.76 C0.00550068757,15.1334064 2.1334064,13.0055007 4.75999995,13 L26.23,13 Z M26.23,17.76 L4.75999995,17.76 L4.75999995,81.98 L95.24,81.98 L95.24,30.49 L39.89,30.49 C38.5466397,30.4880025 37.2658562,29.9219906 36.36,28.93 L26.23,17.76 Z M40.0982472,44.6359267 C40.9267723,44.4191548 41.8080075,44.6608622 42.41,45.27 L50,52.87 L57.63,45.27 C58.2319925,44.6680075 59.1094157,44.4329026 59.9317528,44.6532472 C60.7540899,44.8735917 61.3964083,45.5159101 61.6167528,46.3382472 C61.8370974,47.1605843 61.6019925,48.0380075 61,48.64 L53.41,56.23 L61,63.83 C61.6002062,64.4391378 61.8298484,65.3222106 61.6024227,66.1465733 C61.3749969,66.9709361 60.7250546,67.6113484 59.8974227,67.8265733 C59.0697908,68.0417982 58.1902062,67.7991378 57.59,67.19 L50,59.6 L42.37,67.19 C41.7744522,67.8143693 40.8876174,68.0675038 40.0522192,67.8515779 C39.216821,67.635652 38.5637204,66.9844895 38.3453129,66.1497366 C38.1269053,65.3149838 38.3774033,64.4274006 39,63.83 L46.59,56.23 L39,48.64 C38.3980075,48.0308622 38.1667146,47.1468364 38.3932472,46.3209267 C38.6197798,45.495017 39.2697221,44.8526986 40.0982472,44.6359267 Z" id="Shape" fill="#000000"></path>
    </g>
</svg>