<svg width="100" height="100" viewBox="0 0 100 100" fill="none" xmlns="http://www.w3.org/2000/svg">
<path d="M49.9998 70.9645C48.3754 70.9645 47.0586 69.6477 47.0586 68.0233V59.2002H38.2351C36.6108 59.2002 35.2939 57.8834 35.2939 56.259C35.2939 54.6347 36.6108 53.3179 38.2351 53.3179H47.0586V44.4939C47.0586 42.8695 48.3754 41.5527 49.9998 41.5527C51.6241 41.5527 52.9409 42.8695 52.9409 44.4939V53.3179H61.7645C63.3889 53.3179 64.7057 54.6347 64.7057 56.259C64.7057 57.8834 63.3889 59.2002 61.7645 59.2002H52.9409V68.0233C52.9409 69.6477 51.6241 70.9645 49.9998 70.9645Z" fill="black"/>
<path fill-rule="evenodd" clip-rule="evenodd" d="M94.7059 86.9885H5.29412C2.37294 86.982 0.00646996 84.6155 0 81.6944V18.2355C0.00646996 15.3143 2.37294 12.9479 5.29412 12.9414H26.4706C27.9639 12.9414 29.3872 13.5745 30.3882 14.6826L40.2353 25.5179H94.7059C97.6271 25.5243 99.9935 27.8908 100 30.812V81.6944C99.9935 84.6155 97.6271 86.982 94.7059 86.9885ZM5.88235 81.1061H94.1176V31.4002H40C38.5047 31.4045 37.0774 30.7763 36.0706 29.6708L26.2471 18.8238H5.88235V81.1061Z" fill="black"/>
</svg>
