<svg width="100" height="100" viewBox="0 0 100 100" fill="none" xmlns="http://www.w3.org/2000/svg">
<path fill-rule="evenodd" clip-rule="evenodd" d="M37.7531 78.5647V67.0588C37.7438 65.9887 38.1623 64.9592 38.9157 64.1992C39.6691 63.4392 40.6949 63.0117 41.765 63.0117H51.4473C52.5808 63.0117 53.6616 63.4905 54.4238 64.3294L58.4356 68.7529H82.6121C84.8277 68.7529 86.6238 70.549 86.6238 72.7647V95.9882C86.6238 98.2038 84.8277 100 82.6121 100H41.765C39.5494 100 37.7531 98.2038 37.7531 95.9882V84.4471H18.8584C15.268 84.4406 12.359 81.5316 12.3525 77.9412V2.94118C12.3525 1.31681 13.6693 0 15.2937 0C16.9181 0 18.2349 1.31681 18.2349 2.94118V28.353H37.7529V16.8117C37.7529 14.5961 39.5491 12.7999 41.7647 12.7999H51.447C52.5922 12.7933 53.6865 13.2721 54.4588 14.1176L58.4706 18.5411H82.6118C84.8274 18.5411 86.6235 20.3372 86.6235 22.5529V45.7764C86.6235 47.992 84.8274 49.7882 82.6118 49.7882H41.7647C39.5491 49.7882 37.7529 47.992 37.7529 45.7764V34.2354H18.2349V77.9412C18.2349 78.2855 18.5141 78.5647 18.8584 78.5647H37.7531ZM80.7415 94.1176H43.6709V68.8941H50.6944L54.7062 73.3176C55.4619 74.1451 56.5268 74.6222 57.6474 74.6352H80.7415V94.1176ZM43.6706 43.9058H80.7412V24.4235H57.647C56.5265 24.4104 55.4616 23.9333 54.7059 23.1058L50.6941 18.6823H43.6706V43.9058Z" fill="black"/>
</svg>
