<svg width="100" height="100" viewBox="0 0 100 100" fill="none" xmlns="http://www.w3.org/2000/svg">
<path d="M44.2482 51.7916H83.4593C85.588 51.7916 87.3137 50.0659 87.3137 47.9372V25.6245C87.3137 23.4958 85.588 21.7701 83.4593 21.7701H60.2649L56.4105 17.5201C55.6765 16.7164 54.6392 16.2572 53.5508 16.2541H44.2482C42.1195 16.2541 40.3938 17.9798 40.3938 20.1085V27.2409H25.5639V6.78196C25.5639 3.03639 22.5275 0 18.782 0C15.0364 0 12 3.03639 12 6.78196V78.8403C12 84.4586 16.5546 89.0132 22.1729 89.0132H40.3938V96.1456C40.3938 98.2743 42.1195 100 44.2482 100H83.4593C85.588 100 87.3137 98.2743 87.3137 96.1456V73.8668C87.3137 71.7381 85.588 70.0124 83.4593 70.0124H60.2649L56.4105 65.7624C55.6799 64.9541 54.6404 64.4939 53.5508 64.4964H44.2482C42.1195 64.4964 40.3938 66.2221 40.3938 68.3509V75.4832H25.5639V40.8048H40.3938V47.9372C40.3938 50.0659 42.1195 51.7916 44.2482 51.7916Z" fill="black"/>
</svg>
