<svg width="100" height="100" viewBox="0 0 100 100" fill="none" xmlns="http://www.w3.org/2000/svg">
<path d="M20.8 33.5527C17.2373 33.5609 14.012 35.6619 12.5647 38.9174L0 67.2939V23.1409C0 21.8296 0.524841 20.5727 1.45763 19.651C2.39043 18.7293 3.65342 18.2193 4.96471 18.2347H22.6118C23.9967 18.2347 25.3171 18.8205 26.2471 19.8468L34.3176 28.7409H79.5529C82.2215 28.7469 84.3959 30.8847 84.4471 33.5527H20.8Z" fill="black"/>
<path d="M95.0939 37.6704C96.7535 37.6693 98.3 38.5112 99.1998 39.9057C100.111 41.2931 100.253 43.0489 99.5762 44.5645L84.7056 78.1057C83.9237 79.8769 82.1712 81.0207 80.2351 81.0234H5.96447C4.30541 81.0204 2.7597 80.181 1.85369 78.7912C0.947691 77.4014 0.803548 75.6484 1.47035 74.1292L16.3292 40.5881C17.12 38.8191 18.8738 37.6774 20.8115 37.6704H95.0939Z" fill="black"/>
</svg>
