<?xml version="1.0" encoding="UTF-8"?>
<svg width="100px" height="100px" viewBox="0 0 100 100" version="1.1" xmlns="http://www.w3.org/2000/svg" xmlns:xlink="http://www.w3.org/1999/xlink">
    <!-- Generator: Sketch 57.1 (83088) - https://sketch.com -->
    <title>solid/folder-open-solid</title>
    <desc>Created with Sketch.</desc>
    <g id="solid/folder-open" stroke="none" stroke-width="1" fill="none" fill-rule="evenodd">
        <path d="M95.63,38.1499721 C97.1104284,38.1520588 98.4886679,38.9051951 99.29,40.15 C100.084099,41.3896815 100.200627,42.9458825 99.6,44.29 L84.6,78.23 C83.8940506,79.80657 82.3274075,80.8209714 80.6,80.8200547 L5.46999996,80.8200547 C3.99151797,80.8252407 2.61111608,80.0808624 1.80315589,78.8426634 C0.995195689,77.6044644 0.869777463,76.0411734 1.46999995,74.69 L16.47,40.75 C17.1688647,39.16603 18.7387132,38.1456285 20.47,38.1499721 L95.63,38.1499721 Z M22.29,18.4999925 C23.5204571,18.4983881 24.6940383,19.0179612 25.52,19.93 L33.47,28.65 L20.47,28.65 C14.9755773,28.6491465 9.99704092,31.8871552 7.76999996,36.91 L-4.9999997e-08,54.4999925 L-4.9999997e-08,22.87 C-4.9999997e-08,20.4565156 1.9565156,18.4999925 4.36999995,18.4999925 L22.29,18.4999925 Z" id="Shape" fill="#000000"></path>
    </g>
</svg>