<?xml version="1.0" encoding="UTF-8"?>
<svg width="100px" height="100px" viewBox="0 0 100 100" version="1.1" xmlns="http://www.w3.org/2000/svg" xmlns:xlink="http://www.w3.org/1999/xlink">
    <!-- Generator: Sketch 57.1 (83088) - https://sketch.com -->
    <title>solid/folder-tree-solid</title>
    <desc>Created with Sketch.</desc>
    <g id="solid/folder-tree" stroke="none" stroke-width="1" fill="none" fill-rule="evenodd">
        <path d="M43.35,50.37 L83.68,50.37 C85.5444626,50.3700324 87.0590003,48.8644301 87.07,47 L87.07,24 C87.07,22.1277547 85.5522453,20.61 83.68,20.61 L59.57,20.61 L55.43,16.05 C54.7759455,15.3659025 53.866342,14.9853911 52.92,15 L43.35,15 C41.4816611,15.0055113 39.9699919,16.521653 39.97,18.39 L39.97,28 L21.8,28 L21.8,4.64999995 C21.8,2.08187587 19.7181241,-4.9999997e-08 17.15,-4.9999997e-08 C14.5818759,-4.9999997e-08 12.4998467,2.08187587 12.4998467,4.64999995 L12.4998467,78.78 C12.4866859,80.955469 13.3415701,83.0464086 14.8751878,84.5894119 C16.4088054,86.1324152 18.4944903,87.0000408 20.67,87 L39.97,87 L39.97,96.66 C39.997264,98.5088036 41.5010029,99.9947468 43.35,100 L83.68,100 C85.5522453,100 87.07,98.4822454 87.07,96.61 L87.07,73.61 C87.0644887,71.7416611 85.548347,70.2299919 83.68,70.23 L59.57,70.23 L55.43,65.66 C54.7849962,64.9557995 53.8749435,64.5533459 52.92,64.55 L43.35,64.55 C42.4421584,64.5525358 41.5732672,64.9190984 40.9379364,65.567587 C40.3026055,66.2160755 39.9539284,67.0922972 39.97,68 L39.97,77.66 L21.8,77.66 L21.8,37.33 L39.97,37.33 L39.97,47 C39.9809688,48.8605365 41.4894391,50.3645439 43.35,50.37 Z" id="folder-tree" fill="#000000"></path>
    </g>
</svg>