<?xml version="1.0" encoding="UTF-8"?>
<svg width="100px" height="100px" viewBox="0 0 100 100" version="1.1" xmlns="http://www.w3.org/2000/svg" xmlns:xlink="http://www.w3.org/1999/xlink">
    <!-- Generator: Sketch 57.1 (83088) - https://sketch.com -->
    <title>solid/folder-minus-solid</title>
    <desc>Created with Sketch.</desc>
    <g id="solid/folder-minus" stroke="none" stroke-width="1" fill="none" fill-rule="evenodd">
        <path d="M95.24,25.73 L39.89,25.73 L29.75,14.56 C28.8487122,13.5674949 27.5706657,13.001088 26.23,13 L4.75999995,13 C2.1334064,13.0055007 0.00550068757,15.1334064 -4.9999997e-08,17.76 L-4.9999997e-08,82 C0.00550068757,84.6265936 2.1334064,86.7544993 4.75999995,86.76 L95.24,86.76 C97.8665936,86.7544993 99.9944993,84.6265936 100,82 L100,30.49 C99.9944993,27.8634064 97.8665936,25.7355007 95.24,25.73 Z M63.12,58.61 L36.88,58.61 C35.5655623,58.61 34.5,57.5444377 34.5,56.23 C34.5,54.9155623 35.5655623,53.85 36.88,53.85 L63.12,53.85 C64.4344377,53.85 65.5,54.9155623 65.5,56.23 C65.5,57.5444377 64.4344377,58.61 63.12,58.61 L63.12,58.61 Z" id="folder-minus" fill="#000000"></path>
    </g>
</svg>