<?xml version="1.0" encoding="UTF-8"?>
<svg width="100px" height="100px" viewBox="0 0 100 100" version="1.1" xmlns="http://www.w3.org/2000/svg" xmlns:xlink="http://www.w3.org/1999/xlink">
    <!-- Generator: Sketch 57.1 (83088) - https://sketch.com -->
    <title>bold/folder-plus-bold</title>
    <desc>Created with Sketch.</desc>
    <g id="bold/folder-plus" stroke="none" stroke-width="1" fill="none" fill-rule="evenodd">
        <path d="M27.31,12.4999954 C29.2344647,12.4984277 31.0694768,13.3123737 32.36,14.74 L41.36,24.65 L93.18,24.65 C94.9931658,24.6526469 96.7308695,25.3761501 98.0101559,26.6610638 C99.2894422,27.9459776 100.005311,29.6868401 100.000058,31.4999954 L100.000058,80.61 C99.9944927,84.3742984 96.9442984,87.4244926 93.18,87.43 L6.81999996,87.43 C3.05570156,87.4244926 0.00550734494,84.3742984 -5.00001107e-08,80.61 L-5.00001107e-08,19.32 C0.00550734494,15.5557016 3.05570156,12.5055074 6.81999996,12.4999954 L27.31,12.4999954 Z M26.3,21.58 L9.08999996,21.58 L9.08999996,78.34 L90.91,78.34 L90.91,33.74 L40.35,33.74 C38.5225145,33.7379262 36.7763538,33.0038182 35.4979154,31.7090683 L35.3,31.5 L26.3,21.58 Z M49.97,38.95 C52.4828956,38.95 54.52,40.9871044 54.52,43.5 L54.52,51.5 L62.52,51.5 C64.1946334,51.4214272 65.7768052,52.2701047 66.6376301,53.7086982 C67.4984549,55.1472916 67.4984549,56.9427084 66.6376301,58.3813018 C65.7768052,59.8198953 64.1946334,60.6685728 62.52,60.59 L54.52,60.59 L54.52,68.59 C54.52,71.1028956 52.4828956,73.14 49.97,73.14 C47.4571044,73.14 45.42,71.1028956 45.42,68.59 L45.42,60.59 L37.42,60.59 C35.7453666,60.6685728 34.1631948,59.8198953 33.3023699,58.3813018 C32.4415451,56.9427084 32.4415451,55.1472916 33.3023699,53.7086982 C34.1631948,52.2701047 35.7453666,51.4214272 37.42,51.5 L45.42,51.5 L45.42,43.5 C45.42,40.9871044 47.4571044,38.95 49.97,38.95 Z" id="Shape" fill="#000000"></path>
    </g>
</svg>