<svg width="100" height="100" viewBox="0 0 100 100" fill="none" xmlns="http://www.w3.org/2000/svg">
<path d="M38.2351 59.2002H61.7645C63.3889 59.2002 64.7057 57.8834 64.7057 56.259C64.7057 54.6347 63.3889 53.3179 61.7645 53.3179H38.2351C36.6108 53.3179 35.2939 54.6347 35.2939 56.259C35.2939 57.8834 36.6108 59.2002 38.2351 59.2002Z" fill="black"/>
<path fill-rule="evenodd" clip-rule="evenodd" d="M5.29412 86.9885H94.7059C97.6271 86.982 99.9935 84.6155 100 81.6944V30.812C99.9935 27.8908 97.6271 25.5243 94.7059 25.5179H40.2353L30.3882 14.6826C29.3872 13.5745 27.9639 12.9414 26.4706 12.9414H5.29412C2.37294 12.9479 0.00646996 15.3143 0 18.2355V81.6944C0.00646996 84.6155 2.37294 86.982 5.29412 86.9885ZM94.1176 81.1061H5.88235V18.8238H26.2471L36.0706 29.6708C37.0791 30.7739 38.5054 31.4016 40 31.4002H94.1176V81.1061Z" fill="black"/>
</svg>
