<svg width="100" height="100" viewBox="0 0 100 100" fill="none" xmlns="http://www.w3.org/2000/svg">
<g clip-path="url(#clip0)">
<path d="M82.3467 0H91.9349C94.4202 0 96.4349 2.01472 96.4349 4.5V95.5C96.4349 97.9853 94.4202 100 91.9349 100H82.3467C79.8614 100 77.8467 97.9853 77.8467 95.5V4.5C77.8467 2.01472 79.8614 0 82.3467 0Z" fill="black"/>
<path d="M10.5179 0.882366L74.4238 46.0706V46.0824C75.6949 46.9848 76.4501 48.447 76.4501 50.0059C76.4501 51.5647 75.6949 53.027 74.4238 53.9294L10.5179 99.1177C9.70617 99.6923 8.73599 100 7.74143 100C6.97497 100.001 6.21975 99.8157 5.54143 99.4588C3.94136 98.6367 2.93707 96.9872 2.94142 95.1882V4.81178C2.94471 3.018 3.9455 1.37496 5.53787 0.549103C7.13023 -0.27675 9.04978 -0.148295 10.5179 0.882366Z" fill="black"/>
</g>
<defs>
<clipPath id="clip0">
<rect width="100" height="100" fill="white"/>
</clipPath>
</defs>
</svg>
