<?xml version="1.0" encoding="UTF-8"?>
<svg width="100px" height="100px" viewBox="0 0 100 100" version="1.1" xmlns="http://www.w3.org/2000/svg" xmlns:xlink="http://www.w3.org/1999/xlink">
    <!-- Generator: Sketch 57.1 (83088) - https://sketch.com -->
    <title>solid/forward-solid</title>
    <desc>Created with Sketch.</desc>
    <g id="solid/forward" stroke="none" stroke-width="1" fill="none" fill-rule="evenodd">
        <path d="M9.71999996,0.789999951 L74.4,46.51 C75.5389243,47.3116114 76.2165878,48.6172583 76.2165878,50.01 C76.2165878,51.3208157 75.6163046,52.5544817 74.5961544,53.3633918 L74.4,53.51 L9.71999996,99.22 C9.00434981,99.728517 8.14791979,100.001176 7.26999996,100.000123 C6.57436574,100.003747 5.88816102,99.8390579 5.26999996,99.52 C3.86620558,98.7783726 2.99130272,97.3176317 2.9998724,95.73 L2.9998724,4.26999995 C2.99713003,2.67583076 3.8845809,1.21346607 5.29999996,0.47999995 C6.71442646,-0.255947521 8.42214767,-0.13617522 9.71999996,0.789999951 Z M92.13,-4.9999997e-08 C94.4993016,-4.9999997e-08 96.42,1.92069837 96.42,4.28999995 L96.42,95.71 C96.42,98.0793015 94.4993016,100 92.13,100 L83.09,100 C80.7206985,100 78.8,98.0793015 78.8,95.7099999 L78.8,4.28999995 C78.8,1.92069837 80.7206985,-4.9999997e-08 83.09,-4.9999997e-08 L92.13,-4.9999997e-08 Z" id="Shape" fill="#000000"></path>
    </g>
</svg>