<svg width="100" height="100" viewBox="0 0 100 100" fill="none" xmlns="http://www.w3.org/2000/svg">
<g clip-path="url(#clip0)">
<path fill-rule="evenodd" clip-rule="evenodd" d="M83.1769 100H91.1769C94.0981 99.9935 96.4646 97.6271 96.471 94.7059V5.29412C96.4646 2.37294 94.0981 0.00646996 91.1769 0H83.1416C80.2342 0.0257802 77.8891 2.38663 77.8828 5.29412V94.7059C77.8893 97.6271 80.2558 99.9935 83.1769 100ZM90.5887 94.1176H83.7652V5.88235H90.5887V94.1176Z" fill="black"/>
<path fill-rule="evenodd" clip-rule="evenodd" d="M5.54143 99.4588C6.21975 99.8157 6.97497 100.001 7.74143 100C8.73599 100 9.70617 99.6923 10.5179 99.1177L74.4238 53.9294C75.6997 53.0276 76.4584 51.5625 76.4584 50C76.4584 48.4376 75.6997 46.9724 74.4238 46.0706L10.5179 0.882366C9.04978 -0.148295 7.13023 -0.27675 5.53787 0.549103C3.9455 1.37496 2.94471 3.018 2.94142 4.81178V95.1882C2.93707 96.9872 3.94136 98.6367 5.54143 99.4588ZM69.7885 50L8.82379 93.1059V6.89413L69.7885 50Z" fill="black"/>
</g>
<defs>
<clipPath id="clip0">
<rect width="100" height="100" fill="white"/>
</clipPath>
</defs>
</svg>
