<?xml version="1.0" encoding="UTF-8"?>
<svg width="100px" height="100px" viewBox="0 0 100 100" version="1.1" xmlns="http://www.w3.org/2000/svg" xmlns:xlink="http://www.w3.org/1999/xlink">
    <!-- Generator: Sketch 57.1 (83088) - https://sketch.com -->
    <title>bold/forward-bold</title>
    <desc>Created with Sketch.</desc>
    <g id="bold/forward" stroke="none" stroke-width="1" fill="none" fill-rule="evenodd">
        <path d="M4.42388911,0.717314931 C6.52824398,-0.37274089 9.06486091,-0.198125754 11,1.16999995 L72.74,44.82 C74.4192392,46.0106672 75.4171129,47.9414732 75.4171129,50 C75.4171129,52.0585268 74.4192392,53.9893328 72.74,55.18 L11,98.83 C9.93559449,99.5920455 8.65907244,100.001232 7.34999996,100.000006 C6.33420365,99.9976734 5.33345712,99.7543412 4.42999995,99.29 C2.31931676,98.2021464 0.994985104,96.0245282 0.999971647,93.65 L0.999971647,6.34999996 C0.998830352,3.98007808 2.31953425,1.80737075 4.42388911,0.717314931 Z M92,-5.00000041e-08 C95.5102477,0.00550623107 98.3544938,2.84975225 98.36,6.35999996 L98.36,93.64 C98.3544938,97.1502477 95.5102477,99.9944938 92,99.9999999 L83.35,99.9999999 C79.8436582,99.9889954 77.0054872,97.1463549 77,93.64 L77,6.35999996 C77.0054872,2.85364514 79.8436582,0.0110046332 83.35,-5.00000041e-08 L92,-5.00000041e-08 Z M89.27,9.08999996 L86.09,9.08999996 L86.08,90.91 L89.27,90.91 L89.27,9.08999996 Z M10.09,11.65 L10.09,88.34 L64.32,50 L10.09,11.65 Z" id="Shape" fill="#000000"></path>
    </g>
</svg>