<?xml version="1.0" encoding="UTF-8"?>
<svg width="100px" height="100px" viewBox="0 0 100 100" version="1.1" xmlns="http://www.w3.org/2000/svg" xmlns:xlink="http://www.w3.org/1999/xlink">
    <!-- Generator: Sketch 57.1 (83088) - https://sketch.com -->
    <title>brand/github-brand</title>
    <desc>Created with Sketch.</desc>
    <g id="brand/github" stroke="none" stroke-width="1" fill="none" fill-rule="evenodd">
        <path d="M50,0.9997 C77.613,0.9997 100,23.3847 100,50.9997 C100,73.0837 85.691,91.8187 65.835,98.4377 C63.301,98.9297 62.401,97.3697 62.401,96.0397 C62.401,94.3927 62.459,89.0077 62.459,82.3177 C62.459,77.6527 60.86,74.6097 59.067,73.0597 C70.201,71.8207 81.898,67.5927 81.898,48.3887 C81.898,42.9297 79.959,38.4697 76.753,34.9677 C77.271,33.7077 78.983,28.6227 76.262,21.7347 C76.262,21.7347 72.069,20.3927 62.525,26.8607 C58.529,25.7527 54.249,25.1977 50,25.1787 C45.751,25.1977 41.474,25.7527 37.485,26.8607 C27.931,20.3927 23.732,21.7347 23.732,21.7347 C21.017,28.6227 22.729,33.7077 23.248,34.9677 C20.049,38.4697 18.095,42.9297 18.095,48.3887 C18.095,67.5467 29.77,71.8347 40.876,73.0987 C39.446,74.3477 38.15,76.5537 37.702,79.7847 C34.848,81.0627 27.61,83.2717 23.151,75.6287 C23.151,75.6287 20.507,70.8277 15.487,70.4757 C15.487,70.4757 10.608,70.4117 15.145,73.5157 C15.145,73.5157 18.422,75.0527 20.696,80.8307 C20.696,80.8307 23.631,89.7557 37.542,86.7297 C37.563,90.9077 37.609,94.8477 37.609,96.0397 C37.609,97.3597 36.692,98.9077 34.193,98.4447 C14.327,91.8327 0,73.0917 0,50.9997 C0,23.3847 22.39,0.9997 50,0.9997 Z M18.9375,72.7888 C18.8275,73.0378 18.4365,73.1118 18.0805,72.9408 C17.7175,72.7778 17.5145,72.4388 17.6315,72.1898 C17.7395,71.9348 18.1305,71.8638 18.4935,72.0338 C18.8555,72.1978 19.0625,72.5398 18.9375,72.7888 Z M20.9634,75.0476 C20.7244,75.2686 20.2584,75.1656 19.9424,74.8176 C19.6144,74.4686 19.5534,74.0016 19.7954,73.7776 C20.0414,73.5576 20.4934,73.6606 20.8204,74.0086 C21.1484,74.3606 21.2124,74.8236 20.9634,75.0476 Z M22.9346,77.9275 C22.6276,78.1405 22.1266,77.9415 21.8166,77.4965 C21.5106,77.0515 21.5106,76.5185 21.8246,76.3045 C22.1346,76.0915 22.6276,76.2835 22.9416,76.7245 C23.2476,77.1765 23.2476,77.7095 22.9346,77.9275 Z M25.6353,80.7097 C25.3613,81.0127 24.7773,80.9307 24.3503,80.5187 C23.9133,80.1147 23.7913,79.5427 24.0663,79.2407 C24.3433,78.9387 24.9303,79.0227 25.3613,79.4327 C25.7953,79.8347 25.9273,80.4107 25.6353,80.7097 Z M29.3613,82.3249 C29.2393,82.7169 28.6773,82.8939 28.1113,82.7279 C27.5463,82.5559 27.1763,82.0979 27.2903,81.7029 C27.4073,81.3079 27.9723,81.1229 28.5433,81.3009 C29.1083,81.4709 29.4783,81.9269 29.3613,82.3249 Z M33.4531,82.6247 C33.4671,83.0367 32.9871,83.3787 32.3921,83.3867 C31.7951,83.3997 31.3101,83.0657 31.3041,82.6597 C31.3041,82.2437 31.7741,81.9057 32.3711,81.8957 C32.9661,81.8837 33.4531,82.2157 33.4531,82.6247 Z M37.2607,81.9763 C37.3317,82.3783 36.9187,82.7913 36.3287,82.9023 C35.7477,83.0083 35.2107,82.7593 35.1367,82.3613 C35.0647,81.9483 35.4857,81.5353 36.0647,81.4283 C36.6567,81.3263 37.1857,81.5673 37.2607,81.9763 Z" id="Shape" fill="#000000"></path>
    </g>
</svg>