<svg width="100" height="100" viewBox="0 0 100 100" fill="none" xmlns="http://www.w3.org/2000/svg">
<path fill-rule="evenodd" clip-rule="evenodd" d="M28.2563 66.116C28.1793 66.291 27.9053 66.343 27.6563 66.223C27.4023 66.109 27.2603 65.872 27.3423 65.697C27.4173 65.518 27.6913 65.469 27.9453 65.588C28.1993 65.702 28.3443 65.942 28.2563 66.116ZM29.6743 67.698C29.5073 67.852 29.1803 67.78 28.9593 67.536C28.7303 67.292 28.6873 66.966 28.8573 66.808C29.0283 66.654 29.3453 66.726 29.5743 66.97C29.8033 67.218 29.8483 67.541 29.6743 67.698ZM31.0543 69.713C30.8393 69.862 30.4883 69.722 30.2723 69.412C30.0573 69.1 30.0573 68.726 30.2773 68.577C30.4933 68.428 30.8393 68.562 31.0593 68.871C31.2733 69.187 31.2733 69.561 31.0543 69.713ZM32.9443 71.661C32.7533 71.873 32.3443 71.815 32.0453 71.526C31.7393 71.245 31.6543 70.845 31.8463 70.633C32.0403 70.421 32.4513 70.48 32.7533 70.766C33.0563 71.049 33.1493 71.451 32.9443 71.661ZM35.5523 72.792C35.4673 73.065 35.0743 73.19 34.6783 73.073C34.2823 72.954 34.0233 72.633 34.1033 72.356C34.1853 72.08 34.5813 71.95 34.9803 72.075C35.3753 72.194 35.6343 72.512 35.5523 72.792ZM38.4173 73.001C38.4263 73.29 38.0903 73.529 37.6743 73.534C37.2563 73.544 36.9173 73.31 36.9133 73.026C36.9133 72.734 37.2413 72.498 37.6603 72.491C38.0763 72.482 38.4173 72.715 38.4173 73.001ZM41.0823 72.548C41.1323 72.829 40.8433 73.118 40.4303 73.195C40.0233 73.27 39.6483 73.095 39.5953 72.816C39.5453 72.528 39.8393 72.239 40.2453 72.164C40.6593 72.093 41.0303 72.262 41.0823 72.548ZM61.0853 84.071C59.3103 84.415 58.6803 83.323 58.6803 82.391C58.6803 81.239 58.7203 77.47 58.7203 72.787C58.7203 69.521 57.6023 67.391 56.3473 66.305C64.1403 65.438 72.3293 62.479 72.3293 49.036C72.3293 45.215 70.9703 42.093 68.7263 39.641C69.0893 38.76 70.2883 35.2 68.3823 30.379C68.3823 30.379 65.4483 29.438 58.7673 33.967C55.9703 33.191 52.9743 32.803 50.0003 32.789C47.0263 32.803 44.0313 33.191 41.2393 33.967C34.5513 29.438 31.6123 30.379 31.6123 30.379C29.7113 35.2 30.9093 38.76 31.2733 39.641C29.0343 42.093 27.6663 45.215 27.6663 49.036C27.6663 62.447 35.8393 65.448 43.6133 66.333C42.6113 67.207 41.7053 68.752 41.3913 71.013C39.3933 71.908 34.3273 73.455 31.2063 68.104C31.2063 68.104 29.3553 64.744 25.8403 64.497C25.8403 64.497 22.4253 64.452 25.6013 66.625C25.6013 66.625 27.8953 67.7 29.4873 71.746C29.4873 71.746 31.5423 77.993 41.2793 75.876C41.2943 78.8 41.3263 81.557 41.3263 82.391C41.3263 83.316 40.6843 84.399 38.9353 84.076C25.0283 79.447 15.0003 66.328 15.0003 50.864C15.0003 31.533 30.6733 15.864 50.0003 15.864C69.3303 15.864 85.0003 31.533 85.0003 50.864C85.0003 66.323 74.9843 79.437 61.0853 84.071ZM94.4803 0H5.52031C2.47131 0 0.000305176 2.471 0.000305176 5.52V94.48C0.000305176 97.528 2.47131 100 5.52031 100H94.4803C97.5283 100 100 97.528 100 94.48V5.52C100 2.471 97.5283 0 94.4803 0Z" fill="black"/>
</svg>
