<?xml version="1.0" encoding="UTF-8"?>
<svg width="100px" height="100px" viewBox="0 0 100 100" version="1.1" xmlns="http://www.w3.org/2000/svg" xmlns:xlink="http://www.w3.org/1999/xlink">
    <!-- Generator: Sketch 57.1 (83088) - https://sketch.com -->
    <title>regular/globe-regular</title>
    <desc>Created with Sketch.</desc>
    <g id="regular/globe" stroke="none" stroke-width="1" fill="none" fill-rule="evenodd">
        <path d="M69.6930693,82.079208 L68.1485149,85.4257426 C66.0088531,90.0978355 63.2948374,94.4848289 60.0693069,98.4851486 L59.5049505,99.1782179 L58.6237624,99.3168317 C55.9377576,99.7690462 53.2188544,99.9975533 50.4950495,100 C47.7712446,99.9975533 45.0523414,99.7690462 42.3663366,99.3168317 L41.4851485,99.1782179 L40.9207921,98.4851486 C37.6952616,94.4848289 34.9812459,90.0978355 32.8415841,85.4257426 L31.2970297,82.079208 L69.6930693,82.079208 Z M89.039604,82.079208 L84.8316832,86.1386139 C82.4101288,88.4698316 79.755994,90.5466921 76.9108911,92.3366337 L69.9207921,96.7821783 L73.5544555,89.3168317 C74.4554456,87.4653466 75.2970297,85.5346535 76.059406,83.5841584 L76.6435644,82.079208 L89.039604,82.079208 Z M24.3465346,82.079208 L24.930693,83.5841584 C25.6930693,85.5643565 26.5346534,87.4653466 27.4356435,89.3168317 L31.0693069,96.7821783 L24.0594059,92.3366337 C21.2160893,90.5441525 18.5622037,88.467487 16.1386138,86.1386139 L11.930693,82.079208 L24.3465346,82.079208 Z M62.1881188,86.7920792 L38.8019802,86.7920792 C40.3040513,89.6092709 42.0499973,92.2894803 44.019802,94.8019802 C48.313376,95.4356972 52.676723,95.4356972 56.970297,94.8019802 C58.9401017,92.2894803 60.6860478,89.6092709 62.1881188,86.7920792 Z M71.9108911,25.4851485 L72.3960396,27.2178218 C74.4680243,34.8026369 75.5071014,42.632349 75.4858195,50.4950495 C75.503996,58.3510358 74.4649583,66.1737913 72.3960396,73.7524753 L71.9108911,75.4752476 L29.0792079,75.4752476 L28.5940594,73.7524753 C24.472327,58.514731 24.472327,42.455566 28.5940594,27.2178218 L29.0792079,25.4851485 L71.9108911,25.4851485 Z M93.2574258,25.5049505 L93.9306931,26.7326732 C102.018877,41.5418683 102.018877,59.4482307 93.9306931,74.2574258 L93.2574258,75.4752476 L78.8019802,75.4752476 L79.5049505,72.5742574 C81.227796,65.3412707 82.0918461,57.9303796 82.079208,50.4950495 C82.0924912,43.0596825 81.2284323,35.6487158 79.5049505,28.4158416 L78.8019802,25.5049505 L93.2574258,25.5049505 Z M22.1881188,25.5049505 L21.4851485,28.4158416 C18.0527073,42.9352103 18.0527073,58.0548887 21.4851485,72.5742574 L22.1881188,75.4752476 L7.73267323,75.4752476 L7.0594059,74.2574258 C-1.04168401,59.4515281 -1.04168401,41.5385709 7.0594059,26.7326732 L7.73267323,25.5049505 L22.1881188,25.5049505 Z M68.3168317,30.2178218 L32.6732673,30.2178218 C29.3781107,43.5485657 29.3781107,57.4811373 32.6732673,70.8118812 L32.6732673,70.7623763 L68.3168317,70.7623763 C69.9645324,64.1330752 70.789226,57.3260276 70.7727816,50.4950495 C70.7891344,43.660813 69.9644482,36.8505009 68.3168317,30.2178218 Z M16.2574257,30.2178218 L10.5445544,30.2178218 C4.07228122,42.9752257 4.07228122,58.0544773 10.5445544,70.8118812 L10.5445544,70.7623763 L16.2574257,70.7623763 C13.4983995,57.388337 13.4983995,43.591861 16.2574257,30.2178218 Z M90.4455446,30.2178218 L84.7326733,30.2178218 C86.116165,36.8880224 86.8095862,43.6828863 86.8019802,50.4950495 C86.809608,57.3039393 86.116183,64.0955225 84.7326733,70.7623763 L90.4455446,70.7623763 C96.9010869,58.0184179 96.9010869,42.9617801 90.4455446,30.2178218 Z M69.9207921,4.20792075 L76.9306931,8.64356432 C79.7737574,10.4401706 82.4275618,12.5200898 84.8514852,14.8514851 L89.039604,18.9009901 L76.6435644,18.9009901 L76.059406,17.4059406 C75.2970297,15.4257425 74.4554456,13.5148514 73.5544555,11.6732673 L69.9207921,4.20792075 Z M58.6237624,1.66336629 L59.5049505,1.81188114 L60.0693069,2.49504946 C63.2927388,6.49685527 66.0065864,10.883577 68.1485149,15.5544554 L69.6930693,18.9009901 L31.2970297,18.9009901 L32.8415841,15.5544554 C34.9835126,10.883577 37.6973602,6.49685527 40.9207921,2.49504946 L41.4851485,1.81188114 L42.3663366,1.66336629 C47.7480264,0.762347837 53.2420726,0.762347837 58.6237624,1.66336629 Z M31.0891089,4.20792075 L27.4554455,11.6732673 C26.5544554,13.5148514 25.7128713,15.4455445 24.950495,17.4059406 L24.3465346,18.9009901 L11.950495,18.9009901 L16.1584158,14.8514851 C18.5823392,12.5200898 21.2361435,10.4401706 24.0792079,8.64356432 L31.0891089,4.20792075 Z M44.019802,6.17821778 C42.046645,8.68831708 40.3005006,11.368831 38.8019802,14.1881188 L62.1881188,14.1881188 C60.6860478,11.3709271 58.9401017,8.69071771 56.970297,6.17821778 C52.676723,5.54450078 48.313376,5.54450078 44.019802,6.17821778 Z" id="Shape" fill="#000000"></path>
    </g>
</svg>