<?xml version="1.0" encoding="UTF-8"?>
<svg width="100px" height="100px" viewBox="0 0 100 100" version="1.1" xmlns="http://www.w3.org/2000/svg" xmlns:xlink="http://www.w3.org/1999/xlink">
    <!-- Generator: Sketch 57.1 (83088) - https://sketch.com -->
    <title>bold/globe-bold</title>
    <desc>Created with Sketch.</desc>
    <g id="bold/globe" stroke="none" stroke-width="1" fill="none" fill-rule="evenodd">
        <path d="M92.28,77.72 L84.28,85.41 C81.8767852,87.721681 79.2468457,89.7854298 76.43,91.57 L63.15,100 L70,85.84 C70.83,84.14 71.6,82.37 72.31,80.56 L73.42,77.72 L92.28,77.72 Z M26.91,77.72 L28,80.56 C28.71,82.37 29.48,84.14 30.31,85.84 L37.23,100 L23.92,91.57 C21.1031543,89.7854298 18.4732148,87.721681 16.07,85.41 L8.06999996,77.72 L26.91,77.72 Z M71.9,77.72 L68.9,84.07 C66.7805794,88.6737917 64.0930048,92.9940679 60.9,96.93 L59.83,98.24 L58.16,98.51 C55.5259795,98.9497439 52.8604682,99.1738208 50.19,99.18 C47.4828054,99.1797085 44.7802683,98.9556119 42.11,98.51 L40.44,98.24 L39.37,96.93 C36.1969698,92.9895929 33.5264633,88.6697546 31.42,84.07 L28.42,77.72 L71.9,77.72 Z M57.38,86.66 L43,86.66 C43.71,87.8 44.46,88.89 45.25,89.93 C48.5272238,90.3400428 51.8427762,90.3400428 55.12,89.93 C55.91,88.93 56.66,87.8 57.38,86.66 Z M72.2,24.06 L73.11,27.34 C75.1239934,34.7241504 76.1330852,42.3461569 76.1107667,50 C76.1331607,57.6505587 75.1240596,65.2692718 73.11,72.65 L72.2,75.93 L28.2,75.93 L27.29,72.65 C23.2765558,57.8132922 23.2765558,42.1767078 27.29,27.34 L28.2,24.06 L72.2,24.06 Z M92.06,24.06 L93.34,26.38 C101.379283,41.0970247 101.379283,58.8929753 93.34,73.61 L92.06,75.93 L74.19,75.93 L75.52,70.41 C77.1146439,63.7239936 77.9168285,56.8735379 77.91,50 C77.9167794,43.1231658 77.1146008,36.2694053 75.52,29.58 L74.19,24.06 L92.06,24.06 Z M26.18,24.06 L24.85,29.58 C21.6634874,43.0034853 21.6634874,56.9865147 24.85,70.41 L26.18,75.93 L8.30999996,75.93 L6.99999996,73.61 C-1.03928335,58.8929753 -1.03928335,41.0970247 6.99999996,26.38 L8.27999996,24.06 L26.18,24.06 Z M65.31,33 L35.06,33 C32.563798,44.1958843 32.563798,55.8041157 35.06,67 L65.31,67 C66.5626662,61.4203535 67.1898673,55.7185252 67.1802824,50 C67.1910314,44.281412 66.5638161,38.5794548 65.31,33 Z M86.67,33 L85.37,33 C86.3579533,38.612689 86.8531731,44.3010247 86.85,50 C86.8523062,55.6989378 86.3570929,61.3871981 85.37,67 L86.67,67 C91.6889431,56.2223238 91.6889431,43.7776762 86.67,33 Z M15,33 L13.7,33 C8.68105688,43.7776762 8.68105688,56.2223238 13.7,67 L15,67 C13.024319,55.7527692 13.024319,44.2472308 15,33 Z M63.15,-5.00000041e-08 L76.45,8.41999996 C79.2668457,10.2045702 81.8967852,12.268319 84.3,14.58 L92.28,22.27 L73.46,22.27 L72.35,19.43 C71.65,17.63 70.87,15.86 70.04,14.16 L63.15,-5.00000041e-08 Z M58.26,1.47999995 L59.93,1.75999995 L61,3.06999995 C64.1928955,7.00239214 66.8804951,11.319349 69,15.92 L71.89,22.27 L28.48,22.27 L31.42,15.92 C33.5238823,11.3219613 36.1946115,7.00512234 39.37,3.06999995 L40.44,1.75999995 L42.11,1.47999995 C47.4565532,0.59005655 52.9134468,0.59005655 58.26,1.47999995 Z M37.22,-5.00000041e-08 L30.33,14.16 C29.5,15.86 28.72,17.63 28.02,19.43 L26.91,22.27 L8.08999996,22.27 L16.09,14.58 C18.4932148,12.268319 21.1231543,10.2045702 23.94,8.41999996 L37.22,-5.00000041e-08 Z M45.25,10.06 C44.46,11.1 43.71,12.19 43,13.33 L57.38,13.33 C56.66,12.19 55.91,11.1 55.12,10.06 C51.8427762,9.64995718 48.5272238,9.64995718 45.25,10.06 Z" id="Shape" fill="#000000"></path>
    </g>
</svg>