<?xml version="1.0" encoding="UTF-8"?>
<svg width="100px" height="100px" viewBox="0 0 100 100" version="1.1" xmlns="http://www.w3.org/2000/svg" xmlns:xlink="http://www.w3.org/1999/xlink">
    <!-- Generator: Sketch 57.1 (83088) - https://sketch.com -->
    <title>solid/globe-solid</title>
    <desc>Created with Sketch.</desc>
    <g id="solid/globe" stroke="none" stroke-width="1" fill="none" fill-rule="evenodd">
        <path d="M69.0098039,81.7647059 L67.4803922,85.0882353 C65.486341,89.4395333 62.9884756,93.5405765 60.0387486,97.3074514 L59.4803922,98.009804 L58.9215686,98.6960785 L58.0490196,98.8431373 C52.9735921,99.6897298 47.7979899,99.7300437 42.713022,98.9640791 L41.9509804,98.8431373 L41.0784314,98.6960785 L40.5196078,98.009804 C37.513601,94.2850278 34.9562088,90.2208389 32.8993838,85.9011505 L32.5196078,85.0882353 L30.9901961,81.7647059 L69.0098039,81.7647059 Z M88.1862745,81.7647059 L84.0196079,85.7843138 C81.821612,87.9003128 79.4301,89.8046766 76.8768097,91.4725702 L76.1764706,91.9215687 L69.2352941,96.3235295 L72.8333334,88.9313726 C73.5767974,87.4035948 74.2794118,85.8417756 74.9298294,84.2288944 L75.3137255,83.254902 L75.8921569,81.7647059 L88.1862745,81.7647059 Z M24.1078431,81.7647059 L24.6862745,83.254902 C25.3562091,84.8643791 26.0125272,86.4602397 26.7403322,88.0084423 L27.1862745,88.9313726 L30.7843137,96.3235295 L23.8431372,91.9215687 C21.260695,90.2968749 18.8371458,88.4334533 16.6042275,86.3561386 L16,85.7843138 L11.8333333,81.7647059 L24.1078431,81.7647059 Z M71.2058824,25.745098 L71.6862745,27.4607843 C73.7361977,34.9649073 74.7650721,42.7111442 74.7457271,50.4901961 C74.7653329,57.9372693 73.8248422,65.3544185 71.948008,72.5582189 L71.6862745,73.5392157 L71.2058824,75.254902 L28.7941176,75.254902 L28.3137255,73.5392157 C24.3066081,58.7251948 24.2337514,43.1271145 28.0951554,28.2845823 L28.3137255,27.4607843 L28.7941176,25.745098 L71.2058824,25.745098 Z M92.3431373,25.745098 L93.009804,26.9607843 C100.939268,41.4530119 101.030412,58.9515176 93.2832338,73.512855 L93.009804,74.0196079 L92.3431373,75.2352941 L78.0294118,75.2352941 L78.7254902,72.3529412 C80.431445,65.1908661 81.287024,57.8526308 81.2745098,50.4901961 C81.2864281,43.4783535 80.5109603,36.4884605 78.9634113,29.6517865 L78.7254902,28.627451 L78.0294118,25.745098 L92.3431373,25.745098 Z M21.9705882,25.745098 L21.2745098,28.627451 C17.87572,43.004473 17.87572,57.9759192 21.2745098,72.3529412 L21.9705882,75.2352941 L7.6568627,75.2352941 L6.99019604,74.0196079 C-1.03147142,59.358866 -1.03147142,41.6215261 6.99019604,26.9607843 L7.6568627,25.745098 L21.9705882,25.745098 Z M69.2352941,4.64705878 L76.1568628,9.04901957 C78.7374547,10.6797627 81.1605747,12.5462334 83.3952412,14.6241497 L84,15.1960784 L88.1666667,19.2058823 L75.8921569,19.2058823 L75.3137255,17.7254902 C74.6846405,16.1078431 74.0010893,14.5106209 73.2744191,12.9678649 L72.8333334,12.0490196 L69.2352941,4.64705878 Z M57.2870114,2.01586915 L58.0490196,2.13725485 L58.9215686,2.28431368 L59.4803922,2.96078427 C62.4844671,6.69026419 65.041571,10.7573649 67.1002444,15.0789064 L67.4803922,15.8921568 L69.0098039,19.2058823 L30.9901961,19.2058823 L32.5196078,15.8921568 C34.5157765,11.5391352 37.0135918,7.43535554 39.9615943,3.66399794 L40.5196078,2.96078427 L41.0784314,2.28431368 L41.9509804,2.13725485 C47.02615,1.28755491 52.2022311,1.24709301 57.2870114,2.01586915 Z M30.7745098,4.64705878 L27.1666666,12.0490196 C26.4232026,13.5686274 25.7205882,15.1358932 25.0701706,16.750817 L24.6862745,17.7254902 L24.1078431,19.2058823 L11.8137255,19.2058823 L15.9803921,15.1960784 C18.1805383,13.0799181 20.5719545,11.172996 23.1236591,9.49959394 L23.8235294,9.04901957 L30.7745098,4.64705878 Z" id="Shape" fill="#000000"></path>
    </g>
</svg>