<?xml version="1.0" encoding="UTF-8"?>
<svg width="100px" height="100px" viewBox="0 0 100 100" version="1.1" xmlns="http://www.w3.org/2000/svg" xmlns:xlink="http://www.w3.org/1999/xlink">
    <!-- Generator: Sketch 57.1 (83088) - https://sketch.com -->
    <title>brand/google-cardboard-brand</title>
    <desc>Created with Sketch.</desc>
    <g id="brand/google-cardboard" stroke="none" stroke-width="1" fill="none" fill-rule="evenodd">
        <path d="M75,57.4998 C69.477,57.4998 65,53.0228 65,47.4998 C65,41.9768 69.477,37.4998 75,37.4998 C80.523,37.4998 85,41.9768 85,47.4998 C85,53.0228 80.523,57.4998 75,57.4998 M25,57.4998 C19.477,57.4998 15,53.0228 15,47.4998 C15,41.9768 19.477,37.4998 25,37.4998 C30.523,37.4998 35,41.9768 35,47.4998 C35,53.0228 30.523,57.4998 25,57.4998 M95,19.9998 L5,19.9998 C2.239,19.9998 0,22.2388 0,24.9998 L0,74.9998 C0,77.7608 2.239,79.9998 5,79.9998 L30.034,79.9998 C33.97,79.9998 37.539,77.6918 39.153,74.1038 L43.487,64.4718 C44.72,61.7308 47.242,59.9998 50,59.9998 C52.758,59.9998 55.279,61.7308 56.513,64.4718 L60.847,74.1038 C62.461,77.6918 66.031,79.9998 69.966,79.9998 L95,79.9998 C97.761,79.9998 100,77.7608 100,74.9998 L100,24.9998 C100,22.2388 97.761,19.9998 95,19.9998" id="Fill-1" fill="#000000"></path>
    </g>
</svg>