<svg width="100" height="100" viewBox="0 0 100 100" fill="none" xmlns="http://www.w3.org/2000/svg">
<path fill-rule="evenodd" clip-rule="evenodd" d="M15.4707 98.4588C15.72 98.5256 15.9773 98.5572 16.2354 98.5533C17.5649 98.5549 18.7289 97.6613 19.0707 96.3764L25.0806 73.9532H62.1669L56.5644 94.859C56.1525 96.4272 57.082 98.0341 58.6467 98.459C58.8963 98.5243 59.1535 98.5559 59.4114 98.5533C60.7439 98.5563 61.9121 97.6633 62.2585 96.3766L68.2656 73.9532H97.0588C98.6832 73.9532 100 72.6363 100 71.012C100 69.3876 98.6832 68.0708 97.0588 68.0708H69.8414L79.4383 32.2471H97.0588C98.6832 32.2471 100 30.9303 100 29.3059C100 27.6816 98.6832 26.3647 97.0588 26.3647H81.0141L86.6115 5.47073C86.8847 4.45568 86.5956 3.37198 85.8531 2.62785C85.1107 1.88372 84.0276 1.59222 83.0119 1.86314C81.9963 2.13407 81.2023 2.92627 80.9291 3.94132L74.9199 26.3647H37.8353L43.4354 5.47056C43.7806 4.43044 43.5213 3.28468 42.762 2.49445C42.0027 1.70422 40.8682 1.39949 39.8151 1.70293C38.7621 2.00636 37.9637 2.86804 37.7412 3.94115L31.7349 26.3647H2.94118C1.31681 26.3647 0 27.6816 0 29.3059C0 30.9303 1.31681 32.2471 2.94118 32.2471H30.1593L20.5637 68.0708H2.94118C1.31681 68.0708 0 69.3876 0 71.012C0 72.6363 1.31681 73.9532 2.94118 73.9532H18.988L13.3883 94.8588C12.9695 96.4279 13.9017 98.0395 15.4707 98.4588ZM26.6572 68.0708H63.7433L73.3435 32.2471H36.2587L26.6572 68.0708Z" fill="black"/>
</svg>
