<?xml version="1.0" encoding="UTF-8"?>
<svg width="100px" height="100px" viewBox="0 0 100 100" version="1.1" xmlns="http://www.w3.org/2000/svg" xmlns:xlink="http://www.w3.org/1999/xlink">
    <!-- Generator: Sketch 57.1 (83088) - https://sketch.com -->
    <title>regular/hashtag-regular</title>
    <desc>Created with Sketch.</desc>
    <g id="regular/hashtag" stroke="none" stroke-width="1" fill="none" fill-rule="evenodd">
        <path d="M97.62,69.1 L69.3,69.1 L79.3,31.65 L97.62,31.65 C98.9344378,31.65 100,30.5844377 100,29.27 C100,27.9555623 98.9344378,26.89 97.62,26.89 L80.62,26.89 L86.47,4.99999995 C86.8124166,3.72974503 86.060255,2.4224165 84.79,2.07999995 C83.5197451,1.73758341 82.2124166,2.48974503 81.87,3.75999995 L75.68,26.89 L36.91,26.89 L42.78,4.99999995 C43.1224165,3.72974503 42.3702549,2.4224165 41.1,2.07999995 C39.8297451,1.73758341 38.5224165,2.48974503 38.18,3.75999995 L32,26.89 L2.37999995,26.89 C1.06556225,26.89 -4.9999997e-08,27.9555623 -4.9999997e-08,29.27 C-4.9999997e-08,30.5844377 1.06556225,31.65 2.37999995,31.65 L30.7,31.65 L20.7,69.1 L2.37999995,69.1 C1.06556225,69.1 -4.9999997e-08,70.1655623 -4.9999997e-08,71.48 C-4.9999997e-08,72.7944377 1.06556225,73.86 2.37999995,73.86 L19.38,73.86 L13.52,95.76 C13.3552286,96.3687299 13.4398618,97.0180279 13.7551672,97.5641819 C14.0704725,98.1103358 14.5904462,98.5083032 15.2,98.67 C15.4013442,98.7292897 15.6101081,98.7595942 15.82,98.76 C16.8978536,98.7586106 17.842573,98.0388244 18.13,97 L24.32,73.87 L63.09,73.87 L57.22,95.77 C56.8833925,97.0402165 57.6399203,98.3428768 58.91,98.68 C59.1111947,98.7399713 59.3200578,98.7700021 59.53,98.7700021 C60.6055989,98.765252 61.5443291,98.0396832 61.82,97 L68,73.86 L97.6,73.86 C98.9144378,73.86 99.98,72.7944377 99.98,71.48 C99.98,70.1655623 98.9144378,69.1 97.6,69.1 L97.62,69.1 Z M64.37,69.1 L25.6,69.1 L35.6,31.65 L74.4,31.65 L64.37,69.1 Z" id="hashtag" fill="#000000"></path>
    </g>
</svg>