<?xml version="1.0" encoding="UTF-8"?>
<svg width="100px" height="100px" viewBox="0 0 100 100" version="1.1" xmlns="http://www.w3.org/2000/svg" xmlns:xlink="http://www.w3.org/1999/xlink">
    <!-- Generator: Sketch 57.1 (83088) - https://sketch.com -->
    <title>solid/hashtag-solid</title>
    <desc>Created with Sketch.</desc>
    <g id="solid/hashtag" stroke="none" stroke-width="1" fill="none" fill-rule="evenodd">
        <path d="M91.67,59.72 L75,59.72 L80.43,39.45 L91.67,39.45 C96.1609756,39.2944203 99.7212528,35.6086696 99.7212528,31.115 C99.7212528,26.6213303 96.1609756,22.9355797 91.67,22.78 L84.93,22.78 L87.93,11.49 C88.6999074,8.61401196 87.8770098,5.54574877 85.7712848,3.44099545 C83.6655598,1.33624213 80.5969171,0.514760771 77.7212848,1.28599545 C74.8456524,2.05723013 72.5999074,4.30401196 71.83,7.17999996 L67.65,22.78 L46.65,22.78 L49.65,11.49 C50.4199073,8.61401196 49.5970097,5.54574877 47.4912847,3.44099545 C45.3855597,1.33624213 42.3169171,0.514760771 39.4412847,1.28599545 C36.5656524,2.05723013 34.3199073,4.30401196 33.55,7.17999996 L29.37,22.78 L8.32999996,22.78 C3.83902436,22.9355797 0.278747245,26.6213303 0.278747245,31.115 C0.278747245,35.6086696 3.83902436,39.2944203 8.32999996,39.45 L25,39.45 L19.54,59.72 L8.32999996,59.72 C3.72946799,59.72 -4.9999997e-08,63.449468 -4.9999997e-08,68.05 C-4.9999997e-08,72.650532 3.72946799,76.38 8.32999996,76.38 L15.07,76.38 L12.07,87.67 C10.8801715,92.1154839 13.5160164,96.6845801 17.96,97.88 C18.6645732,98.0689518 19.3905389,98.1664194 20.12,98.17 C23.8723693,98.1416136 27.1449128,95.6135738 28.12,91.99 L32.3,76.38 L53.3,76.38 L50.3,87.67 C49.1108405,92.1185197 51.7519688,96.6890147 56.2,97.88 C56.9044411,98.0696105 57.6304927,98.1670896 58.36,98.17 C62.1147301,98.1484566 65.3909379,95.6175861 66.36,91.99 L70.54,76.38 L91.67,76.38 C96.270532,76.38 100,72.650532 100,68.05 C100,63.449468 96.270532,59.72 91.67,59.72 L91.67,59.72 Z M57.78,59.72 L36.78,59.72 L42.21,39.45 L63.21,39.45 L57.78,59.72 Z" id="hashtag" fill="#000000"></path>
    </g>
</svg>