<?xml version="1.0" encoding="UTF-8"?>
<svg width="100px" height="100px" viewBox="0 0 100 100" version="1.1" xmlns="http://www.w3.org/2000/svg" xmlns:xlink="http://www.w3.org/1999/xlink">
    <!-- Generator: Sketch 57.1 (83088) - https://sketch.com -->
    <title>bold/hashtag-bold</title>
    <desc>Created with Sketch.</desc>
    <g id="bold/hashtag" stroke="none" stroke-width="1" fill="none" fill-rule="evenodd">
        <path d="M94.5588236,65.2450981 L70.9607843,65.2450981 L79.1568628,34.6568627 L94.5588236,34.6568627 C96.200621,34.7338949 97.7517698,33.9018581 98.5957158,32.4914724 C99.4396617,31.0810866 99.4396617,29.3208741 98.5957158,27.9104884 C97.7517698,26.5001026 96.200621,25.6680659 94.5588236,25.745098 L81.5490196,25.745098 L86.2745098,8.05882349 C86.6860659,6.52118038 86.2460365,4.88077703 85.1201765,3.75553754 C83.9943164,2.63029804 82.3536708,2.19117306 80.8162548,2.60357673 C79.2788388,3.01598039 78.0782226,4.21725878 77.6666667,5.75490192 L72.3235294,25.745098 L40.6568627,25.745098 L45.3921569,8.09803917 C46.0283672,5.72104892 44.6171863,3.27836719 42.2401961,2.64215682 C39.8632058,2.00594644 37.4205241,3.41712735 36.7843137,5.7941176 L31.4215686,25.745098 L5.44117643,25.745098 C3.79937902,25.6680659 2.24823016,26.5001026 1.40428423,27.9104884 C0.560338289,29.3208741 0.560338289,31.0810866 1.40428423,32.4914724 C2.24823016,33.9018581 3.79937902,34.7338949 5.44117643,34.6568627 L29.0392157,34.6568627 L20.8431372,65.2450981 L5.44117643,65.2450981 C3.79937902,65.1680659 2.24823016,66.0001027 1.40428423,67.4104884 C0.560338289,68.8208742 0.560338289,70.5810867 1.40428423,71.9914724 C2.24823016,73.4018581 3.79937902,74.2338949 5.44117643,74.1568628 L18.4509804,74.1568628 L13.7254902,91.8431373 C13.0889961,94.2198098 14.4970487,96.6630662 16.872549,97.3039216 C17.2506378,97.4004193 17.6392046,97.4498133 18.0294117,97.4509817 C20.0470727,97.452469 21.8133638,96.0965689 22.3333333,94.1470589 L27.6862745,74.1568628 L59.3529412,74.1568628 L54.6176471,91.8039216 C53.981153,94.1805942 55.3892057,96.6238505 57.7647059,97.2647059 C58.1427947,97.3612036 58.5313615,97.4105976 58.9215686,97.4117648 C60.9392296,97.4132533 62.7055207,96.0573533 63.2254902,94.1078432 L68.627451,74.1568628 L94.6078432,74.1568628 C96.2496406,74.2338949 97.8007894,73.4018581 98.6447354,71.9914724 C99.4886813,70.5810867 99.4886813,68.8208742 98.6447354,67.4104884 C97.8007894,66.0001027 96.2496406,65.1680659 94.6078432,65.2450981 L94.5588236,65.2450981 Z M61.7647059,65.2450981 L30.0686274,65.2450981 L38.2352941,34.6568627 L69.9019608,34.6568627 L61.7647059,65.2450981 Z" id="hashtag" fill="#000000"></path>
    </g>
</svg>