<?xml version="1.0" encoding="UTF-8"?>
<svg width="100px" height="100px" viewBox="0 0 100 100" version="1.1" xmlns="http://www.w3.org/2000/svg" xmlns:xlink="http://www.w3.org/1999/xlink">
    <!-- Generator: Sketch 57.1 (83088) - https://sketch.com -->
    <title>regular/headphones-regular</title>
    <desc>Created with Sketch.</desc>
    <g id="regular/headphones" stroke="none" stroke-width="1" fill="none" fill-rule="evenodd">
        <path d="M32.1782178,58.5544555 C34.5201934,58.5599146 36.4158416,60.4599982 36.4158416,62.8019802 L36.4158416,95.7524753 C36.4158416,98.0944573 34.5201934,99.9945409 32.1782178,100 L21.3663366,100 C17.9838025,99.9945487 15.243075,97.2538212 15.2376237,93.8712872 L15.2376237,64.6831683 C15.243075,61.3006343 17.9838025,58.5599068 21.3663366,58.5544555 L32.1782178,58.5544555 Z M79.3168317,58.5544555 C82.6993658,58.5599068 85.4400933,61.3006343 85.4455446,64.6831683 L85.4455446,93.8712872 C85.4400933,97.2538212 82.6993658,99.9945487 79.3168317,100 L68.4950495,100 C66.1530739,99.9945409 64.2574258,98.0944573 64.2574258,95.7524753 L64.2574258,62.8019802 C64.2574258,60.4599982 66.1530739,58.5599146 68.4950495,58.5544555 L79.3168317,58.5544555 Z M31.7128713,63.2673267 L21.3663366,63.2673267 C20.5843889,63.2673267 19.950495,63.9012206 19.950495,64.6831683 L19.950495,93.8712872 C19.950495,94.6532349 20.5843889,95.2871288 21.3663366,95.2871288 L31.7128713,95.2871288 L31.7128713,63.2673267 Z M79.2772278,63.2673267 L68.970297,63.2673267 L68.970297,95.2871288 L79.3168317,95.2871288 C80.0832707,95.2656816 80.6933694,94.6380261 80.6930696,93.8712872 L80.6930696,64.6831683 C80.6930696,63.9012206 80.0591755,63.2673267 79.2772278,63.2673267 Z M71.9898901,6.19765026 C85.3648039,14.0102113 93.4926761,28.4231835 93.2574258,43.9108911 L93.2574258,82.5841584 C93.2520012,83.8833284 92.20016,84.9351695 90.9009901,84.9405941 C89.5995667,84.9405941 88.5445545,83.8855819 88.5445545,82.5841584 L88.5445545,43.9108911 C88.7666462,30.1157033 81.534165,17.2723129 69.6228225,10.3098097 C57.7114801,3.34730645 42.9716882,3.34730645 31.0603458,10.3098097 C19.1490033,17.2723129 11.9165221,30.1157033 12.1386138,43.9108911 L12.1386138,82.5841584 C12.1386138,83.8855819 11.0836016,84.9405941 9.78217818,84.9405941 C8.48075472,84.9405941 7.42574255,83.8855819 7.42574253,82.5841584 L7.42574253,43.9108911 C7.19049225,28.4231835 15.3183644,14.0102113 28.6932782,6.19765026 C42.068192,-1.61491079 58.6149763,-1.61491079 71.9898901,6.19765026 Z" id="Shape" fill="#000000"></path>
    </g>
</svg>