<?xml version="1.0" encoding="UTF-8"?>
<svg width="100px" height="100px" viewBox="0 0 100 100" version="1.1" xmlns="http://www.w3.org/2000/svg" xmlns:xlink="http://www.w3.org/1999/xlink">
    <!-- Generator: Sketch 57.1 (83088) - https://sketch.com -->
    <title>bold/headphones-bold</title>
    <desc>Created with Sketch.</desc>
    <g id="bold/headphones" stroke="none" stroke-width="1" fill="none" fill-rule="evenodd">
        <path d="M49.65,-5.00000041e-08 C25.554193,0.0275537871 6.02755379,19.554193 5.99999627,43.65 L5.99999627,80.94 C5.99773408,82.7226042 7.0411357,84.3408185 8.66580226,85.0743996 C10.2904688,85.8079808 12.1943278,85.520535 13.53,84.34 L13.53,91.82 C13.5355099,96.335405 17.194595,99.9944901 21.71,99.9999999 L32.14,99.9999999 C35.6518776,99.9945128 38.4989952,97.1518647 38.51,93.64 L38.51,61.86 C38.5044833,58.345852 35.6541523,55.4999999 32.14,55.4999999 L21.71,55.4999999 C19.0874978,55.5034833 16.6256696,56.7641476 15.09,58.89 L15.09,43.65 C14.8775956,31.1645803 21.4168919,19.5355984 32.195571,13.2307671 C42.9742501,6.92593587 56.3157499,6.92593587 67.094429,13.2307671 C77.8731081,19.5355984 84.4124044,31.1645803 84.2,43.65 L84.2,58.89 C82.6676352,56.7603004 80.2036922,55.4985531 77.58,55.4999999 L67.15,55.4999999 C63.637469,55.4999999 60.79,58.347469 60.79,61.86 L60.79,93.64 C60.7955063,97.1502477 63.6397523,99.9944938 67.15,99.9999999 L77.58,99.9999999 C82.095405,99.9944901 85.7544901,96.335405 85.76,91.82 L85.76,84.34 C87.0951931,85.5271599 89.0034525,85.8186412 90.6321633,85.0842092 C92.2608741,84.3497773 93.3057744,82.7266326 93.3000239,80.94 L93.3000239,43.65 C93.2724462,19.554193 73.745807,0.0275537871 49.65,-5.00000041e-08 Z M22.65,64.59 L29.45,64.59 L29.45,90.91 L22.65,90.91 L22.65,64.59 Z M76.67,90.91 L69.88,90.91 L69.88,64.59 L76.67,64.59 L76.67,90.91 Z" id="headphones" fill="#000000"></path>
    </g>
</svg>