<svg width="100" height="100" viewBox="0 0 100 100" fill="none" xmlns="http://www.w3.org/2000/svg">
<path d="M70.8333 5.20826C62.9883 5.20355 55.4746 8.37057 50 13.9895C41.7095 5.52801 29.1246 2.9214 18.1552 7.39373C7.18577 11.8661 0.0109601 22.5288 0 34.3749C0 59.177 30.3646 83.052 43.4167 92.1562C47.377 94.8991 52.623 94.8991 56.5833 92.1562C65.2457 86.0838 73.3349 79.2324 80.75 71.6874C93.5208 58.4166 100 45.8333 100 34.3749C100 18.2666 86.9416 5.20826 70.8333 5.20826ZM50 76.3749C32.9583 63.8749 16.6667 46.6458 16.6667 34.3749C16.6667 27.4714 22.2631 21.8749 29.1667 21.8749C36.0702 21.8749 41.6667 27.4714 41.6667 34.3749C41.6667 38.9773 45.3976 42.7083 50 42.7083C54.6024 42.7083 58.3333 38.9773 58.3333 34.3749C58.3333 27.4714 63.9298 21.8749 70.8333 21.8749C77.7369 21.8749 83.3333 27.4714 83.3333 34.3749C83.3333 46.6458 67.0417 63.8749 50 76.3749Z" fill="black"/>
</svg>
