<svg width="100" height="100" viewBox="0 0 100 100" fill="none" xmlns="http://www.w3.org/2000/svg">
<path d="M49.9817 100C22.391 99.9676 0.0324025 77.601 0 50.0005C0 48.3761 1.31633 47.0593 2.9401 47.0593C4.56388 47.0593 5.8802 48.3761 5.8802 50.0005C5.87433 70.9887 20.6466 89.0772 41.207 93.2576C61.7674 97.438 82.4264 86.5536 90.6114 67.2284C98.7964 47.9032 92.2425 25.4848 74.9382 13.6166C59.4309 2.98083 39.1356 3.45532 24.2427 14.1789L29.2368 14.8244C30.8606 14.9283 32.0927 16.3294 31.9887 17.9538C31.8848 19.5781 30.4842 20.8106 28.8605 20.7067L28.7899 20.6832H28.4018L17.6234 19.2674C17.2137 19.3428 16.7857 19.3315 16.3673 19.2249C15.2975 18.9526 14.4703 18.1037 14.2255 17.0269C14.2109 16.9628 14.1985 16.8986 14.1883 16.8342C13.9666 16.2661 13.8791 15.6363 13.96 14.9891L15.4301 3.77743C15.6412 2.15308 17.1286 1.00747 18.7524 1.21863C20.3762 1.4298 21.5214 2.91778 21.3103 4.54213L20.6669 9.52371C36.5915 -2.04171 58.1218 -3.28588 75.4461 6.95756C94.844 18.4271 104.172 41.4627 98.2215 63.2036C92.2713 84.9445 72.5147 100.014 49.9817 100Z" fill="black"/>
<path d="M31.5881 44.7061L50.6282 51.8825L75.2662 37.8708C76.2167 37.3728 76.8205 36.3964 76.8416 35.3232C76.8627 34.2501 76.2977 33.2507 75.3675 32.7157C74.4373 32.1807 73.2896 32.1951 72.3731 32.7532L50.1225 45.3884L33.6579 39.2002C32.138 38.6285 30.4426 39.3975 29.871 40.9179C29.2995 42.4383 30.0682 44.1343 31.5881 44.7061Z" fill="black"/>
</svg>
