<?xml version="1.0" encoding="UTF-8"?>
<svg width="100px" height="100px" viewBox="0 0 100 100" version="1.1" xmlns="http://www.w3.org/2000/svg" xmlns:xlink="http://www.w3.org/1999/xlink">
    <!-- Generator: Sketch 57.1 (83088) - https://sketch.com -->
    <title>solid/history-solid</title>
    <desc>Created with Sketch.</desc>
    <g id="solid/history" stroke="none" stroke-width="1" fill="none" fill-rule="evenodd">
        <path d="M50,-7.99772752e-05 C77.6142375,-7.99772752e-05 100,22.3857625 100,50 C100,77.6142375 77.6142375,100 50,100 C22.3857625,100 -4.9999997e-08,77.6142375 -4.9999997e-08,50 C0.15557968,45.5090244 3.84133031,41.9487473 8.33499996,41.9487473 C12.8286696,41.9487473 16.5144202,45.5090244 16.67,50 C16.6788793,64.5106912 26.0722132,77.3492625 39.8996094,81.7496432 C53.7270057,86.1500239 68.8126472,81.1015533 77.206232,69.264832 C85.5998168,57.4281108 85.3735424,41.5217462 76.6466578,29.9285705 C67.9197733,18.3353948 52.696632,13.7180789 39,18.51 C39.9620902,21.0704289 39.6058963,23.940024 38.0470119,26.1875322 C36.4881274,28.4350404 33.9252143,29.7740425 31.19,29.77 C30.822181,29.7712739 30.4546904,29.7478881 30.09,29.7 L20.17,28.39 C19.8972279,28.3563428 19.626736,28.3062517 19.36,28.24 C17.6878107,27.9201172 16.1548765,27.0925423 14.97,25.87 L14.73,25.59 L14.73,25.54 C14.62,25.41 14.51,25.29 14.41,25.16 C12.8063617,23.2298411 12.0813879,20.7178069 12.41,18.23 L13.72,8.29999996 C14.1653715,4.87788023 16.6770805,2.08593903 20.0332118,1.2824208 C23.3893432,0.47890258 26.8931205,1.83062815 28.84,4.67999995 C35.4652199,1.58841536 42.6889571,-0.00927319691 50,-7.99772752e-05 Z M67,29.75 C71.001303,27.4745868 76.0895869,28.873697 78.365,32.875 C80.6404132,36.876303 79.241303,41.9645868 75.24,44.24 L51.07,58 L31.7,50.7 C27.392179,49.0818056 25.2118058,44.277821 26.8300001,39.97 C28.4481944,35.662179 33.252179,33.4818057 37.56,35.1 L49.62,39.63 L67,29.75 Z" id="Shape" fill="#000000"></path>
    </g>
</svg>