<?xml version="1.0" encoding="UTF-8"?>
<svg width="100px" height="100px" viewBox="0 0 100 100" version="1.1" xmlns="http://www.w3.org/2000/svg" xmlns:xlink="http://www.w3.org/1999/xlink">
    <!-- Generator: Sketch 57.1 (83088) - https://sketch.com -->
    <title>bold/home-bold</title>
    <desc>Created with Sketch.</desc>
    <g id="bold/home" stroke="none" stroke-width="1" fill="none" fill-rule="evenodd">
        <path d="M50,0.980202328 L50.2768175,0.984799342 C51.7489751,1.04413731 53.1479083,1.6607585 54.1862745,2.71568623 L97.7352942,46.8333333 L97.8333334,46.8627451 C99.0242034,47.9811353 99.5084392,49.6610456 99.0955754,51.2417137 C98.6827116,52.8223818 97.4388043,54.0509084 95.853122,54.4440749 C94.2674398,54.8372414 92.5936839,54.332143 91.4901961,53.127451 L90.509804,52.1470588 L90.509804,90.1960785 C90.509804,95.0691792 86.5593753,99.0196079 81.6862745,99.0196079 L17.9509804,99.0196079 C13.0778796,99.0196079 9.12745094,95.0691792 9.12745094,90.1960785 L9.12745094,52.5784314 L8.61764702,53.0980392 C7.51415921,54.3027312 5.84040337,54.8078296 4.25472111,54.4146632 C2.66903884,54.0214967 1.42513157,52.79297 1.01226774,51.212302 C0.599403912,49.6316339 1.08363972,47.9517235 2.27450976,46.8333333 L12.0784313,36.8921568 L12.0784313,22.5490196 C12.0732236,20.8884192 12.728575,19.293906 13.9000407,18.1169232 C15.0715064,16.9399403 16.6629229,16.2771044 18.3235294,16.2745098 L23.2254902,16.2745098 C25.6512979,16.2792447 27.8541701,17.6904597 28.872549,19.8921568 L45.8235294,2.72549015 C46.9234173,1.60442042 48.4294832,0.975125279 50,0.980202328 Z M52.0098039,80.3039216 L47.5686274,80.3039216 L47.5686274,90.1078432 L52.0098039,90.1078432 L52.0098039,80.3039216 Z M50,11.1764705 L24.8921568,36.6372549 C25.9294264,35.9118414 27.1656188,35.5248892 28.4313725,35.5294118 L41.2647059,35.5294118 C44.7099532,35.5294075 47.5043954,38.3194628 47.5098039,41.7647059 L47.5098039,54.8333333 C47.5044056,58.2801672 44.7115397,61.073033 41.2647059,61.0784314 L28.4313725,61.0784314 C25.0014588,61.0515082 22.2351884,58.2633527 22.2352941,54.8333333 L22.2352941,41.7647059 C22.2340005,40.5281038 22.6027571,39.3194015 23.2941176,38.2941176 L18.0980392,43.5490196 L18.0980392,90.1078432 L38.6862745,90.1078432 L38.6862745,77.6764705 C38.680849,74.225801 41.4709116,71.4225776 44.9215686,71.4117647 L54.7254902,71.4117647 C58.1761472,71.4225776 60.9662098,74.225801 60.9607843,77.6764705 L60.9607843,90.1078432 L81.5490196,90.1078432 L81.5490196,43.1372549 L50,11.1764705 Z M71.2156863,35.5294118 C74.6593442,35.5294118 77.4509804,38.321048 77.4509804,41.7647059 L77.4509804,54.8333333 C77.4509804,56.4947449 76.7889992,58.0876835 75.6114472,59.2597158 C74.4338952,60.431748 72.8378637,61.0862559 71.1764706,61.0785689 L58.3137255,61.0785689 C54.8668916,61.073033 52.0740258,58.2801672 52.0686275,54.8333333 L52.0686275,41.7647059 C52.074036,38.3194628 54.8684781,35.5294118 58.3137255,35.5294118 L71.2156863,35.5294118 Z M38.5980392,44.4411765 L31.0784314,44.4411765 L31.0784314,52.1666667 L38.5980392,52.1666667 L38.5980392,44.4411765 Z M68.5,44.4117647 L60.9803922,44.4117647 L60.9803922,52.1372549 L68.5,52.1372549 L68.5,44.4117647 Z" id="Shape" fill="#000000"></path>
    </g>
</svg>