<?xml version="1.0" encoding="UTF-8"?>
<svg width="100px" height="100px" viewBox="0 0 100 100" version="1.1" xmlns="http://www.w3.org/2000/svg" xmlns:xlink="http://www.w3.org/1999/xlink">
    <!-- Generator: Sketch 57.1 (83088) - https://sketch.com -->
    <title>regular/home-regular</title>
    <desc>Created with Sketch.</desc>
    <g id="regular/home" stroke="none" stroke-width="1" fill="none" fill-rule="evenodd">
        <path d="M49.5049505,0.49498248 L49.7254063,0.50025954 C50.597882,0.546408404 51.4280154,0.891831535 52.0755554,1.47782689 L52.2475248,1.64356431 L89.2673268,39.1089109 L98.3267327,48.3069307 L98.3366337,48.3069307 C99.002379,48.9829277 99.1977713,49.9922605 98.8323944,50.867868 C98.4670174,51.7434754 97.6121464,52.3145502 96.6633664,52.3168317 C96.0941579,52.3168527 95.5462601,52.1117997 95.1182811,51.7428561 L94.9801981,51.6138614 L89.9603961,46.5346535 L89.9603961,92.5742575 C89.9603961,96.3222295 86.985363,99.3753453 83.2679701,99.5009317 L83.029703,99.5049505 L15.5445544,99.5049505 C11.7965824,99.5049505 8.74346661,96.5299175 8.61788017,92.8125245 L8.61386134,92.5742575 L8.61386134,47.029703 L4.03960391,51.6138614 C3.12079716,52.5082335 1.65551207,52.5038039 0.742129493,51.603893 C-0.129735696,50.7448872 -0.19323857,49.370944 0.568702442,48.4372217 L0.683168268,48.3069307 L11.7425742,37.1287129 L11.7425742,20.940594 C11.7372558,18.6642675 13.5196122,16.8002761 15.768079,16.6794474 L15.980198,16.6732673 L21.1782178,16.6732673 C23.4545259,16.6838487 25.3060225,18.4791811 25.4111432,20.728437 L25.4158416,20.940594 L25.4158416,23.2673267 L46.7623762,1.64356431 C47.4840604,0.906221157 48.4732075,0.491993483 49.5049505,0.49498248 Z M49.5049505,5.57425738 L24.7524752,30.6633663 L13.3267326,42.2079208 L13.3267326,92.5742574 C13.3369292,93.7379418 14.2346862,94.6898742 15.3773745,94.784544 L15.5346534,94.7920793 L39.8613861,94.7920793 L39.8613861,79.2772278 C39.8560677,77.0009012 41.6384241,75.1369099 43.8868909,75.0160812 L44.0990099,75.009901 L54.4554455,75.009901 C55.584586,75.0125239 56.6664375,75.4635902 57.4630036,76.2638698 C58.2026721,77.0069867 58.6400923,77.9946863 58.6967022,79.0360479 L58.7029703,79.2772278 L58.7029703,94.8415842 L83.029703,94.8415842 C83.6231744,94.8337586 84.189224,94.5904709 84.6033007,94.1652532 C84.9713688,93.7872819 85.192553,93.2930911 85.2317318,92.7711242 L85.2378238,92.5742574 L85.2378238,41.7623762 L49.5049505,5.57425738 Z M53.970297,79.7029703 L44.5544554,79.7029703 L44.5544554,94.7920793 L53.990099,94.7920793 L53.970297,79.7029703 Z M26.6534653,37.0393911 L40.2673267,37.0393911 C42.5436905,37.0236207 44.4160477,38.7973622 44.5473359,41.0453296 L44.5545488,41.2574257 L44.5545488,55.1188119 C44.559805,56.2556496 44.109204,57.3471853 43.3034708,58.1491969 C42.55529,58.8939219 41.5588887,59.3312835 40.5101766,59.3816155 L40.2673267,59.386324 L26.6534653,59.386324 C24.3840108,59.386324 22.5312332,57.6021435 22.4210277,55.3600155 L22.4158416,55.1485149 L22.4158416,41.2871287 C22.4158416,39.0161159 24.1983426,37.1606255 26.4418283,37.0451815 L26.6534653,37.0393911 L40.2673267,37.0393911 L26.6534653,37.0393911 Z M71.9108911,37.009901 C74.2528668,37.0153601 76.1485149,38.9154437 76.1485149,41.2574257 L76.1485149,55.1188119 C76.1485149,57.4591869 74.2512661,59.3564357 71.9108911,59.3564357 L58.2970297,59.3564357 C55.9550477,59.3564357 54.0549641,57.4607875 54.049505,55.1188119 L54.049505,41.2574257 C54.0549488,38.9138412 55.9534452,37.0153449 58.2970297,37.009901 L71.9108911,37.009901 Z M39.7920792,41.7722772 L27.1287128,41.7722772 L27.1287128,54.6435644 L39.7920792,54.6435644 L39.7920792,41.7722772 Z M71.4356436,41.7623762 L58.7722772,41.7623762 L58.7722772,54.6336634 L71.4356436,54.6336634 L71.4356436,41.7623762 Z M20.7029703,21.3861386 L16.4554455,21.3861386 L16.4554455,32.3267327 L20.7029703,28.0297029 L20.7029703,21.3861386 Z" id="Shape" fill="#000000"></path>
    </g>
</svg>