<?xml version="1.0" encoding="UTF-8"?>
<svg width="100px" height="100px" viewBox="0 0 100 100" version="1.1" xmlns="http://www.w3.org/2000/svg" xmlns:xlink="http://www.w3.org/1999/xlink">
    <!-- Generator: Sketch 57.1 (83088) - https://sketch.com -->
    <title>bold/hourglass-bold</title>
    <desc>Created with Sketch.</desc>
    <g id="bold/hourglass" stroke="none" stroke-width="1" fill="none" fill-rule="evenodd">
        <path d="M85.1960785,90.1078432 L79.9019608,90.1078432 L79.9019608,77.2450981 C79.8849257,72.8281206 77.9924934,68.6262794 74.6960785,65.6862745 L57.1568628,50 L74.6960785,34.3137255 C77.9924934,31.3737206 79.8849257,27.1718794 79.9019608,22.7549019 L79.9019608,9.89215682 L85.1960785,9.89215682 C87.5757988,9.78050177 89.4477955,7.81861275 89.4477955,5.43627447 C89.4477955,3.05393618 87.5757988,1.09204716 85.1960785,0.980392108 L15.7352941,0.980392108 C14.0934967,0.903359955 12.5423478,1.73539674 11.6984019,3.14578248 C10.8544559,4.55616823 10.8544559,6.31638071 11.6984019,7.72676645 C12.5423478,9.13715219 14.0934967,9.96918897 15.7352941,9.89215682 L21.0784313,9.89215682 L21.0784313,22.7549019 C21.0804723,27.1627427 22.9508769,31.363137 26.2254902,34.3137255 L43.7647059,50 L26.2254902,65.6862745 C25.381843,66.4455359 24.6225499,67.2935776 23.9607843,68.2156863 L23.872549,68.3431373 C22.053594,70.9553161 21.0784766,74.0620059 21.0784313,77.2450981 L21.0784313,90.1078432 L15.7352941,90.1078432 C14.0934967,90.030811 12.5423478,90.8628478 11.6984019,92.2732336 C10.8544559,93.6836193 10.8544559,95.4438318 11.6984019,96.8542175 C12.5423478,98.2646033 14.0934967,99.09664 15.7352941,99.0196079 L85.1960785,99.0196079 C87.5757988,98.9079528 89.4477955,96.9460638 89.4477955,94.5637255 C89.4477955,92.1813873 87.5757988,90.2194982 85.1960785,90.1078432 L85.1960785,90.1078432 Z M32.1568627,27.6960784 C30.7615721,26.4465609 29.9572327,24.667049 29.9411765,22.7941176 L29.9411765,9.89215682 L70.9803922,9.89215682 L70.9803922,22.7549019 C70.9692351,24.6289078 70.16404,26.4103129 68.7647059,27.6568627 L50.4901961,44.0294118 L32.1568627,27.6960784 Z M70.9803922,90.1078432 L29.9019608,90.1078432 L29.9019608,77.2450981 C29.9033394,76.5422961 30.0158397,75.8441325 30.2352941,75.1764706 L45.4803922,75.1764706 C45.7689919,75.1764706 46.0044595,75.4075282 46.0098039,75.6960785 L46.0098039,77.4509804 C46.0152077,82.6629582 50.2390026,86.8867531 55.4509804,86.8921569 L70.9803922,86.8921569 L70.9803922,90.1078432 Z M70.9803922,78.0098039 L55.4509804,78.0098039 C55.1585944,78.0098039 54.9215686,77.7727782 54.9215686,77.4803922 L54.9215686,75.6960785 C54.916158,70.4856897 50.6907837,66.2647031 45.4803922,66.2647059 L38.9313725,66.2647059 L50.4901961,55.9705882 L68.7647059,72.3039216 C70.16404,73.5504714 70.9692351,75.3318765 70.9803922,77.2058824 L70.9803922,78.0098039 Z" id="hourglass" fill="#000000"></path>
    </g>
</svg>