<svg width="100" height="100" viewBox="0 0 100 100" fill="none" xmlns="http://www.w3.org/2000/svg">
<path fill-rule="evenodd" clip-rule="evenodd" d="M68.5356 0H73.0276V9.023H79.3946V13.477H68.5356V0ZM61.6016 0H66.3086V13.477H61.8166V6.797L58.6716 11.641L55.5266 6.797V13.477H51.1136V0H55.8206L58.7116 4.746L61.6016 0ZM36.6986 0H49.1406V4.492H45.1566V13.477H40.6646V4.492H36.6986V0ZM30.2346 0H34.7266V13.477H30.2346V8.984H26.1326V13.477H21.6016V0H26.0936V4.453H30.2346V0ZM15 19.6479H85.86L79.414 91.9529L50.371 99.9999L21.445 91.9919L15 19.6479ZM28.164 34.4329L30.586 61.2309H50.391V61.2499H61.328L60.293 72.7729L50.411 75.4249L40.508 72.7729L39.883 65.6839H30.977L32.227 79.6099L50.429 84.6869V84.6379L68.555 79.6099L70.996 52.3829H38.71L37.891 43.3009H71.797L72.617 34.4329H28.164Z" fill="black"/>
</svg>
