<svg width="100" height="100" viewBox="0 0 100 100" fill="none" xmlns="http://www.w3.org/2000/svg">
<path fill-rule="evenodd" clip-rule="evenodd" d="M22.1769 37.1866C23.4662 40.29 26.4984 42.3106 29.8589 42.3059C34.4388 42.2929 38.1466 38.5799 38.153 34C38.153 30.6395 36.1281 27.6101 33.0229 26.3252C29.9178 25.0403 26.3444 25.7531 23.9698 28.131C21.5953 30.5089 20.8876 34.0833 22.1769 37.1866ZM27.6055 33.0931C27.9798 32.1792 28.8713 31.5838 29.8589 31.5882C31.1682 31.5878 32.2387 32.6322 32.2707 33.9411C32.2994 34.9284 31.7263 35.8343 30.8218 36.231C29.9174 36.6278 28.8627 36.4361 28.1558 35.7464C27.4488 35.0567 27.2311 34.0071 27.6055 33.0931Z" fill="black"/>
<path fill-rule="evenodd" clip-rule="evenodd" d="M88.4824 77.8353H94.7058C97.627 77.8288 99.9935 75.4623 99.9999 72.5412V15.2941C99.9935 12.3729 97.627 10.0065 94.7058 10H16.8117C13.8878 10 11.5176 12.3703 11.5176 15.2941V21.5176H4.8C2.14903 21.5176 0 23.6666 0 26.3176V84.5411C0 85.8255 0.513346 87.0565 1.42593 87.9603C2.33851 88.864 3.57453 89.3654 4.85882 89.3531H83.6824C86.3352 89.3464 88.4824 87.194 88.4824 84.5411V77.8353ZM85.5615 71.9529L85.5412 71.9529L85.5209 71.9529H17.3999V70.9126L37.2474 51.4473L49.4474 60.3767C51.5944 61.9628 54.6122 61.5621 56.271 59.4708L75.0945 35.7649L94.1176 70.5097V71.9529H85.5615ZM11.3023 70.5956C11.1652 69.9538 11.2487 69.2995 11.5176 68.7282V27.3999H5.88235V83.4705H82.6V77.8353H16.8117C13.8878 77.8353 11.5176 75.465 11.5176 72.5412V71.2341C11.4228 71.0328 11.3501 70.819 11.3023 70.5956ZM17.3999 24.4791V62.7278L33.5651 46.859C35.3871 45.0608 38.2468 44.8562 40.3063 46.3767L52.2004 55.1178L71.1298 31.3061C72.217 29.9467 73.9112 29.2199 75.6455 29.3687C77.3798 29.5176 78.9254 30.5225 79.7651 32.0473L94.1176 58.2454V15.8824H17.3999V24.4384L17.4 24.4588L17.3999 24.4791Z" fill="black"/>
</svg>
