<svg width="100" height="100" viewBox="0 0 100 100" fill="none" xmlns="http://www.w3.org/2000/svg">
<path fill-rule="evenodd" clip-rule="evenodd" d="M11.5493 38.9023C11.545 43.8915 15.5849 47.9402 20.5741 47.9467C25.5668 47.9467 29.616 43.9028 29.6225 38.9101C29.6225 33.9209 25.579 29.8757 20.5898 29.8735C15.6006 29.8714 11.5536 33.9131 11.5493 38.9023ZM17.4248 38.9179C17.4205 37.1737 18.8299 35.7556 20.5741 35.7491C22.3218 35.7491 23.7404 37.1624 23.7469 38.9101C23.7469 40.6544 22.334 42.069 20.5898 42.0711C18.8455 42.0733 17.4292 40.6622 17.4248 38.9179Z" fill="black"/>
<path fill-rule="evenodd" clip-rule="evenodd" d="M94.712 88.382H5.4038C2.48601 88.3756 0.122275 86.0118 0.115812 83.094V80.5579C0.103132 80.5141 0.0914331 80.4698 0.0807402 80.4251C-0.0398575 79.9211 -0.0230744 79.405 0.115812 78.925V17.288C0.122275 14.3702 2.48601 12.0065 5.4038 12H94.712C97.6298 12.0065 99.9935 14.3702 100 17.288V83.094C99.9935 86.0118 97.6298 88.3756 94.712 88.382ZM5.99135 82.5065V80.8506L28.953 58.2171L43.0543 68.5933C45.3177 70.2607 48.4944 69.8403 50.246 67.6415L72.1265 40.2027L94.1245 80.3146V82.5065H5.99135ZM25.0517 53.8104L5.99135 72.6101V17.8755H94.1245V68.1009L77.015 36.8771C76.1287 35.2598 74.4921 34.1929 72.6547 34.0347C70.8172 33.8765 69.0224 34.6478 67.8726 36.0898L46.0391 63.4933L32.1846 53.3051C30.007 51.6939 26.9804 51.9083 25.0517 53.8104Z" fill="black"/>
</svg>
