<?xml version="1.0" encoding="UTF-8"?>
<svg width="100px" height="100px" viewBox="0 0 100 100" version="1.1" xmlns="http://www.w3.org/2000/svg" xmlns:xlink="http://www.w3.org/1999/xlink">
    <!-- Generator: Sketch 57.1 (83088) - https://sketch.com -->
    <title>bold/image-bold</title>
    <desc>Created with Sketch.</desc>
    <g id="bold/image" stroke="none" stroke-width="1" fill="none" fill-rule="evenodd">
        <path d="M93.64,11 C97.1502477,11.0055062 99.9944938,13.8497523 100,17.36 L100,81.91 C100,85.422531 97.1525311,88.27 93.64,88.27 L6.35999996,88.27 C2.84746894,88.27 -4.99996062e-08,85.422531 -4.99996062e-08,81.91 L-4.99996062e-08,17.36 C0.00550623107,13.8497523 2.84975225,11.0055062 6.35999996,11 L93.64,11 Z M71.08,43 L51.52,67.57 C49.257954,70.4191245 45.1449534,70.963102 42.22,68.8 L29.75,59.63 L9.86999996,79.18 L90.89,79.18 L71.08,43 Z M90.91,20.09 L9.08999996,20.09 L9.08999996,67.2 L24.62,51.92 C27.0762042,49.4849507 30.9426335,49.2087772 33.72,51.27 L45.8,60.15 L65.89,34.94 C67.3466959,33.0777573 69.6450066,32.0766817 72.0006878,32.2783667 C74.356369,32.4800518 76.4510612,33.8572406 77.57,35.94 L90.87,60.29 L90.91,20.09 Z M17.4963366,29.0673773 C21.4021404,27.4473515 25.8992956,28.3407734 28.8892611,31.3307389 C31.8792265,34.3207043 32.7726484,38.8178596 31.1526227,42.7236634 C29.532597,46.6294672 25.7184477,49.1740444 21.49,49.1700096 C15.7287119,49.1589946 11.0610053,44.4912881 11.0499903,38.73 C11.0459555,34.5015522 13.5905328,30.687403 17.4963366,29.0673773 Z M21.49,37.37 C20.7428009,37.3754942 20.14,37.9827807 20.14,38.73 C20.14,39.2809754 20.4724607,39.7775017 20.9818866,39.9874045 C21.4913125,40.1973072 22.077049,40.0791068 22.4652072,39.6880733 C22.8533654,39.2970399 22.9672399,38.7104471 22.7535833,38.2025841 C22.5399267,37.6947211 22.0409605,37.3659487 21.49,37.37 L21.49,37.37 Z" id="Shape" fill="#000000"></path>
    </g>
</svg>