<?xml version="1.0" encoding="UTF-8"?>
<svg width="100px" height="100px" viewBox="0 0 100 100" version="1.1" xmlns="http://www.w3.org/2000/svg" xmlns:xlink="http://www.w3.org/1999/xlink">
    <!-- Generator: Sketch 57.1 (83088) - https://sketch.com -->
    <title>solid/inferior-or-equal-solid</title>
    <desc>Created with Sketch.</desc>
    <g id="solid/inferior-or-equal" stroke="none" stroke-width="1" fill="none" fill-rule="evenodd">
        <path d="M31.73,50.59 L66.91,85.77 C69.2903803,88.1562523 70.0004396,91.740723 68.709525,94.8542339 C67.4186105,97.9677447 64.3805203,99.9981689 61.01,100.000017 C58.80013,100.003204 56.6802208,99.125007 55.12,97.56 L19.94,62.38 C16.8365872,59.0993822 16.9081153,53.9446049 20.1013601,50.7513601 C23.2946048,47.5581154 28.4493822,47.4865872 31.73,50.59 Z M79.272527,2.67727579 C82.4359021,5.84333629 82.5362922,10.9418681 79.5,14.23 L50.04,43.7 L79.5,73.17 C81.8778349,75.5536726 82.5891806,79.1333139 81.3033869,82.2450222 C80.0175932,85.3567304 76.9868822,87.3901108 73.62,87.4002053 C71.4134759,87.4109846 69.2923057,86.5481357 67.72,85 L32.5,49.78 C29.1418361,46.4183168 29.1418361,40.9716832 32.5,37.61 L67.72,2.43999995 C71.0107071,-0.593501002 76.1091519,-0.488784713 79.272527,2.67727579 Z" id="Shape" fill="#000000"></path>
    </g>
</svg>