<?xml version="1.0" encoding="UTF-8"?>
<svg width="100px" height="100px" viewBox="0 0 100 100" version="1.1" xmlns="http://www.w3.org/2000/svg" xmlns:xlink="http://www.w3.org/1999/xlink">
    <!-- Generator: Sketch 57.1 (83088) - https://sketch.com -->
    <title>brand/instagram-brand</title>
    <desc>Created with Sketch.</desc>
    <g id="brand/instagram" stroke="none" stroke-width="1" fill="none" fill-rule="evenodd">
        <path d="M49.9932,37.6854 C56.7892,37.6854 62.2992,43.1944 62.2992,49.9914 C62.2992,56.7864 56.7892,62.2954 49.9932,62.2954 C43.1972,62.2954 37.6882,56.7864 37.6882,49.9914 C37.6882,43.1944 43.1972,37.6854 49.9932,37.6854 Z M69.6992,34.7147 C72.1442,34.7147 74.1292,32.7307 74.1292,30.2847 C74.1292,27.8397 72.1442,25.8557 69.6992,25.8557 L69.6992,25.8567 C67.2532,25.8567 65.2682,27.8387 65.2682,30.2847 C65.2682,32.7307 67.2532,34.7147 69.6992,34.7147 Z M49.9932,68.9437 C60.4632,68.9437 68.9482,60.4597 68.9482,49.9907 C68.9482,39.5217 60.4622,31.0327 49.9922,31.0317 L49.9932,31.0317 L49.9922,31.0317 C39.5232,31.0327 31.0352,39.5217 31.0352,49.9907 C31.0352,60.4597 39.5232,68.9437 49.9932,68.9437 Z M78.7692,28.2167 C79.2742,29.5167 79.8772,31.4707 80.0412,35.0687 C80.2182,38.9607 80.2562,40.1297 80.2562,49.9827 C80.2562,59.8337 80.2182,61.0027 80.0412,64.8947 C79.8762,68.4937 79.2742,70.4467 78.7692,71.7467 C78.1002,73.4697 77.2992,74.6967 76.0072,75.9877 C74.7152,77.2797 73.4882,78.0797 71.7642,78.7487 C70.4652,79.2567 68.5102,79.8567 64.9102,80.0217 C61.0182,80.1977 59.8492,80.2357 49.9932,80.2357 C40.1362,80.2357 38.9682,80.1977 35.0762,80.0217 C31.4762,79.8557 29.5232,79.2537 28.2212,78.7477 C26.4982,78.0787 25.2682,77.2787 23.9752,75.9867 C22.6832,74.6947 21.8842,73.4677 21.2132,71.7437 C20.7082,70.4437 20.1062,68.4907 19.9422,64.8917 C19.7652,60.9997 19.7292,59.8307 19.7292,49.9727 C19.7292,40.1147 19.7652,38.9517 19.9422,35.0607 C20.1062,31.4607 20.7082,29.5077 21.2132,28.2057 C21.8822,26.4837 22.6832,25.2527 23.9752,23.9607 C25.2682,22.6687 26.4982,21.8687 28.2212,21.1977 C29.5222,20.6907 31.4762,20.0907 35.0762,19.9257 C38.4812,19.7717 39.8012,19.7257 46.6812,19.7177 L46.6812,19.7277 C47.6642,19.7257 48.7612,19.7277 49.9932,19.7277 C59.8492,19.7277 61.0182,19.7627 64.9102,19.9397 C68.5102,20.1047 70.4632,20.7047 71.7642,21.2107 C73.4872,21.8797 74.7162,22.6797 76.0072,23.9717 C77.2992,25.2637 78.0982,26.4937 78.7692,28.2167 Z M86.6826,65.2088 C86.8596,61.2708 86.9056,60.0168 86.9056,49.9908 C86.9056,39.9648 86.8596,38.7068 86.6826,34.7688 C86.4976,30.8388 85.8746,28.1558 84.9676,25.8098 C84.0216,23.3808 82.7596,21.3208 80.7066,19.2698 C78.6536,17.2158 76.5996,15.9548 74.1696,15.0128 C71.8166,14.0998 69.1316,13.4778 65.2026,13.2978 C61.2646,13.1178 60.0106,13.0738 49.9876,13.0738 L49.9936,13.0738 L49.9816,13.0738 L49.9876,13.0738 C39.9676,13.0738 38.7086,13.1178 34.7716,13.2978 C30.8416,13.4778 28.1586,14.0998 25.8116,15.0128 C23.3836,15.9558 21.3246,17.2168 19.2716,19.2698 C17.2186,21.3208 15.9576,23.3808 15.0116,25.8088 C14.0966,28.1558 13.4736,30.8398 13.2966,34.7688 C13.1196,38.7058 13.0746,39.9648 13.0746,49.9908 C13.0746,60.0168 13.1186,61.2708 13.2966,65.2088 C13.4776,69.1388 14.0996,71.8208 15.0126,74.1688 C15.9556,76.5968 17.2176,78.6558 19.2696,80.7078 C21.3206,82.7618 23.3806,84.0258 25.8076,84.9688 C28.1556,85.8818 30.8396,86.5038 34.7686,86.6838 C38.7056,86.8628 39.9636,86.9068 49.9886,86.9068 C60.0156,86.9068 61.2696,86.8628 65.2066,86.6838 C69.1376,86.5038 71.8236,85.8818 74.1716,84.9688 C76.5986,84.0258 78.6556,82.7618 80.7066,80.7078 C82.7596,78.6558 84.0216,76.5968 84.9676,74.1688 C85.8746,71.8208 86.4976,69.1378 86.6826,65.2088 Z M99.9016,21.6668 C99.9686,22.5278 99.9996,36.2358 99.9996,49.9538 C99.9996,63.6688 99.9716,77.4018 99.9046,78.2638 C99.5926,82.2148 98.9046,84.9378 97.5466,87.7358 C94.8466,93.3048 89.8866,97.3648 83.8956,98.9108 C81.7226,99.4728 79.7576,99.7358 76.3736,99.8958 C75.1656,99.9568 62.5376,99.9728 49.9096,99.9728 C37.2816,99.9728 24.6606,99.9348 23.4216,99.8808 C20.4996,99.7418 18.2236,99.4498 16.1616,98.9188 C10.2086,97.3808 5.1566,93.2588 2.5106,87.7678 C1.1266,84.8978 0.4726,82.2758 0.1266,78.1068 C0.0266,76.9228 0.0036,70.8238 0.0036,49.9668 C0.0036,42.9388 -0.0044,37.6998 0.0036,33.7198 C0.0236,21.7768 0.1216,21.3008 0.4606,18.9628 C1.1566,14.1458 3.0786,10.0948 6.2516,6.8018 C7.9936,4.9958 9.7586,3.7078 11.9966,2.5968 C14.9006,1.1498 17.5666,0.4768 21.8496,0.1198 C23.0366,0.0208 29.1416,-0.0002 50.0156,-0.0002 L66.2896,-0.0002 C78.2426,0.0208 78.7066,0.1208 81.0426,0.4578 C85.8636,1.1528 89.9096,3.0758 93.2166,6.2348 C95.0706,8.0198 96.3466,9.7638 97.4966,12.0998 C98.8976,14.9528 99.5856,17.6518 99.9016,21.6668 Z" id="Shape" fill="#000000"></path>
    </g>
</svg>