<svg width="100" height="100" viewBox="0 0 100 100" fill="none" xmlns="http://www.w3.org/2000/svg">
<path fill-rule="evenodd" clip-rule="evenodd" d="M76.6406 92.159C67.9136 92.159 62.2756 87.998 59.5246 82.56H59.5236L67.1756 78.13C69.1896 81.42 71.8076 83.836 76.4396 83.836C80.3326 83.836 82.8166 81.889 82.8166 79.204C82.8166 75.982 80.2656 74.841 75.9686 72.962L73.6196 71.954C66.8396 69.068 62.3426 65.443 62.3426 57.791C62.3426 50.743 67.7126 45.372 76.1036 45.372C82.0776 45.372 86.3736 47.454 89.4616 52.89L82.1446 57.59C80.5336 54.703 78.7886 53.562 76.1036 53.562C73.3516 53.562 71.6066 55.307 71.6066 57.59C71.6066 60.409 73.3516 61.55 77.3786 63.296L79.7286 64.303C87.7156 67.726 92.2136 71.216 92.2136 79.069C92.2136 87.528 85.5686 92.159 76.6406 92.159ZM54.4186 77.995C54.4186 87.728 48.7136 92.159 40.3906 92.159C32.8726 92.159 28.5086 88.265 26.2936 83.567V83.566C26.2936 83.567 26.2936 83.567 26.2936 83.567L33.9466 78.936C35.4226 81.554 36.7656 83.768 39.9876 83.768C43.0756 83.768 45.0216 82.56 45.0216 77.862V45.91H54.4186V77.995ZM-0.000366211 100H99.9996V0H-0.000366211V100Z" fill="black"/>
</svg>
