<?xml version="1.0" encoding="UTF-8"?>
<svg width="100px" height="100px" viewBox="0 0 100 100" version="1.1" xmlns="http://www.w3.org/2000/svg" xmlns:xlink="http://www.w3.org/1999/xlink">
    <!-- Generator: Sketch 57.1 (83088) - https://sketch.com -->
    <title>brand/java-brand</title>
    <desc>Created with Sketch.</desc>
    <g id="brand/java" stroke="none" stroke-width="1" fill="none" fill-rule="evenodd">
        <path d="M36.7526,77.3358 C36.7526,77.3358 32.9316,79.5578 39.4726,80.3098 C47.3966,81.2138 51.4466,81.0838 60.1786,79.4318 C60.1786,79.4318 62.4746,80.8708 65.6816,82.1178 C46.1056,90.5078 21.3766,81.6318 36.7526,77.3358 Z M34.3605,66.3875 C34.3605,66.3875 30.0745,69.5595 36.6205,70.2375 C45.0855,71.1105 51.7705,71.1815 63.3385,68.9535 C63.3385,68.9535 64.9375,70.5755 67.4535,71.4625 C43.7845,78.3845 17.4225,72.0085 34.3605,66.3875 Z M54.5265,47.8153 C38.1755,28.9743 72.4105,20.4243 72.4105,20.4243 C50.6005,33.0733 54.6295,36.7423 59.8815,44.1263 C65.5065,52.0433 53.2585,58.3663 53.2585,58.3663 C53.2585,58.3663 59.3505,53.3683 54.5265,47.8153 Z M80.4181,85.4334 C90.7711,90.1034 57.9261,99.4914 18.0121,93.0184 C3.3761,90.6454 25.0571,82.3624 29.0241,85.1574 C29.0241,85.1574 27.7701,85.0684 25.5751,85.5444 C23.4701,85.9954 16.7791,88.1504 20.3471,89.7034 C30.2731,94.0234 66.0041,92.9894 77.3031,89.5664 C83.2451,87.7634 80.4181,85.4334 80.4181,85.4334 Z M38.5905,55.0438 C38.5905,55.0438 20.4155,59.3598 32.1545,60.9278 C37.1105,61.5918 46.9915,61.4408 56.1945,60.6698 C63.7155,60.0358 71.2685,58.6868 71.2685,58.6868 C71.2685,58.6868 68.6165,59.8218 66.6975,61.1328 C48.2415,65.9858 12.5875,63.7288 22.8515,58.7638 C31.5325,54.5668 38.5905,55.0438 38.5905,55.0438 Z M71.1935,73.2674 C89.9555,63.5184 81.2805,54.1494 75.2255,55.4124 C73.7425,55.7204 73.0805,55.9884 73.0805,55.9884 C73.0805,55.9884 73.6315,55.1244 74.6835,54.7514 C86.6615,50.5394 95.8745,67.1714 70.8165,73.7584 C70.8165,73.7584 71.1065,73.4994 71.1935,73.2674 Z M59.882,-0.0002 C59.882,-0.0002 70.273,10.3948 50.028,26.3768 C33.793,39.1978 46.325,46.5088 50.021,54.8598 C40.544,46.3108 33.59,38.7838 38.256,31.7778 C45.103,21.4958 64.074,16.5108 59.882,-0.0002 Z M40.4338,99.6854 C28.5978,98.9264 26.2968,97.0214 26.2958,97.0214 C37.5398,98.8754 56.4978,99.2124 71.8698,96.3204 C85.4938,93.7544 86.7518,90.5254 86.7518,90.5254 C86.0968,99.0454 58.4428,100.8384 40.4338,99.6854 Z" id="Shape" fill="#000000"></path>
    </g>
</svg>