<?xml version="1.0" encoding="UTF-8"?>
<svg width="100px" height="100px" viewBox="0 0 100 100" version="1.1" xmlns="http://www.w3.org/2000/svg" xmlns:xlink="http://www.w3.org/1999/xlink">
    <!-- Generator: Sketch 57.1 (83088) - https://sketch.com -->
    <title>bold/keyboard-bold</title>
    <desc>Created with Sketch.</desc>
    <g id="bold/keyboard" stroke="none" stroke-width="1" fill="none" fill-rule="evenodd">
        <path d="M9.08999996,18 L90.91,18 C95.838377,18.0054128 99.8489531,21.9280788 99.9958375,26.8221073 L100,27.09 L100,72.55 C99.9945872,77.4783769 96.0719212,81.4889531 91.1778927,81.6358376 L90.91,81.64 L9.08999996,81.64 C4.16162304,81.6345872 0.151046921,77.7119212 0.00416236814,72.8178927 L-4.99995991e-08,72.55 L-4.99995991e-08,27.09 C0.00541277963,22.1616231 3.92807882,18.1510469 8.82210732,18.0041624 L9.08999996,18 L90.91,18 L9.08999996,18 Z M90.91,27.09 L9.08999996,27.09 L9.08999996,72.55 L90.91,72.55 L90.91,27.09 Z M14.55,29.36 L21.82,29.36 C23.5172652,29.3653206 24.9015317,30.6954131 24.9949724,32.3693757 L25,32.55 L25,39.82 C24.9945101,41.5739865 23.5739865,42.9945102 21.82,43 C23.5135042,43.0053005 24.8961465,44.3297289 24.9944287,45.999787 L25,46.18 L25,53.45 C25.0000083,55.1472736 23.6742685,56.5357093 22.0006076,56.6344053 L21.82,56.64 L30.45,56.64 C28.7527347,56.6346794 27.3684683,55.3045869 27.2750276,53.6306243 L27.27,53.45 L27.27,46.18 C27.2754898,44.4260135 28.6960135,43.0054898 30.45,43 C28.7564958,42.9946995 27.3738535,41.6702711 27.2755712,40.000213 L27.27,39.82 L27.27,32.55 C27.2699916,30.8527264 28.5957314,29.4642907 30.2693924,29.3655946 L30.45,29.36 L37.73,29.36 C39.4272652,29.3653206 40.8115317,30.6954131 40.9049724,32.3693757 L40.91,32.55 L40.91,39.82 C40.9045102,41.5739865 39.4839865,42.9945102 37.73,43 C39.4235042,43.0053005 40.8061465,44.3297289 40.9044287,45.999787 L40.91,46.18 L40.91,53.45 C40.9100083,55.1472736 39.5842685,56.5357093 37.9106076,56.6344053 L37.73,56.64 L46.36,56.64 C44.6627348,56.6346794 43.2784683,55.3045869 43.1850276,53.6306243 L43.18,53.45 L43.18,46.18 C43.1854898,44.4260135 44.6060135,43.0054898 46.36,43 C44.6664958,42.9946995 43.2838535,41.6702711 43.1855712,40.000213 L43.18,39.82 L43.18,32.55 C43.1799917,30.8527264 44.5057314,29.4642907 46.1793924,29.3655946 L46.36,29.36 L53.64,29.36 C55.3372652,29.3653206 56.7215317,30.6954131 56.8149724,32.3693757 L56.82,32.55 L56.82,39.82 C56.8145102,41.5739865 55.3939865,42.9945102 53.64,43 C55.3335042,43.0053005 56.7161465,44.3297289 56.8144288,45.999787 L56.82,46.18 L56.82,53.45 C56.8200083,55.1472736 55.4942686,56.5357093 53.8206076,56.6344053 L53.64,56.64 L62.27,56.64 C60.5727348,56.6346794 59.1884683,55.3045869 59.0950276,53.6306243 L59.09,53.45 L59.09,46.18 C59.0954898,44.4260135 60.5160135,43.0054898 62.27,43 C60.5764958,42.9946995 59.1938535,41.6702711 59.0955713,40.000213 L59.09,39.82 L59.09,32.55 C59.0899917,30.8527264 60.4157315,29.4642907 62.0893924,29.3655946 L62.27,29.36 L69.55,29.36 C71.2472653,29.3653206 72.6315237,30.6954131 72.7249716,32.3693757 L72.73,32.55 L72.73,39.82 C72.7245102,41.5739865 71.3039865,42.9945102 69.55,43 C71.2435042,43.0053005 72.6261465,44.3297289 72.7244288,45.999787 L72.73,46.18 L72.73,53.45 C72.73,55.2078905 71.3078819,56.6344894 69.55,56.64 C70.3933885,56.64 71.2022339,56.9750348 71.7985996,57.5714004 C72.3452681,58.118069 72.6723461,58.8432796 72.7230628,59.6099755 L72.73,59.82 L72.73,67.09 C72.73,67.9333885 72.3949653,68.7422339 71.7985996,69.3385996 C71.251931,69.8852681 70.5267205,70.2123593 69.7600245,70.2630782 L69.55,70.2700313 L14.55,70.2700313 C13.7048802,70.2726576 12.8934634,69.9387965 12.2949331,69.3421425 C11.7462804,68.7952097 11.4178874,68.0687006 11.3669654,67.3004533 L11.36,67.09 L11.36,59.82 C11.36,58.9748761 11.6964029,58.1645115 12.2949331,57.5678575 C12.8934634,56.9712035 13.7048802,56.6373424 14.55,56.64 C12.8489629,56.64 11.458894,55.3085875 11.3650498,53.6310192 L11.36,53.45 L11.36,46.18 C11.3655106,44.4221181 12.7921095,42.9999914 14.55,43 C12.8527264,43.0000083 11.4642906,41.6742685 11.3655946,40.0006076 L11.36,39.82 L11.36,32.55 C11.36,30.848963 12.6914125,29.458894 14.3689808,29.3650498 L14.55,29.36 L21.82,29.36 L14.55,29.36 Z M85.45,29.36 C87.2117884,29.36 88.64,30.7882116 88.64,32.55 L88.64,53.45 C88.64,55.2117884 87.2117884,56.64 85.45,56.64 C86.2951198,56.6373424 87.1065366,56.9712035 87.7050669,57.5678575 C88.3035971,58.1645115 88.64,58.9748761 88.64,59.82 L88.64,67.09 C88.64,67.9351239 88.3035971,68.7454885 87.7050669,69.3421425 C87.1065366,69.9387965 86.2951198,70.2726576 85.45,70.2700313 L78.18,70.2700313 C76.4237345,70.2700313 75,68.8462655 75,67.09 L75,59.82 C75,58.0637345 76.4237345,56.64 78.18,56.64 C76.4221182,56.6344894 75,55.2078905 75,53.45 L75,32.55 C75,30.7921095 76.4221182,29.3655106 78.18,29.36 L85.45,29.36 Z M68.18,61.18 L15.91,61.18 L15.91,65.73 L68.18,65.73 L68.18,61.18 Z M84.09,61.18 L79.55,61.18 L79.55,65.73 L84.09,65.73 L84.09,61.18 Z M68.18,47.55 L63.64,47.55 L63.64,52.09 L68.18,52.09 L68.18,47.55 Z M52.27,47.55 L47.73,47.55 L47.73,52.09 L52.27,52.09 L52.27,47.55 Z M36.36,47.55 L31.82,47.55 L31.82,52.09 L36.36,52.09 L36.36,47.55 Z M20.45,47.55 L15.91,47.55 L15.91,52.09 L20.45,52.09 L20.45,47.55 Z M84.09,33.91 L79.55,33.91 L79.55,52.09 L84.09,52.09 L84.09,33.91 Z M68.18,33.91 L63.64,33.91 L63.64,38.45 L68.18,38.45 L68.18,33.91 Z M52.27,33.91 L47.73,33.91 L47.73,38.45 L52.27,38.45 L52.27,33.91 Z M36.36,33.91 L31.82,33.91 L31.82,38.45 L36.36,38.45 L36.36,33.91 Z M20.45,33.91 L15.91,33.91 L15.91,38.45 L20.45,38.45 L20.45,33.91 Z" id="Shape" fill="#000000"></path>
    </g>
</svg>