<?xml version="1.0" encoding="UTF-8"?>
<svg width="100px" height="100px" viewBox="0 0 100 100" version="1.1" xmlns="http://www.w3.org/2000/svg" xmlns:xlink="http://www.w3.org/1999/xlink">
    <!-- Generator: Sketch 57.1 (83088) - https://sketch.com -->
    <title>brand/less-brand</title>
    <desc>Created with Sketch.</desc>
    <g id="brand/less" stroke="none" stroke-width="1" fill="none" fill-rule="evenodd">
        <path d="M99.8174,48.5151 L100.0004,48.5771 L100.0004,51.7911 L99.8034,51.8461 C98.6214,52.1731 97.7814,52.6091 96.9954,53.3021 L96.9944,53.3031 C95.8064,54.3411 95.2054,55.7851 95.2054,57.5951 L95.2054,64.8821 C95.2054,67.4651 94.3764,69.3441 92.6714,70.6281 C90.9864,71.8971 88.9584,72.5721 86.6414,72.6341 L85.0414,72.6221 L85.0414,68.5241 L85.2334,68.4671 C86.3484,68.1421 86.7994,67.7671 87.2354,67.3451 C88.1444,66.5231 88.6414,65.2731 88.6414,63.8181 L88.6414,57.9341 C88.6744,55.8081 88.8464,54.2581 89.5974,53.0911 C90.2964,52.0061 91.5564,51.0721 93.4384,50.2441 C91.3464,49.1851 89.9034,47.8221 89.1444,46.1861 C88.6404,45.0891 88.6404,43.6271 88.6404,41.9351 L88.6404,36.5391 C88.6404,34.5031 87.8754,33.4401 87.4194,32.9871 C86.9634,32.5341 86.4424,32.2011 85.2504,31.9421 L85.0394,31.8961 L85.0394,28.0001 L85.3094,28.0021 C86.3474,28.0141 87.0484,28.0091 87.6674,28.0061 C87.9894,28.0041 88.2904,28.0021 88.6044,28.0021 C90.1004,27.9911 91.3664,28.8181 92.4044,29.6291 C93.5694,30.5451 94.4054,31.7961 94.8864,33.3451 C95.1654,34.2531 95.2034,35.1181 95.2034,35.9161 L95.2034,42.1571 C95.2034,44.1861 95.7854,45.8181 96.8854,46.8751 C97.5674,47.5501 98.4984,48.0701 99.8174,48.5151 Z M11.3052,46.1879 C10.5452,47.8249 9.1022,49.1869 7.0112,50.2459 C8.8722,51.0669 10.1632,52.0229 10.8522,53.0919 C11.5762,54.2159 11.9452,55.7999 11.9792,57.9319 L11.9792,63.8209 C11.9792,65.4169 12.3932,66.6019 13.2092,67.3409 C13.7202,67.8309 14.3892,68.1769 15.3882,68.4689 L15.5802,68.5259 L15.5802,72.6259 L13.8182,72.6379 C11.4952,72.5749 9.4672,71.8989 7.7802,70.6299 C6.1442,69.3989 5.4152,67.6269 5.4152,64.8859 L5.4152,57.5979 C5.4152,55.4639 4.3502,54.0849 3.4562,53.3049 C2.8592,52.7749 1.7322,52.2719 0.1972,51.8479 L0.000199999999,51.7939 L0.000199999999,48.5789 L0.1822,48.5169 C1.9462,47.9229 3.0522,47.3879 3.5632,46.8809 C4.4102,46.0659 5.4162,44.5869 5.4162,42.1599 L5.4162,35.9189 C5.4162,35.8029 5.4152,35.6869 5.4142,35.5699 C5.4092,34.8849 5.4052,34.1769 5.5562,33.3779 C5.8342,31.9559 6.6482,30.7309 8.0462,29.6329 C9.0752,28.8279 10.3262,28.0059 11.8142,28.0059 L11.8492,28.0059 C12.1382,28.0049 12.4952,28.0069 12.8902,28.0089 L12.8932,28.0039 L16.6702,28.0039 L16.6702,32.1149 L14.9172,32.1019 C14.0072,32.3499 13.3722,32.6479 13.0312,32.9879 C12.3432,33.6719 11.9792,34.9019 11.9792,36.5419 L11.9792,41.9369 C11.9792,43.8369 11.7652,45.1889 11.3052,46.1879 Z M40.6758,46.8227 C41.1358,47.4907 41.3658,48.8367 41.3658,49.8647 L41.3658,50.3257 L35.8478,50.3257 C35.9308,48.9067 36.1908,47.3867 36.6218,46.7617 C37.0538,46.1357 37.7148,45.8227 38.6068,45.8227 C39.5268,45.8227 40.2168,46.1557 40.6758,46.8227 Z M82.9424,61.4243 C84.4874,60.1993 85.2614,58.5443 85.2614,56.4583 C85.2614,53.2893 83.3944,51.0503 79.6584,49.7423 L77.0434,48.8213 C75.9754,48.4323 75.4424,47.9043 75.4424,47.2363 C75.4424,46.8473 75.5874,46.5283 75.8814,46.2773 C76.1794,46.0263 76.6044,45.9013 77.1684,45.9013 C78.7414,45.9013 80.7054,46.4293 83.0654,47.4863 C83.6014,47.0973 84.0494,46.4373 84.4154,45.5043 C84.7784,44.5723 84.9344,43.7173 84.8794,42.9383 C83.9234,42.4663 82.7014,41.6083 81.2134,41.2603 C79.7244,40.9123 78.3644,40.7383 77.1284,40.7383 C74.6294,40.7383 72.6414,41.8043 71.1674,43.0423 C69.6934,44.2813 68.9564,45.9563 68.9564,48.0703 C68.9564,50.9653 70.7114,53.0503 74.2204,54.3283 L76.5404,55.2053 C77.8324,55.6223 78.4794,56.2473 78.4794,57.0843 C78.4794,57.5283 78.2694,57.8833 77.8464,58.1473 C77.4244,58.4113 76.8184,58.5433 76.0354,58.5433 C74.3774,58.5433 72.4224,57.9593 70.1784,56.7923 C69.7034,57.2923 69.2874,57.9773 68.9364,58.8383 C68.5864,59.6983 68.3944,60.4923 68.3684,61.2153 C70.8104,62.5793 73.4624,63.4093 76.3294,63.4093 C79.1964,63.4093 81.3984,62.6503 82.9424,61.4243 Z M64.2824,61.4243 C65.8254,60.1993 66.5994,58.5443 66.5994,56.4583 C66.5994,53.2893 64.7324,51.0503 60.9964,49.7423 L58.3814,48.8213 C57.3144,48.4323 56.7804,47.9043 56.7804,47.2363 C56.7804,46.8473 56.9264,46.5283 57.2204,46.2773 C57.5164,46.0263 57.9434,45.9013 58.5054,45.9013 C60.0804,45.9013 62.0444,46.4293 64.4054,47.4863 C64.9394,47.0973 65.3884,46.4373 65.7544,45.5043 C66.1174,44.5723 66.2734,43.7173 66.2164,42.9383 C65.2614,42.4663 64.0414,41.6083 62.5514,41.2603 C61.0664,40.9123 59.7024,40.7383 58.4664,40.7383 C55.9674,40.7383 53.9814,41.8043 52.5074,43.0423 C51.0324,44.2813 50.2944,45.9563 50.2944,48.0703 C50.2944,50.9653 52.0504,53.0503 55.5604,54.3283 L57.8794,55.2053 C59.1714,55.6223 59.8184,56.2473 59.8184,57.0843 C59.8184,57.5283 59.6064,57.8833 59.1854,58.1473 C58.7644,58.4113 58.1584,58.5433 57.3744,58.5433 C55.7164,58.5433 53.7644,57.9593 51.5174,56.7923 C51.0404,57.2923 50.6264,57.9773 50.2754,58.8383 C49.9234,59.6983 49.7334,60.4923 49.7064,61.2153 C52.1474,62.5793 54.8024,63.4093 57.6674,63.4093 C60.5334,63.4093 62.7364,62.6503 64.2824,61.4243 Z M46.8424,54.4853 C47.2044,53.3153 47.3874,51.7343 47.3874,50.0373 C47.3874,48.7583 47.1834,47.5753 46.7764,46.4893 C46.3704,45.4043 45.7874,44.4743 45.0294,43.6953 C44.2704,42.9153 43.3514,42.3043 42.2704,41.8593 C41.1884,41.4143 39.9734,40.7433 38.6264,40.7433 C37.0254,40.7433 35.6284,41.4693 34.4344,42.0263 C33.2414,42.5813 32.2584,43.3463 31.4864,44.3203 C30.7134,45.2943 30.1374,46.4413 29.7584,47.7633 C29.3794,49.0833 29.1904,50.5243 29.1904,52.0803 C29.1904,53.6933 29.3434,55.1833 29.6534,56.5463 C29.9624,57.9063 30.4884,59.0883 31.2334,60.0913 C31.9774,61.0923 32.9464,61.8703 34.1404,62.4263 C35.3344,62.9823 36.8154,63.4083 38.5844,63.4083 C41.8414,63.4083 44.5934,62.4653 46.8404,60.8813 C46.6184,59.2703 46.0444,57.9873 45.1214,57.0423 C43.9744,57.4733 42.9594,57.7813 42.0784,57.9713 C41.1974,58.1583 40.4204,58.2523 39.7494,58.2523 C38.4064,58.2523 37.4404,57.9113 36.8544,57.2213 C36.2684,56.5333 35.9464,55.7203 35.8894,54.4853 L46.8424,54.4853 Z M88.2374,46.6073 C88.8754,47.9803 89.9244,49.1763 91.3694,50.1783 C90.1884,50.8823 89.3274,51.6653 88.7564,52.5503 C87.8774,53.9173 87.6774,55.6173 87.6414,57.9343 L87.6414,63.8183 C87.6414,64.9863 87.2584,65.9753 86.5404,66.6263 C86.2364,66.9203 85.9224,67.2253 84.9514,67.5083 L84.0414,67.7763 L84.0414,72.3703 L16.5804,72.3703 L16.5804,67.7773 L15.6684,67.5093 C14.8344,67.2653 14.2884,66.9903 13.8804,66.6003 C13.2824,66.0583 12.9794,65.1233 12.9794,63.8203 L12.9794,57.9163 C12.9414,55.5913 12.5214,53.8363 11.6924,52.5503 C11.1334,51.6833 10.2564,50.8903 9.0764,50.1833 C10.5234,49.1813 11.5744,47.9843 12.2124,46.6093 L12.2134,46.6063 C12.7364,45.4713 12.9794,43.9873 12.9794,41.9373 L12.9794,36.5413 C12.9794,35.1933 13.2484,34.1823 13.7364,33.6963 C13.8094,33.6233 14.1154,33.3723 15.0514,33.1033 L17.5964,33.1203 L17.5964,57.0423 C17.5964,59.0463 18.0464,60.5123 18.8474,61.4453 C19.6494,62.3773 21.0034,62.8423 22.9134,62.8423 C24.2334,62.8423 25.7354,62.7033 27.4204,62.4243 C27.5044,62.1433 27.5464,61.5403 27.5464,60.6163 C27.5464,59.6903 27.3784,58.7663 27.0414,57.8373 L25.9034,57.8373 C24.6674,57.8373 24.2014,57.1873 24.2014,55.8813 L24.2014,31.8713 C24.2014,30.4283 23.7844,29.4143 23.2504,28.8303 C22.8734,28.4183 22.2894,28.3063 21.5194,28.2733 L84.0394,28.2733 L84.0394,32.7013 L85.0384,32.9193 C86.0974,33.1493 86.4234,33.4063 86.7134,33.6953 C87.0604,34.0393 87.6404,34.8663 87.6404,36.5393 L87.6404,41.9353 C87.6404,43.7443 87.6404,45.3083 88.2374,46.6073 Z" id="Shape" fill="#000000"></path>
    </g>
</svg>