<svg width="100" height="100" viewBox="0 0 100 100" fill="none" xmlns="http://www.w3.org/2000/svg">
<path d="M24.6266 34.7048C24.6266 36.329 25.9433 37.6457 27.5675 37.6457C28.3588 37.6491 29.1178 37.3322 29.6717 36.7672C30.2257 36.2022 30.5274 35.4371 30.5084 34.646C30.5278 23.8648 39.2663 15.1315 50.0476 15.1186C51.6717 15.1186 52.9884 13.8019 52.9884 12.1777C52.9884 10.5535 51.6717 9.23685 50.0476 9.23685C43.2993 9.24308 36.8298 11.9298 32.0625 16.706C27.2951 21.4822 24.6204 27.9565 24.6266 34.7048Z" fill="black"/>
<path fill-rule="evenodd" clip-rule="evenodd" d="M16.0321 26.295C19.9178 10.699 34.0109 -0.183226 50.0827 0.00233714C65.9724 0.224762 79.6748 11.2259 83.3258 26.6921C86.9769 42.1584 79.6409 58.1259 65.5281 65.431C65.5219 65.4501 65.5219 65.4707 65.5281 65.4898V86.3465C65.5187 89.933 62.6887 92.8771 59.1053 93.0281C57.8242 97.1732 53.9918 100 49.6533 100C45.3147 100 41.4824 97.1732 40.2013 93.0281C36.6106 92.8892 33.7703 89.9398 33.7667 86.3465V65.4898C19.4865 58.1133 12.1464 41.8911 16.0321 26.295ZM39.6484 77.6415H59.6464V73.9477H39.6484V77.6415ZM40.4013 87.1582H58.7877C59.011 87.1711 59.2297 87.0914 59.3923 86.9377C59.5548 86.7841 59.6468 86.5702 59.6464 86.3465V83.5232H39.6484V86.3465C39.6473 86.7728 39.9761 87.1273 40.4013 87.1582ZM59.6464 65.4898C59.6195 63.2762 60.8379 61.235 62.799 60.208C74.5127 54.1451 80.6042 40.8943 77.5795 28.0561C74.5548 15.2179 63.1886 6.08009 50.0003 5.88409H49.5886C36.3355 5.92121 24.822 15.0061 21.7035 27.8871C18.5851 40.7682 24.6684 54.1132 36.437 60.208C38.4209 61.2188 39.664 63.2632 39.6484 65.4898V68.066H59.6464V65.4898Z" fill="black"/>
</svg>
