<?xml version="1.0" encoding="UTF-8"?>
<svg width="100px" height="100px" viewBox="0 0 100 100" version="1.1" xmlns="http://www.w3.org/2000/svg" xmlns:xlink="http://www.w3.org/1999/xlink">
    <!-- Generator: Sketch 57.1 (83088) - https://sketch.com -->
    <title>bold/lightbulb-on-bold</title>
    <desc>Created with Sketch.</desc>
    <g id="bold/lightbulb-on" stroke="none" stroke-width="1" fill="none" fill-rule="evenodd">
        <path d="M50.08,15.8 C66.3017599,16.1128437 79.3353603,29.2660527 79.5,45.49 C79.5821296,56.0845301 74.0249281,65.9104926 64.9333839,71.3048983 L64.53,71.54 L64.53,86.91 C64.5220878,90.3876877 62.1396658,93.4101018 58.76,94.23 C57.0925847,97.7507794 53.5456592,99.9955708 49.65,99.9955708 C45.7543408,99.9955708 42.2074153,97.7507794 40.54,94.23 C37.2448258,93.4305992 34.8976566,90.5374318 34.7750241,87.1699457 L34.77,86.91 L34.77,71.54 C23.0522852,64.7962194 17.3277172,51.0207715 20.8147501,37.9584586 C24.2658343,25.0308087 35.8872602,15.9943849 49.2324102,15.803093 L49.65,15.8 L50.08,15.8 Z M26.147484,65.9184752 C27.7294231,66.3351038 28.9648962,67.5705769 29.3815248,69.1525159 C29.7783139,70.6591245 29.3739444,72.2580821 28.3225436,73.3932697 L28.16,73.56 L23.54,78.19 C22.3931774,79.3386089 20.7206942,79.7881447 19.1525584,79.3692717 C17.5844227,78.9503987 16.3588716,77.7267536 15.9375584,76.1592717 C15.5363078,74.6664318 15.9225813,73.0777198 16.9509475,71.9375875 L17.11,71.77 L21.74,67.14 C22.8817913,65.9684954 24.565545,65.5018467 26.147484,65.9184752 Z M77.3932697,66.9774564 L77.56,67.14 L82.19,71.77 C83.9241898,73.5493193 83.9059332,76.3921343 82.1490338,78.1490338 C80.4470374,79.8510301 77.7259348,79.9213509 75.9398613,78.3474466 L75.77,78.19 L71.14,73.56 C69.9684954,72.4182087 69.5018467,70.734455 69.9184752,69.1525159 C70.3351038,67.5705769 71.5705769,66.3351038 73.152516,65.9184752 C74.6591245,65.5216861 76.2580821,65.9260556 77.3932697,66.9774564 Z M35.0876914,30.83923 C31.1171977,34.7438936 28.8837436,40.0812318 28.8899333,45.65 C28.8760757,53.4196477 33.2121363,60.5434515 40.12,64.1 C42.2929847,65.2234047 43.7027828,67.4093829 43.8401718,69.83881 L43.85,70.1 L55.45,70.1 C55.4974908,67.5668796 56.9294087,65.2635263 59.18,64.1 C67.6230843,59.7273341 72.0188406,50.1798067 69.851355,40.9219513 C67.6838693,31.6640959 59.5066773,25.0601969 50,24.89 C44.4321146,24.79065 39.0581851,26.9345664 35.0876914,30.83923 Z M55.92763,28.1186982 C56.7884549,29.5572916 56.7884549,31.3527083 55.92763,32.7913018 C55.0668052,34.2298953 53.4846334,35.0785728 51.81,35 C44.4350343,35.0109254 38.4529895,40.9751 38.42,48.35 C38.3061118,50.7773147 36.304985,52.6867513 33.875,52.6867513 C31.4450149,52.6867513 29.4438881,50.7773147 29.33,48.35 C29.3685278,35.9571145 39.4170655,25.9264567 51.81,25.91 C53.4846334,25.8314272 55.0668052,26.6801047 55.92763,28.1186982 Z M90.76,41.1 C93.2728957,41.1 95.31,43.1371044 95.31,45.65 C95.31,48.0910986 93.3876387,50.0832056 90.9741895,50.1950476 L90.76,50.2 L84.21,50.2 C81.6971044,50.2 79.66,48.1628956 79.66,45.65 C79.66,43.2089014 81.5823614,41.2167944 83.9958106,41.1049524 L84.21,41.1 L90.76,41.1 Z M15.09,41.1 C16.296735,41.1 17.4540453,41.5793736 18.3073358,42.4326641 C19.1606263,43.2859547 19.64,44.443265 19.64,45.65 C19.64,46.856735 19.1606263,48.0140453 18.3073358,48.8673359 C17.5109313,49.6637403 16.4496918,50.1344217 15.3306125,50.1936396 L15.09,50.2 L8.54999996,50.2 C6.03710434,50.2 3.99999995,48.1628956 3.99999995,45.65 C3.99999995,43.2089014 5.92236132,41.2167944 8.33581052,41.1049524 L8.54999996,41.1 L15.09,41.1 Z M80.1592717,11.9375584 C81.7267536,12.3588716 82.9503987,13.5844227 83.3692717,15.1525584 C83.7681984,16.646021 83.3794527,18.2341299 82.3493131,19.3726603 L82.19,19.54 L77.56,24.16 C76.7112112,25.0152078 75.5549084,25.494299 74.35,25.490057 C72.5142484,25.4840967 70.8618705,24.3755997 70.160157,22.6792456 C69.4876816,21.0535729 69.8145009,19.1932348 70.9828547,17.8959521 L71.14,17.73 L75.77,13.11 C76.9186089,11.9631774 78.5917898,11.5162452 80.1592717,11.9375584 Z M23.3706305,12.9487333 L23.54,13.11 L28.16,17.74 C29.8941898,19.5193193 29.8759332,22.3621343 28.1190337,24.1190337 C26.4170374,25.82103 23.6959347,25.8913508 21.9098613,24.3174466 L21.74,24.16 L17.11,19.53 C15.3371659,17.7544045 15.3394045,14.877834 17.115,13.105 C18.8351081,11.387567 21.5884554,11.335998 23.3706305,12.9487333 Z M49.65,-4.99999695e-08 C52.1628956,-4.99999695e-08 54.2,2.03710434 54.2,4.54999995 L54.2,11.09 C54.2,12.296735 53.7206264,13.4540453 52.8673359,14.3073358 C52.0140453,15.1606263 50.856735,15.64 49.65,15.64 C47.1371044,15.64 45.1,13.6028956 45.1,11.09 L45.1,4.54999995 C45.1,2.03710434 47.1371044,-4.99999695e-08 49.65,-4.99999695e-08 Z" id="Shape" fill="#000000"></path>
    </g>
</svg>