<?xml version="1.0" encoding="UTF-8"?>
<svg width="100px" height="100px" viewBox="0 0 100 100" version="1.1" xmlns="http://www.w3.org/2000/svg" xmlns:xlink="http://www.w3.org/1999/xlink">
    <!-- Generator: Sketch 57.1 (83088) - https://sketch.com -->
    <title>solid/lightbulb-on-solid</title>
    <desc>Created with Sketch.</desc>
    <g id="solid/lightbulb-on" stroke="none" stroke-width="1" fill="none" fill-rule="evenodd">
        <path d="M62.4554456,85.6534654 L62.4554456,88.1188119 C62.445711,90.9996979 60.147254,93.3507913 57.2673267,93.4257426 C56.2434242,96.7472419 53.1737548,99.0131809 49.6980198,99.0131809 C46.2222848,99.0131809 43.1526154,96.7472419 42.1287129,93.4257426 C39.3226299,93.3527132 37.0685805,91.1187703 36.9458283,88.3393441 L36.940594,88.1188119 L36.940594,85.6534654 L62.4554456,85.6534654 Z M62.4554456,77.9306931 L62.4554456,81.0990099 L36.940594,81.0990099 L36.940594,77.9306931 L62.4554456,77.9306931 Z M77.9702971,68.059406 L82.6732674,72.7425743 C83.9788628,74.0479793 84.3694619,76.0113568 83.6629045,77.7170644 C82.9563471,79.4227719 81.2918007,80.5348439 79.4455446,80.5346992 L79.4356436,80.5346992 C78.2262591,80.5384948 77.0650046,80.0611694 76.2079208,79.2079208 L71.5148515,74.5148515 C69.7322296,72.7322294 69.7322296,69.8420281 71.5148516,68.0594061 C73.2974736,66.2767841 76.187675,66.276784 77.9702971,68.059406 Z M27.7680909,68.1723221 C29.502479,69.9093745 29.5524444,72.7070753 27.8811881,74.5049505 L23.1881188,79.2079208 C22.3353155,80.0615211 21.1768983,80.5391454 19.970297,80.5347159 C18.1240409,80.5347159 16.4594945,79.4227719 15.7529371,77.7170644 C15.0463797,76.0113568 15.4369788,74.0479793 16.7425742,72.7425743 L21.4356435,68.049505 C23.2360819,66.3810102 26.0337027,66.4352698 27.7680909,68.1723221 Z M49.6881188,18.3015269 C62.5748583,18.3015269 73.7900432,27.1151219 76.8366591,39.6365509 C79.8505158,52.0233409 74.0970724,64.8597971 62.8920613,70.8659824 L62.5247525,71.059406 L62.4879708,71.0942093 C62.4743905,71.1119842 62.4646814,71.1324972 62.4595711,71.1543973 L62.4554456,71.1881188 L62.4554456,73.3663367 L36.940594,73.3663367 L36.940594,71.1881188 C36.9416182,71.1470259 36.9244107,71.1083744 36.8948487,71.0817147 L36.8613861,71.059406 L36.8514851,71.059406 C25.4052759,65.1389036 19.4929625,52.1579799 22.5395785,39.6365509 C25.5861945,27.1151219 36.8013794,18.3015269 49.6881188,18.3015269 Z M91.3762377,41.6732673 C93.8970621,41.6732673 95.9405941,43.7167993 95.9405941,46.2376238 C95.9405941,48.7584482 93.8970621,50.8019802 91.3762377,50.8019802 L84.7425743,50.8019802 C82.2217498,50.8019802 80.1782179,48.7584482 80.1782179,46.2376238 C80.1782179,43.7167993 82.2217498,41.6732673 84.7425743,41.6732673 L91.3762377,41.6732673 Z M14.6633663,41.6732673 C17.1841908,41.6732673 19.2277227,43.7167993 19.2277227,46.2376238 C19.2277227,48.7584482 17.1841908,50.8019802 14.6633663,50.8019802 L8.02970293,50.8019802 C5.50887847,50.8019802 3.46534649,48.7584482 3.46534649,46.2376238 C3.46534649,43.7167993 5.50887847,41.6732673 8.02970293,41.6732673 L14.6633663,41.6732673 Z M50.0693069,25.7425742 C38.7618051,25.7589619 29.6039604,34.9301101 29.6039604,46.2376238 C29.6039604,47.4953019 30.62351,48.5148515 31.8811881,48.5148515 C33.1388662,48.5148515 34.1584158,47.4953019 34.1584158,46.2376238 C34.158409,37.4470723 41.2787622,30.3178574 50.0693069,30.3069307 C51.2714606,30.2277061 52.2060351,29.2295139 52.2060351,28.0247525 C52.2060351,26.819991 51.2714606,25.8217988 50.0693069,25.7425742 Z M23.1980198,13.2673267 L27.8811881,17.960396 C29.1885953,19.2619324 29.5817248,21.2236046 28.8768068,22.9284217 C28.1718888,24.6332387 26.5081718,25.7444336 24.6633663,25.7425789 C23.4525594,25.7437897 22.2911048,25.2628192 21.4356435,24.4059406 L16.7425742,19.7128713 C15.5185039,18.5750086 15.0141839,16.8591403 15.4279011,15.2399066 C15.8416184,13.620673 17.1072116,12.3570209 18.7270783,11.9457895 C20.3469451,11.5345581 22.0620373,12.0415113 23.1980198,13.2673267 Z M82.6732673,13.2673268 C84.4558893,15.0499488 84.4558894,17.9401502 82.6732674,19.7227722 L77.980198,24.4158416 C77.1231143,25.2690901 75.9618598,25.7464156 74.7524753,25.74262 C72.9105595,25.7387842 71.251427,24.6282751 70.5457639,22.9268911 C69.8401008,21.225507 70.2262152,19.2667149 71.5247525,17.960396 L76.2178218,13.2673267 C78.0004439,11.4847047 80.8906453,11.4847047 82.6732673,13.2673268 Z M49.7029703,-4.99999953e-08 C52.2237948,-4.99999953e-08 54.2673267,2.04353194 54.2673267,4.56435639 L54.2673267,11.1980198 C54.2673267,13.7188442 52.2237948,15.7623977 49.7029703,15.7623977 C48.4916215,15.7650124 47.3291272,15.2849729 46.4725722,14.4284179 C45.6160172,13.5718629 45.1359776,12.4093686 45.1385923,11.1980198 L45.1385923,4.56435639 C45.1385923,2.04353194 47.1821458,-4.99999953e-08 49.7029703,-4.99999953e-08 Z" id="Shape" fill="#000000"></path>
    </g>
</svg>