<?xml version="1.0" encoding="UTF-8"?>
<svg width="100px" height="100px" viewBox="0 0 100 100" version="1.1" xmlns="http://www.w3.org/2000/svg" xmlns:xlink="http://www.w3.org/1999/xlink">
    <!-- Generator: Sketch 57.1 (83088) - https://sketch.com -->
    <title>solid/lightbulb-exclamation-solid</title>
    <desc>Created with Sketch.</desc>
    <g id="solid/lightbulb-exclamation" stroke="none" stroke-width="1" fill="none" fill-rule="evenodd">
        <path d="M62.4851485,85.6633664 L62.4851485,88.049505 C62.4809112,90.9359635 60.1823735,93.2959125 57.2970297,93.3762377 C56.2890805,96.7222852 53.2074379,99.0124098 49.7128713,99.0124098 C46.2183047,99.0124098 43.1366621,96.7222852 42.1287129,93.3762377 C39.3173522,93.2979721 37.0630909,91.0554878 36.9454165,88.2704722 L36.940594,88.049505 L36.940594,85.6633664 L62.4851485,85.6633664 Z M62.4851485,77.9405941 L62.4851485,81.059406 L36.940594,81.059406 L36.940594,77.9405941 L62.4851485,77.9405941 Z M27.960396,68.009901 C29.703203,69.752708 29.7576657,72.5445176 28.1237842,74.3528873 L27.960396,74.5247525 L23.2673267,79.2079208 C22.1053292,80.3734556 20.4097939,80.8305359 18.8194124,80.4069839 C17.2290309,79.9834319 15.9854201,78.7435954 15.5570362,77.1545086 C15.1490514,75.6410927 15.5395325,74.0298717 16.5814234,72.8730211 L16.7425742,72.7029703 L21.4356435,68.019802 L21.4455445,68.009901 C23.2445711,66.2108744 26.1613695,66.2108744 27.960396,68.009901 Z M77.8281348,67.8564139 L78,68.019802 L82.6732674,72.7029703 C84.3400838,74.519856 84.2796416,77.3273621 82.5361751,79.0708286 C80.8489495,80.7580542 78.1652248,80.8690864 76.347168,79.3638351 L76.1683169,79.2079208 L71.4851485,74.5346535 C69.6861221,72.7356269 69.6861222,69.8188286 71.4851487,68.0198021 C73.2279556,66.2769952 76.0197651,66.2225324 77.8281348,67.8564139 Z M49.704302,18.3039561 L50.1089109,18.3069307 C62.9222089,18.4940289 73.966937,27.3705491 76.9061729,39.8435802 C79.8454087,52.3166113 73.9261409,65.190651 62.5445545,71.0792079 C62.5175118,71.0927919 62.4979767,71.1166082 62.4893892,71.1443501 L62.4851485,71.1881188 L62.4851485,73.3366337 L36.940594,73.3366337 L36.940594,71.1881188 C36.9443367,71.1405668 36.9214753,71.094844 36.8811881,71.069307 C25.3615845,65.1193064 19.4486436,52.0263267 22.601564,39.4500447 C25.6887985,27.1357687 36.6737714,18.4852214 49.300763,18.3067691 L49.704302,18.3039561 Z M48.0279593,62.8585251 C47.3714131,63.5265394 47.1839377,64.5252164 47.5535186,65.3858591 C47.9230995,66.2465019 48.7763685,66.7982579 49.7128713,66.7821782 C50.9737373,66.7658847 51.9857385,65.7362067 51.9802431,64.4752475 C51.98006,63.5386068 51.4136126,62.6950191 50.5466996,62.3403954 C49.6797867,61.9857717 48.6845055,62.1905109 48.0279593,62.8585251 Z M49.7178218,27.9431301 C48.5552232,27.9431301 47.5833805,28.805953 47.4314222,29.9423993 L47.4158416,30.0990099 L47.4158416,55.049505 C47.4954252,56.2623407 48.5023778,57.2053847 49.7178218,57.2053847 C50.8804204,57.2053847 51.8522631,56.3425618 52.0042214,55.2061156 L52.019802,55.049505 L52.019802,30.0990099 C51.9402183,28.8861742 50.9332658,27.9431301 49.7178218,27.9431301 Z M91.3564357,41.6435643 C93.8991328,41.6435643 95.9603961,43.7048276 95.9603961,46.2475247 C95.9603961,48.7195914 94.0120569,50.736599 91.5671788,50.8467476 L91.3564357,50.8514851 L84.7227723,50.8514851 C83.0779356,50.8514851 81.5580438,49.9739753 80.7356255,48.549505 C79.9132071,47.1250347 79.9132071,45.3700148 80.7356255,43.9455445 C81.5206612,42.5858228 82.9412047,41.7244681 84.4993046,41.6489724 L84.7227723,41.6435643 L91.3564357,41.6435643 Z M14.7029703,41.6435643 C17.2456674,41.6435643 19.3069307,43.7048276 19.3069307,46.2475247 C19.3069307,48.7195914 17.3585915,50.736599 14.9137134,50.8467476 L14.7029703,50.8514851 L8.06930689,50.8514851 C5.52660985,50.8514851 3.46534668,48.7902218 3.46534668,46.2475247 C3.46534668,43.7754582 5.41368571,41.7584505 7.85856376,41.6483019 L8.06930689,41.6435643 L14.7029703,41.6435643 Z M23.0952003,13.1135912 L23.2673267,13.2772277 L27.950495,17.970297 C29.7495215,19.7693236 29.7495215,22.6861219 27.950495,24.4851484 C26.207688,26.2279554 23.4158784,26.2824181 21.6075088,24.6485366 L21.4356435,24.4851485 L16.7425742,19.8019802 C14.9408136,18.0002195 14.9408136,15.0789884 16.7425743,13.2772277 C18.4880299,11.5317721 21.2840823,11.4772266 23.0952003,13.1135912 Z M76.1584159,13.2871287 C77.9574424,11.4881021 80.8742408,11.4881021 82.6732674,13.2871287 C84.4722939,15.0861552 84.4722939,18.0029536 82.6732674,19.8019802 L78.009901,24.4851485 C77.143868,25.3455732 75.9732697,25.8294679 74.7524753,25.8317246 C72.8873418,25.8372701 71.2031139,24.7170053 70.4872922,22.9946948 C69.7714704,21.2723842 70.1655021,19.2883591 71.4851485,17.970297 L76.1584159,13.2871287 Z M49.7128713,-5.00000006e-08 C52.1849379,-5.00000006e-08 54.2019456,1.94833909 54.3120941,4.39321722 L54.3168317,4.60396035 L54.3168317,11.2376237 C54.3168317,13.7803208 52.2555684,15.8415841 49.7128713,15.8415841 C48.4918251,15.8415841 47.3207897,15.3565254 46.4573797,14.4931153 C45.6515303,13.687266 45.1752669,12.6134408 45.1153467,11.4810898 L45.1089109,11.2376237 L45.1089109,4.60396035 C45.1089109,2.06126323 47.1701742,-5.00000006e-08 49.7128713,-5.00000006e-08 Z" id="Shape" fill="#000000"></path>
    </g>
</svg>