<?xml version="1.0" encoding="UTF-8"?>
<svg width="100px" height="100px" viewBox="0 0 100 100" version="1.1" xmlns="http://www.w3.org/2000/svg" xmlns:xlink="http://www.w3.org/1999/xlink">
    <!-- Generator: Sketch 57.1 (83088) - https://sketch.com -->
    <title>bold/lightning-bold</title>
    <desc>Created with Sketch.</desc>
    <g id="bold/lightning" stroke="none" stroke-width="1" fill="none" fill-rule="evenodd">
        <path d="M46.26,100 C45.6141094,100 44.9725195,99.8949258 44.36,99.69 C41.4707988,98.7780454 39.7419263,95.8259956 40.36,92.86 L46.86,60.09 L31.92,60.09 C29.5542825,60.0960698 27.3503825,58.8897362 26.0805451,56.8936979 C24.8107077,54.8976596 24.6519875,52.3902259 25.66,50.25 L47.58,3.44999995 C48.9290773,0.829159654 51.9820941,-0.42354773 54.7831988,0.494398674 C57.5843036,1.41234508 59.3037455,4.22902873 58.84,7.13999996 L52.34,39.9 L67.28,39.9 C69.6463424,39.8977253 71.8492856,41.1064918 73.1185364,43.1036357 C74.3877873,45.1007796 74.5468101,47.608525 73.54,49.75 L51.62,96.55 C50.6637396,98.6509631 48.56835,100 46.26,100 L46.26,100 Z M35.34,51 L49.51,51 C51.5798196,50.9990543 53.5410632,51.9260016 54.8542811,53.5258807 C56.167499,55.1257597 56.6943789,57.230066 56.29,59.26 L54.29,69.46 L63.86,49 L49.69,49 C47.6197677,49.007682 45.6558061,48.0840685 44.3413669,46.4846403 C43.0269277,44.8852121 42.5013449,42.7795127 42.91,40.75 L44.91,30.55 L35.34,51 Z" id="lightning" fill="#000000"></path>
    </g>
</svg>