<?xml version="1.0" encoding="UTF-8"?>
<svg width="100px" height="100px" viewBox="0 0 100 100" version="1.1" xmlns="http://www.w3.org/2000/svg" xmlns:xlink="http://www.w3.org/1999/xlink">
    <!-- Generator: Sketch 57.1 (83088) - https://sketch.com -->
    <title>solid/lightbulb-solid</title>
    <desc>Created with Sketch.</desc>
    <g id="solid/lightbulb" stroke="none" stroke-width="1" fill="none" fill-rule="evenodd">
        <path d="M65.8418404,82.4752476 L65.8418404,85.9207921 C65.852242,87.5590695 65.2054702,89.1331939 64.0460785,90.2907246 C62.8866869,91.4482553 61.3115255,92.0924976 59.6732673,92.079208 L59.4752475,92.079208 C58.4121807,96.1855534 54.707066,99.0536201 50.4653465,99.0536201 C46.223627,99.0536201 42.5185124,96.1855534 41.4554455,92.079208 L41.2574257,92.079208 C39.6294474,92.0766078 38.0696214,91.425354 36.9231202,90.2695619 C35.7766191,89.1137698 35.1379757,87.5487384 35.1482611,85.9207921 L35.1482611,82.4752476 L65.8418404,82.4752476 Z M65.7920792,72.9108911 L65.7920792,77.7623763 L35.1386138,77.7623763 L35.1386138,72.9108911 L65.7920792,72.9108911 Z M50.5049505,-3.61205576e-05 L50.990099,-3.61205576e-05 C66.6415846,0.224778895 80.1349457,11.0650563 83.7272951,26.3003624 C87.3196446,41.5356685 80.0904843,57.2621319 66.1881188,64.4554456 C66.0032735,64.5493746 65.878088,64.726484 65.8483396,64.9274856 L65.8415842,65.029703 L65.8415842,68.1980198 L35.1386138,68.1980198 L35.1386138,65.029703 C35.1371558,64.7839991 35.0000062,64.5592261 34.7821782,64.4455446 C20.7901235,57.2118297 13.5660425,41.3420515 17.2993904,26.039557 C20.9954048,10.8900874 34.4802231,0.19288085 50.0330283,0.0025103911 L50.5049505,-3.61205576e-05 L50.990099,-3.61205576e-05 L50.5049505,-3.61205576e-05 Z M50.9207921,9.24752471 C37.1838169,9.25844441 26.0505236,20.3917377 26.0396039,34.1287129 C26.0396039,35.4301363 27.0946161,36.4851485 28.3960396,36.4851485 C29.6974631,36.4851485 30.7524752,35.4301363 30.7524752,34.1287129 C30.768846,22.9984504 39.7905229,13.9812023 50.9207921,13.970297 C52.1656804,13.8896453 53.1341432,12.856409 53.1341432,11.6089109 C53.1341432,10.3614127 52.1656804,9.32817644 50.9207921,9.24752471 Z" id="Shape" fill="#000000"></path>
    </g>
</svg>