<svg width="100" height="100" viewBox="0 0 100 100" fill="none" xmlns="http://www.w3.org/2000/svg">
<path fill-rule="evenodd" clip-rule="evenodd" d="M33.7626 65.4525V68.0315H65.558V65.4525C79.7661 58.1178 87.112 42.0148 83.3381 26.477C79.5641 10.9391 65.6499 0 49.6603 0C33.6707 0 19.7565 10.9391 15.9825 26.477C12.2086 42.0148 19.5545 58.1178 33.7626 65.4525ZM24.6126 34.5875C24.6321 20.541 36.0142 9.15886 50.0607 9.1394C51.1125 9.1394 52.0844 9.70053 52.6103 10.6114C53.1362 11.5223 53.1362 12.6445 52.6103 13.5554C52.0844 14.4663 51.1125 15.0274 50.0607 15.0274C39.2633 15.0404 30.5136 23.7901 30.5006 34.5875C30.5006 36.2134 29.1826 37.5315 27.5566 37.5315C25.9307 37.5315 24.6126 36.2134 24.6126 34.5875Z" fill="black"/>
<path d="M65.5112 73.9192H33.7041V77.5934H65.5112V73.9192Z" fill="black"/>
<path d="M33.7634 86.3319V83.5056H65.5588V86.3319C65.5494 89.9223 62.7162 92.8695 59.129 93.0207C57.8466 97.1702 54.0102 100 49.667 100C45.3238 100 41.4874 97.1702 40.2049 93.0207C36.6131 92.8757 33.7731 89.9267 33.7634 86.3319Z" fill="black"/>
</svg>
