<?xml version="1.0" encoding="UTF-8"?>
<svg width="100px" height="100px" viewBox="0 0 100 100" version="1.1" xmlns="http://www.w3.org/2000/svg" xmlns:xlink="http://www.w3.org/1999/xlink">
    <!-- Generator: Sketch 57.1 (83088) - https://sketch.com -->
    <title>brand/linkedin-square-brand</title>
    <desc>Created with Sketch.</desc>
    <g id="brand/linkedin-square" stroke="none" stroke-width="1" fill="none" fill-rule="evenodd">
        <path d="M85,84.9384 L70.5,84.9384 L70.5,62.2394 C70.5,56.8264 70.406,49.8644 62.962,49.8644 C55.412,49.8644 54.261,55.7644 54.261,61.8504 L54.261,84.9384 L39.761,84.9384 L39.761,38.2634 L53.676,38.2634 L53.676,44.6464 L53.874,44.6464 C55.811,40.9744 60.544,37.1074 67.599,37.1074 C82.289,37.1074 85,46.7714 85,59.3384 L85,84.9384 Z M23.407,31.8864 C18.759,31.8864 15,28.1184 15,23.4764 C15,18.8314 18.759,15.0614 23.407,15.0614 C28.044,15.0614 31.813,18.8314 31.813,23.4764 C31.813,28.1184 28.044,31.8864 23.407,31.8864 L23.407,31.8864 Z M16.151,84.9384 L30.662,84.9384 L30.662,38.2634 L16.151,38.2634 L16.151,84.9384 Z M94.48,0.0004 L5.52,0.0004 C2.471,0.0004 0,2.4714 0,5.5204 L0,94.4804 C0,97.5284 2.471,100.0004 5.52,100.0004 L94.48,100.0004 C97.528,100.0004 100,97.5284 100,94.4804 L100,5.5204 C100,2.4714 97.528,0.0004 94.48,0.0004 L94.48,0.0004 Z" id="Fill-1" fill="#000000"></path>
    </g>
</svg>