<?xml version="1.0" encoding="UTF-8"?>
<svg width="100px" height="100px" viewBox="0 0 100 100" version="1.1" xmlns="http://www.w3.org/2000/svg" xmlns:xlink="http://www.w3.org/1999/xlink">
    <!-- Generator: Sketch 57.1 (83088) - https://sketch.com -->
    <title>solid/link-solid</title>
    <desc>Created with Sketch.</desc>
    <g id="solid/link" stroke="none" stroke-width="1" fill="none" fill-rule="evenodd">
        <path d="M93,6.99999996 C83.7030629,-2.27128683 68.6569371,-2.27128683 59.36,6.99999996 L39.73,26.6 C37.9094193,28.422438 37.0344264,30.9846534 37.36,33.54 C33.2885509,34.6142895 29.5753674,36.7504053 26.6,39.73 L6.99999996,59.36 C-1.51884707,68.7731603 -1.15791252,83.213376 7.82056864,92.1891889 C16.7990498,101.165002 31.2393721,101.521644 40.65,93 L60.27,73.41 C62.0919035,71.5883861 62.9671241,69.0255038 62.64,66.47 C66.7114491,65.3957105 70.4246326,63.2595947 73.4,60.28 L93,40.65 C102.272439,31.3496361 102.272439,16.3003639 93,6.99999996 Z M28.86,81.25 C26.070962,84.0390379 21.549038,84.0390379 18.76,81.25 C15.9709621,78.460962 15.970962,73.939038 18.76,71.15 L37.55,52.36 C36.829806,55.1997062 37.6580753,58.2088315 39.73,60.28 C41.4417236,61.9935595 43.4041752,63.436737 45.55,64.56 L28.86,81.25 Z M81.24,28.86 L62.45,47.65 C63.170194,44.8102938 62.3419246,41.8011685 60.27,39.73 C58.5582764,38.0164405 56.5958248,36.573263 54.45,35.45 L71.14,18.76 C72.9441913,16.9558087 75.5738573,16.2511919 78.0384283,16.9115717 C80.5029994,17.5719515 82.4280485,19.4970006 83.0884283,21.9615717 C83.7488081,24.4261427 83.0441913,27.0558087 81.24,28.86 L81.24,28.86 Z" id="link" fill="#000000"></path>
    </g>
</svg>