<svg width="100" height="100" viewBox="0 0 100 100" fill="none" xmlns="http://www.w3.org/2000/svg">
<g clip-path="url(#clip0)">
<path d="M57.6 62.8884C52.161 62.9024 46.9425 60.7396 43.1084 56.882C41.9919 55.7229 42.0104 53.8829 43.1501 52.7465C44.2898 51.6101 46.13 51.5968 47.286 52.7165C50.0194 55.4512 53.7275 56.9876 57.5941 56.9876C61.4606 56.9876 65.1688 55.4512 67.9021 52.7165L90.1351 30.485C95.6087 24.7556 95.5066 15.7044 89.905 10.1C84.3035 4.49554 75.2518 4.38823 69.5189 9.8583L47.286 32.0898C46.13 33.2096 44.2898 33.1962 43.1501 32.0599C42.0104 30.9235 41.9919 29.0835 43.1084 27.9244L65.3414 5.69283C73.3867 -2.01432 86.1168 -1.87919 93.9967 5.997C101.877 13.8732 102.017 26.6025 94.3126 34.6505L72.0797 56.882C68.2485 60.7366 63.0348 62.8993 57.6 62.8884Z" fill="black"/>
<path d="M20.4861 99.9999C12.1989 99.9999 4.72816 95.0067 1.55839 87.3501C-1.61138 79.6935 0.144231 70.8815 6.00638 65.0241L28.2393 42.7926C36.2383 34.8011 49.1997 34.8011 57.1987 42.7926C57.9666 43.5322 58.2757 44.6286 58.0072 45.6603C57.7386 46.6921 56.9342 47.4987 55.9032 47.7701C54.8721 48.0416 53.7748 47.7356 53.033 46.9699C47.3341 41.2803 38.1039 41.2803 32.405 46.9699L10.1721 69.2014C4.7017 74.9339 4.80901 83.985 10.4138 89.5863C16.0186 95.1875 25.0703 95.2896 30.8001 89.8163L53.033 67.5848C53.7748 66.819 54.8721 66.513 55.9032 66.7845C56.9342 67.0559 57.7386 67.8625 58.0072 68.8943C58.2757 69.9261 57.9666 71.0224 57.1987 71.762L34.9658 93.9936C31.1369 97.8515 25.9218 100.015 20.4861 99.9999Z" fill="black"/>
</g>
<defs>
<clipPath id="clip0">
<rect width="100" height="100" fill="white"/>
</clipPath>
</defs>
</svg>
