<svg width="100" height="100" viewBox="0 0 100 100" fill="none" xmlns="http://www.w3.org/2000/svg">
<path fill-rule="evenodd" clip-rule="evenodd" d="M85 84.9385H70.5V62.2395C70.5 56.8265 70.406 49.8645 62.962 49.8645C55.412 49.8645 54.261 55.7645 54.261 61.8505V84.9385H39.761V38.2635H53.676V44.6465H53.874C55.811 40.9745 60.544 37.1075 67.599 37.1075C82.289 37.1075 85 46.7715 85 59.3385V84.9385ZM23.407 31.8865C18.759 31.8865 15 28.1185 15 23.4765C15 18.8315 18.759 15.0615 23.407 15.0615C28.044 15.0615 31.813 18.8315 31.813 23.4765C31.813 28.1185 28.044 31.8865 23.407 31.8865ZM16.151 84.9385H30.662V38.2635H16.151V84.9385ZM94.48 0.000488281H5.52C2.471 0.000488281 0 2.47149 0 5.52049V94.4805C0 97.5285 2.471 100 5.52 100H94.48C97.528 100 100 97.5285 100 94.4805V5.52049C100 2.47149 97.528 0.000488281 94.48 0.000488281Z" fill="black"/>
</svg>
