<?xml version="1.0" encoding="UTF-8"?>
<svg width="100px" height="100px" viewBox="0 0 100 100" version="1.1" xmlns="http://www.w3.org/2000/svg" xmlns:xlink="http://www.w3.org/1999/xlink">
    <!-- Generator: Sketch 57.1 (83088) - https://sketch.com -->
    <title>brand/linkedin-alt-brand</title>
    <desc>Created with Sketch.</desc>
    <g id="brand/linkedin-alt" stroke="none" stroke-width="1" fill="none" fill-rule="evenodd">
        <path d="M12.0098,0.0003 C18.6348,0.0003 24.0198,5.3843 24.0198,12.0213 C24.0198,18.6513 18.6348,24.0353 12.0098,24.0353 C5.3698,24.0353 -0.0002,18.6513 -0.0002,12.0213 C-0.0002,5.3843 5.3698,0.0003 12.0098,0.0003 Z M1.6448,99.8243 L1.6448,33.1453 L22.3748,33.1453 L22.3748,99.8243 L1.6448,99.8243 Z M35.3726,33.1449 L55.2506,33.1449 L55.2506,42.2629 L55.5346,42.2629 C58.3006,37.0189 65.0626,31.4939 75.1416,31.4939 C96.1266,31.4939 99.9996,45.2989 99.9996,63.2529 L99.9996,99.8239 L79.2856,99.8239 L79.2856,67.3969 C79.2856,59.6629 79.1516,49.7169 68.5166,49.7169 C57.7326,49.7169 56.0866,58.1469 56.0866,66.8409 L56.0866,99.8239 L35.3726,99.8239 L35.3726,33.1449 Z" id="Shape" fill="#000000"></path>
    </g>
</svg>