<?xml version="1.0" encoding="UTF-8"?>
<svg width="100px" height="100px" viewBox="0 0 100 100" version="1.1" xmlns="http://www.w3.org/2000/svg" xmlns:xlink="http://www.w3.org/1999/xlink">
    <!-- Generator: Sketch 57.1 (83088) - https://sketch.com -->
    <title>regular/link-regular</title>
    <desc>Created with Sketch.</desc>
    <g id="regular/link" stroke="none" stroke-width="1" fill="none" fill-rule="evenodd">
        <path d="M56.5490196,43.4411765 C57.1392084,44.0313652 57.3697034,44.8915841 57.1536793,45.6977969 C56.9376552,46.5040097 56.3079313,47.1337337 55.5017185,47.3497577 C54.6955056,47.5657818 53.8352868,47.3352868 53.245098,46.745098 C47.3847093,40.8909889 37.8898005,40.8909889 32.0294117,46.745098 L10.0392156,68.7352941 C4.4223683,74.6340745 4.5351457,83.9360919 10.2933543,89.6969614 C16.0515629,95.4578309 25.3535272,95.5749059 31.2549019,89.9607844 L53.245098,67.9705883 C53.8289684,67.3584615 54.6984143,67.1102904 55.5174321,67.3219825 C56.33645,67.5336745 56.9767447,68.1720692 57.1908697,68.9904543 C57.4049948,69.8088395 57.1594086,70.679019 56.5490196,71.2647059 L34.5588235,93.254902 C30.877423,96.9571015 25.8680564,99.0328644 20.6470588,99.0197335 C12.6896642,99.0183131 5.51638049,94.2243103 2.47139257,86.8725636 C-0.573595339,79.5208169 1.10921368,71.0587477 6.73529407,65.4313726 L28.7254902,43.4411765 C36.4137358,35.7699777 48.860774,35.7699777 56.5490196,43.4411765 Z M84.5506748,1.41427238 C91.4187966,3.21740482 96.7825952,8.58120343 98.5857276,15.4493252 C100.38886,22.3174471 98.3515699,29.6243014 93.254902,34.5686274 L71.2647059,56.5588235 C67.5763754,60.2482953 62.5698217,62.3158362 57.3529412,62.3040236 C52.1360607,62.3158362 47.129507,60.2482953 43.4411765,56.5588235 C42.5288238,55.6464708 42.5288238,54.1672548 43.4411765,53.254902 C44.3535293,52.3425493 45.8327453,52.3425493 46.745098,53.254902 C52.6054868,59.1090111 62.1003956,59.1090111 67.9607843,53.254902 L89.9509804,31.2647059 C93.9002803,27.5076407 95.5023191,21.904816 94.1361493,16.6278767 C92.7699796,11.3509374 88.6503629,7.22941698 83.3740553,5.86080942 C78.0977477,4.49220187 72.4941835,6.09165194 68.7352941,10.0392156 L46.745098,32.0294117 C45.8297748,32.9076924 44.3804643,32.8938049 43.4821393,31.9981455 C42.5838143,31.1024861 42.5656198,29.6532233 43.4411765,28.7352941 L65.4313726,6.745098 C70.3756986,1.6484301 77.6825529,-0.388860055 84.5506748,1.41427238 Z" id="Shape" fill="#000000"></path>
    </g>
</svg>