<?xml version="1.0" encoding="UTF-8"?>
<svg width="100px" height="100px" viewBox="0 0 100 100" version="1.1" xmlns="http://www.w3.org/2000/svg" xmlns:xlink="http://www.w3.org/1999/xlink">
    <!-- Generator: Sketch 57.1 (83088) - https://sketch.com -->
    <title>solid/lock-open-solid</title>
    <desc>Created with Sketch.</desc>
    <g id="solid/lock-open" stroke="none" stroke-width="1" fill="none" fill-rule="evenodd">
        <path d="M99.74,26.5 C95.6457329,14.8224221 83.7293103,7.79729351 71.5294255,9.86892543 C59.3295406,11.9405573 50.4000405,22.5054798 50.39,34.88 L50.39,38.66 L4.18999995,38.66 C1.87820792,38.6654977 0.00549769514,40.538208 -4.9999997e-08,42.85 L-4.9999997e-08,85.69 C0.00549769514,88.0017921 1.87820792,89.8745023 4.18999995,89.88 L64.44,89.88 C66.751792,89.8745023 68.6245023,88.0017921 68.63,85.69 L68.63,42.85 C68.6245023,40.538208 66.751792,38.6654977 64.44,38.66 L59.7,38.66 L59.7,34.88 C59.639589,26.9907582 65.3116738,20.2229744 73.0900082,18.9033912 C80.8683427,17.5838079 88.4551186,22.102245 91,29.57 C91.9962375,31.7629455 94.5021436,32.8321623 96.774656,32.0339228 C99.0471684,31.2356833 100.333976,28.8342431 99.74,26.5 Z" id="lock-open" fill="#000000"></path>
    </g>
</svg>