<?xml version="1.0" encoding="UTF-8"?>
<svg width="100px" height="100px" viewBox="0 0 100 100" version="1.1" xmlns="http://www.w3.org/2000/svg" xmlns:xlink="http://www.w3.org/1999/xlink">
    <!-- Generator: Sketch 57.1 (83088) - https://sketch.com -->
    <title>bold/lock-open-bold</title>
    <desc>Created with Sketch.</desc>
    <g id="bold/lock-open" stroke="none" stroke-width="1" fill="none" fill-rule="evenodd">
        <path d="M99.74,26.11 C95.7364523,14.7030073 84.0940648,7.84227037 72.1755902,9.86658202 C60.2571155,11.8908937 51.5328082,22.2108432 51.52,34.3 L51.52,35.72 L6.35999996,35.72 C2.84585197,35.7255167 -4.9999997e-08,38.5758477 -4.9999997e-08,42.09 L-4.9999997e-08,83.96 C-4.9999997e-08,87.472531 2.84746894,90.32 6.35999996,90.32 L65.25,90.32 C68.762531,90.32 71.61,87.472531 71.61,83.96 L71.61,42.09 C71.6100044,38.5758477 68.764148,35.7255167 65.25,35.72 L60.61,35.72 L60.61,34.3 C60.6218367,26.6432418 66.148494,20.1087537 73.6971058,18.8263546 C81.2457175,17.5439554 88.6202611,21.8867173 91.16,29.11 C91.9884272,31.4793016 94.5806985,32.7284271 96.95,31.9 C99.3193016,31.0715729 100.568427,28.4793016 99.74,26.11 L99.74,26.11 Z M62.52,44.81 L62.52,81.23 L9.08999996,81.23 L9.08999996,44.81 L62.52,44.81 Z" id="lock-open" fill="#000000"></path>
    </g>
</svg>