<?xml version="1.0" encoding="UTF-8"?>
<svg width="100px" height="100px" viewBox="0 0 100 100" version="1.1" xmlns="http://www.w3.org/2000/svg" xmlns:xlink="http://www.w3.org/1999/xlink">
    <!-- Generator: Sketch 57.1 (83088) - https://sketch.com -->
    <title>bold/lock-bold</title>
    <desc>Created with Sketch.</desc>
    <g id="bold/lock" stroke="none" stroke-width="1" fill="none" fill-rule="evenodd">
        <path d="M87.1287129,32.9009901 L79.5841584,32.9009901 L79.5841584,29.930693 C79.5841582,13.405896 66.1881633,0.00990138596 49.6633663,0.00990138596 C33.1385693,0.00990138596 19.7425745,13.405896 19.7425742,29.930693 L19.7425742,32.9009901 L12.2376237,32.9009901 C8.75826928,32.9064522 5.94052394,35.7285621 5.94052394,39.2079208 L5.94052394,92.6732674 C5.93269804,94.3493954 6.59232961,95.9597252 7.77382308,97.1486495 C8.95531655,98.3375737 10.5614791,99.0072883 12.2376237,99.0099014 L87.1287129,99.0099014 C90.6058195,99.0044681 93.4247478,96.1899651 93.4357136,92.7128713 L93.4357136,39.2475247 C93.4435396,37.5687708 92.7828648,35.9559226 91.5995146,34.7651416 C90.4161643,33.5743606 88.8074834,32.9036028 87.1287129,32.9009901 Z M28.7128713,29.9207921 C28.7128713,18.3665577 38.0794291,9.00000027 49.6336634,9.00000027 C61.1878977,9.00000027 70.5544555,18.3665577 70.5544555,29.9207921 L70.5544555,32.8910891 L28.7128713,32.8910891 L28.7128713,29.9207921 Z M84.3960396,90.009901 L14.940594,90.009901 L14.940594,41.9009901 L84.3960396,41.9009901 L84.3960396,90.009901 Z" id="lock" fill="#000000"></path>
    </g>
</svg>