<svg width="100" height="100" viewBox="0 0 100 100" fill="none" xmlns="http://www.w3.org/2000/svg">
<path d="M39.1576 71.2946L54.2548 86.3918C55.5964 87.7313 57.3546 88.5734 59.2393 88.779C58.6295 88.9131 58.0069 88.9798 57.3826 88.978H11.3726C8.35642 88.978 5.46374 87.7798 3.33096 85.647C1.19818 83.5142 0 80.6215 0 77.6053V23.3726C0 17.0917 5.0917 12 11.3726 12H57.3826C58.0219 12.0018 58.6592 12.0722 59.2835 12.21C57.3841 12.401 55.6084 13.2401 54.2548 14.5862L39.1576 29.6834H17.6834V71.2946H39.1576Z" fill="black"/>
<path d="M64.5779 36.6139H95.579C96.7554 36.6139 97.8832 37.0827 98.7129 37.9165C99.5426 38.7504 100.006 39.8805 99.9999 41.0568V59.9449C99.9999 62.3865 98.0206 64.3657 95.579 64.3657H64.5779V80.5239C64.5779 82.3167 63.4952 83.932 61.8369 84.6132C61.2959 84.8312 60.7182 84.9438 60.1349 84.9448C58.9583 84.9486 57.8286 84.4833 56.9961 83.6517L26.9675 53.6563C26.1272 52.8257 25.6543 51.6934 25.6543 50.5119C25.6543 49.3304 26.1272 48.1981 26.9675 47.3676L56.9961 17.328C58.2586 16.0366 60.1797 15.643 61.8483 16.3338C63.5169 17.0246 64.5976 18.6609 64.5779 20.4668V36.6139Z" fill="black"/>
</svg>
