<?xml version="1.0" encoding="UTF-8"?>
<svg width="100px" height="100px" viewBox="0 0 100 100" version="1.1" xmlns="http://www.w3.org/2000/svg" xmlns:xlink="http://www.w3.org/1999/xlink">
    <!-- Generator: Sketch 57.1 (83088) - https://sketch.com -->
    <title>bold/login-bold</title>
    <desc>Created with Sketch.</desc>
    <g id="bold/login" stroke="none" stroke-width="1" fill="none" fill-rule="evenodd">
        <path d="M59.6911798,13.4750933 C62.037532,14.4478107 63.5652273,16.7400157 63.56,19.28 L63.56,34.17 L93.72,34.17 C97.186065,34.1755061 99.994494,36.983935 100,40.45 L100,59.85 C99.9944834,63.3144424 97.1844468,66.1200044 93.72,66.12 L63.56,66.12 L63.56,81 C63.5684848,83.5401289 62.038768,85.8327277 59.69,86.8 C58.9276874,87.1234015 58.1080755,87.2900299 57.28,87.2900299 C55.6167125,87.2936507 54.0212528,86.6309767 52.85,85.45 L22,54.59 C19.5483481,52.1376518 19.5483481,48.1623482 22,45.71 L52.85,14.84 C54.6434257,13.0413416 57.3448277,12.5023759 59.6911798,13.4750933 Z M42.93,15.12 L33.84,24.21 L9.08999996,24.21 L9.08999996,76.08 L33.84,76.08 L42.93,85.15 L7.13999996,85.15 C3.1950698,85.1444826 -4.99998691e-08,81.944934 -4.99998691e-08,78 L-4.99998691e-08,22.26 C-4.99998691e-08,18.3166869 3.19668684,15.12 7.13999996,15.12 L42.93,15.12 Z M54.47,26.07 L30.4,50.15 L54.47,74.22 L54.47,63.31 C54.464688,61.6400572 55.1236642,60.0365455 56.301681,58.8529012 C57.4796978,57.669257 59.0800508,57.0026465 60.75,57 L90.91,57 L90.91,43.26 L60.75,43.26 C57.2894473,43.2600175 54.4810209,40.4605352 54.47,37 L54.47,26.07 Z" id="Shape" fill="#000000"></path>
    </g>
</svg>