<?xml version="1.0" encoding="UTF-8"?>
<svg width="100px" height="100px" viewBox="0 0 100 100" version="1.1" xmlns="http://www.w3.org/2000/svg" xmlns:xlink="http://www.w3.org/1999/xlink">
    <!-- Generator: Sketch 57.1 (83088) - https://sketch.com -->
    <title>regular/login-regular</title>
    <desc>Created with Sketch.</desc>
    <g id="regular/login" stroke="none" stroke-width="1" fill="none" fill-rule="evenodd">
        <path d="M58.6727115,14.1790163 C60.2294669,14.8312881 61.2358296,16.361719 61.2178218,18.0495049 L61.2178218,35.8712871 L94.8811882,35.8712871 C97.1739568,35.8712806 99.034145,37.7270398 99.039604,40.019802 L99.039604,60.0891089 C99.039604,62.3857386 97.1778178,64.2475248 94.8811882,64.2475248 L61.2178218,64.2475248 L61.2178218,82.069307 C61.2154929,83.7496578 60.2044326,85.2642963 58.6534654,85.9108911 C58.1459117,86.1106346 57.6048376,86.2114559 57.0594059,86.2081952 C55.9459969,86.2170377 54.875659,85.7781992 54.0891089,84.990099 L22.1089109,52.970297 C21.3295663,52.1921214 20.8916368,51.1359869 20.8916368,50.0346535 C20.8916368,48.9333201 21.3295663,47.8771856 22.1089109,47.0990099 L54.1287129,15.0792079 C55.3192125,13.8826895 57.1159562,13.5267445 58.6727115,14.1790163 Z M43.1485148,16.0792079 L38.4356436,20.7920792 L5.04950491,20.7920792 C4.87105367,20.7917702 4.72336812,20.9307683 4.71287124,21.1089109 L4.71287124,78.9603961 C4.71287124,79.1463137 4.86358727,79.2970297 5.04950491,79.2970297 L38.4356436,79.2970297 L43.1485148,84.009901 L5.04950491,84.009901 C2.26299997,84.0044533 0.0054476781,81.746901 -4.99998336e-08,78.9603961 L-4.99998336e-08,21.1089109 C0.0163087139,18.3301422 2.27069357,16.084598 5.04950491,16.0792079 L43.1485148,16.0792079 Z M56.5346535,19.3762376 L25.8415841,50.029703 L56.5346535,80.7227723 L56.5346535,63.6831683 C56.5400968,61.3942653 58.3942653,59.5400968 60.6831683,59.5346535 L94.3465347,59.5346535 L94.3465347,40.5346535 L60.6831683,40.5346535 C58.3904062,40.5291945 56.534647,38.6690062 56.5346535,36.3762376 L56.5346535,19.3762376 Z" id="Shape" fill="#000000"></path>
    </g>
</svg>