<?xml version="1.0" encoding="UTF-8"?>
<svg width="100px" height="100px" viewBox="0 0 100 100" version="1.1" xmlns="http://www.w3.org/2000/svg" xmlns:xlink="http://www.w3.org/1999/xlink">
    <!-- Generator: Sketch 57.1 (83088) - https://sketch.com -->
    <title>solid/logout-solid</title>
    <desc>Created with Sketch.</desc>
    <g id="solid/logout" stroke="none" stroke-width="1" fill="none" fill-rule="evenodd">
        <path d="M44.3737374,13.6363636 L34.969697,23.030303 L9.39393935,23.030303 L9.39393935,76.6464647 L34.969697,76.6464647 L44.3737374,86.0505051 L7.38383834,86.0505051 C3.30816394,86.044941 0.00556401839,82.7423411 -5.0000061e-08,78.6666667 L-5.0000061e-08,21.020202 C0.00556401839,16.9445276 3.30816394,13.6419277 7.38383834,13.6363636 L44.3737374,13.6363636 Z M66.0505051,15.010101 L97.979798,46.969697 C99.5860274,48.5883405 99.5860274,51.1995383 97.979798,52.8181818 L66.0404041,84.6767677 C64.8559377,85.8619392 63.0740257,86.2166021 61.5260246,85.5752874 C59.9780234,84.9339726 58.968992,83.4230617 58.969697,81.7474748 L58.969697,64.010101 L25.4545454,64.010101 C23.1696095,64.0045483 21.318684,62.1536228 21.3131313,59.8686869 L21.3131313,39.8181818 C21.318684,37.5332459 23.1696095,35.6823204 25.4545454,35.6767677 L58.979798,35.6767677 L58.979798,17.9393939 C58.9690897,16.2589731 59.9773088,14.7395077 61.5298071,14.0963299 C63.0823054,13.453152 64.8696927,13.8144375 66.0505051,15.010101 Z" id="Shape" fill="#000000"></path>
    </g>
</svg>