<?xml version="1.0" encoding="UTF-8"?>
<svg width="100px" height="100px" viewBox="0 0 100 100" version="1.1" xmlns="http://www.w3.org/2000/svg" xmlns:xlink="http://www.w3.org/1999/xlink">
    <!-- Generator: Sketch 57.1 (83088) - https://sketch.com -->
    <title>bold/logout-bold</title>
    <desc>Created with Sketch.</desc>
    <g id="bold/logout" stroke="none" stroke-width="1" fill="none" fill-rule="evenodd">
        <path d="M67.62,14.82 L98.18,45.4 C100.604792,47.8283263 100.604792,51.7616737 98.18,54.19 L67.61,84.76 C65.8365819,86.5501741 63.1538747,87.0843414 60.83,86.11 C58.509958,85.147332 56.9983119,82.8818364 57,80.37 L57,65.62 L27.12,65.62 C23.687072,65.6144941 20.9055059,62.8329279 20.9,59.4 L20.9,40.19 C20.9219621,36.7687935 23.6987273,34.0054211 27.12,34 L57,34 L57,19.22 C57.008252,16.7078527 58.5245093,14.446455 60.845362,13.4848964 C63.1662147,12.5233378 65.8375093,13.04978 67.62,14.82 Z M42.51,15.1 L33.51,24.1 L8.99999995,24.1 L8.99999995,75.48 L33.52,75.48 L42.52,84.49 L7.07999996,84.49 C3.17210767,84.4844921 0.00550791069,81.3178923 -4.99994286e-08,77.41 L-4.99994286e-08,22.17 C0.00551728632,18.2637298 3.17372584,15.1 7.07999996,15.1 L42.51,15.1 Z M66,26 L66,36.76 C66.0053155,38.4131091 65.3523433,40.0003333 64.1852904,41.1711388 C63.0182375,42.3419443 61.4331177,43 59.78,43 L29.91,43 L29.91,56.61 L59.78,56.61 C63.2129279,56.6155059 65.9944941,59.3970721 66,62.83 L66,73.64 L89.84,49.79 L66,26 Z" id="Shape" fill="#000000"></path>
    </g>
</svg>