<?xml version="1.0" encoding="UTF-8"?>
<svg width="100px" height="100px" viewBox="0 0 100 100" version="1.1" xmlns="http://www.w3.org/2000/svg" xmlns:xlink="http://www.w3.org/1999/xlink">
    <!-- Generator: Sketch 57.1 (83088) - https://sketch.com -->
    <title>regular/logout-regular</title>
    <desc>Created with Sketch.</desc>
    <g id="regular/logout" stroke="none" stroke-width="1" fill="none" fill-rule="evenodd">
        <path d="M66.44,14.7 L98.77,47.07 C99.557138,47.8559574 99.9994469,48.9226533 99.9994469,50.035 C99.9994469,51.1473467 99.557138,52.2140426 98.77,53 L66.44,85.34 C65.2413582,86.5405242 63.437087,86.8997992 61.87,86.25 C60.299941,85.6012989 59.2769522,84.0687905 59.28,82.37 L59.28,64.37 L25.28,64.37 C22.9626851,64.3645022 21.0854978,62.4873149 21.08,60.17 L21.08,39.87 C21.0855135,37.5543102 22.9643037,35.6799934 25.28,35.68 L59.28,35.68 L59.28,17.7 C59.2618122,15.9953362 60.2782385,14.449601 61.8505614,13.7908065 C63.4228843,13.1320119 65.2375954,13.4915164 66.44,14.7 Z M43.58,15.74 L38.82,20.5 L5.09999996,20.5 C4.91976421,20.4996879 4.7706018,20.640076 4.75999995,20.82 L4.75999995,79.25 C4.75999995,79.4377768 4.91222314,79.59 5.09999996,79.59 L38.82,79.59 L43.58,84.35 L5.09999996,84.35 C2.28562997,84.3444978 0.00550215538,82.06437 -4.99994464e-08,79.25 L-4.99994464e-08,20.82 C0.0164718015,18.0134436 2.29340051,15.745444 5.09999996,15.74 L43.58,15.74 Z M64,19.07 L64,36.24 C64,38.5595959 62.119596,40.44 59.8,40.44 L25.8,40.44 L25.8,59.63 L59.8,59.63 C62.1156963,59.6299934 63.9944865,61.5043103 64,63.82 L64,81 L95,50 L64,19.07 Z" id="Shape" fill="#000000"></path>
    </g>
</svg>