<?xml version="1.0" encoding="UTF-8"?>
<svg width="100px" height="100px" viewBox="0 0 100 100" version="1.1" xmlns="http://www.w3.org/2000/svg" xmlns:xlink="http://www.w3.org/1999/xlink">
    <!-- Generator: Sketch 57.1 (83088) - https://sketch.com -->
    <title>bold/long-arrow-left-bold</title>
    <desc>Created with Sketch.</desc>
    <g id="bold/long-arrow-left" stroke="none" stroke-width="1" fill="none" fill-rule="evenodd">
        <path d="M94.5049505,45.990099 L14.009901,45.990099 L40.4356436,19.5643564 C41.6462838,18.4426406 42.1466221,16.7487093 41.7397456,15.1492258 C41.332869,13.5497423 40.0839211,12.3007943 38.4844375,11.8939178 C36.884954,11.4870412 35.1910227,11.9873795 34.0693069,13.1980198 L2.27722768,44.990099 C-0.758129252,48.0285799 -0.758129252,52.9516181 2.27722768,55.990099 L34.0693069,87.7920792 C35.8453626,89.4376794 38.6045225,89.3851 40.3165934,87.6730291 C42.0286643,85.9609582 42.0812437,83.2017983 40.4356436,81.4257426 L14.009901,54.990099 L94.5049505,54.990099 C96.1630034,55.0678939 97.7295101,54.2276191 98.581812,52.8032691 C99.4341138,51.3789192 99.4341138,49.6012788 98.581812,48.1769289 C97.7295101,46.7525789 96.1630034,45.9123042 94.5049505,45.990099 Z" id="long-arrow-left" fill="#000000"></path>
    </g>
</svg>