<?xml version="1.0" encoding="UTF-8"?>
<svg width="100px" height="100px" viewBox="0 0 100 100" version="1.1" xmlns="http://www.w3.org/2000/svg" xmlns:xlink="http://www.w3.org/1999/xlink">
    <!-- Generator: Sketch 57.1 (83088) - https://sketch.com -->
    <title>bold/long-arrow-right-bold</title>
    <desc>Created with Sketch.</desc>
    <g id="bold/long-arrow-right" stroke="none" stroke-width="1" fill="none" fill-rule="evenodd">
        <path d="M99.0196079,50 C99.0196079,50 99.0196079,50 99.0196079,49.9313725 C99.0042039,47.9126306 98.1982005,45.9803342 96.7745099,44.5490196 L65.2843137,13.0686274 C63.5256704,11.4391606 60.793561,11.4912245 59.0982752,13.1865104 C57.4029893,14.8817963 57.3509254,17.6139056 58.9803922,19.372549 L85.1470589,45.5392157 L5.44117643,45.5392157 C3.79937902,45.4621835 2.24823016,46.2942203 1.40428423,47.7046061 C0.560338289,49.1149918 0.560338289,50.8752043 1.40428423,52.28559 C2.24823016,53.6959758 3.79937902,54.5280125 5.44117643,54.4509804 L85.1470589,54.4509804 L58.9803922,80.627451 C57.3509254,82.3860944 57.4029893,85.1182037 59.0982752,86.8134896 C60.793561,88.5087755 63.5256704,88.5608394 65.2843137,86.9313726 L96.7647059,55.4411765 C98.1931843,54.0162539 99.0032343,52.0862217 99.0196079,50.0686275 C99.0196079,50.0686275 99.0196079,50 99.0196079,50 Z" id="long-arrow-right" fill="#000000"></path>
    </g>
</svg>