<?xml version="1.0" encoding="UTF-8"?>
<svg width="100px" height="100px" viewBox="0 0 100 100" version="1.1" xmlns="http://www.w3.org/2000/svg" xmlns:xlink="http://www.w3.org/1999/xlink">
    <!-- Generator: Sketch 57.1 (83088) - https://sketch.com -->
    <title>solid/long-arrow-left-solid</title>
    <desc>Created with Sketch.</desc>
    <g id="solid/long-arrow-left" stroke="none" stroke-width="1" fill="none" fill-rule="evenodd">
        <path d="M91.67,41.58 L27.2,41.58 L44.55,24.23 C47.8057185,20.9770428 47.8079571,15.7007186 44.5549999,12.4450001 C41.3020428,9.18928148 36.0257186,9.18704287 32.77,12.44 L3.32999995,41.88 C1.19726279,43.9956837 -0.00162267934,46.875889 -1.69496457e-06,49.88 L-1.69496457e-06,49.88 L-1.69496457e-06,49.88 C0.00280828393,52.8832251 1.2010136,55.7617965 3.32999995,57.88 L32.77,87.39 C36.0306596,90.5974251 41.2675708,90.5758746 44.5017227,87.3417227 C47.7358745,84.1075709 47.757425,78.8706597 44.55,75.61 L27.2,58.25 L91.67,58.25 C96.1609756,58.0944203 99.7212528,54.4086696 99.7212528,49.915 C99.7212528,45.4213304 96.1609756,41.7355797 91.67,41.58 Z" id="long-arrow-left" fill="#000000"></path>
    </g>
</svg>