<?xml version="1.0" encoding="UTF-8"?>
<svg width="100px" height="100px" viewBox="0 0 100 100" version="1.1" xmlns="http://www.w3.org/2000/svg" xmlns:xlink="http://www.w3.org/1999/xlink">
    <!-- Generator: Sketch 57.1 (83088) - https://sketch.com -->
    <title>solid/long-arrow-right-solid</title>
    <desc>Created with Sketch.</desc>
    <g id="solid/long-arrow-right" stroke="none" stroke-width="1" fill="none" fill-rule="evenodd">
        <path d="M99.009901,49.9207921 C99.0249628,49.6305583 99.0249628,49.3397387 99.009901,49.0495049 C98.810785,46.3739386 97.6584915,43.8585661 95.7623763,41.960396 L66.5643565,12.8118812 C63.3408727,9.59113147 58.1167893,9.59334788 54.8960396,12.8168316 C51.6752899,16.0403154 51.6775063,21.2643988 54.9009901,24.4851485 L72.0891089,41.6633663 L8.24752471,41.6633663 C3.80101422,41.8174057 0.27598737,45.4666637 0.27598737,49.9158416 C0.27598737,54.3650194 3.80101422,58.0142775 8.24752471,58.1683168 L72.0891089,58.1683168 L54.9009901,75.3564357 C52.7888529,77.4340894 51.9533961,80.4849988 52.7123532,83.3488689 C53.4713102,86.2127391 55.708053,88.4494819 58.5719232,89.2084389 C61.4357934,89.967396 64.4867028,89.1319392 66.5643565,87.019802 L95.7128713,57.9207921 C97.6380001,56.0215969 98.8093716,53.4889017 99.009901,50.7920792 C99.0246839,50.5018383 99.0246839,50.211033 99.009901,49.9207921 Z" id="long-arrow-right" fill="#000000"></path>
    </g>
</svg>