<?xml version="1.0" encoding="UTF-8"?>
<svg width="100px" height="100px" viewBox="0 0 100 100" version="1.1" xmlns="http://www.w3.org/2000/svg" xmlns:xlink="http://www.w3.org/1999/xlink">
    <!-- Generator: Sketch 57.1 (83088) - https://sketch.com -->
    <title>regular/long-arrow-down-regular</title>
    <desc>Created with Sketch.</desc>
    <g id="regular/long-arrow-down" stroke="none" stroke-width="1" fill="none" fill-rule="evenodd">
        <path d="M87.3762377,60.6732673 C86.9358467,60.2306835 86.3372307,59.9818572 85.7128713,59.9818572 C85.0885119,59.9818572 84.4898959,60.2306835 84.049505,60.6732673 L52.3663366,92.3564357 L52.3663366,2.3564356 C52.2856849,1.11154732 51.2524486,0.143084476 50.0049505,0.143084476 C48.7574524,0.143084476 47.7242161,1.11154732 47.6435644,2.3564356 L47.6435644,92.3861387 L15.960396,60.7029703 C15.0499464,59.7679139 13.5538682,59.7479662 12.6188118,60.6584159 C11.6837555,61.5688655 11.6638078,63.0649437 12.5742574,64 L45.8811881,97.3168317 C46.8487286,98.2950274 48.1338548,98.8954552 49.5049505,99.009901 C49.8312593,99.0800181 50.1687407,99.0800181 50.4950495,99.009901 C51.8561072,98.9065648 53.1365082,98.3242455 54.1089109,97.3663367 L87.3762377,64 C87.8188215,63.5596091 88.0676478,62.9609931 88.0676478,62.3366337 C88.0676478,61.7122743 87.8188215,61.1136583 87.3762377,60.6732673 L87.3762377,60.6732673 Z" id="long-arrow-down" fill="#000000"></path>
    </g>
</svg>