<?xml version="1.0" encoding="UTF-8"?>
<svg width="100px" height="100px" viewBox="0 0 100 100" version="1.1" xmlns="http://www.w3.org/2000/svg" xmlns:xlink="http://www.w3.org/1999/xlink">
    <!-- Generator: Sketch 57.1 (83088) - https://sketch.com -->
    <title>solid/long-arrow-up-solid</title>
    <desc>Created with Sketch.</desc>
    <g id="solid/long-arrow-up" stroke="none" stroke-width="1" fill="none" fill-rule="evenodd">
        <path d="M87.39,32.77 L58,3.32999995 C56.0742077,1.40398132 53.5170717,0.239063787 50.8,0.04999995 C50.5068567,0.0350692837 50.2131433,0.0350692837 49.92,0.04999995 C49.6135587,0.0333721115 49.3064413,0.0333721115 49,0.04999995 C46.2970018,0.248477458 43.755602,1.41269412 41.84,3.32999995 L12.44,32.77 C9.18704287,36.0257186 9.18928148,41.3020428 12.4450001,44.5549999 C15.7007186,47.8079571 20.9770428,47.8057185 24.23,44.55 L41.58,27.19 L41.58,91.67 C41.7355797,96.1609756 45.4213304,99.7212528 49.915,99.7212528 C54.4086696,99.7212528 58.0944203,96.1609756 58.25,91.67 L58.25,27.19 L75.61,44.55 C78.8706597,47.757425 84.1075709,47.7358745 87.3417227,44.5017227 C90.5758746,41.2675708 90.5974251,36.0306596 87.39,32.77 Z" id="long-arrow-up" fill="#000000"></path>
    </g>
</svg>