<?xml version="1.0" encoding="UTF-8"?>
<svg width="100px" height="100px" viewBox="0 0 100 100" version="1.1" xmlns="http://www.w3.org/2000/svg" xmlns:xlink="http://www.w3.org/1999/xlink">
    <!-- Generator: Sketch 57.1 (83088) - https://sketch.com -->
    <title>bold/long-arrow-down-bold</title>
    <desc>Created with Sketch.</desc>
    <g id="bold/long-arrow-down" stroke="none" stroke-width="1" fill="none" fill-rule="evenodd">
        <path d="M88.17,59.16 C87.3182028,58.3056844 86.1614053,57.8255226 84.955,57.8255226 C83.7485948,57.8255226 82.5917972,58.3056844 81.74,59.16 L55.05,85.85 L55.05,4.54999995 C55.05,2.03710434 53.0128956,-4.9999997e-08 50.5,-4.9999997e-08 C47.9871044,-4.9999997e-08 45.95,2.03710434 45.95,4.54999995 L45.95,85.85 L19.26,59.16 C18.127067,57.9372534 16.4161964,57.4319116 14.800718,57.842857 C13.1852397,58.2538023 11.9238023,59.5152397 11.5128569,61.1307181 C11.1019116,62.7461964 11.6072533,64.4570671 12.83,65.59 L44.94,97.7 C46.395879,99.1594725 48.3685818,99.9859235 50.43,100 L50.57,100 C52.6274008,99.9902814 54.5974131,99.1670463 56.05,97.71 L88.17,65.59 C89.9382847,63.8113826 89.9382847,60.9386175 88.17,59.16 Z" id="long-arrow-down" fill="#000000"></path>
    </g>
</svg>