<svg width="100" height="100" viewBox="0 0 100 100" fill="none" xmlns="http://www.w3.org/2000/svg">
<g clip-path="url(#clip0)">
<path d="M46.7867 34.3085H50.9461C54.3918 34.3085 57.1852 37.1018 57.1852 40.5476C57.1852 43.9933 54.3918 46.7867 50.9461 46.7867H46.7867V50.9461C46.7867 54.3918 43.9933 57.1852 40.5476 57.1852C37.1018 57.1852 34.3085 54.3918 34.3085 50.9461V46.7867H30.1491C26.7033 46.7867 23.9099 43.9933 23.9099 40.5476C23.9099 37.1018 26.7033 34.3085 30.1491 34.3085H34.3085V30.1491C34.3085 26.7033 37.1018 23.9099 40.5476 23.9099C43.9933 23.9099 46.7867 26.7033 46.7867 30.1491V34.3085Z" fill="black"/>
<path fill-rule="evenodd" clip-rule="evenodd" d="M74.3527 62.5608L97.5621 85.791C100.813 89.0415 100.813 94.3116 97.5621 97.5621C94.3116 100.813 89.0415 100.813 85.791 97.5621L62.5608 74.3527C45.2022 85.6717 22.0974 82.0455 9.04091 65.9529C-4.01555 49.8604 -2.80247 26.5042 11.8509 11.8509C26.5042 -2.80247 49.8604 -4.01555 65.9529 9.04091C82.0455 22.0974 85.6717 45.2022 74.3527 62.5608ZM31.4711 18.6038C22.595 22.2793 16.8073 30.9401 16.8073 40.5471C16.813 53.6575 27.4367 64.2858 40.5471 64.2973C50.1541 64.3015 58.8175 58.5176 62.4968 49.6431C66.1762 40.7686 64.1468 30.5515 57.3551 23.7569C50.5634 16.9622 40.3472 14.9283 31.4711 18.6038Z" fill="black"/>
</g>
<defs>
<clipPath id="clip0">
<rect width="100" height="100" fill="white"/>
</clipPath>
</defs>
</svg>
