<svg width="100" height="100" viewBox="0 0 100 100" fill="none" xmlns="http://www.w3.org/2000/svg">
<g clip-path="url(#clip0)">
<path d="M99.1469 94.9838L68.9802 64.8187C82.7379 48.8258 81.3856 24.8175 65.9192 10.4705C50.4527 -3.87651 26.4094 -3.42557 11.4918 11.4913C-3.42574 26.4081 -3.87669 50.4503 10.471 65.916C24.8187 81.3817 48.8282 82.7339 64.8218 68.9769L94.9884 99.1421C96.1385 100.286 97.9967 100.286 99.1469 99.1421C100.284 97.9894 100.284 96.1366 99.1469 94.9838ZM6.02742 39.3051C6.02742 25.8396 14.1399 13.7002 26.5814 8.5483C39.023 3.39637 53.3431 6.24665 62.8635 15.7699C72.3838 25.2931 75.2292 39.6136 70.0726 52.0527C64.916 64.4919 52.7732 72.5996 39.307 72.5949C20.9307 72.5754 6.04037 57.6806 6.02742 39.3051Z" fill="black"/>
</g>
<defs>
<clipPath id="clip0">
<rect width="100" height="100" fill="white"/>
</clipPath>
</defs>
</svg>
