<svg width="100" height="100" viewBox="0 0 100 100" fill="none" xmlns="http://www.w3.org/2000/svg">
<g clip-path="url(#clip0)">
<path d="M97.5621 85.791L74.3527 62.5608C85.6717 45.2022 82.0455 22.0974 65.9529 9.04091C49.8604 -4.01555 26.5042 -2.80247 11.8509 11.8509C-2.80247 26.5042 -4.01555 49.8604 9.04091 65.9529C22.0974 82.0455 45.2022 85.6717 62.5608 74.3527L85.791 97.5621C89.0415 100.813 94.3116 100.813 97.5621 97.5621C100.813 94.3116 100.813 89.0415 97.5621 85.791ZM16.8073 40.5471C16.8073 30.9401 22.595 22.2793 31.4711 18.6038C40.3472 14.9283 50.5634 16.9622 57.3551 23.7569C64.1468 30.5515 66.1762 40.7686 62.4968 49.6431C58.8175 58.5176 50.1541 64.3015 40.5471 64.2973C27.4367 64.2858 16.813 53.6575 16.8073 40.5471Z" fill="black"/>
</g>
<defs>
<clipPath id="clip0">
<rect width="100" height="100" fill="white"/>
</clipPath>
</defs>
</svg>
