<?xml version="1.0" encoding="UTF-8"?>
<svg width="100px" height="100px" viewBox="0 0 100 100" version="1.1" xmlns="http://www.w3.org/2000/svg" xmlns:xlink="http://www.w3.org/1999/xlink">
    <!-- Generator: Sketch 57.1 (83088) - https://sketch.com -->
    <title>solid/magnifying-glass-solid</title>
    <desc>Created with Sketch.</desc>
    <g id="solid/magnifying-glass" stroke="none" stroke-width="1" fill="none" fill-rule="evenodd">
        <path d="M97.5841585,85.9108911 L74.5742575,62.9009901 C85.797265,45.6986738 82.2071928,22.7972697 66.2585682,9.85443553 C50.3099435,-3.08839864 27.1599855,-1.8874097 12.6362879,12.6362879 C-1.8874097,27.1599855 -3.08839864,50.3099435 9.85443553,66.2585682 C22.7972697,82.2071928 45.6986738,85.797265 62.9009901,74.5742575 L85.9108911,97.5841585 C89.1590275,100.656844 94.2627675,100.586024 97.424396,97.424396 C100.586024,94.2627675 100.656844,89.1590275 97.5841585,85.9108911 Z M17.4950495,41.039604 C17.4950495,31.5118152 23.234981,22.9223803 32.0378934,19.277179 C40.8408058,15.6319777 50.9727734,17.6490123 57.708521,24.3875925 C64.4442687,31.1261726 66.4570432,41.2589874 62.8081413,50.0603664 C59.1592393,58.8617455 50.5673919,64.5980644 41.039604,64.5940615 C28.0392295,64.5776838 17.5059593,54.0399841 17.4950495,41.039604 L17.4950495,41.039604 Z" id="magnifying-glass" fill="#000000"></path>
    </g>
</svg>