<?xml version="1.0" encoding="UTF-8"?>
<svg width="100px" height="100px" viewBox="0 0 100 100" version="1.1" xmlns="http://www.w3.org/2000/svg" xmlns:xlink="http://www.w3.org/1999/xlink">
    <!-- Generator: Sketch 57.1 (83088) - https://sketch.com -->
    <title>regular/magnifying-glass-plus-regular</title>
    <desc>Created with Sketch.</desc>
    <g id="regular/magnifying-glass-plus" stroke="none" stroke-width="1" fill="none" fill-rule="evenodd">
        <path d="M11.3032152,12.4214598 C25.7482446,-2.4612977 49.4048824,-3.17276206 64.7181824,10.815025 C80.0314823,24.8028121 81.458895,48.4270621 67.9411765,64.1568628 L98.3333334,94.5490197 C98.7915661,94.9785445 99.0563965,95.5752801 99.0681799,96.2032499 C99.0785601,96.8312196 98.8349493,97.4369277 98.3921569,97.882353 C97.9560835,98.3205978 97.3633363,98.5669846 96.7450981,98.5669846 C96.1268599,98.5669846 95.5341126,98.3205978 95.0980393,97.882353 L64.7058824,67.4901961 C49.3865125,81.4713351 25.7301856,80.7496026 11.2916176,65.8605766 C-3.1469505,50.9715506 -3.14181408,27.3042173 11.3032152,12.4214598 Z M63.0994491,15.0014592 C53.4716208,5.37643546 38.9935964,2.49931759 26.4172031,7.71184964 C13.8408098,12.9243817 5.6430932,25.1999037 5.6470559,38.8137255 C5.67406892,57.3891102 20.7285298,72.4391858 39.3039216,72.4607843 C52.9177439,72.4607843 65.1908771,64.2594912 70.3997451,51.6815799 C75.608613,39.1036686 72.7272773,24.6264829 63.0994491,15.0014592 Z M39.3039216,27.1372549 C40.592586,27.1372549 41.6372549,28.1819238 41.6372549,29.4705882 L41.6372549,36.4803921 L48.6372549,36.4803921 C49.9259193,36.4803921 50.9705882,37.5250611 50.9705882,38.8137255 C50.9705882,40.1023899 49.9259193,41.1470588 48.6372549,41.1470588 L41.6372549,41.1470588 L41.6372549,48.1470588 C41.6372549,49.4357232 40.592586,50.4803922 39.3039216,50.4803922 C38.0152571,50.4803922 36.9705882,49.4357232 36.9705882,48.1470588 L36.9705882,41.1470588 L29.9607843,41.1470588 C28.6721199,41.1470588 27.627451,40.1023899 27.627451,38.8137255 C27.627451,37.5250611 28.6721199,36.4803921 29.9607843,36.4803921 L36.9705882,36.4803921 L36.9705882,29.4705882 C36.9705882,28.1819238 38.0152571,27.1372549 39.3039216,27.1372549 Z" id="Shape" fill="#000000"></path>
    </g>
</svg>