<?xml version="1.0" encoding="UTF-8"?>
<svg width="100px" height="100px" viewBox="0 0 100 100" version="1.1" xmlns="http://www.w3.org/2000/svg" xmlns:xlink="http://www.w3.org/1999/xlink">
    <!-- Generator: Sketch 57.1 (83088) - https://sketch.com -->
    <title>bold/magnifying-glass-minus-bold</title>
    <desc>Created with Sketch.</desc>
    <g id="bold/magnifying-glass-minus" stroke="none" stroke-width="1" fill="none" fill-rule="evenodd">
        <path d="M12.3247499,12.3247499 C27.0441807,-2.39468104 50.6910594,-3.07391977 66.2311328,10.7763297 C81.7712062,24.6265792 83.8066825,48.1954797 70.8712871,64.5049505 L98.6831684,92.3168317 C100.328768,94.0928874 100.276189,96.8520473 98.5641182,98.5641182 C96.8520473,100.276189 94.0928874,100.328768 92.3168317,98.6831684 L64.5049505,70.8712871 C48.1954797,83.8066825 24.6265792,81.7712062 10.7763297,66.2311328 C-3.07391977,50.6910594 -2.39468104,27.0441807 12.3247499,12.3247499 Z M61.5448442,18.8284962 C52.9090503,10.18987 39.9195671,7.6044404 28.6341249,12.2779394 C17.3486827,16.9514384 9.99009897,27.9633581 9.99009897,40.1782178 C10.0064626,56.8454763 23.5109656,70.3544084 40.1782178,70.3762409 C52.3930769,70.3802425 63.4074091,63.0252709 68.0846085,51.7413618 C72.761808,40.4574528 70.1806381,27.4671224 61.5448442,18.8284962 Z M53.2550793,37.8699982 C54.1073811,39.2943481 54.1073811,41.0719885 53.2550793,42.4963384 C52.4027774,43.9206884 50.8362707,44.7609632 49.1782178,44.6831683 L31.1782178,44.6831683 C28.7749359,44.5704078 26.8844046,42.5890941 26.8844046,40.1831683 C26.8844046,37.7772425 28.7749359,35.7959289 31.1782178,35.6831683 L49.1782178,35.6831683 C50.8362707,35.6053735 52.4027774,36.4456482 53.2550793,37.8699982 Z" id="Shape" fill="#000000"></path>
    </g>
</svg>