<?xml version="1.0" encoding="UTF-8"?>
<svg width="100px" height="100px" viewBox="0 0 100 100" version="1.1" xmlns="http://www.w3.org/2000/svg" xmlns:xlink="http://www.w3.org/1999/xlink">
    <!-- Generator: Sketch 57.1 (83088) - https://sketch.com -->
    <title>regular/magnifying-glass-regular</title>
    <desc>Created with Sketch.</desc>
    <g id="regular/magnifying-glass" stroke="none" stroke-width="1" fill="none" fill-rule="evenodd">
        <path d="M98.3333334,94.5490197 L67.9411765,64.1568628 C81.458895,48.4270621 80.0314823,24.8028121 64.7181824,10.815025 C49.4048824,-3.17276206 25.7482446,-2.4612977 11.3032152,12.4214598 C-3.14181408,27.3042173 -3.1469505,50.9715506 11.2916176,65.8605766 C25.7301856,80.7496026 49.3865125,81.4713351 64.7058824,67.4901961 L95.0980393,97.882353 C95.5341126,98.3205978 96.1268599,98.5669846 96.7450981,98.5669846 C97.3633363,98.5669846 97.9560835,98.3205978 98.3921569,97.882353 C98.8349493,97.4369277 99.0785601,96.8312196 99.0678405,96.2032499 C99.0563965,95.5752801 98.7915661,94.9785445 98.3333334,94.5490197 L98.3333334,94.5490197 Z M5.64705734,38.8137255 C5.6430932,25.1999037 13.8408098,12.9243817 26.4172031,7.71184964 C38.9935964,2.49931759 53.4716208,5.37643546 63.0994491,15.0014592 C72.7272773,24.6264829 75.608613,39.1036686 70.3997451,51.6815799 C65.1908771,64.2594912 52.9177439,72.4607843 39.3039216,72.4607843 C20.7285298,72.4391858 5.67406892,57.3891102 5.64705734,38.8137255 Z" id="magnifying-glass" fill="#000000"></path>
    </g>
</svg>