<svg width="100" height="100" viewBox="0 0 100 100" fill="none" xmlns="http://www.w3.org/2000/svg">
<path fill-rule="evenodd" clip-rule="evenodd" d="M30.4469 55.8826H29.9528L21.0352 50.8355V8.48258C21.0416 5.42496 23.5187 2.94788 26.5763 2.94141H57.894V24.012H78.9646V50.8355L70.0469 55.8826H69.5528C69.7965 55.456 69.9262 54.9738 69.9293 54.4826C69.9293 52.8582 68.6125 51.5414 66.9881 51.5414H33.0116C31.3873 51.5414 30.0705 52.8582 30.0705 54.4826C30.0736 54.9738 30.2032 55.456 30.4469 55.8826ZM66.9881 30.7179H33.0116C31.3873 30.7179 30.0705 32.0347 30.0705 33.6591C30.0705 35.2834 31.3873 36.6002 33.0116 36.6002H66.9881C68.6125 36.6002 69.9293 35.2834 69.9293 33.6591C69.9293 32.0347 68.6125 30.7179 66.9881 30.7179ZM66.9881 41.1296H33.0116C31.3873 41.1296 30.0705 42.4465 30.0705 44.0708C30.0705 45.6952 31.3873 47.012 33.0116 47.012H66.9881C68.6125 47.012 69.9293 45.6952 69.9293 44.0708C69.9293 42.4465 68.6125 41.1296 66.9881 41.1296Z" fill="black"/>
<path d="M63.7764 4.6709V18.118H77.2352L63.7764 4.6709Z" fill="black"/>
<path d="M99.9997 38.9054L83.082 48.4819V21.623L95.882 28.823C98.4252 30.2632 99.9979 32.9592 99.9997 35.8819V38.9054Z" fill="black"/>
<path d="M0 82.9415V45.6592L23.8 59.1415L0 82.9415Z" fill="black"/>
<path d="M99.9998 82.3886L76.5527 58.9298L99.9998 45.6592V82.3886Z" fill="black"/>
<path d="M32.5996 57.3525L40.6702 61.9172H59.329L67.3996 57.3525C67.2626 57.3641 67.1249 57.3641 66.9878 57.3525H33.0114C32.8744 57.3641 32.7366 57.3641 32.5996 57.3525Z" fill="black"/>
<path d="M71.2353 61.9414L57.9412 69.4708C53.0072 72.2325 46.9928 72.2325 42.0588 69.4708L29.1176 62.1414L0.505859 90.7532C1.7003 94.0737 4.84764 96.2895 8.37645 96.2943H91.6117C95.3064 96.2967 98.5663 93.8781 99.6353 90.3414L71.2353 61.9414Z" fill="black"/>
<path d="M16.9176 21.623V48.4819L0 38.8583V35.8819C0.00176456 32.9592 1.57447 30.2632 4.11765 28.823L16.9176 21.623Z" fill="black"/>
</svg>
