<svg width="100" height="100" viewBox="0 0 100 100" fill="none" xmlns="http://www.w3.org/2000/svg">
<path d="M33.0115 46.9878H66.988C68.6123 46.9878 69.9291 45.671 69.9291 44.0466C69.9291 42.4223 68.6123 41.1055 66.988 41.1055H33.0115C31.3871 41.1055 30.0703 42.4223 30.0703 44.0466C30.0703 45.671 31.3871 46.9878 33.0115 46.9878Z" fill="black"/>
<path d="M66.988 36.5767H33.0115C31.3871 36.5767 30.0703 35.2599 30.0703 33.6355C30.0703 32.0111 31.3871 30.6943 33.0115 30.6943H66.988C68.6123 30.6943 69.9291 32.0111 69.9291 33.6355C69.9291 35.2599 68.6123 36.5767 66.988 36.5767Z" fill="black"/>
<path fill-rule="evenodd" clip-rule="evenodd" d="M95.8824 28.8233L77.6471 18.5763L62.9176 3.79978C62.7819 3.66283 62.632 3.54058 62.4706 3.43508L62.2471 3.31743L61.9647 3.16449L61.6706 3.07037C61.5864 3.03989 61.4998 3.01629 61.4118 2.99978C61.22 2.98184 61.027 2.98184 60.8353 2.99978H26.5765C23.5188 3.00625 21.0418 5.48334 21.0353 8.54096V19.2939L4.11765 28.8233C1.57447 30.2634 0.00176456 32.9595 0 35.8821V87.9174C0.00649103 92.5455 3.76013 96.2939 8.38824 96.2939H91.6235C96.247 96.2874 99.9935 92.5409 100 87.9174V35.8821C99.9982 32.9595 98.4255 30.2634 95.8824 28.8233ZM59.3294 61.9174H40.6706L32.6 57.3527C32.737 57.3642 32.8748 57.3642 33.0118 57.3527H66.9882C67.1253 57.3642 67.263 57.3642 67.4 57.3527L59.3294 61.9174ZM5.88235 48.988L23.8 59.1292L5.88235 77.0586V48.988ZM94.1176 48.988V76.5057L76.5529 58.9292L94.1176 48.988ZM94.1176 35.8821V42.2351L78.9647 50.8115V26.1057L92.9412 33.988C93.641 34.3666 94.0885 35.087 94.1176 35.8821ZM63.7765 12.988L68.9176 18.1292H63.7765V12.988ZM57.8941 8.82331V24.0115H73.0824V54.141L69.2588 56.3057C69.6901 55.7865 69.9272 55.1335 69.9294 54.4586C69.9294 52.8342 68.6126 51.5174 66.9882 51.5174H33.0118C31.3874 51.5174 30.0706 52.8342 30.0706 54.4586C30.0728 55.1335 30.3099 55.7865 30.7412 56.3057L26.9176 54.141V8.82331H57.8941ZM7.05882 33.988L21.0824 26.0586V50.7645L5.88235 42.2351V35.8821C5.91151 35.087 6.35898 34.3666 7.05882 33.988ZM91.6706 90.4586H8.38824C7.71648 90.4619 7.0718 90.1941 6.60013 89.7157C6.12846 89.2374 5.86967 88.5891 5.88191 87.9174V85.3763L29.1176 62.141L42.0588 69.4704C46.9928 72.232 53.0072 72.232 57.9412 69.4704L71.2353 61.941L94.1176 84.8233V87.9174C94.1176 88.5789 93.8549 89.2133 93.3871 89.681C92.9194 90.1488 92.285 90.4115 91.6235 90.4115L91.6706 90.4586Z" fill="black"/>
</svg>
