<?xml version="1.0" encoding="UTF-8"?>
<svg width="100px" height="100px" viewBox="0 0 100 100" version="1.1" xmlns="http://www.w3.org/2000/svg" xmlns:xlink="http://www.w3.org/1999/xlink">
    <!-- Generator: Sketch 57.1 (83088) - https://sketch.com -->
    <title>regular/mail-open-regular</title>
    <desc>Created with Sketch.</desc>
    <g id="regular/mail-open" stroke="none" stroke-width="1" fill="none" fill-rule="evenodd">
        <path d="M96.14,28.76 L96.14,28.76 L57.74,6.99999996 C52.9360091,4.2892755 47.0639909,4.2892755 42.26,6.99999996 L3.85999995,28.76 C1.47815266,30.113653 0.00486806479,32.6403742 -4.9999997e-08,35.38 L-4.9999997e-08,88 C0.00551785168,92.353621 3.53637553,95.88 7.88999996,95.88 L92.11,95.88 C96.4636245,95.88 99.9944821,92.353621 100,88 L100,35.38 C99.9972196,32.6398085 98.523368,30.1121148 96.14,28.76 Z M4.75999995,47.58 L24.47,58.73 L4.75999995,78.44 L4.75999995,47.58 Z M95.24,88 C95.2344897,89.7247448 93.8347536,91.12 92.11,91.12 L7.88999996,91.12 C6.16524641,91.12 4.76551035,89.7247448 4.75999995,88 L4.75999995,85.17 L28.76,61.17 L42.26,68.8 C47.0650267,71.5067783 52.9349733,71.5067783 57.74,68.8 L71.59,61 L95.24,84.61 L95.24,88 Z M95.24,77.88 L75.89,58.53 L95.24,47.53 L95.24,77.88 Z M95.24,42.12 L55.39,64.66 C52.042934,66.5414043 47.957066,66.5414043 44.61,64.66 L4.75999995,42.11 L4.75999995,35.38 C4.76504762,34.3535105 5.31794021,33.4078735 6.20999996,32.9 L44.61,11.17 C47.957066,9.28859564 52.042934,9.28859564 55.39,11.17 L93.79,32.9 L93.79,32.9 C94.6820598,33.4078735 95.2349524,34.3535105 95.24,35.38 L95.24,42.12 Z" id="mail-open" fill="#000000"></path>
    </g>
</svg>