<?xml version="1.0" encoding="UTF-8"?>
<svg width="100px" height="100px" viewBox="0 0 100 100" version="1.1" xmlns="http://www.w3.org/2000/svg" xmlns:xlink="http://www.w3.org/1999/xlink">
    <!-- Generator: Sketch 57.1 (83088) - https://sketch.com -->
    <title>regular/mail-regular</title>
    <desc>Created with Sketch.</desc>
    <g id="regular/mail" stroke="none" stroke-width="1" fill="none" fill-rule="evenodd">
        <path d="M92.84,14 L7.15999996,14 C3.20792493,14.0055081 0.00550807652,17.2079249 -4.9999997e-08,21.16 L-4.9999997e-08,78.26 C-4.9999997e-08,82.2159797 3.2040241,85.4244826 7.15999996,85.43 L92.84,85.43 C96.7959759,85.4244826 100,82.2159797 100,78.26 L100,21.16 C99.9944919,17.2079249 96.7920751,14.0055081 92.84,14 Z M4.75999995,37.13 L24.47,48.28 L4.75999995,68 L4.75999995,37.13 Z M95.24,78.26 C95.24,79.5871108 94.1670994,80.6644933 92.84,80.67 L7.15999996,80.67 C5.83290062,80.6644933 4.75999995,79.5871108 4.75999995,78.26 L4.75999995,74.72 L28.76,50.72 L42.25,58.35 C47.0550267,61.0567783 52.9249733,61.0567783 57.73,58.35 L71.58,50.51 L95.24,74.16 L95.24,78.26 Z M95.24,67.43 L75.89,48.08 L95.24,37.13 L95.24,67.43 Z M95.24,31.66 L55.39,54.21 C52.042934,56.0914043 47.957066,56.0914043 44.61,54.21 L4.75999995,31.66 L4.75999995,21.16 C4.76547914,19.8367928 5.83679276,18.7654792 7.15999996,18.76 L92.84,18.76 C94.1632072,18.7654792 95.2345209,19.8367928 95.24,21.16 L95.24,31.66 Z" id="mail" fill="#000000"></path>
    </g>
</svg>