<?xml version="1.0" encoding="UTF-8"?>
<svg width="100px" height="100px" viewBox="0 0 100 100" version="1.1" xmlns="http://www.w3.org/2000/svg" xmlns:xlink="http://www.w3.org/1999/xlink">
    <!-- Generator: Sketch 57.1 (83088) - https://sketch.com -->
    <title>solid/mail-open-letter-solid</title>
    <desc>Created with Sketch.</desc>
    <g id="solid/mail-open-letter" stroke="none" stroke-width="1" fill="none" fill-rule="evenodd">
        <path d="M71.59,61.36 L99.89,89.66 C99.28176,93.3894872 96.1196894,96.1514686 92.3667732,96.2756409 L92.11,96.28 L7.88999996,96.28 C4.29199662,96.2737443 1.1646528,93.8394549 0.260758774,90.3789084 L0.19999995,90.13 L28.77,61.57 L42.26,69.21 C46.9567866,71.8404338 52.6592683,71.9016067 57.4028314,69.3935187 L57.74,69.21 L71.59,61.36 Z M-4.99998905e-08,45.29 L24.47,59.13 L-4.99998905e-08,83.6 L-4.99998905e-08,45.29 Z M100,45.29 L100,83.04 L75.89,58.93 L100,45.29 Z M57,64.14 L55.4,65.06 C52.052934,66.9414043 47.967066,66.9414043 44.62,65.06 L43,64.14 L57,64.14 Z M60.77,2.99999995 L60.77,12.92 L32.88,12.92 C31.5655623,12.92 30.5,13.9855623 30.5,15.3 C30.5,16.5596694 31.4786154,17.590771 32.7170506,17.6745092 L32.88,17.68 L60.77,17.68 L60.77,21.06 L78.71,21.06 L78.71,51.91 L71.5,56 L65.43,59.43 L34.57,59.43 L28.5,56 L21.3,51.86 L21.3,10.47 C21.3054007,6.42756551 24.5169715,3.13683714 28.5283752,3.00415215 L28.77,2.99999995 L60.77,2.99999995 Z M67.12,50.14 L32.88,50.14 C31.5655623,50.14 30.5,51.2055623 30.5,52.52 C30.5,53.7796695 31.4786154,54.8107711 32.7170506,54.8945093 L32.88,54.9 L67.12,54.9 C68.4344377,54.9 69.5,53.8344377 69.5,52.52 C69.5,51.2055623 68.4344377,50.14 67.12,50.14 Z M88.24,24.69 L96.14,29.16 C98.4487222,30.4720918 99.9031292,32.8858319 99.9953704,35.5262685 L100.000018,35.81 L100.000018,39.81 L88.24,46.47 L88.24,24.69 Z M11.76,24.69 L11.76,46.45 L-5.00000041e-08,39.79 L-5.00000041e-08,35.79 C0.00123280501,33.1413903 1.37515998,30.6902519 3.6165542,29.3043714 L3.85999995,29.16 L11.76,24.69 Z M67.12,40.85 L32.88,40.85 C31.5655623,40.85 30.5,41.9155623 30.5,43.23 C30.5,44.4896695 31.4786154,45.5207711 32.7170506,45.6045093 L32.88,45.61 L67.12,45.61 C68.4344377,45.61 69.5,44.5444377 69.5,43.23 C69.5,41.9155623 68.4344377,40.85 67.12,40.85 Z M67.12,31.55 L32.88,31.55 C31.6226628,31.6314582 30.6445154,32.6750269 30.6445154,33.935 C30.6445154,35.1401916 31.5394556,36.1473876 32.7176402,36.3039801 L32.88,36.32 L67.12,36.32 C68.3773372,36.2385417 69.3554846,35.1949731 69.3554846,33.935 C69.3554846,32.6750269 68.3773372,31.6314582 67.12,31.55 Z M67.12,22.26 L32.88,22.26 C31.5655623,22.26 30.5,23.3255623 30.5,24.64 C30.5,25.8996694 31.4786154,26.930771 32.7170506,27.0145093 L32.88,27.02 L67.12,27.02 C68.4344377,27.02 69.5,25.9544376 69.5,24.64 C69.5,23.3255623 68.4344377,22.26 67.12,22.26 Z M65.53,4.39999995 L77.43,16.29 L65.53,16.29 L65.53,4.39999995 Z" id="Shape" fill="#000000"></path>
    </g>
</svg>