<svg width="100" height="100" viewBox="0 0 100 100" fill="none" xmlns="http://www.w3.org/2000/svg">
<path d="M91.1529 14.1177H8.8C3.93766 14.1564 0.012744 18.1023 0 22.9647V77.0824C0.0386769 81.9447 3.98458 85.8696 8.84706 85.8824H91.2C96.065 85.8501 99.9936 81.9005 100 77.0353V22.9177C99.9677 18.0527 96.0181 14.124 91.1529 14.1177ZM94.1176 66.0824L76.5529 48.5177L94.1176 38.5765V66.0824ZM8.84706 20H91.2C92.819 20.0257 94.1176 21.3456 94.1176 22.9647V31.7647L55.0471 53.9294C51.9139 55.6946 48.0861 55.6946 44.9529 53.9294L5.88235 31.7647V22.9647C5.88235 21.3274 7.2097 20 8.84706 20ZM5.88235 38.5765L23.8 48.7177L5.88235 66.6353V38.5765ZM91.1529 80H8.8C7.18105 79.9743 5.88235 78.6545 5.88235 77.0353V74.953L29.1176 51.7647L42.0588 59.0824C46.9892 61.8579 53.0108 61.8579 57.9412 59.0824L71.2353 51.5647L94.1176 74.4V77.0353C94.1176 78.6727 92.7903 80 91.1529 80Z" fill="black"/>
</svg>
