<svg width="100" height="100" viewBox="0 0 100 100" fill="none" xmlns="http://www.w3.org/2000/svg">
<path d="M95.8824 27.6471L57.9412 6.20003C53.0108 3.42454 46.9892 3.42454 42.0588 6.20003L4.11765 27.6471C1.57447 29.0872 0.00176456 31.7833 0 34.7059V86.7177C0.00649103 91.3458 3.76013 95.0941 8.38824 95.0941H91.6118C96.2399 95.0941 99.9935 91.3458 100 86.7177V34.7059C99.9982 31.7833 98.4255 29.0872 95.8824 27.6471ZM94.1176 75.2941L76.5529 57.7294L94.1176 47.7883V75.2941ZM7.05882 32.7883L44.9529 11.3177C48.0885 9.5617 51.9115 9.5617 55.0471 11.3177L92.9412 32.7883C93.6481 33.171 94.0968 33.9023 94.1176 34.7059V41.0118L55.0471 63.153C51.9109 64.9066 48.0891 64.9066 44.9529 63.153L5.88235 41.0353V34.7059C5.90324 33.9023 6.35187 33.171 7.05882 32.7883ZM5.88235 47.7883L23.8 57.9294L5.88235 75.8824V47.7883ZM91.6118 89.2118H8.38824C7.72472 89.2149 7.0873 88.9535 6.61702 88.4855C6.14673 88.0174 5.88235 87.3812 5.88235 86.7177V84.1765L29.1176 60.9412L42.0588 68.2706C46.9928 71.0323 53.0072 71.0323 57.9412 68.2706L71.2353 60.7412L94.1176 83.6236V86.7177C94.1176 87.3812 93.8533 88.0174 93.383 88.4855C92.9127 88.9535 92.2753 89.2149 91.6118 89.2118Z" fill="black"/>
</svg>
