<?xml version="1.0" encoding="UTF-8"?>
<svg width="100px" height="100px" viewBox="0 0 100 100" version="1.1" xmlns="http://www.w3.org/2000/svg" xmlns:xlink="http://www.w3.org/1999/xlink">
    <!-- Generator: Sketch 57.1 (83088) - https://sketch.com -->
    <title>regular/mail-open-letter-regular</title>
    <desc>Created with Sketch.</desc>
    <g id="regular/mail-open-letter" stroke="none" stroke-width="1" fill="none" fill-rule="evenodd">
        <path d="M64.14,2.99999995 L78.71,17.57 L78.71,19.3 L96.14,29.16 C98.5249515,30.5154225 99.9987232,33.0467971 100,35.79 L100,88.39 C99.9944906,92.7452426 96.4652426,96.2744906 92.11,96.28 L7.88999996,96.28 C3.53475742,96.2744906 0.00550943483,92.7452426 -4.99995991e-08,88.39 L-4.99995991e-08,35.79 C0.00127683555,33.0467971 1.47504852,30.5154225 3.85999995,29.16 L21.29,19.3 L21.29,10.47 C21.2955087,6.34671682 24.6367168,3.00550869 28.76,2.99999995 L64.14,2.99999995 Z M71.59,61.36 L57.74,69.2 C52.9349733,71.9067783 47.0650267,71.9067783 42.26,69.2 L28.76,61.57 L4.75999995,85.57 L4.75999995,88.39 C4.75999995,90.1186513 6.16134869,91.52 7.88999996,91.52 L92.11,91.52 C93.8386513,91.52 95.24,90.1186513 95.24,88.39 L95.24,85 L71.59,61.36 Z M4.75999995,48 L4.75999995,78.84 L24.47,59.13 L4.75999995,48 Z M95.24,48 L75.89,58.93 L95.24,78.28 L95.24,48 Z M57,64.14 L43,64.14 L44.6,65.06 C47.947066,66.9414043 52.032934,66.9414043 55.38,65.06 L57,64.14 Z M60.76,7.75999996 L28.76,7.75999996 C27.2655858,7.7654841 26.0554841,8.97558579 26.05,10.47 L26.05,54.56 L34.57,59.38 L65.48,59.38 L74,54.56 L74,21.06 L60.77,21.06 L60.77,17.68 L32.88,17.68 C31.5655623,17.68 30.5,16.6144377 30.5,15.3 C30.5,13.9855623 31.5655623,12.92 32.88,12.92 L60.76,12.92 L60.76,7.75999996 Z M32.88,50.09 L67.12,50.09 C68.4344377,50.09 69.5000421,51.1555623 69.5000421,52.47 C69.5026725,53.1020307 69.2527815,53.708947 68.8058643,54.1558643 C68.4036388,54.5580898 67.871814,54.800724 67.3087209,54.8432958 L67.12,54.8500212 L32.88,54.8500212 C31.5655623,54.8500212 30.5,53.7844377 30.5,52.47 C30.5,51.2103305 31.4786154,50.1792289 32.7170506,50.0954907 L32.88,50.09 L67.12,50.09 L32.88,50.09 Z M21.29,24.77 L6.20999996,33.31 C5.31490615,33.8147981 4.76087935,34.7623749 4.75999995,35.79 L4.75999995,42.51 L21.29,51.86 L21.29,24.77 Z M78.71,24.77 L78.71,51.86 L95.24,42.51 L95.24,35.79 C95.2391206,34.7623749 94.6850939,33.8147981 93.79,33.31 L78.71,24.77 Z M67.12,40.8 C68.4344377,40.8 69.5000001,41.8655623 69.5000001,43.18 C69.5000001,44.4396694 68.5213846,45.4707711 67.2829494,45.5545093 L67.12,45.56 L32.88,45.56 C31.5655623,45.56 30.5000001,44.4944377 30.5000001,43.18 C30.5000001,41.9203306 31.4786154,40.8892289 32.7170506,40.8054907 L32.88,40.8 L67.12,40.8 Z M67.12,31.5 C68.3773372,31.5814582 69.3554846,32.6250269 69.3554846,33.885 C69.3554846,35.0901916 68.4605444,36.0973876 67.2823598,36.2539801 L67.12,36.27 L32.88,36.27 C31.6226628,36.1885417 30.6445154,35.1449731 30.6445154,33.885 C30.6445154,32.6798083 31.5394556,31.6726124 32.7176402,31.5160199 L32.88,31.5 L67.12,31.5 Z M67.12,22.24 C68.4344377,22.24 69.5,23.3055623 69.5,24.62 C69.5,25.8796694 68.5213846,26.910771 67.2829494,26.9945093 L67.12,27 L32.88,27 C31.5655623,27 30.5,25.9344377 30.5,24.62 C30.5,23.3603305 31.4786154,22.3292289 32.7170506,22.2454907 L32.88,22.24 L67.12,22.24 Z M65.53,11.16 L65.53,16.32 L70.7,16.32 L65.53,11.16 Z" id="Shape" fill="#000000"></path>
    </g>
</svg>