<?xml version="1.0" encoding="UTF-8"?>
<svg width="100px" height="100px" viewBox="0 0 100 100" version="1.1" xmlns="http://www.w3.org/2000/svg" xmlns:xlink="http://www.w3.org/1999/xlink">
    <!-- Generator: Sketch 57.1 (83088) - https://sketch.com -->
    <title>bold/mail-open-bold</title>
    <desc>Created with Sketch.</desc>
    <g id="bold/mail-open" stroke="none" stroke-width="1" fill="none" fill-rule="evenodd">
        <path d="M95.16,27 L58.51,6.22999996 C53.2305138,3.26755316 46.7894862,3.26755316 41.51,6.22999996 L4.83999995,27 C1.8588397,28.6877145 0.0114670785,31.8442789 -4.9999997e-08,35.27 L-4.9999997e-08,81.85 L-4.9999997e-08,81.85 L-4.9999997e-08,85.48 C0.011002683,90.8878266 4.39217344,95.2689973 9.79999996,95.28 L90.2,95.28 C95.6078266,95.2689973 99.9889973,90.8878266 100.000017,85.48 L100.000017,81.32 L100.000017,81.32 L100.000017,35.32 C100.006529,31.8763915 98.1567075,28.6965335 95.16,27 Z M9.08999996,50.81 L21.91,58.07 L9.08999996,70.88 L9.08999996,50.81 Z M90.91,85.49 C90.91,85.8821222 90.5921222,86.2 90.2,86.2 L9.79999996,86.2 C9.40787779,86.2 9.08999996,85.8821222 9.08999996,85.49 L9.08999996,83.74 L30.09,62.74 L41.46,69.18 C46.7384617,72.1463637 53.1815383,72.1463637 58.46,69.18 L70.18,62.55 L90.91,83.2 L90.91,85.49 Z M90.91,70.34 L78.44,57.87 L90.91,50.81 L90.91,70.34 Z M90.91,40.34 L54,61.24 C51.4982093,62.6495392 48.4417907,62.6495392 45.94,61.24 L9.08999996,40.37 L9.08999996,35.27 C9.08999996,35.1104761 9.17878124,34.964197 9.31999996,34.89 L46,14.14 C48.5007522,12.7265077 51.5592478,12.7265077 54.06,14.14 L90.68,34.89 L90.68,34.89 C90.8212188,34.964197 90.91,35.1104761 90.91,35.27 L90.91,40.34 Z" id="mail-open" fill="#000000"></path>
    </g>
</svg>