<?xml version="1.0" encoding="UTF-8"?>
<svg width="100px" height="100px" viewBox="0 0 100 100" version="1.1" xmlns="http://www.w3.org/2000/svg" xmlns:xlink="http://www.w3.org/1999/xlink">
    <!-- Generator: Sketch 57.1 (83088) - https://sketch.com -->
    <title>regular/map-pin-regular</title>
    <desc>Created with Sketch.</desc>
    <g id="regular/map-pin" stroke="none" stroke-width="1" fill="none" fill-rule="evenodd">
        <path d="M96.82,26.65 L96.82,94.18 L64.59,99.59 L34.73,94.59 L2.49999995,100 L2.49999995,32.46 L27.57,28.25 C27.9543959,29.8006129 28.4217346,31.3294782 28.97,32.83 L7.23999996,36.47 L7.23999996,94.4 L32.36,90.18 L32.36,40.45 C33.64,42.9 35,45.16 36.28,47.16 L37.1,48.4 L37.1,90.18 L62.22,94.4 L62.22,48.4 C62.49,47.99 62.76,47.59 63.03,47.16 C64.32,45.17 65.68,42.9 66.96,40.45 L66.96,94.4 L91.98,90.18 L91.98,32.27 L68.98,36.14 C69.7340924,34.4619815 70.4016357,32.7463952 70.98,31 L96.82,26.65 Z M49.66,2.58603031e-07 C61.0978171,2.58603031e-07 70.37,9.27218291 70.37,20.71 C70.37,29.6 65.3,39.3 61.04,45.87 C59.0660347,48.9266143 56.9192099,51.8680648 54.61,54.68 C51.3336735,58.6510204 50.7012453,58.8941441 49.8335642,58.9090292 L49.4815797,58.9090292 C48.5923157,58.8941441 47.9863265,58.6510204 44.71,54.68 C42.4001444,51.8661733 40.2500943,48.924878 38.27,45.87 C34.02,39.3 28.95,29.6 28.95,20.71 C28.95,9.27218291 38.2221829,2.58603031e-07 49.66,2.58603031e-07 Z M49.66,4.73999995 C40.823444,4.73999995 33.66,11.903444 33.66,20.74 C33.66,33.2 45.45,48.46 49.66,53.21 C53.84,48.46 65.66,33.21 65.66,20.74 C65.66,11.903444 58.496556,4.73999995 49.66,4.73999995 Z M53.4171185,11.6088338 C57.0990391,13.1328388 59.5,16.7251373 59.5,20.71 C59.4945002,26.1438227 55.0938143,30.5489808 49.66,30.5600102 C45.6751394,30.5640455 42.080404,28.1667367 40.5526598,24.486366 C39.0249157,20.8059953 39.8651697,16.5676956 42.6814618,13.7485415 C45.4977538,10.9293874 49.7351979,10.0848287 53.4171185,11.6088338 Z M49.66,15.6099803 C47.5913835,15.6059557 45.7243937,16.8494825 44.9308992,18.7598639 C44.1374046,20.6702453 44.5739586,22.8705703 46.0366941,24.3333059 C47.4994297,25.7960414 49.6997547,26.2325954 51.6101361,25.4391008 C53.5205174,24.6456062 54.7640442,22.7786165 54.7600196,20.71 C54.7544978,17.89563 52.47437,15.6155022 49.66,15.6099803 Z" id="Shape" fill="#000000"></path>
    </g>
</svg>