<?xml version="1.0" encoding="UTF-8"?>
<svg width="100px" height="100px" viewBox="0 0 100 100" version="1.1" xmlns="http://www.w3.org/2000/svg" xmlns:xlink="http://www.w3.org/1999/xlink">
    <!-- Generator: Sketch 57.1 (83088) - https://sketch.com -->
    <title>solid/map-pin-solid</title>
    <desc>Created with Sketch.</desc>
    <g id="solid/map-pin" stroke="none" stroke-width="1" fill="none" fill-rule="evenodd">
        <path d="M20.52,29.48 C22.07,36.17 25.31,43.4 30.31,51.07 C30.7766666,51.7366667 31.2344444,52.4033333 31.6862963,53.07 L32.36,54.07 L32.38,95 L2.51999995,100 L2.51999995,32.48 L20.52,29.48 Z M62.22,60.35 L62.22,99.2 L37.1,95 L37.1,60.35 L37.4,60.72 C40.5,64.49 43.73,68.39 49.66,68.39 C55.4638298,68.39 58.6621729,64.654192 61.7207035,60.960776 L61.92,60.72 L62.22,60.35 Z M96.86,26.65 L96.86,94.2 L67,99.2 L67,54 C67.62,53.08 68.31,52.07 69,51 C73.7516129,43.6935484 76.9485952,36.7710718 78.5818838,30.3322648 L78.74,29.69 L96.86,26.65 Z M49.66,-4.9999997e-08 C61.0932472,0.0110252684 70.3589747,9.27675274 70.37,20.71 C70.37,29.6 65.3,39.3 61.04,45.87 C59.0666676,48.9295298 56.9163401,51.8712045 54.6,54.68 C51.12,58.91 50.61,58.91 49.66,58.91 C48.71,58.91 48.2,58.91 44.71,54.68 C42.4001444,51.8661733 40.2500943,48.924878 38.27,45.87 C34.02,39.3 28.94,29.6 28.94,20.71 C28.956535,9.27513533 38.2251287,0.011014877 49.66,-4.9999997e-08 L49.66,-4.9999997e-08 Z M52.5101576,13.7984295 C49.7138453,12.641256 46.4957808,13.283048 44.3573046,15.424387 C42.2188283,17.565726 41.581342,20.7846462 42.7422553,23.5794079 C43.9031687,26.3741697 46.6337157,28.1940458 49.66,28.1900134 C53.7871842,28.1844823 57.13,24.8371878 57.13,20.71 C57.13,17.6837129 55.3064699,14.955603 52.5101576,13.7984295 Z" id="Shape" fill="#000000"></path>
    </g>
</svg>