<svg width="100" height="100" viewBox="0 0 100 100" fill="none" xmlns="http://www.w3.org/2000/svg">
<path fill-rule="evenodd" clip-rule="evenodd" d="M88.8887 43.5695C88.8887 30.3405 78.1077 19.5585 64.8437 19.5585C60.1207 19.5585 55.4867 20.9825 51.5627 23.5695C64.0797 33.8645 64.2707 53.3435 51.5627 63.5875C55.4867 66.1905 60.1567 67.5965 64.8437 67.5965C78.1077 67.6145 88.8887 56.8505 88.8887 43.5695ZM88.1247 57.5455H87.8817L87.6047 58.1525L87.3267 57.5455H87.0827V58.4825H87.2227V57.7705L87.4997 58.3785H87.6917L87.9337 57.7705V58.4825H88.1247V57.5455ZM87.5697 79.1945C87.5697 79.1075 87.5697 79.0035 87.5177 78.9175C87.4647 78.8645 87.4307 78.7775 87.3787 78.7255C87.3267 78.6735 87.2397 78.6385 87.1877 78.5875C87.1007 78.5875 86.9957 78.5345 86.9097 78.5345C86.8577 78.5345 86.7707 78.5875 86.6667 78.5875C86.5797 78.6385 86.5277 78.6735 86.4757 78.7255C86.3887 78.7775 86.3367 78.8645 86.3367 78.9175C86.2847 79.0035 86.2847 79.1075 86.2847 79.1945C86.2847 79.2465 86.2847 79.3335 86.3367 79.4375C86.3367 79.4895 86.3887 79.5765 86.4757 79.6285C86.5277 79.6805 86.5627 79.7155 86.6667 79.7675C86.7537 79.8195 86.8577 79.8195 86.9097 79.8195C86.9957 79.8195 87.1007 79.8195 87.1877 79.7675C87.2397 79.7155 87.3267 79.6805 87.3787 79.6285C87.4307 79.5765 87.4647 79.4895 87.5177 79.4375C87.5697 79.3335 87.5697 79.2465 87.5697 79.1945ZM86.4237 57.7015V58.5005H86.5627V57.7015H86.8927V57.5625H86.0937V57.7015H86.4237ZM85.1047 70.7395H83.7327V74.0905C82.3087 72.1985 78.5417 73.2055 78.5417 76.5035C78.5417 79.8715 82.4487 80.7745 83.7327 78.9175V79.7155H85.1047V70.7395ZM78.1077 73.3265C77.6917 73.1185 76.1987 72.8235 75.4687 74.0905V73.3265H74.0977V79.6985H75.4687V76.1045C75.4687 74.1945 77.0317 74.3165 77.6917 74.6455L78.1077 73.3265ZM72.2567 73.3265H70.8327V74.0905C69.3927 72.1805 65.6427 73.2565 65.6427 76.5035C65.6427 79.8375 69.5317 80.7925 70.8327 78.9175V79.7155H72.2567V73.3265ZM60.6767 76.5035C60.6767 74.5245 62.6917 73.8815 64.2707 75.0455L64.9307 73.9175C62.9167 72.3375 59.2537 73.2055 59.2537 76.5205C59.2537 79.9585 63.1427 80.6525 64.9307 79.1255L64.2707 77.9965C62.6737 79.1255 60.6767 78.4485 60.6767 76.5035ZM58.8367 73.3265C58.0377 72.9795 56.8237 73.0135 56.1987 74.0905V73.3265H54.7747V79.6985H56.1987V76.1045C56.1987 74.0905 57.8477 74.3505 58.4197 74.6455L58.8367 73.3265ZM48.5757 77.0585H53.3507C53.3507 74.2465 52.0667 73.1355 50.3297 73.1355C48.4897 73.1355 47.1697 74.5065 47.1697 76.4865C47.1697 80.0455 51.0937 80.6355 53.0377 78.9515L52.3787 77.9095C51.0247 79.0205 48.9757 78.9175 48.5757 77.0585ZM46.2677 79.3855L45.8857 78.2055C45.2257 78.5695 43.7677 78.9685 43.7677 77.4935V74.6115H46.0417V73.3265H43.7677V71.3815H42.3437V73.3265H41.0247V74.5935H42.3437V77.4935C42.3437 80.5485 45.3467 79.9935 46.2677 79.3855ZM40.1217 77.7705C40.1217 75.1675 36.1457 76.3465 36.1457 75.1315C36.1457 74.1425 38.2117 74.2985 39.3577 74.9405L39.9307 73.8125C38.2987 72.7535 34.6877 72.7705 34.6877 75.2365C34.6877 77.7185 38.6627 76.6765 38.6627 77.8405C38.6627 78.9335 36.3197 78.8465 35.0697 77.9795L34.4617 79.0735C36.4067 80.3925 40.1217 80.1145 40.1217 77.7705ZM33.0907 73.3265H31.7187V74.0905C31.2497 73.5175 30.5907 73.1525 29.6877 73.1525C27.8997 73.1525 26.5277 74.5765 26.5277 76.5035C26.5277 78.4485 27.8997 79.8545 29.6877 79.8545C30.5907 79.8545 31.2497 79.5245 31.7187 78.9175V79.7155H33.0907V73.3265ZM25.2947 75.7055C25.2947 74.1945 24.3057 73.2055 22.7427 73.1525C21.9447 73.1525 21.0937 73.3955 20.5207 74.2815C20.1037 73.5695 19.3927 73.1525 18.4027 73.1525C17.7427 73.1525 17.0837 73.3955 16.5627 74.0905V73.3265H15.1387V79.6985H16.5627C16.5627 76.4175 16.1287 74.4555 18.1247 74.4555C19.8957 74.4555 19.5487 76.2255 19.5487 79.6985H20.9197C20.9197 76.5205 20.4867 74.4555 22.4827 74.4555C24.2537 74.4555 23.9067 76.1905 23.9067 79.6985H25.3297V75.7055H25.2947ZM49.9997 62.4585C62.2397 52.9105 62.1877 34.2985 49.9997 24.6985C37.8127 34.2985 37.7607 52.9265 49.9997 62.4585ZM11.1117 43.5695C11.1117 56.8505 21.8927 67.6145 35.1567 67.6145C39.8787 67.6145 44.5137 66.1905 48.4377 63.6045C35.7817 53.3085 35.8677 33.8815 48.4377 23.5875C44.5137 20.9825 39.8787 19.5765 35.1567 19.5765C21.8927 19.5585 11.1117 30.3405 11.1117 43.5695ZM99.9997 19.3335V80.4445C99.9997 85.0455 96.2677 88.7775 91.6667 88.7775H8.3337C3.7327 88.7775 -0.0003 85.0455 -0.0003 80.4445V19.3335C-0.0003 14.7325 3.7327 11.0005 8.3337 11.0005H91.6667C96.2677 11.0005 99.9997 14.7325 99.9997 19.3335ZM86.9957 79.2465C87.0827 79.2465 87.0827 79.1945 87.1357 79.1945C87.1877 79.1425 87.1877 79.1075 87.1877 79.0555C87.1877 79.0045 87.1877 78.9685 87.1357 78.9175C87.0827 78.9175 87.0487 78.8645 86.9447 78.8645H86.6667V79.4725H86.8057V79.2295H86.8577L87.0487 79.4715H87.1877L86.9957 79.2465ZM87.3787 79.0035C87.3787 79.0555 87.4307 79.0905 87.4307 79.1945C87.4307 79.2465 87.3787 79.2815 87.3787 79.3855C87.3267 79.4375 87.3267 79.4715 87.2917 79.5245C87.2397 79.5765 87.2047 79.6115 87.1007 79.6115C87.0487 79.6635 87.0137 79.6635 86.9097 79.6635C86.8577 79.6635 86.8237 79.6635 86.7187 79.6115C86.6667 79.6115 86.6317 79.5585 86.5797 79.5245C86.5277 79.4715 86.4927 79.4375 86.4927 79.3855C86.4417 79.2985 86.4417 79.2465 86.4417 79.1945C86.4417 79.1075 86.4417 79.0555 86.4927 79.0035C86.4927 78.9175 86.5447 78.8645 86.5797 78.8125C86.6317 78.7605 86.6667 78.7605 86.7187 78.7255C86.8057 78.6735 86.8577 78.6735 86.9097 78.6735C86.9957 78.6735 87.0487 78.6735 87.1007 78.7255C87.1877 78.7775 87.2397 78.7775 87.2917 78.8125C87.3437 78.8465 87.3267 78.9175 87.3787 79.0035ZM68.9927 74.4715C67.8127 74.4715 67.1007 75.3755 67.1007 76.5035C67.1007 77.6325 67.8127 78.5345 68.9927 78.5345C70.1737 78.5345 70.9377 77.6835 70.9377 76.5035C70.9377 75.3755 70.1737 74.4715 68.9927 74.4715ZM50.2777 74.4205C49.3407 74.4205 48.7677 75.0275 48.6287 75.9305H51.9447C51.7877 74.9405 51.1807 74.4205 50.2777 74.4205ZM29.8787 74.4715C28.6457 74.4715 27.9337 75.3755 27.9337 76.5035C27.9337 77.6325 28.6457 78.5345 29.8787 78.5345C31.0067 78.5345 31.7707 77.6835 31.7707 76.5035C31.7537 75.3755 31.0067 74.4715 29.8787 74.4715ZM83.8367 76.5035C83.8367 77.6835 83.0377 78.5345 81.8927 78.5345C80.7117 78.5345 79.9487 77.6325 79.9487 76.5035C79.9487 75.3755 80.7117 74.4715 81.8927 74.4715C83.0377 74.4715 83.8367 75.3755 83.8367 76.5035Z" fill="black"/>
</svg>
