<svg width="100" height="100" viewBox="0 0 100 100" fill="none" xmlns="http://www.w3.org/2000/svg">
<path fill-rule="evenodd" clip-rule="evenodd" d="M99.0953 87.6835C99.2038 87.6847 99.3112 87.7027 99.4127 87.7425C99.5137 87.7835 99.6057 87.8435 99.6837 87.9175C99.7617 87.9935 99.8237 88.0825 99.8687 88.1805C99.9587 88.3875 99.9587 88.6215 99.8687 88.8285C99.8237 88.9265 99.7617 89.0165 99.6837 89.0915C99.6057 89.1655 99.5137 89.2255 99.4127 89.2665C99.3077 89.3135 99.1947 89.3365 99.0807 89.3365C98.7417 89.3335 98.4337 89.1365 98.2927 88.8285C98.2037 88.6215 98.2037 88.3875 98.2927 88.1805C98.3367 88.0825 98.3987 87.9935 98.4757 87.9175C98.5557 87.8435 98.6467 87.7835 98.7477 87.7425C98.8567 87.6985 98.9747 87.6805 99.0937 87.6835L99.0953 87.6835C99.0947 87.6836 99.0942 87.6835 99.0936 87.6834C99.0886 87.6834 99.0846 87.6814 99.0806 87.6814H99.1066C99.1023 87.6814 99.0988 87.6836 99.0953 87.6836V87.6835ZM48.1456 83.9773H52.5246C52.5246 83.9763 52.5236 83.9763 52.5236 83.9763C52.4996 82.8303 51.5516 81.9203 50.4056 81.9453H50.3706C49.1996 81.9053 48.2116 82.8073 48.1456 83.9773ZM50.4316 80.3333C52.7786 80.3333 54.4076 82.0853 54.4076 84.7123V85.4133H48.1896C48.3316 86.6623 49.4416 87.5703 50.6936 87.4623C51.5806 87.4503 52.4376 87.1413 53.1286 86.5863L54.0046 87.9353C53.0266 88.7333 51.7876 89.1383 50.5276 89.0743C48.1096 89.1083 46.1216 87.1743 46.0876 84.7563C46.0536 82.3373 47.9866 80.3503 50.4056 80.3163L50.4316 80.3333ZM60.275 80.3161L60.24 80.2811C60.682 80.2831 61.12 80.3601 61.536 80.5081L60.975 82.2601C60.614 82.1161 60.227 82.0451 59.838 82.0501C58.681 82.0501 58.086 82.8211 58.086 84.2051V88.8991H56.264V80.5261H58.068V81.5431C58.524 80.7601 59.371 80.2901 60.275 80.3161ZM23.5631 87.3923C24.8971 87.3853 25.9981 86.3433 26.0761 85.0103C26.1581 83.6153 25.0941 82.4163 23.6991 82.3343C22.3031 82.2523 21.1051 83.3173 21.0231 84.7123H21.0051C21.0001 84.7853 20.9991 84.8573 21.0001 84.9283C21.0281 86.3173 22.1751 87.4193 23.5631 87.3923ZM25.9801 81.5423V80.5263H27.8011V88.8643H25.9801V87.8483C25.3531 88.6553 24.3751 89.1123 23.3531 89.0743C20.9341 89.0743 18.9741 87.1133 18.9741 84.6953C18.9741 82.2773 20.9341 80.3163 23.3531 80.3163C24.3751 80.2793 25.3531 80.7353 25.9801 81.5423ZM14.6339 80.3181C16.3519 80.4371 17.6479 81.9261 17.5289 83.6441V88.8991L15.6899 88.9341V84.2751C15.6899 82.8561 15.0939 82.0681 13.8509 82.0681C13.7329 82.0621 13.6149 82.0671 13.4989 82.0821C12.4199 82.2231 11.6599 83.2141 11.8009 84.2931V88.9341H9.9619V84.2751C9.9619 82.8561 9.3489 82.0681 8.1409 82.0681C8.0169 82.0611 7.8919 82.0661 7.7689 82.0831C6.6959 82.2291 5.9449 83.2181 6.0919 84.2931V88.8991H4.2519V80.5261H6.0739V81.5601C6.6129 80.7401 7.5459 80.2661 8.5259 80.3161C9.6519 80.2681 10.7139 80.8391 11.2939 81.8051C11.9289 80.8091 13.0569 80.2391 14.2359 80.3161C14.3689 80.3081 14.5019 80.3092 14.6339 80.3181ZM34.0543 83.8718C35.8763 84.1348 36.9793 84.7828 36.9793 86.3768C36.9793 87.9708 35.5783 89.1088 33.1613 89.1088C31.8673 89.1438 30.5963 88.7648 29.5353 88.0228L30.4113 86.6038C31.2153 87.2008 32.1963 87.5098 33.1963 87.4798C34.4403 87.4798 35.1053 87.1118 35.1053 86.4648C35.1053 85.9908 34.6323 85.7278 33.6343 85.5888L32.7583 85.4658C30.8843 85.2028 29.8683 84.3618 29.8683 82.9958C29.8683 81.3318 31.2523 80.3158 33.3713 80.3158C34.5703 80.2748 35.7563 80.5788 36.7863 81.1918L35.9813 82.6638C35.1813 82.2028 34.2773 81.9558 33.3543 81.9448C32.3553 81.9448 31.7603 82.3658 31.7603 82.9268C31.7603 83.4858 32.3903 83.6438 33.1793 83.7498L34.0543 83.8718ZM42.9874 87.4099C43.5554 87.3909 44.1104 87.2279 44.5984 86.9369L45.1244 88.4959C44.4414 88.9219 43.6524 89.1469 42.8474 89.1439C40.6934 89.1439 39.9394 87.9879 39.9394 86.0439V82.1899H38.2404V80.5259H39.9044V77.9869H41.7434V80.5259H44.7384L44.7564 82.1899H41.7794V86.0089C41.7794 86.8489 42.1114 87.4099 42.9874 87.4099ZM98.94 88.4782H99.132C99.168 88.4892 99.204 88.4892 99.238 88.4782C99.251 88.4542 99.251 88.4242 99.238 88.3992C99.251 88.3742 99.251 88.3452 99.238 88.3212C99.204 88.3102 99.168 88.3102 99.132 88.3212L98.94 88.2682V88.4782ZM99.378 88.5312C99.328 88.5772 99.262 88.6052 99.194 88.6102L99.448 88.8992H99.247L99.01 88.6102H98.931V88.8992H98.765V88.1272L99.132 88.1202C99.214 88.1152 99.295 88.1402 99.361 88.1892C99.415 88.2342 99.444 88.3022 99.439 88.3742C99.442 88.4322 99.419 88.4892 99.378 88.5312ZM91.8463 87.3923C93.1813 87.3853 94.2823 86.3433 94.3603 85.0103C94.4423 83.6153 93.3773 82.4163 91.9823 82.3343C90.5863 82.2523 89.3893 83.3173 89.3073 84.7123C89.3023 84.7793 89.3003 84.8443 89.3013 84.9113C89.3193 86.2983 90.4583 87.4103 91.8463 87.3923ZM94.2893 81.5423V77.1633H96.0413V88.8643H94.2893V87.8483C93.6623 88.6553 92.6843 89.1123 91.6623 89.0743C89.2433 89.0743 87.2843 87.1133 87.2843 84.6953C87.2843 82.2773 89.2433 80.3163 91.6623 80.3163C92.6843 80.2793 93.6623 80.7353 94.2893 81.5423ZM66.5191 81.9978C65.2061 82.1038 64.1631 83.1468 64.0561 84.4608C63.9361 85.9408 65.0401 87.2378 66.5191 87.3568C67.3111 87.3488 68.0791 87.0848 68.7081 86.6038L69.5841 88.0758C68.7411 88.7728 67.6651 89.1298 66.5721 89.0738C66.4401 89.0818 66.3081 89.0828 66.1771 89.0778C63.8421 88.9918 62.0191 87.0298 62.1051 84.6948V84.6598C62.1001 84.5278 62.1021 84.3958 62.1091 84.2658C62.2421 81.9328 64.2401 80.1488 66.5721 80.2808C67.6651 80.2258 68.7411 80.5818 69.5841 81.2798L68.7081 82.7508C68.0791 82.2698 67.3111 82.0068 66.5191 81.9978ZM99.5357 88.9685C99.7637 88.7215 99.7637 88.3405 99.5357 88.0935C99.4777 88.0335 99.4097 87.9865 99.3347 87.9525C99.2547 87.9175 99.1677 87.9005 99.0807 87.9005C98.9927 87.9015 98.9067 87.9185 98.8267 87.9525C98.7477 87.9855 98.6767 88.0325 98.6157 88.0935C98.3897 88.3405 98.3897 88.7215 98.6157 88.9685C98.6767 89.0295 98.7477 89.0765 98.8267 89.1095C98.9107 89.1455 99.0017 89.1595 99.0937 89.1585C99.1757 89.1575 99.2587 89.1425 99.3347 89.1095C99.4097 89.0745 99.4777 89.0285 99.5357 88.9685ZM74.9263 87.3747C76.2613 87.3677 77.3623 86.3257 77.4403 84.9927C77.5223 83.5977 76.4573 82.3997 75.0623 82.3167C73.6663 82.2347 72.4693 83.2997 72.3873 84.6947C72.3823 84.7617 72.3803 84.8267 72.3813 84.8937C72.3993 86.2817 73.5383 87.3927 74.9263 87.3747ZM77.3433 81.5427V80.5257H79.1653V88.8637H77.3433V87.8487C76.7163 88.6547 75.7383 89.1117 74.7163 89.0737C72.2983 89.0737 70.3373 87.1127 70.3373 84.6947C70.3373 82.2767 72.2983 80.3157 74.7163 80.3157C75.7383 80.2787 76.7163 80.7347 77.3433 81.5427ZM85.5758 80.3161L85.5408 80.2811C85.9828 80.2831 86.4218 80.3601 86.8378 80.5081L86.2768 82.2601C85.9148 82.1161 85.5278 82.0451 85.1388 82.0501C83.9818 82.0501 83.3868 82.8211 83.3868 84.2051V88.8991H81.5648V80.5261H83.3688V81.5431C83.8248 80.7601 84.6718 80.2901 85.5758 80.3161ZM99.6841 59.823H99.9991V61.05L99.8161 61.058V60.13L99.4741 60.927H99.2381L98.8961 60.13V61.05H98.6681V59.823H98.9491L99.3171 60.699L99.6841 59.823ZM98.3883 59.823V60.034H97.9773V61.05H97.7923V60.034H97.3463V59.823H98.3883ZM56.0855 21.404C54.7645 19.722 53.2685 18.18 51.6425 16.79C56.8635 13.018 63.0195 11 69.4005 11C70.6235 11 71.8555 11.073 73.0875 11.22C81.1785 12.189 88.4075 16.25 93.4435 22.656C97.6515 28.009 99.9695 34.705 99.9695 41.519C99.9695 49.669 96.7955 57.329 91.0325 63.092C85.2715 68.853 77.6105 72.026 69.4625 72.026H69.4605C63.0815 72.026 56.8185 69.964 51.6485 66.243C64.8275 54.979 66.8945 35.158 56.0855 21.404ZM11.6441 65.5017C-1.5819 55.1067 -3.8859 35.8917 6.5081 22.6647C12.5191 15.0167 21.4791 11.0207 30.5271 11.0207C36.7241 11.0207 42.9491 12.9287 48.3061 16.7897C41.0441 22.9837 36.9041 31.9167 36.9141 41.5187C36.9061 51.1207 41.0471 60.0517 48.3061 66.2417C37.2911 74.1847 22.4041 73.9567 11.6441 65.5017ZM38.9542 41.5183C38.9452 32.3683 42.9562 23.8683 49.9752 18.0543C51.6312 19.4303 53.1502 20.9713 54.4812 22.6643C64.7042 35.6753 62.6352 54.4743 49.9772 64.9793C42.9602 59.1683 38.9472 50.6703 38.9542 41.5183Z" fill="black"/>
</svg>
