<?xml version="1.0" encoding="UTF-8"?>
<svg width="100px" height="100px" viewBox="0 0 100 100" version="1.1" xmlns="http://www.w3.org/2000/svg" xmlns:xlink="http://www.w3.org/1999/xlink">
    <!-- Generator: Sketch 57.1 (83088) - https://sketch.com -->
    <title>brand/mastercard-card-brand</title>
    <desc>Created with Sketch.</desc>
    <g id="brand/mastercard-card" stroke="none" stroke-width="1" fill="none" fill-rule="evenodd">
        <path d="M88.8887,43.5694 C88.8887,30.3404 78.1077,19.5584 64.8437,19.5584 C60.1207,19.5584 55.4867,20.9824 51.5627,23.5694 C64.0797,33.8644 64.2707,53.3434 51.5627,63.5874 C55.4867,66.1904 60.1567,67.5964225 64.8437,67.5964225 C78.1077,67.6144 88.8887,56.8504 88.8887,43.5694 L88.8887,43.5694 Z M88.1247,57.5454 L87.8817,57.5454 L87.6047,58.1524 L87.3267,57.5454 L87.0827,57.5454 L87.0827,58.4824 L87.2227,58.4824 L87.2227,57.7704 L87.4997,58.3784 L87.6917,58.3784 L87.9337,57.7704 L87.9337,58.4824 L88.1247,58.4824 L88.1247,57.5454 Z M87.5697,79.1944 C87.5697,79.1074 87.5697,79.0034 87.5177,78.9174 C87.4647,78.8644 87.4307,78.7774 87.3787,78.7254 C87.3267,78.6734 87.2397,78.6384 87.1877,78.5874 C87.1007,78.5874 86.9957,78.5344 86.9097,78.5344 C86.8577,78.5344 86.7707,78.5874 86.6667,78.5874 C86.5797,78.6384 86.5277,78.6734 86.4757,78.7254 C86.3887,78.7774 86.3367,78.8644 86.3367,78.9174 C86.2847,79.0034 86.2847,79.1074 86.2847,79.1944 C86.2847,79.2464 86.2847,79.3334 86.3367,79.4374 C86.3367,79.4894 86.3887,79.5764 86.4757,79.6284 C86.5277,79.6804 86.5627,79.7154 86.6667,79.7674 C86.7537,79.8194 86.8577,79.8194 86.9097,79.8194 C86.9957,79.8194 87.1007,79.8194 87.1877,79.7674 C87.2397,79.7154 87.3267,79.6804 87.3787,79.6284 C87.4307,79.5764 87.4647,79.4894 87.5177,79.4374 C87.5697,79.3334 87.5697,79.2464 87.5697,79.1944 L87.5697,79.1944 Z M86.4237,57.7014 L86.4237,58.5004 L86.5627,58.5004 L86.5627,57.7014 L86.8927,57.7014 L86.8927,57.5624 L86.0937,57.5624 L86.0937,57.7014 L86.4237,57.7014 Z M85.1047,70.7394 L83.7327,70.7394 L83.7327,74.0904 C82.3087,72.1984 78.5417,73.2054 78.5417,76.5034 C78.5417,79.8714 82.4487,80.7744 83.7327,78.9174 L83.7327,79.7154 L85.1047,79.7154 L85.1047,70.7394 Z M78.1077,73.3264 C77.6917,73.1184 76.1987,72.8234 75.4687,74.0904 L75.4687,73.3264 L74.0977,73.3264 L74.0977,79.6984 L75.4687,79.6984 L75.4687,76.1044 C75.4687,74.1944 77.0317,74.3164 77.6917,74.6454 L78.1077,73.3264 Z M72.2567,73.3264 L70.8327,73.3264 L70.8327,74.0904 C69.3927,72.1804 65.6427,73.2564 65.6427,76.5034 C65.6427,79.8374 69.5317,80.7924 70.8327,78.9174 L70.8327,79.7154 L72.2567,79.7154 L72.2567,73.3264 Z M60.6767,76.5034 C60.6767,74.5244 62.6917,73.8814 64.2707,75.0454 L64.9307,73.9174 C62.9167,72.3374 59.2537,73.2054 59.2537,76.5204 C59.2537,79.9584 63.1427,80.6524 64.9307,79.1254 L64.2707,77.9964 C62.6737,79.1254 60.6767,78.4484 60.6767,76.5034 L60.6767,76.5034 Z M58.8367,73.3264 C58.0377,72.9794 56.8237,73.0134 56.1987,74.0904 L56.1987,73.3264 L54.7747,73.3264 L54.7747,79.6984 L56.1987,79.6984 L56.1987,76.1044 C56.1987,74.0904 57.8477,74.3504 58.4197,74.6454 L58.8367,73.3264 Z M48.5757,77.0584 L53.3507,77.0584 C53.3507,74.2464 52.0667,73.1354 50.3297,73.1354 C48.4897,73.1354 47.1697,74.5064 47.1697,76.4864 C47.1697,80.0454 51.0937,80.6354 53.0377,78.9514 L52.3787,77.9094 C51.0247,79.0204 48.9757,78.9174 48.5757,77.0584 L48.5757,77.0584 Z M46.2677,79.3854 L45.8857,78.2054 C45.2257,78.5694 43.7677,78.9684 43.7677,77.4934 L43.7677,74.6114 L46.0417,74.6114 L46.0417,73.3264 L43.7677,73.3264 L43.7677,71.3814 L42.3437,71.3814 L42.3437,73.3264 L41.0247,73.3264 L41.0247,74.5934 L42.3437,74.5934 L42.3437,77.4934 C42.3437,80.5484 45.3467,79.9934 46.2677,79.3854 L46.2677,79.3854 Z M40.1217,77.7704 C40.1217,75.1674 36.1457,76.3464 36.1457,75.1314 C36.1457,74.1424 38.2117,74.2984 39.3577,74.9404 L39.9307,73.8124 C38.2987,72.7534 34.6877,72.7704 34.6877,75.2364 C34.6877,77.7184 38.6627,76.6764 38.6627,77.8404 C38.6627,78.9334 36.3197,78.8464 35.0697,77.9794 L34.4617,79.0734 C36.4067,80.3924 40.1217,80.1144 40.1217,77.7704 L40.1217,77.7704 Z M33.0907,73.3264 L31.7187,73.3264 L31.7187,74.0904 C31.2497,73.5174 30.5907,73.1524 29.6877,73.1524 C27.8997,73.1524 26.5277,74.5764 26.5277,76.5034 C26.5277,78.4484 27.8997,79.8544 29.6877,79.8544 C30.5907,79.8544 31.2497,79.5244 31.7187,78.9174 L31.7187,79.7154 L33.0907,79.7154 L33.0907,73.3264 Z M25.2947,75.7054 C25.2947,74.1944 24.3057,73.2054 22.7427,73.1524 C21.9447,73.1524 21.0937,73.3954 20.5207,74.2814 C20.1037,73.5694 19.3927,73.1524 18.4027,73.1524 C17.7427,73.1524 17.0837,73.3954 16.5627,74.0904 L16.5627,73.3264 L15.1387,73.3264 L15.1387,79.6984 L16.5627,79.6984 C16.5627,76.4174 16.1287,74.4554 18.1247,74.4554 C19.8957,74.4554 19.5487,76.2254 19.5487,79.6984 L20.9197,79.6984 C20.9197,76.5204 20.4867,74.4554 22.4827,74.4554 C24.2537,74.4554 23.9067,76.1904 23.9067,79.6984 L25.3297,79.6984 L25.3297,75.7054 L25.2947,75.7054 Z M49.9997,62.4584 C62.2397,52.9104 62.1877,34.2984 49.9997,24.6984 C37.8127,34.2984 37.7607,52.9264 49.9997,62.4584 L49.9997,62.4584 Z M11.1117,43.5694 C11.1117,56.8504 21.8927,67.6144 35.1567,67.6144 C39.8787,67.6144 44.5137,66.1904 48.4377,63.6044 C35.7817,53.3084 35.8677,33.8814 48.4377,23.5874 C44.5137,20.9824 39.8787,19.5763775 35.1567,19.5763775 C21.8927,19.5584 11.1117,30.3404 11.1117,43.5694 L11.1117,43.5694 Z M99.9997,19.3334 L99.9997,80.4444 C99.9997,85.0454 96.2677,88.7774 91.6667,88.7774 L8.3337,88.7774 C3.7327,88.7774 -0.0003,85.0454 -0.0003,80.4444 L-0.0003,19.3334 C-0.0003,14.7324 3.7327,11.0004 8.3337,11.0004 L91.6667,11.0004 C96.2677,11.0004 99.9997,14.7324 99.9997,19.3334 L99.9997,19.3334 Z M86.9957,79.2464 C87.0827,79.2464 87.0827,79.1944 87.1357,79.1944 C87.1877,79.1424 87.1877,79.1074 87.1877,79.0554 C87.1877,79.0044 87.1877,78.9684 87.1357,78.9174 C87.0827,78.9174 87.0487,78.8644 86.9447,78.8644 L86.6667,78.8644 L86.6667,79.4724 L86.8057,79.4724 L86.8057,79.2294 L86.8577,79.2294 L87.0487,79.4714 L87.1877,79.4714 L86.9957,79.2464 Z M87.3787,79.0034 C87.3787,79.0554 87.4307,79.0904 87.4307,79.1944 C87.4307,79.2464 87.3787,79.2814 87.3787,79.3854 C87.3267,79.4374 87.3267,79.4714 87.2917,79.5244 C87.2397,79.5764 87.2047,79.6114 87.1007,79.6114 C87.0487,79.6634 87.0137,79.6634 86.9097,79.6634 C86.8577,79.6634 86.8237,79.6634 86.7187,79.6114 C86.6667,79.6114 86.6317,79.5584 86.5797,79.5244 C86.5277,79.4714 86.4927,79.4374 86.4927,79.3854 C86.4417,79.2984 86.4417,79.2464 86.4417,79.1944 C86.4417,79.1074 86.4417,79.0554 86.4927,79.0034 C86.4927,78.9174 86.5447,78.8644 86.5797,78.8124 C86.6317,78.7604 86.6667,78.7604 86.7187,78.7254 C86.8057,78.6734 86.8577,78.6734 86.9097,78.6734 C86.9957,78.6734 87.0487,78.6734 87.1007,78.7254 C87.1877,78.7774 87.2397,78.7774 87.2917,78.8124 C87.3437,78.8464 87.3267,78.9174 87.3787,79.0034 L87.3787,79.0034 Z M68.9927,74.4714 C67.8127,74.4714 67.1007,75.3754 67.1007,76.5034 C67.1007,77.6324 67.8127,78.5344 68.9927,78.5344 C70.1737,78.5344 70.9377,77.6834 70.9377,76.5034 C70.9377,75.3754 70.1737,74.4714 68.9927,74.4714 L68.9927,74.4714 Z M50.2777,74.4204 C49.3407,74.4204 48.7677,75.0274 48.6287,75.9304 L51.9447,75.9304 C51.7877,74.9404 51.1807,74.4204 50.2777,74.4204 L50.2777,74.4204 Z M29.8787,74.4714 C28.6457,74.4714 27.9337,75.3754 27.9337,76.5034 C27.9337,77.6324 28.6457,78.5344 29.8787,78.5344 C31.0067,78.5344 31.7707,77.6834 31.7707,76.5034 C31.7537,75.3754 31.0067,74.4714 29.8787,74.4714 L29.8787,74.4714 Z M83.8367,76.5034 C83.8367,77.6834 83.0377,78.5344 81.8927,78.5344 C80.7117,78.5344 79.9487,77.6324 79.9487,76.5034 C79.9487,75.3754 80.7117,74.4714 81.8927,74.4714 C83.0377,74.4714 83.8367,75.3754 83.8367,76.5034 L83.8367,76.5034 Z" id="Fill-1" fill="#000000"></path>
    </g>
</svg>