<?xml version="1.0" encoding="UTF-8"?>
<svg width="100px" height="100px" viewBox="0 0 100 100" version="1.1" xmlns="http://www.w3.org/2000/svg" xmlns:xlink="http://www.w3.org/1999/xlink">
    <!-- Generator: Sketch 57.1 (83088) - https://sketch.com -->
    <title>bold/medal-bold</title>
    <desc>Created with Sketch.</desc>
    <g id="bold/medal" stroke="none" stroke-width="1" fill="none" fill-rule="evenodd">
        <path d="M50.04,31.38 C68.9774717,31.4075374 84.3224626,46.7525283 84.35,65.69 C84.35,84.6388898 68.9888898,100 50.04,100 C31.0911102,100 15.73,84.6388898 15.73,65.69 C15.73,46.7411102 31.0911102,31.38 50.04,31.38 Z M50.04,40.47 C36.1113786,40.47 24.82,51.7613786 24.82,65.69 C24.82,79.6186214 36.1113786,90.91 50.04,90.91 C63.9640505,90.8989711 75.2489711,79.6140505 75.26,65.69 C75.26,51.7613786 63.9686214,40.47 50.04,40.47 Z M50.04,44.369959 L50.2638308,44.3745002 C51.9729228,44.4497905 53.5133877,45.4524538 54.27,47 L58.57,55.7 L68.2,57.09 C69.9828403,57.3429225 71.4634553,58.5942558 72.01,60.31 C72.5860693,62.0153183 72.1353283,63.899882 70.85,65.16 L63.85,71.95 L65.49,81.54 C65.799786,83.3094657 65.0782922,85.1013836 63.6288069,86.1625002 C62.1793216,87.2236168 60.2531575,87.369959 58.66,86.54 L50.04,82 L41.46,86.46 C39.8654014,87.3014233 37.9307579,87.1609235 36.4744636,86.0979349 C35.0181692,85.0349464 34.2946619,83.2351901 34.61,81.46 L36.26,71.88 L29.26,65.09 C28.0042317,63.8334929 27.5603121,61.9783192 28.1112962,60.2894792 C28.6622803,58.6006391 30.114841,57.3641921 31.87,57.09 L41.5,55.7 L45.81,47 C46.6013572,45.3868402 48.2431931,44.3660297 50.04,44.369959 Z M50.04,58.91 L48.64,61.75 C47.947465,63.1454129 46.6122512,64.1103573 45.07,64.33 L41.95,64.79 L44.22,67 C45.3343974,68.0924246 45.8425463,69.661708 45.58,71.2 L45.04,74.33 L47.84,72.86 C49.216975,72.1204141 50.873025,72.1204141 52.25,72.86 L55.03,74.32 L54.5,71.2 C54.2364716,69.6822997 54.7333796,68.1317972 55.83,67.05 L58.17,64.82 L55.04,64.36 C53.5110122,64.1402422 52.1876195,63.1832125 51.5,61.8 L50.04,58.91 Z M27.44,-2.11093003e-06 C29.5217153,-0.000769985896 31.4566241,1.04927878 32.5922561,2.78012365 L32.73,2.99999789 L47.5,26.92 C44.5084075,27.1176371 41.5504196,27.6595212 38.684522,28.5343602 L37.97,28.76 L25.87,9.08999996 L22.87,9.08999996 L35.56,29.63 C32.9668279,30.6728757 30.4944617,31.9922687 28.1856028,33.564852 L27.56,33.9999979 L12.42,9.46999996 C11.2379456,7.55351447 11.1859137,5.14731784 12.2840171,3.1815259 C13.34145,1.28854107 15.3058478,0.0895694999 17.4605738,0.00480965801 L17.71,-2.11093003e-06 L27.44,-2.11093003e-06 Z M82.36,-3.32593357e-06 C84.611703,-0.0016324358 86.6878795,1.21573396 87.7859829,3.1815259 C88.8401622,5.06868617 88.8343767,7.36172339 87.7864212,9.23773061 L87.65,9.46999996 L72.5,33.9999967 C70.2214954,32.3860698 67.7751734,31.0246329 65.2042252,29.9391741 L64.5,29.65 L77.24,9.08999996 L74.24,9.08999996 L62.11,28.76 C59.2502086,27.8552754 56.2968413,27.2819372 53.3079337,27.0506798 L52.56,26.9999967 L67.34,2.99999667 C68.4092764,1.21447891 70.3028443,0.0934568781 72.3706623,0.00557583166 L72.63,-3.32593357e-06 L82.36,-3.32593357e-06 Z" id="Shape" fill="#000000"></path>
    </g>
</svg>