<?xml version="1.0" encoding="UTF-8"?>
<svg width="100px" height="100px" viewBox="0 0 100 100" version="1.1" xmlns="http://www.w3.org/2000/svg" xmlns:xlink="http://www.w3.org/1999/xlink">
    <!-- Generator: Sketch 57.1 (83088) - https://sketch.com -->
    <title>solid/medal-solid</title>
    <desc>Created with Sketch.</desc>
    <g id="solid/medal" stroke="none" stroke-width="1" fill="none" fill-rule="evenodd">
        <path d="M50,32.5445515 C68.3459784,32.5663876 83.2113554,47.4361941 83.2277228,65.7821782 C83.2277228,79.226443 75.1285635,91.3467127 62.7072991,96.4906847 C50.2860347,101.634657 35.9891636,98.7891715 26.484049,89.2812246 C16.9789345,79.7732778 14.1377089,65.4755596 19.2853813,53.0558283 C24.4330537,40.636097 36.5557358,32.5405496 50,32.5445515 Z M50.009901,48.3341046 C49.9388715,48.3341046 49.8754871,48.3786933 49.8514851,48.4455446 L44.3267327,59.6237624 C44.3072678,59.6793765 44.256766,59.718224 44.1980198,59.7227723 L31.8514851,61.5148515 C31.7830156,61.5236521 31.7257868,61.5712027 31.7045936,61.6369018 C31.6834003,61.7026009 31.7020549,61.7746301 31.7524752,61.8217822 L40.6633663,70.5346535 C40.7049497,70.5760837 40.7234653,70.6353336 40.7128713,70.6930693 L38.6039604,82.9801981 C38.5926959,83.0467681 38.6200167,83.1139878 38.6745288,83.1538235 C38.7290409,83.1936593 38.8013834,83.1992704 38.8613861,83.1683169 L49.9108911,77.3762377 C49.9592882,77.3457238 50.0209098,77.3457238 50.0693069,77.3762377 L61.1881188,83.1782179 C61.2481216,83.2091714 61.3204641,83.2035603 61.3749761,83.1637245 C61.4294882,83.1238888 61.456809,83.056669 61.4455446,82.990099 L59.3366337,70.7029703 C59.3118748,70.6530672 59.3118748,70.5944576 59.3366337,70.5445545 L68.2475248,61.8316832 C68.3035946,61.7884209 68.3287285,61.7160648 68.3115522,61.6473595 C68.2943758,61.5786542 68.2381489,61.5266383 68.1683168,61.5148515 L55.8217822,59.7227723 C55.7647417,59.7140163 55.7161635,59.6766485 55.6930693,59.6237624 L50.1683168,48.4455446 C50.1443149,48.3786933 50.0809304,48.3341046 50.009901,48.3341046 Z M73.4257426,-5.00000006e-08 L83.5148515,-5.00000006e-08 C84.9952992,-5.00000006e-08 86.3601009,0.800283416 87.0830774,2.09219305 C87.7658885,3.31232992 87.775479,4.79103139 87.1221692,6.01455944 L87,6.22772273 L72.5841584,29.6138614 C67.9043269,26.6738633 62.6969635,24.6779684 57.2556225,23.73601 L56.5742574,23.6237623 L69.9504951,1.98019797 C70.6396175,0.817308584 71.8614971,0.0805471247 73.2014032,0.00621458713 L73.4257426,-5.00000006e-08 L83.5148515,-5.00000006e-08 L73.4257426,-5.00000006e-08 Z M16.4653465,-5.00000006e-08 L26.5544554,-5.00000006e-08 C27.9085453,0.000450269968 29.167881,0.675512495 29.919165,1.7903585 L30.0396039,1.98019797 L43.4059406,23.6237623 C37.9481577,24.4761038 32.7123581,26.3886506 27.993132,29.2511139 L27.4059406,29.6138614 L12.980198,6.22772273 C12.2059202,4.96589096 12.1741442,3.38410268 12.8971207,2.09219305 C13.5839483,0.864878897 14.8500232,0.081257362 16.2442125,0.00596349383 L16.4653465,-5.00000006e-08 L26.5544554,-5.00000006e-08 L16.4653465,-5.00000006e-08 Z" id="Shape" fill="#000000"></path>
    </g>
</svg>