<?xml version="1.0" encoding="UTF-8"?>
<svg width="100px" height="100px" viewBox="0 0 100 100" version="1.1" xmlns="http://www.w3.org/2000/svg" xmlns:xlink="http://www.w3.org/1999/xlink">
    <!-- Generator: Sketch 57.1 (83088) - https://sketch.com -->
    <title>brand/medium-brand</title>
    <desc>Created with Sketch.</desc>
    <g id="brand/medium" stroke="none" stroke-width="1" fill="none" fill-rule="evenodd">
        <path d="M11.8579,26.1955 C11.9829,24.9675 11.5139,23.7545 10.5979,22.9275 L1.2609,11.6795 L1.2609,10.0005 L30.2519,10.0005 L52.6609,59.1455 L72.3619,10.0005 L99.9999,10.0005 L99.9999,11.6795 L92.0169,19.3345 C91.3279,19.8585 90.9869,20.7205 91.1299,21.5745 L91.1299,77.8145 C90.9869,78.6685 91.3279,79.5305 92.0169,80.0545 L99.8139,87.7095 L99.8139,89.3885 L60.5979,89.3885 L60.5979,87.7095 L68.6739,79.8685 C69.4679,79.0745 69.4679,78.8415 69.4679,77.6285 L69.4679,32.1695 L47.0119,89.2025 L43.9779,89.2025 L17.8339,32.1695 L17.8339,70.3935 C17.6159,72.0015 18.1499,73.6185 19.2809,74.7815 L29.7849,87.5225 L29.7849,89.2025 L-0.0001,89.2025 L-0.0001,87.5225 L10.5039,74.7815 C11.6279,73.6165 12.1299,71.9885 11.8579,70.3935 L11.8579,26.1955 Z" id="Fill-1" fill="#000000"></path>
    </g>
</svg>