<svg width="100" height="100" viewBox="0 0 100 100" fill="none" xmlns="http://www.w3.org/2000/svg">
<path fill-rule="evenodd" clip-rule="evenodd" d="M83.077 23.693L77.714 28.835C77.252 29.187 77.022 29.766 77.118 30.339V68.122C77.022 68.695 77.252 69.274 77.714 69.627L82.951 74.768V75.897H56.606V74.768L62.032 69.501C62.565 68.968 62.565 68.811 62.565 67.996V37.457L47.48 75.772H45.441L27.878 37.457V63.136C27.731 64.215 28.09 65.302 28.85 66.084L35.907 74.643V75.772H15.897V74.643L22.954 66.084C23.708 65.301 24.046 64.208 23.864 63.136V33.444C23.947 32.619 23.633 31.804 23.016 31.249L16.744 23.693V22.564H36.221L51.274 55.58L64.51 22.564H83.077V23.693ZM0 100H100V0H0V100Z" fill="black"/>
</svg>
