<?xml version="1.0" encoding="UTF-8"?>
<svg width="100px" height="100px" viewBox="0 0 100 100" version="1.1" xmlns="http://www.w3.org/2000/svg" xmlns:xlink="http://www.w3.org/1999/xlink">
    <!-- Generator: Sketch 57.1 (83088) - https://sketch.com -->
    <title>brand/medium-square-brand</title>
    <desc>Created with Sketch.</desc>
    <g id="brand/medium-square" stroke="none" stroke-width="1" fill="none" fill-rule="evenodd">
        <path d="M83.0771,23.6932 L77.7141,28.8352 C77.2521,29.1872 77.0221,29.7662 77.1181,30.3392 L77.1181,68.1222 C77.0221,68.6952 77.2521,69.2742 77.7141,69.6272 L82.9511,74.7682 L82.9511,75.8972 L56.6061,75.8972 L56.6061,74.7682 L62.0321,69.5012 C62.5651,68.9682 62.5651,68.8112 62.5651,67.9962 L62.5651,37.4572 L47.4801,75.7722 L45.4411,75.7722 L27.8781,37.4572 L27.8781,63.1362 C27.7311,64.2152 28.0901,65.3022 28.8501,66.0842 L35.9071,74.6432 L35.9071,75.7722 L15.8971,75.7722 L15.8971,74.6432 L22.9541,66.0842 C23.7081,65.3012 24.0461,64.2082 23.8641,63.1362 L23.8641,33.4442 C23.9471,32.6192 23.6331,31.8042 23.0161,31.2492 L16.7441,23.6932 L16.7441,22.5642 L36.2211,22.5642 L51.2741,55.5802 L64.5101,22.5642 L83.0771,22.5642 L83.0771,23.6932 Z M0.0001,100.0002 L100.0001,100.0002 L100.0001,0.0002 L0.0001,0.0002 L0.0001,100.0002 Z" id="Fill-1" fill="#000000"></path>
    </g>
</svg>