<svg width="100" height="100" viewBox="0 0 100 100" fill="none" xmlns="http://www.w3.org/2000/svg">
<path fill-rule="evenodd" clip-rule="evenodd" d="M35.3037 51.3033L38.5827 43.2723H41.5957V56.0553H39.3937V47.9423C39.4107 47.4283 39.4437 46.5833 39.4927 45.6403H39.4437C39.3607 46.0043 39.2777 46.4353 39.1957 46.6503L35.3867 56.0723H33.9297L30.0877 46.7333C30.0047 46.5013 29.8887 46.1363 29.7897 45.6403H29.7407C29.7567 45.8383 29.7897 46.1043 29.8057 46.4513C29.8227 47.1473 29.8227 47.7093 29.8227 48.2063V56.1053H27.7527V43.3053H30.8827L34.0787 51.3363C34.3767 52.0323 34.5587 52.6113 34.6577 52.9913H34.7077L35.3037 51.3033ZM43.6827 56.0553V46.8823H45.8357V56.0553H43.6827ZM44.7757 43.0073C45.1567 43.0073 45.4707 43.1393 45.6867 43.3713C45.9347 43.6193 46.0677 43.9173 46.0677 44.2653C46.0677 44.6133 45.9347 44.9113 45.6867 45.1433C45.4547 45.3593 45.1397 45.4913 44.7757 45.4913C44.4107 45.4913 44.1137 45.3743 43.8647 45.1433C43.6167 44.9113 43.4837 44.6133 43.4837 44.2653C43.4837 43.9013 43.6167 43.6033 43.8647 43.3713C44.1137 43.1393 44.4107 43.0073 44.7757 43.0073ZM53.4687 46.7993C53.8997 46.8823 54.2137 47.0143 54.4957 47.1303L54.5127 47.1473V49.2493L54.4297 49.1833C53.7837 48.7203 53.0717 48.4883 52.3757 48.4883C51.5477 48.4883 50.8687 48.7703 50.3557 49.3163C49.8427 49.8633 49.5947 50.6083 49.5947 51.5513C49.5947 52.4623 49.8427 53.1913 50.3397 53.7213C50.8197 54.2673 51.4987 54.5153 52.3597 54.5153C52.6577 54.5153 53.0057 54.4493 53.3867 54.3173C53.7507 54.2003 54.1157 54.0023 54.4297 53.7703L54.5127 53.7043V55.6913L54.4957 55.7073C53.8007 56.1053 52.9227 56.3213 51.8967 56.3213C51.0017 56.3213 50.2067 56.1213 49.5277 55.7403C48.8157 55.3603 48.2857 54.7973 47.9057 54.1023C47.5247 53.3893 47.3257 52.6113 47.3257 51.7343C47.3257 50.7233 47.5247 49.8463 47.9217 49.0843C48.3027 48.3393 48.8987 47.7423 49.6437 47.3123C50.3887 46.8823 51.2827 46.6663 52.2607 46.6663C52.6577 46.6663 53.0717 46.7163 53.4687 46.7993ZM60.5737 46.7333C60.9377 46.7333 61.2357 46.7823 61.3847 46.8823L61.4337 46.8983V49.0513L61.3517 48.9853C61.2357 48.9023 61.0697 48.8353 60.8377 48.7703C60.5897 48.7373 60.3907 48.6873 60.1927 48.6873C59.6287 48.6873 59.1647 48.9353 58.8007 49.4323C58.4367 49.9123 58.2717 50.5743 58.2717 51.3693V56.0553H56.1177V46.8823H58.2717V48.4883H58.2877C58.5027 47.9753 58.7507 47.5443 59.1157 47.2463C59.5457 46.8983 60.0427 46.7333 60.5737 46.7333ZM66.4347 46.6833C67.8597 46.6833 69.0017 47.0973 69.7807 47.9423C70.5907 48.7863 70.9887 49.9453 70.9887 51.4033C70.9887 52.8763 70.5747 54.0693 69.7137 54.9623C68.8687 55.8573 67.6937 56.3043 66.2197 56.3043C64.8127 56.3043 63.6867 55.8733 62.8587 55.0453C62.0307 54.2003 61.5997 53.0413 61.5997 51.6173C61.5997 50.0943 62.0137 48.8853 62.8747 48.0083C63.7187 47.1303 64.9277 46.6833 66.4347 46.6833ZM68.1577 53.7373C68.5717 53.2243 68.7527 52.4463 68.7857 51.4523C68.7857 50.4753 68.5547 49.7303 68.1237 49.2163C67.6937 48.7033 67.0977 48.4543 66.3357 48.4543C65.5577 48.4543 64.9447 48.7203 64.4967 49.2493C64.0677 49.7803 63.8347 50.5253 63.8347 51.5013C63.8347 52.4463 64.0507 53.1913 64.4967 53.7043C64.9447 54.2503 65.5747 54.4983 66.3527 54.4983C67.1297 54.4983 67.7597 54.2503 68.1577 53.7373ZM75.7907 50.6913C76.6517 51.0223 77.2477 51.4363 77.7287 51.8333C78.0927 52.2463 78.2577 52.7933 78.2577 53.4063C78.2577 54.2833 77.9097 54.9623 77.2477 55.4923C76.6027 56.0383 75.6917 56.2873 74.5817 56.2873C74.2177 56.2873 73.8037 56.2213 73.3397 56.1383C72.8757 56.0223 72.4947 55.9233 72.1807 55.7743L72.1307 55.7573V53.6553L72.2137 53.7213C72.5617 53.9693 72.9757 54.1843 73.4227 54.3333C73.8697 54.4833 74.2507 54.5483 74.6157 54.5483C75.5587 54.5483 76.0227 54.2503 76.0227 53.6383C76.0227 53.4223 75.9727 53.2573 75.8897 53.1243C75.7747 53.0083 75.6247 52.8603 75.3937 52.7273C75.1607 52.5943 74.7807 52.4293 74.2837 52.2143C73.6877 51.9653 73.2567 51.7003 72.9587 51.4683C72.6607 51.2203 72.4457 50.9223 72.2967 50.6083C72.1477 50.2933 72.0807 49.9123 72.0807 49.4823C72.0807 48.6703 72.3967 47.9753 73.0587 47.4613C73.7207 46.9143 74.5657 46.6663 75.5917 46.6663C75.8897 46.6663 76.2537 46.6993 76.6517 46.7663C77.0487 46.8493 77.3797 46.9483 77.6287 47.0473L77.6787 47.0643V49.0843L77.5957 49.0183C77.3307 48.8193 76.9987 48.6703 76.6347 48.5713C76.2707 48.4713 75.8897 48.4063 75.5257 48.4063C75.1117 48.4063 74.8297 48.4883 74.5817 48.6543C74.3337 48.8193 74.2347 49.0683 74.2347 49.3163C74.2347 49.6143 74.3177 49.8463 74.4827 50.0113C74.6817 50.1943 75.1117 50.4083 75.7907 50.6913ZM83.9377 46.6833C85.3627 46.6833 86.5047 47.0973 87.2827 47.9423C88.0937 48.7863 88.4917 49.9453 88.4917 51.4033C88.4917 52.8763 88.0767 54.0693 87.2167 54.9623C86.3717 55.8573 85.1967 56.3043 83.7227 56.3043C82.3157 56.3043 81.1887 55.8733 80.3617 55.0453C79.5327 54.2003 79.1027 53.0413 79.1027 51.6173C79.1027 50.0943 79.5327 48.8853 80.3777 48.0083C81.2217 47.1303 82.4307 46.6833 83.9377 46.6833ZM85.6437 53.7373C86.0577 53.2243 86.2727 52.4463 86.2727 51.4523C86.2727 50.4753 86.0407 49.7303 85.6107 49.2163C85.1797 48.7033 84.5677 48.4543 83.8227 48.4543C83.0437 48.4543 82.4307 48.7203 81.9837 49.2493C81.5537 49.7803 81.3217 50.5253 81.3217 51.5013C81.3217 52.4463 81.5367 53.1913 81.9837 53.7043C82.4307 54.2503 83.0437 54.4983 83.8377 54.4983C84.6167 54.4983 85.2457 54.2503 85.6437 53.7373ZM99.9997 48.6543H97.7977V52.9913C97.7977 53.5553 97.8977 53.9363 98.0957 54.1673C98.3107 54.4163 98.6097 54.5153 99.0397 54.5153C99.1557 54.5153 99.3047 54.4983 99.4697 54.4493C99.6687 54.4003 99.7847 54.3333 99.9167 54.2503L99.9997 54.1843V55.9563L99.9837 55.9733C99.8507 56.0383 99.6187 56.1213 99.3047 56.1883C99.0067 56.2383 98.6917 56.2873 98.3937 56.2873C96.5727 56.2873 95.6607 55.3103 95.6607 53.3723V48.6543H92.4157V56.0553H90.2467V48.6373H88.7407V46.8823H90.2467V45.6073C90.2467 44.9613 90.3957 44.3983 90.6767 43.9013C90.9587 43.3883 91.3397 43.0073 91.8527 42.7253C92.3667 42.4773 92.9297 42.3283 93.5747 42.3283C94.0887 42.3283 94.4857 42.3943 94.7837 42.4933L94.8337 42.5103V44.3813L94.7507 44.3313C94.4037 44.1833 94.0887 44.1163 93.7897 44.1163C93.3597 44.1163 93.0117 44.2483 92.7807 44.5143C92.5487 44.7793 92.4157 45.1933 92.4157 45.7233V46.8823H95.6607V44.8123L95.7107 44.7953L97.7647 44.1833L97.8307 44.1663V46.8823H99.9997V48.6543ZM0 49.151V39H10.151V49.151H0ZM11.21 49.151V39H21.361V49.151H11.21ZM0 60.361V50.211H10.151V60.361H0ZM11.21 60.361V50.211H21.361V60.361H11.21Z" fill="black"/>
</svg>
