<?xml version="1.0" encoding="UTF-8"?>
<svg width="100px" height="100px" viewBox="0 0 100 100" version="1.1" xmlns="http://www.w3.org/2000/svg" xmlns:xlink="http://www.w3.org/1999/xlink">
    <!-- Generator: Sketch 57.1 (83088) - https://sketch.com -->
    <title>regular/mobile-regular</title>
    <desc>Created with Sketch.</desc>
    <g id="regular/mobile" stroke="none" stroke-width="1" fill="none" fill-rule="evenodd">
        <path d="M68.06,100 L31.32,100 C27.0034173,99.9944907 23.5055093,96.4965827 23.5,92.18 L23.5,7.81999996 C23.5055093,3.50341732 27.0034173,0.00550931555 31.32,-4.9999997e-08 L68.06,-4.9999997e-08 C72.3765827,0.00550931555 75.8744907,3.50341732 75.88,7.81999996 L75.88,92.18 C75.8744907,96.4965827 72.3765827,99.9944907 68.06,100 Z M51.66,95.24 L68.06,95.24 C69.7499914,95.24 71.12,93.8699914 71.12,92.18 L71.12,7.81999996 C71.1145115,6.13228728 69.7477127,4.76548849 68.06,4.75999995 L31.32,4.75999995 C29.6322873,4.76548849 28.2654885,6.13228728 28.26,7.81999996 L28.26,92.18 C28.2654885,93.8677127 29.6322873,95.2345115 31.32,95.24 L47.72,95.24 C44.3505627,94.2594077 42.2153087,90.9499796 42.7105618,87.4758764 C43.2058148,84.0017731 46.1807737,81.4208346 49.69,81.4208346 C53.1992263,81.4208346 56.1741852,84.0017731 56.6694382,87.4758764 C57.1646913,90.9499796 55.0294373,94.2594077 51.66,95.24 L51.66,95.24 Z M49.66,86.18 C48.3952679,86.18 47.37,87.205268 47.37,88.47 C47.37,89.7347321 48.3952679,90.76 49.66,90.76 C50.9247321,90.76 51.95,89.7347321 51.95,88.47 C51.9447502,87.2190965 50.9407256,86.2017441 49.69,86.18 L49.66,86.18 Z" id="mobile" fill="#000000"></path>
    </g>
</svg>