<?xml version="1.0" encoding="UTF-8"?>
<svg width="100px" height="100px" viewBox="0 0 100 100" version="1.1" xmlns="http://www.w3.org/2000/svg" xmlns:xlink="http://www.w3.org/1999/xlink">
    <!-- Generator: Sketch 57.1 (83088) - https://sketch.com -->
    <title>bold/mobile-slash-bold</title>
    <desc>Created with Sketch.</desc>
    <g id="bold/mobile-slash" stroke="none" stroke-width="1" fill="none" fill-rule="evenodd">
        <path d="M76.5049505,39.4059406 L76.5049505,90.3564357 C76.4995872,95.5883786 72.3326082,99.845471 67.1358345,99.9958926 L66.8613862,100.000001 L32.1485148,100.000001 C27.9613142,100.001437 24.2636036,97.3027918 22.9751802,93.3413455 L22.8910891,93.069307 L31.5049505,84.4158416 L31.5049505,90.3564357 C31.5049505,90.6795546 31.7430774,90.9470559 32.0534136,90.9930222 L32.1485148,91 L41.5841584,91 C40.9174823,89.7198145 40.5773748,88.294764 40.5940594,86.8514852 C40.5940594,81.9301359 44.5836012,77.9405941 49.5049505,77.9405941 C54.4262998,77.9405941 58.4158416,81.9301359 58.4158416,86.8514852 C58.4311358,88.1744907 58.1466255,89.4821795 57.5855906,90.6770089 L57.4257426,91 L66.8613862,91 C67.03207,91 67.1957631,90.9321961 67.3164549,90.8115044 C67.4130083,90.714951 67.4757134,90.5908768 67.4969334,90.457719 L67.5049505,90.3564357 L67.5049505,48.4059406 L76.5049505,39.4059406 Z M95.7418633,1.00282863 C97.3413469,1.40970521 98.5902948,2.65865313 98.9971714,4.25813665 C99.4040479,5.85762017 98.9037096,7.55155149 97.6930694,8.67326729 L7.68316827,98.6831684 C6.84152954,99.5280383 5.69749258,100.002047 4.50495045,100.000013 C2.68557385,99.9981396 1.04590701,98.9020803 0.348607404,97.2216315 C-0.348692199,95.5411828 0.0332698147,93.6062517 1.31683163,92.3168317 L91.3267327,2.30693065 C92.4484485,1.09629042 94.1423798,0.595952053 95.7418633,1.00282863 Z M49.5049505,86.7623763 C49.455737,86.7623763 49.4158416,86.8022717 49.4158416,86.8514852 C49.4158416,86.9006987 49.455737,86.9405941 49.5049505,86.9405941 C49.554164,86.9405941 49.5940594,86.9006987 49.5940594,86.8514852 C49.5940594,86.8022717 49.554164,86.7623763 49.5049505,86.7623763 Z M32.1485148,0.990097814 L66.8613862,0.990097814 C71.0485868,0.988661941 74.7462974,3.68730723 76.0347208,7.64875348 L76.1188119,7.92079204 L67.5049505,16.5742574 L67.5049505,10.6336633 C67.5049505,10.4629794 67.4371466,10.2992863 67.3164549,10.1785946 C67.2199015,10.0820412 67.0958272,10.0193357 66.9626695,9.99811559 L66.8613862,9.99009781 L32.1485148,9.99009781 C31.8253959,9.99009781 31.5578946,10.2282258 31.5119284,10.5385621 L31.5049505,10.6336633 L31.5049505,52.5841584 L22.5049505,61.5841584 L22.5049505,10.6336633 C22.5103138,5.40172045 26.6772928,1.14462802 31.8740665,0.994206461 L32.1485148,0.990097814 L66.8613862,0.990097814 L32.1485148,0.990097814 Z" id="Shape" fill="#000000"></path>
    </g>
</svg>