<?xml version="1.0" encoding="UTF-8"?>
<svg width="100px" height="100px" viewBox="0 0 100 100" version="1.1" xmlns="http://www.w3.org/2000/svg" xmlns:xlink="http://www.w3.org/1999/xlink">
    <!-- Generator: Sketch 57.1 (83088) - https://sketch.com -->
    <title>bold/mobile-bold</title>
    <desc>Created with Sketch.</desc>
    <g id="bold/mobile" stroke="none" stroke-width="1" fill="none" fill-rule="evenodd">
        <path d="M67.31,100 L32.24,100 C26.8630313,99.994488 22.505512,95.6369687 22.5,90.26 L22.5,9.73999996 C22.505512,4.3630313 26.8630313,0.00551196732 32.24,-4.9999997e-08 L67.31,-4.9999997e-08 C72.6869687,0.00551196732 77.044488,4.3630313 77.05,9.73999996 L77.05,90.26 C77.044488,95.6369687 72.6869687,99.994488 67.31,100 Z M57.74,90.91 L67.31,90.91 C67.6650738,90.9045367 67.95,90.6151159 67.95,90.26 L67.95,9.73999996 C67.95,9.38488413 67.6650738,9.09546328 67.31,9.08999996 L32.24,9.08999996 C31.8810149,9.08999996 31.59,9.38101487 31.59,9.73999996 L31.59,90.26 C31.59,90.6189851 31.8810149,90.91 32.24,90.91 L41.81,90.91 C39.8178064,87.1232189 40.7671808,82.4573177 44.0807137,79.7500966 C47.3942467,77.0428756 52.1557533,77.0428756 55.4692863,79.7500966 C58.7828192,82.4573177 59.7321936,87.1232189 57.74,90.91 L57.74,90.91 Z M49.74,90.91 L49.74,86.81 L49.74,86.81 C49.7897056,86.81 49.83,86.7697057 49.83,86.72 C49.83,86.6702944 49.7897056,86.63 49.74,86.63 L49.74,86.63 C49.6902944,86.63 49.65,86.6702944 49.65,86.72 C49.65,86.7697057 49.6902944,86.81 49.74,86.81 L49.74,90.91 Z" id="mobile" fill="#000000"></path>
    </g>
</svg>