<?xml version="1.0" encoding="UTF-8"?>
<svg width="100px" height="100px" viewBox="0 0 100 100" version="1.1" xmlns="http://www.w3.org/2000/svg" xmlns:xlink="http://www.w3.org/1999/xlink">
    <!-- Generator: Sketch 57.1 (83088) - https://sketch.com -->
    <title>solid/mobile-solid</title>
    <desc>Created with Sketch.</desc>
    <g id="solid/mobile" stroke="none" stroke-width="1" fill="none" fill-rule="evenodd">
        <path d="M68.06,-4.9999997e-08 L31.32,-4.9999997e-08 C27.0034173,0.00550931555 23.5055093,3.50341732 23.5,7.81999996 L23.5,92.18 C23.5055093,96.4965827 27.0034173,99.9944907 31.32,100 L68.06,100 C72.3765827,99.9944907 75.8744907,96.4965827 75.88,92.18 L75.88,7.81999996 C75.8744907,3.50341732 72.3765827,0.00550931555 68.06,-4.9999997e-08 Z M49.69,93.14 C47.1108302,93.14 45.02,91.0491698 45.02,88.47 C45.02,85.8908303 47.1108302,83.8 49.69,83.8 C52.2691698,83.8 54.36,85.8908303 54.36,88.47 C54.36,91.0491698 52.2691698,93.14 49.69,93.14 L49.69,93.14 Z" id="mobile" fill="#000000"></path>
    </g>
</svg>