<?xml version="1.0" encoding="UTF-8"?>
<svg width="100px" height="100px" viewBox="0 0 100 100" version="1.1" xmlns="http://www.w3.org/2000/svg" xmlns:xlink="http://www.w3.org/1999/xlink">
    <!-- Generator: Sketch 57.1 (83088) - https://sketch.com -->
    <title>solid/mobile-slash-solid</title>
    <desc>Created with Sketch.</desc>
    <g id="solid/mobile-slash" stroke="none" stroke-width="1" fill="none" fill-rule="evenodd">
        <path d="M95.7418633,1.00282863 C97.3413469,1.40970521 98.5902948,2.65865313 98.9971714,4.25813665 C99.4040479,5.85762017 98.9037096,7.55155149 97.6930694,8.67326729 L7.68316827,98.6831684 C6.84152954,99.5280383 5.69749258,100.002047 4.50495045,100.000013 C2.68557385,99.9981396 1.04590701,98.9020803 0.348607404,97.2216315 C-0.348692199,95.5411828 0.0332698147,93.6062517 1.31683163,92.3168317 L91.3267327,2.30693065 C92.4484485,1.09629042 94.1423798,0.595952053 95.7418633,1.00282863 Z M74.2574258,41.6534653 L74.2574258,90.3564357 C74.2360951,94.3458727 71.0631168,97.5854719 67.1046995,97.7185276 L66.8613862,97.7227723 L32.1089109,97.7227723 C28.4035326,97.7182045 25.2857277,94.9792632 24.7821518,91.3334843 L24.7524752,91.089109 L74.2574258,41.6534653 Z M49.5049505,82.4158416 C47.0716167,82.4158416 45.0990099,84.3884484 45.0990099,86.8217822 C45.0990099,89.1835474 46.9572874,91.1112886 49.2914787,91.2226421 L49.5049505,91.2277228 L49.5049505,91.2574258 C50.6786432,91.2574258 51.8038364,90.7891813 52.6309698,89.9564718 C53.4581031,89.1237623 53.9188036,87.9954483 53.9108911,86.8217822 C53.9108911,84.3884484 51.9382843,82.4158416 49.5049505,82.4158416 Z M32.1485148,3.26732669 L66.9009901,3.26732669 C70.6063684,3.2718945 73.7241733,6.01083585 74.2277492,9.65661473 L74.2574258,9.90099006 L24.7524752,59.3366337 L24.7524752,10.6336633 C24.7738059,6.64422634 27.9467842,3.40462713 31.9052015,3.27157136 L32.1485148,3.26732669 L66.9009901,3.26732669 L32.1485148,3.26732669 Z" id="Shape" fill="#000000"></path>
    </g>
</svg>