<?xml version="1.0" encoding="UTF-8"?>
<svg width="100px" height="100px" viewBox="0 0 100 100" version="1.1" xmlns="http://www.w3.org/2000/svg" xmlns:xlink="http://www.w3.org/1999/xlink">
    <!-- Generator: Sketch 57.1 (83088) - https://sketch.com -->
    <title>bold/molecule-bold</title>
    <desc>Created with Sketch.</desc>
    <g id="bold/molecule" stroke="none" stroke-width="1" fill="none" fill-rule="evenodd">
        <path d="M97.73,49.8 L82.47,40.99 L69.47,48.5 L56.47,41 L54.27,42.28 C54.27,42.28 54.27,42.28 54.2,42.28 L43.51,48.5 L35.07,43.63 L35.07,28.63 L17.53,18.5 L-4.9999997e-08,28.62 L-4.9999997e-08,48.87 L17.53,58.99 L30.53,51.49 L39,56.36 L39,66.12 L30.52,71 L19.8,64.81 C17.6267595,63.5563136 14.8486863,64.3017595 13.595,66.475 C12.3413136,68.6482405 13.0867595,71.4263136 15.26,72.68 L30.52,81.5 L43.52,74 L56.52,81.5 L74,71.37 L74,56.37 L82.47,51.5 L93.18,57.69 C95.3523378,58.9081599 98.1003663,58.1534085 99.3457525,55.9965639 C100.591139,53.8397193 99.8710102,51.0824153 97.73,49.81 L97.73,49.8 Z M26,43.62 L17.53,48.5 L9.08999996,43.62 L9.08999996,33.87 L17.53,29 L26,33.87 L26,43.62 Z M65,66.12 L56.49,71 L48.05,66.12 L48.05,56.37 L56.49,51.5 L64.93,56.37 L65,66.12 Z" id="molecule" fill="#000000"></path>
    </g>
</svg>