<svg width="100" height="100" viewBox="0 0 100 100" fill="none" xmlns="http://www.w3.org/2000/svg">
<path d="M98.5192 50.8908L83.6031 42.2799L70.1574 50.0556L58.0528 43.0681H57.994L56.7117 42.327L55.2884 43.1034C55.2884 43.1034 55.2295 43.1034 55.206 43.1034L43.2778 50.0438L32.7731 43.9856V28.4108L16.3865 19L0 28.4108V47.3735L16.3865 56.8431L29.8322 49.0792L40.337 55.1374V67.2303L29.8322 73.3473L17.857 66.4304C16.9466 65.8966 15.82 65.8916 14.9049 66.4173C13.9898 66.9429 13.4265 67.9185 13.4288 68.9739C13.4311 70.0292 13.9987 71.0023 14.9161 71.5239L29.8322 80.1701L43.2778 72.4062L56.7117 80.1701L73.0983 70.7593V55.1374L83.6031 49.0792L95.5783 55.9844C96.0237 56.2472 96.5316 56.3854 97.0487 56.3843C98.3838 56.3889 99.5545 55.4936 99.8997 54.2039C100.245 52.9142 99.678 51.5538 98.5192 50.8908ZM26.8913 43.9856L16.3865 50.0438L5.88174 43.9856V31.8575L16.3865 25.7875L26.8913 31.8575V43.9856ZM67.2165 67.2303L56.7117 73.3473L46.2187 67.2303V55.1492L56.7117 49.091L67.2165 55.1492V67.2303Z" fill="black"/>
</svg>
