<?xml version="1.0" encoding="UTF-8"?>
<svg width="100px" height="100px" viewBox="0 0 100 100" version="1.1" xmlns="http://www.w3.org/2000/svg" xmlns:xlink="http://www.w3.org/1999/xlink">
    <!-- Generator: Sketch 57.1 (83088) - https://sketch.com -->
    <title>solid/not-equal-solid</title>
    <desc>Created with Sketch.</desc>
    <g id="solid/not-equal" stroke="none" stroke-width="1" fill="none" fill-rule="evenodd">
        <path d="M87.4086399,12.1013601 C90.6018847,15.2946048 90.6734128,20.4493822 87.57,23.73 L24.22,87.08 C22.6540181,88.6339413 20.5361313,89.5041087 18.33,89.5000289 C14.9594797,89.4981689 11.9213895,87.4677447 10.6304749,84.3542339 C9.3395604,81.240723 10.0496197,77.6562523 12.43,75.27 L75.78,11.94 C79.0606178,8.83658715 84.2153952,8.90811534 87.4086399,12.1013601 Z M26.78,55.05 L10.11,71.72 L8.32999996,71.72 C3.83902436,71.5644203 0.278747244,67.8786697 0.278747244,63.385 C0.278747244,58.9761166 3.70594173,55.3449523 8.07680544,55.0625583 L8.32999996,55.05 L26.78,55.05 Z M62.13,55.05 L91.67,55.05 C96.1609756,55.2055797 99.7212528,58.8913304 99.7212528,63.385 C99.7212528,67.7938834 96.2940583,71.4250477 91.9231946,71.7074417 L91.67,71.72 L45.47,71.72 L62.13,55.05 L91.67,55.05 L62.13,55.05 Z M54.53,27.3 L37.87,43.96 L8.32999996,43.96 C3.72946799,43.96 -4.99989241e-08,40.230532 -4.99989241e-08,35.63 C-4.99989241e-08,31.1146631 3.59261851,27.4384271 8.07532916,27.3038187 L8.32999996,27.3 L54.53,27.3 Z M91.67,27.3 C96.270532,27.3 100,31.029468 100,35.63 C100,40.1453369 96.4073815,43.8215728 91.9246708,43.9561812 L91.67,43.96 L73.22,43.96 L89.89,27.3 L91.67,27.3 Z" id="Shape" fill="#000000"></path>
    </g>
</svg>