<?xml version="1.0" encoding="UTF-8"?>
<svg width="100px" height="100px" viewBox="0 0 100 100" version="1.1" xmlns="http://www.w3.org/2000/svg" xmlns:xlink="http://www.w3.org/1999/xlink">
    <!-- Generator: Sketch 57.1 (83088) - https://sketch.com -->
    <title>regular/not-allowed-regular</title>
    <desc>Created with Sketch.</desc>
    <g id="regular/not-allowed" stroke="none" stroke-width="1" fill="none" fill-rule="evenodd">
        <path d="M85.53,14.86 C85.4208071,14.7107368 85.2892632,14.5791929 85.14,14.47 C65.4476833,-3.93491767 34.7107435,-3.41790282 15.6485566,15.6388902 C-3.41363034,34.6956832 -3.93934389,65.4324754 14.46,85.13 C14.5179131,85.207845 14.5814141,85.2813724 14.65,85.35 L14.87,85.54 C34.5675246,103.939344 65.3043168,103.41363 84.3611098,84.3514434 C103.417903,65.2892565 103.934918,34.5523167 85.53,14.86 Z M4.75999047,50 C4.74846397,32.1344193 15.258846,15.9375935 31.5795369,8.6702588 C47.9002279,1.40292409 66.9699104,4.42823465 80.24,16.39 L16.39,80.24 C8.89818637,71.9505429 4.75336179,61.1732863 4.75999047,50 L4.75999047,50 Z M50,95.2400095 C38.8267137,95.2466382 28.0494571,91.1018136 19.76,83.61 L83.61,19.76 C95.5717653,33.0300896 98.5970759,52.0997721 91.3297412,68.4204631 C84.0624065,84.741154 67.8655807,95.251536 50,95.2400095 Z" id="not-allowed" fill="#000000"></path>
    </g>
</svg>