<?xml version="1.0" encoding="UTF-8"?>
<svg width="100px" height="100px" viewBox="0 0 100 100" version="1.1" xmlns="http://www.w3.org/2000/svg" xmlns:xlink="http://www.w3.org/1999/xlink">
    <!-- Generator: Sketch 57.1 (83088) - https://sketch.com -->
    <title>bold/not-allowed-bold</title>
    <desc>Created with Sketch.</desc>
    <g id="bold/not-allowed" stroke="none" stroke-width="1" fill="none" fill-rule="evenodd">
        <path d="M85.53,14.87 C85.4246323,14.7113615 85.2886385,14.5753677 85.13,14.47 C65.4278937,-3.8668677 34.7457573,-3.31753174 15.7126779,15.7128544 C-3.32040155,34.7432406 -3.87407941,65.425299 14.46,85.13 C14.53,85.2 14.58,85.28 14.65,85.35 C14.72,85.42 14.8,85.47 14.87,85.54 C34.574701,103.874079 65.2567594,103.320402 84.2871455,84.2873221 C103.317532,65.2542427 103.866868,34.5721063 85.53,14.87 Z M9.08997938,50 C9.07427073,34.2776555 18.0787451,19.9401821 32.2479444,13.1265082 C46.4171438,6.31283416 63.2386744,8.23111756 75.51,18.06 L18.06,75.51 C12.2471682,68.279073 9.08203537,59.2776751 9.08997938,50 L9.08997938,50 Z M50,90.9100097 C40.7186956,90.9100097 31.7169084,87.7336077 24.49,81.91 L81.94,24.48 C91.7665253,36.7533185 93.6836022,53.5745383 86.8707256,67.7442124 C80.0578491,81.9138864 65.7224308,90.920795 50,90.9100097 L50,90.9100097 Z" id="not-allowed" fill="#000000"></path>
    </g>
</svg>