<?xml version="1.0" encoding="UTF-8"?>
<svg width="100px" height="100px" viewBox="0 0 100 100" version="1.1" xmlns="http://www.w3.org/2000/svg" xmlns:xlink="http://www.w3.org/1999/xlink">
    <!-- Generator: Sketch 57.1 (83088) - https://sketch.com -->
    <title>brand/npm-brand</title>
    <desc>Created with Sketch.</desc>
    <g id="brand/npm" stroke="none" stroke-width="1" fill="none" fill-rule="evenodd">
        <path d="M44.444,52.2219 L44.444,41.1109 L50,41.1109 L50,52.2219 L44.444,52.2219 Z M0,29.9999 L100,29.9999 L100,63.3329 L50,63.3329 L50,68.8889 L27.778,68.8889 L27.778,63.3329 L0,63.3329 L0,29.9999 Z M61.111,35.5559 L61.111,57.7779 L72.222,57.7779 L72.222,41.1109 L77.777,41.1109 L77.777,57.7779 L83.333,57.7779 L83.333,41.1109 L88.889,41.1109 L88.889,57.7779 L94.444,57.7779 L94.444,35.5559 L61.111,35.5559 Z M33.333,35.5559 L33.333,63.3329 L44.445,63.3329 L44.445,57.7779 L55.556,57.7779 L55.556,35.5559 L33.333,35.5559 Z M5.556,35.5559 L5.556,57.7779 L16.666,57.7779 L16.666,41.1109 L22.222,41.1109 L22.222,57.7779 L27.778,57.7779 L27.778,35.5559 L5.556,35.5559 Z" id="Shape" fill="#000000"></path>
    </g>
</svg>