<?xml version="1.0" encoding="UTF-8"?>
<svg width="100px" height="100px" viewBox="0 0 100 100" version="1.1" xmlns="http://www.w3.org/2000/svg" xmlns:xlink="http://www.w3.org/1999/xlink">
    <!-- Generator: Sketch 57.1 (83088) - https://sketch.com -->
    <title>bold/paperclip-bold</title>
    <desc>Created with Sketch.</desc>
    <g id="bold/paperclip" stroke="none" stroke-width="1" fill="none" fill-rule="evenodd">
        <path d="M21.4158416,100.000049 C14.5497301,100.009838 8.35506618,95.8789728 5.72487861,89.5365997 C3.09469104,83.1942265 4.5479442,75.8917638 9.40594055,71.039604 L59.0693069,21.3861386 C63.553203,16.910445 70.8163854,16.9170942 75.2920791,21.4009902 C79.7677728,25.8848861 79.7611236,33.1480686 75.2772277,37.6237624 L40.5148515,72.3663367 C39.3988387,73.4823495 37.7722146,73.9182021 36.2477127,73.509713 C34.7232109,73.101224 33.5324394,71.9104525 33.1239503,70.3859507 C32.7154613,68.8614488 33.1513139,67.2348247 34.2673267,66.1188119 L69.039604,31.3564356 C70.0561402,30.3236922 70.0561402,28.6664067 69.039604,27.6336633 C67.998441,26.6378957 66.3579947,26.6378957 65.3168317,27.6336633 L15.6633663,77.2772278 C13.6064361,79.343001 12.8078312,82.3492135 13.5683783,85.1634539 C14.3289254,87.9776943 16.5330793,90.1724127 19.3505566,90.9208797 C22.1680339,91.6693468 25.1707927,90.8578526 27.2277227,88.7920792 L83.1584159,32.8514851 C86.5683568,29.432701 87.8953725,24.4544325 86.639589,19.791945 C85.3838056,15.1294575 81.7360064,11.4910939 77.0702821,10.2473905 C72.4045578,9.00368714 67.4297429,10.3435921 64.019802,13.7623762 L13.6237623,64.1683168 C11.8644752,65.6418189 9.26974497,65.5221814 7.6535141,63.8930413 C6.03728323,62.2639012 5.9382914,59.6683014 7.42574253,57.9207921 L57.7722772,7.52475243 C66.4912677,-1.19697209 80.6297607,-1.1991885 89.3514852,7.51980194 C98.0732097,16.2387924 98.0754261,30.3772854 89.3564357,39.0990099 L33.4158416,95.049505 C30.2330587,98.2293936 25.9149172,100.010805 21.4158416,100.000049 Z" id="paperclip" fill="#000000"></path>
    </g>
</svg>