<svg width="100" height="100" viewBox="0 0 100 100" fill="none" xmlns="http://www.w3.org/2000/svg">
<g clip-path="url(#clip0)">
<path d="M29.2328 100C19.1734 99.9975 10.1057 94.3042 6.25648 85.574C2.40726 76.8437 4.53429 66.7951 11.646 60.1122L52.8477 21.4091C57.1136 17.2407 63.4441 15.5628 69.4004 17.0217C75.3566 18.4806 80.0089 22.8487 81.5649 28.443C83.1208 34.0373 81.3376 39.9848 76.9022 43.994L45.8361 73.1653C44.1055 74.91 41.4991 75.6282 39.0394 75.0381C36.5797 74.448 34.6591 72.6438 34.0309 70.3333C33.4027 68.0228 34.1673 65.5745 36.0245 63.9488L67.0675 34.7883C67.9133 34.0599 68.2658 32.9546 67.9859 31.9093C67.7059 30.8641 66.8385 30.0471 65.7265 29.7814C64.6145 29.5157 63.4369 29.844 62.6592 30.6365L21.4692 69.3287C18.6402 71.922 17.5134 75.7436 18.519 79.3346C19.5246 82.9255 22.5074 85.7316 26.3287 86.6816C30.15 87.6316 34.2199 86.5788 36.9849 83.9252L80.651 42.918C87.383 36.0113 87.1381 25.3515 80.0952 18.724C73.0522 12.0965 61.7046 11.8477 54.3402 18.1594L11.808 58.0689C9.08913 60.5788 4.72434 60.5597 2.03042 58.0261C-0.663514 55.4926 -0.678668 51.3925 1.99647 48.8414L44.4708 8.94279C57.1807 -2.9873 77.7796 -2.98 90.4799 8.9591C103.18 20.8982 103.172 40.248 90.4625 52.1781L46.8196 93.1418C42.1678 97.5427 35.8349 100.012 29.2328 100Z" fill="black"/>
</g>
<defs>
<clipPath id="clip0">
<rect width="100" height="100" fill="white"/>
</clipPath>
</defs>
</svg>
