<svg width="100" height="100" viewBox="0 0 100 100" fill="none" xmlns="http://www.w3.org/2000/svg">
<path fill-rule="evenodd" clip-rule="evenodd" d="M34.7062 100H42.7415C45.6627 99.9935 48.0292 97.6271 48.0356 94.7059V5.29412C48.0292 2.37294 45.6627 0.00646996 42.7415 0H34.7062C31.7851 0.00646996 29.4186 2.37294 29.4121 5.29412V94.7059C29.4186 97.6271 31.7851 99.9935 34.7062 100ZM42.1533 94.1176H35.2945V5.88235H42.1533V94.1176Z" fill="black"/>
<path fill-rule="evenodd" clip-rule="evenodd" d="M56.8586 100H64.8821C67.8033 99.9935 70.1697 97.6271 70.1762 94.7059V5.29412C70.1697 2.37294 67.8033 0.00646996 64.8821 0H56.8586C53.9347 0 51.5645 2.37026 51.5645 5.29412V94.7059C51.5645 97.6297 53.9347 100 56.8586 100ZM64.2939 94.1176H57.4468V5.88235H64.2939V94.1176Z" fill="black"/>
</svg>
