<svg width="100" height="100" viewBox="0 0 100 100" fill="none" xmlns="http://www.w3.org/2000/svg">
<path fill-rule="evenodd" clip-rule="evenodd" d="M50.2335 53.7389C50.3496 53.0058 50.1895 52.3407 49.7855 51.8637C49.3824 51.3916 48.7704 51.1416 48.0183 51.1416C46.5091 51.1416 45.287 52.1917 45.0479 53.6919C44.9229 54.428 45.0719 55.0901 45.464 55.5541C45.859 56.0222 46.4741 56.2692 47.2432 56.2692C48.7764 56.2692 49.9785 55.2531 50.2335 53.7389ZM53.928 48.5803C54.063 48.5803 54.19 48.6393 54.278 48.7423C54.365 48.8443 54.403 48.9803 54.381 49.1134L52.9499 58.1834C52.8909 58.5575 52.5688 58.8345 52.1898 58.8335H49.8025C49.6675 58.8335 49.5395 58.7745 49.4515 58.6715C49.3644 58.5685 49.3264 58.4325 49.3474 58.3005L49.4655 57.5634C49.4655 57.5634 48.1573 59.0805 45.797 59.0805C44.4218 59.0805 43.2667 58.6835 42.4596 57.7324C41.5785 56.6973 41.2185 55.2131 41.4715 53.6609C41.9596 50.5495 44.4609 48.3313 47.3892 48.3313C48.6664 48.3313 49.9455 48.6093 50.5196 49.4424L50.7046 49.7114L50.8216 48.9693C50.8576 48.7453 51.0506 48.5803 51.2777 48.5803H53.928ZM68.4515 48.8282C68.5305 48.9802 68.5195 49.1643 68.4215 49.3053L59.5635 62.0908C59.4204 62.2988 59.1834 62.4218 58.9314 62.4218H56.2711C56.098 62.4218 55.94 62.3248 55.861 62.1718C55.782 62.0178 55.796 61.8338 55.895 61.6928L58.6534 57.8003L55.72 49.1903C55.672 49.0503 55.694 48.8932 55.781 48.7722C55.868 48.6512 56.009 48.5802 56.1571 48.5802H58.7744C59.1144 48.5812 59.4144 48.8042 59.5125 49.1293L61.0696 54.3289L64.7431 48.9182C64.8871 48.7072 65.1251 48.5812 65.3802 48.5802H68.0435C68.2145 48.5802 68.3715 48.6762 68.4515 48.8282ZM38.0231 48.6446C38.1341 47.9475 38.0441 47.4425 37.7541 47.1024C37.267 46.5323 36.3239 46.5323 35.3248 46.5323H34.9417C34.7147 46.5323 34.5227 46.6974 34.4867 46.9214L33.9006 50.6298H34.7357C36.2029 50.6298 37.7201 50.6298 38.0231 48.6446ZM41.4185 44.8742C42.1346 45.7153 42.3716 46.9174 42.1246 48.4476C41.5745 51.943 39.4703 53.7072 35.8248 53.7072H34.0726C33.6946 53.7072 33.3725 53.9832 33.3145 54.3573L32.7104 58.1847C32.6514 58.5588 32.3294 58.8338 31.9504 58.8338H29.308C29.173 58.8338 29.045 58.7758 28.957 58.6728C28.87 58.5708 28.831 58.4348 28.852 58.3018L31.0903 44.1101C31.1493 43.736 31.4713 43.461 31.8503 43.461H37.384C39.2372 43.461 40.6314 43.95 41.4185 44.8742ZM89.709 53.7389C89.826 53.0058 89.666 52.3407 89.2609 51.8637C88.8569 51.3916 88.2458 51.1416 87.4927 51.1416C85.9835 51.1416 84.7644 52.1917 84.5233 53.6919C84.4003 54.428 84.5473 55.0901 84.9384 55.5541C85.3344 56.0222 85.9505 56.2692 86.7186 56.2692C88.2518 56.2692 89.4549 55.2531 89.709 53.7389ZM93.4024 48.5803C93.5384 48.5803 93.6664 48.6383 93.7544 48.7413C93.8425 48.8433 93.8815 48.9793 93.8605 49.1134L92.4273 58.1834C92.3683 58.5575 92.0472 58.8335 91.6682 58.8335H89.2819C89.1469 58.8345 89.0189 58.7745 88.9309 58.6725C88.8429 58.5695 88.8039 58.4325 88.8249 58.3005L88.9429 57.5634C88.9429 57.5634 87.6347 59.0805 85.2744 59.0805C83.9003 59.0805 82.7461 58.6835 81.937 57.7324C81.0569 56.6973 80.6979 55.2131 80.9499 53.6609C81.437 50.5495 83.9373 48.3313 86.8666 48.3313C88.1448 48.3313 89.4229 48.6093 89.996 49.4424L90.183 49.7114L90.3 48.9693C90.334 48.7453 90.5271 48.5803 90.7551 48.5803H93.4024ZM77.4995 48.6446C77.6095 47.9475 77.5215 47.4425 77.2305 47.1024C76.7434 46.5323 75.8003 46.5323 74.8022 46.5323H74.4191C74.1921 46.5323 73.9991 46.6974 73.9641 46.9214L73.378 50.6298H74.2121C75.6803 50.6298 77.1965 50.6298 77.4995 48.6446ZM80.8929 44.8742C81.609 45.7153 81.848 46.9174 81.6 48.4476C81.0489 51.943 78.9457 53.7072 75.2992 53.7072H73.548C73.17 53.7072 72.8479 53.9832 72.7889 54.3573L72.1539 58.3798C72.1129 58.6408 71.8878 58.8338 71.6228 58.8338H68.7825C68.6474 58.8338 68.5194 58.7758 68.4324 58.6728C68.3454 58.5708 68.3074 58.4348 68.3274 58.3018L70.5657 44.1101C70.6247 43.737 70.9467 43.461 71.3248 43.461H76.8604C78.7126 43.461 80.1068 43.95 80.8929 44.8742ZM99.8899 43.6225C99.9779 43.7255 100.016 43.8605 99.9939 43.9935L97.7546 58.1852C97.6966 58.5603 97.3736 58.8343 96.9945 58.8343H94.7103C94.5762 58.8343 94.4492 58.7753 94.3612 58.6733C94.2732 58.5703 94.2352 58.4353 94.2562 58.3023L96.5285 43.8505C96.5635 43.6265 96.7555 43.4615 96.9825 43.4605H99.5388C99.6738 43.4605 99.8029 43.5195 99.8899 43.6225ZM10.0495 51.0531C7.71227 51.0901 6.3071 50.676 5.99506 52.3562C5.80604 53.3894 5.05795 58.2089 4.83692 59.5721C4.82092 59.6681 4.78292 59.7061 4.6749 59.7061H0.658423C0.249374 59.7061 -0.0476616 59.3511 0.00634482 58.958L3.16172 38.9316C3.24273 38.4136 3.70579 38.0215 4.23885 38.0215C12.4408 38.0215 13.1299 37.8225 15.2242 38.6346C18.4615 39.8898 18.7576 42.9161 17.5934 46.1905C16.4363 49.5609 13.69 51.0101 10.0495 51.0531ZM19.2254 44.607C20.7546 45.7492 20.8576 47.7194 20.5076 49.5926C19.6185 54.0892 16.6351 55.6403 12.8117 55.6403C12.0046 55.6403 11.4815 55.5163 11.2345 56.7015C10.3994 61.9471 10.4964 61.328 10.4584 61.618C10.3674 62.0811 9.98534 62.4211 9.52128 62.4211H6.10187C5.71983 62.4211 5.4778 62.1081 5.5318 61.7261C5.5318 61.7261 5.77383 60.1479 6.99098 52.587C7.03398 52.2589 7.24901 52.0819 7.57805 52.0819C10.4854 52.0819 16.4411 52.615 18.5904 46.4862C18.7894 45.8882 18.9564 45.2911 19.0634 44.677C19.0914 44.51 19.1284 44.537 19.2254 44.607Z" fill="black"/>
</svg>
