<svg width="100" height="100" viewBox="0 0 100 100" fill="none" xmlns="http://www.w3.org/2000/svg">
<g clip-path="url(#clip0)">
<path d="M98.4288 26.388L94.5815 30.235L69.7684 5.42387L73.6157 1.57691C74.6264 0.565406 75.9977 -0.00292969 77.4277 -0.00292969C78.8576 -0.00292969 80.2289 0.565406 81.2396 1.57691L98.4288 18.7647C100.529 20.872 100.529 24.2808 98.4288 26.388Z" fill="black"/>
<path fill-rule="evenodd" clip-rule="evenodd" d="M9.31848 65.8803L65.6156 9.57592L90.417 34.387L34.1198 90.6679C33.3696 91.4232 32.4439 91.981 31.4256 92.2914L6.96541 99.7618C6.45391 99.9155 5.92294 99.9947 5.38885 99.9971C3.68211 99.9922 2.07811 99.1809 1.06298 97.8089C0.0478495 96.437 -0.258923 94.6659 0.235634 93.0325L7.69486 68.5744C8.00842 67.5575 8.5658 66.6326 9.31848 65.8803ZM28.7078 84.8681C29.4876 84.8656 30.2354 84.5572 30.7902 84.0093C31.9378 82.8647 31.9431 81.0075 30.802 79.8564L20.2132 69.2685C19.4758 68.5029 18.3826 68.1948 17.3539 68.4625C16.3252 68.7302 15.521 69.5321 15.2503 70.56C14.9797 71.5879 15.2847 72.6818 16.0483 73.4213L26.6371 84.0093C27.1861 84.5587 27.931 84.8676 28.7078 84.8681ZM25.6723 64.8451C26.8242 65.9907 28.6853 65.9907 29.8372 64.8451L66.8392 27.8343C67.8793 26.6709 67.8296 24.8979 66.7262 23.7945C65.6227 22.6911 63.8495 22.6415 62.6861 23.6814L25.6723 60.6805C24.533 61.8349 24.533 63.6906 25.6723 64.8451Z" fill="black"/>
</g>
<defs>
<clipPath id="clip0">
<rect width="100" height="100" fill="white"/>
</clipPath>
</defs>
</svg>
