<svg width="100" height="100" viewBox="0 0 100 100" fill="none" xmlns="http://www.w3.org/2000/svg">
<g clip-path="url(#clip0)">
<path d="M30.7992 79.8477L20.2073 69.2593C19.4696 68.4937 18.3762 68.1856 17.3471 68.4533C16.3181 68.721 15.5137 69.5229 15.243 70.5509C14.9722 71.5788 15.2774 72.6727 16.0411 73.4123L26.6919 84.0007C27.2381 84.5546 27.9851 84.8643 28.7632 84.8596C29.9548 84.8616 31.0301 84.145 31.4864 83.0446C31.9427 81.9441 31.69 80.6772 30.8463 79.8359L30.7992 79.8477Z" fill="black"/>
<path d="M25.0523 63.8928C25.5076 64.9881 26.5764 65.7029 27.7629 65.7055C28.544 65.7082 29.2938 65.399 29.8459 64.8466L66.8589 27.8461C67.6247 27.1087 67.9329 26.0156 67.6651 24.987C67.3973 23.9583 66.5951 23.1541 65.5669 22.8835C64.5386 22.6128 63.4443 22.9179 62.7045 23.6813L25.6798 60.6936C24.8445 61.536 24.5971 62.7975 25.0523 63.8928Z" fill="black"/>
<path fill-rule="evenodd" clip-rule="evenodd" d="M98.4575 18.8224L81.2633 1.57505C79.1552 -0.525015 75.7451 -0.525015 73.6371 1.57505L9.32046 65.8819C8.56744 66.6387 8.01003 67.5674 7.69636 68.5878L0.234928 93.0352C-0.26512 94.669 0.0395659 96.443 1.0561 97.8165C2.07264 99.19 3.68055 100 5.38967 100C5.92392 99.9976 6.45504 99.9184 6.96669 99.7647L31.4341 92.3058C32.4485 91.9858 33.3722 91.4294 34.1291 90.6822L98.4104 26.4342C100.51 24.3385 100.531 20.9438 98.4575 18.8224ZM29.9747 86.5175C29.905 86.5924 29.8151 86.6455 29.7158 86.6704L6.17818 93.8705L13.3689 70.3408C13.4053 70.2405 13.4613 70.1485 13.5337 70.0702L69.7887 13.7399L86.265 30.2108L29.9747 86.5175ZM90.4429 26.0695L73.9666 9.59869L77.4972 6.06923L93.9736 22.5401L90.4429 26.0695Z" fill="black"/>
</g>
<defs>
<clipPath id="clip0">
<rect width="100" height="100" fill="white"/>
</clipPath>
</defs>
</svg>
