<?xml version="1.0" encoding="UTF-8"?>
<svg width="100px" height="100px" viewBox="0 0 100 100" version="1.1" xmlns="http://www.w3.org/2000/svg" xmlns:xlink="http://www.w3.org/1999/xlink">
    <!-- Generator: Sketch 57.1 (83088) - https://sketch.com -->
    <title>solid/pencil-solid</title>
    <desc>Created with Sketch.</desc>
    <g id="solid/pencil" stroke="none" stroke-width="1" fill="none" fill-rule="evenodd">
        <path d="M12.8019802,71.7821782 L12.8019802,73.7029703 C12.8074047,75.0021402 13.8592459,76.0539814 15.1584158,76.059406 L17.0297029,76.059406 L17.0297029,77.9306931 C17.0351275,79.229863 18.0869687,80.2817042 19.3861386,80.2871287 L21.2673267,80.2871287 L21.2673267,82.1584159 C21.2646807,82.7841889 21.5120975,83.3850961 21.9545898,83.8275884 C22.3970821,84.2700807 22.9979893,84.5174975 23.6237623,84.5148515 L25.4950495,84.5148515 L25.4950495,86.3861387 C25.4924035,87.0119117 25.7398203,87.6128189 26.1823126,88.0553112 C26.6248049,88.4978035 27.2257121,88.7452203 27.8514851,88.7425743 L29.7029703,88.7425743 L29.7029703,92.4257426 L7.20792075,99.2970298 C6.7517136,99.4335977 6.27818811,99.5036261 5.80198015,99.5050002 C4.27470004,99.5098677 2.83616037,98.7879677 1.92731019,97.5605313 C1.01846001,96.3330949 0.747698048,94.7465187 1.19801975,93.2871288 L7.74257422,71.7821782 L12.8019802,71.7821782 Z M66.9603961,9.50495045 L90.9900991,33.5346534 L34.4356435,90.079208 L34.4356435,86.3861387 C34.4356435,85.1389412 33.4667174,84.1180485 32.240544,84.0351394 L32.0792079,84.029703 L30.2376237,84.029703 L30.2376237,82.1584159 C30.2324252,80.9133781 29.2661947,79.8954876 28.0422384,79.8080506 L27.8811881,79.8019802 L26.009901,79.8019802 L26.009901,77.9306931 C26.009901,76.6834956 25.0409749,75.6626029 23.8148014,75.5796938 L23.6534653,75.5742575 L21.7821782,75.5742575 L21.7821782,73.7029703 C21.7822674,73.071082 21.5285717,72.4656325 21.0780514,72.0225588 C20.6725831,71.6237924 20.1382656,71.3866238 19.5748753,71.3509197 L19.3861386,71.3465347 L17.5148515,71.3465347 L17.5148515,69.4653466 C17.5148515,68.2181491 16.5459253,67.1972564 15.3197519,67.1143473 L15.1584158,67.1089109 L9.50495045,67.1089109 C9.63523625,66.9210913 9.77581105,66.7407317 9.92600181,66.5686481 L10.1584158,66.3168317 L66.9603961,9.50495045 Z M81.2017974,1.73589185 L81.3762377,1.90099005 L98.5940595,19.1188119 C100.41014,20.9461524 100.465172,23.8628883 98.7591577,25.7562528 L98.5940595,25.930693 L94.3168317,30.1980198 L70.2970297,6.17821778 L74.5643565,1.90099005 C76.391697,0.0849098484 79.3084329,0.029877115 81.2017974,1.73589185 L81.2017974,1.73589185 Z" id="Shape" fill="#000000"></path>
    </g>
</svg>