<svg width="100" height="100" viewBox="0 0 100 100" fill="none" xmlns="http://www.w3.org/2000/svg">
<g clip-path="url(#clip0)">
<path d="M98.4248 26.3907L94.577 30.2376L69.7643 5.42663L73.6109 1.57997C74.1119 1.07906 74.7059 0.68156 75.3608 0.410717C76.0145 0.139586 76.7154 0 77.4231 0C78.1309 0 78.8329 0.139586 79.4867 0.410717C80.1404 0.68156 80.7344 1.07906 81.2354 1.57997L98.4248 18.7674C99.4336 19.7796 100 21.1502 100 22.5791C100 24.008 99.4336 25.3785 98.4248 26.3907Z" fill="black"/>
<path d="M90.412 34.3905L88.3416 32.3082L67.6824 11.6618L65.5993 9.59124L9.31457 65.8835C9.12155 66.0762 8.94116 66.2805 8.77342 66.4953H14.7261C15.4982 66.5013 16.237 66.8107 16.7827 67.3564C17.3285 67.9024 17.6387 68.6408 17.6445 69.4128V70.7067H18.9267C19.7068 70.7067 20.4548 71.0166 21.0063 71.5681C21.5578 72.1198 21.868 72.8677 21.868 73.6478V74.9302H23.1743C23.3743 74.9302 23.5742 74.9509 23.7695 74.9914C23.951 75.0287 24.128 75.083 24.2992 75.1539C24.6565 75.3019 24.9805 75.5184 25.2539 75.7916C25.4699 76.007 25.6492 76.2545 25.7894 76.5245C25.8261 76.5966 25.8606 76.6704 25.8916 76.7457C26.0398 77.1027 26.1157 77.485 26.1157 77.8713V79.1534H27.3979C27.7529 79.1534 28.101 79.2175 28.4262 79.3392C28.8168 79.4851 29.1765 79.714 29.4775 80.015C29.7096 80.2465 29.898 80.5128 30.0393 80.8014C30.2346 81.2004 30.3392 81.6421 30.3392 82.0945V83.3769H31.6214C32.4016 83.3769 33.1495 83.6868 33.701 84.2382C34.2525 84.79 34.5627 85.5379 34.5627 86.318V90.2473L90.412 34.3905Z" fill="black"/>
<path d="M28.6801 89.2593H27.3979C26.6178 89.2593 25.8698 88.9494 25.3183 88.3977C24.7668 87.8462 24.4566 87.098 24.4566 86.3183V85.0358H23.1743C22.3942 85.0358 21.6462 84.7259 21.0936 84.1745C20.5421 83.6227 20.233 82.8748 20.233 82.0948V80.8124H18.9497C18.1707 80.8124 17.4216 80.5024 16.8701 79.951C16.553 79.6339 16.3163 79.2516 16.1715 78.8357C16.0646 78.5284 16.0084 78.2027 16.0084 77.8713V76.5892H14.7261C14.3378 76.592 13.9529 76.5185 13.5933 76.372C13.2336 76.2255 12.9073 76.0093 12.6316 75.7361C12.3558 75.4627 12.1375 75.1373 11.9882 74.7788C11.8388 74.4207 11.7618 74.0361 11.7618 73.6481V72.3657H6.53756L0.232126 93.0356C-0.0125999 93.841 -0.0643026 94.6926 0.079316 95.5218C0.222935 96.3509 0.558428 97.1353 1.05937 97.812C1.35465 98.2118 1.70393 98.5677 2.09572 98.8701C2.36573 99.0795 2.65641 99.2633 2.96318 99.4187C3.71344 99.7984 4.54298 99.9977 5.38517 100C5.91943 99.9977 6.45024 99.9184 6.96152 99.7648L28.6801 93.1413V89.2593Z" fill="black"/>
</g>
<defs>
<clipPath id="clip0">
<rect width="100" height="100" fill="white"/>
</clipPath>
</defs>
</svg>
