<?xml version="1.0" encoding="UTF-8"?>
<svg width="100px" height="100px" viewBox="0 0 100 100" version="1.1" xmlns="http://www.w3.org/2000/svg" xmlns:xlink="http://www.w3.org/1999/xlink">
    <!-- Generator: Sketch 57.1 (83088) - https://sketch.com -->
    <title>bold/pencil-bold</title>
    <desc>Created with Sketch.</desc>
    <g id="bold/pencil" stroke="none" stroke-width="1" fill="none" fill-rule="evenodd">
        <path d="M97.029703,19.4257425 L80.5742575,2.97029698 C77.8970576,0.304262118 73.568289,0.304262118 70.8910891,2.97029698 L65.2277228,8.65346531 L65.2277228,8.65346531 L9.40594055,64.4752475 C8.61107927,65.2862879 7.99990605,66.2587624 7.61386134,67.3267327 C7.61386134,67.3762376 7.61386134,67.4158416 7.56435639,67.4554456 C7.51485144,67.4950495 7.46534649,67.6831683 7.43564352,67.8019802 L0.297029653,91.1584159 C-0.328131982,93.2323776 0.0627724235,95.4797619 1.3515099,97.2208248 C2.64024738,98.9618877 4.67546255,99.9921505 6.84158412,100 C7.51248421,99.9965328 8.17939092,99.8964968 8.82178214,99.7029703 L32.2178218,92.5643565 C32.9614947,92.3370594 33.6684569,92.0035867 34.3168317,91.5742575 L34.5445544,91.4257426 C34.8947741,91.1843473 35.2257947,90.9162206 35.5346535,90.6237624 L91.3366337,34.7722772 L91.3366337,34.7722772 L97.029703,29.1089109 C99.6957379,26.431711 99.6957379,22.1029424 97.029703,19.4257425 Z M10.0891089,89.9108911 L13.960396,77.2277228 C14.4050202,77.4147387 14.8759677,77.5316406 15.3564356,77.5742575 C15.5527788,79.7186867 17.2516103,81.4175182 19.3960396,81.6138614 C19.5961948,83.7565016 21.2930034,85.4533102 23.4356435,85.6534654 C23.4307749,85.7127716 23.4307749,85.772377 23.4356435,85.8316832 L10.0891089,89.9108911 Z M32.5841584,80.7920792 L32.3465346,80.7920792 C32.1638319,78.6415209 30.4659902,76.9311645 28.3168317,76.7326733 C28.1128924,74.5918133 26.4180877,72.8970086 24.2772277,72.6930693 C24.0695321,70.5539807 22.3767123,68.861161 20.2376237,68.6534654 C20.1778471,68.0426746 19.9960358,67.4501046 19.7029703,66.9108911 L68.4059406,18.2079208 L81.7920792,31.5841584 L32.5841584,80.7920792 Z M88.1188119,25.2277227 L74.7722773,11.8811881 L75.7623763,10.8910891 L89.1089109,24.2673267 L88.1188119,25.2277227 Z" id="pencil" fill="#000000"></path>
    </g>
</svg>