<?xml version="1.0" encoding="UTF-8"?>
<svg width="100px" height="100px" viewBox="0 0 100 100" version="1.1" xmlns="http://www.w3.org/2000/svg" xmlns:xlink="http://www.w3.org/1999/xlink">
    <!-- Generator: Sketch 57.1 (83088) - https://sketch.com -->
    <title>regular/pencil-regular</title>
    <desc>Created with Sketch.</desc>
    <g id="regular/pencil" stroke="none" stroke-width="1" fill="none" fill-rule="evenodd">
        <path d="M97.627451,19.4215686 L80.5784314,2.37254897 C78.7124614,0.518077368 75.6993033,0.518077368 73.8333334,2.37254897 L10.1078431,66.1568628 C9.49023143,66.7757462 9.020955,67.5265885 8.73529408,68.3529412 L8.73529408,68.4215686 L8.58823525,68.627451 L1.18627446,92.8627451 C0.740367675,94.3078274 1.0084751,95.8788489 1.90841499,97.0942516 C2.80835488,98.3096542 4.23279122,99.0244768 5.74509799,99.0196326 C6.21663725,99.0182965 6.68552033,98.9489546 7.13725486,98.8137255 L31.372549,91.4117647 C31.9409392,91.2304325 32.4794297,90.9661427 32.9705882,90.627451 L33.117647,90.5294118 C33.3650896,90.3523395 33.5978684,90.155625 33.8137255,89.9411765 L97.627451,26.1568627 C99.4861736,24.296475 99.4861736,21.2819563 97.627451,19.4215686 Z M5.77450976,94.3431373 C5.77450976,94.3431373 5.71568623,94.3431373 5.67647054,94.3431373 C5.65352934,94.3144837 5.65352934,94.2737516 5.67647054,94.2450981 L12.5490196,71.5686275 L12.6764706,71.5686275 L12.6764706,73.4313726 C12.6818419,74.7178055 13.7233709,75.7593345 15.0098039,75.7647059 L16.8627451,75.7647059 L16.8627451,77.6176471 C16.8681436,78.9078957 17.9156224,79.9509917 19.2058823,79.9509804 L21.0588235,79.9509804 L21.0588235,81.8039216 C21.0562034,82.4235596 21.3011946,83.0185756 21.7393487,83.4567297 C22.1775029,83.8948838 22.7725189,84.139875 23.3921568,84.1372549 L25.245098,84.1372549 L25.245098,85.9901961 C25.236563,86.8516117 25.7093098,87.6458263 26.4705882,88.0490196 L5.77450976,94.3431373 Z M33.0784314,84.1078432 C32.6921751,83.8410255 32.2341562,83.6974673 31.7647059,83.6960785 L29.9117647,83.6960785 L29.9117647,81.8431373 C29.9063933,80.5567043 28.8648643,79.5151753 27.5784314,79.509804 L25.7254902,79.509804 L25.7254902,77.6568628 C25.7254902,76.3681984 24.6808213,75.3235294 23.3921568,75.3235294 L21.5686274,75.3235294 L21.5686274,73.4705883 C21.5686387,72.1803283 20.5255427,71.1328496 19.2352941,71.127451 L17.372549,71.127451 L17.372549,69.2745098 C17.3719095,68.2713407 16.7275252,67.3818531 15.7745098,67.0686275 L69.6078432,13.2058823 L86.7941177,30.3921568 L33.0784314,84.1078432 Z M94.3235295,22.8627451 L90.0980393,27.0882353 L72.9117647,9.90196074 L77.1372549,5.67647054 C77.1753768,5.6391036 77.2363879,5.6391036 77.2745098,5.67647054 L94.3235295,22.7254902 C94.3529831,22.7665014 94.3529831,22.8217338 94.3235295,22.8627451 Z" id="pencil" fill="#000000"></path>
    </g>
</svg>