<?xml version="1.0" encoding="UTF-8"?>
<svg width="100px" height="100px" viewBox="0 0 100 100" version="1.1" xmlns="http://www.w3.org/2000/svg" xmlns:xlink="http://www.w3.org/1999/xlink">
    <!-- Generator: Sketch 57.1 (83088) - https://sketch.com -->
    <title>regular/phone-slash-regular</title>
    <desc>Created with Sketch.</desc>
    <g id="regular/phone-slash" stroke="none" stroke-width="1" fill="none" fill-rule="evenodd">
        <path d="M97.3134673,1.5150126 C98.1318525,1.72913765 98.7702471,2.3694323 98.9819392,3.18845017 C99.1936312,4.00746804 98.9454602,4.8769139 98.3333334,5.46078427 L4.96078427,98.8235295 C4.52686436,99.2651704 3.93285791,99.5126731 3.31372544,99.5098529 C2.69459298,99.5126731 2.10058653,99.2651704 1.66666662,98.8235295 C1.2284218,98.3874561 0.982035055,97.7947089 0.982035055,97.1764706 C0.982035055,96.5582324 1.2284218,95.9654852 1.66666662,95.5294118 L95.0392157,2.1568627 C95.6249026,1.54647375 96.4950821,1.30088754 97.3134673,1.5150126 Z M94.0392157,19.6568627 L99.0196079,14.7058823 C97.8151921,60.552405 61.2683373,97.5118915 15.6022707,99.3853671 L14.2156862,99.4313726 L19.1666666,94.5294118 C58.5894482,91.0850485 89.9277879,60.1064929 93.926433,20.848998 L94.0392157,19.6568627 L99.0196079,14.7058823 L94.0392157,19.6568627 Z M28.5579246,58.3807684 L28.872549,58.4117647 L21.6960784,65.5882353 L6.86274505,71.9313726 C6.01589617,72.323015 5.53544544,73.2225062 5.666545,74.1333616 L5.69607839,74.2941177 L6.99999996,79.9019608 L7.72549015,79.5588236 L3.17647054,84.1078432 L1.11764701,75.3431373 C0.430525071,72.2530424 1.97190973,69.1112705 4.80656329,67.7532255 L5.03921564,67.6470588 L25.4803921,58.882353 C26.4535297,58.4736579 27.5083601,58.3024419 28.5579246,58.3807684 Z M74.4215687,39.2745098 L75.754902,40.372549 L74.9803922,42.0196078 C68.1758073,56.5034885 56.5958128,68.1964138 42.1956799,75.1431126 L41.5490196,75.4509804 L39.9019608,76.2254902 L38.8039216,74.8921569 L45.8627451,67.8333334 C54.4082112,62.5973346 61.6259837,55.4602809 66.9566856,46.981549 L67.3529412,46.3431373 L74.4215687,39.2745098 Z M74.618536,1.53711556 L74.8627451,1.58823525 L83.254902,3.54901956 L83.6176471,3.63725486 L79.2745098,7.98039211 L79.5,7.48039211 L73.8039216,6.16666662 C72.8903675,5.95900793 71.9590481,6.39142354 71.5227342,7.20539158 L71.4509804,7.35294113 L65.1176471,22.1666666 L57.9313726,29.372549 C57.8054076,28.3241256 57.9308287,27.2623274 58.2952731,26.2744503 L58.4117647,25.9803921 L67.1764706,5.50980388 C68.4191318,2.59148304 71.5244907,0.948544216 74.618536,1.53711556 Z" id="Shape" fill="#000000"></path>
    </g>
</svg>