<svg width="100" height="100" viewBox="0 0 100 100" fill="none" xmlns="http://www.w3.org/2000/svg">
<g clip-path="url(#clip0)">
<path fill-rule="evenodd" clip-rule="evenodd" d="M75.1766 0.188148L94.306 4.59991C97.6501 5.35623 100.018 8.33616 100 11.7646C99.9483 60.4741 60.4743 99.948 11.7648 100C8.33792 100.014 5.36043 97.6474 4.60014 94.3058L0.18837 75.1881C-0.600804 71.7186 1.18687 68.1779 4.44719 66.7529L25.059 57.8823C28.0715 56.6131 31.5599 57.4744 33.6354 59.9999L41.2825 69.4117C53.3723 63.1999 63.2102 53.3538 69.4119 41.2587L60.0001 33.6234C57.4831 31.5354 56.6446 28.0375 57.9413 25.0352L66.7648 4.44697C68.1772 1.18682 71.7129 -0.603298 75.1766 0.188148ZM63.7648 29.0587L67.8237 32.3881L78.906 7.05874L73.859 5.88227C73.1537 5.74125 72.4464 6.11458 72.1648 6.77638L63.3531 27.3529C63.0905 27.9493 63.2591 28.6477 63.7648 29.0587ZM6.75308 72.1529C6.09209 72.4399 5.72713 73.1551 5.88249 73.8587L7.05896 78.8234L31.6472 66.8705L29.0943 63.7529C28.8092 63.3973 28.3733 63.1967 27.9178 63.2117C27.7195 63.2096 27.523 63.2497 27.3413 63.3293L6.75308 72.1529ZM10.3295 92.9411C10.4647 93.6262 11.0665 94.1195 11.7648 94.1176C57.2256 94.0657 94.0659 57.2254 94.1178 11.7646C94.1197 11.0663 93.6265 10.4645 92.9413 10.3293L84.706 8.42344L72.5531 36.247L76.6825 39.6352L75.7178 41.7058C68.7001 56.6548 56.6831 68.6844 41.7413 75.7176L39.6707 76.694L35.4825 71.5764L8.42367 84.7058L10.3295 92.9411Z" fill="black"/>
<path d="M27.5299 26.129H36.3534C37.9778 26.129 39.2946 27.4458 39.2946 29.0701C39.2946 30.6945 37.9778 32.0113 36.3534 32.0113H27.5299V40.8348C27.5299 42.4592 26.2131 43.776 24.5887 43.776C22.9643 43.776 21.6475 42.4592 21.6475 40.8348V32.0113H12.824C11.1996 32.0113 9.88281 30.6945 9.88281 29.0701C9.88281 27.4458 11.1996 26.129 12.824 26.129H21.6475V17.3054C21.6475 15.6811 22.9643 14.3643 24.5887 14.3643C26.2131 14.3643 27.5299 15.6811 27.5299 17.3054V26.129Z" fill="black"/>
</g>
<defs>
<clipPath id="clip0">
<rect width="100" height="100" fill="white"/>
</clipPath>
</defs>
</svg>
