<?xml version="1.0" encoding="UTF-8"?>
<svg width="100px" height="100px" viewBox="0 0 100 100" version="1.1" xmlns="http://www.w3.org/2000/svg" xmlns:xlink="http://www.w3.org/1999/xlink">
    <!-- Generator: Sketch 57.1 (83088) - https://sketch.com -->
    <title>bold/phone-slash-bold</title>
    <desc>Created with Sketch.</desc>
    <g id="bold/phone-slash" stroke="none" stroke-width="1" fill="none" fill-rule="evenodd">
        <path d="M95.7418633,1.00282863 C97.3413469,1.40970521 98.5902948,2.65865313 98.9971714,4.25813665 C99.4040479,5.85762017 98.9037096,7.55155149 97.6930694,8.67326729 L7.68316827,98.6831684 C6.84152954,99.5280383 5.69749258,100.002047 4.50495045,100.000013 C2.68557385,99.9981396 1.04590701,98.9020803 0.348607404,97.2216315 C-0.348692199,95.5411828 0.0332698147,93.6062517 1.31683163,92.3168317 L91.3267327,2.30693065 C92.4484485,1.09629042 94.1423798,0.595952053 95.7418633,1.00282863 Z M98.9504951,16.960396 C97.3399471,61.6467004 61.8288333,97.5885717 17.3217252,99.8814386 L15.970297,99.9405941 L26.0495049,89.8613862 C57.8237905,84.3238466 82.7744552,59.6355494 88.6976336,28.0003598 L88.8712872,27.0396039 L98.9504951,16.960396 Z M28.2079208,55.8613861 L12.3663366,71.7029703 L9.03960392,73.1287129 L9.39603956,74.6732674 L1.89108906,82.1782179 L0.217821732,74.9603961 C-0.691292299,70.9424716 1.31145716,66.8458614 5.00846206,65.0842519 L5.2574257,64.970297 L24.940594,56.5544555 C25.9736634,56.1112415 27.0838813,55.8757408 28.2079208,55.8613861 Z M76.3960396,39.5148515 L77.1188119,40.1089109 L75.6237624,43.2871287 C68.8421609,57.7187999 57.3015996,69.3684623 42.9513504,76.2874232 L42.3069307,76.5940594 L39.1386139,78.0891089 L38.5445544,77.3663367 L76.3960396,39.5148515 Z M73.7077587,1.15194745 L73.9702971,1.20792074 L81.1881188,2.88118807 L73.7029703,10.3861386 L72.1683169,10.0396039 L70.7524753,13.3366336 L54.8514852,29.2376237 C54.8693409,28.2362088 55.0571968,27.2460318 55.4061591,26.3091474 L55.5445545,25.960396 L63.990099,6.26732669 C65.6251068,2.47643972 69.6811444,0.357232092 73.7077587,1.15194745 Z" id="Shape" fill="#000000"></path>
    </g>
</svg>