<?xml version="1.0" encoding="UTF-8"?>
<svg width="100px" height="100px" viewBox="0 0 100 100" version="1.1" xmlns="http://www.w3.org/2000/svg" xmlns:xlink="http://www.w3.org/1999/xlink">
    <!-- Generator: Sketch 57.1 (83088) - https://sketch.com -->
    <title>solid/phone-slash-solid</title>
    <desc>Created with Sketch.</desc>
    <g id="solid/phone-slash" stroke="none" stroke-width="1" fill="none" fill-rule="evenodd">
        <path d="M95.7418633,1.00282863 C97.3413469,1.40970521 98.5902948,2.65865313 98.9971714,4.25813665 C99.4040479,5.85762017 98.9037096,7.55155149 97.6930694,8.67326729 L7.68316827,98.6831684 C6.84152954,99.5280383 5.69749258,100.002047 4.50495045,100.000013 C2.68557385,99.9981396 1.04590701,98.9020803 0.348607404,97.2216315 C-0.348692199,95.5411828 0.0332698147,93.6062517 1.31683163,92.3168317 L91.3267327,2.30693065 C92.4484485,1.09629042 94.1423798,0.595952053 95.7418633,1.00282863 Z M18.3366336,97.5742575 L96.5544555,19.3564356 C93.80052,60.9288685 60.9947981,94.1227753 19.5938176,97.4816284 L18.3366336,97.5742575 L96.5544555,19.3564356 L18.3366336,97.5742575 Z M25.2178218,58.8613861 L3.77227718,80.3168317 L2.41584154,74.4554456 C1.74440207,71.4833689 3.21632598,68.4543534 5.93858658,67.1356021 L6.16831679,67.029703 L25.2178218,58.8613861 Z M73.2176642,3.35404216 L73.4653466,3.40594055 L79.3267327,4.76237619 L57.8910891,26.1980198 L66.049505,7.1584158 C67.2592867,4.3604491 70.2446722,2.79074422 73.2176642,3.35404216 Z" id="Shape" fill="#000000"></path>
    </g>
</svg>