<?xml version="1.0" encoding="UTF-8"?>
<svg width="100px" height="100px" viewBox="0 0 100 100" version="1.1" xmlns="http://www.w3.org/2000/svg" xmlns:xlink="http://www.w3.org/1999/xlink">
    <!-- Generator: Sketch 57.1 (83088) - https://sketch.com -->
    <title>bold/phone-minus-bold</title>
    <desc>Created with Sketch.</desc>
    <g id="bold/phone-minus" stroke="none" stroke-width="1" fill="none" fill-rule="evenodd">
        <path d="M64.4851485,6.26732669 C66.1556999,2.39402913 70.3536875,0.265882649 74.4653466,1.20792074 L92.7425743,5.43564352 C96.7096073,6.33164177 99.5213099,9.86376589 99.505092,13.930693 C99.4667323,61.4496192 60.9545697,99.9617818 13.4356435,100.000053 C9.37425744,100.009973 5.8472265,97.2064355 4.94059401,93.2475248 L0.712871238,74.9603961 C-0.216445328,70.8531844 1.89695571,66.6637509 5.7524752,64.970297 L25.4653465,56.5247525 C29.0361223,55.0090071 33.1786139,56.0244817 35.6435643,59.019802 L42.0792079,66.8811881 C52.3701709,61.3046633 60.8210374,52.8606758 66.4059406,42.5742574 L58.5445545,36.1386138 C55.539846,33.6799272 54.51919,29.5327558 56.039604,25.960396 L64.4851485,6.26732669 Z M84.2079208,12.7029703 L73.6534654,36.8514851 L77.6138614,40.1089109 L76.1188119,43.2871287 C69.2260802,57.9408447 57.4263133,69.7230993 42.7623762,76.5940594 L39.5940594,78.0891089 L35.6336634,73.2079208 L12.1782178,84.5940594 L13.6534653,90.9702971 L13.6534653,91 C56.0274906,90.8317718 90.3367223,56.5225401 90.5049505,14.1485148 L84.2079208,12.7029703 Z M28.8217822,64.8811881 L9.53465342,73.1485149 L10.0990099,75.6039604 L29.8118812,66.049505 L28.8217822,64.8811881 Z M36.6435643,25.980198 C38.3016172,25.9024031 39.8681239,26.7426779 40.7204258,28.1670279 C41.5727276,29.5913778 41.5727276,31.3690182 40.7204258,32.7933681 C39.8681239,34.2177181 38.3016172,35.0579929 36.6435643,34.980198 L14.7425742,34.980198 C12.3392923,34.8674375 10.448761,32.8861238 10.448761,30.480198 C10.448761,28.0742722 12.3392923,26.0929585 14.7425742,25.980198 L36.6435643,25.980198 Z M72.6633664,10.0396039 L64.4158416,29.2970297 L66.3960396,30.9306931 L75.2871287,10.6435643 L72.6633664,10.0396039 Z" id="Shape" fill="#000000"></path>
    </g>
</svg>