<?xml version="1.0" encoding="UTF-8"?>
<svg width="100px" height="100px" viewBox="0 0 100 100" version="1.1" xmlns="http://www.w3.org/2000/svg" xmlns:xlink="http://www.w3.org/1999/xlink">
    <!-- Generator: Sketch 57.1 (83088) - https://sketch.com -->
    <title>regular/phone-plus-regular</title>
    <desc>Created with Sketch.</desc>
    <g id="regular/phone-plus" stroke="none" stroke-width="1" fill="none" fill-rule="evenodd">
        <path d="M67.8415842,5.09900986 C69.1295743,2.07423646 72.3990148,0.406154574 75.6039604,1.13861381 L84.079208,3.11881183 L94.7425743,5.58415837 C97.8266583,6.28054931 100.012647,9.02641438 100.000109,12.1881188 C99.9454361,60.6626626 60.6626626,99.9454361 12.1881188,100.000068 C9.03066649,100.00997 6.28785984,97.830528 5.58415837,94.7524753 L1.12871282,75.5940594 C0.416032962,72.3890266 2.07722057,69.1289459 5.08910887,67.8217822 L25.7425742,58.9405941 C28.5297362,57.769968 31.7549886,58.576281 33.6633663,60.9207921 L41.5841584,70.6435644 C54.1434676,64.3204215 64.3429264,54.1348443 70.6831683,41.5841584 L60.970297,33.6633663 C58.6080233,31.7663223 57.7984664,28.5280948 58.990099,25.7425742 L67.8415842,5.09900986 Z M84.9603961,8.17821778 L72.3762376,36.8910891 L76.5742575,40.2673267 L75.7920792,41.9306931 C68.8175557,56.7762961 56.875306,68.7185458 42.029703,75.6930693 L40.3663366,76.4752476 L36.1584158,71.3465347 L8.22772273,84.9108911 L10.2079208,93.6732674 C10.4182402,94.6011441 11.2367938,95.2641726 12.1881188,95.2772278 L12.1881188,95.2871288 C58.0820457,95.2434215 95.2663214,58.0325603 95.2772278,12.1386138 C95.2688501,11.1889411 94.6091399,10.3694254 93.6831684,10.1584158 L84.9603961,8.17821778 Z M28.3663366,63.1386139 C28.0872932,63.1409623 27.8114342,63.1981526 27.5544554,63.3069307 L6.93069303,72.1485149 C6.02515165,72.5673008 5.53444895,73.5610769 5.7524752,74.5346535 L7.06930689,80.1980198 L32.980198,67.6039604 L29.960396,63.9009901 C29.570598,63.4202418 28.985254,63.1402946 28.3663366,63.1386139 Z M25.0297029,15.7029703 C26.3311264,15.7029703 27.3861386,16.7579824 27.3861386,18.0594059 L27.3861386,27.1683168 L36.5049505,27.1683168 C37.806374,27.1683168 38.8613861,28.223329 38.8613861,29.5247525 C38.8613861,30.8261759 37.806374,31.8811881 36.5049505,31.8811881 L27.3861386,31.8811881 L27.3861386,41 C27.3861386,42.3014235 26.3311264,43.3564356 25.0297029,43.3564356 C23.7282795,43.3564356 22.6732673,42.3014235 22.6732673,41 L22.6732673,31.8811881 L13.5643564,31.8811881 C12.2629329,31.8811881 11.2079208,30.8261759 11.2079208,29.5247525 C11.2079208,28.223329 12.2629329,27.1683168 13.5643564,27.1683168 L22.6732673,27.1683168 L22.6732673,18.0594059 C22.6732673,16.7579824 23.7282795,15.7029703 25.0297029,15.7029703 Z M74.5346535,5.73267322 C73.5577837,5.51062235 72.5608,6.01326829 72.1584159,6.93069303 L63.3663366,27.5742574 C62.9993206,28.4056058 63.2206023,29.3792452 63.9108911,29.970297 L68.5841584,33.7920792 L80.2871287,7.0594059 L74.5346535,5.73267322 Z" id="Shape" fill="#000000"></path>
    </g>
</svg>