<?xml version="1.0" encoding="UTF-8"?>
<svg width="100px" height="100px" viewBox="0 0 100 100" version="1.1" xmlns="http://www.w3.org/2000/svg" xmlns:xlink="http://www.w3.org/1999/xlink">
    <!-- Generator: Sketch 57.1 (83088) - https://sketch.com -->
    <title>brand/php-brand</title>
    <desc>Created with Sketch.</desc>
    <g id="brand/php" stroke="none" stroke-width="1" fill="none" fill-rule="evenodd">
        <path d="M74.5674,42.374 C76.5784,42.374 77.9104,42.721 78.5264,43.403 C79.1294,44.071 79.2594,45.31 78.9164,47.083 C78.5464,48.98 77.8424,50.341 76.8234,51.125 C75.7924,51.918 74.1634,52.32 71.9814,52.32 L69.1474,52.32 L71.0804,42.374 L74.5674,42.374 Z M85.916,47.6923 C86.554,44.4103 86.05,41.7983 84.418,39.9303 C82.794,38.0723 80.212,37.1293 76.741,37.1293 L65.7,37.1293 C65.44,37.1293 65.217,37.3143 65.168,37.5683 L60.045,63.9263 C60.014,64.0863 60.056,64.2513 60.158,64.3763 C60.262,64.5013 60.415,64.5733 60.577,64.5733 L66.319,64.5733 C66.579,64.5733 66.802,64.3883 66.852,64.1333 L68.128,57.5653 L72.599,57.5653 C74.817,57.5653 76.676,57.3263 78.123,56.8543 C79.594,56.3773 80.948,55.5653 82.145,54.4453 C83.145,53.5263 83.966,52.4963 84.588,51.3833 C85.209,50.2713 85.656,49.0293 85.916,47.6923 Z M53.847,57.3683 C53.949,57.4933 54.103,57.5653 54.265,57.5653 L60.052,57.5653 C60.312,57.5653 60.535,57.3803 60.584,57.1263 L62.968,44.8603 C63.488,42.1783 63.066,40.1883 61.712,38.9433 C60.383,37.7223 58.102,37.1293 54.736,37.1293 L50.32,37.1293 L51.557,30.7683 C51.587,30.6093 51.545,30.4443 51.442,30.3193 C51.339,30.1943 51.186,30.1223 51.023,30.1223 L45.327,30.1223 C45.067,30.1223 44.844,30.3063 44.794,30.5603 L39.671,56.9193 C39.641,57.0783 39.683,57.2433 39.786,57.3683 C39.889,57.4933 40.042,57.5653 40.204,57.5653 L45.901,57.5653 C46.16,57.5653 46.384,57.3803 46.433,57.1263 L49.283,42.4643 L53.388,42.4643 C55.084,42.4643 55.658,42.8093 55.849,43.0153 C56.161,43.3513 56.214,44.1473 55.998,45.2563 L53.732,56.9193 C53.701,57.0783 53.743,57.2433 53.847,57.3683 Z M37.329,54.4453 C38.328,53.5263 39.15,52.4963 39.772,51.3833 C40.393,50.2713 40.84,49.0293 41.1,47.6923 C41.738,44.4103 41.234,41.7983 39.602,39.9303 C37.978,38.0723 35.395,37.1293 31.925,37.1293 L20.884,37.1293 C20.624,37.1293 20.401,37.3143 20.352,37.5683 L15.228,63.9263 C15.197,64.0863 15.239,64.2513 15.342,64.3763 C15.445,64.5013 15.599,64.5733 15.761,64.5733 L21.503,64.5733 C21.763,64.5733 21.986,64.3883 22.035,64.1333 L23.312,57.5653 L27.783,57.5653 C30.001,57.5653 31.86,57.3263 33.307,56.8543 C34.778,56.3773 36.132,55.5653 37.329,54.4453 Z M50,23.0003 C77.613,23.0003 100,34.7763 100,49.3013 C100,63.8283 77.613,75.6033 50,75.6033 C22.386,75.6033 0,63.8283 0,49.3013 C0,34.7763 22.386,23.0003 50,23.0003 Z M29.751,42.374 C31.762,42.374 33.094,42.721 33.71,43.403 C34.313,44.071 34.444,45.31 34.1,47.083 C33.73,48.98 33.026,50.34 32.007,51.125 C30.976,51.918 29.347,52.32 27.166,52.32 L24.331,52.32 L26.264,42.374 L29.751,42.374 Z" id="Shape" fill="#000000"></path>
    </g>
</svg>