<svg width="100" height="100" viewBox="0 0 100 100" fill="none" xmlns="http://www.w3.org/2000/svg">
<g clip-path="url(#clip0)">
<path d="M49.5176 0C30.2996 0.0194547 14.7253 15.5938 14.7058 34.8118C14.7058 49.9647 23.4235 66.5765 30.7293 77.8941C34.1391 83.1642 37.8471 88.2352 41.8352 93.0824C47.5411 100 48.2823 100 49.5176 100C50.7529 100 51.494 100 57.1999 93.0824C61.1926 88.2359 64.9046 83.1649 68.3176 77.8941C75.6235 66.6 84.3293 49.9647 84.3293 34.8118C84.3099 15.5938 68.7355 0.0194547 49.5176 0ZM49.5176 47.8C42.3704 47.8 36.5764 42.006 36.5764 34.8588C36.5764 27.7116 42.3704 21.9176 49.5176 21.9176C56.6648 21.9176 62.4588 27.7116 62.4588 34.8588C62.4588 38.291 61.0953 41.5827 58.6684 44.0096C56.2414 46.4366 52.9498 47.8 49.5176 47.8Z" fill="black"/>
</g>
<defs>
<clipPath id="clip0">
<rect width="100" height="100" fill="white"/>
</clipPath>
</defs>
</svg>
