<?xml version="1.0" encoding="UTF-8"?>
<svg width="100px" height="100px" viewBox="0 0 100 100" version="1.1" xmlns="http://www.w3.org/2000/svg" xmlns:xlink="http://www.w3.org/1999/xlink">
    <!-- Generator: Sketch 57.1 (83088) - https://sketch.com -->
    <title>bold/pin-bold</title>
    <desc>Created with Sketch.</desc>
    <g id="bold/pin" stroke="none" stroke-width="1" fill="none" fill-rule="evenodd">
        <path d="M49.83,100 C47.9,100 46.89,99.72 41.09,92.7 C37.1939479,87.9661754 33.5745866,83.0112564 30.25,77.86 C23.06,66.76 14.5,50.38 14.5,35.33 C14.5,15.8177798 30.3177798,-4.9999997e-08 49.83,-4.9999997e-08 C69.3422202,-4.9999997e-08 85.16,15.8177798 85.16,35.33 C85.16,50.38 76.6,66.76 69.42,77.86 C66.0892863,83.009525 62.4667012,87.9642866 58.57,92.7 C52.78,99.72 51.76,100 49.83,100 Z M49.83,9.08999996 C35.3449016,9.10653233 23.6065323,20.8449016 23.59,35.33 C23.59,55.45 42.59,80.48 49.83,88.94 C57.1,80.48 76.07,55.45 76.07,35.33 C76.0534677,20.8449016 64.3150984,9.10653233 49.83,9.08999996 Z M49.83,52.42 C40.3914536,52.42 32.74,44.7685464 32.74,35.33 C32.74,25.8914536 40.3914536,18.24 49.83,18.24 C59.2685464,18.24 66.92,25.8914536 66.92,35.33 C66.908979,44.7639775 59.2639776,52.408979 49.83,52.42 L49.83,52.42 Z M49.83,27.33 C45.411722,27.33 41.83,30.911722 41.83,35.33 C41.83,39.748278 45.411722,43.33 49.83,43.33 C54.248278,43.33 57.83,39.748278 57.83,35.33 C57.83,30.911722 54.248278,27.33 49.83,27.33 L49.83,27.33 Z" id="pin" fill="#000000"></path>
    </g>
</svg>