<svg width="100" height="100" viewBox="0 0 100 100" fill="none" xmlns="http://www.w3.org/2000/svg">
<path fill-rule="evenodd" clip-rule="evenodd" d="M33.5879 34.8122C33.5879 43.6098 40.7197 50.7416 49.5173 50.7416C58.3095 50.7287 65.4338 43.6044 65.4467 34.8122C65.4467 26.0147 58.3149 18.8828 49.5173 18.8828C40.7197 18.8828 33.5879 26.0147 33.5879 34.8122ZM40.235 30.9674C41.7901 27.2131 45.4536 24.7652 49.5173 24.7652C55.0634 24.7716 59.5579 29.2661 59.5644 34.8122C59.5644 38.8759 57.1165 42.5394 53.3621 44.0945C49.6078 45.6496 45.2864 44.79 42.413 41.9166C39.5395 39.0431 38.6799 34.7217 40.235 30.9674Z" fill="black"/>
<path fill-rule="evenodd" clip-rule="evenodd" d="M41.8355 93.0824C47.5413 100 48.2825 100 49.5178 100C50.7531 100 51.4943 100 57.2002 93.0824C61.1929 88.2359 64.9048 83.1649 68.3178 77.8941C75.6237 66.5765 84.3296 49.9647 84.3296 34.8118C84.3296 15.5858 68.7438 0 49.5178 0C30.2918 0 14.7061 15.5858 14.7061 34.8118C14.7061 49.9647 23.4237 66.6 30.7296 77.8941C34.1393 83.1642 37.8473 88.2352 41.8355 93.0824ZM20.5884 34.8118C20.6079 18.8426 33.5486 5.9018 49.5178 5.88235C65.487 5.9018 78.4278 18.8426 78.4472 34.8118C78.4472 57.0235 56.3766 85.7059 49.5178 93.0588C42.659 85.7059 20.5884 57.0353 20.5884 34.8118Z" fill="black"/>
</svg>
