<?xml version="1.0" encoding="UTF-8"?>
<svg width="100px" height="100px" viewBox="0 0 100 100" version="1.1" xmlns="http://www.w3.org/2000/svg" xmlns:xlink="http://www.w3.org/1999/xlink">
    <!-- Generator: Sketch 57.1 (83088) - https://sketch.com -->
    <title>solid/pin-solid</title>
    <desc>Created with Sketch.</desc>
    <g id="solid/pin" stroke="none" stroke-width="1" fill="none" fill-rule="evenodd">
        <path d="M49.63,-5.00000041e-08 C30.5157974,0.0275381035 15.0275381,15.5157974 15,34.63 C15,49.81 23.76,66.54 31.12,77.9 C34.5538106,83.2190403 38.2934316,88.3343075 42.32,93.22 C47.91,99.9999999 48.63,99.9999999 49.63,99.9999999 C50.63,99.9999999 51.36,99.9999999 56.95,93.22 C60.9765684,88.3343075 64.7161894,83.2190403 68.15,77.9 C75.5,66.54 84.27,49.81 84.27,34.63 C84.2424491,15.5118994 68.7481077,0.0220309869 49.63,-5.00000041e-08 Z M49.63,47.7800038 C42.3674555,47.7800038 36.48,41.8925445 36.48,34.63 C36.48,27.3674555 42.3674555,21.48 49.63,21.48 C56.8925445,21.48 62.7800038,27.3674555 62.7800038,34.63 C62.7826558,38.1184103 61.3980662,41.4647076 58.9313869,43.9313869 C56.4647076,46.3980662 53.1184103,47.7826558 49.63,47.7800038 Z" id="pin" fill="#000000"></path>
    </g>
</svg>