<?xml version="1.0" encoding="UTF-8"?>
<svg width="100px" height="100px" viewBox="0 0 100 100" version="1.1" xmlns="http://www.w3.org/2000/svg" xmlns:xlink="http://www.w3.org/1999/xlink">
    <!-- Generator: Sketch 57.1 (83088) - https://sketch.com -->
    <title>brand/pinterest-alt-brand</title>
    <desc>Created with Sketch.</desc>
    <g id="brand/pinterest-alt" stroke="none" stroke-width="1" fill="none" fill-rule="evenodd">
        <path d="M52.8729,-0.0002 C32.3159,-0.0002 11.9999,13.7048 11.9999,35.8838 C11.9999,49.9888 19.9339,58.0038 24.7429,58.0038 C26.7269,58.0038 27.8689,52.4738 27.8689,50.9108 C27.8689,49.0478 23.1199,45.0808 23.1199,37.3268 C23.1199,21.2178 35.3819,9.7978 51.2499,9.7978 C64.8939,9.7978 74.9919,17.5518 74.9919,31.7968 C74.9919,42.4358 70.7249,62.3918 56.8999,62.3918 C51.9109,62.3918 47.6439,58.7848 47.6439,53.6158 C47.6439,46.0418 52.9339,38.7088 52.9339,30.8958 C52.9339,17.6318 34.1199,20.0358 34.1199,36.0638 C34.1199,39.4308 34.5399,43.1568 36.0429,46.2228 C33.2779,58.1238 27.6279,75.8548 27.6279,88.1168 C27.6279,91.9038 28.1689,95.6308 28.5299,99.4178 C29.2109,100.1788 28.8699,100.0988 29.9119,99.7178 C40.0099,85.8938 39.6489,83.1878 44.2179,65.0968 C46.6819,69.7848 53.0539,72.3098 58.1019,72.3098 C79.3799,72.3098 88.9369,51.5718 88.9369,32.8788 C88.9369,12.9828 71.7469,-0.0002 52.8729,-0.0002" id="Fill-1" fill="#000000"></path>
    </g>
</svg>