<?xml version="1.0" encoding="UTF-8"?>
<svg width="100px" height="100px" viewBox="0 0 100 100" version="1.1" xmlns="http://www.w3.org/2000/svg" xmlns:xlink="http://www.w3.org/1999/xlink">
    <!-- Generator: Sketch 57.1 (83088) - https://sketch.com -->
    <title>brand/pinterest-brand</title>
    <desc>Created with Sketch.</desc>
    <g id="brand/pinterest" stroke="none" stroke-width="1" fill="none" fill-rule="evenodd">
        <path d="M49.9590336,0 C22.3686577,0 0,22.3686577 0,49.9590336 C0,71.1346696 13.1582103,89.2278332 31.7439699,96.504866 C31.2913411,92.5581024 30.9206451,86.4720929 31.9078356,82.1556324 C32.8120941,78.248836 37.7470474,57.3189984 37.7470474,57.3189984 C37.7470474,57.3189984 36.2662617,54.3174597 36.2662617,49.9180672 C36.2662617,42.9687656 40.2959573,37.7880138 45.3128435,37.7880138 C49.5883376,37.7880138 51.6446514,40.9953838 51.6446514,44.8192482 C51.6446514,49.0957415 48.9308767,55.5104814 47.4920565,61.4715933 C46.2990348,66.447513 50,70.5181751 54.8929878,70.5181751 C63.7747047,70.5181751 70.6001079,61.1428629 70.6001079,47.6559221 C70.6001079,35.6907336 62.0071541,27.3435783 49.712236,27.3435783 C35.4849024,27.3435783 27.1387462,37.9928459 27.1387462,49.0138087 C27.1387462,53.2893028 28.7833976,57.8945265 30.8387123,60.4034692 C31.2503747,60.8960652 31.2913411,61.3486941 31.1674427,61.8422893 C30.7977458,63.4050079 29.9344537,66.8172099 29.7695889,67.5166364 C29.5637577,68.421894 29.0301952,68.6277253 28.0839711,68.1740972 C21.834096,65.2554905 17.9272996,56.1679423 17.9272996,48.8079775 C17.9272996,33.0598909 29.3589257,18.5857597 50.9462241,18.5857597 C68.2560301,18.5857597 81.7439699,30.9206451 81.7439699,47.4500909 C81.7439699,64.6789633 70.8878719,78.5366 55.8392118,78.5366 C50.7813593,78.5366 46.0112708,75.9047581 44.4075858,72.7803201 C44.4075858,72.7803201 41.8996423,82.319498 41.2831478,84.6625767 C40.1730581,89.022002 37.1305529,94.4485522 35.0742391,97.7798205 C39.7613957,99.2196399 44.6953498,100 49.8761016,100 C77.4674767,100 99.8363587,77.6313423 99.8363587,50.0409664 C99.9180672,22.3686577 77.5494095,0 49.9590336,0" id="Fill-1" fill="#000000"></path>
    </g>
</svg>