<?xml version="1.0" encoding="UTF-8"?>
<svg width="100px" height="100px" viewBox="0 0 100 100" version="1.1" xmlns="http://www.w3.org/2000/svg" xmlns:xlink="http://www.w3.org/1999/xlink">
    <!-- Generator: Sketch 57.1 (83088) - https://sketch.com -->
    <title>brand/pinterest-square-brand</title>
    <desc>Created with Sketch.</desc>
    <g id="brand/pinterest-square" stroke="none" stroke-width="1" fill="none" fill-rule="evenodd">
        <path d="M55.3438,65.6161 C51.8098,65.6161 47.3488,63.8491 45.6238,60.5671 C42.4268,73.2321 42.6788,75.1251 35.6108,84.8031 C34.8808,85.0691 35.1198,85.1251 34.6428,84.5931 C34.3898,81.9411 34.0118,79.3331 34.0118,76.6821 C34.0118,68.0981 37.9668,55.6861 39.9018,47.3551 C38.8498,45.2101 38.5558,42.6011 38.5558,40.2451 C38.5558,29.0251 51.7248,27.3421 51.7248,36.6271 C51.7248,42.0961 48.0228,47.2291 48.0228,52.5311 C48.0228,56.1491 51.0098,58.6741 54.5018,58.6741 C64.1798,58.6741 67.1668,44.7051 67.1668,37.2581 C67.1668,27.2861 60.0978,21.8581 50.5468,21.8581 C39.4388,21.8581 30.8558,29.8521 30.8558,41.1291 C30.8558,46.5561 34.1798,49.3331 34.1798,50.6371 C34.1798,51.7311 33.3808,55.6021 31.9918,55.6021 C28.6258,55.6021 23.0718,49.9921 23.0718,40.1191 C23.0718,24.5931 37.2938,15.0001 51.6828,15.0001 C64.8948,15.0001 76.9278,24.0881 76.9278,38.0151 C76.9278,51.1001 70.2388,65.6161 55.3438,65.6161 M94.2808,0.0001 L5.7198,0.0001 C2.5608,0.0001 -0.0002,2.5611 -0.0002,5.7201 L-0.0002,94.2801 C-0.0002,97.4391 2.5608,100.0001 5.7198,100.0001 L94.2808,100.0001 C97.4398,100.0001 99.9998,97.4391 99.9998,94.2801 L99.9998,5.7201 C99.9998,2.5611 97.4398,0.0001 94.2808,0.0001" id="Fill-1" fill="#000000"></path>
    </g>
</svg>