<svg width="100" height="100" viewBox="0 0 100 100" fill="none" xmlns="http://www.w3.org/2000/svg">
<g clip-path="url(#clip0)">
<path d="M17.8122 100C16.535 100.003 15.3092 99.4971 14.406 98.594C13.5029 97.6908 12.9969 96.465 13 95.1878V4.80341C13.0033 3.00947 14.0042 1.36629 15.5967 0.540362C17.1892 -0.285564 19.1089 -0.157097 20.5772 0.873654L84.6416 46.0658C85.9176 46.9677 86.6763 48.433 86.6763 49.9956C86.6763 51.5582 85.9176 53.0235 84.6416 53.9254L20.5772 99.1175C19.7697 99.692 18.8032 100 17.8122 100ZM18.8829 6.87418V93.117L80.0647 49.9956L18.8829 6.87418Z" fill="black"/>
</g>
<defs>
<clipPath id="clip0">
<rect width="100" height="100" fill="white"/>
</clipPath>
</defs>
</svg>
