<svg width="100" height="100" viewBox="0 0 100 100" fill="none" xmlns="http://www.w3.org/2000/svg">
<path d="M91.6667 41.6667H58.3333V8.33333C58.3333 3.73096 54.6024 0 50 0C45.3976 0 41.6667 3.73096 41.6667 8.33333V41.6667H8.33333C3.73096 41.6667 0 45.3976 0 50C0 54.6024 3.73096 58.3333 8.33333 58.3333H41.6667V91.6667C41.6667 96.269 45.3976 100 50 100C54.6024 100 58.3333 96.269 58.3333 91.6667V58.3333H91.6667C96.269 58.3333 100 54.6024 100 50C100 45.3976 96.269 41.6667 91.6667 41.6667Z" fill="black"/>
</svg>
