<?xml version="1.0" encoding="UTF-8"?>
<svg width="100px" height="100px" viewBox="0 0 100 100" version="1.1" xmlns="http://www.w3.org/2000/svg" xmlns:xlink="http://www.w3.org/1999/xlink">
    <!-- Generator: Sketch 57.1 (83088) - https://sketch.com -->
    <title>bold/plus-bold</title>
    <desc>Created with Sketch.</desc>
    <g id="bold/plus" stroke="none" stroke-width="1" fill="none" fill-rule="evenodd">
        <path d="M95.45,45.45 L54.55,45.45 L54.55,4.54999995 C54.55,2.03710434 52.5128956,-4.9999997e-08 50,-4.9999997e-08 C47.4871044,-4.9999997e-08 45.45,2.03710434 45.45,4.54999995 L45.45,45.45 L4.54999995,45.45 C2.03710434,45.45 -4.9999997e-08,47.4871044 -4.9999997e-08,50 C-4.9999997e-08,52.5128956 2.03710434,54.55 4.54999995,54.55 L45.45,54.55 L45.45,95.45 C45.45,97.9628957 47.4871044,100 50,100 C52.5128956,100 54.55,97.9628957 54.55,95.45 L54.55,54.55 L95.45,54.55 C97.9628957,54.55 100,52.5128956 100,50 C100,47.4871044 97.9628957,45.45 95.45,45.45 Z" id="plus" fill="#000000"></path>
    </g>
</svg>