<svg width="100" height="100" viewBox="0 0 100 100" fill="none" xmlns="http://www.w3.org/2000/svg">
<path d="M70.0776 15.7608C65.9955 13.6469 60.9725 15.2405 58.8556 19.3211C58.2099 20.5453 57.8874 21.914 57.9187 23.2977V8.32805C57.9187 3.7286 54.1901 0 49.5906 0C44.9912 0 41.2626 3.7286 41.2626 8.32805V55.3503C41.2626 59.9498 44.9912 63.6784 49.5906 63.6784C54.1901 63.6784 57.9187 59.9498 57.9187 55.3503V23.3081C57.9585 26.3808 59.6872 29.1819 62.4158 30.5952C73.8606 36.5111 79.7741 49.4876 76.73 62.0062C73.6858 74.5247 62.474 83.3369 49.5906 83.3369C36.7073 83.3369 25.4954 74.5247 22.4513 62.0062C19.4071 49.4876 25.3206 36.5111 36.7654 30.5952C40.7123 28.4109 42.2026 23.4812 40.1268 19.4762C38.0509 15.4712 33.1637 13.8471 29.1036 15.8129C10.8395 25.2616 1.40637 45.9758 6.26861 65.9561C11.1309 85.9365 29.0272 100 49.5906 100C70.1541 100 88.0504 85.9365 92.9126 65.9561C97.7749 45.9758 88.3417 25.2616 70.0776 15.8129V15.7608Z" fill="black"/>
</svg>
