<?xml version="1.0" encoding="UTF-8"?>
<svg width="100px" height="100px" viewBox="0 0 100 100" version="1.1" xmlns="http://www.w3.org/2000/svg" xmlns:xlink="http://www.w3.org/1999/xlink">
    <!-- Generator: Sketch 57.1 (83088) - https://sketch.com -->
    <title>regular/power-regular</title>
    <desc>Created with Sketch.</desc>
    <g id="regular/power" stroke="none" stroke-width="1" fill="none" fill-rule="evenodd">
        <path d="M70.5,17.22 C88.4634065,26.5108032 97.7403644,46.8839681 92.9549809,66.5334745 C88.1695974,86.1829808 70.5638204,100.009203 50.34,100.000009 C30.1199133,100.000009 12.5226813,86.1707217 7.74266291,66.5237542 C2.96264448,46.8767867 12.2399138,26.509091 30.2,17.22 C30.9556167,16.8287941 31.8625412,16.8704218 32.5791437,17.3292022 C33.2957463,17.7879825 33.7131579,18.594216 33.6741437,19.4442022 C33.6351295,20.2941883 33.1456167,21.0587942 32.39,21.45 C16.3785396,29.7293065 8.10688848,47.8857911 12.3672502,65.4004449 C16.627612,82.9150988 32.3146351,95.2437423 50.34,95.2437423 C68.3653649,95.2437423 84.052388,82.9150988 88.3127498,65.4004449 C92.5731115,47.8857911 84.3014604,29.7293065 68.29,21.45 C67.1219178,20.8397253 66.6697254,19.3980822 67.2800001,18.23 C67.8902747,17.0619178 69.3319178,16.6097254 70.5,17.22 Z M51.53,0.318859371 C52.2663746,0.744005455 52.72,1.52970781 52.72,2.37999995 L52.72,56.16 C52.72,57.4744377 51.6544377,58.54 50.34,58.54 C49.0278384,58.5345212 47.9654788,57.4721616 47.96,56.16 L47.96,2.37999995 C47.96,1.52970781 48.4136254,0.744005455 49.15,0.318859371 C49.8863745,-0.106286713 50.7936255,-0.106286713 51.53,0.318859371 Z" id="Shape" fill="#000000"></path>
    </g>
</svg>