<?xml version="1.0" encoding="UTF-8"?>
<svg width="100px" height="100px" viewBox="0 0 100 100" version="1.1" xmlns="http://www.w3.org/2000/svg" xmlns:xlink="http://www.w3.org/1999/xlink">
    <!-- Generator: Sketch 57.1 (83088) - https://sketch.com -->
    <title>regular/previous-regular</title>
    <desc>Created with Sketch.</desc>
    <g id="regular/previous" stroke="none" stroke-width="1" fill="none" fill-rule="evenodd">
        <path d="M85.6568628,44.5196078 C76.127451,34.3921568 61.9901961,29.0490196 43.6176471,28.6372549 L43.6176471,15.2647058 C43.6273262,13.8680548 42.8057227,12.5993469 41.5273162,12.036848 C40.2489098,11.4743492 38.7584574,11.7257525 37.7352941,12.6764706 L3.24509799,44.1176471 C1.80146123,45.4294761 0.978376708,47.2895596 0.978376708,49.2401961 C0.978376708,51.1908325 1.80146123,53.050916 3.24509799,54.3627451 L37.7549019,85.8235294 C38.7767647,86.7729986 40.2648523,87.025056 41.5423922,86.4650677 C42.8199322,85.9050794 43.6429941,84.639968 43.6372549,83.2450981 L43.6372549,69.9411765 C73.6078432,70.5294118 88.0490196,82.3921569 92.9117647,87.5294118 C93.5707851,88.2295663 94.4894589,88.6274788 95.4509804,88.6274788 C95.8626809,88.6291156 96.2712646,88.5560356 96.6568628,88.4117647 C97.9728705,87.9243381 98.8689413,86.6961032 98.9313726,85.2941177 C99.3431373,77.7254902 98.8725491,58.5686275 85.6568628,44.5196078 Z M94.3529412,82.4215687 C87.5490196,76.1470588 71.627451,65.4411765 42.0686274,65.254902 C41.2424822,65.2494042 40.4483617,65.5741112 39.8627451,66.1568628 C39.2750906,66.7359684 38.9462941,67.5279083 38.9509804,68.3529412 L38.9509804,80.6176471 L6.39215682,50.9803922 C5.91476252,50.5585031 5.64308908,49.9508125 5.64701588,49.3137255 C5.64701588,48.6765812 5.91326351,48.0684258 6.3823529,47.6372549 L38.9509804,17.9117647 L38.9509804,30.1764706 C38.9405141,31.0033412 39.2589834,31.8004963 39.8363152,32.3925373 C40.4136471,32.9845783 41.2025395,33.3229978 42.0294118,33.3333333 C59.8333333,33.4607843 73.4019608,38.3137255 82.2254902,47.7745098 C92.9313726,59.0686275 94.4215687,74.2941177 94.3529412,82.4215687 Z" id="previous" fill="#000000"></path>
    </g>
</svg>