<?xml version="1.0" encoding="UTF-8"?>
<svg width="100px" height="100px" viewBox="0 0 100 100" version="1.1" xmlns="http://www.w3.org/2000/svg" xmlns:xlink="http://www.w3.org/1999/xlink">
    <!-- Generator: Sketch 57.1 (83088) - https://sketch.com -->
    <title>bold/previous-bold</title>
    <desc>Created with Sketch.</desc>
    <g id="bold/previous" stroke="none" stroke-width="1" fill="none" fill-rule="evenodd">
        <path d="M85.6568628,43.245098 C76.5294118,33.5294117 63.2450981,28.2254902 46.1372549,27.4509804 L46.1372549,16.8431372 C46.1394086,14.6357746 44.8375402,12.6355055 42.81833,11.7437407 C40.7991197,10.851976 38.4437773,11.2370731 36.8137255,12.7254902 L3.86274505,42.7647059 C2.01965194,44.437166 0.968584526,46.8102217 0.968584526,49.2990196 C0.968584526,51.7878175 2.01965194,54.1608732 3.86274505,55.8333333 L36.8137255,85.8627451 C38.4437773,87.3511622 40.7991197,87.7362593 42.81833,86.8444946 C44.8375402,85.9527298 46.1394086,83.9524607 46.1372549,81.7450981 L46.1372549,71.3333334 C72.3529412,72.4019608 85,82.7843138 89.3235295,87.3529412 C90.3749442,88.4679129 91.840024,89.0993517 93.3725491,89.098264 C94.0415922,89.1040926 94.7061071,88.9878025 95.3333334,88.754902 C97.4146696,87.992269 98.8439763,86.0659796 98.9705883,83.8529412 C99.3431373,76.3039216 98.8627451,57.2843137 85.6568628,43.245098 Z M42.4509804,62.3333333 C41.0616498,62.2955089 39.7203985,62.843394 38.7549019,63.8431373 C37.7814268,64.8174337 37.2408418,66.142397 37.2549019,67.5196079 L37.2549019,74.1764706 L9.92156859,49.2941176 L37.2549019,24.4117647 L37.2549019,31.0784314 C37.2601467,33.9252894 39.5552245,36.2378535 42.4019608,36.2647059 C58.7647059,36.3823529 71.1470588,40.7843137 79.1960785,49.3529412 C87.0392157,57.6764706 89.3921569,68.372549 89.9803922,76.0882353 C81.7843138,70 66.7941177,62.4803922 42.4509804,62.3333333 Z" id="previous" fill="#000000"></path>
    </g>
</svg>