<?xml version="1.0" encoding="UTF-8"?>
<svg width="100px" height="100px" viewBox="0 0 100 100" version="1.1" xmlns="http://www.w3.org/2000/svg" xmlns:xlink="http://www.w3.org/1999/xlink">
    <!-- Generator: Sketch 57.1 (83088) - https://sketch.com -->
    <title>solid/previous-solid</title>
    <desc>Created with Sketch.</desc>
    <g id="solid/previous" stroke="none" stroke-width="1" fill="none" fill-rule="evenodd">
        <path d="M85.6568628,44.5196078 C76.127451,34.3921568 61.9901961,29.0490196 43.6176471,28.6372549 L43.6176471,15.2647058 C43.6273262,13.8680548 42.8057227,12.5993469 41.5273162,12.036848 C40.2489098,11.4743492 38.7584574,11.7257525 37.7352941,12.6764706 L3.24509799,44.1176471 C1.80146123,45.4294761 0.978376708,47.2895596 0.978376708,49.2401961 C0.978376708,51.1908325 1.80146123,53.050916 3.24509799,54.3627451 L37.7549019,85.8333334 C38.7810029,86.7745747 40.266487,87.020237 41.540985,86.4594579 C42.815483,85.8986788 43.6379625,84.6375125 43.6372549,83.2450981 L43.6372549,69.9411765 C73.6078432,70.5294118 88.0490196,82.3921569 92.9117647,87.5294118 C93.5707851,88.2295663 94.4894589,88.6274576 95.4509804,88.6274576 C95.862606,88.6282568 96.2710372,88.5552041 96.6568628,88.4117647 C97.9728705,87.9243381 98.8689413,86.6961032 98.9313726,85.2941177 C99.3431373,77.7352941 98.8725491,58.5784314 85.6568628,44.5196078 Z" id="previous" fill="#000000"></path>
    </g>
</svg>