<svg width="100" height="100" viewBox="0 0 100 100" fill="none" xmlns="http://www.w3.org/2000/svg">
<g clip-path="url(#clip0)">
<path fill-rule="evenodd" clip-rule="evenodd" d="M63.5414 26.8861C64.659 32.5758 69.6417 36.6831 75.441 36.6952C78.6599 36.712 81.752 35.4415 84.0288 33.1663C88.1439 29.0806 88.7982 22.6571 85.5915 17.8258C82.3848 12.9945 76.2107 11.1019 70.8467 13.3059C65.4827 15.51 62.4238 21.1964 63.5414 26.8861ZM69.3755 22.9325C70.1113 20.1889 72.6001 18.2827 75.441 18.2869C77.9727 18.2905 80.2539 19.8162 81.2238 22.1544C82.1937 24.4927 81.6621 27.1847 79.8761 28.9789C77.872 30.9921 74.7645 31.4066 72.3026 29.989C69.8408 28.5714 68.6397 25.6761 69.3755 22.9325Z" fill="black"/>
<path fill-rule="evenodd" clip-rule="evenodd" d="M42.6536 97.3416C44.3537 99.0499 46.6666 100.007 49.0769 100C51.4871 100.007 53.8001 99.0499 55.5001 97.3416L95.1336 57.7141C96.7873 56.0648 97.7684 53.8595 97.8864 51.5271L99.9804 12.4407C100.174 9.09083 98.9273 5.8178 96.5543 3.44515C94.1813 1.0725 90.9078 -0.173891 87.5574 0.0195966L48.4534 2.10154C46.1467 2.24199 43.971 3.22092 42.336 4.85394L2.65549 44.5167C-0.885165 48.0619 -0.885165 53.8044 2.65549 57.3495L42.6536 97.3416ZM48.771 7.98274L87.8986 5.90079H87.8633C89.5468 5.79637 91.1941 6.41956 92.3868 7.61207C93.5795 8.80458 94.2028 10.4516 94.0983 12.1349L91.9925 51.186C91.9555 52.0724 91.5859 52.9123 90.9573 53.5385L51.3121 93.166C50.0634 94.4102 48.0433 94.4102 46.7946 93.166L6.79648 53.1738C5.55071 51.9213 5.55071 49.8979 6.79648 48.6453L46.4182 9.01783C47.0444 8.38934 47.8845 8.01977 48.771 7.98274Z" fill="black"/>
</g>
<defs>
<clipPath id="clip0">
<rect width="100" height="100" fill="white"/>
</clipPath>
</defs>
</svg>
