<?xml version="1.0" encoding="UTF-8"?>
<svg width="100px" height="100px" viewBox="0 0 100 100" version="1.1" xmlns="http://www.w3.org/2000/svg" xmlns:xlink="http://www.w3.org/1999/xlink">
    <!-- Generator: Sketch 57.1 (83088) - https://sketch.com -->
    <title>regular/pricetags-regular</title>
    <desc>Created with Sketch.</desc>
    <g id="regular/pricetags" stroke="none" stroke-width="1" fill="none" fill-rule="evenodd">
        <path d="M76.7821782,4.950495 C79.6571157,4.80771036 82.4585046,5.88655075 84.4950495,7.92079204 L84.6039604,8.03960392 L88.3267327,7.84158412 C91.2022724,7.69503582 94.0051368,8.77444446 96.039604,10.8118811 C98.0744141,12.8439944 99.1536044,15.6426945 99.009901,18.5148515 L97.1782179,52.9306931 C97.0736397,54.9238453 96.2340995,56.8075195 94.8217822,58.2178218 L59.970297,93.069307 C56.9374937,96.0903558 52.0328034,96.0903558 49,93.069307 L47.1485148,91.1386139 C44.0859785,93.1261578 40.0528923,92.714198 37.4554455,90.1485149 L2.26732668,54.960396 C-0.753722113,51.9275927 -0.753722113,47.0229024 2.26732668,43.990099 L37.1188119,9.13861382 C38.5291141,7.72629656 40.4127883,6.88675636 42.4059406,6.78217817 L76.7821782,4.950495 Z M88.8452865,12.5557444 L88.5742575,12.5643564 L54.1980198,14.3663366 C53.369143,14.4173694 52.587468,14.7694753 52,15.3564356 L17.1485148,50.2079208 C15.9614177,51.3981693 15.9614177,53.324603 17.1485148,54.5148515 L52.3366337,89.6930693 C53.5234874,90.8790293 55.4468097,90.8790293 56.6336634,89.6930693 L91.4752476,54.8415842 C92.0709096,54.2601621 92.4246079,53.4749518 92.4653466,52.6435644 L94.2574258,18.2673267 L94.2871288,18.2673267 C94.3712647,16.7288044 93.7960924,15.2272781 92.7056228,14.1386985 C91.6151532,13.0501188 90.1126315,12.4775519 88.5742575,12.5643564 L88.8452865,12.5557444 Z M49.7524752,11.1089109 L42.6534653,11.4851485 C41.8220779,11.5258871 41.0368675,11.8795855 40.4554455,12.4752475 L5.60396035,47.3267327 C4.41800039,48.5135864 4.41800039,50.4369087 5.60396035,51.6237624 L40.7920792,86.8118812 C41.5203161,87.5323828 42.562494,87.837592 43.5643564,87.6237624 L13.8613861,57.8415842 C10.8360286,54.8144275 10.8360286,49.9083448 13.8613861,46.8811881 L48.6732673,12.009901 C49.0050466,11.6775858 49.3662599,11.3760224 49.7524752,11.1089109 Z M77.6881188,18.6928661 C80.4657986,18.6928661 83.127737,19.8054976 85.079208,21.7821782 C88.0706332,24.7719635 88.9662077,29.2694868 87.3482394,33.1771229 C85.7302711,37.0847591 81.9174736,39.632767 77.6881188,39.632767 C73.4587641,39.632767 69.6459666,37.0847591 68.0279983,33.1771229 C66.41003,29.2694868 67.3056045,24.7719635 70.2970297,21.7821782 C72.2485006,19.8054976 74.9104391,18.6928661 77.6881188,18.6928661 Z M81.7227723,25.1188119 C79.4823358,22.8847753 75.8555898,22.8882335 73.6194179,25.1265388 C71.383246,27.364844 71.383246,30.9915916 73.6194179,33.2298968 C75.8555898,35.4682021 79.4823358,35.4716603 81.7227723,33.2376237 C83.9583313,30.9930331 83.9583313,27.3634025 81.7227723,25.1188119 Z" id="Shape" fill="#000000"></path>
    </g>
</svg>