<?xml version="1.0" encoding="UTF-8"?>
<svg width="100px" height="100px" viewBox="0 0 100 100" version="1.1" xmlns="http://www.w3.org/2000/svg" xmlns:xlink="http://www.w3.org/1999/xlink">
    <!-- Generator: Sketch 57.1 (83088) - https://sketch.com -->
    <title>bold/pricetag-bold</title>
    <desc>Created with Sketch.</desc>
    <g id="bold/pricetag" stroke="none" stroke-width="1" fill="none" fill-rule="evenodd">
        <path d="M48.6435644,100.000038 C45.8901899,100.007421 43.248308,98.9128766 41.3069307,96.9603961 L3.03960391,58.6930693 C-1.01193655,54.641005 -1.01193655,48.0718663 3.03960391,44.019802 L40.950495,6.10891085 C42.8183492,4.23147729 45.315928,3.1132111 47.960396,2.97029698 L85.3564357,0.990098961 C89.0350852,0.790650591 92.6249922,2.16497093 95.2300106,4.76998937 C97.8350291,7.37500782 99.2093494,10.9649148 99.009901,14.6435643 L97.029703,52.039604 C96.8921055,54.6813689 95.7810557,57.1785855 93.9108911,59.049505 L55.980198,96.9603961 C54.0388207,98.9128766 51.3969388,100.007421 48.6435644,100.000038 L48.6435644,100.000038 Z M86.049505,9.99009443 L85.8316832,9.99009443 L48.4356436,11.970297 C48.0114478,11.9913987 47.6097778,12.1675698 47.3069307,12.4653465 L9.40594055,50.3861386 C9.13472396,50.6440655 8.98118756,51.0019587 8.98118756,51.3762376 C8.98118756,51.7505165 9.13472396,52.1084098 9.40594055,52.3663366 L47.6732673,90.5940594 C47.9311942,90.865276 48.2890874,91.0188124 48.6633663,91.0188124 C49.0376452,91.0188124 49.3955385,90.865276 49.6534653,90.5940594 L87.5247525,52.6831683 C87.8234565,52.3849743 88.0000103,51.9859629 88.019802,51.5643564 L90,14.1683168 C90.0599082,13.0807494 89.6692534,12.0165162 88.919943,11.2259937 C88.1706326,10.4354712 87.1288189,9.98845021 86.039604,9.99009443 L86.049505,9.99009443 Z M73.8613862,39.4455653 C67.51791,39.4421856 62.0601225,34.9584341 60.8256246,28.7362386 C59.5911268,22.5140431 62.9237212,16.2862596 68.7854263,13.8613648 C74.6471314,11.4364699 81.4054863,13.489787 84.9275541,18.7656509 C88.4496219,24.0415148 87.7545211,31.0706191 83.2673268,35.5544554 L83.2673268,35.5544554 C80.7746845,38.0514069 77.3895575,39.4517805 73.8613862,39.4455653 Z M73.8613862,21.8316365 C71.7953723,21.8221521 70.0108724,23.2746258 69.6007834,25.2995533 C69.1906943,27.3244807 70.2694482,29.3568217 72.1763744,30.1518919 C74.0833006,30.9469621 76.2862863,30.2829034 77.4361377,28.5664111 C78.5859892,26.8499188 78.3618493,24.5599666 76.9009901,23.0990099 C76.0988082,22.2859376 75.0035668,21.8292897 73.8613862,21.8316365 L73.8613862,21.8316365 Z" id="pricetag" fill="#000000"></path>
    </g>
</svg>