<?xml version="1.0" encoding="UTF-8"?>
<svg width="100px" height="100px" viewBox="0 0 100 100" version="1.1" xmlns="http://www.w3.org/2000/svg" xmlns:xlink="http://www.w3.org/1999/xlink">
    <!-- Generator: Sketch 57.1 (83088) - https://sketch.com -->
    <title>regular/pricetag-regular</title>
    <desc>Created with Sketch.</desc>
    <g id="regular/pricetag" stroke="none" stroke-width="1" fill="none" fill-rule="evenodd">
        <path d="M49.1078431,99.509822 C46.8699374,99.514425 44.722003,98.6291515 43.1372549,97.0490197 L3.45098035,57.3529412 C1.86865063,55.7747941 0.979354597,53.6318554 0.979354597,51.3970588 C0.979354597,49.1622623 1.86865063,47.0193236 3.45098035,45.4411765 L42.7745098,6.09803917 C44.310241,4.5683919 46.3552859,3.65754428 48.5196078,3.53921564 L87.3137255,1.47058819 C90.4695673,1.29244243 93.5516378,2.46841883 95.7867075,4.70348855 C98.0217772,6.93855826 99.1977536,10.0206288 99.0196079,13.1764706 L96.9509804,51.9705882 C96.8326518,54.1349102 95.9218042,56.179955 94.3921569,57.7156863 L55.0686275,97.0490197 C53.4862827,98.6267475 51.3423533,99.5118236 49.1078431,99.509822 Z M87.9117647,6.13725486 L87.5588236,6.13725486 L48.7647059,8.20588231 C47.751927,8.25760688 46.7945195,8.68389783 46.0784314,9.40196074 L6.745098,48.7254902 C5.28179053,50.194505 5.28179053,52.5702009 6.745098,54.0392157 L46.4509804,93.7450981 C47.9199952,95.2084055 50.2956911,95.2084055 51.7647059,93.7450981 L91.0882353,54.4117647 C91.8085161,53.6932098 92.2349876,52.731901 92.2843138,51.7156863 L94.3431373,12.9215686 C94.4343507,11.1561705 93.7982104,9.43050186 92.5829618,8.14671024 C91.3677132,6.86291863 89.6795084,6.13314356 87.9117647,6.12745094 L87.9117647,6.13725486 Z M75.2647059,36.6961345 C69.7881734,36.713093 65.0634988,32.8562908 63.983665,27.4872446 C62.9038313,22.1181984 65.7700763,16.7346947 70.8273591,14.6331264 C75.8846418,12.5315581 81.7221475,14.2981933 84.7654916,18.8512973 C87.8088356,23.4044012 87.2090256,29.4738081 83.3333334,33.3431372 C81.1963345,35.4887699 78.2929898,36.6952631 75.2647059,36.6961345 L75.2647059,36.6961345 Z M75.2647059,18.431371 C72.5154487,18.4332065 70.0374543,20.0894073 68.9843133,22.628957 C67.9311724,25.1685067 68.5098611,28.0923015 70.4509804,30.0392157 C72.6265477,32.2212777 75.9969775,32.6688813 78.66666,31.1302836 C81.3363425,29.5916858 82.6387675,26.4510114 81.8414201,23.4746504 C81.0440727,20.4982893 78.3460179,18.429317 75.2647059,18.431371 Z" id="pricetag" fill="#000000"></path>
    </g>
</svg>