<svg width="100" height="100" viewBox="0 0 100 100" fill="none" xmlns="http://www.w3.org/2000/svg">
<path fill-rule="evenodd" clip-rule="evenodd" d="M39.8623 49.4831C39.8623 51.0421 39.4973 52.3351 38.7613 53.3631C37.9433 54.5271 36.8073 55.1271 35.3563 55.1601C34.2623 55.1951 33.1343 54.8511 31.9753 54.1331V60.7871L30.0983 60.1171V45.3491C30.4063 44.9711 30.8023 44.6471 31.2833 44.3721C32.4003 43.7211 33.7573 43.3861 35.3543 43.3701L35.3813 43.3961C36.8403 43.3791 37.9653 43.9771 38.7563 45.1931C39.4923 46.3071 39.8623 47.7361 39.8623 49.4831ZM37.7043 49.3561C37.7043 46.2891 36.8303 44.7141 35.0813 44.6291C34.3853 44.5951 33.7053 44.7071 33.0443 44.9621C32.5173 45.1521 32.1623 45.3381 31.9753 45.5271V52.8481C33.0933 53.5501 34.0873 53.8771 34.9533 53.8251C36.7873 53.7041 37.7043 52.2151 37.7043 49.3561ZM51.3301 53.8503C51.3301 55.9403 51.1201 57.3873 50.7021 58.1923C50.2811 58.9963 49.4801 59.6393 48.2971 60.1173C47.3391 60.4953 46.3021 60.7003 45.1891 60.7353L44.8791 59.5523C46.0111 59.3993 46.8071 59.2453 47.2691 59.0903C48.1791 58.7833 48.8031 58.3113 49.1451 57.6783C49.4201 57.1633 49.5561 56.1803 49.5561 54.7243V54.2363C48.2731 54.8193 46.9281 55.1083 45.5221 55.1083C44.5981 55.1083 43.7831 54.8193 43.0811 54.2363C42.2931 53.6013 41.8991 52.7963 41.8991 51.8223V44.0123L43.7751 43.3703V51.2303C43.7751 52.0703 44.0461 52.7163 44.5881 53.1703C45.1301 53.6233 45.8321 53.8413 46.6921 53.8253C47.5521 53.8063 48.4741 53.4743 49.4531 52.8243V43.6533H51.3301V53.8503ZM58.6543 55.0573C58.4303 55.0763 58.2253 55.0833 58.0363 55.0833C56.9743 55.0833 56.1473 54.8303 55.5563 54.3243C54.9673 53.8173 54.6723 53.1173 54.6723 52.2243V44.8333H53.3863V43.6533H54.6723V40.5183L56.5463 39.8513V43.6533H58.6543V44.8333H56.5463V52.1723C56.5463 52.8763 56.7353 53.3753 57.1123 53.6673C57.4363 53.9073 57.9523 54.0443 58.6543 54.0793V55.0573ZM70.0146 54.903H68.1386V47.661C68.1386 46.924 67.9656 46.289 67.6226 45.759C67.2276 45.16 66.6766 44.86 65.9706 44.86C65.1106 44.86 64.0356 45.314 62.7436 46.221V54.903H60.8676V37.591L62.7436 37V44.885C63.9426 44.012 65.2516 43.575 66.6746 43.575C67.6686 43.575 68.4736 43.91 69.0886 44.577C69.7066 45.244 70.0146 46.076 70.0146 47.069V54.903ZM82.043 49.0729C82.043 50.7499 81.613 52.1459 80.758 53.2599C79.815 54.5089 78.514 55.1349 76.854 55.1349C75.207 55.1349 73.924 54.5089 72.998 53.2599C72.158 52.1459 71.739 50.7499 71.739 49.0729C71.739 47.4959 72.193 46.1699 73.101 45.0909C74.06 43.9449 75.319 43.3699 76.878 43.3699C78.436 43.3699 79.704 43.9449 80.682 45.0909C81.589 46.1699 82.043 47.4959 82.043 49.0729ZM79.988 49.0599C79.988 47.8829 79.764 46.9089 79.318 46.1389C78.789 45.2009 77.966 44.7069 76.854 44.6549C74.796 44.7739 73.77 46.2479 73.77 49.0729C73.77 50.3679 73.983 51.4499 74.414 52.3179C74.965 53.4249 75.79 53.9709 76.89 53.9529C78.955 53.9359 79.988 52.3059 79.988 49.0599ZM92.7998 54.903H90.9238V47.25C90.9238 46.41 90.6708 45.756 90.1658 45.283C89.6608 44.813 88.9868 44.586 88.1488 44.604C87.2568 44.62 86.4088 44.912 85.6048 45.476V54.903H83.7288V45.244C84.8078 44.458 85.8018 43.945 86.7088 43.705C87.5658 43.481 88.3208 43.37 88.9718 43.37C89.4168 43.37 89.8358 43.413 90.2298 43.5C90.9668 43.67 91.5668 43.986 92.0288 44.45C92.5428 44.963 92.7998 45.579 92.7998 46.299V54.903ZM8.51269 39.3913C7.92769 39.3913 7.45269 39.8753 7.45269 40.4703C7.45269 41.0643 7.92769 41.5433 8.51269 41.5433C9.09569 41.5433 9.57269 41.0643 9.57269 40.4703C9.57269 39.8753 9.09569 39.3913 8.51269 39.3913ZM11.5667 37.6613C12.5327 37.6563 13.5387 37.7293 14.5087 37.8903C16.0407 38.1463 17.3327 39.2953 17.3327 40.8263V46.2033C17.3327 47.7803 16.0787 49.0733 14.5087 49.0733H8.86769C6.95269 49.0733 5.34069 50.7173 5.34069 52.5803V55.1613H3.39869C1.75769 55.1613 0.798693 53.9703 0.397693 52.2983C-0.144307 50.0523 -0.121307 48.7093 0.397693 46.5593C0.846693 44.6823 2.28369 43.6963 3.92569 43.6963H11.6917V42.9783H6.04469V40.8263C6.04469 39.1973 6.47869 38.3133 8.86769 37.8903C9.67969 37.7463 10.6017 37.6643 11.5667 37.6613ZM14.8643 57.3132C14.2813 57.3132 13.8043 57.7922 13.8043 58.3862C13.8043 58.9812 14.2813 59.4652 14.8643 59.4652C15.4493 59.4652 15.9243 58.9812 15.9243 58.3862C15.9243 57.7922 15.4493 57.3132 14.8643 57.3132ZM18.0363 43.6962H20.1563C21.7993 43.6962 22.5733 44.9252 22.9793 46.5592C23.5443 48.8282 23.5693 50.5292 22.9793 52.2982C22.4083 54.0162 21.7973 55.1612 20.1563 55.1612H11.6923V55.8782H17.3323V58.0312C17.3323 59.6612 15.9303 60.4892 14.5093 60.9002C12.3703 61.5212 10.6563 61.4262 8.86829 60.9002C7.37529 60.4612 6.04429 59.5612 6.04429 58.0312V52.6542C6.04429 51.1062 7.32329 49.7842 8.86829 49.7842H14.5093C16.3883 49.7842 18.0363 48.1472 18.0363 46.2042V43.6962ZM97.8535 41.9802V39.6712H98.3075L98.8995 41.6492L99.5945 39.6712H99.9995V41.9802H99.6935V40.1022L99.0575 41.9802H98.7455L98.1345 40.0962V41.9802H97.8535ZM96.4545 41.9802V39.9172H95.6745V39.6712H97.5625V39.9172H96.7835V41.9802H96.4545Z" fill="black"/>
</svg>
