<?xml version="1.0" encoding="UTF-8"?>
<svg width="100px" height="100px" viewBox="0 0 100 100" version="1.1" xmlns="http://www.w3.org/2000/svg" xmlns:xlink="http://www.w3.org/1999/xlink">
    <!-- Generator: Sketch 57.1 (83088) - https://sketch.com -->
    <title>brand/python-brand</title>
    <desc>Created with Sketch.</desc>
    <g id="brand/python" stroke="none" stroke-width="1" fill="none" fill-rule="evenodd">
        <path d="M39.8623,49.4832 C39.8623,51.0422 39.4973,52.3352 38.7613,53.3632 C37.9433,54.5272 36.8073,55.1272 35.3563,55.1602 C34.2623,55.1952 33.1343,54.8512 31.9753,54.1332 L31.9753,60.7872 L30.0983,60.1172 L30.0983,45.3492 C30.4063,44.9712 30.8023,44.6472 31.2833,44.3722 C32.4003,43.7212 33.7573,43.3862 35.3543,43.3702 L35.3813,43.3962 C36.8403,43.3792 37.9653,43.9772 38.7563,45.1932 C39.4923,46.3072 39.8623,47.7362 39.8623,49.4832 Z M37.7043,49.3562 C37.7043,46.2892 36.8303,44.7142 35.0813,44.6292 C34.3853,44.5952 33.7053,44.7072 33.0443,44.9622 C32.5173,45.1522 32.1623,45.3382 31.9753,45.5272 L31.9753,52.8482 C33.0933,53.5502 34.0873,53.8772 34.9533,53.8252 C36.7873,53.7042 37.7043,52.2152 37.7043,49.3562 Z M51.3301,53.8504 C51.3301,55.9404 51.1201,57.3874 50.7021,58.1924 C50.2811,58.9964 49.4801,59.6394 48.2971,60.1174 C47.3391,60.4954 46.3021,60.7004 45.1891,60.7354 L44.8791,59.5524 C46.0111,59.3994 46.8071,59.2454 47.2691,59.0904 C48.1791,58.7834 48.8031,58.3114 49.1451,57.6784 C49.4201,57.1634 49.5561,56.1804 49.5561,54.7244 L49.5561,54.2364 C48.2731,54.8194 46.9281,55.1084 45.5221,55.1084 C44.5981,55.1084 43.7831,54.8194 43.0811,54.2364 C42.2931,53.6014 41.8991,52.7964 41.8991,51.8224 L41.8991,44.0124 L43.7751,43.3704 L43.7751,51.2304 C43.7751,52.0704 44.0461,52.7164 44.5881,53.1704 C45.1301,53.6234 45.8321,53.8414 46.6921,53.8254 C47.5521,53.8064 48.4741,53.4744 49.4531,52.8244 L49.4531,43.6534 L51.3301,43.6534 L51.3301,53.8504 Z M58.6543,55.0574 C58.4303,55.0764 58.2253,55.0834 58.0363,55.0834 C56.9743,55.0834 56.1473,54.8304 55.5563,54.3244 C54.9673,53.8174 54.6723,53.1174 54.6723,52.2244 L54.6723,44.8334 L53.3863,44.8334 L53.3863,43.6534 L54.6723,43.6534 L54.6723,40.5184 L56.5463,39.8514 L56.5463,43.6534 L58.6543,43.6534 L58.6543,44.8334 L56.5463,44.8334 L56.5463,52.1724 C56.5463,52.8764 56.7353,53.3754 57.1123,53.6674 C57.4363,53.9074 57.9523,54.0444 58.6543,54.0794 L58.6543,55.0574 Z M70.0146,54.9031 L68.1386,54.9031 L68.1386,47.6611 C68.1386,46.9241 67.9656,46.2891 67.6226,45.7591 C67.2276,45.1601 66.6766,44.8601 65.9706,44.8601 C65.1106,44.8601 64.0356,45.3141 62.7436,46.2211 L62.7436,54.9031 L60.8676,54.9031 L60.8676,37.5911 L62.7436,37.0001 L62.7436,44.8851 C63.9426,44.0121 65.2516,43.5751 66.6746,43.5751 C67.6686,43.5751 68.4736,43.9101 69.0886,44.5771 C69.7066,45.2441 70.0146,46.0761 70.0146,47.0691 L70.0146,54.9031 Z M82.043,49.073 C82.043,50.75 81.613,52.146 80.758,53.26 C79.815,54.509 78.514,55.135 76.854,55.135 C75.207,55.135 73.924,54.509 72.998,53.26 C72.158,52.146 71.739,50.75 71.739,49.073 C71.739,47.496 72.193,46.17 73.101,45.091 C74.06,43.945 75.319,43.37 76.878,43.37 C78.436,43.37 79.704,43.945 80.682,45.091 C81.589,46.17 82.043,47.496 82.043,49.073 Z M79.988,49.06 C79.988,47.883 79.764,46.909 79.318,46.139 C78.789,45.201 77.966,44.707 76.854,44.655 C74.796,44.774 73.77,46.248 73.77,49.073 C73.77,50.368 73.983,51.45 74.414,52.318 C74.965,53.425 75.79,53.971 76.89,53.953 C78.955,53.936 79.988,52.306 79.988,49.06 Z M92.7998,54.9031 L90.9238,54.9031 L90.9238,47.2501 C90.9238,46.4101 90.6708,45.7561 90.1658,45.2831 C89.6608,44.8131 88.9868,44.5861 88.1488,44.6041 C87.2568,44.6201 86.4088,44.9121 85.6048,45.4761 L85.6048,54.9031 L83.7288,54.9031 L83.7288,45.2441 C84.8078,44.4581 85.8018,43.9451 86.7088,43.7051 C87.5658,43.4811 88.3208,43.3701 88.9718,43.3701 C89.4168,43.3701 89.8358,43.4131 90.2298,43.5001 C90.9668,43.6701 91.5668,43.9861 92.0288,44.4501 C92.5428,44.9631 92.7998,45.5791 92.7998,46.2991 L92.7998,54.9031 Z M8.5127,39.3914 C7.9277,39.3914 7.4527,39.8754 7.4527,40.4704 C7.4527,41.0644 7.9277,41.5434 8.5127,41.5434 C9.0957,41.5434 9.5727,41.0644 9.5727,40.4704 C9.5727,39.8754 9.0957,39.3914 8.5127,39.3914 Z M11.5667,37.6614 C12.5327,37.6564 13.5387,37.7294 14.5087,37.8904 C16.0407,38.1464 17.3327,39.2954 17.3327,40.8264 L17.3327,46.2034 C17.3327,47.7804 16.0787,49.0734 14.5087,49.0734 L8.8677,49.0734 C6.9527,49.0734 5.3407,50.7174 5.3407,52.5804 L5.3407,55.1614 L3.3987,55.1614 C1.7577,55.1614 0.7987,53.9704 0.3977,52.2984 C-0.1443,50.0524 -0.1213,48.7094 0.3977,46.5594 C0.8467,44.6824 2.2837,43.6964 3.9257,43.6964 L11.6917,43.6964 L11.6917,42.9784 L6.0447,42.9784 L6.0447,40.8264 C6.0447,39.1974 6.4787,38.3134 8.8677,37.8904 C9.6797,37.7464 10.6017,37.6644 11.5667,37.6614 Z M14.8643,57.3133 C14.2813,57.3133 13.8043,57.7923 13.8043,58.3863 C13.8043,58.9813 14.2813,59.4653 14.8643,59.4653 C15.4493,59.4653 15.9243,58.9813 15.9243,58.3863 C15.9243,57.7923 15.4493,57.3133 14.8643,57.3133 Z M18.0363,43.6963 L20.1563,43.6963 C21.7993,43.6963 22.5733,44.9253 22.9793,46.5593 C23.5443,48.8283 23.5693,50.5293 22.9793,52.2983 C22.4083,54.0163 21.7973,55.1613 20.1563,55.1613 L11.6923,55.1613 L11.6923,55.8783 L17.3323,55.8783 L17.3323,58.0313 C17.3323,59.6613 15.9303,60.4893 14.5093,60.9003 C12.3703,61.5213 10.6563,61.4263 8.8683,60.9003 C7.3753,60.4613 6.0443,59.5613 6.0443,58.0313 L6.0443,52.6543 C6.0443,51.1063 7.3233,49.7843 8.8683,49.7843 L14.5093,49.7843 C16.3883,49.7843 18.0363,48.1473 18.0363,46.2043 L18.0363,43.6963 Z M97.8535,41.9803 L97.8535,39.6713 L98.3075,39.6713 L98.8995,41.6493 L99.5945,39.6713 L99.9995,39.6713 L99.9995,41.9803 L99.6935,41.9803 L99.6935,40.1023 L99.0575,41.9803 L98.7455,41.9803 L98.1345,40.0963 L98.1345,41.9803 L97.8535,41.9803 Z M96.4545,41.9803 L96.4545,39.9173 L95.6745,39.9173 L95.6745,39.6713 L97.5625,39.6713 L97.5625,39.9173 L96.7835,39.9173 L96.7835,41.9803 L96.4545,41.9803 Z" id="Shape" fill="#000000"></path>
    </g>
</svg>