<?xml version="1.0" encoding="UTF-8"?>
<svg width="100px" height="100px" viewBox="0 0 100 100" version="1.1" xmlns="http://www.w3.org/2000/svg" xmlns:xlink="http://www.w3.org/1999/xlink">
    <!-- Generator: Sketch 57.1 (83088) - https://sketch.com -->
    <title>solid/quit-solid</title>
    <desc>Created with Sketch.</desc>
    <g id="solid/quit" stroke="none" stroke-width="1" fill="none" fill-rule="evenodd">
        <path d="M49.17,9.33999996 L49.17,98.58 L42.39,100 L42.39,93.76 L16.5,93.76 L16.5,70.18 C18.6667946,72.3218795 21.5932699,73.519074 24.64,73.51 C24.8933333,73.51 25.1466666,73.4877778 25.4,73.472963 L25.78,73.46 L25.78,84.51 L42.39,84.51 L42.39,10.76 L49.17,9.33999996 Z M87.5,-4.9999997e-08 L87.5,89.14 C87.4973101,89.533093 87.4404829,89.9234669 87.3314926,90.300189 L87.24,90.58 L83.76,91.32 L53.76,97.61 L53.76,9.24999996 L25.76,9.24999996 L25.76,32.72 C22.4574811,32.3965741 19.1809958,33.5056532 16.7564726,35.7546837 L16.5,36 L16.5,-4.9999997e-08 L87.5,-4.9999997e-08 Z M21.4,40.88 C22.5682584,39.7117415 24.2710323,39.2554845 25.8669031,39.6830968 C27.4627739,40.1107091 28.7092909,41.3572261 29.1369032,42.9530969 C29.5645154,44.5489677 29.1082585,46.2517415 27.94,47.42 L26.94,48.42 L35.5,48.42 C38.0570784,48.42 40.13,50.4929216 40.13,53.05 C40.13,55.6070784 38.0570784,57.68 35.5,57.68 L26.91,57.68 L27.91,58.68 C29.2339882,60.0014192 29.6304985,61.9908055 28.9143093,63.7188583 C28.1981202,65.4469111 26.5105846,66.5725673 24.64,66.57 C23.4211871,66.5849993 22.2458309,66.1177323 21.37,65.27 L13.1,57 C12.058225,55.9636552 11.4809511,54.5493341 11.5,53.08 L11.5058592,52.8081567 C11.5691395,51.453172 12.1397843,50.1674176 13.11,49.21 L21.4,40.88 Z" id="Shape" fill="#000000"></path>
    </g>
</svg>