<?xml version="1.0" encoding="UTF-8"?>
<svg width="100px" height="100px" viewBox="0 0 100 100" version="1.1" xmlns="http://www.w3.org/2000/svg" xmlns:xlink="http://www.w3.org/1999/xlink">
    <!-- Generator: Sketch 57.1 (83088) - https://sketch.com -->
    <title>regular/quit-regular</title>
    <desc>Created with Sketch.</desc>
    <g id="regular/quit" stroke="none" stroke-width="1" fill="none" fill-rule="evenodd">
        <path d="M86.09,-4.9999997e-08 L86.09,90.8 L84.21,91.2 L52,98 L42.25,100 L42.25,91.25 L18.14,91.25 L18.14,68.43 C19.5027244,69.5253986 21.1444816,70.2181232 22.88,70.43 L22.88,86.51 L42.25,86.51 L42.25,8.64999996 L51.09,6.78999996 L60.88,4.73999995 L22.88,4.73999995 L22.88,33.52 C21.1444816,33.7318768 19.5027244,34.4246014 18.14,35.52 L18.14,-4.9999997e-08 L86.09,-4.9999997e-08 Z M49.2,12 L47,12.49 L47,94.17 L49.2,93.71 L49.2,12 Z M81.37,5.27999996 L53.93,11 L53.93,92.71 L81.37,87 L81.37,5.27999996 Z M22.37,41.28 C22.9617019,40.649516 23.849804,40.3913025 24.6873122,40.6062472 C25.5248204,40.821192 26.178808,41.4751795 26.3937527,42.3126878 C26.6086975,43.150196 26.350484,44.0382981 25.72,44.63 L20.72,49.63 L35.18,49.63 C36.4889148,49.63 37.55,50.6910851 37.55,52 C37.55,53.3089149 36.4889148,54.37 35.18,54.37 L20.76,54.37 L25.76,59.37 C26.4311584,60.0514575 26.6291658,61.0684897 26.2626866,61.9519663 C25.8962074,62.8354429 25.0364508,63.4136989 24.08,63.42 C23.4700225,63.4039128 22.8897527,63.1531789 22.46,62.72 L14,54.26 C12.7360686,52.9949364 12.7360686,50.9450636 14,49.68 L22.37,41.28 Z" id="Shape" fill="#000000"></path>
    </g>
</svg>