<?xml version="1.0" encoding="UTF-8"?>
<svg width="100px" height="100px" viewBox="0 0 100 100" version="1.1" xmlns="http://www.w3.org/2000/svg" xmlns:xlink="http://www.w3.org/1999/xlink">
    <!-- Generator: Sketch 57.1 (83088) - https://sketch.com -->
    <title>solid/reload-solid</title>
    <desc>Created with Sketch.</desc>
    <g id="solid/reload" stroke="none" stroke-width="1" fill="none" fill-rule="evenodd">
        <path d="M91.2574258,42.2475247 C89.0683313,42.2448968 86.9679966,43.1126696 85.4191436,44.6596655 C83.8702906,46.2066613 82.9999985,48.3059534 83,50.4950495 C82.9698168,64.8227967 73.6816195,77.4878525 60.0252814,81.8225592 C46.3689433,86.1572659 31.4768251,81.1673699 23.1890458,69.4798567 C14.9012665,57.7923434 15.1187978,42.0879833 23.7271181,30.634509 C32.3354384,19.1810346 47.3600532,14.6055348 60.8910891,19.3168317 C60.421226,20.5807051 60.2649428,21.9396894 60.4356436,23.2772277 C60.9721379,27.3802845 64.4659805,30.450631 68.6039604,30.4554455 C68.9681376,30.4567068 69.3319897,30.4335526 69.6930693,30.3861386 L79.5247525,29.0891089 C79.7914187,29.0548992 80.0558858,29.0053117 80.3168317,28.940594 C81.9677364,28.6247075 83.4816447,27.8089944 84.6534654,26.6039604 L84.8811882,26.3366336 L84.9603961,26.2475247 L85.2475248,25.9108911 C86.8379749,23.9973796 87.5559387,21.506045 87.2277228,19.0396039 L85.9207921,9.20792075 C85.4798302,5.8196834 82.9929896,3.05538518 79.6700873,2.25982258 C76.3471849,1.46425998 72.8780985,2.80260213 70.9504951,5.62376233 C51.0115882,-3.68948911 27.3184188,1.27762981 12.7988987,17.8148664 C-1.7206214,34.3521031 -3.58029699,58.4888003 8.23458305,77.0550403 C20.0494631,95.6212804 42.7020984,104.159234 63.8323331,98.0102633 C84.9625677,91.8612923 99.4969472,72.5017893 99.5049505,50.4950495 C99.5049505,48.3076699 98.6360174,46.2098797 97.0893065,44.6631688 C95.5425955,43.1164579 93.4448054,42.2475247 91.2574258,42.2475247 L91.2574258,42.2475247 Z" id="reload" fill="#000000"></path>
    </g>
</svg>