<?xml version="1.0" encoding="UTF-8"?>
<svg width="100px" height="100px" viewBox="0 0 100 100" version="1.1" xmlns="http://www.w3.org/2000/svg" xmlns:xlink="http://www.w3.org/1999/xlink">
    <!-- Generator: Sketch 57.1 (83088) - https://sketch.com -->
    <title>regular/reload-regular</title>
    <desc>Created with Sketch.</desc>
    <g id="regular/reload" stroke="none" stroke-width="1" fill="none" fill-rule="evenodd">
        <path d="M97.6435644,47.1485148 C97.0177914,47.1458688 96.4168842,47.3932857 95.9743919,47.835778 C95.5318996,48.2782703 95.2844827,48.8791775 95.2871288,49.5049505 C95.2966631,70.3411933 80.9433977,88.4349137 60.6515182,93.1665868 C40.3596386,97.8982598 19.4836886,88.0193097 10.2761328,69.3278672 C1.06857703,50.6364247 5.95907017,28.0647163 22.0772952,14.8604773 C38.1955202,1.65623826 61.2882615,1.30375285 77.8019802,14.009901 L71.4257426,14.8514851 C70.2173574,15.042082 69.3534418,16.1223041 69.4331103,17.3430314 C69.5127789,18.5637586 70.5097657,19.5225324 71.7326733,19.5544554 L72.039604,19.5544554 L83.2772278,18.0792079 L83.6138614,18 C84.1373134,17.9297327 84.6219845,17.6856537 84.990099,17.3069307 C85.0548055,17.2388267 85.1143746,17.1660199 85.1683169,17.0891089 L85.3861386,16.8613861 C85.9010017,16.1910194 86.1256757,15.3422507 86.009901,14.5049505 L84.5346535,3.24752471 C84.3651403,1.95703759 83.1815763,1.04830866 81.8910891,1.21782179 C80.600602,1.38733493 79.6918731,2.57089897 79.8613862,3.86138609 L80.7128713,10.2970297 C62.4787648,-3.75446919 36.9650042,-3.38282234 19.1479102,11.1938172 C1.33081624,25.7704568 -4.08734886,50.705043 6.07382332,71.3612246 C16.2349955,92.0174063 39.2937827,102.943633 61.714909,97.7263199 C84.1360353,92.5090067 100.002149,72.5250994 100,49.5049505 C100,48.203527 98.9449879,47.1485148 97.6435644,47.1485148 Z" id="reload" fill="#000000"></path>
    </g>
</svg>