<?xml version="1.0" encoding="UTF-8"?>
<svg width="100px" height="100px" viewBox="0 0 100 100" version="1.1" xmlns="http://www.w3.org/2000/svg" xmlns:xlink="http://www.w3.org/1999/xlink">
    <!-- Generator: Sketch 57.1 (83088) - https://sketch.com -->
    <title>bold/reload-bold</title>
    <desc>Created with Sketch.</desc>
    <g id="bold/reload" stroke="none" stroke-width="1" fill="none" fill-rule="evenodd">
        <path d="M95.4950496,45.990099 C93.0109015,45.9955587 90.999994,48.0108955 91,50.4950495 C91.0061625,68.7859408 78.7561518,84.8126415 61.1047801,89.6069944 C43.4534085,94.4013473 24.7786966,86.7742223 15.5305654,70.9935756 C6.28243415,55.2129289 8.75467189,35.1927906 21.5638737,22.1359498 C34.3730755,9.07910905 54.3422105,6.22401786 70.2970297,15.1683168 L70.1782178,15.1683168 C67.8309807,15.4814232 66.1268398,17.5583307 66.2781258,19.9215214 C66.4294117,22.2847121 68.3844738,24.127366 70.7524753,24.1386138 C70.9504951,24.1386138 71.1485149,24.1386138 71.3465347,24.1386138 L82.079208,22.6930693 C82.2797113,22.6719396 82.4783084,22.6355301 82.6732674,22.5841584 C83.5752969,22.4077126 84.401341,21.9584 85.039604,21.2970297 C85.0845087,21.2520085 85.1243499,21.2022069 85.1584159,21.1485148 C86.2991573,19.9915298 86.8433477,18.3735677 86.6336634,16.7623762 L85.2277228,6.03960392 C84.7562656,3.71958948 82.5694951,2.16032587 80.2224892,2.4706522 C77.8754834,2.78097853 76.1691141,4.85500174 76.3168317,7.21782174 L76.4653466,8.33663362 C57.2785477,-3.48624487 32.5277923,-0.857732499 16.2521118,14.7312357 C-0.0235687512,30.3202039 -3.71594824,54.9347384 7.26935108,74.6130743 C18.2546504,94.2914102 41.1447741,104.06644 62.9560712,98.3936081 C84.7673683,92.720776 99.99434,73.0319897 100,50.4950495 C100,49.3002623 99.5253727,48.1544106 98.6805306,47.3095685 C97.8356885,46.4647264 96.6898367,45.990099 95.4950496,45.990099 Z" id="reload" fill="#000000"></path>
    </g>
</svg>