<?xml version="1.0" encoding="UTF-8"?>
<svg width="100px" height="100px" viewBox="0 0 100 100" version="1.1" xmlns="http://www.w3.org/2000/svg" xmlns:xlink="http://www.w3.org/1999/xlink">
    <!-- Generator: Sketch 57.1 (83088) - https://sketch.com -->
    <title>solid/rocket-solid</title>
    <desc>Created with Sketch.</desc>
    <g id="solid/rocket" stroke="none" stroke-width="1" fill="none" fill-rule="evenodd">
        <path d="M73.2673957,73.6633664 L73.2673957,74.3762376 C73.2731737,76.3125666 72.5393178,78.1739105 71.2226212,79.5832622 L71.009901,79.8019802 L52.7623762,98 C51.5598906,99.2454896 49.9093285,99.9584754 48.1782178,99.9801981 C47.0744177,99.9753498 45.989111,99.6963682 45.019802,99.1683169 C42.5248559,97.8609788 41.1789984,95.0901276 41.6712204,92.3371975 L41.7227723,92.079208 L42.3762376,88.9801981 C52.8415842,83.8019802 65.4950495,77.5346535 73.2673957,73.6633664 Z M80.5742575,0.990098961 C84.667002,0.91003003 88.7607565,1.0852877 92.8316832,1.51485144 C95.8060159,1.86884697 98.150955,4.2137861 98.5049505,7.18811877 C98.9330424,11.2657089 99.1016988,15.3663738 99.009901,19.4653465 L99.0074337,20.0207894 C98.8445228,38.3014148 90.6077228,51.7427723 72.3564357,63.5247525 C72.158781,63.6551753 71.9538255,63.7741817 71.7425743,63.8811881 C63.7524753,67.8811881 46.5346535,76.4257426 34.1980198,82.4554456 C31.7050385,83.6867092 28.7051116,83.1973312 26.7326732,81.2376238 L18.7227722,73.3168317 C16.7444507,71.3470527 16.2461655,68.3334239 17.4851485,65.8316832 C22.6336633,55.4455446 31.940594,36.6336634 36.0891089,28.2574257 C36.1956388,28.0375716 36.3180764,27.8257876 36.4554455,27.6237624 C48.3069307,9.20792075 61.9108911,0.990098961 80.5742575,0.990098961 Z M25.6138614,26.732634 L26.3168317,26.732634 C22.4433711,34.5472098 16.0631519,47.4318092 11.3962446,56.9187451 L11.0495049,57.6237624 L7.92079204,58.2673267 C7.45204476,58.3665475 6.97418257,58.4163248 6.49504946,58.4158485 C3.87056241,58.3639834 1.53015085,56.7512997 0.54707866,54.3173337 C-0.402094492,51.9672975 0.0908606864,49.2893396 1.7931886,47.4332889 L1.98019797,47.2376238 L20.1980198,28.970297 C21.5607642,27.6036951 23.3886565,26.8082998 25.3098019,26.7377306 L25.6138614,26.732634 L26.3168317,26.732634 L25.6138614,26.732634 Z M82.2871287,17.6930693 C79.5014179,14.9050112 75.3103194,14.0699737 71.6687615,15.5774581 C68.0272036,17.0849425 65.6526137,20.6379577 65.6526137,24.5792079 C65.6526137,28.5204581 68.0272036,32.0734733 71.6687615,33.5809577 C75.3103194,35.0884421 79.5014179,34.2534046 82.2871287,31.4653465 C86.0825225,27.6590445 86.0825225,21.4993713 82.2871287,17.6930693 Z" id="Shape" fill="#000000"></path>
    </g>
</svg>