<?xml version="1.0" encoding="UTF-8"?>
<svg width="100px" height="100px" viewBox="0 0 100 100" version="1.1" xmlns="http://www.w3.org/2000/svg" xmlns:xlink="http://www.w3.org/1999/xlink">
    <!-- Generator: Sketch 57.1 (83088) - https://sketch.com -->
    <title>brand/sass-brand</title>
    <desc>Created with Sketch.</desc>
    <g id="brand/sass" stroke="none" stroke-width="1" fill="none" fill-rule="evenodd">
        <path d="M70.707,68.6436 C70.39,68.4176 70.442,67.6876 71.486,65.4146 C71.895,64.5216 72.83,63.0196 74.455,61.5826 C74.644,62.1736 74.759,62.7406 74.755,63.2676 C74.734,66.7846 72.225,68.0976 70.707,68.6436 M57.35,71.6886 C56.925,71.9116 56.534,72.0506 56.353,71.9426 C56.22,71.8636 56.528,71.5706 56.528,71.5706 C56.528,71.5706 58.697,69.2376 59.552,68.1746 C60.049,67.5566 60.625,66.8236 61.253,66.0026 C61.258,66.0846 61.261,66.1666 61.261,66.2476 C61.254,69.0416 58.554,70.9296 57.35,71.6886 M40.011,63.4146 C39.007,65.8616 36.907,72.1196 35.629,71.7846 C34.532,71.4966 33.864,66.7386 35.41,62.0566 C36.188,59.7006 37.851,56.8846 38.828,55.7916 C40.4,54.0326 42.131,53.4566 42.552,54.1706 C43.088,55.0796 40.64,61.8816 40.011,63.4146 M19.024,77.6826 C16.143,80.8256 12.118,82.0126 10.393,81.0126 C8.529,79.9316 9.267,75.3046 12.802,71.9696 C14.957,69.9376 17.739,68.0656 19.584,66.9136 C20.004,66.6606 20.621,66.2896 21.371,65.8396 C21.495,65.7686 21.565,65.7296 21.565,65.7296 L21.562,65.7246 C21.707,65.6386 21.855,65.5496 22.008,65.4576 C23.295,70.2056 22.047,74.3836 19.024,77.6826 M86.061,55.0816 C82.566,55.1006 79.539,55.9396 77.001,57.1906 C76.073,55.3376 75.134,53.7076 74.976,52.4976 C74.792,51.0816 74.578,50.2386 74.801,48.5536 C75.023,46.8686 75.998,44.4826 75.983,44.3036 C75.97,44.1246 75.766,43.2666 73.749,43.2516 C71.733,43.2376 70.009,43.6396 69.806,44.1716 C69.603,44.7046 69.215,45.9026 68.974,47.1516 C68.62,48.9796 64.949,55.4986 62.863,58.9096 C62.182,57.5786 61.603,56.4046 61.481,55.4766 C61.297,54.0616 61.084,53.2176 61.306,51.5336 C61.528,49.8476 62.504,47.4616 62.489,47.2836 C62.475,47.1046 62.27,46.2466 60.255,46.2316 C58.238,46.2166 56.515,46.6196 56.311,47.1516 C56.108,47.6836 55.892,48.9276 55.478,50.1306 C55.065,51.3336 50.185,62.2086 48.907,65.0276 C48.255,66.4636 47.688,67.6176 47.289,68.4066 C47.287,68.4046 47.286,68.4016 47.286,68.4016 C47.286,68.4016 47.261,68.4546 47.219,68.5416 C46.876,69.2126 46.672,69.5836 46.672,69.5836 C46.672,69.5836 46.674,69.5896 46.678,69.5986 C46.407,70.0906 46.115,70.5476 45.971,70.5476 C45.871,70.5476 45.668,69.2376 46.015,67.4376 C46.741,63.6646 48.486,57.7826 48.469,57.5796 C48.459,57.4756 48.793,56.4506 47.33,55.9146 C45.907,55.3936 45.4,56.2616 45.27,56.2646 C45.145,56.2676 45.051,56.5716 45.051,56.5716 C45.051,56.5716 46.636,49.9566 42.028,49.9566 C39.147,49.9566 35.155,53.1076 33.188,55.9636 C31.948,56.6406 29.292,58.0906 26.474,59.6386 C25.392,60.2336 24.288,60.8406 23.241,61.4176 C23.169,61.3386 23.099,61.2596 23.025,61.1816 C17.437,55.2206 7.108,51.0036 7.546,42.9896 C7.706,40.0756 8.719,32.4036 27.394,23.0976 C42.693,15.4746 54.939,17.5726 57.057,22.2216 C60.08,28.8636 50.511,41.2076 34.624,42.9896 C28.57,43.6676 25.383,41.3226 24.59,40.4486 C23.755,39.5286 23.631,39.4866 23.319,39.6596 C22.812,39.9406 23.133,40.7526 23.319,41.2366 C23.794,42.4716 25.74,44.6606 29.059,45.7496 C31.978,46.7076 39.085,47.2336 47.68,43.9096 C57.307,40.1856 64.823,29.8286 62.615,21.1696 C60.37,12.3646 45.769,9.4696 31.951,14.3786 C23.727,17.3006 14.824,21.8856 8.423,27.8726 C0.811,34.9926 -0.402,41.1886 0.098,43.7786 C1.875,52.9776 14.555,58.9676 19.632,63.4076 C19.381,63.5456 19.146,63.6756 18.933,63.7936 C16.387,65.0526 6.722,70.1116 4.304,75.4556 C1.562,81.5176 4.741,85.8676 6.845,86.4536 C13.366,88.2666 20.058,85.0036 23.653,79.6396 C27.249,74.2776 26.81,67.2946 25.16,64.1076 C25.139,64.0686 25.117,64.0296 25.096,63.9906 C25.753,63.6006 26.423,63.2056 27.087,62.8156 C28.383,62.0546 29.655,61.3446 30.758,60.7446 C30.141,62.4366 29.689,64.4646 29.454,67.3936 C29.177,70.8346 30.587,75.2836 32.433,77.0336 C33.245,77.8026 34.223,77.8216 34.843,77.8216 C36.99,77.8216 37.97,76.0356 39.049,73.9216 C40.372,71.3306 41.546,68.3136 41.546,68.3136 C41.546,68.3136 40.072,76.4626 44.087,76.4626 C45.55,76.4626 47.022,74.5666 47.677,73.5986 C47.679,73.6096 47.68,73.6156 47.68,73.6156 C47.68,73.6156 47.718,73.5516 47.792,73.4256 C47.944,73.1936 48.03,73.0456 48.03,73.0456 C48.03,73.0456 48.033,73.0306 48.038,73.0036 C48.626,71.9826 49.93,69.6556 51.886,65.8166 C54.413,60.8566 56.837,54.6436 56.837,54.6436 C56.837,54.6436 57.062,56.1636 57.801,58.6746 C58.235,60.1526 59.158,61.7866 59.887,63.3536 C59.301,64.1656 58.94,64.6336 58.94,64.6336 C58.94,64.6336 58.943,64.6416 58.95,64.6576 C58.481,65.2796 57.956,65.9506 57.407,66.6046 C55.412,68.9806 53.037,71.6936 52.719,72.4756 C52.344,73.3986 52.433,74.0776 53.156,74.6226 C53.686,75.0216 54.628,75.0826 55.61,75.0176 C57.402,74.8966 58.664,74.4526 59.286,74.1816 C60.256,73.8376 61.386,73.2986 62.445,72.5196 C64.402,71.0816 65.582,69.0236 65.469,66.2976 C65.406,64.7956 64.927,63.3076 64.321,61.9026 C64.498,61.6466 64.677,61.3886 64.854,61.1276 C67.939,56.6196 70.332,51.6646 70.332,51.6646 C70.332,51.6646 70.558,53.1836 71.296,55.6956 C71.67,56.9666 72.407,58.3536 73.07,59.7136 C70.17,62.0706 68.371,64.8086 67.747,66.6046 C66.592,69.9266 67.496,71.4326 69.192,71.7756 C69.961,71.9306 71.046,71.5786 71.862,71.2326 C72.878,70.8956 74.099,70.3346 75.239,69.4976 C77.195,68.0586 79.076,66.0436 78.963,63.3186 C78.911,62.0786 78.575,60.8466 78.118,59.6636 C80.577,58.6396 83.76,58.0706 87.813,58.5426 C96.511,59.5586 98.217,64.9896 97.891,67.2616 C97.564,69.5356 95.74,70.7846 95.13,71.1626 C94.52,71.5396 94.335,71.6696 94.386,71.9506 C94.46,72.3586 94.742,72.3426 95.262,72.2546 C95.978,72.1336 99.829,70.4066 99.994,66.2106 C100.203,60.8846 95.1,55.0346 86.061,55.0816" id="Fill-1" fill="#000000"></path>
    </g>
</svg>