<?xml version="1.0" encoding="UTF-8"?>
<svg width="100px" height="100px" viewBox="0 0 100 100" version="1.1" xmlns="http://www.w3.org/2000/svg" xmlns:xlink="http://www.w3.org/1999/xlink">
    <!-- Generator: Sketch 57.1 (83088) - https://sketch.com -->
    <title>brand/sass-alt-brand</title>
    <desc>Created with Sketch.</desc>
    <g id="brand/sass-alt" stroke="none" stroke-width="1" fill="none" fill-rule="evenodd">
        <path d="M30.7773,73.2137 C34.4003,69.3827 39.6143,66.9197 39.6143,66.9197 L39.6063,66.9037 C39.7563,66.8227 39.9083,66.7397 40.0633,66.6547 C40.7913,69.3467 40.7113,71.8557 39.9593,74.1277 C39.8763,74.3807 39.7843,74.6297 39.6843,74.8767 C39.5843,75.1227 39.4763,75.3667 39.3603,75.6077 C38.7813,76.8097 38.0043,77.9347 37.0513,78.9737 C34.1463,82.1437 30.0873,83.3417 28.3463,82.3317 C26.4673,81.2417 27.4083,76.7747 30.7773,73.2137 Z M66.3018,44.3329 C76.0098,40.5779 83.5898,30.1319 81.3638,21.3999 C79.0998,12.5209 64.3748,9.6019 50.4398,14.5529 C42.1458,17.4989 33.1678,22.1229 26.7118,28.1609 C19.0368,35.3409 17.8128,41.5899 18.3168,44.1999 C20.0968,53.4129 32.7198,59.4359 37.9098,63.9029 L37.9098,63.9309 C36.3798,64.6839 25.1798,70.3519 22.5588,76.1459 C19.7928,82.2599 22.9988,86.6459 25.1208,87.2359 C31.6978,89.0659 38.4458,85.7749 42.0718,80.3659 C45.5718,75.1459 45.2808,68.4049 43.7598,65.0519 C45.8568,64.4989 48.3028,64.2509 51.4108,64.6129 C60.1828,65.6379 61.9038,71.1149 61.5738,73.4059 C61.2448,75.6979 59.4058,76.9589 58.7898,77.3389 C58.1758,77.7199 57.9878,77.8519 58.0388,78.1349 C58.1138,78.5459 58.3988,78.5299 58.9228,78.4409 C59.6458,78.3189 63.5298,76.5769 63.6948,72.3469 C63.9058,66.9749 58.7588,60.9659 49.6438,61.1229 C45.8898,61.1879 43.5298,61.5449 41.8248,62.1799 C41.6988,62.0359 41.5708,61.8929 41.4378,61.7519 C35.8028,55.7389 25.3868,51.4869 25.8278,43.4049 C25.9888,40.4669 27.0098,32.7289 45.8438,23.3449 C61.2728,15.6569 73.6228,17.7719 75.7578,22.4609 C78.8068,29.1589 69.1558,41.6089 53.1348,43.4049 C47.0308,44.0889 43.8158,41.7239 43.0168,40.8429 C42.1748,39.9149 42.0498,39.8729 41.7348,40.0469 C41.2228,40.3309 41.5478,41.1489 41.7348,41.6379 C42.2138,42.8829 44.1768,45.0909 47.5228,46.1879 C50.4678,47.1549 57.6348,47.6859 66.3018,44.3329 Z M49.9998,-0.0001 C77.6148,-0.0001 99.9998,22.3859 99.9998,49.9999 C99.9998,77.6139 77.6148,99.9999 49.9998,99.9999 C22.3858,99.9999 -0.0002,77.6139 -0.0002,49.9999 C-0.0002,22.3859 22.3858,-0.0001 49.9998,-0.0001 Z" id="Shape" fill="#000000"></path>
    </g>
</svg>