<?xml version="1.0" encoding="UTF-8"?>
<svg width="100px" height="100px" viewBox="0 0 100 100" version="1.1" xmlns="http://www.w3.org/2000/svg" xmlns:xlink="http://www.w3.org/1999/xlink">
    <!-- Generator: Sketch 57.1 (83088) - https://sketch.com -->
    <title>bold/save-bold</title>
    <desc>Created with Sketch.</desc>
    <g id="bold/save" stroke="none" stroke-width="1" fill="none" fill-rule="evenodd">
        <path d="M70.72,-0.000134686493 C73.2544396,-0.00959312564 75.6865109,0.999266087 77.47,2.79999995 L97.2,22.53 C98.9988343,24.3147651 100.007348,26.7460037 100.000079,29.28 L100.000079,90.45 C99.9944882,95.7220347 95.7220347,99.9944882 90.45,100 L9.54999996,100 C4.27796534,99.9944882 0.00551175234,95.7220347 -4.99999331e-08,90.45 L-4.99999331e-08,9.54999996 C0.00551175234,4.27796534 4.27796534,0.00551175234 9.54999996,-0.000134686493 L70.72,-0.000134686493 Z M78.24,68.06 L21.76,68.06 L21.76,90.91 L78.24,90.91 L78.24,68.06 Z M12.67,9.08999996 L9.54999996,9.08999996 C9.29817836,9.09530322 9.09530322,9.29817836 9.08999996,9.54999996 L9.08999996,90.45 C9.09530322,90.7018216 9.29817836,90.9046968 9.54999996,90.91 L12.67,90.91 L12.67,66.27 C12.6755083,62.2571737 15.9271737,59.0055084 19.94,59 L80.06,59 C84.0611623,59.0054357 87.3080193,62.2388944 87.33,66.24 L87.33,90.91 L90.45,90.91 C90.7018216,90.9046968 90.9046968,90.7018216 90.91,90.45 L90.91,29.32 C90.907875,29.2008976 90.8615393,29.0868403 90.78,29 L71.04,9.21999996 C70.9531597,9.13846072 70.8391024,9.09212496 70.72,9.08999996 L64.72,9.08999996 L64.72,19.45 C64.7145083,23.4644546 61.4644433,26.7189901 57.45,26.73 L19.94,26.73 C15.9255566,26.7189901 12.6754917,23.4644546 12.67,19.45 L12.67,9.08999996 Z M71.15,74.91 C72.8246334,74.8314272 74.4068052,75.6801047 75.2676301,77.1186982 C76.1284549,78.5572917 76.1284549,80.3527084 75.2676301,81.7913019 C74.4068052,83.2298953 72.8246334,84.0785728 71.15,84 L28.85,84 C27.1753666,84.0785728 25.5931948,83.2298953 24.7323699,81.7913019 C23.8715451,80.3527084 23.8715451,78.5572917 24.7323699,77.1186982 C25.5931948,75.6801047 27.1753666,74.8314272 28.85,74.91 L71.15,74.91 Z M55.63,9.08999996 L21.76,9.08999996 L21.76,17.64 L55.63,17.64 L55.63,9.08999996 Z" id="Shape" fill="#000000"></path>
    </g>
</svg>