<?xml version="1.0" encoding="UTF-8"?>
<svg width="100px" height="100px" viewBox="0 0 100 100" version="1.1" xmlns="http://www.w3.org/2000/svg" xmlns:xlink="http://www.w3.org/1999/xlink">
    <!-- Generator: Sketch 57.1 (83088) - https://sketch.com -->
    <title>solid/save-solid</title>
    <desc>Created with Sketch.</desc>
    <g id="solid/save" stroke="none" stroke-width="1" fill="none" fill-rule="evenodd">
        <path d="M13.27,-0.00010717904 L13.27,18 C13.2753651,20.8193974 15.5026307,23.1170138 18.2941803,23.2352328 L18.51,23.24 L57.77,23.24 C60.5878144,23.2346225 62.8826594,21.0058302 62.9956405,18.2157042 L63,18 L63,-0.00010717904 L71.7,-0.00010717904 C73.6215076,-0.0072562496 75.4696516,0.717265496 76.8722877,2.01959045 L77.09,2.22999995 L97.77,22.91 C99.13272,24.2647096 99.9257379,26.0845138 99.9951328,27.997268 L100.000054,28.3 L100.000054,92.38 C99.9946001,96.5036528 96.7184789,99.8605229 92.6264794,99.9957708 L92.38,100 L86.73,100 L86.73,67 C86.7246935,64.1900285 84.5118694,61.8968122 81.7307157,61.7658194 L81.51,61.76 L18.51,61.76 C15.6906025,61.7653652 13.3929861,63.9926307 13.2747672,66.7841804 L13.27,67 L13.27,100 L7.61999996,100 C3.49634724,99.9945991 0.139477057,96.7184789 0.00422923384,92.6264794 L-4.99963591e-08,92.38 L-4.99963591e-08,7.61999996 C0.00540094283,3.49634724 3.28152109,0.139477057 7.37352057,0.00417840254 L7.61999996,-0.00010717904 L13.27,-0.00010717904 Z M81.49,66.54 C81.6197026,66.5289009 81.7481993,66.5720926 81.8448644,66.6592808 C81.9415296,66.746469 81.9977043,66.8698437 82,67 L82,100 L18,100 L18,67 C18.0108302,66.7388223 18.2286594,66.5343297 18.49,66.54 L81.49,66.54 Z M72.16,78.51 L27.84,78.51 C26.5255623,78.51 25.46,79.5755623 25.46,80.89 C25.46,82.2044377 26.5255623,83.27 27.84,83.27 L72.16,83.27 C73.4744377,83.27 74.54,82.2044377 74.54,80.89 C74.54,79.5755623 73.4744377,78.51 72.16,78.51 Z M58.28,-4.99999979e-08 L58.28,18 C58.28,18.2322133 58.1150091,18.426562 57.894907,18.4707061 L57.81,18.48 L18.51,18.48 C18.3783326,18.4854039 18.2500383,18.4375463 18.1540775,18.3472301 C18.0773087,18.2749772 18.0264106,18.1804236 18.0078019,18.0780347 L18,18 L18,-4.99999979e-08 L58.28,-4.99999979e-08 Z" id="Shape" fill="#000000"></path>
    </g>
</svg>