<svg width="100" height="100" viewBox="0 0 100 100" fill="none" xmlns="http://www.w3.org/2000/svg">
<g clip-path="url(#clip0)">
<path d="M28.1062 77.6475H71.8945C73.5188 77.6475 74.8356 78.9643 74.8356 80.5886C74.8356 82.213 73.5188 83.5298 71.8945 83.5298H28.1062C26.4818 83.5298 25.165 82.213 25.165 80.5886C25.165 78.9643 26.4818 77.6475 28.1062 77.6475Z" fill="black"/>
<path fill-rule="evenodd" clip-rule="evenodd" d="M77.1882 2.35314L97.6471 22.812C99.1639 24.3364 100.011 26.4026 100 28.5531V91.8826C99.9935 96.3631 96.3629 99.9937 91.8824 100H8.11765C3.63708 99.9937 0.0064795 96.3631 0 91.8826V8.11785C0.0064795 3.63728 3.63708 0.00667935 8.11765 9.89883e-05H71.4471C73.5976 -0.0105366 75.6638 0.836248 77.1882 2.35314ZM57.6471 18.259V5.88255H19V18.259H57.6471ZM19 66.9296V94.1178H81V66.9296H19ZM91.8824 94.1178C93.1169 94.1178 94.1176 93.1171 94.1176 91.8826V28.5531C94.1176 27.9606 93.8807 27.3927 93.4588 26.9767L73.0118 6.54138C72.5973 6.11721 72.0284 5.87946 71.4353 5.88252H63.4706V18.3767C63.4641 21.5577 60.887 24.1349 57.7059 24.1414H18.8824C15.7013 24.1349 13.1241 21.5577 13.1176 18.3767V5.88252H8.11765C6.88313 5.88252 5.88235 6.88333 5.88235 8.11785V91.8826C5.88235 93.1171 6.88313 94.1178 8.11765 94.1178H13.1176V66.812C13.1241 63.6309 15.7013 61.0537 18.8824 61.0473H81.1176C82.6465 61.0473 84.1128 61.6546 85.1939 62.7357C86.275 63.8168 86.8824 65.2831 86.8824 66.812V94.1178H91.8824Z" fill="black"/>
</g>
<defs>
<clipPath id="clip0">
<rect width="100" height="100" fill="white"/>
</clipPath>
</defs>
</svg>
