<?xml version="1.0" encoding="UTF-8"?>
<svg width="100px" height="100px" viewBox="0 0 100 100" version="1.1" xmlns="http://www.w3.org/2000/svg" xmlns:xlink="http://www.w3.org/1999/xlink">
    <!-- Generator: Sketch 57.1 (83088) - https://sketch.com -->
    <title>regular/send-regular</title>
    <desc>Created with Sketch.</desc>
    <g id="regular/send" stroke="none" stroke-width="1" fill="none" fill-rule="evenodd">
        <path d="M90.74,45 L14.18,0.779999951 C12.3895405,-0.251345991 10.1851587,-0.250381602 8.3956023,0.782530551 C6.60604591,1.8154427 5.50255796,3.72374416 5.49997835,5.78999996 L5.49997835,44.79 C5.49412962,46.3504102 6.68544903,47.6547745 8.23999996,47.79 L33.31,50 L8.23999996,52.26 L8.23999996,52.26 C6.68940869,52.4001089 5.50368281,53.7031044 5.50999996,55.26 L5.50999996,94.21 C5.50160077,96.2757675 6.60579482,98.1861379 8.39999996,99.21 C10.1897583,100.250512 12.4002416,100.250512 14.19,99.21 L90.75,55 C92.5328563,53.9660417 93.6302759,52.0609818 93.6302759,50 C93.6302759,47.9390182 92.5328563,46.0339583 90.75,45 L90.74,45 Z M88.36,50.9 L11.79,95.09 C11.4768431,95.2859923 11.0811402,95.2933651 10.7608997,95.1091744 C10.4406591,94.9249838 10.2480565,94.5792392 10.259475,94.21 L10.259475,56.86 L57.09,52.64 C58.4368997,52.4960795 59.4584418,51.359567 59.4584418,50.005 C59.4584418,48.650433 58.4368997,47.5139205 57.09,47.37 L10.259475,43.14 L10.259475,5.78999996 C10.2480565,5.42076081 10.4406591,5.07501621 10.7608997,4.89082558 C11.0811402,4.70663494 11.4768431,4.71400775 11.79,4.90999995 L88.36,49.11 C88.6939663,49.281096 88.9040395,49.6247571 88.9040395,50 C88.9040395,50.3752429 88.6939663,50.718904 88.36,50.89 L88.36,50.9 Z" id="send" fill="#000000"></path>
    </g>
</svg>