<?xml version="1.0" encoding="UTF-8"?>
<svg width="100px" height="100px" viewBox="0 0 100 100" version="1.1" xmlns="http://www.w3.org/2000/svg" xmlns:xlink="http://www.w3.org/1999/xlink">
    <!-- Generator: Sketch 57.1 (83088) - https://sketch.com -->
    <title>solid/send-solid</title>
    <desc>Created with Sketch.</desc>
    <g id="solid/send" stroke="none" stroke-width="1" fill="none" fill-rule="evenodd">
        <path d="M90.74,45 L14.18,0.779999951 C12.3895405,-0.251345991 10.1851587,-0.250381602 8.3956023,0.782530551 C6.60604591,1.8154427 5.50255796,3.72374416 5.49995238,5.78999996 L5.49995238,44.79 C5.49412962,46.3504102 6.68544903,47.6547745 8.23999996,47.79 L33.31,50 L8.23999996,52.26 C6.68544903,52.3952255 5.49412962,53.6995898 5.49995238,55.26 L5.49995238,94.21 C5.49160077,96.2757675 6.59579482,98.1861379 8.38999996,99.21 C10.1797583,100.250512 12.3902416,100.250512 14.18,99.21 L90.74,55 C92.5228563,53.9660417 93.6202759,52.0609818 93.6202759,50 C93.6202759,47.9390182 92.5228563,46.0339583 90.74,45 Z" id="send" fill="#000000"></path>
    </g>
</svg>