<?xml version="1.0" encoding="UTF-8"?>
<svg width="100px" height="100px" viewBox="0 0 100 100" version="1.1" xmlns="http://www.w3.org/2000/svg" xmlns:xlink="http://www.w3.org/1999/xlink">
    <!-- Generator: Sketch 57.1 (83088) - https://sketch.com -->
    <title>solid/settings-solid</title>
    <desc>Created with Sketch.</desc>
    <g id="solid/settings" stroke="none" stroke-width="1" fill="none" fill-rule="evenodd">
        <path d="M36.4059406,59.5742574 C42.3990503,59.5742574 47.2574257,64.4326328 47.2574257,70.4257426 C47.2574257,76.4188524 42.3990503,81.2772278 36.4059406,81.2772278 C30.4128308,81.2772278 25.5544554,76.4188524 25.5544554,70.4257426 C25.5544554,64.4326328 30.4128308,59.5742574 36.4059406,59.5742574 Z M23.9207921,62.1683168 C22.2988243,64.6167106 21.4344311,67.4888378 21.4356435,70.4257426 C21.4283536,73.2325081 22.2123076,75.9815426 23.6934099,78.359068 L23.9207921,78.7128713 L9.23762372,78.7128713 C4.66897116,78.7128713 0.965346486,75.0092466 0.965346486,70.4405941 C0.965346486,65.9565462 4.53306998,62.3057848 8.98471766,62.1721091 L9.23762372,62.1683168 L23.9207921,62.1683168 Z M91.7524753,62.1683168 C96.1989858,62.3223562 99.7240126,65.9716142 99.7240126,70.4207921 C99.7240126,74.7860232 96.3307508,78.3812354 92.0031629,78.6608334 L91.7524753,78.6732674 L48.8910891,78.6732674 C52.1614677,73.7800286 52.2282101,67.4287668 49.0913164,62.4760169 L48.8910891,62.1683168 L91.7524753,62.1683168 Z M74.980198,38.940594 C80.9733078,38.940594 85.8316832,43.7989694 85.8316832,49.7920792 C85.8316832,55.785189 80.9733078,60.6435644 74.980198,60.6435644 C68.9870883,60.6435644 64.1287129,55.785189 64.1287129,49.7920792 C64.1287129,43.7989694 68.9870883,38.940594 74.980198,38.940594 Z M62.4950495,41.5445544 C60.8665967,43.9867524 59.9983636,46.856745 60,49.7920792 C59.9965764,52.5908471 60.7840026,55.3306671 62.2673412,57.6973416 L62.4950495,58.049505 L9.23762372,58.049505 C4.79111323,57.8954656 1.26608638,54.2462076 1.26608638,49.7970297 C1.26608638,45.4317986 4.65934825,41.8365864 8.98693608,41.5569884 L9.23762372,41.5445544 L62.4950495,41.5445544 Z M91.7524753,41.5445544 C96.1989858,41.6985938 99.7240126,45.3478518 99.7240126,49.7970297 C99.7240126,54.1622608 96.3307508,57.757473 92.0031629,58.037071 L91.7524753,58.049505 L87.4653466,58.049505 C90.7123098,53.1491872 90.7785744,46.81165 87.6641402,41.8526702 L87.4653466,41.5445544 L91.7524753,41.5445544 Z M20.7326732,18.3168317 C26.7476557,18.3168317 31.6237624,23.1929383 31.6237624,29.2079208 C31.6237624,35.2229032 26.7476557,40.0990099 20.7326732,40.0990099 C14.7176908,40.0990099 9.84158412,35.2229032 9.84158412,29.2079208 C9.84158412,23.1929383 14.7176908,18.3168317 20.7326732,18.3168317 Z M91.7524753,20.9207921 C96.3074574,20.9207921 100,24.6133347 100,29.1683168 C100,33.6389474 96.442952,37.278785 92.0046246,37.4120606 L91.7524753,37.4158416 L33.2574257,37.4158416 C36.5234847,32.524823 36.590139,26.1787577 33.4573885,21.2283495 L33.2574257,20.9207921 L91.7524753,20.9207921 Z M8.24752471,20.980198 C6.63680082,23.4211902 5.78261357,26.2834063 5.79207916,29.2079208 C5.7981411,32.1054663 6.65167265,34.937952 8.24752471,37.3564356 C4.10477357,36.8565012 0.988116779,33.3411242 0.988116779,29.1683168 C0.988116779,24.9955094 4.10477357,21.4801324 8.24752471,20.980198 Z" id="Shape" fill="#000000"></path>
    </g>
</svg>