<?xml version="1.0" encoding="UTF-8"?>
<svg width="100px" height="100px" viewBox="0 0 100 100" version="1.1" xmlns="http://www.w3.org/2000/svg" xmlns:xlink="http://www.w3.org/1999/xlink">
    <!-- Generator: Sketch 57.1 (83088) - https://sketch.com -->
    <title>bold/settings-bold</title>
    <desc>Created with Sketch.</desc>
    <g id="bold/settings" stroke="none" stroke-width="1" fill="none" fill-rule="evenodd">
        <path d="M34.7843137,64.6568628 C38.7965,64.6568628 42.0490196,67.9093824 42.0490196,71.9215686 C42.0490196,75.9337549 38.7965,79.1862745 34.7843137,79.1862745 C30.7721274,79.1862745 27.5196078,75.9337549 27.5196078,71.9215686 C27.5196078,67.9093824 30.7721274,64.6568628 34.7843137,64.6568628 Z M5.21791474,67.4656875 L5.44117643,67.4705883 L21.5686274,67.4705883 C21.0797127,68.903538 20.8312595,70.4075085 20.8333333,71.9215686 C20.8304922,73.2871833 21.0314671,74.644716 21.4288881,75.9494562 L21.5686274,76.382353 L5.44117643,76.382353 C3.79937902,76.4593851 2.24823016,75.6273483 1.40428423,74.2169626 C0.560338289,72.8065769 0.560338289,71.0463644 1.40428423,69.6359786 C2.1715078,68.3538098 3.5231966,67.5496153 4.99612421,67.4718699 L5.21791474,67.4656875 Z M98.6447354,69.6359786 C99.4886813,71.0463644 99.4886813,72.8065769 98.6447354,74.2169626 C97.8391506,75.5632399 96.389193,76.3825505 94.8311049,76.3872537 L94.6078432,76.382353 L48.0392157,76.382353 C48.9873432,73.6200134 49.0285662,70.6307123 48.1628845,67.8486369 L48.0392157,67.4705883 L94.6078432,67.4705883 C96.2496406,67.3935561 97.8007894,68.2255929 98.6447354,69.6359786 Z M76.4411765,42.3823529 C80.4533628,42.3823529 83.7058824,45.6348725 83.7058824,49.6470588 C83.7058824,53.6592451 80.4533628,56.9117647 76.4411765,56.9117647 C72.4289902,56.9117647 69.1764706,53.6592451 69.1764706,49.6470588 C69.1764706,45.6348725 72.4289902,42.3823529 76.4411765,42.3823529 Z M5.21791474,45.1813738 L5.44117643,45.1862745 L63.2352941,45.1862745 C62.7501445,46.6235472 62.5018092,48.1301146 62.5,49.6470588 C62.5156488,50.995009 62.7267058,52.332662 63.1258376,53.6184016 L63.2843137,54.0980392 L5.44117643,54.0980392 C3.79937902,54.1750714 2.24823016,53.3430346 1.40428423,51.9326488 C0.560338289,50.5222631 0.560338289,48.7620506 1.40428423,47.3516649 C2.1715078,46.069496 3.5231966,45.2653015 4.99612421,45.1875562 L5.21791474,45.1813738 Z M98.5957158,47.3516649 C99.4396617,48.7620506 99.4396617,50.5222631 98.5957158,51.9326488 C97.790131,53.2789261 96.3401734,54.0982367 94.7820853,54.1029399 L94.5588236,54.0980392 L89.6568628,54.0980392 C90.6049903,51.3356997 90.6462133,48.3463985 89.7805316,45.5643232 L89.6568628,45.1862745 L94.5588236,45.1862745 C96.200621,45.1092424 97.7517698,45.9412791 98.5957158,47.3516649 Z M17.8921568,20.0980392 C21.902104,20.1034398 25.1514621,23.3527979 25.1568627,27.3627451 C25.1568627,31.3749314 21.9043431,34.627451 17.8921568,34.627451 C13.8799706,34.627451 10.6274509,31.3749314 10.6274509,27.3627451 C10.6274509,23.3505588 13.8799706,20.0980392 17.8921568,20.0980392 Z M94.5588236,22.9019608 C97.0224467,22.9019608 99.0196078,24.899122 99.0196078,27.3627451 C99.0196078,29.755979 97.1349399,31.7090251 94.7688132,31.8186741 L94.5588236,31.8235294 L31.0980392,31.8235294 C32.0483139,29.0583353 32.0896302,26.065401 31.2219881,23.2804034 L31.0980392,22.9019608 L94.5588236,22.9019608 Z M4.63725486,22.9803921 C4.16885805,24.3942393 3.92730462,25.8733404 3.92156858,27.3627451 C3.92730462,28.8521498 4.16885805,30.3312509 4.63725486,31.745098 C2.51267413,31.3676326 0.964868803,29.5205966 0.964868803,27.3627451 C0.964868803,25.2048935 2.51267413,23.3578575 4.63725486,22.9803921 Z" id="Shape" fill="#000000"></path>
    </g>
</svg>