<svg width="100" height="100" viewBox="0 0 100 100" fill="none" xmlns="http://www.w3.org/2000/svg">
<path d="M19.9795 19.792C15.078 19.792 11.1045 23.7655 11.1045 28.667C11.1045 33.5685 15.078 37.542 19.9795 37.542C24.881 37.542 28.8545 33.5685 28.8545 28.667C28.8488 23.7678 24.8786 19.7977 19.9795 19.792Z" fill="black"/>
<path d="M9.95833 20.333C8.00389 22.6698 6.93444 25.62 6.9375 28.6663C6.93444 31.7127 8.00389 34.6629 9.95833 36.9997H8.33333C3.73096 36.9997 0 33.2687 0 28.6663C0 24.064 3.73096 20.333 8.33333 20.333H9.95833Z" fill="black"/>
<path d="M61.6875 49.5003C61.6859 46.456 62.7511 43.5074 64.6979 41.167H8.33333C3.73096 41.167 0 44.898 0 49.5003C0 54.1027 3.73096 57.8337 8.33333 57.8337H64.6979C62.7511 55.4932 61.6859 52.5446 61.6875 49.5003Z" fill="black"/>
<path d="M91.6667 41.167H84.75C88.7797 45.9918 88.7797 53.0088 84.75 57.8337H91.6667C96.269 57.8337 100 54.1027 100 49.5003C100 44.898 96.269 41.167 91.6667 41.167Z" fill="black"/>
<path d="M91.6667 20.333H30C34.0297 25.1578 34.0297 32.1748 30 36.9997H91.6667C96.269 36.9997 100 33.2687 100 28.6663C100 24.064 96.269 20.333 91.6667 20.333Z" fill="black"/>
<path d="M25.75 62C23.7956 64.3368 22.7261 67.287 22.7292 70.3333C22.7261 73.3797 23.7956 76.3299 25.75 78.6667H8.33333C3.73096 78.6667 0 74.9357 0 70.3333C0 65.731 3.73096 62 8.33333 62H25.75Z" fill="black"/>
<path d="M91.6663 62H45.833C49.8627 66.8248 49.8627 73.8418 45.833 78.6667H91.6663C96.2687 78.6667 99.9997 74.9357 99.9997 70.3333C99.9997 65.731 96.2687 62 91.6663 62Z" fill="black"/>
<path d="M66.5293 46.1037C67.903 42.7873 71.1392 40.625 74.7288 40.625C79.6279 40.6307 83.598 44.6009 83.6038 49.5C83.6038 53.0896 81.4414 56.3257 78.1251 57.6994C74.8087 59.0731 70.9914 58.3138 68.4532 55.7756C65.915 53.2373 65.1557 49.42 66.5293 46.1037Z" fill="black"/>
<path d="M27.5713 66.9367C28.945 63.6203 32.1812 61.458 35.7708 61.458C40.6699 61.4637 44.64 65.4339 44.6458 70.333C44.6458 73.9226 42.4834 77.1588 39.1671 78.5324C35.8507 79.9061 32.0334 79.1468 29.4952 76.6086C26.957 74.0703 26.1977 70.2531 27.5713 66.9367Z" fill="black"/>
</svg>
