<?xml version="1.0" encoding="UTF-8"?>
<svg width="100px" height="100px" viewBox="0 0 100 100" version="1.1" xmlns="http://www.w3.org/2000/svg" xmlns:xlink="http://www.w3.org/1999/xlink">
    <!-- Generator: Sketch 57.1 (83088) - https://sketch.com -->
    <title>regular/settings-regular</title>
    <desc>Created with Sketch.</desc>
    <g id="regular/settings" stroke="none" stroke-width="1" fill="none" fill-rule="evenodd">
        <path d="M33.74,68.12 C36.7112919,68.12 39.12,70.5287081 39.12,73.5 C39.12,76.471292 36.7112919,78.88 33.74,78.88 C30.768708,78.88 28.36,76.471292 28.36,73.5 C28.36,70.5287081 30.768708,68.12 33.74,68.12 Z M21.45,71.12 C21.297275,71.9041346 21.2202543,72.7011309 21.22,73.5 C21.219806,74.1391145 21.2690634,74.7770455 21.3672213,75.4080936 L21.45,75.88 L2.37999995,75.88 C1.06556225,75.88 -4.99980501e-08,74.8144377 -4.99980501e-08,73.5 C-4.99980501e-08,72.2403306 0.978615323,71.209229 2.21705054,71.1254907 L2.37999995,71.12 L21.45,71.12 Z M97.62,71.12 C98.9344378,71.12 100,72.1855623 100,73.5 C100,74.7596695 99.0213847,75.7907711 97.7829495,75.8745093 L97.62,75.88 L46,75.88 C46.2909298,74.4522456 46.317378,72.9844826 46.0793445,71.5494539 L46,71.12 L97.62,71.12 Z M78.26,44.31 C81.231292,44.31 83.64,46.718708 83.64,49.69 C83.64,52.661292 81.231292,55.07 78.26,55.07 C75.2887081,55.07 72.88,52.661292 72.88,49.69 C72.88,46.718708 75.2887081,44.31 78.26,44.31 Z M97.62,47.31 C98.9344378,47.31 100,48.3755623 100,49.69 C100,50.9496695 99.0213847,51.9807711 97.7829495,52.0645093 L97.62,52.07 L90.55,52.07 C90.8287631,50.6410442 90.8541052,49.1753563 90.6260263,47.7397219 L90.55,47.31 L97.62,47.31 Z M66,47.31 C65.8338394,48.0928317 65.7434224,48.8898408 65.73,49.69 C65.7403394,50.3301532 65.8002776,50.9683002 65.9091658,51.5987218 L66,52.07 L2.37999995,52.07 C1.06556225,52.07 -4.99998833e-08,51.0044377 -4.99998833e-08,49.69 C-4.99998833e-08,48.4303305 0.978615323,47.3992289 2.21705054,47.3154907 L2.37999995,47.31 L66,47.31 Z M15.69,20.5 C17.1168647,20.5 18.4852887,21.0668198 19.4942345,22.0757655 C20.5031802,23.0847112 21.07,24.4531353 21.07,25.88 C21.07,28.8512919 18.6612919,31.26 15.69,31.26 C12.718708,31.26 10.31,28.8512919 10.31,25.88 C10.31,22.908708 12.718708,20.5 15.69,20.5 Z M3.39999995,23.5 C3.24727496,24.2841346 3.17025432,25.0811308 3.16999995,25.88 C3.16980597,26.5191145 3.21906334,27.1570455 3.31722126,27.7880935 L3.39999995,28.26 L2.39999995,28.26 C1.08556225,28.26 0.01999995,27.1944377 0.01999995,25.88 C0.01999995,24.6203305 0.998615323,23.5892289 2.23705054,23.5054907 L2.39999995,23.5 L3.39999995,23.5 Z M97.62,23.5 C98.9344378,23.5 100,24.5655623 100,25.88 C100,27.1396694 99.0213847,28.170771 97.7829495,28.2545093 L97.62,28.26 L28,28.26 C28.1565743,27.4762641 28.2369488,26.6792171 28.24,25.88 C28.2371613,25.2406471 28.1851569,24.602697 28.0845548,23.9717805 L28,23.5 L97.62,23.5 Z" id="Shape" fill="#000000"></path>
    </g>
</svg>