<?xml version="1.0" encoding="UTF-8"?>
<svg width="100px" height="100px" viewBox="0 0 100 100" version="1.1" xmlns="http://www.w3.org/2000/svg" xmlns:xlink="http://www.w3.org/1999/xlink">
    <!-- Generator: Sketch 57.1 (83088) - https://sketch.com -->
    <title>regular/share-regular</title>
    <desc>Created with Sketch.</desc>
    <g id="regular/share" stroke="none" stroke-width="1" fill="none" fill-rule="evenodd">
        <path d="M35.5148515,38.2970297 C36.8162749,38.2970297 37.8712871,39.3520419 37.8712871,40.6534653 C37.8712871,41.9548888 36.8162749,43.009901 35.5148515,43.009901 L23.5247524,43.009901 L23.5247524,95.2871288 L75.8019802,95.2871288 L75.8019802,43.009901 L63.8019802,43.009901 C62.5005567,43.009901 61.4455446,41.9548888 61.4455446,40.6534653 C61.4455446,39.3520419 62.5005567,38.2970297 63.8019802,38.2970297 L76.2376238,38.2970297 C77.3693027,38.2970297 78.4542031,38.7485829 79.2516279,39.5515841 C80.0490527,40.3545852 80.4930624,41.4426062 80.4853539,42.5742574 L80.4853539,95.7524753 C80.4853539,98.0983184 78.5834669,100 76.2376238,100 L23.0594059,100 C20.7135628,100 18.8116758,98.0983184 18.8116758,95.7524753 L18.8116758,42.5742574 C18.8039673,41.4426062 19.247977,40.3545852 20.0454018,39.5515841 C20.8428266,38.7485829 21.927727,38.2970297 23.0594059,38.2970297 L35.5148515,38.2970297 Z M49.8663366,0.982411026 L50.0693069,0.990098961 C51.2508481,1.08929176 52.3575441,1.60926322 53.1881188,2.4554455 L78.7227723,27.950495 C79.1659545,28.3925793 79.4150241,28.9928335 79.4150241,29.6188119 C79.4150241,30.2447902 79.1659545,30.8450445 78.7227723,31.2871287 C78.276173,31.725447 77.6752634,31.9707887 77.049505,31.970297 C76.4263305,31.972482 75.8278814,31.7266904 75.3861386,31.2871287 L52.019802,7.92079204 L52.019802,75.6138614 C52.0198019,76.9152848 50.9647898,77.970297 49.6633663,77.970297 C48.3619429,77.970297 47.3069307,76.9152848 47.3069307,75.6138614 L47.3069307,7.92079204 L23.940594,31.3168317 C23.0192081,32.2382176 21.5253463,32.2382176 20.6039604,31.3168317 C19.6825744,30.3954457 19.6825744,28.9015839 20.6039604,27.980198 L46.1386139,2.4554455 C46.9691886,1.60926322 48.0758846,1.08929176 49.2574257,0.990098961 C49.3925451,0.979848381 49.5282469,0.979848381 49.6633663,0.990098961 C49.7985044,0.98035326 49.9341689,0.98035326 50.0693069,0.990098961 L49.8663366,0.982411026 Z" id="Shape" fill="#000000"></path>
    </g>
</svg>