<?xml version="1.0" encoding="UTF-8"?>
<svg width="100px" height="100px" viewBox="0 0 100 100" version="1.1" xmlns="http://www.w3.org/2000/svg" xmlns:xlink="http://www.w3.org/1999/xlink">
    <!-- Generator: Sketch 57.1 (83088) - https://sketch.com -->
    <title>bold/share-bold</title>
    <desc>Created with Sketch.</desc>
    <g id="bold/share" stroke="none" stroke-width="1" fill="none" fill-rule="evenodd">
        <path d="M35.88,35.9699374 C38.3073147,36.0838881 40.2167513,38.0850149 40.2167513,40.515 C40.2167513,42.944985 38.3073147,44.9461118 35.88,45.06 L26.59,45.06 L26.59,90.91 L72.46,90.91 L72.46,45.09 L63.17,45.09 C60.7426853,44.9761118 58.8332487,42.974985 58.8332487,40.545 C58.8332487,38.1150149 60.7426853,36.1138881 63.17,36 L75.17,36 C78.6591386,36.0164197 81.4835803,38.8408614 81.5,42.33 L81.5,93.64 C81.4945767,97.1385911 78.6685264,99.9780351 75.17,100 L23.86,100 C20.3497523,99.9944938 17.5055062,97.1502477 17.5,93.64 L17.5,42.33 C17.5,40.6397522 18.1728058,39.019023 19.3698663,37.825715 C20.5669268,36.632407 22.1897605,35.9646847 23.88,35.9699374 L35.88,35.9699374 Z M49.5,-2.11499675e-07 L49.8116103,0.00748471408 C51.572582,0.0884109795 53.245153,0.821362601 54.5,2.06999995 L79.13,26.69 C80.8641898,28.4693193 80.8459332,31.3121343 79.0890338,33.0690337 C77.3321343,34.8259332 74.4893193,34.8441898 72.71,33.11 L54.06,14.47 L54.06,74.22 C53.9461118,76.6473148 51.944985,78.5567513 49.515,78.5567513 C47.085015,78.5567513 45.0838882,76.6473148 44.97,74.22 L44.97,14.47 L26.32,33.11 C24.5406807,34.8441898 21.6978657,34.8259332 19.9409662,33.0690337 C18.1840668,31.3121343 18.1658102,28.4693193 19.9,26.69 L44.5,2.06999995 C45.8261908,0.744209611 47.6247662,-2.11499675e-07 49.5,-2.11499675e-07 Z" id="Shape" fill="#000000"></path>
    </g>
</svg>