<svg width="100" height="100" viewBox="0 0 100 100" fill="none" xmlns="http://www.w3.org/2000/svg">
<g clip-path="url(#clip0)">
<path d="M55.7389 2.57591L77.8911 24.7389C80.4012 27.2932 80.3822 31.3937 77.8484 33.9244C75.3146 36.4552 71.2141 36.4695 68.6629 33.9563L56.0324 21.315V69.2389C56.0324 72.8408 53.1125 75.7607 49.5107 75.7607C45.9088 75.7607 42.9889 72.8408 42.9889 69.2389V21.315L30.3476 33.9563C27.778 36.3508 23.7736 36.2801 21.2901 33.7965C18.8065 31.3129 18.7358 27.3086 21.1303 24.7389L43.2824 2.57591C46.7238 -0.859937 52.2975 -0.859937 55.7389 2.57591Z" fill="black"/>
<path d="M23.9135 100H75.0874C80.4902 100 84.87 95.6202 84.87 90.2174V47.2826C84.87 41.8798 80.4902 37.5 75.0874 37.5H63.8374C60.2355 37.5 57.3156 40.4199 57.3156 44.0217C57.3156 47.6236 60.2355 50.5435 63.8374 50.5435H71.8483V86.9565H27.1743V50.5543H35.1852C38.7871 50.5543 41.7069 47.6345 41.7069 44.0326C41.7069 40.4308 38.7871 37.5109 35.1852 37.5109H23.9135C18.5107 37.5109 14.1309 41.8907 14.1309 47.2935V90.2174C14.1309 95.6202 18.5107 100 23.9135 100Z" fill="black"/>
</g>
<defs>
<clipPath id="clip0">
<rect width="100" height="100" fill="white"/>
</clipPath>
</defs>
</svg>
