<?xml version="1.0" encoding="UTF-8"?>
<svg width="100px" height="100px" viewBox="0 0 100 100" version="1.1" xmlns="http://www.w3.org/2000/svg" xmlns:xlink="http://www.w3.org/1999/xlink">
    <!-- Generator: Sketch 57.1 (83088) - https://sketch.com -->
    <title>solid/signal-5-bar-solid</title>
    <desc>Created with Sketch.</desc>
    <g id="solid/signal-5-bar" stroke="none" stroke-width="1" fill="none" fill-rule="evenodd">
        <path d="M73.2000001,18.99 C76.7125311,18.99 79.5600001,21.837469 79.5600001,25.35 L79.5600001,86.6600001 C79.5600001,90.1725311 76.7125311,93.0200001 73.2000001,93.0200001 L67.6700001,93.0200001 C64.1574691,93.0200001 61.3100001,90.1725311 61.3100001,86.6600001 L61.3100001,25.35 C61.3100001,21.837469 64.1574691,18.99 67.6700001,18.99 L73.2000001,18.99 Z M11.89,57.9500001 C15.402531,57.9500001 18.25,60.797469 18.25,64.3100001 L18.25,86.6500001 C18.25,90.1625311 15.402531,93.0100001 11.89,93.0100001 L6.36,93.0100001 C2.84746899,93.0100001 0,90.1625311 0,86.6500001 L0,64.3100001 C0,60.797469 2.84746899,57.9500001 6.36,57.9500001 L11.89,57.9500001 Z M32.33,44.96 C35.842531,44.96 38.69,47.807469 38.69,51.32 L38.69,86.6500001 C38.69,90.1625311 35.842531,93.0100001 32.33,93.0100001 L26.8,93.0100001 C23.287469,93.0100001 20.44,90.1625311 20.44,86.6500001 L20.44,51.32 C20.44,47.807469 23.287469,44.96 26.8,44.96 L32.33,44.96 Z M52.7600001,31.97 C56.2725311,31.97 59.1200001,34.817469 59.1200001,38.33 L59.1200001,86.6500001 C59.1200001,90.1625311 56.2725311,93.0100001 52.7600001,93.0100001 L47.23,93.0100001 C43.717469,93.0100001 40.87,90.1625311 40.87,86.6500001 L40.87,38.33 C40.87,34.817469 43.717469,31.97 47.23,31.97 L52.7600001,31.97 Z M93.6400001,6 C97.1525311,6 100,8.84746899 100,12.36 L100,86.6500001 C100,90.1625311 97.1525311,93.0100001 93.6400001,93.0100001 L88.1100001,93.0100001 C84.5974691,93.0100001 81.7500001,90.1625311 81.7500001,86.6500001 L81.7500001,12.36 C81.7500001,8.84746899 84.5974691,6 88.1100001,6 L93.6400001,6 Z" id="Shape" fill="#000000"></path>
    </g>
</svg>