<?xml version="1.0" encoding="UTF-8"?>
<svg width="100px" height="100px" viewBox="0 0 100 100" version="1.1" xmlns="http://www.w3.org/2000/svg" xmlns:xlink="http://www.w3.org/1999/xlink">
    <!-- Generator: Sketch 57.1 (83088) - https://sketch.com -->
    <title>regular/signal-2-bar-regular</title>
    <desc>Created with Sketch.</desc>
    <g id="regular/signal-2-bar" stroke="none" stroke-width="1" fill="none" fill-rule="evenodd">
        <path d="M10.1717172,59.7474748 C12.4907386,59.7474748 14.3850635,61.5693304 14.4995806,63.8611068 L14.5050505,64.0707071 L14.5050505,87.7070707 C14.5050505,90.0299154 12.6773963,91.9258886 10.3816711,92.0354071 L10.1717172,92.0404041 L4.33333334,92.0404041 C2.01048865,92.0404041 0.11451548,90.2127499 0.00499702768,87.9170247 L0,87.7070707 L0,64.0707071 C0.00540564427,61.751692 1.83168303,59.8616301 4.12372088,59.752456 L4.33333334,59.7474748 L10.1717172,59.7474748 Z M31.7979798,46 C34.1208245,46 36.0167977,47.8276542 36.1263161,50.1233794 L36.1313132,50.3333333 L36.1313132,87.7070707 C36.1313132,90.0299154 34.303659,91.9258886 32.0079337,92.0354071 L31.7979798,92.0404041 L25.959596,92.0404041 C23.6367513,92.0404041 21.7407781,90.2127499 21.6312597,87.9170247 L21.6262626,87.7070707 L21.6262626,50.3333333 C21.6262626,48.0104887 23.4539169,46.1145155 25.7496421,46.004997 L25.959596,46 L31.7979798,46 Z M53.4242425,87.2323233 C54.7519573,87.2323233 55.8282829,88.3086488 55.8282829,89.6363637 C55.8282829,90.9087571 54.8397825,91.9502739 53.5888378,92.0348579 L53.4242425,92.0404041 L47.5858586,92.0404041 C46.2581438,92.0404041 45.1818182,90.9640785 45.1818182,89.6363637 C45.1818182,88.3639703 46.1703186,87.3224535 47.4212633,87.2378695 L47.5858586,87.2323233 L53.4242425,87.2323233 Z M69.2121213,87.2323233 L75.0505051,87.2323233 C76.37822,87.2323233 77.4545455,88.3086488 77.4545455,89.6363637 C77.4545455,90.9087571 76.4660452,91.9502739 75.2151005,92.0348579 L75.0505051,92.0404041 L69.2121213,92.0404041 C67.8844064,92.0404041 66.8080809,90.9640785 66.8080809,89.6363637 C66.8080809,88.3639703 67.7965813,87.3224535 69.0475259,87.2378695 L69.2121213,87.2323233 L75.0505051,87.2323233 L69.2121213,87.2323233 Z M96.6767678,87.2323233 C98.0044826,87.2323233 99.0808082,88.3086488 99.0808082,89.6363637 C99.0808082,90.9640785 98.0044826,92.0404041 96.6767678,92.0404041 L90.8383839,92.0404041 C89.5106691,92.0404041 88.4343435,90.9640785 88.4343435,89.6363637 C88.4343435,88.3086488 89.5106691,87.2323233 90.8383839,87.2323233 L96.6767678,87.2323233 Z M9.69696971,64.5555556 L4.80808081,64.5555556 L4.80808081,87.2323233 L9.69696971,87.2323233 L9.69696971,64.5555556 Z M31.3131313,50.8080808 L26.4343435,50.8080808 L26.4343435,87.2323233 L31.3131313,87.2323233 L31.3131313,50.8080808 Z" id="Shape" fill="#000000"></path>
    </g>
</svg>