<?xml version="1.0" encoding="UTF-8"?>
<svg width="100px" height="100px" viewBox="0 0 100 100" version="1.1" xmlns="http://www.w3.org/2000/svg" xmlns:xlink="http://www.w3.org/1999/xlink">
    <!-- Generator: Sketch 57.1 (83088) - https://sketch.com -->
    <title>regular/signal-3-bar-regular</title>
    <desc>Created with Sketch.</desc>
    <g id="regular/signal-3-bar" stroke="none" stroke-width="1" fill="none" fill-rule="evenodd">
        <path d="M10.1717172,60.4848485 C12.4945619,60.4848485 14.390535,62.3125027 14.5000535,64.6082279 L14.5050505,64.8181819 L14.5050505,88.4545455 C14.4996449,90.7735606 12.6733675,92.6636225 10.3813296,92.7727966 L10.1717172,92.7777778 L4.33333334,92.7777778 C2.01431194,92.7777778 0.119987034,90.9559222 0.00546988983,88.6641458 L0,88.4545455 L0,64.8181819 C0,62.4953372 1.82765421,60.599364 4.12337943,60.4898455 L4.33333334,60.4848485 L10.1717172,60.4848485 Z M53.4242425,33 C55.7470872,33 57.6430603,34.8276542 57.7525788,37.1233794 L57.7575758,37.3333333 L57.7575758,88.4545455 C57.7521702,90.7735606 55.9258928,92.6636225 53.6338549,92.7727966 L53.4242425,92.7777778 L47.5858586,92.7777778 C45.2668372,92.7777778 43.3725123,90.9559222 43.2579952,88.6641458 L43.2525253,88.4545455 L43.2525253,37.3333333 C43.2525253,35.0104887 45.0801795,33.1145155 47.3759047,33.004997 L47.5858586,33 L53.4242425,33 Z M69.2121213,87.969697 L75.0505051,87.969697 C76.37822,87.969697 77.4545455,89.0460226 77.4545455,90.3737374 C77.4545455,91.6461308 76.4660452,92.6876476 75.2151005,92.7722316 L75.0505051,92.7777778 L69.2121213,92.7777778 C67.8844064,92.7777778 66.8080809,91.7014523 66.8080809,90.3737374 C66.8080809,89.101344 67.7965813,88.0598273 69.0475259,87.9752432 L69.2121213,87.969697 L75.0505051,87.969697 L69.2121213,87.969697 Z M96.6767678,87.969697 C98.0044826,87.969697 99.0808082,89.0460226 99.0808082,90.3737374 C99.0808082,91.7014523 98.0044826,92.7777778 96.6767678,92.7777778 L90.8383839,92.7777778 C89.5106691,92.7777778 88.4343435,91.7014523 88.4343435,90.3737374 C88.4343435,89.0460226 89.5106691,87.969697 90.8383839,87.969697 L96.6767678,87.969697 Z M31.7979798,46.7474748 C34.1170012,46.7474748 36.0113261,48.5693304 36.1258433,50.8611068 L36.1313132,51.0707071 L36.1313132,88.4444445 C36.1259075,90.7634596 34.2996301,92.6535215 32.0075923,92.7626956 L31.7979798,92.7676768 L25.959596,92.7676768 C23.6405746,92.7676768 21.7462497,90.9458212 21.6317325,88.6540447 L21.6262626,88.4444445 L21.6262626,51.0707071 C21.6316683,48.751692 23.4579457,46.8616301 25.7499835,46.752456 L25.959596,46.7474748 L31.7979798,46.7474748 Z M9.69696971,65.3232324 L4.80808081,65.3232324 L4.80808081,87.969697 L9.69696971,87.969697 L9.69696971,65.3232324 Z M31.3131313,51.6060606 L26.4343435,51.6060606 L26.4343435,87.969697 L31.3131313,87.969697 L31.3131313,51.6060606 Z M52.949495,37.8080808 L48.0606061,37.8080808 L48.0606061,87.969697 L52.949495,87.969697 L52.949495,37.8080808 Z" id="Shape" fill="#000000"></path>
    </g>
</svg>