<?xml version="1.0" encoding="UTF-8"?>
<svg width="100px" height="100px" viewBox="0 0 100 100" version="1.1" xmlns="http://www.w3.org/2000/svg" xmlns:xlink="http://www.w3.org/1999/xlink">
    <!-- Generator: Sketch 57.1 (83088) - https://sketch.com -->
    <title>regular/signal-1-bar-regular</title>
    <desc>Created with Sketch.</desc>
    <g id="regular/signal-1-bar" stroke="none" stroke-width="1" fill="none" fill-rule="evenodd">
        <path d="M10.1718107,60 C12.5650446,60 14.5052375,61.9400994 14.5052375,64.3333333 L14.5052375,87.969697 C14.5105183,89.1224647 14.0563456,90.2298621 13.2431047,91.0468943 C12.4298639,91.8639265 11.3245909,92.3232324 10.1718107,92.3232324 L4.33342683,92.3232324 C3.18064657,92.3232324 2.07537365,91.8639265 1.26213278,91.0468943 C0.448891909,90.2298621 -0.00528077047,89.1224647 0,87.969697 L0,64.3333333 C0,61.9400994 1.94019292,60 4.33342683,60 L10.1718107,60 Z M31.7980733,87.5151515 C33.1257882,87.5151515 34.2021137,88.5914771 34.2021137,89.9191919 C34.2021137,91.2469068 33.1257882,92.3232324 31.7980733,92.3232324 L25.9596895,92.3232324 C24.6319746,92.3232324 23.5556491,91.2469068 23.5556491,89.9191919 C23.5556491,88.5914771 24.6319746,87.5151515 25.9596895,87.5151515 L31.7980733,87.5151515 Z M53.424336,87.5151515 C54.7520508,87.5151515 55.8283764,88.5914771 55.8283764,89.9191919 C55.8283764,91.2469068 54.7520508,92.3232324 53.424336,92.3232324 L47.5859521,92.3232324 C46.2582373,92.3232324 45.1819117,91.2469068 45.1819117,89.9191919 C45.1819117,88.5914771 46.2582373,87.5151515 47.5859521,87.5151515 L53.424336,87.5151515 Z M75.0505986,87.5151515 C76.3783135,87.5151515 77.454639,88.5914771 77.454639,89.9191919 C77.454639,91.2469068 76.3783135,92.3232324 75.0505986,92.3232324 L69.2122148,92.3232324 C67.8844999,92.3232324 66.8081744,91.2469068 66.8081744,89.9191919 C66.8081744,88.5914771 67.8844999,87.5151515 69.2122148,87.5151515 L75.0505986,87.5151515 Z M96.6768613,87.5151515 C98.0045761,87.5151515 99.0809017,88.5914771 99.0809017,89.9191919 C99.0809017,91.2469068 98.0045761,92.3232324 96.6768613,92.3232324 L90.8384774,92.3232324 C89.5107626,92.3232324 88.434437,91.2469068 88.434437,89.9191919 C88.434437,88.5914771 89.5107626,87.5151515 90.8384774,87.5151515 L96.6768613,87.5151515 Z M9.6970632,64.8080808 L4.80817431,64.8080808 L4.80817431,87.4848485 L9.6970632,87.4848485 L9.6970632,64.8080808 Z" id="Shape" fill="#000000"></path>
    </g>
</svg>