<svg width="100" height="100" viewBox="0 0 100 100" fill="none" xmlns="http://www.w3.org/2000/svg">
<path d="M8.09877 93.1729H3.08642C1.38184 93.1729 0 91.7911 0 90.0865C0 88.3819 1.38184 87.0001 3.08642 87.0001H8.09877C9.80335 87.0001 11.1852 88.3819 11.1852 90.0865C11.1852 91.7911 9.80335 93.1729 8.09877 93.1729Z" fill="black"/>
<path d="M30.3084 93.1729H25.2837C23.5791 93.1729 22.1973 91.7911 22.1973 90.0865C22.1973 88.3819 23.5791 87.0001 25.2837 87.0001H30.3084C32.013 87.0001 33.3948 88.3819 33.3948 90.0865C33.3948 91.7911 32.013 93.1729 30.3084 93.1729Z" fill="black"/>
<path d="M47.4936 93.1729H52.506C54.2106 93.1729 55.5924 91.7911 55.5924 90.0865C55.5924 88.3819 54.2106 87.0001 52.506 87.0001H47.4936C45.7891 87.0001 44.4072 88.3819 44.4072 90.0865C44.4072 91.7911 45.7891 93.1729 47.4936 93.1729Z" fill="black"/>
<path d="M74.7156 93.1729H69.6909C67.9863 93.1729 66.6045 91.7911 66.6045 90.0865C66.6045 88.3819 67.9863 87.0001 69.6909 87.0001H74.7156C76.4202 87.0001 77.802 88.3819 77.802 90.0865C77.802 91.7911 76.4202 93.1729 74.7156 93.1729Z" fill="black"/>
<path d="M91.9009 93.1729H96.9132C98.6178 93.1729 99.9996 91.7911 99.9996 90.0865C99.9996 88.3819 98.6178 87.0001 96.9132 87.0001H91.9009C90.1963 87.0001 88.8145 88.3819 88.8145 90.0865C88.8145 91.7911 90.1963 93.1729 91.9009 93.1729Z" fill="black"/>
</svg>
