<?xml version="1.0" encoding="UTF-8"?>
<svg width="100px" height="100px" viewBox="0 0 100 100" version="1.1" xmlns="http://www.w3.org/2000/svg" xmlns:xlink="http://www.w3.org/1999/xlink">
    <!-- Generator: Sketch 57.1 (83088) - https://sketch.com -->
    <title>bold/signal-4-bar-bold</title>
    <desc>Created with Sketch.</desc>
    <g id="bold/signal-4-bar" stroke="none" stroke-width="1" fill="none" fill-rule="evenodd">
        <path d="M94.5858587,83.5858587 C97.124137,83.5858587 99.1818181,85.6435399 99.1818181,88.1818183 C99.1818181,90.7200966 97.124137,92.7777779 94.5858587,92.7777779 L89.0000001,92.7777779 C86.4617218,92.7777779 84.4040407,90.7200966 84.4040407,88.1818183 C84.4040407,85.6435399 86.4617218,83.5858587 89.0000001,83.5858587 L94.5858587,83.5858587 Z M12.010101,57.3939394 C15.4633819,57.3992543 18.2816947,60.1253581 18.4285342,63.5485542 L18.4343435,63.7777778 L18.4343435,86.3131314 C18.4343435,89.7856139 15.6833695,92.6164063 12.2406199,92.74306 L12.010101,92.7474748 L6.42424243,92.7474748 C2.9633044,92.74208 0.14174441,90.0042767 0.00510891908,86.573179 L0,86.3434344 L0,63.7777778 C0.0271017576,60.3245992 2.77093235,57.5235418 6.19498675,57.3983023 L6.42424243,57.3939394 L12.010101,57.3939394 Z M32.6565657,44.2626263 C36.115273,44.2734008 38.9337109,47.0082571 39.0753533,50.4370732 L39.0808081,50.6666667 L39.0808081,86.3131314 C39.0753859,89.7833662 36.3273912,92.6110035 32.8869329,92.7427108 L32.6565657,92.7474748 L27.0707071,92.7474748 C23.6097691,92.74208 20.7882091,90.0042767 20.6515736,86.573179 L20.6464647,86.3434344 L20.6464647,50.6969697 C20.6464647,47.2244872 23.3974387,44.3936948 26.8401882,44.2670411 L27.0707071,44.2626263 L32.6565657,44.2626263 Z M53.2929293,31.1313131 C56.7615639,31.1313131 59.5907159,33.8763974 59.7225055,37.3151961 L59.7272728,37.5454546 L59.7272728,86.3131314 C59.7218318,89.7872129 56.9679641,92.6164859 53.5235569,92.7430629 L53.2929293,92.7474748 L47.7171718,92.7474748 C44.2546087,92.7421156 41.4302283,90.005839 41.2882942,86.5732808 L41.2828283,86.3434344 L41.2828283,37.5555556 C41.2882796,34.0830773 44.0437017,31.2566147 47.4866462,31.1353661 L47.7171718,31.1313131 L53.2929293,31.1313131 Z M68.3535354,18 L73.939394,18 C77.4080182,18.005441 80.2328446,20.7549808 80.3592309,24.1939771 L80.3636364,24.4242424 L80.3636364,86.3131314 C80.3636364,89.7856139 77.6126625,92.6164063 74.1699129,92.74306 L73.939394,92.7474748 L68.3535354,92.7474748 C64.8948281,92.7367003 62.0763902,90.001844 61.9347478,86.573028 L61.929293,86.3434344 L61.929293,24.4242424 C61.9401424,20.9578659 64.6867078,18.1361804 68.1234212,18.0047538 L68.3535354,18 L73.939394,18 L68.3535354,18 Z M9.25252526,66.5353536 L9.18181819,66.5353536 L9.18181819,83.6565657 L9.25252526,83.6565657 L9.25252526,66.5353536 Z M29.8989899,53.4141414 L29.8282829,53.4141414 L29.8282829,83.6565657 L29.8989899,83.6565657 L29.8989899,53.4141414 Z M71.1818183,27.1818182 L71.1111112,27.1818182 L71.1111112,83.5858587 L71.1818183,83.5858587 L71.1818183,27.1818182 Z" id="Shape" fill="#000000"></path>
    </g>
</svg>