<?xml version="1.0" encoding="UTF-8"?>
<svg width="100px" height="100px" viewBox="0 0 100 100" version="1.1" xmlns="http://www.w3.org/2000/svg" xmlns:xlink="http://www.w3.org/1999/xlink">
    <!-- Generator: Sketch 57.1 (83088) - https://sketch.com -->
    <title>solid/signal-2-bar-solid</title>
    <desc>Created with Sketch.</desc>
    <g id="solid/signal-2-bar" stroke="none" stroke-width="1" fill="none" fill-rule="evenodd">
        <path d="M57.4521516,85.6249477 C58.3216717,87.0780724 58.3216717,88.8916247 57.4521516,90.3447494 C56.6221552,91.7318229 55.1282594,92.5759611 53.5229565,92.5808278 L53.2929293,92.5757576 L47.7171718,92.5757576 C46.0256229,92.6551241 44.4274696,91.7978741 43.5579495,90.3447494 C42.6884294,88.8916247 42.6884294,87.0780724 43.5579495,85.6249477 C44.3879459,84.2378741 45.8818417,83.3937359 47.4871446,83.3888692 L47.7171718,83.3939394 L53.2929293,83.3939394 C54.9844782,83.314573 56.5826316,84.171823 57.4521516,85.6249477 Z M78.0986163,85.6249477 C78.9681363,87.0780724 78.9681363,88.8916247 78.0986163,90.3447494 C77.2686199,91.7318229 75.7747241,92.5759611 74.1694212,92.5808068 L73.939394,92.5757576 L68.3535354,92.5757576 C65.9017024,92.4607191 63.9729785,90.4393789 63.9729785,87.9848485 C63.9729785,85.6025102 65.7899165,83.6282551 68.1385905,83.4089996 L68.3535354,83.3939394 L73.939394,83.3939394 C75.6309429,83.314573 77.2290962,84.171823 78.0986163,85.6249477 Z M94.5858587,83.3939394 C97.0376917,83.508978 98.9664156,85.5303182 98.9664156,87.9848485 C98.9664156,90.4393789 97.0376917,92.4607191 94.5858587,92.5757576 L89.0000001,92.5757576 C86.548167,92.4607191 84.6194432,90.4393789 84.6194432,87.9848485 C84.6194432,85.5303182 86.548167,83.508978 89.0000001,83.3939394 L94.5858587,83.3939394 Z M12.0743435,57.1212121 C15.5868745,57.1212121 18.4343435,59.9686811 18.4343435,63.4812121 L18.4343435,86.1753536 C18.4343435,89.6878846 15.5868745,92.5353536 12.0743435,92.5353536 L6.36,92.5353536 C2.84746899,92.5353536 0,89.6878846 0,86.1753536 L0,63.4812121 C0,59.9686811 2.84746899,57.1212121 6.36,57.1212121 L12.0743435,57.1212121 Z M32.7208081,44 C36.2333391,44 39.0808081,46.847469 39.0808081,50.36 L39.0808081,86.1753536 C39.0808081,89.6878846 36.2333391,92.5353536 32.7208081,92.5353536 L27.0064647,92.5353536 C23.4939337,92.5353536 20.6464647,89.6878846 20.6464647,86.1753536 L20.6464647,50.36 C20.6464647,46.847469 23.4939337,44 27.0064647,44 L32.7208081,44 Z" id="Shape" fill="#000000"></path>
    </g>
</svg>