<?xml version="1.0" encoding="UTF-8"?>
<svg width="100px" height="100px" viewBox="0 0 100 100" version="1.1" xmlns="http://www.w3.org/2000/svg" xmlns:xlink="http://www.w3.org/1999/xlink">
    <!-- Generator: Sketch 57.1 (83088) - https://sketch.com -->
    <title>solid/signal-1-bar-solid</title>
    <desc>Created with Sketch.</desc>
    <g id="solid/signal-1-bar" stroke="none" stroke-width="1" fill="none" fill-rule="evenodd">
        <path d="M26.8406799,84.2575771 L27.0707071,84.2626263 L32.6565657,84.2626263 C35.1083988,84.3776648 37.0371226,86.399005 37.0371226,88.8535354 C37.0371226,91.2358737 35.2201847,93.2101288 32.8715106,93.4293844 L32.6565657,93.4444445 L27.0707071,93.4444445 C25.3791583,93.5238109 23.7810049,92.6665609 22.9114848,91.2134362 C22.0419648,89.7603115 22.0419648,87.9467593 22.9114848,86.4936346 C23.7019576,85.1726121 25.0946067,84.3440481 26.6121684,84.2639468 L26.8406799,84.2575771 Z M57.4521516,86.4936346 C58.3216717,87.9467593 58.3216717,89.7603115 57.4521516,91.2134362 C56.6221552,92.6005098 55.1282594,93.444648 53.5229565,93.4495147 L53.2929293,93.4444445 L47.7171718,93.4444445 C46.0256229,93.5238109 44.4274696,92.6665609 43.5579495,91.2134362 C42.6884294,89.7603115 42.6884294,87.9467593 43.5579495,86.4936346 C44.3879459,85.106561 45.8818417,84.2624228 47.4871446,84.2575561 L47.7171718,84.2626263 L53.2929293,84.2626263 C54.9844782,84.1832598 56.5826316,85.0405098 57.4521516,86.4936346 Z M78.0986163,86.4936346 C78.9681363,87.9467593 78.9681363,89.7603115 78.0986163,91.2134362 C77.2686199,92.6005098 75.7747241,93.444648 74.1694212,93.4494937 L73.939394,93.4444445 L68.3535354,93.4444445 C65.9017024,93.3294059 63.9729785,91.3080657 63.9729785,88.8535354 C63.9729785,86.4711971 65.7899165,84.4969419 68.1385905,84.2776864 L68.3535354,84.2626263 L73.939394,84.2626263 C75.6309429,84.1832598 77.2290962,85.0405098 78.0986163,86.4936346 Z M94.5858587,84.2626263 C97.0376917,84.3776648 98.9664156,86.399005 98.9664156,88.8535354 C98.9664156,91.3080657 97.0376917,93.3294059 94.5858587,93.4444445 L89.0000001,93.4444445 C86.548167,93.3294059 84.6194432,91.3080657 84.6194432,88.8535354 C84.6194432,86.399005 86.548167,84.3776648 89.0000001,84.2626263 L94.5858587,84.2626263 Z M12.0743435,58 C15.5868745,58 18.4343435,60.847469 18.4343435,64.36 L18.4343435,87.0541414 C18.4343435,90.5666725 15.5868745,93.4141414 12.0743435,93.4141414 L6.36,93.4141414 C2.84746899,93.4141414 0,90.5666725 0,87.0541414 L0,64.36 C0,60.847469 2.84746899,58 6.36,58 L12.0743435,58 Z" id="Shape" fill="#000000"></path>
    </g>
</svg>