<?xml version="1.0" encoding="UTF-8"?>
<svg width="100px" height="100px" viewBox="0 0 100 100" version="1.1" xmlns="http://www.w3.org/2000/svg" xmlns:xlink="http://www.w3.org/1999/xlink">
    <!-- Generator: Sketch 57.1 (83088) - https://sketch.com -->
    <title>solid/signal-3-bar-solid</title>
    <desc>Created with Sketch.</desc>
    <g id="solid/signal-3-bar" stroke="none" stroke-width="1" fill="none" fill-rule="evenodd">
        <path d="M78.0986163,85.7562608 C78.9681363,87.2093855 78.9681363,89.0229378 78.0986163,90.4760625 C77.2686199,91.8631361 75.7747241,92.7072743 74.1694212,92.71212 L73.939394,92.7070708 L68.3535354,92.7070708 C65.9017024,92.5920322 63.9729785,90.570692 63.9729785,88.1161617 C63.9729785,85.7338234 65.7899165,83.7595682 68.1385905,83.5403127 L68.3535354,83.5252526 L73.939394,83.5252526 C75.6309429,83.4458861 77.2290962,84.3031361 78.0986163,85.7562608 Z M94.5858587,83.5252526 C97.0376917,83.6402911 98.9664156,85.6616313 98.9664156,88.1161617 C98.9664156,90.570692 97.0376917,92.5920322 94.5858587,92.7070708 L89.0000001,92.7070708 C86.548167,92.5920322 84.6194432,90.570692 84.6194432,88.1161617 C84.6194432,85.6616313 86.548167,83.6402911 89.0000001,83.5252526 L94.5858587,83.5252526 Z M32.7208081,44.1212121 C36.2333391,44.1212121 39.0808081,46.9686811 39.0808081,50.4812121 L39.0808081,86.2965657 C39.0808081,89.8090967 36.2333391,92.6565657 32.7208081,92.6565657 L27.0064647,92.6565657 C23.4939337,92.6565657 20.6464647,89.8090967 20.6464647,86.2965657 L20.6464647,50.4812121 C20.6464647,46.9686811 23.4939337,44.1212121 27.0064647,44.1212121 L32.7208081,44.1212121 Z M53.3571718,31 C56.8697028,31 59.7171718,33.847469 59.7171718,37.36 L59.7171718,86.2965657 C59.7171718,89.8090967 56.8697028,92.6565657 53.3571718,92.6565657 L47.6428283,92.6565657 C44.1302973,92.6565657 41.2828283,89.8090967 41.2828283,86.2965657 L41.2828283,37.36 C41.2828283,33.847469 44.1302973,31 47.6428283,31 L53.3571718,31 Z M12.0743435,57.2323233 C15.5868745,57.2323233 18.4343435,60.0797922 18.4343435,63.5923233 L18.4343435,86.2864647 C18.4343435,89.7989957 15.5868745,92.6464647 12.0743435,92.6464647 L6.36,92.6464647 C2.84746899,92.6464647 0,89.7989957 0,86.2864647 L0,63.5923233 C0,60.0797922 2.84746899,57.2323233 6.36,57.2323233 L12.0743435,57.2323233 Z" id="Shape" fill="#000000"></path>
    </g>
</svg>