<?xml version="1.0" encoding="UTF-8"?>
<svg width="100px" height="100px" viewBox="0 0 100 100" version="1.1" xmlns="http://www.w3.org/2000/svg" xmlns:xlink="http://www.w3.org/1999/xlink">
    <!-- Generator: Sketch 57.1 (83088) - https://sketch.com -->
    <title>solid/signal-0-bar-solid</title>
    <desc>Created with Sketch.</desc>
    <g id="solid/signal-0-bar" stroke="none" stroke-width="1" fill="none" fill-rule="evenodd">
        <path d="M15.6947742,86.2588956 C16.5731669,87.7268481 16.5731669,89.558906 15.6947742,91.0268585 C14.8545725,92.430987 13.3409169,93.2843664 11.7154113,93.2857541 L11.4931109,93.2806322 L5.86045784,93.2806322 C4.15164829,93.3608085 2.53718724,92.494811 1.65879453,91.0268585 C0.780401823,89.558906 0.780401823,87.7268481 1.65879453,86.2588956 C2.49899625,84.8547671 4.01265181,84.0013877 5.63815744,84 L5.86045784,84.0051219 L11.4931109,84.0051219 C13.2019205,83.9249456 14.8163815,84.7909431 15.6947742,86.2588956 Z M57.3988559,86.2588956 C58.2772486,87.7268481 58.2772486,89.558906 57.3988559,91.0268585 C56.5586542,92.430987 55.0449986,93.2843664 53.419493,93.2857541 L53.1971926,93.2806322 L47.5645395,93.2806322 C45.85573,93.3608085 44.2412689,92.494811 43.3628762,91.0268585 C42.4844835,89.558906 42.4844835,87.7268481 43.3628762,86.2588956 C44.2030779,84.8547671 45.7167335,84.0013877 47.3422391,84 L47.5645395,84.0051219 L53.1971926,84.0051219 C54.9060021,83.9249456 56.5204632,84.7909431 57.3988559,86.2588956 Z M78.2559988,86.2588956 C79.1343915,87.7268481 79.1343915,89.558906 78.2559988,91.0268585 C77.4157971,92.430987 75.9021415,93.2843664 74.2766359,93.2857541 L74.0543355,93.2806322 L68.4216824,93.2806322 C66.7128728,93.3608085 65.0984118,92.494811 64.2200191,91.0268585 C63.3416264,89.558906 63.3416264,87.7268481 64.2200191,86.2588956 C65.0602208,84.8547671 66.5738764,84.0013877 68.199382,84 L68.4216824,84.0051219 L74.0543355,84.0051219 C75.763145,83.9249456 77.3776061,84.7909431 78.2559988,86.2588956 Z M32.370662,84.0051219 C34.8475137,84.1213343 36.7959184,86.1633005 36.7959184,88.642877 C36.7959184,91.0495249 34.9604403,93.0439255 32.5878002,93.2654183 L32.370662,93.2806322 L26.7278048,93.2806322 C24.250953,93.1644197 22.3025484,91.1224536 22.3025484,88.642877 C22.3025484,86.2362292 24.1380265,84.2418286 26.5106666,84.0203357 L26.7278048,84.0051219 L32.370662,84.0051219 Z M94.9114783,84.0051219 C97.3883301,84.1213343 99.3367348,86.1633005 99.3367348,88.642877 C99.3367348,91.1224536 97.3883301,93.1644197 94.9114783,93.2806322 L89.2686212,93.2806322 C86.7917694,93.1644197 84.8433647,91.1224536 84.8433647,88.642877 C84.8433647,86.1633005 86.7917694,84.1213343 89.2686212,84.0051219 L94.9114783,84.0051219 Z" id="Shape" fill="#000000"></path>
    </g>
</svg>