<svg width="100" height="100" viewBox="0 0 100 100" fill="none" xmlns="http://www.w3.org/2000/svg">
<path fill-rule="evenodd" clip-rule="evenodd" d="M98.0371 72.2075C84.6691 70.0035 78.6461 56.2685 78.3971 55.6845C78.3811 55.6455 78.3631 55.6075 78.3441 55.5705C77.6601 54.1835 77.5031 53.0365 77.8731 52.1625C78.6021 50.4445 81.4031 49.5555 83.2561 48.9675C83.7931 48.7985 84.2981 48.6375 84.7201 48.4715C86.5441 47.7505 87.8481 46.9695 88.7071 46.0815C89.7341 45.0225 89.9341 44.0095 89.9231 43.3465C89.8911 41.7405 88.6641 40.3145 86.7121 39.6155C86.0531 39.3435 85.3011 39.1995 84.5351 39.1995C84.0151 39.1995 83.2421 39.2705 82.5121 39.6115C80.9481 40.3445 79.5471 40.7445 78.3441 40.8015C77.7051 40.7695 77.2561 40.6305 76.9661 40.4975C77.0021 39.8715 77.0421 39.2285 77.0841 38.5585L77.1011 38.2705C77.5301 31.4825 78.0621 23.0365 75.8261 18.0215C74.2941 14.5875 72.2361 11.6335 69.7091 9.23851C67.5901 7.23151 65.1281 5.60451 62.3911 4.40251C57.6261 2.31151 53.1841 1.99951 50.9611 1.99951H50.9571C50.8711 1.99951 50.7891 1.99951 50.7121 2.00051L48.9941 2.01851C46.7731 2.01851 42.3321 2.33151 37.5611 4.43651C34.8331 5.64151 32.3791 7.26851 30.2681 9.27251C27.7511 11.6625 25.7011 14.6085 24.1751 18.0315C21.9401 23.0425 22.4711 31.4825 22.8971 38.2665L22.8981 38.2765C22.9441 39.0025 22.9921 39.7615 23.0361 40.5005C22.7081 40.6505 22.1761 40.8105 21.3931 40.8105C20.1321 40.8105 18.6341 40.4065 16.9391 39.6125C16.4401 39.3805 15.8711 39.2635 15.2431 39.2635C14.2341 39.2635 13.1711 39.5605 12.2481 40.1035C11.0871 40.7845 10.3371 41.7475 10.1341 42.8155C9.99907 43.5215 10.0061 44.9185 11.5571 46.3345C12.4101 47.1135 13.6631 47.8325 15.2811 48.4725C15.7051 48.6395 16.2091 48.7995 16.7431 48.9685C18.5951 49.5575 21.3971 50.4455 22.1281 52.1655C22.4981 53.0375 22.3391 54.1865 21.6561 55.5725C21.6381 55.6095 21.6201 55.6465 21.6031 55.6865C21.4331 56.0855 19.8391 59.6935 16.5711 63.5005C14.7141 65.6645 12.6681 67.4745 10.4951 68.8785C7.84207 70.5935 4.97107 71.7145 1.96307 72.2095C0.782069 72.4035 -0.0639312 73.4565 0.00406879 74.6515C0.0240688 74.9965 0.105069 75.3405 0.245069 75.6725L0.248069 75.6795C0.726069 76.7965 1.83307 77.7445 3.63407 78.5825C5.83307 79.6035 9.12407 80.4635 13.4121 81.1365C13.6291 81.5485 13.8531 82.5835 14.0091 83.2925C14.1721 84.0465 14.3421 84.8205 14.5851 85.6445C14.8461 86.5355 15.5241 87.6025 17.2661 87.6025C17.9271 87.6025 18.6861 87.4525 19.5661 87.2825C20.8531 87.0295 22.6141 86.6855 24.8121 86.6855C26.0311 86.6855 27.2941 86.7925 28.5651 87.0035C31.0151 87.4115 33.1271 88.9035 35.5721 90.6315C39.1491 93.1605 43.1981 96.0225 49.3851 96.0225C49.5541 96.0225 49.7231 96.0175 49.8901 96.0065C50.0951 96.0155 50.3481 96.0225 50.6161 96.0225C56.8051 96.0225 60.8521 93.1595 64.4261 90.6335L64.4321 90.6275C66.8761 88.9015 68.9861 87.4115 71.4351 87.0035C72.7061 86.7925 73.9691 86.6855 75.1881 86.6855C77.2881 86.6855 78.9501 86.9525 80.4341 87.2425C81.4031 87.4335 82.1561 87.5245 82.7341 87.5245L82.7901 87.5255H82.8491C84.1231 87.5255 85.0591 86.8265 85.4171 85.6025C85.6541 84.7965 85.8241 84.0395 85.9911 83.2735C86.1371 82.6085 86.3691 81.5445 86.5861 81.1275C90.8771 80.4535 94.1661 79.5965 96.3661 78.5745C98.1621 77.7405 99.2681 76.7935 99.7491 75.6805C99.8931 75.3475 99.9771 75.0015 99.9961 74.6485C100.063 73.4545 99.2191 72.4005 98.0371 72.2075Z" fill="black"/>
</svg>
