<?xml version="1.0" encoding="UTF-8"?>
<svg width="100px" height="100px" viewBox="0 0 100 100" version="1.1" xmlns="http://www.w3.org/2000/svg" xmlns:xlink="http://www.w3.org/1999/xlink">
    <!-- Generator: Sketch 57.1 (83088) - https://sketch.com -->
    <title>brand/snapchat-brand</title>
    <desc>Created with Sketch.</desc>
    <g id="brand/snapchat" stroke="none" stroke-width="1" fill="none" fill-rule="evenodd">
        <path d="M98.0371,72.2077 C84.6691,70.0037 78.6461,56.2687 78.3971,55.6847 C78.3811,55.6457 78.3631,55.6077 78.3441,55.5707 C77.6601,54.1837 77.5031,53.0367 77.8731,52.1627 C78.6021,50.4447 81.4031,49.5557 83.2561,48.9677 C83.7931,48.7987 84.2981,48.6377 84.7201,48.4717 C86.5441,47.7507 87.8481,46.9697 88.7071,46.0817 C89.7341,45.0227 89.9341,44.0097 89.9231,43.3467 C89.8911,41.7407 88.6641,40.3147 86.7121,39.6157 C86.0531,39.3437 85.3011,39.1997 84.5351,39.1997 C84.0151,39.1997 83.2421,39.2707 82.5121,39.6117 C80.9481,40.3447 79.5471,40.7447 78.3441,40.8017 C77.7051,40.7697 77.2561,40.6307 76.9661,40.4977 C77.0021,39.8717 77.0421,39.2287 77.0841,38.5587 L77.1011,38.2707 C77.5301,31.4827 78.0621,23.0367 75.8261,18.0217 C74.2941,14.5877 72.2361,11.6337 69.7091,9.2387 C67.5901,7.2317 65.1281,5.6047 62.3911,4.4027 C57.6261,2.3117 53.1841,1.9997 50.9611,1.9997 L50.9571,1.9997 C50.8711,1.9997 50.7891,1.9997 50.7121,2.0007 L48.9941,2.0187 C46.7731,2.0187 42.3321,2.3317 37.5611,4.4367 C34.8331,5.6417 32.3791,7.2687 30.2681,9.2727 C27.7511,11.6627 25.7011,14.6087 24.1751,18.0317 C21.9401,23.0427 22.4711,31.4827 22.8971,38.2667 L22.8981,38.2767 C22.9441,39.0027 22.9921,39.7617 23.0361,40.5007 C22.7081,40.6507 22.1761,40.8107 21.3931,40.8107 C20.1321,40.8107 18.6341,40.4067 16.9391,39.6127 C16.4401,39.3807 15.8711,39.2637 15.2431,39.2637 C14.2341,39.2637 13.1711,39.5607 12.2481,40.1037 C11.0871,40.7847 10.3371,41.7477 10.1341,42.8157 C9.9991,43.5217 10.0061,44.9187 11.5571,46.3347 C12.4101,47.1137 13.6631,47.8327 15.2811,48.4727 C15.7051,48.6397 16.2091,48.7997 16.7431,48.9687 C18.5951,49.5577 21.3971,50.4457 22.1281,52.1657 C22.4981,53.0377 22.3391,54.1867 21.6561,55.5727 C21.6381,55.6097 21.6201,55.6467 21.6031,55.6867 C21.4331,56.0857 19.8391,59.6937 16.5711,63.5007 C14.7141,65.6647 12.6681,67.4747 10.4951,68.8787 C7.8421,70.5937 4.9711,71.7147 1.9631,72.2097 C0.7821,72.4037 -0.0639,73.4567 0.0041,74.6517 C0.0241,74.9967 0.1051,75.3407 0.2451,75.6727 L0.2481,75.6797 C0.7261,76.7967 1.8331,77.7447 3.6341,78.5827 C5.8331,79.6037 9.1241,80.4637 13.4121,81.1367 C13.6291,81.5487 13.8531,82.5837 14.0091,83.2927 C14.1721,84.0467 14.3421,84.8207 14.5851,85.6447 C14.8461,86.5357 15.5241,87.6027 17.2661,87.6027 C17.9271,87.6027 18.6861,87.4527 19.5661,87.2827 C20.8531,87.0297 22.6141,86.6857 24.8121,86.6857 C26.0311,86.6857 27.2941,86.7927 28.5651,87.0037 C31.0151,87.4117 33.1271,88.9037 35.5721,90.6317 C39.1491,93.1607 43.1981,96.0227 49.3851,96.0227 C49.5541,96.0227 49.7231,96.0177 49.8901,96.0067 C50.0951,96.0157 50.3481,96.0227 50.6161,96.0227 C56.8051,96.0227 60.8521,93.1597 64.4261,90.6337 L64.4321,90.6277 C66.8761,88.9017 68.9861,87.4117 71.4351,87.0037 C72.7061,86.7927 73.9691,86.6857 75.1881,86.6857 C77.2881,86.6857 78.9501,86.9527 80.4341,87.2427 C81.4031,87.4337 82.1561,87.5247 82.7341,87.5247 L82.7901,87.5257 L82.8491,87.5257 C84.1231,87.5257 85.0591,86.8267 85.4171,85.6027 C85.6541,84.7967 85.8241,84.0397 85.9911,83.2737 C86.1371,82.6087 86.3691,81.5447 86.5861,81.1277 C90.8771,80.4537 94.1661,79.5967 96.3661,78.5747 C98.1621,77.7407 99.2681,76.7937 99.7491,75.6807 C99.8931,75.3477 99.9771,75.0017 99.9961,74.6487 C100.0631,73.4547 99.2191,72.4007 98.0371,72.2077" id="Fill-1" fill="#000000"></path>
    </g>
</svg>