<?xml version="1.0" encoding="UTF-8"?>
<svg width="100px" height="100px" viewBox="0 0 100 100" version="1.1" xmlns="http://www.w3.org/2000/svg" xmlns:xlink="http://www.w3.org/1999/xlink">
    <!-- Generator: Sketch 57.1 (83088) - https://sketch.com -->
    <title>brand/sourcetree-brand</title>
    <desc>Created with Sketch.</desc>
    <g id="brand/sourcetree" stroke="none" stroke-width="1" fill="none" fill-rule="evenodd">
        <path d="M22.1714,49.4039 C24.6614,50.0309 26.0604,50.8289 26.0604,52.9509 C26.0364,54.9949 24.8164,56.3739 21.8964,56.3739 C19.6204,56.3739 18.5634,55.9249 17.6494,55.4589 L17.6494,53.8119 C18.7384,54.3829 20.4284,54.7979 21.9964,54.7979 C23.7694,54.7979 24.4394,54.0989 24.4394,53.0579 C24.4394,52.0179 23.7944,51.4649 21.5544,50.9259 C18.9074,50.2809 17.7204,49.3669 17.7204,47.4319 C17.7204,45.5999 19.1174,44.2439 21.8594,44.2439 C23.5624,44.2439 24.6554,44.6509 25.4624,45.1029 L25.4624,46.7159 C24.3404,46.0979 23.0764,45.7899 21.7964,45.8199 C20.2554,45.8199 19.3414,46.3579 19.3414,47.4319 C19.3414,48.3999 20.0944,48.8839 22.1714,49.4039 Z M31.6616,54.94 C33.5776,54.94 34.3866,53.398 34.3866,51.696 C34.3866,49.994 33.5616,48.498 31.6616,48.498 C29.7616,48.498 28.9026,49.996 28.9026,51.696 C28.9026,53.398 29.7456,54.94 31.6616,54.94 Z M31.6616,47.056 C34.3496,47.056 35.8906,49.008 35.8906,51.696 C35.8906,54.383 34.3306,56.379 31.6616,56.379 C28.9926,56.379 27.3976,54.383 27.3976,51.696 C27.3976,49.008 28.9736,47.056 31.6616,47.056 Z M43.5772,52.2174 L43.5772,47.2354 L45.1182,47.2354 L45.1182,56.1944 L43.5792,56.1944 L43.5792,54.7264 C43.0192,55.7634 41.9272,56.4004 40.7492,56.3754 C38.6882,56.3754 37.5052,54.9494 37.5052,52.4864 L37.5032,47.2354 L39.0452,47.2354 L39.0452,52.6474 C39.0452,54.2594 39.6902,54.9764 41.1582,54.9764 C42.5832,54.9764 43.5772,54.0284 43.5772,52.2174 Z M48.9527,48.8111 C49.4717,47.7541 50.3777,47.0001 52.1247,47.1091 L52.1247,48.6141 C50.1537,48.4101 48.9527,49.0081 48.9527,50.9061 L48.9527,56.2001 L47.4477,56.2001 L47.4477,47.2351 L48.9527,47.2351 L48.9527,48.8111 Z M57.5527,54.9107 C58.2457,54.9297 58.9357,54.8207 59.5887,54.5897 L59.5957,55.9617 C59.0577,56.2487 58.2337,56.3687 57.4077,56.3687 C54.2197,56.3687 52.7257,54.4347 52.7257,51.6857 C52.7257,48.9797 54.2117,47.0457 57.4077,47.0457 C58.1437,47.0217 58.8737,47.1717 59.5417,47.4787 L59.5417,48.9047 C58.9067,48.6137 58.2137,48.4747 57.5167,48.4977 C55.1877,48.4977 54.2387,49.9677 54.2387,51.7047 C54.2387,53.4407 55.2047,54.9107 57.5527,54.9107 Z M62.3565,51.0797 L67.3545,51.0797 C67.2655,49.4137 66.5115,48.4627 64.9725,48.4627 C63.3395,48.4547 62.5145,49.5157 62.3545,51.0687 L62.3565,51.0797 Z M65.0445,47.0497 C67.8025,47.0497 68.9125,48.9677 68.9125,51.6897 L68.9125,52.3887 L62.3725,52.3887 C62.5875,53.9117 63.5745,54.8967 65.6875,54.8967 C66.6195,54.8997 67.5435,54.7387 68.4195,54.4207 L68.4195,55.8467 C67.6765,56.2347 66.5465,56.3737 65.6345,56.3737 C62.2835,56.3737 60.8145,54.4387 60.8145,51.6897 C60.8145,48.9837 62.3195,47.0497 65.0445,47.0497 Z M72.8711,53.3639 C72.8731,54.1519 73.3391,54.6889 74.2881,54.6889 C74.6131,54.6789 74.9371,54.6369 75.2551,54.5629 L75.2551,56.0499 C74.9171,56.1459 74.5671,56.1939 74.2171,56.1920166 C72.2991,56.1920166 71.3661,55.0639 71.3661,53.3959 L71.3661,48.6689 L69.9141,48.6689 L69.9141,47.2429 L71.3661,47.2429 L71.3661,45.3379 L72.8711,45.3379 L72.8711,47.2349 L75.2531,47.2349 L75.2531,48.6609 L72.8711,48.6609 L72.8711,53.3639 Z M78.7305,48.8111 C79.2505,47.7541 80.1565,47.0001 81.9035,47.1091 L81.9035,48.6141 C79.9315,48.4101 78.7305,49.0081 78.7305,50.9061 L78.7305,56.2001 L77.2255,56.2001 L77.2255,47.2351 L78.7305,47.2351 L78.7305,48.8111 Z M84.0527,51.0797 L89.0517,51.0797 C88.9617,49.4137 88.2087,48.4627 86.6697,48.4627 C85.0387,48.4547 84.2137,49.5157 84.0527,51.0687 L84.0527,51.0797 Z M86.7407,47.0497 C89.4997,47.0497 90.6097,48.9677 90.6097,51.6897 L90.6097,52.3887 L84.0717,52.3887 C84.2867,53.9117 85.2727,54.8967 87.3867,54.8967 C88.3157,54.8957 89.2387,54.7317 90.1107,54.4127 L90.1107,55.8377 C89.3757,56.2347 88.2447,56.3737 87.3307,56.3737 C83.9797,56.3737 82.5117,54.4387 82.5117,51.6897 C82.5117,48.9837 84.0167,47.0497 86.7407,47.0497 Z M93.4434,51.0797 L98.4424,51.0797 C98.3524,49.4137 97.5994,48.4627 96.0604,48.4627 C94.4264,48.4547 93.6024,49.5157 93.4414,51.0687 L93.4434,51.0797 Z M100.0004,51.6897 L100.0004,52.3887 L93.4644,52.3887 C93.6794,53.9117 94.6654,54.8967 96.7794,54.8967 C97.7084,54.8957 98.6304,54.7317 99.5034,54.4127 L99.5034,55.8377 C98.7574,56.2347 97.6334,56.3737 96.7214,56.3737 C93.3704,56.3737 91.9024,54.4387 91.9024,51.6897 C91.9024,48.9837 93.4074,47.0497 96.1314,47.0497 C98.8904,47.0497 100.0004,48.9677 100.0004,51.6897 Z M5.7969,50.7476 C6.8779,50.7476 7.7539,49.8716 7.7549,48.7906 C7.7539,47.7096 6.8779,46.8336 5.7969,46.8336 L5.7969,46.8316 C4.7159,46.8316 3.8389,47.7086 3.8389,48.7896 C3.8389,49.8706 4.7159,50.7476 5.7969,50.7476 Z M11.2359,46.8196 C11.2599,46.8846 11.2929,46.9426 11.3149,47.0086 C12.2989,50.0516 10.6299,53.3156 7.5869,54.3006 L7.5869,54.2916 C7.5809,54.2936 7.5759,54.2966 7.5699,54.2986 L7.5699,57.1976 C7.5699,57.4226 7.3879,57.6046 7.1629,57.6046 L4.4139,57.6046 C4.1899,57.6046 4.0069,57.4226 4.0069,57.1976 L4.0069,54.2966 C1.6149,53.5226 -0.0031,51.2946 -0.000108317991,48.7806 C0.0049,45.5836 2.5999,42.9956 5.7969,42.9995907 C6.0759,42.9995907 6.3479,43.0256 6.6159,43.0646 C6.6819,43.0736 6.7469,43.0826 6.8129,43.0946 C7.0689,43.1406 7.3219,43.1986 7.5669,43.2776 C7.6179,43.2946 7.6679,43.3146 7.7189,43.3336 C7.9229,43.4056 8.1219,43.4886 8.3159,43.5826 C8.3799,43.6126 8.4429,43.6416 8.5059,43.6746 C8.7159,43.7856 8.9169,43.9096 9.1099,44.0456 C9.1869,44.0996 9.2599,44.1556 9.3339,44.2136 C9.4789,44.3246 9.6169,44.4426 9.7499,44.5676 C9.8419,44.6526 9.9309,44.7416 10.0169,44.8336 C10.1359,44.9606 10.2499,45.0926 10.3579,45.2296 C10.4249,45.3156 10.4909,45.4026 10.5539,45.4926 C10.6799,45.6746 10.7969,45.8616 10.9019,46.0576 C10.9499,46.1466 10.9909,46.2406 11.0349,46.3336 C11.1089,46.4916 11.1759,46.6536 11.2359,46.8196 Z" id="Shape" fill="#000000"></path>
    </g>
</svg>