<svg width="100" height="100" viewBox="0 0 100 100" fill="none" xmlns="http://www.w3.org/2000/svg">
<path fill-rule="evenodd" clip-rule="evenodd" d="M49.6905 53.046C42.2875 53.046 36.2865 47.045 36.2865 39.642C36.2865 32.239 42.2875 26.237 49.6905 26.237V26.251C57.0915 26.251 63.0905 32.249 63.0945 39.649C63.0905 47.049 57.0915 53.046 49.6905 53.046ZM87.4695 27.448C83.2175 14.303 72.5465 4.57104 59.6015 1.24904C59.6005 1.24904 59.5995 1.24804 59.5985 1.24804C58.3325 0.924038 57.0455 0.658038 55.7405 0.459038C55.7255 0.457038 55.7095 0.455038 55.6935 0.452038C55.1005 0.362038 54.5025 0.288038 53.9005 0.225038C53.7875 0.213038 53.6735 0.202038 53.5595 0.191038C53.0335 0.141038 52.5065 0.101038 51.9775 0.070038C51.8535 0.064038 51.7315 0.055038 51.6075 0.049038C50.9715 0.019038 50.3325 -0.000961964 49.6905 3.80364e-05C27.8005 -0.029962 10.0305 17.69 10.0005 39.579C9.97553 56.789 21.0615 72.049 37.4365 77.346V97.212C37.4365 98.752 38.6845 100 40.2245 100H59.0455C60.5845 100 61.8335 98.752 61.8335 97.212V77.359C61.8705 77.348 61.9065 77.333 61.9445 77.321V77.374C82.7795 70.636 94.2075 48.283 87.4695 27.448Z" fill="black"/>
</svg>
