<?xml version="1.0" encoding="UTF-8"?>
<svg width="100px" height="100px" viewBox="0 0 100 100" version="1.1" xmlns="http://www.w3.org/2000/svg" xmlns:xlink="http://www.w3.org/1999/xlink">
    <!-- Generator: Sketch 57.1 (83088) - https://sketch.com -->
    <title>solid/star-solid</title>
    <desc>Created with Sketch.</desc>
    <g id="solid/star" stroke="none" stroke-width="1" fill="none" fill-rule="evenodd">
        <path d="M24.2475247,97.5247525 C21.698954,97.5143464 19.2839436,96.3835518 17.6439493,94.4327213 C16.003955,92.4818909 15.3049773,89.908488 15.7326732,87.3960396 L19.8019802,63.7326733 L2.62376233,47.029703 C0.262913981,44.7362986 -0.590528382,41.3011134 0.422519129,38.1694935 C1.43556664,35.0378736 4.13926506,32.7533876 7.39603956,32.2772277 L31.1584158,28.8217822 L41.7524752,7.29702966 C43.207955,4.34502859 46.213639,2.47581174 49.5049505,2.47581174 C52.796262,2.47581174 55.801946,4.34502859 57.2574257,7.29702966 L57.2574257,7.29702966 L67.8712871,28.7920792 L91.6336634,32.2376237 C94.9013881,32.7126445 97.6139366,35.0059326 98.6258986,38.1491161 C99.6378607,41.2922995 98.7728153,44.73741 96.3960397,47.029703 L79.2079208,63.7326733 L83.2574258,87.3564357 C83.8122948,90.6019677 82.4772156,93.8811781 79.813173,95.8161806 C77.1491304,97.7511832 73.6177862,98.0066541 70.7029703,96.4752476 L49.5049505,85.3267327 L28.2871287,96.5346535 C27.0394335,97.183744 25.6539598,97.5233209 24.2475247,97.5247525 L24.2475247,97.5247525 Z M49.5049505,67.8217822 C50.9050183,67.8236728 52.2839644,68.1633147 53.5247525,68.8118812 L64.3564357,74.4752475 L62.2673267,62.4554456 C61.7791409,59.6424821 62.7131382,56.7700696 64.7623763,54.7821782 L73.4851485,46.2871287 L61.3861386,44.5346535 C58.5673804,44.1197988 56.1321345,42.3470286 54.8712871,39.7920792 L49.5049505,28.8613861 L44.1089109,39.8019802 C42.8529333,42.344859 40.4293856,44.1097938 37.6237624,44.5247525 L25.5247525,46.2871287 L34.2574257,54.8019802 C36.2980752,56.7825783 37.2282645,59.6435588 36.7425742,62.4455446 L34.6534653,74.4752475 L45.4752475,68.8118812 C46.718864,68.1613965 48.1014861,67.821686 49.5049505,67.8217822 Z" id="star" fill="#000000"></path>
    </g>
</svg>