<?xml version="1.0" encoding="UTF-8"?>
<svg width="100px" height="100px" viewBox="0 0 100 100" version="1.1" xmlns="http://www.w3.org/2000/svg" xmlns:xlink="http://www.w3.org/1999/xlink">
    <!-- Generator: Sketch 57.1 (83088) - https://sketch.com -->
    <title>bold/star-bold</title>
    <desc>Created with Sketch.</desc>
    <g id="bold/star" stroke="none" stroke-width="1" fill="none" fill-rule="evenodd">
        <path d="M22.18,97.59 C20.7103592,97.5844363 19.3175898,96.9325882 18.371825,95.8076866 C17.4260601,94.682785 17.023088,93.1987614 17.27,91.75 L22.14,63.37 L1.50999995,43.26 C0.158367815,41.930436 -0.324984729,39.9507631 0.261843205,38.147909 C0.848671138,36.345055 2.40471471,35.0292042 4.27999995,34.75 L32.78,30.61 L45.53,4.77999995 C46.3778061,3.08842543 48.1078585,2.02033475 50,2.02033475 C51.8921415,2.02033475 53.6221939,3.08842543 54.47,4.77999995 L67.22,30.61 L95.73,34.75 C97.6035596,35.0323091 99.1565941,36.3493727 99.7411209,38.1516635 C100.325648,39.9539543 99.8412359,41.9318112 98.49,43.26 L77.86,63.37 L82.73,91.76 C83.0310263,93.6236542 82.2567379,95.4979676 80.728172,96.6058079 C79.1996061,97.7136482 77.1773978,97.866118 75.5,97 L50,83.61 L24.5,97 C23.7870346,97.3846708 22.9901136,97.5873361 22.18,97.59 Z M50,74 C50.8080304,73.9997458 51.6040851,74.1953282 52.32,74.57 L72.37,85.1 L68.54,62.78 C68.2658856,61.1528869 68.812178,59.4953011 70,58.35 L86.21,42.55 L63.78,39.3 C62.1468425,39.0691711 60.7325909,38.0477673 60,36.57 L50,16.26 L40,36.57 C39.2693523,38.0451153 37.8594458,39.0660821 36.23,39.3 L13.83,42.55 L30,58.36 C31.1705431,59.5068422 31.7048119,61.1544826 31.43,62.77 L27.63,85.1 L47.68,74.56 C48.3967923,74.1887981 49.1928006,73.9966582 50,74 Z" id="star" fill="#000000"></path>
    </g>
</svg>