<svg width="100" height="100" viewBox="0 0 100 100" fill="none" xmlns="http://www.w3.org/2000/svg">
<g clip-path="url(#clip0)">
<path d="M99.5598 37.998C98.5408 34.8333 95.801 32.5305 92.5081 32.0712L68.5509 28.5818L57.8326 6.87444C56.361 3.88984 53.3221 2 49.9945 2C46.6668 2 43.6279 3.88984 42.1563 6.87444L31.4485 28.5818L7.49124 32.0608C4.19783 32.536 1.4601 34.8403 0.429756 38.0043C-0.600584 41.1683 0.255281 44.6429 2.6373 46.9663L19.9802 63.8718L15.8867 87.7352C15.3227 91.0138 16.6691 94.3281 19.3596 96.2846C22.0501 98.2412 25.618 98.5005 28.5632 96.9535L49.9893 85.6833L71.4362 96.9535C72.6858 97.6249 74.0799 97.9824 75.4985 97.9952C78.0729 97.9857 80.5129 96.8442 82.17 94.8741C83.8272 92.9039 84.5339 90.3045 84.1022 87.7665L80.0087 63.8718L97.362 46.9559C99.7525 44.6388 100.606 41.1583 99.5598 37.998Z" fill="black"/>
</g>
<defs>
<clipPath id="clip0">
<rect width="100" height="100" fill="white"/>
</clipPath>
</defs>
</svg>
