<?xml version="1.0" encoding="UTF-8"?>
<svg width="100px" height="100px" viewBox="0 0 100 100" version="1.1" xmlns="http://www.w3.org/2000/svg" xmlns:xlink="http://www.w3.org/1999/xlink">
    <!-- Generator: Sketch 57.1 (83088) - https://sketch.com -->
    <title>regular/sticky-note-regular</title>
    <desc>Created with Sketch.</desc>
    <g id="regular/sticky-note" stroke="none" stroke-width="1" fill="none" fill-rule="evenodd">
        <path d="M94.7920793,-4.9999997e-08 L5.20792075,-4.9999997e-08 C2.60733307,0.00544622483 0.50049573,2.11228356 0.495049455,4.71287124 L0.495049455,94.2970297 C0.50049573,96.8976174 2.60733307,99.0044548 5.20792075,99.009901 L70.7920792,99.009901 C70.9435442,99.0244836 71.0960598,99.0244836 71.2475248,99.009901 L71.4554456,98.9504951 L71.6930693,98.8811882 L71.9207921,98.7623763 L72.0990099,98.6633664 C72.2265204,98.5752873 72.3458167,98.4758737 72.4554456,98.3663367 L98.8118812,71.9306931 C98.9214182,71.8210642 99.0208318,71.7017679 99.1089109,71.5742574 C99.1089109,71.5148515 99.1683169,71.4554456 99.1980199,71.4059406 C99.2277228,71.3564357 99.2871288,71.2475248 99.3267327,71.1683169 C99.3543823,71.0905066 99.377523,71.0111671 99.3960397,70.9306931 C99.4216836,70.8631901 99.4415568,70.7936339 99.4554456,70.7227723 C99.4700281,70.5713073 99.4700281,70.4187918 99.4554456,70.2673268 L99.4554456,4.71287124 C99.4502379,2.13143792 97.3733137,0.0324656226 94.7920793,-4.9999997e-08 Z M73.1188119,90.9603961 L73.1188119,72.6237624 L91.4554456,72.6237624 L73.1188119,90.9603961 Z M94.7920793,67.9108911 L71.9405941,67.9108911 C69.9884589,67.9108911 68.4059406,69.4934094 68.4059406,71.4455446 L68.4059406,94.2970297 L5.20792075,94.2970297 L5.20792075,4.71287124 L94.7920793,4.71287124 L94.7920793,67.9108911 Z" id="sticky-note" fill="#000000"></path>
    </g>
</svg>