<?xml version="1.0" encoding="UTF-8"?>
<svg width="100px" height="100px" viewBox="0 0 100 100" version="1.1" xmlns="http://www.w3.org/2000/svg" xmlns:xlink="http://www.w3.org/1999/xlink">
    <!-- Generator: Sketch 57.1 (83088) - https://sketch.com -->
    <title>regular/stopwatch-regular</title>
    <desc>Created with Sketch.</desc>
    <g id="regular/stopwatch" stroke="none" stroke-width="1" fill="none" fill-rule="evenodd">
        <path d="M62.6930693,-4.9999997e-08 C63.9944928,-4.9999997e-08 65.049505,1.05501212 65.049505,2.3564356 C65.049505,3.65785907 63.9944928,4.71287124 62.6930693,4.71287124 L52.3564356,4.71287124 L52.3564356,11.940594 C62.2397505,12.4657256 71.6455588,16.3580251 79.009901,22.970297 L85.2178218,16.7623762 C86.1392078,15.8409903 87.6330695,15.8409903 88.5544555,16.7623762 C89.4758414,17.6837621 89.4758414,19.1776239 88.5544555,20.0990099 L82.3564357,26.2970297 C96.0028849,41.4377232 97.3456197,64.0101471 85.5903627,80.661877 C73.8351057,97.3136069 52.1157417,103.605386 33.2800786,95.8153943 C14.4444155,88.0254024 3.51393427,68.2304071 6.9544192,48.139881 C10.3949041,28.0493548 27.2891415,13.0193181 47.6435644,11.940594 L47.6435644,4.71287124 L37.3168317,4.71287124 C36.0154082,4.71287124 34.960396,3.65785907 34.960396,2.3564356 C34.960396,1.05501212 36.0154082,-4.9999997e-08 37.3168317,-4.9999997e-08 L62.6930693,-4.9999997e-08 Z M64.8678197,19.5514526 C50.3500147,13.5379809 33.6392983,16.861949 22.5278514,27.9733959 C11.4164045,39.0848428 8.09243629,55.7955592 14.105908,70.3133643 C20.1193798,84.8311693 34.2860411,94.2970297 50,94.2970297 C71.4457752,94.2697554 88.8242109,76.8913198 88.8514852,55.4455446 C88.8514852,39.7315856 79.3856247,25.5649243 64.8678197,19.5514526 Z M72.1782178,40.1386139 C73.3101282,39.4961044 74.7485796,39.8928421 75.3910891,41.0247525 C76.0335986,42.1566628 75.6368608,43.5951143 74.5049505,44.2376238 L50.1980198,58.039604 L31.5148515,51.019802 C30.2954505,50.5632101 29.6770715,49.2045495 30.1336633,47.9851485 C30.5902552,46.7657475 31.9489158,46.1473685 33.1683168,46.6039604 L49.8019802,52.8514852 L72.1782178,40.1386139 Z" id="Shape" fill="#000000"></path>
    </g>
</svg>