<?xml version="1.0" encoding="UTF-8"?>
<svg width="100px" height="100px" viewBox="0 0 100 100" version="1.1" xmlns="http://www.w3.org/2000/svg" xmlns:xlink="http://www.w3.org/1999/xlink">
    <!-- Generator: Sketch 57.1 (83088) - https://sketch.com -->
    <title>solid/store-solid</title>
    <desc>Created with Sketch.</desc>
    <g id="solid/store" stroke="none" stroke-width="1" fill="none" fill-rule="evenodd">
        <path d="M99.009901,77.8811881 L99.009901,94.7920793 C99.004606,97.3204284 97.0130425,99.3820768 94.512568,99.4996668 L94.2970297,99.5049505 L4.71287124,99.5049505 C2.18452211,99.4996556 0.122873724,97.508092 0.00528368008,95.0076175 L-5.00001747e-08,94.7920793 L-5.00001747e-08,77.8811881 L99.009901,77.8811881 Z M2.26732668,37.5742574 C3.80410773,39.2106193 5.94404716,40.1461408 8.18883951,40.1629767 C10.4336319,40.1798127 12.5873626,39.2764937 14.1485148,37.6633663 C15.6929429,39.2592611 17.8187621,40.1602812 20.0396039,40.1602812 C22.2604457,40.1602812 24.3862649,39.2592611 25.930693,37.6633663 C27.4782218,39.2572824 29.6051536,40.1567395 31.8267327,40.1567395 C34.0483117,40.1567395 36.1752435,39.2572824 37.7227723,37.6633663 C39.2672004,39.2592611 41.3930196,40.1602812 43.6138614,40.1602812 C45.8347032,40.1602812 47.9605224,39.2592611 49.5049505,37.6633663 C51.0493786,39.2592611 53.1751978,40.1602812 55.3960396,40.1602812 C57.6168814,40.1602812 59.7427006,39.2592611 61.2871287,37.6633663 C62.8346574,39.2572824 64.9615893,40.1567395 67.1831683,40.1567395 C69.4047474,40.1567395 71.5316792,39.2572824 73.0792079,37.6633663 C74.6236361,39.2592611 76.7494553,40.1602812 78.9702971,40.1602812 C81.1911389,40.1602812 83.3169581,39.2592611 84.8613862,37.6633663 C86.4089149,39.2572824 88.5358467,40.1567395 90.7574258,40.1567395 C92.9790049,40.1567395 95.1059367,39.2572824 96.6534654,37.6633663 C97.2494628,38.2709515 97.9345765,38.7830525 98.6845725,39.1823594 L99.009901,39.3465346 L99.009901,73.1683169 L-5.00001747e-08,73.1683169 L-5.00001747e-08,39.2574257 C0.846399287,38.8300457 1.61327893,38.2607464 2.26732668,37.5742574 Z M79.990099,0.495049455 C82.7291424,0.501091772 85.2210778,2.08021621 86.3960396,4.5544554 L98.8019802,30.9108911 L98.7243908,30.7542422 C98.227621,29.837873 97.1791861,29.3502277 96.1475323,29.5769648 C95.0585644,29.8162984 94.2863746,30.7860829 94.2970297,31.9009901 C94.2970297,33.8531253 92.7145115,35.4356435 90.7623763,35.4356435 C88.8102411,35.4356435 87.2277228,33.8531253 87.2277228,31.9009901 C87.1470711,30.6561018 86.1138348,29.687639 84.8663367,29.687639 C83.6188386,29.687639 82.5856023,30.6561018 82.5049505,31.9009901 C82.5049505,33.8531253 80.9224323,35.4356435 78.9702971,35.4356435 C77.0181619,35.4356435 75.4356436,33.8531253 75.4356436,31.9009901 C75.4356436,30.5995666 74.3806314,29.5445544 73.0792079,29.5445544 C71.7777845,29.5445544 70.7227723,30.5995666 70.7227723,31.9009901 C70.7227723,33.8531253 69.140254,35.4356435 67.1881188,35.4356435 C65.2359836,35.4356435 63.6534654,33.8531253 63.6534654,31.9009901 C63.5728136,30.6561018 62.5395773,29.687639 61.2920792,29.687639 C60.0445811,29.687639 59.0113448,30.6561018 58.9306931,31.9009901 C58.9306931,33.8531253 57.3481748,35.4356435 55.3960396,35.4356435 C53.4439044,35.4356435 51.8613861,33.8531253 51.8613861,31.9009901 C51.8613861,30.5995666 50.806374,29.5445544 49.5049505,29.5445544 C48.203527,29.5445544 47.1485148,30.5995666 47.1485148,31.9009901 C47.1485148,33.8531253 45.5659966,35.4356435 43.6138614,35.4356435 C41.6617262,35.4356435 40.0792079,33.8531253 40.0792079,31.9009901 C39.9985562,30.6561018 38.9653199,29.687639 37.7178218,29.687639 C36.4703237,29.687639 35.4370874,30.6561018 35.3564356,31.9009901 C35.3564356,33.8531253 33.7739174,35.4356435 31.8217822,35.4356435 C29.869647,35.4356435 28.2871287,33.8531253 28.2871287,31.9009901 C28.2871286,30.5995666 27.2321165,29.5445545 25.930693,29.5445545 C24.6292696,29.5445545 23.5742575,30.5995666 23.5742574,31.9009901 C23.5742574,33.8531253 21.9917391,35.4356435 20.0396039,35.4356435 C18.0874687,35.4356435 16.5049505,33.8531253 16.5049505,31.9009901 C16.4242987,30.6561018 15.3910624,29.687639 14.1435643,29.687639 C12.8960662,29.687639 11.8628299,30.6561018 11.7821782,31.9009901 C11.7821782,33.8531253 10.1996599,35.4356435 8.24752471,35.4356435 C6.29538952,35.4356435 4.71287127,33.8531253 4.71287124,31.9009901 C4.71287124,30.5995666 3.65785907,29.5445544 2.3564356,29.5445544 L2.18811876,29.5445544 C1.57580359,29.5386033 0.985620805,29.7732543 0.544554406,30.1980198 L12.6138613,4.5544554 C13.7888232,2.08021621 16.2807586,0.501091772 19.0198019,0.495049455 L79.990099,0.495049455 Z" id="Shape" fill="#000000"></path>
    </g>
</svg>