<?xml version="1.0" encoding="UTF-8"?>
<svg width="100px" height="100px" viewBox="0 0 100 100" version="1.1" xmlns="http://www.w3.org/2000/svg" xmlns:xlink="http://www.w3.org/1999/xlink">
    <!-- Generator: Sketch 57.1 (83088) - https://sketch.com -->
    <title>regular/superior-or-equal-regular</title>
    <desc>Created with Sketch.</desc>
    <g id="regular/superior-or-equal" stroke="none" stroke-width="1" fill="none" fill-rule="evenodd">
        <path d="M73.21,51.63 C74.1462878,50.7369322 75.6245359,50.7554906 76.5381085,51.6717821 C77.451681,52.5880736 77.4658463,54.0663703 76.57,55 L32.31,99.3 C31.8674017,99.7504738 31.2615151,100.002927 30.63,100.00005 C29.667369,100.001691 28.7985088,99.423333 28.4285764,98.5346197 C28.058644,97.6459064 28.2604932,96.6218592 28.94,95.94 L73.21,51.63 Z M26.06,0.699999951 L70.32,45 C70.8324009,45.5054832 71.1208534,46.1952306 71.1208534,46.915 C71.1208534,47.6347694 70.8324009,48.3245168 70.32,48.83 L26.06,93.06 C25.1289769,93.9801177 23.6310231,93.9801177 22.7,93.06 C22.252386,92.613495 22.0008257,92.0072382 22.0008257,91.375 C22.0008257,90.7427619 22.252386,90.1365051 22.7,89.69 L65.51,46.88 L22.7,4.05999995 C21.8629573,3.11813408 21.9050837,1.68707789 22.7960808,0.796080761 C23.6870779,-0.0949163697 25.1181341,-0.137042731 26.06,0.699999951 Z" id="Shape" fill="#000000"></path>
    </g>
</svg>