<?xml version="1.0" encoding="UTF-8"?>
<svg width="100px" height="100px" viewBox="0 0 100 100" version="1.1" xmlns="http://www.w3.org/2000/svg" xmlns:xlink="http://www.w3.org/1999/xlink">
    <!-- Generator: Sketch 57.1 (83088) - https://sketch.com -->
    <title>regular/superior-regular</title>
    <desc>Created with Sketch.</desc>
    <g id="regular/superior" stroke="none" stroke-width="1" fill="none" fill-rule="evenodd">
        <path d="M25.88,100.000025 C25.2484849,100.002927 24.6425983,99.7504738 24.2,99.3 C23.7529903,98.8552052 23.5016758,98.250603 23.5016758,97.62 C23.5016758,96.9893971 23.7529903,96.3847949 24.2,95.94 L70.13,50 L24.2,4.05999995 C23.3629573,3.11813408 23.4050837,1.68707789 24.2960808,0.796080761 C25.1870779,-0.0949163697 26.6181341,-0.137042731 27.56,0.699999951 L74.93,48.07 C75.4467718,48.5786224 75.7353984,49.274934 75.7300744,50 C75.7335613,50.7276419 75.4454248,51.426373 74.93,51.94 L27.56,99.3 C27.1174017,99.7504738 26.5115151,100.002927 25.88,100.000025 Z" id="superior" fill="#000000"></path>
    </g>
</svg>