<?xml version="1.0" encoding="UTF-8"?>
<svg width="100px" height="100px" viewBox="0 0 100 100" version="1.1" xmlns="http://www.w3.org/2000/svg" xmlns:xlink="http://www.w3.org/1999/xlink">
    <!-- Generator: Sketch 57.1 (83088) - https://sketch.com -->
    <title>regular/sync-regular</title>
    <desc>Created with Sketch.</desc>
    <g id="regular/sync" stroke="none" stroke-width="1" fill="none" fill-rule="evenodd">
        <path d="M10.12,45.71 C10.3824757,45.7351639 10.6391373,45.8027065 10.88,45.91 L11,45.91 L11.1992312,46.0046932 C11.4597874,46.1404944 11.6993433,46.3140282 11.91,46.52 L18.75,53.36 C19.4295068,54.0418591 19.631356,55.0659064 19.2614236,55.9546197 C18.8914912,56.843333 18.022631,57.4216909 17.06,57.42 C16.4284849,57.4229265 15.8225983,57.1704738 15.38,56.72 L12.16,53.5 C13.1355249,72.018044 27.3671455,87.1108814 45.7960229,89.1714838 C64.2249003,91.2320862 81.4385562,79.655264 86.48,61.81 C86.6501484,61.2007396 87.0558424,60.6842794 87.607478,60.374688 C88.1591136,60.0650966 88.8113032,59.9878466 89.42,60.16 C90.6852526,60.5190679 91.4226286,61.8329377 91.07,63.1 C85.3882518,83.2637786 65.9064754,96.3182854 45.0968266,93.9060771 C24.2871779,91.4938688 8.30838171,74.328851 7.38999996,53.4 L4.05999995,56.72 C3.11813408,57.5570427 1.68707789,57.5149163 0.796080761,56.6239192 C-0.0949163697,55.7329221 -0.137042731,54.3018659 0.699999951,53.36 L7.53999996,46.57 C8.07546404,46.0430169 8.78916679,45.7361247 9.53999996,45.71 L10.12,45.71 Z M8.92999996,37.07 C14.6127816,16.9050836 34.0970609,3.85102643 54.9077913,6.26584708 C75.7185217,8.68066773 91.6958086,25.8495888 92.61,46.78 L95.94,43.45 C96.3847949,43.0029903 96.9893971,42.7516758 97.62,42.7516758 C98.250603,42.7516758 98.8552052,43.0029903 99.3,43.45 C100.18001,44.3701278 100.18001,45.8198722 99.3,46.74 L92.46,53.58 C91.8821497,54.1582918 91.097513,54.4822244 90.28,54.4800226 L89.58,54.4800226 L89.32,54.4 C88.8597372,54.2550417 88.4412338,54.0011954 88.1,53.66 L81.25,46.82 C80.3194003,45.8894002 80.3194003,44.3805998 81.2500001,43.4500001 C82.1805999,42.5194003 83.6894002,42.5194003 84.62,43.45 L87.85,46.68 C86.8925796,28.1481579 72.6578116,13.0348627 54.2164211,10.9706575 C35.7750306,8.90645239 18.5510499,20.4984669 13.52,38.36 C13.2895637,39.1799245 12.6392072,39.8146297 11.8139136,40.0250283 C10.9886199,40.2354269 10.1137709,39.9895543 9.51891356,39.3800283 C8.92405623,38.7705023 8.69956364,37.8899245 8.92999996,37.07 Z" id="Shape" fill="#000000"></path>
    </g>
</svg>