<?xml version="1.0" encoding="UTF-8"?>
<svg width="100px" height="100px" viewBox="0 0 100 100" version="1.1" xmlns="http://www.w3.org/2000/svg" xmlns:xlink="http://www.w3.org/1999/xlink">
    <!-- Generator: Sketch 57.1 (83088) - https://sketch.com -->
    <title>solid/sync-solid</title>
    <desc>Created with Sketch.</desc>
    <g id="solid/sync" stroke="none" stroke-width="1" fill="none" fill-rule="evenodd">
        <path d="M9.31683164,46.6336634 C11.2690642,44.6853404 14.020171,43.7621994 16.7524752,44.1386139 C17.2054111,44.1856492 17.6529237,44.2751517 18.0891089,44.4059406 C19.5087839,44.8245257 20.8018346,45.5901479 21.8514851,46.6336634 L27.7920792,52.5742574 C29.3416998,54.1213532 30.2124801,56.2211813 30.2124801,58.4108911 C30.2124801,60.6006009 29.3416998,62.700429 27.7920792,64.2475248 C27.2384699,64.8001762 26.6082563,65.2703356 25.9207921,65.6435644 C30.2938114,76.0937241 40.794661,82.6379494 52.1026208,81.9603188 C63.4105806,81.2826883 73.0547624,73.5312701 76.1485149,62.6336634 C76.7414274,60.5273378 78.1470783,58.7429671 80.0560293,57.6733603 C81.9649803,56.6037535 84.2207416,56.3365937 86.3267327,56.9306931 C90.713145,58.144189 93.2875162,62.6814628 92.079208,67.0693069 C86.8088482,85.7365843 69.7298528,98.5926696 50.3330985,98.4933767 C30.9363442,98.3940838 13.9898622,85.3638205 8.91089105,66.6435644 C5.62866908,66.532461 2.72600946,64.4824008 1.5237726,61.4262674 C0.321535732,58.370134 1.04943462,54.8918668 3.37623758,52.5742574 L9.31683164,46.6336634 Z M50.7065055,1.49672229 C70.1032598,1.5960152 87.0497417,14.6262785 92.1287129,33.3465346 C94.1835719,33.4317449 96.1311172,34.2871096 97.5841585,35.7425742 C100.788394,38.9733377 100.779544,44.186076 97.5643565,47.4059406 L91.6237624,53.3465347 C89.9657227,55.0147113 87.7084217,55.9490128 85.3564357,55.9407061 C85.0022857,55.9372266 84.6485999,55.9140883 84.2970297,55.8712871 C83.8036478,55.818088 83.316357,55.7186409 82.8415842,55.5742574 C81.4269438,55.1625355 80.1394695,54.3995878 79.0990099,53.3564356 L73.1584159,47.4158416 C71.6087953,45.8687458 70.7380149,43.7689178 70.7380149,41.5792079 C70.7380149,39.3894981 71.6087953,37.28967 73.1584159,35.7425742 C73.7120251,35.1899228 74.3422388,34.7197634 75.029703,34.3465346 C70.6512031,23.8975932 60.145769,17.3583625 48.8372192,18.0427159 C37.5286694,18.7270693 27.8884755,26.4854421 24.8019802,37.3861386 C24.1649903,40.3965216 21.9051535,42.8019751 18.9403561,43.6254669 C15.9755588,44.4489588 12.7988812,43.5535328 10.7006062,41.3028874 C8.60233131,39.0522421 7.93142661,35.8206859 8.960396,32.9207921 C14.2307557,14.2535147 31.3097511,1.39742938 50.7065055,1.49672229 Z" id="Shape" fill="#000000"></path>
    </g>
</svg>