<svg width="100" height="100" viewBox="0 0 100 100" fill="none" xmlns="http://www.w3.org/2000/svg">
<path d="M0.634909 91.8661C1.92581 94.9816 4.96727 97.0118 8.33961 97.0092C10.5503 97.0109 12.671 96.1341 14.2351 94.5718L50.2745 58.522C52.5363 56.2634 53.8073 53.1981 53.8073 50.0017C53.8073 46.8053 52.5363 43.74 50.2745 41.4814L14.2351 5.44198C10.9791 2.18601 5.70012 2.18601 2.44415 5.44198C-0.811825 8.69796 -0.811825 13.9769 2.44415 17.2329L35.2233 50.0017L2.44415 82.7809C0.0582142 85.1642 -0.65599 88.7506 0.634909 91.8661Z" fill="black"/>
<path d="M45.4722 97.0099H91.6672C96.2693 97.0099 100 93.2792 100 88.6771C100 84.0751 96.2693 80.3443 91.6672 80.3443H45.4722C40.8701 80.3443 37.1394 84.0751 37.1394 88.6771C37.1394 93.2792 40.8701 97.0099 45.4722 97.0099Z" fill="black"/>
</svg>
