<svg width="100" height="100" viewBox="0 0 100 100" fill="none" xmlns="http://www.w3.org/2000/svg">
<g clip-path="url(#clip0)">
<path d="M0.243877 94.3661C0.697919 95.4563 1.76003 96.1692 2.94099 96.1764C3.72081 96.174 4.46853 95.8656 5.02334 95.3176L45.7292 54.6117C47.0705 53.2722 47.8242 51.4544 47.8242 49.5588C47.8242 47.6632 47.0705 45.8454 45.7292 44.5059L5.02334 3.79998C3.87329 2.64993 2.00868 2.64993 0.858633 3.79998C-0.291419 4.95003 -0.291419 6.81463 0.858632 7.96468L41.5645 48.6941C41.8053 48.9268 41.9413 49.2474 41.9413 49.5823C41.9413 49.9173 41.8053 50.2378 41.5645 50.4706L0.858632 91.1764C0.0319228 92.0198 -0.210164 93.2759 0.243877 94.3661Z" fill="black"/>
<path d="M44.8826 96.1762H97.059C98.6834 96.1762 100 94.8594 100 93.2351C100 91.6107 98.6834 90.2939 97.059 90.2939H44.8826C43.2582 90.2939 41.9414 91.6107 41.9414 93.2351C41.9414 94.8594 43.2582 96.1762 44.8826 96.1762Z" fill="black"/>
</g>
<defs>
<clipPath id="clip0">
<rect width="100" height="100" fill="white"/>
</clipPath>
</defs>
</svg>
