<?xml version="1.0" encoding="UTF-8"?>
<svg width="100px" height="100px" viewBox="0 0 100 100" version="1.1" xmlns="http://www.w3.org/2000/svg" xmlns:xlink="http://www.w3.org/1999/xlink">
    <!-- Generator: Sketch 57.1 (83088) - https://sketch.com -->
    <title>regular/terminal-regular</title>
    <desc>Created with Sketch.</desc>
    <g id="regular/terminal" stroke="none" stroke-width="1" fill="none" fill-rule="evenodd">
        <path d="M4.05999995,3.69999995 L45.26,44.89 C47.8450215,47.4784612 47.8450215,51.6715388 45.26,54.26 L4.05999995,95.46 C3.61383972,95.9039573 3.00940615,96.1522068 2.37999995,96.150029 C1.41918855,96.147652 0.554025106,95.567813 0.186656048,94.6800044 C-0.18071301,93.7921959 0.0217752455,92.7705699 0.699999951,92.09 L41.89,50.9 C42.241752,50.5508009 42.4395802,50.0756505 42.4395802,49.58 C42.4395802,49.0843495 42.241752,48.6091991 41.89,48.26 L0.699999951,7.05999996 C-0.137042731,6.11813408 -0.0949163696,4.68707789 0.796080761,3.79608076 C1.68707789,2.90508363 3.11813408,2.86295727 4.05999995,3.69999995 Z M97.62,91.39 C98.9344378,91.39 100,92.4555623 100,93.77 C100,95.0844377 98.9344378,96.15 97.62,96.15 L44.82,96.15 C43.5055623,96.15 42.44,95.0844377 42.44,93.77 C42.44,92.4555623 43.5055623,91.39 44.82,91.39 L97.62,91.39 Z" id="Shape" fill="#000000"></path>
    </g>
</svg>