<?xml version="1.0" encoding="UTF-8"?>
<svg width="100px" height="100px" viewBox="0 0 100 100" version="1.1" xmlns="http://www.w3.org/2000/svg" xmlns:xlink="http://www.w3.org/1999/xlink">
    <!-- Generator: Sketch 57.1 (83088) - https://sketch.com -->
    <title>solid/trash-solid</title>
    <desc>Created with Sketch.</desc>
    <g id="solid/trash" stroke="none" stroke-width="1" fill="none" fill-rule="evenodd">
        <path d="M87.6039604,12.5742574 L64.7623763,12.5742574 L64.7623763,7.01980194 C64.7569228,3.14513349 61.6172427,0.00545339715 57.7425743,-4.9999997e-08 L42.5742574,-4.9999997e-08 C38.699589,0.00545339715 35.5599089,3.14513349 35.5544554,7.01980194 L35.5544554,12.5742574 L12.7326732,12.5742574 C10.9632777,12.493934 9.29280548,13.3921571 8.38410339,14.91251 C7.4754013,16.432863 7.4754013,18.3295132 8.38410339,19.8498661 C9.29280548,21.3702191 10.9632777,22.2684422 12.7326732,22.1881188 L15.3366336,22.1881188 L19.2970297,92.4851486 C19.5072102,96.1573834 22.5494829,99.025812 26.2277227,99.0198115 L74.1485149,99.0198115 C77.8267547,99.025812 80.8690274,96.1573834 81.079208,92.4851486 L85.039604,22.1881188 L87.6435644,22.1881188 C90.2135936,22.0714499 92.2372304,19.9538641 92.2372304,17.3811881 C92.2372304,14.8085121 90.2135936,12.6909263 87.6435644,12.5742574 L87.6039604,12.5742574 Z M39.6039604,77.8514852 C39.6039604,79.1529086 38.5489482,80.2079208 37.2475247,80.2079208 C35.9461013,80.2079208 34.8910891,79.1529086 34.8910891,77.8514852 L34.8910891,41.1386139 C34.8910891,39.8371904 35.9461013,38.7821782 37.2475247,38.7821782 C38.5489482,38.7821782 39.6039604,39.8371904 39.6039604,41.1386139 L39.6039604,77.8514852 Z M52.4752475,77.8514852 C52.4752475,79.1529086 51.4202354,80.2079208 50.1188119,80.2079208 C48.8173884,80.2079208 47.7623762,79.1529086 47.7623762,77.8514852 L47.7623762,41.1386139 C47.7623762,39.8371904 48.8173884,38.7821782 50.1188119,38.7821782 C51.4202354,38.7821782 52.4752475,39.8371904 52.4752475,41.1386139 L52.4752475,77.8514852 Z M65.3465347,77.8514852 C65.3465347,79.1529086 64.2915224,80.2079207 62.990099,80.2079207 C61.6886756,80.2079207 60.6336634,79.1529086 60.6336634,77.8514852 L60.6336634,41.1386139 C60.6336634,39.8371904 61.6886756,38.7821782 62.990099,38.7821782 C64.2915225,38.7821782 65.3465347,39.8371904 65.3465347,41.1386139 L65.3465347,77.8514852 Z" id="trash" fill="#000000"></path>
    </g>
</svg>