<?xml version="1.0" encoding="UTF-8"?>
<svg width="100px" height="100px" viewBox="0 0 100 100" version="1.1" xmlns="http://www.w3.org/2000/svg" xmlns:xlink="http://www.w3.org/1999/xlink">
    <!-- Generator: Sketch 57.1 (83088) - https://sketch.com -->
    <title>regular/trash-regular</title>
    <desc>Created with Sketch.</desc>
    <g id="regular/trash" stroke="none" stroke-width="1" fill="none" fill-rule="evenodd">
        <path d="M57.7425743,-4.9999997e-08 C61.6172427,0.00545339715 64.7569228,3.14513349 64.7623763,7.01980194 L64.7623763,12.5742574 L87.6435644,12.5742574 C90.2135936,12.6909263 92.2372304,14.8085121 92.2372304,17.3811881 C92.2372304,19.9538641 90.2135936,22.0714499 87.6435644,22.1881188 L85.039604,22.1881188 L81.079208,92.4851486 C80.8690274,96.1573834 77.8267547,99.025812 74.1485149,99.0198209 L26.2277227,99.0198209 C22.5494829,99.025812 19.5072102,96.1573834 19.2970297,92.4851486 L15.3366336,22.1881188 L12.7326732,22.1881188 C10.9632777,22.2684422 9.29280548,21.3702191 8.38410339,19.8498661 C7.4754013,18.3295132 7.4754013,16.432863 8.38410339,14.91251 C9.29280548,13.3921571 10.9632777,12.493934 12.7326732,12.5742574 L35.5544554,12.5742574 L35.5544554,7.01980194 C35.5599089,3.14513349 38.699589,0.00545339715 42.5742574,-4.9999997e-08 L57.7425743,-4.9999997e-08 Z M80.2772278,22.1881188 L20.019802,22.1881188 L23.980198,92.2178218 C24.048227,93.3828746 25.0111851,94.2937809 26.1782178,94.2970362 L74.1485149,94.2970362 C75.3193691,94.2990209 76.2881812,93.3866866 76.3564357,92.2178218 L80.2772278,22.1881188 Z M37.2475247,38.7821782 C38.4947222,38.7821782 39.5156149,39.7511043 39.598524,40.9772778 L39.6039604,41.1386139 L39.6039604,77.8514852 C39.5935272,79.1315791 38.5669858,80.1712813 37.2871287,80.1986667 C36.6570428,80.2086162 36.0489644,79.9663959 35.5987365,79.5254703 C35.1935315,79.1286372 34.9465736,78.6006133 34.8993688,78.039583 L34.8910891,77.8514852 L34.8910891,41.1386139 C34.8910891,39.8371904 35.9461013,38.7821782 37.2475247,38.7821782 Z M50.1683168,38.7821782 C51.4155143,38.7821782 52.436407,39.7511043 52.5193161,40.9772778 L52.5247525,41.1386139 L52.5247525,77.8415842 C52.5193279,79.1407541 51.4674867,80.1925953 50.1683168,80.1980198 C48.9248154,80.1980198 47.9055418,79.2346342 47.8179627,78.012327 L47.8118812,77.8514852 L47.8118812,41.1386139 C47.8118812,39.8371904 48.8668934,38.7821782 50.1683168,38.7821782 Z M63.049505,38.7821782 C64.2967025,38.7821782 65.3175951,39.7511043 65.4005042,40.9772778 L65.4059406,41.1386139 L65.4059406,77.8415842 C65.400516,79.1407541 64.3486749,80.1925953 63.049505,80.1980198 C61.8060036,80.1980198 60.7867299,79.2346342 60.6991508,78.012327 L60.6930693,77.8514852 L60.6930693,41.1386139 C60.6930693,39.8371904 61.7480815,38.7821782 63.049505,38.7821782 Z M87.6039604,17.2871287 L12.7076129,17.287875 C12.6912207,17.2907053 12.6757728,17.2980998 12.6631598,17.3094515 C12.6442403,17.326479 12.6336616,17.3507845 12.6336616,17.3762376 C12.6336616,17.4024966 12.6440947,17.4276802 12.6626627,17.4462482 C12.6812306,17.4648161 12.7064142,17.4752475 12.7326732,17.4752475 L87.6039604,17.4752475 C87.6547427,17.4701443 87.6930706,17.427275 87.6930706,17.3762376 C87.6930706,17.3270241 87.6531739,17.2871287 87.6039604,17.2871287 Z M57.7227723,4.71287124 L42.5742574,4.71287124 C41.3079147,4.72374154 40.287082,5.75341256 40.2871287,7.01980194 L40.2277228,12.5742574 L60.029703,12.5742574 L60.029703,7.01980194 C60.0242793,5.74797262 58.9946016,4.71829489 57.7227723,4.71287124 Z" id="Shape" fill="#000000"></path>
    </g>
</svg>