<?xml version="1.0" encoding="UTF-8"?>
<svg width="100px" height="100px" viewBox="0 0 100 100" version="1.1" xmlns="http://www.w3.org/2000/svg" xmlns:xlink="http://www.w3.org/1999/xlink">
    <!-- Generator: Sketch 57.1 (83088) - https://sketch.com -->
    <title>brand/trello-alt-brand</title>
    <desc>Created with Sketch.</desc>
    <g id="brand/trello-alt" stroke="none" stroke-width="1" fill="none" fill-rule="evenodd">
        <path d="M87.0081848,50.7450306 C87.0081848,54.0559448 84.3228766,56.741253 81.0119625,56.741253 L62.5006246,56.741253 C59.1877117,56.741253 56.5043796,54.0559448 56.5043796,50.7450306 L56.5043796,19.019018 C56.4954079,15.7071045 59.1717218,13.0158 62.4836353,13.0068057 L62.5006246,13.0068057 L81.0119625,13.0068057 C84.3228766,13.0068057 87.0081848,15.692114 87.0081848,19.0030281 L87.0081848,50.7450306 Z M43.4955978,75.7452805 C43.4606198,79.0322097 40.787304,81.6785425 37.4993754,81.6776341 L19.0350079,81.6776341 C15.7360863,81.6955318 13.0417837,79.0442022 13.0078048,75.7452805 L13.0078048,19.0030281 C13.0068057,15.692114 15.692114,13.0068057 19.0030281,13.0068057 L19.0350079,13.0068057 L37.4993754,13.0068057 C40.8112889,13.0068057 43.4955978,15.692114 43.4955978,19.0030281 L43.4955978,75.7452805 Z M87.4998751,0 L12.4991256,0 C5.59647422,0 0,5.59547485 0,12.4991256 L0,87.4998751 C0,94.4035258 5.59647422,100 12.4991256,100 L87.4998751,100 C94.3785415,99.965022 99.9370397,94.3785415 99.9370397,87.4998751 L99.9370397,12.4991256 C99.9370397,5.62045911 94.3785415,0.0339785935 87.4998751,0 L87.4998751,0 Z" id="Fill-1" fill="#000000"></path>
    </g>
</svg>