<svg width="100" height="100" viewBox="0 0 100 100" fill="none" xmlns="http://www.w3.org/2000/svg">
<path fill-rule="evenodd" clip-rule="evenodd" d="M29.6092 40.5621H44.3732V43.1431H37.8472V60.2731H35.1462V43.1401H29.6092V40.5621ZM48.2081 47.9098C49.0781 46.1398 50.5951 44.8788 53.5201 45.0588V47.5788C50.2201 47.2378 48.2081 48.2398 48.2081 51.4178V60.2828H45.6881V45.2698H48.2081V47.9098ZM57.1241 51.7077H65.4951C65.3451 48.9187 64.0831 47.3267 61.5061 47.3267C58.7741 47.3127 57.3941 49.0827 57.1241 51.6907V51.7077ZM61.6251 44.9607C66.2451 44.9607 68.1031 48.1717 68.1031 52.7307V53.8997H57.1551C57.5171 56.4507 59.1671 58.1017 62.7061 58.1017C64.2631 58.0997 65.8071 57.8247 67.2681 57.2897V59.6767C66.0371 60.3337 64.1451 60.5727 62.6131 60.5727C57.0021 60.5727 54.5431 57.3337 54.5431 52.7307C54.5431 48.1987 57.0621 44.9607 61.6251 44.9607ZM73.7501 56.1335C73.7501 57.4975 74.6491 57.9645 75.7621 57.9645C76.0121 57.9685 76.2621 57.9585 76.5121 57.9335V60.2415C76.077 60.3355 75.633 60.3755 75.188 60.3615C72.7271 60.3615 71.1681 59.1925 71.1681 56.4305V39.0005H73.7501V56.1335ZM81.5782 56.1335C81.5782 57.4975 82.4782 57.9645 83.5902 57.9645C83.8402 57.9685 84.0912 57.9585 84.3402 57.9335V60.2415C83.9052 60.3355 83.4612 60.3755 83.0162 60.3615C80.5552 60.3615 78.9972 59.1925 78.9972 56.4305V39.0005H81.5782V56.1335ZM92.9181 58.1725C96.1271 58.1725 97.4801 55.5915 97.4801 52.7405C97.4801 49.8905 96.1161 47.3705 92.9221 47.3705C89.7271 47.3705 88.3091 49.8905 88.3091 52.7405H88.2981C88.2981 55.5915 89.7101 58.1725 92.9181 58.1725ZM92.9181 44.9705C97.4191 44.9705 100 48.2395 100 52.7405C100 57.2415 97.3891 60.5825 92.9181 60.5825C88.4481 60.5825 85.7781 57.2415 85.7781 52.7405C85.7781 48.2395 88.4181 44.9705 92.9181 44.9705ZM18.7018 50.4225V43.5995C18.7018 42.8885 18.1248 42.3115 17.4128 42.3115H13.4308C12.7188 42.3135 12.1428 42.8915 12.1448 43.6035V50.4225C12.1448 51.1345 12.7228 51.7115 13.4338 51.7115H17.4128C18.1248 51.7115 18.7018 51.1345 18.7018 50.4225ZM9.34876 55.7955V43.5995C9.34876 42.8885 8.77176 42.3115 8.06076 42.3115H4.08476C3.37276 42.3115 2.79576 42.8885 2.79576 43.5995V55.7955C2.80376 56.5055 3.38276 57.0745 4.09176 57.0705H8.06076C8.76676 57.0705 9.34176 56.5025 9.34876 55.7955ZM18.8068 39.5155C20.2858 39.5225 21.4808 40.7235 21.4808 42.2015V58.3215C21.4808 59.8005 20.2858 61.0015 18.8068 61.0095H2.68676C1.20276 61.0095 -0.000244141 59.8065 -0.000244141 58.3215V42.2015C-0.000244141 40.7185 1.20276 39.5155 2.68676 39.5155H18.8068Z" fill="black"/>
</svg>
