<?xml version="1.0" encoding="UTF-8"?>
<svg width="100px" height="100px" viewBox="0 0 100 100" version="1.1" xmlns="http://www.w3.org/2000/svg" xmlns:xlink="http://www.w3.org/1999/xlink">
    <!-- Generator: Sketch 57.1 (83088) - https://sketch.com -->
    <title>brand/twitter-brand</title>
    <desc>Created with Sketch.</desc>
    <g id="brand/twitter" stroke="none" stroke-width="1" fill="none" fill-rule="evenodd">
        <path d="M31.4482,90.2554 C69.1832,90.2554 89.8242,58.9914 89.8242,31.8794 C89.8242,30.9914 89.8242,30.1074 89.7632,29.2274 C93.7792,26.3224 97.2452,22.7274 100.0002,18.6074 C96.2562,20.2664 92.2832,21.3554 88.2162,21.8354 C92.4992,19.2714 95.7042,15.2384 97.2362,10.4864 C93.2092,12.8774 88.8022,14.5614 84.2082,15.4674 C76.4382,7.2054 63.4412,6.8064 55.1792,14.5764 C49.8512,19.5874 47.5902,27.0544 49.2442,34.1794 C32.7472,33.3524 17.3782,25.5604 6.9602,12.7434 C1.5142,22.1174 4.2962,34.1104 13.3122,40.1314 C10.0472,40.0344 6.8532,39.1534 4.0002,37.5634 L4.0002,37.8224 C4.0022,47.5894 10.8872,56.0014 20.4602,57.9354 C17.4392,58.7594 14.2702,58.8794 11.1962,58.2874 C13.8842,66.6454 21.5862,72.3704 30.3642,72.5354 C23.0992,78.2444 14.1242,81.3444 4.8842,81.3354 C3.2512,81.3324 1.6202,81.2334 0.0002,81.0394 C9.3822,87.0604 20.3002,90.2544 31.4482,90.2384" id="Fill-1" fill="#000000"></path>
    </g>
</svg>