<?xml version="1.0" encoding="UTF-8"?>
<svg width="100px" height="100px" viewBox="0 0 100 100" version="1.1" xmlns="http://www.w3.org/2000/svg" xmlns:xlink="http://www.w3.org/1999/xlink">
    <!-- Generator: Sketch 57.1 (83088) - https://sketch.com -->
    <title>bold/undo-bold</title>
    <desc>Created with Sketch.</desc>
    <g id="bold/undo" stroke="none" stroke-width="1" fill="none" fill-rule="evenodd">
        <path d="M4.50495045,45.990099 C6.98909846,45.9955587 8.99999995,48.0108955 8.99999995,50.4950495 C8.99383752,68.7859408 21.2438482,84.8126415 38.8952199,89.6069944 C56.5465915,94.4013473 75.2213034,86.7742223 84.4694346,70.9935756 C93.7175659,55.2129289 91.2453281,35.1927906 78.4361263,22.1359498 C65.6269245,9.07910905 45.6577895,6.22401786 29.7029703,15.1683168 L29.8217822,15.1683168 C32.1690193,15.4814232 33.8731602,17.5583307 33.7218742,19.9215214 C33.5705883,22.2847121 31.6155262,24.127366 29.2475247,24.1386138 C29.0495049,24.1386138 28.8514851,24.1386138 28.6534653,24.1386138 L17.920792,22.6930693 C17.7202887,22.6719396 17.5216916,22.6355301 17.3267326,22.5841584 C16.4247031,22.4077126 15.598659,21.9584 14.960396,21.2970297 C14.9154913,21.2520085 14.8756501,21.2022069 14.8415841,21.1485148 C13.7008427,19.9915298 13.1566523,18.3735677 13.3663366,16.7623762 L14.7722772,6.03960392 C15.2437344,3.71958948 17.4305049,2.16032587 19.7775108,2.4706522 C22.1245166,2.78097853 23.8308859,4.85500174 23.6831683,7.21782174 L23.5346534,8.33663362 C42.7214523,-3.48624487 67.4722077,-0.857732499 83.7478882,14.7312357 C100.023569,30.3202039 103.715948,54.9347384 92.7306489,74.6130743 C81.7453496,94.2914102 58.8552259,104.06644 37.0439288,98.3936081 C15.2326317,92.720776 0.00565998766,73.0319897 -4.9999997e-08,50.4950495 C-4.9999997e-08,48.007034 2.01693499,45.990099 4.50495045,45.990099 Z" id="undo" fill="#000000"></path>
    </g>
</svg>