<svg width="100" height="100" viewBox="0 0 100 100" fill="none" xmlns="http://www.w3.org/2000/svg">
<g clip-path="url(#clip0)">
<path d="M50 -0.000175905C42.6902 -0.0122741 35.4672 1.58452 28.8438 4.67698C26.8853 1.836 23.3786 0.495853 20.0246 1.30663C16.6706 2.11741 14.1632 4.91138 13.7188 8.33323L12.4167 18.2499C12.0878 20.6359 12.7336 23.0539 14.2083 24.9582L14.4479 25.2395L14.5625 25.3645C14.6506 25.4802 14.7445 25.5915 14.8438 25.6978L15.0208 25.8957C16.1975 27.111 17.7162 27.9393 19.375 28.2707C19.6458 28.3332 19.9271 28.3853 20.2188 28.427L30.1458 29.7291C30.491 29.7768 30.839 29.8012 31.1875 29.802C33.919 29.7985 36.4753 28.4566 38.0296 26.2104C39.5838 23.9642 39.9386 21.099 38.9792 18.5416C52.6741 13.7439 67.8994 18.3571 76.6282 29.9492C85.3571 41.5412 85.5838 57.4485 77.1888 69.2845C68.7938 81.1206 53.7061 86.1658 39.8801 81.7603C26.054 77.3548 16.6665 64.5109 16.6667 49.9999C16.6667 45.3975 12.9357 41.6666 8.33333 41.6666C3.73096 41.6666 0 45.3975 0 49.9999C0 77.6141 22.3858 99.9999 50 99.9999C77.6142 99.9999 100 77.6141 100 49.9999C100 22.3857 77.6142 -0.000175905 50 -0.000175905Z" fill="black"/>
</g>
<defs>
<clipPath id="clip0">
<rect width="100" height="100" fill="white"/>
</clipPath>
</defs>
</svg>
