<?xml version="1.0" encoding="UTF-8"?>
<svg width="100px" height="100px" viewBox="0 0 100 100" version="1.1" xmlns="http://www.w3.org/2000/svg" xmlns:xlink="http://www.w3.org/1999/xlink">
    <!-- Generator: Sketch 57.1 (83088) - https://sketch.com -->
    <title>solid/undo-solid</title>
    <desc>Created with Sketch.</desc>
    <g id="solid/undo" stroke="none" stroke-width="1" fill="none" fill-rule="evenodd">
        <path d="M8.74257422,42.2475247 C10.9316687,42.2448968 13.0320034,43.1126696 14.5808564,44.6596655 C16.1297094,46.2066613 17.0000015,48.3059534 17,50.4950495 C17.0301832,64.8227967 26.3183805,77.4878525 39.9747186,81.8225592 C53.6310567,86.1572659 68.5231749,81.1673699 76.8109542,69.4798567 C85.0987335,57.7923434 84.8812022,42.0879833 76.2728819,30.634509 C67.6645616,19.1810346 52.6399468,14.6055348 39.1089109,19.3168317 C39.578774,20.5807051 39.7350572,21.9396894 39.5643564,23.2772277 C39.0278621,27.3802845 35.5340195,30.450631 31.3960396,30.4554455 C31.0318624,30.4567068 30.6680103,30.4335526 30.3069307,30.3861386 L20.4752475,29.0891089 C20.2085813,29.0548992 19.9441142,29.0053117 19.6831683,28.940594 C18.0322636,28.6247075 16.5183553,27.8089944 15.3465346,26.6039604 L15.1188118,26.3366336 L15.0396039,26.2475247 L14.7524752,25.9108911 C13.1620251,23.9973796 12.4440613,21.506045 12.7722772,19.0396039 L14.0792079,9.20792075 C14.5201698,5.8196834 17.0070104,3.05538518 20.3299127,2.25982258 C23.6528151,1.46425998 27.1219015,2.80260213 29.0495049,5.62376233 C48.9884118,-3.68948911 72.6815812,1.27762981 87.2011013,17.8148664 C101.720621,34.3521031 103.580297,58.4888003 91.765417,77.0550403 C79.9505369,95.6212804 57.2979016,104.159234 36.1676669,98.0102633 C15.0374323,91.8612923 0.503052833,72.5017893 0.495049455,50.4950495 C0.495049455,45.9400674 4.18759207,42.2475247 8.74257422,42.2475247 Z" id="undo" fill="#000000"></path>
    </g>
</svg>