<?xml version="1.0" encoding="UTF-8"?>
<svg width="100px" height="100px" viewBox="0 0 100 100" version="1.1" xmlns="http://www.w3.org/2000/svg" xmlns:xlink="http://www.w3.org/1999/xlink">
    <!-- Generator: Sketch 57.1 (83088) - https://sketch.com -->
    <title>regular/undo-regular</title>
    <desc>Created with Sketch.</desc>
    <g id="regular/undo" stroke="none" stroke-width="1" fill="none" fill-rule="evenodd">
        <path d="M2.3564356,47.1485148 C2.9822086,47.1458688 3.58311584,47.3932857 4.02560813,47.835778 C4.46810042,48.2782703 4.71551725,48.8791775 4.71287124,49.5049505 C4.70333686,70.3411933 19.0566023,88.4349137 39.3484818,93.1665868 C59.6403614,97.8982598 80.5163114,88.0193097 89.7238672,69.3278672 C98.931423,50.6364247 94.0409298,28.0647163 77.9227048,14.8604773 C61.8044798,1.65623826 38.7117385,1.30375285 22.1980198,14.009901 L28.5742574,14.8415841 C29.7826426,15.032181 30.6465582,16.1124032 30.5668897,17.3331304 C30.4872211,18.5538576 29.4902343,19.5126314 28.2673267,19.5445544 L27.960396,19.5445544 L16.7227722,18.0495049 L16.3861386,17.970297 C15.8626866,17.9000297 15.3780155,17.6559507 15.009901,17.2772277 C14.9451945,17.2091237 14.8856254,17.136317 14.8316831,17.0594059 L14.6138614,16.8316831 C14.0989983,16.1613164 13.8743243,15.3125478 13.990099,14.4752475 L15.4653465,3.24752471 C15.6348596,1.95703757 16.8184237,1.04830859 18.1089109,1.21782173 C19.399398,1.38733487 20.308127,2.57089895 20.1386138,3.86138609 L19.2871287,10.2970297 C37.5212352,-3.75446919 63.0349958,-3.38282234 80.8520898,11.1938172 C98.6691838,25.7704568 104.087349,50.705043 93.9261767,71.3612246 C83.7650045,92.0174063 60.7062173,102.943633 38.285091,97.7263199 C15.8639647,92.5090067 -0.00214854792,72.5250994 -4.9999997e-08,49.5049505 C-4.9999997e-08,48.8799849 0.248266564,48.2806163 0.690183971,47.8386989 C1.13210138,47.3967815 1.73147001,47.1485148 2.3564356,47.1485148 Z" id="undo" fill="#000000"></path>
    </g>
</svg>