<svg width="100" height="100" viewBox="0 0 100 100" fill="none" xmlns="http://www.w3.org/2000/svg">
<g clip-path="url(#clip0)">
<path d="M94.9763 99.141C95.5282 99.6933 96.2778 100.003 97.0586 99.9998C97.8395 100.003 98.5891 99.6933 99.141 99.141C100.28 97.9865 100.28 96.1308 99.141 94.9763L5.02334 0.858633C3.87329 -0.291419 2.00868 -0.291419 0.858633 0.858633C-0.291419 2.00868 -0.291419 3.87329 0.858633 5.02334L94.9763 99.141Z" fill="black"/>
<path d="M46.7533 32.6114C46.8926 32.5227 47.0226 32.4202 47.1415 32.3055L69.2944 10.1408C72.968 6.46728 78.3222 5.03261 83.3404 6.37721C88.3585 7.72182 92.2781 11.6414 93.6227 16.6596C94.9673 21.6777 93.5327 27.032 89.8591 30.7055L67.6944 52.8585L67.3297 53.1879L71.4944 57.3526L71.8591 57.0232L94.0238 34.8585C101.894 26.8649 101.843 14.0203 93.9116 6.08836C85.9797 -1.84355 73.135 -1.89367 65.1415 5.97611L42.9768 28.1408C42.8621 28.2597 42.7596 28.3897 42.6709 28.5291L46.7533 32.6114Z" fill="black"/>
<path d="M53.2467 67.3886C53.1095 67.4803 52.9797 67.5826 52.8585 67.6945L30.6938 89.8592C25.0182 95.5348 15.8164 95.5348 10.1408 89.8592C4.46528 84.1837 4.46528 74.9818 10.1408 69.3063L32.3055 47.1416L32.6702 46.8122L28.5055 42.6475L28.1408 42.9769L5.97611 65.1416C-1.89367 73.1351 -1.84355 85.9798 6.08836 93.9117C14.0203 101.844 26.8649 101.894 34.8585 94.0239L57.0232 71.8592C57.1378 71.7404 57.2403 71.6103 57.329 71.471L53.2467 67.3886Z" fill="black"/>
</g>
<defs>
<clipPath id="clip0">
<rect width="100" height="100" fill="white"/>
</clipPath>
</defs>
</svg>
