<?xml version="1.0" encoding="UTF-8"?>
<svg width="100px" height="100px" viewBox="0 0 100 100" version="1.1" xmlns="http://www.w3.org/2000/svg" xmlns:xlink="http://www.w3.org/1999/xlink">
    <!-- Generator: Sketch 57.1 (83088) - https://sketch.com -->
    <title>regular/unlink-regular</title>
    <desc>Created with Sketch.</desc>
    <g id="regular/unlink" stroke="none" stroke-width="1" fill="none" fill-rule="evenodd">
        <path d="M29.5196078,42.7254902 L32.8235294,46.0294118 C32.6470588,46.1862745 32.4662309,46.33878 32.2897603,46.4985476 L32.0294117,46.745098 L10.0392156,68.7352941 C4.29929088,74.6169363 4.35662659,84.0209424 10.1678421,89.8321579 C15.8935985,95.5579144 25.1072523,95.6977784 31.002959,90.2102553 L31.2647059,89.9607844 L53.2156863,67.9705883 C53.444101,67.7467936 53.716256,67.5737247 54.0142931,67.4617392 L54.1960784,67.4019608 L57.1176471,70.2843137 C57.0300881,70.5900098 56.8824042,70.8744518 56.683929,71.1212647 L56.5588235,71.2647059 L34.5686274,93.254902 C29.6243014,98.3515699 22.3174471,100.38886 15.4493252,98.5857276 C8.58120343,96.7825952 3.21740482,91.4187966 1.41427238,84.5506748 C-0.355468713,77.8097404 1.57429192,70.6461724 6.46510225,65.7084701 L6.745098,65.4313726 L28.7352941,43.4411765 C28.9803921,43.1960784 29.2549019,42.9607843 29.5196078,42.7254902 Z M4.96078427,1.66666662 L98.3333334,95.0392157 C98.7715782,95.4752891 99.0179649,96.0680363 99.0179649,96.6862746 C99.0179649,97.3045128 98.7715782,97.89726 98.3333334,98.3333334 C97.8994135,98.7749744 97.305407,99.022477 96.6862746,99.0196568 C96.0671421,99.022477 95.4731356,98.7749744 95.0392157,98.3333334 L1.66666662,4.96078427 C0.846036539,4.03738635 0.887336893,2.63439009 1.76086349,1.76086349 C2.63439009,0.887336893 4.03738635,0.846036539 4.96078427,1.66666662 Z M84.5506748,1.41427238 C91.4187966,3.21740482 96.7825952,8.58120343 98.5857276,15.4493252 C100.355469,22.1902596 98.4257081,29.3538276 93.5348978,34.2915299 L93.254902,34.5686274 L71.2647059,56.5588235 C71.0947713,56.7287582 70.9204793,56.8812636 70.744735,57.0366739 L70.4803922,57.2745098 L67.1764706,53.9705882 C67.3529412,53.8137255 67.5337691,53.66122 67.7102397,53.5014524 L67.9705883,53.254902 L89.9607844,31.2647059 C93.8298039,27.4889099 95.3694484,21.9242221 93.9914824,16.6966838 C92.6135163,11.4691455 88.5308545,7.38648369 83.3033162,6.00851764 C78.1919454,4.66117305 72.7582431,6.10320829 68.9896407,9.78473839 L68.7352941,10.0392156 L46.7843137,32.0294117 C46.555899,32.2532064 46.283744,32.4262753 45.9857069,32.5382608 L45.8039216,32.5980392 L42.8823529,29.7156863 C42.9699119,29.4099902 43.1175958,29.1255482 43.316071,28.8787353 L43.4411765,28.7352941 L65.4313726,6.745098 C70.3756986,1.6484301 77.6825529,-0.388860055 84.5506748,1.41427238 Z" id="Shape" fill="#000000"></path>
    </g>
</svg>