<?xml version="1.0" encoding="UTF-8"?>
<svg width="100px" height="100px" viewBox="0 0 100 100" version="1.1" xmlns="http://www.w3.org/2000/svg" xmlns:xlink="http://www.w3.org/1999/xlink">
    <!-- Generator: Sketch 57.1 (83088) - https://sketch.com -->
    <title>regular/unlock-regular</title>
    <desc>Created with Sketch.</desc>
    <g id="regular/unlock" stroke="none" stroke-width="1" fill="none" fill-rule="evenodd">
        <path d="M89.0990099,35.4653465 L25.6138614,35.4653465 L25.6138614,29.980198 C25.6593478,18.1782654 34.185765,8.11881333 45.8207385,6.14015942 C57.4557121,4.1615055 68.828081,10.8369524 72.7722773,21.960396 C73.2042624,23.1907333 74.5518409,23.8379256 75.7821782,23.4059405 C77.0125155,22.9739554 77.6597079,21.6263769 77.2277228,20.3960396 C72.561152,7.04600603 58.9429848,-0.988695706 45.0010137,1.38232116 C31.0590426,3.75333803 20.8624492,15.8380553 20.8712871,29.980198 L20.8712871,35.4653465 L10.6831683,35.4653465 C8.34118627,35.4653402 6.44110269,37.3609946 6.43564352,39.7029703 L6.43564352,95.7524753 C6.43564352,98.0983184 8.33732513,100 10.6831683,100 L89.0990099,100 C91.4409856,99.9945409 93.3366337,98.0944573 93.3366337,95.7524753 L93.3366337,39.7029703 C93.3366337,38.5790826 92.8901711,37.5012264 92.0954624,36.7065178 C91.3007538,35.9118092 90.2228976,35.4653465 89.0990099,35.4653465 Z M88.6138614,95.2871288 L11.1485148,95.2871288 L11.1485148,40.1782178 L88.6138614,40.1782178 L88.6138614,95.2871288 Z" id="unlock" fill="#000000"></path>
    </g>
</svg>