<?xml version="1.0" encoding="UTF-8"?>
<svg width="100px" height="100px" viewBox="0 0 100 100" version="1.1" xmlns="http://www.w3.org/2000/svg" xmlns:xlink="http://www.w3.org/1999/xlink">
    <!-- Generator: Sketch 57.1 (83088) - https://sketch.com -->
    <title>solid/upload-solid</title>
    <desc>Created with Sketch.</desc>
    <g id="solid/upload" stroke="none" stroke-width="1" fill="none" fill-rule="evenodd">
        <path d="M49.865,17.1595036 C52.7145702,17.1595036 55.4471083,18.2929929 57.46,20.31 L80.83,43.68 C84.0857186,46.9329572 84.0879572,52.2092814 80.835,55.465 C77.5820429,58.7207186 72.3057186,58.7229572 69.05,55.47 L58.2,44.61 L58.2,91.67 C58.0444203,96.1609756 54.3586696,99.7212528 49.865,99.7212528 C45.3713304,99.7212528 41.6855797,96.1609756 41.53,91.67 L41.53,44.61 L30.67,55.47 C28.5639193,57.5742944 25.4951929,58.3951619 22.6197802,57.6233897 C19.7443675,56.8516176 17.4991121,54.6044562 16.7297801,51.7283897 C15.9604481,48.8523231 16.7839193,45.7842943 18.89,43.68 L42.27,20.31 C44.2828917,18.2929929 47.0154298,17.1595036 49.865,17.1595036 Z M90.39,-4.99999953e-08 C94.8809756,0.15557968 98.4412528,3.84133031 98.4412528,8.33499996 C98.4412528,12.8286696 94.8809756,16.5144202 90.39,16.67 L9.32999996,16.67 C4.83902436,16.5144202 1.27874725,12.8286696 1.27874725,8.33499996 C1.27874725,3.84133031 4.83902436,0.15557968 9.32999996,-4.99999953e-08 L90.39,-4.99999953e-08 Z" id="Shape" fill="#000000"></path>
    </g>
</svg>