<?xml version="1.0" encoding="UTF-8"?>
<svg width="100px" height="100px" viewBox="0 0 100 100" version="1.1" xmlns="http://www.w3.org/2000/svg" xmlns:xlink="http://www.w3.org/1999/xlink">
    <!-- Generator: Sketch 57.1 (83088) - https://sketch.com -->
    <title>bold/upload-bold</title>
    <desc>Created with Sketch.</desc>
    <g id="bold/upload" stroke="none" stroke-width="1" fill="none" fill-rule="evenodd">
        <path d="M50.3235294,19.3333333 C52.1640444,19.3513685 53.9240641,20.0905768 55.2254902,21.3921568 L80.2254902,46.3921569 C81.4242614,47.5028754 81.9196945,49.1801996 81.5168069,50.7640019 C81.1139193,52.3478042 79.877216,53.5845075 78.2934137,53.9873951 C76.7096114,54.3902827 75.0322872,53.8948496 73.9215687,52.6960784 L54.7058824,33.4803921 L54.7058824,94.5588236 C54.7829145,96.200621 53.9508777,97.7517698 52.540492,98.5957158 C51.1301062,99.4396617 49.3698938,99.4396617 47.959508,98.5957158 C46.5491223,97.7517698 45.7170855,96.200621 45.7941176,94.5588236 L45.7941176,33.4803921 L26.5784313,52.6960784 C24.819788,54.3255452 22.0876787,54.2734813 20.3923928,52.5781954 C18.6971069,50.8829096 18.645043,48.1508002 20.2745098,46.3921569 L45.2941176,21.3921568 C46.5955438,20.0905768 48.3555635,19.3513685 50.1960784,19.3333333 L50.3235294,19.3333333 Z M93.627451,0.980392108 C95.2692484,0.903359955 96.8203973,1.73539674 97.6643432,3.14578248 C98.5082892,4.55616823 98.5082892,6.31638071 97.6643432,7.72676645 C96.8203973,9.13715219 95.2692484,9.96918897 93.627451,9.89215682 L6.91176466,9.89215682 C5.26996725,9.96918897 3.7188184,9.13715219 2.87487246,7.72676645 C2.03092653,6.31638071 2.03092653,4.55616823 2.87487246,3.14578248 C3.7188184,1.73539674 5.26996725,0.903359955 6.91176466,0.980392108 L93.627451,0.980392108 Z" id="Shape" fill="#000000"></path>
    </g>
</svg>