<svg width="100" height="100" viewBox="0 0 100 100" fill="none" xmlns="http://www.w3.org/2000/svg">
<g clip-path="url(#clip0)">
<path d="M4.11793 5.88235H95.6591C97.2835 5.88235 98.6003 4.56554 98.6003 2.94118C98.6003 1.31681 97.2835 0 95.6591 0H4.11793C2.49357 0 1.17676 1.31681 1.17676 2.94118C1.17676 4.56554 2.49357 5.88235 4.11793 5.88235Z" fill="black"/>
<path d="M53.8945 21.0358L80.2945 47.4358C81.1379 48.277 81.3906 49.5439 80.9344 50.6444C80.4782 51.7448 79.4034 52.4614 78.2121 52.4593C77.4343 52.4641 76.6876 52.1544 76.1416 51.6005L52.8357 28.2946V97.0593C52.8357 98.6837 51.5189 100 49.8945 100C48.2701 100 46.9533 98.6837 46.9533 97.0593V28.2946L23.6474 51.6005C22.9035 52.3444 21.8191 52.635 20.8029 52.3627C19.7866 52.0904 18.9928 51.2966 18.7205 50.2803C18.4482 49.2641 18.7388 48.1797 19.4827 47.4358L45.8827 21.0358C46.8113 20.1186 48.0299 19.5529 49.3298 19.4358C49.5157 19.3981 49.7048 19.3785 49.8945 19.377C50.0803 19.3785 50.2655 19.3982 50.4474 19.4358C51.7486 19.5481 52.9688 20.1145 53.8945 21.0358Z" fill="black"/>
</g>
<defs>
<clipPath id="clip0">
<rect width="100" height="100" fill="white"/>
</clipPath>
</defs>
</svg>
