<svg width="100" height="100" viewBox="0 0 100 100" fill="none" xmlns="http://www.w3.org/2000/svg">
<path fill-rule="evenodd" clip-rule="evenodd" d="M61.9849 20.9902C64.1267 33.1302 57.2438 45.0558 45.6606 49.2743C60.7784 53.4123 71.9227 68.0951 71.9816 85.5523C72.0168 94.6512 59.2854 99.9177 37.0437 100H36.5382C14.6138 100 2 94.8392 2 85.8109C2 68.2597 13.1326 53.4593 28.2739 49.2743C16.6907 45.0558 9.80779 33.1302 11.9496 20.9902C14.0914 8.85023 24.6398 0 36.9672 0C49.2947 0 59.8431 8.85023 61.9849 20.9902ZM36.9496 5.95463C26.1786 5.95463 17.4469 14.6863 17.4469 25.4573C17.4599 36.2229 26.184 44.947 36.9496 44.9599C47.7206 44.9599 56.4523 36.2283 56.4523 25.4573C56.4523 14.6863 47.7206 5.95463 36.9496 5.95463ZM36.5617 94.1222H37.0201C56.1349 94.0516 66.1272 89.7726 66.1037 85.5758C66.0449 68.0833 52.9843 53.9765 36.9731 53.9765H36.8791C20.8091 54.0353 7.87784 68.2597 7.87784 85.7874C7.87784 89.9489 17.7526 94.1222 36.5617 94.1222Z" fill="black"/>
<path d="M72.0864 27.2206H95.5977C96.5716 27.2206 97.3611 26.4311 97.3611 25.4572C97.3611 24.4834 96.5716 23.6939 95.5977 23.6939H72.0864C71.1125 23.6939 70.3231 24.4834 70.3231 25.4572C70.3231 26.4311 71.1125 27.2206 72.0864 27.2206Z" fill="black"/>
</svg>
