<svg width="100" height="100" viewBox="0 0 100 100" fill="none" xmlns="http://www.w3.org/2000/svg">
<g clip-path="url(#clip0)">
<path d="M81.7161 16.2509C86.227 28.8373 79.8212 42.7171 67.3167 47.4505C81.6922 51.5796 92.3503 65.6493 92.4091 82.354C92.4326 88.6359 86.2566 93.0239 75.0808 95.0708C77.4542 92.6404 78.7767 89.3743 78.7629 85.9773C78.7766 75.4746 74.818 65.3553 67.6814 57.6498C65.0649 54.8178 62.0347 52.3984 58.6937 50.4738C66.7275 44.0235 70.6784 33.7558 69.0407 23.584C67.403 13.4122 60.429 4.90343 50.7766 1.30069C63.441 -2.98646 77.2051 3.66445 81.7161 16.2509Z" fill="black"/>
<path d="M49.4826 51.0386C55.3052 52.7244 60.5513 55.9804 64.6463 60.4497C71.0671 67.4015 74.6185 76.526 74.587 85.9892C74.6103 94.8121 62.317 99.9176 40.8479 100H40.3891C31.4485 100 23.7549 99.0471 18.1083 97.2355C8.95594 94.2945 7.00313 89.636 7.00313 86.2362C6.88086 76.7776 10.3441 67.6235 16.6966 60.6144C20.8092 56.068 26.1036 52.7529 31.9897 51.0386C20.9225 46.8191 14.4457 35.2997 16.5909 23.6514C18.7362 12.003 28.8919 3.54686 40.7361 3.54686C52.5804 3.54686 62.7361 12.003 64.8814 23.6514C67.0266 35.2997 60.5497 46.8191 49.4826 51.0386Z" fill="black"/>
</g>
<defs>
<clipPath id="clip0">
<rect width="100" height="100" fill="white"/>
</clipPath>
</defs>
</svg>
