<?xml version="1.0" encoding="UTF-8"?>
<svg width="100px" height="100px" viewBox="0 0 100 100" version="1.1" xmlns="http://www.w3.org/2000/svg" xmlns:xlink="http://www.w3.org/1999/xlink">
    <!-- Generator: Sketch 57.1 (83088) - https://sketch.com -->
    <title>bold/user-plus-bold</title>
    <desc>Created with Sketch.</desc>
    <g id="bold/user-plus" stroke="none" stroke-width="1" fill="none" fill-rule="evenodd">
        <path d="M36.1086398,0.495049455 L36.4852991,0.498354574 C48.0899756,0.682867615 58.1860171,8.55657406 61.1704667,19.8056531 C64.1888304,31.1825626 59.1782497,43.1669519 48.960396,49.009901 C62,54.5247525 71.2871287,68.0990099 71.3467175,83.990099 C71.3861386,93.7722773 58.5841584,99.4257426 36.2277228,99.5049505 L35.7425742,99.5049505 C13.6831683,99.5049505 0.990098961,93.9504951 0.990098961,84.2475248 C0.85908834,74.432587 4.45375303,64.9329072 11.0495049,57.6633663 C14.4448979,53.9297104 18.6100345,50.977294 23.2574257,49.009901 C13.039572,43.1669519 8.02899134,31.1825626 11.0473551,19.8056531 C14.0657188,8.42874361 24.35822,0.50435561 36.1287129,0.495049455 L36.1086398,0.495049455 Z M36.1089109,55.4554456 L36.029703,55.4554456 C29.0066097,55.5232046 22.3378814,58.5501961 17.6633663,63.7920792 C12.6086045,69.3804648 9.85347356,76.6732505 9.95049501,84.2079208 C9.95049501,85.2178218 11.7821782,86.8118812 15.8415841,88.1089109 C20.7920792,89.6831684 28.019802,90.5544555 36.2178218,90.5247525 C44.4158416,90.4950495 51.6237624,89.5940594 56.5148515,87.9801981 C60.5643564,86.6336634 62.3762376,85.009901 62.3762376,84.019802 C62.2871287,68.2475248 50.5445545,55.4554456 36.1089109,55.4554456 Z M81.009901,7.56435639 C83.4979165,7.56435639 85.5148515,9.58129143 85.5148515,12.0693069 L85.5148515,21.970297 L95.4158416,21.970297 C97.8191235,22.0830576 99.7096548,24.0643712 99.7096548,26.470297 C99.7096548,28.8762228 97.8191235,30.8575365 95.4158416,30.970297 L85.5148515,30.970297 L85.5148515,40.8712871 C85.5148515,43.3593026 83.4979165,45.3762376 81.009901,45.3762376 C78.5218856,45.3762376 76.5049505,43.3593026 76.5049505,40.8712871 L76.5049505,30.970297 L66.6039604,30.970297 C64.2006785,30.8575365 62.3101472,28.8762228 62.3101472,26.470297 C62.3101472,24.0643712 64.2006785,22.0830576 66.6039604,21.970297 L76.5049505,21.970297 L76.5049505,12.0693069 C76.5049505,9.58129143 78.5218856,7.56435639 81.009901,7.56435639 Z M42.6404858,10.7635975 C36.2927311,8.12777019 28.9820478,9.57863511 24.1219256,14.4387573 C19.2618034,19.2988795 17.8109385,26.6095628 20.4467658,32.9573175 C23.0825931,39.3050721 29.2851756,43.4377552 36.1584158,43.4257426 L36.1287129,43.4554455 C45.5043539,43.4499835 53.1034488,35.8508885 53.108963,26.4752475 C53.1209236,19.6020073 48.9882405,13.3994248 42.6404858,10.7635975 Z" id="Shape" fill="#000000"></path>
    </g>
</svg>