<?xml version="1.0" encoding="UTF-8"?>
<svg width="100px" height="100px" viewBox="0 0 100 100" version="1.1" xmlns="http://www.w3.org/2000/svg" xmlns:xlink="http://www.w3.org/1999/xlink">
    <!-- Generator: Sketch 57.1 (83088) - https://sketch.com -->
    <title>solid/user-lock-solid</title>
    <desc>Created with Sketch.</desc>
    <g id="solid/user-lock" stroke="none" stroke-width="1" fill="none" fill-rule="evenodd">
        <path d="M35.940594,0.986715032 C48.3873342,0.986715032 58.9159775,10.1911023 60.5790545,22.5262357 C62.2421314,34.861369 54.5270671,46.5254531 42.5247525,49.8217822 C58.3663366,53.1089109 70.4158416,68.1089109 70.47535,86.1386139 C70.5049505,94.7326733 57.6336634,99.9207921 36.029703,100 L35.5445544,100 C26.3168317,100 18.3762376,99.009901 12.5643564,97.1584159 C3.46534649,94.2772278 1.48514847,89.6732674 1.48514847,86.3564357 C1.36146522,76.6872662 4.89826746,67.3288875 11.3861386,60.1584159 C16.1345731,54.9018802 22.4251847,51.2834788 29.3564356,49.8217822 C17.354121,46.5254531 9.63905673,34.861369 11.3021336,22.5262357 C12.9652105,10.1911023 23.4938539,0.986715032 35.940594,0.986715032 Z M76.9455445,7.82300988 C81.0412796,5.45833606 86.0874334,5.45833606 90.1831685,7.82300988 C94.2789036,10.1876837 96.8019804,14.5577811 96.8019802,19.2871287 L96.8019802,19.950495 C98.193232,20.6761138 99.0666801,22.1140612 99.069307,23.6831683 L99.069307,39.0495045 C99.069307,41.3914869 97.1736589,43.2915705 94.8316832,43.2970297 L72.2970297,43.2970297 C69.9550541,43.2915705 68.059406,41.3914869 68.059406,39.0495045 L68.059406,23.6831683 C68.0620328,22.1140612 68.935481,20.6761138 70.3267327,19.950495 L70.3267327,19.2871287 C70.3267326,14.5577811 72.8498094,10.1876837 76.9455445,7.82300988 Z M83.5643565,15.4752475 C81.4613705,15.4806886 79.7579164,17.1841427 79.7524753,19.2871287 L79.7524753,19.4356435 L87.3663367,19.4356435 L87.3663367,19.2871287 C87.3663367,17.1857454 85.6657327,15.4807056 83.5643565,15.4752475 Z" id="Shape" fill="#000000"></path>
    </g>
</svg>