<?xml version="1.0" encoding="UTF-8"?>
<svg width="100px" height="100px" viewBox="0 0 100 100" version="1.1" xmlns="http://www.w3.org/2000/svg" xmlns:xlink="http://www.w3.org/1999/xlink">
    <!-- Generator: Sketch 57.1 (83088) - https://sketch.com -->
    <title>bold/user-edit-bold</title>
    <desc>Created with Sketch.</desc>
    <g id="bold/user-edit" stroke="none" stroke-width="1" fill="none" fill-rule="evenodd">
        <path d="M36.1237624,0.937332801 C47.9154303,0.937332801 58.2283263,8.87861799 61.2414486,20.2788166 C64.2545709,31.6790151 59.212179,43.67877 48.960396,49.5049505 C62,55.019802 71.2871287,68.5940594 71.3466057,84.4851485 C71.3564357,88.3861387 69.3069307,93.7227723 59.2970297,97.029703 C53.6127298,98.8763791 45.9196201,99.9382179 37.0164194,99.9973869 L36.2277228,100 L35.7623762,100 C26.7326732,100 18.8910891,99.009901 13.1287128,97.1782179 C3.11881183,93.9702971 0.990098961,88.6435644 0.990098961,84.7425743 C0.867197678,74.9236246 4.4726694,65.4234366 11.0792079,58.1584158 C14.4746008,54.4247599 18.6397375,51.4723435 23.2871287,49.5049505 C13.0353457,43.67877 7.99295378,31.6790151 11.0060761,20.2788166 C14.0191984,8.87861799 24.3320944,0.937332801 36.1237624,0.937332801 Z M36.1089109,55.9504951 L36.019802,55.9504951 C28.9996231,56.0185717 22.3340744,59.0457518 17.6633663,64.2871287 C12.6068994,69.8744729 9.85150579,77.1679539 9.95049501,84.7029703 C9.95049501,85.7128713 11.7821782,87.3069307 15.8415841,88.6039604 C20.7920792,90.1782179 27.990099,91.029703 36.1881188,91 C44.3861386,90.9702971 51.5940594,90.069307 56.4851485,88.4554456 C60.5346535,87.1287129 62.3762376,85.5148515 62.3069307,84.5148515 C62.2475248,68.7425743 50.5049505,55.9504951 36.1089109,55.9504951 Z M73,17.970297 L71.4059406,19.5643564 C70.3644408,20.6059941 69.5719602,21.8676039 69.0855029,23.2546424 L68.970297,23.6039604 L67.4356436,28.6336633 C66.4068513,31.9982777 67.3187548,35.6559904 69.8066297,38.1438653 C72.2191145,40.5563501 75.731612,41.4869297 79.010191,40.6030419 L79.3168317,40.5148515 L84.3564357,38.980198 C85.7638792,38.5501622 87.054053,37.8073577 88.1312365,36.8092641 L88.3960396,36.5544554 L90.019802,34.9306931 L90.019802,39.6039604 C90.019802,43.0044305 87.3244347,45.7753638 83.9536233,45.8968371 L83.7227723,45.9009901 L68.4158416,45.9009901 C65.0153715,45.9009901 62.2444382,43.2056228 62.1229649,39.8348114 L62.1188119,39.6039604 L62.1188119,24.2673267 C62.1241425,20.8690671 64.8165775,18.1012337 68.1851426,17.9748007 L68.4158416,17.970297 L73,17.970297 Z M36.0891089,9.95040105 L36.1287129,9.99009897 C26.755332,10.0010109 19.1594268,17.5969162 19.1485148,26.970297 C19.1704129,36.3481638 26.7904189,43.9326799 36.1682858,43.910893 C45.5461527,43.8889177 53.1306825,36.2689254 53.1089126,26.8910585 C53.0869544,17.5131916 45.4669758,9.92864794 36.0891089,9.95040105 Z M87.8415842,9.53465342 C89.7940041,7.58320559 92.9584713,7.58320559 94.9108911,9.53465342 L98.4554456,13.0693069 C99.3949091,14.0103226 99.9217409,15.2862148 99.9198936,16.6159136 C99.9180267,17.9456123 99.3876329,19.220028 98.4455446,20.1584158 L97.2277228,21.3663366 L85.2178218,33.3366336 C84.6075607,33.9534546 83.8515657,34.4063705 83.019802,34.6534653 L77.980198,36.2079208 C76.2106858,36.7513332 74.2857393,36.2726671 72.9768331,34.963761 C71.667927,33.6548548 71.1892609,31.7299083 71.7326733,29.960396 L73.2673268,24.930693 C73.5287483,24.1123212 73.9878297,23.3709897 74.6039604,22.7722772 L86.6138614,10.7524752 L87.8415842,9.53465342 Z" id="Shape" fill="#000000"></path>
    </g>
</svg>