<?xml version="1.0" encoding="UTF-8"?>
<svg width="100px" height="100px" viewBox="0 0 100 100" version="1.1" xmlns="http://www.w3.org/2000/svg" xmlns:xlink="http://www.w3.org/1999/xlink">
    <!-- Generator: Sketch 57.1 (83088) - https://sketch.com -->
    <title>solid/users-three-solid</title>
    <desc>Created with Sketch.</desc>
    <g id="solid/users-three" stroke="none" stroke-width="1" fill="none" fill-rule="evenodd">
        <path d="M50.460396,18.5434112 C58.8495024,18.5434112 66.0853803,24.4347148 67.7860754,32.6496245 C69.4867705,40.8645343 65.1847026,49.1444859 57.4851485,52.4752475 C67.4356436,55.7128713 74.7130203,65.6138614 74.7130203,77.3069307 C74.7425743,83.7524753 65.9108911,87.4752476 50.4950495,87.5346535 L50.2475248,87.5346535 C44.8782189,87.6688917 39.5189209,87.0014822 34.3465346,85.5544555 C27.6930693,83.4257426 26.2772277,79.990099 26.2772277,77.4851485 C26.1855927,70.7075466 28.6615621,64.1462276 33.2079208,59.1188119 C35.983212,56.054658 39.5078714,53.7651648 43.4356436,52.4752475 C35.7360895,49.1444859 31.4340215,40.8645343 33.1347166,32.6496245 C34.8354117,24.4347148 42.0712896,18.5434112 50.460396,18.5434112 Z M25.2178218,11.8811708 C28.4427936,11.8825602 31.6049211,12.7733003 34.3564356,14.4554455 C22.7539528,23.0192149 19.8943516,39.1713919 27.8514851,51.1980198 C27.2871287,51.7128713 26.8019802,52.2277228 26.2970297,52.7821782 C20.1350592,59.5451818 16.7544195,68.3857668 16.8316831,77.5346535 C16.8302777,78.5144228 16.9197701,79.4922099 17.0990099,80.4554456 C14.3734472,80.199432 11.6802352,79.6720666 9.0594059,78.8811708 C2.40594055,76.7524753 0.990098961,73.3168317 0.990098961,70.8118812 C0.922459161,64.0383485 3.41553151,57.4891713 7.97029699,52.4752475 C10.745032,49.4037234 14.2690206,47.1044318 18.1980198,45.8019802 C10.4925471,42.4790281 6.18362535,34.1981294 7.88417533,25.9808032 C9.58472532,17.763477 16.8263826,11.8729346 25.2178218,11.8811708 Z M84.930161,14.4943703 C90.5617719,17.932964 93.8088307,24.2224016 93.3508228,30.8048934 C92.8928149,37.3873851 88.8060272,43.1665358 82.7524753,45.7920792 C86.6341547,47.069682 90.1243779,49.3192399 92.8910892,52.3267327 C97.4737848,57.3226799 100.002,63.8642147 99.9708808,70.6435644 C99.9801981,73.1386139 98.5940595,76.5841584 91.9504951,78.7722773 C89.3125701,79.5875606 86.5991864,80.1348813 83.8514852,80.4059406 C84.0520711,79.3783642 84.1548406,78.3340935 84.1584159,77.2871287 C84.1814465,67.4374004 80.1918136,58.0031341 73.1089109,51.1584158 C81.0446548,39.1344573 78.1723312,23.001573 66.5742574,14.4554455 C72.2204012,11.0407669 79.29855,11.0557766 84.930161,14.4943703 Z" id="Shape" fill="#000000"></path>
    </g>
</svg>