<?xml version="1.0" encoding="UTF-8"?>
<svg width="100px" height="100px" viewBox="0 0 100 100" version="1.1" xmlns="http://www.w3.org/2000/svg" xmlns:xlink="http://www.w3.org/1999/xlink">
    <!-- Generator: Sketch 57.1 (83088) - https://sketch.com -->
    <title>solid/user-cog-solid</title>
    <desc>Created with Sketch.</desc>
    <g id="solid/user-cog" stroke="none" stroke-width="1" fill="none" fill-rule="evenodd">
        <path d="M35.4455445,0.986715032 C47.8922847,0.986715032 58.420928,10.1911023 60.0840049,22.5262357 C61.7470819,34.861369 54.0320176,46.5254531 42.029703,49.8217822 C57.8712871,53.1089109 69.9207921,68.1089109 69.9803005,86.1386139 C70.009901,94.7326733 57.1386139,99.9207921 35.5346535,100 L35.0495049,100 C25.8217822,100 17.8811881,99.009901 12.0693069,97.1584159 C2.97029698,94.2772278 0.990098961,89.6732674 0.990098961,86.3564357 C0.866415714,76.6872662 4.40321796,67.3288875 10.8910891,60.1584159 C15.6395236,54.9018802 21.9301352,51.2834788 28.8613861,49.8217822 C16.8590715,46.5254531 9.14400722,34.861369 10.8070841,22.5262357 C12.470161,10.1911023 22.9988044,0.986715032 35.4455445,0.986715032 Z M81.6831683,10.1584158 C82.6799381,8.73568591 84.4637255,8.09352241 86.1386139,8.5544554 L88.9207921,9.38613857 C90.6010335,9.89680938 91.7606258,11.4322696 91.7920792,13.1881188 L91.9405941,14.3069307 L93.069307,14.2079208 C94.8045146,13.8881897 96.544825,14.7402585 97.3564357,16.3069307 L98.6534654,18.7524752 C99.4869501,20.2944606 99.2223045,22.1991067 98,23.4554455 L97.2970298,24.3267326 L98.1386139,25.0297029 C99.6328817,26.0313651 100.289687,27.8970132 99.7524753,29.6138614 L98.9603961,32.2277228 C98.4780227,33.9263501 96.9436169,35.111297 95.1782179,35.1485148 L94.059406,35.2871287 L94.1782179,36.3960396 C94.4829503,38.0908914 93.6905509,39.79455 92.1980198,40.6534653 L89.6237624,42.019802 C88.0817771,42.8532866 86.177131,42.5886411 84.9207921,41.3663366 L84.039604,40.6633663 L83.3267327,41.5148515 C82.5773748,42.6238025 81.3284831,43.2908664 79.990099,43.2970297 C79.6867464,43.2929316 79.3847007,43.2564206 79.0891089,43.1881188 L78.8217822,43.1287129 L76.1188119,42.3069307 C74.4385705,41.7962599 73.2789782,40.2607997 73.2475248,38.5049505 L73.1089109,37.3861386 L71.9702971,37.4950495 C70.2173131,37.849687 68.4441738,36.9854337 67.6435644,35.3861386 L66.3366337,32.950495 C65.4879307,31.4144613 65.7366414,29.5050051 66.9504951,28.2376237 L67.6435644,27.3663366 L66.7722772,26.6435643 C65.3519996,25.6449219 64.7104671,23.8628871 65.1683168,22.1881188 L66.009901,19.4455445 C66.4944464,17.7514439 68.0399607,16.5812112 69.8019802,16.5742574 L70.9207921,16.4356435 L70.8217822,15.3069307 C70.4622507,13.5506891 71.3272566,11.7719445 72.9306931,10.970297 L75.3663367,9.67326729 C76.908322,8.83978263 78.8129681,9.10442819 80.069307,10.3267326 L80.9504951,11.0297029 L81.6831683,10.1584158 Z M88.5346535,22.5940594 C87.2195264,20.1538315 84.5635671,18.7465047 81.8059131,19.0286672 C79.048259,19.3108297 76.7323466,21.2268773 75.9386644,23.882878 C75.1449822,26.5388787 76.029937,29.4114288 78.1806533,31.1603401 C80.3313695,32.9092515 83.324017,33.1898755 85.7623763,31.8712871 C89.0783848,30.0657587 90.3163724,25.9229215 88.5346535,22.5940594 Z" id="Shape" fill="#000000"></path>
    </g>
</svg>