<?xml version="1.0" encoding="UTF-8"?>
<svg width="100px" height="100px" viewBox="0 0 100 100" version="1.1" xmlns="http://www.w3.org/2000/svg" xmlns:xlink="http://www.w3.org/1999/xlink">
    <!-- Generator: Sketch 57.1 (83088) - https://sketch.com -->
    <title>solid/users-two-solid</title>
    <desc>Created with Sketch.</desc>
    <g id="solid/users-two" stroke="none" stroke-width="1" fill="none" fill-rule="evenodd">
        <path d="M40.575,3.58521567 C52.6515186,3.58521567 62.8891745,12.4677152 64.5924839,24.4235105 C66.2957934,36.3793057 58.9460386,47.7674355 47.35,51.14 C62.61,54.5 74.15,69 74.2101824,86.41 C74.23,90.46 71,99.89 40.66,100 L40.2,100 C31.21,100 23.48,99 17.83,97.23 C8.89999996,94.37 6.99953557,89.9 6.99953557,86.66 C6.93999996,69.19 18.47,54.54 33.8,51.14 C22.2039614,47.7674355 14.8542066,36.3793057 16.5575161,24.4235105 C18.2608255,12.4677152 28.4984813,3.58521567 40.575,3.58521567 Z M67.6,48.06 C73.2729983,49.760532 78.3823933,52.9595176 82.39,57.32 C88.777459,64.2515228 92.3038151,73.3443053 92.26,82.77 C92.27,85.31 91,90 82.49,93.13 C83.3336739,90.9804062 83.7579789,88.6891592 83.74,86.38 C83.7932416,72.1519753 77.3310247,58.682269 66.2,49.82 C66.69,49.25 67.15,48.66 67.6,48.06 Z M59.62,-4.9999997e-08 C70.774811,0.453299047 80.176074,8.46959429 82.3864944,19.412598 C84.5969147,30.3556017 79.0442798,41.3924936 68.94,46.14 C72.470516,40.6973746 74.3463219,34.3474243 74.34,27.86 C74.3338593,16.7126394 68.8253562,6.28689926 59.62,-4.9999997e-08 Z" id="Shape" fill="#000000"></path>
    </g>
</svg>