<?xml version="1.0" encoding="UTF-8"?>
<svg width="100px" height="100px" viewBox="0 0 100 100" version="1.1" xmlns="http://www.w3.org/2000/svg" xmlns:xlink="http://www.w3.org/1999/xlink">
    <!-- Generator: Sketch 57.1 (83088) - https://sketch.com -->
    <title>regular/user-lock-regular</title>
    <desc>Created with Sketch.</desc>
    <g id="regular/user-lock" stroke="none" stroke-width="1" fill="none" fill-rule="evenodd">
        <path d="M35.950495,0.963830732 C48.4046616,0.963830732 58.9387874,10.1754371 60.5996344,22.5183643 C62.2604813,34.8612915 54.5359488,46.5297573 42.5247525,49.8217822 C58.3762376,53.1089109 70.4158416,68.1089109 70.4753244,86.1386139 C70.4851485,89.4653466 68.5940594,94.059406 59.4752475,97.029703 C53.5841584,98.9207921 45.4752475,100 36.029703,100 L35.5544554,100 C26.3168317,100 18.3762376,99.009901 12.5643564,97.1584159 C3.46534649,94.2772278 1.48455559,89.6633664 1.48455559,86.3564357 C1.41584154,68.3168317 13.4554455,53.1485149 29.3762376,49.8217822 C17.3650413,46.5297573 9.64050872,34.8612915 11.3013557,22.5183643 C12.9622027,10.1754371 23.4963285,0.963830732 35.950495,0.963830732 Z M36,53.8514852 L35.9009901,53.8514852 C19.4455445,53.9108911 6.13861382,68.5247525 6.19762481,86.3465347 C6.20792075,89.5049505 10.4554455,91.5247525 14.009901,92.6633664 C19.4554455,94.4158416 27.0495049,95.3267327 36.009901,95.2871288 C44.970297,95.2475248 52.5742574,94.2871288 58,92.5049505 C61.5445545,91.3366337 65.7722772,89.2871288 65.8019802,86.1287129 C65.7029703,68.3069307 52.3762376,53.8514852 36,53.8514852 Z M50.1842413,11.5909317 C44.4197533,5.82927636 35.7518944,4.10789971 28.2232283,7.22962684 C20.6945621,10.351354 15.7880742,17.7012718 15.7920743,25.8514851 C15.8084499,36.9708112 24.8212612,45.9791937 35.940594,45.990099 C44.0908084,45.990099 51.4383137,41.079998 54.5563399,33.5497984 C57.6743662,26.0195988 55.9487293,17.352587 50.1842413,11.5909317 Z M78.1089108,9.85516856 C81.4786256,7.9096628 85.6302854,7.9096628 89.0000001,9.85516856 C92.3697149,11.8006743 94.4455447,15.3961172 94.4455446,19.2871287 L94.4455446,19.4356435 L94.8316832,19.4356435 C97.1736589,19.4411027 99.069307,21.3411863 99.069307,23.6831683 L99.069307,39.0495049 C99.069307,41.3914869 97.1736589,43.2915705 94.8316832,43.2970297 L72.2772277,43.2970297 C69.9352521,43.2915705 68.039604,41.3914869 68.039604,39.0495049 L68.039604,23.6831683 C68.039604,21.3411863 69.9352521,19.4411027 72.2772277,19.4356435 L72.6633664,19.4356435 L72.6633664,19.2871287 C72.6633662,15.3961172 74.7391961,11.8006743 78.1089108,9.85516856 Z M94.3564357,24.1485148 L72.7722773,24.1485148 L72.7722773,38.6138614 L94.3564357,38.6138614 L94.3564357,24.1485148 Z M83.5643565,13.1188118 C80.1576891,13.1188118 77.3960396,15.8804614 77.3960396,19.2871287 L77.3960396,19.4356435 L89.7326733,19.4356435 L89.7326733,19.2871287 C89.7326733,15.8804614 86.9710238,13.1188118 83.5643565,13.1188118 Z" id="Shape" fill="#000000"></path>
    </g>
</svg>