<?xml version="1.0" encoding="UTF-8"?>
<svg width="100px" height="100px" viewBox="0 0 100 100" version="1.1" xmlns="http://www.w3.org/2000/svg" xmlns:xlink="http://www.w3.org/1999/xlink">
    <!-- Generator: Sketch 57.1 (83088) - https://sketch.com -->
    <title>bold/user-clock-bold</title>
    <desc>Created with Sketch.</desc>
    <g id="bold/user-clock" stroke="none" stroke-width="1" fill="none" fill-rule="evenodd">
        <path d="M36.1086398,0.495049455 L36.4852991,0.498354574 C48.0899756,0.682867615 58.1860171,8.55657406 61.1704667,19.8056531 C64.1888304,31.1825626 59.1782497,43.1669519 48.960396,49.009901 C62,54.5247525 71.2871287,68.0990099 71.3467175,83.990099 C71.3861386,93.7722773 58.5841584,99.4257426 36.2277228,99.5049505 L35.7425742,99.5049505 C13.6831683,99.5049505 0.990098961,93.9504951 0.990098961,84.2475248 C0.85908834,74.432587 4.45375303,64.9329072 11.0495049,57.6633663 C14.4448979,53.9297104 18.6100345,50.977294 23.2574257,49.009901 C13.039572,43.1669519 8.02899134,31.1825626 11.0473551,19.8056531 C14.0657188,8.42874361 24.35822,0.50435561 36.1287129,0.495049455 L36.1086398,0.495049455 Z M36.1089109,55.4554456 L36.029703,55.4554456 C29.0066097,55.5232046 22.3378814,58.5501961 17.6633663,63.7920792 C12.6086045,69.3804648 9.85347356,76.6732505 9.95049501,84.2079208 C9.95049501,85.2178218 11.7821782,86.8118812 15.8415841,88.1089109 C20.7920792,89.6831684 28.019802,90.5544555 36.2178218,90.5247525 C44.4158416,90.4950495 51.6237624,89.5940594 56.5148515,87.9801981 C60.5643564,86.6336634 62.3762376,85.009901 62.3762376,84.019802 C62.2871287,68.2475248 50.5445545,55.4554456 36.1089109,55.4554456 Z M81.009901,7.57425738 C91.4441054,7.58517183 99.8999767,16.0410432 99.9108911,26.4752475 C99.9108911,36.9139761 91.4486296,45.3762376 81.009901,45.3762376 C70.5711724,45.3762376 62.1089109,36.9139761 62.1089109,26.4752475 C62.1089109,16.0365189 70.5711724,7.57425738 81.009901,7.57425738 Z M42.6404858,10.7635975 C36.2927311,8.12777019 28.9820478,9.57863511 24.1219256,14.4387573 C19.2618034,19.2988795 17.8109385,26.6095628 20.4467658,32.9573175 C23.0825931,39.3050721 29.2851756,43.4377552 36.1584158,43.4257426 L36.1287129,43.4554455 C45.5043539,43.4499835 53.1034488,35.8508885 53.108963,26.4752475 C53.1209236,19.6020073 48.9882405,13.3994248 42.6404858,10.7635975 Z M90.8910891,26.0396039 L81.4158416,31.4257426 L73.2673268,28.3762376 C72.3869899,28.0491188 71.6318727,27.4533383 71.1089109,26.6732673 C71.216746,32.0639475 75.6181425,36.3773161 81.009901,36.376238 C86.4703321,36.3653167 90.8910891,31.9356895 90.8910891,26.4752475 L90.8910891,26.0396039 Z M81.009901,16.5742442 C78.22915,16.572973 75.5779067,17.7493048 73.7128713,19.8118812 C74.6087322,19.573384 75.5564862,19.6183505 76.4257426,19.940594 L80.6237624,21.5247524 L86.4455446,18.2079208 C84.8339195,17.1402976 82.9430719,16.5720101 81.009901,16.5742442 Z" id="Shape" fill="#000000"></path>
    </g>
</svg>