<?xml version="1.0" encoding="UTF-8"?>
<svg width="100px" height="100px" viewBox="0 0 100 100" version="1.1" xmlns="http://www.w3.org/2000/svg" xmlns:xlink="http://www.w3.org/1999/xlink">
    <!-- Generator: Sketch 57.1 (83088) - https://sketch.com -->
    <title>regular/users-two-regular</title>
    <desc>Created with Sketch.</desc>
    <g id="regular/users-two" stroke="none" stroke-width="1" fill="none" fill-rule="evenodd">
        <path d="M41.045,3.6485422 C53.1140106,3.6485422 63.3461105,12.5237581 65.0516434,24.4716523 C66.7571762,36.4195464 59.4169757,47.8031655 47.83,51.18 C54.3687238,52.634837 60.3029096,56.062702 64.83,61 C71.2044118,67.9276517 74.7292998,77.0059347 74.7003602,86.42 C74.71,89.66 72.85,94.14 63.95,97.07 C58.21,99 50.33,100 41.15,100 L40.68,100 C31.7,100 23.98,99 18.33,97.23 C9.39999996,94.37 7.49999996,89.9 7.49999996,86.66 C7.39527805,77.2530354 10.845217,68.1531963 17.16,61.18 C21.6914754,56.1619031 27.6646269,52.668832 34.26,51.18 C22.6730243,47.8031655 15.3328238,36.4195464 17.0383566,24.4716523 C18.7438894,12.5237581 28.9759894,3.6485422 41.045,3.6485422 Z M41.12,55.18 L41.02,55.18 C33.2635092,55.2458378 25.8952614,58.5831565 20.73,64.37 C15.2081087,70.4621638 12.1963927,78.4183817 12.3,86.64 C12.31,89.82 17.02,91.8 19.82,92.7 C25.1,94.39 32.48,95.27 41.17,95.24 C49.86,95.21 57.23,94.27 62.5,92.54 C65.26,91.62 69.95,89.61 69.9805901,86.39 C70.0151001,78.1673538 66.9435093,70.2347921 61.38,64.18 C56.1856388,58.4743062 48.8359229,55.2093782 41.12,55.18 Z M59.1,-3.11840677e-05 C71.1695057,-0.0135866941 81.4086775,8.85776339 83.1141558,20.8061731 C84.8196341,32.7545828 77.4713231,44.1363147 65.88,47.5 C81.14,50.87 92.68,65.38 92.7400802,82.77 C92.75,86 90.9,90.49 81.99,93.42 C81.3,93.65 80.57,93.86 79.82,94.06 C80.8100603,92.3384471 81.4522229,90.4391407 81.71,88.47 C84.47,87.42 87.98,85.54 87.98,82.79 C87.92,68.19 78.66,55.93 66.21,52.49 C65.22,51.66 64.2,50.88 63.14,50.15 C65.9372754,47.3806578 68.1896387,44.1106605 69.78,40.51 C76.4366759,36.146629 79.7651801,28.1693467 78.1839105,20.3687104 C76.602641,12.5680741 70.430382,6.51669458 62.6,5.08999996 C60.5761733,3.17865959 58.3101385,1.54133176 55.86,0.21999995 C56.9340076,0.0757007942 58.0163443,0.00220879152 59.1,-3.11840677e-05 Z M41.06,8.39999996 C30.3014931,8.39999996 21.58,17.121493 21.58,27.88 C21.591024,38.6339373 30.3060627,47.348976 41.06,47.36 C51.8185069,47.36 60.54,38.6385069 60.54,27.88 C60.54,17.121493 51.8185069,8.39999996 41.06,8.39999996 Z" id="Shape" fill="#000000"></path>
    </g>
</svg>