<?xml version="1.0" encoding="UTF-8"?>
<svg width="100px" height="100px" viewBox="0 0 100 100" version="1.1" xmlns="http://www.w3.org/2000/svg" xmlns:xlink="http://www.w3.org/1999/xlink">
    <!-- Generator: Sketch 57.1 (83088) - https://sketch.com -->
    <title>bold/user-check-bold</title>
    <desc>Created with Sketch.</desc>
    <g id="bold/user-check" stroke="none" stroke-width="1" fill="none" fill-rule="evenodd">
        <path d="M36.1237624,0.937332801 C47.9154303,0.937332801 58.2283263,8.87861799 61.2414486,20.2788166 C64.2545709,31.6790151 59.212179,43.67877 48.960396,49.5049505 C62,55.019802 71.2871287,68.5940594 71.3467175,84.4851485 C71.3861386,94.2673268 58.5841584,99.9207921 36.2277228,100 L35.7425742,100 C13.6831683,100 0.990098961,94.4455446 0.990098961,84.7425743 C0.867197678,74.9236246 4.4726694,65.4234366 11.0792079,58.1584158 C14.4746008,54.4247599 18.6397375,51.4723435 23.2871287,49.5049505 C13.0353457,43.67877 7.99295378,31.6790151 11.0060761,20.2788166 C14.0191984,8.87861799 24.3320944,0.937332801 36.1237624,0.937332801 Z M36.1089109,55.9504951 L36.029703,55.9504951 C29.0066097,56.0182541 22.3378814,59.0452456 17.6633663,64.2871287 C12.6086045,69.8755143 9.85347356,77.1683 9.95049501,84.7029703 C9.95049501,85.7128713 11.7821782,87.3069307 15.8415841,88.6039604 C20.7920792,90.1782179 27.990099,91.029703 36.1881188,91 C44.3861386,90.9702971 51.5940594,90.069307 56.4851485,88.4554456 C60.5346535,87.1287129 62.3762376,85.5148515 62.3069307,84.5148515 C62.2475248,68.7425743 50.5049505,55.9504951 36.1089109,55.9504951 Z M36.0891089,9.95040105 L36.1287129,9.99009897 C26.7530718,9.99556104 19.1539769,17.594656 19.1485148,26.970297 C19.1704129,36.3481638 26.7904189,43.9326799 36.1682858,43.910893 C45.5461527,43.8889177 53.1306825,36.2689254 53.1089126,26.8910585 C53.0869544,17.5131916 45.4669758,9.92864794 36.0891089,9.95040105 Z M92.2277228,13.5148514 C93.9887302,11.7640745 96.8330521,11.7640745 98.5940595,13.5148514 C100.344836,15.2758588 100.344836,18.1201807 98.5940595,19.8811881 L78.5049505,40.0594059 C77.4310912,41.1374408 75.9721169,41.7434267 74.4504951,41.7434267 C72.9288732,41.7434267 71.469899,41.1374408 70.3960396,40.0594059 L63.4653465,33.1287129 C61.8197464,31.3526572 61.8723258,28.5934973 63.5843967,26.8814264 C65.2964676,25.1693555 68.0556275,25.1167761 69.8316832,26.7623762 L74.4059406,31.3366336 L92.2277228,13.5148514 Z" id="Shape" fill="#000000"></path>
    </g>
</svg>