<svg width="100" height="100" viewBox="0 0 100 100" fill="none" xmlns="http://www.w3.org/2000/svg">
<path fill-rule="evenodd" clip-rule="evenodd" d="M61.732 59.093C57.396 54.3811 51.8284 50.9762 45.6585 49.263C57.2396 45.0463 64.1218 33.1236 61.9809 20.9861C59.84 8.84862 49.294 0 36.9691 0C24.6442 0 14.0982 8.84862 11.9573 20.9861C9.81644 33.1236 16.6986 45.0463 28.2797 49.263C13.1351 53.449 2 68.2527 2 85.8078C2 94.8381 14.6166 100 36.5458 100H37.0514C59.2981 99.9177 72.0323 94.65 71.9974 85.5491C72.0385 75.7506 68.3714 66.2993 61.732 59.093ZM17.4504 25.4408C17.4504 14.6674 26.1839 5.93381 36.9573 5.93381C47.7308 5.93381 56.4643 14.6674 56.4643 25.4408C56.4643 36.2142 47.7308 44.9478 36.9573 44.9478C26.1893 44.9348 17.4633 36.2088 17.4504 25.4408ZM37.0279 94.1209H36.5693C17.7561 94.1209 7.87914 89.9467 7.87914 85.7843C7.87914 68.2527 20.8132 54.0252 36.8868 53.9664H36.9809C44.7776 54.0039 52.1988 57.3198 57.4285 63.1025C63.0598 69.2258 66.1643 77.2538 66.1184 85.5726C66.1414 89.7703 56.1468 94.0503 37.0279 94.1209Z" fill="black"/>
<path fill-rule="evenodd" clip-rule="evenodd" d="M78.1534 29.7157C79.5006 31.5158 81.6251 32.566 83.8734 32.5431C87.0144 32.5551 89.785 30.4892 90.6697 27.4753C91.7867 23.7153 89.6441 19.7618 85.8841 18.6449C82.1241 17.5279 78.1706 19.6705 77.0536 23.4305C76.3977 25.5811 76.8062 27.9156 78.1534 29.7157ZM82.145 22.3134C82.6764 22.0281 83.2702 21.8786 83.8734 21.8784H83.8852C84.235 21.876 84.5835 21.9235 84.9199 22.0195C85.8283 22.2903 86.5895 22.9153 87.0319 23.7536C87.4743 24.592 87.5607 25.5731 87.2716 26.4759C87.0032 27.3785 86.3851 28.1363 85.5549 28.5806C84.2887 29.3184 82.6982 29.1965 81.5592 28.2744C80.4203 27.3522 79.9701 25.8219 80.4282 24.4299C80.6939 23.5229 81.3123 22.7605 82.145 22.3134Z" fill="black"/>
<path fill-rule="evenodd" clip-rule="evenodd" d="M81.9566 38.9634C81.7313 38.9644 81.5065 38.9408 81.2864 38.8928L81.0042 38.8575L78.8994 38.2226C77.6223 37.8319 76.7403 36.6653 76.7124 35.3301L76.5948 34.3776L75.6306 34.4717C74.2962 34.7333 72.9507 34.075 72.3383 32.8608L71.3741 30.9442C70.7441 29.7662 70.9486 28.3159 71.8797 27.3579L72.4794 26.6172L71.7386 26.0057C70.6697 25.2341 70.1994 23.8749 70.5628 22.6076L71.2095 20.4794C71.5873 19.1932 72.7616 18.3053 74.1021 18.2923L75.0545 18.1747L74.9016 17.2106C74.638 15.8789 75.2911 14.5343 76.5007 13.9182L78.4291 12.8953C79.5924 12.294 81.0091 12.497 81.9566 13.4009L82.6973 14.0005L83.3088 13.2598C84.0783 12.1879 85.4395 11.7168 86.7069 12.0839L88.8352 12.7307C90.1145 13.1182 90.998 14.2866 91.0222 15.6232L91.1398 16.5756L92.104 16.4815C93.4345 16.2262 94.7744 16.877 95.3963 18.0807L96.4193 19.9855C97.0571 21.1622 96.8519 22.6173 95.9137 23.5718L95.3257 24.3125L96.043 24.9122C97.177 25.6948 97.6565 27.1332 97.2188 28.4397L96.5839 30.5327C96.1806 31.7756 95.0216 32.6164 93.7149 32.6139L92.7742 32.7315L92.8565 33.6721C93.0934 34.9606 92.4959 36.2592 91.3632 36.9174L89.3643 37.9874C88.201 38.5887 86.7843 38.3857 85.8368 37.4818L85.096 36.8821L84.4846 37.6112C83.9144 38.4489 82.9699 38.9541 81.9566 38.9634ZM80.2751 34.9068L81.7214 35.3301L82.6268 34.2483C83.6912 32.9938 85.5514 32.7922 86.8598 33.7897L88.0356 34.6833L89.4113 33.9543L89.282 32.5433C89.2215 31.8177 89.417 31.0939 89.8346 30.4974L90.0345 30.2622C90.5464 29.6749 91.2684 29.3118 92.0452 29.251L93.3739 29.0747L93.8324 27.5461L92.7624 26.6524C91.5079 25.5881 91.3064 23.7278 92.3039 22.4195L93.2093 21.2436L92.4685 19.8679L91.0222 20.0443C89.3724 20.1646 87.9141 18.9795 87.6946 17.3399L87.5182 15.9407L86.0249 15.4821L85.1196 16.5639C84.0511 17.8199 82.1869 18.0213 80.8748 17.0224L79.699 16.1288L78.4291 16.8931L78.5584 18.2923C78.6915 19.942 77.5069 21.4058 75.8658 21.6199L74.4548 21.7963L73.9962 23.2896L75.078 24.195C76.3325 25.2593 76.534 27.1196 75.5366 28.4279L74.6429 29.6038L75.3719 30.9795L76.7829 30.8502C78.4342 30.7181 79.8962 31.9105 80.0988 33.5546L80.2751 34.9068Z" fill="black"/>
</svg>
