<?xml version="1.0" encoding="UTF-8"?>
<svg width="100px" height="100px" viewBox="0 0 100 100" version="1.1" xmlns="http://www.w3.org/2000/svg" xmlns:xlink="http://www.w3.org/1999/xlink">
    <!-- Generator: Sketch 57.1 (83088) - https://sketch.com -->
    <title>solid/user-minus-solid</title>
    <desc>Created with Sketch.</desc>
    <g id="solid/user-minus" stroke="none" stroke-width="1" fill="none" fill-rule="evenodd">
        <path d="M34.3333333,2.43737445 C46.3835097,2.43737445 56.5765955,11.3487309 58.1862585,23.2909139 C59.7959214,35.2330969 52.326021,46.5252119 40.7058823,49.7156863 C56.0490196,52.9117647 67.7058824,67.4215686 67.754902,84.9019608 C67.754902,93.2450981 55.3333333,98.2745099 34.4215686,98.3431373 L33.9509804,98.3431373 C25.0196078,98.3431373 17.3333333,97.3921569 11.7058823,95.5882353 C2.86274505,92.7058824 0.980392108,88.2941177 0.980392108,85.0980393 C0.870941449,75.7283279 4.31030107,66.6641093 10.6078431,59.7254902 C15.1951416,54.6465061 21.2675022,51.1437489 27.9607843,49.7156863 C16.3406456,46.5252119 8.87074524,35.2330969 10.4804082,23.2909139 C12.0900711,11.3487309 22.283157,2.43737445 34.3333333,2.43737445 Z M94.4509804,21.9509804 C96.1319056,21.8730503 97.7195936,22.7254457 98.5833622,24.169567 C99.4471309,25.6136882 99.4471309,27.4157235 98.5833622,28.8598448 C97.7195936,30.303966 96.1319056,31.1563614 94.4509804,31.0784314 L65.2450981,31.0784314 C63.5641729,31.1563614 61.9764849,30.303966 61.1127163,28.8598448 C60.2489476,27.4157235 60.2489476,25.6136882 61.1127163,24.169567 C61.9764849,22.7254457 63.5641729,21.8730503 65.2450981,21.9509804 L94.4509804,21.9509804 Z" id="Shape" fill="#000000"></path>
    </g>
</svg>