<?xml version="1.0" encoding="UTF-8"?>
<svg width="100px" height="100px" viewBox="0 0 100 100" version="1.1" xmlns="http://www.w3.org/2000/svg" xmlns:xlink="http://www.w3.org/1999/xlink">
    <!-- Generator: Sketch 57.1 (83088) - https://sketch.com -->
    <title>bold/user-lock-bold</title>
    <desc>Created with Sketch.</desc>
    <g id="bold/user-lock" stroke="none" stroke-width="1" fill="none" fill-rule="evenodd">
        <path d="M36.6188119,0.937332801 C48.4104798,0.937332801 58.7233758,8.87861799 61.7364981,20.2788166 C64.7496204,31.6790151 59.7072285,43.67877 49.4554455,49.5049505 C62.4950495,55.019802 71.7821782,68.5940594 71.8416552,84.4851485 C71.8514852,88.3861387 69.8019802,93.7227723 59.7920792,97.029703 C53.9405941,98.9306931 45.960396,100 36.7227723,100 L36.2574257,100 C27.2277227,100 19.3861386,99.009901 13.6237623,97.1782179 C3.61386134,93.9702971 1.48514847,88.6435644 1.48514847,84.7425743 C1.36224718,74.9236246 4.96771891,65.4234366 11.5742574,58.1584158 C14.9696503,54.4247599 19.134787,51.4723435 23.7821782,49.5049505 C13.5303952,43.67877 8.48800329,31.6790151 11.5011256,20.2788166 C14.5142479,8.87861799 24.8271439,0.937332801 36.6188119,0.937332801 Z M36.6039604,55.9504951 L36.5148515,55.9504951 C29.4946726,56.0185717 22.8291239,59.0457518 18.1584158,64.2871287 C13.1019489,69.8744729 10.3465553,77.1679539 10.4455445,84.7029703 C10.4455445,85.7128713 12.2772277,87.3069307 16.3366336,88.6039604 C21.2871287,90.1782179 28.4851485,91.029703 36.6831683,91 C44.8811881,90.9702971 52.0891089,90.069307 56.980198,88.4554456 C61.029703,87.1287129 62.8712871,85.5148515 62.8019802,84.5148515 C62.7425743,68.7425743 51,55.9504951 36.6039604,55.9504951 Z M82.079208,8.06287854 C88.3254355,8.06287854 93.6310006,12.6342935 94.5544555,18.8118812 C97.2708227,19.590152 99.141779,22.0753315 99.1386219,24.9009901 L99.1386219,39.6039604 C99.1331518,43.0833148 96.3110419,45.9009901 92.8316832,45.9009901 L71.3267327,45.9009901 C67.8489792,45.9009901 65.029703,43.0817139 65.029703,39.6039604 L65.029703,24.8712871 C65.0351887,22.0582904 66.9001091,19.5878764 69.6039604,18.8118812 C70.5274153,12.6342935 75.8329804,8.06287854 82.079208,8.06287854 Z M36.5841584,9.95040105 L36.6237624,9.99009897 C27.2503815,10.0010109 19.6544763,17.5969162 19.6435643,26.970297 C19.6654624,36.3481638 27.2854684,43.9326799 36.6633353,43.910893 C46.0412022,43.8889177 53.625732,36.2689254 53.6039621,26.8910585 C53.5820039,17.5131916 45.9620254,9.92864794 36.5841584,9.95040105 Z M90.1386139,27.5940594 L74.029703,27.5940594 L74.029703,36.8712871 L90.1386139,36.8712871 L90.1386139,27.5940594 Z M82.079208,17.0693069 C80.8999968,17.0639953 79.7919462,17.6327946 79.1089109,18.5940594 L85.049505,18.5940594 C84.3676007,17.6314893 83.2588205,17.0623154 82.079208,17.0693069 L82.079208,17.0693069 Z" id="Shape" fill="#000000"></path>
    </g>
</svg>