<?xml version="1.0" encoding="UTF-8"?>
<svg width="100px" height="100px" viewBox="0 0 100 100" version="1.1" xmlns="http://www.w3.org/2000/svg" xmlns:xlink="http://www.w3.org/1999/xlink">
    <!-- Generator: Sketch 57.1 (83088) - https://sketch.com -->
    <title>bold/user-bold</title>
    <desc>Created with Sketch.</desc>
    <g id="bold/user" stroke="none" stroke-width="1" fill="none" fill-rule="evenodd">
        <path d="M62.8217822,49.5049505 C73.0735652,43.67877 78.1159571,31.6790151 75.1028348,20.2788166 C72.0897125,8.87861799 61.7768165,0.937332801 49.9851485,0.937332801 C38.1934805,0.937332801 27.8805846,8.87861799 24.8674623,20.2788166 C21.8543399,31.6790151 26.8967318,43.67877 37.1485148,49.5049505 C32.5011237,51.4723435 28.335987,54.4247599 24.940594,58.1584158 C18.3340556,65.4234366 14.7285838,74.9236246 14.8514851,84.7425743 C14.8514851,94.4455446 27.5445544,100 49.6039604,100 L50.0891089,100 C72.4455446,99.9207921 85.2475248,94.2673268 85.2080124,84.4851485 C85.1485149,68.5940594 75.8613862,55.019802 62.8217822,49.5049505 Z M49.950495,9.95044793 C59.328362,9.92864794 66.9483405,17.5131916 66.9702518,26.8910585 C66.9920687,36.2689254 59.4075388,43.8889177 50.029672,43.910846 C40.6518051,43.9326799 33.0317991,36.3481638 33.009901,26.970297 C33.015363,17.594656 40.614458,9.99556104 49.990099,9.99009897 L49.950495,9.95044793 Z M70.3465347,88.4554456 C65.4554456,90.069307 58.2475248,90.9702971 50.049505,91 C41.8514851,91.029703 34.6534653,90.1782179 29.7029703,88.6039604 C25.6435643,87.3069307 23.8118812,85.7128713 23.8118812,84.7029703 C23.7148597,77.1683 26.4699907,69.8755143 31.5247525,64.2871287 C36.1992676,59.0452456 42.8679959,56.0182541 49.8910891,55.9504951 L49.970297,55.9504951 C64.3663366,55.9504951 76.1089109,68.7425743 76.1683169,84.5148515 C76.2376238,85.5148515 74.3960396,87.1287129 70.3465347,88.4554456 Z" id="user" fill="#000000"></path>
    </g>
</svg>