<svg width="100" height="100" viewBox="0 0 100 100" fill="none" xmlns="http://www.w3.org/2000/svg">
<path fill-rule="evenodd" clip-rule="evenodd" d="M45.6606 49.2743C57.2438 45.0558 64.1267 33.1302 61.9849 20.9902C59.8431 8.85023 49.2947 0 36.9672 0C24.6398 0 14.0914 8.85023 11.9496 20.9902C9.80779 33.1302 16.6907 45.0558 28.2739 49.2743C13.1326 53.4593 2 68.2597 2 85.8109C2 94.8392 14.6138 100 36.5382 100H37.0437C59.2854 99.9177 72.0168 94.6512 71.9816 85.5523C71.9227 68.0951 60.7784 53.4123 45.6606 49.2743ZM17.4469 25.4573C17.4469 14.6863 26.1786 5.95463 36.9496 5.95463C47.7206 5.95463 56.4523 14.6863 56.4523 25.4573C56.4523 36.2283 47.7206 44.9599 36.9496 44.9599C26.184 44.947 17.4599 36.2229 17.4469 25.4573ZM37.0201 94.1222H36.5617C17.7526 94.1222 7.87784 89.9489 7.87784 85.7874C7.87784 68.2597 20.8091 54.0353 36.8791 53.9765H36.9731C52.9843 53.9765 66.0449 68.0833 66.1037 85.5758C66.1272 89.7726 56.1349 94.0516 37.0201 94.1222Z" fill="black"/>
<path d="M89.6855 20.1437C90.519 19.6973 91.5562 19.9877 92.0367 20.802C92.267 21.213 92.3232 21.699 92.1929 22.1517C92.0626 22.6045 91.7566 22.9862 91.3431 23.2119L84.1133 27.3969L78.306 25.2221C77.649 25.0653 77.1394 24.5471 76.9935 23.8876C76.8477 23.2281 77.0915 22.5432 77.6211 22.1241C78.1508 21.705 78.8733 21.6253 79.4816 21.9188L83.7489 23.5175L89.6855 20.1437Z" fill="black"/>
<path fill-rule="evenodd" clip-rule="evenodd" d="M83.8425 11.9383C78.3745 11.9383 73.445 15.2321 71.3525 20.2838C69.26 25.3356 70.4167 31.1503 74.2831 35.0167C78.1495 38.8832 83.9643 40.0398 89.016 37.9473C94.0677 35.8548 97.3615 30.9253 97.3615 25.4574C97.355 17.9937 91.3061 11.9448 83.8425 11.9383ZM83.8425 35.4497C78.3239 35.4497 73.8501 30.976 73.8501 25.4574C73.8501 19.9387 78.3239 15.465 83.8425 15.465C89.3611 15.465 93.8348 19.9387 93.8348 25.4574C93.8283 30.9733 89.3584 35.4432 83.8425 35.4497Z" fill="black"/>
</svg>
