<svg width="100" height="100" viewBox="0 0 100 100" fill="none" xmlns="http://www.w3.org/2000/svg">
<g clip-path="url(#clip0)">
<path d="M58.6756 49.2598C70.251 45.0355 77.1247 33.1122 74.9798 20.9782C72.8349 8.84423 62.2902 0 49.9681 0C37.646 0 27.1012 8.84423 24.9563 20.9782C22.8114 33.1122 29.6851 45.0355 41.2605 49.2598C35.0301 51.0001 29.4201 54.4697 25.0801 59.2667C18.4893 66.523 14.889 76.0048 15.0026 85.8069C15.0026 89.3346 17.0134 94.0382 26.4677 97.1308C32.3472 99.0122 40.308 100 49.5859 100H50.0563C72.3044 99.9177 85.0394 94.6497 85.0042 85.5482C84.9453 68.086 73.7978 53.399 58.6756 49.2598Z" fill="black"/>
</g>
<defs>
<clipPath id="clip0">
<rect width="100" height="100" fill="white"/>
</clipPath>
</defs>
</svg>
