<?xml version="1.0" encoding="UTF-8"?>
<svg width="100px" height="100px" viewBox="0 0 100 100" version="1.1" xmlns="http://www.w3.org/2000/svg" xmlns:xlink="http://www.w3.org/1999/xlink">
    <!-- Generator: Sketch 57.1 (83088) - https://sketch.com -->
    <title>solid/user-clock-solid</title>
    <desc>Created with Sketch.</desc>
    <g id="solid/user-clock" stroke="none" stroke-width="1" fill="none" fill-rule="evenodd">
        <path d="M35.4455445,0.986715032 C47.8922847,0.986715032 58.420928,10.1911023 60.0840049,22.5262357 C61.7470819,34.861369 54.0320176,46.5254531 42.029703,49.8217822 C57.8712871,53.1089109 69.9207921,68.1089109 69.9803005,86.1386139 C70.009901,94.7326733 57.1386139,99.9207921 35.5346535,100 L35.0495049,100 C25.8217822,100 17.8811881,99.009901 12.0693069,97.1584159 C2.97029698,94.2772278 0.990098961,89.6732674 0.990098961,86.3564357 C0.866415714,76.6872662 4.40321796,67.3288875 10.8910891,60.1584159 C15.6395236,54.9018802 21.9301352,51.2834788 28.8613861,49.8217822 C16.8590715,46.5254531 9.14400722,34.861369 10.8070841,22.5262357 C12.470161,10.1911023 22.9988044,0.986715032 35.4455445,0.986715032 Z M82.4653466,8.40594055 C92.0979913,8.41140279 99.9054289,16.2188403 99.9108911,25.8514851 C99.9108911,32.9075492 95.6604207,39.2688279 89.1414674,41.9690667 C82.6225142,44.6693055 75.1188745,43.1767388 70.1294837,38.187348 C65.1400929,33.1979572 63.6475262,25.6943175 66.347765,19.1753642 C69.0480038,12.656411 75.4092824,8.40594055 82.4653466,8.40594055 Z M92.1981908,18.9677427 C91.4721351,18.541439 90.5738018,18.5348642 89.8415842,18.950495 L82.2574258,23.2574257 L76.8316832,21.2178218 C76.0428691,20.9206899 75.1554568,21.0669562 74.5037261,21.6015234 C73.8519953,22.1360905 73.5349595,22.9777452 73.6720429,23.8094442 C73.8091263,24.6411432 74.3795027,25.3365316 75.1683169,25.6336633 L82.6732674,28.4455445 L92.1683169,23.0495049 C92.9005345,22.6338742 93.3553951,21.8591821 93.3616826,21.0172476 C93.3677191,20.1753132 92.9242464,19.3940463 92.1981908,18.9677427 Z" id="Shape" fill="#000000"></path>
    </g>
</svg>