<?xml version="1.0" encoding="UTF-8"?>
<svg width="100px" height="100px" viewBox="0 0 100 100" version="1.1" xmlns="http://www.w3.org/2000/svg" xmlns:xlink="http://www.w3.org/1999/xlink">
    <!-- Generator: Sketch 57.1 (83088) - https://sketch.com -->
    <title>solid/video-plus-solid</title>
    <desc>Created with Sketch.</desc>
    <g id="solid/video-plus" stroke="none" stroke-width="1" fill="none" fill-rule="evenodd">
        <path d="M72.31,12.83 C74.6201735,12.83 76.4944865,14.6998331 76.5,17.01 L76.5,38.58 L89.41,33.1 C91.2406176,32.3196604 93.3408181,32.5112708 95,33.61 C96.6803199,34.7113738 97.6860303,36.5909599 97.6703732,38.6 L97.6703732,63.6 C97.6703732,65.5882797 96.6741905,67.4443691 95.0158274,68.5412233 C93.3574643,69.6380776 91.2592399,69.8291912 89.43,69.05 L76.5,63.57 L76.5,85.14 C76.4944865,87.4501669 74.6201735,89.32 72.31,89.32 L4.18999995,89.32 C1.87982647,89.32 0.00551349052,87.4501669 -4.99997768e-08,85.14 L-4.99997768e-08,17.01 C0.00551349052,14.6998331 1.87982647,12.83 4.18999995,12.83 L72.31,12.83 Z M88.375,11.1229816 C89.813715,10.292339 91.5862851,10.292339 93.0250001,11.1229816 C94.4637152,11.9536242 95.3500001,13.4887149 95.35,15.15 C97.9181241,15.15 100,17.2318759 100,19.8 C100,22.3681241 97.9181241,24.45 95.35,24.45 C95.35,27.0181241 93.2681241,29.1 90.7,29.1 C88.131876,29.1 86.05,27.0181241 86.05,24.45 C84.388715,24.45 82.8536244,23.563715 82.0229818,22.125 C81.1923393,20.686285 81.1923393,18.913715 82.0229818,17.4749999 C82.8536244,16.0362849 84.388715,15.1499999 86.05,15.15 C86.0499999,13.4887149 86.9362849,11.9536242 88.375,11.1229816 Z" id="Shape" fill="#000000"></path>
    </g>
</svg>