<?xml version="1.0" encoding="UTF-8"?>
<svg width="100px" height="100px" viewBox="0 0 100 100" version="1.1" xmlns="http://www.w3.org/2000/svg" xmlns:xlink="http://www.w3.org/1999/xlink">
    <!-- Generator: Sketch 57.1 (83088) - https://sketch.com -->
    <title>bold/video-cross-bold</title>
    <desc>Created with Sketch.</desc>
    <g id="bold/video-cross" stroke="none" stroke-width="1" fill="none" fill-rule="evenodd">
        <path d="M72.2178218,10.8910891 C75.6933146,10.8965408 78.5093998,13.712626 78.5148515,17.1881188 L78.5148515,34.6534653 L87.9108911,30.6831683 C90.3747785,29.6257222 93.2063629,29.886526 95.4356436,31.3762376 C97.6758176,32.8466797 99.0206417,35.3500641 99.010028,38.029703 L99.010028,62.2673267 C99.0044377,66.6708013 95.433181,70.2376272 91.029703,70.2376238 C89.9568807,70.2400911 88.8951065,70.0209948 87.9108911,69.5940594 L78.5148515,65.6336634 L78.5148515,83.1089109 C78.5148515,86.5866644 75.6955753,89.4059406 72.2178218,89.4059406 L6.29702966,89.4059406 C2.81927618,89.4059406 -4.99998336e-08,86.5866644 -4.99998336e-08,83.1089109 L-4.99998336e-08,17.1881188 C0.00545171343,13.712626 2.82153688,10.8965408 6.29702966,10.8910891 L72.2178218,10.8910891 Z M69.5148515,19.8910891 L8.99999996,19.8910891 L8.99999996,80.4059406 L69.5148515,80.4059406 L69.5148515,19.8910891 Z M90.009901,39.6039604 L78.5148515,44.4455445 L78.5148515,55.8613861 L90.009901,60.7326733 L90.009901,39.6039604 Z M91.3267327,12.2079208 C92.4484485,10.9972805 94.1423798,10.4969422 95.7418633,10.9038187 C97.3413469,11.3106953 98.5902948,12.5596432 98.9971714,14.1591268 C99.4040479,15.7586103 98.9037096,17.4525416 97.6930694,18.5742574 L96.3762377,19.8910891 L97.6930694,21.2079208 C98.9037096,22.3296366 99.4040479,24.0235679 98.9971714,25.6230514 C98.5902948,27.2225349 97.3413469,28.4714828 95.7418633,28.8783594 C94.1423798,29.285236 92.4484485,28.7848976 91.3267327,27.5742574 L90.009901,26.2574257 L88.6930693,27.5742574 C86.9170137,29.2198575 84.1578538,29.1672781 82.4457829,27.4552073 C80.733712,25.7431364 80.6811326,22.9839764 82.3267327,21.2079208 L83.6435644,19.8910891 L82.3267327,18.5742574 C80.6811326,16.7982017 80.733712,14.0390418 82.4457829,12.3269709 C84.1578538,10.6149 86.9170137,10.5623206 88.6930693,12.2079208 L90.009901,13.5247524 L91.3267327,12.2079208 Z" id="Shape" fill="#000000"></path>
    </g>
</svg>