<svg width="100" height="100" viewBox="0 0 100 100" fill="none" xmlns="http://www.w3.org/2000/svg">
<path fill-rule="evenodd" clip-rule="evenodd" d="M90.8471 31.1879C92.8795 30.3275 95.2081 30.544 97.0471 31.7644C98.8768 32.9698 99.9844 35.0086 100 37.1997V62.5408C100 64.7499 98.8942 66.8123 97.0532 68.0333C95.2123 69.2543 92.8819 69.4714 90.8471 68.6114L78.5765 63.3997V83.8702C78.57 86.7914 76.2035 89.1579 73.2824 89.1644H5.29412C2.37294 89.1579 0.00646996 86.7914 0 83.8702V15.882C0.00646996 12.9608 2.37294 10.5944 5.29412 10.5879H73.2824C76.2035 10.5944 78.57 12.9608 78.5765 15.882V36.3526L90.8471 31.1879ZM5.88235 16.4702V83.282H72.6941V16.4702H5.88235ZM93.8 63.1291C94.0013 63.0018 94.1217 62.7789 94.1177 62.5408V37.1997C94.1198 36.9652 93.9994 36.7466 93.8 36.6232C93.6069 36.4868 93.3554 36.4643 93.1412 36.5644L78.5765 42.7408V57.0114L93.1412 63.1879C93.3554 63.2879 93.6069 63.2655 93.8 63.1291Z" fill="black"/>
<path d="M91.765 18.8235H97.0591C98.0337 18.8235 98.8238 19.6136 98.8238 20.5882C98.8238 21.5628 98.0337 22.3529 97.0591 22.3529H91.765V27.647C91.765 28.6216 90.9749 29.4117 90.0003 29.4117C89.0257 29.4117 88.2356 28.6216 88.2356 27.647V22.3529H82.9415C81.9669 22.3529 81.1768 21.5628 81.1768 20.5882C81.1768 19.6136 81.9669 18.8235 82.9415 18.8235H88.2356V13.5294C88.2356 12.5547 89.0257 11.7646 90.0003 11.7646C90.9749 11.7646 91.765 12.5547 91.765 13.5294V18.8235Z" fill="black"/>
</svg>
