<?xml version="1.0" encoding="UTF-8"?>
<svg width="100px" height="100px" viewBox="0 0 100 100" version="1.1" xmlns="http://www.w3.org/2000/svg" xmlns:xlink="http://www.w3.org/1999/xlink">
    <!-- Generator: Sketch 57.1 (83088) - https://sketch.com -->
    <title>bold/video-bold</title>
    <desc>Created with Sketch.</desc>
    <g id="bold/video" stroke="none" stroke-width="1" fill="none" fill-rule="evenodd">
        <path d="M96.39,30.69 C94.1384265,29.1853913 91.2785263,28.9219794 88.79,29.99 L79.3,34 L79.3,16.36 C79.2944937,12.8497523 76.4502477,10.0055062 72.94,9.99999996 L6.35999996,9.99999996 C2.84975225,10.0055062 0.00550623107,12.8497523 -4.9999997e-08,16.36 L-4.9999997e-08,82.94 C-4.9999997e-08,86.452531 2.84746894,89.3 6.35999996,89.3 L72.94,89.3 C76.452531,89.3 79.3,86.452531 79.3,82.94 L79.3,65.29 L88.79,69.29 C89.7840576,69.7212048 90.8564496,69.942492 91.94,69.94 C96.3875128,69.9400034 99.994482,66.3375094 100.000065,61.89 L100.000065,37.41 C100.010848,34.7035648 98.6525758,32.1751465 96.39,30.69 Z M9.08999996,80.21 L9.08999996,19.09 L70.21,19.09 L70.21,80.21 L9.08999996,80.21 Z M90.91,60.34 L79.3,55.42 L79.3,43.89 L90.91,39 L90.91,60.34 Z" id="video" fill="#000000"></path>
    </g>
</svg>