<?xml version="1.0" encoding="UTF-8"?>
<svg width="100px" height="100px" viewBox="0 0 100 100" version="1.1" xmlns="http://www.w3.org/2000/svg" xmlns:xlink="http://www.w3.org/1999/xlink">
    <!-- Generator: Sketch 57.1 (83088) - https://sketch.com -->
    <title>regular/video-plus-regular</title>
    <desc>Created with Sketch.</desc>
    <g id="regular/video-plus" stroke="none" stroke-width="1" fill="none" fill-rule="evenodd">
        <path d="M73.9999999,10.4997926 C75.1429678,10.492007 76.2418689,10.9404568 77.0529001,11.7458558 C77.8639313,12.5512548 78.320028,13.6470043 78.32,14.79 L78.32,36.87 L91.56,31.25 C93.4328433,30.4431424 95.5872909,30.6427678 97.28,31.78 C98.977941,32.9037183 100.000147,34.8038895 100.000147,36.84 L100.000147,62.5 C100.007976,64.1133242 99.3733556,65.6634514 98.236308,66.8080043 C97.0992604,67.9525571 95.5533418,68.5973618 93.94,68.6 C93.1227057,68.5992098 92.3137123,68.4360514 91.56,68.12 L78.32,62.5 L78.32,84.5 C78.320028,85.6429957 77.8639313,86.7387452 77.0529001,87.5441442 C76.2418689,88.3495432 75.1429678,88.797993 73.9999999,88.7902074 L4.28999995,88.7902074 C1.92069838,88.7902074 -5.00000041e-08,86.8693016 -5.00000041e-08,84.5 L-5.00000041e-08,14.79 C-5.00000041e-08,12.4206984 1.92069838,10.4997926 4.28999995,10.4997926 L73.9999999,10.4997926 Z M73.56,15.26 L4.75999995,15.26 L4.75999995,84.06 L73.56,84.06 L73.56,15.26 Z M94.65,35.75 C94.2866272,35.5030471 93.8214266,35.4614438 93.42,35.64 L78.32,42.04 L78.32,57.3 L93.42,63.7 C93.8214266,63.8785562 94.2866272,63.8369529 94.65,63.59 C95.0183597,63.349837 95.2403415,62.9397352 95.240109,62.5 L95.240109,36.84 C95.2440849,36.3993267 95.0211921,35.9875417 94.65,35.75 Z M92.86,10.5 C94.1744377,10.5 95.24,11.5655623 95.24,12.88 L95.24,15.26 L97.62,15.26 C98.9344378,15.26 100,16.3255623 100,17.64 C100,18.9544377 98.9344378,20.02 97.62,20.02 L95.24,20.02 L95.24,22.4 C95.24,23.7144377 94.1744377,24.78 92.86,24.78 C91.5455623,24.78 90.48,23.7144377 90.48,22.4 L90.48,20.02 L88.1,20.02 C86.7855623,20.02 85.72,18.9544377 85.72,17.64 C85.72,16.3255623 86.7855623,15.26 88.1,15.26 L90.48,15.26 L90.48,12.88 C90.48,11.5655623 91.5455623,10.5 92.86,10.5 Z" id="Shape" fill="#000000"></path>
    </g>
</svg>