<?xml version="1.0" encoding="UTF-8"?>
<svg width="100px" height="100px" viewBox="0 0 100 100" version="1.1" xmlns="http://www.w3.org/2000/svg" xmlns:xlink="http://www.w3.org/1999/xlink">
    <!-- Generator: Sketch 57.1 (83088) - https://sketch.com -->
    <title>solid/video-solid</title>
    <desc>Created with Sketch.</desc>
    <g id="solid/video" stroke="none" stroke-width="1" fill="none" fill-rule="evenodd">
        <path d="M97.28,31.78 C95.5828857,30.6552048 93.4348885,30.4561771 91.56,31.25 L78.32,36.87 L78.32,14.79 C78.320028,13.6470043 77.8639313,12.5512548 77.0529001,11.7458558 C76.2418689,10.9404568 75.1429678,10.492007 74,10.4998949 L4.28999995,10.4998949 C1.92069838,10.4998949 -4.9999997e-08,12.4206984 -4.9999997e-08,14.79 L-4.9999997e-08,84.5 C-4.9999997e-08,86.8693016 1.92069838,88.7901051 4.28999995,88.7901051 L74,88.7901051 C75.1429678,88.797993 76.2418689,88.3495432 77.0529001,87.5441442 C77.8639313,86.7387452 78.320028,85.6429957 78.32,84.5 L78.32,62.5 L91.56,68.12 C92.3137123,68.4360514 93.1227057,68.5992098 93.94,68.6 C95.5533418,68.5973618 97.0992604,67.9525571 98.236308,66.8080043 C99.3733556,65.6634514 100.007976,64.1133242 100.000074,62.5 L100.000074,36.84 C100.000074,34.8038895 98.977941,32.9037183 97.28,31.78 Z" id="video" fill="#000000"></path>
    </g>
</svg>