<?xml version="1.0" encoding="UTF-8"?>
<svg width="100px" height="100px" viewBox="0 0 100 100" version="1.1" xmlns="http://www.w3.org/2000/svg" xmlns:xlink="http://www.w3.org/1999/xlink">
    <!-- Generator: Sketch 57.1 (83088) - https://sketch.com -->
    <title>brand/visa-card-brand</title>
    <desc>Created with Sketch.</desc>
    <g id="brand/visa-card" stroke="none" stroke-width="1" fill="none" fill-rule="evenodd">
        <path d="M91.667,62.979 L86.042,36 L80.643,36 C78.976,36 77.708,36.486 76.996,38.239 L66.632,62.979 L73.958,62.979 C73.958,62.979 75.156,59.645 75.417,58.933 L84.375,58.933 C84.583,59.888 85.208,62.979 85.208,62.979 L91.667,62.979 Z M67.152,54.16 C67.188,51.086 65.313,48.743 61.302,46.816 C58.854,45.583 57.361,44.75 57.361,43.482 C57.396,42.336 58.629,41.156 61.371,41.156 C63.646,41.104 65.313,41.642 66.563,42.18 L67.188,42.475 L68.143,36.642 C66.771,36.104 64.583,35.496 61.893,35.496 C55,35.496 50.156,39.176 50.122,44.419 C50.069,48.291 53.594,50.444 56.232,51.746 C58.924,53.066 59.844,53.933 59.844,55.097 C59.809,56.902 57.656,57.736 55.66,57.736 C52.882,57.736 51.389,57.301 49.115,56.294 L48.194,55.861 L47.222,61.919 C48.854,62.667 51.875,63.326 55,63.3610595 C62.326,63.378 67.101,59.75 67.152,54.16 L67.152,54.16 Z M42.865,62.979 L47.24,36 L40.26,36 L35.903,62.979 L42.865,62.979 Z M26.476,62.944 L37.448,36 L30.069,36 L23.247,54.402 L22.5,50.669 L20.069,38.274 C19.67,36.555 18.438,36.069 16.91,36 L5.677,36 L5.556,36.538 C8.299,37.232 10.747,38.239 12.882,39.506 L19.097,62.944 L26.476,62.944 Z M100,19.333 L100,80.444 C100,85.044 96.268,88.777 91.667,88.777 L8.334,88.777 C3.732,88.777 0,85.044 0,80.444 L0,19.333 C0,14.732 3.732,11 8.334,11 L91.667,11 C96.268,11 100,14.732 100,19.333 L100,19.333 Z M81.614,45.6 C81.614,45.6 82.934,52.058 83.229,53.413 L77.431,53.413 C78.004,51.868 80.208,45.861 80.208,45.861 C80.174,45.913 80.781,44.281 81.129,43.274 L81.614,45.6 Z" id="Fill-1" fill="#000000"></path>
    </g>
</svg>