<?xml version="1.0" encoding="UTF-8"?>
<svg width="100px" height="100px" viewBox="0 0 100 100" version="1.1" xmlns="http://www.w3.org/2000/svg" xmlns:xlink="http://www.w3.org/1999/xlink">
    <!-- Generator: Sketch 57.1 (83088) - https://sketch.com -->
    <title>brand/visa-brand</title>
    <desc>Created with Sketch.</desc>
    <g id="brand/visa" stroke="none" stroke-width="1" fill="none" fill-rule="evenodd">
        <path d="M40.2993,34.5677 L48.3993,34.5677 L43.3333,65.8967 L35.2323,65.8967 L40.2993,34.5677 Z M64.7324,47.1319 C69.4004,49.3649 71.5644,52.0979 71.5324,55.6639 C71.4664,62.1639 65.9334,66.3629 57.4334,66.3629 C53.7994,66.3299 50.2984,65.5619 48.3994,64.6959 L49.5324,57.6639 L50.5994,58.1639 C53.2324,59.3319 54.9654,59.8309 58.2004,59.8309 C60.5324,59.8309 63.0334,58.8629 63.0644,56.7649 C63.0644,55.3979 61.9994,54.3979 58.8654,52.8639 C55.7984,51.3629 51.6994,48.8639 51.7654,44.3639 C51.7994,38.2659 57.4334,33.9999 65.4334,33.9999 C68.5664,33.9999 71.1014,34.6999 72.6994,35.3339 L71.5974,42.0989 L70.8644,41.7669 C69.3984,41.1329 67.4634,40.4999 64.8304,40.5669 C61.6314,40.5669 60.1974,41.9329 60.1644,43.2659 C60.1644,44.7329 61.8994,45.6989 64.7324,47.1319 Z M83.4658,54.7979 L90.1988,54.7979 C89.8648,53.2319 88.3318,45.7329 88.3318,45.7329 L87.7658,43.0329 C87.3648,44.1989 86.6658,46.0999 86.6988,46.0319 C86.6988,46.0319 84.1328,52.9979 83.4658,54.7979 Z M93.4648,34.5679 L99.9998,65.8969 L92.4998,65.8969 C92.4998,65.8969 91.7658,62.2969 91.5328,61.1969 L81.1328,61.1969 C80.8318,62.0289 79.4328,65.8969 79.4328,65.8969 L70.9328,65.8969 L82.9648,37.1669 C83.7988,35.1339 85.2668,34.5679 87.1988,34.5679 L93.4648,34.5679 Z M28.4663,34.5675 L37.0323,34.5675 L24.2993,65.8635 L15.7333,65.8635 L8.5133,38.6415 C6.0223,37.1855 3.1783,36.0135 0.0003,35.2015 L0.1333,34.5675 L13.1663,34.5675 C14.9333,34.6335 16.3663,35.2005 16.8333,37.2015 L19.6653,51.5965 C19.6663,51.5965 19.6663,51.5975 19.6663,51.5985 L20.5333,55.9305 L28.4663,34.5675 Z" id="Shape" fill="#000000"></path>
    </g>
</svg>