<?xml version="1.0" encoding="UTF-8"?>
<svg width="100px" height="100px" viewBox="0 0 100 100" version="1.1" xmlns="http://www.w3.org/2000/svg" xmlns:xlink="http://www.w3.org/1999/xlink">
    <!-- Generator: Sketch 57.1 (83088) - https://sketch.com -->
    <title>regular/volume-regular</title>
    <desc>Created with Sketch.</desc>
    <g id="regular/volume" stroke="none" stroke-width="1" fill="none" fill-rule="evenodd">
        <path d="M82.54,100.000003 C81.6166576,99.9916539 80.7226076,99.6748645 80,99.1 L53.08,77.64 L20.6,77.64 C18.5782274,77.637359 16.6406064,76.8303047 15.2147532,75.3969471 C13.7889,73.9635894 12.992028,72.0217586 12.9999407,70 L12.9999407,30 C13.0055089,25.8049199 16.4049199,22.4055089 20.6,22.4 L53.08,22.4 L80,0.899999951 C81.2385609,-0.0884958197 82.9342909,-0.279026908 84.361333,0.409963511 C85.7883751,1.09895393 86.6937842,2.54534145 86.6900119,4.12999995 L86.6900119,95.88 C86.6900119,97.4643101 85.7798647,98.907706 84.35,99.59 C83.7850111,99.8605676 83.1664334,100.000003 82.54,100.000003 Z M20.6,27.12 C19.8398032,27.1199246 19.1113094,27.4246226 18.5775412,27.9659087 C18.043773,28.5071948 17.749293,29.2398786 17.7597179,30 L17.7597179,70 C17.749293,70.7601214 18.043773,71.4928052 18.5775412,72.0340913 C19.1113094,72.5753774 19.8398032,72.8800754 20.6,72.88 L54.74,72.88 L81.9,94.54 L81.9,5.45999996 L54.74,27.12 L20.6,27.12 Z" id="volume" fill="#000000"></path>
    </g>
</svg>