<?xml version="1.0" encoding="UTF-8"?>
<svg width="100px" height="100px" viewBox="0 0 100 100" version="1.1" xmlns="http://www.w3.org/2000/svg" xmlns:xlink="http://www.w3.org/1999/xlink">
    <!-- Generator: Sketch 57.1 (83088) - https://sketch.com -->
    <title>bold/volume-up-bold</title>
    <desc>Created with Sketch.</desc>
    <g id="bold/volume-up" stroke="none" stroke-width="1" fill="none" fill-rule="evenodd">
        <path d="M59.0526448,9.12538062 C61.0879722,10.0973186 62.3910853,12.1445924 62.41,14.4 L62.41,85.4 C62.3990255,88.6539234 59.7639234,91.2890255 56.51,91.3 L56.51,91.29 C55.1761452,91.2864717 53.8827079,90.8318303 52.84,90 L32.77,74 L8.57999996,74 C3.83977967,73.9944817 -4.99993895e-08,70.1502235 -4.99993895e-08,65.41 L-4.99993895e-08,34.41 C0.00551050677,29.6736813 3.84368123,25.8355105 8.57999996,25.83 L32.77,25.83 L52.84,9.82999996 C54.6059614,8.42693133 57.0173173,8.15344265 59.0526448,9.12538062 Z M86.15,21 C94.9051991,28.0362942 99.9979443,38.6627719 99.9979443,49.895 C99.9979443,61.127228 94.9051991,71.7537058 86.15,78.79 C85.3431703,79.4409884 84.3366981,79.7941365 83.3,79.7900713 C81.3720537,79.7931737 79.652364,78.5783398 79.0110569,76.760178 C78.3697499,74.9420162 78.9467068,72.9171026 80.45,71.71 C87.0518211,66.3948971 90.8908457,58.3755154 90.8908457,49.9 C90.8908457,41.4244846 87.0518211,33.4051029 80.45,28.09 C78.5654445,26.4956194 78.2959628,23.6893574 79.8426644,21.7654777 C81.3893661,19.841598 84.1880021,19.5019469 86.15,21 Z M53.32,21.04 L36,34.9 L9.08999996,34.9 L9.08999996,64.9 L36,64.9 L53.32,78.75 L53.32,21.04 Z M79.58,29.5 C85.7746132,34.4787569 89.3778707,41.9975946 89.3778707,49.945 C89.3778707,57.8924054 85.7746132,65.4112431 79.58,70.39 C78.7664829,71.023062 77.7606509,71.3583394 76.73,71.34 C74.803018,71.3364133 73.087264,70.1193435 72.4469822,68.3018419 C71.8067004,66.4843403 72.3807597,64.4605995 73.88,63.25 C77.931137,60.0007181 80.2884,55.0882209 80.2884,49.895 C80.2884,44.7017791 77.931137,39.7892819 73.88,36.54 C72.2076106,34.8972798 72.0570493,32.2527795 73.5321838,30.430859 C75.0073183,28.6089385 77.6252725,28.205992 79.58,29.5 Z M70.39,35.09 C74.8774572,38.696408 77.4877355,44.1429651 77.4877355,49.9 C77.4877355,55.6570349 74.8774572,61.103592 70.39,64.71 C69.5807904,65.3567037 68.5758791,65.7093042 67.54,65.71 C65.613018,65.7064133 63.897264,64.4893435 63.2569822,62.6718419 C62.6167004,60.8543403 63.1907597,58.8305995 64.69,57.62 C67.0342776,55.7410954 68.398524,52.8993169 68.398524,49.895 C68.398524,46.8906831 67.0342776,44.0489046 64.69,42.17 C63.4252798,41.1517931 62.799837,39.5362109 63.04927,37.9318276 C63.298703,36.3274442 64.3851168,34.9780038 65.89927,34.3918275 C67.4134232,33.8056512 69.1252798,34.071793 70.39,35.09 Z" id="Shape" fill="#000000"></path>
    </g>
</svg>