<?xml version="1.0" encoding="UTF-8"?>
<svg width="100px" height="100px" viewBox="0 0 100 100" version="1.1" xmlns="http://www.w3.org/2000/svg" xmlns:xlink="http://www.w3.org/1999/xlink">
    <!-- Generator: Sketch 57.1 (83088) - https://sketch.com -->
    <title>regular/volume-slash-regular</title>
    <desc>Created with Sketch.</desc>
    <g id="regular/volume-slash" stroke="none" stroke-width="1" fill="none" fill-rule="evenodd">
        <path d="M99.3,1.18999995 C100.208833,2.10617812 100.208833,3.58382179 99.3,4.49999995 L4.05999995,98.8 C3.61548085,99.2476247 3.01084449,99.5 2.37999995,99.5 C1.43590531,99.4932003 0.586712897,98.9243909 0.221119303,98.0539299 C-0.144474292,97.183469 0.0438926818,96.1788846 0.699999951,95.5 L95.94,1.18999995 C96.8710232,0.2698823 98.3689769,0.2698823 99.3,1.18999995 Z M86.8303086,26.87 L86.8303086,95.41 C86.8438728,96.9854446 85.9316537,98.4222875 84.5,99.08 C83.9407718,99.3467168 83.329567,99.4867134 82.71,99.490029 C81.8563082,99.4922857 81.0256853,99.2254697 80.3348548,98.7305907 L80.15,98.59 L53.24,77.36 L35.83,77.36 L40.59,72.64 L54.91,72.64 L82.07,94.09 L82.07,31.58 L86.8303086,26.87 Z M85.2999707,1.40741704 L85.47,1.54999995 L77.14,9.79999996 L54.91,27.35 L20.76,27.35 C20.012088,27.3473431 19.2937537,27.6419043 18.7630247,28.1688826 C18.2805439,28.6479537 17.9890387,29.2834289 17.9380361,29.9569279 L17.93,30.16 L17.93,68.41 L13.7,72.59 C13.3927761,71.8219538 13.2166358,71.0086745 13.1780781,70.1840207 L13.1699957,69.83 L13.1699957,30.16 C13.1916035,26.0688425 16.4551378,22.7513085 20.515445,22.6332262 L20.76,22.63 L53.24,22.63 L80.15,1.39999995 C81.6678091,0.202695683 83.801347,0.216922212 85.2999707,1.40741704 Z" id="Shape" fill="#000000"></path>
    </g>
</svg>