<?xml version="1.0" encoding="UTF-8"?>
<svg width="100px" height="100px" viewBox="0 0 100 100" version="1.1" xmlns="http://www.w3.org/2000/svg" xmlns:xlink="http://www.w3.org/1999/xlink">
    <!-- Generator: Sketch 57.1 (83088) - https://sketch.com -->
    <title>regular/volume-up-regular</title>
    <desc>Created with Sketch.</desc>
    <g id="regular/volume-up" stroke="none" stroke-width="1" fill="none" fill-rule="evenodd">
        <path d="M57.9048378,9.7939475 C59.2057724,10.4275196 60.0280757,11.7510312 60.0199304,13.1980198 L60.0199304,86.8019802 C60.0283045,88.2483896 59.1982264,89.568793 57.8910891,90.1881189 C57.3834732,90.4431684 56.8253826,90.5818455 56.2574257,90.5940594 C55.4077157,90.5940594 54.5834307,90.3041769 53.9207921,89.7722773 L32.4554455,72.6138614 L6.54455441,72.6138614 C2.93235765,72.608409 0.00545233178,69.6815037 -4.99996808e-08,66.0693069 L-4.99996808e-08,33.9009901 C0.00545233178,30.2887933 2.93235765,27.361888 6.54455441,27.3564356 L32.4554455,27.3564356 L53.9207921,10.2277227 C55.0548965,9.32902832 56.6039032,9.16037545 57.9048378,9.7939475 Z M55.3069307,15.1584158 L34.1089109,32.0693069 L6.54455441,32.0693069 C5.53294373,32.0693069 4.71287124,32.8893794 4.71287124,33.9009901 L4.71287124,66.0693069 C4.71287124,67.0809176 5.53294373,67.9009901 6.54455441,67.9009901 L34.1089109,67.9009901 L55.3069307,84.8118812 L55.3069307,15.1584158 Z M85.5346535,21.8514851 C94.0605806,28.7015094 99.0202059,39.0483178 99.0202059,49.9851485 C99.0202059,60.9219792 94.0605806,71.2687877 85.5346535,78.1188119 C85.1127296,78.4546391 84.5887571,78.6362829 84.049505,78.6337187 C83.0507175,78.6347983 82.1597103,78.0061467 81.825897,77.0647932 C81.4920837,76.1234398 81.7879869,75.073898 82.5643565,74.4455446 C89.9807743,68.4921697 94.2956199,59.4954548 94.2956199,49.9851485 C94.2956199,40.4748423 89.9807743,31.4781273 82.5643565,25.5247525 C81.5500118,24.7045275 81.3926466,23.2173151 82.2128714,22.2029704 C83.0330963,21.1886256 84.5203087,21.0312603 85.5346535,21.8514851 Z M78.7128713,30.6138614 C84.5855758,35.3268993 88.0024345,42.4501658 88.0024345,49.980198 C88.0024345,57.5102302 84.5855758,64.6334968 78.7128713,69.3465347 C78.2938847,69.6887955 77.7687246,69.8743521 77.2277228,69.8713654 C76.5112248,69.8754471 75.8324273,69.5506462 75.3861386,68.990099 C74.5729141,67.974505 74.7321329,66.4928853 75.7425743,65.6732673 C80.4990288,61.8527043 83.2660241,56.0810637 83.2660241,49.980198 C83.2660241,43.8793323 80.4990288,38.1076918 75.7425743,34.2871287 C74.7282296,33.4669038 74.5708644,31.9796913 75.3910892,30.9653466 C76.2113141,29.9510019 77.6985265,29.7936366 78.7128713,30.6138614 Z M69.1881188,36.4554455 C73.2877083,39.7479121 75.6726401,44.7221594 75.6726401,49.980198 C75.6726401,55.2382366 73.2877083,60.2124839 69.1881188,63.5049505 C68.7691322,63.8472114 68.2439721,64.0327679 67.7029703,64.0297812 C66.9864723,64.0338629 66.3076748,63.709062 65.8613862,63.1485149 C65.0481616,62.1329209 65.2073804,60.6513011 66.2178218,59.8316832 C69.2042416,57.4357341 70.9418923,53.8138918 70.9418923,49.9851485 C70.9418923,46.1564052 69.2042416,42.534563 66.2178218,40.1386139 C65.2326672,39.3095291 65.0912249,37.8449167 65.8995183,36.8426329 C66.7078117,35.8403491 68.1691445,35.6682973 69.1881188,36.4554455 Z" id="Shape" fill="#000000"></path>
    </g>
</svg>