<?xml version="1.0" encoding="UTF-8"?>
<svg width="100px" height="100px" viewBox="0 0 100 100" version="1.1" xmlns="http://www.w3.org/2000/svg" xmlns:xlink="http://www.w3.org/1999/xlink">
    <!-- Generator: Sketch 57.1 (83088) - https://sketch.com -->
    <title>bold/volume-bold</title>
    <desc>Created with Sketch.</desc>
    <g id="bold/volume" stroke="none" stroke-width="1" fill="none" fill-rule="evenodd">
        <path d="M80.8316832,100 C79.4419322,99.9974533 78.0943104,99.5226435 77.009901,98.6534654 L52.2079208,78.8514852 L22.2970297,78.8514852 C17.0974563,78.8460406 12.8821963,74.6352084 12.8712871,69.4356436 L12.8712871,31.5544554 C12.8767317,26.3494139 17.0919967,22.129721 22.2970297,22.1188119 L52.2079208,22.1188119 L77.009901,2.31683164 C78.858534,0.843752404 81.387966,0.560864744 83.5163489,1.58916083 C85.6447317,2.61745691 86.995179,4.77484974 86.9901211,7.13861382 L86.9901211,93.8514852 C86.996412,96.2123157 85.64399,98.366173 83.5148515,99.3861387 C82.6767818,99.7864316 81.760435,99.9960756 80.8316832,100 Z M22.2970297,31.1188119 C22.0603057,31.1241933 21.8712871,31.3176703 21.8712871,31.5544554 L21.8712871,69.4356436 C21.8712871,69.6707747 22.0618985,69.8613862 22.2970297,69.8613862 L55.3564356,69.8613862 L77.990099,87.9108911 L77.990099,13.0693069 L55.3564356,31.1188119 L22.2970297,31.1188119 Z" id="volume" fill="#000000"></path>
    </g>
</svg>