<?xml version="1.0" encoding="UTF-8"?>
<svg width="100px" height="100px" viewBox="0 0 100 100" version="1.1" xmlns="http://www.w3.org/2000/svg" xmlns:xlink="http://www.w3.org/1999/xlink">
    <!-- Generator: Sketch 57.1 (83088) - https://sketch.com -->
    <title>solid/volume-up-solid</title>
    <desc>Created with Sketch.</desc>
    <g id="solid/volume-up" stroke="none" stroke-width="1" fill="none" fill-rule="evenodd">
        <path d="M56.5445545,10.2673267 C57.7556738,10.8423823 58.5449661,12.0357184 58.6098378,13.3635522 L58.6140165,13.5742574 L58.6140165,85.5049505 C58.6107237,86.9090904 57.8052698,88.1878951 56.5402259,88.7972246 C55.3417632,89.3744842 53.9306065,89.2546522 52.8501825,88.4982819 L52.6732673,88.3663367 L31.6831683,71.6435644 L6.39603956,71.6435644 C2.94260811,71.6382309 0.130134281,68.9007157 0.00438074279,65.4767815 L-4.99995529e-08,65.2475248 L-4.99995529e-08,33.8217822 C0.0053334444,30.3683507 2.74284862,27.5558769 6.16678281,27.4301233 L6.39603956,27.4257426 L31.6831683,27.4257426 L52.6732673,10.7029703 C53.7712152,9.8221646 55.2783078,9.6525685 56.5445545,10.2673267 Z M84.9702971,20.2574257 C93.846692,27.3834655 99.0108624,38.1517351 99.0108624,49.5346535 C99.0108624,60.9175718 93.846692,71.6858414 84.9702971,78.8118812 C84.1535047,79.4678332 83.1366855,79.8242441 82.0891089,79.8218674 C80.1324711,79.830195 78.3852167,78.5983734 77.7357536,76.7526485 C77.0862906,74.9069236 77.6771568,72.8523775 79.2079208,71.6336634 C85.9055462,66.2532774 89.8017152,58.1257383 89.8017152,49.5346535 C89.8017152,40.9435686 85.9055462,32.8160296 79.2079208,27.4356435 C77.8776254,26.4218724 77.2017607,24.76639 77.442451,23.1112507 C77.6831413,21.4561114 78.8025223,20.0616935 80.3664586,19.4688014 C81.9303949,18.8759093 83.6928559,19.1778138 84.9702971,20.2574257 Z M78.3168317,28.8415841 C84.6067684,33.8832041 88.2671416,41.508213 88.2671416,49.5693069 C88.2671416,57.6304009 84.6067684,65.2554097 78.3168317,70.2970297 C77.4985655,70.9480149 76.4812205,71.297618 75.4356436,71.2875776 C73.4799944,71.2887566 71.7367226,70.0547181 71.0882913,68.2096969 C70.4398599,66.3646757 71.0277862,64.3113394 72.5544555,63.0891089 C76.6546305,59.7927367 79.0394869,54.8153969 79.0394869,49.5544554 C79.0394869,44.293514 76.6546305,39.3161742 72.5544555,36.019802 C71.22416,35.0060308 70.5482954,33.3505484 70.7889857,31.6954091 C71.0296759,30.0402698 72.1490569,28.6458519 73.7129932,28.0529598 C75.2769295,27.4600677 77.0393905,27.7619722 78.3168317,28.8415841 Z M69.009901,34.5346534 C73.5536471,38.1881218 76.196447,43.7042625 76.196447,49.5346535 C76.196447,55.3650444 73.5536471,60.8811852 69.009901,64.5346535 C68.1960424,65.1970251 67.178043,65.5573479 66.1287129,65.5544898 C64.1764102,65.5550524 62.4360073,64.3242555 61.7860088,62.4833351 C61.1360103,60.6424146 61.7177664,58.5917019 63.2376238,57.3663366 C65.6096293,55.4607398 66.9894695,52.5822524 66.9894695,49.539604 C66.9894695,46.4969556 65.6096293,43.6184681 63.2376238,41.7128713 C61.2554138,40.1189009 60.9406833,37.2198339 62.5346536,35.2376238 C64.1286239,33.2554138 67.0276909,32.9406832 69.009901,34.5346534 Z" id="Shape" fill="#000000"></path>
    </g>
</svg>