<svg width="100" height="100" viewBox="0 0 100 100" fill="none" xmlns="http://www.w3.org/2000/svg">
<g clip-path="url(#clip0)">
<path d="M69.4034 1.0243C70.7989 -0.103075 72.7215 -0.318747 74.3321 0.471432C75.964 1.24523 76.9939 2.9004 76.9676 4.70619V95.2829C76.9752 97.0865 75.9517 98.7359 74.3321 99.5295C73.6968 99.8345 73.0019 99.9952 72.2971 100C71.2452 99.9919 70.2264 99.6316 69.4034 98.9766L42.9949 77.8969H11.0931C6.62609 77.8904 3.00648 74.2708 3 69.8038V30.1971C3 25.7255 6.6215 22.0987 11.0931 22.0922H42.9949L69.4034 1.0243Z" fill="black"/>
<path d="M82.832 32.7575C84.4212 30.7742 87.2981 30.4112 89.33 31.9377H89.3418C94.8141 36.334 97.9974 42.9748 97.9974 49.9942C97.9974 57.0137 94.8141 63.6545 89.3418 68.0508C88.5092 68.7242 87.4718 69.0935 86.401 69.0977C84.4024 69.1011 82.6198 67.8417 81.9553 65.9568C81.2908 64.0719 81.8895 61.9729 83.4484 60.7223C86.6988 58.1123 88.5897 54.1687 88.5897 50.0001C88.5897 45.8315 86.6988 41.888 83.4484 39.278C81.5157 37.6276 81.2428 34.7408 82.832 32.7575Z" fill="black"/>
</g>
<defs>
<clipPath id="clip0">
<rect width="100" height="100" fill="white"/>
</clipPath>
</defs>
</svg>
