<?xml version="1.0" encoding="UTF-8"?>
<svg width="100px" height="100px" viewBox="0 0 100 100" version="1.1" xmlns="http://www.w3.org/2000/svg" xmlns:xlink="http://www.w3.org/1999/xlink">
    <!-- Generator: Sketch 57.1 (83088) - https://sketch.com -->
    <title>solid/volume-slash-solid</title>
    <desc>Created with Sketch.</desc>
    <g id="solid/volume-slash" stroke="none" stroke-width="1" fill="none" fill-rule="evenodd">
        <path d="M95.7418633,1.00282863 C97.3413469,1.40970521 98.5902948,2.65865313 98.9971714,4.25813665 C99.4040479,5.85762017 98.9037096,7.55155149 97.6930694,8.67326729 L7.68316827,98.6831684 C6.84152954,99.5280383 5.69749258,100.002047 4.50495045,100.000013 C2.68557385,99.9981396 1.04590701,98.9020803 0.348607404,97.2216315 C-0.348692199,95.5411828 0.0332698147,93.6062517 1.31683163,92.3168317 L91.3267327,2.30693065 C92.4484485,1.09629042 94.1423798,0.595952053 95.7418633,1.00282863 Z M84.3168317,31.5940594 L84.3168317,93.8514852 C84.3117097,95.3437664 83.4557006,96.7023671 82.1118164,97.3511388 C80.8351264,97.9674719 79.3306777,97.8405746 78.1788522,97.0339855 L78,96.9009901 L52.5742574,76.6138614 L39.2970297,76.6138614 L84.3168317,31.5940594 Z M80.5876107,3.24972643 L80.8217822,3.26732669 L14.7029703,69.3960396 L14.7029703,31.5544554 C14.7083127,27.6731568 17.7893189,24.5130495 21.6395668,24.3805554 L21.8811881,24.3762376 L52.5742574,24.3762376 L77.990099,4.08910886 C78.7285951,3.50403391 79.6516098,3.2076463 80.5876107,3.24972643 L80.5876107,3.24972643 Z" id="Shape" fill="#000000"></path>
    </g>
</svg>