<?xml version="1.0" encoding="UTF-8"?>
<svg width="100px" height="100px" viewBox="0 0 100 100" version="1.1" xmlns="http://www.w3.org/2000/svg" xmlns:xlink="http://www.w3.org/1999/xlink">
    <!-- Generator: Sketch 57.1 (83088) - https://sketch.com -->
    <title>solid/wallet-solid</title>
    <desc>Created with Sketch.</desc>
    <g id="solid/wallet" stroke="none" stroke-width="1" fill="none" fill-rule="evenodd">
        <path d="M12.47,28.75 C11.1555623,28.75 10.09,27.6844377 10.09,26.37 C10.09,25.0555623 11.1555623,23.99 12.47,23.99 L82.73,23.99 C81.73,18.03 77.08,13.5 71.49,13.5 L13.1,13.5 C5.86999996,13.5 -4.9999997e-08,20.13 -4.9999997e-08,28.29 L-4.9999997e-08,72.66 C0.00180887637,73.0364783 0.0944297936,73.406962 0.26999995,73.74 C1.49999995,80.5 6.77999996,85.5 13.1,85.5 L91.67,85.5 C96.26,85.5 100,81.34 100,76.23 L100,33.23 C100.001254,31.6647996 99.6383553,30.120769 98.94,28.72 L12.47,28.75 Z M89,58.1 C87.155369,58.1 85.66,56.6046311 85.66,54.76 C85.66,52.9153689 87.155369,51.42 89,51.42 C90.8446311,51.42 92.34,52.9153689 92.34,54.76 C92.34,56.6046311 90.8446311,58.1 89,58.1 L89,58.1 Z" id="wallet" fill="#000000"></path>
    </g>
</svg>