<?xml version="1.0" encoding="UTF-8"?>
<svg width="100px" height="100px" viewBox="0 0 100 100" version="1.1" xmlns="http://www.w3.org/2000/svg" xmlns:xlink="http://www.w3.org/1999/xlink">
    <!-- Generator: Sketch 57.1 (83088) - https://sketch.com -->
    <title>regular/wand-regular</title>
    <desc>Created with Sketch.</desc>
    <g id="regular/wand" stroke="none" stroke-width="1" fill="none" fill-rule="evenodd">
        <path d="M98.6078432,39.8529412 L89.0882353,27.1078431 L94.1960785,12.0490196 C94.7505287,10.4159078 94.3294088,8.60963571 93.1098865,7.39011347 C91.8903643,6.17059123 90.0840922,5.7494713 88.4509804,6.30392152 L73.3921569,11.4019607 L60.6372549,1.88235289 C59.2583613,0.843528105 57.4059906,0.687258152 55.872549,1.48039211 C54.3438766,2.26906357 53.3969717,3.85864681 53.4313726,5.57843133 L53.6372549,21.4803921 L40.6078431,30.6666666 C39.2038629,31.6660388 38.4868969,33.374266 38.7570609,35.0762991 C39.0272249,36.7783321 40.2379174,38.1805818 41.8823529,38.6960784 L48.1372549,40.6568627 L3.89215682,84.882353 C0.643423134,88.1310868 0.643423202,93.398325 3.89215697,96.6470587 C7.14089073,99.8957925 12.4081289,99.8957926 15.6568627,96.6470589 L59.8529412,52.3529412 L61.8137255,58.6078431 C62.3096073,60.2623054 63.7068583,61.4882314 65.4117647,61.7647059 C65.6662283,61.7858487 65.9220071,61.7858487 66.1764706,61.7647059 C67.6532904,61.7585932 69.0322415,61.0251086 69.8627451,59.8039216 L79.0490196,46.8235294 L94.9117648,47.0588235 C96.6364046,47.0784893 98.2231906,46.1190423 99.0069719,44.5826646 C99.7907531,43.046287 99.6361012,41.1984474 98.6078432,39.8137255 L98.6078432,39.8529412 Z M12.3333333,93.2941177 C10.9025904,94.6548414 8.65623308,94.6548414 7.22549015,93.2941177 C6.54658422,92.6156155 6.16514487,91.6951267 6.16514487,90.7352942 C6.16514487,89.7754616 6.54658422,88.8549728 7.22549015,88.1764706 L12.7352941,82.6666667 L17.8431372,87.7843138 L12.3333333,93.2941177 Z M21.1568627,84.4705883 L16.0098039,79.4117647 L53.1764706,42.2058823 L57.0980392,43.4117647 L58.3137255,47.3333333 L21.1568627,84.4705883 Z M79,42.2156863 C77.5020616,42.2228689 76.0998475,42.9531887 75.2352941,44.1764706 L66.1764706,56.9607843 L61.5098039,41.9607843 C61.0641483,40.5615845 59.9678272,39.4652634 58.5686275,39.0196078 L43.5294118,34.3137255 L56.372549,25.2549019 C57.607448,24.4005451 58.341165,22.9918084 58.3333333,21.490196 L58.1372549,5.80392152 L70.7156863,15.1862745 C71.9115703,16.0863455 73.4754938,16.3359858 74.8921569,15.8529411 L89.7058824,10.7843137 L84.6470589,25.6666666 C84.1639661,27.0801208 84.4137344,28.6411726 85.3137255,29.8333333 L94.6960785,42.4215686 L79,42.2156863 Z" id="wand" fill="#000000"></path>
    </g>
</svg>