<?xml version="1.0" encoding="UTF-8"?>
<svg width="100px" height="100px" viewBox="0 0 100 100" version="1.1" xmlns="http://www.w3.org/2000/svg" xmlns:xlink="http://www.w3.org/1999/xlink">
    <!-- Generator: Sketch 57.1 (83088) - https://sketch.com -->
    <title>regular/warning-regular</title>
    <desc>Created with Sketch.</desc>
    <g id="regular/warning" stroke="none" stroke-width="1" fill="none" fill-rule="evenodd">
        <path d="M50,5.99591053 C52.4599431,5.99591053 54.7391443,7.26323523 56.039576,9.33636014 L56.18,9.56999996 L99,83.78 C100.270986,85.9854059 100.273649,88.7002255 99.0069926,90.9081208 C97.785574,93.0371626 95.5615025,94.385235 93.1219125,94.4931378 L92.85,94.5 L7.14999996,94.5 C4.60461896,94.484021 2.25966371,93.116016 0.993007377,90.9081208 C-0.226735757,88.7819994 -0.269441854,86.1858083 0.863998801,84.0270898 L0.999999951,83.78 L43.82,9.56999996 C45.0922739,7.35884957 47.4489479,5.99591053 50,5.99591053 Z M50,10.8119731 C49.2071539,10.8119731 48.4704066,11.2063812 48.0297963,11.8567646 L47.94,12 L5.08999996,86.16 C4.6664773,86.8976419 4.66690736,87.8047918 5.09112924,88.5420318 C5.48504955,89.2266118 6.18925605,89.668886 6.96885988,89.7322012 L7.14999996,89.740046 L92.82,89.740046 C93.6142642,89.7435105 94.352879,89.3476556 94.790842,88.6939703 L94.88,88.55 L94.91,88.55 C95.3142618,87.8654679 95.3431376,87.0270814 94.9966276,86.3205701 L94.91,86.16 L52.06,12 C51.6345568,11.2647375 50.8494779,10.8119731 50,10.8119731 Z M50,72.51 C51.3144377,72.51 52.38,73.5755623 52.38,74.89 C52.38,76.2044377 51.3144377,77.27 50,77.27 C48.6855623,77.27 47.62,76.2044377 47.62,74.89 C47.62,73.5755623 48.6855623,72.51 50,72.51 Z M50,30.6900001 C51.2596694,30.6900001 52.2907711,31.6686154 52.3745093,32.9070506 L52.38,33.07 L52.38,68.35 C52.3745212,69.6621616 51.3121616,70.7245212 50,70.73 C48.7425118,70.7247495 47.7144425,69.7488567 47.6261311,68.5126608 L47.62,68.35 L47.62,33.07 C47.62,31.7555623 48.6855623,30.6900001 50,30.6900001 Z" id="Shape" fill="#000000"></path>
    </g>
</svg>