<?xml version="1.0" encoding="UTF-8"?>
<svg width="100px" height="100px" viewBox="0 0 100 100" version="1.1" xmlns="http://www.w3.org/2000/svg" xmlns:xlink="http://www.w3.org/1999/xlink">
    <!-- Generator: Sketch 57.1 (83088) - https://sketch.com -->
    <title>solid/warning-solid</title>
    <desc>Created with Sketch.</desc>
    <g id="solid/warning" stroke="none" stroke-width="1" fill="none" fill-rule="evenodd">
        <path d="M99,83.79 L56.18,9.56999996 C54.9077261,7.35884957 52.5510521,5.99591053 50,5.99591053 C47.4489479,5.99591053 45.0922739,7.35884957 43.82,9.56999996 L0.999999951,83.79 C-0.272493455,85.9939591 -0.275691621,88.7086257 0.991605264,90.9155768 C2.25890215,93.122528 4.60509656,94.4881036 7.14999996,94.5 L92.85,94.5 C95.3949034,94.4881036 97.7410979,93.122528 99.0083947,90.9155768 C100.275692,88.7086257 100.272493,85.9939591 99,83.79 Z M47.62,33.07 C47.62,31.7555623 48.6855623,30.69 50,30.69 C51.3144377,30.69 52.38,31.7555623 52.38,33.07 L52.38,68.35 C52.38,69.6644377 51.3144377,70.73 50,70.73 C48.6855623,70.73 47.62,69.6644377 47.62,68.35 L47.62,33.07 Z M50,77.27 C48.6855623,77.27 47.62,76.2044377 47.62,74.89 C47.62,73.5755623 48.6855623,72.51 50,72.51 C51.3144377,72.51 52.38,73.5755623 52.38,74.89 C52.38,76.2044377 51.3144377,77.27 50,77.27 Z" id="warning" fill="#000000"></path>
    </g>
</svg>