<?xml version="1.0" encoding="UTF-8"?>
<svg width="100px" height="100px" viewBox="0 0 100 100" version="1.1" xmlns="http://www.w3.org/2000/svg" xmlns:xlink="http://www.w3.org/1999/xlink">
    <!-- Generator: Sketch 57.1 (83088) - https://sketch.com -->
    <title>brand/xing-square-brand</title>
    <desc>Created with Sketch.</desc>
    <g id="brand/xing-square" stroke="none" stroke-width="1" fill="none" fill-rule="evenodd">
        <path d="M79.6045,17.203 L57.2265,56.725 C57.2125,56.746 57.2125,56.771 57.2265,56.792 L71.4745,82.795 C71.7575,83.354 71.7645,83.924 71.4965,84.355 C71.2385,84.77 70.7625,85 70.1545,85 L60.0585,85 C58.5105,85 57.7365,83.972 57.2365,83.077 C57.2365,83.077 42.9115,56.828 42.8755,56.76 C43.5915,55.493 65.3655,16.923 65.3655,16.923 C65.9075,15.95 66.5615,15 68.0715,15 L78.2815,15 C78.8895,15 79.3685,15.229 79.6255,15.644 C79.8915,16.076 79.8845,16.645 79.6045,17.203 M31.8125,64.045 L21.7065,64.045 C21.0975,64.045 20.6425,63.771 20.3855,63.356 C20.1195,62.925 20.1045,62.365 20.3855,61.807 L31.1245,42.878 C31.1355,42.857 31.1355,42.844 31.1245,42.82 L24.2905,31.004 C24.0075,30.442 23.9665,29.887 24.2325,29.455 C24.4905,29.038 25.0025,28.824 25.6115,28.824 L35.7175,28.824 C37.2685,28.824 38.0285,29.822 38.5315,30.718 C38.5315,30.718 45.4385,42.754 45.4805,42.82 C45.0715,43.541 34.5695,62.095 34.5695,62.095 C34.0525,63.026 33.3245,64.045 31.8125,64.045 M94.4805,0 L5.5205,0 C2.4715,0 0.0005,2.472 0.0005,5.52 L0.0005,94.48 C0.0005,97.528 2.4715,100 5.5205,100 L94.4805,100 C97.5285,100 100.0005,97.528 100.0005,94.48 L100.0005,5.52 C100.0005,2.472 97.5285,0 94.4805,0" id="Fill-1" fill="#000000"></path>
    </g>
</svg>