<svg width="100" height="100" viewBox="0 0 100 100" fill="none" xmlns="http://www.w3.org/2000/svg">
<path fill-rule="evenodd" clip-rule="evenodd" d="M79.6045 17.203L57.2265 56.725C57.2125 56.746 57.2125 56.771 57.2265 56.792L71.4745 82.795C71.7575 83.354 71.7645 83.924 71.4965 84.355C71.2385 84.77 70.7625 85 70.1545 85H60.0585C58.5105 85 57.7365 83.972 57.2365 83.077C57.2365 83.077 42.9115 56.828 42.8755 56.76C43.5915 55.493 65.3655 16.923 65.3655 16.923C65.9075 15.95 66.5615 15 68.0715 15H78.2815C78.8895 15 79.3685 15.229 79.6255 15.644C79.8915 16.076 79.8845 16.645 79.6045 17.203ZM31.8125 64.045H21.7065C21.0975 64.045 20.6425 63.771 20.3855 63.356C20.1195 62.925 20.1045 62.365 20.3855 61.807L31.1245 42.878C31.1355 42.857 31.1355 42.844 31.1245 42.82L24.2905 31.004C24.0075 30.442 23.9665 29.887 24.2325 29.455C24.4905 29.038 25.0025 28.824 25.6115 28.824H35.7175C37.2685 28.824 38.0285 29.822 38.5315 30.718C38.5315 30.718 45.4385 42.754 45.4805 42.82C45.0715 43.541 34.5695 62.095 34.5695 62.095C34.0525 63.026 33.3245 64.045 31.8125 64.045ZM94.4805 0H5.52049C2.47149 0 0.000488281 2.472 0.000488281 5.52V94.48C0.000488281 97.528 2.47149 100 5.52049 100H94.4805C97.5285 100 100 97.528 100 94.48V5.52C100 2.472 97.5285 0 94.4805 0Z" fill="black"/>
</svg>
