<?xml version="1.0" encoding="UTF-8"?>
<svg width="100px" height="100px" viewBox="0 0 100 100" version="1.1" xmlns="http://www.w3.org/2000/svg" xmlns:xlink="http://www.w3.org/1999/xlink">
    <!-- Generator: Sketch 57.1 (83088) - https://sketch.com -->
    <title>brand/xing-brand</title>
    <desc>Created with Sketch.</desc>
    <g id="brand/xing" stroke="none" stroke-width="1" fill="none" fill-rule="evenodd">
        <path d="M79.18,35.3096 L83.062,35.3096 C83.658,35.3096 83.95,35.6926 84.143,36.0366 C84.143,36.0366 86.795,40.6596 86.811,40.6846 C86.655,40.9616 82.62,48.0876 82.62,48.0876 C82.422,48.4456 82.143,48.8366 81.562,48.8366 L77.68,48.8366 C77.447,48.8366 77.272,48.7316 77.173,48.5726 C77.071,48.4066 77.066,48.1916 77.173,47.9776 L81.297,40.7066 C81.302,40.6996 81.302,40.6936 81.297,40.6846 L78.673,36.1466 C78.564,35.9306 78.548,35.7176 78.651,35.5516 C78.749,35.3916 78.947,35.3096 79.18,35.3096 Z M62.087,43.7906 L63.101,43.7906 C66.219,43.7906 68.025,44.5316 68.659,44.8486 C69.157,45.0986 69.321,45.2866 69.321,45.6206 L69.321,48.5726 C69.321,48.7736 69.245,48.9376 69.122,49.0356 C69.002,49.1296 68.827,49.1626 68.637,49.1006 C67.41,48.7066 65.493,48.1536 63.013,48.1536 L62.263,48.1536 C60.554,48.1536 59.353,48.6366 58.558,49.6296 C57.831,50.5376 57.477,51.8616 57.477,53.6616 L57.477,60.0066 C57.477,63.4696 58.806,65.1626 61.535,65.1626 C63.602,65.1626 65.268,64.5306 65.284,64.5226 C65.294,64.5196 65.307,64.5126 65.307,64.5006 L65.307,59.3016 C65.307,59.2866 65.3,59.2796 65.284,59.2796 L61.712,59.2796 C61.338,59.2796 61.073,59.0146 61.073,58.6406 L61.073,55.5556 C61.073,55.1826 61.338,54.9166 61.712,54.9166 L69.387,54.9166 C69.761,54.9166 70.027,55.1826 70.027,55.5556 L70.027,67.5846 C69.765,67.7146 66.014,69.5246 61.381,69.5246 C55.652,69.5246 52.757,66.4326 52.757,60.3596 L52.757,53.6616 C52.757,47.3026 56.063,43.7906 62.087,43.7906 Z M0.816,44.1226 L5.117,44.1226 C5.647,44.1226 5.816,44.4596 5.977,44.7836 C5.978,44.7836 10.035,52.3176 10.035,52.3176 C10.039,52.3256 10.047,52.3396 10.057,52.3396 C10.068,52.3396 10.075,52.3256 10.079,52.3176 L14.138,44.7836 C14.33,44.3986 14.505,44.1226 14.997,44.1226 L19.321,44.1226 C19.498,44.1226 19.637,44.1906 19.718,44.3206 C19.761,44.3896 19.784,44.4766 19.784,44.5626 C19.784,44.6486 19.761,44.7396 19.718,44.8276 L13.388,56.3056 C13.385,56.3086 13.388,56.3236 13.388,56.3276 C13.388,56.3316 13.385,56.3446 13.388,56.3496 C13.388,56.3496 20.07,68.3986 20.071,68.4006 C20.114,68.4876 20.137,68.5786 20.137,68.6646 C20.137,68.7496 20.115,68.8366 20.071,68.9076 C19.991,69.0376 19.852,69.1056 19.674,69.1056 L15.35,69.1056 C14.858,69.1056 14.704,68.8296 14.513,68.4446 C14.512,68.4436 10.079,60.3366 10.079,60.3366 C10.075,60.3286 10.068,60.3146 10.057,60.3146 C10.047,60.3146 10.039,60.3286 10.035,60.3366 L5.624,68.4446 C5.431,68.8306 5.256,69.1056 4.763,69.1056 L0.463,69.1056 C0.284,69.1056 0.145,69.0376 0.066,68.9076 C-0.022,68.7666 -0.022,68.5746 0.066,68.4006 L6.727,56.3496 C6.731,56.3416 6.731,56.3136 6.727,56.3056 L0.419,44.8276 C0.332,44.6546 0.331,44.4596 0.419,44.3206 C0.499,44.1906 0.638,44.1226 0.816,44.1226 Z M23.268,44.1226 L26.687,44.1226 C27.06,44.1226 27.327,44.3876 27.327,44.7606 L27.327,68.4666 C27.327,68.8386 27.06,69.1056 26.687,69.1056 L23.268,69.1056 C22.895,69.1056 22.629,68.8386 22.629,68.4666 L22.629,44.7606 C22.629,44.3876 22.895,44.1226 23.268,44.1226 Z M32.4,44.1226 L35.951,44.1226 C36.481,44.1226 36.648,44.4606 36.811,44.7836 L44.222,59.0596 C44.228,59.0696 44.254,59.0626 44.265,59.0596 C44.277,59.0566 44.288,59.0496 44.288,59.0376 L44.288,44.7606 C44.288,44.3876 44.554,44.1226 44.928,44.1226 L48.346,44.1226 C48.719,44.1226 48.986,44.3876 48.986,44.7606 L48.986,68.4666 C48.986,68.8386 48.719,69.1056 48.346,69.1056 L44.773,69.1056 C44.303,69.1056 44.065,68.7486 43.913,68.4446 C43.913,68.4436 36.502,54.1676 36.502,54.1676 C36.497,54.1576 36.492,54.1426 36.48,54.1466 C36.469,54.1486 36.458,54.1566 36.458,54.1676 L36.458,68.4666 C36.458,68.8386 36.192,69.1056 35.818,69.1056 L32.4,69.1056 C32.027,69.1056 31.738,68.8386 31.738,68.4666 L31.738,44.7606 C31.738,44.3876 32.027,44.1226 32.4,44.1226 Z M95.4876,30 L99.4096,30 C99.6426,30 99.8266,30.088 99.9246,30.247 C100.0276,30.413 100.0246,30.632 99.9176,30.846 L91.3226,46.025 C91.3176,46.033 91.3176,46.043 91.3226,46.051 L96.7956,56.038 C96.9036,56.253 96.9066,56.472 96.8026,56.638 C96.7046,56.797 96.5216,56.885 96.2886,56.885 L92.4106,56.885 C91.8156,56.885 91.5186,56.49 91.3266,56.146 C91.3266,56.146 85.8246,46.065 85.8106,46.038 C86.0866,45.552 94.4486,30.738 94.4486,30.738 C94.6566,30.364 94.9086,30 95.4876,30 Z" id="Shape" fill="#000000"></path>
    </g>
</svg>