<svg width="100" height="100" viewBox="0 0 100 100" fill="none" xmlns="http://www.w3.org/2000/svg">
<path fill-rule="evenodd" clip-rule="evenodd" d="M14.7583 19.7491H29.1963C31.4113 19.7491 32.4983 21.1751 33.2163 22.4531C33.2163 22.4531 43.0843 39.6481 43.1433 39.7441C42.5583 40.7731 27.5563 67.2771 27.5563 67.2771C26.8173 68.6081 25.7773 70.0631 23.6183 70.0631H9.1793C8.3103 70.0631 7.6603 69.6741 7.2933 69.0801C6.9123 68.4641 6.8923 67.6641 7.2933 66.8681L22.6333 39.8261C22.6503 39.7961 22.6503 39.7761 22.6333 39.7441L12.8713 22.8631C12.4673 22.0601 12.4083 21.2671 12.7893 20.6501C13.1563 20.0541 13.8883 19.7491 14.7583 19.7491ZM75.415 0H90.001C90.871 0 91.554 0.328 91.921 0.921C92.302 1.537 92.292 2.351 91.892 3.146L59.924 59.607C59.903 59.637 59.903 59.673 59.924 59.702L80.278 96.851C80.682 97.65 80.691 98.463 80.308 99.079C79.94 99.673 79.261 100 78.392 100H63.97C61.758 100 60.652 98.531 59.936 97.253C59.936 97.253 39.474 59.755 39.421 59.656C40.445 57.848 71.55 2.747 71.55 2.747C72.324 1.357 73.26 0 75.415 0Z" fill="black"/>
</svg>
