<?xml version="1.0" encoding="UTF-8"?>
<svg width="100px" height="100px" viewBox="0 0 100 100" version="1.1" xmlns="http://www.w3.org/2000/svg" xmlns:xlink="http://www.w3.org/1999/xlink">
    <!-- Generator: Sketch 57.1 (83088) - https://sketch.com -->
    <title>brand/youtube-brand</title>
    <desc>Created with Sketch.</desc>
    <g id="brand/youtube" stroke="none" stroke-width="1" fill="none" fill-rule="evenodd">
        <path d="M12.7559,54.9321 L21.0499,50.1551 L12.7559,45.3781 L12.7559,54.9321 Z M31.2079,42.4911 C31.8899,44.9841 31.8631885,50.1811 31.8631885,50.1811 C31.8631885,50.1811 31.8631885,55.3521 31.2079,57.8451 C30.8399,59.2101 29.7639,60.2861 28.3989,60.6541 C25.9049,61.3101 15.9319,61.3101 15.9319,61.3101 C15.9319,61.3101 5.9849,61.3101 3.4639,60.6271 C2.0999,60.2601 1.0239,59.1841 0.6559,57.8191 C-9.99999991e-05,55.3521 -9.99999991e-05,50.1551 -9.99999991e-05,50.1551 C-9.99999991e-05,50.1551 -9.99999991e-05,44.9841 0.6559,42.4911 C1.0239,41.1261 2.1259,40.0241 3.4639,39.6561 C5.9579,39.0001 15.9319,39.0001 15.9319,39.0001 C15.9319,39.0001 25.9049,39.0001 28.3989,39.6821 C29.7639,40.0501 30.8399,41.1261 31.2079,42.4911 Z M50.0786,54.8794 L50.0786,50.5224 C50.0786,49.5254 49.9996,48.7904 49.8166,48.3174 C49.6326,47.8454 49.3436,47.6354 48.8976,47.6354 C48.4776,47.6354 48.1626,47.8714 48.0056,48.3174 C47.8216,48.7904 47.7426,49.5254 47.7426,50.5224 L47.7426,54.8794 C47.7426,55.9024 47.8216,56.6644 48.0056,57.1094 C48.1626,57.5564 48.4776,57.7924 48.9236,57.7924 C49.3436,57.7924 49.6326,57.5824 49.8166,57.1094 C49.9996,56.6644 50.0786,55.9024 50.0786,54.8794 Z M51.4436,46.1124 C52.0736,46.5324 52.5196,47.2154 52.8086,48.1084 C53.0966,49.0004 53.2546,50.2074 53.2546,51.7304 L53.2546,53.7504 C53.2546,55.2464 53.1226,56.4284 52.8346,57.3464 C52.5456,58.2384 52.0996,58.9214 51.4696,59.3414 C50.8396,59.7614 49.9736,59.9714 48.8976,59.9714 C47.7956,59.9444 46.9026,59.7344 46.2726,59.3154 C45.6426,58.8954 45.1966,58.2384 44.9346,57.3194 C44.6716,56.4284 44.5406,55.2204 44.5406,53.7504 L44.5406,51.7304 C44.5406,50.2334 44.6986,49.0254 44.9866,48.1084 C45.3016,47.1894 45.7746,46.5324 46.4046,46.1124 C47.0606,45.6924 47.9006,45.4834 48.9506,45.4834 C49.9736,45.4834 50.8136,45.6924 51.4436,46.1124 Z M94.7246,50.9165 L94.7246,51.9135 L97.0346,51.9135 L97.0346,50.9165 C97.0346,50.0235 97.0076,49.3415 96.9546,48.8685 C96.9036,48.3955 96.7716,48.0815 96.6146,47.8975 C96.4566,47.7145 96.1946,47.6085 95.8786,47.6085 C95.5116,47.5825 95.2756,47.6875 95.1186,47.8975 C94.9606,48.1075 94.8556,48.4225 94.8026,48.8685 C94.7506,49.3145 94.7246,49.9975 94.7246,50.9165 Z M94.7246,53.7245 L94.7246,54.4855 C94.7246,55.3785 94.7506,56.0605 94.8026,56.5065 C94.8556,56.9525 94.9606,57.2945 95.1446,57.4785 C95.3016,57.6875 95.5646,57.7925 95.9316,57.7925 C96.4046,57.7925 96.7186,57.6085 96.9036,57.2415 C97.0866,56.8745 97.1646,56.2705 97.1916,55.4035 L99.8946,55.5625 C99.9206,55.6925 99.9206,55.8505 99.9206,56.0605 C99.9206,57.3465 99.5796,58.3175 98.8706,58.9475 C98.1626,59.5775 97.1646,59.8925 95.8786,59.8925 C94.3306,59.8925 93.2546,59.3945 92.6246,58.4225 C91.9956,57.4515 91.6796,55.9555 91.6796,53.9085 L91.6796,51.4675 C91.6796,49.3675 91.9956,47.8455 92.6516,46.8745 C93.3066,45.9025 94.4096,45.4305 95.9576,45.4305 C97.0346,45.4305 97.8736,45.6405 98.4516,46.0345 C99.0296,46.4285 99.4226,47.0585 99.6596,47.8715 C99.8946,48.7115 99.9996,49.8655 99.9996,51.3365 L99.9996,53.7245 L94.7246,53.7245 Z M42.231,40.5747 L45.355,40.5747 L41.732,53.5137 L41.732,59.7087 L38.635,59.7087 L38.635,53.5137 L38.609,53.5137 L35.04,40.5747 L38.163,40.5747 L39.422,46.4287 C39.737,47.8717 39.974,49.1047 40.131,50.1287 L40.21,50.1287 C40.315,49.3937 40.551,48.1857 40.919,46.4547 L42.231,40.5747 Z M60.2627,56.8481 L60.2627,45.7451 L63.4117,45.7451 L63.4117,59.7351 L60.9457,59.7351 L60.6827,58.0291 L60.6037,58.0291 C59.9477,59.3151 58.9237,59.9711 57.5847,59.9711 C56.6667,59.9711 55.9847,59.6561 55.5377,59.0521 C55.0917,58.4491 54.8817,57.5041 54.8817,56.1921 L54.8817,45.7451 L58.0317,45.7451 L58.0317,56.0081 C58.0317,56.6381 58.1107,57.0841 58.2417,57.3461 C58.3727,57.6091 58.6097,57.7401 58.9237,57.7401 C59.1867,57.7401 59.4497,57.6611 59.7107,57.4781 C59.9737,57.3201 60.1577,57.1101 60.2627,56.8481 Z M76.4043,56.8481 L76.4043,45.7451 L79.5533,45.7451 L79.5533,59.7351 L77.0873,59.7351 L76.8243,58.0291 L76.7453,58.0291 C76.0893,59.3151 75.0653,59.9711 73.7263,59.9711 C72.8083,59.9711 72.1263,59.6561 71.6793,59.0521 C71.2333,58.4491 71.0233,57.5041 71.0233,56.1921 L71.0233,45.7451 L74.1733,45.7451 L74.1733,56.0081 C74.1733,56.6381 74.2523,57.0841 74.3833,57.3461 C74.5143,57.6091 74.7513,57.7401 75.0653,57.7401 C75.3283,57.7401 75.5913,57.6611 75.8533,57.4781 C76.1153,57.3201 76.2993,57.1101 76.4043,56.8481 Z M71.9688,40.5747 L71.9688,43.1207 L68.8448,43.1207 L68.8448,59.7087 L65.7748,59.7087 L65.7748,43.1207 L62.6518,43.1207 L62.6518,40.5747 L71.9688,40.5747 Z M87.1133,53.6723 L87.1133,51.8343 C87.1133,50.7583 87.0873,49.9183 87.0083,49.3153 C86.9283,48.7373 86.8243,48.3183 86.6403,48.0553 C86.4823,47.8183 86.2203,47.6883 85.9053,47.6883 C85.6173,47.6883 85.3283,47.8183 85.0653,48.0553 C84.8023,48.3183 84.6193,48.6323 84.5143,49.0003 L84.5143,56.9263 C84.6453,57.1623 84.8293,57.3463 85.0393,57.4783 C85.2493,57.6093 85.4853,57.6613 85.7483,57.6613 C86.0623,57.6613 86.3253,57.5293 86.5353,57.2943 C86.7183,57.0583 86.8773,56.6383 86.9553,56.0603 C87.0343,55.4833 87.0873,54.6953 87.0873,53.6723 L87.1133,53.6723 Z M89.0543,46.0603 C89.4743,46.4543 89.7903,47.0843 89.9733,47.9763 C90.1573,48.8423 90.2363,50.0763 90.2623,51.6773 L90.2623,53.8823 C90.2623,55.9553 90.0003,57.5043 89.5013,58.4753 C89.0033,59.4453 88.2413,59.9443 87.1653,59.9443 C86.5613,59.9443 86.0373,59.7873 85.5383,59.5253 C85.0393,59.2353 84.6723,58.8683 84.4353,58.3963 L84.3573,58.3963 L84.0423,59.7083 L81.4433,59.7083 L81.4433,39.8653 L84.4883,39.8653 L84.4883,47.2413 L84.5143,47.2413 C84.7773,46.7163 85.1713,46.2703 85.6693,45.9553 C86.1683,45.6133 86.7183,45.4563 87.2973,45.4563 C88.0313,45.4563 88.6343,45.6663 89.0543,46.0603 Z" id="Shape" fill="#000000"></path>
    </g>
</svg>