<?xml version="1.0" encoding="UTF-8"?>
<svg width="100px" height="100px" viewBox="0 0 100 100" version="1.1" xmlns="http://www.w3.org/2000/svg" xmlns:xlink="http://www.w3.org/1999/xlink">
    <!-- Generator: Sketch 57.1 (83088) - https://sketch.com -->
    <title>brand/youtube-alt-brand</title>
    <desc>Created with Sketch.</desc>
    <g id="brand/youtube-alt" stroke="none" stroke-width="1" fill="none" fill-rule="evenodd">
        <path d="M40.0327,64.0001 L40.0327,34.0171 L66.0627,49.0081 L40.0327,64.0001 Z M97.9407,24.9551 C96.7867,20.6721 93.4097,17.2951 89.1267,16.1421 C81.3007,14.0001 49.9997,14.0001 49.9997,14.0001 C49.9997,14.0001 18.6987,14.0001 10.8727,16.0601 C6.6717,17.2121 3.2127,20.6721 2.0597,24.9551 C-0.0003,32.7801 -0.0003,49.0081 -0.0003,49.0081 C-0.0003,49.0081 -0.0003,65.3171 2.0597,73.0611 C3.2127,77.3441 6.5897,80.7221 10.8727,81.8741 C18.7807,84.0161 49.9997,84.0161 49.9997,84.0161 C49.9997,84.0161 81.3007,84.0161 89.1267,81.9571 C93.4097,80.8041 96.7867,77.4271 97.9407,73.1431 C100.000115,65.3171 100.000115,49.0911 100.000115,49.0911 C100.000115,49.0911 100.0817,32.7801 97.9407,24.9551 L97.9407,24.9551 Z" id="Fill-1" fill="#000000"></path>
    </g>
</svg>